<svg version="1.1" xmlns="http://www.w3.org/2000/svg" xmlns:xlink="http://www.w3.org/1999/xlink" width="1215" height="1648"><desc>title%20Create%20Syllabus%0A%0Aactor%20%23green%3A0.5%20%22Workspace%20Admin%22%20as%20w%0Aboundary%20%22FUniverse%20Admin%20Client%22%20as%20f%0Aparticipant%20%22Search%20Service%22%20as%20ss%0Acontrol%20%22Syllabus%20Controller%22%20as%20gc%0Aparticipant%20%22Syllabus%20Service%22%20as%20gs%0Adatabase%20%23blue%3A1%20%22Database%22%20as%20db%0Aw-%3Ef%3AGo%20to%20Syllabus%20list%20page%0Aactivate%20f%0Aw%3C--f%3ADisplay%20Syllabus%20list%20page%0A%0Aw-%3Ef%3AClick%20Create%20Syllabus%20button%0Aw%3C--f%3ADisplay%20Create%20Syllabus%20popup%0Aw-%3Ef%3AType%20information%20of%20Syllabus%0Af-%3Ef%3AValidate%20input%20data%0Aactivate%20f%0Af--%3Ef%3AValidate%20value%0Adeactivate%20f%0Aalt%20If%20the%20input%20data%20is%20wrong%0Aw%3C--f%3AValidate%20Message%0Aend%0Aw-%3Ef%3ASearch%20Subject%0Af-%3Ess%3AGET%5Cn%2Fapi%2Fsearch%3Fentity%3Dsubject%5Cn%2B%20%7BparamToSearch%7D%0Aactivate%20ss%0Af%3C--ss%3Asubject%20list%0Adeactivate%20ss%0Aalt%20If%20there%20is%20no%20subject%20match%20with%20condition%0Aw%3C--f%3ANo%20Options%0Aelse%20Else%0Aw%3C--f%3A%20Subject%20options%20list%0Aw-%3Ef%3ASelect%20Subject%20and%20click%20Save%0Af-%3Egc%3APOST%3A%20%2Fapi%2Fsyllabus%0Aactivate%20gc%0Aalt%20If%20there%20is%20required%20field%20do%20not%20have%20value%0Af%3C--gc%3A%3Ccolor%3A%23red%3E400%20BAD_REQUEST%3A%20Missing%20required%20property%3C%2Fcolor%3E%0Aw%3C--f%3AMessage%20is%20required%0Aelse%0A%0Agc-%3Egs%3Asave()%0Aactivate%20gs%0Ags-%3Edb%3ACreate%20Syllabus%0Aactivate%20db%0Ags%3C--db%3ASyllabus%20entity%0Adeactivate%20db%0Agc%3C--gs%3ANew%20Syllabus%20data%0Adeactivate%20gs%0Af%3C--gc%3A%3Ccolor%3A%23green%3E201%20OK%5CnResponse%20body%3A%20CREATED%3C%2Fcolor%3E%0Adeactivate%20gc%0Aw%3C--f%3A%20Display%20Syllabus%20list%20%5Cnwith%20new%20Syllabus%0Adeactivate%20f%0Aend%0Aend%20f%0A%0A%0A</desc><defs/><g><g/><g/><g/><g/><g/><g/><g/><g/><g/><g/><g/><g/><g/><g/><g/><g/><g/><g/><g/><g/><g/><g/><g/><g/><g/><g/><g/><g/><g/><g/><g/><g/><g/><g><rect fill="white" stroke="none" x="0" y="0" width="1215" height="1648"/></g><g><text fill="black" stroke="none" font-family="sans-serif" font-size="16.5pt" font-style="normal" font-weight="normal" text-decoration="normal" x="530.1731161412108" y="24.50280495" text-anchor="start" dominant-baseline="alphabetic" xml:space="preserve">Create Syllabus</text></g><g/><g><path fill="none" stroke="black" paint-order="fill stroke markers" d=" M 89.84361815 129.701514202 L 89.84361815 1648.8754211019998" stroke-miterlimit="10" stroke-width="1.3612669416666667" stroke-dasharray="12.565541,5.445067766666667"/><path fill="none" stroke="black" paint-order="fill stroke markers" d=" M 342.0369566354817 129.701514202 L 342.0369566354817 1648.8754211019998" stroke-miterlimit="10" stroke-width="1.3612669416666667" stroke-dasharray="12.565541,5.445067766666667"/><path fill="none" stroke="black" paint-order="fill stroke markers" d=" M 580.0143204424478 129.701514202 L 580.0143204424478 1648.8754211019998" stroke-miterlimit="10" stroke-width="1.3612669416666667" stroke-dasharray="12.565541,5.445067766666667"/><path fill="none" stroke="black" paint-order="fill stroke markers" d=" M 772.9400517671222 129.701514202 L 772.9400517671222 1648.8754211019998" stroke-miterlimit="10" stroke-width="1.3612669416666667" stroke-dasharray="12.565541,5.445067766666667"/><path fill="none" stroke="black" paint-order="fill stroke markers" d=" M 954.2530793049477 129.701514202 L 954.2530793049477 1648.8754211019998" stroke-miterlimit="10" stroke-width="1.3612669416666667" stroke-dasharray="12.565541,5.445067766666667"/><path fill="none" stroke="black" paint-order="fill stroke markers" d=" M 1117.6348171699217 129.701514202 L 1117.6348171699217 1648.8754211019998" stroke-miterlimit="10" stroke-width="1.3612669416666667" stroke-dasharray="12.565541,5.445067766666667"/></g><g><g><path fill="white" stroke="green" paint-order="fill stroke markers" d=" M 99.154684031 60.60360424300001 A 9.311065881 9.311065881 0 1 1 99.15467937546744 60.594293178670846 M 89.84361815 69.91467012400001 L 89.84361815 89.84361815000001 M 78.08227177399999 77.102159576 L 101.604964526 77.102159576 M 89.84361815 89.84361815000001 L 78.08227177399999 108.465749912 M 89.84361815 89.84361815000001 L 101.604964526 108.465749912" stroke-miterlimit="10" stroke-width="1.3884922805000002" stroke-dasharray=""/></g><g><text fill="black" stroke="none" font-family="sans-serif" font-size="11pt" font-style="normal" font-weight="normal" text-decoration="normal" x="30.50219511533203" y="124.80095321200001" text-anchor="start" dominant-baseline="alphabetic" xml:space="preserve">Workspace Admin</text></g><g><path fill="white" stroke="black" paint-order="fill stroke markers" d=" M 374.4623351859817 82.819480731 A 24.2577769005 24.2577769005 0 1 1 374.4623230570943 82.79522295814245 M 311.0000703654817 57.17321154999999 L 311.0000703654817 108.465749912 M 309.6115780849817 82.819480731 L 325.9467813849817 82.819480731" stroke-miterlimit="10" stroke-width="2.7769845610000004" stroke-dasharray=""/></g><g><text fill="black" stroke="none" font-family="sans-serif" font-size="11pt" font-style="normal" font-weight="normal" text-decoration="normal" x="265.04700454807937" y="124.80095321200001" text-anchor="start" dominant-baseline="alphabetic" xml:space="preserve">FUniverse Admin Client</text></g><path fill="none" stroke="none"/><g><path fill="white" stroke="black" paint-order="fill stroke markers" d=" M 512.5877211143892 85.75981732500001 L 647.4409197705064 85.75981732500001 L 647.4409197705064 129.701514202 L 512.5877211143892 129.701514202 L 512.5877211143892 85.75981732500001 Z" stroke-miterlimit="10" stroke-width="2.613632528" stroke-dasharray=""/></g><g><text fill="black" stroke="none" font-family="sans-serif" font-size="11pt" font-style="normal" font-weight="normal" text-decoration="normal" x="530.3114166948892" y="113.36631090200002" text-anchor="start" dominant-baseline="alphabetic" xml:space="preserve">Search Service</text></g><g><path fill="white" stroke="black" paint-order="fill stroke markers" d=" M 797.1978286676222 82.819480731 A 24.2577769005 24.2577769005 0 1 1 797.1978165387347 82.79522295814245 M 769.6730111071222 58.561703830499994 L 779.4741330871221 50.39410218049999 M 769.6730111071222 58.561703830499994 L 779.4741330871221 66.72930548049999" stroke-miterlimit="10" stroke-width="2.7769845610000004" stroke-dasharray=""/></g><g><text fill="black" stroke="none" font-family="sans-serif" font-size="11pt" font-style="normal" font-weight="normal" text-decoration="normal" x="711.4225499360675" y="124.80095321200001" text-anchor="start" dominant-baseline="alphabetic" xml:space="preserve">Syllabus Controller</text></g><path fill="none" stroke="none"/><g><path fill="white" stroke="black" paint-order="fill stroke markers" d=" M 882.3454542810883 85.75981732500001 L 1026.160704328807 85.75981732500001 L 1026.160704328807 129.701514202 L 882.3454542810883 129.701514202 L 882.3454542810883 85.75981732500001 Z" stroke-miterlimit="10" stroke-width="2.613632528" stroke-dasharray=""/></g><g><text fill="black" stroke="none" font-family="sans-serif" font-size="11pt" font-style="normal" font-weight="normal" text-decoration="normal" x="900.0691498615884" y="113.36631090200002" text-anchor="start" dominant-baseline="alphabetic" xml:space="preserve">Syllabus Service</text></g><g><path fill="white" stroke="blue" paint-order="fill stroke markers" d=" M 1093.7854203519216 97.684515734 L 1093.7854203519216 63.380588804000006 L 1141.4842139879217 63.380588804000006 L 1141.4842139879217 97.684515734" stroke-miterlimit="10" stroke-width="2.7769845610000004" stroke-dasharray=""/><path fill="white" stroke="blue" paint-order="fill stroke markers" d=" M 1141.4842139879217 62.1881189631 L 1141.483021528018 62.29592950801663 L 1141.479444267552 62.403729271968594 L 1141.4734825642465 62.51150747506936 L 1141.4651370142674 62.619253339588404 L 1141.4544084521622 62.72695609102909 L 1141.4412979507783 62.834604959206004 L 1141.425806821155 62.94218917932205 L 1141.4079366123924 63.04969799304486 L 1141.3876891114965 63.15712064958265 L 1141.3650663432002 63.2644464067593 L 1141.3400705697618 63.371664532088516 L 1141.3127042907379 63.47876430384712 L 1141.2829702427332 63.58573501214718 L 1141.250871399128 63.692565960007016 L 1141.2164109697799 63.79924646442086 L 1141.179592400703 63.90576585742718 L 1141.140419373724 64.01211348717543 L 1141.098895806112 64.11827871899126 L 1141.05502585019 64.22425093643996 L 1141.0088138929168 64.3300195423881 L 1140.9602645554494 64.43557396006322 L 1140.9093826926814 64.54090363411153 L 1140.8561733927563 64.64599803165338 L 1140.8006419765602 64.75084664333659 L 1140.7427939971883 64.85543898438739 L 1140.68263523939 64.95976459565881 L 1140.6201717189913 65.06381304467668 L 1140.5554096822923 65.16757392668278 L 1140.4883556054422 65.27103686567541 L 1140.4190161937931 65.37419151544687 L 1140.3473983812287 65.47702756061814 L 1140.27350932947 65.5795347176704 L 1140.1973564273608 65.68170273597339 L 1140.118947290128 65.7835213988104 L 1140.03828975862 65.88498052439998 L 1139.9553918985225 65.98606996691414 L 1139.8702619995527 66.08677961749288 L 1139.7829085746293 66.18709940525505 L 1139.6933403590222 66.28701929830548 L 1139.601566309478 66.38652930473813 L 1139.5075956033256 66.48561947363528 L 1139.4114376375571 66.58427989606261 L 1139.3131020278888 66.6825007060601 L 1139.2125986078001 66.7802720816286 L 1139.1099374275489 66.87758424571203 L 1139.0051287531678 66.97442746717506 L 1138.898183065437 67.07079206177627 L 1138.7891110588362 67.1666683931365 L 1138.6779236404748 67.2620468737025 L 1138.5646319290022 67.35691796570569 L 1138.4492472534953 67.45127218211596 L 1138.3317811523252 67.54510008759026 L 1138.2122453720044 67.63839229941624 L 1138.090651866011 67.73113948845047 L 1137.9670127935947 67.82333238005134 L 1137.8413405185593 67.9149617550065 L 1137.7136476080277 68.00601845045483 L 1137.583946831185 68.09649336080267 L 1137.4522511579999 68.18637743863435 L 1137.3185737579306 68.27566169561702 L 1137.1829279986057 68.36433720339936 L 1137.0453274444878 68.45239509450451 L 1136.905785855518 68.53982656321674 L 1136.7643171857387 68.62662286646201 L 1136.620935581899 68.71277532468237 L 1136.4756553820396 68.79827532270376 L 1136.32849111406 68.88311431059763 L 1136.1794574942637 68.9672838045359 L 1136.028569425889 69.0507753876393 L 1135.8758419976166 69.13358071081912 L 1135.7212904820622 69.21569149361203 L 1135.5649303342486 69.29709952500816 L 1135.4067771900604 69.37779666427225 L 1135.2468468646803 69.45777484175761 L 1135.085155351007 69.53702605971311 L 1134.9217188180576 69.61554239308303 L 1134.756553609349 69.69331599029945 L 1134.589676241265 69.77033907406746 L 1134.4211034014024 69.84660394214286 L 1134.2508519469052 69.92210296810242 L 1134.078938902777 69.99682860210643 L 1133.9053814601791 70.07077337165379 L 1133.7301969747107 70.14392988232913 L 1133.5534029646747 70.21629081854239 L 1133.3750171093245 70.28784894426022 L 1133.1950572470973 70.35859710372968 L 1133.0135413738292 70.42852822219379 L 1132.8304876409563 70.49763530659898 L 1132.6459143536993 70.5659114462944 L 1132.4598399692331 70.63334981372294 L 1132.2722830948412 70.69994366510412 L 1132.0832624860545 70.76568634110825 L 1131.8927970447767 70.83057126752253 L 1131.7009058173928 70.89459195590838 L 1131.507607992866 70.95774200425032 L 1131.3129229008175 71.02001509759614 L 1131.1168700095943 71.08140500868842 L 1130.9194689243222 71.14190559858717 L 1130.720739384945 71.20151081728383 L 1130.5207012642513 71.26021470430622 L 1130.3193745658864 71.31801138931453 L 1130.1167794223522 71.37489509268845 L 1129.9129360929946 71.43086012610503 L 1129.7078649619762 71.48590089310757 L 1129.5015865362395 71.54001188966522 L 1129.2941214434552 71.59318770472345 L 1129.0854904299595 71.64542302074504 L 1128.87571435868 71.69671261424193 L 1128.664814207049 71.7470513562975 L 1128.452811064906 71.79643421307951 L 1128.2397261323883 71.84485624634341 L 1128.0255807178119 71.89231261392625 L 1127.8103962355397 71.93879857023082 L 1127.5941942038405 71.9843094667002 L 1127.3769962427373 72.02884075228269 L 1127.1588240718452 72.07238797388683 L 1126.9396995081997 72.11494677682676 L 1126.7196444640745 72.15651290525764 L 1126.4986809447903 72.19708220260128 L 1126.2768310465153 72.23665061196175 L 1126.0541169540543 72.27521417653107 L 1125.830560938631 72.31276903998494 L 1125.6061853556603 72.3493114468683 L 1125.381012642514 72.38483774297092 L 1125.1550653162756 72.41934437569277 L 1124.9283659714895 72.45282789439938 L 1124.700937277901 72.48528495076673 L 1124.4728019781903 72.51671229911628 L 1124.2439828856968 72.54710679673934 L 1124.0145028821396 72.5764654042115 L 1123.7843849153276 72.60478518569649 L 1123.5536519968655 72.63206330923974 L 1123.3223271998531 72.65829704705163 L 1123.0904336565773 72.68348377578025 L 1122.8579945561992 72.70762097677371 L 1122.625033142435 72.73070623633201 L 1122.3915727112321 72.75273724594847 L 1122.1576366084391 72.77371180254045 L 1121.9232482274713 72.79362780866978 L 1121.6884310069713 72.81248327275246 L 1121.4532084284656 72.83027630925778 L 1121.217604014016 72.84700513889692 L 1120.9816413238677 72.86266808880085 L 1120.745343954093 72.87726359268764 L 1120.5087355342318 72.89079019101906 L 1120.2718397249294 72.90324653114655 L 1120.0346802155689 72.91463136744649 L 1119.7972807219037 72.9249435614447 L 1119.5596649836853 72.93418208193043 L 1119.3218567622896 72.94234600505929 L 1119.0838798383406 72.94943451444577 L 1118.8457580093323 72.95544690124485 L 1118.6075150872489 72.96038256422287 L 1118.3691748961846 72.96424100981763 L 1118.1307612699595 72.9670218521878 L 1117.892298049738 72.96872481325143 L 1117.6538090816427 72.96934972271386 L 1117.4153182143723 72.96889651808466 L 1117.1768492968145 72.96736524468392 L 1116.9384261756622 72.96475605563768 L 1116.7000726930291 72.96106921186271 L 1116.4618126840649 72.95630508204027 L 1116.2236699745715 72.9504641425794 L 1115.9856683786218 72.94354697756918 L 1115.747831696177 72.93555427872033 L 1115.510183710707 72.9264868452961 L 1115.2727481868126 72.91634558403224 L 1115.0355488678479 72.90513150904647 L 1114.7986094735475 72.89284574173689 L 1114.561953697653 72.87948951067006 L 1114.3256052055453 72.86506415145789 L 1114.0895876318764 72.84957110662431 L 1113.8539245782067 72.8330119254609 L 1113.6186396106457 72.81538826387197 L 1113.3837562574936 72.79670188420899 L 1113.1492980068904 72.77695465509434 L 1112.9152883044653 72.7561485512345 L 1112.6817505509941 72.73428565322251 L 1112.448708100057 72.71136814732996 L 1112.2161842557055 72.68739832528833 L 1111.9842022701296 72.66237858405984 L 1111.7527853413349 72.63631142559778 L 1111.5219566108215 72.60919945659627 L 1111.2917391612698 72.58104538822961 L 1111.0621560142333 72.55185203588118 L 1110.8332301278351 72.5216223188619 L 1110.6049843944731 72.49035926011825 L 1110.3774416385304 72.45806598593009 L 1110.1506246140932 72.4247457255979 L 1109.9245560026745 72.39040181111994 L 1109.6992584109476 72.35503767685907 L 1109.4747543684837 72.31865685919922 L 1109.2510663254998 72.28126299619186 L 1109.0282166506138 72.24285982719209 L 1108.8062276286078 72.20345119248485 L 1108.5851214581985 72.16304103290075 L 1108.3649202498193 72.12163338942209 L 1108.145646023407 72.07923240277869 L 1107.9273207062017 72.03584231303388 L 1107.7099661305535 71.99146745916049 L 1107.4936040317384 71.94611227860693 L 1107.278256045786 71.89978130685344 L 1107.0639437073157 71.85247917695861 L 1106.8506884473827 71.80421061909601 L 1106.6385115913351 71.75498046008119 L 1106.427434356682 71.70479362288901 L 1106.2174778509707 71.65365512616141 L 1106.0086630696767 71.60157008370541 L 1105.8010108941044 71.54854370398188 L 1105.594542089298 71.49458128958457 L 1105.3892773019666 71.43968823671 L 1105.185237058417 71.38387003461766 L 1104.982441762504 71.32713226508127 L 1104.7809116935885 71.26948060183051 L 1104.5806670045085 71.21092080998365 L 1104.3817277195672 71.15145874547107 L 1104.1841137325264 71.0911003544497 L 1103.9878448046204 71.0298516727083 L 1103.7929405625787 70.96771882506403 L 1103.5994204966626 70.90470802474988 L 1103.4073039587179 70.84082557279336 L 1103.2166101602381 70.77607785738643 L 1103.0273581704441 70.71047135324669 L 1102.8395669143772 70.64401262096986 L 1102.6532551710065 70.5767083063738 L 1102.4684415713511 70.50856513983389 L 1102.285144596617 70.43958993560999 L 1102.1033825763488 70.36978959116503 L 1101.9231736865972 70.29917108647531 L 1101.744535948101 70.22774148333244 L 1101.5674872244851 70.1555079246372 L 1101.3920452204743 70.08247763368529 L 1101.2182274801228 70.00865791344492 L 1101.0460513850599 69.9340561458266 L 1100.8755341527517 69.85867979094495 L 1100.706692834779 69.78253638637263 L 1100.539544315133 69.70563354638664 L 1100.3741053085266 69.62797896120689 L 1100.2103923587226 69.54958039622719 L 1100.0484218368792 69.47044569123871 L 1099.8882099399138 69.39058275964601 L 1099.7297726888828 69.30999958767568 L 1099.5731259273791 69.22870423357777 L 1099.4182853199482 69.14670482681996 L 1099.2652663505219 69.06400956727457 L 1099.1140843208696 68.98062672439866 L 1098.9647543490682 68.89656463640702 L 1098.8172913679907 68.8118317094384 L 1098.6717101238123 68.72643641671489 L 1098.5280251745357 68.6403872976946 L 1098.3862508885366 68.55369295721772 L 1098.246401443125 68.46636206464606 L 1098.1084908231294 68.37840335299609 L 1097.9725328194963 68.28982561806569 L 1097.8385410279134 68.20063771755453 L 1097.7065288474475 68.11084857017835 L 1097.5765094792073 68.02046715477704 L 1097.4484959250208 67.92950250941684 L 1097.322500986137 67.83796373048648 L 1097.1985372619445 67.74585997178757 L 1097.0766171487128 67.65320044361923 L 1096.9567528383513 67.55999441185705 L 1096.8389563171913 67.46625119702654 L 1096.7232393647869 67.37198017337107 L 1096.6096135527368 67.27719076791445 L 1096.4980902435273 67.18189245951821 L 1096.3886805893967 67.08609477793381 L 1096.281395531219 66.98980730284956 L 1096.1762457974107 66.89303966293272 L 1096.0732419028577 66.79580153486665 L 1095.9723941478635 66.69810264238313 L 1095.8737126171193 66.59995275528999 L 1095.7772071786965 66.50136168849414 L 1095.6828874830578 66.40233930102012 L 1095.590762962095 66.30289549502413 L 1095.5008428281826 66.20304021480393 L 1095.4131360732597 66.1027834458043 L 1095.3276514679285 66.00213521361863 L 1095.2443975605781 65.90110558298623 L 1095.1633826765303 65.799704656786 L 1095.0846149172055 65.69794257502603 L 1095.0081021593141 65.59582951382973 L 1094.9338520540684 65.4933756844181 L 1094.8618720264167 65.3905913320887 L 1094.792169274302 65.28748673519112 L 1094.7247507679415 65.18407220409914 L 1094.6596232491295 65.08035808017966 L 1094.5967932305637 64.97635473475869 L 1094.5362669951935 64.87207256808405 L 1094.478050595592 64.76752200828555 L 1094.4221498533507 64.66271351033203 L 1094.3685703584972 64.55765755498592 L 1094.3173174689366 64.45236464775525 L 1094.2683963099146 64.34684531784296 L 1094.221811773507 64.24111011709415 L 1094.1775685181278 64.13516961894075 L 1094.1356709680665 64.0290344173443 L 1094.0961233130427 63.92271512573653 L 1094.0589295077891 63.81622237595798 L 1094.0240932716551 63.70956681719489 L 1093.9916180882356 63.602759114914264 L 1093.9615072050215 63.49580994979732 L 1093.9337636330763 63.38873001667144 L 1093.9083901467338 63.28153002344071 L 1093.885389283322 63.17422069001512 L 1093.8647633429075 63.066812747238586 L 1093.8465143880674 62.959316935815885 L 1093.830644243682 62.85174400523857 L 1093.8171544967524 62.74410471271006 L 1093.8060464962423 62.636409822069915 L 1093.7973213529422 62.52867010271744 L 1093.7909799393592 62.4208963285348 L 1093.7870228896295 62.313099276809595 L 1093.7854505994549 62.20528972715717 L 1093.7862632260628 62.09747846044265 L 1093.7894606881914 61.98967625770286 L 1093.795042666097 61.88189389906824 L 1093.8030086015867 61.77414216268484 L 1093.8133576980736 61.66643182363649 L 1093.8260889206563 61.558773652867366 L 1093.8412009962235 61.4511784161048 L 1093.85869241358 61.34365687278283 L 1093.8785614235987 61.236219774966166 L 1093.9008060393955 61.12887786627507 L 1093.925424036527 61.02164188081096 L 1093.952412953214 60.91452254208302 L 1093.9817700905874 60.807530561935856 L 1094.0134925129578 60.70067663947832 L 1094.0475770481096 60.593971460013606 L 1094.0840202876177 60.487425693970756 L 1094.1228185871885 60.381049995837586 L 1094.1639680670241 60.27485500309525 L 1094.2074646122112 60.16885133515453 L 1094.2533038731312 60.06304959229389 L 1094.3014812658964 59.95746035459945 L 1094.3519919728076 59.852094180906974 L 1094.4048309428363 59.746961607746044 L 1094.4599928921293 59.64207314828636 L 1094.517472304538 59.537439291286454 L 1094.5772634321688 59.43307050004484 L 1094.6393602959588 59.32897721135367 L 1094.7037566862732 59.22516983445505 L 1094.770446163527 59.12165875000019 L 1094.8394220588277 59.01845430901127 L 1094.9106774746435 58.91556683184637 L 1094.9842052854922 58.81300660716748 L 1095.0599981386538 58.7107838909116 L 1095.1380484549063 58.60890890526517 L 1095.218348429283 58.507391837641855 L 1095.3008900318534 58.406242839663825 L 1095.3856650085263 58.30547202614659 L 1095.4726648818742 58.205089474087515 L 1095.5618809519826 58.105105221658164 L 1095.6533042973185 58.00552926720046 L 1095.746925775624 57.90637156822687 L 1095.8427360248293 57.807642040424646 L 1095.9407254639889 57.709350556664305 L 1096.0408842942406 57.61150694601232 L 1096.143202499785 57.514120992748204 L 1096.247669848887 57.417202435386145 L 1096.3542758948984 57.320760965701105 L 1096.4630099773037 57.224806227759686 L 1096.5738612227851 57.12934781695572 L 1096.6868185463104 57.03439527905074 L 1096.8018706522414 56.93995810921942 L 1096.9190060354636 56.84604575110002 L 1097.0382129825362 56.75266759585011 L 1097.1594795728636 56.65983298120741 L 1097.2827936798878 56.567551190555996 L 1097.4081429723014 56.47583145199805 L 1097.535514915279 56.384682937430995 L 1097.6648967717329 56.29411476163032 L 1097.796275603585 56.20413598133814 L 1097.9296382730615 56.1147555943575 L 1098.064971444007 56.02598253865261 L 1098.2022615832168 55.937825691455075 L 1098.3414949617916 55.85029386837614 L 1098.4826576565094 55.763395822525176 L 1098.6257355512187 55.677140243634355 L 1098.7707143382488 55.591535757189675 L 1098.917579519842 55.50659092356846 L 1099.0663164096027 55.42231423718327 L 1099.2169101339657 55.33871412563253 L 1099.369345633684 55.25579894885771 L 1099.5236076653348 55.1735769983074 L 1099.6796808028434 55.092056496108135 L 1099.8375494390264 55.01124559424221 L 1099.9971977871512 54.93115237373246 L 1100.1586098825164 54.851784843834196 L 1100.3217695840467 54.77315094123426 L 1100.4866605759084 54.6952585292574 L 1100.6532663691394 54.61811539707989 L 1100.821570303299 54.54172925895067 L 1100.9915555481343 54.46610775341989 L 1101.1632051052627 54.391258442575094 L 1101.336501809871 54.317188811284986 L 1101.5114283324335 54.24390626645098 L 1101.6879671804436 54.171418136266475 L 1101.8661007001638 54.09973166948409 L 1102.0458110783902 54.028854034690774 L 1102.2270803442352 53.95879231959093 L 1102.409890370923 53.88955353029769 L 1102.5942228776032 53.82114459063227 L 1102.7800594311789 53.753572341431656 L 1102.9673814481494 53.68684353986444 L 1103.1561701964695 53.62096485875517 L 1103.3464067974212 53.55594288591707 L 1103.5380722275033 53.49178412349323 L 1103.7311473203324 53.42849498730643 L 1103.92561276856 53.366081806217544 L 1104.1214491258036 53.304550821492676 L 1104.3186368085906 53.24390818617902 L 1104.5171560983167 53.18415996448957 L 1104.7169871432186 53.12531213119671 L 1104.9181099603586 53.067370571034715 L 1105.1205044376222 53.01034107811134 L 1105.3241503357303 52.95422935532834 L 1105.5290272902632 52.89904101381123 L 1105.7351148136959 52.84478157234818 L 1105.942392297448 52.79145645683812 L 1106.1508390139434 52.73907099974815 L 1106.3604341186845 52.687630439580346 L 1106.5711566523355 52.637139920347835 L 1106.7829855428186 52.58760449106049 L 1106.995899607421 52.53902910521993 L 1107.209877554914 52.49141862032429 L 1107.4248979876813 52.444777797382365 L 1107.6409394038585 52.399111300437596 L 1107.8579801994842 52.354423696101605 L 1108.0759986706594 52.3107194530976 L 1108.294973015719 52.26800294181345 L 1108.5148813374108 52.2262784338647 L 1108.735701645086 52.18555010166736 L 1108.9574118568976 52.14582201802072 L 1109.1799898020095 52.10709815570004 L 1109.4034132228126 52.06938238705927 L 1109.6276597771507 52.032678483643856 L 1109.8527070405557 51.996990115813546 L 1110.0785325084885 51.96232085237539 L 1110.3051135985904 51.928674160226834 L 1110.5324276529416 51.89605340400906 L 1110.7604519403258 51.8644618457705 L 1110.9891636585041 51.833902644640645 L 1111.2185399364957 51.80437885651416 L 1111.4485578368638 51.775893433745246 L 1111.67919435801 51.74844922485244 L 1111.9104264364744 51.722048974233765 L 1112.1422309492418 51.69669532189228 L 1112.3745847160542 51.672390803172085 L 1112.6074645017284 51.649137848504814 L 1112.84084701848 51.626938783166544 L 1113.0747089282515 51.60579582704531 L 1113.3090268450474 51.58571109441911 L 1113.543777337271 51.56668659374447 L 1113.7789369300685 51.54872422745561 L 1114.014482107677 51.53182579177417 L 1114.2503893157746 51.515992976529645 L 1114.4866349638373 51.50122736499037 L 1114.723195427497 51.4875304337052 L 1114.960047050905 51.47490355235584 L 1115.1971661490954 51.4633479836199 L 1115.434529010357 51.45286488304463 L 1115.6721118986006 51.443455298931354 L 1115.9098910557361 51.43512017223063 L 1116.1478427040454 51.4278603364482 L 1116.3859430485622 51.42167651756158 L 1116.6241682794503 51.41656933394751 L 1116.8624945743852 51.41253929632009 L 1117.1008981009363 51.40958680767973 L 1117.3393550189492 51.407712163272826 L 1117.577841482931 51.40691555056227 L 1117.816333644434 51.40719704920866 L 1118.054807654441 51.40855663106237 L 1118.2932396657493 51.41099416016634 L 1118.5316058353567 51.414509392769695 L 1118.7698823268452 51.419101977352106 L 1119.0080453127634 51.42477145465894 L 1119.246070977012 51.431517257747196 L 1119.4839355172226 51.43933871204218 L 1119.7216151471393 51.44823503540498 L 1119.9590860989972 51.45820533821068 L 1120.1963246258993 51.4692486234373 L 1120.4333070041903 51.48136378676553 L 1120.6700095358299 51.49454961668913 L 1120.906408550762 51.50880479463608 L 1121.1424804092826 51.524127895100484 L 1121.3782015044023 51.54051738578506 L 1121.613548264208 51.5579716277544 L 1121.8484971542198 51.57648887559884 L 1122.0830246797448 51.59606727760904 L 1122.3171073882254 51.6167048759611 L 1122.5507218715861 51.6383996069124 L 1122.7838447685733 51.66114930100791 L 1123.0164527670913 51.684951683297186 L 1123.2485226065344 51.70980437356183 L 1123.480031080112 51.735704886553535 L 1123.7109550371692 51.76265063224257 L 1123.9412713855036 51.79063891607683 L 1124.1709570936714 51.81966693925126 L 1124.3999891932938 51.849731798987726 L 1124.6283447813514 51.88083048882531 L 1124.856001022476 51.91295989892094 L 1125.0829351512327 51.94611681636038 L 1125.3091244743982 51.980297925479526 L 1125.5345463732283 52.01549980819594 L 1125.7591783057214 52.0517189443507 L 1125.982997808871 52.08895171206036 L 1126.2059825009135 52.127194388079175 L 1126.4281100835656 52.16644314817141 L 1126.649358344254 52.20669406749378 L 1126.8697051583372 52.247943120987884 L 1127.089128491317 52.29018618378274 L 1127.3076064010436 52.33341903160728 L 1127.5251170399074 52.37763734121275 L 1127.7416386570262 52.422836690805035 L 1127.9571496004187 52.46901256048684 L 1128.17162831917 52.516160332709674 L 1128.3850533655868 52.564275292735616 L 1128.5974033973428 52.613352629108746 L 1128.8086571796114 52.663387434136325 L 1129.0187935871907 52.71437470437956 L 1129.2277916066148 52.7663093411539 L 1129.4356303382558 52.819186151038956 L 1129.6422889984142 52.8729998463978 L 1129.8477469213958 52.92774504590574 L 1130.0519835615798 52.983416275088445 L 1130.2549784954722 53.040007966869396 L 1130.4567114237489 53.09751446212657 L 1130.6571621732849 53.15593001025836 L 1130.8563106991726 53.21524876975863 L 1131.0541370867252 53.27546480880087 L 1131.2506215534688 53.33657210583136 L 1131.4457444511204 53.3985645501713 L 1131.6394862675531 53.461435942627936 L 1131.8318276287466 53.52517999611441 L 1132.022749300725 53.58979033627848 L 1132.2122321914803 53.655260502139996 L 1132.4002573528812 53.721583946736914 L 1132.5868059825682 53.78875403778004 L 1132.771859425834 53.85676405831625 L 1132.9553991774883 53.92560720740017 L 1133.137406883709 53.995276600774254 L 1133.3178643438769 54.065765271557225 L 1133.4967535123967 54.13706617094075 L 1133.6740565005007 54.2091721688943 L 1133.8497555780373 54.28207605487816 L 1134.0238331752457 54.35577053856451 L 1134.196271884511 54.43024825056637 L 1134.367054462106 54.50550174317461 L 1134.5361638299153 54.581523491102686 L 1134.7035830771429 54.658305892239156 L 1134.8692954620037 54.73584126840789 L 1135.0332844133975 54.81412186613588 L 1135.1955335325654 54.89313985742859 L 1135.356026594731 54.97288734055273 L 1135.5147475507217 55.05335634082646 L 1135.6716805285744 55.1345388114168 L 1135.8268098351218 55.21642663414435 L 1135.9801199575625 55.29901162029506 L 1136.1315955650123 55.38228551143916 L 1136.2812215100364 55.46623998025691 L 1136.4289828301653 55.55086663137139 L 1136.5748647493897 55.63615700218803 L 1136.7188526796397 55.722102563740805 L 1136.860932222242 55.80869472154519 L 1137.0010891693605 55.89592481645755 L 1137.1393095054177 55.98378412554111 L 1137.275579408495 56.07226386293816 L 1137.4098852517159 56.1613551807487 L 1137.5422136046077 56.251049169915184 L 1137.6725512344453 56.34133686111345 L 1137.8008851075747 56.4322092256496 L 1137.9272023907154 56.52365717636293 L 1138.051490452244 56.615671568534566 L 1138.1737368634585 56.70824320080196 L 1138.2939293998193 56.80136281607904 L 1138.4120560421727 56.89502110248188 L 1138.5281049779535 56.98920869425987 L 1138.6420646023644 57.083916172732344 L 1138.753923519538 57.17913406723036 L 1138.8636705436759 57.27485285604382 L 1138.971294700167 57.37106296737362 L 1139.0767852266854 57.467754780288786 L 1139.1801315742666 57.56491862568861 L 1139.2813234083615 57.662544787269525 L 1139.3803506098714 57.76062350249672 L 1139.4772032761584 57.859144963580405 L 1139.5718717220368 57.95809931845658 L 1139.6643464807407 58.05747667177222 L 1139.7546183048714 58.15726708587479 L 1139.8426781673218 58.257460581806065 L 1139.928517262179 58.358047140299924 L 1140.0121270056047 58.459016702784346 L 1140.0934990366948 58.56035917238722 L 1140.1726252183137 58.66206441494605 L 1140.2494976379091 58.764122260021324 L 1140.3241086083033 58.866522501913586 L 1140.3964506684613 58.96925490068398 L 1140.4665165842375 59.072309183178234 L 1140.5342993490985 59.17567504405398 L 1140.5997921848245 59.279342146811274 L 1140.6629885421864 59.38330012482622 L 1140.723882101601 59.48753858238766 L 1140.7824667737636 59.59204709573668 L 1140.8387367002551 59.69681521410906 L 1140.8926862541305 59.80183246078026 L 1140.9443100404785 59.907088334113126 L 1140.9936028969644 60.012572308608036 L 1141.0405598943428 60.11827383595545 L 1141.0851763369537 60.22418234609071 L 1141.1274477631898 60.33028724825106 L 1141.1673699459436 60.43657793203471 L 1141.2049388930302 60.54304376846186 L 1141.2401508475864 60.64967411103757 L 1141.2730022884457 60.75645829681646 L 1141.3034899304914 60.86338564746893 L 1141.3316107249852 60.97044547034902 L 1141.3573618598707 61.07762705956367 L 1141.3807407600557 61.184919697043256 L 1141.4017450876702 61.29231265361346 L 1141.4203727422982 61.399795190068104 L 1141.4366218611906 61.50735655824312 L 1141.4504908194485 61.614986002091314 L 1141.4619782301877 61.72267275875801 L 1141.471082944677 61.830406059657264 L 1141.477804052452 61.93817513154877 L 1141.4821408814082 62.04596919761514 L 1141.4840929978657 62.15377747853961 M 1141.4842139879217 96.4920458931 L 1141.483021528018 96.59985643801662 L 1141.479444267552 96.70765620196859 L 1141.4734825642465 96.81543440506935 L 1141.4651370142674 96.9231802695884 L 1141.4544084521622 97.03088302102908 L 1141.4412979507783 97.138531889206 L 1141.425806821155 97.24611610932205 L 1141.4079366123924 97.35362492304485 L 1141.3876891114965 97.46104757958265 L 1141.3650663432002 97.5683733367593 L 1141.3400705697618 97.67559146208852 L 1141.3127042907379 97.78269123384712 L 1141.2829702427332 97.88966194214719 L 1141.250871399128 97.99649289000702 L 1141.2164109697799 98.10317339442086 L 1141.179592400703 98.20969278742717 L 1141.140419373724 98.31604041717543 L 1141.098895806112 98.42220564899125 L 1141.05502585019 98.52817786643996 L 1141.0088138929168 98.6339464723881 L 1140.9602645554494 98.73950089006323 L 1140.9093826926814 98.84483056411152 L 1140.8561733927563 98.94992496165337 L 1140.8006419765602 99.05477357333659 L 1140.7427939971883 99.15936591438738 L 1140.68263523939 99.2636915256588 L 1140.6201717189913 99.36773997467667 L 1140.5554096822923 99.47150085668278 L 1140.4883556054422 99.5749637956754 L 1140.4190161937931 99.67811844544686 L 1140.3473983812287 99.78095449061813 L 1140.27350932947 99.8834616476704 L 1140.1973564273608 99.98562966597338 L 1140.118947290128 100.08744832881038 L 1140.03828975862 100.18890745439998 L 1139.9553918985225 100.28999689691415 L 1139.8702619995527 100.39070654749288 L 1139.7829085746293 100.49102633525506 L 1139.6933403590222 100.59094622830548 L 1139.601566309478 100.69045623473812 L 1139.5075956033256 100.78954640363527 L 1139.4114376375571 100.8882068260626 L 1139.3131020278888 100.9864276360601 L 1139.2125986078001 101.0841990116286 L 1139.1099374275489 101.18151117571202 L 1139.0051287531678 101.27835439717506 L 1138.898183065437 101.37471899177628 L 1138.7891110588362 101.4705953231365 L 1138.6779236404748 101.56597380370249 L 1138.5646319290022 101.6608448957057 L 1138.4492472534953 101.75519911211595 L 1138.3317811523252 101.84902701759025 L 1138.2122453720044 101.94231922941623 L 1138.090651866011 102.03506641845047 L 1137.9670127935947 102.12725931005133 L 1137.8413405185593 102.2188886850065 L 1137.7136476080277 102.30994538045483 L 1137.583946831185 102.40042029080266 L 1137.4522511579999 102.49030436863434 L 1137.3185737579306 102.579588625617 L 1137.1829279986057 102.66826413339936 L 1137.0453274444878 102.75632202450451 L 1136.905785855518 102.84375349321674 L 1136.7643171857387 102.93054979646202 L 1136.620935581899 103.01670225468237 L 1136.4756553820396 103.10220225270375 L 1136.32849111406 103.18704124059762 L 1136.1794574942637 103.27121073453588 L 1136.028569425889 103.3547023176393 L 1135.8758419976166 103.4375076408191 L 1135.7212904820622 103.51961842361202 L 1135.5649303342486 103.60102645500817 L 1135.4067771900604 103.68172359427226 L 1135.2468468646803 103.7617017717576 L 1135.085155351007 103.84095298971312 L 1134.9217188180576 103.91946932308304 L 1134.756553609349 103.99724292029944 L 1134.589676241265 104.07426600406745 L 1134.4211034014024 104.15053087214287 L 1134.2508519469052 104.22602989810241 L 1134.078938902777 104.30075553210642 L 1133.9053814601791 104.37470030165377 L 1133.7301969747107 104.44785681232914 L 1133.5534029646747 104.52021774854238 L 1133.3750171093245 104.59177587426021 L 1133.1950572470973 104.66252403372968 L 1133.0135413738292 104.73245515219378 L 1132.8304876409563 104.80156223659897 L 1132.6459143536993 104.86983837629438 L 1132.4598399692331 104.93727674372295 L 1132.2722830948412 105.0038705951041 L 1132.0832624860545 105.06961327110824 L 1131.8927970447767 105.13449819752252 L 1131.7009058173928 105.19851888590837 L 1131.507607992866 105.26166893425032 L 1131.3129229008175 105.32394202759615 L 1131.1168700095943 105.38533193868841 L 1130.9194689243222 105.44583252858716 L 1130.720739384945 105.50543774728384 L 1130.5207012642513 105.56414163430621 L 1130.3193745658864 105.62193831931454 L 1130.1167794223522 105.67882202268845 L 1129.9129360929946 105.73478705610502 L 1129.7078649619762 105.78982782310756 L 1129.5015865362395 105.84393881966523 L 1129.2941214434552 105.89711463472344 L 1129.0854904299595 105.94934995074503 L 1128.87571435868 106.00063954424192 L 1128.664814207049 106.0509782862975 L 1128.452811064906 106.1003611430795 L 1128.2397261323883 106.14878317634341 L 1128.0255807178119 106.19623954392625 L 1127.8103962355397 106.2427255002308 L 1127.5941942038405 106.2882363967002 L 1127.3769962427373 106.33276768228268 L 1127.1588240718452 106.37631490388682 L 1126.9396995081997 106.41887370682676 L 1126.7196444640745 106.46043983525765 L 1126.4986809447903 106.50100913260128 L 1126.2768310465153 106.54057754196174 L 1126.0541169540543 106.57914110653107 L 1125.830560938631 106.61669596998493 L 1125.6061853556603 106.65323837686829 L 1125.381012642514 106.6887646729709 L 1125.1550653162756 106.72327130569276 L 1124.9283659714895 106.75675482439937 L 1124.700937277901 106.78921188076673 L 1124.4728019781903 106.82063922911627 L 1124.2439828856968 106.85103372673933 L 1124.0145028821396 106.8803923342115 L 1123.7843849153276 106.90871211569649 L 1123.5536519968655 106.93599023923973 L 1123.3223271998531 106.96222397705162 L 1123.0904336565773 106.98741070578025 L 1122.8579945561992 107.0115479067737 L 1122.625033142435 107.03463316633201 L 1122.3915727112321 107.05666417594847 L 1122.1576366084391 107.07763873254045 L 1121.9232482274713 107.09755473866979 L 1121.6884310069713 107.11641020275246 L 1121.4532084284656 107.13420323925777 L 1121.217604014016 107.1509320688969 L 1120.9816413238677 107.16659501880085 L 1120.745343954093 107.18119052268763 L 1120.5087355342318 107.19471712101905 L 1120.2718397249294 107.20717346114655 L 1120.0346802155689 107.21855829744648 L 1119.7972807219037 107.22887049144471 L 1119.5596649836853 107.23810901193042 L 1119.3218567622896 107.24627293505928 L 1119.0838798383406 107.25336144444577 L 1118.8457580093323 107.25937383124486 L 1118.6075150872489 107.26430949422287 L 1118.3691748961846 107.26816793981763 L 1118.1307612699595 107.27094878218779 L 1117.892298049738 107.27265174325143 L 1117.6538090816427 107.27327665271386 L 1117.4153182143723 107.27282344808465 L 1117.1768492968145 107.27129217468391 L 1116.9384261756622 107.26868298563768 L 1116.7000726930291 107.2649961418627 L 1116.4618126840649 107.26023201204026 L 1116.2236699745715 107.2543910725794 L 1115.9856683786218 107.24747390756917 L 1115.747831696177 107.23948120872033 L 1115.510183710707 107.23041377529609 L 1115.2727481868126 107.22027251403225 L 1115.0355488678479 107.20905843904646 L 1114.7986094735475 107.1967726717369 L 1114.561953697653 107.18341644067004 L 1114.3256052055453 107.16899108145788 L 1114.0895876318764 107.15349803662431 L 1113.8539245782067 107.1369388554609 L 1113.6186396106457 107.11931519387196 L 1113.3837562574936 107.10062881420897 L 1113.1492980068904 107.08088158509435 L 1112.9152883044653 107.0600754812345 L 1112.6817505509941 107.03821258322252 L 1112.448708100057 107.01529507732995 L 1112.2161842557055 106.99132525528832 L 1111.9842022701296 106.96630551405984 L 1111.7527853413349 106.94023835559778 L 1111.5219566108215 106.91312638659626 L 1111.2917391612698 106.88497231822961 L 1111.0621560142333 106.85577896588119 L 1110.8332301278351 106.8255492488619 L 1110.6049843944731 106.79428619011826 L 1110.3774416385304 106.76199291593008 L 1110.1506246140932 106.72867265559789 L 1109.9245560026745 106.69432874111995 L 1109.6992584109476 106.65896460685907 L 1109.4747543684837 106.62258378919921 L 1109.2510663254998 106.58518992619184 L 1109.0282166506138 106.5467867571921 L 1108.8062276286078 106.50737812248485 L 1108.5851214581985 106.46696796290075 L 1108.3649202498193 106.42556031942208 L 1108.145646023407 106.38315933277867 L 1107.9273207062017 106.33976924303387 L 1107.7099661305535 106.29539438916049 L 1107.4936040317384 106.25003920860692 L 1107.278256045786 106.20370823685344 L 1107.0639437073157 106.15640610695861 L 1106.8506884473827 106.108137549096 L 1106.6385115913351 106.05890739008117 L 1106.427434356682 106.00872055288902 L 1106.2174778509707 105.9575820561614 L 1106.0086630696767 105.90549701370541 L 1105.8010108941044 105.85247063398188 L 1105.594542089298 105.79850821958458 L 1105.3892773019666 105.74361516670999 L 1105.185237058417 105.68779696461766 L 1104.982441762504 105.63105919508126 L 1104.7809116935885 105.5734075318305 L 1104.5806670045085 105.51484773998365 L 1104.3817277195672 105.45538567547108 L 1104.1841137325264 105.3950272844497 L 1103.9878448046204 105.33377860270829 L 1103.7929405625787 105.27164575506403 L 1103.5994204966626 105.20863495474987 L 1103.4073039587179 105.14475250279335 L 1103.2166101602381 105.08000478738643 L 1103.0273581704441 105.01439828324668 L 1102.8395669143772 104.94793955096986 L 1102.6532551710065 104.8806352363738 L 1102.4684415713511 104.8124920698339 L 1102.285144596617 104.74351686560999 L 1102.1033825763488 104.67371652116503 L 1101.9231736865972 104.6030980164753 L 1101.744535948101 104.53166841333243 L 1101.5674872244851 104.4594348546372 L 1101.3920452204743 104.38640456368528 L 1101.2182274801228 104.31258484344491 L 1101.0460513850599 104.2379830758266 L 1100.8755341527517 104.16260672094495 L 1100.706692834779 104.08646331637262 L 1100.539544315133 104.00956047638662 L 1100.3741053085266 103.93190589120688 L 1100.2103923587226 103.85350732622719 L 1100.0484218368792 103.77437262123871 L 1099.8882099399138 103.694509689646 L 1099.7297726888828 103.61392651767568 L 1099.5731259273791 103.53263116357778 L 1099.4182853199482 103.45063175681996 L 1099.2652663505219 103.36793649727457 L 1099.1140843208696 103.28455365439865 L 1098.9647543490682 103.20049156640701 L 1098.8172913679907 103.1157586394384 L 1098.6717101238123 103.03036334671489 L 1098.5280251745357 102.94431422769459 L 1098.3862508885366 102.85761988721772 L 1098.246401443125 102.77028899464605 L 1098.1084908231294 102.68233028299609 L 1097.9725328194963 102.5937525480657 L 1097.8385410279134 102.50456464755453 L 1097.7065288474475 102.41477550017834 L 1097.5765094792073 102.32439408477703 L 1097.4484959250208 102.23342943941684 L 1097.322500986137 102.14189066048647 L 1097.1985372619445 102.04978690178756 L 1097.0766171487128 101.95712737361922 L 1096.9567528383513 101.86392134185704 L 1096.8389563171913 101.77017812702654 L 1096.7232393647869 101.67590710337106 L 1096.6096135527368 101.58111769791444 L 1096.4980902435273 101.48581938951821 L 1096.3886805893967 101.39002170793381 L 1096.281395531219 101.29373423284954 L 1096.1762457974107 101.19696659293271 L 1096.0732419028577 101.09972846486664 L 1095.9723941478635 101.00202957238312 L 1095.8737126171193 100.90387968528998 L 1095.7772071786965 100.80528861849413 L 1095.6828874830578 100.70626623102011 L 1095.590762962095 100.60682242502413 L 1095.5008428281826 100.50696714480392 L 1095.4131360732597 100.40671037580431 L 1095.3276514679285 100.30606214361863 L 1095.2443975605781 100.20503251298624 L 1095.1633826765303 100.103631586786 L 1095.0846149172055 100.00186950502604 L 1095.0081021593141 99.89975644382972 L 1094.9338520540684 99.79730261441809 L 1094.8618720264167 99.69451826208869 L 1094.792169274302 99.59141366519111 L 1094.7247507679415 99.48799913409913 L 1094.6596232491295 99.38428501017967 L 1094.5967932305637 99.28028166475868 L 1094.5362669951935 99.17599949808405 L 1094.478050595592 99.07144893828554 L 1094.4221498533507 98.96664044033201 L 1094.3685703584972 98.86158448498593 L 1094.3173174689366 98.75629157775525 L 1094.2683963099146 98.65077224784297 L 1094.221811773507 98.54503704709414 L 1094.1775685181278 98.43909654894075 L 1094.1356709680665 98.33296134734431 L 1094.0961233130427 98.22664205573652 L 1094.0589295077891 98.12014930595798 L 1094.0240932716551 98.01349374719489 L 1093.9916180882356 97.90668604491427 L 1093.9615072050215 97.79973687979731 L 1093.9337636330763 97.69265694667143 L 1093.9083901467338 97.58545695344071 L 1093.885389283322 97.47814762001512 L 1093.8647633429075 97.37073967723859 L 1093.8465143880674 97.26324386581588 L 1093.830644243682 97.15567093523856 L 1093.8171544967524 97.04803164271006 L 1093.8060464962423 96.94033675206991 L 1093.7973213529422 96.83259703271744 L 1093.7909799393592 96.7248232585348 L 1093.7870228896295 96.6170262068096 L 1093.7854505994549 96.50921665715717" stroke-miterlimit="10" stroke-width="2.7769845610000004" stroke-dasharray=""/></g><g><text fill="black" stroke="none" font-family="sans-serif" font-size="11pt" font-style="normal" font-weight="normal" text-decoration="normal" x="1086.2568722236326" y="124.80095321200001" text-anchor="start" dominant-baseline="alphabetic" xml:space="preserve">Database</text></g></g><g><path fill="white" stroke="black" paint-order="fill stroke markers" d=" M 333.8693549854817 183.607685092 L 350.2045582854817 183.607685092 L 350.2045582854817 1542.696599652 L 333.8693549854817 1542.696599652 L 333.8693549854817 183.607685092" stroke-miterlimit="10" stroke-width="1.3612669416666667" stroke-dasharray=""/><path fill="white" stroke="black" paint-order="fill stroke markers" d=" M 342.0369566354817 433.536295582 L 358.3721599354817 433.536295582 L 358.3721599354817 479.2748648219999 L 342.0369566354817 479.2748648219999 L 342.0369566354817 433.536295582" stroke-miterlimit="10" stroke-width="1.3612669416666667" stroke-dasharray=""/><path fill="white" stroke="black" paint-order="fill stroke markers" d=" M 571.8467187924477 739.0045972919999 L 588.1819220924478 739.0045972919999 L 588.1819220924478 784.7431665319998 L 571.8467187924477 784.7431665319998 L 571.8467187924477 739.0045972919999" stroke-miterlimit="10" stroke-width="1.3612669416666667" stroke-dasharray=""/><path fill="white" stroke="black" paint-order="fill stroke markers" d=" M 764.7724501171222 1055.9075413119997 L 781.1076534171223 1055.9075413119997 L 781.1076534171223 1480.622827112 L 764.7724501171222 1480.622827112 L 764.7724501171222 1055.9075413119997" stroke-miterlimit="10" stroke-width="1.3612669416666667" stroke-dasharray=""/><path fill="white" stroke="black" paint-order="fill stroke markers" d=" M 946.0854776549477 1281.333346852 L 962.4206809549478 1281.333346852 L 962.4206809549478 1418.5490545720002 L 946.0854776549477 1418.5490545720002 L 946.0854776549477 1281.333346852" stroke-miterlimit="10" stroke-width="1.3612669416666667" stroke-dasharray=""/><path fill="white" stroke="black" paint-order="fill stroke markers" d=" M 1109.4672155199216 1327.071916092 L 1125.8024188199217 1327.071916092 L 1125.8024188199217 1372.810485332 L 1109.4672155199216 1372.810485332 L 1109.4672155199216 1327.071916092" stroke-miterlimit="10" stroke-width="1.3612669416666667" stroke-dasharray=""/><g><g><rect fill="white" stroke="none" x="132.39836305516275" y="162.371920802" width="158.91624702515625" height="21.23576429"/></g><text fill="black" stroke="none" font-family="sans-serif" font-size="11pt" font-style="normal" font-weight="normal" text-decoration="normal" x="134.84864355016273" y="177.07360377199998" text-anchor="start" dominant-baseline="alphabetic" xml:space="preserve">Go to Syllabus list page</text></g><g><path fill="none" stroke="black" paint-order="fill stroke markers" d=" M 89.84361815 183.607685092 L 320.42003760181507 183.607685092" stroke-miterlimit="10" stroke-width="1.3612669416666667" stroke-dasharray=""/><g transform="translate(333.8693549854817,183.607685092) translate(-333.8693549854817,-183.607685092)"><path fill="black" stroke="none" paint-order="stroke fill markers" d=" M 320.25668556881504 176.80135038366666 L 333.8693549854817 183.607685092 L 320.25668556881504 190.41401980033334 Z"/></g></g><g><g><rect fill="white" stroke="none" x="126.29243654149086" y="208.110490042" width="171.1281000525" height="21.23576429"/></g><text fill="black" stroke="none" font-family="sans-serif" font-size="11pt" font-style="normal" font-weight="normal" text-decoration="normal" x="128.74271703649086" y="222.812173012" text-anchor="start" dominant-baseline="alphabetic" xml:space="preserve">Display Syllabus list page</text></g><g><path fill="none" stroke="black" paint-order="fill stroke markers" d=" M 333.8693549854817 229.346254332 L 103.29293553366666 229.346254332" stroke-miterlimit="10" stroke-width="1.3612669416666667" stroke-dasharray="6.53408132"/><g transform="translate(89.84361815,229.346254332) translate(-89.84361815,-229.346254332)"><path fill="black" stroke="none" paint-order="stroke fill markers" d=" M 103.45628756666666 222.53991962366666 L 89.84361815 229.346254332 L 103.45628756666666 236.15258904033334 Z"/></g></g><g><g><rect fill="white" stroke="none" x="117.33036989110023" y="253.849059282" width="189.05223335328125" height="21.23576429"/></g><text fill="black" stroke="none" font-family="sans-serif" font-size="11pt" font-style="normal" font-weight="normal" text-decoration="normal" x="119.78065038610023" y="268.550742252" text-anchor="start" dominant-baseline="alphabetic" xml:space="preserve">Click Create Syllabus button</text></g><g><path fill="none" stroke="black" paint-order="fill stroke markers" d=" M 89.84361815 275.084823572 L 320.42003760181507 275.084823572" stroke-miterlimit="10" stroke-width="1.3612669416666667" stroke-dasharray=""/><g transform="translate(333.8693549854817,275.084823572) translate(-333.8693549854817,-275.084823572)"><path fill="black" stroke="none" paint-order="stroke fill markers" d=" M 320.25668556881504 268.27848886366667 L 333.8693549854817 275.084823572 L 320.25668556881504 281.89115828033334 Z"/></g></g><g><g><rect fill="white" stroke="none" x="109.17360872166664" y="299.587628522" width="205.36575569214844" height="21.23576429"/></g><text fill="black" stroke="none" font-family="sans-serif" font-size="11pt" font-style="normal" font-weight="normal" text-decoration="normal" x="111.62388921666664" y="314.28931149199997" text-anchor="start" dominant-baseline="alphabetic" xml:space="preserve">Display Create Syllabus popup</text></g><g><path fill="none" stroke="black" paint-order="fill stroke markers" d=" M 333.8693549854817 320.823392812 L 103.29293553366666 320.823392812" stroke-miterlimit="10" stroke-width="1.3612669416666667" stroke-dasharray="6.53408132"/><g transform="translate(89.84361815,320.823392812) translate(-89.84361815,-320.823392812)"><path fill="black" stroke="none" paint-order="stroke fill markers" d=" M 103.45628756666666 314.01705810366667 L 89.84361815 320.823392812 L 103.45628756666666 327.62972752033335 Z"/></g></g><g><g><rect fill="white" stroke="none" x="117.32679170506508" y="345.326197762" width="189.05938972535156" height="21.23576429"/></g><text fill="black" stroke="none" font-family="sans-serif" font-size="11pt" font-style="normal" font-weight="normal" text-decoration="normal" x="119.77707220006508" y="360.02788073199997" text-anchor="start" dominant-baseline="alphabetic" xml:space="preserve">Type information of Syllabus</text></g><g><path fill="none" stroke="black" paint-order="fill stroke markers" d=" M 89.84361815 366.561962052 L 320.42003760181507 366.561962052" stroke-miterlimit="10" stroke-width="1.3612669416666667" stroke-dasharray=""/><g transform="translate(333.8693549854817,366.561962052) translate(-333.8693549854817,-366.561962052)"><path fill="black" stroke="none" paint-order="stroke fill markers" d=" M 320.25668556881504 359.7556273436667 L 333.8693549854817 366.561962052 L 320.25668556881504 373.36829676033335 Z"/></g></g><g><g><rect fill="white" stroke="none" x="377.70215050714836" y="391.064767002" width="125.25842536988281" height="21.23576429"/></g><text fill="black" stroke="none" font-family="sans-serif" font-size="11pt" font-style="normal" font-weight="normal" text-decoration="normal" x="380.1524310021484" y="405.766449972" text-anchor="start" dominant-baseline="alphabetic" xml:space="preserve">Validate input data</text></g><g><path fill="none" stroke="black" paint-order="fill stroke markers" d=" M 350.2045582854817 412.30053129199996 L 423.7129731354817 412.30053129199996 L 423.7129731354817 433.536295582 L 371.82147731914836 433.536295582" stroke-miterlimit="10" stroke-width="1.3612669416666667" stroke-dasharray=""/><g transform="translate(358.3721599354817,433.536295582) translate(-358.3721599354817,-433.536295582)"><path fill="black" stroke="none" paint-order="stroke fill markers" d=" M 371.9848293521484 426.72996087366664 L 358.3721599354817 433.536295582 L 371.9848293521484 440.3426302903333 Z"/></g></g><g><g><rect fill="white" stroke="none" x="377.70215050714836" y="458.03910053199996" width="95.90982307496094" height="21.23576429"/></g><text fill="black" stroke="none" font-family="sans-serif" font-size="11pt" font-style="normal" font-weight="normal" text-decoration="normal" x="380.1524310021484" y="472.74078350199994" text-anchor="start" dominant-baseline="alphabetic" xml:space="preserve">Validate value</text></g><g><path fill="none" stroke="black" paint-order="fill stroke markers" d=" M 358.3721599354817 479.2748648219999 L 423.7129731354817 479.2748648219999 L 423.7129731354817 500.51062911199995 L 363.65387566914836 500.51062911199995" stroke-miterlimit="10" stroke-width="1.3612669416666667" stroke-dasharray="6.53408132"/><g transform="translate(350.2045582854817,500.51062911199995) translate(-350.2045582854817,-500.51062911199995)"><path fill="black" stroke="none" paint-order="stroke fill markers" d=" M 363.8172277021484 493.7042944036666 L 350.2045582854817 500.51062911199995 L 363.8172277021484 507.3169638203333 Z"/></g></g><g><g><rect fill="white" stroke="none" x="151.68253511326822" y="569.1184829719998" width="120.34790290894531" height="21.23576429"/></g><text fill="black" stroke="none" font-family="sans-serif" font-size="11pt" font-style="normal" font-weight="normal" text-decoration="normal" x="154.1328156082682" y="583.8201659419998" text-anchor="start" dominant-baseline="alphabetic" xml:space="preserve">Validate Message</text></g><g><path fill="none" stroke="black" paint-order="fill stroke markers" d=" M 333.8693549854817 590.3542472619998 L 103.29293553366666 590.3542472619998" stroke-miterlimit="10" stroke-width="1.3612669416666667" stroke-dasharray="6.53408132"/><g transform="translate(89.84361815,590.3542472619998) translate(-89.84361815,-590.3542472619998)"><path fill="black" stroke="none" paint-order="stroke fill markers" d=" M 103.45628756666666 583.5479125536665 L 89.84361815 590.3542472619998 L 103.45628756666666 597.1605819703332 Z"/></g></g><g><g><rect fill="white" stroke="none" x="159.69613832371743" y="639.3598571619998" width="104.32069648804688" height="21.23576429"/></g><text fill="black" stroke="none" font-family="sans-serif" font-size="11pt" font-style="normal" font-weight="normal" text-decoration="normal" x="162.14641881871742" y="654.0615401319998" text-anchor="start" dominant-baseline="alphabetic" xml:space="preserve">Search Subject</text></g><g><path fill="none" stroke="black" paint-order="fill stroke markers" d=" M 89.84361815 660.5956214519998 L 320.42003760181507 660.5956214519998" stroke-miterlimit="10" stroke-width="1.3612669416666667" stroke-dasharray=""/><g transform="translate(333.8693549854817,660.5956214519998) translate(-333.8693549854817,-660.5956214519998)"><path fill="black" stroke="none" paint-order="stroke fill markers" d=" M 320.25668556881504 653.7892867436665 L 333.8693549854817 660.5956214519998 L 320.25668556881504 667.4019561603332 Z"/></g></g><g><g><rect fill="white" stroke="none" x="373.6183496821483" y="685.0984264019999" width="35.03657783570313" height="21.23576429"/></g><g><rect fill="white" stroke="none" x="373.6183496821483" y="701.4336297019998" width="174.81457771363281" height="21.23576429"/></g><g><rect fill="white" stroke="none" x="373.6183496821483" y="717.7688330019998" width="130.8132044226172" height="21.23576429"/></g><text fill="black" stroke="none" font-family="sans-serif" font-size="11pt" font-style="normal" font-weight="normal" text-decoration="normal" x="376.0686301771483" y="699.8001093719998" text-anchor="start" dominant-baseline="alphabetic" xml:space="preserve">GET</text><text fill="black" stroke="none" font-family="sans-serif" font-size="11pt" font-style="normal" font-weight="normal" text-decoration="normal" x="376.0686301771483" y="716.1353126719998" text-anchor="start" dominant-baseline="alphabetic" xml:space="preserve">/api/search?entity=subject</text><text fill="black" stroke="none" font-family="sans-serif" font-size="11pt" font-style="normal" font-weight="normal" text-decoration="normal" x="376.0686301771483" y="732.4705159719998" text-anchor="start" dominant-baseline="alphabetic" xml:space="preserve">+ {paramToSearch}</text></g><g><path fill="none" stroke="black" paint-order="fill stroke markers" d=" M 350.2045582854817 739.0045972919999 L 558.3974014087811 739.0045972919999" stroke-miterlimit="10" stroke-width="1.3612669416666667" stroke-dasharray=""/><g transform="translate(571.8467187924477,739.0045972919999) translate(-571.8467187924477,-739.0045972919999)"><path fill="black" stroke="none" paint-order="stroke fill markers" d=" M 558.2340493757811 732.1982625836665 L 571.8467187924477 739.0045972919999 L 558.2340493757811 745.8109320003332 Z"/></g></g><g><g><rect fill="white" stroke="none" x="424.35562385207015" y="763.5074022419998" width="73.34002937378906" height="21.23576429"/></g><text fill="black" stroke="none" font-family="sans-serif" font-size="11pt" font-style="normal" font-weight="normal" text-decoration="normal" x="426.80590434707017" y="778.2090852119998" text-anchor="start" dominant-baseline="alphabetic" xml:space="preserve">subject list</text></g><g><path fill="none" stroke="black" paint-order="fill stroke markers" d=" M 571.8467187924477 784.7431665319998 L 363.65387566914836 784.7431665319998" stroke-miterlimit="10" stroke-width="1.3612669416666667" stroke-dasharray="6.53408132"/><g transform="translate(350.2045582854817,784.7431665319998) translate(-350.2045582854817,-784.7431665319998)"><path fill="black" stroke="none" paint-order="stroke fill markers" d=" M 363.8172277021484 777.9368318236665 L 350.2045582854817 784.7431665319998 L 363.8172277021484 791.5495012403331 Z"/></g></g><g><g><rect fill="white" stroke="none" x="172.73835176365884" y="853.3510203919998" width="78.23626960816406" height="21.23576429"/></g><text fill="black" stroke="none" font-family="sans-serif" font-size="11pt" font-style="normal" font-weight="normal" text-decoration="normal" x="175.18863225865883" y="868.0527033619998" text-anchor="start" dominant-baseline="alphabetic" xml:space="preserve">No Options</text></g><g><path fill="none" stroke="black" paint-order="fill stroke markers" d=" M 333.8693549854817 874.5867846819998 L 103.29293553366666 874.5867846819998" stroke-miterlimit="10" stroke-width="1.3612669416666667" stroke-dasharray="6.53408132"/><g transform="translate(89.84361815,874.5867846819998) translate(-89.84361815,-874.5867846819998)"><path fill="black" stroke="none" paint-order="stroke fill markers" d=" M 103.45628756666666 867.7804499736665 L 89.84361815 874.5867846819998 L 103.45628756666666 881.3931193903331 Z"/></g></g><g><g><rect fill="white" stroke="none" x="148.2895602597526" y="943.1946385419997" width="127.13385261597656" height="21.23576429"/></g><text fill="black" stroke="none" font-family="sans-serif" font-size="11pt" font-style="normal" font-weight="normal" text-decoration="normal" x="150.73984075475258" y="957.8963215119996" text-anchor="start" dominant-baseline="alphabetic" xml:space="preserve">Subject options list</text></g><g><path fill="none" stroke="black" paint-order="fill stroke markers" d=" M 333.8693549854817 964.4304028319997 L 103.29293553366666 964.4304028319997" stroke-miterlimit="10" stroke-width="1.3612669416666667" stroke-dasharray="6.53408132"/><g transform="translate(89.84361815,964.4304028319997) translate(-89.84361815,-964.4304028319997)"><path fill="black" stroke="none" paint-order="stroke fill markers" d=" M 103.45628756666666 957.6240681236663 L 89.84361815 964.4304028319997 L 103.45628756666666 971.236737540333 Z"/></g></g><g><g><rect fill="white" stroke="none" x="113.25020784276039" y="988.9332077819996" width="197.21255744996094" height="21.23576429"/></g><text fill="black" stroke="none" font-family="sans-serif" font-size="11pt" font-style="normal" font-weight="normal" text-decoration="normal" x="115.70048833776039" y="1003.6348907519996" text-anchor="start" dominant-baseline="alphabetic" xml:space="preserve">Select Subject and click Save</text></g><g><path fill="none" stroke="black" paint-order="fill stroke markers" d=" M 89.84361815 1010.1689720719996 L 320.42003760181507 1010.1689720719996" stroke-miterlimit="10" stroke-width="1.3612669416666667" stroke-dasharray=""/><g transform="translate(333.8693549854817,1010.1689720719996) translate(-333.8693549854817,-1010.1689720719996)"><path fill="black" stroke="none" paint-order="stroke fill markers" d=" M 320.25668556881504 1003.3626373636663 L 333.8693549854817 1010.1689720719996 L 320.25668556881504 1016.975306780333 Z"/></g></g><g><g><rect fill="white" stroke="none" x="491.4841999636261" y="1034.6717770219998" width="132.00860847535156" height="21.23576429"/></g><text fill="black" stroke="none" font-family="sans-serif" font-size="11pt" font-style="normal" font-weight="normal" text-decoration="normal" x="493.9344804586261" y="1049.3734599919999" text-anchor="start" dominant-baseline="alphabetic" xml:space="preserve">POST: /api/syllabus</text></g><g><path fill="none" stroke="black" paint-order="fill stroke markers" d=" M 350.2045582854817 1055.9075413119997 L 751.3231327334555 1055.9075413119997" stroke-miterlimit="10" stroke-width="1.3612669416666667" stroke-dasharray=""/><g transform="translate(764.7724501171222,1055.9075413119997) translate(-764.7724501171222,-1055.9075413119997)"><path fill="black" stroke="none" paint-order="stroke fill markers" d=" M 751.1597807004555 1049.1012066036665 L 764.7724501171222 1055.9075413119997 L 751.1597807004555 1062.713876020333 Z"/></g></g><g><g><rect fill="white" stroke="none" x="400.2279667482941" y="1124.515395172" width="314.5210749060156" height="21.23576429"/></g><text fill="red" stroke="none" font-family="sans-serif" font-size="11pt" font-style="normal" font-weight="normal" text-decoration="normal" x="402.6782472432941" y="1139.217078142" text-anchor="start" dominant-baseline="alphabetic" xml:space="preserve">400 BAD_REQUEST: Missing required property</text></g><g><path fill="none" stroke="black" paint-order="fill stroke markers" d=" M 764.7724501171222 1145.7511594619998 L 363.65387566914836 1145.7511594619998" stroke-miterlimit="10" stroke-width="1.3612669416666667" stroke-dasharray="6.53408132"/><g transform="translate(350.2045582854817,1145.7511594619998) translate(-350.2045582854817,-1145.7511594619998)"><path fill="black" stroke="none" paint-order="stroke fill markers" d=" M 363.8172277021484 1138.9448247536666 L 350.2045582854817 1145.7511594619998 L 363.8172277021484 1152.557494170333 Z"/></g></g><g><g><rect fill="white" stroke="none" x="143.40409273045572" y="1170.253964412" width="136.90478767457031" height="21.23576429"/></g><text fill="black" stroke="none" font-family="sans-serif" font-size="11pt" font-style="normal" font-weight="normal" text-decoration="normal" x="145.8543732254557" y="1184.955647382" text-anchor="start" dominant-baseline="alphabetic" xml:space="preserve">Message is required</text></g><g><path fill="none" stroke="black" paint-order="fill stroke markers" d=" M 333.8693549854817 1191.4897287019999 L 103.29293553366666 1191.4897287019999" stroke-miterlimit="10" stroke-width="1.3612669416666667" stroke-dasharray="6.53408132"/><g transform="translate(89.84361815,1191.4897287019999) translate(-89.84361815,-1191.4897287019999)"><path fill="black" stroke="none" paint-order="stroke fill markers" d=" M 103.45628756666666 1184.6833939936666 L 89.84361815 1191.4897287019999 L 103.45628756666666 1198.296063410333 Z"/></g></g><g><g><rect fill="white" stroke="none" x="840.7812337715037" y="1260.097582562" width="45.6306635290625" height="21.23576429"/></g><text fill="black" stroke="none" font-family="sans-serif" font-size="11pt" font-style="normal" font-weight="normal" text-decoration="normal" x="843.2315142665037" y="1274.7992655320002" text-anchor="start" dominant-baseline="alphabetic" xml:space="preserve">save()</text></g><g><path fill="none" stroke="black" paint-order="fill stroke markers" d=" M 781.1076534171223 1281.333346852 L 932.636160271281 1281.333346852" stroke-miterlimit="10" stroke-width="1.3612669416666667" stroke-dasharray=""/><g transform="translate(946.0854776549477,1281.333346852) translate(-946.0854776549477,-1281.333346852)"><path fill="black" stroke="none" paint-order="stroke fill markers" d=" M 932.472808238281 1274.5270121436668 L 946.0854776549477 1281.333346852 L 932.472808238281 1288.1396815603332 Z"/></g></g><g><g><rect fill="white" stroke="none" x="981.7506715266143" y="1305.8361518020001" width="108.38655342164063" height="21.23576429"/></g><text fill="black" stroke="none" font-family="sans-serif" font-size="11pt" font-style="normal" font-weight="normal" text-decoration="normal" x="984.2009520216143" y="1320.5378347720002" text-anchor="start" dominant-baseline="alphabetic" xml:space="preserve">Create Syllabus</text></g><g><path fill="none" stroke="black" paint-order="fill stroke markers" d=" M 962.4206809549478 1327.071916092 L 1096.0178981362549 1327.071916092" stroke-miterlimit="10" stroke-width="1.3612669416666667" stroke-dasharray=""/><g transform="translate(1109.4672155199216,1327.071916092) translate(-1109.4672155199216,-1327.071916092)"><path fill="black" stroke="none" paint-order="stroke fill markers" d=" M 1095.854546103255 1320.2655813836668 L 1109.4672155199216 1327.071916092 L 1095.854546103255 1333.8782508003333 Z"/></g></g><g><g><rect fill="white" stroke="none" x="986.2317048518096" y="1351.5747210420002" width="99.42448677125" height="21.23576429"/></g><text fill="black" stroke="none" font-family="sans-serif" font-size="11pt" font-style="normal" font-weight="normal" text-decoration="normal" x="988.6819853468096" y="1366.2764040120003" text-anchor="start" dominant-baseline="alphabetic" xml:space="preserve">Syllabus entity</text></g><g><path fill="none" stroke="black" paint-order="fill stroke markers" d=" M 1109.4672155199216 1372.810485332 L 975.8699983386144 1372.810485332" stroke-miterlimit="10" stroke-width="1.3612669416666667" stroke-dasharray="6.53408132"/><g transform="translate(962.4206809549478,1372.810485332) translate(-962.4206809549478,-1372.810485332)"><path fill="black" stroke="none" paint-order="stroke fill markers" d=" M 976.0333503716145 1366.0041506236669 L 962.4206809549478 1372.810485332 L 976.0333503716145 1379.6168200403333 Z"/></g></g><g><g><rect fill="white" stroke="none" x="800.4376439887889" y="1397.3132902820003" width="126.31784309449219" height="21.23576429"/></g><text fill="black" stroke="none" font-family="sans-serif" font-size="11pt" font-style="normal" font-weight="normal" text-decoration="normal" x="802.8879244837889" y="1412.0149732520003" text-anchor="start" dominant-baseline="alphabetic" xml:space="preserve">New Syllabus data</text></g><g><path fill="none" stroke="black" paint-order="fill stroke markers" d=" M 946.0854776549477 1418.5490545720002 L 794.5569708007889 1418.5490545720002" stroke-miterlimit="10" stroke-width="1.3612669416666667" stroke-dasharray="6.53408132"/><g transform="translate(781.1076534171223,1418.5490545720002) translate(-781.1076534171223,-1418.5490545720002)"><path fill="black" stroke="none" paint-order="stroke fill markers" d=" M 794.7203228337889 1411.742719863667 L 781.1076534171223 1418.5490545720002 L 794.7203228337889 1425.3553892803334 Z"/></g></g><g><g><rect fill="white" stroke="none" x="465.5464710817902" y="1443.051859522" width="54.61422981324219" height="21.23576429"/></g><g><rect fill="white" stroke="none" x="465.5464710817902" y="1459.3870628220002" width="183.88406623902344" height="21.23576429"/></g><text fill="green" stroke="none" font-family="sans-serif" font-size="11pt" font-style="normal" font-weight="normal" text-decoration="normal" x="467.9967515767902" y="1457.7535424920002" text-anchor="start" dominant-baseline="alphabetic" xml:space="preserve">201 OK</text><text fill="green" stroke="none" font-family="sans-serif" font-size="11pt" font-style="normal" font-weight="normal" text-decoration="normal" x="467.9967515767902" y="1474.0887457920003" text-anchor="start" dominant-baseline="alphabetic" xml:space="preserve">Response body: CREATED</text></g><g><path fill="none" stroke="black" paint-order="fill stroke markers" d=" M 764.7724501171222 1480.622827112 L 363.65387566914836 1480.622827112" stroke-miterlimit="10" stroke-width="1.3612669416666667" stroke-dasharray="6.53408132"/><g transform="translate(350.2045582854817,1480.622827112) translate(-350.2045582854817,-1480.622827112)"><path fill="black" stroke="none" paint-order="stroke fill markers" d=" M 363.8172277021484 1473.8164924036669 L 350.2045582854817 1480.622827112 L 363.8172277021484 1487.4291618203333 Z"/></g></g><g><g><rect fill="white" stroke="none" x="142.59880250828775" y="1505.125632062" width="138.51536811890625" height="21.23576429"/></g><g><rect fill="white" stroke="none" x="142.59880250828775" y="1521.4608353620001" width="121.42163337769531" height="21.23576429"/></g><text fill="black" stroke="none" font-family="sans-serif" font-size="11pt" font-style="normal" font-weight="normal" text-decoration="normal" x="145.04908300328773" y="1519.8273150320001" text-anchor="start" dominant-baseline="alphabetic" xml:space="preserve">Display Syllabus list </text><text fill="black" stroke="none" font-family="sans-serif" font-size="11pt" font-style="normal" font-weight="normal" text-decoration="normal" x="145.04908300328773" y="1536.1625183320002" text-anchor="start" dominant-baseline="alphabetic" xml:space="preserve">with new Syllabus</text></g><g><path fill="none" stroke="black" paint-order="fill stroke markers" d=" M 333.8693549854817 1542.696599652 L 103.29293553366666 1542.696599652" stroke-miterlimit="10" stroke-width="1.3612669416666667" stroke-dasharray="6.53408132"/><g transform="translate(89.84361815,1542.696599652) translate(-89.84361815,-1542.696599652)"><path fill="black" stroke="none" paint-order="stroke fill markers" d=" M 103.45628756666666 1535.8902649436668 L 89.84361815 1542.696599652 L 103.45628756666666 1549.5029343603333 Z"/></g></g><g><g/><path fill="none" stroke="black" paint-order="fill stroke markers" d=" M 32.6704066 525.0134340619999 L 399.21016818548173 525.0134340619999 L 399.21016818548173 614.8570522119999 L 32.6704066 614.8570522119999 L 32.6704066 525.0134340619999 Z" stroke-miterlimit="10" stroke-width="2.3336004714285714" stroke-dasharray=""/><path fill="white" stroke="black" paint-order="fill stroke markers" d=" M 32.6704066 525.0134340619999 L 32.6704066 544.6156780219999 L 79.02961019707031 544.6156780219999 L 88.83073217707032 534.8145560419998 L 88.83073217707032 525.0134340619999 L 32.6704066 525.0134340619999" stroke-miterlimit="10" stroke-width="2.3336004714285714" stroke-dasharray=""/><text fill="black" stroke="none" font-family="sans-serif" font-size="8.8pt" font-style="normal" font-weight="bold" text-decoration="normal" x="49.005609899999996" y="538.0815967019998" text-anchor="start" dominant-baseline="alphabetic" xml:space="preserve">alt</text><g><rect fill="white" stroke="none" x="102.71565498207032" y="526.3202503259998" width="151.5138880163672" height="16.988611432000003"/></g><text fill="black" stroke="none" font-family="sans-serif" font-size="8.8pt" font-style="normal" font-weight="bold" text-decoration="normal" x="105.16593547707032" y="538.0815967019998" text-anchor="start" dominant-baseline="alphabetic" xml:space="preserve">[If the input data is wrong]</text></g><g><g/><path fill="none" stroke="black" paint-order="fill stroke markers" d=" M 16.335203300000003 809.2459714819998 L 1191.1432320199217 809.2459714819998 L 1191.1432320199217 1591.7022095519999 L 16.335203300000003 1591.7022095519999 L 16.335203300000003 809.2459714819998 Z" stroke-miterlimit="10" stroke-width="2.3336004714285714" stroke-dasharray=""/><path fill="white" stroke="black" paint-order="fill stroke markers" d=" M 16.335203300000003 809.2459714819998 L 16.335203300000003 828.8482154419999 L 62.694406897070316 828.8482154419999 L 72.49552887707031 819.0470934619998 L 72.49552887707031 809.2459714819998 L 16.335203300000003 809.2459714819998" stroke-miterlimit="10" stroke-width="2.3336004714285714" stroke-dasharray=""/><text fill="black" stroke="none" font-family="sans-serif" font-size="8.8pt" font-style="normal" font-weight="bold" text-decoration="normal" x="32.67040660000001" y="822.3141341219998" text-anchor="start" dominant-baseline="alphabetic" xml:space="preserve">alt</text><g><rect fill="white" stroke="none" x="86.38045168207032" y="810.5527877459998" width="247.32977546753906" height="16.988611432000003"/></g><text fill="black" stroke="none" font-family="sans-serif" font-size="8.8pt" font-style="normal" font-weight="bold" text-decoration="normal" x="88.83073217707032" y="822.3141341219998" text-anchor="start" dominant-baseline="alphabetic" xml:space="preserve">[If there is no subject match with condition]</text><g><path fill="none" stroke="black" paint-order="fill stroke markers" d=" M 16.335203300000003 899.0895896319997 L 1191.1432320199217 899.0895896319997" stroke-miterlimit="10" stroke-width="2.3336004714285714" stroke-dasharray="4.083800825"/></g><g/><g><rect fill="white" stroke="none" x="86.38045168207032" y="900.3964058959997" width="36.84300483765625" height="16.988611432000003"/></g><text fill="black" stroke="none" font-family="sans-serif" font-size="8.8pt" font-style="normal" font-weight="bold" text-decoration="normal" x="88.83073217707032" y="912.1577522719997" text-anchor="start" dominant-baseline="alphabetic" xml:space="preserve">[Else]</text></g><g/><g><g/><path fill="none" stroke="black" paint-order="fill stroke markers" d=" M 32.6704066 1080.4103462619998 L 1174.8080287199216 1080.4103462619998 L 1174.8080287199216 1567.199404602 L 32.6704066 1567.199404602 L 32.6704066 1080.4103462619998 Z" stroke-miterlimit="10" stroke-width="2.3336004714285714" stroke-dasharray=""/><path fill="white" stroke="black" paint-order="fill stroke markers" d=" M 32.6704066 1080.4103462619998 L 32.6704066 1100.0125902219997 L 79.02961019707031 1100.0125902219997 L 88.83073217707032 1090.211468242 L 88.83073217707032 1080.4103462619998 L 32.6704066 1080.4103462619998" stroke-miterlimit="10" stroke-width="2.3336004714285714" stroke-dasharray=""/><text fill="black" stroke="none" font-family="sans-serif" font-size="8.8pt" font-style="normal" font-weight="bold" text-decoration="normal" x="49.005609899999996" y="1093.4785089019997" text-anchor="start" dominant-baseline="alphabetic" xml:space="preserve">alt</text><g><rect fill="white" stroke="none" x="102.71565498207032" y="1081.7171625259998" width="244.7581049353125" height="16.988611432000003"/></g><text fill="black" stroke="none" font-family="sans-serif" font-size="8.8pt" font-style="normal" font-weight="bold" text-decoration="normal" x="105.16593547707032" y="1093.4785089019997" text-anchor="start" dominant-baseline="alphabetic" xml:space="preserve">[If there is required field do not have value]</text><g><path fill="none" stroke="black" paint-order="fill stroke markers" d=" M 32.6704066 1215.992533652 L 1174.8080287199216 1215.992533652" stroke-miterlimit="10" stroke-width="2.3336004714285714" stroke-dasharray="4.083800825"/></g><g/></g><g/></g></g></svg>