<svg version="1.1" xmlns="http://www.w3.org/2000/svg" xmlns:xlink="http://www.w3.org/1999/xlink" width="1142" height="1648"><desc>title%20Update%20Syllabus%0A%0Aactor%20%23green%3A0.5%20%22Workspace%20Admin%22%20as%20w%0Aboundary%20%22FUniverse%20Admin%20Client%22%20as%20f%0Aparticipant%20%22Search%20Service%22%20as%20ss%0Acontrol%20%22Syllabus%20Controller%22%20as%20gc%0Aparticipant%20%22Syllabus%20Service%22%20as%20gs%0Adatabase%20%23blue%3A1%20%22Database%22%20as%20db%0Aw-%3Ef%3AGo%20to%20Syllabus%20detail%20page%0Aactivate%20f%0Aw%3C--f%3ADisplay%20Syllabus%20list%20page%0Aw-%3Ef%3AClick%20Update%20Syllabus%20button%0Aw%3C--f%3ADisplay%20Update%20Syllabus%20popup%0Aw-%3Ef%3AType%20information%20of%20Syllabus%0Af-%3Ef%3AValidate%20input%20data%0Aactivate%20f%0Af--%3Ef%3AValidate%20value%0Adeactivate%20f%0Aalt%20If%20the%20input%20data%20is%20wrong%0Aw%3C--f%3AValidate%20Message%0Aend%0Aw-%3Ef%3ASearch%20Subject%0Af-%3Ess%3AGET%5Cn%2Fapi%2Fsearch%3Fentity%3Dsubject%5Cn%2B%20%7BparamToSearch%7D%0Aactivate%20ss%0Af%3C--ss%3Asubject%20list%0Adeactivate%20ss%0Aalt%20If%20there%20is%20no%20subject%20match%20with%20condition%0Aw%3C--f%3ANo%20Options%0Aelse%20Else%0Aw%3C--f%3A%20Subject%20options%20list%0Aw-%3Ef%3ASelect%20Subject%20and%20click%20Save%0Af-%3Egc%3APUT%3A%20%2Fapi%2Fsyllabus%0Aactivate%20gc%0Aalt%20If%20there%20is%20required%20field%20do%20not%20have%20value%0Af%3C--gc%3A%3Ccolor%3A%23red%3E400%20BAD_REQUEST%3A%20%5CnMissing%20required%20property%3C%2Fcolor%3E%0Aw%3C--f%3AMessage%20is%20required%0Aelse%0A%0Agc-%3Egs%3Asave()%0Aactivate%20gs%0Ags-%3Edb%3AUpdate%20Syllabus%0Aactivate%20db%0Ags%3C--db%3ASyllabus%20data%0Adeactivate%20db%0Agc%3C--gs%3ASyllabus%20data%0Adeactivate%20gs%0Af%3C--gc%3A%3Ccolor%3A%23green%3E200%20OK%5CnResponse%20body%3A%20Syllabus%20data%3C%2Fcolor%3E%0Adeactivate%20gc%0Aw%3C--f%3ADisplay%20Syllabus%20detail%20page%0Adeactivate%20f%0Aend%0Aend%20f%0A%0A%0A</desc><defs/><g><g/><g/><g/><g/><g/><g/><g/><g/><g/><g/><g/><g/><g/><g/><g/><g/><g/><g/><g/><g/><g/><g/><g/><g/><g/><g/><g/><g/><g/><g/><g/><g/><g/><g><rect fill="white" stroke="none" x="0" y="0" width="1142" height="1648"/></g><g><text fill="black" stroke="none" font-family="sans-serif" font-size="16.5pt" font-style="normal" font-weight="normal" text-decoration="normal" x="491.3902654427558" y="24.50280495" text-anchor="start" dominant-baseline="alphabetic" xml:space="preserve">Update Syllabus</text></g><g/><g><path fill="none" stroke="black" paint-order="fill stroke markers" d=" M 89.84361815 129.701514202 L 89.84361815 1648.8754211019998" stroke-miterlimit="10" stroke-width="1.3612669416666667" stroke-dasharray="12.565541,5.445067766666667"/><path fill="none" stroke="black" paint-order="fill stroke markers" d=" M 345.30825790501297 129.701514202 L 345.30825790501297 1648.8754211019998" stroke-miterlimit="10" stroke-width="1.3612669416666667" stroke-dasharray="12.565541,5.445067766666667"/><path fill="none" stroke="black" paint-order="fill stroke markers" d=" M 583.285621711979 129.701514202 L 583.285621711979 1648.8754211019998" stroke-miterlimit="10" stroke-width="1.3612669416666667" stroke-dasharray="12.565541,5.445067766666667"/><path fill="none" stroke="black" paint-order="fill stroke markers" d=" M 728.5649261710923 129.701514202 L 728.5649261710923 1648.8754211019998" stroke-miterlimit="10" stroke-width="1.3612669416666667" stroke-dasharray="12.565541,5.445067766666667"/><path fill="none" stroke="black" paint-order="fill stroke markers" d=" M 878.3252563260064 129.701514202 L 878.3252563260064 1648.8754211019998" stroke-miterlimit="10" stroke-width="1.3612669416666667" stroke-dasharray="12.565541,5.445067766666667"/><path fill="none" stroke="black" paint-order="fill stroke markers" d=" M 1044.9782954605116 129.701514202 L 1044.9782954605116 1648.8754211019998" stroke-miterlimit="10" stroke-width="1.3612669416666667" stroke-dasharray="12.565541,5.445067766666667"/></g><g><g><path fill="white" stroke="green" paint-order="fill stroke markers" d=" M 99.154684031 60.60360424300001 A 9.311065881 9.311065881 0 1 1 99.15467937546744 60.594293178670846 M 89.84361815 69.91467012400001 L 89.84361815 89.84361815000001 M 78.08227177399999 77.102159576 L 101.604964526 77.102159576 M 89.84361815 89.84361815000001 L 78.08227177399999 108.465749912 M 89.84361815 89.84361815000001 L 101.604964526 108.465749912" stroke-miterlimit="10" stroke-width="1.3884922805000002" stroke-dasharray=""/></g><g><text fill="black" stroke="none" font-family="sans-serif" font-size="11pt" font-style="normal" font-weight="normal" text-decoration="normal" x="30.50219511533203" y="124.80095321200001" text-anchor="start" dominant-baseline="alphabetic" xml:space="preserve">Workspace Admin</text></g><g><path fill="white" stroke="black" paint-order="fill stroke markers" d=" M 377.73363645551296 82.819480731 A 24.2577769005 24.2577769005 0 1 1 377.73362432662555 82.79522295814245 M 314.27137163501294 57.17321154999999 L 314.27137163501294 108.465749912 M 312.88287935451297 82.819480731 L 329.21808265451295 82.819480731" stroke-miterlimit="10" stroke-width="2.7769845610000004" stroke-dasharray=""/></g><g><text fill="black" stroke="none" font-family="sans-serif" font-size="11pt" font-style="normal" font-weight="normal" text-decoration="normal" x="268.3183058176106" y="124.80095321200001" text-anchor="start" dominant-baseline="alphabetic" xml:space="preserve">FUniverse Admin Client</text></g><path fill="none" stroke="none"/><g><path fill="white" stroke="black" paint-order="fill stroke markers" d=" M 515.8590223839204 85.75981732500001 L 650.7122210400377 85.75981732500001 L 650.7122210400377 129.701514202 L 515.8590223839204 129.701514202 L 515.8590223839204 85.75981732500001 Z" stroke-miterlimit="10" stroke-width="2.613632528" stroke-dasharray=""/></g><g><text fill="black" stroke="none" font-family="sans-serif" font-size="11pt" font-style="normal" font-weight="normal" text-decoration="normal" x="533.5827179644205" y="113.36631090200002" text-anchor="start" dominant-baseline="alphabetic" xml:space="preserve">Search Service</text></g><g><path fill="white" stroke="black" paint-order="fill stroke markers" d=" M 752.8227030715923 82.819480731 A 24.2577769005 24.2577769005 0 1 1 752.8226909427049 82.79522295814245 M 725.2978855110923 58.561703830499994 L 735.0990074910923 50.39410218049999 M 725.2978855110923 58.561703830499994 L 735.0990074910923 66.72930548049999" stroke-miterlimit="10" stroke-width="2.7769845610000004" stroke-dasharray=""/></g><g><text fill="black" stroke="none" font-family="sans-serif" font-size="11pt" font-style="normal" font-weight="normal" text-decoration="normal" x="667.0474243400377" y="124.80095321200001" text-anchor="start" dominant-baseline="alphabetic" xml:space="preserve">Syllabus Controller</text></g><path fill="none" stroke="none"/><g><path fill="white" stroke="black" paint-order="fill stroke markers" d=" M 806.417631302147 85.75981732500001 L 950.2328813498658 85.75981732500001 L 950.2328813498658 129.701514202 L 806.417631302147 129.701514202 L 806.417631302147 85.75981732500001 Z" stroke-miterlimit="10" stroke-width="2.613632528" stroke-dasharray=""/></g><g><text fill="black" stroke="none" font-family="sans-serif" font-size="11pt" font-style="normal" font-weight="normal" text-decoration="normal" x="824.141326882647" y="113.36631090200002" text-anchor="start" dominant-baseline="alphabetic" xml:space="preserve">Syllabus Service</text></g><g><path fill="white" stroke="blue" paint-order="fill stroke markers" d=" M 1021.1288986425117 97.684515734 L 1021.1288986425117 63.380588804000006 L 1068.8276922785117 63.380588804000006 L 1068.8276922785117 97.684515734" stroke-miterlimit="10" stroke-width="2.7769845610000004" stroke-dasharray=""/><path fill="white" stroke="blue" paint-order="fill stroke markers" d=" M 1068.8276922785117 62.1881189631 L 1068.826499818608 62.29592950801663 L 1068.822922558142 62.403729271968594 L 1068.8169608548365 62.51150747506936 L 1068.8086153048573 62.619253339588404 L 1068.797886742752 62.72695609102909 L 1068.7847762413683 62.834604959206004 L 1068.769285111745 62.94218917932205 L 1068.7514149029823 63.04969799304486 L 1068.7311674020864 63.15712064958265 L 1068.70854463379 63.2644464067593 L 1068.6835488603517 63.371664532088516 L 1068.6561825813278 63.47876430384712 L 1068.6264485333231 63.58573501214718 L 1068.594349689718 63.692565960007016 L 1068.5598892603698 63.79924646442086 L 1068.523070691293 63.90576585742718 L 1068.4838976643139 64.01211348717543 L 1068.442374096702 64.11827871899126 L 1068.39850414078 64.22425093643996 L 1068.3522921835067 64.3300195423881 L 1068.3037428460393 64.43557396006322 L 1068.2528609832714 64.54090363411153 L 1068.1996516833462 64.64599803165338 L 1068.1441202671501 64.75084664333659 L 1068.0862722877782 64.85543898438739 L 1068.02611352998 64.95976459565881 L 1067.9636500095812 65.06381304467668 L 1067.8988879728822 65.16757392668278 L 1067.831833896032 65.27103686567541 L 1067.762494484383 65.37419151544687 L 1067.6908766718186 65.47702756061814 L 1067.61698762006 65.5795347176704 L 1067.5408347179507 65.68170273597339 L 1067.462425580718 65.7835213988104 L 1067.38176804921 65.88498052439998 L 1067.2988701891124 65.98606996691414 L 1067.2137402901426 66.08677961749288 L 1067.1263868652193 66.18709940525505 L 1067.036818649612 66.28701929830548 L 1066.9450446000678 66.38652930473813 L 1066.8510738939156 66.48561947363528 L 1066.754915928147 66.58427989606261 L 1066.6565803184787 66.6825007060601 L 1066.55607689839 66.7802720816286 L 1066.4534157181388 66.87758424571203 L 1066.3486070437577 66.97442746717506 L 1066.241661356027 67.07079206177627 L 1066.132589349426 67.1666683931365 L 1066.0214019310647 67.2620468737025 L 1065.9081102195921 67.35691796570569 L 1065.7927255440852 67.45127218211596 L 1065.6752594429151 67.54510008759026 L 1065.5557236625943 67.63839229941624 L 1065.434130156601 67.73113948845047 L 1065.3104910841846 67.82333238005134 L 1065.1848188091492 67.9149617550065 L 1065.0571258986176 68.00601845045483 L 1064.9274251217748 68.09649336080267 L 1064.7957294485898 68.18637743863435 L 1064.6620520485205 68.27566169561702 L 1064.5264062891956 68.36433720339936 L 1064.3888057350778 68.45239509450451 L 1064.2492641461079 68.53982656321674 L 1064.1077954763286 68.62662286646201 L 1063.9644138724889 68.71277532468237 L 1063.8191336726295 68.79827532270376 L 1063.6719694046499 68.88311431059763 L 1063.5229357848536 68.9672838045359 L 1063.3720477164788 69.0507753876393 L 1063.2193202882065 69.13358071081912 L 1063.064768772652 69.21569149361203 L 1062.9084086248386 69.29709952500816 L 1062.7502554806504 69.37779666427225 L 1062.5903251552702 69.45777484175761 L 1062.428633641597 69.53702605971311 L 1062.2651971086475 69.61554239308303 L 1062.100031899939 69.69331599029945 L 1061.9331545318548 69.77033907406746 L 1061.7645816919924 69.84660394214286 L 1061.5943302374951 69.92210296810242 L 1061.422417193367 69.99682860210643 L 1061.248859750769 70.07077337165379 L 1061.0736752653006 70.14392988232913 L 1060.8968812552646 70.21629081854239 L 1060.7184953999144 70.28784894426022 L 1060.5385355376873 70.35859710372968 L 1060.357019664419 70.42852822219379 L 1060.1739659315463 70.49763530659898 L 1059.9893926442892 70.5659114462944 L 1059.803318259823 70.63334981372294 L 1059.6157613854311 70.69994366510412 L 1059.4267407766445 70.76568634110825 L 1059.2362753353666 70.83057126752253 L 1059.0443841079828 70.89459195590838 L 1058.851086283456 70.95774200425032 L 1058.6564011914074 71.02001509759614 L 1058.4603483001843 71.08140500868842 L 1058.2629472149122 71.14190559858717 L 1058.064217675535 71.20151081728383 L 1057.8641795548413 71.26021470430622 L 1057.6628528564763 71.31801138931453 L 1057.4602577129422 71.37489509268845 L 1057.2564143835846 71.43086012610503 L 1057.051343252566 71.48590089310757 L 1056.8450648268295 71.54001188966522 L 1056.6375997340451 71.59318770472345 L 1056.4289687205494 71.64542302074504 L 1056.2191926492699 71.69671261424193 L 1056.0082924976389 71.7470513562975 L 1055.796289355496 71.79643421307951 L 1055.5832044229783 71.84485624634341 L 1055.3690590084018 71.89231261392625 L 1055.1538745261296 71.93879857023082 L 1054.9376724944304 71.9843094667002 L 1054.7204745333272 72.02884075228269 L 1054.502302362435 72.07238797388683 L 1054.2831777987897 72.11494677682676 L 1054.0631227546644 72.15651290525764 L 1053.8421592353802 72.19708220260128 L 1053.6203093371053 72.23665061196175 L 1053.3975952446442 72.27521417653107 L 1053.1740392292209 72.31276903998494 L 1052.9496636462502 72.3493114468683 L 1052.7244909331039 72.38483774297092 L 1052.4985436068655 72.41934437569277 L 1052.2718442620794 72.45282789439938 L 1052.0444155684909 72.48528495076673 L 1051.8162802687802 72.51671229911628 L 1051.5874611762868 72.54710679673934 L 1051.3579811727295 72.5764654042115 L 1051.1278632059175 72.60478518569649 L 1050.8971302874554 72.63206330923974 L 1050.665805490443 72.65829704705163 L 1050.4339119471672 72.68348377578025 L 1050.201472846789 72.70762097677371 L 1049.968511433025 72.73070623633201 L 1049.735051001822 72.75273724594847 L 1049.501114899029 72.77371180254045 L 1049.2667265180612 72.79362780866978 L 1049.0319092975612 72.81248327275246 L 1048.7966867190555 72.83027630925778 L 1048.5610823046059 72.84700513889692 L 1048.3251196144577 72.86266808880085 L 1048.088822244683 72.87726359268764 L 1047.8522138248218 72.89079019101906 L 1047.6153180155193 72.90324653114655 L 1047.3781585061588 72.91463136744649 L 1047.1407590124936 72.9249435614447 L 1046.9031432742752 72.93418208193043 L 1046.6653350528795 72.94234600505929 L 1046.4273581289306 72.94943451444577 L 1046.1892362999222 72.95544690124485 L 1045.9509933778388 72.96038256422287 L 1045.7126531867746 72.96424100981763 L 1045.4742395605494 72.9670218521878 L 1045.235776340328 72.96872481325143 L 1044.9972873722327 72.96934972271386 L 1044.7587965049622 72.96889651808466 L 1044.5203275874044 72.96736524468392 L 1044.2819044662522 72.96475605563768 L 1044.043550983619 72.96106921186271 L 1043.8052909746548 72.95630508204027 L 1043.5671482651614 72.9504641425794 L 1043.3291466692117 72.94354697756918 L 1043.0913099867669 72.93555427872033 L 1042.853662001297 72.9264868452961 L 1042.6162264774025 72.91634558403224 L 1042.3790271584378 72.90513150904647 L 1042.1420877641374 72.89284574173689 L 1041.905431988243 72.87948951067006 L 1041.6690834961353 72.86506415145789 L 1041.4330659224663 72.84957110662431 L 1041.1974028687966 72.8330119254609 L 1040.9621179012356 72.81538826387197 L 1040.7272345480835 72.79670188420899 L 1040.4927762974803 72.77695465509434 L 1040.2587665950552 72.7561485512345 L 1040.025228841584 72.73428565322251 L 1039.792186390647 72.71136814732996 L 1039.5596625462954 72.68739832528833 L 1039.3276805607195 72.66237858405984 L 1039.0962636319248 72.63631142559778 L 1038.8654349014114 72.60919945659627 L 1038.6352174518597 72.58104538822961 L 1038.4056343048233 72.55185203588118 L 1038.176708418425 72.5216223188619 L 1037.948462685063 72.49035926011825 L 1037.7209199291203 72.45806598593009 L 1037.4941029046831 72.4247457255979 L 1037.2680342932645 72.39040181111994 L 1037.0427367015375 72.35503767685907 L 1036.8182326590736 72.31865685919922 L 1036.5945446160897 72.28126299619186 L 1036.3716949412037 72.24285982719209 L 1036.1497059191977 72.20345119248485 L 1035.9285997487884 72.16304103290075 L 1035.7083985404092 72.12163338942209 L 1035.4891243139969 72.07923240277869 L 1035.2707989967917 72.03584231303388 L 1035.0534444211435 71.99146745916049 L 1034.8370823223283 71.94611227860693 L 1034.621734336376 71.89978130685344 L 1034.4074219979057 71.85247917695861 L 1034.1941667379726 71.80421061909601 L 1033.981989881925 71.75498046008119 L 1033.7709126472719 71.70479362288901 L 1033.5609561415606 71.65365512616141 L 1033.3521413602666 71.60157008370541 L 1033.1444891846943 71.54854370398188 L 1032.938020379888 71.49458128958457 L 1032.7327555925565 71.43968823671 L 1032.528715349007 71.38387003461766 L 1032.325920053094 71.32713226508127 L 1032.1243899841784 71.26948060183051 L 1031.9241452950985 71.21092080998365 L 1031.725206010157 71.15145874547107 L 1031.5275920231163 71.0911003544497 L 1031.3313230952103 71.0298516727083 L 1031.1364188531686 70.96771882506403 L 1030.9428987872525 70.90470802474988 L 1030.7507822493078 70.84082557279336 L 1030.560088450828 70.77607785738643 L 1030.370836461034 70.71047135324669 L 1030.1830452049671 70.64401262096986 L 1029.9967334615965 70.5767083063738 L 1029.811919861941 70.50856513983389 L 1029.628622887207 70.43958993560999 L 1029.4468608669388 70.36978959116503 L 1029.2666519771872 70.29917108647531 L 1029.088014238691 70.22774148333244 L 1028.910965515075 70.1555079246372 L 1028.7355235110642 70.08247763368529 L 1028.5617057707127 70.00865791344492 L 1028.3895296756498 69.9340561458266 L 1028.2190124433416 69.85867979094495 L 1028.050171125369 69.78253638637263 L 1027.883022605723 69.70563354638664 L 1027.7175835991166 69.62797896120689 L 1027.5538706493126 69.54958039622719 L 1027.3919001274692 69.47044569123871 L 1027.2316882305038 69.39058275964601 L 1027.0732509794727 69.30999958767568 L 1026.916604217969 69.22870423357777 L 1026.761763610538 69.14670482681996 L 1026.6087446411118 69.06400956727457 L 1026.4575626114595 68.98062672439866 L 1026.3082326396582 68.89656463640702 L 1026.1607696585806 68.8118317094384 L 1026.0151884144022 68.72643641671489 L 1025.8715034651257 68.6403872976946 L 1025.7297291791265 68.55369295721772 L 1025.589879733715 68.46636206464606 L 1025.4519691137193 68.37840335299609 L 1025.3160111100863 68.28982561806569 L 1025.1820193185033 68.20063771755453 L 1025.0500071380375 68.11084857017835 L 1024.9199877697972 68.02046715477704 L 1024.7919742156107 67.92950250941684 L 1024.6659792767268 67.83796373048648 L 1024.5420155525344 67.74585997178757 L 1024.4200954393027 67.65320044361923 L 1024.3002311289413 67.55999441185705 L 1024.1824346077813 67.46625119702654 L 1024.0667176553768 67.37198017337107 L 1023.9530918433267 67.27719076791445 L 1023.8415685341173 67.18189245951821 L 1023.7321588799866 67.08609477793381 L 1023.6248738218089 66.98980730284956 L 1023.5197240880007 66.89303966293272 L 1023.4167201934476 66.79580153486665 L 1023.3158724384533 66.69810264238313 L 1023.2171909077092 66.59995275528999 L 1023.1206854692863 66.50136168849414 L 1023.0263657736479 66.40233930102012 L 1022.9342412526848 66.30289549502413 L 1022.8443211187727 66.20304021480393 L 1022.7566143638497 66.1027834458043 L 1022.6711297585184 66.00213521361863 L 1022.5878758511682 65.90110558298623 L 1022.5068609671201 65.799704656786 L 1022.4280932077953 65.69794257502603 L 1022.3515804499041 65.59582951382973 L 1022.2773303446583 65.4933756844181 L 1022.2053503170067 65.3905913320887 L 1022.135647564892 65.28748673519112 L 1022.0682290585315 65.18407220409914 L 1022.0031015397195 65.08035808017966 L 1021.9402715211536 64.97635473475869 L 1021.8797452857834 64.87207256808405 L 1021.8215288861819 64.76752200828555 L 1021.7656281439407 64.66271351033203 L 1021.7120486490873 64.55765755498592 L 1021.6607957595264 64.45236464775525 L 1021.6118746005046 64.34684531784296 L 1021.5652900640968 64.24111011709415 L 1021.5210468087179 64.13516961894075 L 1021.4791492586564 64.0290344173443 L 1021.4396016036327 63.92271512573653 L 1021.402407798379 63.81622237595798 L 1021.3675715622452 63.70956681719489 L 1021.3350963788255 63.602759114914264 L 1021.3049854956115 63.49580994979732 L 1021.2772419236662 63.38873001667144 L 1021.2518684373239 63.28153002344071 L 1021.2288675739119 63.17422069001512 L 1021.2082416334974 63.066812747238586 L 1021.1899926786573 62.959316935815885 L 1021.1741225342719 62.85174400523857 L 1021.1606327873424 62.74410471271006 L 1021.1495247868321 62.636409822069915 L 1021.1407996435321 62.52867010271744 L 1021.1344582299491 62.4208963285348 L 1021.1305011802195 62.313099276809595 L 1021.1289288900448 62.20528972715717 L 1021.1297415166528 62.09747846044265 L 1021.1329389787813 61.98967625770286 L 1021.138520956687 61.88189389906824 L 1021.1464868921767 61.77414216268484 L 1021.1568359886634 61.66643182363649 L 1021.1695672112462 61.558773652867366 L 1021.1846792868133 61.4511784161048 L 1021.2021707041699 61.34365687278283 L 1021.2220397141887 61.236219774966166 L 1021.2442843299854 61.12887786627507 L 1021.2689023271168 61.02164188081096 L 1021.2958912438038 60.91452254208302 L 1021.3252483811772 60.807530561935856 L 1021.3569708035477 60.70067663947832 L 1021.3910553386996 60.593971460013606 L 1021.4274985782076 60.487425693970756 L 1021.4662968777784 60.381049995837586 L 1021.5074463576141 60.27485500309525 L 1021.5509429028011 60.16885133515453 L 1021.5967821637212 60.06304959229389 L 1021.6449595564864 59.95746035459945 L 1021.6954702633976 59.852094180906974 L 1021.7483092334262 59.746961607746044 L 1021.8034711827194 59.64207314828636 L 1021.860950595128 59.537439291286454 L 1021.9207417227587 59.43307050004484 L 1021.9828385865486 59.32897721135367 L 1022.0472349768631 59.22516983445505 L 1022.113924454117 59.12165875000019 L 1022.1829003494178 59.01845430901127 L 1022.2541557652336 58.91556683184637 L 1022.3276835760822 58.81300660716748 L 1022.4034764292438 58.7107838909116 L 1022.4815267454962 58.60890890526517 L 1022.561826719873 58.507391837641855 L 1022.6443683224434 58.406242839663825 L 1022.7291432991161 58.30547202614659 L 1022.8161431724641 58.205089474087515 L 1022.9053592425724 58.105105221658164 L 1022.9967825879086 58.00552926720046 L 1023.0904040662141 57.90637156822687 L 1023.1862143154191 57.807642040424646 L 1023.2842037545787 57.709350556664305 L 1023.3843625848306 57.61150694601232 L 1023.4866807903751 57.514120992748204 L 1023.5911481394769 57.417202435386145 L 1023.6977541854884 57.320760965701105 L 1023.8064882678937 57.224806227759686 L 1023.9173395133749 57.12934781695572 L 1024.0302968369003 57.03439527905074 L 1024.1453489428313 56.93995810921942 L 1024.2624843260535 56.84604575110002 L 1024.381691273126 56.75266759585011 L 1024.5029578634535 56.65983298120741 L 1024.6262719704778 56.567551190555996 L 1024.7516212628914 56.47583145199805 L 1024.878993205869 56.384682937430995 L 1025.0083750623228 56.29411476163032 L 1025.1397538941749 56.20413598133814 L 1025.2731165636515 56.1147555943575 L 1025.4084497345968 56.02598253865261 L 1025.5457398738067 55.937825691455075 L 1025.6849732523815 55.85029386837614 L 1025.8261359470994 55.763395822525176 L 1025.9692138418086 55.677140243634355 L 1026.1141926288387 55.591535757189675 L 1026.261057810432 55.50659092356846 L 1026.4097947001926 55.42231423718327 L 1026.5603884245556 55.33871412563253 L 1026.7128239242738 55.25579894885771 L 1026.8670859559247 55.1735769983074 L 1027.0231590934334 55.092056496108135 L 1027.1810277296163 55.01124559424221 L 1027.3406760777411 54.93115237373246 L 1027.5020881731064 54.851784843834196 L 1027.6652478746366 54.77315094123426 L 1027.8301388664984 54.6952585292574 L 1027.9967446597293 54.61811539707989 L 1028.165048593889 54.54172925895067 L 1028.3350338387243 54.46610775341989 L 1028.5066833958526 54.391258442575094 L 1028.6799801004609 54.317188811284986 L 1028.8549066230235 54.24390626645098 L 1029.0314454710335 54.171418136266475 L 1029.2095789907537 54.09973166948409 L 1029.3892893689801 54.028854034690774 L 1029.5705586348251 53.95879231959093 L 1029.753368661513 53.88955353029769 L 1029.9377011681931 53.82114459063227 L 1030.1235377217688 53.753572341431656 L 1030.3108597387393 53.68684353986444 L 1030.4996484870594 53.62096485875517 L 1030.6898850880111 53.55594288591707 L 1030.8815505180933 53.49178412349323 L 1031.0746256109223 53.42849498730643 L 1031.26909105915 53.366081806217544 L 1031.4649274163935 53.304550821492676 L 1031.6621150991805 53.24390818617902 L 1031.8606343889066 53.18415996448957 L 1032.0604654338085 53.12531213119671 L 1032.2615882509485 53.067370571034715 L 1032.4639827282122 53.01034107811134 L 1032.6676286263203 52.95422935532834 L 1032.8725055808532 52.89904101381123 L 1033.0785931042858 52.84478157234818 L 1033.2858705880378 52.79145645683812 L 1033.4943173045333 52.73907099974815 L 1033.7039124092744 52.687630439580346 L 1033.9146349429254 52.637139920347835 L 1034.1264638334085 52.58760449106049 L 1034.339377898011 52.53902910521993 L 1034.553355845504 52.49141862032429 L 1034.7683762782713 52.444777797382365 L 1034.9844176944484 52.399111300437596 L 1035.2014584900742 52.354423696101605 L 1035.4194769612493 52.3107194530976 L 1035.638451306309 52.26800294181345 L 1035.8583596280007 52.2262784338647 L 1036.079179935676 52.18555010166736 L 1036.3008901474875 52.14582201802072 L 1036.5234680925994 52.10709815570004 L 1036.7468915134025 52.06938238705927 L 1036.9711380677406 52.032678483643856 L 1037.1961853311457 51.996990115813546 L 1037.4220107990784 51.96232085237539 L 1037.6485918891804 51.928674160226834 L 1037.8759059435315 51.89605340400906 L 1038.1039302309157 51.8644618457705 L 1038.332641949094 51.833902644640645 L 1038.5620182270857 51.80437885651416 L 1038.7920361274537 51.775893433745246 L 1039.0226726485998 51.74844922485244 L 1039.2539047270643 51.722048974233765 L 1039.4857092398317 51.69669532189228 L 1039.7180630066441 51.672390803172085 L 1039.9509427923183 51.649137848504814 L 1040.18432530907 51.626938783166544 L 1040.4181872188415 51.60579582704531 L 1040.6525051356373 51.58571109441911 L 1040.887255627861 51.56668659374447 L 1041.1224152206585 51.54872422745561 L 1041.3579603982669 51.53182579177417 L 1041.5938676063645 51.515992976529645 L 1041.8301132544273 51.50122736499037 L 1042.066673718087 51.4875304337052 L 1042.3035253414948 51.47490355235584 L 1042.5406444396854 51.4633479836199 L 1042.778007300947 51.45286488304463 L 1043.0155901891906 51.443455298931354 L 1043.253369346326 51.43512017223063 L 1043.4913209946353 51.4278603364482 L 1043.7294213391522 51.42167651756158 L 1043.9676465700402 51.41656933394751 L 1044.2059728649751 51.41253929632009 L 1044.4443763915262 51.40958680767973 L 1044.682833309539 51.407712163272826 L 1044.921319773521 51.40691555056227 L 1045.159811935024 51.40719704920866 L 1045.398285945031 51.40855663106237 L 1045.6367179563392 51.41099416016634 L 1045.8750841259466 51.414509392769695 L 1046.113360617435 51.419101977352106 L 1046.3515236033534 51.42477145465894 L 1046.589549267602 51.431517257747196 L 1046.8274138078125 51.43933871204218 L 1047.0650934377293 51.44823503540498 L 1047.3025643895871 51.45820533821068 L 1047.5398029164892 51.4692486234373 L 1047.7767852947802 51.48136378676553 L 1048.0134878264198 51.49454961668913 L 1048.249886841352 51.50880479463608 L 1048.4859586998725 51.524127895100484 L 1048.7216797949923 51.54051738578506 L 1048.957026554798 51.5579716277544 L 1049.1919754448097 51.57648887559884 L 1049.4265029703347 51.59606727760904 L 1049.6605856788153 51.6167048759611 L 1049.894200162176 51.6383996069124 L 1050.1273230591632 51.66114930100791 L 1050.3599310576813 51.684951683297186 L 1050.5920008971243 51.70980437356183 L 1050.823509370702 51.735704886553535 L 1051.0544333277592 51.76265063224257 L 1051.2847496760935 51.79063891607683 L 1051.5144353842613 51.81966693925126 L 1051.7434674838837 51.849731798987726 L 1051.9718230719413 51.88083048882531 L 1052.199479313066 51.91295989892094 L 1052.4264134418227 51.94611681636038 L 1052.6526027649882 51.980297925479526 L 1052.8780246638182 52.01549980819594 L 1053.1026565963114 52.0517189443507 L 1053.326476099461 52.08895171206036 L 1053.5494607915034 52.127194388079175 L 1053.7715883741555 52.16644314817141 L 1053.992836634844 52.20669406749378 L 1054.213183448927 52.247943120987884 L 1054.432606781907 52.29018618378274 L 1054.6510846916335 52.33341903160728 L 1054.8685953304973 52.37763734121275 L 1055.0851169476161 52.422836690805035 L 1055.3006278910086 52.46901256048684 L 1055.5151066097599 52.516160332709674 L 1055.7285316561768 52.564275292735616 L 1055.9408816879327 52.613352629108746 L 1056.1521354702013 52.663387434136325 L 1056.3622718777806 52.71437470437956 L 1056.5712698972047 52.7663093411539 L 1056.7791086288457 52.819186151038956 L 1056.9857672890041 52.8729998463978 L 1057.1912252119857 52.92774504590574 L 1057.3954618521698 52.983416275088445 L 1057.5984567860621 53.040007966869396 L 1057.8001897143388 53.09751446212657 L 1058.0006404638748 53.15593001025836 L 1058.1997889897625 53.21524876975863 L 1058.397615377315 53.27546480880087 L 1058.5940998440587 53.33657210583136 L 1058.7892227417103 53.3985645501713 L 1058.982964558143 53.461435942627936 L 1059.1753059193366 53.52517999611441 L 1059.366227591315 53.58979033627848 L 1059.5557104820703 53.655260502139996 L 1059.7437356434712 53.721583946736914 L 1059.9302842731581 53.78875403778004 L 1060.115337716424 53.85676405831625 L 1060.2988774680782 53.92560720740017 L 1060.480885174299 53.995276600774254 L 1060.6613426344668 54.065765271557225 L 1060.8402318029866 54.13706617094075 L 1061.0175347910906 54.2091721688943 L 1061.1932338686272 54.28207605487816 L 1061.3673114658357 54.35577053856451 L 1061.5397501751008 54.43024825056637 L 1061.7105327526958 54.50550174317461 L 1061.8796421205052 54.581523491102686 L 1062.0470613677328 54.658305892239156 L 1062.2127737525936 54.73584126840789 L 1062.3767627039874 54.81412186613588 L 1062.5390118231553 54.89313985742859 L 1062.699504885321 54.97288734055273 L 1062.8582258413117 55.05335634082646 L 1063.0151588191643 55.1345388114168 L 1063.1702881257117 55.21642663414435 L 1063.3235982481524 55.29901162029506 L 1063.4750738556022 55.38228551143916 L 1063.6246998006263 55.46623998025691 L 1063.7724611207552 55.55086663137139 L 1063.9183430399796 55.63615700218803 L 1064.0623309702296 55.722102563740805 L 1064.2044105128316 55.80869472154519 L 1064.3445674599504 55.89592481645755 L 1064.4827877960076 55.98378412554111 L 1064.619057699085 56.07226386293816 L 1064.7533635423058 56.1613551807487 L 1064.8856918951976 56.251049169915184 L 1065.0160295250353 56.34133686111345 L 1065.1443633981646 56.4322092256496 L 1065.2706806813053 56.52365717636293 L 1065.394968742834 56.615671568534566 L 1065.5172151540485 56.70824320080196 L 1065.6374076904092 56.80136281607904 L 1065.7555343327626 56.89502110248188 L 1065.8715832685434 56.98920869425987 L 1065.9855428929543 57.083916172732344 L 1066.0974018101278 57.17913406723036 L 1066.2071488342658 57.27485285604382 L 1066.3147729907569 57.37106296737362 L 1066.4202635172753 57.467754780288786 L 1066.5236098648566 57.56491862568861 L 1066.6248016989514 57.662544787269525 L 1066.7238289004613 57.76062350249672 L 1066.8206815667484 57.859144963580405 L 1066.9153500126267 57.95809931845658 L 1067.0078247713307 58.05747667177222 L 1067.0980965954614 58.15726708587479 L 1067.1861564579117 58.257460581806065 L 1067.2719955527689 58.358047140299924 L 1067.3556052961947 58.459016702784346 L 1067.4369773272847 58.56035917238722 L 1067.5161035089036 58.66206441494605 L 1067.592975928499 58.764122260021324 L 1067.6675868988932 58.866522501913586 L 1067.7399289590512 58.96925490068398 L 1067.8099948748275 59.072309183178234 L 1067.8777776396885 59.17567504405398 L 1067.9432704754145 59.279342146811274 L 1068.0064668327764 59.38330012482622 L 1068.067360392191 59.48753858238766 L 1068.1259450643533 59.59204709573668 L 1068.182214990845 59.69681521410906 L 1068.2361645447204 59.80183246078026 L 1068.2877883310684 59.907088334113126 L 1068.3370811875543 60.012572308608036 L 1068.3840381849327 60.11827383595545 L 1068.4286546275437 60.22418234609071 L 1068.4709260537797 60.33028724825106 L 1068.5108482365335 60.43657793203471 L 1068.5484171836201 60.54304376846186 L 1068.5836291381763 60.64967411103757 L 1068.6164805790356 60.75645829681646 L 1068.6469682210814 60.86338564746893 L 1068.6750890155752 60.97044547034902 L 1068.7008401504606 61.07762705956367 L 1068.7242190506456 61.184919697043256 L 1068.74522337826 61.29231265361346 L 1068.7638510328882 61.399795190068104 L 1068.7801001517805 61.50735655824312 L 1068.7939691100385 61.614986002091314 L 1068.8054565207776 61.72267275875801 L 1068.8145612352669 61.830406059657264 L 1068.821282343042 61.93817513154877 L 1068.8256191719981 62.04596919761514 L 1068.8275712884556 62.15377747853961 M 1068.8276922785117 96.4920458931 L 1068.826499818608 96.59985643801662 L 1068.822922558142 96.70765620196859 L 1068.8169608548365 96.81543440506935 L 1068.8086153048573 96.9231802695884 L 1068.797886742752 97.03088302102908 L 1068.7847762413683 97.138531889206 L 1068.769285111745 97.24611610932205 L 1068.7514149029823 97.35362492304485 L 1068.7311674020864 97.46104757958265 L 1068.70854463379 97.5683733367593 L 1068.6835488603517 97.67559146208852 L 1068.6561825813278 97.78269123384712 L 1068.6264485333231 97.88966194214719 L 1068.594349689718 97.99649289000702 L 1068.5598892603698 98.10317339442086 L 1068.523070691293 98.20969278742717 L 1068.4838976643139 98.31604041717543 L 1068.442374096702 98.42220564899125 L 1068.39850414078 98.52817786643996 L 1068.3522921835067 98.6339464723881 L 1068.3037428460393 98.73950089006323 L 1068.2528609832714 98.84483056411152 L 1068.1996516833462 98.94992496165337 L 1068.1441202671501 99.05477357333659 L 1068.0862722877782 99.15936591438738 L 1068.02611352998 99.2636915256588 L 1067.9636500095812 99.36773997467667 L 1067.8988879728822 99.47150085668278 L 1067.831833896032 99.5749637956754 L 1067.762494484383 99.67811844544686 L 1067.6908766718186 99.78095449061813 L 1067.61698762006 99.8834616476704 L 1067.5408347179507 99.98562966597338 L 1067.462425580718 100.08744832881038 L 1067.38176804921 100.18890745439998 L 1067.2988701891124 100.28999689691415 L 1067.2137402901426 100.39070654749288 L 1067.1263868652193 100.49102633525506 L 1067.036818649612 100.59094622830548 L 1066.9450446000678 100.69045623473812 L 1066.8510738939156 100.78954640363527 L 1066.754915928147 100.8882068260626 L 1066.6565803184787 100.9864276360601 L 1066.55607689839 101.0841990116286 L 1066.4534157181388 101.18151117571202 L 1066.3486070437577 101.27835439717506 L 1066.241661356027 101.37471899177628 L 1066.132589349426 101.4705953231365 L 1066.0214019310647 101.56597380370249 L 1065.9081102195921 101.6608448957057 L 1065.7927255440852 101.75519911211595 L 1065.6752594429151 101.84902701759025 L 1065.5557236625943 101.94231922941623 L 1065.434130156601 102.03506641845047 L 1065.3104910841846 102.12725931005133 L 1065.1848188091492 102.2188886850065 L 1065.0571258986176 102.30994538045483 L 1064.9274251217748 102.40042029080266 L 1064.7957294485898 102.49030436863434 L 1064.6620520485205 102.579588625617 L 1064.5264062891956 102.66826413339936 L 1064.3888057350778 102.75632202450451 L 1064.2492641461079 102.84375349321674 L 1064.1077954763286 102.93054979646202 L 1063.9644138724889 103.01670225468237 L 1063.8191336726295 103.10220225270375 L 1063.6719694046499 103.18704124059762 L 1063.5229357848536 103.27121073453588 L 1063.3720477164788 103.3547023176393 L 1063.2193202882065 103.4375076408191 L 1063.064768772652 103.51961842361202 L 1062.9084086248386 103.60102645500817 L 1062.7502554806504 103.68172359427226 L 1062.5903251552702 103.7617017717576 L 1062.428633641597 103.84095298971312 L 1062.2651971086475 103.91946932308304 L 1062.100031899939 103.99724292029944 L 1061.9331545318548 104.07426600406745 L 1061.7645816919924 104.15053087214287 L 1061.5943302374951 104.22602989810241 L 1061.422417193367 104.30075553210642 L 1061.248859750769 104.37470030165377 L 1061.0736752653006 104.44785681232914 L 1060.8968812552646 104.52021774854238 L 1060.7184953999144 104.59177587426021 L 1060.5385355376873 104.66252403372968 L 1060.357019664419 104.73245515219378 L 1060.1739659315463 104.80156223659897 L 1059.9893926442892 104.86983837629438 L 1059.803318259823 104.93727674372295 L 1059.6157613854311 105.0038705951041 L 1059.4267407766445 105.06961327110824 L 1059.2362753353666 105.13449819752252 L 1059.0443841079828 105.19851888590837 L 1058.851086283456 105.26166893425032 L 1058.6564011914074 105.32394202759615 L 1058.4603483001843 105.38533193868841 L 1058.2629472149122 105.44583252858716 L 1058.064217675535 105.50543774728384 L 1057.8641795548413 105.56414163430621 L 1057.6628528564763 105.62193831931454 L 1057.4602577129422 105.67882202268845 L 1057.2564143835846 105.73478705610502 L 1057.051343252566 105.78982782310756 L 1056.8450648268295 105.84393881966523 L 1056.6375997340451 105.89711463472344 L 1056.4289687205494 105.94934995074503 L 1056.2191926492699 106.00063954424192 L 1056.0082924976389 106.0509782862975 L 1055.796289355496 106.1003611430795 L 1055.5832044229783 106.14878317634341 L 1055.3690590084018 106.19623954392625 L 1055.1538745261296 106.2427255002308 L 1054.9376724944304 106.2882363967002 L 1054.7204745333272 106.33276768228268 L 1054.502302362435 106.37631490388682 L 1054.2831777987897 106.41887370682676 L 1054.0631227546644 106.46043983525765 L 1053.8421592353802 106.50100913260128 L 1053.6203093371053 106.54057754196174 L 1053.3975952446442 106.57914110653107 L 1053.1740392292209 106.61669596998493 L 1052.9496636462502 106.65323837686829 L 1052.7244909331039 106.6887646729709 L 1052.4985436068655 106.72327130569276 L 1052.2718442620794 106.75675482439937 L 1052.0444155684909 106.78921188076673 L 1051.8162802687802 106.82063922911627 L 1051.5874611762868 106.85103372673933 L 1051.3579811727295 106.8803923342115 L 1051.1278632059175 106.90871211569649 L 1050.8971302874554 106.93599023923973 L 1050.665805490443 106.96222397705162 L 1050.4339119471672 106.98741070578025 L 1050.201472846789 107.0115479067737 L 1049.968511433025 107.03463316633201 L 1049.735051001822 107.05666417594847 L 1049.501114899029 107.07763873254045 L 1049.2667265180612 107.09755473866979 L 1049.0319092975612 107.11641020275246 L 1048.7966867190555 107.13420323925777 L 1048.5610823046059 107.1509320688969 L 1048.3251196144577 107.16659501880085 L 1048.088822244683 107.18119052268763 L 1047.8522138248218 107.19471712101905 L 1047.6153180155193 107.20717346114655 L 1047.3781585061588 107.21855829744648 L 1047.1407590124936 107.22887049144471 L 1046.9031432742752 107.23810901193042 L 1046.6653350528795 107.24627293505928 L 1046.4273581289306 107.25336144444577 L 1046.1892362999222 107.25937383124486 L 1045.9509933778388 107.26430949422287 L 1045.7126531867746 107.26816793981763 L 1045.4742395605494 107.27094878218779 L 1045.235776340328 107.27265174325143 L 1044.9972873722327 107.27327665271386 L 1044.7587965049622 107.27282344808465 L 1044.5203275874044 107.27129217468391 L 1044.2819044662522 107.26868298563768 L 1044.043550983619 107.2649961418627 L 1043.8052909746548 107.26023201204026 L 1043.5671482651614 107.2543910725794 L 1043.3291466692117 107.24747390756917 L 1043.0913099867669 107.23948120872033 L 1042.853662001297 107.23041377529609 L 1042.6162264774025 107.22027251403225 L 1042.3790271584378 107.20905843904646 L 1042.1420877641374 107.1967726717369 L 1041.905431988243 107.18341644067004 L 1041.6690834961353 107.16899108145788 L 1041.4330659224663 107.15349803662431 L 1041.1974028687966 107.1369388554609 L 1040.9621179012356 107.11931519387196 L 1040.7272345480835 107.10062881420897 L 1040.4927762974803 107.08088158509435 L 1040.2587665950552 107.0600754812345 L 1040.025228841584 107.03821258322252 L 1039.792186390647 107.01529507732995 L 1039.5596625462954 106.99132525528832 L 1039.3276805607195 106.96630551405984 L 1039.0962636319248 106.94023835559778 L 1038.8654349014114 106.91312638659626 L 1038.6352174518597 106.88497231822961 L 1038.4056343048233 106.85577896588119 L 1038.176708418425 106.8255492488619 L 1037.948462685063 106.79428619011826 L 1037.7209199291203 106.76199291593008 L 1037.4941029046831 106.72867265559789 L 1037.2680342932645 106.69432874111995 L 1037.0427367015375 106.65896460685907 L 1036.8182326590736 106.62258378919921 L 1036.5945446160897 106.58518992619184 L 1036.3716949412037 106.5467867571921 L 1036.1497059191977 106.50737812248485 L 1035.9285997487884 106.46696796290075 L 1035.7083985404092 106.42556031942208 L 1035.4891243139969 106.38315933277867 L 1035.2707989967917 106.33976924303387 L 1035.0534444211435 106.29539438916049 L 1034.8370823223283 106.25003920860692 L 1034.621734336376 106.20370823685344 L 1034.4074219979057 106.15640610695861 L 1034.1941667379726 106.108137549096 L 1033.981989881925 106.05890739008117 L 1033.7709126472719 106.00872055288902 L 1033.5609561415606 105.9575820561614 L 1033.3521413602666 105.90549701370541 L 1033.1444891846943 105.85247063398188 L 1032.938020379888 105.79850821958458 L 1032.7327555925565 105.74361516670999 L 1032.528715349007 105.68779696461766 L 1032.325920053094 105.63105919508126 L 1032.1243899841784 105.5734075318305 L 1031.9241452950985 105.51484773998365 L 1031.725206010157 105.45538567547108 L 1031.5275920231163 105.3950272844497 L 1031.3313230952103 105.33377860270829 L 1031.1364188531686 105.27164575506403 L 1030.9428987872525 105.20863495474987 L 1030.7507822493078 105.14475250279335 L 1030.560088450828 105.08000478738643 L 1030.370836461034 105.01439828324668 L 1030.1830452049671 104.94793955096986 L 1029.9967334615965 104.8806352363738 L 1029.811919861941 104.8124920698339 L 1029.628622887207 104.74351686560999 L 1029.4468608669388 104.67371652116503 L 1029.2666519771872 104.6030980164753 L 1029.088014238691 104.53166841333243 L 1028.910965515075 104.4594348546372 L 1028.7355235110642 104.38640456368528 L 1028.5617057707127 104.31258484344491 L 1028.3895296756498 104.2379830758266 L 1028.2190124433416 104.16260672094495 L 1028.050171125369 104.08646331637262 L 1027.883022605723 104.00956047638662 L 1027.7175835991166 103.93190589120688 L 1027.5538706493126 103.85350732622719 L 1027.3919001274692 103.77437262123871 L 1027.2316882305038 103.694509689646 L 1027.0732509794727 103.61392651767568 L 1026.916604217969 103.53263116357778 L 1026.761763610538 103.45063175681996 L 1026.6087446411118 103.36793649727457 L 1026.4575626114595 103.28455365439865 L 1026.3082326396582 103.20049156640701 L 1026.1607696585806 103.1157586394384 L 1026.0151884144022 103.03036334671489 L 1025.8715034651257 102.94431422769459 L 1025.7297291791265 102.85761988721772 L 1025.589879733715 102.77028899464605 L 1025.4519691137193 102.68233028299609 L 1025.3160111100863 102.5937525480657 L 1025.1820193185033 102.50456464755453 L 1025.0500071380375 102.41477550017834 L 1024.9199877697972 102.32439408477703 L 1024.7919742156107 102.23342943941684 L 1024.6659792767268 102.14189066048647 L 1024.5420155525344 102.04978690178756 L 1024.4200954393027 101.95712737361922 L 1024.3002311289413 101.86392134185704 L 1024.1824346077813 101.77017812702654 L 1024.0667176553768 101.67590710337106 L 1023.9530918433267 101.58111769791444 L 1023.8415685341173 101.48581938951821 L 1023.7321588799866 101.39002170793381 L 1023.6248738218089 101.29373423284954 L 1023.5197240880007 101.19696659293271 L 1023.4167201934476 101.09972846486664 L 1023.3158724384533 101.00202957238312 L 1023.2171909077092 100.90387968528998 L 1023.1206854692863 100.80528861849413 L 1023.0263657736479 100.70626623102011 L 1022.9342412526848 100.60682242502413 L 1022.8443211187727 100.50696714480392 L 1022.7566143638497 100.40671037580431 L 1022.6711297585184 100.30606214361863 L 1022.5878758511682 100.20503251298624 L 1022.5068609671201 100.103631586786 L 1022.4280932077953 100.00186950502604 L 1022.3515804499041 99.89975644382972 L 1022.2773303446583 99.79730261441809 L 1022.2053503170067 99.69451826208869 L 1022.135647564892 99.59141366519111 L 1022.0682290585315 99.48799913409913 L 1022.0031015397195 99.38428501017967 L 1021.9402715211536 99.28028166475868 L 1021.8797452857834 99.17599949808405 L 1021.8215288861819 99.07144893828554 L 1021.7656281439407 98.96664044033201 L 1021.7120486490873 98.86158448498593 L 1021.6607957595264 98.75629157775525 L 1021.6118746005046 98.65077224784297 L 1021.5652900640968 98.54503704709414 L 1021.5210468087179 98.43909654894075 L 1021.4791492586564 98.33296134734431 L 1021.4396016036327 98.22664205573652 L 1021.402407798379 98.12014930595798 L 1021.3675715622452 98.01349374719489 L 1021.3350963788255 97.90668604491427 L 1021.3049854956115 97.79973687979731 L 1021.2772419236662 97.69265694667143 L 1021.2518684373239 97.58545695344071 L 1021.2288675739119 97.47814762001512 L 1021.2082416334974 97.37073967723859 L 1021.1899926786573 97.26324386581588 L 1021.1741225342719 97.15567093523856 L 1021.1606327873424 97.04803164271006 L 1021.1495247868321 96.94033675206991 L 1021.1407996435321 96.83259703271744 L 1021.1344582299491 96.7248232585348 L 1021.1305011802195 96.6170262068096 L 1021.1289288900448 96.50921665715717" stroke-miterlimit="10" stroke-width="2.7769845610000004" stroke-dasharray=""/></g><g><text fill="black" stroke="none" font-family="sans-serif" font-size="11pt" font-style="normal" font-weight="normal" text-decoration="normal" x="1013.6003505142226" y="124.80095321200001" text-anchor="start" dominant-baseline="alphabetic" xml:space="preserve">Database</text></g></g><g><path fill="white" stroke="black" paint-order="fill stroke markers" d=" M 337.14065625501297 183.607685092 L 353.47585955501296 183.607685092 L 353.47585955501296 1542.696599652 L 337.14065625501297 1542.696599652 L 337.14065625501297 183.607685092" stroke-miterlimit="10" stroke-width="1.3612669416666667" stroke-dasharray=""/><path fill="white" stroke="black" paint-order="fill stroke markers" d=" M 345.30825790501297 433.536295582 L 361.64346120501295 433.536295582 L 361.64346120501295 479.2748648219999 L 345.30825790501297 479.2748648219999 L 345.30825790501297 433.536295582" stroke-miterlimit="10" stroke-width="1.3612669416666667" stroke-dasharray=""/><path fill="white" stroke="black" paint-order="fill stroke markers" d=" M 575.118020061979 739.0045972919999 L 591.4532233619791 739.0045972919999 L 591.4532233619791 784.7431665319998 L 575.118020061979 784.7431665319998 L 575.118020061979 739.0045972919999" stroke-miterlimit="10" stroke-width="1.3612669416666667" stroke-dasharray=""/><path fill="white" stroke="black" paint-order="fill stroke markers" d=" M 720.3973245210923 1055.9075413119997 L 736.7325278210924 1055.9075413119997 L 736.7325278210924 1496.958030412 L 720.3973245210923 1496.958030412 L 720.3973245210923 1055.9075413119997" stroke-miterlimit="10" stroke-width="1.3612669416666667" stroke-dasharray=""/><path fill="white" stroke="black" paint-order="fill stroke markers" d=" M 870.1576546760064 1297.6685501519999 L 886.4928579760065 1297.6685501519999 L 886.4928579760065 1434.884257872 L 870.1576546760064 1434.884257872 L 870.1576546760064 1297.6685501519999" stroke-miterlimit="10" stroke-width="1.3612669416666667" stroke-dasharray=""/><path fill="white" stroke="black" paint-order="fill stroke markers" d=" M 1036.8106938105116 1343.407119392 L 1053.1458971105117 1343.407119392 L 1053.1458971105117 1389.145688632 L 1036.8106938105116 1389.145688632 L 1036.8106938105116 1343.407119392" stroke-miterlimit="10" stroke-width="1.3612669416666667" stroke-dasharray=""/><g><g><rect fill="white" stroke="none" x="125.46923250096351" y="162.371920802" width="176.04580940308594" height="21.23576429"/></g><text fill="black" stroke="none" font-family="sans-serif" font-size="11pt" font-style="normal" font-weight="normal" text-decoration="normal" x="127.91951299596352" y="177.07360377199998" text-anchor="start" dominant-baseline="alphabetic" xml:space="preserve">Go to Syllabus detail page</text></g><g><path fill="none" stroke="black" paint-order="fill stroke markers" d=" M 89.84361815 183.607685092 L 323.6913388713463 183.607685092" stroke-miterlimit="10" stroke-width="1.3612669416666667" stroke-dasharray=""/><g transform="translate(337.14065625501297,183.607685092) translate(-337.14065625501297,-183.607685092)"><path fill="black" stroke="none" paint-order="stroke fill markers" d=" M 323.5279868383463 176.80135038366666 L 337.14065625501297 183.607685092 L 323.5279868383463 190.41401980033334 Z"/></g></g><g><g><rect fill="white" stroke="none" x="127.92808717625648" y="208.110490042" width="171.1281000525" height="21.23576429"/></g><text fill="black" stroke="none" font-family="sans-serif" font-size="11pt" font-style="normal" font-weight="normal" text-decoration="normal" x="130.37836767125648" y="222.812173012" text-anchor="start" dominant-baseline="alphabetic" xml:space="preserve">Display Syllabus list page</text></g><g><path fill="none" stroke="black" paint-order="fill stroke markers" d=" M 337.14065625501297 229.346254332 L 103.29293553366666 229.346254332" stroke-miterlimit="10" stroke-width="1.3612669416666667" stroke-dasharray="6.53408132"/><g transform="translate(89.84361815,229.346254332) translate(-89.84361815,-229.346254332)"><path fill="black" stroke="none" paint-order="stroke fill markers" d=" M 103.45628756666666 222.53991962366666 L 89.84361815 229.346254332 L 103.45628756666666 236.15258904033334 Z"/></g></g><g><g><rect fill="white" stroke="none" x="117.33036989110023" y="253.849059282" width="192.3235346228125" height="21.23576429"/></g><text fill="black" stroke="none" font-family="sans-serif" font-size="11pt" font-style="normal" font-weight="normal" text-decoration="normal" x="119.78065038610023" y="268.550742252" text-anchor="start" dominant-baseline="alphabetic" xml:space="preserve">Click Update Syllabus button</text></g><g><path fill="none" stroke="black" paint-order="fill stroke markers" d=" M 89.84361815 275.084823572 L 323.6913388713463 275.084823572" stroke-miterlimit="10" stroke-width="1.3612669416666667" stroke-dasharray=""/><g transform="translate(337.14065625501297,275.084823572) translate(-337.14065625501297,-275.084823572)"><path fill="black" stroke="none" paint-order="stroke fill markers" d=" M 323.5279868383463 268.27848886366667 L 337.14065625501297 275.084823572 L 323.5279868383463 281.89115828033334 Z"/></g></g><g><g><rect fill="white" stroke="none" x="109.17360872166664" y="299.587628522" width="208.6370569616797" height="21.23576429"/></g><text fill="black" stroke="none" font-family="sans-serif" font-size="11pt" font-style="normal" font-weight="normal" text-decoration="normal" x="111.62388921666664" y="314.28931149199997" text-anchor="start" dominant-baseline="alphabetic" xml:space="preserve">Display Update Syllabus popup</text></g><g><path fill="none" stroke="black" paint-order="fill stroke markers" d=" M 337.14065625501297 320.823392812 L 103.29293553366666 320.823392812" stroke-miterlimit="10" stroke-width="1.3612669416666667" stroke-dasharray="6.53408132"/><g transform="translate(89.84361815,320.823392812) translate(-89.84361815,-320.823392812)"><path fill="black" stroke="none" paint-order="stroke fill markers" d=" M 103.45628756666666 314.01705810366667 L 89.84361815 320.823392812 L 103.45628756666666 327.62972752033335 Z"/></g></g><g><g><rect fill="white" stroke="none" x="118.9624423398307" y="345.326197762" width="189.05938972535156" height="21.23576429"/></g><text fill="black" stroke="none" font-family="sans-serif" font-size="11pt" font-style="normal" font-weight="normal" text-decoration="normal" x="121.4127228348307" y="360.02788073199997" text-anchor="start" dominant-baseline="alphabetic" xml:space="preserve">Type information of Syllabus</text></g><g><path fill="none" stroke="black" paint-order="fill stroke markers" d=" M 89.84361815 366.561962052 L 323.6913388713463 366.561962052" stroke-miterlimit="10" stroke-width="1.3612669416666667" stroke-dasharray=""/><g transform="translate(337.14065625501297,366.561962052) translate(-337.14065625501297,-366.561962052)"><path fill="black" stroke="none" paint-order="stroke fill markers" d=" M 323.5279868383463 359.7556273436667 L 337.14065625501297 366.561962052 L 323.5279868383463 373.36829676033335 Z"/></g></g><g><g><rect fill="white" stroke="none" x="380.9734517766796" y="391.064767002" width="125.25842536988281" height="21.23576429"/></g><text fill="black" stroke="none" font-family="sans-serif" font-size="11pt" font-style="normal" font-weight="normal" text-decoration="normal" x="383.4237322716796" y="405.766449972" text-anchor="start" dominant-baseline="alphabetic" xml:space="preserve">Validate input data</text></g><g><path fill="none" stroke="black" paint-order="fill stroke markers" d=" M 353.47585955501296 412.30053129199996 L 426.98427440501297 412.30053129199996 L 426.98427440501297 433.536295582 L 375.0927785886796 433.536295582" stroke-miterlimit="10" stroke-width="1.3612669416666667" stroke-dasharray=""/><g transform="translate(361.64346120501295,433.536295582) translate(-361.64346120501295,-433.536295582)"><path fill="black" stroke="none" paint-order="stroke fill markers" d=" M 375.25613062167963 426.72996087366664 L 361.64346120501295 433.536295582 L 375.25613062167963 440.3426302903333 Z"/></g></g><g><g><rect fill="white" stroke="none" x="380.9734517766796" y="458.03910053199996" width="95.90982307496094" height="21.23576429"/></g><text fill="black" stroke="none" font-family="sans-serif" font-size="11pt" font-style="normal" font-weight="normal" text-decoration="normal" x="383.4237322716796" y="472.74078350199994" text-anchor="start" dominant-baseline="alphabetic" xml:space="preserve">Validate value</text></g><g><path fill="none" stroke="black" paint-order="fill stroke markers" d=" M 361.64346120501295 479.2748648219999 L 426.98427440501297 479.2748648219999 L 426.98427440501297 500.51062911199995 L 366.9251769386796 500.51062911199995" stroke-miterlimit="10" stroke-width="1.3612669416666667" stroke-dasharray="6.53408132"/><g transform="translate(353.47585955501296,500.51062911199995) translate(-353.47585955501296,-500.51062911199995)"><path fill="black" stroke="none" paint-order="stroke fill markers" d=" M 367.08852897167964 493.7042944036666 L 353.47585955501296 500.51062911199995 L 367.08852897167964 507.3169638203333 Z"/></g></g><g><g><rect fill="white" stroke="none" x="153.31818574803384" y="569.1184829719998" width="120.34790290894531" height="21.23576429"/></g><text fill="black" stroke="none" font-family="sans-serif" font-size="11pt" font-style="normal" font-weight="normal" text-decoration="normal" x="155.76846624303383" y="583.8201659419998" text-anchor="start" dominant-baseline="alphabetic" xml:space="preserve">Validate Message</text></g><g><path fill="none" stroke="black" paint-order="fill stroke markers" d=" M 337.14065625501297 590.3542472619998 L 103.29293553366666 590.3542472619998" stroke-miterlimit="10" stroke-width="1.3612669416666667" stroke-dasharray="6.53408132"/><g transform="translate(89.84361815,590.3542472619998) translate(-89.84361815,-590.3542472619998)"><path fill="black" stroke="none" paint-order="stroke fill markers" d=" M 103.45628756666666 583.5479125536665 L 89.84361815 590.3542472619998 L 103.45628756666666 597.1605819703332 Z"/></g></g><g><g><rect fill="white" stroke="none" x="161.33178895848306" y="639.3598571619998" width="104.32069648804688" height="21.23576429"/></g><text fill="black" stroke="none" font-family="sans-serif" font-size="11pt" font-style="normal" font-weight="normal" text-decoration="normal" x="163.78206945348305" y="654.0615401319998" text-anchor="start" dominant-baseline="alphabetic" xml:space="preserve">Search Subject</text></g><g><path fill="none" stroke="black" paint-order="fill stroke markers" d=" M 89.84361815 660.5956214519998 L 323.6913388713463 660.5956214519998" stroke-miterlimit="10" stroke-width="1.3612669416666667" stroke-dasharray=""/><g transform="translate(337.14065625501297,660.5956214519998) translate(-337.14065625501297,-660.5956214519998)"><path fill="black" stroke="none" paint-order="stroke fill markers" d=" M 323.5279868383463 653.7892867436665 L 337.14065625501297 660.5956214519998 L 323.5279868383463 667.4019561603332 Z"/></g></g><g><g><rect fill="white" stroke="none" x="376.8896509516795" y="685.0984264019999" width="35.03657783570313" height="21.23576429"/></g><g><rect fill="white" stroke="none" x="376.8896509516795" y="701.4336297019998" width="174.81457771363281" height="21.23576429"/></g><g><rect fill="white" stroke="none" x="376.8896509516795" y="717.7688330019998" width="130.8132044226172" height="21.23576429"/></g><text fill="black" stroke="none" font-family="sans-serif" font-size="11pt" font-style="normal" font-weight="normal" text-decoration="normal" x="379.33993144667954" y="699.8001093719998" text-anchor="start" dominant-baseline="alphabetic" xml:space="preserve">GET</text><text fill="black" stroke="none" font-family="sans-serif" font-size="11pt" font-style="normal" font-weight="normal" text-decoration="normal" x="379.33993144667954" y="716.1353126719998" text-anchor="start" dominant-baseline="alphabetic" xml:space="preserve">/api/search?entity=subject</text><text fill="black" stroke="none" font-family="sans-serif" font-size="11pt" font-style="normal" font-weight="normal" text-decoration="normal" x="379.33993144667954" y="732.4705159719998" text-anchor="start" dominant-baseline="alphabetic" xml:space="preserve">+ {paramToSearch}</text></g><g><path fill="none" stroke="black" paint-order="fill stroke markers" d=" M 353.47585955501296 739.0045972919999 L 561.6687026783123 739.0045972919999" stroke-miterlimit="10" stroke-width="1.3612669416666667" stroke-dasharray=""/><g transform="translate(575.118020061979,739.0045972919999) translate(-575.118020061979,-739.0045972919999)"><path fill="black" stroke="none" paint-order="stroke fill markers" d=" M 561.5053506453123 732.1982625836665 L 575.118020061979 739.0045972919999 L 561.5053506453123 745.8109320003332 Z"/></g></g><g><g><rect fill="white" stroke="none" x="427.6269251216014" y="763.5074022419998" width="73.34002937378906" height="21.23576429"/></g><text fill="black" stroke="none" font-family="sans-serif" font-size="11pt" font-style="normal" font-weight="normal" text-decoration="normal" x="430.0772056166014" y="778.2090852119998" text-anchor="start" dominant-baseline="alphabetic" xml:space="preserve">subject list</text></g><g><path fill="none" stroke="black" paint-order="fill stroke markers" d=" M 575.118020061979 784.7431665319998 L 366.9251769386796 784.7431665319998" stroke-miterlimit="10" stroke-width="1.3612669416666667" stroke-dasharray="6.53408132"/><g transform="translate(353.47585955501296,784.7431665319998) translate(-353.47585955501296,-784.7431665319998)"><path fill="black" stroke="none" paint-order="stroke fill markers" d=" M 367.08852897167964 777.9368318236665 L 353.47585955501296 784.7431665319998 L 367.08852897167964 791.5495012403331 Z"/></g></g><g><g><rect fill="white" stroke="none" x="174.37400239842447" y="853.3510203919998" width="78.23626960816406" height="21.23576429"/></g><text fill="black" stroke="none" font-family="sans-serif" font-size="11pt" font-style="normal" font-weight="normal" text-decoration="normal" x="176.82428289342445" y="868.0527033619998" text-anchor="start" dominant-baseline="alphabetic" xml:space="preserve">No Options</text></g><g><path fill="none" stroke="black" paint-order="fill stroke markers" d=" M 337.14065625501297 874.5867846819998 L 103.29293553366666 874.5867846819998" stroke-miterlimit="10" stroke-width="1.3612669416666667" stroke-dasharray="6.53408132"/><g transform="translate(89.84361815,874.5867846819998) translate(-89.84361815,-874.5867846819998)"><path fill="black" stroke="none" paint-order="stroke fill markers" d=" M 103.45628756666666 867.7804499736665 L 89.84361815 874.5867846819998 L 103.45628756666666 881.3931193903331 Z"/></g></g><g><g><rect fill="white" stroke="none" x="149.92521089451822" y="943.1946385419997" width="127.13385261597656" height="21.23576429"/></g><text fill="black" stroke="none" font-family="sans-serif" font-size="11pt" font-style="normal" font-weight="normal" text-decoration="normal" x="152.3754913895182" y="957.8963215119996" text-anchor="start" dominant-baseline="alphabetic" xml:space="preserve">Subject options list</text></g><g><path fill="none" stroke="black" paint-order="fill stroke markers" d=" M 337.14065625501297 964.4304028319997 L 103.29293553366666 964.4304028319997" stroke-miterlimit="10" stroke-width="1.3612669416666667" stroke-dasharray="6.53408132"/><g transform="translate(89.84361815,964.4304028319997) translate(-89.84361815,-964.4304028319997)"><path fill="black" stroke="none" paint-order="stroke fill markers" d=" M 103.45628756666666 957.6240681236663 L 89.84361815 964.4304028319997 L 103.45628756666666 971.236737540333 Z"/></g></g><g><g><rect fill="white" stroke="none" x="114.88585847752601" y="988.9332077819996" width="197.21255744996094" height="21.23576429"/></g><text fill="black" stroke="none" font-family="sans-serif" font-size="11pt" font-style="normal" font-weight="normal" text-decoration="normal" x="117.33613897252602" y="1003.6348907519996" text-anchor="start" dominant-baseline="alphabetic" xml:space="preserve">Select Subject and click Save</text></g><g><path fill="none" stroke="black" paint-order="fill stroke markers" d=" M 89.84361815 1010.1689720719996 L 323.6913388713463 1010.1689720719996" stroke-miterlimit="10" stroke-width="1.3612669416666667" stroke-dasharray=""/><g transform="translate(337.14065625501297,1010.1689720719996) translate(-337.14065625501297,-1010.1689720719996)"><path fill="black" stroke="none" paint-order="stroke fill markers" d=" M 323.5279868383463 1003.3626373636663 L 337.14065625501297 1010.1689720719996 L 323.5279868383463 1016.975306780333 Z"/></g></g><g><g><rect fill="white" stroke="none" x="476.2293535352401" y="1034.6717770219998" width="121.414477005625" height="21.23576429"/></g><text fill="black" stroke="none" font-family="sans-serif" font-size="11pt" font-style="normal" font-weight="normal" text-decoration="normal" x="478.6796340302401" y="1049.3734599919999" text-anchor="start" dominant-baseline="alphabetic" xml:space="preserve">PUT: /api/syllabus</text></g><g><path fill="none" stroke="black" paint-order="fill stroke markers" d=" M 353.47585955501296 1055.9075413119997 L 706.9480071374256 1055.9075413119997" stroke-miterlimit="10" stroke-width="1.3612669416666667" stroke-dasharray=""/><g transform="translate(720.3973245210923,1055.9075413119997) translate(-720.3973245210923,-1055.9075413119997)"><path fill="black" stroke="none" paint-order="stroke fill markers" d=" M 706.7846551044256 1049.1012066036665 L 720.3973245210923 1055.9075413119997 L 706.7846551044256 1062.713876020333 Z"/></g></g><g><g><rect fill="white" stroke="none" x="451.784140217369" y="1124.5153951719997" width="149.11673225464844" height="21.23576429"/></g><g><rect fill="white" stroke="none" x="451.784140217369" y="1140.8505984719998" width="170.3049036413672" height="21.23576429"/></g><text fill="red" stroke="none" font-family="sans-serif" font-size="11pt" font-style="normal" font-weight="normal" text-decoration="normal" x="454.234420712369" y="1139.2170781419998" text-anchor="start" dominant-baseline="alphabetic" xml:space="preserve">400 BAD_REQUEST: </text><text fill="red" stroke="none" font-family="sans-serif" font-size="11pt" font-style="normal" font-weight="normal" text-decoration="normal" x="454.234420712369" y="1155.5522814419999" text-anchor="start" dominant-baseline="alphabetic" xml:space="preserve">Missing required property</text></g><g><path fill="none" stroke="black" paint-order="fill stroke markers" d=" M 720.3973245210923 1162.0863627619997 L 366.9251769386796 1162.0863627619997" stroke-miterlimit="10" stroke-width="1.3612669416666667" stroke-dasharray="6.53408132"/><g transform="translate(353.47585955501296,1162.0863627619997) translate(-353.47585955501296,-1162.0863627619997)"><path fill="black" stroke="none" paint-order="stroke fill markers" d=" M 367.08852897167964 1155.2800280536665 L 353.47585955501296 1162.0863627619997 L 367.08852897167964 1168.892697470333 Z"/></g></g><g><g><rect fill="white" stroke="none" x="145.03974336522134" y="1186.5891677119998" width="136.90478767457031" height="21.23576429"/></g><text fill="black" stroke="none" font-family="sans-serif" font-size="11pt" font-style="normal" font-weight="normal" text-decoration="normal" x="147.49002386022133" y="1201.290850682" text-anchor="start" dominant-baseline="alphabetic" xml:space="preserve">Message is required</text></g><g><path fill="none" stroke="black" paint-order="fill stroke markers" d=" M 337.14065625501297 1207.8249320019997 L 103.29293553366666 1207.8249320019997" stroke-miterlimit="10" stroke-width="1.3612669416666667" stroke-dasharray="6.53408132"/><g transform="translate(89.84361815,1207.8249320019997) translate(-89.84361815,-1207.8249320019997)"><path fill="black" stroke="none" paint-order="stroke fill markers" d=" M 103.45628756666666 1201.0185972936665 L 89.84361815 1207.8249320019997 L 103.45628756666666 1214.631266710333 Z"/></g></g><g><g><rect fill="white" stroke="none" x="780.6297594840181" y="1276.432785862" width="45.6306635290625" height="21.23576429"/></g><text fill="black" stroke="none" font-family="sans-serif" font-size="11pt" font-style="normal" font-weight="normal" text-decoration="normal" x="783.0800399790181" y="1291.134468832" text-anchor="start" dominant-baseline="alphabetic" xml:space="preserve">save()</text></g><g><path fill="none" stroke="black" paint-order="fill stroke markers" d=" M 736.7325278210924 1297.6685501519999 L 856.7083372923397 1297.6685501519999" stroke-miterlimit="10" stroke-width="1.3612669416666667" stroke-dasharray=""/><g transform="translate(870.1576546760064,1297.6685501519999) translate(-870.1576546760064,-1297.6685501519999)"><path fill="black" stroke="none" paint-order="stroke fill markers" d=" M 856.5449852593397 1290.8622154436666 L 870.1576546760064 1297.6685501519999 L 856.5449852593397 1304.474884860333 Z"/></g></g><g><g><rect fill="white" stroke="none" x="905.8228485476731" y="1322.171355102" width="111.65785469117188" height="21.23576429"/></g><text fill="black" stroke="none" font-family="sans-serif" font-size="11pt" font-style="normal" font-weight="normal" text-decoration="normal" x="908.2731290426731" y="1336.873038072" text-anchor="start" dominant-baseline="alphabetic" xml:space="preserve">Update Syllabus</text></g><g><path fill="none" stroke="black" paint-order="fill stroke markers" d=" M 886.4928579760065 1343.407119392 L 1023.3613764268449 1343.407119392" stroke-miterlimit="10" stroke-width="1.3612669416666667" stroke-dasharray=""/><g transform="translate(1036.8106938105116,1343.407119392) translate(-1036.8106938105116,-1343.407119392)"><path fill="black" stroke="none" paint-order="stroke fill markers" d=" M 1023.1980243938449 1336.6007846836667 L 1036.8106938105116 1343.407119392 L 1023.1980243938449 1350.2134541003331 Z"/></g></g><g><g><rect fill="white" stroke="none" x="915.1929275882004" y="1367.909924342" width="92.91769661011719" height="21.23576429"/></g><text fill="black" stroke="none" font-family="sans-serif" font-size="11pt" font-style="normal" font-weight="normal" text-decoration="normal" x="917.6432080832004" y="1382.6116073120002" text-anchor="start" dominant-baseline="alphabetic" xml:space="preserve">Syllabus data</text></g><g><path fill="none" stroke="black" paint-order="fill stroke markers" d=" M 1036.8106938105116 1389.145688632 L 899.9421753596731 1389.145688632" stroke-miterlimit="10" stroke-width="1.3612669416666667" stroke-dasharray="6.53408132"/><g transform="translate(886.4928579760065,1389.145688632) translate(-886.4928579760065,-1389.145688632)"><path fill="black" stroke="none" paint-order="stroke fill markers" d=" M 900.1055273926731 1382.3393539236667 L 886.4928579760065 1389.145688632 L 900.1055273926731 1395.9520233403332 Z"/></g></g><g><g><rect fill="white" stroke="none" x="756.9862429434908" y="1413.6484935820001" width="92.91769661011719" height="21.23576429"/></g><text fill="black" stroke="none" font-family="sans-serif" font-size="11pt" font-style="normal" font-weight="normal" text-decoration="normal" x="759.4365234384908" y="1428.3501765520002" text-anchor="start" dominant-baseline="alphabetic" xml:space="preserve">Syllabus data</text></g><g><path fill="none" stroke="black" paint-order="fill stroke markers" d=" M 870.1576546760064 1434.884257872 L 750.181845204759 1434.884257872" stroke-miterlimit="10" stroke-width="1.3612669416666667" stroke-dasharray="6.53408132"/><g transform="translate(736.7325278210924,1434.884257872) translate(-736.7325278210924,-1434.884257872)"><path fill="black" stroke="none" paint-order="stroke fill markers" d=" M 750.3451972377591 1428.0779231636668 L 736.7325278210924 1434.884257872 L 750.3451972377591 1441.6905925803333 Z"/></g></g><g><g><rect fill="white" stroke="none" x="435.4670244336776" y="1459.387062822" width="54.61422981324219" height="21.23576429"/></g><g><rect fill="white" stroke="none" x="435.4670244336776" y="1475.722266122" width="202.93913520875" height="21.23576429"/></g><text fill="green" stroke="none" font-family="sans-serif" font-size="11pt" font-style="normal" font-weight="normal" text-decoration="normal" x="437.9173049286776" y="1474.088745792" text-anchor="start" dominant-baseline="alphabetic" xml:space="preserve">200 OK</text><text fill="green" stroke="none" font-family="sans-serif" font-size="11pt" font-style="normal" font-weight="normal" text-decoration="normal" x="437.9173049286776" y="1490.4239490920002" text-anchor="start" dominant-baseline="alphabetic" xml:space="preserve">Response body: Syllabus data</text></g><g><path fill="none" stroke="black" paint-order="fill stroke markers" d=" M 720.3973245210923 1496.958030412 L 366.9251769386796 1496.958030412" stroke-miterlimit="10" stroke-width="1.3612669416666667" stroke-dasharray="6.53408132"/><g transform="translate(353.47585955501296,1496.958030412) translate(-353.47585955501296,-1496.958030412)"><path fill="black" stroke="none" paint-order="stroke fill markers" d=" M 367.08852897167964 1490.1516957036667 L 353.47585955501296 1496.958030412 L 367.08852897167964 1503.7643651203332 Z"/></g></g><g><g><rect fill="white" stroke="none" x="119.36330598729164" y="1521.4608353620001" width="188.2576624304297" height="21.23576429"/></g><text fill="black" stroke="none" font-family="sans-serif" font-size="11pt" font-style="normal" font-weight="normal" text-decoration="normal" x="121.81358648229164" y="1536.1625183320002" text-anchor="start" dominant-baseline="alphabetic" xml:space="preserve">Display Syllabus detail page</text></g><g><path fill="none" stroke="black" paint-order="fill stroke markers" d=" M 337.14065625501297 1542.696599652 L 103.29293553366666 1542.696599652" stroke-miterlimit="10" stroke-width="1.3612669416666667" stroke-dasharray="6.53408132"/><g transform="translate(89.84361815,1542.696599652) translate(-89.84361815,-1542.696599652)"><path fill="black" stroke="none" paint-order="stroke fill markers" d=" M 103.45628756666666 1535.8902649436668 L 89.84361815 1542.696599652 L 103.45628756666666 1549.5029343603333 Z"/></g></g><g><g/><path fill="none" stroke="black" paint-order="fill stroke markers" d=" M 32.6704066 525.0134340619999 L 402.481469455013 525.0134340619999 L 402.481469455013 614.8570522119999 L 32.6704066 614.8570522119999 L 32.6704066 525.0134340619999 Z" stroke-miterlimit="10" stroke-width="2.3336004714285714" stroke-dasharray=""/><path fill="white" stroke="black" paint-order="fill stroke markers" d=" M 32.6704066 525.0134340619999 L 32.6704066 544.6156780219999 L 79.02961019707031 544.6156780219999 L 88.83073217707032 534.8145560419998 L 88.83073217707032 525.0134340619999 L 32.6704066 525.0134340619999" stroke-miterlimit="10" stroke-width="2.3336004714285714" stroke-dasharray=""/><text fill="black" stroke="none" font-family="sans-serif" font-size="8.8pt" font-style="normal" font-weight="bold" text-decoration="normal" x="49.005609899999996" y="538.0815967019998" text-anchor="start" dominant-baseline="alphabetic" xml:space="preserve">alt</text><g><rect fill="white" stroke="none" x="102.71565498207032" y="526.3202503259998" width="151.5138880163672" height="16.988611432000003"/></g><text fill="black" stroke="none" font-family="sans-serif" font-size="8.8pt" font-style="normal" font-weight="bold" text-decoration="normal" x="105.16593547707032" y="538.0815967019998" text-anchor="start" dominant-baseline="alphabetic" xml:space="preserve">[If the input data is wrong]</text></g><g><g/><path fill="none" stroke="black" paint-order="fill stroke markers" d=" M 16.335203300000003 809.2459714819998 L 1118.4867103105116 809.2459714819998 L 1118.4867103105116 1591.7022095519999 L 16.335203300000003 1591.7022095519999 L 16.335203300000003 809.2459714819998 Z" stroke-miterlimit="10" stroke-width="2.3336004714285714" stroke-dasharray=""/><path fill="white" stroke="black" paint-order="fill stroke markers" d=" M 16.335203300000003 809.2459714819998 L 16.335203300000003 828.8482154419999 L 62.694406897070316 828.8482154419999 L 72.49552887707031 819.0470934619998 L 72.49552887707031 809.2459714819998 L 16.335203300000003 809.2459714819998" stroke-miterlimit="10" stroke-width="2.3336004714285714" stroke-dasharray=""/><text fill="black" stroke="none" font-family="sans-serif" font-size="8.8pt" font-style="normal" font-weight="bold" text-decoration="normal" x="32.67040660000001" y="822.3141341219998" text-anchor="start" dominant-baseline="alphabetic" xml:space="preserve">alt</text><g><rect fill="white" stroke="none" x="86.38045168207032" y="810.5527877459998" width="247.32977546753906" height="16.988611432000003"/></g><text fill="black" stroke="none" font-family="sans-serif" font-size="8.8pt" font-style="normal" font-weight="bold" text-decoration="normal" x="88.83073217707032" y="822.3141341219998" text-anchor="start" dominant-baseline="alphabetic" xml:space="preserve">[If there is no subject match with condition]</text><g><path fill="none" stroke="black" paint-order="fill stroke markers" d=" M 16.335203300000003 899.0895896319997 L 1118.4867103105116 899.0895896319997" stroke-miterlimit="10" stroke-width="2.3336004714285714" stroke-dasharray="4.083800825"/></g><g/><g><rect fill="white" stroke="none" x="86.38045168207032" y="900.3964058959997" width="36.84300483765625" height="16.988611432000003"/></g><text fill="black" stroke="none" font-family="sans-serif" font-size="8.8pt" font-style="normal" font-weight="bold" text-decoration="normal" x="88.83073217707032" y="912.1577522719997" text-anchor="start" dominant-baseline="alphabetic" xml:space="preserve">[Else]</text></g><g/><g><g/><path fill="none" stroke="black" paint-order="fill stroke markers" d=" M 32.6704066 1080.4103462619998 L 1102.1515070105115 1080.4103462619998 L 1102.1515070105115 1567.199404602 L 32.6704066 1567.199404602 L 32.6704066 1080.4103462619998 Z" stroke-miterlimit="10" stroke-width="2.3336004714285714" stroke-dasharray=""/><path fill="white" stroke="black" paint-order="fill stroke markers" d=" M 32.6704066 1080.4103462619998 L 32.6704066 1100.0125902219997 L 79.02961019707031 1100.0125902219997 L 88.83073217707032 1090.211468242 L 88.83073217707032 1080.4103462619998 L 32.6704066 1080.4103462619998" stroke-miterlimit="10" stroke-width="2.3336004714285714" stroke-dasharray=""/><text fill="black" stroke="none" font-family="sans-serif" font-size="8.8pt" font-style="normal" font-weight="bold" text-decoration="normal" x="49.005609899999996" y="1093.4785089019997" text-anchor="start" dominant-baseline="alphabetic" xml:space="preserve">alt</text><g><rect fill="white" stroke="none" x="102.71565498207032" y="1081.7171625259998" width="244.7581049353125" height="16.988611432000003"/></g><text fill="black" stroke="none" font-family="sans-serif" font-size="8.8pt" font-style="normal" font-weight="bold" text-decoration="normal" x="105.16593547707032" y="1093.4785089019997" text-anchor="start" dominant-baseline="alphabetic" xml:space="preserve">[If there is required field do not have value]</text><g><path fill="none" stroke="black" paint-order="fill stroke markers" d=" M 32.6704066 1232.327736952 L 1102.1515070105115 1232.327736952" stroke-miterlimit="10" stroke-width="2.3336004714285714" stroke-dasharray="4.083800825"/></g><g/></g><g/></g></g></svg>