<svg version="1.1" xmlns="http://www.w3.org/2000/svg" xmlns:xlink="http://www.w3.org/1999/xlink" width="1268" height="1998"><desc>title%20Create%20Workspace%0A%0Aactor%20%23green%3A0.5%20%22System%20Admin%22%20as%20w%0Aboundary%20%22Workspace%20list%20page%22%20as%20f%0Acontrol%20%22Workspace%20Controller%22%20as%20gc%0Aparticipant%20%22Workspace%20Service%22%20as%20gs%0Aparticipant%20%22App%20Communicate%20Service%22%20as%20acs%0Adatabase%20%23blue%3A1%20%22Database%22%20as%20db%0A%0Aw-%3Ef%3AGo%20to%20Workspace%20list%20page%0Aactivate%20f%0Aw-%3Ef%3AClick%20Create%20Workspace%20button%0Aw%3C--f%3ADisplay%20Create%20Workspace%20popup%0Aw-%3Ef%3AType%20information%20of%20Workspace%0Af-%3Ef%3AValidate%20input%20data%0Aactivate%20f%0Af--%3Ef%3A%20Validate%20value%0Adeactivate%20f%0Aalt%20If%20the%20input%20data%20is%20wrong%0Aw%3C--f%3AValidate%20Message%0Aend%0Aw-%3Ef%3A%20Click%20button%20Save%0Af-%3Egc%3APOST%3A%20%2Fapi%2Fworkspace%0Aactivate%20gc%0Aalt%20If%20there%20is%20required%20field%20do%20not%20have%20value%0Af%3C--gc%3A%3Ccolor%3A%23red%3E400%20BAD_REQUEST%3A%20%5CnMissing%20required%20property%3C%2Fcolor%3E%0Aw%3C--f%3AMessage%20is%20required%0Aelse%20Else%0A%0Agc-%3Egs%3AisDomainExist(domain)%0Aactivate%20gs%0A%0Ags-%3Edb%3AisDomainExist(domain)%0Aactivate%20db%0Ags%3C--db%3ABoolean%20value%0Adeactivate%20db%0Agc%3C--gs%3ABoolean%20value%0Adeactivate%20gs%0Aalt%20If%20workspace's%20domain%20exist%0Af%3C--gc%3A%3Ccolor%3A%23red%3E400%20BAD_REQUEST%3A%20%5Cn%7Bdomain%7D%20is%20used%3C%2Fcolor%3E%0Aw%3C--f%3A%7Bdomain%7D%20is%20used%0Aelse%20Else%0Agc-%3Egs%3Asave()%0Aactivate%20gs%0Ags-%3Edb%3ACreate%20Workspace%0Aactivate%20db%0Ags%3C--db%3AWorkspace%20data%0Adeactivate%20db%0Agc%3C--gs%3ANew%20Entity%20data%0Adeactivate%20gs%0A%0Agc-%3Eacs%3AsaveUser()%0Aactivate%20acs%0Aacs-%3Edb%3Asave()%0Aactivate%20db%0Aacs%3C--db%3AUser%20data%0Adeactivate%20db%0Agc%3C--acs%3AUser%20data%0Adeactivate%20acs%0A%0Agc-%3Eacs%3AsaveWorkspace()%0Aactivate%20acs%0Aacs-%3Edb%3Asave()%0Aactivate%20db%0Aacs%3C--db%3AWorkspace%20data%0Adeactivate%20db%0Agc%3C--acs%3AWorkspace%20data%0Adeactivate%20acs%0A%0Af%3C--gc%3A%3Ccolor%3A%23green%3E201%20OK%3A%20CREATED%3C%2Fcolor%3E%0Adeactivate%20gc%0Aw%3C--f%3A%20Display%20Entity%20list%20table%20%5Cnwith%20new%20Workspace%0Adeactivate%20f%0Aend%0Aend</desc><defs/><g><g/><g/><g/><g/><g/><g/><g/><g/><g/><g/><g/><g/><g/><g/><g/><g/><g/><g/><g/><g/><g/><g/><g/><g/><g/><g/><g/><g/><g/><g/><g/><g/><g/><g/><g/><g/><g/><g/><g/><g/><g><rect fill="white" stroke="none" x="0" y="0" width="1268" height="1998"/></g><g><text fill="black" stroke="none" font-family="sans-serif" font-size="16.5pt" font-style="normal" font-weight="normal" text-decoration="normal" x="543.5575299176256" y="24.50280495" text-anchor="start" dominant-baseline="alphabetic" xml:space="preserve">Create Workspace</text></g><g/><g><path fill="none" stroke="black" paint-order="fill stroke markers" d=" M 89.84361815 129.701514202 L 89.84361815 1998.4487717220004" stroke-miterlimit="10" stroke-width="1.3612669416666667" stroke-dasharray="12.565541,5.445067766666667"/><path fill="none" stroke="black" paint-order="fill stroke markers" d=" M 359.6819151315755 129.701514202 L 359.6819151315755 1998.4487717220004" stroke-miterlimit="10" stroke-width="1.3612669416666667" stroke-dasharray="12.565541,5.445067766666667"/><path fill="none" stroke="black" paint-order="fill stroke markers" d=" M 593.149604866276 129.701514202 L 593.149604866276 1998.4487717220004" stroke-miterlimit="10" stroke-width="1.3612669416666667" stroke-dasharray="12.565541,5.445067766666667"/><path fill="none" stroke="black" paint-order="fill stroke markers" d=" M 803.761094318164 129.701514202 L 803.761094318164 1998.4487717220004" stroke-miterlimit="10" stroke-width="1.3612669416666667" stroke-dasharray="12.565541,5.445067766666667"/><path fill="none" stroke="black" paint-order="fill stroke markers" d=" M 1005.325297360707 129.701514202 L 1005.325297360707 1998.4487717220004" stroke-miterlimit="10" stroke-width="1.3612669416666667" stroke-dasharray="12.565541,5.445067766666667"/><path fill="none" stroke="black" paint-order="fill stroke markers" d=" M 1170.8831369102513 129.701514202 L 1170.8831369102513 1998.4487717220004" stroke-miterlimit="10" stroke-width="1.3612669416666667" stroke-dasharray="12.565541,5.445067766666667"/></g><g><g><path fill="white" stroke="green" paint-order="fill stroke markers" d=" M 99.154684031 60.60360424300001 A 9.311065881 9.311065881 0 1 1 99.15467937546744 60.594293178670846 M 89.84361815 69.91467012400001 L 89.84361815 89.84361815000001 M 78.08227177399999 77.102159576 L 101.604964526 77.102159576 M 89.84361815 89.84361815000001 L 78.08227177399999 108.465749912 M 89.84361815 89.84361815000001 L 101.604964526 108.465749912" stroke-miterlimit="10" stroke-width="1.3884922805000002" stroke-dasharray=""/></g><g><text fill="black" stroke="none" font-family="sans-serif" font-size="11pt" font-style="normal" font-weight="normal" text-decoration="normal" x="42.592382188085935" y="124.80095321200001" text-anchor="start" dominant-baseline="alphabetic" xml:space="preserve">System Admin</text></g><g><path fill="white" stroke="black" paint-order="fill stroke markers" d=" M 392.1072936820755 82.819480731 A 24.2577769005 24.2577769005 0 1 1 392.1072815531881 82.79522295814245 M 328.6450288615755 57.17321154999999 L 328.6450288615755 108.465749912 M 327.2565365810755 82.819480731 L 343.5917398810755 82.819480731" stroke-miterlimit="10" stroke-width="2.7769845610000004" stroke-dasharray=""/></g><g><text fill="black" stroke="none" font-family="sans-serif" font-size="11pt" font-style="normal" font-weight="normal" text-decoration="normal" x="293.8158033762044" y="124.80095321200001" text-anchor="start" dominant-baseline="alphabetic" xml:space="preserve">Workspace list page</text></g><g><path fill="white" stroke="black" paint-order="fill stroke markers" d=" M 617.407381766776 82.819480731 A 24.2577769005 24.2577769005 0 1 1 617.4073696378886 82.79522295814245 M 589.882564206276 58.561703830499994 L 599.683686186276 50.39410218049999 M 589.882564206276 58.561703830499994 L 599.683686186276 66.72930548049999" stroke-miterlimit="10" stroke-width="2.7769845610000004" stroke-dasharray=""/></g><g><text fill="black" stroke="none" font-family="sans-serif" font-size="11pt" font-style="normal" font-weight="normal" text-decoration="normal" x="522.8096237871745" y="124.80095321200001" text-anchor="start" dominant-baseline="alphabetic" xml:space="preserve">Workspace Controller</text></g><path fill="none" stroke="none"/><g><path fill="white" stroke="black" paint-order="fill stroke markers" d=" M 723.0309900462578 85.75981732500001 L 884.4911985900703 85.75981732500001 L 884.4911985900703 129.701514202 L 723.0309900462578 129.701514202 L 723.0309900462578 85.75981732500001 Z" stroke-miterlimit="10" stroke-width="2.613632528" stroke-dasharray=""/></g><g><text fill="black" stroke="none" font-family="sans-serif" font-size="11pt" font-style="normal" font-weight="normal" text-decoration="normal" x="740.7546856267578" y="113.36631090200002" text-anchor="start" dominant-baseline="alphabetic" xml:space="preserve">Workspace Service</text></g><path fill="none" stroke="none"/><g><path fill="white" stroke="black" paint-order="fill stroke markers" d=" M 900.8264018900703 85.75981732500001 L 1109.8241928313437 85.75981732500001 L 1109.8241928313437 129.701514202 L 900.8264018900703 129.701514202 L 900.8264018900703 85.75981732500001 Z" stroke-miterlimit="10" stroke-width="2.613632528" stroke-dasharray=""/></g><g><text fill="black" stroke="none" font-family="sans-serif" font-size="11pt" font-style="normal" font-weight="normal" text-decoration="normal" x="918.5500974705703" y="113.36631090200002" text-anchor="start" dominant-baseline="alphabetic" xml:space="preserve">App Communicate Service</text></g><g><path fill="white" stroke="blue" paint-order="fill stroke markers" d=" M 1147.0337400922513 97.684515734 L 1147.0337400922513 63.380588804000006 L 1194.7325337282514 63.380588804000006 L 1194.7325337282514 97.684515734" stroke-miterlimit="10" stroke-width="2.7769845610000004" stroke-dasharray=""/><path fill="white" stroke="blue" paint-order="fill stroke markers" d=" M 1194.7325337282514 62.1881189631 L 1194.7313412683477 62.29592950801663 L 1194.7277640078817 62.403729271968594 L 1194.7218023045762 62.51150747506936 L 1194.713456754597 62.619253339588404 L 1194.7027281924918 62.72695609102909 L 1194.689617691108 62.834604959206004 L 1194.6741265614846 62.94218917932205 L 1194.656256352722 63.04969799304486 L 1194.636008851826 63.15712064958265 L 1194.6133860835298 63.2644464067593 L 1194.5883903100914 63.371664532088516 L 1194.5610240310675 63.47876430384712 L 1194.5312899830628 63.58573501214718 L 1194.4991911394577 63.692565960007016 L 1194.4647307101095 63.79924646442086 L 1194.4279121410327 63.90576585742718 L 1194.3887391140536 64.01211348717543 L 1194.3472155464417 64.11827871899126 L 1194.3033455905197 64.22425093643996 L 1194.2571336332464 64.3300195423881 L 1194.208584295779 64.43557396006322 L 1194.157702433011 64.54090363411153 L 1194.104493133086 64.64599803165338 L 1194.0489617168898 64.75084664333659 L 1193.991113737518 64.85543898438739 L 1193.9309549797197 64.95976459565881 L 1193.868491459321 65.06381304467668 L 1193.803729422622 65.16757392668278 L 1193.7366753457718 65.27103686567541 L 1193.6673359341228 65.37419151544687 L 1193.5957181215583 65.47702756061814 L 1193.5218290697997 65.5795347176704 L 1193.4456761676904 65.68170273597339 L 1193.3672670304577 65.7835213988104 L 1193.2866094989497 65.88498052439998 L 1193.2037116388522 65.98606996691414 L 1193.1185817398823 66.08677961749288 L 1193.031228314959 66.18709940525505 L 1192.9416600993518 66.28701929830548 L 1192.8498860498075 66.38652930473813 L 1192.7559153436553 66.48561947363528 L 1192.6597573778868 66.58427989606261 L 1192.5614217682185 66.6825007060601 L 1192.4609183481298 66.7802720816286 L 1192.3582571678785 66.87758424571203 L 1192.2534484934974 66.97442746717506 L 1192.1465028057667 67.07079206177627 L 1192.0374307991658 67.1666683931365 L 1191.9262433808044 67.2620468737025 L 1191.8129516693318 67.35691796570569 L 1191.697566993825 67.45127218211596 L 1191.5801008926549 67.54510008759026 L 1191.460565112334 67.63839229941624 L 1191.3389716063407 67.73113948845047 L 1191.2153325339243 67.82333238005134 L 1191.089660258889 67.9149617550065 L 1190.9619673483573 68.00601845045483 L 1190.8322665715145 68.09649336080267 L 1190.7005708983295 68.18637743863435 L 1190.5668934982602 68.27566169561702 L 1190.4312477389353 68.36433720339936 L 1190.2936471848175 68.45239509450451 L 1190.1541055958476 68.53982656321674 L 1190.0126369260684 68.62662286646201 L 1189.8692553222286 68.71277532468237 L 1189.7239751223692 68.79827532270376 L 1189.5768108543896 68.88311431059763 L 1189.4277772345933 68.9672838045359 L 1189.2768891662186 69.0507753876393 L 1189.1241617379462 69.13358071081912 L 1188.9696102223918 69.21569149361203 L 1188.8132500745783 69.29709952500816 L 1188.65509693039 69.37779666427225 L 1188.49516660501 69.45777484175761 L 1188.3334750913366 69.53702605971311 L 1188.1700385583872 69.61554239308303 L 1188.0048733496787 69.69331599029945 L 1187.8379959815945 69.77033907406746 L 1187.669423141732 69.84660394214286 L 1187.4991716872348 69.92210296810242 L 1187.3272586431067 69.99682860210643 L 1187.1537012005087 70.07077337165379 L 1186.9785167150403 70.14392988232913 L 1186.8017227050043 70.21629081854239 L 1186.6233368496542 70.28784894426022 L 1186.443376987427 70.35859710372968 L 1186.2618611141588 70.42852822219379 L 1186.078807381286 70.49763530659898 L 1185.894234094029 70.5659114462944 L 1185.7081597095628 70.63334981372294 L 1185.5206028351708 70.69994366510412 L 1185.3315822263842 70.76568634110825 L 1185.1411167851063 70.83057126752253 L 1184.9492255577225 70.89459195590838 L 1184.7559277331957 70.95774200425032 L 1184.5612426411471 71.02001509759614 L 1184.365189749924 71.08140500868842 L 1184.1677886646519 71.14190559858717 L 1183.9690591252747 71.20151081728383 L 1183.769021004581 71.26021470430622 L 1183.567694306216 71.31801138931453 L 1183.3650991626819 71.37489509268845 L 1183.1612558333243 71.43086012610503 L 1182.9561847023058 71.48590089310757 L 1182.7499062765692 71.54001188966522 L 1182.5424411837848 71.59318770472345 L 1182.333810170289 71.64542302074504 L 1182.1240340990096 71.69671261424193 L 1181.9131339473786 71.7470513562975 L 1181.7011308052356 71.79643421307951 L 1181.488045872718 71.84485624634341 L 1181.2739004581415 71.89231261392625 L 1181.0587159758693 71.93879857023082 L 1180.8425139441702 71.9843094667002 L 1180.625315983067 72.02884075228269 L 1180.4071438121748 72.07238797388683 L 1180.1880192485294 72.11494677682676 L 1179.967964204404 72.15651290525764 L 1179.74700068512 72.19708220260128 L 1179.525150786845 72.23665061196175 L 1179.302436694384 72.27521417653107 L 1179.0788806789606 72.31276903998494 L 1178.85450509599 72.3493114468683 L 1178.6293323828436 72.38483774297092 L 1178.4033850566052 72.41934437569277 L 1178.1766857118191 72.45282789439938 L 1177.9492570182306 72.48528495076673 L 1177.72112171852 72.51671229911628 L 1177.4923026260265 72.54710679673934 L 1177.2628226224692 72.5764654042115 L 1177.0327046556572 72.60478518569649 L 1176.8019717371951 72.63206330923974 L 1176.5706469401828 72.65829704705163 L 1176.338753396907 72.68348377578025 L 1176.1063142965288 72.70762097677371 L 1175.8733528827647 72.73070623633201 L 1175.6398924515618 72.75273724594847 L 1175.4059563487688 72.77371180254045 L 1175.171567967801 72.79362780866978 L 1174.936750747301 72.81248327275246 L 1174.7015281687952 72.83027630925778 L 1174.4659237543456 72.84700513889692 L 1174.2299610641974 72.86266808880085 L 1173.9936636944226 72.87726359268764 L 1173.7570552745615 72.89079019101906 L 1173.520159465259 72.90324653114655 L 1173.2829999558985 72.91463136744649 L 1173.0456004622333 72.9249435614447 L 1172.807984724015 72.93418208193043 L 1172.5701765026192 72.94234600505929 L 1172.3321995786703 72.94943451444577 L 1172.094077749662 72.95544690124485 L 1171.8558348275785 72.96038256422287 L 1171.6174946365143 72.96424100981763 L 1171.3790810102892 72.9670218521878 L 1171.1406177900676 72.96872481325143 L 1170.9021288219724 72.96934972271386 L 1170.663637954702 72.96889651808466 L 1170.425169037144 72.96736524468392 L 1170.1867459159919 72.96475605563768 L 1169.9483924333588 72.96106921186271 L 1169.7101324243945 72.95630508204027 L 1169.4719897149012 72.9504641425794 L 1169.2339881189514 72.94354697756918 L 1168.9961514365066 72.93555427872033 L 1168.7585034510366 72.9264868452961 L 1168.5210679271422 72.91634558403224 L 1168.2838686081775 72.90513150904647 L 1168.046929213877 72.89284574173689 L 1167.8102734379827 72.87948951067006 L 1167.573924945875 72.86506415145789 L 1167.337907372206 72.84957110662431 L 1167.1022443185363 72.8330119254609 L 1166.8669593509753 72.81538826387197 L 1166.6320759978232 72.79670188420899 L 1166.39761774722 72.77695465509434 L 1166.163608044795 72.7561485512345 L 1165.9300702913238 72.73428565322251 L 1165.6970278403867 72.71136814732996 L 1165.464503996035 72.68739832528833 L 1165.2325220104592 72.66237858405984 L 1165.0011050816645 72.63631142559778 L 1164.770276351151 72.60919945659627 L 1164.5400589015994 72.58104538822961 L 1164.310475754563 72.55185203588118 L 1164.0815498681648 72.5216223188619 L 1163.8533041348028 72.49035926011825 L 1163.62576137886 72.45806598593009 L 1163.3989443544228 72.4247457255979 L 1163.1728757430042 72.39040181111994 L 1162.9475781512772 72.35503767685907 L 1162.7230741088133 72.31865685919922 L 1162.4993860658294 72.28126299619186 L 1162.2765363909434 72.24285982719209 L 1162.0545473689374 72.20345119248485 L 1161.8334411985281 72.16304103290075 L 1161.613239990149 72.12163338942209 L 1161.3939657637366 72.07923240277869 L 1161.1756404465314 72.03584231303388 L 1160.9582858708832 71.99146745916049 L 1160.741923772068 71.94611227860693 L 1160.5265757861157 71.89978130685344 L 1160.3122634476454 71.85247917695861 L 1160.0990081877123 71.80421061909601 L 1159.8868313316648 71.75498046008119 L 1159.6757540970116 71.70479362288901 L 1159.4657975913003 71.65365512616141 L 1159.2569828100063 71.60157008370541 L 1159.049330634434 71.54854370398188 L 1158.8428618296277 71.49458128958457 L 1158.6375970422962 71.43968823671 L 1158.4335567987466 71.38387003461766 L 1158.2307615028337 71.32713226508127 L 1158.029231433918 71.26948060183051 L 1157.8289867448382 71.21092080998365 L 1157.6300474598968 71.15145874547107 L 1157.432433472856 71.0911003544497 L 1157.23616454495 71.0298516727083 L 1157.0412603029083 70.96771882506403 L 1156.8477402369922 70.90470802474988 L 1156.6556236990475 70.84082557279336 L 1156.4649299005678 70.77607785738643 L 1156.2756779107738 70.71047135324669 L 1156.0878866547068 70.64401262096986 L 1155.9015749113362 70.5767083063738 L 1155.7167613116808 70.50856513983389 L 1155.5334643369467 70.43958993560999 L 1155.3517023166785 70.36978959116503 L 1155.1714934269269 70.29917108647531 L 1154.9928556884306 70.22774148333244 L 1154.8158069648148 70.1555079246372 L 1154.640364960804 70.08247763368529 L 1154.4665472204524 70.00865791344492 L 1154.2943711253895 69.9340561458266 L 1154.1238538930813 69.85867979094495 L 1153.9550125751086 69.78253638637263 L 1153.7878640554627 69.70563354638664 L 1153.6224250488563 69.62797896120689 L 1153.4587120990523 69.54958039622719 L 1153.2967415772089 69.47044569123871 L 1153.1365296802435 69.39058275964601 L 1152.9780924292124 69.30999958767568 L 1152.8214456677088 69.22870423357777 L 1152.6666050602778 69.14670482681996 L 1152.5135860908515 69.06400956727457 L 1152.3624040611992 68.98062672439866 L 1152.2130740893979 68.89656463640702 L 1152.0656111083204 68.8118317094384 L 1151.920029864142 68.72643641671489 L 1151.7763449148654 68.6403872976946 L 1151.6345706288662 68.55369295721772 L 1151.4947211834547 68.46636206464606 L 1151.356810563459 68.37840335299609 L 1151.220852559826 68.28982561806569 L 1151.086860768243 68.20063771755453 L 1150.9548485877772 68.11084857017835 L 1150.824829219537 68.02046715477704 L 1150.6968156653504 67.92950250941684 L 1150.5708207264665 67.83796373048648 L 1150.446857002274 67.74585997178757 L 1150.3249368890424 67.65320044361923 L 1150.205072578681 67.55999441185705 L 1150.087276057521 67.46625119702654 L 1149.9715591051165 67.37198017337107 L 1149.8579332930665 67.27719076791445 L 1149.746409983857 67.18189245951821 L 1149.6370003297263 67.08609477793381 L 1149.5297152715486 66.98980730284956 L 1149.4245655377404 66.89303966293272 L 1149.3215616431874 66.79580153486665 L 1149.2207138881931 66.69810264238313 L 1149.122032357449 66.59995275528999 L 1149.025526919026 66.50136168849414 L 1148.9312072233874 66.40233930102012 L 1148.8390827024245 66.30289549502413 L 1148.7491625685125 66.20304021480393 L 1148.6614558135893 66.1027834458043 L 1148.5759712082581 66.00213521361863 L 1148.4927173009078 65.90110558298623 L 1148.41170241686 65.799704656786 L 1148.3329346575351 65.69794257502603 L 1148.2564218996438 65.59582951382973 L 1148.182171794398 65.4933756844181 L 1148.1101917667463 65.3905913320887 L 1148.0404890146317 65.28748673519112 L 1147.9730705082711 65.18407220409914 L 1147.9079429894591 65.08035808017966 L 1147.8451129708933 64.97635473475869 L 1147.7845867355231 64.87207256808405 L 1147.7263703359217 64.76752200828555 L 1147.6704695936803 64.66271351033203 L 1147.6168900988268 64.55765755498592 L 1147.5656372092662 64.45236464775525 L 1147.5167160502442 64.34684531784296 L 1147.4701315138366 64.24111011709415 L 1147.4258882584575 64.13516961894075 L 1147.3839907083961 64.0290344173443 L 1147.3444430533723 63.92271512573653 L 1147.3072492481188 63.81622237595798 L 1147.2724130119848 63.70956681719489 L 1147.2399378285652 63.602759114914264 L 1147.209826945351 63.49580994979732 L 1147.182083373406 63.38873001667144 L 1147.1567098870635 63.28153002344071 L 1147.1337090236516 63.17422069001512 L 1147.1130830832371 63.066812747238586 L 1147.094834128397 62.959316935815885 L 1147.0789639840116 62.85174400523857 L 1147.065474237082 62.74410471271006 L 1147.054366236572 62.636409822069915 L 1147.0456410932718 62.52867010271744 L 1147.0392996796888 62.4208963285348 L 1147.0353426299591 62.313099276809595 L 1147.0337703397845 62.20528972715717 L 1147.0345829663925 62.09747846044265 L 1147.037780428521 61.98967625770286 L 1147.0433624064267 61.88189389906824 L 1147.0513283419164 61.77414216268484 L 1147.0616774384032 61.66643182363649 L 1147.074408660986 61.558773652867366 L 1147.0895207365531 61.4511784161048 L 1147.1070121539096 61.34365687278283 L 1147.1268811639284 61.236219774966166 L 1147.1491257797252 61.12887786627507 L 1147.1737437768566 61.02164188081096 L 1147.2007326935436 60.91452254208302 L 1147.230089830917 60.807530561935856 L 1147.2618122532874 60.70067663947832 L 1147.2958967884392 60.593971460013606 L 1147.3323400279473 60.487425693970756 L 1147.371138327518 60.381049995837586 L 1147.4122878073538 60.27485500309525 L 1147.4557843525408 60.16885133515453 L 1147.5016236134609 60.06304959229389 L 1147.549801006226 59.95746035459945 L 1147.6003117131372 59.852094180906974 L 1147.653150683166 59.746961607746044 L 1147.708312632459 59.64207314828636 L 1147.7657920448676 59.537439291286454 L 1147.8255831724985 59.43307050004484 L 1147.8876800362884 59.32897721135367 L 1147.9520764266028 59.22516983445505 L 1148.0187659038565 59.12165875000019 L 1148.0877417991574 59.01845430901127 L 1148.1589972149732 58.91556683184637 L 1148.2325250258218 58.81300660716748 L 1148.3083178789834 58.7107838909116 L 1148.386368195236 58.60890890526517 L 1148.4666681696126 58.507391837641855 L 1148.549209772183 58.406242839663825 L 1148.633984748856 58.30547202614659 L 1148.7209846222038 58.205089474087515 L 1148.8102006923123 58.105105221658164 L 1148.9016240376482 58.00552926720046 L 1148.9952455159537 57.90637156822687 L 1149.091055765159 57.807642040424646 L 1149.1890452043185 57.709350556664305 L 1149.2892040345703 57.61150694601232 L 1149.3915222401147 57.514120992748204 L 1149.4959895892166 57.417202435386145 L 1149.602595635228 57.320760965701105 L 1149.7113297176334 57.224806227759686 L 1149.8221809631148 57.12934781695572 L 1149.93513828664 57.03439527905074 L 1150.050190392571 56.93995810921942 L 1150.1673257757932 56.84604575110002 L 1150.2865327228658 56.75266759585011 L 1150.4077993131932 56.65983298120741 L 1150.5311134202175 56.567551190555996 L 1150.656462712631 56.47583145199805 L 1150.7838346556086 56.384682937430995 L 1150.9132165120625 56.29411476163032 L 1151.0445953439146 56.20413598133814 L 1151.1779580133912 56.1147555943575 L 1151.3132911843365 56.02598253865261 L 1151.4505813235464 55.937825691455075 L 1151.5898147021212 55.85029386837614 L 1151.730977396839 55.763395822525176 L 1151.8740552915483 55.677140243634355 L 1152.0190340785784 55.591535757189675 L 1152.1658992601717 55.50659092356846 L 1152.3146361499323 55.42231423718327 L 1152.4652298742953 55.33871412563253 L 1152.6176653740135 55.25579894885771 L 1152.7719274056644 55.1735769983074 L 1152.928000543173 55.092056496108135 L 1153.085869179356 55.01124559424221 L 1153.2455175274808 54.93115237373246 L 1153.406929622846 54.851784843834196 L 1153.5700893243763 54.77315094123426 L 1153.734980316238 54.6952585292574 L 1153.901586109469 54.61811539707989 L 1154.0698900436287 54.54172925895067 L 1154.239875288464 54.46610775341989 L 1154.4115248455923 54.391258442575094 L 1154.5848215502006 54.317188811284986 L 1154.7597480727632 54.24390626645098 L 1154.9362869207732 54.171418136266475 L 1155.1144204404934 54.09973166948409 L 1155.2941308187199 54.028854034690774 L 1155.4754000845649 53.95879231959093 L 1155.6582101112526 53.88955353029769 L 1155.8425426179328 53.82114459063227 L 1156.0283791715085 53.753572341431656 L 1156.215701188479 53.68684353986444 L 1156.404489936799 53.62096485875517 L 1156.5947265377508 53.55594288591707 L 1156.786391967833 53.49178412349323 L 1156.979467060662 53.42849498730643 L 1157.1739325088897 53.366081806217544 L 1157.3697688661332 53.304550821492676 L 1157.5669565489202 53.24390818617902 L 1157.7654758386464 53.18415996448957 L 1157.9653068835482 53.12531213119671 L 1158.1664297006882 53.067370571034715 L 1158.3688241779519 53.01034107811134 L 1158.57247007606 52.95422935532834 L 1158.7773470305929 52.89904101381123 L 1158.9834345540255 52.84478157234818 L 1159.1907120377775 52.79145645683812 L 1159.399158754273 52.73907099974815 L 1159.608753859014 52.687630439580346 L 1159.8194763926651 52.637139920347835 L 1160.0313052831482 52.58760449106049 L 1160.2442193477507 52.53902910521993 L 1160.4581972952437 52.49141862032429 L 1160.673217728011 52.444777797382365 L 1160.8892591441881 52.399111300437596 L 1161.1062999398139 52.354423696101605 L 1161.324318410989 52.3107194530976 L 1161.5432927560487 52.26800294181345 L 1161.7632010777404 52.2262784338647 L 1161.9840213854156 52.18555010166736 L 1162.2057315972272 52.14582201802072 L 1162.428309542339 52.10709815570004 L 1162.6517329631422 52.06938238705927 L 1162.8759795174803 52.032678483643856 L 1163.1010267808854 51.996990115813546 L 1163.326852248818 51.96232085237539 L 1163.55343333892 51.928674160226834 L 1163.7807473932712 51.89605340400906 L 1164.0087716806554 51.8644618457705 L 1164.2374833988338 51.833902644640645 L 1164.4668596768254 51.80437885651416 L 1164.6968775771934 51.775893433745246 L 1164.9275140983395 51.74844922485244 L 1165.158746176804 51.722048974233765 L 1165.3905506895715 51.69669532189228 L 1165.6229044563838 51.672390803172085 L 1165.855784242058 51.649137848504814 L 1166.0891667588096 51.626938783166544 L 1166.3230286685812 51.60579582704531 L 1166.557346585377 51.58571109441911 L 1166.7920970776006 51.56668659374447 L 1167.0272566703982 51.54872422745561 L 1167.2628018480066 51.53182579177417 L 1167.4987090561042 51.515992976529645 L 1167.734954704167 51.50122736499037 L 1167.9715151678267 51.4875304337052 L 1168.2083667912345 51.47490355235584 L 1168.445485889425 51.4633479836199 L 1168.6828487506866 51.45286488304463 L 1168.9204316389303 51.443455298931354 L 1169.1582107960658 51.43512017223063 L 1169.396162444375 51.4278603364482 L 1169.6342627888919 51.42167651756158 L 1169.87248801978 51.41656933394751 L 1170.1108143147148 51.41253929632009 L 1170.349217841266 51.40958680767973 L 1170.5876747592788 51.407712163272826 L 1170.8261612232607 51.40691555056227 L 1171.0646533847637 51.40719704920866 L 1171.3031273947706 51.40855663106237 L 1171.541559406079 51.41099416016634 L 1171.7799255756863 51.414509392769695 L 1172.0182020671748 51.419101977352106 L 1172.256365053093 51.42477145465894 L 1172.4943907173417 51.431517257747196 L 1172.7322552575522 51.43933871204218 L 1172.969934887469 51.44823503540498 L 1173.2074058393268 51.45820533821068 L 1173.4446443662289 51.4692486234373 L 1173.68162674452 51.48136378676553 L 1173.9183292761595 51.49454961668913 L 1174.1547282910917 51.50880479463608 L 1174.3908001496122 51.524127895100484 L 1174.626521244732 51.54051738578506 L 1174.8618680045377 51.5579716277544 L 1175.0968168945494 51.57648887559884 L 1175.3313444200744 51.59606727760904 L 1175.565427128555 51.6167048759611 L 1175.7990416119158 51.6383996069124 L 1176.032164508903 51.66114930100791 L 1176.264772507421 51.684951683297186 L 1176.496842346864 51.70980437356183 L 1176.7283508204416 51.735704886553535 L 1176.9592747774989 51.76265063224257 L 1177.1895911258332 51.79063891607683 L 1177.419276834001 51.81966693925126 L 1177.6483089336234 51.849731798987726 L 1177.876664521681 51.88083048882531 L 1178.1043207628056 51.91295989892094 L 1178.3312548915624 51.94611681636038 L 1178.5574442147279 51.980297925479526 L 1178.782866113558 52.01549980819594 L 1179.007498046051 52.0517189443507 L 1179.2313175492006 52.08895171206036 L 1179.454302241243 52.127194388079175 L 1179.6764298238952 52.16644314817141 L 1179.8976780845837 52.20669406749378 L 1180.1180248986668 52.247943120987884 L 1180.3374482316467 52.29018618378274 L 1180.5559261413732 52.33341903160728 L 1180.773436780237 52.37763734121275 L 1180.9899583973558 52.422836690805035 L 1181.2054693407483 52.46901256048684 L 1181.4199480594996 52.516160332709674 L 1181.6333731059165 52.564275292735616 L 1181.8457231376724 52.613352629108746 L 1182.056976919941 52.663387434136325 L 1182.2671133275203 52.71437470437956 L 1182.4761113469444 52.7663093411539 L 1182.6839500785854 52.819186151038956 L 1182.8906087387438 52.8729998463978 L 1183.0960666617254 52.92774504590574 L 1183.3003033019095 52.983416275088445 L 1183.5032982358018 53.040007966869396 L 1183.7050311640785 53.09751446212657 L 1183.9054819136145 53.15593001025836 L 1184.1046304395022 53.21524876975863 L 1184.3024568270548 53.27546480880087 L 1184.4989412937985 53.33657210583136 L 1184.69406419145 53.3985645501713 L 1184.8878060078828 53.461435942627936 L 1185.0801473690763 53.52517999611441 L 1185.2710690410547 53.58979033627848 L 1185.46055193181 53.655260502139996 L 1185.6485770932109 53.721583946736914 L 1185.8351257228978 53.78875403778004 L 1186.0201791661636 53.85676405831625 L 1186.203718917818 53.92560720740017 L 1186.3857266240386 53.995276600774254 L 1186.5661840842065 54.065765271557225 L 1186.7450732527263 54.13706617094075 L 1186.9223762408303 54.2091721688943 L 1187.098075318367 54.28207605487816 L 1187.2721529155754 54.35577053856451 L 1187.4445916248405 54.43024825056637 L 1187.6153742024355 54.50550174317461 L 1187.784483570245 54.581523491102686 L 1187.9519028174725 54.658305892239156 L 1188.1176152023334 54.73584126840789 L 1188.2816041537271 54.81412186613588 L 1188.443853272895 54.89313985742859 L 1188.6043463350607 54.97288734055273 L 1188.7630672910514 55.05335634082646 L 1188.920000268904 55.1345388114168 L 1189.0751295754515 55.21642663414435 L 1189.228439697892 55.29901162029506 L 1189.379915305342 55.38228551143916 L 1189.529541250366 55.46623998025691 L 1189.677302570495 55.55086663137139 L 1189.8231844897193 55.63615700218803 L 1189.9671724199693 55.722102563740805 L 1190.1092519625713 55.80869472154519 L 1190.2494089096901 55.89592481645755 L 1190.3876292457473 55.98378412554111 L 1190.5238991488247 56.07226386293816 L 1190.6582049920455 56.1613551807487 L 1190.7905333449373 56.251049169915184 L 1190.920870974775 56.34133686111345 L 1191.0492048479043 56.4322092256496 L 1191.175522131045 56.52365717636293 L 1191.2998101925737 56.615671568534566 L 1191.4220566037882 56.70824320080196 L 1191.542249140149 56.80136281607904 L 1191.6603757825023 56.89502110248188 L 1191.7764247182831 56.98920869425987 L 1191.890384342694 57.083916172732344 L 1192.0022432598676 57.17913406723036 L 1192.1119902840055 57.27485285604382 L 1192.2196144404966 57.37106296737362 L 1192.325104967015 57.467754780288786 L 1192.4284513145963 57.56491862568861 L 1192.529643148691 57.662544787269525 L 1192.628670350201 57.76062350249672 L 1192.725523016488 57.859144963580405 L 1192.8201914623664 57.95809931845658 L 1192.9126662210704 58.05747667177222 L 1193.002938045201 58.15726708587479 L 1193.0909979076514 58.257460581806065 L 1193.1768370025086 58.358047140299924 L 1193.2604467459344 58.459016702784346 L 1193.3418187770244 58.56035917238722 L 1193.4209449586433 58.66206441494605 L 1193.4978173782388 58.764122260021324 L 1193.572428348633 58.866522501913586 L 1193.644770408791 58.96925490068398 L 1193.7148363245672 59.072309183178234 L 1193.7826190894282 59.17567504405398 L 1193.8481119251542 59.279342146811274 L 1193.911308282516 59.38330012482622 L 1193.9722018419307 59.48753858238766 L 1194.030786514093 59.59204709573668 L 1194.0870564405848 59.69681521410906 L 1194.14100599446 59.80183246078026 L 1194.1926297808081 59.907088334113126 L 1194.241922637294 60.012572308608036 L 1194.2888796346724 60.11827383595545 L 1194.3334960772834 60.22418234609071 L 1194.3757675035195 60.33028724825106 L 1194.4156896862733 60.43657793203471 L 1194.4532586333598 60.54304376846186 L 1194.488470587916 60.64967411103757 L 1194.5213220287753 60.75645829681646 L 1194.551809670821 60.86338564746893 L 1194.5799304653149 60.97044547034902 L 1194.6056816002003 61.07762705956367 L 1194.6290605003853 61.184919697043256 L 1194.6500648279998 61.29231265361346 L 1194.6686924826279 61.399795190068104 L 1194.6849416015202 61.50735655824312 L 1194.6988105597782 61.614986002091314 L 1194.7102979705173 61.72267275875801 L 1194.7194026850066 61.830406059657264 L 1194.7261237927817 61.93817513154877 L 1194.7304606217378 62.04596919761514 L 1194.7324127381953 62.15377747853961 M 1194.7325337282514 96.4920458931 L 1194.7313412683477 96.59985643801662 L 1194.7277640078817 96.70765620196859 L 1194.7218023045762 96.81543440506935 L 1194.713456754597 96.9231802695884 L 1194.7027281924918 97.03088302102908 L 1194.689617691108 97.138531889206 L 1194.6741265614846 97.24611610932205 L 1194.656256352722 97.35362492304485 L 1194.636008851826 97.46104757958265 L 1194.6133860835298 97.5683733367593 L 1194.5883903100914 97.67559146208852 L 1194.5610240310675 97.78269123384712 L 1194.5312899830628 97.88966194214719 L 1194.4991911394577 97.99649289000702 L 1194.4647307101095 98.10317339442086 L 1194.4279121410327 98.20969278742717 L 1194.3887391140536 98.31604041717543 L 1194.3472155464417 98.42220564899125 L 1194.3033455905197 98.52817786643996 L 1194.2571336332464 98.6339464723881 L 1194.208584295779 98.73950089006323 L 1194.157702433011 98.84483056411152 L 1194.104493133086 98.94992496165337 L 1194.0489617168898 99.05477357333659 L 1193.991113737518 99.15936591438738 L 1193.9309549797197 99.2636915256588 L 1193.868491459321 99.36773997467667 L 1193.803729422622 99.47150085668278 L 1193.7366753457718 99.5749637956754 L 1193.6673359341228 99.67811844544686 L 1193.5957181215583 99.78095449061813 L 1193.5218290697997 99.8834616476704 L 1193.4456761676904 99.98562966597338 L 1193.3672670304577 100.08744832881038 L 1193.2866094989497 100.18890745439998 L 1193.2037116388522 100.28999689691415 L 1193.1185817398823 100.39070654749288 L 1193.031228314959 100.49102633525506 L 1192.9416600993518 100.59094622830548 L 1192.8498860498075 100.69045623473812 L 1192.7559153436553 100.78954640363527 L 1192.6597573778868 100.8882068260626 L 1192.5614217682185 100.9864276360601 L 1192.4609183481298 101.0841990116286 L 1192.3582571678785 101.18151117571202 L 1192.2534484934974 101.27835439717506 L 1192.1465028057667 101.37471899177628 L 1192.0374307991658 101.4705953231365 L 1191.9262433808044 101.56597380370249 L 1191.8129516693318 101.6608448957057 L 1191.697566993825 101.75519911211595 L 1191.5801008926549 101.84902701759025 L 1191.460565112334 101.94231922941623 L 1191.3389716063407 102.03506641845047 L 1191.2153325339243 102.12725931005133 L 1191.089660258889 102.2188886850065 L 1190.9619673483573 102.30994538045483 L 1190.8322665715145 102.40042029080266 L 1190.7005708983295 102.49030436863434 L 1190.5668934982602 102.579588625617 L 1190.4312477389353 102.66826413339936 L 1190.2936471848175 102.75632202450451 L 1190.1541055958476 102.84375349321674 L 1190.0126369260684 102.93054979646202 L 1189.8692553222286 103.01670225468237 L 1189.7239751223692 103.10220225270375 L 1189.5768108543896 103.18704124059762 L 1189.4277772345933 103.27121073453588 L 1189.2768891662186 103.3547023176393 L 1189.1241617379462 103.4375076408191 L 1188.9696102223918 103.51961842361202 L 1188.8132500745783 103.60102645500817 L 1188.65509693039 103.68172359427226 L 1188.49516660501 103.7617017717576 L 1188.3334750913366 103.84095298971312 L 1188.1700385583872 103.91946932308304 L 1188.0048733496787 103.99724292029944 L 1187.8379959815945 104.07426600406745 L 1187.669423141732 104.15053087214287 L 1187.4991716872348 104.22602989810241 L 1187.3272586431067 104.30075553210642 L 1187.1537012005087 104.37470030165377 L 1186.9785167150403 104.44785681232914 L 1186.8017227050043 104.52021774854238 L 1186.6233368496542 104.59177587426021 L 1186.443376987427 104.66252403372968 L 1186.2618611141588 104.73245515219378 L 1186.078807381286 104.80156223659897 L 1185.894234094029 104.86983837629438 L 1185.7081597095628 104.93727674372295 L 1185.5206028351708 105.0038705951041 L 1185.3315822263842 105.06961327110824 L 1185.1411167851063 105.13449819752252 L 1184.9492255577225 105.19851888590837 L 1184.7559277331957 105.26166893425032 L 1184.5612426411471 105.32394202759615 L 1184.365189749924 105.38533193868841 L 1184.1677886646519 105.44583252858716 L 1183.9690591252747 105.50543774728384 L 1183.769021004581 105.56414163430621 L 1183.567694306216 105.62193831931454 L 1183.3650991626819 105.67882202268845 L 1183.1612558333243 105.73478705610502 L 1182.9561847023058 105.78982782310756 L 1182.7499062765692 105.84393881966523 L 1182.5424411837848 105.89711463472344 L 1182.333810170289 105.94934995074503 L 1182.1240340990096 106.00063954424192 L 1181.9131339473786 106.0509782862975 L 1181.7011308052356 106.1003611430795 L 1181.488045872718 106.14878317634341 L 1181.2739004581415 106.19623954392625 L 1181.0587159758693 106.2427255002308 L 1180.8425139441702 106.2882363967002 L 1180.625315983067 106.33276768228268 L 1180.4071438121748 106.37631490388682 L 1180.1880192485294 106.41887370682676 L 1179.967964204404 106.46043983525765 L 1179.74700068512 106.50100913260128 L 1179.525150786845 106.54057754196174 L 1179.302436694384 106.57914110653107 L 1179.0788806789606 106.61669596998493 L 1178.85450509599 106.65323837686829 L 1178.6293323828436 106.6887646729709 L 1178.4033850566052 106.72327130569276 L 1178.1766857118191 106.75675482439937 L 1177.9492570182306 106.78921188076673 L 1177.72112171852 106.82063922911627 L 1177.4923026260265 106.85103372673933 L 1177.2628226224692 106.8803923342115 L 1177.0327046556572 106.90871211569649 L 1176.8019717371951 106.93599023923973 L 1176.5706469401828 106.96222397705162 L 1176.338753396907 106.98741070578025 L 1176.1063142965288 107.0115479067737 L 1175.8733528827647 107.03463316633201 L 1175.6398924515618 107.05666417594847 L 1175.4059563487688 107.07763873254045 L 1175.171567967801 107.09755473866979 L 1174.936750747301 107.11641020275246 L 1174.7015281687952 107.13420323925777 L 1174.4659237543456 107.1509320688969 L 1174.2299610641974 107.16659501880085 L 1173.9936636944226 107.18119052268763 L 1173.7570552745615 107.19471712101905 L 1173.520159465259 107.20717346114655 L 1173.2829999558985 107.21855829744648 L 1173.0456004622333 107.22887049144471 L 1172.807984724015 107.23810901193042 L 1172.5701765026192 107.24627293505928 L 1172.3321995786703 107.25336144444577 L 1172.094077749662 107.25937383124486 L 1171.8558348275785 107.26430949422287 L 1171.6174946365143 107.26816793981763 L 1171.3790810102892 107.27094878218779 L 1171.1406177900676 107.27265174325143 L 1170.9021288219724 107.27327665271386 L 1170.663637954702 107.27282344808465 L 1170.425169037144 107.27129217468391 L 1170.1867459159919 107.26868298563768 L 1169.9483924333588 107.2649961418627 L 1169.7101324243945 107.26023201204026 L 1169.4719897149012 107.2543910725794 L 1169.2339881189514 107.24747390756917 L 1168.9961514365066 107.23948120872033 L 1168.7585034510366 107.23041377529609 L 1168.5210679271422 107.22027251403225 L 1168.2838686081775 107.20905843904646 L 1168.046929213877 107.1967726717369 L 1167.8102734379827 107.18341644067004 L 1167.573924945875 107.16899108145788 L 1167.337907372206 107.15349803662431 L 1167.1022443185363 107.1369388554609 L 1166.8669593509753 107.11931519387196 L 1166.6320759978232 107.10062881420897 L 1166.39761774722 107.08088158509435 L 1166.163608044795 107.0600754812345 L 1165.9300702913238 107.03821258322252 L 1165.6970278403867 107.01529507732995 L 1165.464503996035 106.99132525528832 L 1165.2325220104592 106.96630551405984 L 1165.0011050816645 106.94023835559778 L 1164.770276351151 106.91312638659626 L 1164.5400589015994 106.88497231822961 L 1164.310475754563 106.85577896588119 L 1164.0815498681648 106.8255492488619 L 1163.8533041348028 106.79428619011826 L 1163.62576137886 106.76199291593008 L 1163.3989443544228 106.72867265559789 L 1163.1728757430042 106.69432874111995 L 1162.9475781512772 106.65896460685907 L 1162.7230741088133 106.62258378919921 L 1162.4993860658294 106.58518992619184 L 1162.2765363909434 106.5467867571921 L 1162.0545473689374 106.50737812248485 L 1161.8334411985281 106.46696796290075 L 1161.613239990149 106.42556031942208 L 1161.3939657637366 106.38315933277867 L 1161.1756404465314 106.33976924303387 L 1160.9582858708832 106.29539438916049 L 1160.741923772068 106.25003920860692 L 1160.5265757861157 106.20370823685344 L 1160.3122634476454 106.15640610695861 L 1160.0990081877123 106.108137549096 L 1159.8868313316648 106.05890739008117 L 1159.6757540970116 106.00872055288902 L 1159.4657975913003 105.9575820561614 L 1159.2569828100063 105.90549701370541 L 1159.049330634434 105.85247063398188 L 1158.8428618296277 105.79850821958458 L 1158.6375970422962 105.74361516670999 L 1158.4335567987466 105.68779696461766 L 1158.2307615028337 105.63105919508126 L 1158.029231433918 105.5734075318305 L 1157.8289867448382 105.51484773998365 L 1157.6300474598968 105.45538567547108 L 1157.432433472856 105.3950272844497 L 1157.23616454495 105.33377860270829 L 1157.0412603029083 105.27164575506403 L 1156.8477402369922 105.20863495474987 L 1156.6556236990475 105.14475250279335 L 1156.4649299005678 105.08000478738643 L 1156.2756779107738 105.01439828324668 L 1156.0878866547068 104.94793955096986 L 1155.9015749113362 104.8806352363738 L 1155.7167613116808 104.8124920698339 L 1155.5334643369467 104.74351686560999 L 1155.3517023166785 104.67371652116503 L 1155.1714934269269 104.6030980164753 L 1154.9928556884306 104.53166841333243 L 1154.8158069648148 104.4594348546372 L 1154.640364960804 104.38640456368528 L 1154.4665472204524 104.31258484344491 L 1154.2943711253895 104.2379830758266 L 1154.1238538930813 104.16260672094495 L 1153.9550125751086 104.08646331637262 L 1153.7878640554627 104.00956047638662 L 1153.6224250488563 103.93190589120688 L 1153.4587120990523 103.85350732622719 L 1153.2967415772089 103.77437262123871 L 1153.1365296802435 103.694509689646 L 1152.9780924292124 103.61392651767568 L 1152.8214456677088 103.53263116357778 L 1152.6666050602778 103.45063175681996 L 1152.5135860908515 103.36793649727457 L 1152.3624040611992 103.28455365439865 L 1152.2130740893979 103.20049156640701 L 1152.0656111083204 103.1157586394384 L 1151.920029864142 103.03036334671489 L 1151.7763449148654 102.94431422769459 L 1151.6345706288662 102.85761988721772 L 1151.4947211834547 102.77028899464605 L 1151.356810563459 102.68233028299609 L 1151.220852559826 102.5937525480657 L 1151.086860768243 102.50456464755453 L 1150.9548485877772 102.41477550017834 L 1150.824829219537 102.32439408477703 L 1150.6968156653504 102.23342943941684 L 1150.5708207264665 102.14189066048647 L 1150.446857002274 102.04978690178756 L 1150.3249368890424 101.95712737361922 L 1150.205072578681 101.86392134185704 L 1150.087276057521 101.77017812702654 L 1149.9715591051165 101.67590710337106 L 1149.8579332930665 101.58111769791444 L 1149.746409983857 101.48581938951821 L 1149.6370003297263 101.39002170793381 L 1149.5297152715486 101.29373423284954 L 1149.4245655377404 101.19696659293271 L 1149.3215616431874 101.09972846486664 L 1149.2207138881931 101.00202957238312 L 1149.122032357449 100.90387968528998 L 1149.025526919026 100.80528861849413 L 1148.9312072233874 100.70626623102011 L 1148.8390827024245 100.60682242502413 L 1148.7491625685125 100.50696714480392 L 1148.6614558135893 100.40671037580431 L 1148.5759712082581 100.30606214361863 L 1148.4927173009078 100.20503251298624 L 1148.41170241686 100.103631586786 L 1148.3329346575351 100.00186950502604 L 1148.2564218996438 99.89975644382972 L 1148.182171794398 99.79730261441809 L 1148.1101917667463 99.69451826208869 L 1148.0404890146317 99.59141366519111 L 1147.9730705082711 99.48799913409913 L 1147.9079429894591 99.38428501017967 L 1147.8451129708933 99.28028166475868 L 1147.7845867355231 99.17599949808405 L 1147.7263703359217 99.07144893828554 L 1147.6704695936803 98.96664044033201 L 1147.6168900988268 98.86158448498593 L 1147.5656372092662 98.75629157775525 L 1147.5167160502442 98.65077224784297 L 1147.4701315138366 98.54503704709414 L 1147.4258882584575 98.43909654894075 L 1147.3839907083961 98.33296134734431 L 1147.3444430533723 98.22664205573652 L 1147.3072492481188 98.12014930595798 L 1147.2724130119848 98.01349374719489 L 1147.2399378285652 97.90668604491427 L 1147.209826945351 97.79973687979731 L 1147.182083373406 97.69265694667143 L 1147.1567098870635 97.58545695344071 L 1147.1337090236516 97.47814762001512 L 1147.1130830832371 97.37073967723859 L 1147.094834128397 97.26324386581588 L 1147.0789639840116 97.15567093523856 L 1147.065474237082 97.04803164271006 L 1147.054366236572 96.94033675206991 L 1147.0456410932718 96.83259703271744 L 1147.0392996796888 96.7248232585348 L 1147.0353426299591 96.6170262068096 L 1147.0337703397845 96.50921665715717" stroke-miterlimit="10" stroke-width="2.7769845610000004" stroke-dasharray=""/></g><g><text fill="black" stroke="none" font-family="sans-serif" font-size="11pt" font-style="normal" font-weight="normal" text-decoration="normal" x="1139.5051919639623" y="124.80095321200001" text-anchor="start" dominant-baseline="alphabetic" xml:space="preserve">Database</text></g></g><g><path fill="white" stroke="black" paint-order="fill stroke markers" d=" M 351.5143134815755 183.607685092 L 367.8495167815755 183.607685092 L 367.8495167815755 1892.2699502720006 L 351.5143134815755 1892.2699502720006 L 351.5143134815755 183.607685092" stroke-miterlimit="10" stroke-width="1.3612669416666667" stroke-dasharray=""/><path fill="white" stroke="black" paint-order="fill stroke markers" d=" M 359.6819151315755 387.79772634200003 L 376.0171184315755 387.79772634200003 L 376.0171184315755 433.536295582 L 359.6819151315755 433.536295582 L 359.6819151315755 387.79772634200003" stroke-miterlimit="10" stroke-width="1.3612669416666667" stroke-dasharray=""/><path fill="white" stroke="black" paint-order="fill stroke markers" d=" M 584.982003216276 660.5956214519999 L 601.3172065162761 660.5956214519999 L 601.3172065162761 1830.1961777320007 L 584.982003216276 1830.1961777320007 L 584.982003216276 660.5956214519999" stroke-miterlimit="10" stroke-width="1.3612669416666667" stroke-dasharray=""/><path fill="white" stroke="black" paint-order="fill stroke markers" d=" M 795.593492668164 902.356630292 L 811.9286959681641 902.356630292 L 811.9286959681641 1039.5723380119998 L 795.593492668164 1039.5723380119998 L 795.593492668164 902.356630292" stroke-miterlimit="10" stroke-width="1.3612669416666667" stroke-dasharray=""/><path fill="white" stroke="black" paint-order="fill stroke markers" d=" M 1162.7155352602513 948.0951995319999 L 1179.0507385602514 948.0951995319999 L 1179.0507385602514 993.8337687719999 L 1162.7155352602513 993.8337687719999 L 1162.7155352602513 948.0951995319999" stroke-miterlimit="10" stroke-width="1.3612669416666667" stroke-dasharray=""/><path fill="white" stroke="black" paint-order="fill stroke markers" d=" M 795.593492668164 1281.333346852 L 811.9286959681641 1281.333346852 L 811.9286959681641 1418.5490545720002 L 795.593492668164 1418.5490545720002 L 795.593492668164 1281.333346852" stroke-miterlimit="10" stroke-width="1.3612669416666667" stroke-dasharray=""/><path fill="white" stroke="black" paint-order="fill stroke markers" d=" M 1162.7155352602513 1327.071916092 L 1179.0507385602514 1327.071916092 L 1179.0507385602514 1372.810485332 L 1162.7155352602513 1372.810485332 L 1162.7155352602513 1327.071916092" stroke-miterlimit="10" stroke-width="1.3612669416666667" stroke-dasharray=""/><path fill="white" stroke="black" paint-order="fill stroke markers" d=" M 997.157695710707 1464.2876238120002 L 1013.4928990107071 1464.2876238120002 L 1013.4928990107071 1601.5033315320004 L 997.157695710707 1601.5033315320004 L 997.157695710707 1464.2876238120002" stroke-miterlimit="10" stroke-width="1.3612669416666667" stroke-dasharray=""/><path fill="white" stroke="black" paint-order="fill stroke markers" d=" M 1162.7155352602513 1510.0261930520003 L 1179.0507385602514 1510.0261930520003 L 1179.0507385602514 1555.7647622920003 L 1162.7155352602513 1555.7647622920003 L 1162.7155352602513 1510.0261930520003" stroke-miterlimit="10" stroke-width="1.3612669416666667" stroke-dasharray=""/><path fill="white" stroke="black" paint-order="fill stroke markers" d=" M 997.157695710707 1647.2419007720005 L 1013.4928990107071 1647.2419007720005 L 1013.4928990107071 1784.4576084920006 L 997.157695710707 1784.4576084920006 L 997.157695710707 1647.2419007720005" stroke-miterlimit="10" stroke-width="1.3612669416666667" stroke-dasharray=""/><path fill="white" stroke="black" paint-order="fill stroke markers" d=" M 1162.7155352602513 1692.9804700120005 L 1179.0507385602514 1692.9804700120005 L 1179.0507385602514 1738.7190392520006 L 1162.7155352602513 1738.7190392520006 L 1162.7155352602513 1692.9804700120005" stroke-miterlimit="10" stroke-width="1.3612669416666667" stroke-dasharray=""/><g><g><rect fill="white" stroke="none" x="132.39836305516278" y="162.371920802" width="176.56120552125" height="21.23576429"/></g><text fill="black" stroke="none" font-family="sans-serif" font-size="11pt" font-style="normal" font-weight="normal" text-decoration="normal" x="134.84864355016276" y="177.07360377199998" text-anchor="start" dominant-baseline="alphabetic" xml:space="preserve">Go to Workspace list page</text></g><g><path fill="none" stroke="black" paint-order="fill stroke markers" d=" M 89.84361815 183.607685092 L 338.0649960979089 183.607685092" stroke-miterlimit="10" stroke-width="1.3612669416666667" stroke-dasharray=""/><g transform="translate(351.5143134815755,183.607685092) translate(-351.5143134815755,-183.607685092)"><path fill="black" stroke="none" paint-order="stroke fill markers" d=" M 337.90164406490885 176.80135038366666 L 351.5143134815755 183.607685092 L 337.90164406490885 190.41401980033334 Z"/></g></g><g><g><rect fill="white" stroke="none" x="117.33036989110026" y="208.110490042" width="206.697191849375" height="21.23576429"/></g><text fill="black" stroke="none" font-family="sans-serif" font-size="11pt" font-style="normal" font-weight="normal" text-decoration="normal" x="119.78065038610026" y="222.812173012" text-anchor="start" dominant-baseline="alphabetic" xml:space="preserve">Click Create Workspace button</text></g><g><path fill="none" stroke="black" paint-order="fill stroke markers" d=" M 89.84361815 229.346254332 L 338.0649960979089 229.346254332" stroke-miterlimit="10" stroke-width="1.3612669416666667" stroke-dasharray=""/><g transform="translate(351.5143134815755,229.346254332) translate(-351.5143134815755,-229.346254332)"><path fill="black" stroke="none" paint-order="stroke fill markers" d=" M 337.90164406490885 222.53991962366666 L 351.5143134815755 229.346254332 L 337.90164406490885 236.15258904033334 Z"/></g></g><g><g><rect fill="white" stroke="none" x="109.17360872166667" y="253.849059282" width="223.0107141882422" height="21.23576429"/></g><text fill="black" stroke="none" font-family="sans-serif" font-size="11pt" font-style="normal" font-weight="normal" text-decoration="normal" x="111.62388921666667" y="268.550742252" text-anchor="start" dominant-baseline="alphabetic" xml:space="preserve">Display Create Workspace popup</text></g><g><path fill="none" stroke="black" paint-order="fill stroke markers" d=" M 351.5143134815755 275.084823572 L 103.29293553366666 275.084823572" stroke-miterlimit="10" stroke-width="1.3612669416666667" stroke-dasharray="6.53408132"/><g transform="translate(89.84361815,275.084823572) translate(-89.84361815,-275.084823572)"><path fill="black" stroke="none" paint-order="stroke fill markers" d=" M 103.45628756666666 268.27848886366667 L 89.84361815 275.084823572 L 103.45628756666666 281.89115828033334 Z"/></g></g><g><g><rect fill="white" stroke="none" x="117.3267917050651" y="299.587628522" width="206.70434822144531" height="21.23576429"/></g><text fill="black" stroke="none" font-family="sans-serif" font-size="11pt" font-style="normal" font-weight="normal" text-decoration="normal" x="119.7770722000651" y="314.28931149199997" text-anchor="start" dominant-baseline="alphabetic" xml:space="preserve">Type information of Workspace</text></g><g><path fill="none" stroke="black" paint-order="fill stroke markers" d=" M 89.84361815 320.823392812 L 338.0649960979089 320.823392812" stroke-miterlimit="10" stroke-width="1.3612669416666667" stroke-dasharray=""/><g transform="translate(351.5143134815755,320.823392812) translate(-351.5143134815755,-320.823392812)"><path fill="black" stroke="none" paint-order="stroke fill markers" d=" M 337.90164406490885 314.01705810366667 L 351.5143134815755 320.823392812 L 337.90164406490885 327.62972752033335 Z"/></g></g><g><g><rect fill="white" stroke="none" x="395.34710900324217" y="345.32619776200005" width="125.25842536988281" height="21.23576429"/></g><text fill="black" stroke="none" font-family="sans-serif" font-size="11pt" font-style="normal" font-weight="normal" text-decoration="normal" x="397.7973894982422" y="360.027880732" text-anchor="start" dominant-baseline="alphabetic" xml:space="preserve">Validate input data</text></g><g><path fill="none" stroke="black" paint-order="fill stroke markers" d=" M 367.8495167815755 366.561962052 L 441.3579316315755 366.561962052 L 441.3579316315755 387.79772634200003 L 389.46643581524216 387.79772634200003" stroke-miterlimit="10" stroke-width="1.3612669416666667" stroke-dasharray=""/><g transform="translate(376.0171184315755,387.79772634200003) translate(-376.0171184315755,-387.79772634200003)"><path fill="black" stroke="none" paint-order="stroke fill markers" d=" M 389.6297878482422 380.9913916336667 L 376.0171184315755 387.79772634200003 L 389.6297878482422 394.60406105033337 Z"/></g></g><g><g><rect fill="white" stroke="none" x="395.34710900324217" y="412.300531292" width="95.90982307496094" height="21.23576429"/></g><text fill="black" stroke="none" font-family="sans-serif" font-size="11pt" font-style="normal" font-weight="normal" text-decoration="normal" x="397.7973894982422" y="427.002214262" text-anchor="start" dominant-baseline="alphabetic" xml:space="preserve">Validate value</text></g><g><path fill="none" stroke="black" paint-order="fill stroke markers" d=" M 376.0171184315755 433.536295582 L 441.3579316315755 433.536295582 L 441.3579316315755 454.772059872 L 381.29883416524217 454.772059872" stroke-miterlimit="10" stroke-width="1.3612669416666667" stroke-dasharray="6.53408132"/><g transform="translate(367.8495167815755,454.772059872) translate(-367.8495167815755,-454.772059872)"><path fill="black" stroke="none" paint-order="stroke fill markers" d=" M 381.4621861982422 447.96572516366666 L 367.8495167815755 454.772059872 L 381.4621861982422 461.57839458033334 Z"/></g></g><g><g><rect fill="white" stroke="none" x="160.50501436131512" y="523.379913732" width="120.34790290894531" height="21.23576429"/></g><text fill="black" stroke="none" font-family="sans-serif" font-size="11pt" font-style="normal" font-weight="normal" text-decoration="normal" x="162.9552948563151" y="538.081596702" text-anchor="start" dominant-baseline="alphabetic" xml:space="preserve">Validate Message</text></g><g><path fill="none" stroke="black" paint-order="fill stroke markers" d=" M 351.5143134815755 544.615678022 L 103.29293553366666 544.615678022" stroke-miterlimit="10" stroke-width="1.3612669416666667" stroke-dasharray="6.53408132"/><g transform="translate(89.84361815,544.615678022) translate(-89.84361815,-544.615678022)"><path fill="black" stroke="none" paint-order="stroke fill markers" d=" M 103.45628756666666 537.8093433136667 L 89.84361815 544.615678022 L 103.45628756666666 551.4220127303333 Z"/></g></g><g><g><rect fill="white" stroke="none" x="161.18862337010418" y="593.621287922" width="118.98068489136719" height="21.23576429"/></g><text fill="black" stroke="none" font-family="sans-serif" font-size="11pt" font-style="normal" font-weight="normal" text-decoration="normal" x="163.63890386510417" y="608.322970892" text-anchor="start" dominant-baseline="alphabetic" xml:space="preserve">Click button Save</text></g><g><path fill="none" stroke="black" paint-order="fill stroke markers" d=" M 89.84361815 614.857052212 L 338.0649960979089 614.857052212" stroke-miterlimit="10" stroke-width="1.3612669416666667" stroke-dasharray=""/><g transform="translate(351.5143134815755,614.857052212) translate(-351.5143134815755,-614.857052212)"><path fill="black" stroke="none" paint-order="stroke fill markers" d=" M 337.90164406490885 608.0507175036666 L 351.5143134815755 614.857052212 L 337.90164406490885 621.6633869203333 Z"/></g></g><g><g><rect fill="white" stroke="none" x="401.8574091303906" y="639.3598571619999" width="149.11670173707031" height="21.23576429"/></g><text fill="black" stroke="none" font-family="sans-serif" font-size="11pt" font-style="normal" font-weight="normal" text-decoration="normal" x="404.3076896253906" y="654.0615401319999" text-anchor="start" dominant-baseline="alphabetic" xml:space="preserve">POST: /api/workspace</text></g><g><path fill="none" stroke="black" paint-order="fill stroke markers" d=" M 367.8495167815755 660.5956214519999 L 571.5326858326093 660.5956214519999" stroke-miterlimit="10" stroke-width="1.3612669416666667" stroke-dasharray=""/><g transform="translate(584.982003216276,660.5956214519999) translate(-584.982003216276,-660.5956214519999)"><path fill="black" stroke="none" paint-order="stroke fill markers" d=" M 571.3693337996093 653.7892867436666 L 584.982003216276 660.5956214519999 L 571.3693337996093 667.4019561603333 Z"/></g></g><g><g><rect fill="white" stroke="none" x="391.26330817824214" y="729.203475312" width="149.11673225464844" height="21.23576429"/></g><g><rect fill="white" stroke="none" x="391.26330817824214" y="745.538678612" width="170.3049036413672" height="21.23576429"/></g><text fill="red" stroke="none" font-family="sans-serif" font-size="11pt" font-style="normal" font-weight="normal" text-decoration="normal" x="393.71358867324216" y="743.905158282" text-anchor="start" dominant-baseline="alphabetic" xml:space="preserve">400 BAD_REQUEST: </text><text fill="red" stroke="none" font-family="sans-serif" font-size="11pt" font-style="normal" font-weight="normal" text-decoration="normal" x="393.71358867324216" y="760.240361582" text-anchor="start" dominant-baseline="alphabetic" xml:space="preserve">Missing required property</text></g><g><path fill="none" stroke="black" paint-order="fill stroke markers" d=" M 584.982003216276 766.774442902 L 381.29883416524217 766.774442902" stroke-miterlimit="10" stroke-width="1.3612669416666667" stroke-dasharray="6.53408132"/><g transform="translate(367.8495167815755,766.774442902) translate(-367.8495167815755,-766.774442902)"><path fill="black" stroke="none" paint-order="stroke fill markers" d=" M 381.4621861982422 759.9681081936667 L 367.8495167815755 766.774442902 L 381.4621861982422 773.5807776103334 Z"/></g></g><g><g><rect fill="white" stroke="none" x="152.22657197850262" y="791.277247852" width="136.90478767457031" height="21.23576429"/></g><text fill="black" stroke="none" font-family="sans-serif" font-size="11pt" font-style="normal" font-weight="normal" text-decoration="normal" x="154.6768524735026" y="805.9789308219999" text-anchor="start" dominant-baseline="alphabetic" xml:space="preserve">Message is required</text></g><g><path fill="none" stroke="black" paint-order="fill stroke markers" d=" M 351.5143134815755 812.513012142 L 103.29293553366666 812.513012142" stroke-miterlimit="10" stroke-width="1.3612669416666667" stroke-dasharray="6.53408132"/><g transform="translate(89.84361815,812.513012142) translate(-89.84361815,-812.513012142)"><path fill="black" stroke="none" paint-order="stroke fill markers" d=" M 103.45628756666666 805.7066774336666 L 89.84361815 812.513012142 L 103.45628756666666 819.3193468503333 Z"/></g></g><g><g><rect fill="white" stroke="none" x="620.6471970879427" y="881.120866002" width="155.6163050085547" height="21.23576429"/></g><text fill="black" stroke="none" font-family="sans-serif" font-size="11pt" font-style="normal" font-weight="normal" text-decoration="normal" x="623.0974775829427" y="895.8225489719999" text-anchor="start" dominant-baseline="alphabetic" xml:space="preserve">isDomainExist(domain)</text></g><g><path fill="none" stroke="black" paint-order="fill stroke markers" d=" M 601.3172065162761 902.356630292 L 782.1441752844974 902.356630292" stroke-miterlimit="10" stroke-width="1.3612669416666667" stroke-dasharray=""/><g transform="translate(795.593492668164,902.356630292) translate(-795.593492668164,-902.356630292)"><path fill="black" stroke="none" paint-order="stroke fill markers" d=" M 781.9808232514973 895.5502955836666 L 795.593492668164 902.356630292 L 781.9808232514973 909.1629650003333 Z"/></g></g><g><g><rect fill="white" stroke="none" x="909.5139631099303" y="926.8594352419999" width="155.6163050085547" height="21.23576429"/></g><text fill="black" stroke="none" font-family="sans-serif" font-size="11pt" font-style="normal" font-weight="normal" text-decoration="normal" x="911.9642436049303" y="941.5611182119999" text-anchor="start" dominant-baseline="alphabetic" xml:space="preserve">isDomainExist(domain)</text></g><g><path fill="none" stroke="black" paint-order="fill stroke markers" d=" M 811.9286959681641 948.0951995319999 L 1149.2662178765845 948.0951995319999" stroke-miterlimit="10" stroke-width="1.3612669416666667" stroke-dasharray=""/><g transform="translate(1162.7155352602513,948.0951995319999) translate(-1162.7155352602513,-948.0951995319999)"><path fill="black" stroke="none" paint-order="stroke fill markers" d=" M 1149.1028658435846 941.2888648236666 L 1162.7155352602513 948.0951995319999 L 1149.1028658435846 954.9015342403333 Z"/></g></g><g><g><rect fill="white" stroke="none" x="938.4115842647154" y="972.5980044819999" width="97.82106269898438" height="21.23576429"/></g><text fill="black" stroke="none" font-family="sans-serif" font-size="11pt" font-style="normal" font-weight="normal" text-decoration="normal" x="940.8618647597154" y="987.2996874519998" text-anchor="start" dominant-baseline="alphabetic" xml:space="preserve">Boolean value</text></g><g><path fill="none" stroke="black" paint-order="fill stroke markers" d=" M 1162.7155352602513 993.8337687719999 L 825.3780133518308 993.8337687719999" stroke-miterlimit="10" stroke-width="1.3612669416666667" stroke-dasharray="6.53408132"/><g transform="translate(811.9286959681641,993.8337687719999) translate(-811.9286959681641,-993.8337687719999)"><path fill="black" stroke="none" paint-order="stroke fill markers" d=" M 825.5413653848308 987.0274340636665 L 811.9286959681641 993.8337687719999 L 825.5413653848308 1000.6401034803332 Z"/></g></g><g><g><rect fill="white" stroke="none" x="649.5448182427278" y="1018.3365737219998" width="97.82106269898438" height="21.23576429"/></g><text fill="black" stroke="none" font-family="sans-serif" font-size="11pt" font-style="normal" font-weight="normal" text-decoration="normal" x="651.9950987377279" y="1033.0382566919998" text-anchor="start" dominant-baseline="alphabetic" xml:space="preserve">Boolean value</text></g><g><path fill="none" stroke="black" paint-order="fill stroke markers" d=" M 795.593492668164 1039.5723380119998 L 614.7665238999427 1039.5723380119998" stroke-miterlimit="10" stroke-width="1.3612669416666667" stroke-dasharray="6.53408132"/><g transform="translate(601.3172065162761,1039.5723380119998) translate(-601.3172065162761,-1039.5723380119998)"><path fill="black" stroke="none" paint-order="stroke fill markers" d=" M 614.9298759329428 1032.7660033036666 L 601.3172065162761 1039.5723380119998 L 614.9298759329428 1046.378672720333 Z"/></g></g><g><g><rect fill="white" stroke="none" x="401.8573938716015" y="1108.1801918719998" width="149.11673225464844" height="21.23576429"/></g><g><rect fill="white" stroke="none" x="401.8573938716015" y="1124.515395172" width="113.29709114136719" height="21.23576429"/></g><text fill="red" stroke="none" font-family="sans-serif" font-size="11pt" font-style="normal" font-weight="normal" text-decoration="normal" x="404.30767436660153" y="1122.881874842" text-anchor="start" dominant-baseline="alphabetic" xml:space="preserve">400 BAD_REQUEST: </text><text fill="red" stroke="none" font-family="sans-serif" font-size="11pt" font-style="normal" font-weight="normal" text-decoration="normal" x="404.30767436660153" y="1139.217078142" text-anchor="start" dominant-baseline="alphabetic" xml:space="preserve">{domain} is used</text></g><g><path fill="none" stroke="black" paint-order="fill stroke markers" d=" M 584.982003216276 1145.7511594619998 L 381.29883416524217 1145.7511594619998" stroke-miterlimit="10" stroke-width="1.3612669416666667" stroke-dasharray="6.53408132"/><g transform="translate(367.8495167815755,1145.7511594619998) translate(-367.8495167815755,-1145.7511594619998)"><path fill="black" stroke="none" paint-order="stroke fill markers" d=" M 381.4621861982422 1138.9448247536666 L 367.8495167815755 1145.7511594619998 L 381.4621861982422 1152.557494170333 Z"/></g></g><g><g><rect fill="white" stroke="none" x="164.03042024510418" y="1170.253964412" width="113.29709114136719" height="21.23576429"/></g><text fill="black" stroke="none" font-family="sans-serif" font-size="11pt" font-style="normal" font-weight="normal" text-decoration="normal" x="166.48070074010417" y="1184.955647382" text-anchor="start" dominant-baseline="alphabetic" xml:space="preserve">{domain} is used</text></g><g><path fill="none" stroke="black" paint-order="fill stroke markers" d=" M 351.5143134815755 1191.4897287019999 L 103.29293553366666 1191.4897287019999" stroke-miterlimit="10" stroke-width="1.3612669416666667" stroke-dasharray="6.53408132"/><g transform="translate(89.84361815,1191.4897287019999) translate(-89.84361815,-1191.4897287019999)"><path fill="black" stroke="none" paint-order="stroke fill markers" d=" M 103.45628756666666 1184.6833939936666 L 89.84361815 1191.4897287019999 L 103.45628756666666 1198.296063410333 Z"/></g></g><g><g><rect fill="white" stroke="none" x="675.6400178276888" y="1260.097582562" width="45.6306635290625" height="21.23576429"/></g><text fill="black" stroke="none" font-family="sans-serif" font-size="11pt" font-style="normal" font-weight="normal" text-decoration="normal" x="678.0902983226888" y="1274.7992655320002" text-anchor="start" dominant-baseline="alphabetic" xml:space="preserve">save()</text></g><g><path fill="none" stroke="black" paint-order="fill stroke markers" d=" M 601.3172065162761 1281.333346852 L 782.1441752844974 1281.333346852" stroke-miterlimit="10" stroke-width="1.3612669416666667" stroke-dasharray=""/><g transform="translate(795.593492668164,1281.333346852) translate(-795.593492668164,-1281.333346852)"><path fill="black" stroke="none" paint-order="stroke fill markers" d=" M 781.9808232514973 1274.5270121436668 L 795.593492668164 1281.333346852 L 781.9808232514973 1288.1396815603332 Z"/></g></g><g><g><rect fill="white" stroke="none" x="924.3063596553404" y="1305.8361518020001" width="126.03151191773438" height="21.23576429"/></g><text fill="black" stroke="none" font-family="sans-serif" font-size="11pt" font-style="normal" font-weight="normal" text-decoration="normal" x="926.7566401503404" y="1320.5378347720002" text-anchor="start" dominant-baseline="alphabetic" xml:space="preserve">Create Workspace</text></g><g><path fill="none" stroke="black" paint-order="fill stroke markers" d=" M 811.9286959681641 1327.071916092 L 1149.2662178765845 1327.071916092" stroke-miterlimit="10" stroke-width="1.3612669416666667" stroke-dasharray=""/><g transform="translate(1162.7155352602513,1327.071916092) translate(-1162.7155352602513,-1327.071916092)"><path fill="black" stroke="none" paint-order="stroke fill markers" d=" M 1149.1028658435846 1320.2655813836668 L 1162.7155352602513 1327.071916092 L 1149.1028658435846 1333.8782508003333 Z"/></g></g><g><g><rect fill="white" stroke="none" x="932.0407880611021" y="1351.5747210420002" width="110.56265510621094" height="21.23576429"/></g><text fill="black" stroke="none" font-family="sans-serif" font-size="11pt" font-style="normal" font-weight="normal" text-decoration="normal" x="934.4910685561022" y="1366.2764040120003" text-anchor="start" dominant-baseline="alphabetic" xml:space="preserve">Workspace data</text></g><g><path fill="none" stroke="black" paint-order="fill stroke markers" d=" M 1162.7155352602513 1372.810485332 L 825.3780133518308 1372.810485332" stroke-miterlimit="10" stroke-width="1.3612669416666667" stroke-dasharray="6.53408132"/><g transform="translate(811.9286959681641,1372.810485332) translate(-811.9286959681641,-1372.810485332)"><path fill="black" stroke="none" paint-order="stroke fill markers" d=" M 825.5413653848308 1366.0041506236669 L 811.9286959681641 1372.810485332 L 825.5413653848308 1379.6168200403333 Z"/></g></g><g><g><rect fill="white" stroke="none" x="644.6700776421419" y="1397.3132902820003" width="107.57054390015625" height="21.23576429"/></g><text fill="black" stroke="none" font-family="sans-serif" font-size="11pt" font-style="normal" font-weight="normal" text-decoration="normal" x="647.1203581371419" y="1412.0149732520003" text-anchor="start" dominant-baseline="alphabetic" xml:space="preserve">New Entity data</text></g><g><path fill="none" stroke="black" paint-order="fill stroke markers" d=" M 795.593492668164 1418.5490545720002 L 614.7665238999427 1418.5490545720002" stroke-miterlimit="10" stroke-width="1.3612669416666667" stroke-dasharray="6.53408132"/><g transform="translate(601.3172065162761,1418.5490545720002) translate(-601.3172065162761,-1418.5490545720002)"><path fill="black" stroke="none" paint-order="stroke fill markers" d=" M 614.9298759329428 1411.742719863667 L 601.3172065162761 1418.5490545720002 L 614.9298759329428 1425.3553892803334 Z"/></g></g><g><g><rect fill="white" stroke="none" x="760.9461061653665" y="1443.0518595220003" width="76.58268989625" height="21.23576429"/></g><text fill="black" stroke="none" font-family="sans-serif" font-size="11pt" font-style="normal" font-weight="normal" text-decoration="normal" x="763.3963866603665" y="1457.7535424920004" text-anchor="start" dominant-baseline="alphabetic" xml:space="preserve">saveUser()</text></g><g><path fill="none" stroke="black" paint-order="fill stroke markers" d=" M 601.3172065162761 1464.2876238120002 L 983.7083783270404 1464.2876238120002" stroke-miterlimit="10" stroke-width="1.3612669416666667" stroke-dasharray=""/><g transform="translate(997.157695710707,1464.2876238120002) translate(-997.157695710707,-1464.2876238120002)"><path fill="black" stroke="none" paint-order="stroke fill markers" d=" M 983.5450262940403 1457.481289103667 L 997.157695710707 1464.2876238120002 L 983.5450262940403 1471.0939585203334 Z"/></g></g><g><g><rect fill="white" stroke="none" x="1065.288885370948" y="1488.7904287620004" width="45.6306635290625" height="21.23576429"/></g><text fill="black" stroke="none" font-family="sans-serif" font-size="11pt" font-style="normal" font-weight="normal" text-decoration="normal" x="1067.739165865948" y="1503.4921117320005" text-anchor="start" dominant-baseline="alphabetic" xml:space="preserve">save()</text></g><g><path fill="none" stroke="black" paint-order="fill stroke markers" d=" M 1013.4928990107071 1510.0261930520003 L 1149.2662178765845 1510.0261930520003" stroke-miterlimit="10" stroke-width="1.3612669416666667" stroke-dasharray=""/><g transform="translate(1162.7155352602513,1510.0261930520003) translate(-1162.7155352602513,-1510.0261930520003)"><path fill="black" stroke="none" paint-order="stroke fill markers" d=" M 1149.1028658435846 1503.219858343667 L 1162.7155352602513 1510.0261930520003 L 1149.1028658435846 1516.8325277603335 Z"/></g></g><g><g><rect fill="white" stroke="none" x="1053.8751356761238" y="1534.5289980020004" width="68.45816291871094" height="21.23576429"/></g><text fill="black" stroke="none" font-family="sans-serif" font-size="11pt" font-style="normal" font-weight="normal" text-decoration="normal" x="1056.3254161711238" y="1549.2306809720005" text-anchor="start" dominant-baseline="alphabetic" xml:space="preserve">User data</text></g><g><path fill="none" stroke="black" paint-order="fill stroke markers" d=" M 1162.7155352602513 1555.7647622920003 L 1026.9422163943739 1555.7647622920003" stroke-miterlimit="10" stroke-width="1.3612669416666667" stroke-dasharray="6.53408132"/><g transform="translate(1013.4928990107071,1555.7647622920003) translate(-1013.4928990107071,-1555.7647622920003)"><path fill="black" stroke="none" paint-order="stroke fill markers" d=" M 1027.1055684273738 1548.9584275836671 L 1013.4928990107071 1555.7647622920003 L 1027.1055684273738 1562.5710970003336 Z"/></g></g><g><g><rect fill="white" stroke="none" x="765.008369654136" y="1580.2675672420005" width="68.45816291871094" height="21.23576429"/></g><text fill="black" stroke="none" font-family="sans-serif" font-size="11pt" font-style="normal" font-weight="normal" text-decoration="normal" x="767.458650149136" y="1594.9692502120006" text-anchor="start" dominant-baseline="alphabetic" xml:space="preserve">User data</text></g><g><path fill="none" stroke="black" paint-order="fill stroke markers" d=" M 997.157695710707 1601.5033315320004 L 614.7665238999427 1601.5033315320004" stroke-miterlimit="10" stroke-width="1.3612669416666667" stroke-dasharray="6.53408132"/><g transform="translate(601.3172065162761,1601.5033315320004) translate(-601.3172065162761,-1601.5033315320004)"><path fill="black" stroke="none" paint-order="stroke fill markers" d=" M 614.9298759329428 1594.6969968236672 L 601.3172065162761 1601.5033315320004 L 614.9298759329428 1608.3096662403336 Z"/></g></g><g><g><rect fill="white" stroke="none" x="739.8938600716165" y="1626.0061364820006" width="118.68718208375" height="21.23576429"/></g><text fill="black" stroke="none" font-family="sans-serif" font-size="11pt" font-style="normal" font-weight="normal" text-decoration="normal" x="742.3441405666165" y="1640.7078194520006" text-anchor="start" dominant-baseline="alphabetic" xml:space="preserve">saveWorkspace()</text></g><g><path fill="none" stroke="black" paint-order="fill stroke markers" d=" M 601.3172065162761 1647.2419007720005 L 983.7083783270404 1647.2419007720005" stroke-miterlimit="10" stroke-width="1.3612669416666667" stroke-dasharray=""/><g transform="translate(997.157695710707,1647.2419007720005) translate(-997.157695710707,-1647.2419007720005)"><path fill="black" stroke="none" paint-order="stroke fill markers" d=" M 983.5450262940403 1640.4355660636672 L 997.157695710707 1647.2419007720005 L 983.5450262940403 1654.0482354803337 Z"/></g></g><g><g><rect fill="white" stroke="none" x="1065.288885370948" y="1671.7447057220006" width="45.6306635290625" height="21.23576429"/></g><text fill="black" stroke="none" font-family="sans-serif" font-size="11pt" font-style="normal" font-weight="normal" text-decoration="normal" x="1067.739165865948" y="1686.4463886920007" text-anchor="start" dominant-baseline="alphabetic" xml:space="preserve">save()</text></g><g><path fill="none" stroke="black" paint-order="fill stroke markers" d=" M 1013.4928990107071 1692.9804700120005 L 1149.2662178765845 1692.9804700120005" stroke-miterlimit="10" stroke-width="1.3612669416666667" stroke-dasharray=""/><g transform="translate(1162.7155352602513,1692.9804700120005) translate(-1162.7155352602513,-1692.9804700120005)"><path fill="black" stroke="none" paint-order="stroke fill markers" d=" M 1149.1028658435846 1686.1741353036673 L 1162.7155352602513 1692.9804700120005 L 1149.1028658435846 1699.7868047203337 Z"/></g></g><g><g><rect fill="white" stroke="none" x="1032.8228895823738" y="1717.4832749620007" width="110.56265510621094" height="21.23576429"/></g><text fill="black" stroke="none" font-family="sans-serif" font-size="11pt" font-style="normal" font-weight="normal" text-decoration="normal" x="1035.2731700773738" y="1732.1849579320008" text-anchor="start" dominant-baseline="alphabetic" xml:space="preserve">Workspace data</text></g><g><path fill="none" stroke="black" paint-order="fill stroke markers" d=" M 1162.7155352602513 1738.7190392520006 L 1026.9422163943739 1738.7190392520006" stroke-miterlimit="10" stroke-width="1.3612669416666667" stroke-dasharray="6.53408132"/><g transform="translate(1013.4928990107071,1738.7190392520006) translate(-1013.4928990107071,-1738.7190392520006)"><path fill="black" stroke="none" paint-order="stroke fill markers" d=" M 1027.1055684273738 1731.9127045436674 L 1013.4928990107071 1738.7190392520006 L 1027.1055684273738 1745.5253739603338 Z"/></g></g><g><g><rect fill="white" stroke="none" x="743.956123560386" y="1763.2218442020007" width="110.56265510621094" height="21.23576429"/></g><text fill="black" stroke="none" font-family="sans-serif" font-size="11pt" font-style="normal" font-weight="normal" text-decoration="normal" x="746.406404055386" y="1777.9235271720008" text-anchor="start" dominant-baseline="alphabetic" xml:space="preserve">Workspace data</text></g><g><path fill="none" stroke="black" paint-order="fill stroke markers" d=" M 997.157695710707 1784.4576084920006 L 614.7665238999427 1784.4576084920006" stroke-miterlimit="10" stroke-width="1.3612669416666667" stroke-dasharray="6.53408132"/><g transform="translate(601.3172065162761,1784.4576084920006) translate(-601.3172065162761,-1784.4576084920006)"><path fill="black" stroke="none" paint-order="stroke fill markers" d=" M 614.9298759329428 1777.6512737836674 L 601.3172065162761 1784.4576084920006 L 614.9298759329428 1791.2639432003339 Z"/></g></g><g><g><rect fill="white" stroke="none" x="410.55459846144527" y="1808.9604134420008" width="131.72232307496094" height="21.23576429"/></g><text fill="green" stroke="none" font-family="sans-serif" font-size="11pt" font-style="normal" font-weight="normal" text-decoration="normal" x="413.0048789564453" y="1823.662096412001" text-anchor="start" dominant-baseline="alphabetic" xml:space="preserve">201 OK: CREATED</text></g><g><path fill="none" stroke="black" paint-order="fill stroke markers" d=" M 584.982003216276 1830.1961777320007 L 381.29883416524217 1830.1961777320007" stroke-miterlimit="10" stroke-width="1.3612669416666667" stroke-dasharray="6.53408132"/><g transform="translate(367.8495167815755,1830.1961777320007) translate(-367.8495167815755,-1830.1961777320007)"><path fill="black" stroke="none" paint-order="stroke fill markers" d=" M 381.4621861982422 1823.3898430236675 L 367.8495167815755 1830.1961777320007 L 381.4621861982422 1837.002512440334 Z"/></g></g><g><g><rect fill="white" stroke="none" x="142.86365693944012" y="1854.6989826820006" width="155.63061775269531" height="21.23576429"/></g><g><rect fill="white" stroke="none" x="142.86365693944012" y="1871.0341859820007" width="139.06659187378906" height="21.23576429"/></g><text fill="black" stroke="none" font-family="sans-serif" font-size="11pt" font-style="normal" font-weight="normal" text-decoration="normal" x="145.3139374344401" y="1869.4006656520007" text-anchor="start" dominant-baseline="alphabetic" xml:space="preserve">Display Entity list table </text><text fill="black" stroke="none" font-family="sans-serif" font-size="11pt" font-style="normal" font-weight="normal" text-decoration="normal" x="145.3139374344401" y="1885.7358689520008" text-anchor="start" dominant-baseline="alphabetic" xml:space="preserve">with new Workspace</text></g><g><path fill="none" stroke="black" paint-order="fill stroke markers" d=" M 351.5143134815755 1892.2699502720006 L 103.29293553366666 1892.2699502720006" stroke-miterlimit="10" stroke-width="1.3612669416666667" stroke-dasharray="6.53408132"/><g transform="translate(89.84361815,1892.2699502720006) translate(-89.84361815,-1892.2699502720006)"><path fill="black" stroke="none" paint-order="stroke fill markers" d=" M 103.45628756666666 1885.4636155636674 L 89.84361815 1892.2699502720006 L 103.45628756666666 1899.0762849803339 Z"/></g></g><g><g/><path fill="none" stroke="black" paint-order="fill stroke markers" d=" M 32.6704066 479.274864822 L 416.85512668157554 479.274864822 L 416.85512668157554 569.118482972 L 32.6704066 569.118482972 L 32.6704066 479.274864822 Z" stroke-miterlimit="10" stroke-width="2.3336004714285714" stroke-dasharray=""/><path fill="white" stroke="black" paint-order="fill stroke markers" d=" M 32.6704066 479.274864822 L 32.6704066 498.877108782 L 79.02961019707031 498.877108782 L 88.83073217707032 489.075986802 L 88.83073217707032 479.274864822 L 32.6704066 479.274864822" stroke-miterlimit="10" stroke-width="2.3336004714285714" stroke-dasharray=""/><text fill="black" stroke="none" font-family="sans-serif" font-size="8.8pt" font-style="normal" font-weight="bold" text-decoration="normal" x="49.005609899999996" y="492.343027462" text-anchor="start" dominant-baseline="alphabetic" xml:space="preserve">alt</text><g><rect fill="white" stroke="none" x="102.71565498207032" y="480.581681086" width="151.5138880163672" height="16.988611432000003"/></g><text fill="black" stroke="none" font-family="sans-serif" font-size="8.8pt" font-style="normal" font-weight="bold" text-decoration="normal" x="105.16593547707032" y="492.343027462" text-anchor="start" dominant-baseline="alphabetic" xml:space="preserve">[If the input data is wrong]</text></g><g><g/><path fill="none" stroke="black" paint-order="fill stroke markers" d=" M 16.335203300000003 685.098426402 L 1244.3915517602513 685.098426402 L 1244.3915517602513 1941.2755601720005 L 16.335203300000003 1941.2755601720005 L 16.335203300000003 685.098426402 Z" stroke-miterlimit="10" stroke-width="2.3336004714285714" stroke-dasharray=""/><path fill="white" stroke="black" paint-order="fill stroke markers" d=" M 16.335203300000003 685.098426402 L 16.335203300000003 704.700670362 L 62.694406897070316 704.700670362 L 72.49552887707031 694.8995483819999 L 72.49552887707031 685.098426402 L 16.335203300000003 685.098426402" stroke-miterlimit="10" stroke-width="2.3336004714285714" stroke-dasharray=""/><text fill="black" stroke="none" font-family="sans-serif" font-size="8.8pt" font-style="normal" font-weight="bold" text-decoration="normal" x="32.67040660000001" y="698.1665890419999" text-anchor="start" dominant-baseline="alphabetic" xml:space="preserve">alt</text><g><rect fill="white" stroke="none" x="86.38045168207032" y="686.4052426659999" width="244.7581049353125" height="16.988611432000003"/></g><text fill="black" stroke="none" font-family="sans-serif" font-size="8.8pt" font-style="normal" font-weight="bold" text-decoration="normal" x="88.83073217707032" y="698.1665890419999" text-anchor="start" dominant-baseline="alphabetic" xml:space="preserve">[If there is required field do not have value]</text><g><path fill="none" stroke="black" paint-order="fill stroke markers" d=" M 16.335203300000003 837.015817092 L 1244.3915517602513 837.015817092" stroke-miterlimit="10" stroke-width="2.3336004714285714" stroke-dasharray="4.083800825"/></g><g/><g><rect fill="white" stroke="none" x="86.38045168207032" y="838.322633356" width="36.84300483765625" height="16.988611432000003"/></g><text fill="black" stroke="none" font-family="sans-serif" font-size="8.8pt" font-style="normal" font-weight="bold" text-decoration="normal" x="88.83073217707032" y="850.083979732" text-anchor="start" dominant-baseline="alphabetic" xml:space="preserve">[Else]</text></g><g/><g><g/><path fill="none" stroke="black" paint-order="fill stroke markers" d=" M 32.6704066 1064.075142962 L 1228.0563484602512 1064.075142962 L 1228.0563484602512 1916.7727552220006 L 32.6704066 1916.7727552220006 L 32.6704066 1064.075142962 Z" stroke-miterlimit="10" stroke-width="2.3336004714285714" stroke-dasharray=""/><path fill="white" stroke="black" paint-order="fill stroke markers" d=" M 32.6704066 1064.075142962 L 32.6704066 1083.6773869219999 L 79.02961019707031 1083.6773869219999 L 88.83073217707032 1073.876264942 L 88.83073217707032 1064.075142962 L 32.6704066 1064.075142962" stroke-miterlimit="10" stroke-width="2.3336004714285714" stroke-dasharray=""/><text fill="black" stroke="none" font-family="sans-serif" font-size="8.8pt" font-style="normal" font-weight="bold" text-decoration="normal" x="49.005609899999996" y="1077.1433056019998" text-anchor="start" dominant-baseline="alphabetic" xml:space="preserve">alt</text><g><rect fill="white" stroke="none" x="102.71565498207032" y="1065.381959226" width="168.04933418335938" height="16.988611432000003"/></g><text fill="black" stroke="none" font-family="sans-serif" font-size="8.8pt" font-style="normal" font-weight="bold" text-decoration="normal" x="105.16593547707032" y="1077.1433056019998" text-anchor="start" dominant-baseline="alphabetic" xml:space="preserve">[If workspace's domain exist]</text><g><path fill="none" stroke="black" paint-order="fill stroke markers" d=" M 32.6704066 1215.992533652 L 1228.0563484602512 1215.992533652" stroke-miterlimit="10" stroke-width="2.3336004714285714" stroke-dasharray="4.083800825"/></g><g/><g><rect fill="white" stroke="none" x="102.71565498207032" y="1217.299349916" width="36.84300483765625" height="16.988611432000003"/></g><text fill="black" stroke="none" font-family="sans-serif" font-size="8.8pt" font-style="normal" font-weight="bold" text-decoration="normal" x="105.16593547707032" y="1229.0606962919999" text-anchor="start" dominant-baseline="alphabetic" xml:space="preserve">[Else]</text></g><g/></g></g></svg>