<svg version="1.1" xmlns="http://www.w3.org/2000/svg" xmlns:xlink="http://www.w3.org/1999/xlink" width="1228" height="1304"><desc>title%20Login%0A%0Aactor%20%23green%3A0.5%20%22User%22%20as%20w%0Aboundary%20%22Application%20Client%22%20as%20f%0Acontrol%20%22Workspace%20Controller%22%20as%20gc%0Aparticipant%20%22Authentication%20%5CnManager%22%20as%20gs%0Aparticipant%20%22Workspace%5CnService%22%20as%20ws%0Aparticipant%20%22JWT%5CnService%22%20as%20acs%0Aparticipant%20%22Refresh%20Token%5CnService%22%20as%20rts%0Adatabase%20%23blue%3A1%20%22Database%22%20as%20db%0A%0Aw-%3Ef%3AGo%20to%20Login%20page%0Aactivate%20f%0Aw-%3Ef%3AType%20login%20information%0Af-%3Ef%3AValidate%20input%20data%0Aactivate%20f%0Af--%3Ef%3A%20Validate%20value%0Adeactivate%20f%0Aalt%20If%20the%20input%20data%20is%20wrong%0Aw%3C--f%3AValidate%20Message%0Aend%0Aw-%3Ef%3A%20Click%20button%20Login%0Af-%3Egc%3APOST%3A%20%2Fathen%2Flogin%0Aactivate%20gc%0Aalt%20If%20there%20is%20required%20field%20do%20not%20have%20value%0Af%3C--gc%3A%3Ccolor%3A%23red%3E400%20BAD_REQUEST%3A%20%5CnMissing%20required%20property%3C%2Fcolor%3E%0Aw%3C--f%3AMessage%20is%20required%0Aelse%20Else%0A%0Agc-%3Egs%3Aauthenticate(domain)%0Aactivate%20gs%0Agc%3C--gs%3AAuthentication%0Adeactivate%20gs%0Agc-%3Ews%3AextractWorkspaceDomain()%0Aactivate%20ws%0Agc%3C--ws%3AworkspaceDomain%0Adeactivate%20ws%0A%0Agc-%3Eacs%3AgenerateToken()%0Aactivate%20acs%0Agc%3C--acs%3AJWT%20token%0Adeactivate%20acs%0A%0Agc-%3Erts%3AcreateRefreshToken()%0Aactivate%20rts%0Agc%3C--rts%3ARefresh%20token%0Adeactivate%20rts%0A%0Af%3C--gc%3A%3Ccolor%3A%23green%3E200%20OK%3A%20LoginResponse%3C%2Fcolor%3E%0Adeactivate%20gc%0Aw%3C--f%3A%20Redirect%20to%20User's%20app%0Adeactivate%20f%0Aend</desc><defs/><g><g/><g/><g/><g/><g/><g/><g/><g/><g/><g/><g/><g/><g/><g/><g/><g/><g/><g/><g/><g/><g/><g/><g/><g/><g/><g/><g/><g/><g/><g/><g/><g/><g><rect fill="white" stroke="none" x="0" y="0" width="1228" height="1304"/></g><g><text fill="black" stroke="none" font-family="sans-serif" font-size="16.5pt" font-style="normal" font-weight="normal" text-decoration="normal" x="587.4702911239375" y="24.50280495" text-anchor="start" dominant-baseline="alphabetic" xml:space="preserve">Login</text></g><g/><g><path fill="none" stroke="black" paint-order="fill stroke markers" d=" M 73.50841485 129.701514202 L 73.50841485 1304.2026314719997" stroke-miterlimit="10" stroke-width="1.3612669416666667" stroke-dasharray="12.565541,5.445067766666667"/><path fill="none" stroke="black" paint-order="fill stroke markers" d=" M 269.8105790190755 129.701514202 L 269.8105790190755 1304.2026314719997" stroke-miterlimit="10" stroke-width="1.3612669416666667" stroke-dasharray="12.565541,5.445067766666667"/><path fill="none" stroke="black" paint-order="fill stroke markers" d=" M 503.27826875377593 129.701514202 L 503.27826875377593 1304.2026314719997" stroke-miterlimit="10" stroke-width="1.3612669416666667" stroke-dasharray="12.565541,5.445067766666667"/><path fill="none" stroke="black" paint-order="fill stroke markers" d=" M 700.8976469996093 129.701514202 L 700.8976469996093 1304.2026314719997" stroke-miterlimit="10" stroke-width="1.3612669416666667" stroke-dasharray="12.565541,5.445067766666667"/><path fill="none" stroke="black" paint-order="fill stroke markers" d=" M 837.7016800592421 129.701514202 L 837.7016800592421 1304.2026314719997" stroke-miterlimit="10" stroke-width="1.3612669416666667" stroke-dasharray="12.565541,5.445067766666667"/><path fill="none" stroke="black" paint-order="fill stroke markers" d=" M 950.4541765588164 129.701514202 L 950.4541765588164 1304.2026314719997" stroke-miterlimit="10" stroke-width="1.3612669416666667" stroke-dasharray="12.565541,5.445067766666667"/><path fill="none" stroke="black" paint-order="fill stroke markers" d=" M 1073.940391930461 129.701514202 L 1073.940391930461 1304.2026314719997" stroke-miterlimit="10" stroke-width="1.3612669416666667" stroke-dasharray="12.565541,5.445067766666667"/><path fill="none" stroke="black" paint-order="fill stroke markers" d=" M 1187.931675560375 129.701514202 L 1187.931675560375 1304.2026314719997" stroke-miterlimit="10" stroke-width="1.3612669416666667" stroke-dasharray="12.565541,5.445067766666667"/></g><g><g><path fill="white" stroke="green" paint-order="fill stroke markers" d=" M 82.819480731 60.60360424300001 A 9.311065881 9.311065881 0 1 1 82.81947607546743 60.594293178670846 M 73.50841485 69.91467012400001 L 73.50841485 89.84361815000001 M 61.747068473999995 77.102159576 L 85.26976122599999 77.102159576 M 73.50841485 89.84361815000001 L 61.747068473999995 108.465749912 M 73.50841485 89.84361815000001 L 85.26976122599999 108.465749912" stroke-miterlimit="10" stroke-width="1.3884922805000002" stroke-dasharray=""/></g><g><text fill="black" stroke="none" font-family="sans-serif" font-size="11pt" font-style="normal" font-weight="normal" text-decoration="normal" x="58.032401666406244" y="124.80095321200001" text-anchor="start" dominant-baseline="alphabetic" xml:space="preserve">User</text></g><g><path fill="white" stroke="black" paint-order="fill stroke markers" d=" M 302.2359575695755 82.819480731 A 24.2577769005 24.2577769005 0 1 1 302.23594544068806 82.79522295814245 M 238.77369274907548 57.17321154999999 L 238.77369274907548 108.465749912 M 237.38520046857548 82.819480731 L 253.72040376857547 82.819480731" stroke-miterlimit="10" stroke-width="2.7769845610000004" stroke-dasharray=""/></g><g><text fill="black" stroke="none" font-family="sans-serif" font-size="11pt" font-style="normal" font-weight="normal" text-decoration="normal" x="213.17495890188798" y="124.80095321200001" text-anchor="start" dominant-baseline="alphabetic" xml:space="preserve">Application Client</text></g><g><path fill="white" stroke="black" paint-order="fill stroke markers" d=" M 527.5360456542759 82.819480731 A 24.2577769005 24.2577769005 0 1 1 527.5360335253885 82.79522295814245 M 500.0112280937759 58.561703830499994 L 509.8123500737759 50.39410218049999 M 500.0112280937759 58.561703830499994 L 509.8123500737759 66.72930548049999" stroke-miterlimit="10" stroke-width="2.7769845610000004" stroke-dasharray=""/></g><g><text fill="black" stroke="none" font-family="sans-serif" font-size="11pt" font-style="normal" font-weight="normal" text-decoration="normal" x="432.93828767467437" y="124.80095321200001" text-anchor="start" dominant-baseline="alphabetic" xml:space="preserve">Workspace Controller</text></g><path fill="none" stroke="none"/><g><path fill="white" stroke="black" paint-order="fill stroke markers" d=" M 634.6807720978202 69.42461402500001 L 767.1145219013983 69.42461402500001 L 767.1145219013983 129.701514202 L 634.6807720978202 129.701514202 L 634.6807720978202 69.42461402500001 Z" stroke-miterlimit="10" stroke-width="2.613632528" stroke-dasharray=""/></g><g><text fill="black" stroke="none" font-family="sans-serif" font-size="11pt" font-style="normal" font-weight="normal" text-decoration="normal" x="652.4044676783202" y="97.031107602" text-anchor="start" dominant-baseline="alphabetic" xml:space="preserve">Authentication </text><text fill="black" stroke="none" font-family="sans-serif" font-size="11pt" font-style="normal" font-weight="normal" text-decoration="normal" x="671.9678069117186" y="113.36631090200001" text-anchor="start" dominant-baseline="alphabetic" xml:space="preserve">Manager</text></g><path fill="none" stroke="none"/><g><path fill="white" stroke="black" paint-order="fill stroke markers" d=" M 783.4497252013983 69.42461402500001 L 891.9536349170859 69.42461402500001 L 891.9536349170859 129.701514202 L 783.4497252013983 129.701514202 L 783.4497252013983 69.42461402500001 Z" stroke-miterlimit="10" stroke-width="2.613632528" stroke-dasharray=""/></g><g><text fill="black" stroke="none" font-family="sans-serif" font-size="11pt" font-style="normal" font-weight="normal" text-decoration="normal" x="801.1734207818984" y="97.031107602" text-anchor="start" dominant-baseline="alphabetic" xml:space="preserve">Workspace</text><text fill="black" stroke="none" font-family="sans-serif" font-size="11pt" font-style="normal" font-weight="normal" text-decoration="normal" x="813.2600372980116" y="113.36631090200001" text-anchor="start" dominant-baseline="alphabetic" xml:space="preserve">Service</text></g><path fill="none" stroke="none"/><g><path fill="white" stroke="black" paint-order="fill stroke markers" d=" M 908.2888382170859 69.42461402500001 L 992.6195149005468 69.42461402500001 L 992.6195149005468 129.701514202 L 908.2888382170859 129.701514202 L 908.2888382170859 69.42461402500001 Z" stroke-miterlimit="10" stroke-width="2.613632528" stroke-dasharray=""/></g><g><text fill="black" stroke="none" font-family="sans-serif" font-size="11pt" font-style="normal" font-weight="normal" text-decoration="normal" x="935.3933321374296" y="97.031107602" text-anchor="start" dominant-baseline="alphabetic" xml:space="preserve">JWT</text><text fill="black" stroke="none" font-family="sans-serif" font-size="11pt" font-style="normal" font-weight="normal" text-decoration="normal" x="926.0125337975859" y="113.36631090200001" text-anchor="start" dominant-baseline="alphabetic" xml:space="preserve">Service</text></g><path fill="none" stroke="none"/><g><path fill="white" stroke="black" paint-order="fill stroke markers" d=" M 1008.9547182005468 69.42461402500001 L 1138.926065660375 69.42461402500001 L 1138.926065660375 129.701514202 L 1008.9547182005468 129.701514202 L 1008.9547182005468 69.42461402500001 Z" stroke-miterlimit="10" stroke-width="2.613632528" stroke-dasharray=""/></g><g><text fill="black" stroke="none" font-family="sans-serif" font-size="11pt" font-style="normal" font-weight="normal" text-decoration="normal" x="1026.6784137810469" y="97.031107602" text-anchor="start" dominant-baseline="alphabetic" xml:space="preserve">Refresh Token</text><text fill="black" stroke="none" font-family="sans-serif" font-size="11pt" font-style="normal" font-weight="normal" text-decoration="normal" x="1049.4987491692305" y="113.36631090200001" text-anchor="start" dominant-baseline="alphabetic" xml:space="preserve">Service</text></g><g><path fill="white" stroke="blue" paint-order="fill stroke markers" d=" M 1164.082278742375 97.684515734 L 1164.082278742375 63.380588804000006 L 1211.781072378375 63.380588804000006 L 1211.781072378375 97.684515734" stroke-miterlimit="10" stroke-width="2.7769845610000004" stroke-dasharray=""/><path fill="white" stroke="blue" paint-order="fill stroke markers" d=" M 1211.781072378375 62.1881189631 L 1211.7798799184714 62.29592950801663 L 1211.7763026580053 62.403729271968594 L 1211.7703409546998 62.51150747506936 L 1211.7619954047207 62.619253339588404 L 1211.7512668426155 62.72695609102909 L 1211.7381563412316 62.834604959206004 L 1211.7226652116083 62.94218917932205 L 1211.7047950028457 63.04969799304486 L 1211.6845475019497 63.15712064958265 L 1211.6619247336534 63.2644464067593 L 1211.636928960215 63.371664532088516 L 1211.6095626811912 63.47876430384712 L 1211.5798286331865 63.58573501214718 L 1211.5477297895814 63.692565960007016 L 1211.5132693602332 63.79924646442086 L 1211.4764507911564 63.90576585742718 L 1211.4372777641772 64.01211348717543 L 1211.3957541965653 64.11827871899126 L 1211.3518842406434 64.22425093643996 L 1211.30567228337 64.3300195423881 L 1211.2571229459027 64.43557396006322 L 1211.2062410831347 64.54090363411153 L 1211.1530317832096 64.64599803165338 L 1211.0975003670135 64.75084664333659 L 1211.0396523876416 64.85543898438739 L 1210.9794936298433 64.95976459565881 L 1210.9170301094446 65.06381304467668 L 1210.8522680727456 65.16757392668278 L 1210.7852139958954 65.27103686567541 L 1210.7158745842464 65.37419151544687 L 1210.644256771682 65.47702756061814 L 1210.5703677199233 65.5795347176704 L 1210.494214817814 65.68170273597339 L 1210.4158056805813 65.7835213988104 L 1210.3351481490733 65.88498052439998 L 1210.2522502889758 65.98606996691414 L 1210.167120390006 66.08677961749288 L 1210.0797669650826 66.18709940525505 L 1209.9901987494754 66.28701929830548 L 1209.8984246999312 66.38652930473813 L 1209.804453993779 66.48561947363528 L 1209.7082960280104 66.58427989606261 L 1209.609960418342 66.6825007060601 L 1209.5094569982534 66.7802720816286 L 1209.4067958180021 66.87758424571203 L 1209.301987143621 66.97442746717506 L 1209.1950414558903 67.07079206177627 L 1209.0859694492895 67.1666683931365 L 1208.974782030928 67.2620468737025 L 1208.8614903194555 67.35691796570569 L 1208.7461056439486 67.45127218211596 L 1208.6286395427785 67.54510008759026 L 1208.5091037624577 67.63839229941624 L 1208.3875102564643 67.73113948845047 L 1208.263871184048 67.82333238005134 L 1208.1381989090125 67.9149617550065 L 1208.010505998481 68.00601845045483 L 1207.8808052216382 68.09649336080267 L 1207.7491095484531 68.18637743863435 L 1207.615432148384 68.27566169561702 L 1207.479786389059 68.36433720339936 L 1207.3421858349411 68.45239509450451 L 1207.2026442459712 68.53982656321674 L 1207.061175576192 68.62662286646201 L 1206.9177939723522 68.71277532468237 L 1206.7725137724929 68.79827532270376 L 1206.6253495045132 68.88311431059763 L 1206.476315884717 68.9672838045359 L 1206.3254278163422 69.0507753876393 L 1206.1727003880699 69.13358071081912 L 1206.0181488725154 69.21569149361203 L 1205.861788724702 69.29709952500816 L 1205.7036355805137 69.37779666427225 L 1205.5437052551335 69.45777484175761 L 1205.3820137414602 69.53702605971311 L 1205.2185772085109 69.61554239308303 L 1205.0534119998024 69.69331599029945 L 1204.8865346317182 69.77033907406746 L 1204.7179617918557 69.84660394214286 L 1204.5477103373585 69.92210296810242 L 1204.3757972932303 69.99682860210643 L 1204.2022398506324 70.07077337165379 L 1204.027055365164 70.14392988232913 L 1203.850261355128 70.21629081854239 L 1203.6718754997778 70.28784894426022 L 1203.4919156375506 70.35859710372968 L 1203.3103997642825 70.42852822219379 L 1203.1273460314096 70.49763530659898 L 1202.9427727441525 70.5659114462944 L 1202.7566983596864 70.63334981372294 L 1202.5691414852945 70.69994366510412 L 1202.3801208765078 70.76568634110825 L 1202.18965543523 70.83057126752253 L 1201.997764207846 70.89459195590838 L 1201.8044663833193 70.95774200425032 L 1201.6097812912708 71.02001509759614 L 1201.4137284000476 71.08140500868842 L 1201.2163273147755 71.14190559858717 L 1201.0175977753984 71.20151081728383 L 1200.8175596547046 71.26021470430622 L 1200.6162329563397 71.31801138931453 L 1200.4136378128055 71.37489509268845 L 1200.209794483448 71.43086012610503 L 1200.0047233524294 71.48590089310757 L 1199.7984449266928 71.54001188966522 L 1199.5909798339085 71.59318770472345 L 1199.3823488204127 71.64542302074504 L 1199.1725727491332 71.69671261424193 L 1198.9616725975022 71.7470513562975 L 1198.7496694553593 71.79643421307951 L 1198.5365845228416 71.84485624634341 L 1198.3224391082651 71.89231261392625 L 1198.107254625993 71.93879857023082 L 1197.8910525942938 71.9843094667002 L 1197.6738546331906 72.02884075228269 L 1197.4556824622985 72.07238797388683 L 1197.236557898653 72.11494677682676 L 1197.0165028545277 72.15651290525764 L 1196.7955393352436 72.19708220260128 L 1196.5736894369686 72.23665061196175 L 1196.3509753445076 72.27521417653107 L 1196.1274193290842 72.31276903998494 L 1195.9030437461136 72.3493114468683 L 1195.6778710329672 72.38483774297092 L 1195.4519237067288 72.41934437569277 L 1195.2252243619428 72.45282789439938 L 1194.9977956683542 72.48528495076673 L 1194.7696603686436 72.51671229911628 L 1194.54084127615 72.54710679673934 L 1194.3113612725929 72.5764654042115 L 1194.0812433057808 72.60478518569649 L 1193.8505103873188 72.63206330923974 L 1193.6191855903064 72.65829704705163 L 1193.3872920470305 72.68348377578025 L 1193.1548529466525 72.70762097677371 L 1192.9218915328884 72.73070623633201 L 1192.6884311016854 72.75273724594847 L 1192.4544949988924 72.77371180254045 L 1192.2201066179246 72.79362780866978 L 1191.9852893974246 72.81248327275246 L 1191.7500668189189 72.83027630925778 L 1191.5144624044692 72.84700513889692 L 1191.278499714321 72.86266808880085 L 1191.0422023445462 72.87726359268764 L 1190.8055939246851 72.89079019101906 L 1190.5686981153826 72.90324653114655 L 1190.3315386060221 72.91463136744649 L 1190.094139112357 72.9249435614447 L 1189.8565233741385 72.93418208193043 L 1189.6187151527429 72.94234600505929 L 1189.380738228794 72.94943451444577 L 1189.1426163997855 72.95544690124485 L 1188.9043734777022 72.96038256422287 L 1188.666033286638 72.96424100981763 L 1188.4276196604128 72.9670218521878 L 1188.1891564401913 72.96872481325143 L 1187.950667472096 72.96934972271386 L 1187.7121766048256 72.96889651808466 L 1187.4737076872677 72.96736524468392 L 1187.2352845661155 72.96475605563768 L 1186.9969310834824 72.96106921186271 L 1186.7586710745181 72.95630508204027 L 1186.5205283650248 72.9504641425794 L 1186.282526769075 72.94354697756918 L 1186.0446900866302 72.93555427872033 L 1185.8070421011603 72.9264868452961 L 1185.5696065772659 72.91634558403224 L 1185.3324072583011 72.90513150904647 L 1185.0954678640007 72.89284574173689 L 1184.8588120881063 72.87948951067006 L 1184.6224635959986 72.86506415145789 L 1184.3864460223297 72.84957110662431 L 1184.15078296866 72.8330119254609 L 1183.915498001099 72.81538826387197 L 1183.6806146479469 72.79670188420899 L 1183.4461563973437 72.77695465509434 L 1183.2121466949186 72.7561485512345 L 1182.9786089414474 72.73428565322251 L 1182.7455664905103 72.71136814732996 L 1182.5130426461587 72.68739832528833 L 1182.2810606605829 72.66237858405984 L 1182.0496437317881 72.63631142559778 L 1181.8188150012747 72.60919945659627 L 1181.588597551723 72.58104538822961 L 1181.3590144046866 72.55185203588118 L 1181.1300885182884 72.5216223188619 L 1180.9018427849264 72.49035926011825 L 1180.6743000289837 72.45806598593009 L 1180.4474830045465 72.4247457255979 L 1180.2214143931278 72.39040181111994 L 1179.9961168014008 72.35503767685907 L 1179.771612758937 72.31865685919922 L 1179.547924715953 72.28126299619186 L 1179.325075041067 72.24285982719209 L 1179.103086019061 72.20345119248485 L 1178.8819798486518 72.16304103290075 L 1178.6617786402726 72.12163338942209 L 1178.4425044138602 72.07923240277869 L 1178.224179096655 72.03584231303388 L 1178.0068245210068 71.99146745916049 L 1177.7904624221917 71.94611227860693 L 1177.5751144362393 71.89978130685344 L 1177.360802097769 71.85247917695861 L 1177.147546837836 71.80421061909601 L 1176.9353699817884 71.75498046008119 L 1176.7242927471352 71.70479362288901 L 1176.514336241424 71.65365512616141 L 1176.30552146013 71.60157008370541 L 1176.0978692845576 71.54854370398188 L 1175.8914004797514 71.49458128958457 L 1175.6861356924198 71.43968823671 L 1175.4820954488703 71.38387003461766 L 1175.2793001529574 71.32713226508127 L 1175.0777700840417 71.26948060183051 L 1174.8775253949618 71.21092080998365 L 1174.6785861100204 71.15145874547107 L 1174.4809721229797 71.0911003544497 L 1174.2847031950737 71.0298516727083 L 1174.089798953032 70.96771882506403 L 1173.8962788871158 70.90470802474988 L 1173.7041623491712 70.84082557279336 L 1173.5134685506914 70.77607785738643 L 1173.3242165608974 70.71047135324669 L 1173.1364253048305 70.64401262096986 L 1172.9501135614598 70.5767083063738 L 1172.7652999618044 70.50856513983389 L 1172.5820029870704 70.43958993560999 L 1172.4002409668021 70.36978959116503 L 1172.2200320770505 70.29917108647531 L 1172.0413943385543 70.22774148333244 L 1171.8643456149384 70.1555079246372 L 1171.6889036109276 70.08247763368529 L 1171.515085870576 70.00865791344492 L 1171.3429097755131 69.9340561458266 L 1171.172392543205 69.85867979094495 L 1171.0035512252323 69.78253638637263 L 1170.8364027055864 69.70563354638664 L 1170.67096369898 69.62797896120689 L 1170.507250749176 69.54958039622719 L 1170.3452802273325 69.47044569123871 L 1170.1850683303671 69.39058275964601 L 1170.026631079336 69.30999958767568 L 1169.8699843178324 69.22870423357777 L 1169.7151437104014 69.14670482681996 L 1169.5621247409752 69.06400956727457 L 1169.4109427113228 68.98062672439866 L 1169.2616127395215 68.89656463640702 L 1169.114149758444 68.8118317094384 L 1168.9685685142656 68.72643641671489 L 1168.824883564989 68.6403872976946 L 1168.6831092789898 68.55369295721772 L 1168.5432598335783 68.46636206464606 L 1168.4053492135827 68.37840335299609 L 1168.2693912099496 68.28982561806569 L 1168.1353994183667 68.20063771755453 L 1168.0033872379008 68.11084857017835 L 1167.8733678696606 68.02046715477704 L 1167.745354315474 67.92950250941684 L 1167.6193593765902 67.83796373048648 L 1167.4953956523977 67.74585997178757 L 1167.373475539166 67.65320044361923 L 1167.2536112288046 67.55999441185705 L 1167.1358147076446 67.46625119702654 L 1167.0200977552402 67.37198017337107 L 1166.9064719431901 67.27719076791445 L 1166.7949486339805 67.18189245951821 L 1166.68553897985 67.08609477793381 L 1166.5782539216723 66.98980730284956 L 1166.473104187864 66.89303966293272 L 1166.370100293311 66.79580153486665 L 1166.2692525383168 66.69810264238313 L 1166.1705710075726 66.59995275528999 L 1166.0740655691498 66.50136168849414 L 1165.979745873511 66.40233930102012 L 1165.8876213525482 66.30289549502413 L 1165.7977012186361 66.20304021480393 L 1165.709994463713 66.1027834458043 L 1165.6245098583818 66.00213521361863 L 1165.5412559510314 65.90110558298623 L 1165.4602410669836 65.799704656786 L 1165.3814733076588 65.69794257502603 L 1165.3049605497674 65.59582951382973 L 1165.2307104445217 65.4933756844181 L 1165.15873041687 65.3905913320887 L 1165.0890276647553 65.28748673519112 L 1165.0216091583948 65.18407220409914 L 1164.9564816395828 65.08035808017966 L 1164.893651621017 64.97635473475869 L 1164.8331253856468 64.87207256808405 L 1164.7749089860454 64.76752200828555 L 1164.719008243804 64.66271351033203 L 1164.6654287489505 64.55765755498592 L 1164.61417585939 64.45236464775525 L 1164.5652547003679 64.34684531784296 L 1164.5186701639602 64.24111011709415 L 1164.474426908581 64.13516961894075 L 1164.4325293585198 64.0290344173443 L 1164.392981703496 63.92271512573653 L 1164.3557878982424 63.81622237595798 L 1164.3209516621084 63.70956681719489 L 1164.2884764786888 63.602759114914264 L 1164.2583655954747 63.49580994979732 L 1164.2306220235296 63.38873001667144 L 1164.2052485371871 63.28153002344071 L 1164.1822476737752 63.17422069001512 L 1164.1616217333608 63.066812747238586 L 1164.1433727785206 62.959316935815885 L 1164.1275026341352 62.85174400523857 L 1164.1140128872057 62.74410471271006 L 1164.1029048866956 62.636409822069915 L 1164.0941797433954 62.52867010271744 L 1164.0878383298125 62.4208963285348 L 1164.0838812800828 62.313099276809595 L 1164.0823089899081 62.20528972715717 L 1164.083121616516 62.09747846044265 L 1164.0863190786447 61.98967625770286 L 1164.0919010565503 61.88189389906824 L 1164.09986699204 61.77414216268484 L 1164.1102160885268 61.66643182363649 L 1164.1229473111096 61.558773652867366 L 1164.1380593866768 61.4511784161048 L 1164.1555508040333 61.34365687278283 L 1164.175419814052 61.236219774966166 L 1164.1976644298488 61.12887786627507 L 1164.2222824269802 61.02164188081096 L 1164.2492713436673 60.91452254208302 L 1164.2786284810406 60.807530561935856 L 1164.310350903411 60.70067663947832 L 1164.3444354385629 60.593971460013606 L 1164.380878678071 60.487425693970756 L 1164.4196769776418 60.381049995837586 L 1164.4608264574774 60.27485500309525 L 1164.5043230026645 60.16885133515453 L 1164.5501622635845 60.06304959229389 L 1164.5983396563497 59.95746035459945 L 1164.6488503632609 59.852094180906974 L 1164.7016893332896 59.746961607746044 L 1164.7568512825826 59.64207314828636 L 1164.8143306949912 59.537439291286454 L 1164.874121822622 59.43307050004484 L 1164.936218686412 59.32897721135367 L 1165.0006150767265 59.22516983445505 L 1165.0673045539802 59.12165875000019 L 1165.136280449281 59.01845430901127 L 1165.2075358650968 58.91556683184637 L 1165.2810636759455 58.81300660716748 L 1165.356856529107 58.7107838909116 L 1165.4349068453596 58.60890890526517 L 1165.5152068197362 58.507391837641855 L 1165.5977484223067 58.406242839663825 L 1165.6825233989796 58.30547202614659 L 1165.7695232723274 58.205089474087515 L 1165.858739342436 58.105105221658164 L 1165.9501626877718 58.00552926720046 L 1166.0437841660773 57.90637156822687 L 1166.1395944152825 57.807642040424646 L 1166.2375838544422 57.709350556664305 L 1166.337742684694 57.61150694601232 L 1166.4400608902383 57.514120992748204 L 1166.5445282393403 57.417202435386145 L 1166.6511342853516 57.320760965701105 L 1166.759868367757 57.224806227759686 L 1166.8707196132384 57.12934781695572 L 1166.9836769367637 57.03439527905074 L 1167.0987290426947 56.93995810921942 L 1167.2158644259168 56.84604575110002 L 1167.3350713729894 56.75266759585011 L 1167.4563379633169 56.65983298120741 L 1167.5796520703411 56.567551190555996 L 1167.7050013627547 56.47583145199805 L 1167.8323733057323 56.384682937430995 L 1167.9617551621861 56.29411476163032 L 1168.0931339940382 56.20413598133814 L 1168.2264966635148 56.1147555943575 L 1168.3618298344602 56.02598253865261 L 1168.49911997367 55.937825691455075 L 1168.6383533522448 55.85029386837614 L 1168.7795160469627 55.763395822525176 L 1168.922593941672 55.677140243634355 L 1169.067572728702 55.591535757189675 L 1169.2144379102954 55.50659092356846 L 1169.363174800056 55.42231423718327 L 1169.513768524419 55.33871412563253 L 1169.6662040241372 55.25579894885771 L 1169.820466055788 55.1735769983074 L 1169.9765391932967 55.092056496108135 L 1170.1344078294796 55.01124559424221 L 1170.2940561776045 54.93115237373246 L 1170.4554682729697 54.851784843834196 L 1170.6186279745 54.77315094123426 L 1170.7835189663617 54.6952585292574 L 1170.9501247595927 54.61811539707989 L 1171.1184286937523 54.54172925895067 L 1171.2884139385876 54.46610775341989 L 1171.460063495716 54.391258442575094 L 1171.6333602003242 54.317188811284986 L 1171.8082867228868 54.24390626645098 L 1171.9848255708969 54.171418136266475 L 1172.162959090617 54.09973166948409 L 1172.3426694688435 54.028854034690774 L 1172.5239387346885 53.95879231959093 L 1172.7067487613763 53.88955353029769 L 1172.8910812680565 53.82114459063227 L 1173.0769178216322 53.753572341431656 L 1173.2642398386026 53.68684353986444 L 1173.4530285869228 53.62096485875517 L 1173.6432651878745 53.55594288591707 L 1173.8349306179566 53.49178412349323 L 1174.0280057107857 53.42849498730643 L 1174.2224711590134 53.366081806217544 L 1174.4183075162568 53.304550821492676 L 1174.6154951990438 53.24390818617902 L 1174.81401448877 53.18415996448957 L 1175.0138455336719 53.12531213119671 L 1175.214968350812 53.067370571034715 L 1175.4173628280755 53.01034107811134 L 1175.6210087261836 52.95422935532834 L 1175.8258856807165 52.89904101381123 L 1176.0319732041492 52.84478157234818 L 1176.2392506879012 52.79145645683812 L 1176.4476974043966 52.73907099974815 L 1176.6572925091377 52.687630439580346 L 1176.8680150427888 52.637139920347835 L 1177.0798439332718 52.58760449106049 L 1177.2927579978743 52.53902910521993 L 1177.5067359453674 52.49141862032429 L 1177.7217563781346 52.444777797382365 L 1177.9377977943118 52.399111300437596 L 1178.1548385899375 52.354423696101605 L 1178.3728570611127 52.3107194530976 L 1178.5918314061723 52.26800294181345 L 1178.811739727864 52.2262784338647 L 1179.0325600355393 52.18555010166736 L 1179.2542702473509 52.14582201802072 L 1179.4768481924627 52.10709815570004 L 1179.7002716132658 52.06938238705927 L 1179.924518167604 52.032678483643856 L 1180.149565431009 51.996990115813546 L 1180.3753908989418 51.96232085237539 L 1180.6019719890437 51.928674160226834 L 1180.8292860433949 51.89605340400906 L 1181.057310330779 51.8644618457705 L 1181.2860220489574 51.833902644640645 L 1181.515398326949 51.80437885651416 L 1181.745416227317 51.775893433745246 L 1181.9760527484632 51.74844922485244 L 1182.2072848269277 51.722048974233765 L 1182.439089339695 51.69669532189228 L 1182.6714431065075 51.672390803172085 L 1182.9043228921817 51.649137848504814 L 1183.1377054089332 51.626938783166544 L 1183.3715673187048 51.60579582704531 L 1183.6058852355006 51.58571109441911 L 1183.8406357277242 51.56668659374447 L 1184.0757953205218 51.54872422745561 L 1184.3113404981302 51.53182579177417 L 1184.5472477062278 51.515992976529645 L 1184.7834933542906 51.50122736499037 L 1185.0200538179504 51.4875304337052 L 1185.2569054413582 51.47490355235584 L 1185.4940245395487 51.4633479836199 L 1185.7313874008103 51.45286488304463 L 1185.968970289054 51.443455298931354 L 1186.2067494461894 51.43512017223063 L 1186.4447010944987 51.4278603364482 L 1186.6828014390155 51.42167651756158 L 1186.9210266699035 51.41656933394751 L 1187.1593529648385 51.41253929632009 L 1187.3977564913896 51.40958680767973 L 1187.6362134094024 51.407712163272826 L 1187.8746998733843 51.40691555056227 L 1188.1131920348873 51.40719704920866 L 1188.3516660448943 51.40855663106237 L 1188.5900980562026 51.41099416016634 L 1188.82846422581 51.414509392769695 L 1189.0667407172984 51.419101977352106 L 1189.3049037032167 51.42477145465894 L 1189.5429293674654 51.431517257747196 L 1189.7807939076758 51.43933871204218 L 1190.0184735375926 51.44823503540498 L 1190.2559444894505 51.45820533821068 L 1190.4931830163525 51.4692486234373 L 1190.7301653946436 51.48136378676553 L 1190.9668679262832 51.49454961668913 L 1191.2032669412154 51.50880479463608 L 1191.4393387997359 51.524127895100484 L 1191.6750598948556 51.54051738578506 L 1191.9104066546613 51.5579716277544 L 1192.145355544673 51.57648887559884 L 1192.379883070198 51.59606727760904 L 1192.6139657786787 51.6167048759611 L 1192.8475802620394 51.6383996069124 L 1193.0807031590266 51.66114930100791 L 1193.3133111575446 51.684951683297186 L 1193.5453809969877 51.70980437356183 L 1193.7768894705653 51.735704886553535 L 1194.0078134276225 51.76265063224257 L 1194.2381297759568 51.79063891607683 L 1194.4678154841247 51.81966693925126 L 1194.696847583747 51.849731798987726 L 1194.9252031718047 51.88083048882531 L 1195.1528594129293 51.91295989892094 L 1195.379793541686 51.94611681636038 L 1195.6059828648515 51.980297925479526 L 1195.8314047636816 52.01549980819594 L 1196.0560366961747 52.0517189443507 L 1196.2798561993243 52.08895171206036 L 1196.5028408913668 52.127194388079175 L 1196.7249684740189 52.16644314817141 L 1196.9462167347074 52.20669406749378 L 1197.1665635487905 52.247943120987884 L 1197.3859868817704 52.29018618378274 L 1197.6044647914969 52.33341903160728 L 1197.8219754303607 52.37763734121275 L 1198.0384970474795 52.422836690805035 L 1198.254007990872 52.46901256048684 L 1198.4684867096232 52.516160332709674 L 1198.68191175604 52.564275292735616 L 1198.894261787796 52.613352629108746 L 1199.1055155700647 52.663387434136325 L 1199.315651977644 52.71437470437956 L 1199.524649997068 52.7663093411539 L 1199.732488728709 52.819186151038956 L 1199.9391473888675 52.8729998463978 L 1200.144605311849 52.92774504590574 L 1200.3488419520331 52.983416275088445 L 1200.5518368859255 53.040007966869396 L 1200.7535698142021 53.09751446212657 L 1200.9540205637381 53.15593001025836 L 1201.1531690896259 53.21524876975863 L 1201.3509954771785 53.27546480880087 L 1201.547479943922 53.33657210583136 L 1201.7426028415737 53.3985645501713 L 1201.9363446580064 53.461435942627936 L 1202.1286860192 53.52517999611441 L 1202.3196076911784 53.58979033627848 L 1202.5090905819336 53.655260502139996 L 1202.6971157433345 53.721583946736914 L 1202.8836643730215 53.78875403778004 L 1203.0687178162873 53.85676405831625 L 1203.2522575679416 53.92560720740017 L 1203.4342652741623 53.995276600774254 L 1203.6147227343301 54.065765271557225 L 1203.79361190285 54.13706617094075 L 1203.970914890954 54.2091721688943 L 1204.1466139684906 54.28207605487816 L 1204.320691565699 54.35577053856451 L 1204.4931302749642 54.43024825056637 L 1204.6639128525592 54.50550174317461 L 1204.8330222203685 54.581523491102686 L 1205.0004414675961 54.658305892239156 L 1205.166153852457 54.73584126840789 L 1205.3301428038508 54.81412186613588 L 1205.4923919230187 54.89313985742859 L 1205.6528849851843 54.97288734055273 L 1205.811605941175 55.05335634082646 L 1205.9685389190277 55.1345388114168 L 1206.123668225575 55.21642663414435 L 1206.2769783480157 55.29901162029506 L 1206.4284539554656 55.38228551143916 L 1206.5780799004897 55.46623998025691 L 1206.7258412206186 55.55086663137139 L 1206.871723139843 55.63615700218803 L 1207.015711070093 55.722102563740805 L 1207.157790612695 55.80869472154519 L 1207.2979475598138 55.89592481645755 L 1207.436167895871 55.98378412554111 L 1207.5724377989484 56.07226386293816 L 1207.7067436421692 56.1613551807487 L 1207.839071995061 56.251049169915184 L 1207.9694096248986 56.34133686111345 L 1208.097743498028 56.4322092256496 L 1208.2240607811686 56.52365717636293 L 1208.3483488426973 56.615671568534566 L 1208.4705952539118 56.70824320080196 L 1208.5907877902725 56.80136281607904 L 1208.708914432626 56.89502110248188 L 1208.8249633684068 56.98920869425987 L 1208.9389229928177 57.083916172732344 L 1209.0507819099912 57.17913406723036 L 1209.1605289341292 57.27485285604382 L 1209.2681530906202 57.37106296737362 L 1209.3736436171387 57.467754780288786 L 1209.47698996472 57.56491862568861 L 1209.5781817988147 57.662544787269525 L 1209.6772090003246 57.76062350249672 L 1209.7740616666117 57.859144963580405 L 1209.86873011249 57.95809931845658 L 1209.961204871194 58.05747667177222 L 1210.0514766953247 58.15726708587479 L 1210.139536557775 58.257460581806065 L 1210.2253756526322 58.358047140299924 L 1210.308985396058 58.459016702784346 L 1210.390357427148 58.56035917238722 L 1210.469483608767 58.66206441494605 L 1210.5463560283624 58.764122260021324 L 1210.6209669987566 58.866522501913586 L 1210.6933090589146 58.96925490068398 L 1210.7633749746908 59.072309183178234 L 1210.8311577395518 59.17567504405398 L 1210.8966505752778 59.279342146811274 L 1210.9598469326397 59.38330012482622 L 1211.0207404920543 59.48753858238766 L 1211.0793251642167 59.59204709573668 L 1211.1355950907084 59.69681521410906 L 1211.1895446445837 59.80183246078026 L 1211.2411684309318 59.907088334113126 L 1211.2904612874177 60.012572308608036 L 1211.337418284796 60.11827383595545 L 1211.382034727407 60.22418234609071 L 1211.424306153643 60.33028724825106 L 1211.464228336397 60.43657793203471 L 1211.5017972834835 60.54304376846186 L 1211.5370092380397 60.64967411103757 L 1211.569860678899 60.75645829681646 L 1211.6003483209447 60.86338564746893 L 1211.6284691154385 60.97044547034902 L 1211.654220250324 61.07762705956367 L 1211.677599150509 61.184919697043256 L 1211.6986034781235 61.29231265361346 L 1211.7172311327515 61.399795190068104 L 1211.7334802516439 61.50735655824312 L 1211.7473492099018 61.614986002091314 L 1211.758836620641 61.72267275875801 L 1211.7679413351302 61.830406059657264 L 1211.7746624429053 61.93817513154877 L 1211.7789992718615 62.04596919761514 L 1211.780951388319 62.15377747853961 M 1211.781072378375 96.4920458931 L 1211.7798799184714 96.59985643801662 L 1211.7763026580053 96.70765620196859 L 1211.7703409546998 96.81543440506935 L 1211.7619954047207 96.9231802695884 L 1211.7512668426155 97.03088302102908 L 1211.7381563412316 97.138531889206 L 1211.7226652116083 97.24611610932205 L 1211.7047950028457 97.35362492304485 L 1211.6845475019497 97.46104757958265 L 1211.6619247336534 97.5683733367593 L 1211.636928960215 97.67559146208852 L 1211.6095626811912 97.78269123384712 L 1211.5798286331865 97.88966194214719 L 1211.5477297895814 97.99649289000702 L 1211.5132693602332 98.10317339442086 L 1211.4764507911564 98.20969278742717 L 1211.4372777641772 98.31604041717543 L 1211.3957541965653 98.42220564899125 L 1211.3518842406434 98.52817786643996 L 1211.30567228337 98.6339464723881 L 1211.2571229459027 98.73950089006323 L 1211.2062410831347 98.84483056411152 L 1211.1530317832096 98.94992496165337 L 1211.0975003670135 99.05477357333659 L 1211.0396523876416 99.15936591438738 L 1210.9794936298433 99.2636915256588 L 1210.9170301094446 99.36773997467667 L 1210.8522680727456 99.47150085668278 L 1210.7852139958954 99.5749637956754 L 1210.7158745842464 99.67811844544686 L 1210.644256771682 99.78095449061813 L 1210.5703677199233 99.8834616476704 L 1210.494214817814 99.98562966597338 L 1210.4158056805813 100.08744832881038 L 1210.3351481490733 100.18890745439998 L 1210.2522502889758 100.28999689691415 L 1210.167120390006 100.39070654749288 L 1210.0797669650826 100.49102633525506 L 1209.9901987494754 100.59094622830548 L 1209.8984246999312 100.69045623473812 L 1209.804453993779 100.78954640363527 L 1209.7082960280104 100.8882068260626 L 1209.609960418342 100.9864276360601 L 1209.5094569982534 101.0841990116286 L 1209.4067958180021 101.18151117571202 L 1209.301987143621 101.27835439717506 L 1209.1950414558903 101.37471899177628 L 1209.0859694492895 101.4705953231365 L 1208.974782030928 101.56597380370249 L 1208.8614903194555 101.6608448957057 L 1208.7461056439486 101.75519911211595 L 1208.6286395427785 101.84902701759025 L 1208.5091037624577 101.94231922941623 L 1208.3875102564643 102.03506641845047 L 1208.263871184048 102.12725931005133 L 1208.1381989090125 102.2188886850065 L 1208.010505998481 102.30994538045483 L 1207.8808052216382 102.40042029080266 L 1207.7491095484531 102.49030436863434 L 1207.615432148384 102.579588625617 L 1207.479786389059 102.66826413339936 L 1207.3421858349411 102.75632202450451 L 1207.2026442459712 102.84375349321674 L 1207.061175576192 102.93054979646202 L 1206.9177939723522 103.01670225468237 L 1206.7725137724929 103.10220225270375 L 1206.6253495045132 103.18704124059762 L 1206.476315884717 103.27121073453588 L 1206.3254278163422 103.3547023176393 L 1206.1727003880699 103.4375076408191 L 1206.0181488725154 103.51961842361202 L 1205.861788724702 103.60102645500817 L 1205.7036355805137 103.68172359427226 L 1205.5437052551335 103.7617017717576 L 1205.3820137414602 103.84095298971312 L 1205.2185772085109 103.91946932308304 L 1205.0534119998024 103.99724292029944 L 1204.8865346317182 104.07426600406745 L 1204.7179617918557 104.15053087214287 L 1204.5477103373585 104.22602989810241 L 1204.3757972932303 104.30075553210642 L 1204.2022398506324 104.37470030165377 L 1204.027055365164 104.44785681232914 L 1203.850261355128 104.52021774854238 L 1203.6718754997778 104.59177587426021 L 1203.4919156375506 104.66252403372968 L 1203.3103997642825 104.73245515219378 L 1203.1273460314096 104.80156223659897 L 1202.9427727441525 104.86983837629438 L 1202.7566983596864 104.93727674372295 L 1202.5691414852945 105.0038705951041 L 1202.3801208765078 105.06961327110824 L 1202.18965543523 105.13449819752252 L 1201.997764207846 105.19851888590837 L 1201.8044663833193 105.26166893425032 L 1201.6097812912708 105.32394202759615 L 1201.4137284000476 105.38533193868841 L 1201.2163273147755 105.44583252858716 L 1201.0175977753984 105.50543774728384 L 1200.8175596547046 105.56414163430621 L 1200.6162329563397 105.62193831931454 L 1200.4136378128055 105.67882202268845 L 1200.209794483448 105.73478705610502 L 1200.0047233524294 105.78982782310756 L 1199.7984449266928 105.84393881966523 L 1199.5909798339085 105.89711463472344 L 1199.3823488204127 105.94934995074503 L 1199.1725727491332 106.00063954424192 L 1198.9616725975022 106.0509782862975 L 1198.7496694553593 106.1003611430795 L 1198.5365845228416 106.14878317634341 L 1198.3224391082651 106.19623954392625 L 1198.107254625993 106.2427255002308 L 1197.8910525942938 106.2882363967002 L 1197.6738546331906 106.33276768228268 L 1197.4556824622985 106.37631490388682 L 1197.236557898653 106.41887370682676 L 1197.0165028545277 106.46043983525765 L 1196.7955393352436 106.50100913260128 L 1196.5736894369686 106.54057754196174 L 1196.3509753445076 106.57914110653107 L 1196.1274193290842 106.61669596998493 L 1195.9030437461136 106.65323837686829 L 1195.6778710329672 106.6887646729709 L 1195.4519237067288 106.72327130569276 L 1195.2252243619428 106.75675482439937 L 1194.9977956683542 106.78921188076673 L 1194.7696603686436 106.82063922911627 L 1194.54084127615 106.85103372673933 L 1194.3113612725929 106.8803923342115 L 1194.0812433057808 106.90871211569649 L 1193.8505103873188 106.93599023923973 L 1193.6191855903064 106.96222397705162 L 1193.3872920470305 106.98741070578025 L 1193.1548529466525 107.0115479067737 L 1192.9218915328884 107.03463316633201 L 1192.6884311016854 107.05666417594847 L 1192.4544949988924 107.07763873254045 L 1192.2201066179246 107.09755473866979 L 1191.9852893974246 107.11641020275246 L 1191.7500668189189 107.13420323925777 L 1191.5144624044692 107.1509320688969 L 1191.278499714321 107.16659501880085 L 1191.0422023445462 107.18119052268763 L 1190.8055939246851 107.19471712101905 L 1190.5686981153826 107.20717346114655 L 1190.3315386060221 107.21855829744648 L 1190.094139112357 107.22887049144471 L 1189.8565233741385 107.23810901193042 L 1189.6187151527429 107.24627293505928 L 1189.380738228794 107.25336144444577 L 1189.1426163997855 107.25937383124486 L 1188.9043734777022 107.26430949422287 L 1188.666033286638 107.26816793981763 L 1188.4276196604128 107.27094878218779 L 1188.1891564401913 107.27265174325143 L 1187.950667472096 107.27327665271386 L 1187.7121766048256 107.27282344808465 L 1187.4737076872677 107.27129217468391 L 1187.2352845661155 107.26868298563768 L 1186.9969310834824 107.2649961418627 L 1186.7586710745181 107.26023201204026 L 1186.5205283650248 107.2543910725794 L 1186.282526769075 107.24747390756917 L 1186.0446900866302 107.23948120872033 L 1185.8070421011603 107.23041377529609 L 1185.5696065772659 107.22027251403225 L 1185.3324072583011 107.20905843904646 L 1185.0954678640007 107.1967726717369 L 1184.8588120881063 107.18341644067004 L 1184.6224635959986 107.16899108145788 L 1184.3864460223297 107.15349803662431 L 1184.15078296866 107.1369388554609 L 1183.915498001099 107.11931519387196 L 1183.6806146479469 107.10062881420897 L 1183.4461563973437 107.08088158509435 L 1183.2121466949186 107.0600754812345 L 1182.9786089414474 107.03821258322252 L 1182.7455664905103 107.01529507732995 L 1182.5130426461587 106.99132525528832 L 1182.2810606605829 106.96630551405984 L 1182.0496437317881 106.94023835559778 L 1181.8188150012747 106.91312638659626 L 1181.588597551723 106.88497231822961 L 1181.3590144046866 106.85577896588119 L 1181.1300885182884 106.8255492488619 L 1180.9018427849264 106.79428619011826 L 1180.6743000289837 106.76199291593008 L 1180.4474830045465 106.72867265559789 L 1180.2214143931278 106.69432874111995 L 1179.9961168014008 106.65896460685907 L 1179.771612758937 106.62258378919921 L 1179.547924715953 106.58518992619184 L 1179.325075041067 106.5467867571921 L 1179.103086019061 106.50737812248485 L 1178.8819798486518 106.46696796290075 L 1178.6617786402726 106.42556031942208 L 1178.4425044138602 106.38315933277867 L 1178.224179096655 106.33976924303387 L 1178.0068245210068 106.29539438916049 L 1177.7904624221917 106.25003920860692 L 1177.5751144362393 106.20370823685344 L 1177.360802097769 106.15640610695861 L 1177.147546837836 106.108137549096 L 1176.9353699817884 106.05890739008117 L 1176.7242927471352 106.00872055288902 L 1176.514336241424 105.9575820561614 L 1176.30552146013 105.90549701370541 L 1176.0978692845576 105.85247063398188 L 1175.8914004797514 105.79850821958458 L 1175.6861356924198 105.74361516670999 L 1175.4820954488703 105.68779696461766 L 1175.2793001529574 105.63105919508126 L 1175.0777700840417 105.5734075318305 L 1174.8775253949618 105.51484773998365 L 1174.6785861100204 105.45538567547108 L 1174.4809721229797 105.3950272844497 L 1174.2847031950737 105.33377860270829 L 1174.089798953032 105.27164575506403 L 1173.8962788871158 105.20863495474987 L 1173.7041623491712 105.14475250279335 L 1173.5134685506914 105.08000478738643 L 1173.3242165608974 105.01439828324668 L 1173.1364253048305 104.94793955096986 L 1172.9501135614598 104.8806352363738 L 1172.7652999618044 104.8124920698339 L 1172.5820029870704 104.74351686560999 L 1172.4002409668021 104.67371652116503 L 1172.2200320770505 104.6030980164753 L 1172.0413943385543 104.53166841333243 L 1171.8643456149384 104.4594348546372 L 1171.6889036109276 104.38640456368528 L 1171.515085870576 104.31258484344491 L 1171.3429097755131 104.2379830758266 L 1171.172392543205 104.16260672094495 L 1171.0035512252323 104.08646331637262 L 1170.8364027055864 104.00956047638662 L 1170.67096369898 103.93190589120688 L 1170.507250749176 103.85350732622719 L 1170.3452802273325 103.77437262123871 L 1170.1850683303671 103.694509689646 L 1170.026631079336 103.61392651767568 L 1169.8699843178324 103.53263116357778 L 1169.7151437104014 103.45063175681996 L 1169.5621247409752 103.36793649727457 L 1169.4109427113228 103.28455365439865 L 1169.2616127395215 103.20049156640701 L 1169.114149758444 103.1157586394384 L 1168.9685685142656 103.03036334671489 L 1168.824883564989 102.94431422769459 L 1168.6831092789898 102.85761988721772 L 1168.5432598335783 102.77028899464605 L 1168.4053492135827 102.68233028299609 L 1168.2693912099496 102.5937525480657 L 1168.1353994183667 102.50456464755453 L 1168.0033872379008 102.41477550017834 L 1167.8733678696606 102.32439408477703 L 1167.745354315474 102.23342943941684 L 1167.6193593765902 102.14189066048647 L 1167.4953956523977 102.04978690178756 L 1167.373475539166 101.95712737361922 L 1167.2536112288046 101.86392134185704 L 1167.1358147076446 101.77017812702654 L 1167.0200977552402 101.67590710337106 L 1166.9064719431901 101.58111769791444 L 1166.7949486339805 101.48581938951821 L 1166.68553897985 101.39002170793381 L 1166.5782539216723 101.29373423284954 L 1166.473104187864 101.19696659293271 L 1166.370100293311 101.09972846486664 L 1166.2692525383168 101.00202957238312 L 1166.1705710075726 100.90387968528998 L 1166.0740655691498 100.80528861849413 L 1165.979745873511 100.70626623102011 L 1165.8876213525482 100.60682242502413 L 1165.7977012186361 100.50696714480392 L 1165.709994463713 100.40671037580431 L 1165.6245098583818 100.30606214361863 L 1165.5412559510314 100.20503251298624 L 1165.4602410669836 100.103631586786 L 1165.3814733076588 100.00186950502604 L 1165.3049605497674 99.89975644382972 L 1165.2307104445217 99.79730261441809 L 1165.15873041687 99.69451826208869 L 1165.0890276647553 99.59141366519111 L 1165.0216091583948 99.48799913409913 L 1164.9564816395828 99.38428501017967 L 1164.893651621017 99.28028166475868 L 1164.8331253856468 99.17599949808405 L 1164.7749089860454 99.07144893828554 L 1164.719008243804 98.96664044033201 L 1164.6654287489505 98.86158448498593 L 1164.61417585939 98.75629157775525 L 1164.5652547003679 98.65077224784297 L 1164.5186701639602 98.54503704709414 L 1164.474426908581 98.43909654894075 L 1164.4325293585198 98.33296134734431 L 1164.392981703496 98.22664205573652 L 1164.3557878982424 98.12014930595798 L 1164.3209516621084 98.01349374719489 L 1164.2884764786888 97.90668604491427 L 1164.2583655954747 97.79973687979731 L 1164.2306220235296 97.69265694667143 L 1164.2052485371871 97.58545695344071 L 1164.1822476737752 97.47814762001512 L 1164.1616217333608 97.37073967723859 L 1164.1433727785206 97.26324386581588 L 1164.1275026341352 97.15567093523856 L 1164.1140128872057 97.04803164271006 L 1164.1029048866956 96.94033675206991 L 1164.0941797433954 96.83259703271744 L 1164.0878383298125 96.7248232585348 L 1164.0838812800828 96.6170262068096 L 1164.0823089899081 96.50921665715717" stroke-miterlimit="10" stroke-width="2.7769845610000004" stroke-dasharray=""/></g><g><text fill="black" stroke="none" font-family="sans-serif" font-size="11pt" font-style="normal" font-weight="normal" text-decoration="normal" x="1156.553730614086" y="124.80095321200001" text-anchor="start" dominant-baseline="alphabetic" xml:space="preserve">Database</text></g></g><g><path fill="white" stroke="black" paint-order="fill stroke markers" d=" M 261.6429773690755 183.607685092 L 277.97818066907547 183.607685092 L 277.97818066907547 1222.5266149719998 L 261.6429773690755 1222.5266149719998 L 261.6429773690755 183.607685092" stroke-miterlimit="10" stroke-width="1.3612669416666667" stroke-dasharray=""/><path fill="white" stroke="black" paint-order="fill stroke markers" d=" M 269.8105790190755 296.320587862 L 286.14578231907547 296.320587862 L 286.14578231907547 342.059157102 L 269.8105790190755 342.059157102 L 269.8105790190755 296.320587862" stroke-miterlimit="10" stroke-width="1.3612669416666667" stroke-dasharray=""/><path fill="white" stroke="black" paint-order="fill stroke markers" d=" M 495.11066710377594 569.1184829719999 L 511.4458704037759 569.1184829719999 L 511.4458704037759 1176.7880457319998 L 495.11066710377594 1176.7880457319998 L 495.11066710377594 569.1184829719999" stroke-miterlimit="10" stroke-width="1.3612669416666667" stroke-dasharray=""/><path fill="white" stroke="black" paint-order="fill stroke markers" d=" M 692.7300453496092 810.8794918119999 L 709.0652486496093 810.8794918119999 L 709.0652486496093 856.6180610519998 L 692.7300453496092 856.6180610519998 L 692.7300453496092 810.8794918119999" stroke-miterlimit="10" stroke-width="1.3612669416666667" stroke-dasharray=""/><path fill="white" stroke="black" paint-order="fill stroke markers" d=" M 829.534078409242 902.3566302919997 L 845.8692817092422 902.3566302919997 L 845.8692817092422 948.0951995319997 L 829.534078409242 948.0951995319997 L 829.534078409242 902.3566302919997" stroke-miterlimit="10" stroke-width="1.3612669416666667" stroke-dasharray=""/><path fill="white" stroke="black" paint-order="fill stroke markers" d=" M 942.2865749088163 993.8337687719996 L 958.6217782088164 993.8337687719996 L 958.6217782088164 1039.5723380119996 L 942.2865749088163 1039.5723380119996 L 942.2865749088163 993.8337687719996" stroke-miterlimit="10" stroke-width="1.3612669416666667" stroke-dasharray=""/><path fill="white" stroke="black" paint-order="fill stroke markers" d=" M 1065.7727902804609 1085.3109072519997 L 1082.107993580461 1085.3109072519997 L 1082.107993580461 1131.0494764919997 L 1065.7727902804609 1131.0494764919997 L 1065.7727902804609 1085.3109072519997" stroke-miterlimit="10" stroke-width="1.3612669416666667" stroke-dasharray=""/><g><g><rect fill="white" stroke="none" x="108.88347988455725" y="162.371920802" width="117.38443244996094" height="21.23576429"/></g><text fill="black" stroke="none" font-family="sans-serif" font-size="11pt" font-style="normal" font-weight="normal" text-decoration="normal" x="111.33376037955725" y="177.07360377199998" text-anchor="start" dominant-baseline="alphabetic" xml:space="preserve">Go to Login page</text></g><g><path fill="none" stroke="black" paint-order="fill stroke markers" d=" M 73.50841485 183.607685092 L 248.19365998540883 183.607685092" stroke-miterlimit="10" stroke-width="1.3612669416666667" stroke-dasharray=""/><g transform="translate(261.6429773690755,183.607685092) translate(-261.6429773690755,-183.607685092)"><path fill="black" stroke="none" paint-order="stroke fill markers" d=" M 248.0303079524088 176.80135038366666 L 261.6429773690755 183.607685092 L 248.0303079524088 190.41401980033334 Z"/></g></g><g><g><rect fill="white" stroke="none" x="93.41463833182287" y="208.110490042" width="148.3221155554297" height="21.23576429"/></g><text fill="black" stroke="none" font-family="sans-serif" font-size="11pt" font-style="normal" font-weight="normal" text-decoration="normal" x="95.86491882682287" y="222.812173012" text-anchor="start" dominant-baseline="alphabetic" xml:space="preserve">Type login information</text></g><g><path fill="none" stroke="black" paint-order="fill stroke markers" d=" M 73.50841485 229.346254332 L 248.19365998540883 229.346254332" stroke-miterlimit="10" stroke-width="1.3612669416666667" stroke-dasharray=""/><g transform="translate(261.6429773690755,229.346254332) translate(-261.6429773690755,-229.346254332)"><path fill="black" stroke="none" paint-order="stroke fill markers" d=" M 248.0303079524088 222.53991962366666 L 261.6429773690755 229.346254332 L 248.0303079524088 236.15258904033334 Z"/></g></g><g><g><rect fill="white" stroke="none" x="305.4757728907421" y="253.84905928200004" width="125.25842536988281" height="21.23576429"/></g><text fill="black" stroke="none" font-family="sans-serif" font-size="11pt" font-style="normal" font-weight="normal" text-decoration="normal" x="307.92605338574214" y="268.550742252" text-anchor="start" dominant-baseline="alphabetic" xml:space="preserve">Validate input data</text></g><g><path fill="none" stroke="black" paint-order="fill stroke markers" d=" M 277.97818066907547 275.084823572 L 351.4865955190755 275.084823572 L 351.4865955190755 296.320587862 L 299.5950997027421 296.320587862" stroke-miterlimit="10" stroke-width="1.3612669416666667" stroke-dasharray=""/><g transform="translate(286.14578231907547,296.320587862) translate(-286.14578231907547,-296.320587862)"><path fill="black" stroke="none" paint-order="stroke fill markers" d=" M 299.75845173574214 289.5142531536667 L 286.14578231907547 296.320587862 L 299.75845173574214 303.12692257033336 Z"/></g></g><g><g><rect fill="white" stroke="none" x="305.4757728907421" y="320.823392812" width="95.90982307496094" height="21.23576429"/></g><text fill="black" stroke="none" font-family="sans-serif" font-size="11pt" font-style="normal" font-weight="normal" text-decoration="normal" x="307.92605338574214" y="335.525075782" text-anchor="start" dominant-baseline="alphabetic" xml:space="preserve">Validate value</text></g><g><path fill="none" stroke="black" paint-order="fill stroke markers" d=" M 286.14578231907547 342.059157102 L 351.4865955190755 342.059157102 L 351.4865955190755 363.294921392 L 291.4274980527421 363.294921392" stroke-miterlimit="10" stroke-width="1.3612669416666667" stroke-dasharray="6.53408132"/><g transform="translate(277.97818066907547,363.294921392) translate(-277.97818066907547,-363.294921392)"><path fill="black" stroke="none" paint-order="stroke fill markers" d=" M 291.59085008574215 356.48858668366665 L 277.97818066907547 363.294921392 L 291.59085008574215 370.10125610033333 Z"/></g></g><g><g><rect fill="white" stroke="none" x="107.40174465506506" y="431.90277525199997" width="120.34790290894531" height="21.23576429"/></g><text fill="black" stroke="none" font-family="sans-serif" font-size="11pt" font-style="normal" font-weight="normal" text-decoration="normal" x="109.85202515006506" y="446.60445822199995" text-anchor="start" dominant-baseline="alphabetic" xml:space="preserve">Validate Message</text></g><g><path fill="none" stroke="black" paint-order="fill stroke markers" d=" M 261.6429773690755 453.138539542 L 86.95773223366666 453.138539542" stroke-miterlimit="10" stroke-width="1.3612669416666667" stroke-dasharray="6.53408132"/><g transform="translate(73.50841485,453.138539542) translate(-73.50841485,-453.138539542)"><path fill="black" stroke="none" paint-order="stroke fill markers" d=" M 87.12108426666666 446.33220483366665 L 73.50841485 453.138539542 L 87.12108426666666 459.9448742503333 Z"/></g></g><g><g><rect fill="white" stroke="none" x="106.85772304861975" y="502.14414944199996" width="121.43594612183594" height="21.23576429"/></g><text fill="black" stroke="none" font-family="sans-serif" font-size="11pt" font-style="normal" font-weight="normal" text-decoration="normal" x="109.30800354361975" y="516.8458324119999" text-anchor="start" dominant-baseline="alphabetic" xml:space="preserve">Click button Login</text></g><g><path fill="none" stroke="black" paint-order="fill stroke markers" d=" M 73.50841485 523.379913732 L 248.19365998540883 523.379913732" stroke-miterlimit="10" stroke-width="1.3612669416666667" stroke-dasharray=""/><g transform="translate(261.6429773690755,523.379913732) translate(-261.6429773690755,-523.379913732)"><path fill="black" stroke="none" paint-order="stroke fill markers" d=" M 248.0303079524088 516.5735790236666 L 261.6429773690755 523.379913732 L 248.0303079524088 530.1862484403333 Z"/></g></g><g><g><rect fill="white" stroke="none" x="322.97389650421866" y="547.8827186819999" width="127.14105476441406" height="21.23576429"/></g><text fill="black" stroke="none" font-family="sans-serif" font-size="11pt" font-style="normal" font-weight="normal" text-decoration="normal" x="325.4241769992187" y="562.5844016519999" text-anchor="start" dominant-baseline="alphabetic" xml:space="preserve">POST: /athen/login</text></g><g><path fill="none" stroke="black" paint-order="fill stroke markers" d=" M 277.97818066907547 569.1184829719999 L 481.6613497201093 569.1184829719999" stroke-miterlimit="10" stroke-width="1.3612669416666667" stroke-dasharray=""/><g transform="translate(495.11066710377594,569.1184829719999) translate(-495.11066710377594,-569.1184829719999)"><path fill="black" stroke="none" paint-order="stroke fill markers" d=" M 481.49799768710926 562.3121482636666 L 495.11066710377594 569.1184829719999 L 481.49799768710926 575.9248176803333 Z"/></g></g><g><g><rect fill="white" stroke="none" x="301.3919720657421" y="637.7263368319999" width="149.11673225464844" height="21.23576429"/></g><g><rect fill="white" stroke="none" x="301.3919720657421" y="654.0615401319999" width="170.3049036413672" height="21.23576429"/></g><text fill="red" stroke="none" font-family="sans-serif" font-size="11pt" font-style="normal" font-weight="normal" text-decoration="normal" x="303.8422525607421" y="652.4280198019999" text-anchor="start" dominant-baseline="alphabetic" xml:space="preserve">400 BAD_REQUEST: </text><text fill="red" stroke="none" font-family="sans-serif" font-size="11pt" font-style="normal" font-weight="normal" text-decoration="normal" x="303.8422525607421" y="668.7632231019999" text-anchor="start" dominant-baseline="alphabetic" xml:space="preserve">Missing required property</text></g><g><path fill="none" stroke="black" paint-order="fill stroke markers" d=" M 495.11066710377594 675.2973044219999 L 291.4274980527421 675.2973044219999" stroke-miterlimit="10" stroke-width="1.3612669416666667" stroke-dasharray="6.53408132"/><g transform="translate(277.97818066907547,675.2973044219999) translate(-277.97818066907547,-675.2973044219999)"><path fill="black" stroke="none" paint-order="stroke fill markers" d=" M 291.59085008574215 668.4909697136666 L 277.97818066907547 675.2973044219999 L 291.59085008574215 682.1036391303332 Z"/></g></g><g><g><rect fill="white" stroke="none" x="99.12330227225256" y="699.8001093719998" width="136.90478767457031" height="21.23576429"/></g><text fill="black" stroke="none" font-family="sans-serif" font-size="11pt" font-style="normal" font-weight="normal" text-decoration="normal" x="101.57358276725256" y="714.5017923419998" text-anchor="start" dominant-baseline="alphabetic" xml:space="preserve">Message is required</text></g><g><path fill="none" stroke="black" paint-order="fill stroke markers" d=" M 261.6429773690755 721.0358736619999 L 86.95773223366666 721.0358736619999" stroke-miterlimit="10" stroke-width="1.3612669416666667" stroke-dasharray="6.53408132"/><g transform="translate(73.50841485,721.0358736619999) translate(-73.50841485,-721.0358736619999)"><path fill="black" stroke="none" paint-order="stroke fill markers" d=" M 87.12108426666666 714.2295389536665 L 73.50841485 721.0358736619999 L 87.12108426666666 727.8422083703332 Z"/></g></g><g><g><rect fill="white" stroke="none" x="530.7758609754426" y="789.6437275219998" width="142.6241938025" height="21.23576429"/></g><text fill="black" stroke="none" font-family="sans-serif" font-size="11pt" font-style="normal" font-weight="normal" text-decoration="normal" x="533.2261414704426" y="804.3454104919998" text-anchor="start" dominant-baseline="alphabetic" xml:space="preserve">authenticate(domain)</text></g><g><path fill="none" stroke="black" paint-order="fill stroke markers" d=" M 511.4458704037759 810.8794918119999 L 679.2807279659426 810.8794918119999" stroke-miterlimit="10" stroke-width="1.3612669416666667" stroke-dasharray=""/><g transform="translate(692.7300453496092,810.8794918119999) translate(-692.7300453496092,-810.8794918119999)"><path fill="black" stroke="none" paint-order="stroke fill markers" d=" M 679.1173759329425 804.0731571036665 L 692.7300453496092 810.8794918119999 L 679.1173759329425 817.6858265203332 Z"/></g></g><g><g><rect fill="white" stroke="none" x="553.1810047132356" y="835.3822967619998" width="97.81390632691406" height="21.23576429"/></g><text fill="black" stroke="none" font-family="sans-serif" font-size="11pt" font-style="normal" font-weight="normal" text-decoration="normal" x="555.6312852082356" y="850.0839797319998" text-anchor="start" dominant-baseline="alphabetic" xml:space="preserve">Authentication</text></g><g><path fill="none" stroke="black" paint-order="fill stroke markers" d=" M 692.7300453496092 856.6180610519998 L 524.8951877874426 856.6180610519998" stroke-miterlimit="10" stroke-width="1.3612669416666667" stroke-dasharray="6.53408132"/><g transform="translate(511.4458704037759,856.6180610519998) translate(-511.4458704037759,-856.6180610519998)"><path fill="black" stroke="none" paint-order="stroke fill markers" d=" M 525.0585398204425 849.8117263436665 L 511.4458704037759 856.6180610519998 L 525.0585398204425 863.4243957603331 Z"/></g></g><g><g><rect fill="white" stroke="none" x="579.3747387723488" y="881.1208660019997" width="182.23047126832031" height="21.23576429"/></g><text fill="black" stroke="none" font-family="sans-serif" font-size="11pt" font-style="normal" font-weight="normal" text-decoration="normal" x="581.8250192673488" y="895.8225489719997" text-anchor="start" dominant-baseline="alphabetic" xml:space="preserve">extractWorkspaceDomain()</text></g><g><path fill="none" stroke="black" paint-order="fill stroke markers" d=" M 511.4458704037759 902.3566302919997 L 816.0847610255754 902.3566302919997" stroke-miterlimit="10" stroke-width="1.3612669416666667" stroke-dasharray=""/><g transform="translate(829.534078409242,902.3566302919997) translate(-829.534078409242,-902.3566302919997)"><path fill="black" stroke="none" paint-order="stroke fill markers" d=" M 815.9214089925754 895.5502955836664 L 829.534078409242 902.3566302919997 L 815.9214089925754 909.1629650003331 Z"/></g></g><g><g><rect fill="white" stroke="none" x="607.7462292508644" y="926.8594352419997" width="125.48749031128906" height="21.23576429"/></g><text fill="black" stroke="none" font-family="sans-serif" font-size="11pt" font-style="normal" font-weight="normal" text-decoration="normal" x="610.1965097458644" y="941.5611182119997" text-anchor="start" dominant-baseline="alphabetic" xml:space="preserve">workspaceDomain</text></g><g><path fill="none" stroke="black" paint-order="fill stroke markers" d=" M 829.534078409242 948.0951995319997 L 524.8951877874426 948.0951995319997" stroke-miterlimit="10" stroke-width="1.3612669416666667" stroke-dasharray="6.53408132"/><g transform="translate(511.4458704037759,948.0951995319997) translate(-511.4458704037759,-948.0951995319997)"><path fill="black" stroke="none" paint-order="stroke fill markers" d=" M 525.0585398204425 941.2888648236664 L 511.4458704037759 948.0951995319997 L 525.0585398204425 954.901534240333 Z"/></g></g><g><g><rect fill="white" stroke="none" x="671.0372953107102" y="972.5980044819996" width="111.65785469117188" height="21.23576429"/></g><text fill="black" stroke="none" font-family="sans-serif" font-size="11pt" font-style="normal" font-weight="normal" text-decoration="normal" x="673.4875758057102" y="987.2996874519996" text-anchor="start" dominant-baseline="alphabetic" xml:space="preserve">generateToken()</text></g><g><path fill="none" stroke="black" paint-order="fill stroke markers" d=" M 511.4458704037759 993.8337687719996 L 928.8372575251497 993.8337687719996" stroke-miterlimit="10" stroke-width="1.3612669416666667" stroke-dasharray=""/><g transform="translate(942.2865749088163,993.8337687719996) translate(-942.2865749088163,-993.8337687719996)"><path fill="black" stroke="none" paint-order="stroke fill markers" d=" M 928.6739054921496 987.0274340636663 L 942.2865749088163 993.8337687719996 L 928.6739054921496 1000.640103480333 Z"/></g></g><g><g><rect fill="white" stroke="none" x="689.3873166730149" y="1018.3365737219996" width="74.9578119665625" height="21.23576429"/></g><text fill="black" stroke="none" font-family="sans-serif" font-size="11pt" font-style="normal" font-weight="normal" text-decoration="normal" x="691.8375971680149" y="1033.0382566919995" text-anchor="start" dominant-baseline="alphabetic" xml:space="preserve">JWT token</text></g><g><path fill="none" stroke="black" paint-order="fill stroke markers" d=" M 942.2865749088163 1039.5723380119996 L 524.8951877874426 1039.5723380119996" stroke-miterlimit="10" stroke-width="1.3612669416666667" stroke-dasharray="6.53408132"/><g transform="translate(511.4458704037759,1039.5723380119996) translate(-511.4458704037759,-1039.5723380119996)"><path fill="black" stroke="none" paint-order="stroke fill markers" d=" M 525.0585398204425 1032.7660033036664 L 511.4458704037759 1039.5723380119996 L 525.0585398204425 1046.3786727203328 Z"/></g></g><g><g><rect fill="white" stroke="none" x="715.6794813656732" y="1064.0751429619997" width="145.85969795289063" height="21.23576429"/></g><text fill="black" stroke="none" font-family="sans-serif" font-size="11pt" font-style="normal" font-weight="normal" text-decoration="normal" x="718.1297618606732" y="1078.7768259319998" text-anchor="start" dominant-baseline="alphabetic" xml:space="preserve">createRefreshToken()</text></g><g><path fill="none" stroke="black" paint-order="fill stroke markers" d=" M 511.4458704037759 1085.3109072519997 L 1052.323472896794 1085.3109072519997" stroke-miterlimit="10" stroke-width="1.3612669416666667" stroke-dasharray=""/><g transform="translate(1065.7727902804609,1085.3109072519997) translate(-1065.7727902804609,-1085.3109072519997)"><path fill="black" stroke="none" paint-order="stroke fill markers" d=" M 1052.1601208637942 1078.5045725436664 L 1065.7727902804609 1085.3109072519997 L 1052.1601208637942 1092.1172419603329 Z"/></g></g><g><g><rect fill="white" stroke="none" x="740.5255659603997" y="1109.8137122019998" width="96.1675287634375" height="21.23576429"/></g><text fill="black" stroke="none" font-family="sans-serif" font-size="11pt" font-style="normal" font-weight="normal" text-decoration="normal" x="742.9758464553997" y="1124.515395172" text-anchor="start" dominant-baseline="alphabetic" xml:space="preserve">Refresh token</text></g><g><path fill="none" stroke="black" paint-order="fill stroke markers" d=" M 1065.7727902804609 1131.0494764919997 L 524.8951877874426 1131.0494764919997" stroke-miterlimit="10" stroke-width="1.3612669416666667" stroke-dasharray="6.53408132"/><g transform="translate(511.4458704037759,1131.0494764919997) translate(-511.4458704037759,-1131.0494764919997)"><path fill="black" stroke="none" paint-order="stroke fill markers" d=" M 525.0585398204425 1124.2431417836665 L 511.4458704037759 1131.0494764919997 L 525.0585398204425 1137.855811200333 Z"/></g></g><g><g><rect fill="white" stroke="none" x="304.22301149445303" y="1155.5522814419999" width="164.64282478394531" height="21.23576429"/></g><text fill="green" stroke="none" font-family="sans-serif" font-size="11pt" font-style="normal" font-weight="normal" text-decoration="normal" x="306.67329198945305" y="1170.253964412" text-anchor="start" dominant-baseline="alphabetic" xml:space="preserve">200 OK: LoginResponse</text></g><g><path fill="none" stroke="black" paint-order="fill stroke markers" d=" M 495.11066710377594 1176.7880457319998 L 291.4274980527421 1176.7880457319998" stroke-miterlimit="10" stroke-width="1.3612669416666667" stroke-dasharray="6.53408132"/><g transform="translate(277.97818066907547,1176.7880457319998) translate(-277.97818066907547,-1176.7880457319998)"><path fill="black" stroke="none" paint-order="stroke fill markers" d=" M 291.59085008574215 1169.9817110236665 L 277.97818066907547 1176.7880457319998 L 291.59085008574215 1183.594380440333 Z"/></g></g><g><g><rect fill="white" stroke="none" x="92.83840542166662" y="1201.290850682" width="149.4745813757422" height="21.23576429"/></g><text fill="black" stroke="none" font-family="sans-serif" font-size="11pt" font-style="normal" font-weight="normal" text-decoration="normal" x="95.28868591666662" y="1215.992533652" text-anchor="start" dominant-baseline="alphabetic" xml:space="preserve">Redirect to User's app</text></g><g><path fill="none" stroke="black" paint-order="fill stroke markers" d=" M 261.6429773690755 1222.5266149719998 L 86.95773223366666 1222.5266149719998" stroke-miterlimit="10" stroke-width="1.3612669416666667" stroke-dasharray="6.53408132"/><g transform="translate(73.50841485,1222.5266149719998) translate(-73.50841485,-1222.5266149719998)"><path fill="black" stroke="none" paint-order="stroke fill markers" d=" M 87.12108426666666 1215.7202802636666 L 73.50841485 1222.5266149719998 L 87.12108426666666 1229.332949680333 Z"/></g></g><g><g/><path fill="none" stroke="black" paint-order="fill stroke markers" d=" M 16.335203299999996 387.797726342 L 326.9837905690755 387.797726342 L 326.9837905690755 477.641344492 L 16.335203299999996 477.641344492 L 16.335203299999996 387.797726342 Z" stroke-miterlimit="10" stroke-width="2.3336004714285714" stroke-dasharray=""/><path fill="white" stroke="black" paint-order="fill stroke markers" d=" M 16.335203299999996 387.797726342 L 16.335203299999996 407.399970302 L 62.69440689707031 407.399970302 L 72.49552887707031 397.598848322 L 72.49552887707031 387.797726342 L 16.335203299999996 387.797726342" stroke-miterlimit="10" stroke-width="2.3336004714285714" stroke-dasharray=""/><text fill="black" stroke="none" font-family="sans-serif" font-size="8.8pt" font-style="normal" font-weight="bold" text-decoration="normal" x="32.67040659999999" y="400.865888982" text-anchor="start" dominant-baseline="alphabetic" xml:space="preserve">alt</text><g><rect fill="white" stroke="none" x="86.38045168207032" y="389.104542606" width="151.5138880163672" height="16.988611432000003"/></g><text fill="black" stroke="none" font-family="sans-serif" font-size="8.8pt" font-style="normal" font-weight="bold" text-decoration="normal" x="88.83073217707032" y="400.865888982" text-anchor="start" dominant-baseline="alphabetic" xml:space="preserve">[If the input data is wrong]</text></g><g><g/><path fill="none" stroke="black" paint-order="fill stroke markers" d=" M 16.335203299999996 593.6212879219999 L 1131.1136034804608 593.6212879219999 L 1131.1136034804608 1247.0294199219998 L 16.335203299999996 1247.0294199219998 L 16.335203299999996 593.6212879219999 Z" stroke-miterlimit="10" stroke-width="2.3336004714285714" stroke-dasharray=""/><path fill="white" stroke="black" paint-order="fill stroke markers" d=" M 16.335203299999996 593.6212879219999 L 16.335203299999996 613.2235318819999 L 62.69440689707031 613.2235318819999 L 72.49552887707031 603.4224099019998 L 72.49552887707031 593.6212879219999 L 16.335203299999996 593.6212879219999" stroke-miterlimit="10" stroke-width="2.3336004714285714" stroke-dasharray=""/><text fill="black" stroke="none" font-family="sans-serif" font-size="8.8pt" font-style="normal" font-weight="bold" text-decoration="normal" x="32.67040659999999" y="606.6894505619998" text-anchor="start" dominant-baseline="alphabetic" xml:space="preserve">alt</text><g><rect fill="white" stroke="none" x="86.38045168207032" y="594.9281041859998" width="244.7581049353125" height="16.988611432000003"/></g><text fill="black" stroke="none" font-family="sans-serif" font-size="8.8pt" font-style="normal" font-weight="bold" text-decoration="normal" x="88.83073217707032" y="606.6894505619998" text-anchor="start" dominant-baseline="alphabetic" xml:space="preserve">[If there is required field do not have value]</text><g><path fill="none" stroke="black" paint-order="fill stroke markers" d=" M 16.335203299999996 745.5386786119999 L 1131.1136034804608 745.5386786119999" stroke-miterlimit="10" stroke-width="2.3336004714285714" stroke-dasharray="4.083800825"/></g><g/><g><rect fill="white" stroke="none" x="86.38045168207032" y="746.8454948759999" width="36.84300483765625" height="16.988611432000003"/></g><text fill="black" stroke="none" font-family="sans-serif" font-size="8.8pt" font-style="normal" font-weight="bold" text-decoration="normal" x="88.83073217707032" y="758.6068412519999" text-anchor="start" dominant-baseline="alphabetic" xml:space="preserve">[Else]</text></g><g/></g></g></svg>