<svg version="1.1" xmlns="http://www.w3.org/2000/svg" xmlns:xlink="http://www.w3.org/1999/xlink" width="874" height="577"><desc>title%20Logout%0A%0Aactor%20%23green%3A0.5%20%22User%22%20as%20w%0Aboundary%20%22User's%20Application%20Client%22%20as%20f%0Acontrol%20%22Workspace%20Controller%22%20as%20gc%0Aparticipant%20%22Refresh%20Token%5CnService%22%20as%20rts%0Adatabase%20%23blue%3A1%20%22Database%22%20as%20db%0A%0Aw-%3Ef%3AClick%20logout%20button%0Aactivate%20f%0Af-%3Egc%3APOST%3A%20%2Fathen%2Flogout%0Aactivate%20gc%0A%0A%0Agc-%3Erts%3AdeleteByAccount()%0Aactivate%20rts%0A%0Arts-%3Edb%3AdeleteRefreshTokens%5CnByUser_PersonalMail()%0Aactivate%20db%0Arts%3C--db%3A%0Adeactivate%20db%0A%0Agc%3C--rts%3A%0Adeactivate%20rts%0A%0Af%3C--gc%3A%3Ccolor%3A%23green%3E200%20OK%3A%20Log%20out%20successful!%3C%2Fcolor%3E%0Adeactivate%20gc%0Aw%3C--f%3A%20Display%20Login%20page%0Adeactivate%20f</desc><defs/><g><g/><g/><g/><g/><g/><g/><g/><g/><g/><g/><g/><g/><g/><g/><g/><g><rect fill="white" stroke="none" x="0" y="0" width="874" height="577"/></g><g><text fill="black" stroke="none" font-family="sans-serif" font-size="16.5pt" font-style="normal" font-weight="normal" text-decoration="normal" x="403.5808563197916" y="24.50280495" text-anchor="start" dominant-baseline="alphabetic" xml:space="preserve">Logout</text></g><g/><g><path fill="none" stroke="black" paint-order="fill stroke markers" d=" M 23.64361483359375 129.701514202 L 23.64361483359375 577.286084622" stroke-miterlimit="10" stroke-width="1.3612669416666667" stroke-dasharray="12.565541,5.445067766666667"/><path fill="none" stroke="black" paint-order="fill stroke markers" d=" M 200.06748310423174 129.701514202 L 200.06748310423174 577.286084622" stroke-miterlimit="10" stroke-width="1.3612669416666667" stroke-dasharray="12.565541,5.445067766666667"/><path fill="none" stroke="black" paint-order="fill stroke markers" d=" M 443.32036049557286 129.701514202 L 443.32036049557286 577.286084622" stroke-miterlimit="10" stroke-width="1.3612669416666667" stroke-dasharray="12.565541,5.445067766666667"/><path fill="none" stroke="black" paint-order="fill stroke markers" d=" M 623.0012926964843 129.701514202 L 623.0012926964843 577.286084622" stroke-miterlimit="10" stroke-width="1.3612669416666667" stroke-dasharray="12.565541,5.445067766666667"/><path fill="none" stroke="black" paint-order="fill stroke markers" d=" M 833.6127668895832 129.701514202 L 833.6127668895832 577.286084622" stroke-miterlimit="10" stroke-width="1.3612669416666667" stroke-dasharray="12.565541,5.445067766666667"/></g><g><g><path fill="white" stroke="green" paint-order="fill stroke markers" d=" M 32.95468071459375 60.60360424300001 A 9.311065881 9.311065881 0 1 1 32.9546760590612 60.594293178670846 M 23.64361483359375 69.91467012400001 L 23.64361483359375 89.84361815000001 M 11.882268457593753 77.102159576 L 35.40496120959375 77.102159576 M 23.64361483359375 89.84361815000001 L 11.882268457593753 108.465749912 M 23.64361483359375 89.84361815000001 L 35.40496120959375 108.465749912" stroke-miterlimit="10" stroke-width="1.3884922805000002" stroke-dasharray=""/></g><g><text fill="black" stroke="none" font-family="sans-serif" font-size="11pt" font-style="normal" font-weight="normal" text-decoration="normal" x="8.167601650000002" y="124.80095321200001" text-anchor="start" dominant-baseline="alphabetic" xml:space="preserve">User</text></g><g><path fill="white" stroke="black" paint-order="fill stroke markers" d=" M 232.49286165473174 82.819480731 A 24.2577769005 24.2577769005 0 1 1 232.4928495258443 82.79522295814245 M 169.03059683423174 57.17321154999999 L 169.03059683423174 108.465749912 M 167.64210455373174 82.819480731 L 183.97730785373173 82.819480731" stroke-miterlimit="10" stroke-width="2.7769845610000004" stroke-dasharray=""/></g><g><text fill="black" stroke="none" font-family="sans-serif" font-size="11pt" font-style="normal" font-weight="normal" text-decoration="normal" x="120.85492817259112" y="124.80095321200001" text-anchor="start" dominant-baseline="alphabetic" xml:space="preserve">User's Application Client</text></g><g><path fill="white" stroke="black" paint-order="fill stroke markers" d=" M 467.57813739607286 82.819480731 A 24.2577769005 24.2577769005 0 1 1 467.57812526718544 82.79522295814245 M 440.05331983557284 58.561703830499994 L 449.85444181557284 50.39410218049999 M 440.05331983557284 58.561703830499994 L 449.85444181557284 66.72930548049999" stroke-miterlimit="10" stroke-width="2.7769845610000004" stroke-dasharray=""/></g><g><text fill="black" stroke="none" font-family="sans-serif" font-size="11pt" font-style="normal" font-weight="normal" text-decoration="normal" x="372.9803794164713" y="124.80095321200001" text-anchor="start" dominant-baseline="alphabetic" xml:space="preserve">Workspace Controller</text></g><path fill="none" stroke="none"/><g><path fill="white" stroke="black" paint-order="fill stroke markers" d=" M 558.0156189665702 69.42461402500001 L 687.9869664263983 69.42461402500001 L 687.9869664263983 129.701514202 L 558.0156189665702 129.701514202 L 558.0156189665702 69.42461402500001 Z" stroke-miterlimit="10" stroke-width="2.613632528" stroke-dasharray=""/></g><g><text fill="black" stroke="none" font-family="sans-serif" font-size="11pt" font-style="normal" font-weight="normal" text-decoration="normal" x="575.7393145470702" y="97.031107602" text-anchor="start" dominant-baseline="alphabetic" xml:space="preserve">Refresh Token</text><text fill="black" stroke="none" font-family="sans-serif" font-size="11pt" font-style="normal" font-weight="normal" text-decoration="normal" x="598.5596499352538" y="113.36631090200001" text-anchor="start" dominant-baseline="alphabetic" xml:space="preserve">Service</text></g><g><path fill="white" stroke="blue" paint-order="fill stroke markers" d=" M 809.7633700715833 97.684515734 L 809.7633700715833 63.380588804000006 L 857.4621637075832 63.380588804000006 L 857.4621637075832 97.684515734" stroke-miterlimit="10" stroke-width="2.7769845610000004" stroke-dasharray=""/><path fill="white" stroke="blue" paint-order="fill stroke markers" d=" M 857.4621637075832 62.1881189631 L 857.4609712476795 62.29592950801663 L 857.4573939872134 62.403729271968594 L 857.4514322839082 62.51150747506936 L 857.4430867339288 62.619253339588404 L 857.4323581718236 62.72695609102909 L 857.4192476704397 62.834604959206004 L 857.4037565408165 62.94218917932205 L 857.3858863320539 63.04969799304486 L 857.3656388311579 63.15712064958265 L 857.3430160628617 63.2644464067593 L 857.3180202894233 63.371664532088516 L 857.2906540103993 63.47876430384712 L 857.2609199623947 63.58573501214718 L 857.2288211187896 63.692565960007016 L 857.1943606894415 63.79924646442086 L 857.1575421203647 63.90576585742718 L 857.1183690933854 64.01211348717543 L 857.0768455257736 64.11827871899126 L 857.0329755698516 64.22425093643996 L 856.9867636125782 64.3300195423881 L 856.9382142751109 64.43557396006322 L 856.8873324123429 64.54090363411153 L 856.834123112418 64.64599803165338 L 856.7785916962217 64.75084664333659 L 856.7207437168497 64.85543898438739 L 856.6605849590516 64.95976459565881 L 856.5981214386529 65.06381304467668 L 856.5333594019537 65.16757392668278 L 856.4663053251037 65.27103686567541 L 856.3969659134548 65.37419151544687 L 856.3253481008901 65.47702756061814 L 856.2514590491314 65.5795347176704 L 856.1753061470224 65.68170273597339 L 856.0968970097896 65.7835213988104 L 856.0162394782815 65.88498052439998 L 855.933341618184 65.98606996691414 L 855.8482117192142 66.08677961749288 L 855.7608582942908 66.18709940525505 L 855.6712900786836 66.28701929830548 L 855.5795160291395 66.38652930473813 L 855.485545322987 66.48561947363528 L 855.3893873572185 66.58427989606261 L 855.2910517475505 66.6825007060601 L 855.1905483274616 66.7802720816286 L 855.0878871472105 66.87758424571203 L 854.9830784728294 66.97442746717506 L 854.8761327850985 67.07079206177627 L 854.7670607784976 67.1666683931365 L 854.6558733601363 67.2620468737025 L 854.5425816486637 67.35691796570569 L 854.4271969731568 67.45127218211596 L 854.3097308719867 67.54510008759026 L 854.1901950916658 67.63839229941624 L 854.0686015856726 67.73113948845047 L 853.9449625132562 67.82333238005134 L 853.8192902382208 67.9149617550065 L 853.6915973276894 68.00601845045483 L 853.5618965508463 68.09649336080267 L 853.4302008776614 68.18637743863435 L 853.2965234775921 68.27566169561702 L 853.1608777182672 68.36433720339936 L 853.0232771641494 68.45239509450451 L 852.8837355751795 68.53982656321674 L 852.7422669054001 68.62662286646201 L 852.5988853015604 68.71277532468237 L 852.4536051017012 68.79827532270376 L 852.3064408337214 68.88311431059763 L 852.1574072139252 68.9672838045359 L 852.0065191455503 69.0507753876393 L 851.853791717278 69.13358071081912 L 851.6992402017238 69.21569149361203 L 851.5428800539103 69.29709952500816 L 851.384726909722 69.37779666427225 L 851.2247965843417 69.45777484175761 L 851.0631050706685 69.53702605971311 L 850.8996685377192 69.61554239308303 L 850.7345033290106 69.69331599029945 L 850.5676259609263 69.77033907406746 L 850.3990531210638 69.84660394214286 L 850.2288016665667 69.92210296810242 L 850.0568886224386 69.99682860210643 L 849.8833311798405 70.07077337165379 L 849.7081466943722 70.14392988232913 L 849.5313526843362 70.21629081854239 L 849.3529668289862 70.28784894426022 L 849.1730069667589 70.35859710372968 L 848.9914910934908 70.42852822219379 L 848.8084373606179 70.49763530659898 L 848.6238640733609 70.5659114462944 L 848.4377896888947 70.63334981372294 L 848.2502328145027 70.69994366510412 L 848.0612122057161 70.76568634110825 L 847.8707467644382 70.83057126752253 L 847.6788555370543 70.89459195590838 L 847.4855577125276 70.95774200425032 L 847.290872620479 71.02001509759614 L 847.0948197292558 71.08140500868842 L 846.8974186439837 71.14190559858717 L 846.6986891046066 71.20151081728383 L 846.4986509839129 71.26021470430622 L 846.2973242855479 71.31801138931453 L 846.0947291420139 71.37489509268845 L 845.890885812656 71.43086012610503 L 845.6858146816378 71.48590089310757 L 845.479536255901 71.54001188966522 L 845.2720711631167 71.59318770472345 L 845.063440149621 71.64542302074504 L 844.8536640783416 71.69671261424193 L 844.6427639267106 71.7470513562975 L 844.4307607845675 71.79643421307951 L 844.2176758520499 71.84485624634341 L 844.0035304374735 71.89231261392625 L 843.7883459552012 71.93879857023082 L 843.5721439235019 71.9843094667002 L 843.3549459623988 72.02884075228269 L 843.1367737915068 72.07238797388683 L 842.9176492278613 72.11494677682676 L 842.6975941837359 72.15651290525764 L 842.4766306644518 72.19708220260128 L 842.2547807661769 72.23665061196175 L 842.0320666737158 72.27521417653107 L 841.8085106582923 72.31276903998494 L 841.5841350753219 72.3493114468683 L 841.3589623621756 72.38483774297092 L 841.1330150359372 72.41934437569277 L 840.906315691151 72.45282789439938 L 840.6788869975626 72.48528495076673 L 840.4507516978517 72.51671229911628 L 840.2219326053585 72.54710679673934 L 839.9924526018011 72.5764654042115 L 839.7623346349891 72.60478518569649 L 839.531601716527 72.63206330923974 L 839.3002769195147 72.65829704705163 L 839.0683833762388 72.68348377578025 L 838.8359442758607 72.70762097677371 L 838.6029828620966 72.73070623633201 L 838.3695224308937 72.75273724594847 L 838.1355863281007 72.77371180254045 L 837.9011979471327 72.79362780866978 L 837.6663807266327 72.81248327275246 L 837.4311581481271 72.83027630925778 L 837.1955537336775 72.84700513889692 L 836.9595910435291 72.86266808880085 L 836.7232936737545 72.87726359268764 L 836.4866852538935 72.89079019101906 L 836.2497894445909 72.90324653114655 L 836.0126299352304 72.91463136744649 L 835.7752304415652 72.9249435614447 L 835.5376147033468 72.93418208193043 L 835.2998064819511 72.94234600505929 L 835.061829558002 72.94943451444577 L 834.8237077289937 72.95544690124485 L 834.5854648069105 72.96038256422287 L 834.3471246158462 72.96424100981763 L 834.1087109896212 72.9670218521878 L 833.8702477693994 72.96872481325143 L 833.6317588013043 72.96934972271386 L 833.3932679340337 72.96889651808466 L 833.1547990164759 72.96736524468392 L 832.9163758953237 72.96475605563768 L 832.6780224126907 72.96106921186271 L 832.4397624037263 72.95630508204027 L 832.201619694233 72.9504641425794 L 831.9636180982834 72.94354697756918 L 831.7257814158386 72.93555427872033 L 831.4881334303686 72.9264868452961 L 831.2506979064741 72.91634558403224 L 831.0134985875094 72.90513150904647 L 830.776559193209 72.89284574173689 L 830.5399034173147 72.87948951067006 L 830.3035549252069 72.86506415145789 L 830.0675373515378 72.84957110662431 L 829.8318742978682 72.8330119254609 L 829.5965893303071 72.81538826387197 L 829.3617059771551 72.79670188420899 L 829.1272477265518 72.77695465509434 L 828.893238024127 72.7561485512345 L 828.6597002706555 72.73428565322251 L 828.4266578197187 72.71136814732996 L 828.194133975367 72.68739832528833 L 827.9621519897911 72.66237858405984 L 827.7307350609965 72.63631142559778 L 827.499906330483 72.60919945659627 L 827.2696888809314 72.58104538822961 L 827.0401057338948 72.55185203588118 L 826.8111798474965 72.5216223188619 L 826.5829341141346 72.49035926011825 L 826.3553913581919 72.45806598593009 L 826.1285743337546 72.4247457255979 L 825.9025057223362 72.39040181111994 L 825.6772081306092 72.35503767685907 L 825.4527040881451 72.31865685919922 L 825.2290160451612 72.28126299619186 L 825.0061663702753 72.24285982719209 L 824.7841773482692 72.20345119248485 L 824.5630711778601 72.16304103290075 L 824.3428699694807 72.12163338942209 L 824.1235957430686 72.07923240277869 L 823.9052704258634 72.03584231303388 L 823.687915850215 71.99146745916049 L 823.4715537513999 71.94611227860693 L 823.2562057654476 71.89978130685344 L 823.0418934269774 71.85247917695861 L 822.8286381670442 71.80421061909601 L 822.6164613109968 71.75498046008119 L 822.4053840763435 71.70479362288901 L 822.1954275706321 71.65365512616141 L 821.9866127893382 71.60157008370541 L 821.7789606137659 71.54854370398188 L 821.5724918089597 71.49458128958457 L 821.3672270216281 71.43968823671 L 821.1631867780786 71.38387003461766 L 820.9603914821656 71.32713226508127 L 820.7588614132499 71.26948060183051 L 820.5586167241702 71.21092080998365 L 820.3596774392286 71.15145874547107 L 820.1620634521878 71.0911003544497 L 819.9657945242819 71.0298516727083 L 819.7708902822401 70.96771882506403 L 819.5773702163242 70.90470802474988 L 819.3852536783794 70.84082557279336 L 819.1945598798997 70.77607785738643 L 819.0053078901057 70.71047135324669 L 818.8175166340387 70.64401262096986 L 818.6312048906681 70.5767083063738 L 818.4463912910127 70.50856513983389 L 818.2630943162786 70.43958993560999 L 818.0813322960105 70.36978959116503 L 817.9011234062589 70.29917108647531 L 817.7224856677626 70.22774148333244 L 817.5454369441467 70.1555079246372 L 817.3699949401358 70.08247763368529 L 817.1961771997844 70.00865791344492 L 817.0240011047215 69.9340561458266 L 816.8534838724131 69.85867979094495 L 816.6846425544405 69.78253638637263 L 816.5174940347946 69.70563354638664 L 816.3520550281883 69.62797896120689 L 816.188342078384 69.54958039622719 L 816.0263715565408 69.47044569123871 L 815.8661596595755 69.39058275964601 L 815.7077224085443 69.30999958767568 L 815.5510756470405 69.22870423357777 L 815.3962350396097 69.14670482681996 L 815.2432160701833 69.06400956727457 L 815.0920340405311 68.98062672439866 L 814.9427040687298 68.89656463640702 L 814.7952410876522 68.8118317094384 L 814.6496598434737 68.72643641671489 L 814.5059748941973 68.6403872976946 L 814.3642006081981 68.55369295721772 L 814.2243511627867 68.46636206464606 L 814.0864405427909 68.37840335299609 L 813.9504825391579 68.28982561806569 L 813.8164907475748 68.20063771755453 L 813.6844785671091 68.11084857017835 L 813.5544591988687 68.02046715477704 L 813.4264456446822 67.92950250941684 L 813.3004507057983 67.83796373048648 L 813.176486981606 67.74585997178757 L 813.0545668683743 67.65320044361923 L 812.9347025580129 67.55999441185705 L 812.816906036853 67.46625119702654 L 812.7011890844485 67.37198017337107 L 812.5875632723983 67.27719076791445 L 812.4760399631889 67.18189245951821 L 812.3666303090582 67.08609477793381 L 812.2593452508805 66.98980730284956 L 812.1541955170723 66.89303966293272 L 812.0511916225192 66.79580153486665 L 811.9503438675249 66.69810264238313 L 811.8516623367808 66.59995275528999 L 811.7551568983579 66.50136168849414 L 811.6608372027194 66.40233930102012 L 811.5687126817564 66.30289549502413 L 811.4787925478443 66.20304021480393 L 811.3910857929213 66.1027834458043 L 811.30560118759 66.00213521361863 L 811.2223472802398 65.90110558298623 L 811.1413323961917 65.799704656786 L 811.0625646368669 65.69794257502603 L 810.9860518789757 65.59582951382973 L 810.9118017737298 65.4933756844181 L 810.8398217460783 65.3905913320887 L 810.7701189939636 65.28748673519112 L 810.7027004876031 65.18407220409914 L 810.6375729687911 65.08035808017966 L 810.5747429502252 64.97635473475869 L 810.514216714855 64.87207256808405 L 810.4560003152535 64.76752200828555 L 810.4000995730123 64.66271351033203 L 810.3465200781588 64.55765755498592 L 810.295267188598 64.45236464775525 L 810.2463460295762 64.34684531784296 L 810.1997614931684 64.24111011709415 L 810.1555182377895 64.13516961894075 L 810.113620687728 64.0290344173443 L 810.0740730327043 63.92271512573653 L 810.0368792274506 63.81622237595798 L 810.0020429913168 63.70956681719489 L 809.9695678078971 63.602759114914264 L 809.9394569246831 63.49580994979732 L 809.9117133527378 63.38873001667144 L 809.8863398663955 63.28153002344071 L 809.8633390029835 63.17422069001512 L 809.842713062569 63.066812747238586 L 809.8244641077289 62.959316935815885 L 809.8085939633435 62.85174400523857 L 809.795104216414 62.74410471271006 L 809.7839962159037 62.636409822069915 L 809.7752710726037 62.52867010271744 L 809.7689296590207 62.4208963285348 L 809.7649726092911 62.313099276809595 L 809.7634003191164 62.20528972715717 L 809.7642129457244 62.09747846044265 L 809.7674104078529 61.98967625770286 L 809.7729923857586 61.88189389906824 L 809.7809583212482 61.77414216268484 L 809.791307417735 61.66643182363649 L 809.8040386403178 61.558773652867366 L 809.8191507158849 61.4511784161048 L 809.8366421332415 61.34365687278283 L 809.8565111432604 61.236219774966166 L 809.878755759057 61.12887786627507 L 809.9033737561884 61.02164188081096 L 809.9303626728754 60.91452254208302 L 809.9597198102488 60.807530561935856 L 809.9914422326193 60.70067663947832 L 810.0255267677712 60.593971460013606 L 810.0619700072792 60.487425693970756 L 810.10076830685 60.381049995837586 L 810.1419177866857 60.27485500309525 L 810.1854143318727 60.16885133515453 L 810.2312535927928 60.06304959229389 L 810.279430985558 59.95746035459945 L 810.3299416924692 59.852094180906974 L 810.3827806624978 59.746961607746044 L 810.437942611791 59.64207314828636 L 810.4954220241996 59.537439291286454 L 810.5552131518303 59.43307050004484 L 810.6173100156202 59.32897721135367 L 810.6817064059347 59.22516983445505 L 810.7483958831886 59.12165875000019 L 810.8173717784894 59.01845430901127 L 810.8886271943052 58.91556683184637 L 810.9621550051538 58.81300660716748 L 811.0379478583154 58.7107838909116 L 811.1159981745678 58.60890890526517 L 811.1962981489446 58.507391837641855 L 811.278839751515 58.406242839663825 L 811.3636147281877 58.30547202614659 L 811.4506146015357 58.205089474087515 L 811.539830671644 58.105105221658164 L 811.6312540169802 58.00552926720046 L 811.7248754952857 57.90637156822687 L 811.8206857444907 57.807642040424646 L 811.9186751836503 57.709350556664305 L 812.0188340139022 57.61150694601232 L 812.1211522194467 57.514120992748204 L 812.2256195685485 57.417202435386145 L 812.33222561456 57.320760965701105 L 812.4409596969653 57.224806227759686 L 812.5518109424465 57.12934781695572 L 812.6647682659719 57.03439527905074 L 812.779820371903 56.93995810921942 L 812.8969557551252 56.84604575110002 L 813.0161627021976 56.75266759585011 L 813.137429292525 56.65983298120741 L 813.2607433995495 56.567551190555996 L 813.3860926919629 56.47583145199805 L 813.5134646349405 56.384682937430995 L 813.6428464913944 56.29411476163032 L 813.7742253232465 56.20413598133814 L 813.907587992723 56.1147555943575 L 814.0429211636684 56.02598253865261 L 814.1802113028783 55.937825691455075 L 814.3194446814531 55.85029386837614 L 814.460607376171 55.763395822525176 L 814.6036852708801 55.677140243634355 L 814.7486640579102 55.591535757189675 L 814.8955292395035 55.50659092356846 L 815.0442661292642 55.42231423718327 L 815.1948598536271 55.33871412563253 L 815.3472953533455 55.25579894885771 L 815.5015573849963 55.1735769983074 L 815.657630522505 55.092056496108135 L 815.8154991586878 55.01124559424221 L 815.9751475068127 54.93115237373246 L 816.1365596021778 54.851784843834196 L 816.2997193037083 54.77315094123426 L 816.4646102955699 54.6952585292574 L 816.6312160888008 54.61811539707989 L 816.7995200229606 54.54172925895067 L 816.9695052677959 54.46610775341989 L 817.1411548249241 54.391258442575094 L 817.3144515295326 54.317188811284986 L 817.489378052095 54.24390626645098 L 817.6659169001052 54.171418136266475 L 817.8440504198253 54.09973166948409 L 818.0237607980519 54.028854034690774 L 818.2050300638967 53.95879231959093 L 818.3878400905844 53.88955353029769 L 818.5721725972646 53.82114459063227 L 818.7580091508404 53.753572341431656 L 818.945331167811 53.68684353986444 L 819.1341199161309 53.62096485875517 L 819.3243565170827 53.55594288591707 L 819.5160219471649 53.49178412349323 L 819.7090970399939 53.42849498730643 L 819.9035624882216 53.366081806217544 L 820.0993988454652 53.304550821492676 L 820.296586528252 53.24390818617902 L 820.4951058179782 53.18415996448957 L 820.6949368628802 53.12531213119671 L 820.89605968002 53.067370571034715 L 821.0984541572836 53.01034107811134 L 821.302100055392 52.95422935532834 L 821.5069770099248 52.89904101381123 L 821.7130645333574 52.84478157234818 L 821.9203420171093 52.79145645683812 L 822.1287887336048 52.73907099974815 L 822.338383838346 52.687630439580346 L 822.5491063719969 52.637139920347835 L 822.76093526248 52.58760449106049 L 822.9738493270826 52.53902910521993 L 823.1878272745757 52.49141862032429 L 823.402847707343 52.444777797382365 L 823.6188891235201 52.399111300437596 L 823.8359299191457 52.354423696101605 L 824.053948390321 52.3107194530976 L 824.2729227353806 52.26800294181345 L 824.4928310570724 52.2262784338647 L 824.7136513647475 52.18555010166736 L 824.9353615765592 52.14582201802072 L 825.1579395216711 52.10709815570004 L 825.3813629424741 52.06938238705927 L 825.6056094968122 52.032678483643856 L 825.8306567602172 51.996990115813546 L 826.0564822281499 51.96232085237539 L 826.283063318252 51.928674160226834 L 826.5103773726031 51.89605340400906 L 826.7384016599872 51.8644618457705 L 826.9671133781657 51.833902644640645 L 827.1964896561573 51.80437885651416 L 827.4265075565254 51.775893433745246 L 827.6571440776715 51.74844922485244 L 827.8883761561359 51.722048974233765 L 828.1201806689032 51.69669532189228 L 828.3525344357156 51.672390803172085 L 828.5854142213898 51.649137848504814 L 828.8187967381414 51.626938783166544 L 829.0526586479132 51.60579582704531 L 829.286976564709 51.58571109441911 L 829.5217270569325 51.56668659374447 L 829.7568866497301 51.54872422745561 L 829.9924318273385 51.53182579177417 L 830.2283390354361 51.515992976529645 L 830.4645846834989 51.50122736499037 L 830.7011451471586 51.4875304337052 L 830.9379967705664 51.47490355235584 L 831.1751158687571 51.4633479836199 L 831.4124787300185 51.45286488304463 L 831.6500616182623 51.443455298931354 L 831.8878407753975 51.43512017223063 L 832.1257924237069 51.4278603364482 L 832.3638927682236 51.42167651756158 L 832.6021179991118 51.41656933394751 L 832.8404442940468 51.41253929632009 L 833.0788478205978 51.40958680767973 L 833.3173047386107 51.407712163272826 L 833.5557912025926 51.40691555056227 L 833.7942833640956 51.40719704920866 L 834.0327573741024 51.40855663106237 L 834.2711893854108 51.41099416016634 L 834.5095555550183 51.414509392769695 L 834.7478320465066 51.419101977352106 L 834.9859950324251 51.42477145465894 L 835.2240206966736 51.431517257747196 L 835.4618852368841 51.43933871204218 L 835.6995648668008 51.44823503540498 L 835.9370358186588 51.45820533821068 L 836.1742743455608 51.4692486234373 L 836.4112567238517 51.48136378676553 L 836.6479592554913 51.49454961668913 L 836.8843582704236 51.50880479463608 L 837.1204301289442 51.524127895100484 L 837.3561512240639 51.54051738578506 L 837.5914979838695 51.5579716277544 L 837.8264468738814 51.57648887559884 L 838.0609743994062 51.59606727760904 L 838.2950571078869 51.6167048759611 L 838.5286715912476 51.6383996069124 L 838.7617944882347 51.66114930100791 L 838.9944024867528 51.684951683297186 L 839.2264723261959 51.70980437356183 L 839.4579807997734 51.735704886553535 L 839.6889047568309 51.76265063224257 L 839.9192211051651 51.79063891607683 L 840.148906813333 51.81966693925126 L 840.3779389129554 51.849731798987726 L 840.606294501013 51.88083048882531 L 840.8339507421375 51.91295989892094 L 841.0608848708943 51.94611681636038 L 841.2870741940596 51.980297925479526 L 841.5124960928899 52.01549980819594 L 841.7371280253828 52.0517189443507 L 841.9609475285325 52.08895171206036 L 842.1839322205751 52.127194388079175 L 842.4060598032271 52.16644314817141 L 842.6273080639156 52.20669406749378 L 842.8476548779987 52.247943120987884 L 843.0670782109786 52.29018618378274 L 843.285556120705 52.33341903160728 L 843.5030667595689 52.37763734121275 L 843.7195883766877 52.422836690805035 L 843.9350993200801 52.46901256048684 L 844.1495780388314 52.516160332709674 L 844.3630030852484 52.564275292735616 L 844.5753531170043 52.613352629108746 L 844.786606899273 52.663387434136325 L 844.9967433068522 52.71437470437956 L 845.2057413262762 52.7663093411539 L 845.4135800579174 52.819186151038956 L 845.6202387180757 52.8729998463978 L 845.8256966410574 52.92774504590574 L 846.0299332812414 52.983416275088445 L 846.2329282151337 53.040007966869396 L 846.4346611434103 53.09751446212657 L 846.6351118929464 53.15593001025836 L 846.834260418834 53.21524876975863 L 847.0320868063866 53.27546480880087 L 847.2285712731302 53.33657210583136 L 847.423694170782 53.3985645501713 L 847.6174359872148 53.461435942627936 L 847.8097773484081 53.52517999611441 L 848.0006990203866 53.58979033627848 L 848.1901819111417 53.655260502139996 L 848.3782070725426 53.721583946736914 L 848.5647557022297 53.78875403778004 L 848.7498091454954 53.85676405831625 L 848.9333488971497 53.92560720740017 L 849.1153566033704 53.995276600774254 L 849.2958140635385 54.065765271557225 L 849.4747032320583 54.13706617094075 L 849.6520062201621 54.2091721688943 L 849.8277052976989 54.28207605487816 L 850.0017828949073 54.35577053856451 L 850.1742216041725 54.43024825056637 L 850.3450041817675 54.50550174317461 L 850.5141135495768 54.581523491102686 L 850.6815327968044 54.658305892239156 L 850.8472451816652 54.73584126840789 L 851.0112341330589 54.81412186613588 L 851.1734832522269 54.89313985742859 L 851.3339763143925 54.97288734055273 L 851.4926972703834 55.05335634082646 L 851.6496302482359 55.1345388114168 L 851.8047595547832 55.21642663414435 L 851.9580696772241 55.29901162029506 L 852.1095452846738 55.38228551143916 L 852.2591712296979 55.46623998025691 L 852.4069325498267 55.55086663137139 L 852.5528144690512 55.63615700218803 L 852.6968023993011 55.722102563740805 L 852.8388819419033 55.80869472154519 L 852.979038889022 55.89592481645755 L 853.1172592250792 55.98378412554111 L 853.2535291281566 56.07226386293816 L 853.3878349713774 56.1613551807487 L 853.5201633242692 56.251049169915184 L 853.6505009541069 56.34133686111345 L 853.7788348272362 56.4322092256496 L 853.9051521103769 56.52365717636293 L 854.0294401719055 56.615671568534566 L 854.15168658312 56.70824320080196 L 854.2718791194807 56.80136281607904 L 854.3900057618343 56.89502110248188 L 854.506054697615 56.98920869425987 L 854.6200143220259 57.083916172732344 L 854.7318732391996 57.17913406723036 L 854.8416202633374 57.27485285604382 L 854.9492444198286 57.37106296737362 L 855.054734946347 57.467754780288786 L 855.158081293928 57.56491862568861 L 855.259273128023 57.662544787269525 L 855.3583003295329 57.76062350249672 L 855.4551529958198 57.859144963580405 L 855.5498214416982 57.95809931845658 L 855.6422962004021 58.05747667177222 L 855.732568024533 58.15726708587479 L 855.8206278869833 58.257460581806065 L 855.9064669818404 58.358047140299924 L 855.9900767252664 58.459016702784346 L 856.0714487563563 58.56035917238722 L 856.1505749379752 58.66206441494605 L 856.2274473575707 58.764122260021324 L 856.3020583279648 58.866522501913586 L 856.3744003881229 58.96925490068398 L 856.444466303899 59.072309183178234 L 856.5122490687601 59.17567504405398 L 856.5777419044861 59.279342146811274 L 856.6409382618479 59.38330012482622 L 856.7018318212627 59.48753858238766 L 856.760416493425 59.59204709573668 L 856.8166864199167 59.69681521410906 L 856.8706359737919 59.80183246078026 L 856.9222597601402 59.907088334113126 L 856.9715526166258 60.012572308608036 L 857.0185096140044 60.11827383595545 L 857.0631260566153 60.22418234609071 L 857.1053974828513 60.33028724825106 L 857.1453196656051 60.43657793203471 L 857.1828886126918 60.54304376846186 L 857.2181005672478 60.64967411103757 L 857.2509520081071 60.75645829681646 L 857.2814396501531 60.86338564746893 L 857.3095604446468 60.97044547034902 L 857.3353115795321 61.07762705956367 L 857.3586904797173 61.184919697043256 L 857.3796948073316 61.29231265361346 L 857.3983224619599 61.399795190068104 L 857.4145715808521 61.50735655824312 L 857.42844053911 61.614986002091314 L 857.4399279498493 61.72267275875801 L 857.4490326643385 61.830406059657264 L 857.4557537721137 61.93817513154877 L 857.4600906010696 62.04596919761514 L 857.4620427175272 62.15377747853961 M 857.4621637075832 96.4920458931 L 857.4609712476795 96.59985643801662 L 857.4573939872134 96.70765620196859 L 857.4514322839082 96.81543440506935 L 857.4430867339288 96.9231802695884 L 857.4323581718236 97.03088302102908 L 857.4192476704397 97.138531889206 L 857.4037565408165 97.24611610932205 L 857.3858863320539 97.35362492304485 L 857.3656388311579 97.46104757958265 L 857.3430160628617 97.5683733367593 L 857.3180202894233 97.67559146208852 L 857.2906540103993 97.78269123384712 L 857.2609199623947 97.88966194214719 L 857.2288211187896 97.99649289000702 L 857.1943606894415 98.10317339442086 L 857.1575421203647 98.20969278742717 L 857.1183690933854 98.31604041717543 L 857.0768455257736 98.42220564899125 L 857.0329755698516 98.52817786643996 L 856.9867636125782 98.6339464723881 L 856.9382142751109 98.73950089006323 L 856.8873324123429 98.84483056411152 L 856.834123112418 98.94992496165337 L 856.7785916962217 99.05477357333659 L 856.7207437168497 99.15936591438738 L 856.6605849590516 99.2636915256588 L 856.5981214386529 99.36773997467667 L 856.5333594019537 99.47150085668278 L 856.4663053251037 99.5749637956754 L 856.3969659134548 99.67811844544686 L 856.3253481008901 99.78095449061813 L 856.2514590491314 99.8834616476704 L 856.1753061470224 99.98562966597338 L 856.0968970097896 100.08744832881038 L 856.0162394782815 100.18890745439998 L 855.933341618184 100.28999689691415 L 855.8482117192142 100.39070654749288 L 855.7608582942908 100.49102633525506 L 855.6712900786836 100.59094622830548 L 855.5795160291395 100.69045623473812 L 855.485545322987 100.78954640363527 L 855.3893873572185 100.8882068260626 L 855.2910517475505 100.9864276360601 L 855.1905483274616 101.0841990116286 L 855.0878871472105 101.18151117571202 L 854.9830784728294 101.27835439717506 L 854.8761327850985 101.37471899177628 L 854.7670607784976 101.4705953231365 L 854.6558733601363 101.56597380370249 L 854.5425816486637 101.6608448957057 L 854.4271969731568 101.75519911211595 L 854.3097308719867 101.84902701759025 L 854.1901950916658 101.94231922941623 L 854.0686015856726 102.03506641845047 L 853.9449625132562 102.12725931005133 L 853.8192902382208 102.2188886850065 L 853.6915973276894 102.30994538045483 L 853.5618965508463 102.40042029080266 L 853.4302008776614 102.49030436863434 L 853.2965234775921 102.579588625617 L 853.1608777182672 102.66826413339936 L 853.0232771641494 102.75632202450451 L 852.8837355751795 102.84375349321674 L 852.7422669054001 102.93054979646202 L 852.5988853015604 103.01670225468237 L 852.4536051017012 103.10220225270375 L 852.3064408337214 103.18704124059762 L 852.1574072139252 103.27121073453588 L 852.0065191455503 103.3547023176393 L 851.853791717278 103.4375076408191 L 851.6992402017238 103.51961842361202 L 851.5428800539103 103.60102645500817 L 851.384726909722 103.68172359427226 L 851.2247965843417 103.7617017717576 L 851.0631050706685 103.84095298971312 L 850.8996685377192 103.91946932308304 L 850.7345033290106 103.99724292029944 L 850.5676259609263 104.07426600406745 L 850.3990531210638 104.15053087214287 L 850.2288016665667 104.22602989810241 L 850.0568886224386 104.30075553210642 L 849.8833311798405 104.37470030165377 L 849.7081466943722 104.44785681232914 L 849.5313526843362 104.52021774854238 L 849.3529668289862 104.59177587426021 L 849.1730069667589 104.66252403372968 L 848.9914910934908 104.73245515219378 L 848.8084373606179 104.80156223659897 L 848.6238640733609 104.86983837629438 L 848.4377896888947 104.93727674372295 L 848.2502328145027 105.0038705951041 L 848.0612122057161 105.06961327110824 L 847.8707467644382 105.13449819752252 L 847.6788555370543 105.19851888590837 L 847.4855577125276 105.26166893425032 L 847.290872620479 105.32394202759615 L 847.0948197292558 105.38533193868841 L 846.8974186439837 105.44583252858716 L 846.6986891046066 105.50543774728384 L 846.4986509839129 105.56414163430621 L 846.2973242855479 105.62193831931454 L 846.0947291420139 105.67882202268845 L 845.890885812656 105.73478705610502 L 845.6858146816378 105.78982782310756 L 845.479536255901 105.84393881966523 L 845.2720711631167 105.89711463472344 L 845.063440149621 105.94934995074503 L 844.8536640783416 106.00063954424192 L 844.6427639267106 106.0509782862975 L 844.4307607845675 106.1003611430795 L 844.2176758520499 106.14878317634341 L 844.0035304374735 106.19623954392625 L 843.7883459552012 106.2427255002308 L 843.5721439235019 106.2882363967002 L 843.3549459623988 106.33276768228268 L 843.1367737915068 106.37631490388682 L 842.9176492278613 106.41887370682676 L 842.6975941837359 106.46043983525765 L 842.4766306644518 106.50100913260128 L 842.2547807661769 106.54057754196174 L 842.0320666737158 106.57914110653107 L 841.8085106582923 106.61669596998493 L 841.5841350753219 106.65323837686829 L 841.3589623621756 106.6887646729709 L 841.1330150359372 106.72327130569276 L 840.906315691151 106.75675482439937 L 840.6788869975626 106.78921188076673 L 840.4507516978517 106.82063922911627 L 840.2219326053585 106.85103372673933 L 839.9924526018011 106.8803923342115 L 839.7623346349891 106.90871211569649 L 839.531601716527 106.93599023923973 L 839.3002769195147 106.96222397705162 L 839.0683833762388 106.98741070578025 L 838.8359442758607 107.0115479067737 L 838.6029828620966 107.03463316633201 L 838.3695224308937 107.05666417594847 L 838.1355863281007 107.07763873254045 L 837.9011979471327 107.09755473866979 L 837.6663807266327 107.11641020275246 L 837.4311581481271 107.13420323925777 L 837.1955537336775 107.1509320688969 L 836.9595910435291 107.16659501880085 L 836.7232936737545 107.18119052268763 L 836.4866852538935 107.19471712101905 L 836.2497894445909 107.20717346114655 L 836.0126299352304 107.21855829744648 L 835.7752304415652 107.22887049144471 L 835.5376147033468 107.23810901193042 L 835.2998064819511 107.24627293505928 L 835.061829558002 107.25336144444577 L 834.8237077289937 107.25937383124486 L 834.5854648069105 107.26430949422287 L 834.3471246158462 107.26816793981763 L 834.1087109896212 107.27094878218779 L 833.8702477693994 107.27265174325143 L 833.6317588013043 107.27327665271386 L 833.3932679340337 107.27282344808465 L 833.1547990164759 107.27129217468391 L 832.9163758953237 107.26868298563768 L 832.6780224126907 107.2649961418627 L 832.4397624037263 107.26023201204026 L 832.201619694233 107.2543910725794 L 831.9636180982834 107.24747390756917 L 831.7257814158386 107.23948120872033 L 831.4881334303686 107.23041377529609 L 831.2506979064741 107.22027251403225 L 831.0134985875094 107.20905843904646 L 830.776559193209 107.1967726717369 L 830.5399034173147 107.18341644067004 L 830.3035549252069 107.16899108145788 L 830.0675373515378 107.15349803662431 L 829.8318742978682 107.1369388554609 L 829.5965893303071 107.11931519387196 L 829.3617059771551 107.10062881420897 L 829.1272477265518 107.08088158509435 L 828.893238024127 107.0600754812345 L 828.6597002706555 107.03821258322252 L 828.4266578197187 107.01529507732995 L 828.194133975367 106.99132525528832 L 827.9621519897911 106.96630551405984 L 827.7307350609965 106.94023835559778 L 827.499906330483 106.91312638659626 L 827.2696888809314 106.88497231822961 L 827.0401057338948 106.85577896588119 L 826.8111798474965 106.8255492488619 L 826.5829341141346 106.79428619011826 L 826.3553913581919 106.76199291593008 L 826.1285743337546 106.72867265559789 L 825.9025057223362 106.69432874111995 L 825.6772081306092 106.65896460685907 L 825.4527040881451 106.62258378919921 L 825.2290160451612 106.58518992619184 L 825.0061663702753 106.5467867571921 L 824.7841773482692 106.50737812248485 L 824.5630711778601 106.46696796290075 L 824.3428699694807 106.42556031942208 L 824.1235957430686 106.38315933277867 L 823.9052704258634 106.33976924303387 L 823.687915850215 106.29539438916049 L 823.4715537513999 106.25003920860692 L 823.2562057654476 106.20370823685344 L 823.0418934269774 106.15640610695861 L 822.8286381670442 106.108137549096 L 822.6164613109968 106.05890739008117 L 822.4053840763435 106.00872055288902 L 822.1954275706321 105.9575820561614 L 821.9866127893382 105.90549701370541 L 821.7789606137659 105.85247063398188 L 821.5724918089597 105.79850821958458 L 821.3672270216281 105.74361516670999 L 821.1631867780786 105.68779696461766 L 820.9603914821656 105.63105919508126 L 820.7588614132499 105.5734075318305 L 820.5586167241702 105.51484773998365 L 820.3596774392286 105.45538567547108 L 820.1620634521878 105.3950272844497 L 819.9657945242819 105.33377860270829 L 819.7708902822401 105.27164575506403 L 819.5773702163242 105.20863495474987 L 819.3852536783794 105.14475250279335 L 819.1945598798997 105.08000478738643 L 819.0053078901057 105.01439828324668 L 818.8175166340387 104.94793955096986 L 818.6312048906681 104.8806352363738 L 818.4463912910127 104.8124920698339 L 818.2630943162786 104.74351686560999 L 818.0813322960105 104.67371652116503 L 817.9011234062589 104.6030980164753 L 817.7224856677626 104.53166841333243 L 817.5454369441467 104.4594348546372 L 817.3699949401358 104.38640456368528 L 817.1961771997844 104.31258484344491 L 817.0240011047215 104.2379830758266 L 816.8534838724131 104.16260672094495 L 816.6846425544405 104.08646331637262 L 816.5174940347946 104.00956047638662 L 816.3520550281883 103.93190589120688 L 816.188342078384 103.85350732622719 L 816.0263715565408 103.77437262123871 L 815.8661596595755 103.694509689646 L 815.7077224085443 103.61392651767568 L 815.5510756470405 103.53263116357778 L 815.3962350396097 103.45063175681996 L 815.2432160701833 103.36793649727457 L 815.0920340405311 103.28455365439865 L 814.9427040687298 103.20049156640701 L 814.7952410876522 103.1157586394384 L 814.6496598434737 103.03036334671489 L 814.5059748941973 102.94431422769459 L 814.3642006081981 102.85761988721772 L 814.2243511627867 102.77028899464605 L 814.0864405427909 102.68233028299609 L 813.9504825391579 102.5937525480657 L 813.8164907475748 102.50456464755453 L 813.6844785671091 102.41477550017834 L 813.5544591988687 102.32439408477703 L 813.4264456446822 102.23342943941684 L 813.3004507057983 102.14189066048647 L 813.176486981606 102.04978690178756 L 813.0545668683743 101.95712737361922 L 812.9347025580129 101.86392134185704 L 812.816906036853 101.77017812702654 L 812.7011890844485 101.67590710337106 L 812.5875632723983 101.58111769791444 L 812.4760399631889 101.48581938951821 L 812.3666303090582 101.39002170793381 L 812.2593452508805 101.29373423284954 L 812.1541955170723 101.19696659293271 L 812.0511916225192 101.09972846486664 L 811.9503438675249 101.00202957238312 L 811.8516623367808 100.90387968528998 L 811.7551568983579 100.80528861849413 L 811.6608372027194 100.70626623102011 L 811.5687126817564 100.60682242502413 L 811.4787925478443 100.50696714480392 L 811.3910857929213 100.40671037580431 L 811.30560118759 100.30606214361863 L 811.2223472802398 100.20503251298624 L 811.1413323961917 100.103631586786 L 811.0625646368669 100.00186950502604 L 810.9860518789757 99.89975644382972 L 810.9118017737298 99.79730261441809 L 810.8398217460783 99.69451826208869 L 810.7701189939636 99.59141366519111 L 810.7027004876031 99.48799913409913 L 810.6375729687911 99.38428501017967 L 810.5747429502252 99.28028166475868 L 810.514216714855 99.17599949808405 L 810.4560003152535 99.07144893828554 L 810.4000995730123 98.96664044033201 L 810.3465200781588 98.86158448498593 L 810.295267188598 98.75629157775525 L 810.2463460295762 98.65077224784297 L 810.1997614931684 98.54503704709414 L 810.1555182377895 98.43909654894075 L 810.113620687728 98.33296134734431 L 810.0740730327043 98.22664205573652 L 810.0368792274506 98.12014930595798 L 810.0020429913168 98.01349374719489 L 809.9695678078971 97.90668604491427 L 809.9394569246831 97.79973687979731 L 809.9117133527378 97.69265694667143 L 809.8863398663955 97.58545695344071 L 809.8633390029835 97.47814762001512 L 809.842713062569 97.37073967723859 L 809.8244641077289 97.26324386581588 L 809.8085939633435 97.15567093523856 L 809.795104216414 97.04803164271006 L 809.7839962159037 96.94033675206991 L 809.7752710726037 96.83259703271744 L 809.7689296590207 96.7248232585348 L 809.7649726092911 96.6170262068096 L 809.7634003191164 96.50921665715717" stroke-miterlimit="10" stroke-width="2.7769845610000004" stroke-dasharray=""/></g><g><text fill="black" stroke="none" font-family="sans-serif" font-size="11pt" font-style="normal" font-weight="normal" text-decoration="normal" x="802.2348219432942" y="124.80095321200001" text-anchor="start" dominant-baseline="alphabetic" xml:space="preserve">Database</text></g></g><g><path fill="white" stroke="black" paint-order="fill stroke markers" d=" M 191.89988145423175 183.607685092 L 208.23508475423174 183.607685092 L 208.23508475423174 520.112873072 L 191.89988145423175 520.112873072 L 191.89988145423175 183.607685092" stroke-miterlimit="10" stroke-width="1.3612669416666667" stroke-dasharray=""/><path fill="white" stroke="black" paint-order="fill stroke markers" d=" M 435.15275884557286 229.346254332 L 451.48796214557285 229.346254332 L 451.48796214557285 474.374303832 L 435.15275884557286 474.374303832 L 435.15275884557286 229.346254332" stroke-miterlimit="10" stroke-width="1.3612669416666667" stroke-dasharray=""/><path fill="white" stroke="black" paint-order="fill stroke markers" d=" M 614.8336910464842 275.084823572 L 631.1688943464843 275.084823572 L 631.1688943464843 428.635734592 L 614.8336910464842 428.635734592 L 614.8336910464842 275.084823572" stroke-miterlimit="10" stroke-width="1.3612669416666667" stroke-dasharray=""/><path fill="white" stroke="black" paint-order="fill stroke markers" d=" M 825.4451652395832 337.158596112 L 841.7803685395833 337.158596112 L 841.7803685395833 382.897165352 L 825.4451652395832 382.897165352 L 825.4451652395832 337.158596112" stroke-miterlimit="10" stroke-width="1.3612669416666667" stroke-dasharray=""/><g><g><rect fill="white" stroke="none" x="45.01726843016276" y="162.371920802" width="125.5089594275" height="21.23576429"/></g><text fill="black" stroke="none" font-family="sans-serif" font-size="11pt" font-style="normal" font-weight="normal" text-decoration="normal" x="47.46754892516276" y="177.07360377199998" text-anchor="start" dominant-baseline="alphabetic" xml:space="preserve">Click logout button</text></g><g><path fill="none" stroke="black" paint-order="fill stroke markers" d=" M 23.64361483359375 183.607685092 L 178.45056407056506 183.607685092" stroke-miterlimit="10" stroke-width="1.3612669416666667" stroke-dasharray=""/><g transform="translate(191.89988145423175,183.607685092) translate(-191.89988145423175,-183.607685092)"><path fill="black" stroke="none" paint-order="stroke fill markers" d=" M 178.28721203756507 176.80135038366666 L 191.89988145423175 183.607685092 L 178.28721203756507 190.41401980033334 Z"/></g></g><g><g><rect fill="white" stroke="none" x="253.6387829064648" y="208.110490042" width="136.110277786875" height="21.23576429"/></g><text fill="black" stroke="none" font-family="sans-serif" font-size="11pt" font-style="normal" font-weight="normal" text-decoration="normal" x="256.0890634014648" y="222.812173012" text-anchor="start" dominant-baseline="alphabetic" xml:space="preserve">POST: /athen/logout</text></g><g><path fill="none" stroke="black" paint-order="fill stroke markers" d=" M 208.23508475423174 229.346254332 L 421.7034414619062 229.346254332" stroke-miterlimit="10" stroke-width="1.3612669416666667" stroke-dasharray=""/><g transform="translate(435.15275884557286,229.346254332) translate(-435.15275884557286,-229.346254332)"><path fill="black" stroke="none" paint-order="stroke fill markers" d=" M 421.5400894289062 222.53991962366666 L 435.15275884557286 229.346254332 L 421.5400894289062 236.15258904033334 Z"/></g></g><g><g><rect fill="white" stroke="none" x="470.81795271723945" y="253.849059282" width="124.68574775757813" height="21.23576429"/></g><text fill="black" stroke="none" font-family="sans-serif" font-size="11pt" font-style="normal" font-weight="normal" text-decoration="normal" x="473.26823321223947" y="268.550742252" text-anchor="start" dominant-baseline="alphabetic" xml:space="preserve">deleteByAccount()</text></g><g><path fill="none" stroke="black" paint-order="fill stroke markers" d=" M 451.48796214557285 275.084823572 L 601.3843736628176 275.084823572" stroke-miterlimit="10" stroke-width="1.3612669416666667" stroke-dasharray=""/><g transform="translate(614.8336910464842,275.084823572) translate(-614.8336910464842,-275.084823572)"><path fill="black" stroke="none" paint-order="stroke fill markers" d=" M 601.2210216298175 268.27848886366667 L 614.8336910464842 275.084823572 L 601.2210216298175 281.89115828033334 Z"/></g></g><g><g><rect fill="white" stroke="none" x="650.4988849181509" y="299.587628522" width="142.62420906128906" height="21.23576429"/></g><g><rect fill="white" stroke="none" x="650.4988849181509" y="315.922831822" width="155.61628974976563" height="21.23576429"/></g><text fill="black" stroke="none" font-family="sans-serif" font-size="11pt" font-style="normal" font-weight="normal" text-decoration="normal" x="652.9491654131509" y="314.28931149199997" text-anchor="start" dominant-baseline="alphabetic" xml:space="preserve">deleteRefreshTokens</text><text fill="black" stroke="none" font-family="sans-serif" font-size="11pt" font-style="normal" font-weight="normal" text-decoration="normal" x="652.9491654131509" y="330.62451479199996" text-anchor="start" dominant-baseline="alphabetic" xml:space="preserve">ByUser_PersonalMail()</text></g><g><path fill="none" stroke="black" paint-order="fill stroke markers" d=" M 631.1688943464843 337.158596112 L 811.9958478559165 337.158596112" stroke-miterlimit="10" stroke-width="1.3612669416666667" stroke-dasharray=""/><g transform="translate(825.4451652395832,337.158596112) translate(-825.4451652395832,-337.158596112)"><path fill="black" stroke="none" paint-order="stroke fill markers" d=" M 811.8324958229165 330.35226140366666 L 825.4451652395832 337.158596112 L 811.8324958229165 343.96493082033334 Z"/></g></g><g><g><rect fill="white" stroke="none" x="725.8567492980337" y="361.661401062" width="4.90056099" height="21.23576429"/></g><text fill="black" stroke="none" font-family="sans-serif" font-size="11pt" font-style="normal" font-weight="normal" text-decoration="normal" x="728.3070297930337" y="376.36308403199996" text-anchor="start" dominant-baseline="alphabetic" xml:space="preserve"></text></g><g><path fill="none" stroke="black" paint-order="fill stroke markers" d=" M 825.4451652395832 382.897165352 L 644.618211730151 382.897165352" stroke-miterlimit="10" stroke-width="1.3612669416666667" stroke-dasharray="6.53408132"/><g transform="translate(631.1688943464843,382.897165352) translate(-631.1688943464843,-382.897165352)"><path fill="black" stroke="none" paint-order="stroke fill markers" d=" M 644.781563763151 376.09083064366666 L 631.1688943464843 382.897165352 L 644.781563763151 389.70350006033334 Z"/></g></g><g><g><rect fill="white" stroke="none" x="530.7105461010285" y="407.399970302" width="4.90056099" height="21.23576429"/></g><text fill="black" stroke="none" font-family="sans-serif" font-size="11pt" font-style="normal" font-weight="normal" text-decoration="normal" x="533.1608265960285" y="422.10165327199996" text-anchor="start" dominant-baseline="alphabetic" xml:space="preserve"></text></g><g><path fill="none" stroke="black" paint-order="fill stroke markers" d=" M 614.8336910464842 428.635734592 L 464.9372795292395 428.635734592" stroke-miterlimit="10" stroke-width="1.3612669416666667" stroke-dasharray="6.53408132"/><g transform="translate(451.48796214557285,428.635734592) translate(-451.48796214557285,-428.635734592)"><path fill="black" stroke="none" paint-order="stroke fill markers" d=" M 465.1006315622395 421.82939988366667 L 451.48796214557285 428.635734592 L 465.1006315622395 435.44206930033334 Z"/></g></g><g><g><rect fill="white" stroke="none" x="227.5650753258984" y="453.138539542" width="188.25769294800781" height="21.23576429"/></g><text fill="green" stroke="none" font-family="sans-serif" font-size="11pt" font-style="normal" font-weight="normal" text-decoration="normal" x="230.01535582089838" y="467.84022251199997" text-anchor="start" dominant-baseline="alphabetic" xml:space="preserve">200 OK: Log out successful!</text></g><g><path fill="none" stroke="black" paint-order="fill stroke markers" d=" M 435.15275884557286 474.374303832 L 221.68440213789842 474.374303832" stroke-miterlimit="10" stroke-width="1.3612669416666667" stroke-dasharray="6.53408132"/><g transform="translate(208.23508475423174,474.374303832) translate(-208.23508475423174,-474.374303832)"><path fill="black" stroke="none" paint-order="stroke fill markers" d=" M 221.8477541708984 467.56796912366667 L 208.23508475423174 474.374303832 L 221.8477541708984 481.18063854033335 Z"/></g></g><g><g><rect fill="white" stroke="none" x="42.973605405260415" y="498.87710878199994" width="129.5962854773047" height="21.23576429"/></g><text fill="black" stroke="none" font-family="sans-serif" font-size="11pt" font-style="normal" font-weight="normal" text-decoration="normal" x="45.423885900260416" y="513.5787917519999" text-anchor="start" dominant-baseline="alphabetic" xml:space="preserve">Display Login page</text></g><g><path fill="none" stroke="black" paint-order="fill stroke markers" d=" M 191.89988145423175 520.112873072 L 37.09293221726042 520.112873072" stroke-miterlimit="10" stroke-width="1.3612669416666667" stroke-dasharray="6.53408132"/><g transform="translate(23.64361483359375,520.112873072) translate(-23.64361483359375,-520.112873072)"><path fill="black" stroke="none" paint-order="stroke fill markers" d=" M 37.25628425026042 513.3065383636666 L 23.64361483359375 520.112873072 L 37.25628425026042 526.9192077803333 Z"/></g></g></g></g></svg>