<svg version="1.1" xmlns="http://www.w3.org/2000/svg" xmlns:xlink="http://www.w3.org/1999/xlink" width="1020" height="756"><desc>title%20Prepare%20new%20semester%20-%20Assign%20teacher%0A%0Aactor%20%23green%3A0.5%20%22Workspace%20Admin%22%20as%20w%0Aboundary%20%22Workspace%20Admin%20Client%22%20as%20f%0Acontrol%20%22Group%20Controller%22%20as%20gc%0Aparticipant%20%22Group%20Service%22%20as%20gs%0Adatabase%20%23blue%3A1%20%22Database%22%20as%20db%0A%0Aactivate%20f%0Aw-%3Ef%3AClick%20Next%20button%0Aw-%3Ef%3ASet%20teacher%20for%20groups%0Af-%3Egc%3APOST%3A%20%2Fapi%2Fgroup%2Fassign-teacher%0Aactivate%20gc%0Agc-%3Egc%3AsetTeacherForGroup()%0Aactivate%20gc%0Agc%3C--gc%3Aupdated%20groups%0Adeactivate%20gc%0A%0Agc-%3Egs%3Asave(List%3CGroup%3E)%0Aactivate%20gs%0Ags-%3Edb%3Asave(group)%0Aactivate%20db%0Ags%3C--db%3AGroup%20list%0Adeactivate%20db%0Agc%3C--gs%3AGroup%20list%0Adeactivate%20gs%0A%0Af%3C--gc%3A%3Ccolor%3A%23green%3E200%20OK%5CnResponse%20body%3A%20Group%20list%20after%20updater%3C%2Fcolor%3E%0Adeactivate%20gc%0Aw%3C--f%3ADisplay%20the%20list%20of%20group%20Course%0A%0A</desc><defs/><g><g/><g/><g/><g/><g/><g/><g/><g/><g/><g/><g/><g/><g/><g/><g/><g/><g/><g><rect fill="white" stroke="none" x="0" y="0" width="1020" height="756"/></g><g><text fill="black" stroke="none" font-family="sans-serif" font-size="16.5pt" font-style="normal" font-weight="normal" text-decoration="normal" x="317.0096858092611" y="24.50280495" text-anchor="start" dominant-baseline="alphabetic" xml:space="preserve">Prepare new semester - Assign teacher</text></g><g/><g><path fill="none" stroke="black" paint-order="fill stroke markers" d=" M 67.50902468466796 129.701514202 L 67.50902468466796 756.9733209219999" stroke-miterlimit="10" stroke-width="1.3612669416666667" stroke-dasharray="12.565541,5.445067766666667"/><path fill="none" stroke="black" paint-order="fill stroke markers" d=" M 322.9450236926107 129.701514202 L 322.9450236926107 756.9733209219999" stroke-miterlimit="10" stroke-width="1.3612669416666667" stroke-dasharray="12.565541,5.445067766666667"/><path fill="none" stroke="black" paint-order="fill stroke markers" d=" M 642.7977393407878 129.701514202 L 642.7977393407878 756.9733209219999" stroke-miterlimit="10" stroke-width="1.3612669416666667" stroke-dasharray="12.565541,5.445067766666667"/><path fill="none" stroke="black" paint-order="fill stroke markers" d=" M 841.4573861236654 129.701514202 L 841.4573861236654 756.9733209219999" stroke-miterlimit="10" stroke-width="1.3612669416666667" stroke-dasharray="12.565541,5.445067766666667"/><path fill="none" stroke="black" paint-order="fill stroke markers" d=" M 979.5778477435222 129.701514202 L 979.5778477435222 756.9733209219999" stroke-miterlimit="10" stroke-width="1.3612669416666667" stroke-dasharray="12.565541,5.445067766666667"/></g><g><g><path fill="white" stroke="green" paint-order="fill stroke markers" d=" M 76.82009056566797 60.60360424300001 A 9.311065881 9.311065881 0 1 1 76.8200859101354 60.594293178670846 M 67.50902468466796 69.91467012400001 L 67.50902468466796 89.84361815000001 M 55.747678308667965 77.102159576 L 79.27037106066797 77.102159576 M 67.50902468466796 89.84361815000001 L 55.747678308667965 108.465749912 M 67.50902468466796 89.84361815000001 L 79.27037106066797 108.465749912" stroke-miterlimit="10" stroke-width="1.3884922805000002" stroke-dasharray=""/></g><g><text fill="black" stroke="none" font-family="sans-serif" font-size="11pt" font-style="normal" font-weight="normal" text-decoration="normal" x="8.167601649999995" y="124.80095321200001" text-anchor="start" dominant-baseline="alphabetic" xml:space="preserve">Workspace Admin</text></g><g><path fill="white" stroke="black" paint-order="fill stroke markers" d=" M 355.3704022431107 82.819480731 A 24.2577769005 24.2577769005 0 1 1 355.37039011422326 82.79522295814245 M 291.90813742261065 57.17321154999999 L 291.90813742261065 108.465749912 M 290.5196451421107 82.819480731 L 306.85484844211067 82.819480731" stroke-miterlimit="10" stroke-width="2.7769845610000004" stroke-dasharray=""/></g><g><text fill="black" stroke="none" font-family="sans-serif" font-size="11pt" font-style="normal" font-weight="normal" text-decoration="normal" x="242.82694355345052" y="124.80095321200001" text-anchor="start" dominant-baseline="alphabetic" xml:space="preserve">Workspace Admin Client</text></g><g><path fill="white" stroke="black" paint-order="fill stroke markers" d=" M 667.0555162412877 82.819480731 A 24.2577769005 24.2577769005 0 1 1 667.0555041124003 82.79522295814245 M 639.5306986807877 58.561703830499994 L 649.3318206607877 50.39410218049999 M 639.5306986807877 58.561703830499994 L 649.3318206607877 66.72930548049999" stroke-miterlimit="10" stroke-width="2.7769845610000004" stroke-dasharray=""/></g><g><text fill="black" stroke="none" font-family="sans-serif" font-size="11pt" font-style="normal" font-weight="normal" text-decoration="normal" x="588.6137946386393" y="124.80095321200001" text-anchor="start" dominant-baseline="alphabetic" xml:space="preserve">Group Controller</text></g><path fill="none" stroke="none"/><g><path fill="white" stroke="black" paint-order="fill stroke markers" d=" M 776.8833182287123 85.75981732500001 L 906.0314540186185 85.75981732500001 L 906.0314540186185 129.701514202 L 776.8833182287123 129.701514202 L 776.8833182287123 85.75981732500001 Z" stroke-miterlimit="10" stroke-width="2.613632528" stroke-dasharray=""/></g><g><text fill="black" stroke="none" font-family="sans-serif" font-size="11pt" font-style="normal" font-weight="normal" text-decoration="normal" x="794.6070138092123" y="113.36631090200002" text-anchor="start" dominant-baseline="alphabetic" xml:space="preserve">Group Service</text></g><g><path fill="white" stroke="blue" paint-order="fill stroke markers" d=" M 955.7284509255222 97.684515734 L 955.7284509255222 63.380588804000006 L 1003.4272445615221 63.380588804000006 L 1003.4272445615221 97.684515734" stroke-miterlimit="10" stroke-width="2.7769845610000004" stroke-dasharray=""/><path fill="white" stroke="blue" paint-order="fill stroke markers" d=" M 1003.4272445615221 62.1881189631 L 1003.4260521016184 62.29592950801663 L 1003.4224748411524 62.403729271968594 L 1003.4165131378471 62.51150747506936 L 1003.4081675878678 62.619253339588404 L 1003.3974390257625 62.72695609102909 L 1003.3843285243787 62.834604959206004 L 1003.3688373947555 62.94218917932205 L 1003.3509671859929 63.04969799304486 L 1003.3307196850968 63.15712064958265 L 1003.3080969168007 63.2644464067593 L 1003.2831011433623 63.371664532088516 L 1003.2557348643383 63.47876430384712 L 1003.2260008163337 63.58573501214718 L 1003.1939019727286 63.692565960007016 L 1003.1594415433805 63.79924646442086 L 1003.1226229743037 63.90576585742718 L 1003.0834499473243 64.01211348717543 L 1003.0419263797125 64.11827871899126 L 1002.9980564237906 64.22425093643996 L 1002.9518444665172 64.3300195423881 L 1002.9032951290499 64.43557396006322 L 1002.8524132662818 64.54090363411153 L 1002.7992039663569 64.64599803165338 L 1002.7436725501607 64.75084664333659 L 1002.6858245707887 64.85543898438739 L 1002.6256658129905 64.95976459565881 L 1002.5632022925919 65.06381304467668 L 1002.4984402558927 65.16757392668278 L 1002.4313861790426 65.27103686567541 L 1002.3620467673937 65.37419151544687 L 1002.290428954829 65.47702756061814 L 1002.2165399030704 65.5795347176704 L 1002.1403870009614 65.68170273597339 L 1002.0619778637285 65.7835213988104 L 1001.9813203322204 65.88498052439998 L 1001.898422472123 65.98606996691414 L 1001.8132925731531 66.08677961749288 L 1001.7259391482297 66.18709940525505 L 1001.6363709326225 66.28701929830548 L 1001.5445968830785 66.38652930473813 L 1001.4506261769261 66.48561947363528 L 1001.3544682111575 66.58427989606261 L 1001.2561326014894 66.6825007060601 L 1001.1556291814006 66.7802720816286 L 1001.0529680011495 66.87758424571203 L 1000.9481593267684 66.97442746717506 L 1000.8412136390375 67.07079206177627 L 1000.7321416324365 67.1666683931365 L 1000.6209542140753 67.2620468737025 L 1000.5076625026027 67.35691796570569 L 1000.3922778270958 67.45127218211596 L 1000.2748117259257 67.54510008759026 L 1000.1552759456048 67.63839229941624 L 1000.0336824396115 67.73113948845047 L 999.9100433671952 67.82333238005134 L 999.7843710921597 67.9149617550065 L 999.6566781816283 68.00601845045483 L 999.5269774047853 68.09649336080267 L 999.3952817316003 68.18637743863435 L 999.2616043315311 68.27566169561702 L 999.1259585722062 68.36433720339936 L 998.9883580180883 68.45239509450451 L 998.8488164291184 68.53982656321674 L 998.7073477593391 68.62662286646201 L 998.5639661554993 68.71277532468237 L 998.4186859556402 68.79827532270376 L 998.2715216876603 68.88311431059763 L 998.1224880678642 68.9672838045359 L 997.9715999994893 69.0507753876393 L 997.818872571217 69.13358071081912 L 997.6643210556626 69.21569149361203 L 997.5079609078492 69.29709952500816 L 997.3498077636609 69.37779666427225 L 997.1898774382806 69.45777484175761 L 997.0281859246074 69.53702605971311 L 996.8647493916582 69.61554239308303 L 996.6995841829496 69.69331599029945 L 996.5327068148653 69.77033907406746 L 996.3641339750028 69.84660394214286 L 996.1938825205057 69.92210296810242 L 996.0219694763775 69.99682860210643 L 995.8484120337795 70.07077337165379 L 995.6732275483112 70.14392988232913 L 995.4964335382751 70.21629081854239 L 995.3180476829251 70.28784894426022 L 995.1380878206978 70.35859710372968 L 994.9565719474298 70.42852822219379 L 994.7735182145568 70.49763530659898 L 994.5889449272998 70.5659114462944 L 994.4028705428336 70.63334981372294 L 994.2153136684417 70.69994366510412 L 994.026293059655 70.76568634110825 L 993.8358276183772 70.83057126752253 L 993.6439363909933 70.89459195590838 L 993.4506385664665 70.95774200425032 L 993.255953474418 71.02001509759614 L 993.0599005831948 71.08140500868842 L 992.8624994979226 71.14190559858717 L 992.6637699585456 71.20151081728383 L 992.4637318378518 71.26021470430622 L 992.2624051394869 71.31801138931453 L 992.0598099959528 71.37489509268845 L 991.855966666595 71.43086012610503 L 991.6508955355768 71.48590089310757 L 991.44461710984 71.54001188966522 L 991.2371520170557 71.59318770472345 L 991.02852100356 71.64542302074504 L 990.8187449322805 71.69671261424193 L 990.6078447806495 71.7470513562975 L 990.3958416385065 71.79643421307951 L 990.1827567059888 71.84485624634341 L 989.9686112914125 71.89231261392625 L 989.7534268091401 71.93879857023082 L 989.5372247774409 71.9843094667002 L 989.3200268163378 72.02884075228269 L 989.1018546454458 72.07238797388683 L 988.8827300818002 72.11494677682676 L 988.6626750376748 72.15651290525764 L 988.4417115183908 72.19708220260128 L 988.2198616201158 72.23665061196175 L 987.9971475276548 72.27521417653107 L 987.7735915122313 72.31276903998494 L 987.5492159292609 72.3493114468683 L 987.3240432161145 72.38483774297092 L 987.0980958898762 72.41934437569277 L 986.87139654509 72.45282789439938 L 986.6439678515015 72.48528495076673 L 986.4158325517907 72.51671229911628 L 986.1870134592974 72.54710679673934 L 985.9575334557401 72.5764654042115 L 985.727415488928 72.60478518569649 L 985.496682570466 72.63206330923974 L 985.2653577734536 72.65829704705163 L 985.0334642301777 72.68348377578025 L 984.8010251297997 72.70762097677371 L 984.5680637160356 72.73070623633201 L 984.3346032848326 72.75273724594847 L 984.1006671820396 72.77371180254045 L 983.8662788010716 72.79362780866978 L 983.6314615805717 72.81248327275246 L 983.3962390020661 72.83027630925778 L 983.1606345876164 72.84700513889692 L 982.9246718974681 72.86266808880085 L 982.6883745276934 72.87726359268764 L 982.4517661078324 72.89079019101906 L 982.2148702985298 72.90324653114655 L 981.9777107891694 72.91463136744649 L 981.7403112955042 72.9249435614447 L 981.5026955572857 72.93418208193043 L 981.2648873358901 72.94234600505929 L 981.026910411941 72.94943451444577 L 980.7887885829326 72.95544690124485 L 980.5505456608495 72.96038256422287 L 980.3122054697851 72.96424100981763 L 980.0737918435601 72.9670218521878 L 979.8353286233383 72.96872481325143 L 979.5968396552432 72.96934972271386 L 979.3583487879727 72.96889651808466 L 979.1198798704148 72.96736524468392 L 978.8814567492626 72.96475605563768 L 978.6431032666296 72.96106921186271 L 978.4048432576652 72.95630508204027 L 978.166700548172 72.9504641425794 L 977.9286989522224 72.94354697756918 L 977.6908622697775 72.93555427872033 L 977.4532142843076 72.9264868452961 L 977.2157787604131 72.91634558403224 L 976.9785794414483 72.90513150904647 L 976.7416400471479 72.89284574173689 L 976.5049842712536 72.87948951067006 L 976.2686357791458 72.86506415145789 L 976.0326182054768 72.84957110662431 L 975.7969551518072 72.8330119254609 L 975.561670184246 72.81538826387197 L 975.3267868310941 72.79670188420899 L 975.0923285804907 72.77695465509434 L 974.8583188780659 72.7561485512345 L 974.6247811245945 72.73428565322251 L 974.3917386736576 72.71136814732996 L 974.1592148293059 72.68739832528833 L 973.92723284373 72.66237858405984 L 973.6958159149355 72.63631142559778 L 973.464987184422 72.60919945659627 L 973.2347697348704 72.58104538822961 L 973.0051865878338 72.55185203588118 L 972.7762607014355 72.5216223188619 L 972.5480149680735 72.49035926011825 L 972.3204722121309 72.45806598593009 L 972.0936551876936 72.4247457255979 L 971.8675865762751 72.39040181111994 L 971.6422889845481 72.35503767685907 L 971.417784942084 72.31865685919922 L 971.1940968991001 72.28126299619186 L 970.9712472242143 72.24285982719209 L 970.7492582022081 72.20345119248485 L 970.5281520317991 72.16304103290075 L 970.3079508234197 72.12163338942209 L 970.0886765970075 72.07923240277869 L 969.8703512798023 72.03584231303388 L 969.6529967041539 71.99146745916049 L 969.4366346053389 71.94611227860693 L 969.2212866193865 71.89978130685344 L 969.0069742809163 71.85247917695861 L 968.7937190209832 71.80421061909601 L 968.5815421649357 71.75498046008119 L 968.3704649302824 71.70479362288901 L 968.160508424571 71.65365512616141 L 967.9516936432772 71.60157008370541 L 967.7440414677048 71.54854370398188 L 967.5375726628987 71.49458128958457 L 967.332307875567 71.43968823671 L 967.1282676320176 71.38387003461766 L 966.9254723361046 71.32713226508127 L 966.7239422671888 71.26948060183051 L 966.5236975781091 71.21092080998365 L 966.3247582931675 71.15145874547107 L 966.1271443061268 71.0911003544497 L 965.9308753782209 71.0298516727083 L 965.735971136179 70.96771882506403 L 965.5424510702632 70.90470802474988 L 965.3503345323184 70.84082557279336 L 965.1596407338386 70.77607785738643 L 964.9703887440446 70.71047135324669 L 964.7825974879777 70.64401262096986 L 964.596285744607 70.5767083063738 L 964.4114721449516 70.50856513983389 L 964.2281751702176 70.43958993560999 L 964.0464131499493 70.36978959116503 L 963.8662042601978 70.29917108647531 L 963.6875665217016 70.22774148333244 L 963.5105177980856 70.1555079246372 L 963.3350757940748 70.08247763368529 L 963.1612580537234 70.00865791344492 L 962.9890819586604 69.9340561458266 L 962.8185647263521 69.85867979094495 L 962.6497234083795 69.78253638637263 L 962.4825748887336 69.70563354638664 L 962.3171358821272 69.62797896120689 L 962.153422932323 69.54958039622719 L 961.9914524104797 69.47044569123871 L 961.8312405135144 69.39058275964601 L 961.6728032624833 69.30999958767568 L 961.5161565009795 69.22870423357777 L 961.3613158935486 69.14670482681996 L 961.2082969241224 69.06400956727457 L 961.05711489447 68.98062672439866 L 960.9077849226687 68.89656463640702 L 960.7603219415912 68.8118317094384 L 960.6147406974127 68.72643641671489 L 960.4710557481362 68.6403872976946 L 960.329281462137 68.55369295721772 L 960.1894320167256 68.46636206464606 L 960.0515213967299 68.37840335299609 L 959.9155633930968 68.28982561806569 L 959.7815716015137 68.20063771755453 L 959.649559421048 68.11084857017835 L 959.5195400528077 68.02046715477704 L 959.3915264986211 67.92950250941684 L 959.2655315597373 67.83796373048648 L 959.141567835545 67.74585997178757 L 959.0196477223133 67.65320044361923 L 958.8997834119518 67.55999441185705 L 958.7819868907919 67.46625119702654 L 958.6662699383875 67.37198017337107 L 958.5526441263372 67.27719076791445 L 958.4411208171279 67.18189245951821 L 958.3317111629972 67.08609477793381 L 958.2244261048195 66.98980730284956 L 958.1192763710112 66.89303966293272 L 958.0162724764582 66.79580153486665 L 957.9154247214639 66.69810264238313 L 957.8167431907198 66.59995275528999 L 957.7202377522968 66.50136168849414 L 957.6259180566584 66.40233930102012 L 957.5337935356954 66.30289549502413 L 957.4438734017832 66.20304021480393 L 957.3561666468603 66.1027834458043 L 957.270682041529 66.00213521361863 L 957.1874281341787 65.90110558298623 L 957.1064132501307 65.799704656786 L 957.0276454908059 65.69794257502603 L 956.9511327329146 65.59582951382973 L 956.8768826276688 65.4933756844181 L 956.8049026000173 65.3905913320887 L 956.7351998479025 65.28748673519112 L 956.6677813415421 65.18407220409914 L 956.6026538227301 65.08035808017966 L 956.5398238041641 64.97635473475869 L 956.479297568794 64.87207256808405 L 956.4210811691925 64.76752200828555 L 956.3651804269513 64.66271351033203 L 956.3116009320978 64.55765755498592 L 956.260348042537 64.45236464775525 L 956.2114268835152 64.34684531784296 L 956.1648423471073 64.24111011709415 L 956.1205990917284 64.13516961894075 L 956.078701541667 64.0290344173443 L 956.0391538866432 63.92271512573653 L 956.0019600813896 63.81622237595798 L 955.9671238452557 63.70956681719489 L 955.934648661836 63.602759114914264 L 955.9045377786221 63.49580994979732 L 955.8767942066768 63.38873001667144 L 955.8514207203344 63.28153002344071 L 955.8284198569224 63.17422069001512 L 955.807793916508 63.066812747238586 L 955.7895449616678 62.959316935815885 L 955.7736748172824 62.85174400523857 L 955.7601850703529 62.74410471271006 L 955.7490770698427 62.636409822069915 L 955.7403519265426 62.52867010271744 L 955.7340105129597 62.4208963285348 L 955.7300534632301 62.313099276809595 L 955.7284811730553 62.20528972715717 L 955.7292937996633 62.09747846044265 L 955.7324912617919 61.98967625770286 L 955.7380732396975 61.88189389906824 L 955.7460391751872 61.77414216268484 L 955.7563882716739 61.66643182363649 L 955.7691194942568 61.558773652867366 L 955.7842315698239 61.4511784161048 L 955.8017229871805 61.34365687278283 L 955.8215919971992 61.236219774966166 L 955.8438366129959 61.12887786627507 L 955.8684546101274 61.02164188081096 L 955.8954435268143 60.91452254208302 L 955.9248006641877 60.807530561935856 L 955.9565230865583 60.70067663947832 L 955.9906076217102 60.593971460013606 L 956.0270508612182 60.487425693970756 L 956.065849160789 60.381049995837586 L 956.1069986406246 60.27485500309525 L 956.1504951858117 60.16885133515453 L 956.1963344467317 60.06304959229389 L 956.2445118394969 59.95746035459945 L 956.2950225464082 59.852094180906974 L 956.3478615164368 59.746961607746044 L 956.4030234657299 59.64207314828636 L 956.4605028781385 59.537439291286454 L 956.5202940057693 59.43307050004484 L 956.5823908695592 59.32897721135367 L 956.6467872598737 59.22516983445505 L 956.7134767371275 59.12165875000019 L 956.7824526324283 59.01845430901127 L 956.8537080482441 58.91556683184637 L 956.9272358590928 58.81300660716748 L 957.0030287122544 58.7107838909116 L 957.0810790285068 58.60890890526517 L 957.1613790028836 58.507391837641855 L 957.2439206054539 58.406242839663825 L 957.3286955821267 58.30547202614659 L 957.4156954554746 58.205089474087515 L 957.504911525583 58.105105221658164 L 957.5963348709191 58.00552926720046 L 957.6899563492246 57.90637156822687 L 957.7857665984296 57.807642040424646 L 957.8837560375893 57.709350556664305 L 957.9839148678411 57.61150694601232 L 958.0862330733856 57.514120992748204 L 958.1907004224875 57.417202435386145 L 958.297306468499 57.320760965701105 L 958.4060405509042 57.224806227759686 L 958.5168917963855 57.12934781695572 L 958.6298491199109 57.03439527905074 L 958.744901225842 56.93995810921942 L 958.8620366090641 56.84604575110002 L 958.9812435561365 56.75266759585011 L 959.1025101464639 56.65983298120741 L 959.2258242534883 56.567551190555996 L 959.3511735459018 56.47583145199805 L 959.4785454888795 56.384682937430995 L 959.6079273453333 56.29411476163032 L 959.7393061771854 56.20413598133814 L 959.872668846662 56.1147555943575 L 960.0080020176074 56.02598253865261 L 960.1452921568173 55.937825691455075 L 960.284525535392 55.85029386837614 L 960.4256882301099 55.763395822525176 L 960.568766124819 55.677140243634355 L 960.7137449118492 55.591535757189675 L 960.8606100934425 55.50659092356846 L 961.0093469832032 55.42231423718327 L 961.1599407075661 55.33871412563253 L 961.3123762072845 55.25579894885771 L 961.4666382389353 55.1735769983074 L 961.6227113764439 55.092056496108135 L 961.7805800126267 55.01124559424221 L 961.9402283607517 54.93115237373246 L 962.1016404561168 54.851784843834196 L 962.2648001576473 54.77315094123426 L 962.4296911495088 54.6952585292574 L 962.5962969427397 54.61811539707989 L 962.7646008768995 54.54172925895067 L 962.9345861217348 54.46610775341989 L 963.1062356788631 54.391258442575094 L 963.2795323834715 54.317188811284986 L 963.454458906034 54.24390626645098 L 963.6309977540442 54.171418136266475 L 963.8091312737643 54.09973166948409 L 963.9888416519908 54.028854034690774 L 964.1701109178357 53.95879231959093 L 964.3529209445234 53.88955353029769 L 964.5372534512036 53.82114459063227 L 964.7230900047794 53.753572341431656 L 964.91041202175 53.68684353986444 L 965.0992007700698 53.62096485875517 L 965.2894373710217 53.55594288591707 L 965.4811028011038 53.49178412349323 L 965.6741778939329 53.42849498730643 L 965.8686433421606 53.366081806217544 L 966.0644796994042 53.304550821492676 L 966.2616673821909 53.24390818617902 L 966.4601866719172 53.18415996448957 L 966.6600177168192 53.12531213119671 L 966.861140533959 53.067370571034715 L 967.0635350112226 53.01034107811134 L 967.2671809093309 52.95422935532834 L 967.4720578638637 52.89904101381123 L 967.6781453872964 52.84478157234818 L 967.8854228710483 52.79145645683812 L 968.0938695875437 52.73907099974815 L 968.3034646922849 52.687630439580346 L 968.5141872259359 52.637139920347835 L 968.7260161164189 52.58760449106049 L 968.9389301810215 52.53902910521993 L 969.1529081285147 52.49141862032429 L 969.3679285612819 52.444777797382365 L 969.5839699774591 52.399111300437596 L 969.8010107730846 52.354423696101605 L 970.01902924426 52.3107194530976 L 970.2380035893195 52.26800294181345 L 970.4579119110113 52.2262784338647 L 970.6787322186865 52.18555010166736 L 970.9004424304982 52.14582201802072 L 971.12302037561 52.10709815570004 L 971.346443796413 52.06938238705927 L 971.5706903507512 52.032678483643856 L 971.7957376141561 51.996990115813546 L 972.0215630820888 51.96232085237539 L 972.2481441721909 51.928674160226834 L 972.4754582265421 51.89605340400906 L 972.7034825139261 51.8644618457705 L 972.9321942321046 51.833902644640645 L 973.1615705100962 51.80437885651416 L 973.3915884104644 51.775893433745246 L 973.6222249316105 51.74844922485244 L 973.8534570100749 51.722048974233765 L 974.0852615228422 51.69669532189228 L 974.3176152896546 51.672390803172085 L 974.5504950753287 51.649137848504814 L 974.7838775920803 51.626938783166544 L 975.0177395018521 51.60579582704531 L 975.252057418648 51.58571109441911 L 975.4868079108714 51.56668659374447 L 975.721967503669 51.54872422745561 L 975.9575126812774 51.53182579177417 L 976.193419889375 51.515992976529645 L 976.4296655374378 51.50122736499037 L 976.6662260010976 51.4875304337052 L 976.9030776245054 51.47490355235584 L 977.140196722696 51.4633479836199 L 977.3775595839575 51.45286488304463 L 977.6151424722012 51.443455298931354 L 977.8529216293365 51.43512017223063 L 978.0908732776459 51.4278603364482 L 978.3289736221626 51.42167651756158 L 978.5671988530507 51.41656933394751 L 978.8055251479858 51.41253929632009 L 979.0439286745368 51.40958680767973 L 979.2823855925496 51.407712163272826 L 979.5208720565315 51.40691555056227 L 979.7593642180345 51.40719704920866 L 979.9978382280414 51.40855663106237 L 980.2362702393498 51.41099416016634 L 980.4746364089573 51.414509392769695 L 980.7129129004455 51.419101977352106 L 980.951075886364 51.42477145465894 L 981.1891015506126 51.431517257747196 L 981.426966090823 51.43933871204218 L 981.6646457207397 51.44823503540498 L 981.9021166725978 51.45820533821068 L 982.1393551994997 51.4692486234373 L 982.3763375777907 51.48136378676553 L 982.6130401094302 51.49454961668913 L 982.8494391243626 51.50880479463608 L 983.0855109828832 51.524127895100484 L 983.3212320780028 51.54051738578506 L 983.5565788378085 51.5579716277544 L 983.7915277278204 51.57648887559884 L 984.0260552533451 51.59606727760904 L 984.2601379618259 51.6167048759611 L 984.4937524451866 51.6383996069124 L 984.7268753421737 51.66114930100791 L 984.9594833406918 51.684951683297186 L 985.1915531801349 51.70980437356183 L 985.4230616537124 51.735704886553535 L 985.6539856107698 51.76265063224257 L 985.884301959104 51.79063891607683 L 986.113987667272 51.81966693925126 L 986.3430197668944 51.849731798987726 L 986.571375354952 51.88083048882531 L 986.7990315960765 51.91295989892094 L 987.0259657248332 51.94611681636038 L 987.2521550479986 51.980297925479526 L 987.4775769468289 52.01549980819594 L 987.7022088793218 52.0517189443507 L 987.9260283824715 52.08895171206036 L 988.1490130745141 52.127194388079175 L 988.371140657166 52.16644314817141 L 988.5923889178546 52.20669406749378 L 988.8127357319377 52.247943120987884 L 989.0321590649176 52.29018618378274 L 989.250636974644 52.33341903160728 L 989.4681476135079 52.37763734121275 L 989.6846692306267 52.422836690805035 L 989.900180174019 52.46901256048684 L 990.1146588927703 52.516160332709674 L 990.3280839391873 52.564275292735616 L 990.5404339709432 52.613352629108746 L 990.751687753212 52.663387434136325 L 990.9618241607911 52.71437470437956 L 991.1708221802152 52.7663093411539 L 991.3786609118564 52.819186151038956 L 991.5853195720147 52.8729998463978 L 991.7907774949964 52.92774504590574 L 991.9950141351803 52.983416275088445 L 992.1980090690727 53.040007966869396 L 992.3997419973492 53.09751446212657 L 992.6001927468853 53.15593001025836 L 992.799341272773 53.21524876975863 L 992.9971676603255 53.27546480880087 L 993.1936521270692 53.33657210583136 L 993.388775024721 53.3985645501713 L 993.5825168411537 53.461435942627936 L 993.7748582023471 53.52517999611441 L 993.9657798743256 53.58979033627848 L 994.1552627650807 53.655260502139996 L 994.3432879264816 53.721583946736914 L 994.5298365561687 53.78875403778004 L 994.7148899994344 53.85676405831625 L 994.8984297510887 53.92560720740017 L 995.0804374573094 53.995276600774254 L 995.2608949174775 54.065765271557225 L 995.4397840859973 54.13706617094075 L 995.617087074101 54.2091721688943 L 995.7927861516379 54.28207605487816 L 995.9668637488462 54.35577053856451 L 996.1393024581115 54.43024825056637 L 996.3100850357065 54.50550174317461 L 996.4791944035157 54.581523491102686 L 996.6466136507433 54.658305892239156 L 996.8123260356042 54.73584126840789 L 996.9763149869979 54.81412186613588 L 997.1385641061659 54.89313985742859 L 997.2990571683315 54.97288734055273 L 997.4577781243223 55.05335634082646 L 997.6147111021749 55.1345388114168 L 997.7698404087222 55.21642663414435 L 997.9231505311631 55.29901162029506 L 998.0746261386128 55.38228551143916 L 998.2242520836369 55.46623998025691 L 998.3720134037657 55.55086663137139 L 998.5178953229902 55.63615700218803 L 998.66188325324 55.722102563740805 L 998.8039627958423 55.80869472154519 L 998.944119742961 55.89592481645755 L 999.0823400790182 55.98378412554111 L 999.2186099820956 56.07226386293816 L 999.3529158253164 56.1613551807487 L 999.4852441782082 56.251049169915184 L 999.6155818080458 56.34133686111345 L 999.7439156811752 56.4322092256496 L 999.8702329643158 56.52365717636293 L 999.9945210258445 56.615671568534566 L 1000.1167674370589 56.70824320080196 L 1000.2369599734196 56.80136281607904 L 1000.3550866157733 56.89502110248188 L 1000.471135551554 56.98920869425987 L 1000.5850951759649 57.083916172732344 L 1000.6969540931385 57.17913406723036 L 1000.8067011172764 57.27485285604382 L 1000.9143252737675 57.37106296737362 L 1001.019815800286 57.467754780288786 L 1001.123162147867 57.56491862568861 L 1001.2243539819619 57.662544787269525 L 1001.3233811834718 57.76062350249672 L 1001.4202338497588 57.859144963580405 L 1001.5149022956372 57.95809931845658 L 1001.6073770543411 58.05747667177222 L 1001.6976488784719 58.15726708587479 L 1001.7857087409222 58.257460581806065 L 1001.8715478357793 58.358047140299924 L 1001.9551575792053 58.459016702784346 L 1002.0365296102952 58.56035917238722 L 1002.1156557919142 58.66206441494605 L 1002.1925282115096 58.764122260021324 L 1002.2671391819038 58.866522501913586 L 1002.3394812420618 58.96925490068398 L 1002.409547157838 59.072309183178234 L 1002.477329922699 59.17567504405398 L 1002.542822758425 59.279342146811274 L 1002.6060191157869 59.38330012482622 L 1002.6669126752016 59.48753858238766 L 1002.725497347364 59.59204709573668 L 1002.7817672738556 59.69681521410906 L 1002.8357168277308 59.80183246078026 L 1002.8873406140791 59.907088334113126 L 1002.9366334705647 60.012572308608036 L 1002.9835904679434 60.11827383595545 L 1003.0282069105542 60.22418234609071 L 1003.0704783367903 60.33028724825106 L 1003.1104005195441 60.43657793203471 L 1003.1479694666308 60.54304376846186 L 1003.1831814211868 60.64967411103757 L 1003.2160328620462 60.75645829681646 L 1003.246520504092 60.86338564746893 L 1003.2746412985857 60.97044547034902 L 1003.3003924334711 61.07762705956367 L 1003.3237713336563 61.184919697043256 L 1003.3447756612705 61.29231265361346 L 1003.3634033158988 61.399795190068104 L 1003.3796524347911 61.50735655824312 L 1003.393521393049 61.614986002091314 L 1003.4050088037883 61.72267275875801 L 1003.4141135182774 61.830406059657264 L 1003.4208346260526 61.93817513154877 L 1003.4251714550086 62.04596919761514 L 1003.4271235714662 62.15377747853961 M 1003.4272445615221 96.4920458931 L 1003.4260521016184 96.59985643801662 L 1003.4224748411524 96.70765620196859 L 1003.4165131378471 96.81543440506935 L 1003.4081675878678 96.9231802695884 L 1003.3974390257625 97.03088302102908 L 1003.3843285243787 97.138531889206 L 1003.3688373947555 97.24611610932205 L 1003.3509671859929 97.35362492304485 L 1003.3307196850968 97.46104757958265 L 1003.3080969168007 97.5683733367593 L 1003.2831011433623 97.67559146208852 L 1003.2557348643383 97.78269123384712 L 1003.2260008163337 97.88966194214719 L 1003.1939019727286 97.99649289000702 L 1003.1594415433805 98.10317339442086 L 1003.1226229743037 98.20969278742717 L 1003.0834499473243 98.31604041717543 L 1003.0419263797125 98.42220564899125 L 1002.9980564237906 98.52817786643996 L 1002.9518444665172 98.6339464723881 L 1002.9032951290499 98.73950089006323 L 1002.8524132662818 98.84483056411152 L 1002.7992039663569 98.94992496165337 L 1002.7436725501607 99.05477357333659 L 1002.6858245707887 99.15936591438738 L 1002.6256658129905 99.2636915256588 L 1002.5632022925919 99.36773997467667 L 1002.4984402558927 99.47150085668278 L 1002.4313861790426 99.5749637956754 L 1002.3620467673937 99.67811844544686 L 1002.290428954829 99.78095449061813 L 1002.2165399030704 99.8834616476704 L 1002.1403870009614 99.98562966597338 L 1002.0619778637285 100.08744832881038 L 1001.9813203322204 100.18890745439998 L 1001.898422472123 100.28999689691415 L 1001.8132925731531 100.39070654749288 L 1001.7259391482297 100.49102633525506 L 1001.6363709326225 100.59094622830548 L 1001.5445968830785 100.69045623473812 L 1001.4506261769261 100.78954640363527 L 1001.3544682111575 100.8882068260626 L 1001.2561326014894 100.9864276360601 L 1001.1556291814006 101.0841990116286 L 1001.0529680011495 101.18151117571202 L 1000.9481593267684 101.27835439717506 L 1000.8412136390375 101.37471899177628 L 1000.7321416324365 101.4705953231365 L 1000.6209542140753 101.56597380370249 L 1000.5076625026027 101.6608448957057 L 1000.3922778270958 101.75519911211595 L 1000.2748117259257 101.84902701759025 L 1000.1552759456048 101.94231922941623 L 1000.0336824396115 102.03506641845047 L 999.9100433671952 102.12725931005133 L 999.7843710921597 102.2188886850065 L 999.6566781816283 102.30994538045483 L 999.5269774047853 102.40042029080266 L 999.3952817316003 102.49030436863434 L 999.2616043315311 102.579588625617 L 999.1259585722062 102.66826413339936 L 998.9883580180883 102.75632202450451 L 998.8488164291184 102.84375349321674 L 998.7073477593391 102.93054979646202 L 998.5639661554993 103.01670225468237 L 998.4186859556402 103.10220225270375 L 998.2715216876603 103.18704124059762 L 998.1224880678642 103.27121073453588 L 997.9715999994893 103.3547023176393 L 997.818872571217 103.4375076408191 L 997.6643210556626 103.51961842361202 L 997.5079609078492 103.60102645500817 L 997.3498077636609 103.68172359427226 L 997.1898774382806 103.7617017717576 L 997.0281859246074 103.84095298971312 L 996.8647493916582 103.91946932308304 L 996.6995841829496 103.99724292029944 L 996.5327068148653 104.07426600406745 L 996.3641339750028 104.15053087214287 L 996.1938825205057 104.22602989810241 L 996.0219694763775 104.30075553210642 L 995.8484120337795 104.37470030165377 L 995.6732275483112 104.44785681232914 L 995.4964335382751 104.52021774854238 L 995.3180476829251 104.59177587426021 L 995.1380878206978 104.66252403372968 L 994.9565719474298 104.73245515219378 L 994.7735182145568 104.80156223659897 L 994.5889449272998 104.86983837629438 L 994.4028705428336 104.93727674372295 L 994.2153136684417 105.0038705951041 L 994.026293059655 105.06961327110824 L 993.8358276183772 105.13449819752252 L 993.6439363909933 105.19851888590837 L 993.4506385664665 105.26166893425032 L 993.255953474418 105.32394202759615 L 993.0599005831948 105.38533193868841 L 992.8624994979226 105.44583252858716 L 992.6637699585456 105.50543774728384 L 992.4637318378518 105.56414163430621 L 992.2624051394869 105.62193831931454 L 992.0598099959528 105.67882202268845 L 991.855966666595 105.73478705610502 L 991.6508955355768 105.78982782310756 L 991.44461710984 105.84393881966523 L 991.2371520170557 105.89711463472344 L 991.02852100356 105.94934995074503 L 990.8187449322805 106.00063954424192 L 990.6078447806495 106.0509782862975 L 990.3958416385065 106.1003611430795 L 990.1827567059888 106.14878317634341 L 989.9686112914125 106.19623954392625 L 989.7534268091401 106.2427255002308 L 989.5372247774409 106.2882363967002 L 989.3200268163378 106.33276768228268 L 989.1018546454458 106.37631490388682 L 988.8827300818002 106.41887370682676 L 988.6626750376748 106.46043983525765 L 988.4417115183908 106.50100913260128 L 988.2198616201158 106.54057754196174 L 987.9971475276548 106.57914110653107 L 987.7735915122313 106.61669596998493 L 987.5492159292609 106.65323837686829 L 987.3240432161145 106.6887646729709 L 987.0980958898762 106.72327130569276 L 986.87139654509 106.75675482439937 L 986.6439678515015 106.78921188076673 L 986.4158325517907 106.82063922911627 L 986.1870134592974 106.85103372673933 L 985.9575334557401 106.8803923342115 L 985.727415488928 106.90871211569649 L 985.496682570466 106.93599023923973 L 985.2653577734536 106.96222397705162 L 985.0334642301777 106.98741070578025 L 984.8010251297997 107.0115479067737 L 984.5680637160356 107.03463316633201 L 984.3346032848326 107.05666417594847 L 984.1006671820396 107.07763873254045 L 983.8662788010716 107.09755473866979 L 983.6314615805717 107.11641020275246 L 983.3962390020661 107.13420323925777 L 983.1606345876164 107.1509320688969 L 982.9246718974681 107.16659501880085 L 982.6883745276934 107.18119052268763 L 982.4517661078324 107.19471712101905 L 982.2148702985298 107.20717346114655 L 981.9777107891694 107.21855829744648 L 981.7403112955042 107.22887049144471 L 981.5026955572857 107.23810901193042 L 981.2648873358901 107.24627293505928 L 981.026910411941 107.25336144444577 L 980.7887885829326 107.25937383124486 L 980.5505456608495 107.26430949422287 L 980.3122054697851 107.26816793981763 L 980.0737918435601 107.27094878218779 L 979.8353286233383 107.27265174325143 L 979.5968396552432 107.27327665271386 L 979.3583487879727 107.27282344808465 L 979.1198798704148 107.27129217468391 L 978.8814567492626 107.26868298563768 L 978.6431032666296 107.2649961418627 L 978.4048432576652 107.26023201204026 L 978.166700548172 107.2543910725794 L 977.9286989522224 107.24747390756917 L 977.6908622697775 107.23948120872033 L 977.4532142843076 107.23041377529609 L 977.2157787604131 107.22027251403225 L 976.9785794414483 107.20905843904646 L 976.7416400471479 107.1967726717369 L 976.5049842712536 107.18341644067004 L 976.2686357791458 107.16899108145788 L 976.0326182054768 107.15349803662431 L 975.7969551518072 107.1369388554609 L 975.561670184246 107.11931519387196 L 975.3267868310941 107.10062881420897 L 975.0923285804907 107.08088158509435 L 974.8583188780659 107.0600754812345 L 974.6247811245945 107.03821258322252 L 974.3917386736576 107.01529507732995 L 974.1592148293059 106.99132525528832 L 973.92723284373 106.96630551405984 L 973.6958159149355 106.94023835559778 L 973.464987184422 106.91312638659626 L 973.2347697348704 106.88497231822961 L 973.0051865878338 106.85577896588119 L 972.7762607014355 106.8255492488619 L 972.5480149680735 106.79428619011826 L 972.3204722121309 106.76199291593008 L 972.0936551876936 106.72867265559789 L 971.8675865762751 106.69432874111995 L 971.6422889845481 106.65896460685907 L 971.417784942084 106.62258378919921 L 971.1940968991001 106.58518992619184 L 970.9712472242143 106.5467867571921 L 970.7492582022081 106.50737812248485 L 970.5281520317991 106.46696796290075 L 970.3079508234197 106.42556031942208 L 970.0886765970075 106.38315933277867 L 969.8703512798023 106.33976924303387 L 969.6529967041539 106.29539438916049 L 969.4366346053389 106.25003920860692 L 969.2212866193865 106.20370823685344 L 969.0069742809163 106.15640610695861 L 968.7937190209832 106.108137549096 L 968.5815421649357 106.05890739008117 L 968.3704649302824 106.00872055288902 L 968.160508424571 105.9575820561614 L 967.9516936432772 105.90549701370541 L 967.7440414677048 105.85247063398188 L 967.5375726628987 105.79850821958458 L 967.332307875567 105.74361516670999 L 967.1282676320176 105.68779696461766 L 966.9254723361046 105.63105919508126 L 966.7239422671888 105.5734075318305 L 966.5236975781091 105.51484773998365 L 966.3247582931675 105.45538567547108 L 966.1271443061268 105.3950272844497 L 965.9308753782209 105.33377860270829 L 965.735971136179 105.27164575506403 L 965.5424510702632 105.20863495474987 L 965.3503345323184 105.14475250279335 L 965.1596407338386 105.08000478738643 L 964.9703887440446 105.01439828324668 L 964.7825974879777 104.94793955096986 L 964.596285744607 104.8806352363738 L 964.4114721449516 104.8124920698339 L 964.2281751702176 104.74351686560999 L 964.0464131499493 104.67371652116503 L 963.8662042601978 104.6030980164753 L 963.6875665217016 104.53166841333243 L 963.5105177980856 104.4594348546372 L 963.3350757940748 104.38640456368528 L 963.1612580537234 104.31258484344491 L 962.9890819586604 104.2379830758266 L 962.8185647263521 104.16260672094495 L 962.6497234083795 104.08646331637262 L 962.4825748887336 104.00956047638662 L 962.3171358821272 103.93190589120688 L 962.153422932323 103.85350732622719 L 961.9914524104797 103.77437262123871 L 961.8312405135144 103.694509689646 L 961.6728032624833 103.61392651767568 L 961.5161565009795 103.53263116357778 L 961.3613158935486 103.45063175681996 L 961.2082969241224 103.36793649727457 L 961.05711489447 103.28455365439865 L 960.9077849226687 103.20049156640701 L 960.7603219415912 103.1157586394384 L 960.6147406974127 103.03036334671489 L 960.4710557481362 102.94431422769459 L 960.329281462137 102.85761988721772 L 960.1894320167256 102.77028899464605 L 960.0515213967299 102.68233028299609 L 959.9155633930968 102.5937525480657 L 959.7815716015137 102.50456464755453 L 959.649559421048 102.41477550017834 L 959.5195400528077 102.32439408477703 L 959.3915264986211 102.23342943941684 L 959.2655315597373 102.14189066048647 L 959.141567835545 102.04978690178756 L 959.0196477223133 101.95712737361922 L 958.8997834119518 101.86392134185704 L 958.7819868907919 101.77017812702654 L 958.6662699383875 101.67590710337106 L 958.5526441263372 101.58111769791444 L 958.4411208171279 101.48581938951821 L 958.3317111629972 101.39002170793381 L 958.2244261048195 101.29373423284954 L 958.1192763710112 101.19696659293271 L 958.0162724764582 101.09972846486664 L 957.9154247214639 101.00202957238312 L 957.8167431907198 100.90387968528998 L 957.7202377522968 100.80528861849413 L 957.6259180566584 100.70626623102011 L 957.5337935356954 100.60682242502413 L 957.4438734017832 100.50696714480392 L 957.3561666468603 100.40671037580431 L 957.270682041529 100.30606214361863 L 957.1874281341787 100.20503251298624 L 957.1064132501307 100.103631586786 L 957.0276454908059 100.00186950502604 L 956.9511327329146 99.89975644382972 L 956.8768826276688 99.79730261441809 L 956.8049026000173 99.69451826208869 L 956.7351998479025 99.59141366519111 L 956.6677813415421 99.48799913409913 L 956.6026538227301 99.38428501017967 L 956.5398238041641 99.28028166475868 L 956.479297568794 99.17599949808405 L 956.4210811691925 99.07144893828554 L 956.3651804269513 98.96664044033201 L 956.3116009320978 98.86158448498593 L 956.260348042537 98.75629157775525 L 956.2114268835152 98.65077224784297 L 956.1648423471073 98.54503704709414 L 956.1205990917284 98.43909654894075 L 956.078701541667 98.33296134734431 L 956.0391538866432 98.22664205573652 L 956.0019600813896 98.12014930595798 L 955.9671238452557 98.01349374719489 L 955.934648661836 97.90668604491427 L 955.9045377786221 97.79973687979731 L 955.8767942066768 97.69265694667143 L 955.8514207203344 97.58545695344071 L 955.8284198569224 97.47814762001512 L 955.807793916508 97.37073967723859 L 955.7895449616678 97.26324386581588 L 955.7736748172824 97.15567093523856 L 955.7601850703529 97.04803164271006 L 955.7490770698427 96.94033675206991 L 955.7403519265426 96.83259703271744 L 955.7340105129597 96.7248232585348 L 955.7300534632301 96.6170262068096 L 955.7284811730553 96.50921665715717" stroke-miterlimit="10" stroke-width="2.7769845610000004" stroke-dasharray=""/></g><g><text fill="black" stroke="none" font-family="sans-serif" font-size="11pt" font-style="normal" font-weight="normal" text-decoration="normal" x="948.1999027972331" y="124.80095321200001" text-anchor="start" dominant-baseline="alphabetic" xml:space="preserve">Database</text></g></g><g><path fill="white" stroke="black" paint-order="fill stroke markers" d=" M 314.7774220426107 137.869115852 L 331.11262534261067 137.869115852 L 331.11262534261067 740.6381176219999 L 314.7774220426107 740.6381176219999 L 314.7774220426107 137.869115852" stroke-miterlimit="10" stroke-width="1.3612669416666667" stroke-dasharray=""/><path fill="white" stroke="black" paint-order="fill stroke markers" d=" M 634.6301376907877 275.084823572 L 650.9653409907878 275.084823572 L 650.9653409907878 654.0615401319999 L 634.6301376907877 654.0615401319999 L 634.6301376907877 275.084823572" stroke-miterlimit="10" stroke-width="1.3612669416666667" stroke-dasharray=""/><path fill="white" stroke="black" paint-order="fill stroke markers" d=" M 642.7977393407878 342.059157102 L 659.1329426407879 342.059157102 L 659.1329426407879 387.7977263419999 L 642.7977393407878 387.7977263419999 L 642.7977393407878 342.059157102" stroke-miterlimit="10" stroke-width="1.3612669416666667" stroke-dasharray=""/><path fill="white" stroke="black" paint-order="fill stroke markers" d=" M 833.2897844736653 454.77205987199994 L 849.6249877736655 454.77205987199994 L 849.6249877736655 591.9877675919998 L 833.2897844736653 591.9877675919998 L 833.2897844736653 454.77205987199994" stroke-miterlimit="10" stroke-width="1.3612669416666667" stroke-dasharray=""/><path fill="white" stroke="black" paint-order="fill stroke markers" d=" M 971.4102460935221 500.51062911199995 L 987.7454493935222 500.51062911199995 L 987.7454493935222 546.2491983519999 L 971.4102460935221 546.2491983519999 L 971.4102460935221 500.51062911199995" stroke-miterlimit="10" stroke-width="1.3612669416666667" stroke-dasharray=""/><g><g><rect fill="white" stroke="none" x="133.28852392332684" y="162.371920802" width="115.709398880625" height="21.23576429"/></g><text fill="black" stroke="none" font-family="sans-serif" font-size="11pt" font-style="normal" font-weight="normal" text-decoration="normal" x="135.73880441832682" y="177.07360377199998" text-anchor="start" dominant-baseline="alphabetic" xml:space="preserve">Click Next button</text></g><g><path fill="none" stroke="black" paint-order="fill stroke markers" d=" M 67.50902468466796 183.607685092 L 301.328104658944 183.607685092" stroke-miterlimit="10" stroke-width="1.3612669416666667" stroke-dasharray=""/><g transform="translate(314.7774220426107,183.607685092) translate(-314.7774220426107,-183.607685092)"><path fill="black" stroke="none" paint-order="stroke fill markers" d=" M 301.164752625944 176.80135038366666 L 314.7774220426107 183.607685092 L 301.164752625944 190.41401980033334 Z"/></g></g><g><g><rect fill="white" stroke="none" x="116.16613317625651" y="208.110490042" width="149.95418037476563" height="21.23576429"/></g><text fill="black" stroke="none" font-family="sans-serif" font-size="11pt" font-style="normal" font-weight="normal" text-decoration="normal" x="118.61641367125651" y="222.812173012" text-anchor="start" dominant-baseline="alphabetic" xml:space="preserve">Set teacher for groups</text></g><g><path fill="none" stroke="black" paint-order="fill stroke markers" d=" M 67.50902468466796 229.346254332 L 301.328104658944 229.346254332" stroke-miterlimit="10" stroke-width="1.3612669416666667" stroke-dasharray=""/><g transform="translate(314.7774220426107,229.346254332) translate(-314.7774220426107,-229.346254332)"><path fill="black" stroke="none" paint-order="stroke fill markers" d=" M 301.164752625944 222.53991962366666 L 314.7774220426107 229.346254332 L 301.164752625944 236.15258904033334 Z"/></g></g><g><g><rect fill="white" stroke="none" x="374.4869961022656" y="253.849059282" width="216.7687708288672" height="21.23576429"/></g><text fill="black" stroke="none" font-family="sans-serif" font-size="11pt" font-style="normal" font-weight="normal" text-decoration="normal" x="376.9372765972656" y="268.550742252" text-anchor="start" dominant-baseline="alphabetic" xml:space="preserve">POST: /api/group/assign-teacher</text></g><g><path fill="none" stroke="black" paint-order="fill stroke markers" d=" M 331.11262534261067 275.084823572 L 621.180820307121 275.084823572" stroke-miterlimit="10" stroke-width="1.3612669416666667" stroke-dasharray=""/><g transform="translate(634.6301376907877,275.084823572) translate(-634.6301376907877,-275.084823572)"><path fill="black" stroke="none" paint-order="stroke fill markers" d=" M 621.017468274121 268.27848886366667 L 634.6301376907877 275.084823572 L 621.017468274121 281.89115828033334 Z"/></g></g><g><g><rect fill="white" stroke="none" x="678.4629332124545" y="299.587628522" width="149.10953010621094" height="21.23576429"/></g><text fill="black" stroke="none" font-family="sans-serif" font-size="11pt" font-style="normal" font-weight="normal" text-decoration="normal" x="680.9132137074545" y="314.28931149199997" text-anchor="start" dominant-baseline="alphabetic" xml:space="preserve">setTeacherForGroup()</text></g><g><path fill="none" stroke="black" paint-order="fill stroke markers" d=" M 650.9653409907878 320.82339281199995 L 724.4737558407877 320.82339281199995 L 724.4737558407877 342.059157102 L 672.5822600244544 342.059157102" stroke-miterlimit="10" stroke-width="1.3612669416666667" stroke-dasharray=""/><g transform="translate(659.1329426407877,342.059157102) translate(-659.1329426407877,-342.059157102)"><path fill="black" stroke="none" paint-order="stroke fill markers" d=" M 672.7456120574544 335.25282239366663 L 659.1329426407877 342.059157102 L 672.7456120574544 348.8654918103333 Z"/></g></g><g><g><rect fill="white" stroke="none" x="678.4629332124545" y="366.56196205199996" width="106.79028572144531" height="21.23576429"/></g><text fill="black" stroke="none" font-family="sans-serif" font-size="11pt" font-style="normal" font-weight="normal" text-decoration="normal" x="680.9132137074545" y="381.26364502199993" text-anchor="start" dominant-baseline="alphabetic" xml:space="preserve">updated groups</text></g><g><path fill="none" stroke="black" paint-order="fill stroke markers" d=" M 659.1329426407877 387.7977263419999 L 724.4737558407877 387.7977263419999 L 724.4737558407877 409.03349063199994 L 664.4146583744543 409.03349063199994" stroke-miterlimit="10" stroke-width="1.3612669416666667" stroke-dasharray="6.53408132"/><g transform="translate(650.9653409907877,409.03349063199994) translate(-650.9653409907877,-409.03349063199994)"><path fill="black" stroke="none" paint-order="stroke fill markers" d=" M 664.5780104074544 402.2271559236666 L 650.9653409907877 409.03349063199994 L 664.5780104074544 415.8398253403333 Z"/></g></g><g><g><rect fill="white" stroke="none" x="678.9722270004102" y="433.5362955819999" width="126.31067146363281" height="21.23576429"/></g><text fill="black" stroke="none" font-family="sans-serif" font-size="11pt" font-style="normal" font-weight="normal" text-decoration="normal" x="681.4225074954102" y="448.2379785519999" text-anchor="start" dominant-baseline="alphabetic" xml:space="preserve">save(List&lt;Group&gt;)</text></g><g><path fill="none" stroke="black" paint-order="fill stroke markers" d=" M 650.9653409907878 454.77205987199994 L 819.8404670899987 454.77205987199994" stroke-miterlimit="10" stroke-width="1.3612669416666667" stroke-dasharray=""/><g transform="translate(833.2897844736653,454.77205987199994) translate(-833.2897844736653,-454.77205987199994)"><path fill="black" stroke="none" paint-order="stroke fill markers" d=" M 819.6771150569987 447.9657251636666 L 833.2897844736653 454.77205987199994 L 819.6771150569987 461.5783945803333 Z"/></g></g><g><g><rect fill="white" stroke="none" x="868.954978345332" y="479.2748648219999" width="83.12527717652344" height="21.23576429"/></g><text fill="black" stroke="none" font-family="sans-serif" font-size="11pt" font-style="normal" font-weight="normal" text-decoration="normal" x="871.4052588403321" y="493.9765477919999" text-anchor="start" dominant-baseline="alphabetic" xml:space="preserve">save(group)</text></g><g><path fill="none" stroke="black" paint-order="fill stroke markers" d=" M 849.6249877736655 500.51062911199995 L 957.9609287098555 500.51062911199995" stroke-miterlimit="10" stroke-width="1.3612669416666667" stroke-dasharray=""/><g transform="translate(971.4102460935221,500.51062911199995) translate(-971.4102460935221,-500.51062911199995)"><path fill="black" stroke="none" paint-order="stroke fill markers" d=" M 957.7975766768554 493.7042944036666 L 971.4102460935221 500.51062911199995 L 957.7975766768554 507.3169638203333 Z"/></g></g><g><g><rect fill="white" stroke="none" x="876.7001336798047" y="525.0134340619999" width="67.63496650757813" height="21.23576429"/></g><text fill="black" stroke="none" font-family="sans-serif" font-size="11pt" font-style="normal" font-weight="normal" text-decoration="normal" x="879.1504141748047" y="539.7151170319999" text-anchor="start" dominant-baseline="alphabetic" xml:space="preserve">Group list</text></g><g><path fill="none" stroke="black" paint-order="fill stroke markers" d=" M 971.4102460935221 546.2491983519999 L 863.0743051573321 546.2491983519999" stroke-miterlimit="10" stroke-width="1.3612669416666667" stroke-dasharray="6.53408132"/><g transform="translate(849.6249877736655,546.2491983519999) translate(-849.6249877736655,-546.2491983519999)"><path fill="black" stroke="none" paint-order="stroke fill markers" d=" M 863.2376571903321 539.4428636436666 L 849.6249877736655 546.2491983519999 L 863.2376571903321 553.0555330603332 Z"/></g></g><g><g><rect fill="white" stroke="none" x="708.3100794784375" y="570.7520033019998" width="67.63496650757813" height="21.23576429"/></g><text fill="black" stroke="none" font-family="sans-serif" font-size="11pt" font-style="normal" font-weight="normal" text-decoration="normal" x="710.7603599734375" y="585.4536862719998" text-anchor="start" dominant-baseline="alphabetic" xml:space="preserve">Group list</text></g><g><path fill="none" stroke="black" paint-order="fill stroke markers" d=" M 833.2897844736653 591.9877675919998 L 664.4146583744545 591.9877675919998" stroke-miterlimit="10" stroke-width="1.3612669416666667" stroke-dasharray="6.53408132"/><g transform="translate(650.9653409907878,591.9877675919998) translate(-650.9653409907878,-591.9877675919998)"><path fill="black" stroke="none" paint-order="stroke fill markers" d=" M 664.5780104074545 585.1814328836665 L 650.9653409907878 591.9877675919998 L 664.5780104074545 598.7941023003332 Z"/></g></g><g><g><rect fill="white" stroke="none" x="350.4426159142773" y="616.4905725419999" width="54.61422981324219" height="21.23576429"/></g><g><rect fill="white" stroke="none" x="350.4426159142773" y="632.8257758419999" width="264.8575312048437" height="21.23576429"/></g><text fill="green" stroke="none" font-family="sans-serif" font-size="11pt" font-style="normal" font-weight="normal" text-decoration="normal" x="352.89289640927734" y="631.1922555119999" text-anchor="start" dominant-baseline="alphabetic" xml:space="preserve">200 OK</text><text fill="green" stroke="none" font-family="sans-serif" font-size="11pt" font-style="normal" font-weight="normal" text-decoration="normal" x="352.89289640927734" y="647.5274588119998" text-anchor="start" dominant-baseline="alphabetic" xml:space="preserve">Response body: Group list after updater</text></g><g><path fill="none" stroke="black" paint-order="fill stroke markers" d=" M 634.6301376907877 654.0615401319999 L 344.5619427262773 654.0615401319999" stroke-miterlimit="10" stroke-width="1.3612669416666667" stroke-dasharray="6.53408132"/><g transform="translate(331.11262534261067,654.0615401319999) translate(-331.11262534261067,-654.0615401319999)"><path fill="black" stroke="none" paint-order="stroke fill markers" d=" M 344.72529475927735 647.2552054236666 L 331.11262534261067 654.0615401319999 L 344.72529475927735 660.8678748403332 Z"/></g></g><g><g><rect fill="white" stroke="none" x="86.83901525633463" y="678.5643450819998" width="208.60841621460938" height="21.23576429"/></g><text fill="black" stroke="none" font-family="sans-serif" font-size="11pt" font-style="normal" font-weight="normal" text-decoration="normal" x="89.28929575133463" y="693.2660280519998" text-anchor="start" dominant-baseline="alphabetic" xml:space="preserve">Display the list of group Course</text></g><g><path fill="none" stroke="black" paint-order="fill stroke markers" d=" M 314.7774220426107 699.8001093719998 L 80.95834206833463 699.8001093719998" stroke-miterlimit="10" stroke-width="1.3612669416666667" stroke-dasharray="6.53408132"/><g transform="translate(67.50902468466796,699.8001093719998) translate(-67.50902468466796,-699.8001093719998)"><path fill="black" stroke="none" paint-order="stroke fill markers" d=" M 81.12169410133463 692.9937746636665 L 67.50902468466796 699.8001093719998 L 81.12169410133463 706.6064440803332 Z"/></g></g></g></g></svg>