<svg version="1.1" xmlns="http://www.w3.org/2000/svg" xmlns:xlink="http://www.w3.org/1999/xlink" width="1221" height="894"><desc>title%20Prepare%20new%20semester%20-%20Prepare%20group%0A%0Aactor%20%23green%3A0.5%20%22Workspace%20Admin%22%20as%20w%0Aboundary%20%22Workspace%20Admin%20Client%22%20as%20f%0Acontrol%20%22Group%20Controller%22%20as%20gc%0Aparticipant%20%22Group%20Service%22%20as%20gs%0Adatabase%20%23blue%3A1%20%22Database%22%20as%20db%0A%0Aw-%3Ef%3A%20Click%20to%20Prepare%20New%20Semester%20button%0Aactivate%20f%0A%0Af-%3Egc%3AGET%3A%20%2Fapi%2Fgroup%2Fprepare-group%0Aactivate%20gc%0Agc-%3Egs%3A%20getSyllabiOfCurrentTerm()%0Aactivate%20gs%0Ags-%3Edb%3AgetSyllabiOfCurrentTerm()%0Aactivate%20db%0Ags%3C--db%3A%20Syllabus%20list%0Adeactivate%20db%0Agc%3C--gs%3ASyllabus%20list%0Adeactivate%20gs%0A%0Agc-%3Egc%3AprepareGroupInTerm()%0Aactivate%20gc%0Agc%3C--gc%3A%20Group%20list%0Adeactivate%20gc%0A%0Agc-%3Egs%3Asave(List%3CGroup%3E)%0Aactivate%20gs%0Ags-%3Edb%3Asave(group)%0Aactivate%20db%0Ags%3C--db%3AGroup%20list%0Adeactivate%20db%0Agc%3C--gs%3AGroup%20list%0Adeactivate%20gs%0A%0Af%3C--gc%3A%3Ccolor%3A%23green%3E200%20OK%5CnResponse%20body%3A%20Group%20list%20in%20new%20semester%3C%2Fcolor%3E%0Adeactivate%20gc%0Aw%3C--f%3ADisplay%20the%20list%20of%20group%20Course%0A</desc><defs/><g><g/><g/><g/><g/><g/><g/><g/><g/><g/><g/><g/><g/><g/><g/><g/><g/><g/><g/><g/><g/><g><rect fill="white" stroke="none" x="0" y="0" width="1221" height="894"/></g><g><text fill="black" stroke="none" font-family="sans-serif" font-size="16.5pt" font-style="normal" font-weight="normal" text-decoration="normal" x="419.9158969214029" y="24.50280495" text-anchor="start" dominant-baseline="alphabetic" xml:space="preserve">Prepare new semester - Prepare group</text></g><g/><g><path fill="none" stroke="black" paint-order="fill stroke markers" d=" M 67.50902468466796 129.701514202 L 67.50902468466796 894.1890286419998" stroke-miterlimit="10" stroke-width="1.3612669416666667" stroke-dasharray="12.565541,5.445067766666667"/><path fill="none" stroke="black" paint-order="fill stroke markers" d=" M 368.56421009397786 129.701514202 L 368.56421009397786 894.1890286419998" stroke-miterlimit="10" stroke-width="1.3612669416666667" stroke-dasharray="12.565541,5.445067766666667"/><path fill="none" stroke="black" paint-order="fill stroke markers" d=" M 712.0246527929362 129.701514202 L 712.0246527929362 894.1890286419998" stroke-miterlimit="10" stroke-width="1.3612669416666667" stroke-dasharray="12.565541,5.445067766666667"/><path fill="none" stroke="black" paint-order="fill stroke markers" d=" M 950.352785642871 129.701514202 L 950.352785642871 894.1890286419998" stroke-miterlimit="10" stroke-width="1.3612669416666667" stroke-dasharray="12.565541,5.445067766666667"/><path fill="none" stroke="black" paint-order="fill stroke markers" d=" M 1180.5133168428058 129.701514202 L 1180.5133168428058 894.1890286419998" stroke-miterlimit="10" stroke-width="1.3612669416666667" stroke-dasharray="12.565541,5.445067766666667"/></g><g><g><path fill="white" stroke="green" paint-order="fill stroke markers" d=" M 76.82009056566797 60.60360424300001 A 9.311065881 9.311065881 0 1 1 76.8200859101354 60.594293178670846 M 67.50902468466796 69.91467012400001 L 67.50902468466796 89.84361815000001 M 55.747678308667965 77.102159576 L 79.27037106066797 77.102159576 M 67.50902468466796 89.84361815000001 L 55.747678308667965 108.465749912 M 67.50902468466796 89.84361815000001 L 79.27037106066797 108.465749912" stroke-miterlimit="10" stroke-width="1.3884922805000002" stroke-dasharray=""/></g><g><text fill="black" stroke="none" font-family="sans-serif" font-size="11pt" font-style="normal" font-weight="normal" text-decoration="normal" x="8.167601649999995" y="124.80095321200001" text-anchor="start" dominant-baseline="alphabetic" xml:space="preserve">Workspace Admin</text></g><g><path fill="white" stroke="black" paint-order="fill stroke markers" d=" M 400.98958864447786 82.819480731 A 24.2577769005 24.2577769005 0 1 1 400.98957651559044 82.79522295814245 M 337.52732382397784 57.17321154999999 L 337.52732382397784 108.465749912 M 336.13883154347786 82.819480731 L 352.47403484347785 82.819480731" stroke-miterlimit="10" stroke-width="2.7769845610000004" stroke-dasharray=""/></g><g><text fill="black" stroke="none" font-family="sans-serif" font-size="11pt" font-style="normal" font-weight="normal" text-decoration="normal" x="288.4461299548177" y="124.80095321200001" text-anchor="start" dominant-baseline="alphabetic" xml:space="preserve">Workspace Admin Client</text></g><g><path fill="white" stroke="black" paint-order="fill stroke markers" d=" M 736.2824296934361 82.819480731 A 24.2577769005 24.2577769005 0 1 1 736.2824175645487 82.79522295814245 M 708.7576121329362 58.561703830499994 L 718.5587341129361 50.39410218049999 M 708.7576121329362 58.561703830499994 L 718.5587341129361 66.72930548049999" stroke-miterlimit="10" stroke-width="2.7769845610000004" stroke-dasharray=""/></g><g><text fill="black" stroke="none" font-family="sans-serif" font-size="11pt" font-style="normal" font-weight="normal" text-decoration="normal" x="657.8407080907878" y="124.80095321200001" text-anchor="start" dominant-baseline="alphabetic" xml:space="preserve">Group Controller</text></g><path fill="none" stroke="none"/><g><path fill="white" stroke="black" paint-order="fill stroke markers" d=" M 885.7787177479179 85.75981732500001 L 1014.9268535378242 85.75981732500001 L 1014.9268535378242 129.701514202 L 885.7787177479179 129.701514202 L 885.7787177479179 85.75981732500001 Z" stroke-miterlimit="10" stroke-width="2.613632528" stroke-dasharray=""/></g><g><text fill="black" stroke="none" font-family="sans-serif" font-size="11pt" font-style="normal" font-weight="normal" text-decoration="normal" x="903.5024133284179" y="113.36631090200002" text-anchor="start" dominant-baseline="alphabetic" xml:space="preserve">Group Service</text></g><g><path fill="white" stroke="blue" paint-order="fill stroke markers" d=" M 1156.6639200248057 97.684515734 L 1156.6639200248057 63.380588804000006 L 1204.3627136608059 63.380588804000006 L 1204.3627136608059 97.684515734" stroke-miterlimit="10" stroke-width="2.7769845610000004" stroke-dasharray=""/><path fill="white" stroke="blue" paint-order="fill stroke markers" d=" M 1204.3627136608059 62.1881189631 L 1204.3615212009022 62.29592950801663 L 1204.3579439404361 62.403729271968594 L 1204.3519822371306 62.51150747506936 L 1204.3436366871515 62.619253339588404 L 1204.3329081250463 62.72695609102909 L 1204.3197976236625 62.834604959206004 L 1204.304306494039 62.94218917932205 L 1204.2864362852765 63.04969799304486 L 1204.2661887843806 63.15712064958265 L 1204.2435660160843 63.2644464067593 L 1204.218570242646 63.371664532088516 L 1204.191203963622 63.47876430384712 L 1204.1614699156173 63.58573501214718 L 1204.1293710720122 63.692565960007016 L 1204.094910642664 63.79924646442086 L 1204.0580920735872 63.90576585742718 L 1204.018919046608 64.01211348717543 L 1203.9773954789962 64.11827871899126 L 1203.9335255230742 64.22425093643996 L 1203.887313565801 64.3300195423881 L 1203.8387642283335 64.43557396006322 L 1203.7878823655656 64.54090363411153 L 1203.7346730656404 64.64599803165338 L 1203.6791416494443 64.75084664333659 L 1203.6212936700724 64.85543898438739 L 1203.5611349122742 64.95976459565881 L 1203.4986713918754 65.06381304467668 L 1203.4339093551764 65.16757392668278 L 1203.3668552783263 65.27103686567541 L 1203.2975158666773 65.37419151544687 L 1203.2258980541128 65.47702756061814 L 1203.1520090023541 65.5795347176704 L 1203.075856100245 65.68170273597339 L 1202.9974469630122 65.7835213988104 L 1202.9167894315042 65.88498052439998 L 1202.8338915714066 65.98606996691414 L 1202.7487616724368 66.08677961749288 L 1202.6614082475135 66.18709940525505 L 1202.5718400319063 66.28701929830548 L 1202.480065982362 66.38652930473813 L 1202.3860952762097 66.48561947363528 L 1202.2899373104412 66.58427989606261 L 1202.191601700773 66.6825007060601 L 1202.0910982806843 66.7802720816286 L 1201.988437100433 66.87758424571203 L 1201.883628426052 66.97442746717506 L 1201.7766827383211 67.07079206177627 L 1201.6676107317203 67.1666683931365 L 1201.556423313359 67.2620468737025 L 1201.4431316018863 67.35691796570569 L 1201.3277469263794 67.45127218211596 L 1201.2102808252093 67.54510008759026 L 1201.0907450448885 67.63839229941624 L 1200.9691515388952 67.73113948845047 L 1200.8455124664788 67.82333238005134 L 1200.7198401914434 67.9149617550065 L 1200.5921472809118 68.00601845045483 L 1200.462446504069 68.09649336080267 L 1200.330750830884 68.18637743863435 L 1200.1970734308147 68.27566169561702 L 1200.0614276714898 68.36433720339936 L 1199.923827117372 68.45239509450451 L 1199.784285528402 68.53982656321674 L 1199.6428168586228 68.62662286646201 L 1199.499435254783 68.71277532468237 L 1199.3541550549237 68.79827532270376 L 1199.206990786944 68.88311431059763 L 1199.0579571671478 68.9672838045359 L 1198.907069098773 69.0507753876393 L 1198.7543416705007 69.13358071081912 L 1198.5997901549463 69.21569149361203 L 1198.4434300071327 69.29709952500816 L 1198.2852768629446 69.37779666427225 L 1198.1253465375644 69.45777484175761 L 1197.963655023891 69.53702605971311 L 1197.8002184909417 69.61554239308303 L 1197.6350532822332 69.69331599029945 L 1197.468175914149 69.77033907406746 L 1197.2996030742866 69.84660394214286 L 1197.1293516197893 69.92210296810242 L 1196.9574385756612 69.99682860210643 L 1196.7838811330632 70.07077337165379 L 1196.6086966475948 70.14392988232913 L 1196.4319026375588 70.21629081854239 L 1196.2535167822086 70.28784894426022 L 1196.0735569199815 70.35859710372968 L 1195.8920410467133 70.42852822219379 L 1195.7089873138405 70.49763530659898 L 1195.5244140265834 70.5659114462944 L 1195.3383396421173 70.63334981372294 L 1195.1507827677253 70.69994366510412 L 1194.9617621589387 70.76568634110825 L 1194.7712967176608 70.83057126752253 L 1194.579405490277 70.89459195590838 L 1194.3861076657502 70.95774200425032 L 1194.1914225737016 71.02001509759614 L 1193.9953696824784 71.08140500868842 L 1193.7979685972064 71.14190559858717 L 1193.5992390578292 71.20151081728383 L 1193.3992009371354 71.26021470430622 L 1193.1978742387705 71.31801138931453 L 1192.9952790952364 71.37489509268845 L 1192.7914357658788 71.43086012610503 L 1192.5863646348603 71.48590089310757 L 1192.3800862091236 71.54001188966522 L 1192.1726211163393 71.59318770472345 L 1191.9639901028436 71.64542302074504 L 1191.754214031564 71.69671261424193 L 1191.543313879933 71.7470513562975 L 1191.33131073779 71.79643421307951 L 1191.1182258052725 71.84485624634341 L 1190.904080390696 71.89231261392625 L 1190.6888959084238 71.93879857023082 L 1190.4726938767246 71.9843094667002 L 1190.2554959156214 72.02884075228269 L 1190.0373237447293 72.07238797388683 L 1189.8181991810839 72.11494677682676 L 1189.5981441369586 72.15651290525764 L 1189.3771806176744 72.19708220260128 L 1189.1553307193994 72.23665061196175 L 1188.9326166269384 72.27521417653107 L 1188.709060611515 72.31276903998494 L 1188.4846850285444 72.3493114468683 L 1188.259512315398 72.38483774297092 L 1188.0335649891597 72.41934437569277 L 1187.8068656443736 72.45282789439938 L 1187.579436950785 72.48528495076673 L 1187.3513016510744 72.51671229911628 L 1187.122482558581 72.54710679673934 L 1186.8930025550237 72.5764654042115 L 1186.6628845882117 72.60478518569649 L 1186.4321516697496 72.63206330923974 L 1186.2008268727373 72.65829704705163 L 1185.9689333294614 72.68348377578025 L 1185.7364942290833 72.70762097677371 L 1185.5035328153192 72.73070623633201 L 1185.2700723841162 72.75273724594847 L 1185.0361362813233 72.77371180254045 L 1184.8017479003554 72.79362780866978 L 1184.5669306798554 72.81248327275246 L 1184.3317081013497 72.83027630925778 L 1184.0961036869 72.84700513889692 L 1183.8601409967519 72.86266808880085 L 1183.623843626977 72.87726359268764 L 1183.387235207116 72.89079019101906 L 1183.1503393978135 72.90324653114655 L 1182.913179888453 72.91463136744649 L 1182.6757803947878 72.9249435614447 L 1182.4381646565694 72.93418208193043 L 1182.2003564351737 72.94234600505929 L 1181.9623795112248 72.94943451444577 L 1181.7242576822164 72.95544690124485 L 1181.486014760133 72.96038256422287 L 1181.2476745690687 72.96424100981763 L 1181.0092609428436 72.9670218521878 L 1180.770797722622 72.96872481325143 L 1180.5323087545269 72.96934972271386 L 1180.2938178872564 72.96889651808466 L 1180.0553489696986 72.96736524468392 L 1179.8169258485464 72.96475605563768 L 1179.5785723659133 72.96106921186271 L 1179.340312356949 72.95630508204027 L 1179.1021696474556 72.9504641425794 L 1178.8641680515059 72.94354697756918 L 1178.626331369061 72.93555427872033 L 1178.3886833835911 72.9264868452961 L 1178.1512478596967 72.91634558403224 L 1177.914048540732 72.90513150904647 L 1177.6771091464316 72.89284574173689 L 1177.4404533705372 72.87948951067006 L 1177.2041048784295 72.86506415145789 L 1176.9680873047605 72.84957110662431 L 1176.7324242510908 72.8330119254609 L 1176.4971392835298 72.81538826387197 L 1176.2622559303777 72.79670188420899 L 1176.0277976797745 72.77695465509434 L 1175.7937879773494 72.7561485512345 L 1175.5602502238783 72.73428565322251 L 1175.3272077729412 72.71136814732996 L 1175.0946839285896 72.68739832528833 L 1174.8627019430137 72.66237858405984 L 1174.631285014219 72.63631142559778 L 1174.4004562837056 72.60919945659627 L 1174.170238834154 72.58104538822961 L 1173.9406556871174 72.55185203588118 L 1173.7117298007192 72.5216223188619 L 1173.4834840673573 72.49035926011825 L 1173.2559413114145 72.45806598593009 L 1173.0291242869773 72.4247457255979 L 1172.8030556755587 72.39040181111994 L 1172.5777580838317 72.35503767685907 L 1172.3532540413678 72.31865685919922 L 1172.129565998384 72.28126299619186 L 1171.906716323498 72.24285982719209 L 1171.6847273014919 72.20345119248485 L 1171.4636211310826 72.16304103290075 L 1171.2434199227034 72.12163338942209 L 1171.024145696291 72.07923240277869 L 1170.8058203790858 72.03584231303388 L 1170.5884658034377 71.99146745916049 L 1170.3721037046225 71.94611227860693 L 1170.1567557186702 71.89978130685344 L 1169.9424433801998 71.85247917695861 L 1169.7291881202668 71.80421061909601 L 1169.5170112642193 71.75498046008119 L 1169.305934029566 71.70479362288901 L 1169.0959775238548 71.65365512616141 L 1168.8871627425608 71.60157008370541 L 1168.6795105669885 71.54854370398188 L 1168.4730417621822 71.49458128958457 L 1168.2677769748507 71.43968823671 L 1168.063736731301 71.38387003461766 L 1167.8609414353882 71.32713226508127 L 1167.6594113664726 71.26948060183051 L 1167.4591666773927 71.21092080998365 L 1167.2602273924513 71.15145874547107 L 1167.0626134054105 71.0911003544497 L 1166.8663444775045 71.0298516727083 L 1166.6714402354628 70.96771882506403 L 1166.4779201695467 70.90470802474988 L 1166.285803631602 70.84082557279336 L 1166.0951098331223 70.77607785738643 L 1165.9058578433282 70.71047135324669 L 1165.7180665872613 70.64401262096986 L 1165.5317548438907 70.5767083063738 L 1165.3469412442353 70.50856513983389 L 1165.1636442695012 70.43958993560999 L 1164.981882249233 70.36978959116503 L 1164.8016733594814 70.29917108647531 L 1164.623035620985 70.22774148333244 L 1164.4459868973693 70.1555079246372 L 1164.2705448933584 70.08247763368529 L 1164.096727153007 70.00865791344492 L 1163.924551057944 69.9340561458266 L 1163.7540338256358 69.85867979094495 L 1163.5851925076631 69.78253638637263 L 1163.4180439880172 69.70563354638664 L 1163.2526049814107 69.62797896120689 L 1163.0888920316067 69.54958039622719 L 1162.9269215097634 69.47044569123871 L 1162.766709612798 69.39058275964601 L 1162.608272361767 69.30999958767568 L 1162.4516256002632 69.22870423357777 L 1162.2967849928323 69.14670482681996 L 1162.143766023406 69.06400956727457 L 1161.9925839937537 68.98062672439866 L 1161.8432540219524 68.89656463640702 L 1161.6957910408748 68.8118317094384 L 1161.5502097966964 68.72643641671489 L 1161.4065248474199 68.6403872976946 L 1161.2647505614207 68.55369295721772 L 1161.1249011160091 68.46636206464606 L 1160.9869904960135 68.37840335299609 L 1160.8510324923805 68.28982561806569 L 1160.7170407007975 68.20063771755453 L 1160.5850285203317 68.11084857017835 L 1160.4550091520914 68.02046715477704 L 1160.326995597905 67.92950250941684 L 1160.201000659021 67.83796373048648 L 1160.0770369348286 67.74585997178757 L 1159.955116821597 67.65320044361923 L 1159.8352525112355 67.55999441185705 L 1159.7174559900755 67.46625119702654 L 1159.601739037671 67.37198017337107 L 1159.488113225621 67.27719076791445 L 1159.3765899164114 67.18189245951821 L 1159.2671802622808 67.08609477793381 L 1159.1598952041031 66.98980730284956 L 1159.0547454702948 66.89303966293272 L 1158.9517415757418 66.79580153486665 L 1158.8508938207476 66.69810264238313 L 1158.7522122900034 66.59995275528999 L 1158.6557068515806 66.50136168849414 L 1158.561387155942 66.40233930102012 L 1158.469262634979 66.30289549502413 L 1158.3793425010667 66.20304021480393 L 1158.2916357461438 66.1027834458043 L 1158.2061511408126 66.00213521361863 L 1158.1228972334623 65.90110558298623 L 1158.0418823494144 65.799704656786 L 1157.9631145900896 65.69794257502603 L 1157.8866018321983 65.59582951382973 L 1157.8123517269526 65.4933756844181 L 1157.7403716993008 65.3905913320887 L 1157.6706689471862 65.28748673519112 L 1157.6032504408256 65.18407220409914 L 1157.5381229220136 65.08035808017966 L 1157.4752929034478 64.97635473475869 L 1157.4147666680776 64.87207256808405 L 1157.3565502684762 64.76752200828555 L 1157.3006495262348 64.66271351033203 L 1157.2470700313813 64.55765755498592 L 1157.1958171418207 64.45236464775525 L 1157.1468959827987 64.34684531784296 L 1157.100311446391 64.24111011709415 L 1157.056068191012 64.13516961894075 L 1157.0141706409506 64.0290344173443 L 1156.9746229859268 63.92271512573653 L 1156.9374291806732 63.81622237595798 L 1156.9025929445393 63.70956681719489 L 1156.8701177611197 63.602759114914264 L 1156.8400068779056 63.49580994979732 L 1156.8122633059604 63.38873001667144 L 1156.786889819618 63.28153002344071 L 1156.763888956206 63.17422069001512 L 1156.7432630157916 63.066812747238586 L 1156.7250140609515 62.959316935815885 L 1156.709143916566 62.85174400523857 L 1156.6956541696366 62.74410471271006 L 1156.6845461691264 62.636409822069915 L 1156.6758210258263 62.52867010271744 L 1156.6694796122433 62.4208963285348 L 1156.6655225625136 62.313099276809595 L 1156.663950272339 62.20528972715717 L 1156.664762898947 62.09747846044265 L 1156.6679603610755 61.98967625770286 L 1156.6735423389812 61.88189389906824 L 1156.6815082744708 61.77414216268484 L 1156.6918573709577 61.66643182363649 L 1156.7045885935404 61.558773652867366 L 1156.7197006691076 61.4511784161048 L 1156.7371920864641 61.34365687278283 L 1156.7570610964829 61.236219774966166 L 1156.7793057122797 61.12887786627507 L 1156.803923709411 61.02164188081096 L 1156.830912626098 60.91452254208302 L 1156.8602697634715 60.807530561935856 L 1156.891992185842 60.70067663947832 L 1156.9260767209937 60.593971460013606 L 1156.9625199605018 60.487425693970756 L 1157.0013182600726 60.381049995837586 L 1157.0424677399083 60.27485500309525 L 1157.0859642850953 60.16885133515453 L 1157.1318035460154 60.06304959229389 L 1157.1799809387805 59.95746035459945 L 1157.2304916456917 59.852094180906974 L 1157.2833306157204 59.746961607746044 L 1157.3384925650134 59.64207314828636 L 1157.395971977422 59.537439291286454 L 1157.455763105053 59.43307050004484 L 1157.517859968843 59.32897721135367 L 1157.5822563591573 59.22516983445505 L 1157.648945836411 59.12165875000019 L 1157.7179217317118 59.01845430901127 L 1157.7891771475277 58.91556683184637 L 1157.8627049583763 58.81300660716748 L 1157.938497811538 58.7107838909116 L 1158.0165481277904 58.60890890526517 L 1158.096848102167 58.507391837641855 L 1158.1793897047376 58.406242839663825 L 1158.2641646814104 58.30547202614659 L 1158.3511645547583 58.205089474087515 L 1158.4403806248667 58.105105221658164 L 1158.5318039702026 58.00552926720046 L 1158.6254254485082 57.90637156822687 L 1158.7212356977134 57.807642040424646 L 1158.819225136873 57.709350556664305 L 1158.9193839671248 57.61150694601232 L 1159.0217021726692 57.514120992748204 L 1159.126169521771 57.417202435386145 L 1159.2327755677825 57.320760965701105 L 1159.3415096501878 57.224806227759686 L 1159.4523608956692 57.12934781695572 L 1159.5653182191945 57.03439527905074 L 1159.6803703251255 56.93995810921942 L 1159.7975057083477 56.84604575110002 L 1159.9167126554203 56.75266759585011 L 1160.0379792457477 56.65983298120741 L 1160.161293352772 56.567551190555996 L 1160.2866426451856 56.47583145199805 L 1160.4140145881631 56.384682937430995 L 1160.543396444617 56.29411476163032 L 1160.674775276469 56.20413598133814 L 1160.8081379459456 56.1147555943575 L 1160.943471116891 56.02598253865261 L 1161.080761256101 55.937825691455075 L 1161.2199946346757 55.85029386837614 L 1161.3611573293936 55.763395822525176 L 1161.5042352241028 55.677140243634355 L 1161.649214011133 55.591535757189675 L 1161.7960791927262 55.50659092356846 L 1161.9448160824868 55.42231423718327 L 1162.0954098068498 55.33871412563253 L 1162.247845306568 55.25579894885771 L 1162.402107338219 55.1735769983074 L 1162.5581804757276 55.092056496108135 L 1162.7160491119105 55.01124559424221 L 1162.8756974600353 54.93115237373246 L 1163.0371095554005 54.851784843834196 L 1163.2002692569308 54.77315094123426 L 1163.3651602487926 54.6952585292574 L 1163.5317660420235 54.61811539707989 L 1163.7000699761832 54.54172925895067 L 1163.8700552210184 54.46610775341989 L 1164.0417047781468 54.391258442575094 L 1164.215001482755 54.317188811284986 L 1164.3899280053176 54.24390626645098 L 1164.5664668533277 54.171418136266475 L 1164.744600373048 54.09973166948409 L 1164.9243107512743 54.028854034690774 L 1165.1055800171193 53.95879231959093 L 1165.288390043807 53.88955353029769 L 1165.4727225504873 53.82114459063227 L 1165.658559104063 53.753572341431656 L 1165.8458811210335 53.68684353986444 L 1166.0346698693536 53.62096485875517 L 1166.2249064703053 53.55594288591707 L 1166.4165719003875 53.49178412349323 L 1166.6096469932165 53.42849498730643 L 1166.8041124414442 53.366081806217544 L 1166.9999487986877 53.304550821492676 L 1167.1971364814747 53.24390818617902 L 1167.3956557712008 53.18415996448957 L 1167.5954868161027 53.12531213119671 L 1167.7966096332427 53.067370571034715 L 1167.9990041105063 53.01034107811134 L 1168.2026500086145 52.95422935532834 L 1168.4075269631473 52.89904101381123 L 1168.61361448658 52.84478157234818 L 1168.820891970332 52.79145645683812 L 1169.0293386868275 52.73907099974815 L 1169.2389337915686 52.687630439580346 L 1169.4496563252196 52.637139920347835 L 1169.6614852157027 52.58760449106049 L 1169.8743992803052 52.53902910521993 L 1170.0883772277982 52.49141862032429 L 1170.3033976605655 52.444777797382365 L 1170.5194390767426 52.399111300437596 L 1170.7364798723684 52.354423696101605 L 1170.9544983435435 52.3107194530976 L 1171.1734726886032 52.26800294181345 L 1171.393381010295 52.2262784338647 L 1171.6142013179701 52.18555010166736 L 1171.8359115297817 52.14582201802072 L 1172.0584894748936 52.10709815570004 L 1172.2819128956967 52.06938238705927 L 1172.5061594500348 52.032678483643856 L 1172.7312067134399 51.996990115813546 L 1172.9570321813726 51.96232085237539 L 1173.1836132714745 51.928674160226834 L 1173.4109273258257 51.89605340400906 L 1173.6389516132099 51.8644618457705 L 1173.8676633313883 51.833902644640645 L 1174.0970396093799 51.80437885651416 L 1174.3270575097479 51.775893433745246 L 1174.557694030894 51.74844922485244 L 1174.7889261093585 51.722048974233765 L 1175.020730622126 51.69669532189228 L 1175.2530843889383 51.672390803172085 L 1175.4859641746125 51.649137848504814 L 1175.719346691364 51.626938783166544 L 1175.9532086011357 51.60579582704531 L 1176.1875265179315 51.58571109441911 L 1176.422277010155 51.56668659374447 L 1176.6574366029527 51.54872422745561 L 1176.892981780561 51.53182579177417 L 1177.1288889886587 51.515992976529645 L 1177.3651346367215 51.50122736499037 L 1177.6016951003812 51.4875304337052 L 1177.838546723789 51.47490355235584 L 1178.0756658219796 51.4633479836199 L 1178.313028683241 51.45286488304463 L 1178.5506115714848 51.443455298931354 L 1178.7883907286202 51.43512017223063 L 1179.0263423769295 51.4278603364482 L 1179.2644427214464 51.42167651756158 L 1179.5026679523344 51.41656933394751 L 1179.7409942472693 51.41253929632009 L 1179.9793977738204 51.40958680767973 L 1180.2178546918333 51.407712163272826 L 1180.4563411558152 51.40691555056227 L 1180.6948333173182 51.40719704920866 L 1180.933307327325 51.40855663106237 L 1181.1717393386334 51.41099416016634 L 1181.4101055082408 51.414509392769695 L 1181.6483819997293 51.419101977352106 L 1181.8865449856476 51.42477145465894 L 1182.1245706498962 51.431517257747196 L 1182.3624351901067 51.43933871204218 L 1182.6001148200235 51.44823503540498 L 1182.8375857718813 51.45820533821068 L 1183.0748242987834 51.4692486234373 L 1183.3118066770744 51.48136378676553 L 1183.548509208714 51.49454961668913 L 1183.7849082236462 51.50880479463608 L 1184.0209800821667 51.524127895100484 L 1184.2567011772865 51.54051738578506 L 1184.4920479370921 51.5579716277544 L 1184.726996827104 51.57648887559884 L 1184.9615243526289 51.59606727760904 L 1185.1956070611095 51.6167048759611 L 1185.4292215444702 51.6383996069124 L 1185.6623444414574 51.66114930100791 L 1185.8949524399754 51.684951683297186 L 1186.1270222794185 51.70980437356183 L 1186.358530752996 51.735704886553535 L 1186.5894547100534 51.76265063224257 L 1186.8197710583877 51.79063891607683 L 1187.0494567665555 51.81966693925126 L 1187.278488866178 51.849731798987726 L 1187.5068444542355 51.88083048882531 L 1187.73450069536 51.91295989892094 L 1187.9614348241168 51.94611681636038 L 1188.1876241472823 51.980297925479526 L 1188.4130460461124 52.01549980819594 L 1188.6376779786056 52.0517189443507 L 1188.8614974817551 52.08895171206036 L 1189.0844821737976 52.127194388079175 L 1189.3066097564497 52.16644314817141 L 1189.5278580171382 52.20669406749378 L 1189.7482048312213 52.247943120987884 L 1189.9676281642012 52.29018618378274 L 1190.1861060739277 52.33341903160728 L 1190.4036167127915 52.37763734121275 L 1190.6201383299103 52.422836690805035 L 1190.8356492733028 52.46901256048684 L 1191.050127992054 52.516160332709674 L 1191.263553038471 52.564275292735616 L 1191.4759030702269 52.613352629108746 L 1191.6871568524955 52.663387434136325 L 1191.8972932600748 52.71437470437956 L 1192.106291279499 52.7663093411539 L 1192.31413001114 52.819186151038956 L 1192.5207886712983 52.8729998463978 L 1192.72624659428 52.92774504590574 L 1192.930483234464 52.983416275088445 L 1193.1334781683563 53.040007966869396 L 1193.335211096633 53.09751446212657 L 1193.535661846169 53.15593001025836 L 1193.7348103720567 53.21524876975863 L 1193.9326367596093 53.27546480880087 L 1194.129121226353 53.33657210583136 L 1194.3242441240045 53.3985645501713 L 1194.5179859404373 53.461435942627936 L 1194.7103273016307 53.52517999611441 L 1194.9012489736092 53.58979033627848 L 1195.0907318643644 53.655260502139996 L 1195.2787570257653 53.721583946736914 L 1195.4653056554523 53.78875403778004 L 1195.6503590987181 53.85676405831625 L 1195.8338988503724 53.92560720740017 L 1196.015906556593 53.995276600774254 L 1196.196364016761 54.065765271557225 L 1196.3752531852808 54.13706617094075 L 1196.5525561733848 54.2091721688943 L 1196.7282552509214 54.28207605487816 L 1196.9023328481298 54.35577053856451 L 1197.074771557395 54.43024825056637 L 1197.24555413499 54.50550174317461 L 1197.4146635027994 54.581523491102686 L 1197.582082750027 54.658305892239156 L 1197.7477951348878 54.73584126840789 L 1197.9117840862816 54.81412186613588 L 1198.0740332054495 54.89313985742859 L 1198.2345262676151 54.97288734055273 L 1198.3932472236058 55.05335634082646 L 1198.5501802014585 55.1345388114168 L 1198.705309508006 55.21642663414435 L 1198.8586196304466 55.29901162029506 L 1199.0100952378964 55.38228551143916 L 1199.1597211829205 55.46623998025691 L 1199.3074825030494 55.55086663137139 L 1199.4533644222738 55.63615700218803 L 1199.5973523525238 55.722102563740805 L 1199.739431895126 55.80869472154519 L 1199.8795888422446 55.89592481645755 L 1200.0178091783018 55.98378412554111 L 1200.1540790813792 56.07226386293816 L 1200.2883849246 56.1613551807487 L 1200.4207132774918 56.251049169915184 L 1200.5510509073295 56.34133686111345 L 1200.6793847804588 56.4322092256496 L 1200.8057020635995 56.52365717636293 L 1200.9299901251281 56.615671568534566 L 1201.0522365363427 56.70824320080196 L 1201.1724290727034 56.80136281607904 L 1201.2905557150568 56.89502110248188 L 1201.4066046508376 56.98920869425987 L 1201.5205642752485 57.083916172732344 L 1201.632423192422 57.17913406723036 L 1201.74217021656 57.27485285604382 L 1201.849794373051 57.37106296737362 L 1201.9552848995695 57.467754780288786 L 1202.0586312471507 57.56491862568861 L 1202.1598230812456 57.662544787269525 L 1202.2588502827555 57.76062350249672 L 1202.3557029490426 57.859144963580405 L 1202.450371394921 57.95809931845658 L 1202.5428461536249 58.05747667177222 L 1202.6331179777555 58.15726708587479 L 1202.7211778402059 58.257460581806065 L 1202.807016935063 58.358047140299924 L 1202.8906266784888 58.459016702784346 L 1202.9719987095789 58.56035917238722 L 1203.0511248911978 58.66206441494605 L 1203.1279973107933 58.764122260021324 L 1203.2026082811874 58.866522501913586 L 1203.2749503413454 58.96925490068398 L 1203.3450162571216 59.072309183178234 L 1203.4127990219827 59.17567504405398 L 1203.4782918577087 59.279342146811274 L 1203.5414882150706 59.38330012482622 L 1203.6023817744851 59.48753858238766 L 1203.6609664466478 59.59204709573668 L 1203.7172363731393 59.69681521410906 L 1203.7711859270146 59.80183246078026 L 1203.8228097133626 59.907088334113126 L 1203.8721025698485 60.012572308608036 L 1203.919059567227 60.11827383595545 L 1203.9636760098379 60.22418234609071 L 1204.005947436074 60.33028724825106 L 1204.0458696188277 60.43657793203471 L 1204.0834385659143 60.54304376846186 L 1204.1186505204705 60.64967411103757 L 1204.1515019613298 60.75645829681646 L 1204.1819896033755 60.86338564746893 L 1204.2101103978694 60.97044547034902 L 1204.2358615327548 61.07762705956367 L 1204.2592404329398 61.184919697043256 L 1204.2802447605543 61.29231265361346 L 1204.2988724151824 61.399795190068104 L 1204.3151215340747 61.50735655824312 L 1204.3289904923327 61.614986002091314 L 1204.3404779030718 61.72267275875801 L 1204.349582617561 61.830406059657264 L 1204.3563037253361 61.93817513154877 L 1204.3606405542923 62.04596919761514 L 1204.3625926707498 62.15377747853961 M 1204.3627136608059 96.4920458931 L 1204.3615212009022 96.59985643801662 L 1204.3579439404361 96.70765620196859 L 1204.3519822371306 96.81543440506935 L 1204.3436366871515 96.9231802695884 L 1204.3329081250463 97.03088302102908 L 1204.3197976236625 97.138531889206 L 1204.304306494039 97.24611610932205 L 1204.2864362852765 97.35362492304485 L 1204.2661887843806 97.46104757958265 L 1204.2435660160843 97.5683733367593 L 1204.218570242646 97.67559146208852 L 1204.191203963622 97.78269123384712 L 1204.1614699156173 97.88966194214719 L 1204.1293710720122 97.99649289000702 L 1204.094910642664 98.10317339442086 L 1204.0580920735872 98.20969278742717 L 1204.018919046608 98.31604041717543 L 1203.9773954789962 98.42220564899125 L 1203.9335255230742 98.52817786643996 L 1203.887313565801 98.6339464723881 L 1203.8387642283335 98.73950089006323 L 1203.7878823655656 98.84483056411152 L 1203.7346730656404 98.94992496165337 L 1203.6791416494443 99.05477357333659 L 1203.6212936700724 99.15936591438738 L 1203.5611349122742 99.2636915256588 L 1203.4986713918754 99.36773997467667 L 1203.4339093551764 99.47150085668278 L 1203.3668552783263 99.5749637956754 L 1203.2975158666773 99.67811844544686 L 1203.2258980541128 99.78095449061813 L 1203.1520090023541 99.8834616476704 L 1203.075856100245 99.98562966597338 L 1202.9974469630122 100.08744832881038 L 1202.9167894315042 100.18890745439998 L 1202.8338915714066 100.28999689691415 L 1202.7487616724368 100.39070654749288 L 1202.6614082475135 100.49102633525506 L 1202.5718400319063 100.59094622830548 L 1202.480065982362 100.69045623473812 L 1202.3860952762097 100.78954640363527 L 1202.2899373104412 100.8882068260626 L 1202.191601700773 100.9864276360601 L 1202.0910982806843 101.0841990116286 L 1201.988437100433 101.18151117571202 L 1201.883628426052 101.27835439717506 L 1201.7766827383211 101.37471899177628 L 1201.6676107317203 101.4705953231365 L 1201.556423313359 101.56597380370249 L 1201.4431316018863 101.6608448957057 L 1201.3277469263794 101.75519911211595 L 1201.2102808252093 101.84902701759025 L 1201.0907450448885 101.94231922941623 L 1200.9691515388952 102.03506641845047 L 1200.8455124664788 102.12725931005133 L 1200.7198401914434 102.2188886850065 L 1200.5921472809118 102.30994538045483 L 1200.462446504069 102.40042029080266 L 1200.330750830884 102.49030436863434 L 1200.1970734308147 102.579588625617 L 1200.0614276714898 102.66826413339936 L 1199.923827117372 102.75632202450451 L 1199.784285528402 102.84375349321674 L 1199.6428168586228 102.93054979646202 L 1199.499435254783 103.01670225468237 L 1199.3541550549237 103.10220225270375 L 1199.206990786944 103.18704124059762 L 1199.0579571671478 103.27121073453588 L 1198.907069098773 103.3547023176393 L 1198.7543416705007 103.4375076408191 L 1198.5997901549463 103.51961842361202 L 1198.4434300071327 103.60102645500817 L 1198.2852768629446 103.68172359427226 L 1198.1253465375644 103.7617017717576 L 1197.963655023891 103.84095298971312 L 1197.8002184909417 103.91946932308304 L 1197.6350532822332 103.99724292029944 L 1197.468175914149 104.07426600406745 L 1197.2996030742866 104.15053087214287 L 1197.1293516197893 104.22602989810241 L 1196.9574385756612 104.30075553210642 L 1196.7838811330632 104.37470030165377 L 1196.6086966475948 104.44785681232914 L 1196.4319026375588 104.52021774854238 L 1196.2535167822086 104.59177587426021 L 1196.0735569199815 104.66252403372968 L 1195.8920410467133 104.73245515219378 L 1195.7089873138405 104.80156223659897 L 1195.5244140265834 104.86983837629438 L 1195.3383396421173 104.93727674372295 L 1195.1507827677253 105.0038705951041 L 1194.9617621589387 105.06961327110824 L 1194.7712967176608 105.13449819752252 L 1194.579405490277 105.19851888590837 L 1194.3861076657502 105.26166893425032 L 1194.1914225737016 105.32394202759615 L 1193.9953696824784 105.38533193868841 L 1193.7979685972064 105.44583252858716 L 1193.5992390578292 105.50543774728384 L 1193.3992009371354 105.56414163430621 L 1193.1978742387705 105.62193831931454 L 1192.9952790952364 105.67882202268845 L 1192.7914357658788 105.73478705610502 L 1192.5863646348603 105.78982782310756 L 1192.3800862091236 105.84393881966523 L 1192.1726211163393 105.89711463472344 L 1191.9639901028436 105.94934995074503 L 1191.754214031564 106.00063954424192 L 1191.543313879933 106.0509782862975 L 1191.33131073779 106.1003611430795 L 1191.1182258052725 106.14878317634341 L 1190.904080390696 106.19623954392625 L 1190.6888959084238 106.2427255002308 L 1190.4726938767246 106.2882363967002 L 1190.2554959156214 106.33276768228268 L 1190.0373237447293 106.37631490388682 L 1189.8181991810839 106.41887370682676 L 1189.5981441369586 106.46043983525765 L 1189.3771806176744 106.50100913260128 L 1189.1553307193994 106.54057754196174 L 1188.9326166269384 106.57914110653107 L 1188.709060611515 106.61669596998493 L 1188.4846850285444 106.65323837686829 L 1188.259512315398 106.6887646729709 L 1188.0335649891597 106.72327130569276 L 1187.8068656443736 106.75675482439937 L 1187.579436950785 106.78921188076673 L 1187.3513016510744 106.82063922911627 L 1187.122482558581 106.85103372673933 L 1186.8930025550237 106.8803923342115 L 1186.6628845882117 106.90871211569649 L 1186.4321516697496 106.93599023923973 L 1186.2008268727373 106.96222397705162 L 1185.9689333294614 106.98741070578025 L 1185.7364942290833 107.0115479067737 L 1185.5035328153192 107.03463316633201 L 1185.2700723841162 107.05666417594847 L 1185.0361362813233 107.07763873254045 L 1184.8017479003554 107.09755473866979 L 1184.5669306798554 107.11641020275246 L 1184.3317081013497 107.13420323925777 L 1184.0961036869 107.1509320688969 L 1183.8601409967519 107.16659501880085 L 1183.623843626977 107.18119052268763 L 1183.387235207116 107.19471712101905 L 1183.1503393978135 107.20717346114655 L 1182.913179888453 107.21855829744648 L 1182.6757803947878 107.22887049144471 L 1182.4381646565694 107.23810901193042 L 1182.2003564351737 107.24627293505928 L 1181.9623795112248 107.25336144444577 L 1181.7242576822164 107.25937383124486 L 1181.486014760133 107.26430949422287 L 1181.2476745690687 107.26816793981763 L 1181.0092609428436 107.27094878218779 L 1180.770797722622 107.27265174325143 L 1180.5323087545269 107.27327665271386 L 1180.2938178872564 107.27282344808465 L 1180.0553489696986 107.27129217468391 L 1179.8169258485464 107.26868298563768 L 1179.5785723659133 107.2649961418627 L 1179.340312356949 107.26023201204026 L 1179.1021696474556 107.2543910725794 L 1178.8641680515059 107.24747390756917 L 1178.626331369061 107.23948120872033 L 1178.3886833835911 107.23041377529609 L 1178.1512478596967 107.22027251403225 L 1177.914048540732 107.20905843904646 L 1177.6771091464316 107.1967726717369 L 1177.4404533705372 107.18341644067004 L 1177.2041048784295 107.16899108145788 L 1176.9680873047605 107.15349803662431 L 1176.7324242510908 107.1369388554609 L 1176.4971392835298 107.11931519387196 L 1176.2622559303777 107.10062881420897 L 1176.0277976797745 107.08088158509435 L 1175.7937879773494 107.0600754812345 L 1175.5602502238783 107.03821258322252 L 1175.3272077729412 107.01529507732995 L 1175.0946839285896 106.99132525528832 L 1174.8627019430137 106.96630551405984 L 1174.631285014219 106.94023835559778 L 1174.4004562837056 106.91312638659626 L 1174.170238834154 106.88497231822961 L 1173.9406556871174 106.85577896588119 L 1173.7117298007192 106.8255492488619 L 1173.4834840673573 106.79428619011826 L 1173.2559413114145 106.76199291593008 L 1173.0291242869773 106.72867265559789 L 1172.8030556755587 106.69432874111995 L 1172.5777580838317 106.65896460685907 L 1172.3532540413678 106.62258378919921 L 1172.129565998384 106.58518992619184 L 1171.906716323498 106.5467867571921 L 1171.6847273014919 106.50737812248485 L 1171.4636211310826 106.46696796290075 L 1171.2434199227034 106.42556031942208 L 1171.024145696291 106.38315933277867 L 1170.8058203790858 106.33976924303387 L 1170.5884658034377 106.29539438916049 L 1170.3721037046225 106.25003920860692 L 1170.1567557186702 106.20370823685344 L 1169.9424433801998 106.15640610695861 L 1169.7291881202668 106.108137549096 L 1169.5170112642193 106.05890739008117 L 1169.305934029566 106.00872055288902 L 1169.0959775238548 105.9575820561614 L 1168.8871627425608 105.90549701370541 L 1168.6795105669885 105.85247063398188 L 1168.4730417621822 105.79850821958458 L 1168.2677769748507 105.74361516670999 L 1168.063736731301 105.68779696461766 L 1167.8609414353882 105.63105919508126 L 1167.6594113664726 105.5734075318305 L 1167.4591666773927 105.51484773998365 L 1167.2602273924513 105.45538567547108 L 1167.0626134054105 105.3950272844497 L 1166.8663444775045 105.33377860270829 L 1166.6714402354628 105.27164575506403 L 1166.4779201695467 105.20863495474987 L 1166.285803631602 105.14475250279335 L 1166.0951098331223 105.08000478738643 L 1165.9058578433282 105.01439828324668 L 1165.7180665872613 104.94793955096986 L 1165.5317548438907 104.8806352363738 L 1165.3469412442353 104.8124920698339 L 1165.1636442695012 104.74351686560999 L 1164.981882249233 104.67371652116503 L 1164.8016733594814 104.6030980164753 L 1164.623035620985 104.53166841333243 L 1164.4459868973693 104.4594348546372 L 1164.2705448933584 104.38640456368528 L 1164.096727153007 104.31258484344491 L 1163.924551057944 104.2379830758266 L 1163.7540338256358 104.16260672094495 L 1163.5851925076631 104.08646331637262 L 1163.4180439880172 104.00956047638662 L 1163.2526049814107 103.93190589120688 L 1163.0888920316067 103.85350732622719 L 1162.9269215097634 103.77437262123871 L 1162.766709612798 103.694509689646 L 1162.608272361767 103.61392651767568 L 1162.4516256002632 103.53263116357778 L 1162.2967849928323 103.45063175681996 L 1162.143766023406 103.36793649727457 L 1161.9925839937537 103.28455365439865 L 1161.8432540219524 103.20049156640701 L 1161.6957910408748 103.1157586394384 L 1161.5502097966964 103.03036334671489 L 1161.4065248474199 102.94431422769459 L 1161.2647505614207 102.85761988721772 L 1161.1249011160091 102.77028899464605 L 1160.9869904960135 102.68233028299609 L 1160.8510324923805 102.5937525480657 L 1160.7170407007975 102.50456464755453 L 1160.5850285203317 102.41477550017834 L 1160.4550091520914 102.32439408477703 L 1160.326995597905 102.23342943941684 L 1160.201000659021 102.14189066048647 L 1160.0770369348286 102.04978690178756 L 1159.955116821597 101.95712737361922 L 1159.8352525112355 101.86392134185704 L 1159.7174559900755 101.77017812702654 L 1159.601739037671 101.67590710337106 L 1159.488113225621 101.58111769791444 L 1159.3765899164114 101.48581938951821 L 1159.2671802622808 101.39002170793381 L 1159.1598952041031 101.29373423284954 L 1159.0547454702948 101.19696659293271 L 1158.9517415757418 101.09972846486664 L 1158.8508938207476 101.00202957238312 L 1158.7522122900034 100.90387968528998 L 1158.6557068515806 100.80528861849413 L 1158.561387155942 100.70626623102011 L 1158.469262634979 100.60682242502413 L 1158.3793425010667 100.50696714480392 L 1158.2916357461438 100.40671037580431 L 1158.2061511408126 100.30606214361863 L 1158.1228972334623 100.20503251298624 L 1158.0418823494144 100.103631586786 L 1157.9631145900896 100.00186950502604 L 1157.8866018321983 99.89975644382972 L 1157.8123517269526 99.79730261441809 L 1157.7403716993008 99.69451826208869 L 1157.6706689471862 99.59141366519111 L 1157.6032504408256 99.48799913409913 L 1157.5381229220136 99.38428501017967 L 1157.4752929034478 99.28028166475868 L 1157.4147666680776 99.17599949808405 L 1157.3565502684762 99.07144893828554 L 1157.3006495262348 98.96664044033201 L 1157.2470700313813 98.86158448498593 L 1157.1958171418207 98.75629157775525 L 1157.1468959827987 98.65077224784297 L 1157.100311446391 98.54503704709414 L 1157.056068191012 98.43909654894075 L 1157.0141706409506 98.33296134734431 L 1156.9746229859268 98.22664205573652 L 1156.9374291806732 98.12014930595798 L 1156.9025929445393 98.01349374719489 L 1156.8701177611197 97.90668604491427 L 1156.8400068779056 97.79973687979731 L 1156.8122633059604 97.69265694667143 L 1156.786889819618 97.58545695344071 L 1156.763888956206 97.47814762001512 L 1156.7432630157916 97.37073967723859 L 1156.7250140609515 97.26324386581588 L 1156.709143916566 97.15567093523856 L 1156.6956541696366 97.04803164271006 L 1156.6845461691264 96.94033675206991 L 1156.6758210258263 96.83259703271744 L 1156.6694796122433 96.7248232585348 L 1156.6655225625136 96.6170262068096 L 1156.663950272339 96.50921665715717" stroke-miterlimit="10" stroke-width="2.7769845610000004" stroke-dasharray=""/></g><g><text fill="black" stroke="none" font-family="sans-serif" font-size="11pt" font-style="normal" font-weight="normal" text-decoration="normal" x="1149.1353718965167" y="124.80095321200001" text-anchor="start" dominant-baseline="alphabetic" xml:space="preserve">Database</text></g></g><g><path fill="white" stroke="black" paint-order="fill stroke markers" d=" M 360.39660844397787 183.607685092 L 376.73181174397786 183.607685092 L 376.73181174397786 877.8538253419998 L 360.39660844397787 877.8538253419998 L 360.39660844397787 183.607685092" stroke-miterlimit="10" stroke-width="1.3612669416666667" stroke-dasharray=""/><path fill="white" stroke="black" paint-order="fill stroke markers" d=" M 703.8570511429361 229.346254332 L 720.1922544429362 229.346254332 L 720.1922544429362 791.2772478519998 L 703.8570511429361 791.2772478519998 L 703.8570511429361 229.346254332" stroke-miterlimit="10" stroke-width="1.3612669416666667" stroke-dasharray=""/><path fill="white" stroke="black" paint-order="fill stroke markers" d=" M 942.185183992871 275.084823572 L 958.5203872928711 275.084823572 L 958.5203872928711 412.300531292 L 942.185183992871 412.300531292 L 942.185183992871 275.084823572" stroke-miterlimit="10" stroke-width="1.3612669416666667" stroke-dasharray=""/><path fill="white" stroke="black" paint-order="fill stroke markers" d=" M 1172.3457151928058 320.823392812 L 1188.6809184928059 320.823392812 L 1188.6809184928059 366.561962052 L 1172.3457151928058 366.561962052 L 1172.3457151928058 320.823392812" stroke-miterlimit="10" stroke-width="1.3612669416666667" stroke-dasharray=""/><path fill="white" stroke="black" paint-order="fill stroke markers" d=" M 712.0246527929362 479.27486482200004 L 728.3598560929363 479.27486482200004 L 728.3598560929363 525.013434062 L 712.0246527929362 525.013434062 L 712.0246527929362 479.27486482200004" stroke-miterlimit="10" stroke-width="1.3612669416666667" stroke-dasharray=""/><path fill="white" stroke="black" paint-order="fill stroke markers" d=" M 942.185183992871 591.987767592 L 958.5203872928711 591.987767592 L 958.5203872928711 729.2034753119998 L 942.185183992871 729.2034753119998 L 942.185183992871 591.987767592" stroke-miterlimit="10" stroke-width="1.3612669416666667" stroke-dasharray=""/><path fill="white" stroke="black" paint-order="fill stroke markers" d=" M 1172.3457151928058 637.7263368319999 L 1188.6809184928059 637.7263368319999 L 1188.6809184928059 683.4649060719998 L 1172.3457151928058 683.4649060719998 L 1172.3457151928058 637.7263368319999" stroke-miterlimit="10" stroke-width="1.3612669416666667" stroke-dasharray=""/><g><g><rect fill="white" stroke="none" x="86.83901525633463" y="162.371920802" width="254.22760261597656" height="21.23576429"/></g><text fill="black" stroke="none" font-family="sans-serif" font-size="11pt" font-style="normal" font-weight="normal" text-decoration="normal" x="89.28929575133463" y="177.07360377199998" text-anchor="start" dominant-baseline="alphabetic" xml:space="preserve">Click to Prepare New Semester button</text></g><g><path fill="none" stroke="black" paint-order="fill stroke markers" d=" M 67.50902468466796 183.607685092 L 346.9472910603112 183.607685092" stroke-miterlimit="10" stroke-width="1.3612669416666667" stroke-dasharray=""/><g transform="translate(360.39660844397787,183.607685092) translate(-360.39660844397787,-183.607685092)"><path fill="black" stroke="none" paint-order="stroke fill markers" d=" M 346.7839390273112 176.80135038366666 L 360.39660844397787 183.607685092 L 346.7839390273112 190.41401980033334 Z"/></g></g><g><g><rect fill="white" stroke="none" x="438.4240001916211" y="208.110490042" width="203.74086250367188" height="21.23576429"/></g><text fill="black" stroke="none" font-family="sans-serif" font-size="11pt" font-style="normal" font-weight="normal" text-decoration="normal" x="440.8742806866211" y="222.812173012" text-anchor="start" dominant-baseline="alphabetic" xml:space="preserve">GET: /api/group/prepare-group</text></g><g><path fill="none" stroke="black" paint-order="fill stroke markers" d=" M 376.73181174397786 229.346254332 L 690.4077337592695 229.346254332" stroke-miterlimit="10" stroke-width="1.3612669416666667" stroke-dasharray=""/><g transform="translate(703.8570511429361,229.346254332) translate(-703.8570511429361,-229.346254332)"><path fill="black" stroke="none" paint-order="stroke fill markers" d=" M 690.2443817262695 222.53991962366666 L 703.8570511429361 229.346254332 L 690.2443817262695 236.15258904033334 Z"/></g></g><g><g><rect fill="white" stroke="none" x="743.6060458396028" y="253.849059282" width="175.16534675660156" height="21.23576429"/></g><text fill="black" stroke="none" font-family="sans-serif" font-size="11pt" font-style="normal" font-weight="normal" text-decoration="normal" x="746.0563263346028" y="268.550742252" text-anchor="start" dominant-baseline="alphabetic" xml:space="preserve">getSyllabiOfCurrentTerm()</text></g><g><path fill="none" stroke="black" paint-order="fill stroke markers" d=" M 720.1922544429362 275.084823572 L 928.7358666092043 275.084823572" stroke-miterlimit="10" stroke-width="1.3612669416666667" stroke-dasharray=""/><g transform="translate(942.185183992871,275.084823572) translate(-942.185183992871,-275.084823572)"><path fill="black" stroke="none" paint-order="stroke fill markers" d=" M 928.5725145762043 268.27848886366667 L 942.185183992871 275.084823572 L 928.5725145762043 281.89115828033334 Z"/></g></g><g><g><rect fill="white" stroke="none" x="977.8503778645377" y="299.587628522" width="175.16534675660156" height="21.23576429"/></g><text fill="black" stroke="none" font-family="sans-serif" font-size="11pt" font-style="normal" font-weight="normal" text-decoration="normal" x="980.3006583595377" y="314.28931149199997" text-anchor="start" dominant-baseline="alphabetic" xml:space="preserve">getSyllabiOfCurrentTerm()</text></g><g><path fill="none" stroke="black" paint-order="fill stroke markers" d=" M 958.5203872928711 320.823392812 L 1158.896397809139 320.823392812" stroke-miterlimit="10" stroke-width="1.3612669416666667" stroke-dasharray=""/><g transform="translate(1172.3457151928058,320.823392812) translate(-1172.3457151928058,-320.823392812)"><path fill="black" stroke="none" paint-order="stroke fill markers" d=" M 1158.733045776139 314.01705810366667 L 1172.3457151928058 320.823392812 L 1158.733045776139 327.62972752033335 Z"/></g></g><g><g><rect fill="white" stroke="none" x="1024.2820108601431" y="345.326197762" width="82.30208076539063" height="21.23576429"/></g><text fill="black" stroke="none" font-family="sans-serif" font-size="11pt" font-style="normal" font-weight="normal" text-decoration="normal" x="1026.7322913551432" y="360.02788073199997" text-anchor="start" dominant-baseline="alphabetic" xml:space="preserve">Syllabus list</text></g><g><path fill="none" stroke="black" paint-order="fill stroke markers" d=" M 1172.3457151928058 366.561962052 L 971.9697046765377 366.561962052" stroke-miterlimit="10" stroke-width="1.3612669416666667" stroke-dasharray="6.53408132"/><g transform="translate(958.5203872928711,366.561962052) translate(-958.5203872928711,-366.561962052)"><path fill="black" stroke="none" paint-order="stroke fill markers" d=" M 972.1330567095378 359.7556273436667 L 958.5203872928711 366.561962052 L 972.1330567095378 373.36829676033335 Z"/></g></g><g><g><rect fill="white" stroke="none" x="790.0376788352082" y="391.064767002" width="82.30208076539063" height="21.23576429"/></g><text fill="black" stroke="none" font-family="sans-serif" font-size="11pt" font-style="normal" font-weight="normal" text-decoration="normal" x="792.4879593302082" y="405.766449972" text-anchor="start" dominant-baseline="alphabetic" xml:space="preserve">Syllabus list</text></g><g><path fill="none" stroke="black" paint-order="fill stroke markers" d=" M 942.185183992871 412.300531292 L 733.6415718266029 412.300531292" stroke-miterlimit="10" stroke-width="1.3612669416666667" stroke-dasharray="6.53408132"/><g transform="translate(720.1922544429362,412.300531292) translate(-720.1922544429362,-412.300531292)"><path fill="black" stroke="none" paint-order="stroke fill markers" d=" M 733.8049238596029 405.4941965836667 L 720.1922544429362 412.300531292 L 733.8049238596029 419.10686600033335 Z"/></g></g><g><g><rect fill="white" stroke="none" x="747.6898466646029" y="436.80333624200006" width="150.74159492554688" height="21.23576429"/></g><text fill="black" stroke="none" font-family="sans-serif" font-size="11pt" font-style="normal" font-weight="normal" text-decoration="normal" x="750.1401271596029" y="451.50501921200004" text-anchor="start" dominant-baseline="alphabetic" xml:space="preserve">prepareGroupInTerm()</text></g><g><path fill="none" stroke="black" paint-order="fill stroke markers" d=" M 720.1922544429362 458.039100532 L 793.7006692929361 458.039100532 L 793.7006692929361 479.27486482200004 L 741.8091734766028 479.27486482200004" stroke-miterlimit="10" stroke-width="1.3612669416666667" stroke-dasharray=""/><g transform="translate(728.3598560929362,479.27486482200004) translate(-728.3598560929362,-479.27486482200004)"><path fill="black" stroke="none" paint-order="stroke fill markers" d=" M 741.9725255096029 472.4685301136667 L 728.3598560929362 479.27486482200004 L 741.9725255096029 486.0811995303334 Z"/></g></g><g><g><rect fill="white" stroke="none" x="747.6898466646029" y="503.777669772" width="67.63496650757813" height="21.23576429"/></g><text fill="black" stroke="none" font-family="sans-serif" font-size="11pt" font-style="normal" font-weight="normal" text-decoration="normal" x="750.1401271596029" y="518.4793527420001" text-anchor="start" dominant-baseline="alphabetic" xml:space="preserve">Group list</text></g><g><path fill="none" stroke="black" paint-order="fill stroke markers" d=" M 728.3598560929362 525.013434062 L 793.7006692929361 525.013434062 L 793.7006692929361 546.249198352 L 733.6415718266028 546.249198352" stroke-miterlimit="10" stroke-width="1.3612669416666667" stroke-dasharray="6.53408132"/><g transform="translate(720.1922544429361,546.249198352) translate(-720.1922544429361,-546.249198352)"><path fill="black" stroke="none" paint-order="stroke fill markers" d=" M 733.8049238596028 539.4428636436667 L 720.1922544429361 546.249198352 L 733.8049238596028 553.0555330603333 Z"/></g></g><g><g><rect fill="white" stroke="none" x="768.0333834860871" y="570.7520033019999" width="126.31067146363281" height="21.23576429"/></g><text fill="black" stroke="none" font-family="sans-serif" font-size="11pt" font-style="normal" font-weight="normal" text-decoration="normal" x="770.4836639810871" y="585.4536862719999" text-anchor="start" dominant-baseline="alphabetic" xml:space="preserve">save(List&lt;Group&gt;)</text></g><g><path fill="none" stroke="black" paint-order="fill stroke markers" d=" M 720.1922544429362 591.987767592 L 928.7358666092043 591.987767592" stroke-miterlimit="10" stroke-width="1.3612669416666667" stroke-dasharray=""/><g transform="translate(942.185183992871,591.987767592) translate(-942.185183992871,-591.987767592)"><path fill="black" stroke="none" paint-order="stroke fill markers" d=" M 928.5725145762043 585.1814328836666 L 942.185183992871 591.987767592 L 928.5725145762043 598.7941023003333 Z"/></g></g><g><g><rect fill="white" stroke="none" x="1023.8704126545767" y="616.4905725419999" width="83.12527717652344" height="21.23576429"/></g><text fill="black" stroke="none" font-family="sans-serif" font-size="11pt" font-style="normal" font-weight="normal" text-decoration="normal" x="1026.3206931495768" y="631.1922555119999" text-anchor="start" dominant-baseline="alphabetic" xml:space="preserve">save(group)</text></g><g><path fill="none" stroke="black" paint-order="fill stroke markers" d=" M 958.5203872928711 637.7263368319999 L 1158.896397809139 637.7263368319999" stroke-miterlimit="10" stroke-width="1.3612669416666667" stroke-dasharray=""/><g transform="translate(1172.3457151928058,637.7263368319999) translate(-1172.3457151928058,-637.7263368319999)"><path fill="black" stroke="none" paint-order="stroke fill markers" d=" M 1158.733045776139 630.9200021236666 L 1172.3457151928058 637.7263368319999 L 1158.733045776139 644.5326715403332 Z"/></g></g><g><g><rect fill="white" stroke="none" x="1031.6155679890494" y="662.2291417819998" width="67.63496650757813" height="21.23576429"/></g><text fill="black" stroke="none" font-family="sans-serif" font-size="11pt" font-style="normal" font-weight="normal" text-decoration="normal" x="1034.0658484840494" y="676.9308247519998" text-anchor="start" dominant-baseline="alphabetic" xml:space="preserve">Group list</text></g><g><path fill="none" stroke="black" paint-order="fill stroke markers" d=" M 1172.3457151928058 683.4649060719998 L 971.9697046765377 683.4649060719998" stroke-miterlimit="10" stroke-width="1.3612669416666667" stroke-dasharray="6.53408132"/><g transform="translate(958.5203872928711,683.4649060719998) translate(-958.5203872928711,-683.4649060719998)"><path fill="black" stroke="none" paint-order="stroke fill markers" d=" M 972.1330567095378 676.6585713636665 L 958.5203872928711 683.4649060719998 L 972.1330567095378 690.2712407803332 Z"/></g></g><g><g><rect fill="white" stroke="none" x="797.3712359641145" y="707.9677110219998" width="67.63496650757813" height="21.23576429"/></g><text fill="black" stroke="none" font-family="sans-serif" font-size="11pt" font-style="normal" font-weight="normal" text-decoration="normal" x="799.8215164591145" y="722.6693939919998" text-anchor="start" dominant-baseline="alphabetic" xml:space="preserve">Group list</text></g><g><path fill="none" stroke="black" paint-order="fill stroke markers" d=" M 942.185183992871 729.2034753119998 L 733.6415718266029 729.2034753119998" stroke-miterlimit="10" stroke-width="1.3612669416666667" stroke-dasharray="6.53408132"/><g transform="translate(720.1922544429362,729.2034753119998) translate(-720.1922544429362,-729.2034753119998)"><path fill="black" stroke="none" paint-order="stroke fill markers" d=" M 733.8049238596029 722.3971406036665 L 720.1922544429362 729.2034753119998 L 733.8049238596029 736.0098100203331 Z"/></g></g><g><g><rect fill="white" stroke="none" x="396.0618023156445" y="753.7062802619998" width="54.61422981324219" height="21.23576429"/></g><g><rect fill="white" stroke="none" x="396.0618023156445" y="770.0414835619998" width="288.465258255625" height="21.23576429"/></g><text fill="green" stroke="none" font-family="sans-serif" font-size="11pt" font-style="normal" font-weight="normal" text-decoration="normal" x="398.51208281064453" y="768.4079632319998" text-anchor="start" dominant-baseline="alphabetic" xml:space="preserve">200 OK</text><text fill="green" stroke="none" font-family="sans-serif" font-size="11pt" font-style="normal" font-weight="normal" text-decoration="normal" x="398.51208281064453" y="784.7431665319998" text-anchor="start" dominant-baseline="alphabetic" xml:space="preserve">Response body: Group list in new semester</text></g><g><path fill="none" stroke="black" paint-order="fill stroke markers" d=" M 703.8570511429361 791.2772478519998 L 390.1811291276445 791.2772478519998" stroke-miterlimit="10" stroke-width="1.3612669416666667" stroke-dasharray="6.53408132"/><g transform="translate(376.73181174397786,791.2772478519998) translate(-376.73181174397786,-791.2772478519998)"><path fill="black" stroke="none" paint-order="stroke fill markers" d=" M 390.34448116064453 784.4709131436665 L 376.73181174397786 791.2772478519998 L 390.34448116064453 798.0835825603332 Z"/></g></g><g><g><rect fill="white" stroke="none" x="109.64860845701823" y="815.7800528019998" width="208.60841621460938" height="21.23576429"/></g><text fill="black" stroke="none" font-family="sans-serif" font-size="11pt" font-style="normal" font-weight="normal" text-decoration="normal" x="112.09888895201823" y="830.4817357719998" text-anchor="start" dominant-baseline="alphabetic" xml:space="preserve">Display the list of group Course</text></g><g><path fill="none" stroke="black" paint-order="fill stroke markers" d=" M 360.39660844397787 837.0158170919998 L 80.95834206833463 837.0158170919998" stroke-miterlimit="10" stroke-width="1.3612669416666667" stroke-dasharray="6.53408132"/><g transform="translate(67.50902468466796,837.0158170919998) translate(-67.50902468466796,-837.0158170919998)"><path fill="black" stroke="none" paint-order="stroke fill markers" d=" M 81.12169410133463 830.2094823836665 L 67.50902468466796 837.0158170919998 L 81.12169410133463 843.8221518003331 Z"/></g></g></g></g></svg>