<svg version="1.1" xmlns="http://www.w3.org/2000/svg" xmlns:xlink="http://www.w3.org/1999/xlink" width="973" height="1111"><desc>%20title%20Prepare%20new%20semester%20-%20Config%20slots%0A%0Aactor%20%23green%3A0.5%20%22Workspace%20Admin%22%20as%20w%0Aboundary%20%22Workspace%20Admin%20Client%22%20as%20f%0Acontrol%20%22Group%20Controller%22%20as%20gc%0Aparticipant%20%22Group%20Service%22%20as%20gs%0Adatabase%20%23blue%3A1%20%22Database%22%20as%20db%0A%0Aactivate%20f%0A%0Aw-%3Ef%3AClick%20Next%20button%0Aw-%3Ef%3AConfig%20slot%20for%20groups%0Af-%3Egc%3APOST%3A%20%2Fapi%2Fgroup%2Fslot%2Fbulk-create%0Aactivate%20gc%0Agc-%3Egc%3AvalidateInput()%0Aactivate%20gc%0Agc%3C--gc%3Aerror%20message%0Adeactivate%20gc%0A%0Aalt%20If%20error%20message%20is%20not%20empty%0Af%3C--gc%3A%3Ccolor%3A%23red%3E400%20BAD%20REQUEST%5CnResponse%20body%3A%20Error%20message%3C%2Fcolor%3E%0Aw%3C--f%3ADisplay%20error%20message%0Aelse%20Else%0Agc-%3Egc%3AcreateSlotsForGroup()%20%5CnupdateTermState()%0Aactivate%20gc%0A%0Agc-%3Egs%3Asave()%0Aactivate%20gs%0Ags-%3Edb%3Asave()%0Aactivate%20db%0Ags%3C--db%3Atrue%0Adeactivate%20db%0Agc%3C--gs%3Atrue%0Adeactivate%20gs%0A%0Agc%3C--gc%3A%0Adeactivate%20gc%0A%0A%0A%0Af%3C--gc%3A%3Ccolor%3A%23green%3E200%20OK%3C%2Fcolor%3E%0Adeactivate%20gc%0Aw%3C--f%3ADisplay%20Admin%20Home%20page%0Adeactivate%20f%0A%0Aend%20%0A%0A%0Adeactivate%20f%0A</desc><defs/><g><g/><g/><g/><g/><g/><g/><g/><g/><g/><g/><g/><g/><g/><g/><g/><g/><g/><g/><g/><g/><g/><g/><g><rect fill="white" stroke="none" x="0" y="0" width="973" height="1111"/></g><g><text fill="black" stroke="none" font-family="sans-serif" font-size="16.5pt" font-style="normal" font-weight="normal" text-decoration="normal" x="308.8038366103346" y="24.50280495" text-anchor="start" dominant-baseline="alphabetic" xml:space="preserve">Prepare new semester - Config slots</text></g><g/><g><path fill="none" stroke="black" paint-order="fill stroke markers" d=" M 73.50841485 129.701514202 L 73.50841485 1111.4472325319994" stroke-miterlimit="10" stroke-width="1.3612669416666667" stroke-dasharray="12.565541,5.445067766666667"/><path fill="none" stroke="black" paint-order="fill stroke markers" d=" M 298.7941300444661 129.701514202 L 298.7941300444661 1111.4472325319994" stroke-miterlimit="10" stroke-width="1.3612669416666667" stroke-dasharray="12.565541,5.445067766666667"/><path fill="none" stroke="black" paint-order="fill stroke markers" d=" M 573.8079022111979 129.701514202 L 573.8079022111979 1111.4472325319994" stroke-miterlimit="10" stroke-width="1.3612669416666667" stroke-dasharray="12.565541,5.445067766666667"/><path fill="none" stroke="black" paint-order="fill stroke markers" d=" M 778.1654554882161 129.701514202 L 778.1654554882161 1111.4472325319994" stroke-miterlimit="10" stroke-width="1.3612669416666667" stroke-dasharray="12.565541,5.445067766666667"/><path fill="none" stroke="black" paint-order="fill stroke markers" d=" M 891.7451332831693 129.701514202 L 891.7451332831693 1111.4472325319994" stroke-miterlimit="10" stroke-width="1.3612669416666667" stroke-dasharray="12.565541,5.445067766666667"/></g><g><g><path fill="white" stroke="green" paint-order="fill stroke markers" d=" M 82.819480731 60.60360424300001 A 9.311065881 9.311065881 0 1 1 82.81947607546743 60.594293178670846 M 73.50841485 69.91467012400001 L 73.50841485 89.84361815000001 M 61.747068473999995 77.102159576 L 85.26976122599999 77.102159576 M 73.50841485 89.84361815000001 L 61.747068473999995 108.465749912 M 73.50841485 89.84361815000001 L 85.26976122599999 108.465749912" stroke-miterlimit="10" stroke-width="1.3884922805000002" stroke-dasharray=""/></g><g><text fill="black" stroke="none" font-family="sans-serif" font-size="11pt" font-style="normal" font-weight="normal" text-decoration="normal" x="14.166991815332025" y="124.80095321200001" text-anchor="start" dominant-baseline="alphabetic" xml:space="preserve">Workspace Admin</text></g><g><path fill="white" stroke="black" paint-order="fill stroke markers" d=" M 331.2195085949661 82.819480731 A 24.2577769005 24.2577769005 0 1 1 331.2194964660787 82.79522295814245 M 267.7572437744661 57.17321154999999 L 267.7572437744661 108.465749912 M 266.3687514939661 82.819480731 L 282.7039547939661 82.819480731" stroke-miterlimit="10" stroke-width="2.7769845610000004" stroke-dasharray=""/></g><g><text fill="black" stroke="none" font-family="sans-serif" font-size="11pt" font-style="normal" font-weight="normal" text-decoration="normal" x="218.67604990530594" y="124.80095321200001" text-anchor="start" dominant-baseline="alphabetic" xml:space="preserve">Workspace Admin Client</text></g><g><path fill="white" stroke="black" paint-order="fill stroke markers" d=" M 598.0656791116978 82.819480731 A 24.2577769005 24.2577769005 0 1 1 598.0656669828104 82.79522295814245 M 570.5408615511978 58.561703830499994 L 580.3419835311978 50.39410218049999 M 570.5408615511978 58.561703830499994 L 580.3419835311978 66.72930548049999" stroke-miterlimit="10" stroke-width="2.7769845610000004" stroke-dasharray=""/></g><g><text fill="black" stroke="none" font-family="sans-serif" font-size="11pt" font-style="normal" font-weight="normal" text-decoration="normal" x="519.6239575090494" y="124.80095321200001" text-anchor="start" dominant-baseline="alphabetic" xml:space="preserve">Group Controller</text></g><path fill="none" stroke="none"/><g><path fill="white" stroke="black" paint-order="fill stroke markers" d=" M 713.591387593263 85.75981732500001 L 842.7395233831693 85.75981732500001 L 842.7395233831693 129.701514202 L 713.591387593263 129.701514202 L 713.591387593263 85.75981732500001 Z" stroke-miterlimit="10" stroke-width="2.613632528" stroke-dasharray=""/></g><g><text fill="black" stroke="none" font-family="sans-serif" font-size="11pt" font-style="normal" font-weight="normal" text-decoration="normal" x="731.315083173763" y="113.36631090200002" text-anchor="start" dominant-baseline="alphabetic" xml:space="preserve">Group Service</text></g><g><path fill="white" stroke="blue" paint-order="fill stroke markers" d=" M 867.8957364651693 97.684515734 L 867.8957364651693 63.380588804000006 L 915.5945301011692 63.380588804000006 L 915.5945301011692 97.684515734" stroke-miterlimit="10" stroke-width="2.7769845610000004" stroke-dasharray=""/><path fill="white" stroke="blue" paint-order="fill stroke markers" d=" M 915.5945301011692 62.1881189631 L 915.5933376412655 62.29592950801663 L 915.5897603807995 62.403729271968594 L 915.5837986774942 62.51150747506936 L 915.5754531275148 62.619253339588404 L 915.5647245654096 62.72695609102909 L 915.5516140640258 62.834604959206004 L 915.5361229344026 62.94218917932205 L 915.51825272564 63.04969799304486 L 915.4980052247439 63.15712064958265 L 915.4753824564477 63.2644464067593 L 915.4503866830094 63.371664532088516 L 915.4230204039853 63.47876430384712 L 915.3932863559808 63.58573501214718 L 915.3611875123756 63.692565960007016 L 915.3267270830275 63.79924646442086 L 915.2899085139508 63.90576585742718 L 915.2507354869714 64.01211348717543 L 915.2092119193596 64.11827871899126 L 915.1653419634376 64.22425093643996 L 915.1191300061643 64.3300195423881 L 915.070580668697 64.43557396006322 L 915.0196988059289 64.54090363411153 L 914.966489506004 64.64599803165338 L 914.9109580898078 64.75084664333659 L 914.8531101104358 64.85543898438739 L 914.7929513526376 64.95976459565881 L 914.730487832239 65.06381304467668 L 914.6657257955397 65.16757392668278 L 914.5986717186897 65.27103686567541 L 914.5293323070408 65.37419151544687 L 914.4577144944761 65.47702756061814 L 914.3838254427175 65.5795347176704 L 914.3076725406085 65.68170273597339 L 914.2292634033756 65.7835213988104 L 914.1486058718675 65.88498052439998 L 914.0657080117701 65.98606996691414 L 913.9805781128002 66.08677961749288 L 913.8932246878768 66.18709940525505 L 913.8036564722696 66.28701929830548 L 913.7118824227256 66.38652930473813 L 913.6179117165732 66.48561947363528 L 913.5217537508046 66.58427989606261 L 913.4234181411365 66.6825007060601 L 913.3229147210477 66.7802720816286 L 913.2202535407965 66.87758424571203 L 913.1154448664155 66.97442746717506 L 913.0084991786846 67.07079206177627 L 912.8994271720836 67.1666683931365 L 912.7882397537223 67.2620468737025 L 912.6749480422498 67.35691796570569 L 912.5595633667429 67.45127218211596 L 912.4420972655728 67.54510008759026 L 912.3225614852519 67.63839229941624 L 912.2009679792586 67.73113948845047 L 912.0773289068422 67.82333238005134 L 911.9516566318068 67.9149617550065 L 911.8239637212754 68.00601845045483 L 911.6942629444324 68.09649336080267 L 911.5625672712474 68.18637743863435 L 911.4288898711782 68.27566169561702 L 911.2932441118533 68.36433720339936 L 911.1556435577354 68.45239509450451 L 911.0161019687655 68.53982656321674 L 910.8746332989862 68.62662286646201 L 910.7312516951464 68.71277532468237 L 910.5859714952873 68.79827532270376 L 910.4388072273074 68.88311431059763 L 910.2897736075113 68.9672838045359 L 910.1388855391364 69.0507753876393 L 909.986158110864 69.13358071081912 L 909.8316065953097 69.21569149361203 L 909.6752464474963 69.29709952500816 L 909.517093303308 69.37779666427225 L 909.3571629779277 69.45777484175761 L 909.1954714642545 69.53702605971311 L 909.0320349313052 69.61554239308303 L 908.8668697225967 69.69331599029945 L 908.6999923545123 69.77033907406746 L 908.5314195146499 69.84660394214286 L 908.3611680601527 69.92210296810242 L 908.1892550160246 69.99682860210643 L 908.0156975734266 70.07077337165379 L 907.8405130879582 70.14392988232913 L 907.6637190779222 70.21629081854239 L 907.4853332225722 70.28784894426022 L 907.3053733603449 70.35859710372968 L 907.1238574870769 70.42852822219379 L 906.9408037542039 70.49763530659898 L 906.7562304669469 70.5659114462944 L 906.5701560824807 70.63334981372294 L 906.3825992080888 70.69994366510412 L 906.1935785993021 70.76568634110825 L 906.0031131580242 70.83057126752253 L 905.8112219306404 70.89459195590838 L 905.6179241061136 70.95774200425032 L 905.4232390140651 71.02001509759614 L 905.2271861228419 71.08140500868842 L 905.0297850375697 71.14190559858717 L 904.8310554981927 71.20151081728383 L 904.6310173774989 71.26021470430622 L 904.429690679134 71.31801138931453 L 904.2270955355999 71.37489509268845 L 904.0232522062421 71.43086012610503 L 903.8181810752238 71.48590089310757 L 903.6119026494871 71.54001188966522 L 903.4044375567028 71.59318770472345 L 903.195806543207 71.64542302074504 L 902.9860304719276 71.69671261424193 L 902.7751303202966 71.7470513562975 L 902.5631271781535 71.79643421307951 L 902.3500422456359 71.84485624634341 L 902.1358968310595 71.89231261392625 L 901.9207123487872 71.93879857023082 L 901.704510317088 71.9843094667002 L 901.4873123559848 72.02884075228269 L 901.2691401850929 72.07238797388683 L 901.0500156214473 72.11494677682676 L 900.8299605773219 72.15651290525764 L 900.6089970580379 72.19708220260128 L 900.3871471597629 72.23665061196175 L 900.1644330673018 72.27521417653107 L 899.9408770518784 72.31276903998494 L 899.716501468908 72.3493114468683 L 899.4913287557616 72.38483774297092 L 899.2653814295232 72.41934437569277 L 899.038682084737 72.45282789439938 L 898.8112533911486 72.48528495076673 L 898.5831180914378 72.51671229911628 L 898.3542989989445 72.54710679673934 L 898.1248189953872 72.5764654042115 L 897.8947010285751 72.60478518569649 L 897.663968110113 72.63206330923974 L 897.4326433131007 72.65829704705163 L 897.2007497698248 72.68348377578025 L 896.9683106694467 72.70762097677371 L 896.7353492556826 72.73070623633201 L 896.5018888244797 72.75273724594847 L 896.2679527216867 72.77371180254045 L 896.0335643407187 72.79362780866978 L 895.7987471202188 72.81248327275246 L 895.5635245417132 72.83027630925778 L 895.3279201272635 72.84700513889692 L 895.0919574371152 72.86266808880085 L 894.8556600673405 72.87726359268764 L 894.6190516474795 72.89079019101906 L 894.3821558381769 72.90324653114655 L 894.1449963288164 72.91463136744649 L 893.9075968351513 72.9249435614447 L 893.6699810969328 72.93418208193043 L 893.4321728755372 72.94234600505929 L 893.1941959515881 72.94943451444577 L 892.9560741225797 72.95544690124485 L 892.7178312004966 72.96038256422287 L 892.4794910094322 72.96424100981763 L 892.2410773832072 72.9670218521878 L 892.0026141629854 72.96872481325143 L 891.7641251948903 72.96934972271386 L 891.5256343276197 72.96889651808466 L 891.2871654100619 72.96736524468392 L 891.0487422889097 72.96475605563768 L 890.8103888062767 72.96106921186271 L 890.5721287973123 72.95630508204027 L 890.3339860878191 72.9504641425794 L 890.0959844918694 72.94354697756918 L 889.8581478094246 72.93555427872033 L 889.6204998239547 72.9264868452961 L 889.3830643000601 72.91634558403224 L 889.1458649810954 72.90513150904647 L 888.908925586795 72.89284574173689 L 888.6722698109007 72.87948951067006 L 888.4359213187929 72.86506415145789 L 888.1999037451238 72.84957110662431 L 887.9642406914543 72.8330119254609 L 887.7289557238931 72.81538826387197 L 887.4940723707412 72.79670188420899 L 887.2596141201378 72.77695465509434 L 887.025604417713 72.7561485512345 L 886.7920666642416 72.73428565322251 L 886.5590242133047 72.71136814732996 L 886.326500368953 72.68739832528833 L 886.0945183833771 72.66237858405984 L 885.8631014545825 72.63631142559778 L 885.632272724069 72.60919945659627 L 885.4020552745175 72.58104538822961 L 885.1724721274809 72.55185203588118 L 884.9435462410826 72.5216223188619 L 884.7153005077206 72.49035926011825 L 884.487757751778 72.45806598593009 L 884.2609407273407 72.4247457255979 L 884.0348721159222 72.39040181111994 L 883.8095745241952 72.35503767685907 L 883.5850704817311 72.31865685919922 L 883.3613824387472 72.28126299619186 L 883.1385327638613 72.24285982719209 L 882.9165437418552 72.20345119248485 L 882.6954375714462 72.16304103290075 L 882.4752363630668 72.12163338942209 L 882.2559621366546 72.07923240277869 L 882.0376368194494 72.03584231303388 L 881.820282243801 71.99146745916049 L 881.603920144986 71.94611227860693 L 881.3885721590336 71.89978130685344 L 881.1742598205634 71.85247917695861 L 880.9610045606303 71.80421061909601 L 880.7488277045828 71.75498046008119 L 880.5377504699295 71.70479362288901 L 880.3277939642181 71.65365512616141 L 880.1189791829242 71.60157008370541 L 879.9113270073519 71.54854370398188 L 879.7048582025458 71.49458128958457 L 879.4995934152141 71.43968823671 L 879.2955531716647 71.38387003461766 L 879.0927578757517 71.32713226508127 L 878.8912278068359 71.26948060183051 L 878.6909831177562 71.21092080998365 L 878.4920438328146 71.15145874547107 L 878.2944298457738 71.0911003544497 L 878.098160917868 71.0298516727083 L 877.9032566758261 70.96771882506403 L 877.7097366099102 70.90470802474988 L 877.5176200719654 70.84082557279336 L 877.3269262734857 70.77607785738643 L 877.1376742836917 70.71047135324669 L 876.9498830276248 70.64401262096986 L 876.7635712842541 70.5767083063738 L 876.5787576845987 70.50856513983389 L 876.3954607098647 70.43958993560999 L 876.2136986895964 70.36978959116503 L 876.0334897998449 70.29917108647531 L 875.8548520613487 70.22774148333244 L 875.6778033377327 70.1555079246372 L 875.5023613337219 70.08247763368529 L 875.3285435933705 70.00865791344492 L 875.1563674983075 69.9340561458266 L 874.9858502659991 69.85867979094495 L 874.8170089480266 69.78253638637263 L 874.6498604283806 69.70563354638664 L 874.4844214217743 69.62797896120689 L 874.3207084719701 69.54958039622719 L 874.1587379501268 69.47044569123871 L 873.9985260531615 69.39058275964601 L 873.8400888021304 69.30999958767568 L 873.6834420406266 69.22870423357777 L 873.5286014331957 69.14670482681996 L 873.3755824637694 69.06400956727457 L 873.2244004341171 68.98062672439866 L 873.0750704623158 68.89656463640702 L 872.9276074812383 68.8118317094384 L 872.7820262370598 68.72643641671489 L 872.6383412877833 68.6403872976946 L 872.4965670017841 68.55369295721772 L 872.3567175563727 68.46636206464606 L 872.218806936377 68.37840335299609 L 872.0828489327439 68.28982561806569 L 871.9488571411608 68.20063771755453 L 871.8168449606951 68.11084857017835 L 871.6868255924547 68.02046715477704 L 871.5588120382682 67.92950250941684 L 871.4328170993844 67.83796373048648 L 871.308853375192 67.74585997178757 L 871.1869332619603 67.65320044361923 L 871.0670689515989 67.55999441185705 L 870.949272430439 67.46625119702654 L 870.8335554780346 67.37198017337107 L 870.7199296659843 67.27719076791445 L 870.6084063567749 67.18189245951821 L 870.4989967026443 67.08609477793381 L 870.3917116444666 66.98980730284956 L 870.2865619106583 66.89303966293272 L 870.1835580161053 66.79580153486665 L 870.082710261111 66.69810264238313 L 869.9840287303668 66.59995275528999 L 869.8875232919439 66.50136168849414 L 869.7932035963055 66.40233930102012 L 869.7010790753425 66.30289549502413 L 869.6111589414303 66.20304021480393 L 869.5234521865074 66.1027834458043 L 869.437967581176 66.00213521361863 L 869.3547136738258 65.90110558298623 L 869.2736987897778 65.799704656786 L 869.194931030453 65.69794257502603 L 869.1184182725617 65.59582951382973 L 869.0441681673159 65.4933756844181 L 868.9721881396644 65.3905913320887 L 868.9024853875496 65.28748673519112 L 868.8350668811892 65.18407220409914 L 868.7699393623772 65.08035808017966 L 868.7071093438112 64.97635473475869 L 868.6465831084411 64.87207256808405 L 868.5883667088395 64.76752200828555 L 868.5324659665984 64.66271351033203 L 868.4788864717449 64.55765755498592 L 868.4276335821841 64.45236464775525 L 868.3787124231623 64.34684531784296 L 868.3321278867544 64.24111011709415 L 868.2878846313755 64.13516961894075 L 868.2459870813141 64.0290344173443 L 868.2064394262903 63.92271512573653 L 868.1692456210367 63.81622237595798 L 868.1344093849028 63.70956681719489 L 868.1019342014831 63.602759114914264 L 868.0718233182691 63.49580994979732 L 868.0440797463239 63.38873001667144 L 868.0187062599815 63.28153002344071 L 867.9957053965695 63.17422069001512 L 867.9750794561551 63.066812747238586 L 867.9568305013149 62.959316935815885 L 867.9409603569295 62.85174400523857 L 867.92747061 62.74410471271006 L 867.9163626094897 62.636409822069915 L 867.9076374661897 62.52867010271744 L 867.9012960526068 62.4208963285348 L 867.8973390028772 62.313099276809595 L 867.8957667127024 62.20528972715717 L 867.8965793393104 62.09747846044265 L 867.899776801439 61.98967625770286 L 867.9053587793446 61.88189389906824 L 867.9133247148343 61.77414216268484 L 867.923673811321 61.66643182363649 L 867.9364050339038 61.558773652867366 L 867.951517109471 61.4511784161048 L 867.9690085268276 61.34365687278283 L 867.9888775368463 61.236219774966166 L 868.011122152643 61.12887786627507 L 868.0357401497745 61.02164188081096 L 868.0627290664614 60.91452254208302 L 868.0920862038348 60.807530561935856 L 868.1238086262053 60.70067663947832 L 868.1578931613573 60.593971460013606 L 868.1943364008653 60.487425693970756 L 868.233134700436 60.381049995837586 L 868.2742841802717 60.27485500309525 L 868.3177807254588 60.16885133515453 L 868.3636199863788 60.06304959229389 L 868.411797379144 59.95746035459945 L 868.4623080860553 59.852094180906974 L 868.5151470560838 59.746961607746044 L 868.570309005377 59.64207314828636 L 868.6277884177856 59.537439291286454 L 868.6875795454164 59.43307050004484 L 868.7496764092062 59.32897721135367 L 868.8140727995208 59.22516983445505 L 868.8807622767746 59.12165875000019 L 868.9497381720754 59.01845430901127 L 869.0209935878912 58.91556683184637 L 869.0945213987399 58.81300660716748 L 869.1703142519015 58.7107838909116 L 869.2483645681539 58.60890890526517 L 869.3286645425306 58.507391837641855 L 869.411206145101 58.406242839663825 L 869.4959811217738 58.30547202614659 L 869.5829809951217 58.205089474087515 L 869.6721970652301 58.105105221658164 L 869.7636204105662 58.00552926720046 L 869.8572418888717 57.90637156822687 L 869.9530521380767 57.807642040424646 L 870.0510415772363 57.709350556664305 L 870.1512004074882 57.61150694601232 L 870.2535186130327 57.514120992748204 L 870.3579859621345 57.417202435386145 L 870.464592008146 57.320760965701105 L 870.5733260905513 57.224806227759686 L 870.6841773360326 57.12934781695572 L 870.797134659558 57.03439527905074 L 870.9121867654891 56.93995810921942 L 871.0293221487112 56.84604575110002 L 871.1485290957836 56.75266759585011 L 871.269795686111 56.65983298120741 L 871.3931097931354 56.567551190555996 L 871.5184590855489 56.47583145199805 L 871.6458310285266 56.384682937430995 L 871.7752128849804 56.29411476163032 L 871.9065917168325 56.20413598133814 L 872.0399543863091 56.1147555943575 L 872.1752875572545 56.02598253865261 L 872.3125776964644 55.937825691455075 L 872.4518110750391 55.85029386837614 L 872.592973769757 55.763395822525176 L 872.7360516644661 55.677140243634355 L 872.8810304514963 55.591535757189675 L 873.0278956330895 55.50659092356846 L 873.1766325228502 55.42231423718327 L 873.3272262472132 55.33871412563253 L 873.4796617469316 55.25579894885771 L 873.6339237785824 55.1735769983074 L 873.789996916091 55.092056496108135 L 873.9478655522738 55.01124559424221 L 874.1075139003988 54.93115237373246 L 874.2689259957639 54.851784843834196 L 874.4320856972944 54.77315094123426 L 874.5969766891559 54.6952585292574 L 874.7635824823868 54.61811539707989 L 874.9318864165466 54.54172925895067 L 875.1018716613819 54.46610775341989 L 875.2735212185102 54.391258442575094 L 875.4468179231186 54.317188811284986 L 875.6217444456811 54.24390626645098 L 875.7982832936913 54.171418136266475 L 875.9764168134113 54.09973166948409 L 876.1561271916379 54.028854034690774 L 876.3373964574828 53.95879231959093 L 876.5202064841704 53.88955353029769 L 876.7045389908507 53.82114459063227 L 876.8903755444264 53.753572341431656 L 877.077697561397 53.68684353986444 L 877.2664863097169 53.62096485875517 L 877.4567229106688 53.55594288591707 L 877.6483883407509 53.49178412349323 L 877.84146343358 53.42849498730643 L 878.0359288818076 53.366081806217544 L 878.2317652390512 53.304550821492676 L 878.428952921838 53.24390818617902 L 878.6274722115643 53.18415996448957 L 878.8273032564663 53.12531213119671 L 879.028426073606 53.067370571034715 L 879.2308205508697 53.01034107811134 L 879.434466448978 52.95422935532834 L 879.6393434035108 52.89904101381123 L 879.8454309269434 52.84478157234818 L 880.0527084106953 52.79145645683812 L 880.2611551271908 52.73907099974815 L 880.470750231932 52.687630439580346 L 880.681472765583 52.637139920347835 L 880.893301656066 52.58760449106049 L 881.1062157206686 52.53902910521993 L 881.3201936681618 52.49141862032429 L 881.535214100929 52.444777797382365 L 881.7512555171062 52.399111300437596 L 881.9682963127317 52.354423696101605 L 882.186314783907 52.3107194530976 L 882.4052891289666 52.26800294181345 L 882.6251974506583 52.2262784338647 L 882.8460177583336 52.18555010166736 L 883.0677279701453 52.14582201802072 L 883.2903059152571 52.10709815570004 L 883.5137293360601 52.06938238705927 L 883.7379758903983 52.032678483643856 L 883.9630231538032 51.996990115813546 L 884.1888486217359 51.96232085237539 L 884.415429711838 51.928674160226834 L 884.6427437661891 51.89605340400906 L 884.8707680535732 51.8644618457705 L 885.0994797717517 51.833902644640645 L 885.3288560497433 51.80437885651416 L 885.5588739501114 51.775893433745246 L 885.7895104712576 51.74844922485244 L 886.020742549722 51.722048974233765 L 886.2525470624893 51.69669532189228 L 886.4849008293016 51.672390803172085 L 886.7177806149758 51.649137848504814 L 886.9511631317274 51.626938783166544 L 887.1850250414992 51.60579582704531 L 887.419342958295 51.58571109441911 L 887.6540934505185 51.56668659374447 L 887.8892530433161 51.54872422745561 L 888.1247982209245 51.53182579177417 L 888.3607054290221 51.515992976529645 L 888.5969510770849 51.50122736499037 L 888.8335115407447 51.4875304337052 L 889.0703631641525 51.47490355235584 L 889.3074822623431 51.4633479836199 L 889.5448451236045 51.45286488304463 L 889.7824280118483 51.443455298931354 L 890.0202071689836 51.43512017223063 L 890.258158817293 51.4278603364482 L 890.4962591618097 51.42167651756158 L 890.7344843926978 51.41656933394751 L 890.9728106876329 51.41253929632009 L 891.2112142141839 51.40958680767973 L 891.4496711321967 51.407712163272826 L 891.6881575961786 51.40691555056227 L 891.9266497576816 51.40719704920866 L 892.1651237676884 51.40855663106237 L 892.4035557789969 51.41099416016634 L 892.6419219486044 51.414509392769695 L 892.8801984400926 51.419101977352106 L 893.1183614260111 51.42477145465894 L 893.3563870902597 51.431517257747196 L 893.5942516304701 51.43933871204218 L 893.8319312603868 51.44823503540498 L 894.0694022122449 51.45820533821068 L 894.3066407391468 51.4692486234373 L 894.5436231174377 51.48136378676553 L 894.7803256490773 51.49454961668913 L 895.0167246640096 51.50880479463608 L 895.2527965225303 51.524127895100484 L 895.4885176176499 51.54051738578506 L 895.7238643774556 51.5579716277544 L 895.9588132674675 51.57648887559884 L 896.1933407929922 51.59606727760904 L 896.427423501473 51.6167048759611 L 896.6610379848337 51.6383996069124 L 896.8941608818208 51.66114930100791 L 897.1267688803389 51.684951683297186 L 897.3588387197819 51.70980437356183 L 897.5903471933594 51.735704886553535 L 897.8212711504169 51.76265063224257 L 898.0515874987511 51.79063891607683 L 898.2812732069191 51.81966693925126 L 898.5103053065415 51.849731798987726 L 898.7386608945991 51.88083048882531 L 898.9663171357236 51.91295989892094 L 899.1932512644803 51.94611681636038 L 899.4194405876457 51.980297925479526 L 899.644862486476 52.01549980819594 L 899.8694944189689 52.0517189443507 L 900.0933139221186 52.08895171206036 L 900.3162986141612 52.127194388079175 L 900.5384261968131 52.16644314817141 L 900.7596744575017 52.20669406749378 L 900.9800212715847 52.247943120987884 L 901.1994446045646 52.29018618378274 L 901.417922514291 52.33341903160728 L 901.635433153155 52.37763734121275 L 901.8519547702738 52.422836690805035 L 902.0674657136661 52.46901256048684 L 902.2819444324174 52.516160332709674 L 902.4953694788344 52.564275292735616 L 902.7077195105903 52.613352629108746 L 902.918973292859 52.663387434136325 L 903.1291097004382 52.71437470437956 L 903.3381077198623 52.7663093411539 L 903.5459464515035 52.819186151038956 L 903.7526051116618 52.8729998463978 L 903.9580630346435 52.92774504590574 L 904.1622996748274 52.983416275088445 L 904.3652946087198 53.040007966869396 L 904.5670275369963 53.09751446212657 L 904.7674782865324 53.15593001025836 L 904.96662681242 53.21524876975863 L 905.1644531999726 53.27546480880087 L 905.3609376667163 53.33657210583136 L 905.5560605643681 53.3985645501713 L 905.7498023808008 53.461435942627936 L 905.9421437419942 53.52517999611441 L 906.1330654139726 53.58979033627848 L 906.3225483047278 53.655260502139996 L 906.5105734661287 53.721583946736914 L 906.6971220958158 53.78875403778004 L 906.8821755390815 53.85676405831625 L 907.0657152907357 53.92560720740017 L 907.2477229969564 53.995276600774254 L 907.4281804571245 54.065765271557225 L 907.6070696256444 54.13706617094075 L 907.7843726137481 54.2091721688943 L 907.960071691285 54.28207605487816 L 908.1341492884933 54.35577053856451 L 908.3065879977586 54.43024825056637 L 908.4773705753536 54.50550174317461 L 908.6464799431628 54.581523491102686 L 908.8138991903904 54.658305892239156 L 908.9796115752513 54.73584126840789 L 909.143600526645 54.81412186613588 L 909.3058496458129 54.89313985742859 L 909.4663427079786 54.97288734055273 L 909.6250636639694 55.05335634082646 L 909.7819966418219 55.1345388114168 L 909.9371259483693 55.21642663414435 L 910.0904360708101 55.29901162029506 L 910.2419116782598 55.38228551143916 L 910.391537623284 55.46623998025691 L 910.5392989434127 55.55086663137139 L 910.6851808626373 55.63615700218803 L 910.8291687928871 55.722102563740805 L 910.9712483354893 55.80869472154519 L 911.1114052826081 55.89592481645755 L 911.2496256186653 55.98378412554111 L 911.3858955217427 56.07226386293816 L 911.5202013649634 56.1613551807487 L 911.6525297178553 56.251049169915184 L 911.7828673476929 56.34133686111345 L 911.9112012208222 56.4322092256496 L 912.0375185039629 56.52365717636293 L 912.1618065654916 56.615671568534566 L 912.284052976706 56.70824320080196 L 912.4042455130667 56.80136281607904 L 912.5223721554204 56.89502110248188 L 912.638421091201 56.98920869425987 L 912.7523807156119 57.083916172732344 L 912.8642396327856 57.17913406723036 L 912.9739866569234 57.27485285604382 L 913.0816108134146 57.37106296737362 L 913.1871013399331 57.467754780288786 L 913.2904476875141 57.56491862568861 L 913.391639521609 57.662544787269525 L 913.4906667231189 57.76062350249672 L 913.5875193894059 57.859144963580405 L 913.6821878352843 57.95809931845658 L 913.7746625939882 58.05747667177222 L 913.864934418119 58.15726708587479 L 913.9529942805693 58.257460581806065 L 914.0388333754264 58.358047140299924 L 914.1224431188524 58.459016702784346 L 914.2038151499423 58.56035917238722 L 914.2829413315612 58.66206441494605 L 914.3598137511567 58.764122260021324 L 914.4344247215508 58.866522501913586 L 914.5067667817088 58.96925490068398 L 914.5768326974851 59.072309183178234 L 914.6446154623461 59.17567504405398 L 914.7101082980721 59.279342146811274 L 914.773304655434 59.38330012482622 L 914.8341982148487 59.48753858238766 L 914.8927828870111 59.59204709573668 L 914.9490528135027 59.69681521410906 L 915.0030023673779 59.80183246078026 L 915.0546261537262 59.907088334113126 L 915.1039190102118 60.012572308608036 L 915.1508760075905 60.11827383595545 L 915.1954924502013 60.22418234609071 L 915.2377638764374 60.33028724825106 L 915.2776860591912 60.43657793203471 L 915.3152550062779 60.54304376846186 L 915.3504669608338 60.64967411103757 L 915.3833184016933 60.75645829681646 L 915.4138060437391 60.86338564746893 L 915.4419268382328 60.97044547034902 L 915.4676779731182 61.07762705956367 L 915.4910568733034 61.184919697043256 L 915.5120612009176 61.29231265361346 L 915.5306888555459 61.399795190068104 L 915.5469379744382 61.50735655824312 L 915.5608069326961 61.614986002091314 L 915.5722943434354 61.72267275875801 L 915.5813990579245 61.830406059657264 L 915.5881201656997 61.93817513154877 L 915.5924569946557 62.04596919761514 L 915.5944091111132 62.15377747853961 M 915.5945301011692 96.4920458931 L 915.5933376412655 96.59985643801662 L 915.5897603807995 96.70765620196859 L 915.5837986774942 96.81543440506935 L 915.5754531275148 96.9231802695884 L 915.5647245654096 97.03088302102908 L 915.5516140640258 97.138531889206 L 915.5361229344026 97.24611610932205 L 915.51825272564 97.35362492304485 L 915.4980052247439 97.46104757958265 L 915.4753824564477 97.5683733367593 L 915.4503866830094 97.67559146208852 L 915.4230204039853 97.78269123384712 L 915.3932863559808 97.88966194214719 L 915.3611875123756 97.99649289000702 L 915.3267270830275 98.10317339442086 L 915.2899085139508 98.20969278742717 L 915.2507354869714 98.31604041717543 L 915.2092119193596 98.42220564899125 L 915.1653419634376 98.52817786643996 L 915.1191300061643 98.6339464723881 L 915.070580668697 98.73950089006323 L 915.0196988059289 98.84483056411152 L 914.966489506004 98.94992496165337 L 914.9109580898078 99.05477357333659 L 914.8531101104358 99.15936591438738 L 914.7929513526376 99.2636915256588 L 914.730487832239 99.36773997467667 L 914.6657257955397 99.47150085668278 L 914.5986717186897 99.5749637956754 L 914.5293323070408 99.67811844544686 L 914.4577144944761 99.78095449061813 L 914.3838254427175 99.8834616476704 L 914.3076725406085 99.98562966597338 L 914.2292634033756 100.08744832881038 L 914.1486058718675 100.18890745439998 L 914.0657080117701 100.28999689691415 L 913.9805781128002 100.39070654749288 L 913.8932246878768 100.49102633525506 L 913.8036564722696 100.59094622830548 L 913.7118824227256 100.69045623473812 L 913.6179117165732 100.78954640363527 L 913.5217537508046 100.8882068260626 L 913.4234181411365 100.9864276360601 L 913.3229147210477 101.0841990116286 L 913.2202535407965 101.18151117571202 L 913.1154448664155 101.27835439717506 L 913.0084991786846 101.37471899177628 L 912.8994271720836 101.4705953231365 L 912.7882397537223 101.56597380370249 L 912.6749480422498 101.6608448957057 L 912.5595633667429 101.75519911211595 L 912.4420972655728 101.84902701759025 L 912.3225614852519 101.94231922941623 L 912.2009679792586 102.03506641845047 L 912.0773289068422 102.12725931005133 L 911.9516566318068 102.2188886850065 L 911.8239637212754 102.30994538045483 L 911.6942629444324 102.40042029080266 L 911.5625672712474 102.49030436863434 L 911.4288898711782 102.579588625617 L 911.2932441118533 102.66826413339936 L 911.1556435577354 102.75632202450451 L 911.0161019687655 102.84375349321674 L 910.8746332989862 102.93054979646202 L 910.7312516951464 103.01670225468237 L 910.5859714952873 103.10220225270375 L 910.4388072273074 103.18704124059762 L 910.2897736075113 103.27121073453588 L 910.1388855391364 103.3547023176393 L 909.986158110864 103.4375076408191 L 909.8316065953097 103.51961842361202 L 909.6752464474963 103.60102645500817 L 909.517093303308 103.68172359427226 L 909.3571629779277 103.7617017717576 L 909.1954714642545 103.84095298971312 L 909.0320349313052 103.91946932308304 L 908.8668697225967 103.99724292029944 L 908.6999923545123 104.07426600406745 L 908.5314195146499 104.15053087214287 L 908.3611680601527 104.22602989810241 L 908.1892550160246 104.30075553210642 L 908.0156975734266 104.37470030165377 L 907.8405130879582 104.44785681232914 L 907.6637190779222 104.52021774854238 L 907.4853332225722 104.59177587426021 L 907.3053733603449 104.66252403372968 L 907.1238574870769 104.73245515219378 L 906.9408037542039 104.80156223659897 L 906.7562304669469 104.86983837629438 L 906.5701560824807 104.93727674372295 L 906.3825992080888 105.0038705951041 L 906.1935785993021 105.06961327110824 L 906.0031131580242 105.13449819752252 L 905.8112219306404 105.19851888590837 L 905.6179241061136 105.26166893425032 L 905.4232390140651 105.32394202759615 L 905.2271861228419 105.38533193868841 L 905.0297850375697 105.44583252858716 L 904.8310554981927 105.50543774728384 L 904.6310173774989 105.56414163430621 L 904.429690679134 105.62193831931454 L 904.2270955355999 105.67882202268845 L 904.0232522062421 105.73478705610502 L 903.8181810752238 105.78982782310756 L 903.6119026494871 105.84393881966523 L 903.4044375567028 105.89711463472344 L 903.195806543207 105.94934995074503 L 902.9860304719276 106.00063954424192 L 902.7751303202966 106.0509782862975 L 902.5631271781535 106.1003611430795 L 902.3500422456359 106.14878317634341 L 902.1358968310595 106.19623954392625 L 901.9207123487872 106.2427255002308 L 901.704510317088 106.2882363967002 L 901.4873123559848 106.33276768228268 L 901.2691401850929 106.37631490388682 L 901.0500156214473 106.41887370682676 L 900.8299605773219 106.46043983525765 L 900.6089970580379 106.50100913260128 L 900.3871471597629 106.54057754196174 L 900.1644330673018 106.57914110653107 L 899.9408770518784 106.61669596998493 L 899.716501468908 106.65323837686829 L 899.4913287557616 106.6887646729709 L 899.2653814295232 106.72327130569276 L 899.038682084737 106.75675482439937 L 898.8112533911486 106.78921188076673 L 898.5831180914378 106.82063922911627 L 898.3542989989445 106.85103372673933 L 898.1248189953872 106.8803923342115 L 897.8947010285751 106.90871211569649 L 897.663968110113 106.93599023923973 L 897.4326433131007 106.96222397705162 L 897.2007497698248 106.98741070578025 L 896.9683106694467 107.0115479067737 L 896.7353492556826 107.03463316633201 L 896.5018888244797 107.05666417594847 L 896.2679527216867 107.07763873254045 L 896.0335643407187 107.09755473866979 L 895.7987471202188 107.11641020275246 L 895.5635245417132 107.13420323925777 L 895.3279201272635 107.1509320688969 L 895.0919574371152 107.16659501880085 L 894.8556600673405 107.18119052268763 L 894.6190516474795 107.19471712101905 L 894.3821558381769 107.20717346114655 L 894.1449963288164 107.21855829744648 L 893.9075968351513 107.22887049144471 L 893.6699810969328 107.23810901193042 L 893.4321728755372 107.24627293505928 L 893.1941959515881 107.25336144444577 L 892.9560741225797 107.25937383124486 L 892.7178312004966 107.26430949422287 L 892.4794910094322 107.26816793981763 L 892.2410773832072 107.27094878218779 L 892.0026141629854 107.27265174325143 L 891.7641251948903 107.27327665271386 L 891.5256343276197 107.27282344808465 L 891.2871654100619 107.27129217468391 L 891.0487422889097 107.26868298563768 L 890.8103888062767 107.2649961418627 L 890.5721287973123 107.26023201204026 L 890.3339860878191 107.2543910725794 L 890.0959844918694 107.24747390756917 L 889.8581478094246 107.23948120872033 L 889.6204998239547 107.23041377529609 L 889.3830643000601 107.22027251403225 L 889.1458649810954 107.20905843904646 L 888.908925586795 107.1967726717369 L 888.6722698109007 107.18341644067004 L 888.4359213187929 107.16899108145788 L 888.1999037451238 107.15349803662431 L 887.9642406914543 107.1369388554609 L 887.7289557238931 107.11931519387196 L 887.4940723707412 107.10062881420897 L 887.2596141201378 107.08088158509435 L 887.025604417713 107.0600754812345 L 886.7920666642416 107.03821258322252 L 886.5590242133047 107.01529507732995 L 886.326500368953 106.99132525528832 L 886.0945183833771 106.96630551405984 L 885.8631014545825 106.94023835559778 L 885.632272724069 106.91312638659626 L 885.4020552745175 106.88497231822961 L 885.1724721274809 106.85577896588119 L 884.9435462410826 106.8255492488619 L 884.7153005077206 106.79428619011826 L 884.487757751778 106.76199291593008 L 884.2609407273407 106.72867265559789 L 884.0348721159222 106.69432874111995 L 883.8095745241952 106.65896460685907 L 883.5850704817311 106.62258378919921 L 883.3613824387472 106.58518992619184 L 883.1385327638613 106.5467867571921 L 882.9165437418552 106.50737812248485 L 882.6954375714462 106.46696796290075 L 882.4752363630668 106.42556031942208 L 882.2559621366546 106.38315933277867 L 882.0376368194494 106.33976924303387 L 881.820282243801 106.29539438916049 L 881.603920144986 106.25003920860692 L 881.3885721590336 106.20370823685344 L 881.1742598205634 106.15640610695861 L 880.9610045606303 106.108137549096 L 880.7488277045828 106.05890739008117 L 880.5377504699295 106.00872055288902 L 880.3277939642181 105.9575820561614 L 880.1189791829242 105.90549701370541 L 879.9113270073519 105.85247063398188 L 879.7048582025458 105.79850821958458 L 879.4995934152141 105.74361516670999 L 879.2955531716647 105.68779696461766 L 879.0927578757517 105.63105919508126 L 878.8912278068359 105.5734075318305 L 878.6909831177562 105.51484773998365 L 878.4920438328146 105.45538567547108 L 878.2944298457738 105.3950272844497 L 878.098160917868 105.33377860270829 L 877.9032566758261 105.27164575506403 L 877.7097366099102 105.20863495474987 L 877.5176200719654 105.14475250279335 L 877.3269262734857 105.08000478738643 L 877.1376742836917 105.01439828324668 L 876.9498830276248 104.94793955096986 L 876.7635712842541 104.8806352363738 L 876.5787576845987 104.8124920698339 L 876.3954607098647 104.74351686560999 L 876.2136986895964 104.67371652116503 L 876.0334897998449 104.6030980164753 L 875.8548520613487 104.53166841333243 L 875.6778033377327 104.4594348546372 L 875.5023613337219 104.38640456368528 L 875.3285435933705 104.31258484344491 L 875.1563674983075 104.2379830758266 L 874.9858502659991 104.16260672094495 L 874.8170089480266 104.08646331637262 L 874.6498604283806 104.00956047638662 L 874.4844214217743 103.93190589120688 L 874.3207084719701 103.85350732622719 L 874.1587379501268 103.77437262123871 L 873.9985260531615 103.694509689646 L 873.8400888021304 103.61392651767568 L 873.6834420406266 103.53263116357778 L 873.5286014331957 103.45063175681996 L 873.3755824637694 103.36793649727457 L 873.2244004341171 103.28455365439865 L 873.0750704623158 103.20049156640701 L 872.9276074812383 103.1157586394384 L 872.7820262370598 103.03036334671489 L 872.6383412877833 102.94431422769459 L 872.4965670017841 102.85761988721772 L 872.3567175563727 102.77028899464605 L 872.218806936377 102.68233028299609 L 872.0828489327439 102.5937525480657 L 871.9488571411608 102.50456464755453 L 871.8168449606951 102.41477550017834 L 871.6868255924547 102.32439408477703 L 871.5588120382682 102.23342943941684 L 871.4328170993844 102.14189066048647 L 871.308853375192 102.04978690178756 L 871.1869332619603 101.95712737361922 L 871.0670689515989 101.86392134185704 L 870.949272430439 101.77017812702654 L 870.8335554780346 101.67590710337106 L 870.7199296659843 101.58111769791444 L 870.6084063567749 101.48581938951821 L 870.4989967026443 101.39002170793381 L 870.3917116444666 101.29373423284954 L 870.2865619106583 101.19696659293271 L 870.1835580161053 101.09972846486664 L 870.082710261111 101.00202957238312 L 869.9840287303668 100.90387968528998 L 869.8875232919439 100.80528861849413 L 869.7932035963055 100.70626623102011 L 869.7010790753425 100.60682242502413 L 869.6111589414303 100.50696714480392 L 869.5234521865074 100.40671037580431 L 869.437967581176 100.30606214361863 L 869.3547136738258 100.20503251298624 L 869.2736987897778 100.103631586786 L 869.194931030453 100.00186950502604 L 869.1184182725617 99.89975644382972 L 869.0441681673159 99.79730261441809 L 868.9721881396644 99.69451826208869 L 868.9024853875496 99.59141366519111 L 868.8350668811892 99.48799913409913 L 868.7699393623772 99.38428501017967 L 868.7071093438112 99.28028166475868 L 868.6465831084411 99.17599949808405 L 868.5883667088395 99.07144893828554 L 868.5324659665984 98.96664044033201 L 868.4788864717449 98.86158448498593 L 868.4276335821841 98.75629157775525 L 868.3787124231623 98.65077224784297 L 868.3321278867544 98.54503704709414 L 868.2878846313755 98.43909654894075 L 868.2459870813141 98.33296134734431 L 868.2064394262903 98.22664205573652 L 868.1692456210367 98.12014930595798 L 868.1344093849028 98.01349374719489 L 868.1019342014831 97.90668604491427 L 868.0718233182691 97.79973687979731 L 868.0440797463239 97.69265694667143 L 868.0187062599815 97.58545695344071 L 867.9957053965695 97.47814762001512 L 867.9750794561551 97.37073967723859 L 867.9568305013149 97.26324386581588 L 867.9409603569295 97.15567093523856 L 867.92747061 97.04803164271006 L 867.9163626094897 96.94033675206991 L 867.9076374661897 96.83259703271744 L 867.9012960526068 96.7248232585348 L 867.8973390028772 96.6170262068096 L 867.8957667127024 96.50921665715717" stroke-miterlimit="10" stroke-width="2.7769845610000004" stroke-dasharray=""/></g><g><text fill="black" stroke="none" font-family="sans-serif" font-size="11pt" font-style="normal" font-weight="normal" text-decoration="normal" x="860.3671883368802" y="124.80095321200001" text-anchor="start" dominant-baseline="alphabetic" xml:space="preserve">Database</text></g></g><g><path fill="white" stroke="black" paint-order="fill stroke markers" d=" M 290.6265283944661 137.869115852 L 306.9617316944661 137.869115852 L 306.9617316944661 1029.7712160319995 L 290.6265283944661 1029.7712160319995 L 290.6265283944661 137.869115852" stroke-miterlimit="10" stroke-width="1.3612669416666667" stroke-dasharray=""/><path fill="white" stroke="black" paint-order="fill stroke markers" d=" M 565.6403005611978 275.084823572 L 581.9755038611979 275.084823572 L 581.9755038611979 984.0326467919995 L 565.6403005611978 984.0326467919995 L 565.6403005611978 275.084823572" stroke-miterlimit="10" stroke-width="1.3612669416666667" stroke-dasharray=""/><path fill="white" stroke="black" paint-order="fill stroke markers" d=" M 573.8079022111979 342.059157102 L 590.143105511198 342.059157102 L 590.143105511198 387.7977263419999 L 573.8079022111979 387.7977263419999 L 573.8079022111979 342.059157102" stroke-miterlimit="10" stroke-width="1.3612669416666667" stroke-dasharray=""/><path fill="white" stroke="black" paint-order="fill stroke markers" d=" M 573.8079022111979 688.3654670619998 L 590.143105511198 688.3654670619998 L 590.143105511198 917.0583132619995 L 573.8079022111979 917.0583132619995 L 573.8079022111979 688.3654670619998" stroke-miterlimit="10" stroke-width="1.3612669416666667" stroke-dasharray=""/><path fill="white" stroke="black" paint-order="fill stroke markers" d=" M 769.9978538382161 734.1040363019997 L 786.3330571382162 734.1040363019997 L 786.3330571382162 871.3197440219996 L 769.9978538382161 871.3197440219996 L 769.9978538382161 734.1040363019997" stroke-miterlimit="10" stroke-width="1.3612669416666667" stroke-dasharray=""/><path fill="white" stroke="black" paint-order="fill stroke markers" d=" M 883.5775316331692 779.8426055419997 L 899.9127349331693 779.8426055419997 L 899.9127349331693 825.5811747819996 L 883.5775316331692 825.5811747819996 L 883.5775316331692 779.8426055419997" stroke-miterlimit="10" stroke-width="1.3612669416666667" stroke-dasharray=""/><g><g><rect fill="white" stroke="none" x="124.21277218192053" y="162.371920802" width="115.709398880625" height="21.23576429"/></g><text fill="black" stroke="none" font-family="sans-serif" font-size="11pt" font-style="normal" font-weight="normal" text-decoration="normal" x="126.66305267692053" y="177.07360377199998" text-anchor="start" dominant-baseline="alphabetic" xml:space="preserve">Click Next button</text></g><g><path fill="none" stroke="black" paint-order="fill stroke markers" d=" M 73.50841485 183.607685092 L 277.17721101079945 183.607685092" stroke-miterlimit="10" stroke-width="1.3612669416666667" stroke-dasharray=""/><g transform="translate(290.6265283944661,183.607685092) translate(-290.6265283944661,-183.607685092)"><path fill="black" stroke="none" paint-order="stroke fill markers" d=" M 277.01385897779943 176.80135038366666 L 290.6265283944661 183.607685092 L 277.01385897779943 190.41401980033334 Z"/></g></g><g><g><rect fill="white" stroke="none" x="109.94649868338537" y="208.110490042" width="144.24194587769531" height="21.23576429"/></g><text fill="black" stroke="none" font-family="sans-serif" font-size="11pt" font-style="normal" font-weight="normal" text-decoration="normal" x="112.39677917838537" y="222.812173012" text-anchor="start" dominant-baseline="alphabetic" xml:space="preserve">Config slot for groups</text></g><g><path fill="none" stroke="black" paint-order="fill stroke markers" d=" M 73.50841485 229.346254332 L 277.17721101079945 229.346254332" stroke-miterlimit="10" stroke-width="1.3612669416666667" stroke-dasharray=""/><g transform="translate(290.6265283944661,229.346254332) translate(-290.6265283944661,-229.346254332)"><path fill="black" stroke="none" paint-order="stroke fill markers" d=" M 277.01385897779943 222.53991962366666 L 290.6265283944661 229.346254332 L 277.01385897779943 236.15258904033334 Z"/></g></g><g><g><rect fill="white" stroke="none" x="326.29172226613275" y="253.849059282" width="220.01858772339844" height="21.23576429"/></g><text fill="black" stroke="none" font-family="sans-serif" font-size="11pt" font-style="normal" font-weight="normal" text-decoration="normal" x="328.74200276113277" y="268.550742252" text-anchor="start" dominant-baseline="alphabetic" xml:space="preserve">POST: /api/group/slot/bulk-create</text></g><g><path fill="none" stroke="black" paint-order="fill stroke markers" d=" M 306.9617316944661 275.084823572 L 552.1909831775312 275.084823572" stroke-miterlimit="10" stroke-width="1.3612669416666667" stroke-dasharray=""/><g transform="translate(565.6403005611978,275.084823572) translate(-565.6403005611978,-275.084823572)"><path fill="black" stroke="none" paint-order="stroke fill markers" d=" M 552.0276311445311 268.27848886366667 L 565.6403005611978 275.084823572 L 552.0276311445311 281.89115828033334 Z"/></g></g><g><g><rect fill="white" stroke="none" x="609.4730960828646" y="299.587628522" width="97.79957832398438" height="21.23576429"/></g><text fill="black" stroke="none" font-family="sans-serif" font-size="11pt" font-style="normal" font-weight="normal" text-decoration="normal" x="611.9233765778646" y="314.28931149199997" text-anchor="start" dominant-baseline="alphabetic" xml:space="preserve">validateInput()</text></g><g><path fill="none" stroke="black" paint-order="fill stroke markers" d=" M 581.9755038611979 320.82339281199995 L 655.4839187111978 320.82339281199995 L 655.4839187111978 342.059157102 L 603.5924228948645 342.059157102" stroke-miterlimit="10" stroke-width="1.3612669416666667" stroke-dasharray=""/><g transform="translate(590.1431055111979,342.059157102) translate(-590.1431055111979,-342.059157102)"><path fill="black" stroke="none" paint-order="stroke fill markers" d=" M 603.7557749278645 335.25282239366663 L 590.1431055111979 342.059157102 L 603.7557749278645 348.8654918103333 Z"/></g></g><g><g><rect fill="white" stroke="none" x="609.4730960828646" y="366.56196205199996" width="99.41017402710938" height="21.23576429"/></g><text fill="black" stroke="none" font-family="sans-serif" font-size="11pt" font-style="normal" font-weight="normal" text-decoration="normal" x="611.9233765778646" y="381.26364502199993" text-anchor="start" dominant-baseline="alphabetic" xml:space="preserve">error message</text></g><g><path fill="none" stroke="black" paint-order="fill stroke markers" d=" M 590.1431055111979 387.7977263419999 L 655.4839187111978 387.7977263419999 L 655.4839187111978 409.03349063199994 L 595.4248212448645 409.03349063199994" stroke-miterlimit="10" stroke-width="1.3612669416666667" stroke-dasharray="6.53408132"/><g transform="translate(581.9755038611978,409.03349063199994) translate(-581.9755038611978,-409.03349063199994)"><path fill="black" stroke="none" paint-order="stroke fill markers" d=" M 595.5881732778645 402.2271559236666 L 581.9755038611978 409.03349063199994 L 595.5881732778645 415.8398253403333 Z"/></g></g><g><g><rect fill="white" stroke="none" x="330.77275559132806" y="477.6413444919999" width="138.51544441285156" height="21.23576429"/></g><g><rect fill="white" stroke="none" x="330.77275559132806" y="493.9765477919999" width="211.05652107300781" height="21.23576429"/></g><text fill="red" stroke="none" font-family="sans-serif" font-size="11pt" font-style="normal" font-weight="normal" text-decoration="normal" x="333.2230360863281" y="492.3430274619999" text-anchor="start" dominant-baseline="alphabetic" xml:space="preserve">400 BAD REQUEST</text><text fill="red" stroke="none" font-family="sans-serif" font-size="11pt" font-style="normal" font-weight="normal" text-decoration="normal" x="333.2230360863281" y="508.6782307619999" text-anchor="start" dominant-baseline="alphabetic" xml:space="preserve">Response body: Error message</text></g><g><path fill="none" stroke="black" paint-order="fill stroke markers" d=" M 565.6403005611978 515.2123120819999 L 320.41104907813275 515.2123120819999" stroke-miterlimit="10" stroke-width="1.3612669416666667" stroke-dasharray="6.53408132"/><g transform="translate(306.9617316944661,515.2123120819999) translate(-306.9617316944661,-515.2123120819999)"><path fill="black" stroke="none" paint-order="stroke fill markers" d=" M 320.5744011111328 508.4059773736666 L 306.9617316944661 515.2123120819999 L 320.5744011111328 522.0186467903333 Z"/></g></g><g><g><rect fill="white" stroke="none" x="106.29224758475256" y="539.7151170319999" width="151.55044807496094" height="21.23576429"/></g><text fill="black" stroke="none" font-family="sans-serif" font-size="11pt" font-style="normal" font-weight="normal" text-decoration="normal" x="108.74252807975256" y="554.4168000019998" text-anchor="start" dominant-baseline="alphabetic" xml:space="preserve">Display error message</text></g><g><path fill="none" stroke="black" paint-order="fill stroke markers" d=" M 290.6265283944661 560.9508813219999 L 86.95773223366666 560.9508813219999" stroke-miterlimit="10" stroke-width="1.3612669416666667" stroke-dasharray="6.53408132"/><g transform="translate(73.50841485,560.9508813219999) translate(-73.50841485,-560.9508813219999)"><path fill="black" stroke="none" paint-order="stroke fill markers" d=" M 87.12108426666666 554.1445466136665 L 73.50841485 560.9508813219999 L 87.12108426666666 567.7572160303332 Z"/></g></g><g><g><rect fill="white" stroke="none" x="609.4730960828646" y="629.5587351819997" width="154.80743660035156" height="21.23576429"/></g><g><rect fill="white" stroke="none" x="609.4730960828646" y="645.8939384819997" width="126.31068672242188" height="21.23576429"/></g><text fill="black" stroke="none" font-family="sans-serif" font-size="11pt" font-style="normal" font-weight="normal" text-decoration="normal" x="611.9233765778646" y="644.2604181519997" text-anchor="start" dominant-baseline="alphabetic" xml:space="preserve">createSlotsForGroup() </text><text fill="black" stroke="none" font-family="sans-serif" font-size="11pt" font-style="normal" font-weight="normal" text-decoration="normal" x="611.9233765778646" y="660.5956214519997" text-anchor="start" dominant-baseline="alphabetic" xml:space="preserve">updateTermState()</text></g><g><path fill="none" stroke="black" paint-order="fill stroke markers" d=" M 581.9755038611979 667.1297027719997 L 655.4839187111978 667.1297027719997 L 655.4839187111978 688.3654670619998 L 603.5924228948645 688.3654670619998" stroke-miterlimit="10" stroke-width="1.3612669416666667" stroke-dasharray=""/><g transform="translate(590.1431055111979,688.3654670619998) translate(-590.1431055111979,-688.3654670619998)"><path fill="black" stroke="none" paint-order="stroke fill markers" d=" M 603.7557749278645 681.5591323536664 L 590.1431055111979 688.3654670619998 L 603.7557749278645 695.1718017703331 Z"/></g></g><g><g><rect fill="white" stroke="none" x="657.2551479101758" y="712.8682720119997" width="45.6306635290625" height="21.23576429"/></g><text fill="black" stroke="none" font-family="sans-serif" font-size="11pt" font-style="normal" font-weight="normal" text-decoration="normal" x="659.7054284051758" y="727.5699549819997" text-anchor="start" dominant-baseline="alphabetic" xml:space="preserve">save()</text></g><g><path fill="none" stroke="black" paint-order="fill stroke markers" d=" M 590.1431055111979 734.1040363019997 L 756.5485364545494 734.1040363019997" stroke-miterlimit="10" stroke-width="1.3612669416666667" stroke-dasharray=""/><g transform="translate(769.9978538382161,734.1040363019997) translate(-769.9978538382161,-734.1040363019997)"><path fill="black" stroke="none" paint-order="stroke fill markers" d=" M 756.3851844215494 727.2977015936664 L 769.9978538382161 734.1040363019997 L 756.3851844215494 740.910371010333 Z"/></g></g><g><g><rect fill="white" stroke="none" x="812.1399626211614" y="758.6068412519996" width="45.6306635290625" height="21.23576429"/></g><text fill="black" stroke="none" font-family="sans-serif" font-size="11pt" font-style="normal" font-weight="normal" text-decoration="normal" x="814.5902431161614" y="773.3085242219996" text-anchor="start" dominant-baseline="alphabetic" xml:space="preserve">save()</text></g><g><path fill="none" stroke="black" paint-order="fill stroke markers" d=" M 786.3330571382162 779.8426055419997 L 870.1282142495025 779.8426055419997" stroke-miterlimit="10" stroke-width="1.3612669416666667" stroke-dasharray=""/><g transform="translate(883.5775316331692,779.8426055419997) translate(-883.5775316331692,-779.8426055419997)"><path fill="black" stroke="none" paint-order="stroke fill markers" d=" M 869.9648622165025 773.0362708336663 L 883.5775316331692 779.8426055419997 L 869.9648622165025 786.648940250333 Z"/></g></g><g><g><rect fill="white" stroke="none" x="819.8743833975286" y="804.3454104919996" width="30.161821976328124" height="21.23576429"/></g><text fill="black" stroke="none" font-family="sans-serif" font-size="11pt" font-style="normal" font-weight="normal" text-decoration="normal" x="822.3246638925286" y="819.0470934619996" text-anchor="start" dominant-baseline="alphabetic" xml:space="preserve">true</text></g><g><path fill="none" stroke="black" paint-order="fill stroke markers" d=" M 883.5775316331692 825.5811747819996 L 799.7823745218828 825.5811747819996" stroke-miterlimit="10" stroke-width="1.3612669416666667" stroke-dasharray="6.53408132"/><g transform="translate(786.3330571382162,825.5811747819996) translate(-786.3330571382162,-825.5811747819996)"><path fill="black" stroke="none" paint-order="stroke fill markers" d=" M 799.9457265548829 818.7748400736663 L 786.3330571382162 825.5811747819996 L 799.9457265548829 832.387509490333 Z"/></g></g><g><g><rect fill="white" stroke="none" x="664.989568686543" y="850.0839797319995" width="30.161821976328124" height="21.23576429"/></g><text fill="black" stroke="none" font-family="sans-serif" font-size="11pt" font-style="normal" font-weight="normal" text-decoration="normal" x="667.439849181543" y="864.7856627019995" text-anchor="start" dominant-baseline="alphabetic" xml:space="preserve">true</text></g><g><path fill="none" stroke="black" paint-order="fill stroke markers" d=" M 769.9978538382161 871.3197440219996 L 603.5924228948645 871.3197440219996" stroke-miterlimit="10" stroke-width="1.3612669416666667" stroke-dasharray="6.53408132"/><g transform="translate(590.1431055111979,871.3197440219996) translate(-590.1431055111979,-871.3197440219996)"><path fill="black" stroke="none" paint-order="stroke fill markers" d=" M 603.7557749278645 864.5134093136662 L 590.1431055111979 871.3197440219996 L 603.7557749278645 878.1260787303329 Z"/></g></g><g><g><rect fill="white" stroke="none" x="609.4730960828646" y="895.8225489719995" width="4.90056099" height="21.23576429"/></g><text fill="black" stroke="none" font-family="sans-serif" font-size="11pt" font-style="normal" font-weight="normal" text-decoration="normal" x="611.9233765778646" y="910.5242319419995" text-anchor="start" dominant-baseline="alphabetic" xml:space="preserve"></text></g><g><path fill="none" stroke="black" paint-order="fill stroke markers" d=" M 590.1431055111979 917.0583132619995 L 655.4839187111978 917.0583132619995 L 655.4839187111978 938.2940775519995 L 595.4248212448645 938.2940775519995" stroke-miterlimit="10" stroke-width="1.3612669416666667" stroke-dasharray="6.53408132"/><g transform="translate(581.9755038611978,938.2940775519995) translate(-581.9755038611978,-938.2940775519995)"><path fill="black" stroke="none" paint-order="stroke fill markers" d=" M 595.5881732778645 931.4877428436662 L 581.9755038611978 938.2940775519995 L 595.5881732778645 945.1004122603329 Z"/></g></g><g><g><rect fill="white" stroke="none" x="408.9939012212109" y="962.7968825019994" width="54.61422981324219" height="21.23576429"/></g><text fill="green" stroke="none" font-family="sans-serif" font-size="11pt" font-style="normal" font-weight="normal" text-decoration="normal" x="411.4441817162109" y="977.4985654719994" text-anchor="start" dominant-baseline="alphabetic" xml:space="preserve">200 OK</text></g><g><path fill="none" stroke="black" paint-order="fill stroke markers" d=" M 565.6403005611978 984.0326467919995 L 320.41104907813275 984.0326467919995" stroke-miterlimit="10" stroke-width="1.3612669416666667" stroke-dasharray="6.53408132"/><g transform="translate(306.9617316944661,984.0326467919995) translate(-306.9617316944661,-984.0326467919995)"><path fill="black" stroke="none" paint-order="stroke fill markers" d=" M 320.5744011111328 977.2263120836661 L 306.9617316944661 984.0326467919995 L 320.5744011111328 990.8389815003328 Z"/></g></g><g><g><rect fill="white" stroke="none" x="92.83840542166662" y="1008.5354517419995" width="178.45813240113281" height="21.23576429"/></g><text fill="black" stroke="none" font-family="sans-serif" font-size="11pt" font-style="normal" font-weight="normal" text-decoration="normal" x="95.28868591666662" y="1023.2371347119995" text-anchor="start" dominant-baseline="alphabetic" xml:space="preserve">Display Admin Home page</text></g><g><path fill="none" stroke="black" paint-order="fill stroke markers" d=" M 290.6265283944661 1029.7712160319995 L 86.95773223366666 1029.7712160319995" stroke-miterlimit="10" stroke-width="1.3612669416666667" stroke-dasharray="6.53408132"/><g transform="translate(73.50841485,1029.7712160319995) translate(-73.50841485,-1029.7712160319995)"><path fill="black" stroke="none" paint-order="stroke fill markers" d=" M 87.12108426666666 1022.9648813236662 L 73.50841485 1029.7712160319995 L 87.12108426666666 1036.5775507403328 Z"/></g></g><g><g/><path fill="none" stroke="black" paint-order="fill stroke markers" d=" M 16.335203299999996 433.5362955819999 L 948.9183448331693 433.5362955819999 L 948.9183448331693 1054.2740209819995 L 16.335203299999996 1054.2740209819995 L 16.335203299999996 433.5362955819999 Z" stroke-miterlimit="10" stroke-width="2.3336004714285714" stroke-dasharray=""/><path fill="white" stroke="black" paint-order="fill stroke markers" d=" M 16.335203299999996 433.5362955819999 L 16.335203299999996 453.13853954199993 L 62.69440689707031 453.13853954199993 L 72.49552887707031 443.3374175619999 L 72.49552887707031 433.5362955819999 L 16.335203299999996 433.5362955819999" stroke-miterlimit="10" stroke-width="2.3336004714285714" stroke-dasharray=""/><text fill="black" stroke="none" font-family="sans-serif" font-size="8.8pt" font-style="normal" font-weight="bold" text-decoration="normal" x="32.67040659999999" y="446.60445822199995" text-anchor="start" dominant-baseline="alphabetic" xml:space="preserve">alt</text><g><rect fill="white" stroke="none" x="86.38045168207032" y="434.84311184599994" width="176.33703865113281" height="16.988611432000003"/></g><text fill="black" stroke="none" font-family="sans-serif" font-size="8.8pt" font-style="normal" font-weight="bold" text-decoration="normal" x="88.83073217707032" y="446.60445822199995" text-anchor="start" dominant-baseline="alphabetic" xml:space="preserve">[If error message is not empty]</text><g><path fill="none" stroke="black" paint-order="fill stroke markers" d=" M 16.335203299999996 585.4536862719998 L 948.9183448331693 585.4536862719998" stroke-miterlimit="10" stroke-width="2.3336004714285714" stroke-dasharray="4.083800825"/></g><g/><g><rect fill="white" stroke="none" x="86.38045168207032" y="586.7605025359998" width="36.84300483765625" height="16.988611432000003"/></g><text fill="black" stroke="none" font-family="sans-serif" font-size="8.8pt" font-style="normal" font-weight="bold" text-decoration="normal" x="88.83073217707032" y="598.5218489119998" text-anchor="start" dominant-baseline="alphabetic" xml:space="preserve">[Else]</text></g><g/></g></g></svg>