<svg version="1.1" xmlns="http://www.w3.org/2000/svg" xmlns:xlink="http://www.w3.org/1999/xlink" width="1053" height="1114"><desc>title%20Start%20new%20semester%0A%0Aactor%20%23green%3A0.5%20%22Workspace%20Admin%22%20as%20w%0Aboundary%20%22Workspace%20Admin%20Client%22%20as%20f%0Acontrol%20%22Term%20Controller%22%20as%20gc%0Aparticipant%20%22Term%20Service%22%20as%20gs%0Adatabase%20%23blue%3A1%20%22Database%22%20as%20db%0A%0Aw-%3Ef%3A%20Click%20to%20Start%20new%20semester%20button%0Aactivate%20f%0A%0Af-%3Egc%3AGET%3A%20%2Fapi%2Fterm%2Fstart-new%0Aactivate%20gc%0A%0Agc-%3Egs%3AgetCurrentTerm()%0Aactivate%20gs%0Ags-%3Edb%3AgetCurrentTerm(term)%0Aactivate%20db%0Ags%3C--db%3ACurrent%20Term%0Adeactivate%20db%0Agc%3C--gs%3ACurrent%20Term%0Adeactivate%20gs%0A%0Agc-%3Egc%3AgetTermState()%0Aactivate%20gc%0Agc%3C--gc%3ATerm%20State%0Adeactivate%20gc%0Aalt%20If%20Term%20is%20not%20Ready%0Af%3C--gc%3A%3Ccolor%3A%23red%3E400%20BAD%20REQUEST%3C%2Fcolor%3E%0Aw%3C--f%3ADisplay%20message%3A%5CnTerm%20is%20not%20ready%20to%20start%0Aelse%20Else%0Agc-%3Egs%3AupdateState(term)%0Aactivate%20gs%0Ags-%3Edb%3AupdateState(term)%0Aactivate%20db%0Ags%3C--db%3ATerm%20data%0Adeactivate%20db%0Agc%3C--gs%3ATerm%20data%0Adeactivate%20gs%0Af%3C--gc%3A%3Ccolor%3A%23green%3E200%20OK%5CnResponse%20body%3A%20New%20Term%3C%2Fcolor%3E%0Adeactivate%20gc%0Aw%3C--f%3ADisplay%20new%20Term%20information%0Adeactivate%20f%0Aend%20%0Adeactivate%20f%0A</desc><defs/><g><g/><g/><g/><g/><g/><g/><g/><g/><g/><g/><g/><g/><g/><g/><g/><g/><g/><g/><g/><g/><g/><g/><g/><g><rect fill="white" stroke="none" x="0" y="0" width="1053" height="1114"/></g><g><text fill="black" stroke="none" font-family="sans-serif" font-size="16.5pt" font-style="normal" font-weight="normal" text-decoration="normal" x="431.7892546373697" y="24.50280495" text-anchor="start" dominant-baseline="alphabetic" xml:space="preserve">Start new semester</text></g><g/><g><path fill="none" stroke="black" paint-order="fill stroke markers" d=" M 73.50841485 129.701514202 L 73.50841485 1114.7142731919996" stroke-miterlimit="10" stroke-width="1.3612669416666667" stroke-dasharray="12.565541,5.445067766666667"/><path fill="none" stroke="black" paint-order="fill stroke markers" d=" M 348.4862992339193 129.701514202 L 348.4862992339193 1114.7142731919996" stroke-miterlimit="10" stroke-width="1.3612669416666667" stroke-dasharray="12.565541,5.445067766666667"/><path fill="none" stroke="black" paint-order="fill stroke markers" d=" M 584.3805798235026 129.701514202 L 584.3805798235026 1114.7142731919996" stroke-miterlimit="10" stroke-width="1.3612669416666667" stroke-dasharray="12.565541,5.445067766666667"/><path fill="none" stroke="black" paint-order="fill stroke markers" d=" M 770.5970641138671 129.701514202 L 770.5970641138671 1114.7142731919996" stroke-miterlimit="10" stroke-width="1.3612669416666667" stroke-dasharray="12.565541,5.445067766666667"/><path fill="none" stroke="black" paint-order="fill stroke markers" d=" M 971.4161646497395 129.701514202 L 971.4161646497395 1114.7142731919996" stroke-miterlimit="10" stroke-width="1.3612669416666667" stroke-dasharray="12.565541,5.445067766666667"/></g><g><g><path fill="white" stroke="green" paint-order="fill stroke markers" d=" M 82.819480731 60.60360424300001 A 9.311065881 9.311065881 0 1 1 82.81947607546743 60.594293178670846 M 73.50841485 69.91467012400001 L 73.50841485 89.84361815000001 M 61.747068473999995 77.102159576 L 85.26976122599999 77.102159576 M 73.50841485 89.84361815000001 L 61.747068473999995 108.465749912 M 73.50841485 89.84361815000001 L 85.26976122599999 108.465749912" stroke-miterlimit="10" stroke-width="1.3884922805000002" stroke-dasharray=""/></g><g><text fill="black" stroke="none" font-family="sans-serif" font-size="11pt" font-style="normal" font-weight="normal" text-decoration="normal" x="14.166991815332025" y="124.80095321200001" text-anchor="start" dominant-baseline="alphabetic" xml:space="preserve">Workspace Admin</text></g><g><path fill="white" stroke="black" paint-order="fill stroke markers" d=" M 380.9116777844193 82.819480731 A 24.2577769005 24.2577769005 0 1 1 380.91166565553186 82.79522295814245 M 317.44941296391926 57.17321154999999 L 317.44941296391926 108.465749912 M 316.0609206834193 82.819480731 L 332.3961239834193 82.819480731" stroke-miterlimit="10" stroke-width="2.7769845610000004" stroke-dasharray=""/></g><g><text fill="black" stroke="none" font-family="sans-serif" font-size="11pt" font-style="normal" font-weight="normal" text-decoration="normal" x="268.3682190947591" y="124.80095321200001" text-anchor="start" dominant-baseline="alphabetic" xml:space="preserve">Workspace Admin Client</text></g><g><path fill="white" stroke="black" paint-order="fill stroke markers" d=" M 608.6383567240025 82.819480731 A 24.2577769005 24.2577769005 0 1 1 608.6383445951151 82.79522295814245 M 581.1135391635025 58.561703830499994 L 590.9146611435025 50.39410218049999 M 581.1135391635025 58.561703830499994 L 590.9146611435025 66.72930548049999" stroke-miterlimit="10" stroke-width="2.7769845610000004" stroke-dasharray=""/></g><g><text fill="black" stroke="none" font-family="sans-serif" font-size="11pt" font-style="normal" font-weight="normal" text-decoration="normal" x="534.2803829851237" y="124.80095321200001" text-anchor="start" dominant-baseline="alphabetic" xml:space="preserve">Term Controller</text></g><path fill="none" stroke="none"/><g><path fill="white" stroke="black" paint-order="fill stroke markers" d=" M 710.1067440826835 85.75981732500001 L 831.0873841450507 85.75981732500001 L 831.0873841450507 129.701514202 L 710.1067440826835 129.701514202 L 710.1067440826835 85.75981732500001 Z" stroke-miterlimit="10" stroke-width="2.613632528" stroke-dasharray=""/></g><g><text fill="black" stroke="none" font-family="sans-serif" font-size="11pt" font-style="normal" font-weight="normal" text-decoration="normal" x="727.8304396631835" y="113.36631090200002" text-anchor="start" dominant-baseline="alphabetic" xml:space="preserve">Term Service</text></g><g><path fill="white" stroke="blue" paint-order="fill stroke markers" d=" M 947.5667678317395 97.684515734 L 947.5667678317395 63.380588804000006 L 995.2655614677394 63.380588804000006 L 995.2655614677394 97.684515734" stroke-miterlimit="10" stroke-width="2.7769845610000004" stroke-dasharray=""/><path fill="white" stroke="blue" paint-order="fill stroke markers" d=" M 995.2655614677394 62.1881189631 L 995.2643690078357 62.29592950801663 L 995.2607917473697 62.403729271968594 L 995.2548300440644 62.51150747506936 L 995.246484494085 62.619253339588404 L 995.2357559319798 62.72695609102909 L 995.222645430596 62.834604959206004 L 995.2071543009728 62.94218917932205 L 995.1892840922102 63.04969799304486 L 995.1690365913141 63.15712064958265 L 995.146413823018 63.2644464067593 L 995.1214180495796 63.371664532088516 L 995.0940517705556 63.47876430384712 L 995.064317722551 63.58573501214718 L 995.0322188789459 63.692565960007016 L 994.9977584495978 63.79924646442086 L 994.960939880521 63.90576585742718 L 994.9217668535416 64.01211348717543 L 994.8802432859299 64.11827871899126 L 994.8363733300079 64.22425093643996 L 994.7901613727345 64.3300195423881 L 994.7416120352672 64.43557396006322 L 994.6907301724991 64.54090363411153 L 994.6375208725742 64.64599803165338 L 994.581989456378 64.75084664333659 L 994.524141477006 64.85543898438739 L 994.4639827192078 64.95976459565881 L 994.4015191988092 65.06381304467668 L 994.33675716211 65.16757392668278 L 994.26970308526 65.27103686567541 L 994.200363673611 65.37419151544687 L 994.1287458610464 65.47702756061814 L 994.0548568092877 65.5795347176704 L 993.9787039071787 65.68170273597339 L 993.9002947699458 65.7835213988104 L 993.8196372384377 65.88498052439998 L 993.7367393783403 65.98606996691414 L 993.6516094793704 66.08677961749288 L 993.564256054447 66.18709940525505 L 993.4746878388398 66.28701929830548 L 993.3829137892958 66.38652930473813 L 993.2889430831433 66.48561947363528 L 993.1927851173748 66.58427989606261 L 993.0944495077067 66.6825007060601 L 992.9939460876178 66.7802720816286 L 992.8912849073668 66.87758424571203 L 992.7864762329857 66.97442746717506 L 992.6795305452548 67.07079206177627 L 992.5704585386538 67.1666683931365 L 992.4592711202926 67.2620468737025 L 992.34597940882 67.35691796570569 L 992.2305947333131 67.45127218211596 L 992.113128632143 67.54510008759026 L 991.9935928518221 67.63839229941624 L 991.8719993458288 67.73113948845047 L 991.7483602734125 67.82333238005134 L 991.622687998377 67.9149617550065 L 991.4949950878456 68.00601845045483 L 991.3652943110026 68.09649336080267 L 991.2335986378176 68.18637743863435 L 991.0999212377484 68.27566169561702 L 990.9642754784235 68.36433720339936 L 990.8266749243056 68.45239509450451 L 990.6871333353357 68.53982656321674 L 990.5456646655564 68.62662286646201 L 990.4022830617166 68.71277532468237 L 990.2570028618575 68.79827532270376 L 990.1098385938776 68.88311431059763 L 989.9608049740815 68.9672838045359 L 989.8099169057066 69.0507753876393 L 989.6571894774343 69.13358071081912 L 989.50263796188 69.21569149361203 L 989.3462778140665 69.29709952500816 L 989.1881246698782 69.37779666427225 L 989.0281943444979 69.45777484175761 L 988.8665028308247 69.53702605971311 L 988.7030662978755 69.61554239308303 L 988.5379010891669 69.69331599029945 L 988.3710237210826 69.77033907406746 L 988.2024508812201 69.84660394214286 L 988.032199426723 69.92210296810242 L 987.8602863825948 69.99682860210643 L 987.6867289399968 70.07077337165379 L 987.5115444545285 70.14392988232913 L 987.3347504444924 70.21629081854239 L 987.1563645891424 70.28784894426022 L 986.9764047269151 70.35859710372968 L 986.7948888536471 70.42852822219379 L 986.6118351207741 70.49763530659898 L 986.4272618335172 70.5659114462944 L 986.2411874490509 70.63334981372294 L 986.053630574659 70.69994366510412 L 985.8646099658723 70.76568634110825 L 985.6741445245945 70.83057126752253 L 985.4822532972106 70.89459195590838 L 985.2889554726838 70.95774200425032 L 985.0942703806353 71.02001509759614 L 984.8982174894121 71.08140500868842 L 984.7008164041399 71.14190559858717 L 984.5020868647629 71.20151081728383 L 984.3020487440691 71.26021470430622 L 984.1007220457042 71.31801138931453 L 983.8981269021701 71.37489509268845 L 983.6942835728123 71.43086012610503 L 983.489212441794 71.48590089310757 L 983.2829340160573 71.54001188966522 L 983.075468923273 71.59318770472345 L 982.8668379097772 71.64542302074504 L 982.6570618384978 71.69671261424193 L 982.4461616868668 71.7470513562975 L 982.2341585447238 71.79643421307951 L 982.0210736122061 71.84485624634341 L 981.8069281976298 71.89231261392625 L 981.5917437153574 71.93879857023082 L 981.3755416836582 71.9843094667002 L 981.1583437225551 72.02884075228269 L 980.9401715516631 72.07238797388683 L 980.7210469880175 72.11494677682676 L 980.5009919438921 72.15651290525764 L 980.2800284246081 72.19708220260128 L 980.0581785263331 72.23665061196175 L 979.8354644338721 72.27521417653107 L 979.6119084184486 72.31276903998494 L 979.3875328354782 72.3493114468683 L 979.1623601223318 72.38483774297092 L 978.9364127960935 72.41934437569277 L 978.7097134513073 72.45282789439938 L 978.4822847577188 72.48528495076673 L 978.254149458008 72.51671229911628 L 978.0253303655147 72.54710679673934 L 977.7958503619574 72.5764654042115 L 977.5657323951453 72.60478518569649 L 977.3349994766833 72.63206330923974 L 977.1036746796709 72.65829704705163 L 976.871781136395 72.68348377578025 L 976.639342036017 72.70762097677371 L 976.4063806222529 72.73070623633201 L 976.1729201910499 72.75273724594847 L 975.9389840882569 72.77371180254045 L 975.704595707289 72.79362780866978 L 975.469778486789 72.81248327275246 L 975.2345559082834 72.83027630925778 L 974.9989514938337 72.84700513889692 L 974.7629888036854 72.86266808880085 L 974.5266914339107 72.87726359268764 L 974.2900830140497 72.89079019101906 L 974.0531872047471 72.90324653114655 L 973.8160276953867 72.91463136744649 L 973.5786282017215 72.9249435614447 L 973.341012463503 72.93418208193043 L 973.1032042421074 72.94234600505929 L 972.8652273181583 72.94943451444577 L 972.6271054891499 72.95544690124485 L 972.3888625670668 72.96038256422287 L 972.1505223760024 72.96424100981763 L 971.9121087497774 72.9670218521878 L 971.6736455295556 72.96872481325143 L 971.4351565614605 72.96934972271386 L 971.19666569419 72.96889651808466 L 970.9581967766321 72.96736524468392 L 970.7197736554799 72.96475605563768 L 970.4814201728469 72.96106921186271 L 970.2431601638825 72.95630508204027 L 970.0050174543893 72.9504641425794 L 969.7670158584397 72.94354697756918 L 969.5291791759948 72.93555427872033 L 969.2915311905249 72.9264868452961 L 969.0540956666304 72.91634558403224 L 968.8168963476656 72.90513150904647 L 968.5799569533652 72.89284574173689 L 968.343301177471 72.87948951067006 L 968.1069526853631 72.86506415145789 L 967.870935111694 72.84957110662431 L 967.6352720580245 72.8330119254609 L 967.3999870904634 72.81538826387197 L 967.1651037373114 72.79670188420899 L 966.930645486708 72.77695465509434 L 966.6966357842832 72.7561485512345 L 966.4630980308118 72.73428565322251 L 966.2300555798749 72.71136814732996 L 965.9975317355232 72.68739832528833 L 965.7655497499474 72.66237858405984 L 965.5341328211528 72.63631142559778 L 965.3033040906392 72.60919945659627 L 965.0730866410877 72.58104538822961 L 964.8435034940511 72.55185203588118 L 964.6145776076528 72.5216223188619 L 964.3863318742908 72.49035926011825 L 964.1587891183482 72.45806598593009 L 963.9319720939109 72.4247457255979 L 963.7059034824924 72.39040181111994 L 963.4806058907654 72.35503767685907 L 963.2561018483013 72.31865685919922 L 963.0324138053174 72.28126299619186 L 962.8095641304316 72.24285982719209 L 962.5875751084254 72.20345119248485 L 962.3664689380164 72.16304103290075 L 962.146267729637 72.12163338942209 L 961.9269935032248 72.07923240277869 L 961.7086681860196 72.03584231303388 L 961.4913136103712 71.99146745916049 L 961.2749515115562 71.94611227860693 L 961.0596035256038 71.89978130685344 L 960.8452911871336 71.85247917695861 L 960.6320359272005 71.80421061909601 L 960.419859071153 71.75498046008119 L 960.2087818364997 71.70479362288901 L 959.9988253307883 71.65365512616141 L 959.7900105494945 71.60157008370541 L 959.5823583739221 71.54854370398188 L 959.375889569116 71.49458128958457 L 959.1706247817843 71.43968823671 L 958.9665845382349 71.38387003461766 L 958.7637892423219 71.32713226508127 L 958.5622591734061 71.26948060183051 L 958.3620144843264 71.21092080998365 L 958.1630751993848 71.15145874547107 L 957.965461212344 71.0911003544497 L 957.7691922844382 71.0298516727083 L 957.5742880423963 70.96771882506403 L 957.3807679764805 70.90470802474988 L 957.1886514385357 70.84082557279336 L 956.9979576400559 70.77607785738643 L 956.8087056502619 70.71047135324669 L 956.620914394195 70.64401262096986 L 956.4346026508243 70.5767083063738 L 956.2497890511689 70.50856513983389 L 956.0664920764349 70.43958993560999 L 955.8847300561667 70.36978959116503 L 955.7045211664151 70.29917108647531 L 955.5258834279189 70.22774148333244 L 955.3488347043029 70.1555079246372 L 955.1733927002921 70.08247763368529 L 954.9995749599407 70.00865791344492 L 954.8273988648778 69.9340561458266 L 954.6568816325694 69.85867979094495 L 954.4880403145968 69.78253638637263 L 954.3208917949509 69.70563354638664 L 954.1554527883445 69.62797896120689 L 953.9917398385403 69.54958039622719 L 953.829769316697 69.47044569123871 L 953.6695574197317 69.39058275964601 L 953.5111201687006 69.30999958767568 L 953.3544734071968 69.22870423357777 L 953.1996327997659 69.14670482681996 L 953.0466138303395 69.06400956727457 L 952.8954318006873 68.98062672439866 L 952.746101828886 68.89656463640702 L 952.5986388478085 68.8118317094384 L 952.45305760363 68.72643641671489 L 952.3093726543535 68.6403872976946 L 952.1675983683543 68.55369295721772 L 952.0277489229429 68.46636206464606 L 951.8898383029472 68.37840335299609 L 951.7538802993141 68.28982561806569 L 951.619888507731 68.20063771755453 L 951.4878763272653 68.11084857017835 L 951.357856959025 68.02046715477704 L 951.2298434048384 67.92950250941684 L 951.1038484659546 67.83796373048648 L 950.9798847417622 67.74585997178757 L 950.8579646285306 67.65320044361923 L 950.7381003181691 67.55999441185705 L 950.6203037970092 67.46625119702654 L 950.5045868446048 67.37198017337107 L 950.3909610325545 67.27719076791445 L 950.2794377233452 67.18189245951821 L 950.1700280692145 67.08609477793381 L 950.0627430110368 66.98980730284956 L 949.9575932772285 66.89303966293272 L 949.8545893826755 66.79580153486665 L 949.7537416276812 66.69810264238313 L 949.6550600969371 66.59995275528999 L 949.5585546585141 66.50136168849414 L 949.4642349628757 66.40233930102012 L 949.3721104419127 66.30289549502413 L 949.2821903080005 66.20304021480393 L 949.1944835530776 66.1027834458043 L 949.1089989477463 66.00213521361863 L 949.025745040396 65.90110558298623 L 948.944730156348 65.799704656786 L 948.8659623970232 65.69794257502603 L 948.7894496391319 65.59582951382973 L 948.7151995338861 65.4933756844181 L 948.6432195062346 65.3905913320887 L 948.5735167541199 65.28748673519112 L 948.5060982477594 65.18407220409914 L 948.4409707289474 65.08035808017966 L 948.3781407103814 64.97635473475869 L 948.3176144750113 64.87207256808405 L 948.2593980754098 64.76752200828555 L 948.2034973331686 64.66271351033203 L 948.1499178383151 64.55765755498592 L 948.0986649487543 64.45236464775525 L 948.0497437897325 64.34684531784296 L 948.0031592533246 64.24111011709415 L 947.9589159979457 64.13516961894075 L 947.9170184478843 64.0290344173443 L 947.8774707928605 63.92271512573653 L 947.8402769876069 63.81622237595798 L 947.805440751473 63.70956681719489 L 947.7729655680533 63.602759114914264 L 947.7428546848394 63.49580994979732 L 947.7151111128941 63.38873001667144 L 947.6897376265517 63.28153002344071 L 947.6667367631397 63.17422069001512 L 947.6461108227253 63.066812747238586 L 947.6278618678851 62.959316935815885 L 947.6119917234997 62.85174400523857 L 947.5985019765702 62.74410471271006 L 947.58739397606 62.636409822069915 L 947.57866883276 62.52867010271744 L 947.572327419177 62.4208963285348 L 947.5683703694474 62.313099276809595 L 947.5667980792726 62.20528972715717 L 947.5676107058806 62.09747846044265 L 947.5708081680092 61.98967625770286 L 947.5763901459148 61.88189389906824 L 947.5843560814045 61.77414216268484 L 947.5947051778912 61.66643182363649 L 947.6074364004741 61.558773652867366 L 947.6225484760412 61.4511784161048 L 947.6400398933978 61.34365687278283 L 947.6599089034166 61.236219774966166 L 947.6821535192132 61.12887786627507 L 947.7067715163447 61.02164188081096 L 947.7337604330316 60.91452254208302 L 947.763117570405 60.807530561935856 L 947.7948399927756 60.70067663947832 L 947.8289245279275 60.593971460013606 L 947.8653677674355 60.487425693970756 L 947.9041660670063 60.381049995837586 L 947.9453155468419 60.27485500309525 L 947.988812092029 60.16885133515453 L 948.034651352949 60.06304959229389 L 948.0828287457142 59.95746035459945 L 948.1333394526255 59.852094180906974 L 948.186178422654 59.746961607746044 L 948.2413403719472 59.64207314828636 L 948.2988197843558 59.537439291286454 L 948.3586109119866 59.43307050004484 L 948.4207077757765 59.32897721135367 L 948.485104166091 59.22516983445505 L 948.5517936433448 59.12165875000019 L 948.6207695386456 59.01845430901127 L 948.6920249544614 58.91556683184637 L 948.7655527653101 58.81300660716748 L 948.8413456184717 58.7107838909116 L 948.9193959347241 58.60890890526517 L 948.9996959091009 58.507391837641855 L 949.0822375116712 58.406242839663825 L 949.167012488344 58.30547202614659 L 949.2540123616919 58.205089474087515 L 949.3432284318003 58.105105221658164 L 949.4346517771364 58.00552926720046 L 949.528273255442 57.90637156822687 L 949.6240835046469 57.807642040424646 L 949.7220729438066 57.709350556664305 L 949.8222317740584 57.61150694601232 L 949.924549979603 57.514120992748204 L 950.0290173287048 57.417202435386145 L 950.1356233747163 57.320760965701105 L 950.2443574571215 57.224806227759686 L 950.3552087026028 57.12934781695572 L 950.4681660261282 57.03439527905074 L 950.5832181320593 56.93995810921942 L 950.7003535152814 56.84604575110002 L 950.8195604623538 56.75266759585011 L 950.9408270526812 56.65983298120741 L 951.0641411597057 56.567551190555996 L 951.1894904521191 56.47583145199805 L 951.3168623950968 56.384682937430995 L 951.4462442515506 56.29411476163032 L 951.5776230834027 56.20413598133814 L 951.7109857528793 56.1147555943575 L 951.8463189238247 56.02598253865261 L 951.9836090630346 55.937825691455075 L 952.1228424416094 55.85029386837614 L 952.2640051363272 55.763395822525176 L 952.4070830310363 55.677140243634355 L 952.5520618180665 55.591535757189675 L 952.6989269996598 55.50659092356846 L 952.8476638894205 55.42231423718327 L 952.9982576137834 55.33871412563253 L 953.1506931135018 55.25579894885771 L 953.3049551451526 55.1735769983074 L 953.4610282826612 55.092056496108135 L 953.618896918844 55.01124559424221 L 953.778545266969 54.93115237373246 L 953.9399573623341 54.851784843834196 L 954.1031170638646 54.77315094123426 L 954.2680080557261 54.6952585292574 L 954.434613848957 54.61811539707989 L 954.6029177831168 54.54172925895067 L 954.7729030279521 54.46610775341989 L 954.9445525850804 54.391258442575094 L 955.1178492896888 54.317188811284986 L 955.2927758122513 54.24390626645098 L 955.4693146602615 54.171418136266475 L 955.6474481799816 54.09973166948409 L 955.8271585582081 54.028854034690774 L 956.008427824053 53.95879231959093 L 956.1912378507407 53.88955353029769 L 956.3755703574209 53.82114459063227 L 956.5614069109967 53.753572341431656 L 956.7487289279672 53.68684353986444 L 956.9375176762871 53.62096485875517 L 957.127754277239 53.55594288591707 L 957.3194197073211 53.49178412349323 L 957.5124948001502 53.42849498730643 L 957.7069602483779 53.366081806217544 L 957.9027966056215 53.304550821492676 L 958.0999842884082 53.24390818617902 L 958.2985035781345 53.18415996448957 L 958.4983346230365 53.12531213119671 L 958.6994574401763 53.067370571034715 L 958.9018519174399 53.01034107811134 L 959.1054978155482 52.95422935532834 L 959.310374770081 52.89904101381123 L 959.5164622935137 52.84478157234818 L 959.7237397772656 52.79145645683812 L 959.932186493761 52.73907099974815 L 960.1417815985022 52.687630439580346 L 960.3525041321532 52.637139920347835 L 960.5643330226362 52.58760449106049 L 960.7772470872388 52.53902910521993 L 960.991225034732 52.49141862032429 L 961.2062454674992 52.444777797382365 L 961.4222868836764 52.399111300437596 L 961.6393276793019 52.354423696101605 L 961.8573461504773 52.3107194530976 L 962.0763204955368 52.26800294181345 L 962.2962288172287 52.2262784338647 L 962.5170491249038 52.18555010166736 L 962.7387593367155 52.14582201802072 L 962.9613372818274 52.10709815570004 L 963.1847607026303 52.06938238705927 L 963.4090072569685 52.032678483643856 L 963.6340545203734 51.996990115813546 L 963.8598799883061 51.96232085237539 L 964.0864610784082 51.928674160226834 L 964.3137751327594 51.89605340400906 L 964.5417994201434 51.8644618457705 L 964.7705111383219 51.833902644640645 L 964.9998874163135 51.80437885651416 L 965.2299053166817 51.775893433745246 L 965.4605418378278 51.74844922485244 L 965.6917739162922 51.722048974233765 L 965.9235784290595 51.69669532189228 L 966.1559321958719 51.672390803172085 L 966.388811981546 51.649137848504814 L 966.6221944982976 51.626938783166544 L 966.8560564080694 51.60579582704531 L 967.0903743248653 51.58571109441911 L 967.3251248170887 51.56668659374447 L 967.5602844098863 51.54872422745561 L 967.7958295874947 51.53182579177417 L 968.0317367955923 51.515992976529645 L 968.2679824436551 51.50122736499037 L 968.5045429073149 51.4875304337052 L 968.7413945307227 51.47490355235584 L 968.9785136289133 51.4633479836199 L 969.2158764901748 51.45286488304463 L 969.4534593784185 51.443455298931354 L 969.6912385355538 51.43512017223063 L 969.9291901838632 51.4278603364482 L 970.1672905283799 51.42167651756158 L 970.405515759268 51.41656933394751 L 970.6438420542031 51.41253929632009 L 970.8822455807541 51.40958680767973 L 971.120702498767 51.407712163272826 L 971.3591889627488 51.40691555056227 L 971.5976811242518 51.40719704920866 L 971.8361551342587 51.40855663106237 L 972.0745871455671 51.41099416016634 L 972.3129533151746 51.414509392769695 L 972.5512298066628 51.419101977352106 L 972.7893927925813 51.42477145465894 L 973.0274184568299 51.431517257747196 L 973.2652829970403 51.43933871204218 L 973.502962626957 51.44823503540498 L 973.7404335788151 51.45820533821068 L 973.977672105717 51.4692486234373 L 974.214654484008 51.48136378676553 L 974.4513570156475 51.49454961668913 L 974.6877560305799 51.50880479463608 L 974.9238278891005 51.524127895100484 L 975.1595489842201 51.54051738578506 L 975.3948957440258 51.5579716277544 L 975.6298446340377 51.57648887559884 L 975.8643721595624 51.59606727760904 L 976.0984548680432 51.6167048759611 L 976.3320693514039 51.6383996069124 L 976.565192248391 51.66114930100791 L 976.7978002469091 51.684951683297186 L 977.0298700863522 51.70980437356183 L 977.2613785599297 51.735704886553535 L 977.4923025169871 51.76265063224257 L 977.7226188653214 51.79063891607683 L 977.9523045734893 51.81966693925126 L 978.1813366731117 51.849731798987726 L 978.4096922611693 51.88083048882531 L 978.6373485022938 51.91295989892094 L 978.8642826310505 51.94611681636038 L 979.0904719542159 51.980297925479526 L 979.3158938530462 52.01549980819594 L 979.5405257855391 52.0517189443507 L 979.7643452886888 52.08895171206036 L 979.9873299807314 52.127194388079175 L 980.2094575633834 52.16644314817141 L 980.4307058240719 52.20669406749378 L 980.651052638155 52.247943120987884 L 980.8704759711349 52.29018618378274 L 981.0889538808613 52.33341903160728 L 981.3064645197252 52.37763734121275 L 981.522986136844 52.422836690805035 L 981.7384970802364 52.46901256048684 L 981.9529757989876 52.516160332709674 L 982.1664008454046 52.564275292735616 L 982.3787508771605 52.613352629108746 L 982.5900046594293 52.663387434136325 L 982.8001410670084 52.71437470437956 L 983.0091390864325 52.7663093411539 L 983.2169778180737 52.819186151038956 L 983.423636478232 52.8729998463978 L 983.6290944012137 52.92774504590574 L 983.8333310413976 52.983416275088445 L 984.03632597529 53.040007966869396 L 984.2380589035665 53.09751446212657 L 984.4385096531026 53.15593001025836 L 984.6376581789903 53.21524876975863 L 984.8354845665428 53.27546480880087 L 985.0319690332865 53.33657210583136 L 985.2270919309383 53.3985645501713 L 985.420833747371 53.461435942627936 L 985.6131751085644 53.52517999611441 L 985.8040967805429 53.58979033627848 L 985.993579671298 53.655260502139996 L 986.1816048326989 53.721583946736914 L 986.368153462386 53.78875403778004 L 986.5532069056517 53.85676405831625 L 986.736746657306 53.92560720740017 L 986.9187543635267 53.995276600774254 L 987.0992118236948 54.065765271557225 L 987.2781009922146 54.13706617094075 L 987.4554039803184 54.2091721688943 L 987.6311030578552 54.28207605487816 L 987.8051806550635 54.35577053856451 L 987.9776193643288 54.43024825056637 L 988.1484019419238 54.50550174317461 L 988.317511309733 54.581523491102686 L 988.4849305569606 54.658305892239156 L 988.6506429418215 54.73584126840789 L 988.8146318932152 54.81412186613588 L 988.9768810123832 54.89313985742859 L 989.1373740745488 54.97288734055273 L 989.2960950305396 55.05335634082646 L 989.4530280083922 55.1345388114168 L 989.6081573149395 55.21642663414435 L 989.7614674373804 55.29901162029506 L 989.9129430448301 55.38228551143916 L 990.0625689898542 55.46623998025691 L 990.210330309983 55.55086663137139 L 990.3562122292075 55.63615700218803 L 990.5002001594573 55.722102563740805 L 990.6422797020596 55.80869472154519 L 990.7824366491783 55.89592481645755 L 990.9206569852355 55.98378412554111 L 991.0569268883129 56.07226386293816 L 991.1912327315337 56.1613551807487 L 991.3235610844255 56.251049169915184 L 991.4538987142631 56.34133686111345 L 991.5822325873925 56.4322092256496 L 991.7085498705331 56.52365717636293 L 991.8328379320618 56.615671568534566 L 991.9550843432762 56.70824320080196 L 992.0752768796369 56.80136281607904 L 992.1934035219906 56.89502110248188 L 992.3094524577713 56.98920869425987 L 992.4234120821822 57.083916172732344 L 992.5352709993558 57.17913406723036 L 992.6450180234937 57.27485285604382 L 992.7526421799848 57.37106296737362 L 992.8581327065033 57.467754780288786 L 992.9614790540843 57.56491862568861 L 993.0626708881792 57.662544787269525 L 993.1616980896891 57.76062350249672 L 993.2585507559761 57.859144963580405 L 993.3532192018545 57.95809931845658 L 993.4456939605584 58.05747667177222 L 993.5359657846892 58.15726708587479 L 993.6240256471395 58.257460581806065 L 993.7098647419966 58.358047140299924 L 993.7934744854226 58.459016702784346 L 993.8748465165125 58.56035917238722 L 993.9539726981315 58.66206441494605 L 994.0308451177269 58.764122260021324 L 994.1054560881211 58.866522501913586 L 994.1777981482792 58.96925490068398 L 994.2478640640553 59.072309183178234 L 994.3156468289163 59.17567504405398 L 994.3811396646423 59.279342146811274 L 994.4443360220041 59.38330012482622 L 994.5052295814189 59.48753858238766 L 994.5638142535813 59.59204709573668 L 994.6200841800729 59.69681521410906 L 994.6740337339481 59.80183246078026 L 994.7256575202964 59.907088334113126 L 994.774950376782 60.012572308608036 L 994.8219073741607 60.11827383595545 L 994.8665238167715 60.22418234609071 L 994.9087952430076 60.33028724825106 L 994.9487174257614 60.43657793203471 L 994.9862863728481 60.54304376846186 L 995.0214983274041 60.64967411103757 L 995.0543497682634 60.75645829681646 L 995.0848374103093 60.86338564746893 L 995.112958204803 60.97044547034902 L 995.1387093396884 61.07762705956367 L 995.1620882398736 61.184919697043256 L 995.1830925674878 61.29231265361346 L 995.2017202221161 61.399795190068104 L 995.2179693410084 61.50735655824312 L 995.2318382992663 61.614986002091314 L 995.2433257100056 61.72267275875801 L 995.2524304244947 61.830406059657264 L 995.2591515322699 61.93817513154877 L 995.2634883612259 62.04596919761514 L 995.2654404776835 62.15377747853961 M 995.2655614677394 96.4920458931 L 995.2643690078357 96.59985643801662 L 995.2607917473697 96.70765620196859 L 995.2548300440644 96.81543440506935 L 995.246484494085 96.9231802695884 L 995.2357559319798 97.03088302102908 L 995.222645430596 97.138531889206 L 995.2071543009728 97.24611610932205 L 995.1892840922102 97.35362492304485 L 995.1690365913141 97.46104757958265 L 995.146413823018 97.5683733367593 L 995.1214180495796 97.67559146208852 L 995.0940517705556 97.78269123384712 L 995.064317722551 97.88966194214719 L 995.0322188789459 97.99649289000702 L 994.9977584495978 98.10317339442086 L 994.960939880521 98.20969278742717 L 994.9217668535416 98.31604041717543 L 994.8802432859299 98.42220564899125 L 994.8363733300079 98.52817786643996 L 994.7901613727345 98.6339464723881 L 994.7416120352672 98.73950089006323 L 994.6907301724991 98.84483056411152 L 994.6375208725742 98.94992496165337 L 994.581989456378 99.05477357333659 L 994.524141477006 99.15936591438738 L 994.4639827192078 99.2636915256588 L 994.4015191988092 99.36773997467667 L 994.33675716211 99.47150085668278 L 994.26970308526 99.5749637956754 L 994.200363673611 99.67811844544686 L 994.1287458610464 99.78095449061813 L 994.0548568092877 99.8834616476704 L 993.9787039071787 99.98562966597338 L 993.9002947699458 100.08744832881038 L 993.8196372384377 100.18890745439998 L 993.7367393783403 100.28999689691415 L 993.6516094793704 100.39070654749288 L 993.564256054447 100.49102633525506 L 993.4746878388398 100.59094622830548 L 993.3829137892958 100.69045623473812 L 993.2889430831433 100.78954640363527 L 993.1927851173748 100.8882068260626 L 993.0944495077067 100.9864276360601 L 992.9939460876178 101.0841990116286 L 992.8912849073668 101.18151117571202 L 992.7864762329857 101.27835439717506 L 992.6795305452548 101.37471899177628 L 992.5704585386538 101.4705953231365 L 992.4592711202926 101.56597380370249 L 992.34597940882 101.6608448957057 L 992.2305947333131 101.75519911211595 L 992.113128632143 101.84902701759025 L 991.9935928518221 101.94231922941623 L 991.8719993458288 102.03506641845047 L 991.7483602734125 102.12725931005133 L 991.622687998377 102.2188886850065 L 991.4949950878456 102.30994538045483 L 991.3652943110026 102.40042029080266 L 991.2335986378176 102.49030436863434 L 991.0999212377484 102.579588625617 L 990.9642754784235 102.66826413339936 L 990.8266749243056 102.75632202450451 L 990.6871333353357 102.84375349321674 L 990.5456646655564 102.93054979646202 L 990.4022830617166 103.01670225468237 L 990.2570028618575 103.10220225270375 L 990.1098385938776 103.18704124059762 L 989.9608049740815 103.27121073453588 L 989.8099169057066 103.3547023176393 L 989.6571894774343 103.4375076408191 L 989.50263796188 103.51961842361202 L 989.3462778140665 103.60102645500817 L 989.1881246698782 103.68172359427226 L 989.0281943444979 103.7617017717576 L 988.8665028308247 103.84095298971312 L 988.7030662978755 103.91946932308304 L 988.5379010891669 103.99724292029944 L 988.3710237210826 104.07426600406745 L 988.2024508812201 104.15053087214287 L 988.032199426723 104.22602989810241 L 987.8602863825948 104.30075553210642 L 987.6867289399968 104.37470030165377 L 987.5115444545285 104.44785681232914 L 987.3347504444924 104.52021774854238 L 987.1563645891424 104.59177587426021 L 986.9764047269151 104.66252403372968 L 986.7948888536471 104.73245515219378 L 986.6118351207741 104.80156223659897 L 986.4272618335172 104.86983837629438 L 986.2411874490509 104.93727674372295 L 986.053630574659 105.0038705951041 L 985.8646099658723 105.06961327110824 L 985.6741445245945 105.13449819752252 L 985.4822532972106 105.19851888590837 L 985.2889554726838 105.26166893425032 L 985.0942703806353 105.32394202759615 L 984.8982174894121 105.38533193868841 L 984.7008164041399 105.44583252858716 L 984.5020868647629 105.50543774728384 L 984.3020487440691 105.56414163430621 L 984.1007220457042 105.62193831931454 L 983.8981269021701 105.67882202268845 L 983.6942835728123 105.73478705610502 L 983.489212441794 105.78982782310756 L 983.2829340160573 105.84393881966523 L 983.075468923273 105.89711463472344 L 982.8668379097772 105.94934995074503 L 982.6570618384978 106.00063954424192 L 982.4461616868668 106.0509782862975 L 982.2341585447238 106.1003611430795 L 982.0210736122061 106.14878317634341 L 981.8069281976298 106.19623954392625 L 981.5917437153574 106.2427255002308 L 981.3755416836582 106.2882363967002 L 981.1583437225551 106.33276768228268 L 980.9401715516631 106.37631490388682 L 980.7210469880175 106.41887370682676 L 980.5009919438921 106.46043983525765 L 980.2800284246081 106.50100913260128 L 980.0581785263331 106.54057754196174 L 979.8354644338721 106.57914110653107 L 979.6119084184486 106.61669596998493 L 979.3875328354782 106.65323837686829 L 979.1623601223318 106.6887646729709 L 978.9364127960935 106.72327130569276 L 978.7097134513073 106.75675482439937 L 978.4822847577188 106.78921188076673 L 978.254149458008 106.82063922911627 L 978.0253303655147 106.85103372673933 L 977.7958503619574 106.8803923342115 L 977.5657323951453 106.90871211569649 L 977.3349994766833 106.93599023923973 L 977.1036746796709 106.96222397705162 L 976.871781136395 106.98741070578025 L 976.639342036017 107.0115479067737 L 976.4063806222529 107.03463316633201 L 976.1729201910499 107.05666417594847 L 975.9389840882569 107.07763873254045 L 975.704595707289 107.09755473866979 L 975.469778486789 107.11641020275246 L 975.2345559082834 107.13420323925777 L 974.9989514938337 107.1509320688969 L 974.7629888036854 107.16659501880085 L 974.5266914339107 107.18119052268763 L 974.2900830140497 107.19471712101905 L 974.0531872047471 107.20717346114655 L 973.8160276953867 107.21855829744648 L 973.5786282017215 107.22887049144471 L 973.341012463503 107.23810901193042 L 973.1032042421074 107.24627293505928 L 972.8652273181583 107.25336144444577 L 972.6271054891499 107.25937383124486 L 972.3888625670668 107.26430949422287 L 972.1505223760024 107.26816793981763 L 971.9121087497774 107.27094878218779 L 971.6736455295556 107.27265174325143 L 971.4351565614605 107.27327665271386 L 971.19666569419 107.27282344808465 L 970.9581967766321 107.27129217468391 L 970.7197736554799 107.26868298563768 L 970.4814201728469 107.2649961418627 L 970.2431601638825 107.26023201204026 L 970.0050174543893 107.2543910725794 L 969.7670158584397 107.24747390756917 L 969.5291791759948 107.23948120872033 L 969.2915311905249 107.23041377529609 L 969.0540956666304 107.22027251403225 L 968.8168963476656 107.20905843904646 L 968.5799569533652 107.1967726717369 L 968.343301177471 107.18341644067004 L 968.1069526853631 107.16899108145788 L 967.870935111694 107.15349803662431 L 967.6352720580245 107.1369388554609 L 967.3999870904634 107.11931519387196 L 967.1651037373114 107.10062881420897 L 966.930645486708 107.08088158509435 L 966.6966357842832 107.0600754812345 L 966.4630980308118 107.03821258322252 L 966.2300555798749 107.01529507732995 L 965.9975317355232 106.99132525528832 L 965.7655497499474 106.96630551405984 L 965.5341328211528 106.94023835559778 L 965.3033040906392 106.91312638659626 L 965.0730866410877 106.88497231822961 L 964.8435034940511 106.85577896588119 L 964.6145776076528 106.8255492488619 L 964.3863318742908 106.79428619011826 L 964.1587891183482 106.76199291593008 L 963.9319720939109 106.72867265559789 L 963.7059034824924 106.69432874111995 L 963.4806058907654 106.65896460685907 L 963.2561018483013 106.62258378919921 L 963.0324138053174 106.58518992619184 L 962.8095641304316 106.5467867571921 L 962.5875751084254 106.50737812248485 L 962.3664689380164 106.46696796290075 L 962.146267729637 106.42556031942208 L 961.9269935032248 106.38315933277867 L 961.7086681860196 106.33976924303387 L 961.4913136103712 106.29539438916049 L 961.2749515115562 106.25003920860692 L 961.0596035256038 106.20370823685344 L 960.8452911871336 106.15640610695861 L 960.6320359272005 106.108137549096 L 960.419859071153 106.05890739008117 L 960.2087818364997 106.00872055288902 L 959.9988253307883 105.9575820561614 L 959.7900105494945 105.90549701370541 L 959.5823583739221 105.85247063398188 L 959.375889569116 105.79850821958458 L 959.1706247817843 105.74361516670999 L 958.9665845382349 105.68779696461766 L 958.7637892423219 105.63105919508126 L 958.5622591734061 105.5734075318305 L 958.3620144843264 105.51484773998365 L 958.1630751993848 105.45538567547108 L 957.965461212344 105.3950272844497 L 957.7691922844382 105.33377860270829 L 957.5742880423963 105.27164575506403 L 957.3807679764805 105.20863495474987 L 957.1886514385357 105.14475250279335 L 956.9979576400559 105.08000478738643 L 956.8087056502619 105.01439828324668 L 956.620914394195 104.94793955096986 L 956.4346026508243 104.8806352363738 L 956.2497890511689 104.8124920698339 L 956.0664920764349 104.74351686560999 L 955.8847300561667 104.67371652116503 L 955.7045211664151 104.6030980164753 L 955.5258834279189 104.53166841333243 L 955.3488347043029 104.4594348546372 L 955.1733927002921 104.38640456368528 L 954.9995749599407 104.31258484344491 L 954.8273988648778 104.2379830758266 L 954.6568816325694 104.16260672094495 L 954.4880403145968 104.08646331637262 L 954.3208917949509 104.00956047638662 L 954.1554527883445 103.93190589120688 L 953.9917398385403 103.85350732622719 L 953.829769316697 103.77437262123871 L 953.6695574197317 103.694509689646 L 953.5111201687006 103.61392651767568 L 953.3544734071968 103.53263116357778 L 953.1996327997659 103.45063175681996 L 953.0466138303395 103.36793649727457 L 952.8954318006873 103.28455365439865 L 952.746101828886 103.20049156640701 L 952.5986388478085 103.1157586394384 L 952.45305760363 103.03036334671489 L 952.3093726543535 102.94431422769459 L 952.1675983683543 102.85761988721772 L 952.0277489229429 102.77028899464605 L 951.8898383029472 102.68233028299609 L 951.7538802993141 102.5937525480657 L 951.619888507731 102.50456464755453 L 951.4878763272653 102.41477550017834 L 951.357856959025 102.32439408477703 L 951.2298434048384 102.23342943941684 L 951.1038484659546 102.14189066048647 L 950.9798847417622 102.04978690178756 L 950.8579646285306 101.95712737361922 L 950.7381003181691 101.86392134185704 L 950.6203037970092 101.77017812702654 L 950.5045868446048 101.67590710337106 L 950.3909610325545 101.58111769791444 L 950.2794377233452 101.48581938951821 L 950.1700280692145 101.39002170793381 L 950.0627430110368 101.29373423284954 L 949.9575932772285 101.19696659293271 L 949.8545893826755 101.09972846486664 L 949.7537416276812 101.00202957238312 L 949.6550600969371 100.90387968528998 L 949.5585546585141 100.80528861849413 L 949.4642349628757 100.70626623102011 L 949.3721104419127 100.60682242502413 L 949.2821903080005 100.50696714480392 L 949.1944835530776 100.40671037580431 L 949.1089989477463 100.30606214361863 L 949.025745040396 100.20503251298624 L 948.944730156348 100.103631586786 L 948.8659623970232 100.00186950502604 L 948.7894496391319 99.89975644382972 L 948.7151995338861 99.79730261441809 L 948.6432195062346 99.69451826208869 L 948.5735167541199 99.59141366519111 L 948.5060982477594 99.48799913409913 L 948.4409707289474 99.38428501017967 L 948.3781407103814 99.28028166475868 L 948.3176144750113 99.17599949808405 L 948.2593980754098 99.07144893828554 L 948.2034973331686 98.96664044033201 L 948.1499178383151 98.86158448498593 L 948.0986649487543 98.75629157775525 L 948.0497437897325 98.65077224784297 L 948.0031592533246 98.54503704709414 L 947.9589159979457 98.43909654894075 L 947.9170184478843 98.33296134734431 L 947.8774707928605 98.22664205573652 L 947.8402769876069 98.12014930595798 L 947.805440751473 98.01349374719489 L 947.7729655680533 97.90668604491427 L 947.7428546848394 97.79973687979731 L 947.7151111128941 97.69265694667143 L 947.6897376265517 97.58545695344071 L 947.6667367631397 97.47814762001512 L 947.6461108227253 97.37073967723859 L 947.6278618678851 97.26324386581588 L 947.6119917234997 97.15567093523856 L 947.5985019765702 97.04803164271006 L 947.58739397606 96.94033675206991 L 947.57866883276 96.83259703271744 L 947.572327419177 96.7248232585348 L 947.5683703694474 96.6170262068096 L 947.5667980792726 96.50921665715717" stroke-miterlimit="10" stroke-width="2.7769845610000004" stroke-dasharray=""/></g><g><text fill="black" stroke="none" font-family="sans-serif" font-size="11pt" font-style="normal" font-weight="normal" text-decoration="normal" x="940.0382197034504" y="124.80095321200001" text-anchor="start" dominant-baseline="alphabetic" xml:space="preserve">Database</text></g></g><g><path fill="white" stroke="black" paint-order="fill stroke markers" d=" M 340.3186975839193 183.607685092 L 356.6539008839193 183.607685092 L 356.6539008839193 1033.0382566919998 L 340.3186975839193 1033.0382566919998 L 340.3186975839193 183.607685092" stroke-miterlimit="10" stroke-width="1.3612669416666667" stroke-dasharray=""/><path fill="white" stroke="black" paint-order="fill stroke markers" d=" M 576.2129781735025 229.346254332 L 592.5481814735026 229.346254332 L 592.5481814735026 987.2996874519998 L 576.2129781735025 987.2996874519998 L 576.2129781735025 229.346254332" stroke-miterlimit="10" stroke-width="1.3612669416666667" stroke-dasharray=""/><path fill="white" stroke="black" paint-order="fill stroke markers" d=" M 762.429462463867 275.084823572 L 778.7646657638671 275.084823572 L 778.7646657638671 412.300531292 L 762.429462463867 412.300531292 L 762.429462463867 275.084823572" stroke-miterlimit="10" stroke-width="1.3612669416666667" stroke-dasharray=""/><path fill="white" stroke="black" paint-order="fill stroke markers" d=" M 963.2485629997394 320.823392812 L 979.5837662997395 320.823392812 L 979.5837662997395 366.561962052 L 963.2485629997394 366.561962052 L 963.2485629997394 320.823392812" stroke-miterlimit="10" stroke-width="1.3612669416666667" stroke-dasharray=""/><path fill="white" stroke="black" paint-order="fill stroke markers" d=" M 584.3805798235026 479.27486482200004 L 600.7157831235027 479.27486482200004 L 600.7157831235027 525.013434062 L 584.3805798235026 525.013434062 L 584.3805798235026 479.27486482200004" stroke-miterlimit="10" stroke-width="1.3612669416666667" stroke-dasharray=""/><path fill="white" stroke="black" paint-order="fill stroke markers" d=" M 762.429462463867 788.0102071919999 L 778.7646657638671 788.0102071919999 L 778.7646657638671 925.2259149119998 L 762.429462463867 925.2259149119998 L 762.429462463867 788.0102071919999" stroke-miterlimit="10" stroke-width="1.3612669416666667" stroke-dasharray=""/><path fill="white" stroke="black" paint-order="fill stroke markers" d=" M 963.2485629997394 833.7487764319999 L 979.5837662997395 833.7487764319999 L 979.5837662997395 879.4873456719998 L 963.2485629997394 879.4873456719998 L 963.2485629997394 833.7487764319999" stroke-miterlimit="10" stroke-width="1.3612669416666667" stroke-dasharray=""/><g><g><rect fill="white" stroke="none" x="92.83840542166668" y="162.371920802" width="228.15030159058594" height="21.23576429"/></g><text fill="black" stroke="none" font-family="sans-serif" font-size="11pt" font-style="normal" font-weight="normal" text-decoration="normal" x="95.28868591666668" y="177.07360377199998" text-anchor="start" dominant-baseline="alphabetic" xml:space="preserve">Click to Start new semester button</text></g><g><path fill="none" stroke="black" paint-order="fill stroke markers" d=" M 73.50841485 183.607685092 L 326.86938020025264 183.607685092" stroke-miterlimit="10" stroke-width="1.3612669416666667" stroke-dasharray=""/><g transform="translate(340.3186975839193,183.607685092) translate(-340.3186975839193,-183.607685092)"><path fill="black" stroke="none" paint-order="stroke fill markers" d=" M 326.7060281672526 176.80135038366666 L 340.3186975839193 183.607685092 L 326.7060281672526 190.41401980033334 Z"/></g></g><g><g><rect fill="white" stroke="none" x="384.9602708501171" y="208.110490042" width="162.9463373571875" height="21.23576429"/></g><text fill="black" stroke="none" font-family="sans-serif" font-size="11pt" font-style="normal" font-weight="normal" text-decoration="normal" x="387.41055134511714" y="222.812173012" text-anchor="start" dominant-baseline="alphabetic" xml:space="preserve">GET: /api/term/start-new</text></g><g><path fill="none" stroke="black" paint-order="fill stroke markers" d=" M 356.6539008839193 229.346254332 L 562.7636607898359 229.346254332" stroke-miterlimit="10" stroke-width="1.3612669416666667" stroke-dasharray=""/><g transform="translate(576.2129781735025,229.346254332) translate(-576.2129781735025,-229.346254332)"><path fill="black" stroke="none" paint-order="stroke fill markers" d=" M 562.6003087568358 222.53991962366666 L 576.2129781735025 229.346254332 L 562.6003087568358 236.15258904033334 Z"/></g></g><g><g><rect fill="white" stroke="none" x="619.236844696341" y="253.849059282" width="116.5039545446875" height="21.23576429"/></g><text fill="black" stroke="none" font-family="sans-serif" font-size="11pt" font-style="normal" font-weight="normal" text-decoration="normal" x="621.687125191341" y="268.550742252" text-anchor="start" dominant-baseline="alphabetic" xml:space="preserve">getCurrentTerm()</text></g><g><path fill="none" stroke="black" paint-order="fill stroke markers" d=" M 592.5481814735026 275.084823572 L 748.9801450802004 275.084823572" stroke-miterlimit="10" stroke-width="1.3612669416666667" stroke-dasharray=""/><g transform="translate(762.429462463867,275.084823572) translate(-762.429462463867,-275.084823572)"><path fill="black" stroke="none" paint-order="stroke fill markers" d=" M 748.8167930472003 268.27848886366667 L 762.429462463867 275.084823572 L 748.8167930472003 281.89115828033334 Z"/></g></g><g><g><rect fill="white" stroke="none" x="798.0946563355337" y="299.587628522" width="145.82391609253906" height="21.23576429"/></g><text fill="black" stroke="none" font-family="sans-serif" font-size="11pt" font-style="normal" font-weight="normal" text-decoration="normal" x="800.5449368305337" y="314.28931149199997" text-anchor="start" dominant-baseline="alphabetic" xml:space="preserve">getCurrentTerm(term)</text></g><g><path fill="none" stroke="black" paint-order="fill stroke markers" d=" M 778.7646657638671 320.823392812 L 949.7992456160728 320.823392812" stroke-miterlimit="10" stroke-width="1.3612669416666667" stroke-dasharray=""/><g transform="translate(963.2485629997394,320.823392812) translate(-963.2485629997394,-320.823392812)"><path fill="black" stroke="none" paint-order="stroke fill markers" d=" M 949.6358935830727 314.01705810366667 L 963.2485629997394 320.823392812 L 949.6358935830727 327.62972752033335 Z"/></g></g><g><g><rect fill="white" stroke="none" x="825.7897018067251" y="345.326197762" width="90.43382515015625" height="21.23576429"/></g><text fill="black" stroke="none" font-family="sans-serif" font-size="11pt" font-style="normal" font-weight="normal" text-decoration="normal" x="828.2399823017251" y="360.02788073199997" text-anchor="start" dominant-baseline="alphabetic" xml:space="preserve">Current Term</text></g><g><path fill="none" stroke="black" paint-order="fill stroke markers" d=" M 963.2485629997394 366.561962052 L 792.2139831475338 366.561962052" stroke-miterlimit="10" stroke-width="1.3612669416666667" stroke-dasharray="6.53408132"/><g transform="translate(778.7646657638671,366.561962052) translate(-778.7646657638671,-366.561962052)"><path fill="black" stroke="none" paint-order="stroke fill markers" d=" M 792.3773351805338 359.7556273436667 L 778.7646657638671 366.561962052 L 792.3773351805338 373.36829676033335 Z"/></g></g><g><g><rect fill="white" stroke="none" x="632.2719093936066" y="391.064767002" width="90.43382515015625" height="21.23576429"/></g><text fill="black" stroke="none" font-family="sans-serif" font-size="11pt" font-style="normal" font-weight="normal" text-decoration="normal" x="634.7221898886066" y="405.766449972" text-anchor="start" dominant-baseline="alphabetic" xml:space="preserve">Current Term</text></g><g><path fill="none" stroke="black" paint-order="fill stroke markers" d=" M 762.429462463867 412.300531292 L 605.9974988571693 412.300531292" stroke-miterlimit="10" stroke-width="1.3612669416666667" stroke-dasharray="6.53408132"/><g transform="translate(592.5481814735026,412.300531292) translate(-592.5481814735026,-412.300531292)"><path fill="black" stroke="none" paint-order="stroke fill markers" d=" M 606.1608508901693 405.4941965836667 L 592.5481814735026 412.300531292 L 606.1608508901693 419.10686600033335 Z"/></g></g><g><g><rect fill="white" stroke="none" x="620.0457736951693" y="436.80333624200006" width="101.85113777222656" height="21.23576429"/></g><text fill="black" stroke="none" font-family="sans-serif" font-size="11pt" font-style="normal" font-weight="normal" text-decoration="normal" x="622.4960541901693" y="451.50501921200004" text-anchor="start" dominant-baseline="alphabetic" xml:space="preserve">getTermState()</text></g><g><path fill="none" stroke="black" paint-order="fill stroke markers" d=" M 592.5481814735026 458.039100532 L 666.0565963235025 458.039100532 L 666.0565963235025 479.27486482200004 L 614.1651005071692 479.27486482200004" stroke-miterlimit="10" stroke-width="1.3612669416666667" stroke-dasharray=""/><g transform="translate(600.7157831235025,479.27486482200004) translate(-600.7157831235025,-479.27486482200004)"><path fill="black" stroke="none" paint-order="stroke fill markers" d=" M 614.3284525401692 472.4685301136667 L 600.7157831235025 479.27486482200004 L 614.3284525401692 486.0811995303334 Z"/></g></g><g><g><rect fill="white" stroke="none" x="620.0457736951693" y="503.777669772" width="75.78100837769531" height="21.23576429"/></g><text fill="black" stroke="none" font-family="sans-serif" font-size="11pt" font-style="normal" font-weight="normal" text-decoration="normal" x="622.4960541901693" y="518.4793527420001" text-anchor="start" dominant-baseline="alphabetic" xml:space="preserve">Term State</text></g><g><path fill="none" stroke="black" paint-order="fill stroke markers" d=" M 600.7157831235025 525.013434062 L 666.0565963235025 525.013434062 L 666.0565963235025 546.249198352 L 605.9974988571691 546.249198352" stroke-miterlimit="10" stroke-width="1.3612669416666667" stroke-dasharray="6.53408132"/><g transform="translate(592.5481814735025,546.249198352) translate(-592.5481814735025,-546.249198352)"><path fill="black" stroke="none" paint-order="stroke fill markers" d=" M 606.1608508901692 539.4428636436667 L 592.5481814735025 546.249198352 L 606.1608508901692 553.0555330603333 Z"/></g></g><g><g><rect fill="white" stroke="none" x="397.1757173222851" y="614.8570522119999" width="138.51544441285156" height="21.23576429"/></g><text fill="red" stroke="none" font-family="sans-serif" font-size="11pt" font-style="normal" font-weight="normal" text-decoration="normal" x="399.6259978172851" y="629.5587351819999" text-anchor="start" dominant-baseline="alphabetic" xml:space="preserve">400 BAD REQUEST</text></g><g><path fill="none" stroke="black" paint-order="fill stroke markers" d=" M 576.2129781735025 636.0928165019999 L 370.10321826758593 636.0928165019999" stroke-miterlimit="10" stroke-width="1.3612669416666667" stroke-dasharray="6.53408132"/><g transform="translate(356.6539008839193,636.0928165019999) translate(-356.6539008839193,-636.0928165019999)"><path fill="black" stroke="none" paint-order="stroke fill markers" d=" M 370.26657030058595 629.2864817936666 L 356.6539008839193 636.0928165019999 L 370.26657030058595 642.8991512103332 Z"/></g></g><g><g><rect fill="white" stroke="none" x="123.80475216238933" y="660.5956214519999" width="120.5984369665625" height="21.23576429"/></g><g><rect fill="white" stroke="none" x="123.80475216238933" y="676.9308247519999" width="166.21760810914063" height="21.23576429"/></g><text fill="black" stroke="none" font-family="sans-serif" font-size="11pt" font-style="normal" font-weight="normal" text-decoration="normal" x="126.25503265738934" y="675.2973044219999" text-anchor="start" dominant-baseline="alphabetic" xml:space="preserve">Display message:</text><text fill="black" stroke="none" font-family="sans-serif" font-size="11pt" font-style="normal" font-weight="normal" text-decoration="normal" x="126.25503265738934" y="691.6325077219999" text-anchor="start" dominant-baseline="alphabetic" xml:space="preserve">Term is not ready to start</text></g><g><path fill="none" stroke="black" paint-order="fill stroke markers" d=" M 340.3186975839193 698.1665890419999 L 86.95773223366666 698.1665890419999" stroke-miterlimit="10" stroke-width="1.3612669416666667" stroke-dasharray="6.53408132"/><g transform="translate(73.50841485,698.1665890419999) translate(-73.50841485,-698.1665890419999)"><path fill="black" stroke="none" paint-order="stroke fill markers" d=" M 87.12108426666666 691.3602543336666 L 73.50841485 698.1665890419999 L 87.12108426666666 704.9729237503333 Z"/></g></g><g><g><rect fill="white" stroke="none" x="615.9619728701691" y="766.7744429019999" width="123.05369819703125" height="21.23576429"/></g><text fill="black" stroke="none" font-family="sans-serif" font-size="11pt" font-style="normal" font-weight="normal" text-decoration="normal" x="618.4122533651691" y="781.4761258719999" text-anchor="start" dominant-baseline="alphabetic" xml:space="preserve">updateState(term)</text></g><g><path fill="none" stroke="black" paint-order="fill stroke markers" d=" M 592.5481814735026 788.0102071919999 L 748.9801450802004 788.0102071919999" stroke-miterlimit="10" stroke-width="1.3612669416666667" stroke-dasharray=""/><g transform="translate(762.429462463867,788.0102071919999) translate(-762.429462463867,-788.0102071919999)"><path fill="black" stroke="none" paint-order="stroke fill markers" d=" M 748.8167930472003 781.2038724836666 L 762.429462463867 788.0102071919999 L 748.8167930472003 794.8165419003333 Z"/></g></g><g><g><rect fill="white" stroke="none" x="809.4797652832876" y="812.5130121419999" width="123.05369819703125" height="21.23576429"/></g><text fill="black" stroke="none" font-family="sans-serif" font-size="11pt" font-style="normal" font-weight="normal" text-decoration="normal" x="811.9300457782876" y="827.2146951119998" text-anchor="start" dominant-baseline="alphabetic" xml:space="preserve">updateState(term)</text></g><g><path fill="none" stroke="black" paint-order="fill stroke markers" d=" M 778.7646657638671 833.7487764319999 L 949.7992456160728 833.7487764319999" stroke-miterlimit="10" stroke-width="1.3612669416666667" stroke-dasharray=""/><g transform="translate(963.2485629997394,833.7487764319999) translate(-963.2485629997394,-833.7487764319999)"><path fill="black" stroke="none" paint-order="stroke fill markers" d=" M 949.6358935830727 826.9424417236665 L 963.2485629997394 833.7487764319999 L 949.6358935830727 840.5551111403332 Z"/></g></g><g><g><rect fill="white" stroke="none" x="835.9650710694204" y="858.2515813819998" width="70.08308662476563" height="21.23576429"/></g><text fill="black" stroke="none" font-family="sans-serif" font-size="11pt" font-style="normal" font-weight="normal" text-decoration="normal" x="838.4153515644205" y="872.9532643519998" text-anchor="start" dominant-baseline="alphabetic" xml:space="preserve">Term data</text></g><g><path fill="none" stroke="black" paint-order="fill stroke markers" d=" M 963.2485629997394 879.4873456719998 L 792.2139831475338 879.4873456719998" stroke-miterlimit="10" stroke-width="1.3612669416666667" stroke-dasharray="6.53408132"/><g transform="translate(778.7646657638671,879.4873456719998) translate(-778.7646657638671,-879.4873456719998)"><path fill="black" stroke="none" paint-order="stroke fill markers" d=" M 792.3773351805338 872.6810109636665 L 778.7646657638671 879.4873456719998 L 792.3773351805338 886.2936803803332 Z"/></g></g><g><g><rect fill="white" stroke="none" x="642.4472786563019" y="903.9901506219998" width="70.08308662476563" height="21.23576429"/></g><text fill="black" stroke="none" font-family="sans-serif" font-size="11pt" font-style="normal" font-weight="normal" text-decoration="normal" x="644.897559151302" y="918.6918335919997" text-anchor="start" dominant-baseline="alphabetic" xml:space="preserve">Term data</text></g><g><path fill="none" stroke="black" paint-order="fill stroke markers" d=" M 762.429462463867 925.2259149119998 L 605.9974988571693 925.2259149119998" stroke-miterlimit="10" stroke-width="1.3612669416666667" stroke-dasharray="6.53408132"/><g transform="translate(592.5481814735026,925.2259149119998) translate(-592.5481814735026,-925.2259149119998)"><path fill="black" stroke="none" paint-order="stroke fill markers" d=" M 606.1608508901693 918.4195802036664 L 592.5481814735026 925.2259149119998 L 606.1608508901693 932.0322496203331 Z"/></g></g><g><g><rect fill="white" stroke="none" x="375.9838914555859" y="949.7287198619998" width="54.61422981324219" height="21.23576429"/></g><g><rect fill="white" stroke="none" x="375.9838914555859" y="966.0639231619998" width="180.89909614625" height="21.23576429"/></g><text fill="green" stroke="none" font-family="sans-serif" font-size="11pt" font-style="normal" font-weight="normal" text-decoration="normal" x="378.4341719505859" y="964.4304028319998" text-anchor="start" dominant-baseline="alphabetic" xml:space="preserve">200 OK</text><text fill="green" stroke="none" font-family="sans-serif" font-size="11pt" font-style="normal" font-weight="normal" text-decoration="normal" x="378.4341719505859" y="980.7656061319998" text-anchor="start" dominant-baseline="alphabetic" xml:space="preserve">Response body: New Term</text></g><g><path fill="none" stroke="black" paint-order="fill stroke markers" d=" M 576.2129781735025 987.2996874519998 L 370.10321826758593 987.2996874519998" stroke-miterlimit="10" stroke-width="1.3612669416666667" stroke-dasharray="6.53408132"/><g transform="translate(356.6539008839193,987.2996874519998) translate(-356.6539008839193,-987.2996874519998)"><path fill="black" stroke="none" paint-order="stroke fill markers" d=" M 370.26657030058595 980.4933527436665 L 356.6539008839193 987.2996874519998 L 370.26657030058595 994.1060221603332 Z"/></g></g><g><g><rect fill="white" stroke="none" x="108.3251531633659" y="1011.8024924019998" width="197.1768061071875" height="21.23576429"/></g><text fill="black" stroke="none" font-family="sans-serif" font-size="11pt" font-style="normal" font-weight="normal" text-decoration="normal" x="110.7754336583659" y="1026.5041753719997" text-anchor="start" dominant-baseline="alphabetic" xml:space="preserve">Display new Term information</text></g><g><path fill="none" stroke="black" paint-order="fill stroke markers" d=" M 340.3186975839193 1033.0382566919998 L 86.95773223366666 1033.0382566919998" stroke-miterlimit="10" stroke-width="1.3612669416666667" stroke-dasharray="6.53408132"/><g transform="translate(73.50841485,1033.0382566919998) translate(-73.50841485,-1033.0382566919998)"><path fill="black" stroke="none" paint-order="stroke fill markers" d=" M 87.12108426666666 1026.2319219836666 L 73.50841485 1033.0382566919998 L 87.12108426666666 1039.844591400333 Z"/></g></g><g><g/><path fill="none" stroke="black" paint-order="fill stroke markers" d=" M 16.335203299999996 570.7520033019999 L 1028.5893761997395 570.7520033019999 L 1028.5893761997395 1057.5410616419997 L 16.335203299999996 1057.5410616419997 L 16.335203299999996 570.7520033019999 Z" stroke-miterlimit="10" stroke-width="2.3336004714285714" stroke-dasharray=""/><path fill="white" stroke="black" paint-order="fill stroke markers" d=" M 16.335203299999996 570.7520033019999 L 16.335203299999996 590.354247262 L 62.69440689707031 590.354247262 L 72.49552887707031 580.5531252819999 L 72.49552887707031 570.7520033019999 L 16.335203299999996 570.7520033019999" stroke-miterlimit="10" stroke-width="2.3336004714285714" stroke-dasharray=""/><text fill="black" stroke="none" font-family="sans-serif" font-size="8.8pt" font-style="normal" font-weight="bold" text-decoration="normal" x="32.67040659999999" y="583.8201659419999" text-anchor="start" dominant-baseline="alphabetic" xml:space="preserve">alt</text><g><rect fill="white" stroke="none" x="86.38045168207032" y="572.0588195659999" width="123.95302070679688" height="16.988611432000003"/></g><text fill="black" stroke="none" font-family="sans-serif" font-size="8.8pt" font-style="normal" font-weight="bold" text-decoration="normal" x="88.83073217707032" y="583.8201659419999" text-anchor="start" dominant-baseline="alphabetic" xml:space="preserve">[If Term is not Ready]</text><g><path fill="none" stroke="black" paint-order="fill stroke markers" d=" M 16.335203299999996 722.669393992 L 1028.5893761997395 722.669393992" stroke-miterlimit="10" stroke-width="2.3336004714285714" stroke-dasharray="4.083800825"/></g><g/><g><rect fill="white" stroke="none" x="86.38045168207032" y="723.976210256" width="36.84300483765625" height="16.988611432000003"/></g><text fill="black" stroke="none" font-family="sans-serif" font-size="8.8pt" font-style="normal" font-weight="bold" text-decoration="normal" x="88.83073217707032" y="735.737556632" text-anchor="start" dominant-baseline="alphabetic" xml:space="preserve">[Else]</text></g><g/></g></g></svg>