<svg version="1.1" xmlns="http://www.w3.org/2000/svg" xmlns:xlink="http://www.w3.org/1999/xlink" width="1035" height="1137"><desc>title%20Get%20Subject%20Detail%0A%0A%0Aactor%20%23green%3A0.5%20%22Workspace%20Admin%22%20as%20w%0Aboundary%20%22FUniverse%20Admin%20%5CnClient%22%20as%20f%0Acontrol%20%22Subject%20%5CnController%22%20as%20gc%0Aparticipant%20%22Subject%20%5CnService%22%20as%20gs%0A%0Adatabase%20%23blue%3A1%20%22Database%22%20as%20db%0Aw-%3Ef%3AGo%20to%20Subject%20list%20page%0Aactivate%20f%0Aw-%3Ef%3AClick%20on%20Name%20of%20Subject%0Af-%3Egc%3AGET%3A%20%2Fapi%2Fsubject%2F%7Bid%7D%0Aactivate%20gc%0Agc-%3Egs%3Aget(id)%0Aactivate%20gs%0Ags-%3Edb%3AfindById(id)%0Aactivate%20db%0Ags%3C--db%3ASubject%20data%0Adeactivate%20db%0Agc%3C--gs%3ASubject%20data%0Adeactivate%20gs%0Aalt%20If%20Subject%20is%20empty%0Af%3C--gc%3A%3Ccolor%3A%23red%3E404%20NOT%20FOUND%3C%2Fcolor%3E%0A%0Aw%3C--f%3ADisplay%20404%20Not%20Found%20screen%0Aelse%20Else%0Af-%3Egc%3AGET%3A%20%5Cn%2Fapi%2Fsubject%2F%7Bid%7D%2Fsyllabus%0Agc-%3Egs%3AgetSyllabiInSubject(id)%0Aactivate%20gs%0Ags-%3Edb%3AgetSyllabiInSubject(id)%0Aactivate%20db%0Ags%3C--db%3ASyllabus%20list%20%5Cnin%20Subject%0Adeactivate%20db%0Agc%3C--gs%3ASyllabus%20list%20%5Cnin%20Subject%0Adeactivate%20gs%0A%0Af%3C--gc%3A%3Ccolor%3A%23green%3E200%20OK%20Response%20body%3A%5CnAll%20data%20of%20Subject%5Cnand%20Syllabus%20List%3C%2Fcolor%3E%0Adeactivate%20gc%0A%0Aw%3C--f%3A%20Display%20Subject%20detail%0Adeactivate%20f%0Aend</desc><defs/><g><g/><g/><g/><g/><g/><g/><g/><g/><g/><g/><g/><g/><g/><g/><g/><g/><g/><g/><g/><g/><g/><g/><g/><g/><g/><g/><g/><g/><g/><g><rect fill="white" stroke="none" x="0" y="0" width="1035" height="1137"/></g><g><text fill="black" stroke="none" font-family="sans-serif" font-size="16.5pt" font-style="normal" font-weight="normal" text-decoration="normal" x="428.9751986854167" y="24.50280495" text-anchor="start" dominant-baseline="alphabetic" xml:space="preserve">Get Subject Detail</text></g><g/><g><path fill="none" stroke="black" paint-order="fill stroke markers" d=" M 73.50841485 146.036717502 L 73.50841485 1137.5835578119998" stroke-miterlimit="10" stroke-width="1.3612669416666667" stroke-dasharray="12.565541,5.445067766666667"/><path fill="none" stroke="black" paint-order="fill stroke markers" d=" M 322.4376389555989 146.036717502 L 322.4376389555989 1137.5835578119998" stroke-miterlimit="10" stroke-width="1.3612669416666667" stroke-dasharray="12.565541,5.445067766666667"/><path fill="none" stroke="black" paint-order="fill stroke markers" d=" M 542.0684918108072 146.036717502 L 542.0684918108072 1137.5835578119998" stroke-miterlimit="10" stroke-width="1.3612669416666667" stroke-dasharray="12.565541,5.445067766666667"/><path fill="none" stroke="black" paint-order="fill stroke markers" d=" M 747.8267097783203 146.036717502 L 747.8267097783203 1137.5835578119998" stroke-miterlimit="10" stroke-width="1.3612669416666667" stroke-dasharray="12.565541,5.445067766666667"/><path fill="none" stroke="black" paint-order="fill stroke markers" d=" M 953.5849277458333 146.036717502 L 953.5849277458333 1137.5835578119998" stroke-miterlimit="10" stroke-width="1.3612669416666667" stroke-dasharray="12.565541,5.445067766666667"/></g><g><g><path fill="white" stroke="green" paint-order="fill stroke markers" d=" M 82.819480731 76.93880754300004 A 9.311065881 9.311065881 0 1 1 82.81947607546743 76.92949647867087 M 73.50841485 86.24987342400003 L 73.50841485 106.17882145000003 M 61.747068473999995 93.43736287600004 L 85.26976122599999 93.43736287600004 M 73.50841485 106.17882145000003 L 61.747068473999995 124.80095321200002 M 73.50841485 106.17882145000003 L 85.26976122599999 124.80095321200002" stroke-miterlimit="10" stroke-width="1.3884922805000002" stroke-dasharray=""/></g><g><text fill="black" stroke="none" font-family="sans-serif" font-size="11pt" font-style="normal" font-weight="normal" text-decoration="normal" x="14.166991815332025" y="141.136156512" text-anchor="start" dominant-baseline="alphabetic" xml:space="preserve">Workspace Admin</text></g><g><path fill="white" stroke="black" paint-order="fill stroke markers" d=" M 354.8630175060989 82.819480731 A 24.2577769005 24.2577769005 0 1 1 354.8630053772115 82.79522295814245 M 291.4007526855989 57.17321154999999 L 291.4007526855989 108.465749912 M 290.0122604050989 82.819480731 L 306.3474637050989 82.819480731" stroke-miterlimit="10" stroke-width="2.7769845610000004" stroke-dasharray=""/></g><g><text fill="black" stroke="none" font-family="sans-serif" font-size="11pt" font-style="normal" font-weight="normal" text-decoration="normal" x="264.1878373198567" y="124.80095321200001" text-anchor="start" dominant-baseline="alphabetic" xml:space="preserve">FUniverse Admin </text><text fill="black" stroke="none" font-family="sans-serif" font-size="11pt" font-style="normal" font-weight="normal" text-decoration="normal" x="303.69748850393876" y="141.136156512" text-anchor="start" dominant-baseline="alphabetic" xml:space="preserve">Client</text></g><g><path fill="white" stroke="black" paint-order="fill stroke markers" d=" M 566.3262687113072 82.819480731 A 24.2577769005 24.2577769005 0 1 1 566.3262565824198 82.79522295814245 M 538.8014511508072 58.561703830499994 L 548.6025731308072 50.39410218049999 M 538.8014511508072 58.561703830499994 L 548.6025731308072 66.72930548049999" stroke-miterlimit="10" stroke-width="2.7769845610000004" stroke-dasharray=""/></g><g><text fill="black" stroke="none" font-family="sans-serif" font-size="11pt" font-style="normal" font-weight="normal" text-decoration="normal" x="515.5831783952799" y="124.80095321200001" text-anchor="start" dominant-baseline="alphabetic" xml:space="preserve">Subject </text><text fill="black" stroke="none" font-family="sans-serif" font-size="11pt" font-style="normal" font-weight="normal" text-decoration="normal" x="510.29327666188146" y="141.136156512" text-anchor="start" dominant-baseline="alphabetic" xml:space="preserve">Controller</text></g><path fill="none" stroke="none"/><g><path fill="white" stroke="black" paint-order="fill stroke markers" d=" M 703.6177007822929 85.75981732500003 L 792.0357187743476 85.75981732500003 L 792.0357187743476 146.03671750200002 L 703.6177007822929 146.03671750200002 L 703.6177007822929 85.75981732500003 Z" stroke-miterlimit="10" stroke-width="2.613632528" stroke-dasharray=""/></g><g><text fill="black" stroke="none" font-family="sans-serif" font-size="11pt" font-style="normal" font-weight="normal" text-decoration="normal" x="721.3413963627929" y="113.366310902" text-anchor="start" dominant-baseline="alphabetic" xml:space="preserve">Subject </text><text fill="black" stroke="none" font-family="sans-serif" font-size="11pt" font-style="normal" font-weight="normal" text-decoration="normal" x="723.3850670170898" y="129.701514202" text-anchor="start" dominant-baseline="alphabetic" xml:space="preserve">Service</text></g><g><path fill="white" stroke="blue" paint-order="fill stroke markers" d=" M 929.7355309278333 114.01971903400002 L 929.7355309278333 79.71579210400003 L 977.4343245638332 79.71579210400003 L 977.4343245638332 114.01971903400002" stroke-miterlimit="10" stroke-width="2.7769845610000004" stroke-dasharray=""/><path fill="white" stroke="blue" paint-order="fill stroke markers" d=" M 977.4343245638332 78.52332226310003 L 977.4331321039296 78.63113280801664 L 977.4295548434635 78.73893257196862 L 977.4235931401582 78.84671077506938 L 977.4152475901789 78.95445663958843 L 977.4045190280737 79.06215939102911 L 977.3914085266898 79.16980825920604 L 977.3759173970666 79.27739247932207 L 977.358047188304 79.38490129304488 L 977.3377996874079 79.49232394958268 L 977.3151769191118 79.59964970675932 L 977.2901811456734 79.70686783208855 L 977.2628148666494 79.81396760384715 L 977.2330808186448 79.92093831214721 L 977.2009819750397 80.02776926000705 L 977.1665215456916 80.13444976442089 L 977.1297029766148 80.2409691574272 L 977.0905299496354 80.34731678717546 L 977.0490063820237 80.45348201899128 L 977.0051364261017 80.55945423643999 L 976.9589244688283 80.66522284238813 L 976.910375131361 80.77077726006326 L 976.8594932685929 80.87610693411155 L 976.806283968668 80.9812013316534 L 976.7507525524718 81.08604994333662 L 976.6929045730998 81.19064228438741 L 976.6327458153016 81.29496789565883 L 976.570282294903 81.3990163446767 L 976.5055202582038 81.50277722668281 L 976.4384661813538 81.60624016567543 L 976.3691267697048 81.70939481544688 L 976.2975089571402 81.81223086061816 L 976.2236199053815 81.91473801767043 L 976.1474670032725 82.0169060359734 L 976.0690578660397 82.11872469881041 L 975.9884003345315 82.22018382440001 L 975.9055024744341 82.32127326691418 L 975.8203725754643 82.42198291749291 L 975.7330191505408 82.52230270525509 L 975.6434509349336 82.62222259830551 L 975.5516768853896 82.72173260473815 L 975.4577061792372 82.8208227736353 L 975.3615482134686 82.91948319606263 L 975.2632126038005 83.01770400606013 L 975.1627091837117 83.11547538162863 L 975.0600480034606 83.21278754571205 L 974.9552393290795 83.3096307671751 L 974.8482936413486 83.4059953617763 L 974.7392216347477 83.50187169313652 L 974.6280342163864 83.59725017370252 L 974.5147425049138 83.69212126570572 L 974.3993578294069 83.78647548211597 L 974.2818917282368 83.88030338759027 L 974.1623559479159 83.97359559941626 L 974.0407624419227 84.0663427884505 L 973.9171233695063 84.15853568005136 L 973.7914510944709 84.25016505500653 L 973.6637581839394 84.34122175045486 L 973.5340574070964 84.43169666080269 L 973.4023617339114 84.52158073863437 L 973.2686843338422 84.61086499561704 L 973.1330385745173 84.69954050339939 L 972.9954380203994 84.78759839450454 L 972.8558964314295 84.87502986321677 L 972.7144277616502 84.96182616646205 L 972.5710461578104 85.0479786246824 L 972.4257659579513 85.13347862270378 L 972.2786016899714 85.21831761059765 L 972.1295680701753 85.30248710453591 L 971.9786800018004 85.38597868763932 L 971.8259525735281 85.46878401081914 L 971.6714010579738 85.55089479361204 L 971.5150409101603 85.6323028250082 L 971.356887765972 85.71299996427229 L 971.1969574405917 85.79297814175763 L 971.0352659269186 85.87222935971315 L 970.8718293939693 85.95074569308306 L 970.7066641852607 86.02851929029947 L 970.5397868171764 86.10554237406748 L 970.3712139773139 86.1818072421429 L 970.2009625228168 86.25730626810244 L 970.0290494786886 86.33203190210645 L 969.8554920360906 86.4059766716538 L 969.6803075506223 86.47913318232916 L 969.5035135405863 86.55149411854241 L 969.3251276852362 86.62305224426024 L 969.1451678230089 86.69380040372971 L 968.9636519497409 86.76373152219381 L 968.7805982168679 86.832838606599 L 968.596024929611 86.90111474629441 L 968.4099505451447 86.96855311372298 L 968.2223936707528 87.03514696510413 L 968.0333730619661 87.10088964110827 L 967.8429076206883 87.16577456752255 L 967.6510163933044 87.2297952559084 L 967.4577185687776 87.29294530425035 L 967.2630334767291 87.35521839759618 L 967.0669805855059 87.41660830868844 L 966.8695795002337 87.47710889858719 L 966.6708499608567 87.53671411728386 L 966.4708118401629 87.59541800430624 L 966.269485141798 87.65321468931457 L 966.066889998264 87.71009839268848 L 965.8630466689061 87.76606342610505 L 965.6579755378879 87.82110419310759 L 965.4516971121511 87.87521518966525 L 965.2442320193668 87.92839100472347 L 965.0356010058711 87.98062632074506 L 964.8258249345917 88.03191591424195 L 964.6149247829607 88.08225465629752 L 964.4029216408176 88.13163751307953 L 964.1898367082999 88.18005954634344 L 963.9756912937236 88.22751591392628 L 963.7605068114513 88.27400187023083 L 963.544304779752 88.31951276670023 L 963.3271068186489 88.36404405228271 L 963.1089346477569 88.40759127388685 L 962.8898100841113 88.45015007682679 L 962.669755039986 88.49171620525767 L 962.4487915207019 88.53228550260131 L 962.2269416224269 88.57185391196177 L 962.0042275299659 88.6104174765311 L 961.7806715145424 88.64797233998496 L 961.556295931572 88.68451474686832 L 961.3311232184257 88.72004104297093 L 961.1051758921873 88.75454767569279 L 960.8784765474011 88.7880311943994 L 960.6510478538127 88.82048825076676 L 960.4229125541018 88.8519155991163 L 960.1940934616085 88.88231009673936 L 959.9646134580512 88.91166870421154 L 959.7344954912392 88.93998848569652 L 959.5037625727771 88.96726660923976 L 959.2724377757647 88.99350034705165 L 959.0405442324889 89.01868707578028 L 958.8081051321108 89.04282427677373 L 958.5751437183467 89.06590953633204 L 958.3416832871437 89.0879405459485 L 958.1077471843507 89.10891510254048 L 957.8733588033828 89.12883110866981 L 957.6385415828828 89.14768657275249 L 957.4033190043772 89.1654796092578 L 957.1677145899275 89.18220843889694 L 956.9317518997792 89.19787138880088 L 956.6954545300046 89.21246689268766 L 956.4588461101436 89.22599349101908 L 956.221950300841 89.23844983114658 L 955.9847907914805 89.2498346674465 L 955.7473912978153 89.26014686144474 L 955.5097755595968 89.26938538193045 L 955.2719673382012 89.27754930505931 L 955.0339904142521 89.2846378144458 L 954.7958685852437 89.29065020124489 L 954.5576256631606 89.2955858642229 L 954.3192854720962 89.29944430981766 L 954.0808718458712 89.30222515218782 L 953.8424086256495 89.30392811325146 L 953.6039196575543 89.30455302271389 L 953.3654287902838 89.30409981808468 L 953.1269598727259 89.30256854468394 L 952.8885367515737 89.29995935563771 L 952.6501832689407 89.29627251186272 L 952.4119232599763 89.29150838204029 L 952.1737805504831 89.28566744257942 L 951.9357789545335 89.2787502775692 L 951.6979422720887 89.27075757872036 L 951.4602942866187 89.26169014529611 L 951.2228587627242 89.25154888403227 L 950.9856594437595 89.24033480904649 L 950.748720049459 89.22804904173692 L 950.5120642735648 89.21469281067007 L 950.2757157814569 89.2002674514579 L 950.0396982077879 89.18477440662434 L 949.8040351541183 89.16821522546093 L 949.5687501865572 89.15059156387198 L 949.3338668334052 89.131905184209 L 949.0994085828019 89.11215795509437 L 948.865398880377 89.09135185123453 L 948.6318611269056 89.06948895322255 L 948.3988186759688 89.04657144732998 L 948.166294831617 89.02260162528835 L 947.9343128460412 88.99758188405987 L 947.7028959172466 88.97151472559781 L 947.472067186733 88.94440275659629 L 947.2418497371815 88.91624868822964 L 947.0122665901449 88.88705533588121 L 946.7833407037466 88.85682561886193 L 946.5550949703846 88.82556256011829 L 946.327552214442 88.79326928593011 L 946.1007351900047 88.75994902559792 L 945.8746665785862 88.72560511111998 L 945.6493689868593 88.6902409768591 L 945.4248649443952 88.65386015919924 L 945.2011769014113 88.61646629619187 L 944.9783272265254 88.57806312719212 L 944.7563382045192 88.53865449248488 L 944.5352320341102 88.49824433290078 L 944.3150308257308 88.4568366894221 L 944.0957565993186 88.4144357027787 L 943.8774312821134 88.3710456130339 L 943.660076706465 88.32667075916052 L 943.44371460765 88.28131557860695 L 943.2283666216977 88.23498460685347 L 943.0140542832274 88.18768247695864 L 942.8007990232943 88.13941391909603 L 942.5886221672469 88.0901837600812 L 942.3775449325935 88.03999692288905 L 942.1675884268822 87.98885842616143 L 941.9587736455883 87.93677338370544 L 941.751121470016 87.88374700398191 L 941.5446526652098 87.8297845895846 L 941.3393878778782 87.77489153671002 L 941.1353476343287 87.71907333461769 L 940.9325523384157 87.66233556508129 L 940.7310222694999 87.60468390183053 L 940.5307775804202 87.54612410998368 L 940.3318382954786 87.4866620454711 L 940.1342243084379 87.42630365444973 L 939.937955380532 87.36505497270832 L 939.7430511384902 87.30292212506406 L 939.5495310725743 87.2399113247499 L 939.3574145346295 87.17602887279338 L 939.1667207361497 87.11128115738646 L 938.9774687463557 87.0456746532467 L 938.7896774902888 86.97921592096989 L 938.6033657469181 86.91191160637383 L 938.4185521472627 86.84376843983392 L 938.2352551725287 86.77479323561002 L 938.0534931522604 86.70499289116506 L 937.873284262509 86.63437438647533 L 937.6946465240127 86.56294478333245 L 937.5175978003967 86.49071122463722 L 937.3421557963859 86.4176809336853 L 937.1683380560345 86.34386121344494 L 936.9961619609716 86.26925944582663 L 936.8256447286632 86.19388309094498 L 936.6568034106906 86.11773968637264 L 936.4896548910447 86.04083684638665 L 936.3242158844383 85.96318226120691 L 936.1605029346341 85.88478369622722 L 935.9985324127908 85.80564899123874 L 935.8383205158256 85.72578605964603 L 935.6798832647944 85.64520288767571 L 935.5232365032906 85.5639075335778 L 935.3683958958597 85.48190812681999 L 935.2153769264335 85.3992128672746 L 935.0641948967811 85.31583002439868 L 934.9148649249798 85.23176793640704 L 934.7674019439023 85.14703500943843 L 934.6218206997238 85.06163971671492 L 934.4781357504473 84.97559059769462 L 934.3363614644481 84.88889625721775 L 934.1965120190367 84.80156536464608 L 934.058601399041 84.71360665299612 L 933.9226433954079 84.62502891806572 L 933.7886516038249 84.53584101755456 L 933.6566394233591 84.44605187017837 L 933.5266200551188 84.35567045477706 L 933.3986065009323 84.26470580941687 L 933.2726115620484 84.1731670304865 L 933.1486478378561 84.08106327178758 L 933.0267277246244 83.98840374361924 L 932.906863414263 83.89519771185707 L 932.789066893103 83.80145449702657 L 932.6733499406986 83.70718347337109 L 932.5597241286483 83.61239406791447 L 932.448200819439 83.51709575951824 L 932.3387911653083 83.42129807793384 L 932.2315061071306 83.32501060284957 L 932.1263563733223 83.22824296293274 L 932.0233524787693 83.13100483486667 L 931.922504723775 83.03330594238315 L 931.8238231930309 82.93515605529001 L 931.727317754608 82.83656498849416 L 931.6329980589695 82.73754260102014 L 931.5408735380065 82.63809879502416 L 931.4509534040943 82.53824351480395 L 931.3632466491714 82.43798674580434 L 931.2777620438401 82.33733851361866 L 931.1945081364898 82.23630888298626 L 931.1134932524418 82.13490795678602 L 931.034725493117 82.03314587502607 L 930.9582127352257 81.93103281382975 L 930.8839626299799 81.82857898441812 L 930.8119826023284 81.72579463208872 L 930.7422798502137 81.62269003519114 L 930.6748613438532 81.51927550409916 L 930.6097338250412 81.4155613801797 L 930.5469038064753 81.3115580347587 L 930.4863775711051 81.20727586808408 L 930.4281611715036 81.10272530828557 L 930.3722604292624 80.99791681033204 L 930.3186809344089 80.89286085498595 L 930.2674280448481 80.78756794775528 L 930.2185068858263 80.682048617843 L 930.1719223494184 80.57631341709417 L 930.1276790940395 80.47037291894078 L 930.0857815439781 80.36423771734434 L 930.0462338889544 80.25791842573655 L 930.0090400837007 80.15142567595801 L 929.9742038475669 80.04477011719491 L 929.9417286641471 79.9379624149143 L 929.9116177809332 79.83101324979734 L 929.8838742089879 79.72393331667146 L 929.8585007226455 79.61673332344074 L 929.8354998592336 79.50942399001515 L 929.8148739188191 79.40201604723862 L 929.796624963979 79.29452023581591 L 929.7807548195935 79.18694730523859 L 929.767265072664 79.07930801271009 L 929.7561570721538 78.97161312206994 L 929.7474319288538 78.86387340271747 L 929.7410905152708 78.75609962853483 L 929.7371334655412 78.64830257680963 L 929.7355611753665 78.5404930271572 L 929.7363738019744 78.43268176044268 L 929.739571264103 78.32487955770289 L 929.7451532420087 78.21709719906826 L 929.7531191774983 78.10934546268486 L 929.763468273985 78.00163512363652 L 929.7761994965679 77.89397695286739 L 929.791311572135 77.78638171610483 L 929.8088029894916 77.67886017278285 L 929.8286719995103 77.57142307496619 L 929.850916615307 77.4640811662751 L 929.8755346124385 77.35684518081099 L 929.9025235291255 77.24972584208304 L 929.9318806664988 77.14273386193588 L 929.9636030888694 77.03587993947833 L 929.9976876240213 76.92917476001364 L 930.0341308635293 76.82262899397078 L 930.0729291631001 76.7162532958376 L 930.1140786429357 76.61005830309527 L 930.1575751881228 76.50405463515456 L 930.2034144490428 76.39825289229391 L 930.251591841808 76.29266365459947 L 930.3021025487193 76.187297480907 L 930.3549415187479 76.08216490774608 L 930.410103468041 75.97727644828639 L 930.4675828804496 75.87264259128648 L 930.5273740080804 75.76827380004487 L 930.5894708718703 75.66418051135369 L 930.6538672621848 75.56037313445508 L 930.7205567394386 75.45686205000021 L 930.7895326347394 75.3536576090113 L 930.8607880505552 75.2507701318464 L 930.9343158614039 75.1482099071675 L 931.0101087145655 75.04598719091162 L 931.0881590308179 74.9441122052652 L 931.1684590051947 74.84259513764188 L 931.251000607765 74.74144613966385 L 931.3357755844378 74.6406753261466 L 931.4227754577857 74.54029277408755 L 931.5119915278941 74.4403085216582 L 931.6034148732302 74.34073256720049 L 931.6970363515358 74.24157486822689 L 931.7928466007407 74.14284534042467 L 931.8908360399004 74.04455385666434 L 931.9909948701522 73.94671024601234 L 932.0933130756968 73.84932429274824 L 932.1977804247986 73.75240573538618 L 932.3043864708101 73.65596426570113 L 932.4131205532153 73.56000952775972 L 932.5239717986966 73.46455111695575 L 932.636929122222 73.36959857905077 L 932.7519812281531 73.27516140921944 L 932.8691166113753 73.18124905110005 L 932.9883235584476 73.08787089585014 L 933.109590148775 72.99503628120743 L 933.2329042557994 72.90275449055602 L 933.3582535482129 72.81103475199808 L 933.4856254911906 72.71988623743101 L 933.6150073476445 72.62931806163034 L 933.7463861794965 72.53933928133816 L 933.8797488489731 72.44995889435752 L 934.0150820199185 72.36118583865263 L 934.1523721591284 72.2730289914551 L 934.2916055377032 72.18549716837617 L 934.432768232421 72.0985991225252 L 934.5758461271301 72.01234354363439 L 934.7208249141603 71.9267390571897 L 934.8676900957536 71.84179422356848 L 935.0164269855143 71.7575175371833 L 935.1670207098772 71.67391742563255 L 935.3194562095956 71.59100224885773 L 935.4737182412464 71.50878029830743 L 935.629791378755 71.42725979610816 L 935.7876600149378 71.34644889424223 L 935.9473083630628 71.26635567373248 L 936.1087204584279 71.18698814383421 L 936.2718801599584 71.10835424123428 L 936.4367711518199 71.03046182925742 L 936.6033769450509 70.95331869707991 L 936.7716808792106 70.8769325589507 L 936.9416661240459 70.80131105341991 L 937.1133156811742 70.72646174257511 L 937.2866123857826 70.65239211128501 L 937.4615389083451 70.579109566451 L 937.6380777563553 70.5066214362665 L 937.8162112760754 70.43493496948412 L 937.9959216543019 70.3640573346908 L 938.1771909201468 70.29399561959096 L 938.3600009468345 70.22475683029771 L 938.5443334535147 70.1563478906323 L 938.7301700070905 70.08877564143168 L 938.9174920240611 70.02204683986446 L 939.106280772381 69.9561681587552 L 939.2965173733328 69.8911461859171 L 939.4881828034149 69.82698742349325 L 939.681257896244 69.76369828730645 L 939.8757233444717 69.70128510621757 L 940.0715597017153 69.6397541214927 L 940.268747384502 69.57911148617904 L 940.4672666742283 69.51936326448958 L 940.6670977191303 69.46051543119673 L 940.8682205362701 69.40257387103475 L 941.0706150135337 69.34554437811137 L 941.274260911642 69.28943265532837 L 941.4791378661748 69.23424431381126 L 941.6852253896075 69.1799848723482 L 941.8925028733594 69.12665975683814 L 942.1009495898548 69.07427429974817 L 942.310544694596 69.02283373958036 L 942.521267228247 68.97234322034787 L 942.73309611873 68.9228077910605 L 942.9460101833326 68.87423240521996 L 943.1599881308258 68.82662192032431 L 943.375008563593 68.77998109738239 L 943.5910499797702 68.73431460043761 L 943.8080907753957 68.68962699610162 L 944.0261092465711 68.64592275309762 L 944.2450835916306 68.60320624181347 L 944.4649919133224 68.56148173386472 L 944.6858122209976 68.52075340166739 L 944.9075224328093 68.48102531802076 L 945.1301003779212 68.44230145570006 L 945.3535237987242 68.4045856870593 L 945.5777703530623 68.36788178364388 L 945.8028176164672 68.33219341581358 L 946.0286430844 68.29752415237542 L 946.255224174502 68.26387746022687 L 946.4825382288532 68.23125670400908 L 946.7105625162372 68.19966514577052 L 946.9392742344157 68.16910594464068 L 947.1686505124073 68.1395821565142 L 947.3986684127755 68.11109673374527 L 947.6293049339216 68.08365252485247 L 947.860537012386 68.05725227423379 L 948.0923415251533 68.03189862189231 L 948.3246952919657 68.00759410317211 L 948.5575750776399 67.98434114850484 L 948.7909575943914 67.96214208316657 L 949.0248195041632 67.94099912704533 L 949.2591374209591 67.92091439441914 L 949.4938879131826 67.9018898937445 L 949.7290475059801 67.88392752745563 L 949.9645926835885 67.86702909177419 L 950.2004998916861 67.85119627652966 L 950.4367455397489 67.8364306649904 L 950.6733060034087 67.82273373370522 L 950.9101576268165 67.81010685235586 L 951.1472767250071 67.79855128361993 L 951.3846395862686 67.78806818304466 L 951.6222224745123 67.77865859893137 L 951.8600016316476 67.77032347223066 L 952.097953279957 67.76306363644822 L 952.3360536244737 67.75687981756161 L 952.5742788553619 67.75177263394752 L 952.8126051502969 67.74774259632011 L 953.0510086768479 67.74479010767975 L 953.2894655948608 67.74291546327285 L 953.5279520588426 67.74211885056229 L 953.7664442203456 67.74240034920868 L 954.0049182303525 67.74375993106239 L 954.2433502416609 67.74619746016636 L 954.4817164112684 67.74971269276972 L 954.7199929027566 67.75430527735213 L 954.9581558886752 67.75997475465897 L 955.1961815529237 67.76672055774722 L 955.4340460931342 67.7745420120422 L 955.6717257230508 67.78343833540501 L 955.9091966749089 67.7934086382107 L 956.1464352018108 67.80445192343733 L 956.3834175801018 67.81656708676556 L 956.6201201117414 67.82975291668915 L 956.8565191266737 67.84400809463611 L 957.0925909851943 67.85933119510051 L 957.3283120803139 67.87572068578508 L 957.5636588401196 67.89317492775442 L 957.7986077301315 67.91169217559886 L 958.0331352556562 67.93127057760906 L 958.267217964137 67.95190817596112 L 958.5008324474977 67.97360290691242 L 958.7339553444848 67.99635260100793 L 958.9665633430029 68.0201549832972 L 959.198633182446 68.04500767356186 L 959.4301416560235 68.07090818655355 L 959.661065613081 68.0978539322426 L 959.8913819614152 68.12584221607686 L 960.1210676695831 68.15487023925128 L 960.3500997692055 68.18493509898775 L 960.5784553572631 68.21603378882533 L 960.8061115983876 68.24816319892096 L 961.0330457271443 68.2813201163604 L 961.2592350503097 68.31550122547955 L 961.48465694914 68.35070310819597 L 961.7092888816329 68.38692224435073 L 961.9331083847826 68.42415501206038 L 962.1560930768252 68.4623976880792 L 962.3782206594772 68.50164644817144 L 962.5994689201657 68.5418973674938 L 962.8198157342488 68.5831464209879 L 963.0392390672287 68.62538948378277 L 963.2577169769551 68.66862233160731 L 963.475227615819 68.71284064121278 L 963.6917492329378 68.75803999080506 L 963.9072601763302 68.80421586048686 L 964.1217388950814 68.8513636327097 L 964.3351639414984 68.89947859273563 L 964.5475139732544 68.94855592910876 L 964.7587677555231 68.99859073413636 L 964.9689041631023 69.04957800437958 L 965.1779021825263 69.10151264115393 L 965.3857409141675 69.15438945103898 L 965.5923995743258 69.20820314639782 L 965.7978574973075 69.26294834590577 L 966.0020941374914 69.31861957508848 L 966.2050890713838 69.37521126686941 L 966.4068219996603 69.43271776212659 L 966.6072727491965 69.49113331025838 L 966.8064212750841 69.55045206975865 L 967.0042476626367 69.6106681088009 L 967.2007321293803 69.67177540583138 L 967.3958550270321 69.73376785017133 L 967.5895968434648 69.79663924262796 L 967.7819382046582 69.86038329611443 L 967.9728598766367 69.92499363627851 L 968.1623427673918 69.99046380214003 L 968.3503679287927 70.05678724673693 L 968.5369165584798 70.12395733778007 L 968.7219700017455 70.19196735831628 L 968.9055097533998 70.2608105074002 L 969.0875174596205 70.33047990077428 L 969.2679749197886 70.40096857155726 L 969.4468640883084 70.47226947094077 L 969.6241670764122 70.54437546889432 L 969.799866153949 70.61727935487819 L 969.9739437511573 70.69097383856453 L 970.1463824604226 70.7654515505664 L 970.3171650380176 70.84070504317464 L 970.4862744058269 70.91672679110272 L 970.6536936530545 70.99350919223919 L 970.8194060379153 71.07104456840791 L 970.983394989309 71.14932516613591 L 971.145644108477 71.22834315742861 L 971.3061371706426 71.30809064055276 L 971.4648581266334 71.38855964082649 L 971.621791104486 71.46974211141682 L 971.7769204110333 71.55162993414437 L 971.9302305334742 71.6342149202951 L 972.0817061409239 71.71748881143918 L 972.231332085948 71.80144328025693 L 972.3790934060768 71.88606993137142 L 972.5249753253013 71.97136030218806 L 972.6689632555511 72.05730586374082 L 972.8110427981534 72.14389802154521 L 972.9511997452721 72.23112811645758 L 973.0894200813293 72.31898742554114 L 973.2256899844067 72.40746716293819 L 973.3599958276275 72.49655848074872 L 973.4923241805193 72.58625246991521 L 973.6226618103569 72.67654016111346 L 973.7509956834863 72.76741252564963 L 973.877312966627 72.85886047636295 L 974.0016010281556 72.95087486853458 L 974.12384743937 73.04344650080199 L 974.2440399757307 73.13656611607907 L 974.3621666180844 73.2302244024819 L 974.4782155538651 73.32441199425989 L 974.592175178276 73.41911947273236 L 974.7040340954496 73.51433736723038 L 974.8137811195875 73.61005615604385 L 974.9214052760786 73.70626626737365 L 975.0268958025971 73.80295808028882 L 975.1302421501781 73.90012192568864 L 975.231433984273 73.99774808726954 L 975.330461185783 74.09582680249675 L 975.4273138520699 74.19434826358044 L 975.5219822979483 74.29330261845661 L 975.6144570566522 74.39267997177224 L 975.704728880783 74.49247038587482 L 975.7927887432334 74.59266388180609 L 975.8786278380904 74.69325044029995 L 975.9622375815164 74.79422000278437 L 976.0436096126064 74.89556247238725 L 976.1227357942253 74.99726771494608 L 976.1996082138207 75.09932556002136 L 976.2742191842149 75.20172580191361 L 976.3465612443729 75.304458200684 L 976.4166271601491 75.40751248317825 L 976.4844099250101 75.510878344054 L 976.5499027607361 75.61454544681129 L 976.613099118098 75.71850342482624 L 976.6739926775127 75.82274188238767 L 976.7325773496751 75.9272503957367 L 976.7888472761667 76.03201851410908 L 976.842796830042 76.13703576078028 L 976.8944206163902 76.24229163411314 L 976.9437134728759 76.34777560860806 L 976.9906704702545 76.45347713595547 L 977.0352869128653 76.55938564609073 L 977.0775583391014 76.66549054825109 L 977.1174805218552 76.77178123203474 L 977.1550494689419 76.87824706846187 L 977.1902614234979 76.98487741103759 L 977.2231128643573 77.09166159681648 L 977.2536005064031 77.19858894746895 L 977.2817213008968 77.30564877034905 L 977.3074724357822 77.41283035956369 L 977.3308513359674 77.52012299704329 L 977.3518556635817 77.62751595361348 L 977.37048331821 77.73499849006812 L 977.3867324371022 77.84255985824313 L 977.4006013953601 77.95018930209135 L 977.4120888060994 78.05787605875803 L 977.4211935205885 78.16560935965728 L 977.4279146283637 78.27337843154879 L 977.4322514573197 78.38117249761517 L 977.4342035737773 78.48898077853964 M 977.4343245638332 112.82724919310002 L 977.4331321039296 112.93505973801663 L 977.4295548434635 113.04285950196861 L 977.4235931401582 113.15063770506937 L 977.4152475901789 113.25838356958842 L 977.4045190280737 113.3660863210291 L 977.3914085266898 113.47373518920602 L 977.3759173970666 113.58131940932206 L 977.358047188304 113.68882822304487 L 977.3377996874079 113.79625087958267 L 977.3151769191118 113.90357663675931 L 977.2901811456734 114.01079476208854 L 977.2628148666494 114.11789453384714 L 977.2330808186448 114.2248652421472 L 977.2009819750397 114.33169619000704 L 977.1665215456916 114.43837669442088 L 977.1297029766148 114.54489608742719 L 977.0905299496354 114.65124371717545 L 977.0490063820237 114.75740894899127 L 977.0051364261017 114.86338116643998 L 976.9589244688283 114.96914977238812 L 976.910375131361 115.07470419006324 L 976.8594932685929 115.18003386411154 L 976.806283968668 115.28512826165338 L 976.7507525524718 115.38997687333661 L 976.6929045730998 115.4945692143874 L 976.6327458153016 115.59889482565882 L 976.570282294903 115.70294327467668 L 976.5055202582038 115.8067041566828 L 976.4384661813538 115.91016709567542 L 976.3691267697048 116.01332174544687 L 976.2975089571402 116.11615779061815 L 976.2236199053815 116.21866494767042 L 976.1474670032725 116.3208329659734 L 976.0690578660397 116.4226516288104 L 975.9884003345315 116.5241107544 L 975.9055024744341 116.62520019691416 L 975.8203725754643 116.7259098474929 L 975.7330191505408 116.82622963525507 L 975.6434509349336 116.9261495283055 L 975.5516768853896 117.02565953473814 L 975.4577061792372 117.12474970363529 L 975.3615482134686 117.22341012606262 L 975.2632126038005 117.32163093606012 L 975.1627091837117 117.41940231162862 L 975.0600480034606 117.51671447571204 L 974.9552393290795 117.61355769717508 L 974.8482936413486 117.7099222917763 L 974.7392216347477 117.80579862313651 L 974.6280342163864 117.90117710370251 L 974.5147425049138 117.99604819570571 L 974.3993578294069 118.09040241211596 L 974.2818917282368 118.18423031759026 L 974.1623559479159 118.27752252941625 L 974.0407624419227 118.37026971845049 L 973.9171233695063 118.46246261005135 L 973.7914510944709 118.55409198500652 L 973.6637581839394 118.64514868045485 L 973.5340574070964 118.73562359080267 L 973.4023617339114 118.82550766863436 L 973.2686843338422 118.91479192561702 L 973.1330385745173 119.00346743339938 L 972.9954380203994 119.09152532450453 L 972.8558964314295 119.17895679321676 L 972.7144277616502 119.26575309646203 L 972.5710461578104 119.35190555468239 L 972.4257659579513 119.43740555270377 L 972.2786016899714 119.52224454059764 L 972.1295680701753 119.6064140345359 L 971.9786800018004 119.68990561763931 L 971.8259525735281 119.77271094081912 L 971.6714010579738 119.85482172361203 L 971.5150409101603 119.93622975500818 L 971.356887765972 120.01692689427227 L 971.1969574405917 120.09690507175762 L 971.0352659269186 120.17615628971313 L 970.8718293939693 120.25467262308305 L 970.7066641852607 120.33244622029946 L 970.5397868171764 120.40946930406747 L 970.3712139773139 120.48573417214288 L 970.2009625228168 120.56123319810243 L 970.0290494786886 120.63595883210644 L 969.8554920360906 120.70990360165379 L 969.6803075506223 120.78306011232915 L 969.5035135405863 120.8554210485424 L 969.3251276852362 120.92697917426023 L 969.1451678230089 120.9977273337297 L 968.9636519497409 121.0676584521938 L 968.7805982168679 121.13676553659899 L 968.596024929611 121.2050416762944 L 968.4099505451447 121.27248004372296 L 968.2223936707528 121.33907389510412 L 968.0333730619661 121.40481657110826 L 967.8429076206883 121.46970149752254 L 967.6510163933044 121.53372218590839 L 967.4577185687776 121.59687223425034 L 967.2630334767291 121.65914532759616 L 967.0669805855059 121.72053523868843 L 966.8695795002337 121.78103582858718 L 966.6708499608567 121.84064104728385 L 966.4708118401629 121.89934493430623 L 966.269485141798 121.95714161931456 L 966.066889998264 122.01402532268847 L 965.8630466689061 122.06999035610504 L 965.6579755378879 122.12503112310758 L 965.4516971121511 122.17914211966524 L 965.2442320193668 122.23231793472345 L 965.0356010058711 122.28455325074505 L 964.8258249345917 122.33584284424194 L 964.6149247829607 122.38618158629751 L 964.4029216408176 122.43556444307951 L 964.1898367082999 122.48398647634343 L 963.9756912937236 122.53144284392627 L 963.7605068114513 122.57792880023082 L 963.544304779752 122.62343969670022 L 963.3271068186489 122.6679709822827 L 963.1089346477569 122.71151820388684 L 962.8898100841113 122.75407700682678 L 962.669755039986 122.79564313525766 L 962.4487915207019 122.8362124326013 L 962.2269416224269 122.87578084196176 L 962.0042275299659 122.91434440653109 L 961.7806715145424 122.95189926998495 L 961.556295931572 122.9884416768683 L 961.3311232184257 123.02396797297092 L 961.1051758921873 123.05847460569278 L 960.8784765474011 123.09195812439938 L 960.6510478538127 123.12441518076675 L 960.4229125541018 123.15584252911628 L 960.1940934616085 123.18623702673935 L 959.9646134580512 123.21559563421152 L 959.7344954912392 123.2439154156965 L 959.5037625727771 123.27119353923975 L 959.2724377757647 123.29742727705164 L 959.0405442324889 123.32261400578027 L 958.8081051321108 123.34675120677372 L 958.5751437183467 123.36983646633203 L 958.3416832871437 123.39186747594849 L 958.1077471843507 123.41284203254047 L 957.8733588033828 123.4327580386698 L 957.6385415828828 123.45161350275248 L 957.4033190043772 123.46940653925779 L 957.1677145899275 123.48613536889692 L 956.9317518997792 123.50179831880087 L 956.6954545300046 123.51639382268765 L 956.4588461101436 123.52992042101907 L 956.221950300841 123.54237676114657 L 955.9847907914805 123.5537615974465 L 955.7473912978153 123.56407379144473 L 955.5097755595968 123.57331231193044 L 955.2719673382012 123.5814762350593 L 955.0339904142521 123.58856474444579 L 954.7958685852437 123.59457713124488 L 954.5576256631606 123.59951279422289 L 954.3192854720962 123.60337123981765 L 954.0808718458712 123.6061520821878 L 953.8424086256495 123.60785504325145 L 953.6039196575543 123.60847995271388 L 953.3654287902838 123.60802674808467 L 953.1269598727259 123.60649547468392 L 952.8885367515737 123.6038862856377 L 952.6501832689407 123.60019944186271 L 952.4119232599763 123.59543531204028 L 952.1737805504831 123.58959437257941 L 951.9357789545335 123.58267720756919 L 951.6979422720887 123.57468450872035 L 951.4602942866187 123.5656170752961 L 951.2228587627242 123.55547581403226 L 950.9856594437595 123.54426173904648 L 950.748720049459 123.53197597173691 L 950.5120642735648 123.51861974067006 L 950.2757157814569 123.50419438145789 L 950.0396982077879 123.48870133662433 L 949.8040351541183 123.47214215546092 L 949.5687501865572 123.45451849387197 L 949.3338668334052 123.43583211420899 L 949.0994085828019 123.41608488509436 L 948.865398880377 123.39527878123452 L 948.6318611269056 123.37341588322253 L 948.3988186759688 123.35049837732997 L 948.166294831617 123.32652855528833 L 947.9343128460412 123.30150881405986 L 947.7028959172466 123.2754416555978 L 947.472067186733 123.24832968659628 L 947.2418497371815 123.22017561822963 L 947.0122665901449 123.1909822658812 L 946.7833407037466 123.16075254886192 L 946.5550949703846 123.12948949011827 L 946.327552214442 123.0971962159301 L 946.1007351900047 123.06387595559791 L 945.8746665785862 123.02953204111996 L 945.6493689868593 122.99416790685909 L 945.4248649443952 122.95778708919923 L 945.2011769014113 122.92039322619186 L 944.9783272265254 122.88199005719211 L 944.7563382045192 122.84258142248487 L 944.5352320341102 122.80217126290077 L 944.3150308257308 122.7607636194221 L 944.0957565993186 122.71836263277869 L 943.8774312821134 122.67497254303389 L 943.660076706465 122.63059768916051 L 943.44371460765 122.58524250860694 L 943.2283666216977 122.53891153685346 L 943.0140542832274 122.49160940695863 L 942.8007990232943 122.44334084909602 L 942.5886221672469 122.39411069008119 L 942.3775449325935 122.34392385288903 L 942.1675884268822 122.29278535616142 L 941.9587736455883 122.24070031370543 L 941.751121470016 122.1876739339819 L 941.5446526652098 122.1337115195846 L 941.3393878778782 122.07881846671 L 941.1353476343287 122.02300026461768 L 940.9325523384157 121.96626249508128 L 940.7310222694999 121.90861083183052 L 940.5307775804202 121.85005103998367 L 940.3318382954786 121.7905889754711 L 940.1342243084379 121.73023058444971 L 939.937955380532 121.66898190270831 L 939.7430511384902 121.60684905506405 L 939.5495310725743 121.54383825474989 L 939.3574145346295 121.47995580279337 L 939.1667207361497 121.41520808738645 L 938.9774687463557 121.3496015832467 L 938.7896774902888 121.28314285096988 L 938.6033657469181 121.21583853637382 L 938.4185521472627 121.14769536983391 L 938.2352551725287 121.07872016561001 L 938.0534931522604 121.00891982116505 L 937.873284262509 120.93830131647532 L 937.6946465240127 120.86687171333244 L 937.5175978003967 120.79463815463721 L 937.3421557963859 120.72160786368529 L 937.1683380560345 120.64778814344493 L 936.9961619609716 120.57318637582662 L 936.8256447286632 120.49781002094497 L 936.6568034106906 120.42166661637263 L 936.4896548910447 120.34476377638664 L 936.3242158844383 120.2671091912069 L 936.1605029346341 120.1887106262272 L 935.9985324127908 120.10957592123873 L 935.8383205158256 120.02971298964601 L 935.6798832647944 119.9491298176757 L 935.5232365032906 119.8678344635778 L 935.3683958958597 119.78583505681998 L 935.2153769264335 119.70313979727459 L 935.0641948967811 119.61975695439867 L 934.9148649249798 119.53569486640703 L 934.7674019439023 119.45096193943841 L 934.6218206997238 119.36556664671491 L 934.4781357504473 119.27951752769461 L 934.3363614644481 119.19282318721774 L 934.1965120190367 119.10549229464607 L 934.058601399041 119.01753358299611 L 933.9226433954079 118.92895584806571 L 933.7886516038249 118.83976794755455 L 933.6566394233591 118.74997880017835 L 933.5266200551188 118.65959738477704 L 933.3986065009323 118.56863273941686 L 933.2726115620484 118.47709396048649 L 933.1486478378561 118.38499020178757 L 933.0267277246244 118.29233067361923 L 932.906863414263 118.19912464185705 L 932.789066893103 118.10538142702656 L 932.6733499406986 118.01111040337108 L 932.5597241286483 117.91632099791445 L 932.448200819439 117.82102268951823 L 932.3387911653083 117.72522500793383 L 932.2315061071306 117.62893753284956 L 932.1263563733223 117.53216989293273 L 932.0233524787693 117.43493176486666 L 931.922504723775 117.33723287238314 L 931.8238231930309 117.23908298529 L 931.727317754608 117.14049191849415 L 931.6329980589695 117.04146953102013 L 931.5408735380065 116.94202572502415 L 931.4509534040943 116.84217044480394 L 931.3632466491714 116.74191367580433 L 931.2777620438401 116.64126544361865 L 931.1945081364898 116.54023581298625 L 931.1134932524418 116.43883488678601 L 931.034725493117 116.33707280502605 L 930.9582127352257 116.23495974382973 L 930.8839626299799 116.1325059144181 L 930.8119826023284 116.02972156208871 L 930.7422798502137 115.92661696519113 L 930.6748613438532 115.82320243409914 L 930.6097338250412 115.71948831017968 L 930.5469038064753 115.61548496475869 L 930.4863775711051 115.51120279808407 L 930.4281611715036 115.40665223828556 L 930.3722604292624 115.30184374033203 L 930.3186809344089 115.19678778498594 L 930.2674280448481 115.09149487775527 L 930.2185068858263 114.98597554784298 L 930.1719223494184 114.88024034709416 L 930.1276790940395 114.77429984894077 L 930.0857815439781 114.66816464734433 L 930.0462338889544 114.56184535573654 L 930.0090400837007 114.455352605958 L 929.9742038475669 114.3486970471949 L 929.9417286641471 114.24188934491428 L 929.9116177809332 114.13494017979733 L 929.8838742089879 114.02786024667145 L 929.8585007226455 113.92066025344073 L 929.8354998592336 113.81335092001514 L 929.8148739188191 113.7059429772386 L 929.796624963979 113.5984471658159 L 929.7807548195935 113.49087423523858 L 929.767265072664 113.38323494271008 L 929.7561570721538 113.27554005206993 L 929.7474319288538 113.16780033271746 L 929.7410905152708 113.06002655853482 L 929.7371334655412 112.95222950680962 L 929.7355611753665 112.84441995715719" stroke-miterlimit="10" stroke-width="2.7769845610000004" stroke-dasharray=""/></g><g><text fill="black" stroke="none" font-family="sans-serif" font-size="11pt" font-style="normal" font-weight="normal" text-decoration="normal" x="922.2069827995442" y="141.136156512" text-anchor="start" dominant-baseline="alphabetic" xml:space="preserve">Database</text></g></g><g><path fill="white" stroke="black" paint-order="fill stroke markers" d=" M 314.2700373055989 199.942888392 L 330.6052406055989 199.942888392 L 330.6052406055989 1055.907541312 L 314.2700373055989 1055.907541312 L 314.2700373055989 199.942888392" stroke-miterlimit="10" stroke-width="1.3612669416666667" stroke-dasharray=""/><path fill="white" stroke="black" paint-order="fill stroke markers" d=" M 533.9008901608072 291.420026872 L 550.2360934608073 291.420026872 L 550.2360934608073 1010.168972072 L 533.9008901608072 1010.168972072 L 533.9008901608072 291.420026872" stroke-miterlimit="10" stroke-width="1.3612669416666667" stroke-dasharray=""/><path fill="white" stroke="black" paint-order="fill stroke markers" d=" M 739.6591081283202 337.158596112 L 755.9943114283203 337.158596112 L 755.9943114283203 474.374303832 L 739.6591081283202 474.374303832 L 739.6591081283202 337.158596112" stroke-miterlimit="10" stroke-width="1.3612669416666667" stroke-dasharray=""/><path fill="white" stroke="black" paint-order="fill stroke markers" d=" M 945.4173260958332 382.897165352 L 961.7525293958333 382.897165352 L 961.7525293958333 428.635734592 L 945.4173260958332 428.635734592 L 945.4173260958332 382.897165352" stroke-miterlimit="10" stroke-width="1.3612669416666667" stroke-dasharray=""/><path fill="white" stroke="black" paint-order="fill stroke markers" d=" M 739.6591081283202 761.8738819119999 L 755.9943114283203 761.8738819119999 L 755.9943114283203 931.7599962319999 L 739.6591081283202 931.7599962319999 L 739.6591081283202 761.8738819119999" stroke-miterlimit="10" stroke-width="1.3612669416666667" stroke-dasharray=""/><path fill="white" stroke="black" paint-order="fill stroke markers" d=" M 945.4173260958332 807.6124511519998 L 961.7525293958333 807.6124511519998 L 961.7525293958333 869.6862236919999 L 945.4173260958332 869.6862236919999 L 945.4173260958332 807.6124511519998" stroke-miterlimit="10" stroke-width="1.3612669416666667" stroke-dasharray=""/><g><g><rect fill="white" stroke="none" x="117.68807583182287" y="178.707124102" width="152.40230049195313" height="21.23576429"/></g><text fill="black" stroke="none" font-family="sans-serif" font-size="11pt" font-style="normal" font-weight="normal" text-decoration="normal" x="120.13835632682287" y="193.40880707199997" text-anchor="start" dominant-baseline="alphabetic" xml:space="preserve">Go to Subject list page</text></g><g><path fill="none" stroke="black" paint-order="fill stroke markers" d=" M 73.50841485 199.942888392 L 300.82071992193227 199.942888392" stroke-miterlimit="10" stroke-width="1.3612669416666667" stroke-dasharray=""/><g transform="translate(314.2700373055989,199.942888392) translate(-314.2700373055989,-199.942888392)"><path fill="black" stroke="none" paint-order="stroke fill markers" d=" M 300.65736788893224 193.13655368366665 L 314.2700373055989 199.942888392 L 300.65736788893224 206.74922310033332 Z"/></g></g><g><g><rect fill="white" stroke="none" x="109.1447713884635" y="224.445693342" width="169.48890937867188" height="21.23576429"/></g><text fill="black" stroke="none" font-family="sans-serif" font-size="11pt" font-style="normal" font-weight="normal" text-decoration="normal" x="111.5950518834635" y="239.14737631199998" text-anchor="start" dominant-baseline="alphabetic" xml:space="preserve">Click on Name of Subject</text></g><g><path fill="none" stroke="black" paint-order="fill stroke markers" d=" M 73.50841485 245.681457632 L 300.82071992193227 245.681457632" stroke-miterlimit="10" stroke-width="1.3612669416666667" stroke-dasharray=""/><g transform="translate(314.2700373055989,245.681457632) translate(-314.2700373055989,-245.681457632)"><path fill="black" stroke="none" paint-order="stroke fill markers" d=" M 300.65736788893224 238.87512292366665 L 314.2700373055989 245.681457632 L 300.65736788893224 252.48779234033333 Z"/></g></g><g><g><rect fill="white" stroke="none" x="361.75698563283197" y="270.184262582" width="140.9921595007422" height="21.23576429"/></g><text fill="black" stroke="none" font-family="sans-serif" font-size="11pt" font-style="normal" font-weight="normal" text-decoration="normal" x="364.207266127832" y="284.88594555199995" text-anchor="start" dominant-baseline="alphabetic" xml:space="preserve">GET: /api/subject/{id}</text></g><g><path fill="none" stroke="black" paint-order="fill stroke markers" d=" M 330.6052406055989 291.420026872 L 520.4515727771405 291.420026872" stroke-miterlimit="10" stroke-width="1.3612669416666667" stroke-dasharray=""/><g transform="translate(533.9008901608072,291.420026872) translate(-533.9008901608072,-291.420026872)"><path fill="black" stroke="none" paint-order="stroke fill markers" d=" M 520.2882207441405 284.61369216366666 L 533.9008901608072 291.420026872 L 520.2882207441405 298.22636158033333 Z"/></g></g><g><g><rect fill="white" stroke="none" x="621.7206708244661" y="315.922831822" width="46.453859940195315" height="21.23576429"/></g><text fill="black" stroke="none" font-family="sans-serif" font-size="11pt" font-style="normal" font-weight="normal" text-decoration="normal" x="624.1709513194661" y="330.62451479199996" text-anchor="start" dominant-baseline="alphabetic" xml:space="preserve">get(id)</text></g><g><path fill="none" stroke="black" paint-order="fill stroke markers" d=" M 550.2360934608073 337.158596112 L 726.2097907446536 337.158596112" stroke-miterlimit="10" stroke-width="1.3612669416666667" stroke-dasharray=""/><g transform="translate(739.6591081283202,337.158596112) translate(-739.6591081283202,-337.158596112)"><path fill="black" stroke="none" paint-order="stroke fill markers" d=" M 726.0464387116535 330.35226140366666 L 739.6591081283202 337.158596112 L 726.0464387116535 343.96493082033334 Z"/></g></g><g><g><rect fill="white" stroke="none" x="811.1832650126822" y="361.661401062" width="79.04510749878906" height="21.23576429"/></g><text fill="black" stroke="none" font-family="sans-serif" font-size="11pt" font-style="normal" font-weight="normal" text-decoration="normal" x="813.6335455076822" y="376.36308403199996" text-anchor="start" dominant-baseline="alphabetic" xml:space="preserve">findById(id)</text></g><g><path fill="none" stroke="black" paint-order="fill stroke markers" d=" M 755.9943114283203 382.897165352 L 931.9680087121666 382.897165352" stroke-miterlimit="10" stroke-width="1.3612669416666667" stroke-dasharray=""/><g transform="translate(945.4173260958332,382.897165352) translate(-945.4173260958332,-382.897165352)"><path fill="black" stroke="none" paint-order="stroke fill markers" d=" M 931.8046566791666 376.09083064366666 L 945.4173260958332 382.897165352 L 931.8046566791666 389.70350006033334 Z"/></g></g><g><g><rect fill="white" stroke="none" x="807.5039437236197" y="407.399970302" width="86.40375007691406" height="21.23576429"/></g><text fill="black" stroke="none" font-family="sans-serif" font-size="11pt" font-style="normal" font-weight="normal" text-decoration="normal" x="809.9542242186197" y="422.10165327199996" text-anchor="start" dominant-baseline="alphabetic" xml:space="preserve">Subject data</text></g><g><path fill="none" stroke="black" paint-order="fill stroke markers" d=" M 945.4173260958332 428.635734592 L 769.443628811987 428.635734592" stroke-miterlimit="10" stroke-width="1.3612669416666667" stroke-dasharray="6.53408132"/><g transform="translate(755.9943114283203,428.635734592) translate(-755.9943114283203,-428.635734592)"><path fill="black" stroke="none" paint-order="stroke fill markers" d=" M 769.606980844987 421.82939988366667 L 755.9943114283203 428.635734592 L 769.606980844987 435.44206930033334 Z"/></g></g><g><g><rect fill="white" stroke="none" x="601.7457257561067" y="453.138539542" width="86.40375007691406" height="21.23576429"/></g><text fill="black" stroke="none" font-family="sans-serif" font-size="11pt" font-style="normal" font-weight="normal" text-decoration="normal" x="604.1960062511067" y="467.84022251199997" text-anchor="start" dominant-baseline="alphabetic" xml:space="preserve">Subject data</text></g><g><path fill="none" stroke="black" paint-order="fill stroke markers" d=" M 739.6591081283202 474.374303832 L 563.685410844474 474.374303832" stroke-miterlimit="10" stroke-width="1.3612669416666667" stroke-dasharray="6.53408132"/><g transform="translate(550.2360934608073,474.374303832) translate(-550.2360934608073,-474.374303832)"><path fill="black" stroke="none" paint-order="stroke fill markers" d=" M 563.848762877474 467.56796912366667 L 550.2360934608073 474.374303832 L 563.848762877474 481.18063854033335 Z"/></g></g><g><g><rect fill="white" stroke="none" x="371.9681214970898" y="542.9821576919999" width="120.56988777222656" height="21.23576429"/></g><text fill="red" stroke="none" font-family="sans-serif" font-size="11pt" font-style="normal" font-weight="normal" text-decoration="normal" x="374.4184019920898" y="557.6838406619999" text-anchor="start" dominant-baseline="alphabetic" xml:space="preserve">404 NOT FOUND</text></g><g><path fill="none" stroke="black" paint-order="fill stroke markers" d=" M 533.9008901608072 564.2179219819999 L 344.05455798926556 564.2179219819999" stroke-miterlimit="10" stroke-width="1.3612669416666667" stroke-dasharray="6.53408132"/><g transform="translate(330.6052406055989,564.2179219819999) translate(-330.6052406055989,-564.2179219819999)"><path fill="black" stroke="none" paint-order="stroke fill markers" d=" M 344.2179100222656 557.4115872736666 L 330.6052406055989 564.2179219819999 L 344.2179100222656 571.0242566903332 Z"/></g></g><g><g><rect fill="white" stroke="none" x="92.83840542166662" y="588.7207269319998" width="202.10164131226563" height="21.23576429"/></g><text fill="black" stroke="none" font-family="sans-serif" font-size="11pt" font-style="normal" font-weight="normal" text-decoration="normal" x="95.28868591666662" y="603.4224099019998" text-anchor="start" dominant-baseline="alphabetic" xml:space="preserve">Display 404 Not Found screen</text></g><g><path fill="none" stroke="black" paint-order="fill stroke markers" d=" M 314.2700373055989 609.9564912219998 L 86.95773223366666 609.9564912219998" stroke-miterlimit="10" stroke-width="1.3612669416666667" stroke-dasharray="6.53408132"/><g transform="translate(73.50841485,609.9564912219998) translate(-73.50841485,-609.9564912219998)"><path fill="black" stroke="none" paint-order="stroke fill markers" d=" M 87.12108426666666 603.1501565136665 L 73.50841485 609.9564912219998 L 87.12108426666666 616.7628259303332 Z"/></g></g><g><g><rect fill="white" stroke="none" x="351.5673188847851" y="678.5643450819999" width="41.55769599976563" height="21.23576429"/></g><g><rect fill="white" stroke="none" x="351.5673188847851" y="694.8995483819999" width="161.37149299683594" height="21.23576429"/></g><text fill="black" stroke="none" font-family="sans-serif" font-size="11pt" font-style="normal" font-weight="normal" text-decoration="normal" x="354.0175993797851" y="693.2660280519999" text-anchor="start" dominant-baseline="alphabetic" xml:space="preserve">GET: </text><text fill="black" stroke="none" font-family="sans-serif" font-size="11pt" font-style="normal" font-weight="normal" text-decoration="normal" x="354.0175993797851" y="709.6012313519999" text-anchor="start" dominant-baseline="alphabetic" xml:space="preserve">/api/subject/{id}/syllabus</text></g><g><path fill="none" stroke="black" paint-order="fill stroke markers" d=" M 330.6052406055989 716.1353126719999 L 520.4515727771405 716.1353126719999" stroke-miterlimit="10" stroke-width="1.3612669416666667" stroke-dasharray=""/><g transform="translate(533.9008901608072,716.1353126719999) translate(-533.9008901608072,-716.1353126719999)"><path fill="black" stroke="none" paint-order="stroke fill markers" d=" M 520.2882207441405 709.3289779636666 L 533.9008901608072 716.1353126719999 L 520.2882207441405 722.9416473803333 Z"/></g></g><g><g><rect fill="white" stroke="none" x="569.5660840324739" y="740.6381176219999" width="150.7630335241797" height="21.23576429"/></g><text fill="black" stroke="none" font-family="sans-serif" font-size="11pt" font-style="normal" font-weight="normal" text-decoration="normal" x="572.0163645274739" y="755.3398005919998" text-anchor="start" dominant-baseline="alphabetic" xml:space="preserve">getSyllabiInSubject(id)</text></g><g><path fill="none" stroke="black" paint-order="fill stroke markers" d=" M 550.2360934608073 761.8738819119999 L 726.2097907446536 761.8738819119999" stroke-miterlimit="10" stroke-width="1.3612669416666667" stroke-dasharray=""/><g transform="translate(739.6591081283202,761.8738819119999) translate(-739.6591081283202,-761.8738819119999)"><path fill="black" stroke="none" paint-order="stroke fill markers" d=" M 726.0464387116535 755.0675472036665 L 739.6591081283202 761.8738819119999 L 726.0464387116535 768.6802166203332 Z"/></g></g><g><g><rect fill="white" stroke="none" x="775.3243019999869" y="786.3766868619998" width="150.7630335241797" height="21.23576429"/></g><text fill="black" stroke="none" font-family="sans-serif" font-size="11pt" font-style="normal" font-weight="normal" text-decoration="normal" x="777.7745824949869" y="801.0783698319998" text-anchor="start" dominant-baseline="alphabetic" xml:space="preserve">getSyllabiInSubject(id)</text></g><g><path fill="none" stroke="black" paint-order="fill stroke markers" d=" M 755.9943114283203 807.6124511519998 L 931.9680087121666 807.6124511519998" stroke-miterlimit="10" stroke-width="1.3612669416666667" stroke-dasharray=""/><g transform="translate(945.4173260958332,807.6124511519998) translate(-945.4173260958332,-807.6124511519998)"><path fill="black" stroke="none" paint-order="stroke fill markers" d=" M 931.8046566791666 800.8061164436665 L 945.4173260958332 807.6124511519998 L 931.8046566791666 814.4187858603332 Z"/></g></g><g><g><rect fill="white" stroke="none" x="807.5182717265494" y="832.1152561019999" width="86.37509407105469" height="21.23576429"/></g><g><rect fill="white" stroke="none" x="807.5182717265494" y="848.4504594019999" width="69.28134407105469" height="21.23576429"/></g><text fill="black" stroke="none" font-family="sans-serif" font-size="11pt" font-style="normal" font-weight="normal" text-decoration="normal" x="809.9685522215494" y="846.8169390719999" text-anchor="start" dominant-baseline="alphabetic" xml:space="preserve">Syllabus list </text><text fill="black" stroke="none" font-family="sans-serif" font-size="11pt" font-style="normal" font-weight="normal" text-decoration="normal" x="809.9685522215494" y="863.1521423719998" text-anchor="start" dominant-baseline="alphabetic" xml:space="preserve">in Subject</text></g><g><path fill="none" stroke="black" paint-order="fill stroke markers" d=" M 945.4173260958332 869.6862236919999 L 769.443628811987 869.6862236919999" stroke-miterlimit="10" stroke-width="1.3612669416666667" stroke-dasharray="6.53408132"/><g transform="translate(755.9943114283203,869.6862236919999) translate(-755.9943114283203,-869.6862236919999)"><path fill="black" stroke="none" paint-order="stroke fill markers" d=" M 769.606980844987 862.8798889836665 L 755.9943114283203 869.6862236919999 L 769.606980844987 876.4925584003332 Z"/></g></g><g><g><rect fill="white" stroke="none" x="601.7600537590364" y="894.1890286419999" width="86.37509407105469" height="21.23576429"/></g><g><rect fill="white" stroke="none" x="601.7600537590364" y="910.5242319419999" width="69.28134407105469" height="21.23576429"/></g><text fill="black" stroke="none" font-family="sans-serif" font-size="11pt" font-style="normal" font-weight="normal" text-decoration="normal" x="604.2103342540364" y="908.8907116119999" text-anchor="start" dominant-baseline="alphabetic" xml:space="preserve">Syllabus list </text><text fill="black" stroke="none" font-family="sans-serif" font-size="11pt" font-style="normal" font-weight="normal" text-decoration="normal" x="604.2103342540364" y="925.2259149119999" text-anchor="start" dominant-baseline="alphabetic" xml:space="preserve">in Subject</text></g><g><path fill="none" stroke="black" paint-order="fill stroke markers" d=" M 739.6591081283202 931.7599962319999 L 563.685410844474 931.7599962319999" stroke-miterlimit="10" stroke-width="1.3612669416666667" stroke-dasharray="6.53408132"/><g transform="translate(550.2360934608073,931.7599962319999) translate(-550.2360934608073,-931.7599962319999)"><path fill="black" stroke="none" paint-order="stroke fill markers" d=" M 563.848762877474 924.9536615236666 L 550.2360934608073 931.7599962319999 L 563.848762877474 938.5663309403333 Z"/></g></g><g><g><rect fill="white" stroke="none" x="349.93523117726556" y="956.262801182" width="164.635668411875" height="21.23576429"/></g><g><rect fill="white" stroke="none" x="349.93523117726556" y="972.598004482" width="123.06801094117188" height="21.23576429"/></g><g><rect fill="white" stroke="none" x="349.93523117726556" y="988.933207782" width="115.73085273804688" height="21.23576429"/></g><text fill="green" stroke="none" font-family="sans-serif" font-size="11pt" font-style="normal" font-weight="normal" text-decoration="normal" x="352.3855116722656" y="970.964484152" text-anchor="start" dominant-baseline="alphabetic" xml:space="preserve">200 OK Response body:</text><text fill="green" stroke="none" font-family="sans-serif" font-size="11pt" font-style="normal" font-weight="normal" text-decoration="normal" x="352.3855116722656" y="987.299687452" text-anchor="start" dominant-baseline="alphabetic" xml:space="preserve">All data of Subject</text><text fill="green" stroke="none" font-family="sans-serif" font-size="11pt" font-style="normal" font-weight="normal" text-decoration="normal" x="352.3855116722656" y="1003.6348907519999" text-anchor="start" dominant-baseline="alphabetic" xml:space="preserve">and Syllabus List</text></g><g><path fill="none" stroke="black" paint-order="fill stroke markers" d=" M 533.9008901608072 1010.168972072 L 344.05455798926556 1010.168972072" stroke-miterlimit="10" stroke-width="1.3612669416666667" stroke-dasharray="6.53408132"/><g transform="translate(330.6052406055989,1010.168972072) translate(-330.6052406055989,-1010.168972072)"><path fill="black" stroke="none" paint-order="stroke fill markers" d=" M 344.2179100222656 1003.3626373636666 L 330.6052406055989 1010.168972072 L 344.2179100222656 1016.9753067803333 Z"/></g></g><g><g><rect fill="white" stroke="none" x="121.36024074881506" y="1034.671777022" width="145.05797065796875" height="21.23576429"/></g><text fill="black" stroke="none" font-family="sans-serif" font-size="11pt" font-style="normal" font-weight="normal" text-decoration="normal" x="123.81052124381506" y="1049.373459992" text-anchor="start" dominant-baseline="alphabetic" xml:space="preserve">Display Subject detail</text></g><g><path fill="none" stroke="black" paint-order="fill stroke markers" d=" M 314.2700373055989 1055.907541312 L 86.95773223366666 1055.907541312" stroke-miterlimit="10" stroke-width="1.3612669416666667" stroke-dasharray="6.53408132"/><g transform="translate(73.50841485,1055.907541312) translate(-73.50841485,-1055.907541312)"><path fill="black" stroke="none" paint-order="stroke fill markers" d=" M 87.12108426666666 1049.1012066036667 L 73.50841485 1055.907541312 L 87.12108426666666 1062.7138760203331 Z"/></g></g><g><g/><path fill="none" stroke="black" paint-order="fill stroke markers" d=" M 16.335203299999996 498.87710878199994 L 1010.7581392958333 498.87710878199994 L 1010.7581392958333 1080.4103462619998 L 16.335203299999996 1080.4103462619998 L 16.335203299999996 498.87710878199994 Z" stroke-miterlimit="10" stroke-width="2.3336004714285714" stroke-dasharray=""/><path fill="white" stroke="black" paint-order="fill stroke markers" d=" M 16.335203299999996 498.87710878199994 L 16.335203299999996 518.479352742 L 62.69440689707031 518.479352742 L 72.49552887707031 508.67823076199994 L 72.49552887707031 498.87710878199994 L 16.335203299999996 498.87710878199994" stroke-miterlimit="10" stroke-width="2.3336004714285714" stroke-dasharray=""/><text fill="black" stroke="none" font-family="sans-serif" font-size="8.8pt" font-style="normal" font-weight="bold" text-decoration="normal" x="32.67040659999999" y="511.94527142199996" text-anchor="start" dominant-baseline="alphabetic" xml:space="preserve">alt</text><g><rect fill="white" stroke="none" x="86.38045168207032" y="500.18392504599996" width="116.3525873571875" height="16.988611432000003"/></g><text fill="black" stroke="none" font-family="sans-serif" font-size="8.8pt" font-style="normal" font-weight="bold" text-decoration="normal" x="88.83073217707032" y="511.94527142199996" text-anchor="start" dominant-baseline="alphabetic" xml:space="preserve">[If Subject is empty]</text><g><path fill="none" stroke="black" paint-order="fill stroke markers" d=" M 16.335203299999996 634.4592961719999 L 1010.7581392958333 634.4592961719999" stroke-miterlimit="10" stroke-width="2.3336004714285714" stroke-dasharray="4.083800825"/></g><g/><g><rect fill="white" stroke="none" x="86.38045168207032" y="635.7661124359998" width="36.84300483765625" height="16.988611432000003"/></g><text fill="black" stroke="none" font-family="sans-serif" font-size="8.8pt" font-style="normal" font-weight="bold" text-decoration="normal" x="88.83073217707032" y="647.5274588119998" text-anchor="start" dominant-baseline="alphabetic" xml:space="preserve">[Else]</text></g><g/></g></g></svg>