<svg version="1.1" xmlns="http://www.w3.org/2000/svg" xmlns:xlink="http://www.w3.org/1999/xlink" width="1146" height="639"><desc>title%20Get%20Syllabus%20available%20for%20Curriculum%0A%0A%0Aactor%20%23green%3A0.5%20%22Workspace%20Admin%22%20as%20w%0Aboundary%20%22FUniverse%20Admin%20Client%22%20as%20f%0Acontrol%20%22Syllabus%20Controller%22%20as%20gc%0Aparticipant%20%22Syllabus%20Service%22%20as%20gs%0Adatabase%20%23blue%3A1%20%22Database%22%20as%20db%0Aw-%3Ef%3AGo%20to%20Curriculum%20detail%20page%0Aactivate%20f%0Aw-%3Ef%3AClick%20Add%20Syllabus%20button%0Af-%3Egc%3AGET%3A%20%2Fapi%2Fsyllabus%2Fcurriculum%2Fnone%3Fid%3D%7Bid%7D%0Aactivate%20gc%0Agc-%3Egs%3A%20getAllSyllabusAvailable(id)%0Aactivate%20gs%0A%0Ags-%3Edb%3AgetAllSyllabusAvailable(id)%0Aactivate%20db%0Ags%3C--db%3ASyllabus%20list%0Adeactivate%20db%0Agc%3C--gs%3ASyllabus%20list%0Adeactivate%20gs%0Af%3C--gc%3A%3Ccolor%3A%23green%3E200%20OK%5CnResponse%20body%3A%20Syllabus%20list%3C%2Fcolor%3E%0Adeactivate%20gc%0Aw%3C--f%3ADisplay%20Add%20Syllabus%20%5Cninto%20Curriculum%20page%0A%0Adeactivate%20f</desc><defs/><g><g/><g/><g/><g/><g/><g/><g/><g/><g/><g/><g/><g/><g/><g/><g/><g/><g><rect fill="white" stroke="none" x="0" y="0" width="1146" height="639"/></g><g><text fill="black" stroke="none" font-family="sans-serif" font-size="16.5pt" font-style="normal" font-weight="normal" text-decoration="normal" x="392.2144737209147" y="24.50280495" text-anchor="start" dominant-baseline="alphabetic" xml:space="preserve">Get Syllabus available for Curriculum</text></g><g/><g><path fill="none" stroke="black" paint-order="fill stroke markers" d=" M 67.50902468466796 129.701514202 L 67.50902468466796 639.3598571620001" stroke-miterlimit="10" stroke-width="1.3612669416666667" stroke-dasharray="12.565541,5.445067766666667"/><path fill="none" stroke="black" paint-order="fill stroke markers" d=" M 305.83696094847005 129.701514202 L 305.83696094847005 639.3598571620001" stroke-miterlimit="10" stroke-width="1.3612669416666667" stroke-dasharray="12.565541,5.445067766666667"/><path fill="none" stroke="black" paint-order="fill stroke markers" d=" M 640.7576697607096 129.701514202 L 640.7576697607096 639.3598571620001" stroke-miterlimit="10" stroke-width="1.3612669416666667" stroke-dasharray="12.565541,5.445067766666667"/><path fill="none" stroke="black" paint-order="fill stroke markers" d=" M 873.1371951012695 129.701514202 L 873.1371951012695 639.3598571620001" stroke-miterlimit="10" stroke-width="1.3612669416666667" stroke-dasharray="12.565541,5.445067766666667"/><path fill="none" stroke="black" paint-order="fill stroke markers" d=" M 1105.5167204418294 129.701514202 L 1105.5167204418294 639.3598571620001" stroke-miterlimit="10" stroke-width="1.3612669416666667" stroke-dasharray="12.565541,5.445067766666667"/></g><g><g><path fill="white" stroke="green" paint-order="fill stroke markers" d=" M 76.82009056566797 60.60360424300001 A 9.311065881 9.311065881 0 1 1 76.8200859101354 60.594293178670846 M 67.50902468466796 69.91467012400001 L 67.50902468466796 89.84361815000001 M 55.747678308667965 77.102159576 L 79.27037106066797 77.102159576 M 67.50902468466796 89.84361815000001 L 55.747678308667965 108.465749912 M 67.50902468466796 89.84361815000001 L 79.27037106066797 108.465749912" stroke-miterlimit="10" stroke-width="1.3884922805000002" stroke-dasharray=""/></g><g><text fill="black" stroke="none" font-family="sans-serif" font-size="11pt" font-style="normal" font-weight="normal" text-decoration="normal" x="8.167601649999995" y="124.80095321200001" text-anchor="start" dominant-baseline="alphabetic" xml:space="preserve">Workspace Admin</text></g><g><path fill="white" stroke="black" paint-order="fill stroke markers" d=" M 338.26233949897005 82.819480731 A 24.2577769005 24.2577769005 0 1 1 338.26232737008263 82.79522295814245 M 274.80007467847 57.17321154999999 L 274.80007467847 108.465749912 M 273.41158239797005 82.819480731 L 289.74678569797004 82.819480731" stroke-miterlimit="10" stroke-width="2.7769845610000004" stroke-dasharray=""/></g><g><text fill="black" stroke="none" font-family="sans-serif" font-size="11pt" font-style="normal" font-weight="normal" text-decoration="normal" x="228.8470088610677" y="124.80095321200001" text-anchor="start" dominant-baseline="alphabetic" xml:space="preserve">FUniverse Admin Client</text></g><g><path fill="white" stroke="black" paint-order="fill stroke markers" d=" M 665.0154466612096 82.819480731 A 24.2577769005 24.2577769005 0 1 1 665.0154345323222 82.79522295814245 M 637.4906291007096 58.561703830499994 L 647.2917510807096 50.39410218049999 M 637.4906291007096 58.561703830499994 L 647.2917510807096 66.72930548049999" stroke-miterlimit="10" stroke-width="2.7769845610000004" stroke-dasharray=""/></g><g><text fill="black" stroke="none" font-family="sans-serif" font-size="11pt" font-style="normal" font-weight="normal" text-decoration="normal" x="579.240167929655" y="124.80095321200001" text-anchor="start" dominant-baseline="alphabetic" xml:space="preserve">Syllabus Controller</text></g><path fill="none" stroke="none"/><g><path fill="white" stroke="black" paint-order="fill stroke markers" d=" M 801.2295700774101 85.75981732500001 L 945.0448201251289 85.75981732500001 L 945.0448201251289 129.701514202 L 801.2295700774101 129.701514202 L 801.2295700774101 85.75981732500001 Z" stroke-miterlimit="10" stroke-width="2.613632528" stroke-dasharray=""/></g><g><text fill="black" stroke="none" font-family="sans-serif" font-size="11pt" font-style="normal" font-weight="normal" text-decoration="normal" x="818.9532656579102" y="113.36631090200002" text-anchor="start" dominant-baseline="alphabetic" xml:space="preserve">Syllabus Service</text></g><g><path fill="white" stroke="blue" paint-order="fill stroke markers" d=" M 1081.6673236238294 97.684515734 L 1081.6673236238294 63.380588804000006 L 1129.3661172598295 63.380588804000006 L 1129.3661172598295 97.684515734" stroke-miterlimit="10" stroke-width="2.7769845610000004" stroke-dasharray=""/><path fill="white" stroke="blue" paint-order="fill stroke markers" d=" M 1129.3661172598295 62.1881189631 L 1129.3649247999258 62.29592950801663 L 1129.3613475394598 62.403729271968594 L 1129.3553858361543 62.51150747506936 L 1129.3470402861751 62.619253339588404 L 1129.33631172407 62.72695609102909 L 1129.323201222686 62.834604959206004 L 1129.3077100930627 62.94218917932205 L 1129.2898398843001 63.04969799304486 L 1129.2695923834042 63.15712064958265 L 1129.246969615108 63.2644464067593 L 1129.2219738416695 63.371664532088516 L 1129.1946075626456 63.47876430384712 L 1129.164873514641 63.58573501214718 L 1129.1327746710358 63.692565960007016 L 1129.0983142416876 63.79924646442086 L 1129.0614956726108 63.90576585742718 L 1129.0223226456317 64.01211348717543 L 1128.9807990780198 64.11827871899126 L 1128.9369291220978 64.22425093643996 L 1128.8907171648245 64.3300195423881 L 1128.8421678273571 64.43557396006322 L 1128.7912859645892 64.54090363411153 L 1128.738076664664 64.64599803165338 L 1128.682545248468 64.75084664333659 L 1128.624697269096 64.85543898438739 L 1128.5645385112978 64.95976459565881 L 1128.502074990899 65.06381304467668 L 1128.4373129542 65.16757392668278 L 1128.37025887735 65.27103686567541 L 1128.3009194657009 65.37419151544687 L 1128.2293016531364 65.47702756061814 L 1128.1554126013777 65.5795347176704 L 1128.0792596992685 65.68170273597339 L 1128.0008505620358 65.7835213988104 L 1127.9201930305278 65.88498052439998 L 1127.8372951704303 65.98606996691414 L 1127.7521652714604 66.08677961749288 L 1127.664811846537 66.18709940525505 L 1127.57524363093 66.28701929830548 L 1127.4834695813856 66.38652930473813 L 1127.3894988752334 66.48561947363528 L 1127.2933409094649 66.58427989606261 L 1127.1950052997965 66.6825007060601 L 1127.0945018797079 66.7802720816286 L 1126.9918406994566 66.87758424571203 L 1126.8870320250755 66.97442746717506 L 1126.7800863373448 67.07079206177627 L 1126.671014330744 67.1666683931365 L 1126.5598269123825 67.2620468737025 L 1126.44653520091 67.35691796570569 L 1126.331150525403 67.45127218211596 L 1126.213684424233 67.54510008759026 L 1126.0941486439121 67.63839229941624 L 1125.9725551379188 67.73113948845047 L 1125.8489160655024 67.82333238005134 L 1125.723243790467 67.9149617550065 L 1125.5955508799354 68.00601845045483 L 1125.4658501030926 68.09649336080267 L 1125.3341544299076 68.18637743863435 L 1125.2004770298383 68.27566169561702 L 1125.0648312705134 68.36433720339936 L 1124.9272307163956 68.45239509450451 L 1124.7876891274257 68.53982656321674 L 1124.6462204576465 68.62662286646201 L 1124.5028388538067 68.71277532468237 L 1124.3575586539473 68.79827532270376 L 1124.2103943859677 68.88311431059763 L 1124.0613607661714 68.9672838045359 L 1123.9104726977966 69.0507753876393 L 1123.7577452695243 69.13358071081912 L 1123.60319375397 69.21569149361203 L 1123.4468336061564 69.29709952500816 L 1123.2886804619682 69.37779666427225 L 1123.128750136588 69.45777484175761 L 1122.9670586229147 69.53702605971311 L 1122.8036220899653 69.61554239308303 L 1122.6384568812568 69.69331599029945 L 1122.4715795131726 69.77033907406746 L 1122.3030066733102 69.84660394214286 L 1122.132755218813 69.92210296810242 L 1121.9608421746848 69.99682860210643 L 1121.7872847320868 70.07077337165379 L 1121.6121002466184 70.14392988232913 L 1121.4353062365824 70.21629081854239 L 1121.2569203812322 70.28784894426022 L 1121.076960519005 70.35859710372968 L 1120.895444645737 70.42852822219379 L 1120.712390912864 70.49763530659898 L 1120.527817625607 70.5659114462944 L 1120.3417432411409 70.63334981372294 L 1120.154186366749 70.69994366510412 L 1119.9651657579623 70.76568634110825 L 1119.7747003166844 70.83057126752253 L 1119.5828090893006 70.89459195590838 L 1119.3895112647738 70.95774200425032 L 1119.1948261727252 71.02001509759614 L 1118.998773281502 71.08140500868842 L 1118.80137219623 71.14190559858717 L 1118.6026426568528 71.20151081728383 L 1118.402604536159 71.26021470430622 L 1118.2012778377941 71.31801138931453 L 1117.99868269426 71.37489509268845 L 1117.7948393649024 71.43086012610503 L 1117.589768233884 71.48590089310757 L 1117.3834898081473 71.54001188966522 L 1117.176024715363 71.59318770472345 L 1116.9673937018672 71.64542302074504 L 1116.7576176305877 71.69671261424193 L 1116.5467174789567 71.7470513562975 L 1116.3347143368137 71.79643421307951 L 1116.121629404296 71.84485624634341 L 1115.9074839897196 71.89231261392625 L 1115.6922995074474 71.93879857023082 L 1115.4760974757482 71.9843094667002 L 1115.258899514645 72.02884075228269 L 1115.040727343753 72.07238797388683 L 1114.8216027801075 72.11494677682676 L 1114.6015477359822 72.15651290525764 L 1114.380584216698 72.19708220260128 L 1114.158734318423 72.23665061196175 L 1113.936020225962 72.27521417653107 L 1113.7124642105387 72.31276903998494 L 1113.488088627568 72.3493114468683 L 1113.2629159144217 72.38483774297092 L 1113.0369685881833 72.41934437569277 L 1112.8102692433972 72.45282789439938 L 1112.5828405498087 72.48528495076673 L 1112.354705250098 72.51671229911628 L 1112.1258861576046 72.54710679673934 L 1111.8964061540473 72.5764654042115 L 1111.6662881872353 72.60478518569649 L 1111.4355552687732 72.63206330923974 L 1111.2042304717609 72.65829704705163 L 1110.972336928485 72.68348377578025 L 1110.739897828107 72.70762097677371 L 1110.5069364143428 72.73070623633201 L 1110.2734759831399 72.75273724594847 L 1110.0395398803469 72.77371180254045 L 1109.805151499379 72.79362780866978 L 1109.570334278879 72.81248327275246 L 1109.3351117003733 72.83027630925778 L 1109.0995072859237 72.84700513889692 L 1108.8635445957755 72.86266808880085 L 1108.6272472260007 72.87726359268764 L 1108.3906388061396 72.89079019101906 L 1108.153742996837 72.90324653114655 L 1107.9165834874766 72.91463136744649 L 1107.6791839938114 72.9249435614447 L 1107.441568255593 72.93418208193043 L 1107.2037600341973 72.94234600505929 L 1106.9657831102484 72.94943451444577 L 1106.72766128124 72.95544690124485 L 1106.4894183591566 72.96038256422287 L 1106.2510781680924 72.96424100981763 L 1106.0126645418673 72.9670218521878 L 1105.7742013216457 72.96872481325143 L 1105.5357123535505 72.96934972271386 L 1105.29722148628 72.96889651808466 L 1105.0587525687222 72.96736524468392 L 1104.82032944757 72.96475605563768 L 1104.5819759649369 72.96106921186271 L 1104.3437159559726 72.95630508204027 L 1104.1055732464793 72.9504641425794 L 1103.8675716505295 72.94354697756918 L 1103.6297349680847 72.93555427872033 L 1103.3920869826147 72.9264868452961 L 1103.1546514587203 72.91634558403224 L 1102.9174521397556 72.90513150904647 L 1102.6805127454552 72.89284574173689 L 1102.4438569695608 72.87948951067006 L 1102.207508477453 72.86506415145789 L 1101.9714909037841 72.84957110662431 L 1101.7358278501144 72.8330119254609 L 1101.5005428825534 72.81538826387197 L 1101.2656595294013 72.79670188420899 L 1101.031201278798 72.77695465509434 L 1100.797191576373 72.7561485512345 L 1100.5636538229019 72.73428565322251 L 1100.3306113719648 72.71136814732996 L 1100.0980875276132 72.68739832528833 L 1099.8661055420373 72.66237858405984 L 1099.6346886132426 72.63631142559778 L 1099.4038598827292 72.60919945659627 L 1099.1736424331775 72.58104538822961 L 1098.944059286141 72.55185203588118 L 1098.7151333997429 72.5216223188619 L 1098.4868876663809 72.49035926011825 L 1098.2593449104381 72.45806598593009 L 1098.032527886001 72.4247457255979 L 1097.8064592745823 72.39040181111994 L 1097.5811616828553 72.35503767685907 L 1097.3566576403914 72.31865685919922 L 1097.1329695974075 72.28126299619186 L 1096.9101199225215 72.24285982719209 L 1096.6881309005155 72.20345119248485 L 1096.4670247301062 72.16304103290075 L 1096.246823521727 72.12163338942209 L 1096.0275492953147 72.07923240277869 L 1095.8092239781095 72.03584231303388 L 1095.5918694024613 71.99146745916049 L 1095.3755073036461 71.94611227860693 L 1095.1601593176938 71.89978130685344 L 1094.9458469792235 71.85247917695861 L 1094.7325917192904 71.80421061909601 L 1094.5204148632429 71.75498046008119 L 1094.3093376285897 71.70479362288901 L 1094.0993811228784 71.65365512616141 L 1093.8905663415844 71.60157008370541 L 1093.682914166012 71.54854370398188 L 1093.4764453612058 71.49458128958457 L 1093.2711805738743 71.43968823671 L 1093.0671403303247 71.38387003461766 L 1092.8643450344118 71.32713226508127 L 1092.6628149654962 71.26948060183051 L 1092.4625702764163 71.21092080998365 L 1092.2636309914749 71.15145874547107 L 1092.0660170044341 71.0911003544497 L 1091.8697480765281 71.0298516727083 L 1091.6748438344864 70.96771882506403 L 1091.4813237685703 70.90470802474988 L 1091.2892072306256 70.84082557279336 L 1091.0985134321459 70.77607785738643 L 1090.9092614423519 70.71047135324669 L 1090.721470186285 70.64401262096986 L 1090.5351584429143 70.5767083063738 L 1090.3503448432589 70.50856513983389 L 1090.1670478685248 70.43958993560999 L 1089.9852858482566 70.36978959116503 L 1089.805076958505 70.29917108647531 L 1089.6264392200087 70.22774148333244 L 1089.4493904963929 70.1555079246372 L 1089.273948492382 70.08247763368529 L 1089.1001307520305 70.00865791344492 L 1088.9279546569676 69.9340561458266 L 1088.7574374246594 69.85867979094495 L 1088.5885961066867 69.78253638637263 L 1088.4214475870408 69.70563354638664 L 1088.2560085804344 69.62797896120689 L 1088.0922956306304 69.54958039622719 L 1087.930325108787 69.47044569123871 L 1087.7701132118216 69.39058275964601 L 1087.6116759607905 69.30999958767568 L 1087.4550291992869 69.22870423357777 L 1087.3001885918559 69.14670482681996 L 1087.1471696224296 69.06400956727457 L 1086.9959875927773 68.98062672439866 L 1086.846657620976 68.89656463640702 L 1086.6991946398985 68.8118317094384 L 1086.55361339572 68.72643641671489 L 1086.4099284464435 68.6403872976946 L 1086.2681541604443 68.55369295721772 L 1086.1283047150328 68.46636206464606 L 1085.9903940950371 68.37840335299609 L 1085.854436091404 68.28982561806569 L 1085.720444299821 68.20063771755453 L 1085.5884321193553 68.11084857017835 L 1085.458412751115 68.02046715477704 L 1085.3303991969285 67.92950250941684 L 1085.2044042580446 67.83796373048648 L 1085.0804405338522 67.74585997178757 L 1084.9585204206205 67.65320044361923 L 1084.838656110259 67.55999441185705 L 1084.720859589099 67.46625119702654 L 1084.6051426366946 67.37198017337107 L 1084.4915168246446 67.27719076791445 L 1084.379993515435 67.18189245951821 L 1084.2705838613044 67.08609477793381 L 1084.1632988031267 66.98980730284956 L 1084.0581490693185 66.89303966293272 L 1083.9551451747654 66.79580153486665 L 1083.8542974197712 66.69810264238313 L 1083.755615889027 66.59995275528999 L 1083.6591104506042 66.50136168849414 L 1083.5647907549655 66.40233930102012 L 1083.4726662340026 66.30289549502413 L 1083.3827461000906 66.20304021480393 L 1083.2950393451674 66.1027834458043 L 1083.2095547398362 66.00213521361863 L 1083.1263008324859 65.90110558298623 L 1083.045285948438 65.799704656786 L 1082.9665181891132 65.69794257502603 L 1082.8900054312219 65.59582951382973 L 1082.8157553259762 65.4933756844181 L 1082.7437752983244 65.3905913320887 L 1082.6740725462098 65.28748673519112 L 1082.6066540398492 65.18407220409914 L 1082.5415265210372 65.08035808017966 L 1082.4786965024714 64.97635473475869 L 1082.4181702671012 64.87207256808405 L 1082.3599538674998 64.76752200828555 L 1082.3040531252584 64.66271351033203 L 1082.250473630405 64.55765755498592 L 1082.1992207408443 64.45236464775525 L 1082.1502995818223 64.34684531784296 L 1082.1037150454147 64.24111011709415 L 1082.0594717900356 64.13516961894075 L 1082.0175742399742 64.0290344173443 L 1081.9780265849504 63.92271512573653 L 1081.9408327796968 63.81622237595798 L 1081.9059965435629 63.70956681719489 L 1081.8735213601433 63.602759114914264 L 1081.8434104769292 63.49580994979732 L 1081.815666904984 63.38873001667144 L 1081.7902934186416 63.28153002344071 L 1081.7672925552297 63.17422069001512 L 1081.7466666148152 63.066812747238586 L 1081.728417659975 62.959316935815885 L 1081.7125475155897 62.85174400523857 L 1081.6990577686602 62.74410471271006 L 1081.68794976815 62.636409822069915 L 1081.67922462485 62.52867010271744 L 1081.672883211267 62.4208963285348 L 1081.6689261615372 62.313099276809595 L 1081.6673538713626 62.20528972715717 L 1081.6681664979706 62.09747846044265 L 1081.6713639600991 61.98967625770286 L 1081.6769459380048 61.88189389906824 L 1081.6849118734945 61.77414216268484 L 1081.6952609699813 61.66643182363649 L 1081.707992192564 61.558773652867366 L 1081.7231042681312 61.4511784161048 L 1081.7405956854877 61.34365687278283 L 1081.7604646955065 61.236219774966166 L 1081.7827093113033 61.12887786627507 L 1081.8073273084347 61.02164188081096 L 1081.8343162251217 60.91452254208302 L 1081.863673362495 60.807530561935856 L 1081.8953957848655 60.70067663947832 L 1081.9294803200173 60.593971460013606 L 1081.9659235595254 60.487425693970756 L 1082.0047218590962 60.381049995837586 L 1082.0458713389319 60.27485500309525 L 1082.089367884119 60.16885133515453 L 1082.135207145039 60.06304959229389 L 1082.1833845378042 59.95746035459945 L 1082.2338952447153 59.852094180906974 L 1082.286734214744 59.746961607746044 L 1082.341896164037 59.64207314828636 L 1082.3993755764457 59.537439291286454 L 1082.4591667040766 59.43307050004484 L 1082.5212635678665 59.32897721135367 L 1082.585659958181 59.22516983445505 L 1082.6523494354346 59.12165875000019 L 1082.7213253307355 59.01845430901127 L 1082.7925807465513 58.91556683184637 L 1082.8661085574 58.81300660716748 L 1082.9419014105615 58.7107838909116 L 1083.019951726814 58.60890890526517 L 1083.1002517011907 58.507391837641855 L 1083.1827933037612 58.406242839663825 L 1083.267568280434 58.30547202614659 L 1083.3545681537819 58.205089474087515 L 1083.4437842238904 58.105105221658164 L 1083.5352075692263 58.00552926720046 L 1083.6288290475318 57.90637156822687 L 1083.724639296737 57.807642040424646 L 1083.8226287358966 57.709350556664305 L 1083.9227875661484 57.61150694601232 L 1084.0251057716928 57.514120992748204 L 1084.1295731207947 57.417202435386145 L 1084.236179166806 57.320760965701105 L 1084.3449132492115 57.224806227759686 L 1084.4557644946929 57.12934781695572 L 1084.5687218182181 57.03439527905074 L 1084.6837739241491 56.93995810921942 L 1084.8009093073713 56.84604575110002 L 1084.9201162544439 56.75266759585011 L 1085.0413828447713 56.65983298120741 L 1085.1646969517956 56.567551190555996 L 1085.2900462442092 56.47583145199805 L 1085.4174181871867 56.384682937430995 L 1085.5468000436406 56.29411476163032 L 1085.6781788754927 56.20413598133814 L 1085.8115415449693 56.1147555943575 L 1085.9468747159146 56.02598253865261 L 1086.0841648551245 55.937825691455075 L 1086.2233982336993 55.85029386837614 L 1086.3645609284172 55.763395822525176 L 1086.5076388231264 55.677140243634355 L 1086.6526176101565 55.591535757189675 L 1086.7994827917498 55.50659092356846 L 1086.9482196815104 55.42231423718327 L 1087.0988134058734 55.33871412563253 L 1087.2512489055916 55.25579894885771 L 1087.4055109372425 55.1735769983074 L 1087.5615840747512 55.092056496108135 L 1087.719452710934 55.01124559424221 L 1087.879101059059 54.93115237373246 L 1088.0405131544242 54.851784843834196 L 1088.2036728559544 54.77315094123426 L 1088.3685638478162 54.6952585292574 L 1088.535169641047 54.61811539707989 L 1088.7034735752068 54.54172925895067 L 1088.873458820042 54.46610775341989 L 1089.0451083771704 54.391258442575094 L 1089.2184050817787 54.317188811284986 L 1089.3933316043413 54.24390626645098 L 1089.5698704523513 54.171418136266475 L 1089.7480039720715 54.09973166948409 L 1089.927714350298 54.028854034690774 L 1090.108983616143 53.95879231959093 L 1090.2917936428307 53.88955353029769 L 1090.476126149511 53.82114459063227 L 1090.6619627030866 53.753572341431656 L 1090.849284720057 53.68684353986444 L 1091.0380734683772 53.62096485875517 L 1091.228310069329 53.55594288591707 L 1091.419975499411 53.49178412349323 L 1091.6130505922401 53.42849498730643 L 1091.8075160404678 53.366081806217544 L 1092.0033523977113 53.304550821492676 L 1092.2005400804983 53.24390818617902 L 1092.3990593702244 53.18415996448957 L 1092.5988904151263 53.12531213119671 L 1092.8000132322663 53.067370571034715 L 1093.00240770953 53.01034107811134 L 1093.206053607638 52.95422935532834 L 1093.410930562171 52.89904101381123 L 1093.6170180856036 52.84478157234818 L 1093.8242955693556 52.79145645683812 L 1094.032742285851 52.73907099974815 L 1094.2423373905922 52.687630439580346 L 1094.4530599242432 52.637139920347835 L 1094.6648888147263 52.58760449106049 L 1094.8778028793288 52.53902910521993 L 1095.0917808268218 52.49141862032429 L 1095.306801259589 52.444777797382365 L 1095.5228426757662 52.399111300437596 L 1095.739883471392 52.354423696101605 L 1095.957901942567 52.3107194530976 L 1096.1768762876268 52.26800294181345 L 1096.3967846093185 52.2262784338647 L 1096.6176049169937 52.18555010166736 L 1096.8393151288053 52.14582201802072 L 1097.0618930739172 52.10709815570004 L 1097.2853164947203 52.06938238705927 L 1097.5095630490584 52.032678483643856 L 1097.7346103124635 51.996990115813546 L 1097.9604357803962 51.96232085237539 L 1098.1870168704982 51.928674160226834 L 1098.4143309248493 51.89605340400906 L 1098.6423552122335 51.8644618457705 L 1098.8710669304119 51.833902644640645 L 1099.1004432084035 51.80437885651416 L 1099.3304611087715 51.775893433745246 L 1099.5610976299176 51.74844922485244 L 1099.792329708382 51.722048974233765 L 1100.0241342211496 51.69669532189228 L 1100.256487987962 51.672390803172085 L 1100.489367773636 51.649137848504814 L 1100.7227502903877 51.626938783166544 L 1100.9566122001593 51.60579582704531 L 1101.190930116955 51.58571109441911 L 1101.4256806091787 51.56668659374447 L 1101.6608402019763 51.54872422745561 L 1101.8963853795847 51.53182579177417 L 1102.1322925876823 51.515992976529645 L 1102.368538235745 51.50122736499037 L 1102.6050986994048 51.4875304337052 L 1102.8419503228126 51.47490355235584 L 1103.0790694210032 51.4633479836199 L 1103.3164322822647 51.45286488304463 L 1103.5540151705084 51.443455298931354 L 1103.7917943276439 51.43512017223063 L 1104.0297459759531 51.4278603364482 L 1104.26784632047 51.42167651756158 L 1104.506071551358 51.41656933394751 L 1104.744397846293 51.41253929632009 L 1104.982801372844 51.40958680767973 L 1105.221258290857 51.407712163272826 L 1105.4597447548388 51.40691555056227 L 1105.6982369163418 51.40719704920866 L 1105.9367109263487 51.40855663106237 L 1106.175142937657 51.41099416016634 L 1106.4135091072644 51.414509392769695 L 1106.651785598753 51.419101977352106 L 1106.8899485846712 51.42477145465894 L 1107.1279742489198 51.431517257747196 L 1107.3658387891303 51.43933871204218 L 1107.603518419047 51.44823503540498 L 1107.840989370905 51.45820533821068 L 1108.078227897807 51.4692486234373 L 1108.315210276098 51.48136378676553 L 1108.5519128077376 51.49454961668913 L 1108.7883118226698 51.50880479463608 L 1109.0243836811903 51.524127895100484 L 1109.26010477631 51.54051738578506 L 1109.4954515361158 51.5579716277544 L 1109.7304004261275 51.57648887559884 L 1109.9649279516525 51.59606727760904 L 1110.1990106601331 51.6167048759611 L 1110.4326251434939 51.6383996069124 L 1110.665748040481 51.66114930100791 L 1110.898356038999 51.684951683297186 L 1111.130425878442 51.70980437356183 L 1111.3619343520197 51.735704886553535 L 1111.592858309077 51.76265063224257 L 1111.8231746574113 51.79063891607683 L 1112.0528603655791 51.81966693925126 L 1112.2818924652015 51.849731798987726 L 1112.5102480532591 51.88083048882531 L 1112.7379042943837 51.91295989892094 L 1112.9648384231405 51.94611681636038 L 1113.191027746306 51.980297925479526 L 1113.416449645136 52.01549980819594 L 1113.6410815776292 52.0517189443507 L 1113.8649010807787 52.08895171206036 L 1114.0878857728212 52.127194388079175 L 1114.3100133554733 52.16644314817141 L 1114.5312616161618 52.20669406749378 L 1114.751608430245 52.247943120987884 L 1114.9710317632248 52.29018618378274 L 1115.1895096729513 52.33341903160728 L 1115.4070203118151 52.37763734121275 L 1115.623541928934 52.422836690805035 L 1115.8390528723264 52.46901256048684 L 1116.0535315910777 52.516160332709674 L 1116.2669566374946 52.564275292735616 L 1116.4793066692505 52.613352629108746 L 1116.690560451519 52.663387434136325 L 1116.9006968590984 52.71437470437956 L 1117.1096948785225 52.7663093411539 L 1117.3175336101635 52.819186151038956 L 1117.524192270322 52.8729998463978 L 1117.7296501933035 52.92774504590574 L 1117.9338868334876 52.983416275088445 L 1118.13688176738 53.040007966869396 L 1118.3386146956566 53.09751446212657 L 1118.5390654451926 53.15593001025836 L 1118.7382139710803 53.21524876975863 L 1118.936040358633 53.27546480880087 L 1119.1325248253765 53.33657210583136 L 1119.3276477230281 53.3985645501713 L 1119.5213895394609 53.461435942627936 L 1119.7137309006544 53.52517999611441 L 1119.9046525726328 53.58979033627848 L 1120.094135463388 53.655260502139996 L 1120.282160624789 53.721583946736914 L 1120.468709254476 53.78875403778004 L 1120.6537626977417 53.85676405831625 L 1120.837302449396 53.92560720740017 L 1121.0193101556167 53.995276600774254 L 1121.1997676157846 54.065765271557225 L 1121.3786567843044 54.13706617094075 L 1121.5559597724084 54.2091721688943 L 1121.731658849945 54.28207605487816 L 1121.9057364471535 54.35577053856451 L 1122.0781751564186 54.43024825056637 L 1122.2489577340136 54.50550174317461 L 1122.418067101823 54.581523491102686 L 1122.5854863490506 54.658305892239156 L 1122.7511987339115 54.73584126840789 L 1122.9151876853052 54.81412186613588 L 1123.077436804473 54.89313985742859 L 1123.2379298666388 54.97288734055273 L 1123.3966508226295 55.05335634082646 L 1123.553583800482 55.1345388114168 L 1123.7087131070296 55.21642663414435 L 1123.8620232294702 55.29901162029506 L 1124.01349883692 55.38228551143916 L 1124.1631247819441 55.46623998025691 L 1124.310886102073 55.55086663137139 L 1124.4567680212974 55.63615700218803 L 1124.6007559515474 55.722102563740805 L 1124.7428354941494 55.80869472154519 L 1124.8829924412682 55.89592481645755 L 1125.0212127773254 55.98378412554111 L 1125.1574826804028 56.07226386293816 L 1125.2917885236236 56.1613551807487 L 1125.4241168765154 56.251049169915184 L 1125.554454506353 56.34133686111345 L 1125.6827883794824 56.4322092256496 L 1125.809105662623 56.52365717636293 L 1125.9333937241518 56.615671568534566 L 1126.0556401353663 56.70824320080196 L 1126.175832671727 56.80136281607904 L 1126.2939593140804 56.89502110248188 L 1126.4100082498612 56.98920869425987 L 1126.523967874272 57.083916172732344 L 1126.6358267914457 57.17913406723036 L 1126.7455738155836 57.27485285604382 L 1126.8531979720747 57.37106296737362 L 1126.9586884985931 57.467754780288786 L 1127.0620348461744 57.56491862568861 L 1127.1632266802692 57.662544787269525 L 1127.262253881779 57.76062350249672 L 1127.3591065480662 57.859144963580405 L 1127.4537749939445 57.95809931845658 L 1127.5462497526485 58.05747667177222 L 1127.6365215767792 58.15726708587479 L 1127.7245814392295 58.257460581806065 L 1127.8104205340867 58.358047140299924 L 1127.8940302775125 58.459016702784346 L 1127.9754023086025 58.56035917238722 L 1128.0545284902214 58.66206441494605 L 1128.1314009098169 58.764122260021324 L 1128.206011880211 58.866522501913586 L 1128.278353940369 58.96925490068398 L 1128.3484198561453 59.072309183178234 L 1128.4162026210063 59.17567504405398 L 1128.4816954567323 59.279342146811274 L 1128.5448918140942 59.38330012482622 L 1128.6057853735088 59.48753858238766 L 1128.6643700456711 59.59204709573668 L 1128.7206399721629 59.69681521410906 L 1128.7745895260382 59.80183246078026 L 1128.8262133123862 59.907088334113126 L 1128.875506168872 60.012572308608036 L 1128.9224631662505 60.11827383595545 L 1128.9670796088615 60.22418234609071 L 1129.0093510350976 60.33028724825106 L 1129.0492732178514 60.43657793203471 L 1129.086842164938 60.54304376846186 L 1129.1220541194941 60.64967411103757 L 1129.1549055603534 60.75645829681646 L 1129.1853932023992 60.86338564746893 L 1129.213513996893 60.97044547034902 L 1129.2392651317784 61.07762705956367 L 1129.2626440319634 61.184919697043256 L 1129.283648359578 61.29231265361346 L 1129.302276014206 61.399795190068104 L 1129.3185251330983 61.50735655824312 L 1129.3323940913563 61.614986002091314 L 1129.3438815020954 61.72267275875801 L 1129.3529862165847 61.830406059657264 L 1129.3597073243598 61.93817513154877 L 1129.364044153316 62.04596919761514 L 1129.3659962697734 62.15377747853961 M 1129.3661172598295 96.4920458931 L 1129.3649247999258 96.59985643801662 L 1129.3613475394598 96.70765620196859 L 1129.3553858361543 96.81543440506935 L 1129.3470402861751 96.9231802695884 L 1129.33631172407 97.03088302102908 L 1129.323201222686 97.138531889206 L 1129.3077100930627 97.24611610932205 L 1129.2898398843001 97.35362492304485 L 1129.2695923834042 97.46104757958265 L 1129.246969615108 97.5683733367593 L 1129.2219738416695 97.67559146208852 L 1129.1946075626456 97.78269123384712 L 1129.164873514641 97.88966194214719 L 1129.1327746710358 97.99649289000702 L 1129.0983142416876 98.10317339442086 L 1129.0614956726108 98.20969278742717 L 1129.0223226456317 98.31604041717543 L 1128.9807990780198 98.42220564899125 L 1128.9369291220978 98.52817786643996 L 1128.8907171648245 98.6339464723881 L 1128.8421678273571 98.73950089006323 L 1128.7912859645892 98.84483056411152 L 1128.738076664664 98.94992496165337 L 1128.682545248468 99.05477357333659 L 1128.624697269096 99.15936591438738 L 1128.5645385112978 99.2636915256588 L 1128.502074990899 99.36773997467667 L 1128.4373129542 99.47150085668278 L 1128.37025887735 99.5749637956754 L 1128.3009194657009 99.67811844544686 L 1128.2293016531364 99.78095449061813 L 1128.1554126013777 99.8834616476704 L 1128.0792596992685 99.98562966597338 L 1128.0008505620358 100.08744832881038 L 1127.9201930305278 100.18890745439998 L 1127.8372951704303 100.28999689691415 L 1127.7521652714604 100.39070654749288 L 1127.664811846537 100.49102633525506 L 1127.57524363093 100.59094622830548 L 1127.4834695813856 100.69045623473812 L 1127.3894988752334 100.78954640363527 L 1127.2933409094649 100.8882068260626 L 1127.1950052997965 100.9864276360601 L 1127.0945018797079 101.0841990116286 L 1126.9918406994566 101.18151117571202 L 1126.8870320250755 101.27835439717506 L 1126.7800863373448 101.37471899177628 L 1126.671014330744 101.4705953231365 L 1126.5598269123825 101.56597380370249 L 1126.44653520091 101.6608448957057 L 1126.331150525403 101.75519911211595 L 1126.213684424233 101.84902701759025 L 1126.0941486439121 101.94231922941623 L 1125.9725551379188 102.03506641845047 L 1125.8489160655024 102.12725931005133 L 1125.723243790467 102.2188886850065 L 1125.5955508799354 102.30994538045483 L 1125.4658501030926 102.40042029080266 L 1125.3341544299076 102.49030436863434 L 1125.2004770298383 102.579588625617 L 1125.0648312705134 102.66826413339936 L 1124.9272307163956 102.75632202450451 L 1124.7876891274257 102.84375349321674 L 1124.6462204576465 102.93054979646202 L 1124.5028388538067 103.01670225468237 L 1124.3575586539473 103.10220225270375 L 1124.2103943859677 103.18704124059762 L 1124.0613607661714 103.27121073453588 L 1123.9104726977966 103.3547023176393 L 1123.7577452695243 103.4375076408191 L 1123.60319375397 103.51961842361202 L 1123.4468336061564 103.60102645500817 L 1123.2886804619682 103.68172359427226 L 1123.128750136588 103.7617017717576 L 1122.9670586229147 103.84095298971312 L 1122.8036220899653 103.91946932308304 L 1122.6384568812568 103.99724292029944 L 1122.4715795131726 104.07426600406745 L 1122.3030066733102 104.15053087214287 L 1122.132755218813 104.22602989810241 L 1121.9608421746848 104.30075553210642 L 1121.7872847320868 104.37470030165377 L 1121.6121002466184 104.44785681232914 L 1121.4353062365824 104.52021774854238 L 1121.2569203812322 104.59177587426021 L 1121.076960519005 104.66252403372968 L 1120.895444645737 104.73245515219378 L 1120.712390912864 104.80156223659897 L 1120.527817625607 104.86983837629438 L 1120.3417432411409 104.93727674372295 L 1120.154186366749 105.0038705951041 L 1119.9651657579623 105.06961327110824 L 1119.7747003166844 105.13449819752252 L 1119.5828090893006 105.19851888590837 L 1119.3895112647738 105.26166893425032 L 1119.1948261727252 105.32394202759615 L 1118.998773281502 105.38533193868841 L 1118.80137219623 105.44583252858716 L 1118.6026426568528 105.50543774728384 L 1118.402604536159 105.56414163430621 L 1118.2012778377941 105.62193831931454 L 1117.99868269426 105.67882202268845 L 1117.7948393649024 105.73478705610502 L 1117.589768233884 105.78982782310756 L 1117.3834898081473 105.84393881966523 L 1117.176024715363 105.89711463472344 L 1116.9673937018672 105.94934995074503 L 1116.7576176305877 106.00063954424192 L 1116.5467174789567 106.0509782862975 L 1116.3347143368137 106.1003611430795 L 1116.121629404296 106.14878317634341 L 1115.9074839897196 106.19623954392625 L 1115.6922995074474 106.2427255002308 L 1115.4760974757482 106.2882363967002 L 1115.258899514645 106.33276768228268 L 1115.040727343753 106.37631490388682 L 1114.8216027801075 106.41887370682676 L 1114.6015477359822 106.46043983525765 L 1114.380584216698 106.50100913260128 L 1114.158734318423 106.54057754196174 L 1113.936020225962 106.57914110653107 L 1113.7124642105387 106.61669596998493 L 1113.488088627568 106.65323837686829 L 1113.2629159144217 106.6887646729709 L 1113.0369685881833 106.72327130569276 L 1112.8102692433972 106.75675482439937 L 1112.5828405498087 106.78921188076673 L 1112.354705250098 106.82063922911627 L 1112.1258861576046 106.85103372673933 L 1111.8964061540473 106.8803923342115 L 1111.6662881872353 106.90871211569649 L 1111.4355552687732 106.93599023923973 L 1111.2042304717609 106.96222397705162 L 1110.972336928485 106.98741070578025 L 1110.739897828107 107.0115479067737 L 1110.5069364143428 107.03463316633201 L 1110.2734759831399 107.05666417594847 L 1110.0395398803469 107.07763873254045 L 1109.805151499379 107.09755473866979 L 1109.570334278879 107.11641020275246 L 1109.3351117003733 107.13420323925777 L 1109.0995072859237 107.1509320688969 L 1108.8635445957755 107.16659501880085 L 1108.6272472260007 107.18119052268763 L 1108.3906388061396 107.19471712101905 L 1108.153742996837 107.20717346114655 L 1107.9165834874766 107.21855829744648 L 1107.6791839938114 107.22887049144471 L 1107.441568255593 107.23810901193042 L 1107.2037600341973 107.24627293505928 L 1106.9657831102484 107.25336144444577 L 1106.72766128124 107.25937383124486 L 1106.4894183591566 107.26430949422287 L 1106.2510781680924 107.26816793981763 L 1106.0126645418673 107.27094878218779 L 1105.7742013216457 107.27265174325143 L 1105.5357123535505 107.27327665271386 L 1105.29722148628 107.27282344808465 L 1105.0587525687222 107.27129217468391 L 1104.82032944757 107.26868298563768 L 1104.5819759649369 107.2649961418627 L 1104.3437159559726 107.26023201204026 L 1104.1055732464793 107.2543910725794 L 1103.8675716505295 107.24747390756917 L 1103.6297349680847 107.23948120872033 L 1103.3920869826147 107.23041377529609 L 1103.1546514587203 107.22027251403225 L 1102.9174521397556 107.20905843904646 L 1102.6805127454552 107.1967726717369 L 1102.4438569695608 107.18341644067004 L 1102.207508477453 107.16899108145788 L 1101.9714909037841 107.15349803662431 L 1101.7358278501144 107.1369388554609 L 1101.5005428825534 107.11931519387196 L 1101.2656595294013 107.10062881420897 L 1101.031201278798 107.08088158509435 L 1100.797191576373 107.0600754812345 L 1100.5636538229019 107.03821258322252 L 1100.3306113719648 107.01529507732995 L 1100.0980875276132 106.99132525528832 L 1099.8661055420373 106.96630551405984 L 1099.6346886132426 106.94023835559778 L 1099.4038598827292 106.91312638659626 L 1099.1736424331775 106.88497231822961 L 1098.944059286141 106.85577896588119 L 1098.7151333997429 106.8255492488619 L 1098.4868876663809 106.79428619011826 L 1098.2593449104381 106.76199291593008 L 1098.032527886001 106.72867265559789 L 1097.8064592745823 106.69432874111995 L 1097.5811616828553 106.65896460685907 L 1097.3566576403914 106.62258378919921 L 1097.1329695974075 106.58518992619184 L 1096.9101199225215 106.5467867571921 L 1096.6881309005155 106.50737812248485 L 1096.4670247301062 106.46696796290075 L 1096.246823521727 106.42556031942208 L 1096.0275492953147 106.38315933277867 L 1095.8092239781095 106.33976924303387 L 1095.5918694024613 106.29539438916049 L 1095.3755073036461 106.25003920860692 L 1095.1601593176938 106.20370823685344 L 1094.9458469792235 106.15640610695861 L 1094.7325917192904 106.108137549096 L 1094.5204148632429 106.05890739008117 L 1094.3093376285897 106.00872055288902 L 1094.0993811228784 105.9575820561614 L 1093.8905663415844 105.90549701370541 L 1093.682914166012 105.85247063398188 L 1093.4764453612058 105.79850821958458 L 1093.2711805738743 105.74361516670999 L 1093.0671403303247 105.68779696461766 L 1092.8643450344118 105.63105919508126 L 1092.6628149654962 105.5734075318305 L 1092.4625702764163 105.51484773998365 L 1092.2636309914749 105.45538567547108 L 1092.0660170044341 105.3950272844497 L 1091.8697480765281 105.33377860270829 L 1091.6748438344864 105.27164575506403 L 1091.4813237685703 105.20863495474987 L 1091.2892072306256 105.14475250279335 L 1091.0985134321459 105.08000478738643 L 1090.9092614423519 105.01439828324668 L 1090.721470186285 104.94793955096986 L 1090.5351584429143 104.8806352363738 L 1090.3503448432589 104.8124920698339 L 1090.1670478685248 104.74351686560999 L 1089.9852858482566 104.67371652116503 L 1089.805076958505 104.6030980164753 L 1089.6264392200087 104.53166841333243 L 1089.4493904963929 104.4594348546372 L 1089.273948492382 104.38640456368528 L 1089.1001307520305 104.31258484344491 L 1088.9279546569676 104.2379830758266 L 1088.7574374246594 104.16260672094495 L 1088.5885961066867 104.08646331637262 L 1088.4214475870408 104.00956047638662 L 1088.2560085804344 103.93190589120688 L 1088.0922956306304 103.85350732622719 L 1087.930325108787 103.77437262123871 L 1087.7701132118216 103.694509689646 L 1087.6116759607905 103.61392651767568 L 1087.4550291992869 103.53263116357778 L 1087.3001885918559 103.45063175681996 L 1087.1471696224296 103.36793649727457 L 1086.9959875927773 103.28455365439865 L 1086.846657620976 103.20049156640701 L 1086.6991946398985 103.1157586394384 L 1086.55361339572 103.03036334671489 L 1086.4099284464435 102.94431422769459 L 1086.2681541604443 102.85761988721772 L 1086.1283047150328 102.77028899464605 L 1085.9903940950371 102.68233028299609 L 1085.854436091404 102.5937525480657 L 1085.720444299821 102.50456464755453 L 1085.5884321193553 102.41477550017834 L 1085.458412751115 102.32439408477703 L 1085.3303991969285 102.23342943941684 L 1085.2044042580446 102.14189066048647 L 1085.0804405338522 102.04978690178756 L 1084.9585204206205 101.95712737361922 L 1084.838656110259 101.86392134185704 L 1084.720859589099 101.77017812702654 L 1084.6051426366946 101.67590710337106 L 1084.4915168246446 101.58111769791444 L 1084.379993515435 101.48581938951821 L 1084.2705838613044 101.39002170793381 L 1084.1632988031267 101.29373423284954 L 1084.0581490693185 101.19696659293271 L 1083.9551451747654 101.09972846486664 L 1083.8542974197712 101.00202957238312 L 1083.755615889027 100.90387968528998 L 1083.6591104506042 100.80528861849413 L 1083.5647907549655 100.70626623102011 L 1083.4726662340026 100.60682242502413 L 1083.3827461000906 100.50696714480392 L 1083.2950393451674 100.40671037580431 L 1083.2095547398362 100.30606214361863 L 1083.1263008324859 100.20503251298624 L 1083.045285948438 100.103631586786 L 1082.9665181891132 100.00186950502604 L 1082.8900054312219 99.89975644382972 L 1082.8157553259762 99.79730261441809 L 1082.7437752983244 99.69451826208869 L 1082.6740725462098 99.59141366519111 L 1082.6066540398492 99.48799913409913 L 1082.5415265210372 99.38428501017967 L 1082.4786965024714 99.28028166475868 L 1082.4181702671012 99.17599949808405 L 1082.3599538674998 99.07144893828554 L 1082.3040531252584 98.96664044033201 L 1082.250473630405 98.86158448498593 L 1082.1992207408443 98.75629157775525 L 1082.1502995818223 98.65077224784297 L 1082.1037150454147 98.54503704709414 L 1082.0594717900356 98.43909654894075 L 1082.0175742399742 98.33296134734431 L 1081.9780265849504 98.22664205573652 L 1081.9408327796968 98.12014930595798 L 1081.9059965435629 98.01349374719489 L 1081.8735213601433 97.90668604491427 L 1081.8434104769292 97.79973687979731 L 1081.815666904984 97.69265694667143 L 1081.7902934186416 97.58545695344071 L 1081.7672925552297 97.47814762001512 L 1081.7466666148152 97.37073967723859 L 1081.728417659975 97.26324386581588 L 1081.7125475155897 97.15567093523856 L 1081.6990577686602 97.04803164271006 L 1081.68794976815 96.94033675206991 L 1081.67922462485 96.83259703271744 L 1081.672883211267 96.7248232585348 L 1081.6689261615372 96.6170262068096 L 1081.6673538713626 96.50921665715717" stroke-miterlimit="10" stroke-width="2.7769845610000004" stroke-dasharray=""/></g><g><text fill="black" stroke="none" font-family="sans-serif" font-size="11pt" font-style="normal" font-weight="normal" text-decoration="normal" x="1074.1387754955404" y="124.80095321200001" text-anchor="start" dominant-baseline="alphabetic" xml:space="preserve">Database</text></g></g><g><path fill="white" stroke="black" paint-order="fill stroke markers" d=" M 297.66935929847006 183.607685092 L 314.00456259847005 183.607685092 L 314.00456259847005 582.1866456120001 L 297.66935929847006 582.1866456120001 L 297.66935929847006 183.607685092" stroke-miterlimit="10" stroke-width="1.3612669416666667" stroke-dasharray=""/><path fill="white" stroke="black" paint-order="fill stroke markers" d=" M 632.5900681107096 275.084823572 L 648.9252714107097 275.084823572 L 648.9252714107097 520.1128730720001 L 632.5900681107096 520.1128730720001 L 632.5900681107096 275.084823572" stroke-miterlimit="10" stroke-width="1.3612669416666667" stroke-dasharray=""/><path fill="white" stroke="black" paint-order="fill stroke markers" d=" M 864.9695934512695 320.823392812 L 881.3047967512696 320.823392812 L 881.3047967512696 458.039100532 L 864.9695934512695 458.039100532 L 864.9695934512695 320.823392812" stroke-miterlimit="10" stroke-width="1.3612669416666667" stroke-dasharray=""/><path fill="white" stroke="black" paint-order="fill stroke markers" d=" M 1097.3491187918294 366.561962052 L 1113.6843220918295 366.561962052 L 1113.6843220918295 412.300531292 L 1097.3491187918294 412.300531292 L 1097.3491187918294 366.561962052" stroke-miterlimit="10" stroke-width="1.3612669416666667" stroke-dasharray=""/><g><g><rect fill="white" stroke="none" x="86.83901525633463" y="162.371920802" width="191.50035347046875" height="21.23576429"/></g><text fill="black" stroke="none" font-family="sans-serif" font-size="11pt" font-style="normal" font-weight="normal" text-decoration="normal" x="89.28929575133463" y="177.07360377199998" text-anchor="start" dominant-baseline="alphabetic" xml:space="preserve">Go to Curriculum detail page</text></g><g><path fill="none" stroke="black" paint-order="fill stroke markers" d=" M 67.50902468466796 183.607685092 L 284.2200419148034 183.607685092" stroke-miterlimit="10" stroke-width="1.3612669416666667" stroke-dasharray=""/><g transform="translate(297.66935929847006,183.607685092) translate(-297.66935929847006,-183.607685092)"><path fill="black" stroke="none" paint-order="stroke fill markers" d=" M 284.0566898818034 176.80135038366666 L 297.66935929847006 183.607685092 L 284.0566898818034 190.41401980033334 Z"/></g></g><g><g><rect fill="white" stroke="none" x="97.02155614988932" y="208.110490042" width="171.13527168335938" height="21.23576429"/></g><text fill="black" stroke="none" font-family="sans-serif" font-size="11pt" font-style="normal" font-weight="normal" text-decoration="normal" x="99.47183664488932" y="222.812173012" text-anchor="start" dominant-baseline="alphabetic" xml:space="preserve">Click Add Syllabus button</text></g><g><path fill="none" stroke="black" paint-order="fill stroke markers" d=" M 67.50902468466796 229.346254332 L 284.2200419148034 229.346254332" stroke-miterlimit="10" stroke-width="1.3612669416666667" stroke-dasharray=""/><g transform="translate(297.66935929847006,229.346254332) translate(-297.66935929847006,-229.346254332)"><path fill="black" stroke="none" paint-order="stroke fill markers" d=" M 284.0566898818034 222.53991962366666 L 297.66935929847006 229.346254332 L 284.0566898818034 236.15258904033334 Z"/></g></g><g><g><rect fill="white" stroke="none" x="333.3345531701367" y="253.849059282" width="279.9255243689062" height="21.23576429"/></g><text fill="black" stroke="none" font-family="sans-serif" font-size="11pt" font-style="normal" font-weight="normal" text-decoration="normal" x="335.7848336651367" y="268.550742252" text-anchor="start" dominant-baseline="alphabetic" xml:space="preserve">GET: /api/syllabus/curriculum/none?id={id}</text></g><g><path fill="none" stroke="black" paint-order="fill stroke markers" d=" M 314.00456259847005 275.084823572 L 619.1407507270429 275.084823572" stroke-miterlimit="10" stroke-width="1.3612669416666667" stroke-dasharray=""/><g transform="translate(632.5900681107096,275.084823572) translate(-632.5900681107096,-275.084823572)"><path fill="black" stroke="none" paint-order="stroke fill markers" d=" M 618.9773986940429 268.27848886366667 L 632.5900681107096 275.084823572 L 618.9773986940429 281.89115828033334 Z"/></g></g><g><g><rect fill="white" stroke="none" x="668.2552619823763" y="299.587628522" width="177.38434089722656" height="21.23576429"/></g><text fill="black" stroke="none" font-family="sans-serif" font-size="11pt" font-style="normal" font-weight="normal" text-decoration="normal" x="670.7055424773763" y="314.28931149199997" text-anchor="start" dominant-baseline="alphabetic" xml:space="preserve">getAllSyllabusAvailable(id)</text></g><g><path fill="none" stroke="black" paint-order="fill stroke markers" d=" M 648.9252714107097 320.823392812 L 851.5202760676028 320.823392812" stroke-miterlimit="10" stroke-width="1.3612669416666667" stroke-dasharray=""/><g transform="translate(864.9695934512695,320.823392812) translate(-864.9695934512695,-320.823392812)"><path fill="black" stroke="none" paint-order="stroke fill markers" d=" M 851.3569240346028 314.01705810366667 L 864.9695934512695 320.823392812 L 851.3569240346028 327.62972752033335 Z"/></g></g><g><g><rect fill="white" stroke="none" x="900.6347873229362" y="345.326197762" width="177.38434089722656" height="21.23576429"/></g><text fill="black" stroke="none" font-family="sans-serif" font-size="11pt" font-style="normal" font-weight="normal" text-decoration="normal" x="903.0850678179362" y="360.02788073199997" text-anchor="start" dominant-baseline="alphabetic" xml:space="preserve">getAllSyllabusAvailable(id)</text></g><g><path fill="none" stroke="black" paint-order="fill stroke markers" d=" M 881.3047967512696 366.561962052 L 1083.8998014081626 366.561962052" stroke-miterlimit="10" stroke-width="1.3612669416666667" stroke-dasharray=""/><g transform="translate(1097.3491187918294,366.561962052) translate(-1097.3491187918294,-366.561962052)"><path fill="black" stroke="none" paint-order="stroke fill markers" d=" M 1083.7364493751627 359.7556273436667 L 1097.3491187918294 366.561962052 L 1083.7364493751627 373.36829676033335 Z"/></g></g><g><g><rect fill="white" stroke="none" x="948.1759173888541" y="391.064767002" width="82.30208076539063" height="21.23576429"/></g><text fill="black" stroke="none" font-family="sans-serif" font-size="11pt" font-style="normal" font-weight="normal" text-decoration="normal" x="950.6261978838542" y="405.766449972" text-anchor="start" dominant-baseline="alphabetic" xml:space="preserve">Syllabus list</text></g><g><path fill="none" stroke="black" paint-order="fill stroke markers" d=" M 1097.3491187918294 412.300531292 L 894.7541141349362 412.300531292" stroke-miterlimit="10" stroke-width="1.3612669416666667" stroke-dasharray="6.53408132"/><g transform="translate(881.3047967512696,412.300531292) translate(-881.3047967512696,-412.300531292)"><path fill="black" stroke="none" paint-order="stroke fill markers" d=" M 894.9174661679363 405.4941965836667 L 881.3047967512696 412.300531292 L 894.9174661679363 419.10686600033335 Z"/></g></g><g><g><rect fill="white" stroke="none" x="715.7963920482943" y="436.803336242" width="82.30208076539063" height="21.23576429"/></g><text fill="black" stroke="none" font-family="sans-serif" font-size="11pt" font-style="normal" font-weight="normal" text-decoration="normal" x="718.2466725432943" y="451.505019212" text-anchor="start" dominant-baseline="alphabetic" xml:space="preserve">Syllabus list</text></g><g><path fill="none" stroke="black" paint-order="fill stroke markers" d=" M 864.9695934512695 458.039100532 L 662.3745887943763 458.039100532" stroke-miterlimit="10" stroke-width="1.3612669416666667" stroke-dasharray="6.53408132"/><g transform="translate(648.9252714107097,458.039100532) translate(-648.9252714107097,-458.039100532)"><path fill="black" stroke="none" paint-order="stroke fill markers" d=" M 662.5379408273764 451.2327658236667 L 648.9252714107097 458.039100532 L 662.5379408273764 464.84543524033336 Z"/></g></g><g><g><rect fill="white" stroke="none" x="377.1355556725781" y="482.54190548200006" width="54.61422981324219" height="21.23576429"/></g><g><rect fill="white" stroke="none" x="377.1355556725781" y="498.87710878200005" width="192.32351936402344" height="21.23576429"/></g><text fill="green" stroke="none" font-family="sans-serif" font-size="11pt" font-style="normal" font-weight="normal" text-decoration="normal" x="379.5858361675781" y="497.24358845200004" text-anchor="start" dominant-baseline="alphabetic" xml:space="preserve">200 OK</text><text fill="green" stroke="none" font-family="sans-serif" font-size="11pt" font-style="normal" font-weight="normal" text-decoration="normal" x="379.5858361675781" y="513.578791752" text-anchor="start" dominant-baseline="alphabetic" xml:space="preserve">Response body: Syllabus list</text></g><g><path fill="none" stroke="black" paint-order="fill stroke markers" d=" M 632.5900681107096 520.1128730720001 L 327.4538799821367 520.1128730720001" stroke-miterlimit="10" stroke-width="1.3612669416666667" stroke-dasharray="6.53408132"/><g transform="translate(314.00456259847005,520.1128730720001) translate(-314.00456259847005,-520.1128730720001)"><path fill="black" stroke="none" paint-order="stroke fill markers" d=" M 327.6172320151367 513.3065383636667 L 314.00456259847005 520.1128730720001 L 327.6172320151367 526.9192077803334 Z"/></g></g><g><g><rect fill="white" stroke="none" x="109.24775243895182" y="544.6156780220001" width="146.68287910523438" height="21.23576429"/></g><g><rect fill="white" stroke="none" x="109.24775243895182" y="560.9508813220001" width="140.16177619996094" height="21.23576429"/></g><text fill="black" stroke="none" font-family="sans-serif" font-size="11pt" font-style="normal" font-weight="normal" text-decoration="normal" x="111.69803293395182" y="559.3173609920001" text-anchor="start" dominant-baseline="alphabetic" xml:space="preserve">Display Add Syllabus </text><text fill="black" stroke="none" font-family="sans-serif" font-size="11pt" font-style="normal" font-weight="normal" text-decoration="normal" x="111.69803293395182" y="575.6525642920001" text-anchor="start" dominant-baseline="alphabetic" xml:space="preserve">into Curriculum page</text></g><g><path fill="none" stroke="black" paint-order="fill stroke markers" d=" M 297.66935929847006 582.1866456120001 L 80.95834206833463 582.1866456120001" stroke-miterlimit="10" stroke-width="1.3612669416666667" stroke-dasharray="6.53408132"/><g transform="translate(67.50902468466796,582.1866456120001) translate(-67.50902468466796,-582.1866456120001)"><path fill="black" stroke="none" paint-order="stroke fill markers" d=" M 81.12169410133463 575.3803109036668 L 67.50902468466796 582.1866456120001 L 81.12169410133463 588.9929803203335 Z"/></g></g></g></g></svg>