<svg version="1.1" xmlns="http://www.w3.org/2000/svg" xmlns:xlink="http://www.w3.org/1999/xlink" width="1416" height="1988"><desc>title%20Add%20Syllabus%20into%20Curriculum%0A%0A%0Aactor%20%23green%3A0.5%20%22Workspace%20Admin%22%20as%20w%0Aboundary%20%22FUniverse%20Admin%20%5CnClient%22%20as%20f%0Acontrol%20%22Search%5CnController%22%20as%20ss%0Acontrol%20%22Curriculum%20%5CnController%22%20as%20gc%0Aparticipant%20%22Curriculum%20%5CnService%22%20as%20gs%0Aparticipant%20%22Syllabus%20%5CnService%22%20as%20ssv%0Aparticipant%20%22Curriculum%20Plan%20%5CnService%22%20as%20cps%0Adatabase%20%23blue%3A1%20%22Database%22%20as%20db%0Aw-%3Ef%3AGo%20to%20Curriculum%20detail%20page%0Aactivate%20f%0Aw%3C--f%3ADisplay%20Curriculum%20detail%20page%0Aw-%3Ef%3AClick%20Add%20Syllabus%20button%0Aref%20over%20f%3AHere%20we%20have%5Cnexternal%20process%0Aw%3C--f%3ADisplay%20Add%20Syllabus%20%5Cninto%20Curriculum%20popup%0Aw-%3Ef%3ASearch%20Syllabus%0Af-%3Ess%3AGET%5Cn%2Fapi%2Fsearch%3Fentity%3Dsyllabus%5Cn%26%7BparamToSearch%7D%0Aactivate%20ss%0Af%3C--ss%3ASyllabus%20list%0Adeactivate%20ss%0Aalt%20If%20there%20is%20no%20syllabus%20match%20condition%0Aw%3C--f%3ANo%20Options%0Aelse%20Else%0Aw-%3Ef%3ASelect%20Syllabus%2C%5CnFill%20semester%20information%20%5Cnand%20click%20Save%0Af-%3Egc%3APOST%3A%2Fapi%2Fcurriculum%2F%7Bid%7D%2Fsyllabus%0Aactivate%20gc%0Agc-%3Egs%3Aget(id)%0Aactivate%20gs%0Ags-%3Edb%3A%20get(id)%0Aactivate%20db%0Ags%3C--db%3ACurriculum%20data%0Adeactivate%20db%0Agc%3C--gs%3A%20Curriculum%20data%0Adeactivate%20gs%0Agc-%3Essv%3Aget(id)%0Aactivate%20ssv%0Assv-%3Edb%3A%20get(id)%0Aactivate%20db%0Assv%3C--db%3ASyllabus%20data%0Adeactivate%20db%0Agc%3C--ssv%3A%20Syllabus%20data%0Adeactivate%20ssv%0Agc-%3Egc%3A%20Syllabus%20%5CnisEmpty()%0Aactivate%20gc%0Agc%3C--gc%3A%20Boolean%20value%0Adeactivate%20gc%0Aalt%20If%20Curriculum%20or%20Syllabus%20empty%0A%0Af%3C--gc%3A%3Ccolor%3A%23red%3E404%20NOT%20FOUND%3C%2Fcolor%3E%0A%0Aw%3C--f%3A%20Display%20404%20Not%20Found%20screen%0Aelse%0Agc-%3Ecps%3Asave()%0Aactivate%20cps%0Acps-%3Edb%3Asave()%0Aactivate%20db%0Acps%3C--db%3A%20Curriculum%20Plan%5Cndata%0Adeactivate%20db%0Agc%3C--cps%3ACurriculum%20Plan%20data%0Adeactivate%20cps%0Af%3C--gc%3A%3Ccolor%3A%23green%3E200%20OK%5CnResponse%20body%3ACurriculum%20Plan%20id%3C%2Fcolor%3E%0Adeactivate%20gc%0Aw%3C--f%3A%20Display%20Curriculum%20detail%20page%0Adeactivate%20f%0Aend%20%0Aend</desc><defs/><g><g/><g/><g/><g/><g/><g/><g/><g/><g/><g/><g/><g/><g/><g/><g/><g/><g/><g/><g/><g/><g/><g/><g/><g/><g/><g/><g/><g/><g/><g/><g/><g/><g/><g/><g/><g/><g/><g/><g/><g/><g/><g/><g/><g/><g/><g/><g/><g/><g/><g/><g/><g/><g><rect fill="white" stroke="none" x="0" y="0" width="1416" height="1988"/></g><g><text fill="black" stroke="none" font-family="sans-serif" font-size="16.5pt" font-style="normal" font-weight="normal" text-decoration="normal" x="566.8211128238905" y="24.50280495" text-anchor="start" dominant-baseline="alphabetic" xml:space="preserve">Add Syllabus into Curriculum</text></g><g/><g><path fill="none" stroke="black" paint-order="fill stroke markers" d=" M 89.84361815 146.036717502 L 89.84361815 1988.647649742" stroke-miterlimit="10" stroke-width="1.3612669416666667" stroke-dasharray="12.565541,5.445067766666667"/><path fill="none" stroke="black" paint-order="fill stroke markers" d=" M 340.3834074411458 146.036717502 L 340.3834074411458 1988.647649742" stroke-miterlimit="10" stroke-width="1.3612669416666667" stroke-dasharray="12.565541,5.445067766666667"/><path fill="none" stroke="black" paint-order="fill stroke markers" d=" M 576.707116131315 146.036717502 L 576.707116131315 1988.647649742" stroke-miterlimit="10" stroke-width="1.3612669416666667" stroke-dasharray="12.565541,5.445067766666667"/><path fill="none" stroke="black" paint-order="fill stroke markers" d=" M 727.6786619701497 146.036717502 L 727.6786619701497 1988.647649742" stroke-miterlimit="10" stroke-width="1.3612669416666667" stroke-dasharray="12.565541,5.445067766666667"/><path fill="none" stroke="black" paint-order="fill stroke markers" d=" M 899.213688740983 146.036717502 L 899.213688740983 1988.647649742" stroke-miterlimit="10" stroke-width="1.3612669416666667" stroke-dasharray="12.565541,5.445067766666667"/><path fill="none" stroke="black" paint-order="fill stroke markers" d=" M 1018.2081285999323 146.036717502 L 1018.2081285999323 1988.647649742" stroke-miterlimit="10" stroke-width="1.3612669416666667" stroke-dasharray="12.565541,5.445067766666667"/><path fill="none" stroke="black" paint-order="fill stroke markers" d=" M 1153.9097904437447 146.036717502 L 1153.9097904437447 1988.647649742" stroke-miterlimit="10" stroke-width="1.3612669416666667" stroke-dasharray="12.565541,5.445067766666667"/><path fill="none" stroke="black" paint-order="fill stroke markers" d=" M 1318.0860839727811 146.036717502 L 1318.0860839727811 1988.647649742" stroke-miterlimit="10" stroke-width="1.3612669416666667" stroke-dasharray="12.565541,5.445067766666667"/></g><g><g><path fill="white" stroke="green" paint-order="fill stroke markers" d=" M 99.154684031 76.93880754300004 A 9.311065881 9.311065881 0 1 1 99.15467937546744 76.92949647867087 M 89.84361815 86.24987342400003 L 89.84361815 106.17882145000003 M 78.08227177399999 93.43736287600004 L 101.604964526 93.43736287600004 M 89.84361815 106.17882145000003 L 78.08227177399999 124.80095321200002 M 89.84361815 106.17882145000003 L 101.604964526 124.80095321200002" stroke-miterlimit="10" stroke-width="1.3884922805000002" stroke-dasharray=""/></g><g><text fill="black" stroke="none" font-family="sans-serif" font-size="11pt" font-style="normal" font-weight="normal" text-decoration="normal" x="30.50219511533203" y="141.136156512" text-anchor="start" dominant-baseline="alphabetic" xml:space="preserve">Workspace Admin</text></g><g><path fill="white" stroke="black" paint-order="fill stroke markers" d=" M 372.8087859916458 82.819480731 A 24.2577769005 24.2577769005 0 1 1 372.80877386275836 82.79522295814245 M 309.34652117114575 57.17321154999999 L 309.34652117114575 108.465749912 M 307.9580288906458 82.819480731 L 324.29323219064577 82.819480731" stroke-miterlimit="10" stroke-width="2.7769845610000004" stroke-dasharray=""/></g><g><text fill="black" stroke="none" font-family="sans-serif" font-size="11pt" font-style="normal" font-weight="normal" text-decoration="normal" x="282.1336058054036" y="124.80095321200001" text-anchor="start" dominant-baseline="alphabetic" xml:space="preserve">FUniverse Admin </text><text fill="black" stroke="none" font-family="sans-serif" font-size="11pt" font-style="normal" font-weight="normal" text-decoration="normal" x="321.6432569894856" y="141.136156512" text-anchor="start" dominant-baseline="alphabetic" xml:space="preserve">Client</text></g><g><path fill="white" stroke="black" paint-order="fill stroke markers" d=" M 600.964893031815 82.819480731 A 24.2577769005 24.2577769005 0 1 1 600.9648809029276 82.79522295814245 M 573.440075471315 58.561703830499994 L 583.241197451315 50.39410218049999 M 573.440075471315 58.561703830499994 L 583.241197451315 66.72930548049999" stroke-miterlimit="10" stroke-width="2.7769845610000004" stroke-dasharray=""/></g><g><text fill="black" stroke="none" font-family="sans-serif" font-size="11pt" font-style="normal" font-weight="normal" text-decoration="normal" x="553.482361797819" y="124.80095321200001" text-anchor="start" dominant-baseline="alphabetic" xml:space="preserve">Search</text><text fill="black" stroke="none" font-family="sans-serif" font-size="11pt" font-style="normal" font-weight="normal" text-decoration="normal" x="544.9319009823893" y="141.136156512" text-anchor="start" dominant-baseline="alphabetic" xml:space="preserve">Controller</text></g><g><path fill="white" stroke="black" paint-order="fill stroke markers" d=" M 751.9364388706497 82.819480731 A 24.2577769005 24.2577769005 0 1 1 751.9364267417623 82.79522295814245 M 724.4116213101497 58.561703830499994 L 734.2127432901497 50.39410218049999 M 724.4116213101497 58.561703830499994 L 734.2127432901497 66.72930548049999" stroke-miterlimit="10" stroke-width="2.7769845610000004" stroke-dasharray=""/></g><g><text fill="black" stroke="none" font-family="sans-serif" font-size="11pt" font-style="normal" font-weight="normal" text-decoration="normal" x="690.2091032543294" y="124.80095321200001" text-anchor="start" dominant-baseline="alphabetic" xml:space="preserve">Curriculum </text><text fill="black" stroke="none" font-family="sans-serif" font-size="11pt" font-style="normal" font-weight="normal" text-decoration="normal" x="695.903446821224" y="141.136156512" text-anchor="start" dominant-baseline="alphabetic" xml:space="preserve">Controller</text></g><path fill="none" stroke="none"/><g><path fill="white" stroke="black" paint-order="fill stroke markers" d=" M 844.0204344446627 85.75981732500003 L 954.4069430373033 85.75981732500003 L 954.4069430373033 146.03671750200002 L 844.0204344446627 146.03671750200002 L 844.0204344446627 85.75981732500003 Z" stroke-miterlimit="10" stroke-width="2.613632528" stroke-dasharray=""/></g><g><text fill="black" stroke="none" font-family="sans-serif" font-size="11pt" font-style="normal" font-weight="normal" text-decoration="normal" x="861.7441300251627" y="113.366310902" text-anchor="start" dominant-baseline="alphabetic" xml:space="preserve">Curriculum </text><text fill="black" stroke="none" font-family="sans-serif" font-size="11pt" font-style="normal" font-weight="normal" text-decoration="normal" x="874.7720459797525" y="129.701514202" text-anchor="start" dominant-baseline="alphabetic" xml:space="preserve">Service</text></g><path fill="none" stroke="none"/><g><path fill="white" stroke="black" paint-order="fill stroke markers" d=" M 970.7421463373033 85.75981732500003 L 1065.674110862561 85.75981732500003 L 1065.674110862561 146.03671750200002 L 970.7421463373033 146.03671750200002 L 970.7421463373033 85.75981732500003 Z" stroke-miterlimit="10" stroke-width="2.613632528" stroke-dasharray=""/></g><g><text fill="black" stroke="none" font-family="sans-serif" font-size="11pt" font-style="normal" font-weight="normal" text-decoration="normal" x="988.4658419178033" y="113.366310902" text-anchor="start" dominant-baseline="alphabetic" xml:space="preserve">Syllabus </text><text fill="black" stroke="none" font-family="sans-serif" font-size="11pt" font-style="normal" font-weight="normal" text-decoration="normal" x="993.7664858387018" y="129.701514202" text-anchor="start" dominant-baseline="alphabetic" xml:space="preserve">Service</text></g><path fill="none" stroke="none"/><g><path fill="white" stroke="black" paint-order="fill stroke markers" d=" M 1082.0093141625612 85.75981732500003 L 1225.8102667249284 85.75981732500003 L 1225.8102667249284 146.03671750200002 L 1082.0093141625612 146.03671750200002 L 1082.0093141625612 85.75981732500003 Z" stroke-miterlimit="10" stroke-width="2.613632528" stroke-dasharray=""/></g><g><text fill="black" stroke="none" font-family="sans-serif" font-size="11pt" font-style="normal" font-weight="normal" text-decoration="normal" x="1099.733009743061" y="113.366310902" text-anchor="start" dominant-baseline="alphabetic" xml:space="preserve">Curriculum Plan </text><text fill="black" stroke="none" font-family="sans-serif" font-size="11pt" font-style="normal" font-weight="normal" text-decoration="normal" x="1129.4681476825142" y="129.701514202" text-anchor="start" dominant-baseline="alphabetic" xml:space="preserve">Service</text></g><g><path fill="white" stroke="blue" paint-order="fill stroke markers" d=" M 1294.236687154781 114.01971903400002 L 1294.236687154781 79.71579210400003 L 1341.9354807907812 79.71579210400003 L 1341.9354807907812 114.01971903400002" stroke-miterlimit="10" stroke-width="2.7769845610000004" stroke-dasharray=""/><path fill="white" stroke="blue" paint-order="fill stroke markers" d=" M 1341.9354807907812 78.52332226310003 L 1341.9342883308775 78.63113280801664 L 1341.9307110704115 78.73893257196862 L 1341.924749367106 78.84671077506938 L 1341.9164038171268 78.95445663958843 L 1341.9056752550216 79.06215939102911 L 1341.8925647536378 79.16980825920604 L 1341.8770736240144 79.27739247932207 L 1341.8592034152518 79.38490129304488 L 1341.838955914356 79.49232394958268 L 1341.8163331460596 79.59964970675932 L 1341.7913373726212 79.70686783208855 L 1341.7639710935973 79.81396760384715 L 1341.7342370455926 79.92093831214721 L 1341.7021382019875 80.02776926000705 L 1341.6676777726393 80.13444976442089 L 1341.6308592035625 80.2409691574272 L 1341.5916861765834 80.34731678717546 L 1341.5501626089715 80.45348201899128 L 1341.5062926530495 80.55945423643999 L 1341.4600806957762 80.66522284238813 L 1341.4115313583088 80.77077726006326 L 1341.3606494955409 80.87610693411155 L 1341.3074401956158 80.9812013316534 L 1341.2519087794196 81.08604994333662 L 1341.1940608000477 81.19064228438741 L 1341.1339020422495 81.29496789565883 L 1341.0714385218507 81.3990163446767 L 1341.0066764851517 81.50277722668281 L 1340.9396224083016 81.60624016567543 L 1340.8702829966526 81.70939481544688 L 1340.7986651840881 81.81223086061816 L 1340.7247761323295 81.91473801767043 L 1340.6486232302202 82.0169060359734 L 1340.5702140929875 82.11872469881041 L 1340.4895565614795 82.22018382440001 L 1340.406658701382 82.32127326691418 L 1340.321528802412 82.42198291749291 L 1340.2341753774888 82.52230270525509 L 1340.1446071618816 82.62222259830551 L 1340.0528331123373 82.72173260473815 L 1339.958862406185 82.8208227736353 L 1339.8627044404166 82.91948319606263 L 1339.7643688307483 83.01770400606013 L 1339.6638654106596 83.11547538162863 L 1339.5612042304083 83.21278754571205 L 1339.4563955560272 83.3096307671751 L 1339.3494498682965 83.4059953617763 L 1339.2403778616956 83.50187169313652 L 1339.1291904433342 83.59725017370252 L 1339.0158987318616 83.69212126570572 L 1338.9005140563547 83.78647548211597 L 1338.7830479551847 83.88030338759027 L 1338.6635121748639 83.97359559941626 L 1338.5419186688705 84.0663427884505 L 1338.418279596454 84.15853568005136 L 1338.2926073214187 84.25016505500653 L 1338.1649144108871 84.34122175045486 L 1338.0352136340443 84.43169666080269 L 1337.9035179608593 84.52158073863437 L 1337.76984056079 84.61086499561704 L 1337.6341948014651 84.69954050339939 L 1337.4965942473473 84.78759839450454 L 1337.3570526583774 84.87502986321677 L 1337.2155839885982 84.96182616646205 L 1337.0722023847584 85.0479786246824 L 1336.926922184899 85.13347862270378 L 1336.7797579169194 85.21831761059765 L 1336.6307242971232 85.30248710453591 L 1336.4798362287484 85.38597868763932 L 1336.327108800476 85.46878401081914 L 1336.1725572849216 85.55089479361204 L 1336.016197137108 85.6323028250082 L 1335.8580439929199 85.71299996427229 L 1335.6981136675397 85.79297814175763 L 1335.5364221538664 85.87222935971315 L 1335.372985620917 85.95074569308306 L 1335.2078204122085 86.02851929029947 L 1335.0409430441243 86.10554237406748 L 1334.8723702042619 86.1818072421429 L 1334.7021187497646 86.25730626810244 L 1334.5302057056365 86.33203190210645 L 1334.3566482630386 86.4059766716538 L 1334.1814637775701 86.47913318232916 L 1334.004669767534 86.55149411854241 L 1333.826283912184 86.62305224426024 L 1333.6463240499568 86.69380040372971 L 1333.4648081766886 86.76373152219381 L 1333.2817544438158 86.832838606599 L 1333.0971811565587 86.90111474629441 L 1332.9111067720926 86.96855311372298 L 1332.7235498977007 87.03514696510413 L 1332.534529288914 87.10088964110827 L 1332.344063847636 87.16577456752255 L 1332.1521726202523 87.2297952559084 L 1331.9588747957255 87.29294530425035 L 1331.764189703677 87.35521839759618 L 1331.5681368124538 87.41660830868844 L 1331.3707357271817 87.47710889858719 L 1331.1720061878045 87.53671411728386 L 1330.9719680671108 87.59541800430624 L 1330.7706413687458 87.65321468931457 L 1330.5680462252117 87.71009839268848 L 1330.364202895854 87.76606342610505 L 1330.1591317648356 87.82110419310759 L 1329.952853339099 87.87521518966525 L 1329.7453882463146 87.92839100472347 L 1329.536757232819 87.98062632074506 L 1329.3269811615394 88.03191591424195 L 1329.1160810099084 88.08225465629752 L 1328.9040778677654 88.13163751307953 L 1328.6909929352478 88.18005954634344 L 1328.4768475206713 88.22751591392628 L 1328.261663038399 88.27400187023083 L 1328.0454610067 88.31951276670023 L 1327.8282630455967 88.36404405228271 L 1327.6100908747046 88.40759127388685 L 1327.3909663110592 88.45015007682679 L 1327.170911266934 88.49171620525767 L 1326.9499477476497 88.53228550260131 L 1326.7280978493748 88.57185391196177 L 1326.5053837569137 88.6104174765311 L 1326.2818277414904 88.64797233998496 L 1326.0574521585197 88.68451474686832 L 1325.8322794453734 88.72004104297093 L 1325.606332119135 88.75454767569279 L 1325.379632774349 88.7880311943994 L 1325.1522040807604 88.82048825076676 L 1324.9240687810498 88.8519155991163 L 1324.6952496885563 88.88231009673936 L 1324.465769684999 88.91166870421154 L 1324.235651718187 88.93998848569652 L 1324.004918799725 88.96726660923976 L 1323.7735940027126 88.99350034705165 L 1323.5417004594367 89.01868707578028 L 1323.3092613590586 89.04282427677373 L 1323.0762999452945 89.06590953633204 L 1322.8428395140916 89.0879405459485 L 1322.6089034112986 89.10891510254048 L 1322.3745150303307 89.12883110866981 L 1322.1396978098307 89.14768657275249 L 1321.904475231325 89.1654796092578 L 1321.6688708168754 89.18220843889694 L 1321.4329081267272 89.19787138880088 L 1321.1966107569524 89.21246689268766 L 1320.9600023370913 89.22599349101908 L 1320.7231065277888 89.23844983114658 L 1320.4859470184283 89.2498346674465 L 1320.2485475247631 89.26014686144474 L 1320.0109317865447 89.26938538193045 L 1319.773123565149 89.27754930505931 L 1319.5351466412 89.2846378144458 L 1319.2970248121917 89.29065020124489 L 1319.0587818901083 89.2955858642229 L 1318.820441699044 89.29944430981766 L 1318.582028072819 89.30222515218782 L 1318.3435648525974 89.30392811325146 L 1318.1050758845022 89.30455302271389 L 1317.8665850172317 89.30409981808468 L 1317.628116099674 89.30256854468394 L 1317.3896929785217 89.29995935563771 L 1317.1513394958886 89.29627251186272 L 1316.9130794869243 89.29150838204029 L 1316.674936777431 89.28566744257942 L 1316.4369351814812 89.2787502775692 L 1316.1990984990364 89.27075757872036 L 1315.9614505135664 89.26169014529611 L 1315.724014989672 89.25154888403227 L 1315.4868156707073 89.24033480904649 L 1315.249876276407 89.22804904173692 L 1315.0132205005125 89.21469281067007 L 1314.7768720084048 89.2002674514579 L 1314.5408544347358 89.18477440662434 L 1314.3051913810662 89.16821522546093 L 1314.0699064135051 89.15059156387198 L 1313.835023060353 89.131905184209 L 1313.6005648097498 89.11215795509437 L 1313.3665551073248 89.09135185123453 L 1313.1330173538536 89.06948895322255 L 1312.8999749029165 89.04657144732998 L 1312.667451058565 89.02260162528835 L 1312.435469072989 88.99758188405987 L 1312.2040521441943 88.97151472559781 L 1311.973223413681 88.94440275659629 L 1311.7430059641292 88.91624868822964 L 1311.5134228170928 88.88705533588121 L 1311.2844969306946 88.85682561886193 L 1311.0562511973326 88.82556256011829 L 1310.8287084413898 88.79326928593011 L 1310.6018914169526 88.75994902559792 L 1310.375822805534 88.72560511111998 L 1310.150525213807 88.6902409768591 L 1309.926021171343 88.65386015919924 L 1309.7023331283592 88.61646629619187 L 1309.4794834534732 88.57806312719212 L 1309.2574944314672 88.53865449248488 L 1309.036388261058 88.49824433290078 L 1308.8161870526787 88.4568366894221 L 1308.5969128262664 88.4144357027787 L 1308.3785875090612 88.3710456130339 L 1308.161232933413 88.32667075916052 L 1307.9448708345979 88.28131557860695 L 1307.7295228486455 88.23498460685347 L 1307.5152105101752 88.18768247695864 L 1307.3019552502421 88.13941391909603 L 1307.0897783941946 88.0901837600812 L 1306.8787011595414 88.03999692288905 L 1306.6687446538301 87.98885842616143 L 1306.4599298725361 87.93677338370544 L 1306.2522776969638 87.88374700398191 L 1306.0458088921575 87.8297845895846 L 1305.840544104826 87.77489153671002 L 1305.6365038612764 87.71907333461769 L 1305.4337085653635 87.66233556508129 L 1305.232178496448 87.60468390183053 L 1305.031933807368 87.54612410998368 L 1304.8329945224266 87.4866620454711 L 1304.6353805353858 87.42630365444973 L 1304.4391116074798 87.36505497270832 L 1304.2442073654381 87.30292212506406 L 1304.050687299522 87.2399113247499 L 1303.8585707615773 87.17602887279338 L 1303.6678769630976 87.11128115738646 L 1303.4786249733036 87.0456746532467 L 1303.2908337172366 86.97921592096989 L 1303.104521973866 86.91191160637383 L 1302.9197083742106 86.84376843983392 L 1302.7364113994765 86.77479323561002 L 1302.5546493792083 86.70499289116506 L 1302.3744404894567 86.63437438647533 L 1302.1958027509604 86.56294478333245 L 1302.0187540273446 86.49071122463722 L 1301.8433120233337 86.4176809336853 L 1301.6694942829822 86.34386121344494 L 1301.4973181879193 86.26925944582663 L 1301.3268009556111 86.19388309094498 L 1301.1579596376384 86.11773968637264 L 1300.9908111179925 86.04083684638665 L 1300.825372111386 85.96318226120691 L 1300.661659161582 85.88478369622722 L 1300.4996886397387 85.80564899123874 L 1300.3394767427733 85.72578605964603 L 1300.1810394917422 85.64520288767571 L 1300.0243927302386 85.5639075335778 L 1299.8695521228076 85.48190812681999 L 1299.7165331533813 85.3992128672746 L 1299.565351123729 85.31583002439868 L 1299.4160211519277 85.23176793640704 L 1299.2685581708502 85.14703500943843 L 1299.1229769266718 85.06163971671492 L 1298.9792919773952 84.97559059769462 L 1298.837517691396 84.88889625721775 L 1298.6976682459845 84.80156536464608 L 1298.5597576259888 84.71360665299612 L 1298.4237996223558 84.62502891806572 L 1298.2898078307728 84.53584101755456 L 1298.157795650307 84.44605187017837 L 1298.0277762820667 84.35567045477706 L 1297.8997627278802 84.26470580941687 L 1297.7737677889963 84.1731670304865 L 1297.649804064804 84.08106327178758 L 1297.5278839515722 83.98840374361924 L 1297.4080196412108 83.89519771185707 L 1297.2902231200508 83.80145449702657 L 1297.1745061676463 83.70718347337109 L 1297.0608803555963 83.61239406791447 L 1296.9493570463867 83.51709575951824 L 1296.8399473922561 83.42129807793384 L 1296.7326623340784 83.32501060284957 L 1296.6275126002702 83.22824296293274 L 1296.5245087057172 83.13100483486667 L 1296.423660950723 83.03330594238315 L 1296.3249794199787 82.93515605529001 L 1296.228473981556 82.83656498849416 L 1296.1341542859172 82.73754260102014 L 1296.0420297649543 82.63809879502416 L 1295.9521096310423 82.53824351480395 L 1295.8644028761191 82.43798674580434 L 1295.778918270788 82.33733851361866 L 1295.6956643634376 82.23630888298626 L 1295.6146494793898 82.13490795678602 L 1295.535881720065 82.03314587502607 L 1295.4593689621736 81.93103281382975 L 1295.3851188569279 81.82857898441812 L 1295.313138829276 81.72579463208872 L 1295.2434360771615 81.62269003519114 L 1295.176017570801 81.51927550409916 L 1295.110890051989 81.4155613801797 L 1295.048060033423 81.3115580347587 L 1294.987533798053 81.20727586808408 L 1294.9293173984515 81.10272530828557 L 1294.87341665621 80.99791681033204 L 1294.8198371613566 80.89286085498595 L 1294.768584271796 80.78756794775528 L 1294.719663112774 80.682048617843 L 1294.6730785763664 80.57631341709417 L 1294.6288353209873 80.47037291894078 L 1294.586937770926 80.36423771734434 L 1294.547390115902 80.25791842573655 L 1294.5101963106486 80.15142567595801 L 1294.4753600745146 80.04477011719491 L 1294.442884891095 79.9379624149143 L 1294.412774007881 79.83101324979734 L 1294.3850304359357 79.72393331667146 L 1294.3596569495933 79.61673332344074 L 1294.3366560861814 79.50942399001515 L 1294.316030145767 79.40201604723862 L 1294.2977811909268 79.29452023581591 L 1294.2819110465414 79.18694730523859 L 1294.2684212996119 79.07930801271009 L 1294.2573132991017 78.97161312206994 L 1294.2485881558016 78.86387340271747 L 1294.2422467422186 78.75609962853483 L 1294.238289692489 78.64830257680963 L 1294.2367174023143 78.5404930271572 L 1294.2375300289223 78.43268176044268 L 1294.2407274910508 78.32487955770289 L 1294.2463094689565 78.21709719906826 L 1294.2542754044462 78.10934546268486 L 1294.264624500933 78.00163512363652 L 1294.2773557235157 77.89397695286739 L 1294.292467799083 77.78638171610483 L 1294.3099592164394 77.67886017278285 L 1294.3298282264582 77.57142307496619 L 1294.352072842255 77.4640811662751 L 1294.3766908393864 77.35684518081099 L 1294.4036797560734 77.24972584208304 L 1294.4330368934468 77.14273386193588 L 1294.4647593158172 77.03587993947833 L 1294.498843850969 76.92917476001364 L 1294.5352870904771 76.82262899397078 L 1294.574085390048 76.7162532958376 L 1294.6152348698836 76.61005830309527 L 1294.6587314150706 76.50405463515456 L 1294.7045706759907 76.39825289229391 L 1294.7527480687559 76.29266365459947 L 1294.803258775667 76.187297480907 L 1294.8560977456957 76.08216490774608 L 1294.9112596949888 75.97727644828639 L 1294.9687391073974 75.87264259128648 L 1295.0285302350283 75.76827380004487 L 1295.0906270988182 75.66418051135369 L 1295.1550234891326 75.56037313445508 L 1295.2217129663863 75.45686205000021 L 1295.2906888616872 75.3536576090113 L 1295.361944277503 75.2507701318464 L 1295.4354720883516 75.1482099071675 L 1295.5112649415132 75.04598719091162 L 1295.5893152577657 74.9441122052652 L 1295.6696152321424 74.84259513764188 L 1295.7521568347129 74.74144613966385 L 1295.8369318113857 74.6406753261466 L 1295.9239316847336 74.54029277408755 L 1296.013147754842 74.4403085216582 L 1296.104571100178 74.34073256720049 L 1296.1981925784835 74.24157486822689 L 1296.2940028276887 74.14284534042467 L 1296.3919922668483 74.04455385666434 L 1296.4921510971 73.94671024601234 L 1296.5944693026445 73.84932429274824 L 1296.6989366517464 73.75240573538618 L 1296.8055426977578 73.65596426570113 L 1296.9142767801632 73.56000952775972 L 1297.0251280256446 73.46455111695575 L 1297.1380853491698 73.36959857905077 L 1297.2531374551008 73.27516140921944 L 1297.370272838323 73.18124905110005 L 1297.4894797853956 73.08787089585014 L 1297.610746375723 72.99503628120743 L 1297.7340604827473 72.90275449055602 L 1297.8594097751609 72.81103475199808 L 1297.9867817181384 72.71988623743101 L 1298.1161635745923 72.62931806163034 L 1298.2475424064444 72.53933928133816 L 1298.380905075921 72.44995889435752 L 1298.5162382468664 72.36118583865263 L 1298.6535283860762 72.2730289914551 L 1298.792761764651 72.18549716837617 L 1298.9339244593689 72.0985991225252 L 1299.077002354078 72.01234354363439 L 1299.2219811411082 71.9267390571897 L 1299.3688463227015 71.84179422356848 L 1299.5175832124621 71.7575175371833 L 1299.6681769368251 71.67391742563255 L 1299.8206124365433 71.59100224885773 L 1299.9748744681942 71.50878029830743 L 1300.1309476057029 71.42725979610816 L 1300.2888162418858 71.34644889424223 L 1300.4484645900106 71.26635567373248 L 1300.6098766853759 71.18698814383421 L 1300.7730363869061 71.10835424123428 L 1300.9379273787679 71.03046182925742 L 1301.1045331719988 70.95331869707991 L 1301.2728371061585 70.8769325589507 L 1301.4428223509938 70.80131105341991 L 1301.6144719081221 70.72646174257511 L 1301.7877686127304 70.65239211128501 L 1301.962695135293 70.579109566451 L 1302.139233983303 70.5066214362665 L 1302.3173675030232 70.43493496948412 L 1302.4970778812497 70.3640573346908 L 1302.6783471470947 70.29399561959096 L 1302.8611571737824 70.22475683029771 L 1303.0454896804627 70.1563478906323 L 1303.2313262340383 70.08877564143168 L 1303.4186482510088 70.02204683986446 L 1303.607436999329 69.9561681587552 L 1303.7976736002806 69.8911461859171 L 1303.9893390303628 69.82698742349325 L 1304.1824141231918 69.76369828730645 L 1304.3768795714195 69.70128510621757 L 1304.572715928663 69.6397541214927 L 1304.76990361145 69.57911148617904 L 1304.9684229011762 69.51936326448958 L 1305.168253946078 69.46051543119673 L 1305.369376763218 69.40257387103475 L 1305.5717712404817 69.34554437811137 L 1305.7754171385898 69.28943265532837 L 1305.9802940931227 69.23424431381126 L 1306.1863816165553 69.1799848723482 L 1306.3936591003073 69.12665975683814 L 1306.6021058168028 69.07427429974817 L 1306.811700921544 69.02283373958036 L 1307.022423455195 68.97234322034787 L 1307.234252345678 68.9228077910605 L 1307.4471664102805 68.87423240521996 L 1307.6611443577735 68.82662192032431 L 1307.8761647905408 68.77998109738239 L 1308.092206206718 68.73431460043761 L 1308.3092470023437 68.68962699610162 L 1308.5272654735188 68.64592275309762 L 1308.7462398185785 68.60320624181347 L 1308.9661481402702 68.56148173386472 L 1309.1869684479454 68.52075340166739 L 1309.408678659757 68.48102531802076 L 1309.631256604869 68.44230145570006 L 1309.854680025672 68.4045856870593 L 1310.0789265800101 68.36788178364388 L 1310.3039738434152 68.33219341581358 L 1310.529799311348 68.29752415237542 L 1310.7563804014499 68.26387746022687 L 1310.983694455801 68.23125670400908 L 1311.2117187431852 68.19966514577052 L 1311.4404304613636 68.16910594464068 L 1311.6698067393552 68.1395821565142 L 1311.8998246397232 68.11109673374527 L 1312.1304611608693 68.08365252485247 L 1312.3616932393338 68.05725227423379 L 1312.5934977521013 68.03189862189231 L 1312.8258515189136 68.00759410317211 L 1313.0587313045878 67.98434114850484 L 1313.2921138213394 67.96214208316657 L 1313.525975731111 67.94099912704533 L 1313.7602936479068 67.92091439441914 L 1313.9950441401304 67.9018898937445 L 1314.230203732928 67.88392752745563 L 1314.4657489105364 67.86702909177419 L 1314.701656118634 67.85119627652966 L 1314.9379017666968 67.8364306649904 L 1315.1744622303565 67.82273373370522 L 1315.4113138537643 67.81010685235586 L 1315.6484329519549 67.79855128361993 L 1315.8857958132164 67.78806818304466 L 1316.12337870146 67.77865859893137 L 1316.3611578585956 67.77032347223066 L 1316.5991095069048 67.76306363644822 L 1316.8372098514217 67.75687981756161 L 1317.0754350823097 67.75177263394752 L 1317.3137613772446 67.74774259632011 L 1317.5521649037958 67.74479010767975 L 1317.7906218218086 67.74291546327285 L 1318.0291082857905 67.74211885056229 L 1318.2676004472935 67.74240034920868 L 1318.5060744573004 67.74375993106239 L 1318.7445064686087 67.74619746016636 L 1318.9828726382161 67.74971269276972 L 1319.2211491297046 67.75430527735213 L 1319.4593121156229 67.75997475465897 L 1319.6973377798715 67.76672055774722 L 1319.935202320082 67.7745420120422 L 1320.1728819499988 67.78343833540501 L 1320.4103529018566 67.7934086382107 L 1320.6475914287587 67.80445192343733 L 1320.8845738070497 67.81656708676556 L 1321.1212763386893 67.82975291668915 L 1321.3576753536215 67.84400809463611 L 1321.593747212142 67.85933119510051 L 1321.8294683072618 67.87572068578508 L 1322.0648150670675 67.89317492775442 L 1322.2997639570792 67.91169217559886 L 1322.5342914826042 67.93127057760906 L 1322.7683741910848 67.95190817596112 L 1323.0019886744456 67.97360290691242 L 1323.2351115714328 67.99635260100793 L 1323.4677195699508 68.0201549832972 L 1323.6997894093938 68.04500767356186 L 1323.9312978829714 68.07090818655355 L 1324.1622218400287 68.0978539322426 L 1324.392538188363 68.12584221607686 L 1324.6222238965308 68.15487023925128 L 1324.8512559961532 68.18493509898775 L 1325.0796115842109 68.21603378882533 L 1325.3072678253354 68.24816319892096 L 1325.5342019540922 68.2813201163604 L 1325.7603912772577 68.31550122547955 L 1325.9858131760877 68.35070310819597 L 1326.2104451085809 68.38692224435073 L 1326.4342646117304 68.42415501206038 L 1326.657249303773 68.4623976880792 L 1326.879376886425 68.50164644817144 L 1327.1006251471135 68.5418973674938 L 1327.3209719611966 68.5831464209879 L 1327.5403952941765 68.62538948378277 L 1327.758873203903 68.66862233160731 L 1327.9763838427668 68.71284064121278 L 1328.1929054598857 68.75803999080506 L 1328.4084164032781 68.80421586048686 L 1328.6228951220294 68.8513636327097 L 1328.8363201684463 68.89947859273563 L 1329.0486702002022 68.94855592910876 L 1329.2599239824708 68.99859073413636 L 1329.47006039005 69.04957800437958 L 1329.6790584094742 69.10151264115393 L 1329.8868971411152 69.15438945103898 L 1330.0935558012736 69.20820314639782 L 1330.2990137242552 69.26294834590577 L 1330.5032503644393 69.31861957508848 L 1330.7062452983316 69.37521126686941 L 1330.9079782266083 69.43271776212659 L 1331.1084289761443 69.49113331025838 L 1331.307577502032 69.55045206975865 L 1331.5054038895846 69.6106681088009 L 1331.7018883563283 69.67177540583138 L 1331.8970112539798 69.73376785017133 L 1332.0907530704126 69.79663924262796 L 1332.283094431606 69.86038329611443 L 1332.4740161035845 69.92499363627851 L 1332.6634989943398 69.99046380214003 L 1332.8515241557407 70.05678724673693 L 1333.0380727854276 70.12395733778007 L 1333.2231262286934 70.19196735831628 L 1333.4066659803477 70.2608105074002 L 1333.5886736865684 70.33047990077428 L 1333.7691311467363 70.40096857155726 L 1333.9480203152561 70.47226947094077 L 1334.1253233033601 70.54437546889432 L 1334.3010223808967 70.61727935487819 L 1334.4750999781052 70.69097383856453 L 1334.6475386873703 70.7654515505664 L 1334.8183212649653 70.84070504317464 L 1334.9874306327747 70.91672679110272 L 1335.1548498800023 70.99350919223919 L 1335.3205622648632 71.07104456840791 L 1335.484551216257 71.14932516613591 L 1335.6468003354248 71.22834315742861 L 1335.8072933975905 71.30809064055276 L 1335.9660143535812 71.38855964082649 L 1336.1229473314338 71.46974211141682 L 1336.2780766379813 71.55162993414437 L 1336.431386760422 71.6342149202951 L 1336.5828623678717 71.71748881143918 L 1336.7324883128958 71.80144328025693 L 1336.8802496330247 71.88606993137142 L 1337.0261315522491 71.97136030218806 L 1337.170119482499 72.05730586374082 L 1337.312199025101 72.14389802154521 L 1337.45235597222 72.23112811645758 L 1337.5905763082772 72.31898742554114 L 1337.7268462113545 72.40746716293819 L 1337.8611520545753 72.49655848074872 L 1337.9934804074671 72.58625246991521 L 1338.1238180373048 72.67654016111346 L 1338.2521519104341 72.76741252564963 L 1338.3784691935748 72.85886047636295 L 1338.5027572551035 72.95087486853458 L 1338.625003666318 73.04344650080199 L 1338.7451962026787 73.13656611607907 L 1338.8633228450321 73.2302244024819 L 1338.979371780813 73.32441199425989 L 1339.0933314052238 73.41911947273236 L 1339.2051903223974 73.51433736723038 L 1339.3149373465353 73.61005615604385 L 1339.4225615030264 73.70626626737365 L 1339.5280520295448 73.80295808028882 L 1339.631398377126 73.90012192568864 L 1339.732590211221 73.99774808726954 L 1339.8316174127308 74.09582680249675 L 1339.9284700790179 74.19434826358044 L 1340.0231385248962 74.29330261845661 L 1340.1156132836002 74.39267997177224 L 1340.2058851077309 74.49247038587482 L 1340.2939449701812 74.59266388180609 L 1340.3797840650384 74.69325044029995 L 1340.4633938084642 74.79422000278437 L 1340.5447658395542 74.89556247238725 L 1340.623892021173 74.99726771494608 L 1340.7007644407686 75.09932556002136 L 1340.7753754111627 75.20172580191361 L 1340.8477174713207 75.304458200684 L 1340.917783387097 75.40751248317825 L 1340.985566151958 75.510878344054 L 1341.051058987684 75.61454544681129 L 1341.1142553450459 75.71850342482624 L 1341.1751489044605 75.82274188238767 L 1341.2337335766229 75.9272503957367 L 1341.2900035031146 76.03201851410908 L 1341.34395305699 76.13703576078028 L 1341.395576843338 76.24229163411314 L 1341.4448696998238 76.34777560860806 L 1341.4918266972022 76.45347713595547 L 1341.5364431398132 76.55938564609073 L 1341.5787145660493 76.66549054825109 L 1341.618636748803 76.77178123203474 L 1341.6562056958896 76.87824706846187 L 1341.6914176504458 76.98487741103759 L 1341.7242690913051 77.09166159681648 L 1341.7547567333509 77.19858894746895 L 1341.7828775278447 77.30564877034905 L 1341.8086286627301 77.41283035956369 L 1341.8320075629151 77.52012299704329 L 1341.8530118905296 77.62751595361348 L 1341.8716395451577 77.73499849006812 L 1341.88788866405 77.84255985824313 L 1341.901757622308 77.95018930209135 L 1341.9132450330471 78.05787605875803 L 1341.9223497475364 78.16560935965728 L 1341.9290708553115 78.27337843154879 L 1341.9334076842676 78.38117249761517 L 1341.935359800725 78.48898077853964 M 1341.9354807907812 112.82724919310002 L 1341.9342883308775 112.93505973801663 L 1341.9307110704115 113.04285950196861 L 1341.924749367106 113.15063770506937 L 1341.9164038171268 113.25838356958842 L 1341.9056752550216 113.3660863210291 L 1341.8925647536378 113.47373518920602 L 1341.8770736240144 113.58131940932206 L 1341.8592034152518 113.68882822304487 L 1341.838955914356 113.79625087958267 L 1341.8163331460596 113.90357663675931 L 1341.7913373726212 114.01079476208854 L 1341.7639710935973 114.11789453384714 L 1341.7342370455926 114.2248652421472 L 1341.7021382019875 114.33169619000704 L 1341.6676777726393 114.43837669442088 L 1341.6308592035625 114.54489608742719 L 1341.5916861765834 114.65124371717545 L 1341.5501626089715 114.75740894899127 L 1341.5062926530495 114.86338116643998 L 1341.4600806957762 114.96914977238812 L 1341.4115313583088 115.07470419006324 L 1341.3606494955409 115.18003386411154 L 1341.3074401956158 115.28512826165338 L 1341.2519087794196 115.38997687333661 L 1341.1940608000477 115.4945692143874 L 1341.1339020422495 115.59889482565882 L 1341.0714385218507 115.70294327467668 L 1341.0066764851517 115.8067041566828 L 1340.9396224083016 115.91016709567542 L 1340.8702829966526 116.01332174544687 L 1340.7986651840881 116.11615779061815 L 1340.7247761323295 116.21866494767042 L 1340.6486232302202 116.3208329659734 L 1340.5702140929875 116.4226516288104 L 1340.4895565614795 116.5241107544 L 1340.406658701382 116.62520019691416 L 1340.321528802412 116.7259098474929 L 1340.2341753774888 116.82622963525507 L 1340.1446071618816 116.9261495283055 L 1340.0528331123373 117.02565953473814 L 1339.958862406185 117.12474970363529 L 1339.8627044404166 117.22341012606262 L 1339.7643688307483 117.32163093606012 L 1339.6638654106596 117.41940231162862 L 1339.5612042304083 117.51671447571204 L 1339.4563955560272 117.61355769717508 L 1339.3494498682965 117.7099222917763 L 1339.2403778616956 117.80579862313651 L 1339.1291904433342 117.90117710370251 L 1339.0158987318616 117.99604819570571 L 1338.9005140563547 118.09040241211596 L 1338.7830479551847 118.18423031759026 L 1338.6635121748639 118.27752252941625 L 1338.5419186688705 118.37026971845049 L 1338.418279596454 118.46246261005135 L 1338.2926073214187 118.55409198500652 L 1338.1649144108871 118.64514868045485 L 1338.0352136340443 118.73562359080267 L 1337.9035179608593 118.82550766863436 L 1337.76984056079 118.91479192561702 L 1337.6341948014651 119.00346743339938 L 1337.4965942473473 119.09152532450453 L 1337.3570526583774 119.17895679321676 L 1337.2155839885982 119.26575309646203 L 1337.0722023847584 119.35190555468239 L 1336.926922184899 119.43740555270377 L 1336.7797579169194 119.52224454059764 L 1336.6307242971232 119.6064140345359 L 1336.4798362287484 119.68990561763931 L 1336.327108800476 119.77271094081912 L 1336.1725572849216 119.85482172361203 L 1336.016197137108 119.93622975500818 L 1335.8580439929199 120.01692689427227 L 1335.6981136675397 120.09690507175762 L 1335.5364221538664 120.17615628971313 L 1335.372985620917 120.25467262308305 L 1335.2078204122085 120.33244622029946 L 1335.0409430441243 120.40946930406747 L 1334.8723702042619 120.48573417214288 L 1334.7021187497646 120.56123319810243 L 1334.5302057056365 120.63595883210644 L 1334.3566482630386 120.70990360165379 L 1334.1814637775701 120.78306011232915 L 1334.004669767534 120.8554210485424 L 1333.826283912184 120.92697917426023 L 1333.6463240499568 120.9977273337297 L 1333.4648081766886 121.0676584521938 L 1333.2817544438158 121.13676553659899 L 1333.0971811565587 121.2050416762944 L 1332.9111067720926 121.27248004372296 L 1332.7235498977007 121.33907389510412 L 1332.534529288914 121.40481657110826 L 1332.344063847636 121.46970149752254 L 1332.1521726202523 121.53372218590839 L 1331.9588747957255 121.59687223425034 L 1331.764189703677 121.65914532759616 L 1331.5681368124538 121.72053523868843 L 1331.3707357271817 121.78103582858718 L 1331.1720061878045 121.84064104728385 L 1330.9719680671108 121.89934493430623 L 1330.7706413687458 121.95714161931456 L 1330.5680462252117 122.01402532268847 L 1330.364202895854 122.06999035610504 L 1330.1591317648356 122.12503112310758 L 1329.952853339099 122.17914211966524 L 1329.7453882463146 122.23231793472345 L 1329.536757232819 122.28455325074505 L 1329.3269811615394 122.33584284424194 L 1329.1160810099084 122.38618158629751 L 1328.9040778677654 122.43556444307951 L 1328.6909929352478 122.48398647634343 L 1328.4768475206713 122.53144284392627 L 1328.261663038399 122.57792880023082 L 1328.0454610067 122.62343969670022 L 1327.8282630455967 122.6679709822827 L 1327.6100908747046 122.71151820388684 L 1327.3909663110592 122.75407700682678 L 1327.170911266934 122.79564313525766 L 1326.9499477476497 122.8362124326013 L 1326.7280978493748 122.87578084196176 L 1326.5053837569137 122.91434440653109 L 1326.2818277414904 122.95189926998495 L 1326.0574521585197 122.9884416768683 L 1325.8322794453734 123.02396797297092 L 1325.606332119135 123.05847460569278 L 1325.379632774349 123.09195812439938 L 1325.1522040807604 123.12441518076675 L 1324.9240687810498 123.15584252911628 L 1324.6952496885563 123.18623702673935 L 1324.465769684999 123.21559563421152 L 1324.235651718187 123.2439154156965 L 1324.004918799725 123.27119353923975 L 1323.7735940027126 123.29742727705164 L 1323.5417004594367 123.32261400578027 L 1323.3092613590586 123.34675120677372 L 1323.0762999452945 123.36983646633203 L 1322.8428395140916 123.39186747594849 L 1322.6089034112986 123.41284203254047 L 1322.3745150303307 123.4327580386698 L 1322.1396978098307 123.45161350275248 L 1321.904475231325 123.46940653925779 L 1321.6688708168754 123.48613536889692 L 1321.4329081267272 123.50179831880087 L 1321.1966107569524 123.51639382268765 L 1320.9600023370913 123.52992042101907 L 1320.7231065277888 123.54237676114657 L 1320.4859470184283 123.5537615974465 L 1320.2485475247631 123.56407379144473 L 1320.0109317865447 123.57331231193044 L 1319.773123565149 123.5814762350593 L 1319.5351466412 123.58856474444579 L 1319.2970248121917 123.59457713124488 L 1319.0587818901083 123.59951279422289 L 1318.820441699044 123.60337123981765 L 1318.582028072819 123.6061520821878 L 1318.3435648525974 123.60785504325145 L 1318.1050758845022 123.60847995271388 L 1317.8665850172317 123.60802674808467 L 1317.628116099674 123.60649547468392 L 1317.3896929785217 123.6038862856377 L 1317.1513394958886 123.60019944186271 L 1316.9130794869243 123.59543531204028 L 1316.674936777431 123.58959437257941 L 1316.4369351814812 123.58267720756919 L 1316.1990984990364 123.57468450872035 L 1315.9614505135664 123.5656170752961 L 1315.724014989672 123.55547581403226 L 1315.4868156707073 123.54426173904648 L 1315.249876276407 123.53197597173691 L 1315.0132205005125 123.51861974067006 L 1314.7768720084048 123.50419438145789 L 1314.5408544347358 123.48870133662433 L 1314.3051913810662 123.47214215546092 L 1314.0699064135051 123.45451849387197 L 1313.835023060353 123.43583211420899 L 1313.6005648097498 123.41608488509436 L 1313.3665551073248 123.39527878123452 L 1313.1330173538536 123.37341588322253 L 1312.8999749029165 123.35049837732997 L 1312.667451058565 123.32652855528833 L 1312.435469072989 123.30150881405986 L 1312.2040521441943 123.2754416555978 L 1311.973223413681 123.24832968659628 L 1311.7430059641292 123.22017561822963 L 1311.5134228170928 123.1909822658812 L 1311.2844969306946 123.16075254886192 L 1311.0562511973326 123.12948949011827 L 1310.8287084413898 123.0971962159301 L 1310.6018914169526 123.06387595559791 L 1310.375822805534 123.02953204111996 L 1310.150525213807 122.99416790685909 L 1309.926021171343 122.95778708919923 L 1309.7023331283592 122.92039322619186 L 1309.4794834534732 122.88199005719211 L 1309.2574944314672 122.84258142248487 L 1309.036388261058 122.80217126290077 L 1308.8161870526787 122.7607636194221 L 1308.5969128262664 122.71836263277869 L 1308.3785875090612 122.67497254303389 L 1308.161232933413 122.63059768916051 L 1307.9448708345979 122.58524250860694 L 1307.7295228486455 122.53891153685346 L 1307.5152105101752 122.49160940695863 L 1307.3019552502421 122.44334084909602 L 1307.0897783941946 122.39411069008119 L 1306.8787011595414 122.34392385288903 L 1306.6687446538301 122.29278535616142 L 1306.4599298725361 122.24070031370543 L 1306.2522776969638 122.1876739339819 L 1306.0458088921575 122.1337115195846 L 1305.840544104826 122.07881846671 L 1305.6365038612764 122.02300026461768 L 1305.4337085653635 121.96626249508128 L 1305.232178496448 121.90861083183052 L 1305.031933807368 121.85005103998367 L 1304.8329945224266 121.7905889754711 L 1304.6353805353858 121.73023058444971 L 1304.4391116074798 121.66898190270831 L 1304.2442073654381 121.60684905506405 L 1304.050687299522 121.54383825474989 L 1303.8585707615773 121.47995580279337 L 1303.6678769630976 121.41520808738645 L 1303.4786249733036 121.3496015832467 L 1303.2908337172366 121.28314285096988 L 1303.104521973866 121.21583853637382 L 1302.9197083742106 121.14769536983391 L 1302.7364113994765 121.07872016561001 L 1302.5546493792083 121.00891982116505 L 1302.3744404894567 120.93830131647532 L 1302.1958027509604 120.86687171333244 L 1302.0187540273446 120.79463815463721 L 1301.8433120233337 120.72160786368529 L 1301.6694942829822 120.64778814344493 L 1301.4973181879193 120.57318637582662 L 1301.3268009556111 120.49781002094497 L 1301.1579596376384 120.42166661637263 L 1300.9908111179925 120.34476377638664 L 1300.825372111386 120.2671091912069 L 1300.661659161582 120.1887106262272 L 1300.4996886397387 120.10957592123873 L 1300.3394767427733 120.02971298964601 L 1300.1810394917422 119.9491298176757 L 1300.0243927302386 119.8678344635778 L 1299.8695521228076 119.78583505681998 L 1299.7165331533813 119.70313979727459 L 1299.565351123729 119.61975695439867 L 1299.4160211519277 119.53569486640703 L 1299.2685581708502 119.45096193943841 L 1299.1229769266718 119.36556664671491 L 1298.9792919773952 119.27951752769461 L 1298.837517691396 119.19282318721774 L 1298.6976682459845 119.10549229464607 L 1298.5597576259888 119.01753358299611 L 1298.4237996223558 118.92895584806571 L 1298.2898078307728 118.83976794755455 L 1298.157795650307 118.74997880017835 L 1298.0277762820667 118.65959738477704 L 1297.8997627278802 118.56863273941686 L 1297.7737677889963 118.47709396048649 L 1297.649804064804 118.38499020178757 L 1297.5278839515722 118.29233067361923 L 1297.4080196412108 118.19912464185705 L 1297.2902231200508 118.10538142702656 L 1297.1745061676463 118.01111040337108 L 1297.0608803555963 117.91632099791445 L 1296.9493570463867 117.82102268951823 L 1296.8399473922561 117.72522500793383 L 1296.7326623340784 117.62893753284956 L 1296.6275126002702 117.53216989293273 L 1296.5245087057172 117.43493176486666 L 1296.423660950723 117.33723287238314 L 1296.3249794199787 117.23908298529 L 1296.228473981556 117.14049191849415 L 1296.1341542859172 117.04146953102013 L 1296.0420297649543 116.94202572502415 L 1295.9521096310423 116.84217044480394 L 1295.8644028761191 116.74191367580433 L 1295.778918270788 116.64126544361865 L 1295.6956643634376 116.54023581298625 L 1295.6146494793898 116.43883488678601 L 1295.535881720065 116.33707280502605 L 1295.4593689621736 116.23495974382973 L 1295.3851188569279 116.1325059144181 L 1295.313138829276 116.02972156208871 L 1295.2434360771615 115.92661696519113 L 1295.176017570801 115.82320243409914 L 1295.110890051989 115.71948831017968 L 1295.048060033423 115.61548496475869 L 1294.987533798053 115.51120279808407 L 1294.9293173984515 115.40665223828556 L 1294.87341665621 115.30184374033203 L 1294.8198371613566 115.19678778498594 L 1294.768584271796 115.09149487775527 L 1294.719663112774 114.98597554784298 L 1294.6730785763664 114.88024034709416 L 1294.6288353209873 114.77429984894077 L 1294.586937770926 114.66816464734433 L 1294.547390115902 114.56184535573654 L 1294.5101963106486 114.455352605958 L 1294.4753600745146 114.3486970471949 L 1294.442884891095 114.24188934491428 L 1294.412774007881 114.13494017979733 L 1294.3850304359357 114.02786024667145 L 1294.3596569495933 113.92066025344073 L 1294.3366560861814 113.81335092001514 L 1294.316030145767 113.7059429772386 L 1294.2977811909268 113.5984471658159 L 1294.2819110465414 113.49087423523858 L 1294.2684212996119 113.38323494271008 L 1294.2573132991017 113.27554005206993 L 1294.2485881558016 113.16780033271746 L 1294.2422467422186 113.06002655853482 L 1294.238289692489 112.95222950680962 L 1294.2367174023143 112.84441995715719" stroke-miterlimit="10" stroke-width="2.7769845610000004" stroke-dasharray=""/></g><g><text fill="black" stroke="none" font-family="sans-serif" font-size="11pt" font-style="normal" font-weight="normal" text-decoration="normal" x="1286.708139026492" y="141.136156512" text-anchor="start" dominant-baseline="alphabetic" xml:space="preserve">Database</text></g></g><g><path fill="white" stroke="black" paint-order="fill stroke markers" d=" M 332.2158057911458 199.942888392 L 348.5510090911458 199.942888392 L 348.5510090911458 1882.4688282920004 L 332.2158057911458 1882.4688282920004 L 332.2158057911458 199.942888392" stroke-miterlimit="10" stroke-width="1.3612669416666667" stroke-dasharray=""/><path fill="white" stroke="black" paint-order="fill stroke markers" d=" M 568.539514481315 575.652564292 L 584.8747177813151 575.652564292 L 584.8747177813151 621.3911335319999 L 568.539514481315 621.3911335319999 L 568.539514481315 575.652564292" stroke-miterlimit="10" stroke-width="1.3612669416666667" stroke-dasharray=""/><path fill="white" stroke="black" paint-order="fill stroke markers" d=" M 719.5110603201497 879.4873456719998 L 735.8462636201498 879.4873456719998 L 735.8462636201498 1836.7302590520003 L 719.5110603201497 1836.7302590520003 L 719.5110603201497 879.4873456719998" stroke-miterlimit="10" stroke-width="1.3612669416666667" stroke-dasharray=""/><path fill="white" stroke="black" paint-order="fill stroke markers" d=" M 891.046087090983 925.2259149119998 L 907.381290390983 925.2259149119998 L 907.381290390983 1062.4416226319997 L 891.046087090983 1062.4416226319997 L 891.046087090983 925.2259149119998" stroke-miterlimit="10" stroke-width="1.3612669416666667" stroke-dasharray=""/><path fill="white" stroke="black" paint-order="fill stroke markers" d=" M 1309.918482322781 970.9644841519997 L 1326.2536856227812 970.9644841519997 L 1326.2536856227812 1016.7030533919997 L 1309.918482322781 1016.7030533919997 L 1309.918482322781 970.9644841519997" stroke-miterlimit="10" stroke-width="1.3612669416666667" stroke-dasharray=""/><path fill="white" stroke="black" paint-order="fill stroke markers" d=" M 1010.0405269499322 1108.1801918719998 L 1026.3757302499323 1108.1801918719998 L 1026.3757302499323 1245.395899592 L 1010.0405269499322 1245.395899592 L 1010.0405269499322 1108.1801918719998" stroke-miterlimit="10" stroke-width="1.3612669416666667" stroke-dasharray=""/><path fill="white" stroke="black" paint-order="fill stroke markers" d=" M 1309.918482322781 1153.9187611119999 L 1326.2536856227812 1153.9187611119999 L 1326.2536856227812 1199.657330352 L 1309.918482322781 1199.657330352 L 1309.918482322781 1153.9187611119999" stroke-miterlimit="10" stroke-width="1.3612669416666667" stroke-dasharray=""/><path fill="white" stroke="black" paint-order="fill stroke markers" d=" M 727.6786619701497 1328.705436422 L 744.0138652701498 1328.705436422 L 744.0138652701498 1374.444005662 L 727.6786619701497 1374.444005662 L 727.6786619701497 1328.705436422" stroke-miterlimit="10" stroke-width="1.3612669416666667" stroke-dasharray=""/><path fill="white" stroke="black" paint-order="fill stroke markers" d=" M 1145.7421887937446 1621.1055754920003 L 1162.0773920937447 1621.1055754920003 L 1162.0773920937447 1774.6564865120004 L 1145.7421887937446 1774.6564865120004 L 1145.7421887937446 1621.1055754920003" stroke-miterlimit="10" stroke-width="1.3612669416666667" stroke-dasharray=""/><path fill="white" stroke="black" paint-order="fill stroke markers" d=" M 1309.918482322781 1666.8441447320004 L 1326.2536856227812 1666.8441447320004 L 1326.2536856227812 1728.9179172720003 L 1309.918482322781 1728.9179172720003 L 1309.918482322781 1666.8441447320004" stroke-miterlimit="10" stroke-width="1.3612669416666667" stroke-dasharray=""/><g><g><rect fill="white" stroke="none" x="115.27953523533851" y="178.707124102" width="191.50035347046875" height="21.23576429"/></g><text fill="black" stroke="none" font-family="sans-serif" font-size="11pt" font-style="normal" font-weight="normal" text-decoration="normal" x="117.72981573033852" y="193.40880707199997" text-anchor="start" dominant-baseline="alphabetic" xml:space="preserve">Go to Curriculum detail page</text></g><g><path fill="none" stroke="black" paint-order="fill stroke markers" d=" M 89.84361815 199.942888392 L 318.76648840747913 199.942888392" stroke-miterlimit="10" stroke-width="1.3612669416666667" stroke-dasharray=""/><g transform="translate(332.2158057911458,199.942888392) translate(-332.2158057911458,-199.942888392)"><path fill="black" stroke="none" paint-order="stroke fill markers" d=" M 318.6031363744791 193.13655368366665 L 332.2158057911458 199.942888392 L 318.6031363744791 206.74922310033332 Z"/></g></g><g><g><rect fill="white" stroke="none" x="109.17360872166664" y="224.445693342" width="203.7122064978125" height="21.23576429"/></g><text fill="black" stroke="none" font-family="sans-serif" font-size="11pt" font-style="normal" font-weight="normal" text-decoration="normal" x="111.62388921666664" y="239.14737631199998" text-anchor="start" dominant-baseline="alphabetic" xml:space="preserve">Display Curriculum detail page</text></g><g><path fill="none" stroke="black" paint-order="fill stroke markers" d=" M 332.2158057911458 245.681457632 L 103.29293553366666 245.681457632" stroke-miterlimit="10" stroke-width="1.3612669416666667" stroke-dasharray="6.53408132"/><g transform="translate(89.84361815,245.681457632) translate(-89.84361815,-245.681457632)"><path fill="black" stroke="none" paint-order="stroke fill markers" d=" M 103.45628756666666 238.87512292366665 L 89.84361815 245.681457632 L 103.45628756666666 252.48779234033333 Z"/></g></g><g><g><rect fill="white" stroke="none" x="125.4620761288932" y="270.184262582" width="171.13527168335938" height="21.23576429"/></g><text fill="black" stroke="none" font-family="sans-serif" font-size="11pt" font-style="normal" font-weight="normal" text-decoration="normal" x="127.9123566238932" y="284.88594555199995" text-anchor="start" dominant-baseline="alphabetic" xml:space="preserve">Click Add Syllabus button</text></g><g><path fill="none" stroke="black" paint-order="fill stroke markers" d=" M 89.84361815 291.420026872 L 318.76648840747913 291.420026872" stroke-miterlimit="10" stroke-width="1.3612669416666667" stroke-dasharray=""/><g transform="translate(332.2158057911458,291.420026872) translate(-332.2158057911458,-291.420026872)"><path fill="black" stroke="none" paint-order="stroke fill markers" d=" M 318.6031363744791 284.61369216366666 L 332.2158057911458 291.420026872 L 318.6031363744791 298.22636158033333 Z"/></g></g><path fill="none" stroke="none"/><g><g/><path fill="white" stroke="black" paint-order="fill stroke markers" d=" M 263.734627581888 315.922831822 L 417.0321873004036 315.922831822 L 417.0321873004036 389.431246672 L 263.734627581888 389.431246672 L 263.734627581888 315.922831822 Z" stroke-miterlimit="10" stroke-width="2.3336004714285714" stroke-dasharray=""/><path fill="white" stroke="black" paint-order="fill stroke markers" d=" M 263.734627581888 315.922831822 L 263.734627581888 335.525075782 L 311.39970886450516 335.525075782 L 321.20083084450516 325.723953802 L 321.20083084450516 315.922831822 L 263.734627581888 315.922831822" stroke-miterlimit="10" stroke-width="2.3336004714285714" stroke-dasharray=""/><text fill="black" stroke="none" font-family="sans-serif" font-size="8.8pt" font-style="normal" font-weight="bold" text-decoration="normal" x="280.069830881888" y="328.990994462" text-anchor="start" dominant-baseline="alphabetic" xml:space="preserve">ref</text></g><g><text fill="black" stroke="none" font-family="sans-serif" font-size="11pt" font-style="normal" font-weight="normal" text-decoration="normal" x="286.60391220188797" y="357.2275601662857" text-anchor="start" dominant-baseline="alphabetic" xml:space="preserve">Here we have</text><text fill="black" stroke="none" font-family="sans-serif" font-size="11pt" font-style="normal" font-weight="normal" text-decoration="normal" x="286.60391220188797" y="373.5627634662857" text-anchor="start" dominant-baseline="alphabetic" xml:space="preserve">external process</text></g><g><g><rect fill="white" stroke="none" x="136.87223237889322" y="413.93405162199997" width="146.68287910523438" height="21.23576429"/></g><g><rect fill="white" stroke="none" x="136.87223237889322" y="430.26925492199996" width="148.31495918335938" height="21.23576429"/></g><text fill="black" stroke="none" font-family="sans-serif" font-size="11pt" font-style="normal" font-weight="normal" text-decoration="normal" x="139.3225128738932" y="428.63573459199995" text-anchor="start" dominant-baseline="alphabetic" xml:space="preserve">Display Add Syllabus </text><text fill="black" stroke="none" font-family="sans-serif" font-size="11pt" font-style="normal" font-weight="normal" text-decoration="normal" x="139.3225128738932" y="444.97093789199994" text-anchor="start" dominant-baseline="alphabetic" xml:space="preserve">into Curriculum popup</text></g><g><path fill="none" stroke="black" paint-order="fill stroke markers" d=" M 332.2158057911458 451.505019212 L 103.29293553366666 451.505019212" stroke-miterlimit="10" stroke-width="1.3612669416666667" stroke-dasharray="6.53408132"/><g transform="translate(89.84361815,451.505019212) translate(-89.84361815,-451.505019212)"><path fill="black" stroke="none" paint-order="stroke fill markers" d=" M 103.45628756666666 444.69868450366664 L 89.84361815 451.505019212 L 103.45628756666666 458.3113539203333 Z"/></g></g><g><g><rect fill="white" stroke="none" x="155.6123904599479" y="476.00782416199996" width="110.83464302125" height="21.23576429"/></g><text fill="black" stroke="none" font-family="sans-serif" font-size="11pt" font-style="normal" font-weight="normal" text-decoration="normal" x="158.0626709549479" y="490.70950713199994" text-anchor="start" dominant-baseline="alphabetic" xml:space="preserve">Search Syllabus</text></g><g><path fill="none" stroke="black" paint-order="fill stroke markers" d=" M 89.84361815 497.243588452 L 318.76648840747913 497.243588452" stroke-miterlimit="10" stroke-width="1.3612669416666667" stroke-dasharray=""/><g transform="translate(332.2158057911458,497.243588452) translate(-332.2158057911458,-497.243588452)"><path fill="black" stroke="none" paint-order="stroke fill markers" d=" M 318.6031363744791 490.43725374366664 L 332.2158057911458 497.243588452 L 318.6031363744791 504.0499231603333 Z"/></g></g><g><g><rect fill="white" stroke="none" x="367.8809996628124" y="521.746393402" width="35.03657783570313" height="21.23576429"/></g><g><rect fill="white" stroke="none" x="367.8809996628124" y="538.081596702" width="181.32852424683594" height="21.23576429"/></g><g><rect fill="white" stroke="none" x="367.8809996628124" y="554.416800002" width="127.9570795446875" height="21.23576429"/></g><text fill="black" stroke="none" font-family="sans-serif" font-size="11pt" font-style="normal" font-weight="normal" text-decoration="normal" x="370.33128015781244" y="536.448076372" text-anchor="start" dominant-baseline="alphabetic" xml:space="preserve">GET</text><text fill="black" stroke="none" font-family="sans-serif" font-size="11pt" font-style="normal" font-weight="normal" text-decoration="normal" x="370.33128015781244" y="552.7832796719999" text-anchor="start" dominant-baseline="alphabetic" xml:space="preserve">/api/search?entity=syllabus</text><text fill="black" stroke="none" font-family="sans-serif" font-size="11pt" font-style="normal" font-weight="normal" text-decoration="normal" x="370.33128015781244" y="569.1184829719999" text-anchor="start" dominant-baseline="alphabetic" xml:space="preserve">&amp;{paramToSearch}</text></g><g><path fill="none" stroke="black" paint-order="fill stroke markers" d=" M 348.5510090911458 575.652564292 L 555.0901970976483 575.652564292" stroke-miterlimit="10" stroke-width="1.3612669416666667" stroke-dasharray=""/><g transform="translate(568.539514481315,575.652564292) translate(-568.539514481315,-575.652564292)"><path fill="black" stroke="none" paint-order="stroke fill markers" d=" M 554.9268450646483 568.8462295836666 L 568.539514481315 575.652564292 L 554.9268450646483 582.4588990003333 Z"/></g></g><g><g><rect fill="white" stroke="none" x="417.3942214035351" y="600.1553692419999" width="82.30208076539063" height="21.23576429"/></g><text fill="black" stroke="none" font-family="sans-serif" font-size="11pt" font-style="normal" font-weight="normal" text-decoration="normal" x="419.8445018985351" y="614.8570522119999" text-anchor="start" dominant-baseline="alphabetic" xml:space="preserve">Syllabus list</text></g><g><path fill="none" stroke="black" paint-order="fill stroke markers" d=" M 568.539514481315 621.3911335319999 L 362.0003264748124 621.3911335319999" stroke-miterlimit="10" stroke-width="1.3612669416666667" stroke-dasharray="6.53408132"/><g transform="translate(348.5510090911458,621.3911335319999) translate(-348.5510090911458,-621.3911335319999)"><path fill="black" stroke="none" paint-order="stroke fill markers" d=" M 362.16367850781245 614.5847988236666 L 348.5510090911458 621.3911335319999 L 362.16367850781245 628.1974682403333 Z"/></g></g><g><g><rect fill="white" stroke="none" x="171.91157716649087" y="689.9989873919999" width="78.23626960816406" height="21.23576429"/></g><text fill="black" stroke="none" font-family="sans-serif" font-size="11pt" font-style="normal" font-weight="normal" text-decoration="normal" x="174.36185766149086" y="704.7006703619999" text-anchor="start" dominant-baseline="alphabetic" xml:space="preserve">No Options</text></g><g><path fill="none" stroke="black" paint-order="fill stroke markers" d=" M 332.2158057911458 711.2347516819999 L 103.29293553366666 711.2347516819999" stroke-miterlimit="10" stroke-width="1.3612669416666667" stroke-dasharray="6.53408132"/><g transform="translate(89.84361815,711.2347516819999) translate(-89.84361815,-711.2347516819999)"><path fill="black" stroke="none" paint-order="stroke fill markers" d=" M 103.45628756666666 704.4284169736666 L 89.84361815 711.2347516819999 L 103.45628756666666 718.0410863903332 Z"/></g></g><g><g><rect fill="white" stroke="none" x="126.7040194882682" y="779.8426055419999" width="109.20257820191406" height="21.23576429"/></g><g><rect fill="white" stroke="none" x="126.7040194882682" y="796.1778088419999" width="168.65138496460938" height="21.23576429"/></g><g><rect fill="white" stroke="none" x="126.7040194882682" y="812.5130121419999" width="99.42448677125" height="21.23576429"/></g><text fill="black" stroke="none" font-family="sans-serif" font-size="11pt" font-style="normal" font-weight="normal" text-decoration="normal" x="129.1542999832682" y="794.5442885119999" text-anchor="start" dominant-baseline="alphabetic" xml:space="preserve">Select Syllabus,</text><text fill="black" stroke="none" font-family="sans-serif" font-size="11pt" font-style="normal" font-weight="normal" text-decoration="normal" x="129.1542999832682" y="810.8794918119999" text-anchor="start" dominant-baseline="alphabetic" xml:space="preserve">Fill semester information </text><text fill="black" stroke="none" font-family="sans-serif" font-size="11pt" font-style="normal" font-weight="normal" text-decoration="normal" x="129.1542999832682" y="827.2146951119998" text-anchor="start" dominant-baseline="alphabetic" xml:space="preserve">and click Save</text></g><g><path fill="none" stroke="black" paint-order="fill stroke markers" d=" M 89.84361815 833.7487764319999 L 318.76648840747913 833.7487764319999" stroke-miterlimit="10" stroke-width="1.3612669416666667" stroke-dasharray=""/><g transform="translate(332.2158057911458,833.7487764319999) translate(-332.2158057911458,-833.7487764319999)"><path fill="black" stroke="none" paint-order="stroke fill markers" d=" M 318.6031363744791 826.9424417236665 L 332.2158057911458 833.7487764319999 L 318.6031363744791 840.5551111403332 Z"/></g></g><g><g><rect fill="white" stroke="none" x="421.58437817305" y="858.2515813819998" width="224.89331306519531" height="21.23576429"/></g><text fill="black" stroke="none" font-family="sans-serif" font-size="11pt" font-style="normal" font-weight="normal" text-decoration="normal" x="424.03465866805004" y="872.9532643519998" text-anchor="start" dominant-baseline="alphabetic" xml:space="preserve">POST:/api/curriculum/{id}/syllabus</text></g><g><path fill="none" stroke="black" paint-order="fill stroke markers" d=" M 348.5510090911458 879.4873456719998 L 706.061742936483 879.4873456719998" stroke-miterlimit="10" stroke-width="1.3612669416666667" stroke-dasharray=""/><g transform="translate(719.5110603201497,879.4873456719998) translate(-719.5110603201497,-879.4873456719998)"><path fill="black" stroke="none" paint-order="stroke fill markers" d=" M 705.898390903483 872.6810109636665 L 719.5110603201497 879.4873456719998 L 705.898390903483 886.2936803803332 Z"/></g></g><g><g><rect fill="white" stroke="none" x="790.2192453854686" y="903.9901506219998" width="46.453859940195315" height="21.23576429"/></g><text fill="black" stroke="none" font-family="sans-serif" font-size="11pt" font-style="normal" font-weight="normal" text-decoration="normal" x="792.6695258804687" y="918.6918335919997" text-anchor="start" dominant-baseline="alphabetic" xml:space="preserve">get(id)</text></g><g><path fill="none" stroke="black" paint-order="fill stroke markers" d=" M 735.8462636201498 925.2259149119998 L 877.5967697073163 925.2259149119998" stroke-miterlimit="10" stroke-width="1.3612669416666667" stroke-dasharray=""/><g transform="translate(891.046087090983,925.2259149119998) translate(-891.046087090983,-925.2259149119998)"><path fill="black" stroke="none" paint-order="stroke fill markers" d=" M 877.4334176743163 918.4195802036664 L 891.046087090983 925.2259149119998 L 877.4334176743163 932.0322496203331 Z"/></g></g><g><g><rect fill="white" stroke="none" x="1085.4229563867843" y="949.7287198619997" width="46.453859940195315" height="21.23576429"/></g><text fill="black" stroke="none" font-family="sans-serif" font-size="11pt" font-style="normal" font-weight="normal" text-decoration="normal" x="1087.8732368817844" y="964.4304028319997" text-anchor="start" dominant-baseline="alphabetic" xml:space="preserve">get(id)</text></g><g><path fill="none" stroke="black" paint-order="fill stroke markers" d=" M 907.381290390983 970.9644841519997 L 1296.4691649391143 970.9644841519997" stroke-miterlimit="10" stroke-width="1.3612669416666667" stroke-dasharray=""/><g transform="translate(1309.918482322781,970.9644841519997) translate(-1309.918482322781,-970.9644841519997)"><path fill="black" stroke="none" paint-order="stroke fill markers" d=" M 1296.3058129061144 964.1581494436664 L 1309.918482322781 970.9644841519997 L 1296.3058129061144 977.7708188603331 Z"/></g></g><g><g><rect fill="white" stroke="none" x="1054.463766018132" y="995.4672891019997" width="108.3722406775" height="21.23576429"/></g><text fill="black" stroke="none" font-family="sans-serif" font-size="11pt" font-style="normal" font-weight="normal" text-decoration="normal" x="1056.914046513132" y="1010.1689720719996" text-anchor="start" dominant-baseline="alphabetic" xml:space="preserve">Curriculum data</text></g><g><path fill="none" stroke="black" paint-order="fill stroke markers" d=" M 1309.918482322781 1016.7030533919997 L 920.8306077746497 1016.7030533919997" stroke-miterlimit="10" stroke-width="1.3612669416666667" stroke-dasharray="6.53408132"/><g transform="translate(907.381290390983,1016.7030533919997) translate(-907.381290390983,-1016.7030533919997)"><path fill="black" stroke="none" paint-order="stroke fill markers" d=" M 920.9939598076497 1009.8967186836663 L 907.381290390983 1016.7030533919997 L 920.9939598076497 1023.509388100333 Z"/></g></g><g><g><rect fill="white" stroke="none" x="759.2600550168163" y="1041.2058583419998" width="108.3722406775" height="21.23576429"/></g><text fill="black" stroke="none" font-family="sans-serif" font-size="11pt" font-style="normal" font-weight="normal" text-decoration="normal" x="761.7103355118163" y="1055.907541312" text-anchor="start" dominant-baseline="alphabetic" xml:space="preserve">Curriculum data</text></g><g><path fill="none" stroke="black" paint-order="fill stroke markers" d=" M 891.046087090983 1062.4416226319997 L 749.2955810038164 1062.4416226319997" stroke-miterlimit="10" stroke-width="1.3612669416666667" stroke-dasharray="6.53408132"/><g transform="translate(735.8462636201498,1062.4416226319997) translate(-735.8462636201498,-1062.4416226319997)"><path fill="black" stroke="none" paint-order="stroke fill markers" d=" M 749.4589330368165 1055.6352879236665 L 735.8462636201498 1062.4416226319997 L 749.4589330368165 1069.247957340333 Z"/></g></g><g><g><rect fill="white" stroke="none" x="849.7164653149433" y="1086.944427582" width="46.453859940195315" height="21.23576429"/></g><text fill="black" stroke="none" font-family="sans-serif" font-size="11pt" font-style="normal" font-weight="normal" text-decoration="normal" x="852.1667458099433" y="1101.646110552" text-anchor="start" dominant-baseline="alphabetic" xml:space="preserve">get(id)</text></g><g><path fill="none" stroke="black" paint-order="fill stroke markers" d=" M 735.8462636201498 1108.1801918719998 L 996.5912095662655 1108.1801918719998" stroke-miterlimit="10" stroke-width="1.3612669416666667" stroke-dasharray=""/><g transform="translate(1010.0405269499322,1108.1801918719998) translate(-1010.0405269499322,-1108.1801918719998)"><path fill="black" stroke="none" paint-order="stroke fill markers" d=" M 996.4278575332655 1101.3738571636666 L 1010.0405269499322 1108.1801918719998 L 996.4278575332655 1114.986526580333 Z"/></g></g><g><g><rect fill="white" stroke="none" x="1144.920176316259" y="1132.682996822" width="46.453859940195315" height="21.23576429"/></g><text fill="black" stroke="none" font-family="sans-serif" font-size="11pt" font-style="normal" font-weight="normal" text-decoration="normal" x="1147.370456811259" y="1147.384679792" text-anchor="start" dominant-baseline="alphabetic" xml:space="preserve">get(id)</text></g><g><path fill="none" stroke="black" paint-order="fill stroke markers" d=" M 1026.3757302499323 1153.9187611119999 L 1296.4691649391143 1153.9187611119999" stroke-miterlimit="10" stroke-width="1.3612669416666667" stroke-dasharray=""/><g transform="translate(1309.918482322781,1153.9187611119999) translate(-1309.918482322781,-1153.9187611119999)"><path fill="black" stroke="none" paint-order="stroke fill markers" d=" M 1296.3058129061144 1147.1124264036666 L 1309.918482322781 1153.9187611119999 L 1296.3058129061144 1160.725095820333 Z"/></g></g><g><g><rect fill="white" stroke="none" x="1121.688257981298" y="1178.421566062" width="92.91769661011719" height="21.23576429"/></g><text fill="black" stroke="none" font-family="sans-serif" font-size="11pt" font-style="normal" font-weight="normal" text-decoration="normal" x="1124.138538476298" y="1193.123249032" text-anchor="start" dominant-baseline="alphabetic" xml:space="preserve">Syllabus data</text></g><g><path fill="none" stroke="black" paint-order="fill stroke markers" d=" M 1309.918482322781 1199.657330352 L 1039.825047633599 1199.657330352" stroke-miterlimit="10" stroke-width="1.3612669416666667" stroke-dasharray="6.53408132"/><g transform="translate(1026.3757302499323,1199.657330352) translate(-1026.3757302499323,-1199.657330352)"><path fill="black" stroke="none" paint-order="stroke fill markers" d=" M 1039.988399666599 1192.8509956436667 L 1026.3757302499323 1199.657330352 L 1039.988399666599 1206.4636650603331 Z"/></g></g><g><g><rect fill="white" stroke="none" x="826.4845469799824" y="1224.160135302" width="92.91769661011719" height="21.23576429"/></g><text fill="black" stroke="none" font-family="sans-serif" font-size="11pt" font-style="normal" font-weight="normal" text-decoration="normal" x="828.9348274749824" y="1238.8618182720002" text-anchor="start" dominant-baseline="alphabetic" xml:space="preserve">Syllabus data</text></g><g><path fill="none" stroke="black" paint-order="fill stroke markers" d=" M 1010.0405269499322 1245.395899592 L 749.2955810038164 1245.395899592" stroke-miterlimit="10" stroke-width="1.3612669416666667" stroke-dasharray="6.53408132"/><g transform="translate(735.8462636201498,1245.395899592) translate(-735.8462636201498,-1245.395899592)"><path fill="black" stroke="none" paint-order="stroke fill markers" d=" M 749.4589330368165 1238.5895648836668 L 735.8462636201498 1245.395899592 L 749.4589330368165 1252.2022343003332 Z"/></g></g><g><g><rect fill="white" stroke="none" x="763.3438558418164" y="1269.8987045420001" width="64.38513435425781" height="21.23576429"/></g><g><rect fill="white" stroke="none" x="763.3438558418164" y="1286.2339078420002" width="66.79744209351563" height="21.23576429"/></g><text fill="black" stroke="none" font-family="sans-serif" font-size="11pt" font-style="normal" font-weight="normal" text-decoration="normal" x="765.7941363368165" y="1284.6003875120002" text-anchor="start" dominant-baseline="alphabetic" xml:space="preserve">Syllabus </text><text fill="black" stroke="none" font-family="sans-serif" font-size="11pt" font-style="normal" font-weight="normal" text-decoration="normal" x="765.7941363368165" y="1300.9355908120003" text-anchor="start" dominant-baseline="alphabetic" xml:space="preserve">isEmpty()</text></g><g><path fill="none" stroke="black" paint-order="fill stroke markers" d=" M 735.8462636201498 1307.4696721320001 L 809.3546784701497 1307.4696721320001 L 809.3546784701497 1328.705436422 L 757.4631826538164 1328.705436422" stroke-miterlimit="10" stroke-width="1.3612669416666667" stroke-dasharray=""/><g transform="translate(744.0138652701497,1328.705436422) translate(-744.0138652701497,-1328.705436422)"><path fill="black" stroke="none" paint-order="stroke fill markers" d=" M 757.6265346868164 1321.8991017136668 L 744.0138652701497 1328.705436422 L 757.6265346868164 1335.5117711303333 Z"/></g></g><g><g><rect fill="white" stroke="none" x="763.3438558418164" y="1353.208241372" width="97.82106269898438" height="21.23576429"/></g><text fill="black" stroke="none" font-family="sans-serif" font-size="11pt" font-style="normal" font-weight="normal" text-decoration="normal" x="765.7941363368165" y="1367.909924342" text-anchor="start" dominant-baseline="alphabetic" xml:space="preserve">Boolean value</text></g><g><path fill="none" stroke="black" paint-order="fill stroke markers" d=" M 744.0138652701497 1374.444005662 L 809.3546784701497 1374.444005662 L 809.3546784701497 1395.679769952 L 749.2955810038163 1395.679769952" stroke-miterlimit="10" stroke-width="1.3612669416666667" stroke-dasharray="6.53408132"/><g transform="translate(735.8462636201497,1395.679769952) translate(-735.8462636201497,-1395.679769952)"><path fill="black" stroke="none" paint-order="stroke fill markers" d=" M 749.4589330368163 1388.8734352436668 L 735.8462636201497 1395.679769952 L 749.4589330368163 1402.4861046603332 Z"/></g></g><g><g><rect fill="white" stroke="none" x="473.7460908195344" y="1464.2876238120002" width="120.56988777222656" height="21.23576429"/></g><text fill="red" stroke="none" font-family="sans-serif" font-size="11pt" font-style="normal" font-weight="normal" text-decoration="normal" x="476.1963713145344" y="1478.9893067820003" text-anchor="start" dominant-baseline="alphabetic" xml:space="preserve">404 NOT FOUND</text></g><g><path fill="none" stroke="black" paint-order="fill stroke markers" d=" M 719.5110603201497 1485.5233881020001 L 362.0003264748124 1485.5233881020001" stroke-miterlimit="10" stroke-width="1.3612669416666667" stroke-dasharray="6.53408132"/><g transform="translate(348.5510090911458,1485.5233881020001) translate(-348.5510090911458,-1485.5233881020001)"><path fill="black" stroke="none" paint-order="stroke fill markers" d=" M 362.16367850781245 1478.717053393667 L 348.5510090911458 1485.5233881020001 L 362.16367850781245 1492.3297228103334 Z"/></g></g><g><g><rect fill="white" stroke="none" x="109.97889131444008" y="1510.0261930520003" width="202.10164131226563" height="21.23576429"/></g><text fill="black" stroke="none" font-family="sans-serif" font-size="11pt" font-style="normal" font-weight="normal" text-decoration="normal" x="112.42917180944008" y="1524.7278760220004" text-anchor="start" dominant-baseline="alphabetic" xml:space="preserve">Display 404 Not Found screen</text></g><g><path fill="none" stroke="black" paint-order="fill stroke markers" d=" M 332.2158057911458 1531.2619573420002 L 103.29293553366666 1531.2619573420002" stroke-miterlimit="10" stroke-width="1.3612669416666667" stroke-dasharray="6.53408132"/><g transform="translate(89.84361815,1531.2619573420002) translate(-89.84361815,-1531.2619573420002)"><path fill="black" stroke="none" paint-order="stroke fill markers" d=" M 103.45628756666666 1524.455622633667 L 89.84361815 1531.2619573420002 L 103.45628756666666 1538.0682920503334 Z"/></g></g><g><g><rect fill="white" stroke="none" x="917.9788944424159" y="1599.8698112020004" width="45.6306635290625" height="21.23576429"/></g><text fill="black" stroke="none" font-family="sans-serif" font-size="11pt" font-style="normal" font-weight="normal" text-decoration="normal" x="920.429174937416" y="1614.5714941720005" text-anchor="start" dominant-baseline="alphabetic" xml:space="preserve">save()</text></g><g><path fill="none" stroke="black" paint-order="fill stroke markers" d=" M 735.8462636201498 1621.1055754920003 L 1132.2928714100779 1621.1055754920003" stroke-miterlimit="10" stroke-width="1.3612669416666667" stroke-dasharray=""/><g transform="translate(1145.7421887937446,1621.1055754920003) translate(-1145.7421887937446,-1621.1055754920003)"><path fill="black" stroke="none" paint-order="stroke fill markers" d=" M 1132.129519377078 1614.299240783667 L 1145.7421887937446 1621.1055754920003 L 1132.129519377078 1627.9119102003335 Z"/></g></g><g><g><rect fill="white" stroke="none" x="1213.1826054437317" y="1645.6083804420005" width="45.6306635290625" height="21.23576429"/></g><text fill="black" stroke="none" font-family="sans-serif" font-size="11pt" font-style="normal" font-weight="normal" text-decoration="normal" x="1215.6328859387318" y="1660.3100634120005" text-anchor="start" dominant-baseline="alphabetic" xml:space="preserve">save()</text></g><g><path fill="none" stroke="black" paint-order="fill stroke markers" d=" M 1162.0773920937447 1666.8441447320004 L 1296.4691649391143 1666.8441447320004" stroke-miterlimit="10" stroke-width="1.3612669416666667" stroke-dasharray=""/><g transform="translate(1309.918482322781,1666.8441447320004) translate(-1309.918482322781,-1666.8441447320004)"><path fill="black" stroke="none" paint-order="stroke fill markers" d=" M 1296.3058129061144 1660.0378100236671 L 1309.918482322781 1666.8441447320004 L 1296.3058129061144 1673.6504794403336 Z"/></g></g><g><g><rect fill="white" stroke="none" x="1181.4073826654114" y="1691.3469496820003" width="109.18110908570313" height="21.23576429"/></g><g><rect fill="white" stroke="none" x="1181.4073826654114" y="1707.6821529820004" width="33.43312324585938" height="21.23576429"/></g><text fill="black" stroke="none" font-family="sans-serif" font-size="11pt" font-style="normal" font-weight="normal" text-decoration="normal" x="1183.8576631604114" y="1706.0486326520004" text-anchor="start" dominant-baseline="alphabetic" xml:space="preserve">Curriculum Plan</text><text fill="black" stroke="none" font-family="sans-serif" font-size="11pt" font-style="normal" font-weight="normal" text-decoration="normal" x="1183.8576631604114" y="1722.3838359520005" text-anchor="start" dominant-baseline="alphabetic" xml:space="preserve">data</text></g><g><path fill="none" stroke="black" paint-order="fill stroke markers" d=" M 1309.918482322781 1728.9179172720003 L 1175.5267094774115 1728.9179172720003" stroke-miterlimit="10" stroke-width="1.3612669416666667" stroke-dasharray="6.53408132"/><g transform="translate(1162.0773920937447,1728.9179172720003) translate(-1162.0773920937447,-1728.9179172720003)"><path fill="black" stroke="none" paint-order="stroke fill markers" d=" M 1175.6900615104114 1722.111582563667 L 1162.0773920937447 1728.9179172720003 L 1175.6900615104114 1735.7242519803335 Z"/></g></g><g><g><rect fill="white" stroke="none" x="869.9008838833339" y="1753.4207222220004" width="141.78668464722656" height="21.23576429"/></g><text fill="black" stroke="none" font-family="sans-serif" font-size="11pt" font-style="normal" font-weight="normal" text-decoration="normal" x="872.3511643783339" y="1768.1224051920005" text-anchor="start" dominant-baseline="alphabetic" xml:space="preserve">Curriculum Plan data</text></g><g><path fill="none" stroke="black" paint-order="fill stroke markers" d=" M 1145.7421887937446 1774.6564865120004 L 749.2955810038164 1774.6564865120004" stroke-miterlimit="10" stroke-width="1.3612669416666667" stroke-dasharray="6.53408132"/><g transform="translate(735.8462636201498,1774.6564865120004) translate(-735.8462636201498,-1774.6564865120004)"><path fill="black" stroke="none" paint-order="stroke fill markers" d=" M 749.4589330368165 1767.8501518036671 L 735.8462636201498 1774.6564865120004 L 749.4589330368165 1781.4628212203336 Z"/></g></g><g><g><rect fill="white" stroke="none" x="418.7246827384797" y="1799.1592914620003" width="54.61422981324219" height="21.23576429"/></g><g><rect fill="white" stroke="none" x="418.7246827384797" y="1815.4944947620004" width="230.61270393433594" height="21.23576429"/></g><text fill="green" stroke="none" font-family="sans-serif" font-size="11pt" font-style="normal" font-weight="normal" text-decoration="normal" x="421.17496323347973" y="1813.8609744320004" text-anchor="start" dominant-baseline="alphabetic" xml:space="preserve">200 OK</text><text fill="green" stroke="none" font-family="sans-serif" font-size="11pt" font-style="normal" font-weight="normal" text-decoration="normal" x="421.17496323347973" y="1830.1961777320005" text-anchor="start" dominant-baseline="alphabetic" xml:space="preserve">Response body:Curriculum Plan id</text></g><g><path fill="none" stroke="black" paint-order="fill stroke markers" d=" M 719.5110603201497 1836.7302590520003 L 362.0003264748124 1836.7302590520003" stroke-miterlimit="10" stroke-width="1.3612669416666667" stroke-dasharray="6.53408132"/><g transform="translate(348.5510090911458,1836.7302590520003) translate(-348.5510090911458,-1836.7302590520003)"><path fill="black" stroke="none" paint-order="stroke fill markers" d=" M 362.16367850781245 1829.923924343667 L 348.5510090911458 1836.7302590520003 L 362.16367850781245 1843.5365937603335 Z"/></g></g><g><g><rect fill="white" stroke="none" x="109.17360872166664" y="1861.2330640020004" width="203.7122064978125" height="21.23576429"/></g><text fill="black" stroke="none" font-family="sans-serif" font-size="11pt" font-style="normal" font-weight="normal" text-decoration="normal" x="111.62388921666664" y="1875.9347469720005" text-anchor="start" dominant-baseline="alphabetic" xml:space="preserve">Display Curriculum detail page</text></g><g><path fill="none" stroke="black" paint-order="fill stroke markers" d=" M 332.2158057911458 1882.4688282920004 L 103.29293553366666 1882.4688282920004" stroke-miterlimit="10" stroke-width="1.3612669416666667" stroke-dasharray="6.53408132"/><g transform="translate(89.84361815,1882.4688282920004) translate(-89.84361815,-1882.4688282920004)"><path fill="black" stroke="none" paint-order="stroke fill markers" d=" M 103.45628756666666 1875.6624935836671 L 89.84361815 1882.4688282920004 L 103.45628756666666 1889.2751630003336 Z"/></g></g><g><g/><path fill="none" stroke="black" paint-order="fill stroke markers" d=" M 16.335203300000003 645.893938482 L 1391.5944988227811 645.893938482 L 1391.5944988227811 1931.4744381920004 L 16.335203300000003 1931.4744381920004 L 16.335203300000003 645.893938482 Z" stroke-miterlimit="10" stroke-width="2.3336004714285714" stroke-dasharray=""/><path fill="white" stroke="black" paint-order="fill stroke markers" d=" M 16.335203300000003 645.893938482 L 16.335203300000003 665.496182442 L 62.694406897070316 665.496182442 L 72.49552887707031 655.6950604619999 L 72.49552887707031 645.893938482 L 16.335203300000003 645.893938482" stroke-miterlimit="10" stroke-width="2.3336004714285714" stroke-dasharray=""/><text fill="black" stroke="none" font-family="sans-serif" font-size="8.8pt" font-style="normal" font-weight="bold" text-decoration="normal" x="32.67040660000001" y="658.9621011219999" text-anchor="start" dominant-baseline="alphabetic" xml:space="preserve">alt</text><g><rect fill="white" stroke="none" x="86.38045168207032" y="647.2007547459999" width="226.49302925171875" height="16.988611432000003"/></g><text fill="black" stroke="none" font-family="sans-serif" font-size="8.8pt" font-style="normal" font-weight="bold" text-decoration="normal" x="88.83073217707032" y="658.9621011219999" text-anchor="start" dominant-baseline="alphabetic" xml:space="preserve">[If there is no syllabus match condition]</text><g><path fill="none" stroke="black" paint-order="fill stroke markers" d=" M 16.335203300000003 735.7375566319998 L 1391.5944988227811 735.7375566319998" stroke-miterlimit="10" stroke-width="2.3336004714285714" stroke-dasharray="4.083800825"/></g><g/><g><rect fill="white" stroke="none" x="86.38045168207032" y="737.0443728959998" width="36.84300483765625" height="16.988611432000003"/></g><text fill="black" stroke="none" font-family="sans-serif" font-size="8.8pt" font-style="normal" font-weight="bold" text-decoration="normal" x="88.83073217707032" y="748.8057192719998" text-anchor="start" dominant-baseline="alphabetic" xml:space="preserve">[Else]</text></g><g/><g><g/><path fill="none" stroke="black" paint-order="fill stroke markers" d=" M 32.6704066 1420.1825749020002 L 1375.259295522781 1420.1825749020002 L 1375.259295522781 1906.9716332420003 L 32.6704066 1906.9716332420003 L 32.6704066 1420.1825749020002 Z" stroke-miterlimit="10" stroke-width="2.3336004714285714" stroke-dasharray=""/><path fill="white" stroke="black" paint-order="fill stroke markers" d=" M 32.6704066 1420.1825749020002 L 32.6704066 1439.784818862 L 79.02961019707031 1439.784818862 L 88.83073217707032 1429.9836968820002 L 88.83073217707032 1420.1825749020002 L 32.6704066 1420.1825749020002" stroke-miterlimit="10" stroke-width="2.3336004714285714" stroke-dasharray=""/><text fill="black" stroke="none" font-family="sans-serif" font-size="8.8pt" font-style="normal" font-weight="bold" text-decoration="normal" x="49.005609899999996" y="1433.250737542" text-anchor="start" dominant-baseline="alphabetic" xml:space="preserve">alt</text><g><rect fill="white" stroke="none" x="102.71565498207032" y="1421.4893911660001" width="190.0029016882422" height="16.988611432000003"/></g><text fill="black" stroke="none" font-family="sans-serif" font-size="8.8pt" font-style="normal" font-weight="bold" text-decoration="normal" x="105.16593547707032" y="1433.250737542" text-anchor="start" dominant-baseline="alphabetic" xml:space="preserve">[If Curriculum or Syllabus empty]</text><g><path fill="none" stroke="black" paint-order="fill stroke markers" d=" M 32.6704066 1555.7647622920003 L 1375.259295522781 1555.7647622920003" stroke-miterlimit="10" stroke-width="2.3336004714285714" stroke-dasharray="4.083800825"/></g><g/></g><g/></g></g></svg>