<svg version="1.1" xmlns="http://www.w3.org/2000/svg" xmlns:xlink="http://www.w3.org/1999/xlink" width="1391" height="1889"><desc>title%20Update%20Syllabus%20in%20Curriculum%0A%0A%0Aactor%20%23green%3A0.5%20%22Workspace%20Admin%22%20as%20w%0Aboundary%20%22FUniverse%20Admin%20%5CnClient%22%20as%20f%0Acontrol%20%22Search%5CnController%22%20as%20ss%0Acontrol%20%22Curriculum%20%5CnController%22%20as%20gc%0Aparticipant%20%22Curriculum%20%5CnService%22%20as%20gs%0Aparticipant%20%22Syllabus%20%5CnService%22%20as%20ssv%0Aparticipant%20%22Curriculum%20Plan%20%5CnService%22%20as%20cps%0Adatabase%20%23blue%3A1%20%22Database%22%20as%20db%0Aw-%3Ef%3AGo%20to%20Curriculum%20detail%20page%0Aactivate%20f%0Aw-%3Ef%3AClick%20Edit%20icon%20%5Cnin%20table%20Curriculum%20Plan%0Af-%3Ess%3AGET%5Cn%2Fapi%2Fsearch%3Fentity%3Dsyllabus%5Cn%26%7BparamToSearch%7D%0Aactivate%20ss%0Af%3C--ss%3ASyllabus%20data%0Adeactivate%20ss%0Aw%3C--f%3ADisplay%20Edit%20Syllabus%20%5Cnin%20Curriculum%20popup%0A%0Aw-%3Ef%3AChange%20semester%20%5Cnand%20click%20Save%0Af-%3Egc%3APUT%3A%2Fapi%2Fcurriculum%2F%7Bid%7D%2Fsyllabus%0Aactivate%20gc%0Agc-%3Egs%3Aget(id)%0Aactivate%20gs%0Ags-%3Edb%3A%20get(id)%0Aactivate%20db%0Ags%3C--db%3ACurriculum%20data%0Adeactivate%20db%0Agc%3C--gs%3A%20Curriculum%20data%0Adeactivate%20gs%0Agc-%3Essv%3Aget(id)%0Aactivate%20ssv%0Assv-%3Edb%3A%20get(id)%0Aactivate%20db%0Assv%3C--db%3ASyllabus%20data%0Adeactivate%20db%0Agc%3C--ssv%3A%20Syllabus%20data%0Adeactivate%20ssv%0Agc-%3Ecps%3Aget(curriculumId%2C%20syllabusId)%0Aactivate%20cps%0Acps-%3Edb%3Aget()%0Aactivate%20db%0Acps%3C--db%3A%20Curriculum%20Plan%5Cndata%0Adeactivate%20db%0Agc%3C--cps%3ACurriculum%20Plan%20data%0Adeactivate%20cps%0Agc-%3Egc%3A%20Check%20%5CnCurriculum%2C%20%5CnSyllabus%2C%5CnCurriculum%20Plan%20%5CnisEmpty()%0Aactivate%20gc%0Agc%3C--gc%3A%20Boolean%20value%0Adeactivate%20gc%0Aalt%20If%20Curriculum%20or%20Syllabus%20or%20Curriculum%20Plan%20empty%0A%0Af%3C--gc%3A%3Ccolor%3A%23red%3E404%20NOT%20FOUND%3C%2Fcolor%3E%0A%0Aw%3C--f%3A%20Display%20404%20Not%20Found%20screen%0Aelse%0Agc-%3Ecps%3Asave()%0Aactivate%20cps%0Acps-%3Edb%3Asave()%0Aactivate%20db%0Acps%3C--db%3A%20Curriculum%20Plan%5Cndata%0Adeactivate%20db%0Agc%3C--cps%3ACurriculum%20Plan%20data%0Adeactivate%20cps%0A%0A%0Af%3C--gc%3A%3Ccolor%3A%23green%3E200%20OK%5CnResponse%20body%3ACurriculum%20Plan%20data%3C%2Fcolor%3E%0Adeactivate%20gc%0Aw%3C--f%3A%20Display%20Curriculum%20detail%20page%0Adeactivate%20f%0Aend</desc><defs/><g><g/><g/><g/><g/><g/><g/><g/><g/><g/><g/><g/><g/><g/><g/><g/><g/><g/><g/><g/><g/><g/><g/><g/><g/><g/><g/><g/><g/><g/><g/><g/><g/><g/><g/><g/><g/><g/><g/><g/><g/><g/><g/><g/><g/><g/><g/><g/><g/><g/><g/><g/><g/><g/><g/><g/><g><rect fill="white" stroke="none" x="0" y="0" width="1391" height="1889"/></g><g><text fill="black" stroke="none" font-family="sans-serif" font-size="16.5pt" font-style="normal" font-weight="normal" text-decoration="normal" x="548.0419016503554" y="24.50280495" text-anchor="start" dominant-baseline="alphabetic" xml:space="preserve">Update Syllabus in Curriculum</text></g><g/><g><path fill="none" stroke="black" paint-order="fill stroke markers" d=" M 73.50841485 146.036717502 L 73.50841485 1889.0029096119995" stroke-miterlimit="10" stroke-width="1.3612669416666667" stroke-dasharray="12.565541,5.445067766666667"/><path fill="none" stroke="black" paint-order="fill stroke markers" d=" M 324.0482041411458 146.036717502 L 324.0482041411458 1889.0029096119995" stroke-miterlimit="10" stroke-width="1.3612669416666667" stroke-dasharray="12.565541,5.445067766666667"/><path fill="none" stroke="black" paint-order="fill stroke markers" d=" M 560.3719128313151 146.036717502 L 560.3719128313151 1889.0029096119995" stroke-miterlimit="10" stroke-width="1.3612669416666667" stroke-dasharray="12.565541,5.445067766666667"/><path fill="none" stroke="black" paint-order="fill stroke markers" d=" M 719.9046616730793 146.036717502 L 719.9046616730793 1889.0029096119995" stroke-miterlimit="10" stroke-width="1.3612669416666667" stroke-dasharray="12.565541,5.445067766666667"/><path fill="none" stroke="black" paint-order="fill stroke markers" d=" M 891.4396884439126 146.036717502 L 891.4396884439126 1889.0029096119995" stroke-miterlimit="10" stroke-width="1.3612669416666667" stroke-dasharray="12.565541,5.445067766666667"/><path fill="none" stroke="black" paint-order="fill stroke markers" d=" M 1010.4341283028618 146.036717502 L 1010.4341283028618 1889.0029096119995" stroke-miterlimit="10" stroke-width="1.3612669416666667" stroke-dasharray="12.565541,5.445067766666667"/><path fill="none" stroke="black" paint-order="fill stroke markers" d=" M 1146.1357901466743 146.036717502 L 1146.1357901466743 1889.0029096119995" stroke-miterlimit="10" stroke-width="1.3612669416666667" stroke-dasharray="12.565541,5.445067766666667"/><path fill="none" stroke="black" paint-order="fill stroke markers" d=" M 1310.3120836757107 146.036717502 L 1310.3120836757107 1889.0029096119995" stroke-miterlimit="10" stroke-width="1.3612669416666667" stroke-dasharray="12.565541,5.445067766666667"/></g><g><g><path fill="white" stroke="green" paint-order="fill stroke markers" d=" M 82.819480731 76.93880754300004 A 9.311065881 9.311065881 0 1 1 82.81947607546743 76.92949647867087 M 73.50841485 86.24987342400003 L 73.50841485 106.17882145000003 M 61.747068473999995 93.43736287600004 L 85.26976122599999 93.43736287600004 M 73.50841485 106.17882145000003 L 61.747068473999995 124.80095321200002 M 73.50841485 106.17882145000003 L 85.26976122599999 124.80095321200002" stroke-miterlimit="10" stroke-width="1.3884922805000002" stroke-dasharray=""/></g><g><text fill="black" stroke="none" font-family="sans-serif" font-size="11pt" font-style="normal" font-weight="normal" text-decoration="normal" x="14.166991815332025" y="141.136156512" text-anchor="start" dominant-baseline="alphabetic" xml:space="preserve">Workspace Admin</text></g><g><path fill="white" stroke="black" paint-order="fill stroke markers" d=" M 356.4735826916458 82.819480731 A 24.2577769005 24.2577769005 0 1 1 356.47357056275837 82.79522295814245 M 293.01131787114576 57.17321154999999 L 293.01131787114576 108.465749912 M 291.6228255906458 82.819480731 L 307.9580288906458 82.819480731" stroke-miterlimit="10" stroke-width="2.7769845610000004" stroke-dasharray=""/></g><g><text fill="black" stroke="none" font-family="sans-serif" font-size="11pt" font-style="normal" font-weight="normal" text-decoration="normal" x="265.7984025054036" y="124.80095321200001" text-anchor="start" dominant-baseline="alphabetic" xml:space="preserve">FUniverse Admin </text><text fill="black" stroke="none" font-family="sans-serif" font-size="11pt" font-style="normal" font-weight="normal" text-decoration="normal" x="305.30805368948563" y="141.136156512" text-anchor="start" dominant-baseline="alphabetic" xml:space="preserve">Client</text></g><g><path fill="white" stroke="black" paint-order="fill stroke markers" d=" M 584.629689731815 82.819480731 A 24.2577769005 24.2577769005 0 1 1 584.6296776029276 82.79522295814245 M 557.104872171315 58.561703830499994 L 566.905994151315 50.39410218049999 M 557.104872171315 58.561703830499994 L 566.905994151315 66.72930548049999" stroke-miterlimit="10" stroke-width="2.7769845610000004" stroke-dasharray=""/></g><g><text fill="black" stroke="none" font-family="sans-serif" font-size="11pt" font-style="normal" font-weight="normal" text-decoration="normal" x="537.147158497819" y="124.80095321200001" text-anchor="start" dominant-baseline="alphabetic" xml:space="preserve">Search</text><text fill="black" stroke="none" font-family="sans-serif" font-size="11pt" font-style="normal" font-weight="normal" text-decoration="normal" x="528.5966976823893" y="141.136156512" text-anchor="start" dominant-baseline="alphabetic" xml:space="preserve">Controller</text></g><g><path fill="white" stroke="black" paint-order="fill stroke markers" d=" M 744.1624385735793 82.819480731 A 24.2577769005 24.2577769005 0 1 1 744.1624264446918 82.79522295814245 M 716.6376210130793 58.561703830499994 L 726.4387429930792 50.39410218049999 M 716.6376210130793 58.561703830499994 L 726.4387429930792 66.72930548049999" stroke-miterlimit="10" stroke-width="2.7769845610000004" stroke-dasharray=""/></g><g><text fill="black" stroke="none" font-family="sans-serif" font-size="11pt" font-style="normal" font-weight="normal" text-decoration="normal" x="682.435102957259" y="124.80095321200001" text-anchor="start" dominant-baseline="alphabetic" xml:space="preserve">Curriculum </text><text fill="black" stroke="none" font-family="sans-serif" font-size="11pt" font-style="normal" font-weight="normal" text-decoration="normal" x="688.1294465241535" y="141.136156512" text-anchor="start" dominant-baseline="alphabetic" xml:space="preserve">Controller</text></g><path fill="none" stroke="none"/><g><path fill="white" stroke="black" paint-order="fill stroke markers" d=" M 836.2464341475923 85.75981732500003 L 946.6329427402329 85.75981732500003 L 946.6329427402329 146.03671750200002 L 836.2464341475923 146.03671750200002 L 836.2464341475923 85.75981732500003 Z" stroke-miterlimit="10" stroke-width="2.613632528" stroke-dasharray=""/></g><g><text fill="black" stroke="none" font-family="sans-serif" font-size="11pt" font-style="normal" font-weight="normal" text-decoration="normal" x="853.9701297280923" y="113.366310902" text-anchor="start" dominant-baseline="alphabetic" xml:space="preserve">Curriculum </text><text fill="black" stroke="none" font-family="sans-serif" font-size="11pt" font-style="normal" font-weight="normal" text-decoration="normal" x="866.9980456826821" y="129.701514202" text-anchor="start" dominant-baseline="alphabetic" xml:space="preserve">Service</text></g><path fill="none" stroke="none"/><g><path fill="white" stroke="black" paint-order="fill stroke markers" d=" M 962.9681460402329 85.75981732500003 L 1057.9001105654906 85.75981732500003 L 1057.9001105654906 146.03671750200002 L 962.9681460402329 146.03671750200002 L 962.9681460402329 85.75981732500003 Z" stroke-miterlimit="10" stroke-width="2.613632528" stroke-dasharray=""/></g><g><text fill="black" stroke="none" font-family="sans-serif" font-size="11pt" font-style="normal" font-weight="normal" text-decoration="normal" x="980.6918416207329" y="113.366310902" text-anchor="start" dominant-baseline="alphabetic" xml:space="preserve">Syllabus </text><text fill="black" stroke="none" font-family="sans-serif" font-size="11pt" font-style="normal" font-weight="normal" text-decoration="normal" x="985.9924855416314" y="129.701514202" text-anchor="start" dominant-baseline="alphabetic" xml:space="preserve">Service</text></g><path fill="none" stroke="none"/><g><path fill="white" stroke="black" paint-order="fill stroke markers" d=" M 1074.2353138654908 85.75981732500003 L 1218.036266427858 85.75981732500003 L 1218.036266427858 146.03671750200002 L 1074.2353138654908 146.03671750200002 L 1074.2353138654908 85.75981732500003 Z" stroke-miterlimit="10" stroke-width="2.613632528" stroke-dasharray=""/></g><g><text fill="black" stroke="none" font-family="sans-serif" font-size="11pt" font-style="normal" font-weight="normal" text-decoration="normal" x="1091.9590094459907" y="113.366310902" text-anchor="start" dominant-baseline="alphabetic" xml:space="preserve">Curriculum Plan </text><text fill="black" stroke="none" font-family="sans-serif" font-size="11pt" font-style="normal" font-weight="normal" text-decoration="normal" x="1121.6941473854438" y="129.701514202" text-anchor="start" dominant-baseline="alphabetic" xml:space="preserve">Service</text></g><g><path fill="white" stroke="blue" paint-order="fill stroke markers" d=" M 1286.4626868577107 114.01971903400002 L 1286.4626868577107 79.71579210400003 L 1334.1614804937108 79.71579210400003 L 1334.1614804937108 114.01971903400002" stroke-miterlimit="10" stroke-width="2.7769845610000004" stroke-dasharray=""/><path fill="white" stroke="blue" paint-order="fill stroke markers" d=" M 1334.1614804937108 78.52332226310003 L 1334.160288033807 78.63113280801664 L 1334.156710773341 78.73893257196862 L 1334.1507490700355 78.84671077506938 L 1334.1424035200564 78.95445663958843 L 1334.1316749579512 79.06215939102911 L 1334.1185644565674 79.16980825920604 L 1334.103073326944 79.27739247932207 L 1334.0852031181814 79.38490129304488 L 1334.0649556172855 79.49232394958268 L 1334.0423328489892 79.59964970675932 L 1334.0173370755508 79.70686783208855 L 1333.989970796527 79.81396760384715 L 1333.9602367485222 79.92093831214721 L 1333.928137904917 80.02776926000705 L 1333.893677475569 80.13444976442089 L 1333.856858906492 80.2409691574272 L 1333.817685879513 80.34731678717546 L 1333.776162311901 80.45348201899128 L 1333.732292355979 80.55945423643999 L 1333.6860803987058 80.66522284238813 L 1333.6375310612384 80.77077726006326 L 1333.5866491984705 80.87610693411155 L 1333.5334398985453 80.9812013316534 L 1333.4779084823492 81.08604994333662 L 1333.4200605029773 81.19064228438741 L 1333.359901745179 81.29496789565883 L 1333.2974382247803 81.3990163446767 L 1333.2326761880813 81.50277722668281 L 1333.1656221112312 81.60624016567543 L 1333.0962826995822 81.70939481544688 L 1333.0246648870177 81.81223086061816 L 1332.950775835259 81.91473801767043 L 1332.8746229331498 82.0169060359734 L 1332.796213795917 82.11872469881041 L 1332.715556264409 82.22018382440001 L 1332.6326584043115 82.32127326691418 L 1332.5475285053417 82.42198291749291 L 1332.4601750804184 82.52230270525509 L 1332.3706068648112 82.62222259830551 L 1332.278832815267 82.72173260473815 L 1332.1848621091146 82.8208227736353 L 1332.0887041433461 82.91948319606263 L 1331.9903685336778 83.01770400606013 L 1331.8898651135892 83.11547538162863 L 1331.7872039333379 83.21278754571205 L 1331.6823952589568 83.3096307671751 L 1331.575449571226 83.4059953617763 L 1331.4663775646252 83.50187169313652 L 1331.3551901462638 83.59725017370252 L 1331.2418984347912 83.69212126570572 L 1331.1265137592843 83.78647548211597 L 1331.0090476581142 83.88030338759027 L 1330.8895118777934 83.97359559941626 L 1330.7679183718 84.0663427884505 L 1330.6442792993837 84.15853568005136 L 1330.5186070243483 84.25016505500653 L 1330.3909141138167 84.34122175045486 L 1330.261213336974 84.43169666080269 L 1330.1295176637889 84.52158073863437 L 1329.9958402637196 84.61086499561704 L 1329.8601945043947 84.69954050339939 L 1329.7225939502769 84.78759839450454 L 1329.583052361307 84.87502986321677 L 1329.4415836915277 84.96182616646205 L 1329.298202087688 85.0479786246824 L 1329.1529218878286 85.13347862270378 L 1329.005757619849 85.21831761059765 L 1328.8567240000527 85.30248710453591 L 1328.705835931678 85.38597868763932 L 1328.5531085034056 85.46878401081914 L 1328.3985569878512 85.55089479361204 L 1328.2421968400376 85.6323028250082 L 1328.0840436958495 85.71299996427229 L 1327.9241133704693 85.79297814175763 L 1327.762421856796 85.87222935971315 L 1327.5989853238466 85.95074569308306 L 1327.4338201151381 86.02851929029947 L 1327.266942747054 86.10554237406748 L 1327.0983699071915 86.1818072421429 L 1326.9281184526942 86.25730626810244 L 1326.756205408566 86.33203190210645 L 1326.5826479659681 86.4059766716538 L 1326.4074634804997 86.47913318232916 L 1326.2306694704637 86.55149411854241 L 1326.0522836151135 86.62305224426024 L 1325.8723237528864 86.69380040372971 L 1325.6908078796182 86.76373152219381 L 1325.5077541467454 86.832838606599 L 1325.3231808594883 86.90111474629441 L 1325.1371064750222 86.96855311372298 L 1324.9495496006302 87.03514696510413 L 1324.7605289918436 87.10088964110827 L 1324.5700635505657 87.16577456752255 L 1324.3781723231818 87.2297952559084 L 1324.184874498655 87.29294530425035 L 1323.9901894066065 87.35521839759618 L 1323.7941365153833 87.41660830868844 L 1323.5967354301113 87.47710889858719 L 1323.398005890734 87.53671411728386 L 1323.1979677700403 87.59541800430624 L 1322.9966410716754 87.65321468931457 L 1322.7940459281413 87.71009839268848 L 1322.5902025987837 87.76606342610505 L 1322.3851314677652 87.82110419310759 L 1322.1788530420285 87.87521518966525 L 1321.9713879492442 87.92839100472347 L 1321.7627569357485 87.98062632074506 L 1321.552980864469 88.03191591424195 L 1321.342080712838 88.08225465629752 L 1321.130077570695 88.13163751307953 L 1320.9169926381774 88.18005954634344 L 1320.7028472236009 88.22751591392628 L 1320.4876627413287 88.27400187023083 L 1320.2714607096295 88.31951276670023 L 1320.0542627485263 88.36404405228271 L 1319.8360905776342 88.40759127388685 L 1319.6169660139888 88.45015007682679 L 1319.3969109698635 88.49171620525767 L 1319.1759474505793 88.53228550260131 L 1318.9540975523043 88.57185391196177 L 1318.7313834598433 88.6104174765311 L 1318.50782744442 88.64797233998496 L 1318.2834518614493 88.68451474686832 L 1318.058279148303 88.72004104297093 L 1317.8323318220646 88.75454767569279 L 1317.6056324772785 88.7880311943994 L 1317.37820378369 88.82048825076676 L 1317.1500684839793 88.8519155991163 L 1316.9212493914858 88.88231009673936 L 1316.6917693879286 88.91166870421154 L 1316.4616514211166 88.93998848569652 L 1316.2309185026545 88.96726660923976 L 1315.9995937056422 88.99350034705165 L 1315.7677001623663 89.01868707578028 L 1315.5352610619882 89.04282427677373 L 1315.302299648224 89.06590953633204 L 1315.0688392170212 89.0879405459485 L 1314.8349031142282 89.10891510254048 L 1314.6005147332603 89.12883110866981 L 1314.3656975127603 89.14768657275249 L 1314.1304749342546 89.1654796092578 L 1313.894870519805 89.18220843889694 L 1313.6589078296568 89.19787138880088 L 1313.422610459882 89.21246689268766 L 1313.1860020400209 89.22599349101908 L 1312.9491062307184 89.23844983114658 L 1312.711946721358 89.2498346674465 L 1312.4745472276927 89.26014686144474 L 1312.2369314894743 89.26938538193045 L 1311.9991232680786 89.27754930505931 L 1311.7611463441297 89.2846378144458 L 1311.5230245151213 89.29065020124489 L 1311.284781593038 89.2955858642229 L 1311.0464414019737 89.29944430981766 L 1310.8080277757485 89.30222515218782 L 1310.569564555527 89.30392811325146 L 1310.3310755874318 89.30455302271389 L 1310.0925847201613 89.30409981808468 L 1309.8541158026035 89.30256854468394 L 1309.6156926814513 89.29995935563771 L 1309.3773391988182 89.29627251186272 L 1309.1390791898539 89.29150838204029 L 1308.9009364803605 89.28566744257942 L 1308.6629348844108 89.2787502775692 L 1308.425098201966 89.27075757872036 L 1308.187450216496 89.26169014529611 L 1307.9500146926016 89.25154888403227 L 1307.7128153736369 89.24033480904649 L 1307.4758759793365 89.22804904173692 L 1307.239220203442 89.21469281067007 L 1307.0028717113344 89.2002674514579 L 1306.7668541376654 89.18477440662434 L 1306.5311910839957 89.16821522546093 L 1306.2959061164347 89.15059156387198 L 1306.0610227632826 89.131905184209 L 1305.8265645126794 89.11215795509437 L 1305.5925548102543 89.09135185123453 L 1305.3590170567832 89.06948895322255 L 1305.125974605846 89.04657144732998 L 1304.8934507614945 89.02260162528835 L 1304.6614687759186 88.99758188405987 L 1304.4300518471239 88.97151472559781 L 1304.1992231166105 88.94440275659629 L 1303.9690056670588 88.91624868822964 L 1303.7394225200223 88.88705533588121 L 1303.5104966336241 88.85682561886193 L 1303.2822509002622 88.82556256011829 L 1303.0547081443194 88.79326928593011 L 1302.8278911198822 88.75994902559792 L 1302.6018225084636 88.72560511111998 L 1302.3765249167366 88.6902409768591 L 1302.1520208742727 88.65386015919924 L 1301.9283328312888 88.61646629619187 L 1301.7054831564028 88.57806312719212 L 1301.4834941343968 88.53865449248488 L 1301.2623879639875 88.49824433290078 L 1301.0421867556083 88.4568366894221 L 1300.822912529196 88.4144357027787 L 1300.6045872119907 88.3710456130339 L 1300.3872326363426 88.32667075916052 L 1300.1708705375274 88.28131557860695 L 1299.955522551575 88.23498460685347 L 1299.7412102131048 88.18768247695864 L 1299.5279549531717 88.13941391909603 L 1299.3157780971242 88.0901837600812 L 1299.104700862471 88.03999692288905 L 1298.8947443567597 87.98885842616143 L 1298.6859295754657 87.93677338370544 L 1298.4782773998934 87.88374700398191 L 1298.2718085950871 87.8297845895846 L 1298.0665438077556 87.77489153671002 L 1297.862503564206 87.71907333461769 L 1297.6597082682931 87.66233556508129 L 1297.4581781993775 87.60468390183053 L 1297.2579335102976 87.54612410998368 L 1297.0589942253562 87.4866620454711 L 1296.8613802383154 87.42630365444973 L 1296.6651113104094 87.36505497270832 L 1296.4702070683677 87.30292212506406 L 1296.2766870024516 87.2399113247499 L 1296.084570464507 87.17602887279338 L 1295.8938766660272 87.11128115738646 L 1295.7046246762332 87.0456746532467 L 1295.5168334201662 86.97921592096989 L 1295.3305216767956 86.91191160637383 L 1295.1457080771402 86.84376843983392 L 1294.9624111024061 86.77479323561002 L 1294.7806490821379 86.70499289116506 L 1294.6004401923863 86.63437438647533 L 1294.42180245389 86.56294478333245 L 1294.2447537302742 86.49071122463722 L 1294.0693117262633 86.4176809336853 L 1293.8954939859118 86.34386121344494 L 1293.7233178908489 86.26925944582663 L 1293.5528006585407 86.19388309094498 L 1293.383959340568 86.11773968637264 L 1293.216810820922 86.04083684638665 L 1293.0513718143156 85.96318226120691 L 1292.8876588645116 85.88478369622722 L 1292.7256883426683 85.80564899123874 L 1292.5654764457029 85.72578605964603 L 1292.4070391946718 85.64520288767571 L 1292.2503924331681 85.5639075335778 L 1292.0955518257372 85.48190812681999 L 1291.942532856311 85.3992128672746 L 1291.7913508266586 85.31583002439868 L 1291.6420208548573 85.23176793640704 L 1291.4945578737797 85.14703500943843 L 1291.3489766296013 85.06163971671492 L 1291.2052916803248 84.97559059769462 L 1291.0635173943256 84.88889625721775 L 1290.923667948914 84.80156536464608 L 1290.7857573289184 84.71360665299612 L 1290.6497993252854 84.62502891806572 L 1290.5158075337024 84.53584101755456 L 1290.3837953532366 84.44605187017837 L 1290.2537759849963 84.35567045477706 L 1290.1257624308098 84.26470580941687 L 1289.999767491926 84.1731670304865 L 1289.8758037677335 84.08106327178758 L 1289.7538836545018 83.98840374361924 L 1289.6340193441404 83.89519771185707 L 1289.5162228229804 83.80145449702657 L 1289.400505870576 83.70718347337109 L 1289.2868800585259 83.61239406791447 L 1289.1753567493163 83.51709575951824 L 1289.0659470951857 83.42129807793384 L 1288.958662037008 83.32501060284957 L 1288.8535123031998 83.22824296293274 L 1288.7505084086467 83.13100483486667 L 1288.6496606536525 83.03330594238315 L 1288.5509791229083 82.93515605529001 L 1288.4544736844855 82.83656498849416 L 1288.3601539888468 82.73754260102014 L 1288.268029467884 82.63809879502416 L 1288.1781093339719 82.53824351480395 L 1288.0904025790487 82.43798674580434 L 1288.0049179737175 82.33733851361866 L 1287.9216640663672 82.23630888298626 L 1287.8406491823193 82.13490795678602 L 1287.7618814229945 82.03314587502607 L 1287.6853686651032 81.93103281382975 L 1287.6111185598575 81.82857898441812 L 1287.5391385322057 81.72579463208872 L 1287.469435780091 81.62269003519114 L 1287.4020172737305 81.51927550409916 L 1287.3368897549185 81.4155613801797 L 1287.2740597363527 81.3115580347587 L 1287.2135335009825 81.20727586808408 L 1287.1553171013811 81.10272530828557 L 1287.0994163591397 80.99791681033204 L 1287.0458368642862 80.89286085498595 L 1286.9945839747256 80.78756794775528 L 1286.9456628157036 80.682048617843 L 1286.899078279296 80.57631341709417 L 1286.8548350239168 80.47037291894078 L 1286.8129374738555 80.36423771734434 L 1286.7733898188317 80.25791842573655 L 1286.7361960135781 80.15142567595801 L 1286.7013597774442 80.04477011719491 L 1286.6688845940246 79.9379624149143 L 1286.6387737108105 79.83101324979734 L 1286.6110301388653 79.72393331667146 L 1286.5856566525229 79.61673332344074 L 1286.562655789111 79.50942399001515 L 1286.5420298486965 79.40201604723862 L 1286.5237808938564 79.29452023581591 L 1286.507910749471 79.18694730523859 L 1286.4944210025415 79.07930801271009 L 1286.4833130020313 78.97161312206994 L 1286.4745878587312 78.86387340271747 L 1286.4682464451482 78.75609962853483 L 1286.4642893954185 78.64830257680963 L 1286.4627171052439 78.5404930271572 L 1286.4635297318518 78.43268176044268 L 1286.4667271939804 78.32487955770289 L 1286.472309171886 78.21709719906826 L 1286.4802751073757 78.10934546268486 L 1286.4906242038626 78.00163512363652 L 1286.5033554264453 77.89397695286739 L 1286.5184675020125 77.78638171610483 L 1286.535958919369 77.67886017278285 L 1286.5558279293878 77.57142307496619 L 1286.5780725451846 77.4640811662751 L 1286.602690542316 77.35684518081099 L 1286.629679459003 77.24972584208304 L 1286.6590365963764 77.14273386193588 L 1286.6907590187468 77.03587993947833 L 1286.7248435538986 76.92917476001364 L 1286.7612867934067 76.82262899397078 L 1286.8000850929775 76.7162532958376 L 1286.8412345728132 76.61005830309527 L 1286.8847311180002 76.50405463515456 L 1286.9305703789203 76.39825289229391 L 1286.9787477716854 76.29266365459947 L 1287.0292584785966 76.187297480907 L 1287.0820974486253 76.08216490774608 L 1287.1372593979183 75.97727644828639 L 1287.194738810327 75.87264259128648 L 1287.2545299379578 75.76827380004487 L 1287.3166268017478 75.66418051135369 L 1287.3810231920622 75.56037313445508 L 1287.447712669316 75.45686205000021 L 1287.5166885646167 75.3536576090113 L 1287.5879439804326 75.2507701318464 L 1287.6614717912812 75.1482099071675 L 1287.7372646444428 75.04598719091162 L 1287.8153149606953 74.9441122052652 L 1287.895614935072 74.84259513764188 L 1287.9781565376425 74.74144613966385 L 1288.0629315143153 74.6406753261466 L 1288.1499313876632 74.54029277408755 L 1288.2391474577717 74.4403085216582 L 1288.3305708031075 74.34073256720049 L 1288.424192281413 74.24157486822689 L 1288.5200025306183 74.14284534042467 L 1288.617991969778 74.04455385666434 L 1288.7181508000297 73.94671024601234 L 1288.820469005574 73.84932429274824 L 1288.924936354676 73.75240573538618 L 1289.0315424006874 73.65596426570113 L 1289.1402764830927 73.56000952775972 L 1289.2511277285741 73.46455111695575 L 1289.3640850520994 73.36959857905077 L 1289.4791371580304 73.27516140921944 L 1289.5962725412526 73.18124905110005 L 1289.7154794883252 73.08787089585014 L 1289.8367460786526 72.99503628120743 L 1289.9600601856769 72.90275449055602 L 1290.0854094780905 72.81103475199808 L 1290.212781421068 72.71988623743101 L 1290.3421632775219 72.62931806163034 L 1290.473542109374 72.53933928133816 L 1290.6069047788505 72.44995889435752 L 1290.742237949796 72.36118583865263 L 1290.8795280890058 72.2730289914551 L 1291.0187614675806 72.18549716837617 L 1291.1599241622985 72.0985991225252 L 1291.3030020570077 72.01234354363439 L 1291.4479808440378 71.9267390571897 L 1291.594846025631 71.84179422356848 L 1291.7435829153917 71.7575175371833 L 1291.8941766397547 71.67391742563255 L 1292.046612139473 71.59100224885773 L 1292.2008741711238 71.50878029830743 L 1292.3569473086325 71.42725979610816 L 1292.5148159448154 71.34644889424223 L 1292.6744642929402 71.26635567373248 L 1292.8358763883055 71.18698814383421 L 1292.9990360898357 71.10835424123428 L 1293.1639270816975 71.03046182925742 L 1293.3305328749284 70.95331869707991 L 1293.498836809088 70.8769325589507 L 1293.6688220539233 70.80131105341991 L 1293.8404716110517 70.72646174257511 L 1294.01376831566 70.65239211128501 L 1294.1886948382225 70.579109566451 L 1294.3652336862326 70.5066214362665 L 1294.5433672059528 70.43493496948412 L 1294.7230775841792 70.3640573346908 L 1294.9043468500242 70.29399561959096 L 1295.087156876712 70.22475683029771 L 1295.2714893833922 70.1563478906323 L 1295.457325936968 70.08877564143168 L 1295.6446479539384 70.02204683986446 L 1295.8334367022585 69.9561681587552 L 1296.0236733032102 69.8911461859171 L 1296.2153387332924 69.82698742349325 L 1296.4084138261214 69.76369828730645 L 1296.602879274349 69.70128510621757 L 1296.7987156315926 69.6397541214927 L 1296.9959033143796 69.57911148617904 L 1297.1944226041057 69.51936326448958 L 1297.3942536490076 69.46051543119673 L 1297.5953764661476 69.40257387103475 L 1297.7977709434113 69.34554437811137 L 1298.0014168415194 69.28943265532837 L 1298.2062937960523 69.23424431381126 L 1298.412381319485 69.1799848723482 L 1298.619658803237 69.12665975683814 L 1298.8281055197324 69.07427429974817 L 1299.0377006244735 69.02283373958036 L 1299.2484231581245 68.97234322034787 L 1299.4602520486076 68.9228077910605 L 1299.67316611321 68.87423240521996 L 1299.8871440607031 68.82662192032431 L 1300.1021644934704 68.77998109738239 L 1300.3182059096475 68.73431460043761 L 1300.5352467052733 68.68962699610162 L 1300.7532651764484 68.64592275309762 L 1300.972239521508 68.60320624181347 L 1301.1921478431998 68.56148173386472 L 1301.412968150875 68.52075340166739 L 1301.6346783626866 68.48102531802076 L 1301.8572563077985 68.44230145570006 L 1302.0806797286016 68.4045856870593 L 1302.3049262829397 68.36788178364388 L 1302.5299735463448 68.33219341581358 L 1302.7557990142775 68.29752415237542 L 1302.9823801043794 68.26387746022687 L 1303.2096941587306 68.23125670400908 L 1303.4377184461148 68.19966514577052 L 1303.6664301642932 68.16910594464068 L 1303.8958064422848 68.1395821565142 L 1304.1258243426528 68.11109673374527 L 1304.356460863799 68.08365252485247 L 1304.5876929422634 68.05725227423379 L 1304.8194974550308 68.03189862189231 L 1305.0518512218432 68.00759410317211 L 1305.2847310075174 67.98434114850484 L 1305.518113524269 67.96214208316657 L 1305.7519754340406 67.94099912704533 L 1305.9862933508364 67.92091439441914 L 1306.22104384306 67.9018898937445 L 1306.4562034358576 67.88392752745563 L 1306.691748613466 67.86702909177419 L 1306.9276558215636 67.85119627652966 L 1307.1639014696264 67.8364306649904 L 1307.4004619332861 67.82273373370522 L 1307.637313556694 67.81010685235586 L 1307.8744326548845 67.79855128361993 L 1308.111795516146 67.78806818304466 L 1308.3493784043897 67.77865859893137 L 1308.5871575615251 67.77032347223066 L 1308.8251092098344 67.76306363644822 L 1309.0632095543513 67.75687981756161 L 1309.3014347852393 67.75177263394752 L 1309.5397610801742 67.74774259632011 L 1309.7781646067253 67.74479010767975 L 1310.0166215247382 67.74291546327285 L 1310.25510798872 67.74211885056229 L 1310.493600150223 67.74240034920868 L 1310.73207416023 67.74375993106239 L 1310.9705061715383 67.74619746016636 L 1311.2088723411457 67.74971269276972 L 1311.4471488326342 67.75430527735213 L 1311.6853118185525 67.75997475465897 L 1311.9233374828011 67.76672055774722 L 1312.1612020230116 67.7745420120422 L 1312.3988816529284 67.78343833540501 L 1312.6363526047862 67.7934086382107 L 1312.8735911316883 67.80445192343733 L 1313.1105735099793 67.81656708676556 L 1313.347276041619 67.82975291668915 L 1313.583675056551 67.84400809463611 L 1313.8197469150716 67.85933119510051 L 1314.0554680101914 67.87572068578508 L 1314.290814769997 67.89317492775442 L 1314.5257636600088 67.91169217559886 L 1314.7602911855338 67.93127057760906 L 1314.9943738940144 67.95190817596112 L 1315.2279883773751 67.97360290691242 L 1315.4611112743623 67.99635260100793 L 1315.6937192728803 68.0201549832972 L 1315.9257891123234 68.04500767356186 L 1316.157297585901 68.07090818655355 L 1316.3882215429583 68.0978539322426 L 1316.6185378912926 68.12584221607686 L 1316.8482235994604 68.15487023925128 L 1317.0772556990828 68.18493509898775 L 1317.3056112871404 68.21603378882533 L 1317.533267528265 68.24816319892096 L 1317.7602016570218 68.2813201163604 L 1317.9863909801873 68.31550122547955 L 1318.2118128790173 68.35070310819597 L 1318.4364448115105 68.38692224435073 L 1318.66026431466 68.42415501206038 L 1318.8832490067025 68.4623976880792 L 1319.1053765893546 68.50164644817144 L 1319.3266248500431 68.5418973674938 L 1319.5469716641262 68.5831464209879 L 1319.766394997106 68.62538948378277 L 1319.9848729068326 68.66862233160731 L 1320.2023835456964 68.71284064121278 L 1320.4189051628152 68.75803999080506 L 1320.6344161062077 68.80421586048686 L 1320.848894824959 68.8513636327097 L 1321.0623198713758 68.89947859273563 L 1321.2746699031318 68.94855592910876 L 1321.4859236854004 68.99859073413636 L 1321.6960600929797 69.04957800437958 L 1321.9050581124038 69.10151264115393 L 1322.1128968440448 69.15438945103898 L 1322.3195555042032 69.20820314639782 L 1322.5250134271848 69.26294834590577 L 1322.7292500673689 69.31861957508848 L 1322.9322450012612 69.37521126686941 L 1323.1339779295379 69.43271776212659 L 1323.3344286790739 69.49113331025838 L 1323.5335772049616 69.55045206975865 L 1323.7314035925142 69.6106681088009 L 1323.9278880592578 69.67177540583138 L 1324.1230109569094 69.73376785017133 L 1324.3167527733422 69.79663924262796 L 1324.5090941345356 69.86038329611443 L 1324.700015806514 69.92499363627851 L 1324.8894986972693 69.99046380214003 L 1325.0775238586702 70.05678724673693 L 1325.2640724883572 70.12395733778007 L 1325.449125931623 70.19196735831628 L 1325.6326656832773 70.2608105074002 L 1325.814673389498 70.33047990077428 L 1325.9951308496659 70.40096857155726 L 1326.1740200181857 70.47226947094077 L 1326.3513230062897 70.54437546889432 L 1326.5270220838263 70.61727935487819 L 1326.7010996810347 70.69097383856453 L 1326.8735383903 70.7654515505664 L 1327.044320967895 70.84070504317464 L 1327.2134303357043 70.91672679110272 L 1327.380849582932 70.99350919223919 L 1327.5465619677927 71.07104456840791 L 1327.7105509191865 71.14932516613591 L 1327.8728000383544 71.22834315742861 L 1328.03329310052 71.30809064055276 L 1328.1920140565107 71.38855964082649 L 1328.3489470343634 71.46974211141682 L 1328.5040763409108 71.55162993414437 L 1328.6573864633515 71.6342149202951 L 1328.8088620708013 71.71748881143918 L 1328.9584880158254 71.80144328025693 L 1329.1062493359543 71.88606993137142 L 1329.2521312551787 71.97136030218806 L 1329.3961191854287 72.05730586374082 L 1329.5381987280307 72.14389802154521 L 1329.6783556751495 72.23112811645758 L 1329.8165760112067 72.31898742554114 L 1329.9528459142841 72.40746716293819 L 1330.087151757505 72.49655848074872 L 1330.2194801103967 72.58625246991521 L 1330.3498177402344 72.67654016111346 L 1330.4781516133637 72.76741252564963 L 1330.6044688965044 72.85886047636295 L 1330.728756958033 72.95087486853458 L 1330.8510033692476 73.04344650080199 L 1330.9711959056083 73.13656611607907 L 1331.0893225479617 73.2302244024819 L 1331.2053714837425 73.32441199425989 L 1331.3193311081534 73.41911947273236 L 1331.431190025327 73.51433736723038 L 1331.540937049465 73.61005615604385 L 1331.648561205956 73.70626626737365 L 1331.7540517324744 73.80295808028882 L 1331.8573980800556 73.90012192568864 L 1331.9585899141505 73.99774808726954 L 1332.0576171156604 74.09582680249675 L 1332.1544697819475 74.19434826358044 L 1332.2491382278258 74.29330261845661 L 1332.3416129865298 74.39267997177224 L 1332.4318848106604 74.49247038587482 L 1332.5199446731108 74.59266388180609 L 1332.605783767968 74.69325044029995 L 1332.6893935113937 74.79422000278437 L 1332.7707655424838 74.89556247238725 L 1332.8498917241027 74.99726771494608 L 1332.9267641436982 75.09932556002136 L 1333.0013751140923 75.20172580191361 L 1333.0737171742503 75.304458200684 L 1333.1437830900265 75.40751248317825 L 1333.2115658548876 75.510878344054 L 1333.2770586906136 75.61454544681129 L 1333.3402550479755 75.71850342482624 L 1333.40114860739 75.82274188238767 L 1333.4597332795524 75.9272503957367 L 1333.5160032060442 76.03201851410908 L 1333.5699527599195 76.13703576078028 L 1333.6215765462675 76.24229163411314 L 1333.6708694027534 76.34777560860806 L 1333.7178264001318 76.45347713595547 L 1333.7624428427428 76.55938564609073 L 1333.8047142689788 76.66549054825109 L 1333.8446364517326 76.77178123203474 L 1333.8822053988192 76.87824706846187 L 1333.9174173533754 76.98487741103759 L 1333.9502687942347 77.09166159681648 L 1333.9807564362804 77.19858894746895 L 1334.0088772307743 77.30564877034905 L 1334.0346283656597 77.41283035956369 L 1334.0580072658447 77.52012299704329 L 1334.0790115934592 77.62751595361348 L 1334.0976392480873 77.73499849006812 L 1334.1138883669796 77.84255985824313 L 1334.1277573252376 77.95018930209135 L 1334.1392447359767 78.05787605875803 L 1334.148349450466 78.16560935965728 L 1334.155070558241 78.27337843154879 L 1334.1594073871972 78.38117249761517 L 1334.1613595036547 78.48898077853964 M 1334.1614804937108 112.82724919310002 L 1334.160288033807 112.93505973801663 L 1334.156710773341 113.04285950196861 L 1334.1507490700355 113.15063770506937 L 1334.1424035200564 113.25838356958842 L 1334.1316749579512 113.3660863210291 L 1334.1185644565674 113.47373518920602 L 1334.103073326944 113.58131940932206 L 1334.0852031181814 113.68882822304487 L 1334.0649556172855 113.79625087958267 L 1334.0423328489892 113.90357663675931 L 1334.0173370755508 114.01079476208854 L 1333.989970796527 114.11789453384714 L 1333.9602367485222 114.2248652421472 L 1333.928137904917 114.33169619000704 L 1333.893677475569 114.43837669442088 L 1333.856858906492 114.54489608742719 L 1333.817685879513 114.65124371717545 L 1333.776162311901 114.75740894899127 L 1333.732292355979 114.86338116643998 L 1333.6860803987058 114.96914977238812 L 1333.6375310612384 115.07470419006324 L 1333.5866491984705 115.18003386411154 L 1333.5334398985453 115.28512826165338 L 1333.4779084823492 115.38997687333661 L 1333.4200605029773 115.4945692143874 L 1333.359901745179 115.59889482565882 L 1333.2974382247803 115.70294327467668 L 1333.2326761880813 115.8067041566828 L 1333.1656221112312 115.91016709567542 L 1333.0962826995822 116.01332174544687 L 1333.0246648870177 116.11615779061815 L 1332.950775835259 116.21866494767042 L 1332.8746229331498 116.3208329659734 L 1332.796213795917 116.4226516288104 L 1332.715556264409 116.5241107544 L 1332.6326584043115 116.62520019691416 L 1332.5475285053417 116.7259098474929 L 1332.4601750804184 116.82622963525507 L 1332.3706068648112 116.9261495283055 L 1332.278832815267 117.02565953473814 L 1332.1848621091146 117.12474970363529 L 1332.0887041433461 117.22341012606262 L 1331.9903685336778 117.32163093606012 L 1331.8898651135892 117.41940231162862 L 1331.7872039333379 117.51671447571204 L 1331.6823952589568 117.61355769717508 L 1331.575449571226 117.7099222917763 L 1331.4663775646252 117.80579862313651 L 1331.3551901462638 117.90117710370251 L 1331.2418984347912 117.99604819570571 L 1331.1265137592843 118.09040241211596 L 1331.0090476581142 118.18423031759026 L 1330.8895118777934 118.27752252941625 L 1330.7679183718 118.37026971845049 L 1330.6442792993837 118.46246261005135 L 1330.5186070243483 118.55409198500652 L 1330.3909141138167 118.64514868045485 L 1330.261213336974 118.73562359080267 L 1330.1295176637889 118.82550766863436 L 1329.9958402637196 118.91479192561702 L 1329.8601945043947 119.00346743339938 L 1329.7225939502769 119.09152532450453 L 1329.583052361307 119.17895679321676 L 1329.4415836915277 119.26575309646203 L 1329.298202087688 119.35190555468239 L 1329.1529218878286 119.43740555270377 L 1329.005757619849 119.52224454059764 L 1328.8567240000527 119.6064140345359 L 1328.705835931678 119.68990561763931 L 1328.5531085034056 119.77271094081912 L 1328.3985569878512 119.85482172361203 L 1328.2421968400376 119.93622975500818 L 1328.0840436958495 120.01692689427227 L 1327.9241133704693 120.09690507175762 L 1327.762421856796 120.17615628971313 L 1327.5989853238466 120.25467262308305 L 1327.4338201151381 120.33244622029946 L 1327.266942747054 120.40946930406747 L 1327.0983699071915 120.48573417214288 L 1326.9281184526942 120.56123319810243 L 1326.756205408566 120.63595883210644 L 1326.5826479659681 120.70990360165379 L 1326.4074634804997 120.78306011232915 L 1326.2306694704637 120.8554210485424 L 1326.0522836151135 120.92697917426023 L 1325.8723237528864 120.9977273337297 L 1325.6908078796182 121.0676584521938 L 1325.5077541467454 121.13676553659899 L 1325.3231808594883 121.2050416762944 L 1325.1371064750222 121.27248004372296 L 1324.9495496006302 121.33907389510412 L 1324.7605289918436 121.40481657110826 L 1324.5700635505657 121.46970149752254 L 1324.3781723231818 121.53372218590839 L 1324.184874498655 121.59687223425034 L 1323.9901894066065 121.65914532759616 L 1323.7941365153833 121.72053523868843 L 1323.5967354301113 121.78103582858718 L 1323.398005890734 121.84064104728385 L 1323.1979677700403 121.89934493430623 L 1322.9966410716754 121.95714161931456 L 1322.7940459281413 122.01402532268847 L 1322.5902025987837 122.06999035610504 L 1322.3851314677652 122.12503112310758 L 1322.1788530420285 122.17914211966524 L 1321.9713879492442 122.23231793472345 L 1321.7627569357485 122.28455325074505 L 1321.552980864469 122.33584284424194 L 1321.342080712838 122.38618158629751 L 1321.130077570695 122.43556444307951 L 1320.9169926381774 122.48398647634343 L 1320.7028472236009 122.53144284392627 L 1320.4876627413287 122.57792880023082 L 1320.2714607096295 122.62343969670022 L 1320.0542627485263 122.6679709822827 L 1319.8360905776342 122.71151820388684 L 1319.6169660139888 122.75407700682678 L 1319.3969109698635 122.79564313525766 L 1319.1759474505793 122.8362124326013 L 1318.9540975523043 122.87578084196176 L 1318.7313834598433 122.91434440653109 L 1318.50782744442 122.95189926998495 L 1318.2834518614493 122.9884416768683 L 1318.058279148303 123.02396797297092 L 1317.8323318220646 123.05847460569278 L 1317.6056324772785 123.09195812439938 L 1317.37820378369 123.12441518076675 L 1317.1500684839793 123.15584252911628 L 1316.9212493914858 123.18623702673935 L 1316.6917693879286 123.21559563421152 L 1316.4616514211166 123.2439154156965 L 1316.2309185026545 123.27119353923975 L 1315.9995937056422 123.29742727705164 L 1315.7677001623663 123.32261400578027 L 1315.5352610619882 123.34675120677372 L 1315.302299648224 123.36983646633203 L 1315.0688392170212 123.39186747594849 L 1314.8349031142282 123.41284203254047 L 1314.6005147332603 123.4327580386698 L 1314.3656975127603 123.45161350275248 L 1314.1304749342546 123.46940653925779 L 1313.894870519805 123.48613536889692 L 1313.6589078296568 123.50179831880087 L 1313.422610459882 123.51639382268765 L 1313.1860020400209 123.52992042101907 L 1312.9491062307184 123.54237676114657 L 1312.711946721358 123.5537615974465 L 1312.4745472276927 123.56407379144473 L 1312.2369314894743 123.57331231193044 L 1311.9991232680786 123.5814762350593 L 1311.7611463441297 123.58856474444579 L 1311.5230245151213 123.59457713124488 L 1311.284781593038 123.59951279422289 L 1311.0464414019737 123.60337123981765 L 1310.8080277757485 123.6061520821878 L 1310.569564555527 123.60785504325145 L 1310.3310755874318 123.60847995271388 L 1310.0925847201613 123.60802674808467 L 1309.8541158026035 123.60649547468392 L 1309.6156926814513 123.6038862856377 L 1309.3773391988182 123.60019944186271 L 1309.1390791898539 123.59543531204028 L 1308.9009364803605 123.58959437257941 L 1308.6629348844108 123.58267720756919 L 1308.425098201966 123.57468450872035 L 1308.187450216496 123.5656170752961 L 1307.9500146926016 123.55547581403226 L 1307.7128153736369 123.54426173904648 L 1307.4758759793365 123.53197597173691 L 1307.239220203442 123.51861974067006 L 1307.0028717113344 123.50419438145789 L 1306.7668541376654 123.48870133662433 L 1306.5311910839957 123.47214215546092 L 1306.2959061164347 123.45451849387197 L 1306.0610227632826 123.43583211420899 L 1305.8265645126794 123.41608488509436 L 1305.5925548102543 123.39527878123452 L 1305.3590170567832 123.37341588322253 L 1305.125974605846 123.35049837732997 L 1304.8934507614945 123.32652855528833 L 1304.6614687759186 123.30150881405986 L 1304.4300518471239 123.2754416555978 L 1304.1992231166105 123.24832968659628 L 1303.9690056670588 123.22017561822963 L 1303.7394225200223 123.1909822658812 L 1303.5104966336241 123.16075254886192 L 1303.2822509002622 123.12948949011827 L 1303.0547081443194 123.0971962159301 L 1302.8278911198822 123.06387595559791 L 1302.6018225084636 123.02953204111996 L 1302.3765249167366 122.99416790685909 L 1302.1520208742727 122.95778708919923 L 1301.9283328312888 122.92039322619186 L 1301.7054831564028 122.88199005719211 L 1301.4834941343968 122.84258142248487 L 1301.2623879639875 122.80217126290077 L 1301.0421867556083 122.7607636194221 L 1300.822912529196 122.71836263277869 L 1300.6045872119907 122.67497254303389 L 1300.3872326363426 122.63059768916051 L 1300.1708705375274 122.58524250860694 L 1299.955522551575 122.53891153685346 L 1299.7412102131048 122.49160940695863 L 1299.5279549531717 122.44334084909602 L 1299.3157780971242 122.39411069008119 L 1299.104700862471 122.34392385288903 L 1298.8947443567597 122.29278535616142 L 1298.6859295754657 122.24070031370543 L 1298.4782773998934 122.1876739339819 L 1298.2718085950871 122.1337115195846 L 1298.0665438077556 122.07881846671 L 1297.862503564206 122.02300026461768 L 1297.6597082682931 121.96626249508128 L 1297.4581781993775 121.90861083183052 L 1297.2579335102976 121.85005103998367 L 1297.0589942253562 121.7905889754711 L 1296.8613802383154 121.73023058444971 L 1296.6651113104094 121.66898190270831 L 1296.4702070683677 121.60684905506405 L 1296.2766870024516 121.54383825474989 L 1296.084570464507 121.47995580279337 L 1295.8938766660272 121.41520808738645 L 1295.7046246762332 121.3496015832467 L 1295.5168334201662 121.28314285096988 L 1295.3305216767956 121.21583853637382 L 1295.1457080771402 121.14769536983391 L 1294.9624111024061 121.07872016561001 L 1294.7806490821379 121.00891982116505 L 1294.6004401923863 120.93830131647532 L 1294.42180245389 120.86687171333244 L 1294.2447537302742 120.79463815463721 L 1294.0693117262633 120.72160786368529 L 1293.8954939859118 120.64778814344493 L 1293.7233178908489 120.57318637582662 L 1293.5528006585407 120.49781002094497 L 1293.383959340568 120.42166661637263 L 1293.216810820922 120.34476377638664 L 1293.0513718143156 120.2671091912069 L 1292.8876588645116 120.1887106262272 L 1292.7256883426683 120.10957592123873 L 1292.5654764457029 120.02971298964601 L 1292.4070391946718 119.9491298176757 L 1292.2503924331681 119.8678344635778 L 1292.0955518257372 119.78583505681998 L 1291.942532856311 119.70313979727459 L 1291.7913508266586 119.61975695439867 L 1291.6420208548573 119.53569486640703 L 1291.4945578737797 119.45096193943841 L 1291.3489766296013 119.36556664671491 L 1291.2052916803248 119.27951752769461 L 1291.0635173943256 119.19282318721774 L 1290.923667948914 119.10549229464607 L 1290.7857573289184 119.01753358299611 L 1290.6497993252854 118.92895584806571 L 1290.5158075337024 118.83976794755455 L 1290.3837953532366 118.74997880017835 L 1290.2537759849963 118.65959738477704 L 1290.1257624308098 118.56863273941686 L 1289.999767491926 118.47709396048649 L 1289.8758037677335 118.38499020178757 L 1289.7538836545018 118.29233067361923 L 1289.6340193441404 118.19912464185705 L 1289.5162228229804 118.10538142702656 L 1289.400505870576 118.01111040337108 L 1289.2868800585259 117.91632099791445 L 1289.1753567493163 117.82102268951823 L 1289.0659470951857 117.72522500793383 L 1288.958662037008 117.62893753284956 L 1288.8535123031998 117.53216989293273 L 1288.7505084086467 117.43493176486666 L 1288.6496606536525 117.33723287238314 L 1288.5509791229083 117.23908298529 L 1288.4544736844855 117.14049191849415 L 1288.3601539888468 117.04146953102013 L 1288.268029467884 116.94202572502415 L 1288.1781093339719 116.84217044480394 L 1288.0904025790487 116.74191367580433 L 1288.0049179737175 116.64126544361865 L 1287.9216640663672 116.54023581298625 L 1287.8406491823193 116.43883488678601 L 1287.7618814229945 116.33707280502605 L 1287.6853686651032 116.23495974382973 L 1287.6111185598575 116.1325059144181 L 1287.5391385322057 116.02972156208871 L 1287.469435780091 115.92661696519113 L 1287.4020172737305 115.82320243409914 L 1287.3368897549185 115.71948831017968 L 1287.2740597363527 115.61548496475869 L 1287.2135335009825 115.51120279808407 L 1287.1553171013811 115.40665223828556 L 1287.0994163591397 115.30184374033203 L 1287.0458368642862 115.19678778498594 L 1286.9945839747256 115.09149487775527 L 1286.9456628157036 114.98597554784298 L 1286.899078279296 114.88024034709416 L 1286.8548350239168 114.77429984894077 L 1286.8129374738555 114.66816464734433 L 1286.7733898188317 114.56184535573654 L 1286.7361960135781 114.455352605958 L 1286.7013597774442 114.3486970471949 L 1286.6688845940246 114.24188934491428 L 1286.6387737108105 114.13494017979733 L 1286.6110301388653 114.02786024667145 L 1286.5856566525229 113.92066025344073 L 1286.562655789111 113.81335092001514 L 1286.5420298486965 113.7059429772386 L 1286.5237808938564 113.5984471658159 L 1286.507910749471 113.49087423523858 L 1286.4944210025415 113.38323494271008 L 1286.4833130020313 113.27554005206993 L 1286.4745878587312 113.16780033271746 L 1286.4682464451482 113.06002655853482 L 1286.4642893954185 112.95222950680962 L 1286.4627171052439 112.84441995715719" stroke-miterlimit="10" stroke-width="2.7769845610000004" stroke-dasharray=""/></g><g><text fill="black" stroke="none" font-family="sans-serif" font-size="11pt" font-style="normal" font-weight="normal" text-decoration="normal" x="1278.9341387294216" y="141.136156512" text-anchor="start" dominant-baseline="alphabetic" xml:space="preserve">Database</text></g></g><g><path fill="white" stroke="black" paint-order="fill stroke markers" d=" M 315.8806024911458 199.942888392 L 332.2158057911458 199.942888392 L 332.2158057911458 1807.3268931119997 L 315.8806024911458 1807.3268931119997 L 315.8806024911458 199.942888392" stroke-miterlimit="10" stroke-width="1.3612669416666667" stroke-dasharray=""/><path fill="white" stroke="black" paint-order="fill stroke markers" d=" M 552.204311181315 340.42563677199996 L 568.5395144813151 340.42563677199996 L 568.5395144813151 386.16420601199997 L 552.204311181315 386.16420601199997 L 552.204311181315 340.42563677199996" stroke-miterlimit="10" stroke-width="1.3612669416666667" stroke-dasharray=""/><path fill="white" stroke="black" paint-order="fill stroke markers" d=" M 711.7370600230793 556.050320332 L 728.0722633230794 556.050320332 L 728.0722633230794 1761.5883238719996 L 711.7370600230793 1761.5883238719996 L 711.7370600230793 556.050320332" stroke-miterlimit="10" stroke-width="1.3612669416666667" stroke-dasharray=""/><path fill="white" stroke="black" paint-order="fill stroke markers" d=" M 883.2720867939125 601.7888895719999 L 899.6072900939126 601.7888895719999 L 899.6072900939126 739.0045972919997 L 883.2720867939125 739.0045972919997 L 883.2720867939125 601.7888895719999" stroke-miterlimit="10" stroke-width="1.3612669416666667" stroke-dasharray=""/><path fill="white" stroke="black" paint-order="fill stroke markers" d=" M 1302.1444820257107 647.5274588119998 L 1318.4796853257108 647.5274588119998 L 1318.4796853257108 693.2660280519998 L 1302.1444820257107 693.2660280519998 L 1302.1444820257107 647.5274588119998" stroke-miterlimit="10" stroke-width="1.3612669416666667" stroke-dasharray=""/><path fill="white" stroke="black" paint-order="fill stroke markers" d=" M 1002.2665266528618 784.7431665319997 L 1018.6017299528619 784.7431665319997 L 1018.6017299528619 921.9588742519995 L 1002.2665266528618 921.9588742519995 L 1002.2665266528618 784.7431665319997" stroke-miterlimit="10" stroke-width="1.3612669416666667" stroke-dasharray=""/><path fill="white" stroke="black" paint-order="fill stroke markers" d=" M 1302.1444820257107 830.4817357719996 L 1318.4796853257108 830.4817357719996 L 1318.4796853257108 876.2203050119996 L 1302.1444820257107 876.2203050119996 L 1302.1444820257107 830.4817357719996" stroke-miterlimit="10" stroke-width="1.3612669416666667" stroke-dasharray=""/><path fill="white" stroke="black" paint-order="fill stroke markers" d=" M 1137.9681884966742 967.6974434919995 L 1154.3033917966743 967.6974434919995 L 1154.3033917966743 1121.2483545119994 L 1137.9681884966742 1121.2483545119994 L 1137.9681884966742 967.6974434919995" stroke-miterlimit="10" stroke-width="1.3612669416666667" stroke-dasharray=""/><path fill="white" stroke="black" paint-order="fill stroke markers" d=" M 1302.1444820257107 1013.4360127319994 L 1318.4796853257108 1013.4360127319994 L 1318.4796853257108 1075.5097852719994 L 1302.1444820257107 1075.5097852719994 L 1302.1444820257107 1013.4360127319994" stroke-miterlimit="10" stroke-width="1.3612669416666667" stroke-dasharray=""/><path fill="white" stroke="black" paint-order="fill stroke markers" d=" M 719.9046616730793 1253.5635012419993 L 736.2398649730794 1253.5635012419993 L 736.2398649730794 1299.3020704819994 L 719.9046616730793 1299.3020704819994 L 719.9046616730793 1253.5635012419993" stroke-miterlimit="10" stroke-width="1.3612669416666667" stroke-dasharray=""/><path fill="white" stroke="black" paint-order="fill stroke markers" d=" M 1137.9681884966742 1545.9636403119996 L 1154.3033917966743 1545.9636403119996 L 1154.3033917966743 1699.5145513319997 L 1137.9681884966742 1699.5145513319997 L 1137.9681884966742 1545.9636403119996" stroke-miterlimit="10" stroke-width="1.3612669416666667" stroke-dasharray=""/><path fill="white" stroke="black" paint-order="fill stroke markers" d=" M 1302.1444820257107 1591.7022095519997 L 1318.4796853257108 1591.7022095519997 L 1318.4796853257108 1653.7759820919996 L 1302.1444820257107 1653.7759820919996 L 1302.1444820257107 1591.7022095519997" stroke-miterlimit="10" stroke-width="1.3612669416666667" stroke-dasharray=""/><g><g><rect fill="white" stroke="none" x="98.9443319353385" y="178.707124102" width="191.50035347046875" height="21.23576429"/></g><text fill="black" stroke="none" font-family="sans-serif" font-size="11pt" font-style="normal" font-weight="normal" text-decoration="normal" x="101.3946124303385" y="193.40880707199997" text-anchor="start" dominant-baseline="alphabetic" xml:space="preserve">Go to Curriculum detail page</text></g><g><path fill="none" stroke="black" paint-order="fill stroke markers" d=" M 73.50841485 199.942888392 L 302.43128510747914 199.942888392" stroke-miterlimit="10" stroke-width="1.3612669416666667" stroke-dasharray=""/><g transform="translate(315.8806024911458,199.942888392) translate(-315.8806024911458,-199.942888392)"><path fill="black" stroke="none" paint-order="stroke fill markers" d=" M 302.2679330744791 193.13655368366665 L 315.8806024911458 199.942888392 L 302.2679330744791 206.74922310033332 Z"/></g></g><g><g><rect fill="white" stroke="none" x="114.43109493582678" y="224.44569334199997" width="101.035082474375" height="21.23576429"/></g><g><rect fill="white" stroke="none" x="114.43109493582678" y="240.78089664199996" width="160.5268274694922" height="21.23576429"/></g><text fill="black" stroke="none" font-family="sans-serif" font-size="11pt" font-style="normal" font-weight="normal" text-decoration="normal" x="116.88137543082678" y="239.14737631199995" text-anchor="start" dominant-baseline="alphabetic" xml:space="preserve">Click Edit icon </text><text fill="black" stroke="none" font-family="sans-serif" font-size="11pt" font-style="normal" font-weight="normal" text-decoration="normal" x="116.88137543082678" y="255.48257961199994" text-anchor="start" dominant-baseline="alphabetic" xml:space="preserve">in table Curriculum Plan</text></g><g><path fill="none" stroke="black" paint-order="fill stroke markers" d=" M 73.50841485 262.016660932 L 302.43128510747914 262.016660932" stroke-miterlimit="10" stroke-width="1.3612669416666667" stroke-dasharray=""/><g transform="translate(315.8806024911458,262.016660932) translate(-315.8806024911458,-262.016660932)"><path fill="black" stroke="none" paint-order="stroke fill markers" d=" M 302.2679330744791 255.21032622366664 L 315.8806024911458 262.016660932 L 302.2679330744791 268.8229956403333 Z"/></g></g><g><g><rect fill="white" stroke="none" x="351.54579636281244" y="286.51946588199996" width="35.03657783570313" height="21.23576429"/></g><g><rect fill="white" stroke="none" x="351.54579636281244" y="302.85466918199995" width="181.32852424683594" height="21.23576429"/></g><g><rect fill="white" stroke="none" x="351.54579636281244" y="319.18987248199994" width="127.9570795446875" height="21.23576429"/></g><text fill="black" stroke="none" font-family="sans-serif" font-size="11pt" font-style="normal" font-weight="normal" text-decoration="normal" x="353.99607685781245" y="301.22114885199994" text-anchor="start" dominant-baseline="alphabetic" xml:space="preserve">GET</text><text fill="black" stroke="none" font-family="sans-serif" font-size="11pt" font-style="normal" font-weight="normal" text-decoration="normal" x="353.99607685781245" y="317.55635215199993" text-anchor="start" dominant-baseline="alphabetic" xml:space="preserve">/api/search?entity=syllabus</text><text fill="black" stroke="none" font-family="sans-serif" font-size="11pt" font-style="normal" font-weight="normal" text-decoration="normal" x="353.99607685781245" y="333.8915554519999" text-anchor="start" dominant-baseline="alphabetic" xml:space="preserve">&amp;{paramToSearch}</text></g><g><path fill="none" stroke="black" paint-order="fill stroke markers" d=" M 332.2158057911458 340.42563677199996 L 538.7549937976484 340.42563677199996" stroke-miterlimit="10" stroke-width="1.3612669416666667" stroke-dasharray=""/><g transform="translate(552.204311181315,340.42563677199996) translate(-552.204311181315,-340.42563677199996)"><path fill="black" stroke="none" paint-order="stroke fill markers" d=" M 538.5916417646483 333.6193020636666 L 552.204311181315 340.42563677199996 L 538.5916417646483 347.2319714803333 Z"/></g></g><g><g><rect fill="white" stroke="none" x="395.7512101811718" y="364.92844172199995" width="92.91769661011719" height="21.23576429"/></g><text fill="black" stroke="none" font-family="sans-serif" font-size="11pt" font-style="normal" font-weight="normal" text-decoration="normal" x="398.20149067617183" y="379.6301246919999" text-anchor="start" dominant-baseline="alphabetic" xml:space="preserve">Syllabus data</text></g><g><path fill="none" stroke="black" paint-order="fill stroke markers" d=" M 552.204311181315 386.16420601199997 L 345.66512317481244 386.16420601199997" stroke-miterlimit="10" stroke-width="1.3612669416666667" stroke-dasharray="6.53408132"/><g transform="translate(332.2158057911458,386.16420601199997) translate(-332.2158057911458,-386.16420601199997)"><path fill="black" stroke="none" paint-order="stroke fill markers" d=" M 345.82847520781246 379.3578713036666 L 332.2158057911458 386.16420601199997 L 345.82847520781246 392.9705407203333 Z"/></g></g><g><g><rect fill="white" stroke="none" x="121.76466732352209" y="410.66701096199995" width="145.85968269410156" height="21.23576429"/></g><g><rect fill="white" stroke="none" x="121.76466732352209" y="427.00221426199994" width="136.08876289429688" height="21.23576429"/></g><text fill="black" stroke="none" font-family="sans-serif" font-size="11pt" font-style="normal" font-weight="normal" text-decoration="normal" x="124.21494781852209" y="425.3686939319999" text-anchor="start" dominant-baseline="alphabetic" xml:space="preserve">Display Edit Syllabus </text><text fill="black" stroke="none" font-family="sans-serif" font-size="11pt" font-style="normal" font-weight="normal" text-decoration="normal" x="124.21494781852209" y="441.7038972319999" text-anchor="start" dominant-baseline="alphabetic" xml:space="preserve">in Curriculum popup</text></g><g><path fill="none" stroke="black" paint-order="fill stroke markers" d=" M 315.8806024911458 448.23797855199996 L 86.95773223366666 448.23797855199996" stroke-miterlimit="10" stroke-width="1.3612669416666667" stroke-dasharray="6.53408132"/><g transform="translate(73.50841485,448.23797855199996) translate(-73.50841485,-448.23797855199996)"><path fill="black" stroke="none" paint-order="stroke fill markers" d=" M 87.12108426666666 441.4316438436666 L 73.50841485 448.23797855199996 L 87.12108426666666 455.0443132603333 Z"/></g></g><g><g><rect fill="white" stroke="none" x="132.35161953299476" y="472.74078350199994" width="124.68577827515625" height="21.23576429"/></g><g><rect fill="white" stroke="none" x="132.35161953299476" y="489.07598680199993" width="99.42448677125" height="21.23576429"/></g><text fill="black" stroke="none" font-family="sans-serif" font-size="11pt" font-style="normal" font-weight="normal" text-decoration="normal" x="134.80190002799475" y="487.4424664719999" text-anchor="start" dominant-baseline="alphabetic" xml:space="preserve">Change semester </text><text fill="black" stroke="none" font-family="sans-serif" font-size="11pt" font-style="normal" font-weight="normal" text-decoration="normal" x="134.80190002799475" y="503.7776697719999" text-anchor="start" dominant-baseline="alphabetic" xml:space="preserve">and click Save</text></g><g><path fill="none" stroke="black" paint-order="fill stroke markers" d=" M 73.50841485 510.31175109199995 L 302.43128510747914 510.31175109199995" stroke-miterlimit="10" stroke-width="1.3612669416666667" stroke-dasharray=""/><g transform="translate(315.8806024911458,510.31175109199995) translate(-315.8806024911458,-510.31175109199995)"><path fill="black" stroke="none" paint-order="stroke fill markers" d=" M 302.2679330744791 503.5054163836666 L 315.8806024911458 510.31175109199995 L 302.2679330744791 517.1180858003332 Z"/></g></g><g><g><rect fill="white" stroke="none" x="414.82684210937816" y="534.8145560419999" width="214.29918159546875" height="21.23576429"/></g><text fill="black" stroke="none" font-family="sans-serif" font-size="11pt" font-style="normal" font-weight="normal" text-decoration="normal" x="417.2771226043782" y="549.5162390119999" text-anchor="start" dominant-baseline="alphabetic" xml:space="preserve">PUT:/api/curriculum/{id}/syllabus</text></g><g><path fill="none" stroke="black" paint-order="fill stroke markers" d=" M 332.2158057911458 556.050320332 L 698.2877426394126 556.050320332" stroke-miterlimit="10" stroke-width="1.3612669416666667" stroke-dasharray=""/><g transform="translate(711.7370600230793,556.050320332) translate(-711.7370600230793,-556.050320332)"><path fill="black" stroke="none" paint-order="stroke fill markers" d=" M 698.1243906064126 549.2439856236666 L 711.7370600230793 556.050320332 L 698.1243906064126 562.8566550403333 Z"/></g></g><g><g><rect fill="white" stroke="none" x="782.4452450883982" y="580.5531252819999" width="46.453859940195315" height="21.23576429"/></g><text fill="black" stroke="none" font-family="sans-serif" font-size="11pt" font-style="normal" font-weight="normal" text-decoration="normal" x="784.8955255833982" y="595.2548082519999" text-anchor="start" dominant-baseline="alphabetic" xml:space="preserve">get(id)</text></g><g><path fill="none" stroke="black" paint-order="fill stroke markers" d=" M 728.0722633230794 601.7888895719999 L 869.8227694102459 601.7888895719999" stroke-miterlimit="10" stroke-width="1.3612669416666667" stroke-dasharray=""/><g transform="translate(883.2720867939125,601.7888895719999) translate(-883.2720867939125,-601.7888895719999)"><path fill="black" stroke="none" paint-order="stroke fill markers" d=" M 869.6594173772459 594.9825548636666 L 883.2720867939125 601.7888895719999 L 869.6594173772459 608.5952242803332 Z"/></g></g><g><g><rect fill="white" stroke="none" x="1077.648956089714" y="626.2916945219998" width="46.453859940195315" height="21.23576429"/></g><text fill="black" stroke="none" font-family="sans-serif" font-size="11pt" font-style="normal" font-weight="normal" text-decoration="normal" x="1080.099236584714" y="640.9933774919998" text-anchor="start" dominant-baseline="alphabetic" xml:space="preserve">get(id)</text></g><g><path fill="none" stroke="black" paint-order="fill stroke markers" d=" M 899.6072900939126 647.5274588119998 L 1288.695164642044 647.5274588119998" stroke-miterlimit="10" stroke-width="1.3612669416666667" stroke-dasharray=""/><g transform="translate(1302.1444820257107,647.5274588119998) translate(-1302.1444820257107,-647.5274588119998)"><path fill="black" stroke="none" paint-order="stroke fill markers" d=" M 1288.531812609044 640.7211241036665 L 1302.1444820257107 647.5274588119998 L 1288.531812609044 654.3337935203332 Z"/></g></g><g><g><rect fill="white" stroke="none" x="1046.6897657210616" y="672.0302637619998" width="108.3722406775" height="21.23576429"/></g><text fill="black" stroke="none" font-family="sans-serif" font-size="11pt" font-style="normal" font-weight="normal" text-decoration="normal" x="1049.1400462160616" y="686.7319467319998" text-anchor="start" dominant-baseline="alphabetic" xml:space="preserve">Curriculum data</text></g><g><path fill="none" stroke="black" paint-order="fill stroke markers" d=" M 1302.1444820257107 693.2660280519998 L 913.0566074775793 693.2660280519998" stroke-miterlimit="10" stroke-width="1.3612669416666667" stroke-dasharray="6.53408132"/><g transform="translate(899.6072900939126,693.2660280519998) translate(-899.6072900939126,-693.2660280519998)"><path fill="black" stroke="none" paint-order="stroke fill markers" d=" M 913.2199595105793 686.4596933436665 L 899.6072900939126 693.2660280519998 L 913.2199595105793 700.0723627603331 Z"/></g></g><g><g><rect fill="white" stroke="none" x="751.4860547197459" y="717.7688330019997" width="108.3722406775" height="21.23576429"/></g><text fill="black" stroke="none" font-family="sans-serif" font-size="11pt" font-style="normal" font-weight="normal" text-decoration="normal" x="753.9363352147459" y="732.4705159719997" text-anchor="start" dominant-baseline="alphabetic" xml:space="preserve">Curriculum data</text></g><g><path fill="none" stroke="black" paint-order="fill stroke markers" d=" M 883.2720867939125 739.0045972919997 L 741.521580706746 739.0045972919997" stroke-miterlimit="10" stroke-width="1.3612669416666667" stroke-dasharray="6.53408132"/><g transform="translate(728.0722633230794,739.0045972919997) translate(-728.0722633230794,-739.0045972919997)"><path fill="black" stroke="none" paint-order="stroke fill markers" d=" M 741.684932739746 732.1982625836664 L 728.0722633230794 739.0045972919997 L 741.684932739746 745.8109320003331 Z"/></g></g><g><g><rect fill="white" stroke="none" x="841.9424650178729" y="763.5074022419997" width="46.453859940195315" height="21.23576429"/></g><text fill="black" stroke="none" font-family="sans-serif" font-size="11pt" font-style="normal" font-weight="normal" text-decoration="normal" x="844.3927455128729" y="778.2090852119996" text-anchor="start" dominant-baseline="alphabetic" xml:space="preserve">get(id)</text></g><g><path fill="none" stroke="black" paint-order="fill stroke markers" d=" M 728.0722633230794 784.7431665319997 L 988.8172092691951 784.7431665319997" stroke-miterlimit="10" stroke-width="1.3612669416666667" stroke-dasharray=""/><g transform="translate(1002.2665266528618,784.7431665319997) translate(-1002.2665266528618,-784.7431665319997)"><path fill="black" stroke="none" paint-order="stroke fill markers" d=" M 988.6538572361951 777.9368318236664 L 1002.2665266528618 784.7431665319997 L 988.6538572361951 791.549501240333 Z"/></g></g><g><g><rect fill="white" stroke="none" x="1137.1461760191885" y="809.2459714819996" width="46.453859940195315" height="21.23576429"/></g><text fill="black" stroke="none" font-family="sans-serif" font-size="11pt" font-style="normal" font-weight="normal" text-decoration="normal" x="1139.5964565141885" y="823.9476544519996" text-anchor="start" dominant-baseline="alphabetic" xml:space="preserve">get(id)</text></g><g><path fill="none" stroke="black" paint-order="fill stroke markers" d=" M 1018.6017299528619 830.4817357719996 L 1288.695164642044 830.4817357719996" stroke-miterlimit="10" stroke-width="1.3612669416666667" stroke-dasharray=""/><g transform="translate(1302.1444820257107,830.4817357719996) translate(-1302.1444820257107,-830.4817357719996)"><path fill="black" stroke="none" paint-order="stroke fill markers" d=" M 1288.531812609044 823.6754010636663 L 1302.1444820257107 830.4817357719996 L 1288.531812609044 837.288070480333 Z"/></g></g><g><g><rect fill="white" stroke="none" x="1113.9142576842276" y="854.9845407219996" width="92.91769661011719" height="21.23576429"/></g><text fill="black" stroke="none" font-family="sans-serif" font-size="11pt" font-style="normal" font-weight="normal" text-decoration="normal" x="1116.3645381792276" y="869.6862236919995" text-anchor="start" dominant-baseline="alphabetic" xml:space="preserve">Syllabus data</text></g><g><path fill="none" stroke="black" paint-order="fill stroke markers" d=" M 1302.1444820257107 876.2203050119996 L 1032.0510473365287 876.2203050119996" stroke-miterlimit="10" stroke-width="1.3612669416666667" stroke-dasharray="6.53408132"/><g transform="translate(1018.6017299528619,876.2203050119996) translate(-1018.6017299528619,-876.2203050119996)"><path fill="black" stroke="none" paint-order="stroke fill markers" d=" M 1032.2143993695286 869.4139703036662 L 1018.6017299528619 876.2203050119996 L 1032.2143993695286 883.0266397203329 Z"/></g></g><g><g><rect fill="white" stroke="none" x="818.710546682912" y="900.7231099619995" width="92.91769661011719" height="21.23576429"/></g><text fill="black" stroke="none" font-family="sans-serif" font-size="11pt" font-style="normal" font-weight="normal" text-decoration="normal" x="821.160827177912" y="915.4247929319995" text-anchor="start" dominant-baseline="alphabetic" xml:space="preserve">Syllabus data</text></g><g><path fill="none" stroke="black" paint-order="fill stroke markers" d=" M 1002.2665266528618 921.9588742519995 L 741.521580706746 921.9588742519995" stroke-miterlimit="10" stroke-width="1.3612669416666667" stroke-dasharray="6.53408132"/><g transform="translate(728.0722633230794,921.9588742519995) translate(-728.0722633230794,-921.9588742519995)"><path fill="black" stroke="none" paint-order="stroke fill markers" d=" M 741.684932739746 915.1525395436662 L 728.0722633230794 921.9588742519995 L 741.684932739746 928.7652089603329 Z"/></g></g><g><g><rect fill="white" stroke="none" x="838.9128790696619" y="946.4616792019995" width="188.2146936804297" height="21.23576429"/></g><text fill="black" stroke="none" font-family="sans-serif" font-size="11pt" font-style="normal" font-weight="normal" text-decoration="normal" x="841.3631595646619" y="961.1633621719994" text-anchor="start" dominant-baseline="alphabetic" xml:space="preserve">get(curriculumId, syllabusId)</text></g><g><path fill="none" stroke="black" paint-order="fill stroke markers" d=" M 728.0722633230794 967.6974434919995 L 1124.5188711130074 967.6974434919995" stroke-miterlimit="10" stroke-width="1.3612669416666667" stroke-dasharray=""/><g transform="translate(1137.9681884966742,967.6974434919995) translate(-1137.9681884966742,-967.6974434919995)"><path fill="black" stroke="none" paint-order="stroke fill markers" d=" M 1124.3555190800075 960.8911087836661 L 1137.9681884966742 967.6974434919995 L 1124.3555190800075 974.5037782003328 Z"/></g></g><g><g><rect fill="white" stroke="none" x="1210.702085066095" y="992.2002484419994" width="35.043703690195315" height="21.23576429"/></g><text fill="black" stroke="none" font-family="sans-serif" font-size="11pt" font-style="normal" font-weight="normal" text-decoration="normal" x="1213.152365561095" y="1006.9019314119994" text-anchor="start" dominant-baseline="alphabetic" xml:space="preserve">get()</text></g><g><path fill="none" stroke="black" paint-order="fill stroke markers" d=" M 1154.3033917966743 1013.4360127319994 L 1288.695164642044 1013.4360127319994" stroke-miterlimit="10" stroke-width="1.3612669416666667" stroke-dasharray=""/><g transform="translate(1302.1444820257107,1013.4360127319994) translate(-1302.1444820257107,-1013.4360127319994)"><path fill="black" stroke="none" paint-order="stroke fill markers" d=" M 1288.531812609044 1006.6296780236661 L 1302.1444820257107 1013.4360127319994 L 1288.531812609044 1020.2423474403328 Z"/></g></g><g><g><rect fill="white" stroke="none" x="1173.633382368341" y="1037.9388176819994" width="109.18110908570313" height="21.23576429"/></g><g><rect fill="white" stroke="none" x="1173.633382368341" y="1054.2740209819995" width="33.43312324585938" height="21.23576429"/></g><text fill="black" stroke="none" font-family="sans-serif" font-size="11pt" font-style="normal" font-weight="normal" text-decoration="normal" x="1176.083662863341" y="1052.6405006519994" text-anchor="start" dominant-baseline="alphabetic" xml:space="preserve">Curriculum Plan</text><text fill="black" stroke="none" font-family="sans-serif" font-size="11pt" font-style="normal" font-weight="normal" text-decoration="normal" x="1176.083662863341" y="1068.9757039519995" text-anchor="start" dominant-baseline="alphabetic" xml:space="preserve">data</text></g><g><path fill="none" stroke="black" paint-order="fill stroke markers" d=" M 1302.1444820257107 1075.5097852719994 L 1167.752709180341 1075.5097852719994" stroke-miterlimit="10" stroke-width="1.3612669416666667" stroke-dasharray="6.53408132"/><g transform="translate(1154.3033917966743,1075.5097852719994) translate(-1154.3033917966743,-1075.5097852719994)"><path fill="black" stroke="none" paint-order="stroke fill markers" d=" M 1167.916061213341 1068.7034505636661 L 1154.3033917966743 1075.5097852719994 L 1167.916061213341 1082.3161199803326 Z"/></g></g><g><g><rect fill="white" stroke="none" x="862.1268835862635" y="1100.0125902219995" width="141.78668464722656" height="21.23576429"/></g><text fill="black" stroke="none" font-family="sans-serif" font-size="11pt" font-style="normal" font-weight="normal" text-decoration="normal" x="864.5771640812635" y="1114.7142731919996" text-anchor="start" dominant-baseline="alphabetic" xml:space="preserve">Curriculum Plan data</text></g><g><path fill="none" stroke="black" paint-order="fill stroke markers" d=" M 1137.9681884966742 1121.2483545119994 L 741.521580706746 1121.2483545119994" stroke-miterlimit="10" stroke-width="1.3612669416666667" stroke-dasharray="6.53408132"/><g transform="translate(728.0722633230794,1121.2483545119994) translate(-728.0722633230794,-1121.2483545119994)"><path fill="black" stroke="none" paint-order="stroke fill markers" d=" M 741.684932739746 1114.4420198036662 L 728.0722633230794 1121.2483545119994 L 741.684932739746 1128.0546892203326 Z"/></g></g><g><g><rect fill="white" stroke="none" x="755.569855544746" y="1145.7511594619994" width="50.52688850464844" height="21.23576429"/></g><g><rect fill="white" stroke="none" x="755.569855544746" y="1162.0863627619995" width="83.91269172730469" height="21.23576429"/></g><g><rect fill="white" stroke="none" x="755.569855544746" y="1178.4215660619996" width="64.38513435425781" height="21.23576429"/></g><g><rect fill="white" stroke="none" x="755.569855544746" y="1194.7567693619997" width="113.25412239136719" height="21.23576429"/></g><g><rect fill="white" stroke="none" x="755.569855544746" y="1211.0919726619998" width="66.79744209351563" height="21.23576429"/></g><text fill="black" stroke="none" font-family="sans-serif" font-size="11pt" font-style="normal" font-weight="normal" text-decoration="normal" x="758.020136039746" y="1160.4528424319994" text-anchor="start" dominant-baseline="alphabetic" xml:space="preserve">Check </text><text fill="black" stroke="none" font-family="sans-serif" font-size="11pt" font-style="normal" font-weight="normal" text-decoration="normal" x="758.020136039746" y="1176.7880457319995" text-anchor="start" dominant-baseline="alphabetic" xml:space="preserve">Curriculum, </text><text fill="black" stroke="none" font-family="sans-serif" font-size="11pt" font-style="normal" font-weight="normal" text-decoration="normal" x="758.020136039746" y="1193.1232490319996" text-anchor="start" dominant-baseline="alphabetic" xml:space="preserve">Syllabus,</text><text fill="black" stroke="none" font-family="sans-serif" font-size="11pt" font-style="normal" font-weight="normal" text-decoration="normal" x="758.020136039746" y="1209.4584523319998" text-anchor="start" dominant-baseline="alphabetic" xml:space="preserve">Curriculum Plan </text><text fill="black" stroke="none" font-family="sans-serif" font-size="11pt" font-style="normal" font-weight="normal" text-decoration="normal" x="758.020136039746" y="1225.7936556319999" text-anchor="start" dominant-baseline="alphabetic" xml:space="preserve">isEmpty()</text></g><g><path fill="none" stroke="black" paint-order="fill stroke markers" d=" M 728.0722633230794 1232.3277369519994 L 801.5806781730793 1232.3277369519994 L 801.5806781730793 1253.5635012419993 L 749.689182356746 1253.5635012419993" stroke-miterlimit="10" stroke-width="1.3612669416666667" stroke-dasharray=""/><g transform="translate(736.2398649730793,1253.5635012419993) translate(-736.2398649730793,-1253.5635012419993)"><path fill="black" stroke="none" paint-order="stroke fill markers" d=" M 749.852534389746 1246.7571665336661 L 736.2398649730793 1253.5635012419993 L 749.852534389746 1260.3698359503326 Z"/></g></g><g><g><rect fill="white" stroke="none" x="755.569855544746" y="1278.0663061919993" width="97.82106269898438" height="21.23576429"/></g><text fill="black" stroke="none" font-family="sans-serif" font-size="11pt" font-style="normal" font-weight="normal" text-decoration="normal" x="758.020136039746" y="1292.7679891619994" text-anchor="start" dominant-baseline="alphabetic" xml:space="preserve">Boolean value</text></g><g><path fill="none" stroke="black" paint-order="fill stroke markers" d=" M 736.2398649730793 1299.3020704819994 L 801.5806781730793 1299.3020704819994 L 801.5806781730793 1320.5378347719993 L 741.5215807067459 1320.5378347719993" stroke-miterlimit="10" stroke-width="1.3612669416666667" stroke-dasharray="6.53408132"/><g transform="translate(728.0722633230793,1320.5378347719993) translate(-728.0722633230793,-1320.5378347719993)"><path fill="black" stroke="none" paint-order="stroke fill markers" d=" M 741.6849327397459 1313.731500063666 L 728.0722633230793 1320.5378347719993 L 741.6849327397459 1327.3441694803325 Z"/></g></g><g><g><rect fill="white" stroke="none" x="461.69148902099926" y="1389.1456886319995" width="120.56988777222656" height="21.23576429"/></g><text fill="red" stroke="none" font-family="sans-serif" font-size="11pt" font-style="normal" font-weight="normal" text-decoration="normal" x="464.1417695159993" y="1403.8473716019996" text-anchor="start" dominant-baseline="alphabetic" xml:space="preserve">404 NOT FOUND</text></g><g><path fill="none" stroke="black" paint-order="fill stroke markers" d=" M 711.7370600230793 1410.3814529219994 L 345.66512317481244 1410.3814529219994" stroke-miterlimit="10" stroke-width="1.3612669416666667" stroke-dasharray="6.53408132"/><g transform="translate(332.2158057911458,1410.3814529219994) translate(-332.2158057911458,-1410.3814529219994)"><path fill="black" stroke="none" paint-order="stroke fill markers" d=" M 345.82847520781246 1403.5751182136662 L 332.2158057911458 1410.3814529219994 L 345.82847520781246 1417.1877876303327 Z"/></g></g><g><g><rect fill="white" stroke="none" x="93.64368801444006" y="1434.8842578719996" width="202.10164131226563" height="21.23576429"/></g><text fill="black" stroke="none" font-family="sans-serif" font-size="11pt" font-style="normal" font-weight="normal" text-decoration="normal" x="96.09396850944006" y="1449.5859408419997" text-anchor="start" dominant-baseline="alphabetic" xml:space="preserve">Display 404 Not Found screen</text></g><g><path fill="none" stroke="black" paint-order="fill stroke markers" d=" M 315.8806024911458 1456.1200221619995 L 86.95773223366666 1456.1200221619995" stroke-miterlimit="10" stroke-width="1.3612669416666667" stroke-dasharray="6.53408132"/><g transform="translate(73.50841485,1456.1200221619995) translate(-73.50841485,-1456.1200221619995)"><path fill="black" stroke="none" paint-order="stroke fill markers" d=" M 87.12108426666666 1449.3136874536663 L 73.50841485 1456.1200221619995 L 87.12108426666666 1462.9263568703327 Z"/></g></g><g><g><rect fill="white" stroke="none" x="910.2048941453455" y="1524.7278760219997" width="45.6306635290625" height="21.23576429"/></g><text fill="black" stroke="none" font-family="sans-serif" font-size="11pt" font-style="normal" font-weight="normal" text-decoration="normal" x="912.6551746403455" y="1539.4295589919998" text-anchor="start" dominant-baseline="alphabetic" xml:space="preserve">save()</text></g><g><path fill="none" stroke="black" paint-order="fill stroke markers" d=" M 728.0722633230794 1545.9636403119996 L 1124.5188711130074 1545.9636403119996" stroke-miterlimit="10" stroke-width="1.3612669416666667" stroke-dasharray=""/><g transform="translate(1137.9681884966742,1545.9636403119996) translate(-1137.9681884966742,-1545.9636403119996)"><path fill="black" stroke="none" paint-order="stroke fill markers" d=" M 1124.3555190800075 1539.1573056036664 L 1137.9681884966742 1545.9636403119996 L 1124.3555190800075 1552.7699750203328 Z"/></g></g><g><g><rect fill="white" stroke="none" x="1205.4086051466613" y="1570.4664452619998" width="45.6306635290625" height="21.23576429"/></g><text fill="black" stroke="none" font-family="sans-serif" font-size="11pt" font-style="normal" font-weight="normal" text-decoration="normal" x="1207.8588856416613" y="1585.1681282319998" text-anchor="start" dominant-baseline="alphabetic" xml:space="preserve">save()</text></g><g><path fill="none" stroke="black" paint-order="fill stroke markers" d=" M 1154.3033917966743 1591.7022095519997 L 1288.695164642044 1591.7022095519997" stroke-miterlimit="10" stroke-width="1.3612669416666667" stroke-dasharray=""/><g transform="translate(1302.1444820257107,1591.7022095519997) translate(-1302.1444820257107,-1591.7022095519997)"><path fill="black" stroke="none" paint-order="stroke fill markers" d=" M 1288.531812609044 1584.8958748436664 L 1302.1444820257107 1591.7022095519997 L 1288.531812609044 1598.5085442603329 Z"/></g></g><g><g><rect fill="white" stroke="none" x="1173.633382368341" y="1616.2050145019996" width="109.18110908570313" height="21.23576429"/></g><g><rect fill="white" stroke="none" x="1173.633382368341" y="1632.5402178019997" width="33.43312324585938" height="21.23576429"/></g><text fill="black" stroke="none" font-family="sans-serif" font-size="11pt" font-style="normal" font-weight="normal" text-decoration="normal" x="1176.083662863341" y="1630.9066974719997" text-anchor="start" dominant-baseline="alphabetic" xml:space="preserve">Curriculum Plan</text><text fill="black" stroke="none" font-family="sans-serif" font-size="11pt" font-style="normal" font-weight="normal" text-decoration="normal" x="1176.083662863341" y="1647.2419007719998" text-anchor="start" dominant-baseline="alphabetic" xml:space="preserve">data</text></g><g><path fill="none" stroke="black" paint-order="fill stroke markers" d=" M 1302.1444820257107 1653.7759820919996 L 1167.752709180341 1653.7759820919996" stroke-miterlimit="10" stroke-width="1.3612669416666667" stroke-dasharray="6.53408132"/><g transform="translate(1154.3033917966743,1653.7759820919996) translate(-1154.3033917966743,-1653.7759820919996)"><path fill="black" stroke="none" paint-order="stroke fill markers" d=" M 1167.916061213341 1646.9696473836664 L 1154.3033917966743 1653.7759820919996 L 1167.916061213341 1660.5823168003328 Z"/></g></g><g><g><rect fill="white" stroke="none" x="862.1268835862635" y="1678.2787870419997" width="141.78668464722656" height="21.23576429"/></g><text fill="black" stroke="none" font-family="sans-serif" font-size="11pt" font-style="normal" font-weight="normal" text-decoration="normal" x="864.5771640812635" y="1692.9804700119998" text-anchor="start" dominant-baseline="alphabetic" xml:space="preserve">Curriculum Plan data</text></g><g><path fill="none" stroke="black" paint-order="fill stroke markers" d=" M 1137.9681884966742 1699.5145513319997 L 741.521580706746 1699.5145513319997" stroke-miterlimit="10" stroke-width="1.3612669416666667" stroke-dasharray="6.53408132"/><g transform="translate(728.0722633230794,1699.5145513319997) translate(-728.0722633230794,-1699.5145513319997)"><path fill="black" stroke="none" paint-order="stroke fill markers" d=" M 741.684932739746 1692.7082166236664 L 728.0722633230794 1699.5145513319997 L 741.684932739746 1706.3208860403329 Z"/></g></g><g><g><rect fill="white" stroke="none" x="398.1088779370149" y="1724.0173562819996" width="54.61422981324219" height="21.23576429"/></g><g><rect fill="white" stroke="none" x="398.1088779370149" y="1740.3525595819997" width="247.73510994019531" height="21.23576429"/></g><text fill="green" stroke="none" font-family="sans-serif" font-size="11pt" font-style="normal" font-weight="normal" text-decoration="normal" x="400.5591584320149" y="1738.7190392519997" text-anchor="start" dominant-baseline="alphabetic" xml:space="preserve">200 OK</text><text fill="green" stroke="none" font-family="sans-serif" font-size="11pt" font-style="normal" font-weight="normal" text-decoration="normal" x="400.5591584320149" y="1755.0542425519998" text-anchor="start" dominant-baseline="alphabetic" xml:space="preserve">Response body:Curriculum Plan data</text></g><g><path fill="none" stroke="black" paint-order="fill stroke markers" d=" M 711.7370600230793 1761.5883238719996 L 345.66512317481244 1761.5883238719996" stroke-miterlimit="10" stroke-width="1.3612669416666667" stroke-dasharray="6.53408132"/><g transform="translate(332.2158057911458,1761.5883238719996) translate(-332.2158057911458,-1761.5883238719996)"><path fill="black" stroke="none" paint-order="stroke fill markers" d=" M 345.82847520781246 1754.7819891636664 L 332.2158057911458 1761.5883238719996 L 345.82847520781246 1768.3946585803328 Z"/></g></g><g><g><rect fill="white" stroke="none" x="92.83840542166662" y="1786.0911288219997" width="203.7122064978125" height="21.23576429"/></g><text fill="black" stroke="none" font-family="sans-serif" font-size="11pt" font-style="normal" font-weight="normal" text-decoration="normal" x="95.28868591666662" y="1800.7928117919998" text-anchor="start" dominant-baseline="alphabetic" xml:space="preserve">Display Curriculum detail page</text></g><g><path fill="none" stroke="black" paint-order="fill stroke markers" d=" M 315.8806024911458 1807.3268931119997 L 86.95773223366666 1807.3268931119997" stroke-miterlimit="10" stroke-width="1.3612669416666667" stroke-dasharray="6.53408132"/><g transform="translate(73.50841485,1807.3268931119997) translate(-73.50841485,-1807.3268931119997)"><path fill="black" stroke="none" paint-order="stroke fill markers" d=" M 87.12108426666666 1800.5205584036664 L 73.50841485 1807.3268931119997 L 87.12108426666666 1814.1332278203329 Z"/></g></g><g><g/><path fill="none" stroke="black" paint-order="fill stroke markers" d=" M 16.335203299999996 1345.0406397219995 L 1367.4852952257106 1345.0406397219995 L 1367.4852952257106 1831.8296980619996 L 16.335203299999996 1831.8296980619996 L 16.335203299999996 1345.0406397219995 Z" stroke-miterlimit="10" stroke-width="2.3336004714285714" stroke-dasharray=""/><path fill="white" stroke="black" paint-order="fill stroke markers" d=" M 16.335203299999996 1345.0406397219995 L 16.335203299999996 1364.6428836819994 L 62.69440689707031 1364.6428836819994 L 72.49552887707031 1354.8417617019995 L 72.49552887707031 1345.0406397219995 L 16.335203299999996 1345.0406397219995" stroke-miterlimit="10" stroke-width="2.3336004714285714" stroke-dasharray=""/><text fill="black" stroke="none" font-family="sans-serif" font-size="8.8pt" font-style="normal" font-weight="bold" text-decoration="normal" x="32.67040659999999" y="1358.1088023619993" text-anchor="start" dominant-baseline="alphabetic" xml:space="preserve">alt</text><g><rect fill="white" stroke="none" x="86.38045168207032" y="1346.3474559859994" width="298.8488642126562" height="16.988611432000003"/></g><text fill="black" stroke="none" font-family="sans-serif" font-size="8.8pt" font-style="normal" font-weight="bold" text-decoration="normal" x="88.83073217707032" y="1358.1088023619993" text-anchor="start" dominant-baseline="alphabetic" xml:space="preserve">[If Curriculum or Syllabus or Curriculum Plan empty]</text><g><path fill="none" stroke="black" paint-order="fill stroke markers" d=" M 16.335203299999996 1480.6228271119996 L 1367.4852952257106 1480.6228271119996" stroke-miterlimit="10" stroke-width="2.3336004714285714" stroke-dasharray="4.083800825"/></g><g/></g><g/></g></g></svg>