<svg version="1.1" xmlns="http://www.w3.org/2000/svg" xmlns:xlink="http://www.w3.org/1999/xlink" width="1022" height="1166"><desc>%20title%20Create%20Combo%0A%0Aactor%20%23green%3A0.5%20%22Workspace%20Admin%22%20as%20w%0Aboundary%20%22Create%20Combo%20popup%22%20as%20f%0Acontrol%20%22Combo%20Controller%22%20as%20gc%0Aparticipant%20%22Combo%20Service%22%20as%20gs%0Adatabase%20%23blue%3A1%20%22Database%22%20as%20db%0A%0Aw-%3Ef%3AClick%20Create%20Combo%20button%0Aactivate%20f%0Aw%3C--f%3ADisplay%20Create%20Combo%20popup%0Aw-%3Ef%3AType%20information%20of%20Combo%0Af-%3Ef%3AValidate%20input%20data%0Aactivate%20f%0Af--%3Ef%3A%20Validate%20value%0Adeactivate%20f%0Aalt%20If%20the%20input%20data%20is%20wrong%0Aw%3C--f%3AValidate%20Message%0Aend%0Aw-%3Ef%3A%20Click%20button%20Save%0Af-%3Egc%3APOST%3A%20%2Fapi%2Fcombo%0Aactivate%20gc%0Aalt%20If%20there%20is%20required%20field%20do%20not%20have%20value%0Af%3C--gc%3A%3Ccolor%3A%23red%3E400%20BAD_REQUEST%3A%20%5CnMissing%20required%20property%3C%2Fcolor%3E%0Aw%3C--f%3AMessage%20is%20required%0Aelse%20Else%0Agc-%3Egs%3Asave()%0Aactivate%20gs%0Ags-%3Edb%3Asave()%0Aactivate%20db%0Ags%3C--db%3ACombo%20data%0Adeactivate%20db%0Agc%3C--gs%3ANew%20Combo%20data%0Adeactivate%20gs%0Af%3C--gc%3A%3Ccolor%3A%23green%3E201%20OK%3A%20CREATED%3C%2Fcolor%3E%0Adeactivate%20gc%0Aw%3C--f%3A%20Display%20Combo%20list%20table%20with%20new%20Combo%0Adeactivate%20f%0Aend</desc><defs/><g><g/><g/><g/><g/><g/><g/><g/><g/><g/><g/><g/><g/><g/><g/><g/><g/><g/><g/><g/><g/><g/><g/><g><rect fill="white" stroke="none" x="0" y="0" width="1022" height="1166"/></g><g><text fill="black" stroke="none" font-family="sans-serif" font-size="16.5pt" font-style="normal" font-weight="normal" text-decoration="normal" x="439.9637770372721" y="24.50280495" text-anchor="start" dominant-baseline="alphabetic" xml:space="preserve">Create Combo</text></g><g/><g><path fill="none" stroke="black" paint-order="fill stroke markers" d=" M 73.50841485 129.701514202 L 73.50841485 1166.9869237519997" stroke-miterlimit="10" stroke-width="1.3612669416666667" stroke-dasharray="12.565541,5.445067766666667"/><path fill="none" stroke="black" paint-order="fill stroke markers" d=" M 394.92869730520835 129.701514202 L 394.92869730520835 1166.9869237519997" stroke-miterlimit="10" stroke-width="1.3612669416666667" stroke-dasharray="12.565541,5.445067766666667"/><path fill="none" stroke="black" paint-order="fill stroke markers" d=" M 628.3963870399089 129.701514202 L 628.3963870399089 1166.9869237519997" stroke-miterlimit="10" stroke-width="1.3612669416666667" stroke-dasharray="12.565541,5.445067766666667"/><path fill="none" stroke="black" paint-order="fill stroke markers" d=" M 801.5562621119141 129.701514202 L 801.5562621119141 1166.9869237519997" stroke-miterlimit="10" stroke-width="1.3612669416666667" stroke-dasharray="12.565541,5.445067766666667"/><path fill="none" stroke="black" paint-order="fill stroke markers" d=" M 941.3159906995443 129.701514202 L 941.3159906995443 1166.9869237519997" stroke-miterlimit="10" stroke-width="1.3612669416666667" stroke-dasharray="12.565541,5.445067766666667"/></g><g><g><path fill="white" stroke="green" paint-order="fill stroke markers" d=" M 82.819480731 60.60360424300001 A 9.311065881 9.311065881 0 1 1 82.81947607546743 60.594293178670846 M 73.50841485 69.91467012400001 L 73.50841485 89.84361815000001 M 61.747068473999995 77.102159576 L 85.26976122599999 77.102159576 M 73.50841485 89.84361815000001 L 61.747068473999995 108.465749912 M 73.50841485 89.84361815000001 L 85.26976122599999 108.465749912" stroke-miterlimit="10" stroke-width="1.3884922805000002" stroke-dasharray=""/></g><g><text fill="black" stroke="none" font-family="sans-serif" font-size="11pt" font-style="normal" font-weight="normal" text-decoration="normal" x="14.166991815332025" y="124.80095321200001" text-anchor="start" dominant-baseline="alphabetic" xml:space="preserve">Workspace Admin</text></g><g><path fill="white" stroke="black" paint-order="fill stroke markers" d=" M 427.35407585570834 82.819480731 A 24.2577769005 24.2577769005 0 1 1 427.3540637268209 82.79522295814245 M 363.8918110352083 57.17321154999999 L 363.8918110352083 108.465749912 M 362.50331875470835 82.819480731 L 378.83852205470833 82.819480731" stroke-miterlimit="10" stroke-width="2.7769845610000004" stroke-dasharray=""/></g><g><text fill="black" stroke="none" font-family="sans-serif" font-size="11pt" font-style="normal" font-weight="normal" text-decoration="normal" x="324.84281321097006" y="124.80095321200001" text-anchor="start" dominant-baseline="alphabetic" xml:space="preserve">Create Combo popup</text></g><g><path fill="white" stroke="black" paint-order="fill stroke markers" d=" M 652.6541639404088 82.819480731 A 24.2577769005 24.2577769005 0 1 1 652.6541518115214 82.79522295814245 M 625.1293463799088 58.561703830499994 L 634.9304683599088 50.39410218049999 M 625.1293463799088 58.561703830499994 L 634.9304683599088 66.72930548049999" stroke-miterlimit="10" stroke-width="2.7769845610000004" stroke-dasharray=""/></g><g><text fill="black" stroke="none" font-family="sans-serif" font-size="11pt" font-style="normal" font-weight="normal" text-decoration="normal" x="570.9554614417643" y="124.80095321200001" text-anchor="start" dominant-baseline="alphabetic" xml:space="preserve">Combo Controller</text></g><path fill="none" stroke="none"/><g><path fill="white" stroke="black" paint-order="fill stroke markers" d=" M 733.7252133209648 85.75981732500001 L 869.3873109028633 85.75981732500001 L 869.3873109028633 129.701514202 L 733.7252133209648 129.701514202 L 733.7252133209648 85.75981732500001 Z" stroke-miterlimit="10" stroke-width="2.613632528" stroke-dasharray=""/></g><g><text fill="black" stroke="none" font-family="sans-serif" font-size="11pt" font-style="normal" font-weight="normal" text-decoration="normal" x="751.4489089014648" y="113.36631090200002" text-anchor="start" dominant-baseline="alphabetic" xml:space="preserve">Combo Service</text></g><g><path fill="white" stroke="blue" paint-order="fill stroke markers" d=" M 917.4665938815443 97.684515734 L 917.4665938815443 63.380588804000006 L 965.1653875175442 63.380588804000006 L 965.1653875175442 97.684515734" stroke-miterlimit="10" stroke-width="2.7769845610000004" stroke-dasharray=""/><path fill="white" stroke="blue" paint-order="fill stroke markers" d=" M 965.1653875175442 62.1881189631 L 965.1641950576405 62.29592950801663 L 965.1606177971745 62.403729271968594 L 965.1546560938692 62.51150747506936 L 965.1463105438899 62.619253339588404 L 965.1355819817846 62.72695609102909 L 965.1224714804008 62.834604959206004 L 965.1069803507776 62.94218917932205 L 965.089110142015 63.04969799304486 L 965.0688626411189 63.15712064958265 L 965.0462398728228 63.2644464067593 L 965.0212440993844 63.371664532088516 L 964.9938778203604 63.47876430384712 L 964.9641437723558 63.58573501214718 L 964.9320449287507 63.692565960007016 L 964.8975844994026 63.79924646442086 L 964.8607659303258 63.90576585742718 L 964.8215929033464 64.01211348717543 L 964.7800693357347 64.11827871899126 L 964.7361993798127 64.22425093643996 L 964.6899874225393 64.3300195423881 L 964.641438085072 64.43557396006322 L 964.5905562223039 64.54090363411153 L 964.537346922379 64.64599803165338 L 964.4818155061828 64.75084664333659 L 964.4239675268108 64.85543898438739 L 964.3638087690126 64.95976459565881 L 964.301345248614 65.06381304467668 L 964.2365832119148 65.16757392668278 L 964.1695291350647 65.27103686567541 L 964.1001897234158 65.37419151544687 L 964.0285719108512 65.47702756061814 L 963.9546828590925 65.5795347176704 L 963.8785299569835 65.68170273597339 L 963.8001208197506 65.7835213988104 L 963.7194632882425 65.88498052439998 L 963.6365654281451 65.98606996691414 L 963.5514355291753 66.08677961749288 L 963.4640821042518 66.18709940525505 L 963.3745138886446 66.28701929830548 L 963.2827398391006 66.38652930473813 L 963.1887691329482 66.48561947363528 L 963.0926111671796 66.58427989606261 L 962.9942755575115 66.6825007060601 L 962.8937721374227 66.7802720816286 L 962.7911109571716 66.87758424571203 L 962.6863022827905 66.97442746717506 L 962.5793565950596 67.07079206177627 L 962.4702845884586 67.1666683931365 L 962.3590971700974 67.2620468737025 L 962.2458054586248 67.35691796570569 L 962.1304207831179 67.45127218211596 L 962.0129546819478 67.54510008759026 L 961.8934189016269 67.63839229941624 L 961.7718253956336 67.73113948845047 L 961.6481863232173 67.82333238005134 L 961.5225140481818 67.9149617550065 L 961.3948211376504 68.00601845045483 L 961.2651203608074 68.09649336080267 L 961.1334246876224 68.18637743863435 L 960.9997472875532 68.27566169561702 L 960.8641015282283 68.36433720339936 L 960.7265009741104 68.45239509450451 L 960.5869593851405 68.53982656321674 L 960.4454907153612 68.62662286646201 L 960.3021091115214 68.71277532468237 L 960.1568289116623 68.79827532270376 L 960.0096646436824 68.88311431059763 L 959.8606310238863 68.9672838045359 L 959.7097429555114 69.0507753876393 L 959.5570155272391 69.13358071081912 L 959.4024640116847 69.21569149361203 L 959.2461038638713 69.29709952500816 L 959.087950719683 69.37779666427225 L 958.9280203943027 69.45777484175761 L 958.7663288806295 69.53702605971311 L 958.6028923476803 69.61554239308303 L 958.4377271389717 69.69331599029945 L 958.2708497708874 69.77033907406746 L 958.1022769310249 69.84660394214286 L 957.9320254765278 69.92210296810242 L 957.7601124323996 69.99682860210643 L 957.5865549898016 70.07077337165379 L 957.4113705043333 70.14392988232913 L 957.2345764942972 70.21629081854239 L 957.0561906389472 70.28784894426022 L 956.8762307767199 70.35859710372968 L 956.6947149034519 70.42852822219379 L 956.5116611705789 70.49763530659898 L 956.327087883322 70.5659114462944 L 956.1410134988557 70.63334981372294 L 955.9534566244638 70.69994366510412 L 955.7644360156771 70.76568634110825 L 955.5739705743993 70.83057126752253 L 955.3820793470154 70.89459195590838 L 955.1887815224886 70.95774200425032 L 954.9940964304401 71.02001509759614 L 954.7980435392169 71.08140500868842 L 954.6006424539447 71.14190559858717 L 954.4019129145677 71.20151081728383 L 954.2018747938739 71.26021470430622 L 954.000548095509 71.31801138931453 L 953.7979529519749 71.37489509268845 L 953.5941096226171 71.43086012610503 L 953.3890384915989 71.48590089310757 L 953.1827600658621 71.54001188966522 L 952.9752949730778 71.59318770472345 L 952.766663959582 71.64542302074504 L 952.5568878883026 71.69671261424193 L 952.3459877366716 71.7470513562975 L 952.1339845945286 71.79643421307951 L 951.9208996620109 71.84485624634341 L 951.7067542474346 71.89231261392625 L 951.4915697651622 71.93879857023082 L 951.275367733463 71.9843094667002 L 951.0581697723599 72.02884075228269 L 950.8399976014679 72.07238797388683 L 950.6208730378223 72.11494677682676 L 950.4008179936969 72.15651290525764 L 950.1798544744129 72.19708220260128 L 949.9580045761379 72.23665061196175 L 949.7352904836769 72.27521417653107 L 949.5117344682534 72.31276903998494 L 949.287358885283 72.3493114468683 L 949.0621861721366 72.38483774297092 L 948.8362388458983 72.41934437569277 L 948.6095395011121 72.45282789439938 L 948.3821108075236 72.48528495076673 L 948.1539755078128 72.51671229911628 L 947.9251564153195 72.54710679673934 L 947.6956764117622 72.5764654042115 L 947.4655584449501 72.60478518569649 L 947.2348255264881 72.63206330923974 L 947.0035007294757 72.65829704705163 L 946.7716071861998 72.68348377578025 L 946.5391680858218 72.70762097677371 L 946.3062066720577 72.73070623633201 L 946.0727462408547 72.75273724594847 L 945.8388101380617 72.77371180254045 L 945.6044217570937 72.79362780866978 L 945.3696045365938 72.81248327275246 L 945.1343819580882 72.83027630925778 L 944.8987775436385 72.84700513889692 L 944.6628148534902 72.86266808880085 L 944.4265174837155 72.87726359268764 L 944.1899090638545 72.89079019101906 L 943.9530132545519 72.90324653114655 L 943.7158537451915 72.91463136744649 L 943.4784542515263 72.9249435614447 L 943.2408385133078 72.93418208193043 L 943.0030302919122 72.94234600505929 L 942.7650533679631 72.94943451444577 L 942.5269315389547 72.95544690124485 L 942.2886886168716 72.96038256422287 L 942.0503484258072 72.96424100981763 L 941.8119347995822 72.9670218521878 L 941.5734715793604 72.96872481325143 L 941.3349826112653 72.96934972271386 L 941.0964917439948 72.96889651808466 L 940.8580228264369 72.96736524468392 L 940.6195997052847 72.96475605563768 L 940.3812462226517 72.96106921186271 L 940.1429862136873 72.95630508204027 L 939.9048435041941 72.9504641425794 L 939.6668419082445 72.94354697756918 L 939.4290052257996 72.93555427872033 L 939.1913572403297 72.9264868452961 L 938.9539217164352 72.91634558403224 L 938.7167223974704 72.90513150904647 L 938.47978300317 72.89284574173689 L 938.2431272272757 72.87948951067006 L 938.0067787351679 72.86506415145789 L 937.7707611614989 72.84957110662431 L 937.5350981078293 72.8330119254609 L 937.2998131402682 72.81538826387197 L 937.0649297871162 72.79670188420899 L 936.8304715365128 72.77695465509434 L 936.596461834088 72.7561485512345 L 936.3629240806166 72.73428565322251 L 936.1298816296797 72.71136814732996 L 935.897357785328 72.68739832528833 L 935.6653757997522 72.66237858405984 L 935.4339588709576 72.63631142559778 L 935.203130140444 72.60919945659627 L 934.9729126908925 72.58104538822961 L 934.7433295438559 72.55185203588118 L 934.5144036574576 72.5216223188619 L 934.2861579240956 72.49035926011825 L 934.058615168153 72.45806598593009 L 933.8317981437157 72.4247457255979 L 933.6057295322972 72.39040181111994 L 933.3804319405702 72.35503767685907 L 933.1559278981061 72.31865685919922 L 932.9322398551222 72.28126299619186 L 932.7093901802364 72.24285982719209 L 932.4874011582302 72.20345119248485 L 932.2662949878212 72.16304103290075 L 932.0460937794418 72.12163338942209 L 931.8268195530296 72.07923240277869 L 931.6084942358244 72.03584231303388 L 931.391139660176 71.99146745916049 L 931.174777561361 71.94611227860693 L 930.9594295754086 71.89978130685344 L 930.7451172369384 71.85247917695861 L 930.5318619770053 71.80421061909601 L 930.3196851209578 71.75498046008119 L 930.1086078863045 71.70479362288901 L 929.8986513805932 71.65365512616141 L 929.6898365992993 71.60157008370541 L 929.482184423727 71.54854370398188 L 929.2757156189208 71.49458128958457 L 929.0704508315891 71.43968823671 L 928.8664105880397 71.38387003461766 L 928.6636152921267 71.32713226508127 L 928.4620852232109 71.26948060183051 L 928.2618405341312 71.21092080998365 L 928.0629012491896 71.15145874547107 L 927.8652872621489 71.0911003544497 L 927.669018334243 71.0298516727083 L 927.4741140922011 70.96771882506403 L 927.2805940262853 70.90470802474988 L 927.0884774883405 70.84082557279336 L 926.8977836898607 70.77607785738643 L 926.7085317000667 70.71047135324669 L 926.5207404439998 70.64401262096986 L 926.3344287006291 70.5767083063738 L 926.1496151009737 70.50856513983389 L 925.9663181262397 70.43958993560999 L 925.7845561059714 70.36978959116503 L 925.6043472162199 70.29917108647531 L 925.4257094777237 70.22774148333244 L 925.2486607541077 70.1555079246372 L 925.0732187500969 70.08247763368529 L 924.8994010097455 70.00865791344492 L 924.7272249146826 69.9340561458266 L 924.5567076823742 69.85867979094495 L 924.3878663644016 69.78253638637263 L 924.2207178447557 69.70563354638664 L 924.0552788381493 69.62797896120689 L 923.8915658883451 69.54958039622719 L 923.7295953665018 69.47044569123871 L 923.5693834695365 69.39058275964601 L 923.4109462185054 69.30999958767568 L 923.2542994570016 69.22870423357777 L 923.0994588495707 69.14670482681996 L 922.9464398801445 69.06400956727457 L 922.7952578504921 68.98062672439866 L 922.6459278786908 68.89656463640702 L 922.4984648976133 68.8118317094384 L 922.3528836534348 68.72643641671489 L 922.2091987041583 68.6403872976946 L 922.0674244181591 68.55369295721772 L 921.9275749727477 68.46636206464606 L 921.789664352752 68.37840335299609 L 921.6537063491189 68.28982561806569 L 921.5197145575358 68.20063771755453 L 921.3877023770701 68.11084857017835 L 921.2576830088298 68.02046715477704 L 921.1296694546432 67.92950250941684 L 921.0036745157594 67.83796373048648 L 920.879710791567 67.74585997178757 L 920.7577906783354 67.65320044361923 L 920.6379263679739 67.55999441185705 L 920.520129846814 67.46625119702654 L 920.4044128944096 67.37198017337107 L 920.2907870823593 67.27719076791445 L 920.17926377315 67.18189245951821 L 920.0698541190193 67.08609477793381 L 919.9625690608416 66.98980730284956 L 919.8574193270333 66.89303966293272 L 919.7544154324803 66.79580153486665 L 919.653567677486 66.69810264238313 L 919.5548861467419 66.59995275528999 L 919.4583807083189 66.50136168849414 L 919.3640610126805 66.40233930102012 L 919.2719364917175 66.30289549502413 L 919.1820163578053 66.20304021480393 L 919.0943096028824 66.1027834458043 L 919.0088249975511 66.00213521361863 L 918.9255710902008 65.90110558298623 L 918.8445562061528 65.799704656786 L 918.765788446828 65.69794257502603 L 918.6892756889367 65.59582951382973 L 918.6150255836909 65.4933756844181 L 918.5430455560394 65.3905913320887 L 918.4733428039247 65.28748673519112 L 918.4059242975642 65.18407220409914 L 918.3407967787522 65.08035808017966 L 918.2779667601862 64.97635473475869 L 918.2174405248161 64.87207256808405 L 918.1592241252146 64.76752200828555 L 918.1033233829734 64.66271351033203 L 918.0497438881199 64.55765755498592 L 917.9984909985591 64.45236464775525 L 917.9495698395373 64.34684531784296 L 917.9029853031294 64.24111011709415 L 917.8587420477505 64.13516961894075 L 917.8168444976891 64.0290344173443 L 917.7772968426654 63.92271512573653 L 917.7401030374117 63.81622237595798 L 917.7052668012778 63.70956681719489 L 917.6727916178581 63.602759114914264 L 917.6426807346442 63.49580994979732 L 917.6149371626989 63.38873001667144 L 917.5895636763565 63.28153002344071 L 917.5665628129445 63.17422069001512 L 917.5459368725301 63.066812747238586 L 917.52768791769 62.959316935815885 L 917.5118177733045 62.85174400523857 L 917.498328026375 62.74410471271006 L 917.4872200258648 62.636409822069915 L 917.4784948825647 62.52867010271744 L 917.4721534689818 62.4208963285348 L 917.4681964192522 62.313099276809595 L 917.4666241290774 62.20528972715717 L 917.4674367556854 62.09747846044265 L 917.470634217814 61.98967625770286 L 917.4762161957196 61.88189389906824 L 917.4841821312093 61.77414216268484 L 917.494531227696 61.66643182363649 L 917.5072624502789 61.558773652867366 L 917.522374525846 61.4511784161048 L 917.5398659432026 61.34365687278283 L 917.5597349532213 61.236219774966166 L 917.581979569018 61.12887786627507 L 917.6065975661495 61.02164188081096 L 917.6335864828364 60.91452254208302 L 917.6629436202098 60.807530561935856 L 917.6946660425804 60.70067663947832 L 917.7287505777323 60.593971460013606 L 917.7651938172403 60.487425693970756 L 917.8039921168111 60.381049995837586 L 917.8451415966467 60.27485500309525 L 917.8886381418338 60.16885133515453 L 917.9344774027538 60.06304959229389 L 917.982654795519 59.95746035459945 L 918.0331655024303 59.852094180906974 L 918.0860044724589 59.746961607746044 L 918.141166421752 59.64207314828636 L 918.1986458341606 59.537439291286454 L 918.2584369617914 59.43307050004484 L 918.3205338255813 59.32897721135367 L 918.3849302158958 59.22516983445505 L 918.4516196931496 59.12165875000019 L 918.5205955884504 59.01845430901127 L 918.5918510042662 58.91556683184637 L 918.6653788151149 58.81300660716748 L 918.7411716682765 58.7107838909116 L 918.8192219845289 58.60890890526517 L 918.8995219589057 58.507391837641855 L 918.982063561476 58.406242839663825 L 919.0668385381488 58.30547202614659 L 919.1538384114967 58.205089474087515 L 919.2430544816051 58.105105221658164 L 919.3344778269412 58.00552926720046 L 919.4280993052467 57.90637156822687 L 919.5239095544517 57.807642040424646 L 919.6218989936114 57.709350556664305 L 919.7220578238632 57.61150694601232 L 919.8243760294077 57.514120992748204 L 919.9288433785096 57.417202435386145 L 920.0354494245211 57.320760965701105 L 920.1441835069263 57.224806227759686 L 920.2550347524076 57.12934781695572 L 920.367992075933 57.03439527905074 L 920.4830441818641 56.93995810921942 L 920.6001795650863 56.84604575110002 L 920.7193865121586 56.75266759585011 L 920.840653102486 56.65983298120741 L 920.9639672095104 56.567551190555996 L 921.0893165019239 56.47583145199805 L 921.2166884449016 56.384682937430995 L 921.3460703013554 56.29411476163032 L 921.4774491332075 56.20413598133814 L 921.6108118026841 56.1147555943575 L 921.7461449736295 56.02598253865261 L 921.8834351128394 55.937825691455075 L 922.0226684914142 55.85029386837614 L 922.163831186132 55.763395822525176 L 922.3069090808411 55.677140243634355 L 922.4518878678713 55.591535757189675 L 922.5987530494646 55.50659092356846 L 922.7474899392253 55.42231423718327 L 922.8980836635882 55.33871412563253 L 923.0505191633066 55.25579894885771 L 923.2047811949574 55.1735769983074 L 923.360854332466 55.092056496108135 L 923.5187229686488 55.01124559424221 L 923.6783713167738 54.93115237373246 L 923.8397834121389 54.851784843834196 L 924.0029431136694 54.77315094123426 L 924.1678341055309 54.6952585292574 L 924.3344398987618 54.61811539707989 L 924.5027438329216 54.54172925895067 L 924.6727290777569 54.46610775341989 L 924.8443786348852 54.391258442575094 L 925.0176753394936 54.317188811284986 L 925.1926018620561 54.24390626645098 L 925.3691407100663 54.171418136266475 L 925.5472742297864 54.09973166948409 L 925.7269846080129 54.028854034690774 L 925.9082538738578 53.95879231959093 L 926.0910639005455 53.88955353029769 L 926.2753964072257 53.82114459063227 L 926.4612329608015 53.753572341431656 L 926.648554977772 53.68684353986444 L 926.837343726092 53.62096485875517 L 927.0275803270438 53.55594288591707 L 927.2192457571259 53.49178412349323 L 927.412320849955 53.42849498730643 L 927.6067862981827 53.366081806217544 L 927.8026226554263 53.304550821492676 L 927.999810338213 53.24390818617902 L 928.1983296279393 53.18415996448957 L 928.3981606728413 53.12531213119671 L 928.5992834899811 53.067370571034715 L 928.8016779672447 53.01034107811134 L 929.005323865353 52.95422935532834 L 929.2102008198858 52.89904101381123 L 929.4162883433185 52.84478157234818 L 929.6235658270704 52.79145645683812 L 929.8320125435658 52.73907099974815 L 930.041607648307 52.687630439580346 L 930.252330181958 52.637139920347835 L 930.464159072441 52.58760449106049 L 930.6770731370436 52.53902910521993 L 930.8910510845368 52.49141862032429 L 931.106071517304 52.444777797382365 L 931.3221129334812 52.399111300437596 L 931.5391537291067 52.354423696101605 L 931.7571722002821 52.3107194530976 L 931.9761465453416 52.26800294181345 L 932.1960548670334 52.2262784338647 L 932.4168751747086 52.18555010166736 L 932.6385853865203 52.14582201802072 L 932.8611633316322 52.10709815570004 L 933.0845867524351 52.06938238705927 L 933.3088333067733 52.032678483643856 L 933.5338805701782 51.996990115813546 L 933.759706038111 51.96232085237539 L 933.986287128213 51.928674160226834 L 934.2136011825642 51.89605340400906 L 934.4416254699482 51.8644618457705 L 934.6703371881267 51.833902644640645 L 934.8997134661183 51.80437885651416 L 935.1297313664865 51.775893433745246 L 935.3603678876326 51.74844922485244 L 935.591599966097 51.722048974233765 L 935.8234044788643 51.69669532189228 L 936.0557582456767 51.672390803172085 L 936.2886380313508 51.649137848504814 L 936.5220205481024 51.626938783166544 L 936.7558824578742 51.60579582704531 L 936.99020037467 51.58571109441911 L 937.2249508668936 51.56668659374447 L 937.4601104596911 51.54872422745561 L 937.6956556372995 51.53182579177417 L 937.9315628453971 51.515992976529645 L 938.1678084934599 51.50122736499037 L 938.4043689571197 51.4875304337052 L 938.6412205805275 51.47490355235584 L 938.8783396787181 51.4633479836199 L 939.1157025399796 51.45286488304463 L 939.3532854282233 51.443455298931354 L 939.5910645853586 51.43512017223063 L 939.829016233668 51.4278603364482 L 940.0671165781847 51.42167651756158 L 940.3053418090728 51.41656933394751 L 940.5436681040079 51.41253929632009 L 940.7820716305589 51.40958680767973 L 941.0205285485717 51.407712163272826 L 941.2590150125536 51.40691555056227 L 941.4975071740566 51.40719704920866 L 941.7359811840635 51.40855663106237 L 941.9744131953719 51.41099416016634 L 942.2127793649794 51.414509392769695 L 942.4510558564676 51.419101977352106 L 942.6892188423861 51.42477145465894 L 942.9272445066347 51.431517257747196 L 943.1651090468451 51.43933871204218 L 943.4027886767618 51.44823503540498 L 943.6402596286199 51.45820533821068 L 943.8774981555218 51.4692486234373 L 944.1144805338128 51.48136378676553 L 944.3511830654523 51.49454961668913 L 944.5875820803847 51.50880479463608 L 944.8236539389053 51.524127895100484 L 945.0593750340249 51.54051738578506 L 945.2947217938306 51.5579716277544 L 945.5296706838425 51.57648887559884 L 945.7641982093672 51.59606727760904 L 945.998280917848 51.6167048759611 L 946.2318954012087 51.6383996069124 L 946.4650182981958 51.66114930100791 L 946.6976262967139 51.684951683297186 L 946.929696136157 51.70980437356183 L 947.1612046097345 51.735704886553535 L 947.3921285667919 51.76265063224257 L 947.6224449151262 51.79063891607683 L 947.8521306232941 51.81966693925126 L 948.0811627229165 51.849731798987726 L 948.3095183109741 51.88083048882531 L 948.5371745520986 51.91295989892094 L 948.7641086808553 51.94611681636038 L 948.9902980040207 51.980297925479526 L 949.215719902851 52.01549980819594 L 949.4403518353439 52.0517189443507 L 949.6641713384936 52.08895171206036 L 949.8871560305362 52.127194388079175 L 950.1092836131882 52.16644314817141 L 950.3305318738767 52.20669406749378 L 950.5508786879598 52.247943120987884 L 950.7703020209397 52.29018618378274 L 950.988779930666 52.33341903160728 L 951.20629056953 52.37763734121275 L 951.4228121866488 52.422836690805035 L 951.6383231300412 52.46901256048684 L 951.8528018487924 52.516160332709674 L 952.0662268952094 52.564275292735616 L 952.2785769269653 52.613352629108746 L 952.4898307092341 52.663387434136325 L 952.6999671168132 52.71437470437956 L 952.9089651362373 52.7663093411539 L 953.1168038678785 52.819186151038956 L 953.3234625280368 52.8729998463978 L 953.5289204510185 52.92774504590574 L 953.7331570912024 52.983416275088445 L 953.9361520250948 53.040007966869396 L 954.1378849533713 53.09751446212657 L 954.3383357029074 53.15593001025836 L 954.537484228795 53.21524876975863 L 954.7353106163476 53.27546480880087 L 954.9317950830913 53.33657210583136 L 955.1269179807431 53.3985645501713 L 955.3206597971758 53.461435942627936 L 955.5130011583692 53.52517999611441 L 955.7039228303477 53.58979033627848 L 955.8934057211028 53.655260502139996 L 956.0814308825037 53.721583946736914 L 956.2679795121908 53.78875403778004 L 956.4530329554565 53.85676405831625 L 956.6365727071108 53.92560720740017 L 956.8185804133315 53.995276600774254 L 956.9990378734996 54.065765271557225 L 957.1779270420194 54.13706617094075 L 957.3552300301232 54.2091721688943 L 957.53092910766 54.28207605487816 L 957.7050067048683 54.35577053856451 L 957.8774454141336 54.43024825056637 L 958.0482279917286 54.50550174317461 L 958.2173373595379 54.581523491102686 L 958.3847566067654 54.658305892239156 L 958.5504689916263 54.73584126840789 L 958.71445794302 54.81412186613588 L 958.876707062188 54.89313985742859 L 959.0372001243536 54.97288734055273 L 959.1959210803444 55.05335634082646 L 959.352854058197 55.1345388114168 L 959.5079833647443 55.21642663414435 L 959.6612934871852 55.29901162029506 L 959.8127690946349 55.38228551143916 L 959.962395039659 55.46623998025691 L 960.1101563597878 55.55086663137139 L 960.2560382790123 55.63615700218803 L 960.4000262092621 55.722102563740805 L 960.5421057518644 55.80869472154519 L 960.6822626989831 55.89592481645755 L 960.8204830350403 55.98378412554111 L 960.9567529381177 56.07226386293816 L 961.0910587813385 56.1613551807487 L 961.2233871342303 56.251049169915184 L 961.3537247640679 56.34133686111345 L 961.4820586371973 56.4322092256496 L 961.608375920338 56.52365717636293 L 961.7326639818666 56.615671568534566 L 961.854910393081 56.70824320080196 L 961.9751029294417 56.80136281607904 L 962.0932295717954 56.89502110248188 L 962.2092785075761 56.98920869425987 L 962.323238131987 57.083916172732344 L 962.4350970491606 57.17913406723036 L 962.5448440732985 57.27485285604382 L 962.6524682297896 57.37106296737362 L 962.7579587563081 57.467754780288786 L 962.8613051038891 57.56491862568861 L 962.962496937984 57.662544787269525 L 963.0615241394939 57.76062350249672 L 963.1583768057809 57.859144963580405 L 963.2530452516593 57.95809931845658 L 963.3455200103632 58.05747667177222 L 963.435791834494 58.15726708587479 L 963.5238516969443 58.257460581806065 L 963.6096907918014 58.358047140299924 L 963.6933005352274 58.459016702784346 L 963.7746725663173 58.56035917238722 L 963.8537987479363 58.66206441494605 L 963.9306711675317 58.764122260021324 L 964.0052821379259 58.866522501913586 L 964.0776241980839 58.96925490068398 L 964.1476901138601 59.072309183178234 L 964.2154728787211 59.17567504405398 L 964.2809657144471 59.279342146811274 L 964.344162071809 59.38330012482622 L 964.4050556312237 59.48753858238766 L 964.4636403033861 59.59204709573668 L 964.5199102298777 59.69681521410906 L 964.5738597837529 59.80183246078026 L 964.6254835701012 59.907088334113126 L 964.6747764265868 60.012572308608036 L 964.7217334239655 60.11827383595545 L 964.7663498665763 60.22418234609071 L 964.8086212928124 60.33028724825106 L 964.8485434755662 60.43657793203471 L 964.8861124226529 60.54304376846186 L 964.9213243772089 60.64967411103757 L 964.9541758180683 60.75645829681646 L 964.9846634601141 60.86338564746893 L 965.0127842546078 60.97044547034902 L 965.0385353894932 61.07762705956367 L 965.0619142896784 61.184919697043256 L 965.0829186172926 61.29231265361346 L 965.1015462719209 61.399795190068104 L 965.1177953908132 61.50735655824312 L 965.1316643490711 61.614986002091314 L 965.1431517598104 61.72267275875801 L 965.1522564742995 61.830406059657264 L 965.1589775820747 61.93817513154877 L 965.1633144110307 62.04596919761514 L 965.1652665274883 62.15377747853961 M 965.1653875175442 96.4920458931 L 965.1641950576405 96.59985643801662 L 965.1606177971745 96.70765620196859 L 965.1546560938692 96.81543440506935 L 965.1463105438899 96.9231802695884 L 965.1355819817846 97.03088302102908 L 965.1224714804008 97.138531889206 L 965.1069803507776 97.24611610932205 L 965.089110142015 97.35362492304485 L 965.0688626411189 97.46104757958265 L 965.0462398728228 97.5683733367593 L 965.0212440993844 97.67559146208852 L 964.9938778203604 97.78269123384712 L 964.9641437723558 97.88966194214719 L 964.9320449287507 97.99649289000702 L 964.8975844994026 98.10317339442086 L 964.8607659303258 98.20969278742717 L 964.8215929033464 98.31604041717543 L 964.7800693357347 98.42220564899125 L 964.7361993798127 98.52817786643996 L 964.6899874225393 98.6339464723881 L 964.641438085072 98.73950089006323 L 964.5905562223039 98.84483056411152 L 964.537346922379 98.94992496165337 L 964.4818155061828 99.05477357333659 L 964.4239675268108 99.15936591438738 L 964.3638087690126 99.2636915256588 L 964.301345248614 99.36773997467667 L 964.2365832119148 99.47150085668278 L 964.1695291350647 99.5749637956754 L 964.1001897234158 99.67811844544686 L 964.0285719108512 99.78095449061813 L 963.9546828590925 99.8834616476704 L 963.8785299569835 99.98562966597338 L 963.8001208197506 100.08744832881038 L 963.7194632882425 100.18890745439998 L 963.6365654281451 100.28999689691415 L 963.5514355291753 100.39070654749288 L 963.4640821042518 100.49102633525506 L 963.3745138886446 100.59094622830548 L 963.2827398391006 100.69045623473812 L 963.1887691329482 100.78954640363527 L 963.0926111671796 100.8882068260626 L 962.9942755575115 100.9864276360601 L 962.8937721374227 101.0841990116286 L 962.7911109571716 101.18151117571202 L 962.6863022827905 101.27835439717506 L 962.5793565950596 101.37471899177628 L 962.4702845884586 101.4705953231365 L 962.3590971700974 101.56597380370249 L 962.2458054586248 101.6608448957057 L 962.1304207831179 101.75519911211595 L 962.0129546819478 101.84902701759025 L 961.8934189016269 101.94231922941623 L 961.7718253956336 102.03506641845047 L 961.6481863232173 102.12725931005133 L 961.5225140481818 102.2188886850065 L 961.3948211376504 102.30994538045483 L 961.2651203608074 102.40042029080266 L 961.1334246876224 102.49030436863434 L 960.9997472875532 102.579588625617 L 960.8641015282283 102.66826413339936 L 960.7265009741104 102.75632202450451 L 960.5869593851405 102.84375349321674 L 960.4454907153612 102.93054979646202 L 960.3021091115214 103.01670225468237 L 960.1568289116623 103.10220225270375 L 960.0096646436824 103.18704124059762 L 959.8606310238863 103.27121073453588 L 959.7097429555114 103.3547023176393 L 959.5570155272391 103.4375076408191 L 959.4024640116847 103.51961842361202 L 959.2461038638713 103.60102645500817 L 959.087950719683 103.68172359427226 L 958.9280203943027 103.7617017717576 L 958.7663288806295 103.84095298971312 L 958.6028923476803 103.91946932308304 L 958.4377271389717 103.99724292029944 L 958.2708497708874 104.07426600406745 L 958.1022769310249 104.15053087214287 L 957.9320254765278 104.22602989810241 L 957.7601124323996 104.30075553210642 L 957.5865549898016 104.37470030165377 L 957.4113705043333 104.44785681232914 L 957.2345764942972 104.52021774854238 L 957.0561906389472 104.59177587426021 L 956.8762307767199 104.66252403372968 L 956.6947149034519 104.73245515219378 L 956.5116611705789 104.80156223659897 L 956.327087883322 104.86983837629438 L 956.1410134988557 104.93727674372295 L 955.9534566244638 105.0038705951041 L 955.7644360156771 105.06961327110824 L 955.5739705743993 105.13449819752252 L 955.3820793470154 105.19851888590837 L 955.1887815224886 105.26166893425032 L 954.9940964304401 105.32394202759615 L 954.7980435392169 105.38533193868841 L 954.6006424539447 105.44583252858716 L 954.4019129145677 105.50543774728384 L 954.2018747938739 105.56414163430621 L 954.000548095509 105.62193831931454 L 953.7979529519749 105.67882202268845 L 953.5941096226171 105.73478705610502 L 953.3890384915989 105.78982782310756 L 953.1827600658621 105.84393881966523 L 952.9752949730778 105.89711463472344 L 952.766663959582 105.94934995074503 L 952.5568878883026 106.00063954424192 L 952.3459877366716 106.0509782862975 L 952.1339845945286 106.1003611430795 L 951.9208996620109 106.14878317634341 L 951.7067542474346 106.19623954392625 L 951.4915697651622 106.2427255002308 L 951.275367733463 106.2882363967002 L 951.0581697723599 106.33276768228268 L 950.8399976014679 106.37631490388682 L 950.6208730378223 106.41887370682676 L 950.4008179936969 106.46043983525765 L 950.1798544744129 106.50100913260128 L 949.9580045761379 106.54057754196174 L 949.7352904836769 106.57914110653107 L 949.5117344682534 106.61669596998493 L 949.287358885283 106.65323837686829 L 949.0621861721366 106.6887646729709 L 948.8362388458983 106.72327130569276 L 948.6095395011121 106.75675482439937 L 948.3821108075236 106.78921188076673 L 948.1539755078128 106.82063922911627 L 947.9251564153195 106.85103372673933 L 947.6956764117622 106.8803923342115 L 947.4655584449501 106.90871211569649 L 947.2348255264881 106.93599023923973 L 947.0035007294757 106.96222397705162 L 946.7716071861998 106.98741070578025 L 946.5391680858218 107.0115479067737 L 946.3062066720577 107.03463316633201 L 946.0727462408547 107.05666417594847 L 945.8388101380617 107.07763873254045 L 945.6044217570937 107.09755473866979 L 945.3696045365938 107.11641020275246 L 945.1343819580882 107.13420323925777 L 944.8987775436385 107.1509320688969 L 944.6628148534902 107.16659501880085 L 944.4265174837155 107.18119052268763 L 944.1899090638545 107.19471712101905 L 943.9530132545519 107.20717346114655 L 943.7158537451915 107.21855829744648 L 943.4784542515263 107.22887049144471 L 943.2408385133078 107.23810901193042 L 943.0030302919122 107.24627293505928 L 942.7650533679631 107.25336144444577 L 942.5269315389547 107.25937383124486 L 942.2886886168716 107.26430949422287 L 942.0503484258072 107.26816793981763 L 941.8119347995822 107.27094878218779 L 941.5734715793604 107.27265174325143 L 941.3349826112653 107.27327665271386 L 941.0964917439948 107.27282344808465 L 940.8580228264369 107.27129217468391 L 940.6195997052847 107.26868298563768 L 940.3812462226517 107.2649961418627 L 940.1429862136873 107.26023201204026 L 939.9048435041941 107.2543910725794 L 939.6668419082445 107.24747390756917 L 939.4290052257996 107.23948120872033 L 939.1913572403297 107.23041377529609 L 938.9539217164352 107.22027251403225 L 938.7167223974704 107.20905843904646 L 938.47978300317 107.1967726717369 L 938.2431272272757 107.18341644067004 L 938.0067787351679 107.16899108145788 L 937.7707611614989 107.15349803662431 L 937.5350981078293 107.1369388554609 L 937.2998131402682 107.11931519387196 L 937.0649297871162 107.10062881420897 L 936.8304715365128 107.08088158509435 L 936.596461834088 107.0600754812345 L 936.3629240806166 107.03821258322252 L 936.1298816296797 107.01529507732995 L 935.897357785328 106.99132525528832 L 935.6653757997522 106.96630551405984 L 935.4339588709576 106.94023835559778 L 935.203130140444 106.91312638659626 L 934.9729126908925 106.88497231822961 L 934.7433295438559 106.85577896588119 L 934.5144036574576 106.8255492488619 L 934.2861579240956 106.79428619011826 L 934.058615168153 106.76199291593008 L 933.8317981437157 106.72867265559789 L 933.6057295322972 106.69432874111995 L 933.3804319405702 106.65896460685907 L 933.1559278981061 106.62258378919921 L 932.9322398551222 106.58518992619184 L 932.7093901802364 106.5467867571921 L 932.4874011582302 106.50737812248485 L 932.2662949878212 106.46696796290075 L 932.0460937794418 106.42556031942208 L 931.8268195530296 106.38315933277867 L 931.6084942358244 106.33976924303387 L 931.391139660176 106.29539438916049 L 931.174777561361 106.25003920860692 L 930.9594295754086 106.20370823685344 L 930.7451172369384 106.15640610695861 L 930.5318619770053 106.108137549096 L 930.3196851209578 106.05890739008117 L 930.1086078863045 106.00872055288902 L 929.8986513805932 105.9575820561614 L 929.6898365992993 105.90549701370541 L 929.482184423727 105.85247063398188 L 929.2757156189208 105.79850821958458 L 929.0704508315891 105.74361516670999 L 928.8664105880397 105.68779696461766 L 928.6636152921267 105.63105919508126 L 928.4620852232109 105.5734075318305 L 928.2618405341312 105.51484773998365 L 928.0629012491896 105.45538567547108 L 927.8652872621489 105.3950272844497 L 927.669018334243 105.33377860270829 L 927.4741140922011 105.27164575506403 L 927.2805940262853 105.20863495474987 L 927.0884774883405 105.14475250279335 L 926.8977836898607 105.08000478738643 L 926.7085317000667 105.01439828324668 L 926.5207404439998 104.94793955096986 L 926.3344287006291 104.8806352363738 L 926.1496151009737 104.8124920698339 L 925.9663181262397 104.74351686560999 L 925.7845561059714 104.67371652116503 L 925.6043472162199 104.6030980164753 L 925.4257094777237 104.53166841333243 L 925.2486607541077 104.4594348546372 L 925.0732187500969 104.38640456368528 L 924.8994010097455 104.31258484344491 L 924.7272249146826 104.2379830758266 L 924.5567076823742 104.16260672094495 L 924.3878663644016 104.08646331637262 L 924.2207178447557 104.00956047638662 L 924.0552788381493 103.93190589120688 L 923.8915658883451 103.85350732622719 L 923.7295953665018 103.77437262123871 L 923.5693834695365 103.694509689646 L 923.4109462185054 103.61392651767568 L 923.2542994570016 103.53263116357778 L 923.0994588495707 103.45063175681996 L 922.9464398801445 103.36793649727457 L 922.7952578504921 103.28455365439865 L 922.6459278786908 103.20049156640701 L 922.4984648976133 103.1157586394384 L 922.3528836534348 103.03036334671489 L 922.2091987041583 102.94431422769459 L 922.0674244181591 102.85761988721772 L 921.9275749727477 102.77028899464605 L 921.789664352752 102.68233028299609 L 921.6537063491189 102.5937525480657 L 921.5197145575358 102.50456464755453 L 921.3877023770701 102.41477550017834 L 921.2576830088298 102.32439408477703 L 921.1296694546432 102.23342943941684 L 921.0036745157594 102.14189066048647 L 920.879710791567 102.04978690178756 L 920.7577906783354 101.95712737361922 L 920.6379263679739 101.86392134185704 L 920.520129846814 101.77017812702654 L 920.4044128944096 101.67590710337106 L 920.2907870823593 101.58111769791444 L 920.17926377315 101.48581938951821 L 920.0698541190193 101.39002170793381 L 919.9625690608416 101.29373423284954 L 919.8574193270333 101.19696659293271 L 919.7544154324803 101.09972846486664 L 919.653567677486 101.00202957238312 L 919.5548861467419 100.90387968528998 L 919.4583807083189 100.80528861849413 L 919.3640610126805 100.70626623102011 L 919.2719364917175 100.60682242502413 L 919.1820163578053 100.50696714480392 L 919.0943096028824 100.40671037580431 L 919.0088249975511 100.30606214361863 L 918.9255710902008 100.20503251298624 L 918.8445562061528 100.103631586786 L 918.765788446828 100.00186950502604 L 918.6892756889367 99.89975644382972 L 918.6150255836909 99.79730261441809 L 918.5430455560394 99.69451826208869 L 918.4733428039247 99.59141366519111 L 918.4059242975642 99.48799913409913 L 918.3407967787522 99.38428501017967 L 918.2779667601862 99.28028166475868 L 918.2174405248161 99.17599949808405 L 918.1592241252146 99.07144893828554 L 918.1033233829734 98.96664044033201 L 918.0497438881199 98.86158448498593 L 917.9984909985591 98.75629157775525 L 917.9495698395373 98.65077224784297 L 917.9029853031294 98.54503704709414 L 917.8587420477505 98.43909654894075 L 917.8168444976891 98.33296134734431 L 917.7772968426654 98.22664205573652 L 917.7401030374117 98.12014930595798 L 917.7052668012778 98.01349374719489 L 917.6727916178581 97.90668604491427 L 917.6426807346442 97.79973687979731 L 917.6149371626989 97.69265694667143 L 917.5895636763565 97.58545695344071 L 917.5665628129445 97.47814762001512 L 917.5459368725301 97.37073967723859 L 917.52768791769 97.26324386581588 L 917.5118177733045 97.15567093523856 L 917.498328026375 97.04803164271006 L 917.4872200258648 96.94033675206991 L 917.4784948825647 96.83259703271744 L 917.4721534689818 96.7248232585348 L 917.4681964192522 96.6170262068096 L 917.4666241290774 96.50921665715717" stroke-miterlimit="10" stroke-width="2.7769845610000004" stroke-dasharray=""/></g><g><text fill="black" stroke="none" font-family="sans-serif" font-size="11pt" font-style="normal" font-weight="normal" text-decoration="normal" x="909.9380457532552" y="124.80095321200001" text-anchor="start" dominant-baseline="alphabetic" xml:space="preserve">Database</text></g></g><g><path fill="white" stroke="black" paint-order="fill stroke markers" d=" M 386.76109565520835 183.607685092 L 403.09629895520834 183.607685092 L 403.09629895520834 1085.3109072519999 L 386.76109565520835 1085.3109072519999 L 386.76109565520835 183.607685092" stroke-miterlimit="10" stroke-width="1.3612669416666667" stroke-dasharray=""/><path fill="white" stroke="black" paint-order="fill stroke markers" d=" M 394.92869730520835 342.059157102 L 411.26390060520833 342.059157102 L 411.26390060520833 387.7977263419999 L 394.92869730520835 387.7977263419999 L 394.92869730520835 342.059157102" stroke-miterlimit="10" stroke-width="1.3612669416666667" stroke-dasharray=""/><path fill="white" stroke="black" paint-order="fill stroke markers" d=" M 620.2287853899088 614.8570522119999 L 636.5639886899089 614.8570522119999 L 636.5639886899089 1039.5723380119998 L 620.2287853899088 1039.5723380119998 L 620.2287853899088 614.8570522119999" stroke-miterlimit="10" stroke-width="1.3612669416666667" stroke-dasharray=""/><path fill="white" stroke="black" paint-order="fill stroke markers" d=" M 793.388660461914 856.6180610519999 L 809.7238637619141 856.6180610519999 L 809.7238637619141 993.8337687719998 L 793.388660461914 993.8337687719998 L 793.388660461914 856.6180610519999" stroke-miterlimit="10" stroke-width="1.3612669416666667" stroke-dasharray=""/><path fill="white" stroke="black" paint-order="fill stroke markers" d=" M 933.1483890495442 902.3566302919999 L 949.4835923495443 902.3566302919999 L 949.4835923495443 948.0951995319998 L 933.1483890495442 948.0951995319998 L 933.1483890495442 902.3566302919999" stroke-miterlimit="10" stroke-width="1.3612669416666667" stroke-dasharray=""/><g><g><rect fill="white" stroke="none" x="139.68521480887372" y="162.371920802" width="180.89908088746094" height="21.23576429"/></g><text fill="black" stroke="none" font-family="sans-serif" font-size="11pt" font-style="normal" font-weight="normal" text-decoration="normal" x="142.1354953038737" y="177.07360377199998" text-anchor="start" dominant-baseline="alphabetic" xml:space="preserve">Click Create Combo button</text></g><g><path fill="none" stroke="black" paint-order="fill stroke markers" d=" M 73.50841485 183.607685092 L 373.3117782715417 183.607685092" stroke-miterlimit="10" stroke-width="1.3612669416666667" stroke-dasharray=""/><g transform="translate(386.76109565520835,183.607685092) translate(-386.76109565520835,-183.607685092)"><path fill="black" stroke="none" paint-order="stroke fill markers" d=" M 373.1484262385417 176.80135038366666 L 386.76109565520835 183.607685092 L 373.1484262385417 190.41401980033334 Z"/></g></g><g><g><rect fill="white" stroke="none" x="131.52845363944013" y="208.110490042" width="197.21260322632813" height="21.23576429"/></g><text fill="black" stroke="none" font-family="sans-serif" font-size="11pt" font-style="normal" font-weight="normal" text-decoration="normal" x="133.97873413444012" y="222.812173012" text-anchor="start" dominant-baseline="alphabetic" xml:space="preserve">Display Create Combo popup</text></g><g><path fill="none" stroke="black" paint-order="fill stroke markers" d=" M 386.76109565520835 229.346254332 L 86.95773223366666 229.346254332" stroke-miterlimit="10" stroke-width="1.3612669416666667" stroke-dasharray="6.53408132"/><g transform="translate(73.50841485,229.346254332) translate(-73.50841485,-229.346254332)"><path fill="black" stroke="none" paint-order="stroke fill markers" d=" M 87.12108426666666 222.53991962366666 L 73.50841485 229.346254332 L 87.12108426666666 236.15258904033334 Z"/></g></g><g><g><rect fill="white" stroke="none" x="139.68163662283857" y="253.849059282" width="180.90623725953125" height="21.23576429"/></g><text fill="black" stroke="none" font-family="sans-serif" font-size="11pt" font-style="normal" font-weight="normal" text-decoration="normal" x="142.13191711783855" y="268.550742252" text-anchor="start" dominant-baseline="alphabetic" xml:space="preserve">Type information of Combo</text></g><g><path fill="none" stroke="black" paint-order="fill stroke markers" d=" M 73.50841485 275.084823572 L 373.3117782715417 275.084823572" stroke-miterlimit="10" stroke-width="1.3612669416666667" stroke-dasharray=""/><g transform="translate(386.76109565520835,275.084823572) translate(-386.76109565520835,-275.084823572)"><path fill="black" stroke="none" paint-order="stroke fill markers" d=" M 373.1484262385417 268.27848886366667 L 386.76109565520835 275.084823572 L 373.1484262385417 281.89115828033334 Z"/></g></g><g><g><rect fill="white" stroke="none" x="430.593891176875" y="299.587628522" width="125.25842536988281" height="21.23576429"/></g><text fill="black" stroke="none" font-family="sans-serif" font-size="11pt" font-style="normal" font-weight="normal" text-decoration="normal" x="433.044171671875" y="314.28931149199997" text-anchor="start" dominant-baseline="alphabetic" xml:space="preserve">Validate input data</text></g><g><path fill="none" stroke="black" paint-order="fill stroke markers" d=" M 403.09629895520834 320.82339281199995 L 476.60471380520835 320.82339281199995 L 476.60471380520835 342.059157102 L 424.713217988875 342.059157102" stroke-miterlimit="10" stroke-width="1.3612669416666667" stroke-dasharray=""/><g transform="translate(411.26390060520833,342.059157102) translate(-411.26390060520833,-342.059157102)"><path fill="black" stroke="none" paint-order="stroke fill markers" d=" M 424.876570021875 335.25282239366663 L 411.26390060520833 342.059157102 L 424.876570021875 348.8654918103333 Z"/></g></g><g><g><rect fill="white" stroke="none" x="430.593891176875" y="366.56196205199996" width="95.90982307496094" height="21.23576429"/></g><text fill="black" stroke="none" font-family="sans-serif" font-size="11pt" font-style="normal" font-weight="normal" text-decoration="normal" x="433.044171671875" y="381.26364502199993" text-anchor="start" dominant-baseline="alphabetic" xml:space="preserve">Validate value</text></g><g><path fill="none" stroke="black" paint-order="fill stroke markers" d=" M 411.26390060520833 387.7977263419999 L 476.60471380520835 387.7977263419999 L 476.60471380520835 409.03349063199994 L 416.545616338875 409.03349063199994" stroke-miterlimit="10" stroke-width="1.3612669416666667" stroke-dasharray="6.53408132"/><g transform="translate(403.09629895520834,409.03349063199994) translate(-403.09629895520834,-409.03349063199994)"><path fill="black" stroke="none" paint-order="stroke fill markers" d=" M 416.708968371875 402.2271559236666 L 403.09629895520834 409.03349063199994 L 416.708968371875 415.8398253403333 Z"/></g></g><g><g><rect fill="white" stroke="none" x="169.96080379813154" y="477.6413444919999" width="120.34790290894531" height="21.23576429"/></g><text fill="black" stroke="none" font-family="sans-serif" font-size="11pt" font-style="normal" font-weight="normal" text-decoration="normal" x="172.41108429313152" y="492.3430274619999" text-anchor="start" dominant-baseline="alphabetic" xml:space="preserve">Validate Message</text></g><g><path fill="none" stroke="black" paint-order="fill stroke markers" d=" M 386.76109565520835 498.87710878199994 L 86.95773223366666 498.87710878199994" stroke-miterlimit="10" stroke-width="1.3612669416666667" stroke-dasharray="6.53408132"/><g transform="translate(73.50841485,498.87710878199994) translate(-73.50841485,-498.87710878199994)"><path fill="black" stroke="none" paint-order="stroke fill markers" d=" M 87.12108426666666 492.0707740736666 L 73.50841485 498.87710878199994 L 87.12108426666666 505.6834434903333 Z"/></g></g><g><g><rect fill="white" stroke="none" x="170.6444128069206" y="547.8827186819999" width="118.98068489136719" height="21.23576429"/></g><text fill="black" stroke="none" font-family="sans-serif" font-size="11pt" font-style="normal" font-weight="normal" text-decoration="normal" x="173.09469330192059" y="562.5844016519999" text-anchor="start" dominant-baseline="alphabetic" xml:space="preserve">Click button Save</text></g><g><path fill="none" stroke="black" paint-order="fill stroke markers" d=" M 73.50841485 569.1184829719999 L 373.3117782715417 569.1184829719999" stroke-miterlimit="10" stroke-width="1.3612669416666667" stroke-dasharray=""/><g transform="translate(386.76109565520835,569.1184829719999) translate(-386.76109565520835,-569.1184829719999)"><path fill="black" stroke="none" paint-order="stroke fill markers" d=" M 373.1484262385417 562.3121482636666 L 386.76109565520835 569.1184829719999 L 373.1484262385417 575.9248176803333 Z"/></g></g><g><g><rect fill="white" stroke="none" x="450.139256001289" y="593.6212879219999" width="123.04657234253906" height="21.23576429"/></g><text fill="black" stroke="none" font-family="sans-serif" font-size="11pt" font-style="normal" font-weight="normal" text-decoration="normal" x="452.58953649628904" y="608.3229708919998" text-anchor="start" dominant-baseline="alphabetic" xml:space="preserve">POST: /api/combo</text></g><g><path fill="none" stroke="black" paint-order="fill stroke markers" d=" M 403.09629895520834 614.8570522119999 L 606.7794680062422 614.8570522119999" stroke-miterlimit="10" stroke-width="1.3612669416666667" stroke-dasharray=""/><g transform="translate(620.2287853899088,614.8570522119999) translate(-620.2287853899088,-614.8570522119999)"><path fill="black" stroke="none" paint-order="stroke fill markers" d=" M 606.6161159732421 608.0507175036665 L 620.2287853899088 614.8570522119999 L 606.6161159732421 621.6633869203332 Z"/></g></g><g><g><rect fill="white" stroke="none" x="426.51009035187496" y="683.464906072" width="149.11673225464844" height="21.23576429"/></g><g><rect fill="white" stroke="none" x="426.51009035187496" y="699.800109372" width="170.3049036413672" height="21.23576429"/></g><text fill="red" stroke="none" font-family="sans-serif" font-size="11pt" font-style="normal" font-weight="normal" text-decoration="normal" x="428.960370846875" y="698.1665890419999" text-anchor="start" dominant-baseline="alphabetic" xml:space="preserve">400 BAD_REQUEST: </text><text fill="red" stroke="none" font-family="sans-serif" font-size="11pt" font-style="normal" font-weight="normal" text-decoration="normal" x="428.960370846875" y="714.5017923419999" text-anchor="start" dominant-baseline="alphabetic" xml:space="preserve">Missing required property</text></g><g><path fill="none" stroke="black" paint-order="fill stroke markers" d=" M 620.2287853899088 721.035873662 L 416.545616338875 721.035873662" stroke-miterlimit="10" stroke-width="1.3612669416666667" stroke-dasharray="6.53408132"/><g transform="translate(403.09629895520834,721.035873662) translate(-403.09629895520834,-721.035873662)"><path fill="black" stroke="none" paint-order="stroke fill markers" d=" M 416.708968371875 714.2295389536666 L 403.09629895520834 721.035873662 L 416.708968371875 727.8422083703333 Z"/></g></g><g><g><rect fill="white" stroke="none" x="161.68236141531904" y="745.5386786119999" width="136.90478767457031" height="21.23576429"/></g><text fill="black" stroke="none" font-family="sans-serif" font-size="11pt" font-style="normal" font-weight="normal" text-decoration="normal" x="164.13264191031902" y="760.2403615819999" text-anchor="start" dominant-baseline="alphabetic" xml:space="preserve">Message is required</text></g><g><path fill="none" stroke="black" paint-order="fill stroke markers" d=" M 386.76109565520835 766.7744429019999 L 86.95773223366666 766.7744429019999" stroke-miterlimit="10" stroke-width="1.3612669416666667" stroke-dasharray="6.53408132"/><g transform="translate(73.50841485,766.7744429019999) translate(-73.50841485,-766.7744429019999)"><path fill="black" stroke="none" paint-order="stroke fill markers" d=" M 87.12108426666666 759.9681081936666 L 73.50841485 766.7744429019999 L 87.12108426666666 773.5807776103333 Z"/></g></g><g><g><rect fill="white" stroke="none" x="692.1609928113802" y="835.3822967619999" width="45.6306635290625" height="21.23576429"/></g><text fill="black" stroke="none" font-family="sans-serif" font-size="11pt" font-style="normal" font-weight="normal" text-decoration="normal" x="694.6112733063802" y="850.0839797319999" text-anchor="start" dominant-baseline="alphabetic" xml:space="preserve">save()</text></g><g><path fill="none" stroke="black" paint-order="fill stroke markers" d=" M 636.5639886899089 856.6180610519999 L 779.9393430782474 856.6180610519999" stroke-miterlimit="10" stroke-width="1.3612669416666667" stroke-dasharray=""/><g transform="translate(793.388660461914,856.6180610519999) translate(-793.388660461914,-856.6180610519999)"><path fill="black" stroke="none" paint-order="stroke fill markers" d=" M 779.7759910452473 849.8117263436666 L 793.388660461914 856.6180610519999 L 779.7759910452473 863.4243957603333 Z"/></g></g><g><g><rect fill="white" stroke="none" x="848.6207946411979" y="881.1208660019998" width="45.6306635290625" height="21.23576429"/></g><text fill="black" stroke="none" font-family="sans-serif" font-size="11pt" font-style="normal" font-weight="normal" text-decoration="normal" x="851.0710751361979" y="895.8225489719998" text-anchor="start" dominant-baseline="alphabetic" xml:space="preserve">save()</text></g><g><path fill="none" stroke="black" paint-order="fill stroke markers" d=" M 809.7238637619141 902.3566302919999 L 919.6990716658776 902.3566302919999" stroke-miterlimit="10" stroke-width="1.3612669416666667" stroke-dasharray=""/><g transform="translate(933.1483890495442,902.3566302919999) translate(-933.1483890495442,-902.3566302919999)"><path fill="black" stroke="none" paint-order="stroke fill markers" d=" M 919.5357196328775 895.5502955836665 L 933.1483890495442 902.3566302919999 L 919.5357196328775 909.1629650003332 Z"/></g></g><g><g><rect fill="white" stroke="none" x="829.0538543335807" y="926.8594352419998" width="84.76454414429688" height="21.23576429"/></g><text fill="black" stroke="none" font-family="sans-serif" font-size="11pt" font-style="normal" font-weight="normal" text-decoration="normal" x="831.5041348285807" y="941.5611182119998" text-anchor="start" dominant-baseline="alphabetic" xml:space="preserve">Combo data</text></g><g><path fill="none" stroke="black" paint-order="fill stroke markers" d=" M 933.1483890495442 948.0951995319998 L 823.1731811455808 948.0951995319998" stroke-miterlimit="10" stroke-width="1.3612669416666667" stroke-dasharray="6.53408132"/><g transform="translate(809.7238637619141,948.0951995319998) translate(-809.7238637619141,-948.0951995319998)"><path fill="black" stroke="none" paint-order="stroke fill markers" d=" M 823.3365331785808 941.2888648236665 L 809.7238637619141 948.0951995319998 L 823.3365331785808 954.9015342403331 Z"/></g></g><g><g><rect fill="white" stroke="none" x="655.8939792615755" y="972.5980044819997" width="118.16469062867188" height="21.23576429"/></g><text fill="black" stroke="none" font-family="sans-serif" font-size="11pt" font-style="normal" font-weight="normal" text-decoration="normal" x="658.3442597565755" y="987.2996874519997" text-anchor="start" dominant-baseline="alphabetic" xml:space="preserve">New Combo data</text></g><g><path fill="none" stroke="black" paint-order="fill stroke markers" d=" M 793.388660461914 993.8337687719998 L 650.0133060735756 993.8337687719998" stroke-miterlimit="10" stroke-width="1.3612669416666667" stroke-dasharray="6.53408132"/><g transform="translate(636.5639886899089,993.8337687719998) translate(-636.5639886899089,-993.8337687719998)"><path fill="black" stroke="none" paint-order="stroke fill markers" d=" M 650.1766581065756 987.0274340636664 L 636.5639886899089 993.8337687719998 L 650.1766581065756 1000.6401034803331 Z"/></g></g><g><g><rect fill="white" stroke="none" x="445.8013806350781" y="1018.3365737219998" width="131.72232307496094" height="21.23576429"/></g><text fill="green" stroke="none" font-family="sans-serif" font-size="11pt" font-style="normal" font-weight="normal" text-decoration="normal" x="448.2516611300781" y="1033.0382566919998" text-anchor="start" dominant-baseline="alphabetic" xml:space="preserve">201 OK: CREATED</text></g><g><path fill="none" stroke="black" paint-order="fill stroke markers" d=" M 620.2287853899088 1039.5723380119998 L 416.545616338875 1039.5723380119998" stroke-miterlimit="10" stroke-width="1.3612669416666667" stroke-dasharray="6.53408132"/><g transform="translate(403.09629895520834,1039.5723380119998) translate(-403.09629895520834,-1039.5723380119998)"><path fill="black" stroke="none" paint-order="stroke fill markers" d=" M 416.708968371875 1032.7660033036666 L 403.09629895520834 1039.5723380119998 L 416.708968371875 1046.378672720333 Z"/></g></g><g><g><rect fill="white" stroke="none" x="92.83840542166668" y="1064.075142962" width="274.592699661875" height="21.23576429"/></g><text fill="black" stroke="none" font-family="sans-serif" font-size="11pt" font-style="normal" font-weight="normal" text-decoration="normal" x="95.28868591666668" y="1078.776825932" text-anchor="start" dominant-baseline="alphabetic" xml:space="preserve">Display Combo list table with new Combo</text></g><g><path fill="none" stroke="black" paint-order="fill stroke markers" d=" M 386.76109565520835 1085.3109072519999 L 86.95773223366666 1085.3109072519999" stroke-miterlimit="10" stroke-width="1.3612669416666667" stroke-dasharray="6.53408132"/><g transform="translate(73.50841485,1085.3109072519999) translate(-73.50841485,-1085.3109072519999)"><path fill="black" stroke="none" paint-order="stroke fill markers" d=" M 87.12108426666666 1078.5045725436667 L 73.50841485 1085.3109072519999 L 87.12108426666666 1092.117241960333 Z"/></g></g><g><g/><path fill="none" stroke="black" paint-order="fill stroke markers" d=" M 16.335203299999996 433.5362955819999 L 452.10190885520836 433.5362955819999 L 452.10190885520836 523.379913732 L 16.335203299999996 523.379913732 L 16.335203299999996 433.5362955819999 Z" stroke-miterlimit="10" stroke-width="2.3336004714285714" stroke-dasharray=""/><path fill="white" stroke="black" paint-order="fill stroke markers" d=" M 16.335203299999996 433.5362955819999 L 16.335203299999996 453.13853954199993 L 62.69440689707031 453.13853954199993 L 72.49552887707031 443.3374175619999 L 72.49552887707031 433.5362955819999 L 16.335203299999996 433.5362955819999" stroke-miterlimit="10" stroke-width="2.3336004714285714" stroke-dasharray=""/><text fill="black" stroke="none" font-family="sans-serif" font-size="8.8pt" font-style="normal" font-weight="bold" text-decoration="normal" x="32.67040659999999" y="446.60445822199995" text-anchor="start" dominant-baseline="alphabetic" xml:space="preserve">alt</text><g><rect fill="white" stroke="none" x="86.38045168207032" y="434.84311184599994" width="151.5138880163672" height="16.988611432000003"/></g><text fill="black" stroke="none" font-family="sans-serif" font-size="8.8pt" font-style="normal" font-weight="bold" text-decoration="normal" x="88.83073217707032" y="446.60445822199995" text-anchor="start" dominant-baseline="alphabetic" xml:space="preserve">[If the input data is wrong]</text></g><g><g/><path fill="none" stroke="black" paint-order="fill stroke markers" d=" M 16.335203299999996 639.3598571619999 L 998.4892022495443 639.3598571619999 L 998.4892022495443 1109.8137122019998 L 16.335203299999996 1109.8137122019998 L 16.335203299999996 639.3598571619999 Z" stroke-miterlimit="10" stroke-width="2.3336004714285714" stroke-dasharray=""/><path fill="white" stroke="black" paint-order="fill stroke markers" d=" M 16.335203299999996 639.3598571619999 L 16.335203299999996 658.9621011219999 L 62.69440689707031 658.9621011219999 L 72.49552887707031 649.1609791419999 L 72.49552887707031 639.3598571619999 L 16.335203299999996 639.3598571619999" stroke-miterlimit="10" stroke-width="2.3336004714285714" stroke-dasharray=""/><text fill="black" stroke="none" font-family="sans-serif" font-size="8.8pt" font-style="normal" font-weight="bold" text-decoration="normal" x="32.67040659999999" y="652.4280198019999" text-anchor="start" dominant-baseline="alphabetic" xml:space="preserve">alt</text><g><rect fill="white" stroke="none" x="86.38045168207032" y="640.6666734259999" width="244.7581049353125" height="16.988611432000003"/></g><text fill="black" stroke="none" font-family="sans-serif" font-size="8.8pt" font-style="normal" font-weight="bold" text-decoration="normal" x="88.83073217707032" y="652.4280198019999" text-anchor="start" dominant-baseline="alphabetic" xml:space="preserve">[If there is required field do not have value]</text><g><path fill="none" stroke="black" paint-order="fill stroke markers" d=" M 16.335203299999996 791.277247852 L 998.4892022495443 791.277247852" stroke-miterlimit="10" stroke-width="2.3336004714285714" stroke-dasharray="4.083800825"/></g><g/><g><rect fill="white" stroke="none" x="86.38045168207032" y="792.5840641159999" width="36.84300483765625" height="16.988611432000003"/></g><text fill="black" stroke="none" font-family="sans-serif" font-size="8.8pt" font-style="normal" font-weight="bold" text-decoration="normal" x="88.83073217707032" y="804.3454104919999" text-anchor="start" dominant-baseline="alphabetic" xml:space="preserve">[Else]</text></g><g/></g></g></svg>