<svg version="1.1" xmlns="http://www.w3.org/2000/svg" xmlns:xlink="http://www.w3.org/1999/xlink" width="1121" height="655"><desc>title%20Get%20Combo%20available%20for%20Curriculum%0A%0A%0Aactor%20%23green%3A0.5%20%22Workspace%20Admin%22%20as%20w%0Aboundary%20%22FUniverse%20Admin%20%5CnClient%22%20as%20f%0Acontrol%20%22Combo%20%5CnController%22%20as%20gc%0Aparticipant%20%22Combo%20%5CnService%22%20as%20gs%0Adatabase%20%23blue%3A1%20%22Database%22%20as%20db%0Aw-%3Ef%3AGo%20to%20Curriculum%20detail%20page%0Aactivate%20f%0Aw-%3Ef%3AClick%20Add%20Combo%20button%0Af-%3Egc%3AGET%3A%20%2Fapi%2Fcombo%2Fcurriculum%2Fnone%3Fid%3D%7Bid%7D%0Aactivate%20gc%0Agc-%3Egs%3A%20getAllComboAvailable(id)%0Aactivate%20gs%0A%0Ags-%3Edb%3AgetAllComboAvailable(id)%0Aactivate%20db%0Ags%3C--db%3ACombo%20list%0Adeactivate%20db%0Agc%3C--gs%3ACombo%20list%0Adeactivate%20gs%0Af%3C--gc%3A%3Ccolor%3A%23green%3E200%20OK%5CnResponse%20body%3A%20Combo%20list%3C%2Fcolor%3E%0Adeactivate%20gc%0Aw%3C--f%3ADisplay%20Add%20Combo%20%5Cninto%20Curriculum%20popup%0A%0Adeactivate%20f</desc><defs/><g><g/><g/><g/><g/><g/><g/><g/><g/><g/><g/><g/><g/><g/><g/><g/><g/><g/><g/><g/><g><rect fill="white" stroke="none" x="0" y="0" width="1121" height="655"/></g><g><text fill="black" stroke="none" font-family="sans-serif" font-size="16.5pt" font-style="normal" font-weight="normal" text-decoration="normal" x="385.69797896993816" y="24.50280495" text-anchor="start" dominant-baseline="alphabetic" xml:space="preserve">Get Combo available for Curriculum</text></g><g/><g><path fill="none" stroke="black" paint-order="fill stroke markers" d=" M 67.50902468466796 146.036717502 L 67.50902468466796 655.6950604620001" stroke-miterlimit="10" stroke-width="1.3612669416666667" stroke-dasharray="12.565541,5.445067766666667"/><path fill="none" stroke="black" paint-order="fill stroke markers" d=" M 305.83696094847005 146.036717502 L 305.83696094847005 655.6950604620001" stroke-miterlimit="10" stroke-width="1.3612669416666667" stroke-dasharray="12.565541,5.445067766666667"/><path fill="none" stroke="black" paint-order="fill stroke markers" d=" M 631.7956336278971 146.036717502 L 631.7956336278971 655.6950604620001" stroke-miterlimit="10" stroke-width="1.3612669416666667" stroke-dasharray="12.565541,5.445067766666667"/><path fill="none" stroke="black" paint-order="fill stroke markers" d=" M 856.0220065026367 146.036717502 L 856.0220065026367 655.6950604620001" stroke-miterlimit="10" stroke-width="1.3612669416666667" stroke-dasharray="12.565541,5.445067766666667"/><path fill="none" stroke="black" paint-order="fill stroke markers" d=" M 1080.2483793773763 146.036717502 L 1080.2483793773763 655.6950604620001" stroke-miterlimit="10" stroke-width="1.3612669416666667" stroke-dasharray="12.565541,5.445067766666667"/></g><g><g><path fill="white" stroke="green" paint-order="fill stroke markers" d=" M 76.82009056566797 76.93880754300004 A 9.311065881 9.311065881 0 1 1 76.8200859101354 76.92949647867087 M 67.50902468466796 86.24987342400003 L 67.50902468466796 106.17882145000003 M 55.747678308667965 93.43736287600004 L 79.27037106066797 93.43736287600004 M 67.50902468466796 106.17882145000003 L 55.747678308667965 124.80095321200002 M 67.50902468466796 106.17882145000003 L 79.27037106066797 124.80095321200002" stroke-miterlimit="10" stroke-width="1.3884922805000002" stroke-dasharray=""/></g><g><text fill="black" stroke="none" font-family="sans-serif" font-size="11pt" font-style="normal" font-weight="normal" text-decoration="normal" x="8.167601649999995" y="141.136156512" text-anchor="start" dominant-baseline="alphabetic" xml:space="preserve">Workspace Admin</text></g><g><path fill="white" stroke="black" paint-order="fill stroke markers" d=" M 338.26233949897005 82.819480731 A 24.2577769005 24.2577769005 0 1 1 338.26232737008263 82.79522295814245 M 274.80007467847 57.17321154999999 L 274.80007467847 108.465749912 M 273.41158239797005 82.819480731 L 289.74678569797004 82.819480731" stroke-miterlimit="10" stroke-width="2.7769845610000004" stroke-dasharray=""/></g><g><text fill="black" stroke="none" font-family="sans-serif" font-size="11pt" font-style="normal" font-weight="normal" text-decoration="normal" x="247.58715931272786" y="124.80095321200001" text-anchor="start" dominant-baseline="alphabetic" xml:space="preserve">FUniverse Admin </text><text fill="black" stroke="none" font-family="sans-serif" font-size="11pt" font-style="normal" font-weight="normal" text-decoration="normal" x="287.0968104968099" y="141.136156512" text-anchor="start" dominant-baseline="alphabetic" xml:space="preserve">Client</text></g><g><path fill="white" stroke="black" paint-order="fill stroke markers" d=" M 656.0534105283971 82.819480731 A 24.2577769005 24.2577769005 0 1 1 656.0533983995097 82.79522295814245 M 628.5285929678971 58.561703830499994 L 638.3297149478971 50.39410218049999 M 628.5285929678971 58.561703830499994 L 638.3297149478971 66.72930548049999" stroke-miterlimit="10" stroke-width="2.7769845610000004" stroke-dasharray=""/></g><g><text fill="black" stroke="none" font-family="sans-serif" font-size="11pt" font-style="normal" font-weight="normal" text-decoration="normal" x="606.1299231786784" y="124.80095321200001" text-anchor="start" dominant-baseline="alphabetic" xml:space="preserve">Combo </text><text fill="black" stroke="none" font-family="sans-serif" font-size="11pt" font-style="normal" font-weight="normal" text-decoration="normal" x="600.0204184789714" y="141.136156512" text-anchor="start" dominant-baseline="alphabetic" xml:space="preserve">Controller</text></g><path fill="none" stroke="none"/><g><path fill="white" stroke="black" paint-order="fill stroke markers" d=" M 812.6326004729179 85.75981732500003 L 899.4114125323555 85.75981732500003 L 899.4114125323555 146.03671750200002 L 812.6326004729179 146.03671750200002 L 812.6326004729179 85.75981732500003 Z" stroke-miterlimit="10" stroke-width="2.613632528" stroke-dasharray=""/></g><g><text fill="black" stroke="none" font-family="sans-serif" font-size="11pt" font-style="normal" font-weight="normal" text-decoration="normal" x="830.356296053418" y="113.366310902" text-anchor="start" dominant-baseline="alphabetic" xml:space="preserve">Combo </text><text fill="black" stroke="none" font-family="sans-serif" font-size="11pt" font-style="normal" font-weight="normal" text-decoration="normal" x="831.5803637414062" y="129.701514202" text-anchor="start" dominant-baseline="alphabetic" xml:space="preserve">Service</text></g><g><path fill="white" stroke="blue" paint-order="fill stroke markers" d=" M 1056.3989825593762 114.01971903400002 L 1056.3989825593762 79.71579210400003 L 1104.0977761953764 79.71579210400003 L 1104.0977761953764 114.01971903400002" stroke-miterlimit="10" stroke-width="2.7769845610000004" stroke-dasharray=""/><path fill="white" stroke="blue" paint-order="fill stroke markers" d=" M 1104.0977761953764 78.52332226310003 L 1104.0965837354727 78.63113280801664 L 1104.0930064750066 78.73893257196862 L 1104.0870447717011 78.84671077506938 L 1104.078699221722 78.95445663958843 L 1104.0679706596168 79.06215939102911 L 1104.054860158233 79.16980825920604 L 1104.0393690286096 79.27739247932207 L 1104.021498819847 79.38490129304488 L 1104.001251318951 79.49232394958268 L 1103.9786285506548 79.59964970675932 L 1103.9536327772164 79.70686783208855 L 1103.9262664981925 79.81396760384715 L 1103.8965324501878 79.92093831214721 L 1103.8644336065827 80.02776926000705 L 1103.8299731772345 80.13444976442089 L 1103.7931546081577 80.2409691574272 L 1103.7539815811786 80.34731678717546 L 1103.7124580135667 80.45348201899128 L 1103.6685880576447 80.55945423643999 L 1103.6223761003714 80.66522284238813 L 1103.573826762904 80.77077726006326 L 1103.522944900136 80.87610693411155 L 1103.469735600211 80.9812013316534 L 1103.4142041840148 81.08604994333662 L 1103.356356204643 81.19064228438741 L 1103.2961974468446 81.29496789565883 L 1103.233733926446 81.3990163446767 L 1103.168971889747 81.50277722668281 L 1103.1019178128968 81.60624016567543 L 1103.0325784012477 81.70939481544688 L 1102.9609605886833 81.81223086061816 L 1102.8870715369246 81.91473801767043 L 1102.8109186348154 82.0169060359734 L 1102.7325094975827 82.11872469881041 L 1102.6518519660747 82.22018382440001 L 1102.5689541059771 82.32127326691418 L 1102.4838242070073 82.42198291749291 L 1102.396470782084 82.52230270525509 L 1102.3069025664768 82.62222259830551 L 1102.2151285169325 82.72173260473815 L 1102.1211578107802 82.8208227736353 L 1102.0249998450117 82.91948319606263 L 1101.9266642353434 83.01770400606013 L 1101.8261608152548 83.11547538162863 L 1101.7234996350035 83.21278754571205 L 1101.6186909606224 83.3096307671751 L 1101.5117452728916 83.4059953617763 L 1101.4026732662908 83.50187169313652 L 1101.2914858479294 83.59725017370252 L 1101.1781941364568 83.69212126570572 L 1101.06280946095 83.78647548211597 L 1100.9453433597798 83.88030338759027 L 1100.825807579459 83.97359559941626 L 1100.7042140734657 84.0663427884505 L 1100.5805750010493 84.15853568005136 L 1100.4549027260139 84.25016505500653 L 1100.3272098154823 84.34122175045486 L 1100.1975090386395 84.43169666080269 L 1100.0658133654545 84.52158073863437 L 1099.9321359653852 84.61086499561704 L 1099.7964902060603 84.69954050339939 L 1099.6588896519424 84.78759839450454 L 1099.5193480629725 84.87502986321677 L 1099.3778793931933 84.96182616646205 L 1099.2344977893536 85.0479786246824 L 1099.0892175894942 85.13347862270378 L 1098.9420533215145 85.21831761059765 L 1098.7930197017183 85.30248710453591 L 1098.6421316333435 85.38597868763932 L 1098.4894042050712 85.46878401081914 L 1098.3348526895168 85.55089479361204 L 1098.1784925417032 85.6323028250082 L 1098.020339397515 85.71299996427229 L 1097.8604090721349 85.79297814175763 L 1097.6987175584616 85.87222935971315 L 1097.5352810255122 85.95074569308306 L 1097.3701158168037 86.02851929029947 L 1097.2032384487195 86.10554237406748 L 1097.034665608857 86.1818072421429 L 1096.8644141543598 86.25730626810244 L 1096.6925011102317 86.33203190210645 L 1096.5189436676337 86.4059766716538 L 1096.3437591821653 86.47913318232916 L 1096.1669651721293 86.55149411854241 L 1095.9885793167791 86.62305224426024 L 1095.808619454552 86.69380040372971 L 1095.6271035812838 86.76373152219381 L 1095.444049848411 86.832838606599 L 1095.2594765611539 86.90111474629441 L 1095.0734021766878 86.96855311372298 L 1094.8858453022958 87.03514696510413 L 1094.6968246935091 87.10088964110827 L 1094.5063592522313 87.16577456752255 L 1094.3144680248474 87.2297952559084 L 1094.1211702003206 87.29294530425035 L 1093.9264851082721 87.35521839759618 L 1093.730432217049 87.41660830868844 L 1093.5330311317769 87.47710889858719 L 1093.3343015923997 87.53671411728386 L 1093.134263471706 87.59541800430624 L 1092.932936773341 87.65321468931457 L 1092.7303416298068 87.71009839268848 L 1092.5264983004492 87.76606342610505 L 1092.3214271694308 87.82110419310759 L 1092.1151487436941 87.87521518966525 L 1091.9076836509098 87.92839100472347 L 1091.699052637414 87.98062632074506 L 1091.4892765661345 88.03191591424195 L 1091.2783764145036 88.08225465629752 L 1091.0663732723606 88.13163751307953 L 1090.853288339843 88.18005954634344 L 1090.6391429252665 88.22751591392628 L 1090.4239584429943 88.27400187023083 L 1090.2077564112951 88.31951276670023 L 1089.9905584501919 88.36404405228271 L 1089.7723862792998 88.40759127388685 L 1089.5532617156543 88.45015007682679 L 1089.333206671529 88.49171620525767 L 1089.112243152245 88.53228550260131 L 1088.89039325397 88.57185391196177 L 1088.6676791615089 88.6104174765311 L 1088.4441231460855 88.64797233998496 L 1088.2197475631149 88.68451474686832 L 1087.9945748499686 88.72004104297093 L 1087.7686275237302 88.75454767569279 L 1087.541928178944 88.7880311943994 L 1087.3144994853556 88.82048825076676 L 1087.086364185645 88.8519155991163 L 1086.8575450931514 88.88231009673936 L 1086.6280650895942 88.91166870421154 L 1086.3979471227822 88.93998848569652 L 1086.16721420432 88.96726660923976 L 1085.9358894073077 88.99350034705165 L 1085.7039958640319 89.01868707578028 L 1085.4715567636538 89.04282427677373 L 1085.2385953498897 89.06590953633204 L 1085.0051349186867 89.0879405459485 L 1084.7711988158937 89.10891510254048 L 1084.5368104349259 89.12883110866981 L 1084.301993214426 89.14768657275249 L 1084.0667706359202 89.1654796092578 L 1083.8311662214705 89.18220843889694 L 1083.5952035313223 89.19787138880088 L 1083.3589061615476 89.21246689268766 L 1083.1222977416865 89.22599349101908 L 1082.885401932384 89.23844983114658 L 1082.6482424230235 89.2498346674465 L 1082.4108429293583 89.26014686144474 L 1082.1732271911399 89.26938538193045 L 1081.9354189697442 89.27754930505931 L 1081.6974420457952 89.2846378144458 L 1081.4593202167869 89.29065020124489 L 1081.2210772947035 89.2955858642229 L 1080.9827371036392 89.29944430981766 L 1080.7443234774141 89.30222515218782 L 1080.5058602571926 89.30392811325146 L 1080.2673712890974 89.30455302271389 L 1080.028880421827 89.30409981808468 L 1079.790411504269 89.30256854468394 L 1079.5519883831168 89.29995935563771 L 1079.3136349004837 89.29627251186272 L 1079.0753748915195 89.29150838204029 L 1078.8372321820261 89.28566744257942 L 1078.5992305860764 89.2787502775692 L 1078.3613939036316 89.27075757872036 L 1078.1237459181616 89.26169014529611 L 1077.8863103942672 89.25154888403227 L 1077.6491110753025 89.24033480904649 L 1077.412171681002 89.22804904173692 L 1077.1755159051077 89.21469281067007 L 1076.939167413 89.2002674514579 L 1076.703149839331 89.18477440662434 L 1076.4674867856613 89.16821522546093 L 1076.2322018181003 89.15059156387198 L 1075.9973184649482 89.131905184209 L 1075.762860214345 89.11215795509437 L 1075.52885051192 89.09135185123453 L 1075.2953127584487 89.06948895322255 L 1075.0622703075117 89.04657144732998 L 1074.82974646316 89.02260162528835 L 1074.5977644775842 88.99758188405987 L 1074.3663475487895 88.97151472559781 L 1074.135518818276 88.94440275659629 L 1073.9053013687244 88.91624868822964 L 1073.675718221688 88.88705533588121 L 1073.4467923352897 88.85682561886193 L 1073.2185466019278 88.82556256011829 L 1072.991003845985 88.79326928593011 L 1072.7641868215478 88.75994902559792 L 1072.5381182101291 88.72560511111998 L 1072.3128206184022 88.6902409768591 L 1072.0883165759383 88.65386015919924 L 1071.8646285329544 88.61646629619187 L 1071.6417788580684 88.57806312719212 L 1071.4197898360624 88.53865449248488 L 1071.198683665653 88.49824433290078 L 1070.978482457274 88.4568366894221 L 1070.7592082308615 88.4144357027787 L 1070.5408829136563 88.3710456130339 L 1070.3235283380081 88.32667075916052 L 1070.107166239193 88.28131557860695 L 1069.8918182532407 88.23498460685347 L 1069.6775059147703 88.18768247695864 L 1069.4642506548373 88.13941391909603 L 1069.2520737987898 88.0901837600812 L 1069.0409965641365 88.03999692288905 L 1068.8310400584253 87.98885842616143 L 1068.6222252771313 87.93677338370544 L 1068.414573101559 87.88374700398191 L 1068.2081042967527 87.8297845895846 L 1068.0028395094212 87.77489153671002 L 1067.7987992658716 87.71907333461769 L 1067.5960039699587 87.66233556508129 L 1067.394473901043 87.60468390183053 L 1067.1942292119631 87.54612410998368 L 1066.9952899270218 87.4866620454711 L 1066.797675939981 87.42630365444973 L 1066.601407012075 87.36505497270832 L 1066.4065027700333 87.30292212506406 L 1066.2129827041172 87.2399113247499 L 1066.0208661661725 87.17602887279338 L 1065.8301723676927 87.11128115738646 L 1065.6409203778987 87.0456746532467 L 1065.4531291218318 86.97921592096989 L 1065.2668173784612 86.91191160637383 L 1065.0820037788058 86.84376843983392 L 1064.8987068040717 86.77479323561002 L 1064.7169447838035 86.70499289116506 L 1064.5367358940518 86.63437438647533 L 1064.3580981555556 86.56294478333245 L 1064.1810494319398 86.49071122463722 L 1064.005607427929 86.4176809336853 L 1063.8317896875774 86.34386121344494 L 1063.6596135925145 86.26925944582663 L 1063.4890963602063 86.19388309094498 L 1063.3202550422336 86.11773968637264 L 1063.1531065225877 86.04083684638665 L 1062.9876675159812 85.96318226120691 L 1062.8239545661772 85.88478369622722 L 1062.6619840443338 85.80564899123874 L 1062.5017721473685 85.72578605964603 L 1062.3433348963374 85.64520288767571 L 1062.1866881348337 85.5639075335778 L 1062.0318475274028 85.48190812681999 L 1061.8788285579765 85.3992128672746 L 1061.7276465283242 85.31583002439868 L 1061.5783165565229 85.23176793640704 L 1061.4308535754453 85.14703500943843 L 1061.285272331267 85.06163971671492 L 1061.1415873819903 84.97559059769462 L 1060.9998130959912 84.88889625721775 L 1060.8599636505796 84.80156536464608 L 1060.722053030584 84.71360665299612 L 1060.586095026951 84.62502891806572 L 1060.452103235368 84.53584101755456 L 1060.3200910549022 84.44605187017837 L 1060.190071686662 84.35567045477706 L 1060.0620581324754 84.26470580941687 L 1059.9360631935915 84.1731670304865 L 1059.812099469399 84.08106327178758 L 1059.6901793561674 83.98840374361924 L 1059.570315045806 83.89519771185707 L 1059.452518524646 83.80145449702657 L 1059.3368015722415 83.70718347337109 L 1059.2231757601915 83.61239406791447 L 1059.1116524509819 83.51709575951824 L 1059.0022427968513 83.42129807793384 L 1058.8949577386736 83.32501060284957 L 1058.7898080048653 83.22824296293274 L 1058.6868041103123 83.13100483486667 L 1058.585956355318 83.03330594238315 L 1058.487274824574 82.93515605529001 L 1058.390769386151 82.83656498849416 L 1058.2964496905124 82.73754260102014 L 1058.2043251695495 82.63809879502416 L 1058.1144050356374 82.53824351480395 L 1058.0266982807143 82.43798674580434 L 1057.941213675383 82.33733851361866 L 1057.8579597680327 82.23630888298626 L 1057.776944883985 82.13490795678602 L 1057.69817712466 82.03314587502607 L 1057.6216643667688 81.93103281382975 L 1057.547414261523 81.82857898441812 L 1057.4754342338713 81.72579463208872 L 1057.4057314817567 81.62269003519114 L 1057.338312975396 81.51927550409916 L 1057.273185456584 81.4155613801797 L 1057.2103554380183 81.3115580347587 L 1057.149829202648 81.20727586808408 L 1057.0916128030467 81.10272530828557 L 1057.0357120608053 80.99791681033204 L 1056.9821325659518 80.89286085498595 L 1056.9308796763912 80.78756794775528 L 1056.8819585173692 80.682048617843 L 1056.8353739809615 80.57631341709417 L 1056.7911307255824 80.47037291894078 L 1056.749233175521 80.36423771734434 L 1056.7096855204973 80.25791842573655 L 1056.6724917152437 80.15142567595801 L 1056.6376554791098 80.04477011719491 L 1056.6051802956902 79.9379624149143 L 1056.575069412476 79.83101324979734 L 1056.547325840531 79.72393331667146 L 1056.5219523541884 79.61673332344074 L 1056.4989514907766 79.50942399001515 L 1056.4783255503621 79.40201604723862 L 1056.460076595522 79.29452023581591 L 1056.4442064511366 79.18694730523859 L 1056.430716704207 79.07930801271009 L 1056.419608703697 78.97161312206994 L 1056.4108835603968 78.86387340271747 L 1056.4045421468138 78.75609962853483 L 1056.400585097084 78.64830257680963 L 1056.3990128069095 78.5404930271572 L 1056.3998254335174 78.43268176044268 L 1056.403022895646 78.32487955770289 L 1056.4086048735517 78.21709719906826 L 1056.4165708090413 78.10934546268486 L 1056.4269199055282 78.00163512363652 L 1056.4396511281109 77.89397695286739 L 1056.454763203678 77.78638171610483 L 1056.4722546210346 77.67886017278285 L 1056.4921236310533 77.57142307496619 L 1056.5143682468502 77.4640811662751 L 1056.5389862439815 77.35684518081099 L 1056.5659751606686 77.24972584208304 L 1056.595332298042 77.14273386193588 L 1056.6270547204124 77.03587993947833 L 1056.6611392555642 76.92917476001364 L 1056.6975824950723 76.82262899397078 L 1056.736380794643 76.7162532958376 L 1056.7775302744787 76.61005830309527 L 1056.8210268196658 76.50405463515456 L 1056.8668660805859 76.39825289229391 L 1056.915043473351 76.29266365459947 L 1056.9655541802622 76.187297480907 L 1057.0183931502909 76.08216490774608 L 1057.073555099584 75.97727644828639 L 1057.1310345119925 75.87264259128648 L 1057.1908256396234 75.76827380004487 L 1057.2529225034134 75.66418051135369 L 1057.3173188937278 75.56037313445508 L 1057.3840083709815 75.45686205000021 L 1057.4529842662823 75.3536576090113 L 1057.5242396820981 75.2507701318464 L 1057.5977674929468 75.1482099071675 L 1057.6735603461084 75.04598719091162 L 1057.751610662361 74.9441122052652 L 1057.8319106367376 74.84259513764188 L 1057.914452239308 74.74144613966385 L 1057.999227215981 74.6406753261466 L 1058.0862270893288 74.54029277408755 L 1058.1754431594372 74.4403085216582 L 1058.2668665047731 74.34073256720049 L 1058.3604879830787 74.24157486822689 L 1058.4562982322839 74.14284534042467 L 1058.5542876714435 74.04455385666434 L 1058.6544465016952 73.94671024601234 L 1058.7567647072397 73.84932429274824 L 1058.8612320563416 73.75240573538618 L 1058.967838102353 73.65596426570113 L 1059.0765721847583 73.56000952775972 L 1059.1874234302397 73.46455111695575 L 1059.300380753765 73.36959857905077 L 1059.415432859696 73.27516140921944 L 1059.5325682429182 73.18124905110005 L 1059.6517751899908 73.08787089585014 L 1059.7730417803182 72.99503628120743 L 1059.8963558873425 72.90275449055602 L 1060.021705179756 72.81103475199808 L 1060.1490771227336 72.71988623743101 L 1060.2784589791875 72.62931806163034 L 1060.4098378110396 72.53933928133816 L 1060.5432004805161 72.44995889435752 L 1060.6785336514615 72.36118583865263 L 1060.8158237906714 72.2730289914551 L 1060.9550571692462 72.18549716837617 L 1061.096219863964 72.0985991225252 L 1061.2392977586733 72.01234354363439 L 1061.3842765457034 71.9267390571897 L 1061.5311417272967 71.84179422356848 L 1061.6798786170573 71.7575175371833 L 1061.8304723414203 71.67391742563255 L 1061.9829078411385 71.59100224885773 L 1062.1371698727894 71.50878029830743 L 1062.293243010298 71.42725979610816 L 1062.451111646481 71.34644889424223 L 1062.6107599946058 71.26635567373248 L 1062.772172089971 71.18698814383421 L 1062.9353317915013 71.10835424123428 L 1063.100222783363 71.03046182925742 L 1063.266828576594 70.95331869707991 L 1063.4351325107536 70.8769325589507 L 1063.605117755589 70.80131105341991 L 1063.7767673127173 70.72646174257511 L 1063.9500640173255 70.65239211128501 L 1064.1249905398881 70.579109566451 L 1064.3015293878982 70.5066214362665 L 1064.4796629076184 70.43493496948412 L 1064.6593732858448 70.3640573346908 L 1064.8406425516898 70.29399561959096 L 1065.0234525783776 70.22475683029771 L 1065.2077850850578 70.1563478906323 L 1065.3936216386335 70.08877564143168 L 1065.580943655604 70.02204683986446 L 1065.769732403924 69.9561681587552 L 1065.9599690048758 69.8911461859171 L 1066.151634434958 69.82698742349325 L 1066.344709527787 69.76369828730645 L 1066.5391749760147 69.70128510621757 L 1066.7350113332582 69.6397541214927 L 1066.9321990160452 69.57911148617904 L 1067.1307183057713 69.51936326448958 L 1067.3305493506732 69.46051543119673 L 1067.5316721678132 69.40257387103475 L 1067.7340666450768 69.34554437811137 L 1067.937712543185 69.28943265532837 L 1068.1425894977178 69.23424431381126 L 1068.3486770211505 69.1799848723482 L 1068.5559545049025 69.12665975683814 L 1068.764401221398 69.07427429974817 L 1068.973996326139 69.02283373958036 L 1069.18471885979 68.97234322034787 L 1069.3965477502732 68.9228077910605 L 1069.6094618148757 68.87423240521996 L 1069.8234397623687 68.82662192032431 L 1070.038460195136 68.77998109738239 L 1070.2545016113131 68.73431460043761 L 1070.4715424069389 68.68962699610162 L 1070.689560878114 68.64592275309762 L 1070.9085352231737 68.60320624181347 L 1071.1284435448654 68.56148173386472 L 1071.3492638525406 68.52075340166739 L 1071.5709740643522 68.48102531802076 L 1071.793552009464 68.44230145570006 L 1072.0169754302672 68.4045856870593 L 1072.2412219846053 68.36788178364388 L 1072.4662692480103 68.33219341581358 L 1072.692094715943 68.29752415237542 L 1072.918675806045 68.26387746022687 L 1073.1459898603962 68.23125670400908 L 1073.3740141477804 68.19966514577052 L 1073.6027258659587 68.16910594464068 L 1073.8321021439504 68.1395821565142 L 1074.0621200443184 68.11109673374527 L 1074.2927565654645 68.08365252485247 L 1074.523988643929 68.05725227423379 L 1074.7557931566964 68.03189862189231 L 1074.9881469235088 68.00759410317211 L 1075.221026709183 67.98434114850484 L 1075.4544092259346 67.96214208316657 L 1075.6882711357061 67.94099912704533 L 1075.922589052502 67.92091439441914 L 1076.1573395447256 67.9018898937445 L 1076.3924991375231 67.88392752745563 L 1076.6280443151315 67.86702909177419 L 1076.8639515232292 67.85119627652966 L 1077.100197171292 67.8364306649904 L 1077.3367576349517 67.82273373370522 L 1077.5736092583595 67.81010685235586 L 1077.81072835655 67.79855128361993 L 1078.0480912178116 67.78806818304466 L 1078.2856741060552 67.77865859893137 L 1078.5234532631907 67.77032347223066 L 1078.7614049115 67.76306363644822 L 1078.9995052560168 67.75687981756161 L 1079.2377304869049 67.75177263394752 L 1079.4760567818398 67.74774259632011 L 1079.714460308391 67.74479010767975 L 1079.9529172264038 67.74291546327285 L 1080.1914036903856 67.74211885056229 L 1080.4298958518887 67.74240034920868 L 1080.6683698618956 67.74375993106239 L 1080.906801873204 67.74619746016636 L 1081.1451680428113 67.74971269276972 L 1081.3834445342998 67.75430527735213 L 1081.621607520218 67.75997475465897 L 1081.8596331844667 67.76672055774722 L 1082.0974977246772 67.7745420120422 L 1082.335177354594 67.78343833540501 L 1082.5726483064518 67.7934086382107 L 1082.8098868333539 67.80445192343733 L 1083.046869211645 67.81656708676556 L 1083.2835717432845 67.82975291668915 L 1083.5199707582167 67.84400809463611 L 1083.7560426167372 67.85933119510051 L 1083.991763711857 67.87572068578508 L 1084.2271104716626 67.89317492775442 L 1084.4620593616744 67.91169217559886 L 1084.6965868871994 67.93127057760906 L 1084.93066959568 67.95190817596112 L 1085.1642840790407 67.97360290691242 L 1085.397406976028 67.99635260100793 L 1085.630014974546 68.0201549832972 L 1085.862084813989 68.04500767356186 L 1086.0935932875666 68.07090818655355 L 1086.3245172446238 68.0978539322426 L 1086.5548335929582 68.12584221607686 L 1086.784519301126 68.15487023925128 L 1087.0135514007484 68.18493509898775 L 1087.241906988806 68.21603378882533 L 1087.4695632299306 68.24816319892096 L 1087.6964973586873 68.2813201163604 L 1087.9226866818528 68.31550122547955 L 1088.148108580683 68.35070310819597 L 1088.372740513176 68.38692224435073 L 1088.5965600163256 68.42415501206038 L 1088.819544708368 68.4623976880792 L 1089.0416722910202 68.50164644817144 L 1089.2629205517087 68.5418973674938 L 1089.4832673657918 68.5831464209879 L 1089.7026906987717 68.62538948378277 L 1089.9211686084982 68.66862233160731 L 1090.138679247362 68.71284064121278 L 1090.3552008644808 68.75803999080506 L 1090.5707118078733 68.80421586048686 L 1090.7851905266245 68.8513636327097 L 1090.9986155730414 68.89947859273563 L 1091.2109656047974 68.94855592910876 L 1091.422219387066 68.99859073413636 L 1091.6323557946453 69.04957800437958 L 1091.8413538140694 69.10151264115393 L 1092.0491925457104 69.15438945103898 L 1092.2558512058688 69.20820314639782 L 1092.4613091288504 69.26294834590577 L 1092.6655457690345 69.31861957508848 L 1092.8685407029268 69.37521126686941 L 1093.0702736312035 69.43271776212659 L 1093.2707243807395 69.49113331025838 L 1093.4698729066272 69.55045206975865 L 1093.6676992941798 69.6106681088009 L 1093.8641837609234 69.67177540583138 L 1094.059306658575 69.73376785017133 L 1094.2530484750077 69.79663924262796 L 1094.4453898362012 69.86038329611443 L 1094.6363115081797 69.92499363627851 L 1094.825794398935 69.99046380214003 L 1095.0138195603358 70.05678724673693 L 1095.2003681900228 70.12395733778007 L 1095.3854216332886 70.19196735831628 L 1095.568961384943 70.2608105074002 L 1095.7509690911636 70.33047990077428 L 1095.9314265513315 70.40096857155726 L 1096.1103157198513 70.47226947094077 L 1096.2876187079553 70.54437546889432 L 1096.4633177854919 70.61727935487819 L 1096.6373953827003 70.69097383856453 L 1096.8098340919655 70.7654515505664 L 1096.9806166695605 70.84070504317464 L 1097.1497260373699 70.91672679110272 L 1097.3171452845975 70.99350919223919 L 1097.4828576694583 71.07104456840791 L 1097.646846620852 71.14932516613591 L 1097.80909574002 71.22834315742861 L 1097.9695888021856 71.30809064055276 L 1098.1283097581763 71.38855964082649 L 1098.285242736029 71.46974211141682 L 1098.4403720425764 71.55162993414437 L 1098.593682165017 71.6342149202951 L 1098.7451577724669 71.71748881143918 L 1098.894783717491 71.80144328025693 L 1099.04254503762 71.88606993137142 L 1099.1884269568443 71.97136030218806 L 1099.3324148870943 72.05730586374082 L 1099.4744944296963 72.14389802154521 L 1099.6146513768151 72.23112811645758 L 1099.7528717128723 72.31898742554114 L 1099.8891416159497 72.40746716293819 L 1100.0234474591705 72.49655848074872 L 1100.1557758120623 72.58625246991521 L 1100.2861134419 72.67654016111346 L 1100.4144473150293 72.76741252564963 L 1100.54076459817 72.85886047636295 L 1100.6650526596986 72.95087486853458 L 1100.7872990709131 73.04344650080199 L 1100.9074916072739 73.13656611607907 L 1101.0256182496273 73.2302244024819 L 1101.141667185408 73.32441199425989 L 1101.255626809819 73.41911947273236 L 1101.3674857269925 73.51433736723038 L 1101.4772327511305 73.61005615604385 L 1101.5848569076215 73.70626626737365 L 1101.69034743414 73.80295808028882 L 1101.7936937817212 73.90012192568864 L 1101.894885615816 73.99774808726954 L 1101.993912817326 74.09582680249675 L 1102.090765483613 74.19434826358044 L 1102.1854339294914 74.29330261845661 L 1102.2779086881953 74.39267997177224 L 1102.368180512326 74.49247038587482 L 1102.4562403747764 74.59266388180609 L 1102.5420794696336 74.69325044029995 L 1102.6256892130593 74.79422000278437 L 1102.7070612441494 74.89556247238725 L 1102.7861874257683 74.99726771494608 L 1102.8630598453638 75.09932556002136 L 1102.9376708157579 75.20172580191361 L 1103.010012875916 75.304458200684 L 1103.0800787916921 75.40751248317825 L 1103.1478615565532 75.510878344054 L 1103.2133543922791 75.61454544681129 L 1103.276550749641 75.71850342482624 L 1103.3374443090556 75.82274188238767 L 1103.396028981218 75.9272503957367 L 1103.4522989077097 76.03201851410908 L 1103.506248461585 76.13703576078028 L 1103.5578722479331 76.24229163411314 L 1103.607165104419 76.34777560860806 L 1103.6541221017974 76.45347713595547 L 1103.6987385444083 76.55938564609073 L 1103.7410099706444 76.66549054825109 L 1103.7809321533982 76.77178123203474 L 1103.8185011004848 76.87824706846187 L 1103.853713055041 76.98487741103759 L 1103.8865644959003 77.09166159681648 L 1103.917052137946 77.19858894746895 L 1103.9451729324398 77.30564877034905 L 1103.9709240673253 77.41283035956369 L 1103.9943029675103 77.52012299704329 L 1104.0153072951248 77.62751595361348 L 1104.0339349497528 77.73499849006812 L 1104.0501840686452 77.84255985824313 L 1104.0640530269031 77.95018930209135 L 1104.0755404376423 78.05787605875803 L 1104.0846451521315 78.16560935965728 L 1104.0913662599066 78.27337843154879 L 1104.0957030888628 78.38117249761517 L 1104.0976552053203 78.48898077853964 M 1104.0977761953764 112.82724919310002 L 1104.0965837354727 112.93505973801663 L 1104.0930064750066 113.04285950196861 L 1104.0870447717011 113.15063770506937 L 1104.078699221722 113.25838356958842 L 1104.0679706596168 113.3660863210291 L 1104.054860158233 113.47373518920602 L 1104.0393690286096 113.58131940932206 L 1104.021498819847 113.68882822304487 L 1104.001251318951 113.79625087958267 L 1103.9786285506548 113.90357663675931 L 1103.9536327772164 114.01079476208854 L 1103.9262664981925 114.11789453384714 L 1103.8965324501878 114.2248652421472 L 1103.8644336065827 114.33169619000704 L 1103.8299731772345 114.43837669442088 L 1103.7931546081577 114.54489608742719 L 1103.7539815811786 114.65124371717545 L 1103.7124580135667 114.75740894899127 L 1103.6685880576447 114.86338116643998 L 1103.6223761003714 114.96914977238812 L 1103.573826762904 115.07470419006324 L 1103.522944900136 115.18003386411154 L 1103.469735600211 115.28512826165338 L 1103.4142041840148 115.38997687333661 L 1103.356356204643 115.4945692143874 L 1103.2961974468446 115.59889482565882 L 1103.233733926446 115.70294327467668 L 1103.168971889747 115.8067041566828 L 1103.1019178128968 115.91016709567542 L 1103.0325784012477 116.01332174544687 L 1102.9609605886833 116.11615779061815 L 1102.8870715369246 116.21866494767042 L 1102.8109186348154 116.3208329659734 L 1102.7325094975827 116.4226516288104 L 1102.6518519660747 116.5241107544 L 1102.5689541059771 116.62520019691416 L 1102.4838242070073 116.7259098474929 L 1102.396470782084 116.82622963525507 L 1102.3069025664768 116.9261495283055 L 1102.2151285169325 117.02565953473814 L 1102.1211578107802 117.12474970363529 L 1102.0249998450117 117.22341012606262 L 1101.9266642353434 117.32163093606012 L 1101.8261608152548 117.41940231162862 L 1101.7234996350035 117.51671447571204 L 1101.6186909606224 117.61355769717508 L 1101.5117452728916 117.7099222917763 L 1101.4026732662908 117.80579862313651 L 1101.2914858479294 117.90117710370251 L 1101.1781941364568 117.99604819570571 L 1101.06280946095 118.09040241211596 L 1100.9453433597798 118.18423031759026 L 1100.825807579459 118.27752252941625 L 1100.7042140734657 118.37026971845049 L 1100.5805750010493 118.46246261005135 L 1100.4549027260139 118.55409198500652 L 1100.3272098154823 118.64514868045485 L 1100.1975090386395 118.73562359080267 L 1100.0658133654545 118.82550766863436 L 1099.9321359653852 118.91479192561702 L 1099.7964902060603 119.00346743339938 L 1099.6588896519424 119.09152532450453 L 1099.5193480629725 119.17895679321676 L 1099.3778793931933 119.26575309646203 L 1099.2344977893536 119.35190555468239 L 1099.0892175894942 119.43740555270377 L 1098.9420533215145 119.52224454059764 L 1098.7930197017183 119.6064140345359 L 1098.6421316333435 119.68990561763931 L 1098.4894042050712 119.77271094081912 L 1098.3348526895168 119.85482172361203 L 1098.1784925417032 119.93622975500818 L 1098.020339397515 120.01692689427227 L 1097.8604090721349 120.09690507175762 L 1097.6987175584616 120.17615628971313 L 1097.5352810255122 120.25467262308305 L 1097.3701158168037 120.33244622029946 L 1097.2032384487195 120.40946930406747 L 1097.034665608857 120.48573417214288 L 1096.8644141543598 120.56123319810243 L 1096.6925011102317 120.63595883210644 L 1096.5189436676337 120.70990360165379 L 1096.3437591821653 120.78306011232915 L 1096.1669651721293 120.8554210485424 L 1095.9885793167791 120.92697917426023 L 1095.808619454552 120.9977273337297 L 1095.6271035812838 121.0676584521938 L 1095.444049848411 121.13676553659899 L 1095.2594765611539 121.2050416762944 L 1095.0734021766878 121.27248004372296 L 1094.8858453022958 121.33907389510412 L 1094.6968246935091 121.40481657110826 L 1094.5063592522313 121.46970149752254 L 1094.3144680248474 121.53372218590839 L 1094.1211702003206 121.59687223425034 L 1093.9264851082721 121.65914532759616 L 1093.730432217049 121.72053523868843 L 1093.5330311317769 121.78103582858718 L 1093.3343015923997 121.84064104728385 L 1093.134263471706 121.89934493430623 L 1092.932936773341 121.95714161931456 L 1092.7303416298068 122.01402532268847 L 1092.5264983004492 122.06999035610504 L 1092.3214271694308 122.12503112310758 L 1092.1151487436941 122.17914211966524 L 1091.9076836509098 122.23231793472345 L 1091.699052637414 122.28455325074505 L 1091.4892765661345 122.33584284424194 L 1091.2783764145036 122.38618158629751 L 1091.0663732723606 122.43556444307951 L 1090.853288339843 122.48398647634343 L 1090.6391429252665 122.53144284392627 L 1090.4239584429943 122.57792880023082 L 1090.2077564112951 122.62343969670022 L 1089.9905584501919 122.6679709822827 L 1089.7723862792998 122.71151820388684 L 1089.5532617156543 122.75407700682678 L 1089.333206671529 122.79564313525766 L 1089.112243152245 122.8362124326013 L 1088.89039325397 122.87578084196176 L 1088.6676791615089 122.91434440653109 L 1088.4441231460855 122.95189926998495 L 1088.2197475631149 122.9884416768683 L 1087.9945748499686 123.02396797297092 L 1087.7686275237302 123.05847460569278 L 1087.541928178944 123.09195812439938 L 1087.3144994853556 123.12441518076675 L 1087.086364185645 123.15584252911628 L 1086.8575450931514 123.18623702673935 L 1086.6280650895942 123.21559563421152 L 1086.3979471227822 123.2439154156965 L 1086.16721420432 123.27119353923975 L 1085.9358894073077 123.29742727705164 L 1085.7039958640319 123.32261400578027 L 1085.4715567636538 123.34675120677372 L 1085.2385953498897 123.36983646633203 L 1085.0051349186867 123.39186747594849 L 1084.7711988158937 123.41284203254047 L 1084.5368104349259 123.4327580386698 L 1084.301993214426 123.45161350275248 L 1084.0667706359202 123.46940653925779 L 1083.8311662214705 123.48613536889692 L 1083.5952035313223 123.50179831880087 L 1083.3589061615476 123.51639382268765 L 1083.1222977416865 123.52992042101907 L 1082.885401932384 123.54237676114657 L 1082.6482424230235 123.5537615974465 L 1082.4108429293583 123.56407379144473 L 1082.1732271911399 123.57331231193044 L 1081.9354189697442 123.5814762350593 L 1081.6974420457952 123.58856474444579 L 1081.4593202167869 123.59457713124488 L 1081.2210772947035 123.59951279422289 L 1080.9827371036392 123.60337123981765 L 1080.7443234774141 123.6061520821878 L 1080.5058602571926 123.60785504325145 L 1080.2673712890974 123.60847995271388 L 1080.028880421827 123.60802674808467 L 1079.790411504269 123.60649547468392 L 1079.5519883831168 123.6038862856377 L 1079.3136349004837 123.60019944186271 L 1079.0753748915195 123.59543531204028 L 1078.8372321820261 123.58959437257941 L 1078.5992305860764 123.58267720756919 L 1078.3613939036316 123.57468450872035 L 1078.1237459181616 123.5656170752961 L 1077.8863103942672 123.55547581403226 L 1077.6491110753025 123.54426173904648 L 1077.412171681002 123.53197597173691 L 1077.1755159051077 123.51861974067006 L 1076.939167413 123.50419438145789 L 1076.703149839331 123.48870133662433 L 1076.4674867856613 123.47214215546092 L 1076.2322018181003 123.45451849387197 L 1075.9973184649482 123.43583211420899 L 1075.762860214345 123.41608488509436 L 1075.52885051192 123.39527878123452 L 1075.2953127584487 123.37341588322253 L 1075.0622703075117 123.35049837732997 L 1074.82974646316 123.32652855528833 L 1074.5977644775842 123.30150881405986 L 1074.3663475487895 123.2754416555978 L 1074.135518818276 123.24832968659628 L 1073.9053013687244 123.22017561822963 L 1073.675718221688 123.1909822658812 L 1073.4467923352897 123.16075254886192 L 1073.2185466019278 123.12948949011827 L 1072.991003845985 123.0971962159301 L 1072.7641868215478 123.06387595559791 L 1072.5381182101291 123.02953204111996 L 1072.3128206184022 122.99416790685909 L 1072.0883165759383 122.95778708919923 L 1071.8646285329544 122.92039322619186 L 1071.6417788580684 122.88199005719211 L 1071.4197898360624 122.84258142248487 L 1071.198683665653 122.80217126290077 L 1070.978482457274 122.7607636194221 L 1070.7592082308615 122.71836263277869 L 1070.5408829136563 122.67497254303389 L 1070.3235283380081 122.63059768916051 L 1070.107166239193 122.58524250860694 L 1069.8918182532407 122.53891153685346 L 1069.6775059147703 122.49160940695863 L 1069.4642506548373 122.44334084909602 L 1069.2520737987898 122.39411069008119 L 1069.0409965641365 122.34392385288903 L 1068.8310400584253 122.29278535616142 L 1068.6222252771313 122.24070031370543 L 1068.414573101559 122.1876739339819 L 1068.2081042967527 122.1337115195846 L 1068.0028395094212 122.07881846671 L 1067.7987992658716 122.02300026461768 L 1067.5960039699587 121.96626249508128 L 1067.394473901043 121.90861083183052 L 1067.1942292119631 121.85005103998367 L 1066.9952899270218 121.7905889754711 L 1066.797675939981 121.73023058444971 L 1066.601407012075 121.66898190270831 L 1066.4065027700333 121.60684905506405 L 1066.2129827041172 121.54383825474989 L 1066.0208661661725 121.47995580279337 L 1065.8301723676927 121.41520808738645 L 1065.6409203778987 121.3496015832467 L 1065.4531291218318 121.28314285096988 L 1065.2668173784612 121.21583853637382 L 1065.0820037788058 121.14769536983391 L 1064.8987068040717 121.07872016561001 L 1064.7169447838035 121.00891982116505 L 1064.5367358940518 120.93830131647532 L 1064.3580981555556 120.86687171333244 L 1064.1810494319398 120.79463815463721 L 1064.005607427929 120.72160786368529 L 1063.8317896875774 120.64778814344493 L 1063.6596135925145 120.57318637582662 L 1063.4890963602063 120.49781002094497 L 1063.3202550422336 120.42166661637263 L 1063.1531065225877 120.34476377638664 L 1062.9876675159812 120.2671091912069 L 1062.8239545661772 120.1887106262272 L 1062.6619840443338 120.10957592123873 L 1062.5017721473685 120.02971298964601 L 1062.3433348963374 119.9491298176757 L 1062.1866881348337 119.8678344635778 L 1062.0318475274028 119.78583505681998 L 1061.8788285579765 119.70313979727459 L 1061.7276465283242 119.61975695439867 L 1061.5783165565229 119.53569486640703 L 1061.4308535754453 119.45096193943841 L 1061.285272331267 119.36556664671491 L 1061.1415873819903 119.27951752769461 L 1060.9998130959912 119.19282318721774 L 1060.8599636505796 119.10549229464607 L 1060.722053030584 119.01753358299611 L 1060.586095026951 118.92895584806571 L 1060.452103235368 118.83976794755455 L 1060.3200910549022 118.74997880017835 L 1060.190071686662 118.65959738477704 L 1060.0620581324754 118.56863273941686 L 1059.9360631935915 118.47709396048649 L 1059.812099469399 118.38499020178757 L 1059.6901793561674 118.29233067361923 L 1059.570315045806 118.19912464185705 L 1059.452518524646 118.10538142702656 L 1059.3368015722415 118.01111040337108 L 1059.2231757601915 117.91632099791445 L 1059.1116524509819 117.82102268951823 L 1059.0022427968513 117.72522500793383 L 1058.8949577386736 117.62893753284956 L 1058.7898080048653 117.53216989293273 L 1058.6868041103123 117.43493176486666 L 1058.585956355318 117.33723287238314 L 1058.487274824574 117.23908298529 L 1058.390769386151 117.14049191849415 L 1058.2964496905124 117.04146953102013 L 1058.2043251695495 116.94202572502415 L 1058.1144050356374 116.84217044480394 L 1058.0266982807143 116.74191367580433 L 1057.941213675383 116.64126544361865 L 1057.8579597680327 116.54023581298625 L 1057.776944883985 116.43883488678601 L 1057.69817712466 116.33707280502605 L 1057.6216643667688 116.23495974382973 L 1057.547414261523 116.1325059144181 L 1057.4754342338713 116.02972156208871 L 1057.4057314817567 115.92661696519113 L 1057.338312975396 115.82320243409914 L 1057.273185456584 115.71948831017968 L 1057.2103554380183 115.61548496475869 L 1057.149829202648 115.51120279808407 L 1057.0916128030467 115.40665223828556 L 1057.0357120608053 115.30184374033203 L 1056.9821325659518 115.19678778498594 L 1056.9308796763912 115.09149487775527 L 1056.8819585173692 114.98597554784298 L 1056.8353739809615 114.88024034709416 L 1056.7911307255824 114.77429984894077 L 1056.749233175521 114.66816464734433 L 1056.7096855204973 114.56184535573654 L 1056.6724917152437 114.455352605958 L 1056.6376554791098 114.3486970471949 L 1056.6051802956902 114.24188934491428 L 1056.575069412476 114.13494017979733 L 1056.547325840531 114.02786024667145 L 1056.5219523541884 113.92066025344073 L 1056.4989514907766 113.81335092001514 L 1056.4783255503621 113.7059429772386 L 1056.460076595522 113.5984471658159 L 1056.4442064511366 113.49087423523858 L 1056.430716704207 113.38323494271008 L 1056.419608703697 113.27554005206993 L 1056.4108835603968 113.16780033271746 L 1056.4045421468138 113.06002655853482 L 1056.400585097084 112.95222950680962 L 1056.3990128069095 112.84441995715719" stroke-miterlimit="10" stroke-width="2.7769845610000004" stroke-dasharray=""/></g><g><text fill="black" stroke="none" font-family="sans-serif" font-size="11pt" font-style="normal" font-weight="normal" text-decoration="normal" x="1048.8704344310872" y="141.136156512" text-anchor="start" dominant-baseline="alphabetic" xml:space="preserve">Database</text></g></g><g><path fill="white" stroke="black" paint-order="fill stroke markers" d=" M 297.66935929847006 199.942888392 L 314.00456259847005 199.942888392 L 314.00456259847005 598.5218489120001 L 297.66935929847006 598.5218489120001 L 297.66935929847006 199.942888392" stroke-miterlimit="10" stroke-width="1.3612669416666667" stroke-dasharray=""/><path fill="white" stroke="black" paint-order="fill stroke markers" d=" M 623.6280319778971 291.420026872 L 639.9632352778972 291.420026872 L 639.9632352778972 536.4480763720001 L 623.6280319778971 536.4480763720001 L 623.6280319778971 291.420026872" stroke-miterlimit="10" stroke-width="1.3612669416666667" stroke-dasharray=""/><path fill="white" stroke="black" paint-order="fill stroke markers" d=" M 847.8544048526367 337.158596112 L 864.1896081526368 337.158596112 L 864.1896081526368 474.374303832 L 847.8544048526367 474.374303832 L 847.8544048526367 337.158596112" stroke-miterlimit="10" stroke-width="1.3612669416666667" stroke-dasharray=""/><path fill="white" stroke="black" paint-order="fill stroke markers" d=" M 1072.0807777273762 382.897165352 L 1088.4159810273763 382.897165352 L 1088.4159810273763 428.635734592 L 1072.0807777273762 428.635734592 L 1072.0807777273762 382.897165352" stroke-miterlimit="10" stroke-width="1.3612669416666667" stroke-dasharray=""/><g><g><rect fill="white" stroke="none" x="86.83901525633463" y="178.707124102" width="191.50035347046875" height="21.23576429"/></g><text fill="black" stroke="none" font-family="sans-serif" font-size="11pt" font-style="normal" font-weight="normal" text-decoration="normal" x="89.28929575133463" y="193.40880707199997" text-anchor="start" dominant-baseline="alphabetic" xml:space="preserve">Go to Curriculum detail page</text></g><g><path fill="none" stroke="black" paint-order="fill stroke markers" d=" M 67.50902468466796 199.942888392 L 284.2200419148034 199.942888392" stroke-miterlimit="10" stroke-width="1.3612669416666667" stroke-dasharray=""/><g transform="translate(297.66935929847006,199.942888392) translate(-297.66935929847006,-199.942888392)"><path fill="black" stroke="none" paint-order="stroke fill markers" d=" M 284.0566898818034 193.13655368366665 L 297.66935929847006 199.942888392 L 284.0566898818034 206.74922310033332 Z"/></g></g><g><g><rect fill="white" stroke="none" x="101.09813238279948" y="224.445693342" width="162.98211921753906" height="21.23576429"/></g><text fill="black" stroke="none" font-family="sans-serif" font-size="11pt" font-style="normal" font-weight="normal" text-decoration="normal" x="103.54841287779948" y="239.14737631199998" text-anchor="start" dominant-baseline="alphabetic" xml:space="preserve">Click Add Combo button</text></g><g><path fill="none" stroke="black" paint-order="fill stroke markers" d=" M 67.50902468466796 245.681457632 L 284.2200419148034 245.681457632" stroke-miterlimit="10" stroke-width="1.3612669416666667" stroke-dasharray=""/><g transform="translate(297.66935929847006,245.681457632) translate(-297.66935929847006,-245.681457632)"><path fill="black" stroke="none" paint-order="stroke fill markers" d=" M 284.0566898818034 238.87512292366665 L 297.66935929847006 245.681457632 L 284.0566898818034 252.48779234033333 Z"/></g></g><g><g><rect fill="white" stroke="none" x="333.3345531701367" y="270.184262582" width="270.9634882360937" height="21.23576429"/></g><text fill="black" stroke="none" font-family="sans-serif" font-size="11pt" font-style="normal" font-weight="normal" text-decoration="normal" x="335.7848336651367" y="284.88594555199995" text-anchor="start" dominant-baseline="alphabetic" xml:space="preserve">GET: /api/combo/curriculum/none?id={id}</text></g><g><path fill="none" stroke="black" paint-order="fill stroke markers" d=" M 314.00456259847005 291.420026872 L 610.1787145942304 291.420026872" stroke-miterlimit="10" stroke-width="1.3612669416666667" stroke-dasharray=""/><g transform="translate(623.6280319778971,291.420026872) translate(-623.6280319778971,-291.420026872)"><path fill="black" stroke="none" paint-order="stroke fill markers" d=" M 610.0153625612304 284.61369216366666 L 623.6280319778971 291.420026872 L 610.0153625612304 298.22636158033333 Z"/></g></g><g><g><rect fill="white" stroke="none" x="659.2932258495638" y="315.922831822" width="169.23118843140625" height="21.23576429"/></g><text fill="black" stroke="none" font-family="sans-serif" font-size="11pt" font-style="normal" font-weight="normal" text-decoration="normal" x="661.7435063445638" y="330.62451479199996" text-anchor="start" dominant-baseline="alphabetic" xml:space="preserve">getAllComboAvailable(id)</text></g><g><path fill="none" stroke="black" paint-order="fill stroke markers" d=" M 639.9632352778972 337.158596112 L 834.40508746897 337.158596112" stroke-miterlimit="10" stroke-width="1.3612669416666667" stroke-dasharray=""/><g transform="translate(847.8544048526367,337.158596112) translate(-847.8544048526367,-337.158596112)"><path fill="black" stroke="none" paint-order="stroke fill markers" d=" M 834.24173543597 330.35226140366666 L 847.8544048526367 337.158596112 L 834.24173543597 343.96493082033334 Z"/></g></g><g><g><rect fill="white" stroke="none" x="883.5195987243034" y="361.661401062" width="169.23118843140625" height="21.23576429"/></g><text fill="black" stroke="none" font-family="sans-serif" font-size="11pt" font-style="normal" font-weight="normal" text-decoration="normal" x="885.9698792193034" y="376.36308403199996" text-anchor="start" dominant-baseline="alphabetic" xml:space="preserve">getAllComboAvailable(id)</text></g><g><path fill="none" stroke="black" paint-order="fill stroke markers" d=" M 864.1896081526368 382.897165352 L 1058.6314603437095 382.897165352" stroke-miterlimit="10" stroke-width="1.3612669416666667" stroke-dasharray=""/><g transform="translate(1072.0807777273762,382.897165352) translate(-1072.0807777273762,-382.897165352)"><path fill="black" stroke="none" paint-order="stroke fill markers" d=" M 1058.4681083107096 376.09083064366666 L 1072.0807777273762 382.897165352 L 1058.4681083107096 389.70350006033334 Z"/></g></g><g><g><rect fill="white" stroke="none" x="931.0607287902213" y="407.399970302" width="74.14892829957031" height="21.23576429"/></g><text fill="black" stroke="none" font-family="sans-serif" font-size="11pt" font-style="normal" font-weight="normal" text-decoration="normal" x="933.5110092852213" y="422.10165327199996" text-anchor="start" dominant-baseline="alphabetic" xml:space="preserve">Combo list</text></g><g><path fill="none" stroke="black" paint-order="fill stroke markers" d=" M 1072.0807777273762 428.635734592 L 877.6389255363034 428.635734592" stroke-miterlimit="10" stroke-width="1.3612669416666667" stroke-dasharray="6.53408132"/><g transform="translate(864.1896081526368,428.635734592) translate(-864.1896081526368,-428.635734592)"><path fill="black" stroke="none" paint-order="stroke fill markers" d=" M 877.8022775693034 421.82939988366667 L 864.1896081526368 428.635734592 L 877.8022775693034 435.44206930033334 Z"/></g></g><g><g><rect fill="white" stroke="none" x="706.8343559154818" y="453.138539542" width="74.14892829957031" height="21.23576429"/></g><text fill="black" stroke="none" font-family="sans-serif" font-size="11pt" font-style="normal" font-weight="normal" text-decoration="normal" x="709.2846364104818" y="467.84022251199997" text-anchor="start" dominant-baseline="alphabetic" xml:space="preserve">Combo list</text></g><g><path fill="none" stroke="black" paint-order="fill stroke markers" d=" M 847.8544048526367 474.374303832 L 653.4125526615638 474.374303832" stroke-miterlimit="10" stroke-width="1.3612669416666667" stroke-dasharray="6.53408132"/><g transform="translate(639.9632352778972,474.374303832) translate(-639.9632352778972,-474.374303832)"><path fill="black" stroke="none" paint-order="stroke fill markers" d=" M 653.5759046945639 467.56796912366667 L 639.9632352778972 474.374303832 L 653.5759046945639 481.18063854033335 Z"/></g></g><g><g><rect fill="white" stroke="none" x="376.731113839082" y="498.87710878200005" width="54.61422981324219" height="21.23576429"/></g><g><rect fill="white" stroke="none" x="376.731113839082" y="515.212312082" width="184.17036689820313" height="21.23576429"/></g><text fill="green" stroke="none" font-family="sans-serif" font-size="11pt" font-style="normal" font-weight="normal" text-decoration="normal" x="379.18139433408203" y="513.578791752" text-anchor="start" dominant-baseline="alphabetic" xml:space="preserve">200 OK</text><text fill="green" stroke="none" font-family="sans-serif" font-size="11pt" font-style="normal" font-weight="normal" text-decoration="normal" x="379.18139433408203" y="529.913995052" text-anchor="start" dominant-baseline="alphabetic" xml:space="preserve">Response body: Combo list</text></g><g><path fill="none" stroke="black" paint-order="fill stroke markers" d=" M 623.6280319778971 536.4480763720001 L 327.4538799821367 536.4480763720001" stroke-miterlimit="10" stroke-width="1.3612669416666667" stroke-dasharray="6.53408132"/><g transform="translate(314.00456259847005,536.4480763720001) translate(-314.00456259847005,-536.4480763720001)"><path fill="black" stroke="none" paint-order="stroke fill markers" d=" M 327.6172320151367 529.6417416636667 L 314.00456259847005 536.4480763720001 L 327.6172320151367 543.2544110803334 Z"/></g></g><g><g><rect fill="white" stroke="none" x="108.43171239988932" y="560.9508813220001" width="138.52972663941406" height="21.23576429"/></g><g><rect fill="white" stroke="none" x="108.43171239988932" y="577.2860846220001" width="148.31495918335938" height="21.23576429"/></g><text fill="black" stroke="none" font-family="sans-serif" font-size="11pt" font-style="normal" font-weight="normal" text-decoration="normal" x="110.88199289488932" y="575.6525642920001" text-anchor="start" dominant-baseline="alphabetic" xml:space="preserve">Display Add Combo </text><text fill="black" stroke="none" font-family="sans-serif" font-size="11pt" font-style="normal" font-weight="normal" text-decoration="normal" x="110.88199289488932" y="591.9877675920001" text-anchor="start" dominant-baseline="alphabetic" xml:space="preserve">into Curriculum popup</text></g><g><path fill="none" stroke="black" paint-order="fill stroke markers" d=" M 297.66935929847006 598.5218489120001 L 80.95834206833463 598.5218489120001" stroke-miterlimit="10" stroke-width="1.3612669416666667" stroke-dasharray="6.53408132"/><g transform="translate(67.50902468466796,598.5218489120001) translate(-67.50902468466796,-598.5218489120001)"><path fill="black" stroke="none" paint-order="stroke fill markers" d=" M 81.12169410133463 591.7155142036668 L 67.50902468466796 598.5218489120001 L 81.12169410133463 605.3281836203334 Z"/></g></g></g></g></svg>