<svg version="1.1" xmlns="http://www.w3.org/2000/svg" xmlns:xlink="http://www.w3.org/1999/xlink" width="1234" height="1478"><desc>title%20Edit%20Combo%20in%20Curriculum%0A%0A%0Aactor%20%23green%3A0.5%20%22Workspace%20Admin%22%20as%20w%0Aboundary%20%22FUniverse%20Admin%20%5CnClient%22%20as%20f%0Acontrol%20%22Search%20Controller%22%20as%20ss%0Acontrol%20%22Curriculum%20Controller%22%20as%20gc%0Aparticipant%20%22Curriculum%20Service%22%20as%20gs%0Aparticipant%20%22Combo%20Service%22%20as%20cs%0Adatabase%20%23blue%3A1%20%22Database%22%20as%20db%0Aw-%3Ef%3AGo%20to%20Curriculum%20detail%20page%0Aactivate%20f%0Aw%3C--f%3ADisplay%20Curriculum%20detail%20page%0Aw-%3Ef%3AClick%20Edit%20icon%20in%20Combos%20table%0Af-%3Ess%3AGET%5Cn%2Fapi%2Fsearch%3Fentity%3Dcombo%5Cn%26%7BparamToSearch%7D%0Aactivate%20ss%0Af%3C--ss%3ACombo%20data%0Adeactivate%20ss%0Aw%3C--f%3ADisplay%20Edit%20Combo%20%5Cnin%20Curriculum%20popup%0Aw-%3Ef%3AUpdate%20semester%20%5Cninformation%20and%20click%20Save%0Af-%3Egc%3APUT%3A%2Fapi%2Fcurriculum%2F%7Bid%7D%2Fcombos%0Aactivate%20gc%0Agc-%3Egs%3Aget(id)%0Aactivate%20gs%0Ags-%3Edb%3A%20get(id)%0Aactivate%20db%0Ags%3C--db%3ACurriculum%20data%0Adeactivate%20db%0Agc%3C--gs%3A%20Curriculum%20data%0Adeactivate%20gs%0Agc-%3Egc%3A%20Check%20Curriculum%20%5CnisEmpty()%0Aactivate%20gc%0Agc%3C--gc%3A%20Boolean%20value%0Adeactivate%20gc%0Aalt%20If%20Curriculum%20empty%0A%0Af%3C--gc%3A%3Ccolor%3A%23red%3E404%20NOT%20FOUND%3C%2Fcolor%3E%0A%0Aw%3C--f%3A%20Display%20404%20Not%20Found%20screen%0Aelse%0Agc-%3Ecs%3Aupdate()%0Aactivate%20cs%0Acs-%3Edb%3Aupdate()%0Aactivate%20db%0Acs%3C--db%3A%20Combo%5Cndata%0Adeactivate%20db%0Agc%3C--cs%3ACombo%20data%0Adeactivate%20cs%0Af%3C--gc%3A%3Ccolor%3A%23green%3E200%20OK%5CnResponse%20body%3ACombo%20data%0Adeactivate%20gc%0Aw%3C--f%3A%20Display%20Curriculum%20detail%20page%0Adeactivate%20f%0Aend%20</desc><defs/><g><g/><g/><g/><g/><g/><g/><g/><g/><g/><g/><g/><g/><g/><g/><g/><g/><g/><g/><g/><g/><g/><g/><g/><g/><g/><g/><g/><g/><g/><g/><g/><g/><g/><g/><g/><g/><g/><g><rect fill="white" stroke="none" x="0" y="0" width="1234" height="1478"/></g><g><text fill="black" stroke="none" font-family="sans-serif" font-size="16.5pt" font-style="normal" font-weight="normal" text-decoration="normal" x="491.988273363149" y="24.50280495" text-anchor="start" dominant-baseline="alphabetic" xml:space="preserve">Edit Combo in Curriculum</text></g><g/><g><path fill="none" stroke="black" paint-order="fill stroke markers" d=" M 73.50841485 137.869115852 L 73.50841485 1478.9893067819996" stroke-miterlimit="10" stroke-width="1.3612669416666667" stroke-dasharray="12.565541,5.445067766666667"/><path fill="none" stroke="black" paint-order="fill stroke markers" d=" M 327.3051926665364 137.869115852 L 327.3051926665364 1478.9893067819996" stroke-miterlimit="10" stroke-width="1.3612669416666667" stroke-dasharray="12.565541,5.445067766666667"/><path fill="none" stroke="black" paint-order="fill stroke markers" d=" M 554.6668652238932 137.869115852 L 554.6668652238932 1478.9893067819996" stroke-miterlimit="10" stroke-width="1.3612669416666667" stroke-dasharray="12.565541,5.445067766666667"/><path fill="none" stroke="black" paint-order="fill stroke markers" d=" M 697.2833185238932 137.869115852 L 697.2833185238932 1478.9893067819996" stroke-miterlimit="10" stroke-width="1.3612669416666667" stroke-dasharray="12.565541,5.445067766666667"/><path fill="none" stroke="black" paint-order="fill stroke markers" d=" M 872.2994411368488 137.869115852 L 872.2994411368488 1478.9893067819996" stroke-miterlimit="10" stroke-width="1.3612669416666667" stroke-dasharray="12.565541,5.445067766666667"/><path fill="none" stroke="black" paint-order="fill stroke markers" d=" M 1036.1005902853487 137.869115852 L 1036.1005902853487 1478.9893067819996" stroke-miterlimit="10" stroke-width="1.3612669416666667" stroke-dasharray="12.565541,5.445067766666667"/><path fill="none" stroke="black" paint-order="fill stroke markers" d=" M 1152.937248976298 137.869115852 L 1152.937248976298 1478.9893067819996" stroke-miterlimit="10" stroke-width="1.3612669416666667" stroke-dasharray="12.565541,5.445067766666667"/></g><g><g><path fill="white" stroke="green" paint-order="fill stroke markers" d=" M 82.819480731 68.771205893 A 9.311065881 9.311065881 0 1 1 82.81947607546743 68.76189482867083 M 73.50841485 78.082271774 L 73.50841485 98.0112198 M 61.747068473999995 85.269761226 L 85.26976122599999 85.269761226 M 73.50841485 98.0112198 L 61.747068473999995 116.633351562 M 73.50841485 98.0112198 L 85.26976122599999 116.633351562" stroke-miterlimit="10" stroke-width="1.3884922805000002" stroke-dasharray=""/></g><g><text fill="black" stroke="none" font-family="sans-serif" font-size="11pt" font-style="normal" font-weight="normal" text-decoration="normal" x="14.166991815332025" y="132.968554862" text-anchor="start" dominant-baseline="alphabetic" xml:space="preserve">Workspace Admin</text></g><g><path fill="white" stroke="black" paint-order="fill stroke markers" d=" M 359.7305712170364 74.65187908099998 A 24.2577769005 24.2577769005 0 1 1 359.730559088149 74.62762130814242 M 296.2683063965364 49.00560989999997 L 296.2683063965364 100.29814826199998 M 294.8798141160364 74.65187908099998 L 311.2150174160364 74.65187908099998" stroke-miterlimit="10" stroke-width="2.7769845610000004" stroke-dasharray=""/></g><g><text fill="black" stroke="none" font-family="sans-serif" font-size="11pt" font-style="normal" font-weight="normal" text-decoration="normal" x="269.0553910307942" y="116.63335156199999" text-anchor="start" dominant-baseline="alphabetic" xml:space="preserve">FUniverse Admin </text><text fill="black" stroke="none" font-family="sans-serif" font-size="11pt" font-style="normal" font-weight="normal" text-decoration="normal" x="308.56504221487626" y="132.968554862" text-anchor="start" dominant-baseline="alphabetic" xml:space="preserve">Client</text></g><g><path fill="white" stroke="black" paint-order="fill stroke markers" d=" M 578.9246421243931 90.987082381 A 24.2577769005 24.2577769005 0 1 1 578.9246299955057 90.96282460814244 M 551.3998245638932 66.72930548049999 L 561.2009465438931 58.56170383049999 M 551.3998245638932 66.72930548049999 L 561.2009465438931 74.89690713049998" stroke-miterlimit="10" stroke-width="2.7769845610000004" stroke-dasharray=""/></g><g><text fill="black" stroke="none" font-family="sans-serif" font-size="11pt" font-style="normal" font-weight="normal" text-decoration="normal" x="497.6303890886393" y="132.968554862" text-anchor="start" dominant-baseline="alphabetic" xml:space="preserve">Search Controller</text></g><g><path fill="white" stroke="black" paint-order="fill stroke markers" d=" M 721.5410954243931 90.987082381 A 24.2577769005 24.2577769005 0 1 1 721.5410832955057 90.96282460814244 M 694.0162778638932 66.72930548049999 L 703.8173998438931 58.56170383049999 M 694.0162778638932 66.72930548049999 L 703.8173998438931 74.89690713049998" stroke-miterlimit="10" stroke-width="2.7769845610000004" stroke-dasharray=""/></g><g><text fill="black" stroke="none" font-family="sans-serif" font-size="11pt" font-style="normal" font-weight="normal" text-decoration="normal" x="628.0385446591471" y="132.968554862" text-anchor="start" dominant-baseline="alphabetic" xml:space="preserve">Curriculum Controller</text></g><path fill="none" stroke="none"/><g><path fill="white" stroke="black" paint-order="fill stroke markers" d=" M 792.664544079298 93.92741897500001 L 951.9343381943996 93.92741897500001 L 951.9343381943996 137.869115852 L 792.664544079298 137.869115852 L 792.664544079298 93.92741897500001 Z" stroke-miterlimit="10" stroke-width="2.613632528" stroke-dasharray=""/></g><g><text fill="black" stroke="none" font-family="sans-serif" font-size="11pt" font-style="normal" font-weight="normal" text-decoration="normal" x="810.388239659798" y="121.53391255200002" text-anchor="start" dominant-baseline="alphabetic" xml:space="preserve">Curriculum Service</text></g><path fill="none" stroke="none"/><g><path fill="white" stroke="black" paint-order="fill stroke markers" d=" M 968.2695414943995 93.92741897500001 L 1103.9316390762979 93.92741897500001 L 1103.9316390762979 137.869115852 L 968.2695414943995 137.869115852 L 968.2695414943995 93.92741897500001 Z" stroke-miterlimit="10" stroke-width="2.613632528" stroke-dasharray=""/></g><g><text fill="black" stroke="none" font-family="sans-serif" font-size="11pt" font-style="normal" font-weight="normal" text-decoration="normal" x="985.9932370748995" y="121.53391255200002" text-anchor="start" dominant-baseline="alphabetic" xml:space="preserve">Combo Service</text></g><g><path fill="white" stroke="blue" paint-order="fill stroke markers" d=" M 1129.087852158298 105.852117384 L 1129.087852158298 71.54819045400001 L 1176.786645794298 71.54819045400001 L 1176.786645794298 105.852117384" stroke-miterlimit="10" stroke-width="2.7769845610000004" stroke-dasharray=""/><path fill="white" stroke="blue" paint-order="fill stroke markers" d=" M 1176.786645794298 70.3557206131 L 1176.7854533343943 70.46353115801662 L 1176.7818760739283 70.5713309219686 L 1176.7759143706228 70.67910912506936 L 1176.7675688206436 70.7868549895884 L 1176.7568402585384 70.89455774102909 L 1176.7437297571546 71.00220660920601 L 1176.7282386275313 71.10979082932205 L 1176.7103684187687 71.21729964304485 L 1176.6901209178727 71.32472229958266 L 1176.6674981495764 71.4320480567593 L 1176.642502376138 71.53926618208853 L 1176.6151360971141 71.64636595384712 L 1176.5854020491095 71.75333666214719 L 1176.5533032055043 71.86016761000703 L 1176.5188427761561 71.96684811442087 L 1176.4820242070793 72.07336750742718 L 1176.4428511801002 72.17971513717544 L 1176.4013276124883 72.28588036899126 L 1176.3574576565663 72.39185258643997 L 1176.311245699293 72.49762119238811 L 1176.2626963618256 72.60317561006323 L 1176.2118144990577 72.70850528411152 L 1176.1586051991326 72.81359968165337 L 1176.1030737829365 72.9184482933366 L 1176.0452258035646 73.02304063438739 L 1175.9850670457663 73.1273662456588 L 1175.9226035253675 73.23141469467667 L 1175.8578414886686 73.33517557668279 L 1175.7907874118184 73.43863851567541 L 1175.7214480001694 73.54179316544686 L 1175.649830187605 73.64462921061813 L 1175.5759411358463 73.74713636767041 L 1175.499788233737 73.84930438597338 L 1175.4213790965043 73.95112304881039 L 1175.3407215649963 74.05258217439999 L 1175.2578237048988 74.15367161691415 L 1175.172693805929 74.25438126749289 L 1175.0853403810056 74.35470105525506 L 1174.9957721653984 74.45462094830549 L 1174.9039981158542 74.55413095473813 L 1174.810027409702 74.65322112363528 L 1174.7138694439334 74.7518815460626 L 1174.615533834265 74.8501023560601 L 1174.5150304141764 74.9478737316286 L 1174.4123692339251 75.04518589571202 L 1174.307560559544 75.14202911717507 L 1174.2006148718133 75.23839371177628 L 1174.0915428652124 75.3342700431365 L 1173.980355446851 75.4296485237025 L 1173.8670637353785 75.5245196157057 L 1173.7516790598715 75.61887383211595 L 1173.6342129587015 75.71270173759025 L 1173.5146771783807 75.80599394941623 L 1173.3930836723873 75.89874113845048 L 1173.269444599971 75.99093403005133 L 1173.1437723249355 76.08256340500651 L 1173.016079414404 76.17362010045484 L 1172.8863786375612 76.26409501080266 L 1172.7546829643761 76.35397908863435 L 1172.6210055643069 76.44326334561701 L 1172.485359804982 76.53193885339937 L 1172.347759250864 76.61999674450452 L 1172.2082176618942 76.70742821321674 L 1172.066748992115 76.79422451646202 L 1171.9233673882752 76.88037697468238 L 1171.7780871884158 76.96587697270375 L 1171.6309229204362 77.05071596059763 L 1171.48188930064 77.13488545453589 L 1171.3310012322652 77.2183770376393 L 1171.1782738039929 77.30118236081911 L 1171.0237222884384 77.38329314361202 L 1170.867362140625 77.46470117500817 L 1170.7092089964367 77.54539831427226 L 1170.5492786710565 77.6253764917576 L 1170.3875871573832 77.70462770971312 L 1170.2241506244338 77.78314404308304 L 1170.0589854157254 77.86091764029945 L 1169.8921080476412 77.93794072406746 L 1169.7235352077787 78.01420559214287 L 1169.5532837532814 78.08970461810242 L 1169.3813707091533 78.16443025210643 L 1169.2078132665554 78.23837502165378 L 1169.032628781087 78.31153153232914 L 1168.855834771051 78.38389246854238 L 1168.6774489157008 78.45545059426021 L 1168.4974890534736 78.52619875372969 L 1168.3159731802054 78.59612987219379 L 1168.1329194473326 78.66523695659897 L 1167.9483461600755 78.73351309629439 L 1167.7622717756094 78.80095146372295 L 1167.5747149012175 78.86754531510411 L 1167.3856942924308 78.93328799110824 L 1167.195228851153 78.99817291752252 L 1167.003337623769 79.06219360590838 L 1166.8100397992423 79.12534365425033 L 1166.6153547071938 79.18761674759615 L 1166.4193018159706 79.24900665868842 L 1166.2219007306985 79.30950724858717 L 1166.0231711913214 79.36911246728384 L 1165.8231330706276 79.42781635430622 L 1165.6218063722627 79.48561303931454 L 1165.4192112287285 79.54249674268846 L 1165.215367899371 79.59846177610503 L 1165.0102967683524 79.65350254310756 L 1164.8040183426158 79.70761353966523 L 1164.5965532498315 79.76078935472344 L 1164.3879222363357 79.81302467074504 L 1164.1781461650562 79.86431426424193 L 1163.9672460134252 79.9146530062975 L 1163.7552428712822 79.9640358630795 L 1163.5421579387646 80.01245789634342 L 1163.3280125241881 80.05991426392626 L 1163.112828041916 80.10640022023081 L 1162.8966260102168 80.1519111167002 L 1162.6794280491135 80.19644240228268 L 1162.4612558782214 80.23998962388683 L 1162.242131314576 80.28254842682676 L 1162.0220762704507 80.32411455525765 L 1161.8011127511666 80.36468385260129 L 1161.5792628528916 80.40425226196174 L 1161.3565487604305 80.44281582653107 L 1161.1329927450072 80.48037068998494 L 1160.9086171620365 80.5169130968683 L 1160.6834444488902 80.55243939297091 L 1160.4574971226518 80.58694602569277 L 1160.2307977778657 80.62042954439937 L 1160.0033690842772 80.65288660076673 L 1159.7752337845666 80.68431394911627 L 1159.546414692073 80.71470844673934 L 1159.3169346885159 80.74406705421151 L 1159.0868167217038 80.7723868356965 L 1158.8560838032417 80.79966495923973 L 1158.6247590062294 80.82589869705163 L 1158.3928654629535 80.85108542578025 L 1158.1604263625754 80.8752226267737 L 1157.9274649488113 80.89830788633202 L 1157.6940045176084 80.92033889594848 L 1157.4600684148154 80.94131345254046 L 1157.2256800338475 80.96122945866979 L 1156.9908628133476 80.98008492275247 L 1156.7556402348418 80.99787795925778 L 1156.5200358203922 81.01460678889691 L 1156.284073130244 81.03026973880085 L 1156.0477757604692 81.04486524268764 L 1155.811167340608 81.05839184101906 L 1155.5742715313056 81.07084818114656 L 1155.3371120219451 81.08223301744648 L 1155.09971252828 81.09254521144472 L 1154.8620967900615 81.10178373193042 L 1154.6242885686659 81.10994765505929 L 1154.386311644717 81.11703616444578 L 1154.1481898157085 81.12304855124486 L 1153.9099468936251 81.12798421422288 L 1153.671606702561 81.13184265981764 L 1153.4331930763358 81.1346235021878 L 1153.1947298561142 81.13632646325144 L 1152.956240888019 81.13695137271387 L 1152.7177500207486 81.13649816808466 L 1152.4792811031907 81.13496689468391 L 1152.2408579820385 81.13235770563769 L 1152.0025044994054 81.1286708618627 L 1151.7642444904411 81.12390673204027 L 1151.5261017809478 81.1180657925794 L 1151.288100184998 81.11114862756918 L 1151.0502635025532 81.10315592872034 L 1150.8126155170833 81.09408849529609 L 1150.5751799931888 81.08394723403225 L 1150.3379806742241 81.07273315904646 L 1150.1010412799237 81.0604473917369 L 1149.8643855040293 81.04709116067005 L 1149.6280370119216 81.03266580145788 L 1149.3920194382526 81.01717275662432 L 1149.156356384583 81.0006135754609 L 1148.921071417022 80.98298991387196 L 1148.6861880638698 80.96430353420898 L 1148.4517298132666 80.94455630509435 L 1148.2177201108416 80.92375020123451 L 1147.9841823573704 80.90188730322252 L 1147.7511399064333 80.87896979732996 L 1147.5186160620817 80.85499997528832 L 1147.2866340765058 80.82998023405985 L 1147.0552171477111 80.80391307559779 L 1146.8243884171977 80.77680110659627 L 1146.594170967646 80.74864703822962 L 1146.3645878206096 80.71945368588119 L 1146.1356619342114 80.68922396886191 L 1145.9074162008494 80.65796091011826 L 1145.6798734449067 80.62566763593009 L 1145.4530564204695 80.5923473755979 L 1145.2269878090508 80.55800346111995 L 1145.0016902173238 80.52263932685908 L 1144.77718617486 80.48625850919922 L 1144.553498131876 80.44886464619185 L 1144.33064845699 80.4104614771921 L 1144.108659434984 80.37105284248486 L 1143.8875532645748 80.33064268290076 L 1143.6673520561956 80.28923503942208 L 1143.4480778297832 80.24683405277868 L 1143.229752512578 80.20344396303388 L 1143.0123979369298 80.1590691091605 L 1142.7960358381147 80.11371392860693 L 1142.5806878521623 80.06738295685345 L 1142.366375513692 80.02008082695862 L 1142.153120253759 79.971812269096 L 1141.9409433977114 79.92258211008118 L 1141.7298661630582 79.87239527288902 L 1141.519909657347 79.8212567761614 L 1141.311094876053 79.76917173370542 L 1141.1034427004806 79.71614535398189 L 1140.8969738956744 79.66218293958458 L 1140.6917091083428 79.60728988670999 L 1140.4876688647932 79.55147168461767 L 1140.2848735688804 79.49473391508127 L 1140.0833434999647 79.4370822518305 L 1139.8830988108848 79.37852245998366 L 1139.6841595259434 79.31906039547108 L 1139.4865455389026 79.2587020044497 L 1139.2902766109967 79.1974533227083 L 1139.095372368955 79.13532047506403 L 1138.9018523030388 79.07230967474987 L 1138.7097357650941 79.00842722279336 L 1138.5190419666144 78.94367950738643 L 1138.3297899768204 78.87807300324668 L 1138.1419987207535 78.81161427096987 L 1137.9556869773828 78.74430995637381 L 1137.7708733777274 78.6761667898339 L 1137.5875764029934 78.60719158561 L 1137.405814382725 78.53739124116504 L 1137.2256054929735 78.4667727364753 L 1137.0469677544772 78.39534313333243 L 1136.8699190308614 78.3231095746372 L 1136.6944770268506 78.25007928368528 L 1136.520659286499 78.17625956344492 L 1136.3484831914361 78.10165779582661 L 1136.177965959128 78.02628144094496 L 1136.0091246411553 77.95013803637262 L 1135.8419761215093 77.87323519638663 L 1135.6765371149029 77.79558061120689 L 1135.512824165099 77.7171820462272 L 1135.3508536432555 77.63804734123872 L 1135.19064174629 77.558184409646 L 1135.032204495259 77.47760123767569 L 1134.8755577337554 77.39630588357778 L 1134.7207171263244 77.31430647681997 L 1134.5676981568981 77.23161121727458 L 1134.4165161272458 77.14822837439866 L 1134.2671861554445 77.06416628640702 L 1134.119723174367 76.9794333594384 L 1133.9741419301886 76.8940380667149 L 1133.830456980912 76.8079889476946 L 1133.6886826949128 76.72129460721773 L 1133.5488332495013 76.63396371464606 L 1133.4109226295056 76.5460050029961 L 1133.2749646258726 76.4574272680657 L 1133.1409728342896 76.36823936755454 L 1133.0089606538238 76.27845022017834 L 1132.8789412855836 76.18806880477703 L 1132.750927731397 76.09710415941684 L 1132.6249327925132 76.00556538048647 L 1132.5009690683207 75.91346162178756 L 1132.379048955089 75.82080209361922 L 1132.2591846447276 75.72759606185704 L 1132.1413881235676 75.63385284702655 L 1132.0256711711631 75.53958182337107 L 1131.912045359113 75.44479241791444 L 1131.8005220499035 75.34949410951822 L 1131.691112395773 75.25369642793382 L 1131.5838273375953 75.15740895284955 L 1131.478677603787 75.06064131293272 L 1131.375673709234 74.96340318486665 L 1131.2748259542398 74.86570429238313 L 1131.1761444234955 74.76755440528999 L 1131.0796389850727 74.66896333849414 L 1130.985319289434 74.56994095102011 L 1130.8931947684712 74.47049714502414 L 1130.8032746345589 74.37064186480393 L 1130.715567879636 74.27038509580431 L 1130.6300832743048 74.16973686361864 L 1130.5468293669544 74.06870723298624 L 1130.4658144829066 73.967306306786 L 1130.3870467235818 73.86554422502604 L 1130.3105339656904 73.76343116382972 L 1130.2362838604447 73.66097733441809 L 1130.164303832793 73.5581929820887 L 1130.0946010806783 73.45508838519112 L 1130.0271825743177 73.35167385409913 L 1129.9620550555057 73.24795973017967 L 1129.89922503694 73.14395638475868 L 1129.8386988015698 73.03967421808406 L 1129.7804824019684 72.93512365828555 L 1129.724581659727 72.83031516033202 L 1129.6710021648735 72.72525920498593 L 1129.6197492753129 72.61996629775525 L 1129.5708281162908 72.51444696784297 L 1129.5242435798832 72.40871176709415 L 1129.480000324504 72.30277126894076 L 1129.4381027744428 72.19663606734431 L 1129.398555119419 72.09031677573653 L 1129.3613613141654 71.98382402595799 L 1129.3265250780314 71.87716846719489 L 1129.2940498946118 71.77036076491427 L 1129.2639390113977 71.66341159979731 L 1129.2361954394526 71.55633166667144 L 1129.21082195311 71.44913167344072 L 1129.1878210896982 71.34182234001513 L 1129.1671951492838 71.2344143972386 L 1129.1489461944436 71.12691858581589 L 1129.1330760500582 71.01934565523857 L 1129.1195863031287 70.91170636271006 L 1129.1084783026186 70.80401147206992 L 1129.0997531593184 70.69627175271745 L 1129.0934117457355 70.5884979785348 L 1129.0894546960058 70.4807009268096 L 1129.0878824058311 70.37289137715717 L 1129.088695032439 70.26508011044265 L 1129.0918924945677 70.15727790770286 L 1129.0974744724733 70.04949554906824 L 1129.105440407963 69.94174381268483 L 1129.1157895044498 69.8340334736365 L 1129.1285207270325 69.72637530286737 L 1129.1436328025998 69.6187800661048 L 1129.1611242199563 69.51125852278282 L 1129.180993229975 69.40382142496617 L 1129.2032378457718 69.29647951627507 L 1129.2278558429032 69.18924353081097 L 1129.2548447595902 69.08212419208301 L 1129.2842018969636 68.97513221193586 L 1129.315924319334 68.86827828947831 L 1129.3500088544858 68.76157311001361 L 1129.386452093994 68.65502734397076 L 1129.4252503935647 68.54865164583758 L 1129.4663998734004 68.44245665309525 L 1129.5098964185875 68.33645298515454 L 1129.5557356795075 68.23065124229389 L 1129.6039130722727 68.12506200459944 L 1129.6544237791838 68.01969583090698 L 1129.7072627492125 67.91456325774605 L 1129.7624246985056 67.80967479828637 L 1129.8199041109142 67.70504094128646 L 1129.879695238545 67.60067215004484 L 1129.941792102335 67.49657886135367 L 1130.0061884926495 67.39277148445505 L 1130.0728779699032 67.28926040000019 L 1130.141853865204 67.18605595901127 L 1130.2131092810198 67.08316848184637 L 1130.2866370918684 66.98060825716748 L 1130.36242994503 66.8783855409116 L 1130.4404802612826 66.77651055526518 L 1130.5207802356592 66.67499348764186 L 1130.6033218382297 66.57384448966383 L 1130.6880968149026 66.47307367614658 L 1130.7750966882504 66.37269112408752 L 1130.864312758359 66.27270687165817 L 1130.9557361036948 66.17313091720047 L 1131.0493575820003 66.07397321822687 L 1131.1451678312055 65.97524369042465 L 1131.2431572703651 65.87695220666431 L 1131.343316100617 65.77910859601232 L 1131.4456343061613 65.68172264274821 L 1131.5501016552632 65.58480408538615 L 1131.6567077012746 65.4883626157011 L 1131.76544178368 65.3924078777597 L 1131.8762930291614 65.29694946695572 L 1131.9892503526867 65.20199692905075 L 1132.1043024586177 65.10755975921941 L 1132.2214378418398 65.01364740110003 L 1132.3406447889124 64.92026924585012 L 1132.4619113792398 64.82743463120741 L 1132.585225486264 64.735152840556 L 1132.7105747786777 64.64343310199806 L 1132.8379467216553 64.55228458743099 L 1132.9673285781091 64.46171641163032 L 1133.0987074099612 64.37173763133814 L 1133.2320700794378 64.2823572443575 L 1133.3674032503832 64.19358418865261 L 1133.504693389593 64.10542734145508 L 1133.6439267681678 64.01789551837615 L 1133.7850894628857 63.93099747252518 L 1133.928167357595 63.84474189363436 L 1134.073146144625 63.759137407189684 L 1134.2200113262184 63.67419257356846 L 1134.368748215979 63.589915887183274 L 1134.519341940342 63.50631577563253 L 1134.6717774400602 63.42340059885771 L 1134.826039471711 63.3411786483074 L 1134.9821126092197 63.25965814610814 L 1135.1399812454026 63.17884724424221 L 1135.2996295935275 63.09875402373246 L 1135.4610416888927 63.01938649383419 L 1135.624201390423 62.940752591234265 L 1135.7890923822847 62.8628601792574 L 1135.9556981755156 62.78571704707989 L 1136.1240021096753 62.70933090895067 L 1136.2939873545106 62.63370940341989 L 1136.465636911639 62.558860092575095 L 1136.6389336162472 62.48479046128499 L 1136.8138601388098 62.41150791645098 L 1136.9903989868199 62.339019786266476 L 1137.16853250654 62.267333319484095 L 1137.3482428847665 62.196455684690775 L 1137.5295121506115 62.12639396959093 L 1137.7123221772993 62.057155180297684 L 1137.8966546839795 61.98874624063228 L 1138.0824912375551 61.92117399143166 L 1138.2698132545256 61.85444518986444 L 1138.4586020028457 61.788566508755174 L 1138.6488386037975 61.72354453591707 L 1138.8405040338796 61.659385773493234 L 1139.0335791267087 61.59609663730643 L 1139.2280445749363 61.533683456217545 L 1139.4238809321798 61.47215247149268 L 1139.6210686149668 61.41150983617902 L 1139.819587904693 61.35176161448957 L 1140.0194189495949 61.29291378119671 L 1140.2205417667349 61.234972221034724 L 1140.4229362439985 61.17794272811134 L 1140.6265821421066 61.12183100532834 L 1140.8314590966395 61.06664266381124 L 1141.0375466200721 61.012383222348184 L 1141.2448241038242 60.959058106838114 L 1141.4532708203196 60.90667264974815 L 1141.6628659250607 60.85523208958034 L 1141.8735884587118 60.804741570347836 L 1142.0854173491948 60.755206141060484 L 1142.2983314137973 60.70663075521993 L 1142.5123093612904 60.65902027032429 L 1142.7273297940576 60.61237944738237 L 1142.9433712102348 60.56671295043759 L 1143.1604120058605 60.52202534610161 L 1143.3784304770356 60.4783211030976 L 1143.5974048220953 60.43560459181345 L 1143.817313143787 60.3938800838647 L 1144.0381334514623 60.35315175166736 L 1144.2598436632738 60.313423668020725 L 1144.4824216083857 60.27469980570004 L 1144.7058450291888 60.23698403705927 L 1144.930091583527 60.20028013364386 L 1145.155138846932 60.164591765813555 L 1145.3809643148647 60.12992250237539 L 1145.6075454049667 60.096275810226835 L 1145.8348594593178 60.06365505400906 L 1146.062883746702 60.0320634957705 L 1146.2915954648804 60.001504294640654 L 1146.520971742872 59.971980506514164 L 1146.75098964324 59.94349508374525 L 1146.9816261643862 59.916050874852445 L 1147.2128582428506 59.88965062423377 L 1147.444662755618 59.86429697189228 L 1147.6770165224304 59.83999245317209 L 1147.9098963081046 59.816739498504816 L 1148.1432788248562 59.794540433166546 L 1148.3771407346278 59.773397477045314 L 1148.6114586514236 59.75331274441912 L 1148.8462091436472 59.73428824374447 L 1149.0813687364448 59.7163258774556 L 1149.3169139140532 59.69942744177417 L 1149.5528211221508 59.68359462652965 L 1149.7890667702136 59.66882901499038 L 1150.0256272338734 59.655132083705205 L 1150.2624788572812 59.64250520235584 L 1150.4995979554717 59.630949633619906 L 1150.7369608167332 59.620466533044635 L 1150.974543704977 59.611056948931356 L 1151.2123228621124 59.602721822230635 L 1151.4502745104217 59.5954619864482 L 1151.6883748549385 59.58927816756158 L 1151.9266000858265 59.58417098394751 L 1152.1649263807615 59.580140946320086 L 1152.4033299073126 59.57718845767973 L 1152.6417868253254 59.57531381327283 L 1152.8802732893073 59.57451720056227 L 1153.1187654508103 59.57479869920866 L 1153.3572394608173 59.57615828106236 L 1153.5956714721256 59.578595810166334 L 1153.834037641733 59.5821110427697 L 1154.0723141332214 59.58670362735211 L 1154.3104771191397 59.59237310465895 L 1154.5485027833884 59.5991189077472 L 1154.7863673235988 59.60694036204218 L 1155.0240469535156 59.615836685404986 L 1155.2615179053735 59.625806988210684 L 1155.4987564322755 59.636850273437304 L 1155.7357388105665 59.648965436765536 L 1155.9724413422061 59.66215126668912 L 1156.2088403571383 59.676406444636086 L 1156.4449122156589 59.691729545100486 L 1156.6806333107786 59.70811903578506 L 1156.9159800705843 59.72557327775439 L 1157.150928960596 59.744090525598835 L 1157.385456486121 59.76366892760903 L 1157.6195391946017 59.7843065259611 L 1157.8531536779624 59.806001256912396 L 1158.0862765749496 59.82875095100791 L 1158.3188845734676 59.85255333329719 L 1158.5509544129106 59.87740602356183 L 1158.7824628864882 59.90330653655353 L 1159.0133868435455 59.93025228224257 L 1159.2437031918798 59.95824056607684 L 1159.4733889000477 59.98726858925126 L 1159.70242099967 60.01733344898773 L 1159.9307765877277 60.048432138825305 L 1160.1584328288523 60.08056154892094 L 1160.385366957609 60.11371846636038 L 1160.6115562807745 60.14789957547953 L 1160.8369781796046 60.18310145819595 L 1161.0616101120977 60.2193205943507 L 1161.2854296152473 60.25655336206036 L 1161.5084143072897 60.29479603807917 L 1161.7305418899418 60.33404479817142 L 1161.9517901506304 60.37429571749378 L 1162.1721369647134 60.41554477098788 L 1162.3915602976933 60.457787833782746 L 1162.6100382074198 60.50102068160729 L 1162.8275488462837 60.545238991212756 L 1163.0440704634025 60.590438340805036 L 1163.259581406795 60.63661421048684 L 1163.4740601255462 60.683761982709676 L 1163.687485171963 60.73187694273561 L 1163.899835203719 60.78095427910874 L 1164.1110889859876 60.83098908413633 L 1164.321225393567 60.88197635437956 L 1164.530223412991 60.9339109911539 L 1164.738062144632 60.98678780103896 L 1164.9447208047904 61.0406014963978 L 1165.150178727772 61.09534669590574 L 1165.354415367956 61.151017925088446 L 1165.5574103018484 61.2076096168694 L 1165.7591432301251 61.26511611212656 L 1165.9595939796611 61.323531660258354 L 1166.1587425055488 61.38285041975863 L 1166.3565688931014 61.44306645880087 L 1166.553053359845 61.50417375583136 L 1166.7481762574967 61.5661662001713 L 1166.9419180739294 61.62903759262794 L 1167.1342594351229 61.69278164611441 L 1167.3251811071013 61.75739198627849 L 1167.5146639978566 61.82286215214 L 1167.7026891592575 61.889185596736915 L 1167.8892377889445 61.95635568778004 L 1168.0742912322103 62.02436570831625 L 1168.2578309838646 62.09320885740017 L 1168.4398386900853 62.162878250774256 L 1168.6202961502531 62.23336692155723 L 1168.799185318773 62.30466782094075 L 1168.976488306877 62.37677381889429 L 1169.1521873844135 62.44967770487816 L 1169.326264981622 62.52337218856451 L 1169.4987036908872 62.59784990056637 L 1169.6694862684822 62.673103393174614 L 1169.8385956362915 62.74912514110269 L 1170.0060148835191 62.82590754223916 L 1170.17172726838 62.90344291840789 L 1170.3357162197738 62.98172351613588 L 1170.4979653389416 63.06074150742859 L 1170.6584584011073 63.14048899055273 L 1170.817179357098 63.22095799082646 L 1170.9741123349506 63.302140461416805 L 1171.129241641498 63.38402828414435 L 1171.2825517639387 63.46661327029506 L 1171.4340273713885 63.54988716143916 L 1171.5836533164127 63.63384163025691 L 1171.7314146365416 63.71846828137139 L 1171.877296555766 63.80375865218803 L 1172.021284486016 63.889704213740806 L 1172.1633640286182 63.97629637154519 L 1172.3035209757368 64.06352646645756 L 1172.441741311794 64.15138577554112 L 1172.5780112148714 64.23986551293817 L 1172.7123170580921 64.3289568307487 L 1172.844645410984 64.41865081991519 L 1172.9749830408216 64.50893851111344 L 1173.103316913951 64.59981087564961 L 1173.2296341970916 64.69125882636293 L 1173.3539222586203 64.78327321853456 L 1173.4761686698348 64.87584485080197 L 1173.5963612061955 64.96896446607904 L 1173.714487848549 65.06262275248187 L 1173.8305367843298 65.15681034425987 L 1173.9444964087406 65.25151782273234 L 1174.0563553259142 65.34673571723036 L 1174.1661023500521 65.44245450604383 L 1174.2737265065432 65.53866461737363 L 1174.3792170330616 65.6353564302888 L 1174.482563380643 65.73252027568861 L 1174.5837552147377 65.83014643726952 L 1174.6827824162476 65.92822515249672 L 1174.7796350825347 66.02674661358041 L 1174.874303528413 66.12570096845658 L 1174.966778287117 66.22507832177222 L 1175.0570501112477 66.3248687358748 L 1175.145109973698 66.42506223180607 L 1175.2309490685552 66.52564879029993 L 1175.314558811981 66.62661835278435 L 1175.395930843071 66.72796082238723 L 1175.47505702469 66.82966606494605 L 1175.5519294442854 66.93172391002133 L 1175.6265404146795 67.03412415191359 L 1175.6988824748375 67.13685655068397 L 1175.7689483906138 67.23991083317823 L 1175.8367311554748 67.34327669405398 L 1175.9022239912008 67.44694379681127 L 1175.9654203485627 67.55090177482622 L 1176.0263139079773 67.65514023238765 L 1176.08489858014 67.75964874573668 L 1176.1411685066314 67.86441686410906 L 1176.1951180605067 67.96943411078026 L 1176.2467418468548 68.07468998411312 L 1176.2960347033406 68.18017395860804 L 1176.342991700719 68.28587548595544 L 1176.38760814333 68.39178399609071 L 1176.429879569566 68.49788889825106 L 1176.4698017523199 68.60417958203472 L 1176.5073706994065 68.71064541846185 L 1176.5425826539627 68.81727576103756 L 1176.575434094822 68.92405994681646 L 1176.6059217368677 69.03098729746893 L 1176.6340425313615 69.13804712034903 L 1176.659793666247 69.24522870956366 L 1176.683172566432 69.35252134704326 L 1176.7041768940464 69.45991430361346 L 1176.7228045486745 69.5673968400681 L 1176.7390536675668 69.67495820824311 L 1176.7529226258248 69.78258765209132 L 1176.764410036564 69.890274408758 L 1176.7735147510532 69.99800770965726 L 1176.7802358588283 70.10577678154877 L 1176.7845726877845 70.21357084761514 L 1176.786524804242 70.32137912853962 M 1176.786645794298 104.6596475431 L 1176.7854533343943 104.76745808801661 L 1176.7818760739283 104.87525785196858 L 1176.7759143706228 104.98303605506935 L 1176.7675688206436 105.0907819195884 L 1176.7568402585384 105.19848467102908 L 1176.7437297571546 105.306133539206 L 1176.7282386275313 105.41371775932204 L 1176.7103684187687 105.52122657304484 L 1176.6901209178727 105.62864922958265 L 1176.6674981495764 105.73597498675929 L 1176.642502376138 105.84319311208851 L 1176.6151360971141 105.95029288384711 L 1176.5854020491095 106.05726359214718 L 1176.5533032055043 106.16409454000701 L 1176.5188427761561 106.27077504442086 L 1176.4820242070793 106.37729443742717 L 1176.4428511801002 106.48364206717542 L 1176.4013276124883 106.58980729899125 L 1176.3574576565663 106.69577951643996 L 1176.311245699293 106.8015481223881 L 1176.2626963618256 106.90710254006322 L 1176.2118144990577 107.01243221411151 L 1176.1586051991326 107.11752661165336 L 1176.1030737829365 107.22237522333658 L 1176.0452258035646 107.32696756438737 L 1175.9850670457663 107.4312931756588 L 1175.9226035253675 107.53534162467666 L 1175.8578414886686 107.63910250668278 L 1175.7907874118184 107.7425654456754 L 1175.7214480001694 107.84572009544685 L 1175.649830187605 107.94855614061812 L 1175.5759411358463 108.0510632976704 L 1175.499788233737 108.15323131597337 L 1175.4213790965043 108.25504997881038 L 1175.3407215649963 108.35650910439998 L 1175.2578237048988 108.45759854691414 L 1175.172693805929 108.55830819749288 L 1175.0853403810056 108.65862798525505 L 1174.9957721653984 108.75854787830548 L 1174.9039981158542 108.85805788473812 L 1174.810027409702 108.95714805363527 L 1174.7138694439334 109.0558084760626 L 1174.615533834265 109.1540292860601 L 1174.5150304141764 109.2518006616286 L 1174.4123692339251 109.34911282571201 L 1174.307560559544 109.44595604717506 L 1174.2006148718133 109.54232064177627 L 1174.0915428652124 109.63819697313649 L 1173.980355446851 109.73357545370249 L 1173.8670637353785 109.82844654570569 L 1173.7516790598715 109.92280076211594 L 1173.6342129587015 110.01662866759024 L 1173.5146771783807 110.10992087941622 L 1173.3930836723873 110.20266806845046 L 1173.269444599971 110.29486096005132 L 1173.1437723249355 110.3864903350065 L 1173.016079414404 110.47754703045483 L 1172.8863786375612 110.56802194080265 L 1172.7546829643761 110.65790601863434 L 1172.6210055643069 110.747190275617 L 1172.485359804982 110.83586578339936 L 1172.347759250864 110.92392367450451 L 1172.2082176618942 111.01135514321673 L 1172.066748992115 111.09815144646201 L 1171.9233673882752 111.18430390468237 L 1171.7780871884158 111.26980390270374 L 1171.6309229204362 111.35464289059762 L 1171.48188930064 111.43881238453588 L 1171.3310012322652 111.52230396763929 L 1171.1782738039929 111.6051092908191 L 1171.0237222884384 111.68722007361201 L 1170.867362140625 111.76862810500816 L 1170.7092089964367 111.84932524427225 L 1170.5492786710565 111.9293034217576 L 1170.3875871573832 112.00855463971311 L 1170.2241506244338 112.08707097308303 L 1170.0589854157254 112.16484457029944 L 1169.8921080476412 112.24186765406745 L 1169.7235352077787 112.31813252214286 L 1169.5532837532814 112.3936315481024 L 1169.3813707091533 112.46835718210642 L 1169.2078132665554 112.54230195165377 L 1169.032628781087 112.61545846232913 L 1168.855834771051 112.68781939854237 L 1168.6774489157008 112.7593775242602 L 1168.4974890534736 112.83012568372968 L 1168.3159731802054 112.90005680219377 L 1168.1329194473326 112.96916388659896 L 1167.9483461600755 113.03744002629438 L 1167.7622717756094 113.10487839372294 L 1167.5747149012175 113.1714722451041 L 1167.3856942924308 113.23721492110823 L 1167.195228851153 113.30209984752251 L 1167.003337623769 113.36612053590837 L 1166.8100397992423 113.42927058425032 L 1166.6153547071938 113.49154367759614 L 1166.4193018159706 113.5529335886884 L 1166.2219007306985 113.61343417858716 L 1166.0231711913214 113.67303939728383 L 1165.8231330706276 113.7317432843062 L 1165.6218063722627 113.78953996931453 L 1165.4192112287285 113.84642367268845 L 1165.215367899371 113.90238870610501 L 1165.0102967683524 113.95742947310755 L 1164.8040183426158 114.01154046966522 L 1164.5965532498315 114.06471628472343 L 1164.3879222363357 114.11695160074503 L 1164.1781461650562 114.16824119424192 L 1163.9672460134252 114.21857993629749 L 1163.7552428712822 114.26796279307949 L 1163.5421579387646 114.31638482634341 L 1163.3280125241881 114.36384119392625 L 1163.112828041916 114.4103271502308 L 1162.8966260102168 114.4558380467002 L 1162.6794280491135 114.50036933228267 L 1162.4612558782214 114.54391655388682 L 1162.242131314576 114.58647535682675 L 1162.0220762704507 114.62804148525764 L 1161.8011127511666 114.66861078260128 L 1161.5792628528916 114.70817919196173 L 1161.3565487604305 114.74674275653106 L 1161.1329927450072 114.78429761998493 L 1160.9086171620365 114.82084002686828 L 1160.6834444488902 114.8563663229709 L 1160.4574971226518 114.89087295569276 L 1160.2307977778657 114.92435647439936 L 1160.0033690842772 114.95681353076672 L 1159.7752337845666 114.98824087911626 L 1159.546414692073 115.01863537673933 L 1159.3169346885159 115.0479939842115 L 1159.0868167217038 115.07631376569648 L 1158.8560838032417 115.10359188923972 L 1158.6247590062294 115.12982562705162 L 1158.3928654629535 115.15501235578024 L 1158.1604263625754 115.1791495567737 L 1157.9274649488113 115.20223481633201 L 1157.6940045176084 115.22426582594846 L 1157.4600684148154 115.24524038254044 L 1157.2256800338475 115.26515638866978 L 1156.9908628133476 115.28401185275246 L 1156.7556402348418 115.30180488925777 L 1156.5200358203922 115.3185337188969 L 1156.284073130244 115.33419666880084 L 1156.0477757604692 115.34879217268762 L 1155.811167340608 115.36231877101905 L 1155.5742715313056 115.37477511114655 L 1155.3371120219451 115.38615994744647 L 1155.09971252828 115.3964721414447 L 1154.8620967900615 115.40571066193041 L 1154.6242885686659 115.41387458505928 L 1154.386311644717 115.42096309444577 L 1154.1481898157085 115.42697548124485 L 1153.9099468936251 115.43191114422287 L 1153.671606702561 115.43576958981762 L 1153.4331930763358 115.43855043218778 L 1153.1947298561142 115.44025339325142 L 1152.956240888019 115.44087830271386 L 1152.7177500207486 115.44042509808465 L 1152.4792811031907 115.4388938246839 L 1152.2408579820385 115.43628463563768 L 1152.0025044994054 115.43259779186269 L 1151.7642444904411 115.42783366204026 L 1151.5261017809478 115.42199272257939 L 1151.288100184998 115.41507555756917 L 1151.0502635025532 115.40708285872033 L 1150.8126155170833 115.39801542529608 L 1150.5751799931888 115.38787416403224 L 1150.3379806742241 115.37666008904645 L 1150.1010412799237 115.36437432173689 L 1149.8643855040293 115.35101809067004 L 1149.6280370119216 115.33659273145787 L 1149.3920194382526 115.32109968662431 L 1149.156356384583 115.30454050546089 L 1148.921071417022 115.28691684387195 L 1148.6861880638698 115.26823046420897 L 1148.4517298132666 115.24848323509434 L 1148.2177201108416 115.2276771312345 L 1147.9841823573704 115.20581423322251 L 1147.7511399064333 115.18289672732995 L 1147.5186160620817 115.15892690528831 L 1147.2866340765058 115.13390716405983 L 1147.0552171477111 115.10784000559778 L 1146.8243884171977 115.08072803659626 L 1146.594170967646 115.05257396822961 L 1146.3645878206096 115.02338061588118 L 1146.1356619342114 114.9931508988619 L 1145.9074162008494 114.96188784011825 L 1145.6798734449067 114.92959456593007 L 1145.4530564204695 114.89627430559788 L 1145.2269878090508 114.86193039111994 L 1145.0016902173238 114.82656625685907 L 1144.77718617486 114.7901854391992 L 1144.553498131876 114.75279157619184 L 1144.33064845699 114.71438840719209 L 1144.108659434984 114.67497977248485 L 1143.8875532645748 114.63456961290075 L 1143.6673520561956 114.59316196942207 L 1143.4480778297832 114.55076098277867 L 1143.229752512578 114.50737089303387 L 1143.0123979369298 114.46299603916049 L 1142.7960358381147 114.41764085860692 L 1142.5806878521623 114.37130988685344 L 1142.366375513692 114.32400775695861 L 1142.153120253759 114.275739199096 L 1141.9409433977114 114.22650904008117 L 1141.7298661630582 114.17632220288901 L 1141.519909657347 114.1251837061614 L 1141.311094876053 114.07309866370541 L 1141.1034427004806 114.02007228398188 L 1140.8969738956744 113.96610986958457 L 1140.6917091083428 113.91121681670998 L 1140.4876688647932 113.85539861461766 L 1140.2848735688804 113.79866084508126 L 1140.0833434999647 113.74100918183049 L 1139.8830988108848 113.68244938998365 L 1139.6841595259434 113.62298732547107 L 1139.4865455389026 113.56262893444969 L 1139.2902766109967 113.50138025270829 L 1139.095372368955 113.43924740506402 L 1138.9018523030388 113.37623660474986 L 1138.7097357650941 113.31235415279335 L 1138.5190419666144 113.24760643738642 L 1138.3297899768204 113.18199993324667 L 1138.1419987207535 113.11554120096986 L 1137.9556869773828 113.0482368863738 L 1137.7708733777274 112.98009371983389 L 1137.5875764029934 112.91111851560999 L 1137.405814382725 112.84131817116503 L 1137.2256054929735 112.7706996664753 L 1137.0469677544772 112.69927006333242 L 1136.8699190308614 112.62703650463719 L 1136.6944770268506 112.55400621368527 L 1136.520659286499 112.4801864934449 L 1136.3484831914361 112.4055847258266 L 1136.177965959128 112.33020837094494 L 1136.0091246411553 112.25406496637261 L 1135.8419761215093 112.17716212638662 L 1135.6765371149029 112.09950754120688 L 1135.512824165099 112.02110897622718 L 1135.3508536432555 111.9419742712387 L 1135.19064174629 111.86211133964599 L 1135.032204495259 111.78152816767567 L 1134.8755577337554 111.70023281357777 L 1134.7207171263244 111.61823340681995 L 1134.5676981568981 111.53553814727456 L 1134.4165161272458 111.45215530439864 L 1134.2671861554445 111.368093216407 L 1134.119723174367 111.28336028943839 L 1133.9741419301886 111.19796499671489 L 1133.830456980912 111.11191587769459 L 1133.6886826949128 111.02522153721772 L 1133.5488332495013 110.93789064464605 L 1133.4109226295056 110.84993193299609 L 1133.2749646258726 110.76135419806569 L 1133.1409728342896 110.67216629755453 L 1133.0089606538238 110.58237715017833 L 1132.8789412855836 110.49199573477702 L 1132.750927731397 110.40103108941683 L 1132.6249327925132 110.30949231048646 L 1132.5009690683207 110.21738855178755 L 1132.379048955089 110.12472902361921 L 1132.2591846447276 110.03152299185703 L 1132.1413881235676 109.93777977702653 L 1132.0256711711631 109.84350875337105 L 1131.912045359113 109.74871934791443 L 1131.8005220499035 109.65342103951821 L 1131.691112395773 109.5576233579338 L 1131.5838273375953 109.46133588284954 L 1131.478677603787 109.3645682429327 L 1131.375673709234 109.26733011486664 L 1131.2748259542398 109.16963122238312 L 1131.1761444234955 109.07148133528997 L 1131.0796389850727 108.97289026849413 L 1130.985319289434 108.8738678810201 L 1130.8931947684712 108.77442407502413 L 1130.8032746345589 108.67456879480392 L 1130.715567879636 108.5743120258043 L 1130.6300832743048 108.47366379361863 L 1130.5468293669544 108.37263416298623 L 1130.4658144829066 108.27123323678599 L 1130.3870467235818 108.16947115502603 L 1130.3105339656904 108.06735809382971 L 1130.2362838604447 107.96490426441808 L 1130.164303832793 107.86211991208869 L 1130.0946010806783 107.7590153151911 L 1130.0271825743177 107.65560078409912 L 1129.9620550555057 107.55188666017966 L 1129.89922503694 107.44788331475867 L 1129.8386988015698 107.34360114808405 L 1129.7804824019684 107.23905058828554 L 1129.724581659727 107.13424209033201 L 1129.6710021648735 107.02918613498592 L 1129.6197492753129 106.92389322775524 L 1129.5708281162908 106.81837389784296 L 1129.5242435798832 106.71263869709414 L 1129.480000324504 106.60669819894075 L 1129.4381027744428 106.5005629973443 L 1129.398555119419 106.39424370573651 L 1129.3613613141654 106.28775095595797 L 1129.3265250780314 106.18109539719488 L 1129.2940498946118 106.07428769491426 L 1129.2639390113977 105.9673385297973 L 1129.2361954394526 105.86025859667143 L 1129.21082195311 105.7530586034407 L 1129.1878210896982 105.64574927001512 L 1129.1671951492838 105.53834132723858 L 1129.1489461944436 105.43084551581588 L 1129.1330760500582 105.32327258523856 L 1129.1195863031287 105.21563329271005 L 1129.1084783026186 105.1079384020699 L 1129.0997531593184 105.00019868271744 L 1129.0934117457355 104.89242490853479 L 1129.0894546960058 104.78462785680959 L 1129.0878824058311 104.67681830715716" stroke-miterlimit="10" stroke-width="2.7769845610000004" stroke-dasharray=""/></g><g><text fill="black" stroke="none" font-family="sans-serif" font-size="11pt" font-style="normal" font-weight="normal" text-decoration="normal" x="1121.559304030009" y="132.968554862" text-anchor="start" dominant-baseline="alphabetic" xml:space="preserve">Database</text></g></g><g><path fill="white" stroke="black" paint-order="fill stroke markers" d=" M 319.1375910165364 191.775286742 L 335.4727943165364 191.775286742 L 335.4727943165364 1397.3132902819998 L 319.1375910165364 1397.3132902819998 L 319.1375910165364 191.775286742" stroke-miterlimit="10" stroke-width="1.3612669416666667" stroke-dasharray=""/><path fill="white" stroke="black" paint-order="fill stroke markers" d=" M 546.4992635738931 361.661401062 L 562.8344668738932 361.661401062 L 562.8344668738932 407.399970302 L 546.4992635738931 407.399970302 L 546.4992635738931 361.661401062" stroke-miterlimit="10" stroke-width="1.3612669416666667" stroke-dasharray=""/><path fill="white" stroke="black" paint-order="fill stroke markers" d=" M 689.1157168738931 577.286084622 L 705.4509201738932 577.286084622 L 705.4509201738932 1351.5747210419997 L 689.1157168738931 1351.5747210419997 L 689.1157168738931 577.286084622" stroke-miterlimit="10" stroke-width="1.3612669416666667" stroke-dasharray=""/><path fill="white" stroke="black" paint-order="fill stroke markers" d=" M 864.1318394868488 623.0246538619999 L 880.4670427868489 623.0246538619999 L 880.4670427868489 760.2403615819998 L 864.1318394868488 760.2403615819998 L 864.1318394868488 623.0246538619999" stroke-miterlimit="10" stroke-width="1.3612669416666667" stroke-dasharray=""/><path fill="white" stroke="black" paint-order="fill stroke markers" d=" M 1144.769647326298 668.7632231019999 L 1161.104850626298 668.7632231019999 L 1161.104850626298 714.5017923419998 L 1144.769647326298 714.5017923419998 L 1144.769647326298 668.7632231019999" stroke-miterlimit="10" stroke-width="1.3612669416666667" stroke-dasharray=""/><path fill="white" stroke="black" paint-order="fill stroke markers" d=" M 697.2833185238932 843.5498984119997 L 713.6185218238933 843.5498984119997 L 713.6185218238933 889.2884676519997 L 697.2833185238932 889.2884676519997 L 697.2833185238932 843.5498984119997" stroke-miterlimit="10" stroke-width="1.3612669416666667" stroke-dasharray=""/><path fill="white" stroke="black" paint-order="fill stroke markers" d=" M 1027.9329886353487 1135.9500374819997 L 1044.2681919353488 1135.9500374819997 L 1044.2681919353488 1289.5009485019998 L 1027.9329886353487 1289.5009485019998 L 1027.9329886353487 1135.9500374819997" stroke-miterlimit="10" stroke-width="1.3612669416666667" stroke-dasharray=""/><path fill="white" stroke="black" paint-order="fill stroke markers" d=" M 1144.769647326298 1181.6886067219998 L 1161.104850626298 1181.6886067219998 L 1161.104850626298 1243.7623792619997 L 1144.769647326298 1243.7623792619997 L 1144.769647326298 1181.6886067219998" stroke-miterlimit="10" stroke-width="1.3612669416666667" stroke-dasharray=""/><g><g><rect fill="white" stroke="none" x="100.57282619803381" y="170.539522452" width="191.50035347046875" height="21.23576429"/></g><text fill="black" stroke="none" font-family="sans-serif" font-size="11pt" font-style="normal" font-weight="normal" text-decoration="normal" x="103.02310669303381" y="185.24120542199998" text-anchor="start" dominant-baseline="alphabetic" xml:space="preserve">Go to Curriculum detail page</text></g><g><path fill="none" stroke="black" paint-order="fill stroke markers" d=" M 73.50841485 191.775286742 L 305.68827363286977 191.775286742" stroke-miterlimit="10" stroke-width="1.3612669416666667" stroke-dasharray=""/><g transform="translate(319.1375910165364,191.775286742) translate(-319.1375910165364,-191.775286742)"><path fill="black" stroke="none" paint-order="stroke fill markers" d=" M 305.52492159986974 184.96895203366665 L 319.1375910165364 191.775286742 L 305.52492159986974 198.58162145033333 Z"/></g></g><g><g><rect fill="white" stroke="none" x="94.46689968436193" y="216.278091692" width="203.7122064978125" height="21.23576429"/></g><text fill="black" stroke="none" font-family="sans-serif" font-size="11pt" font-style="normal" font-weight="normal" text-decoration="normal" x="96.91718017936194" y="230.97977466199998" text-anchor="start" dominant-baseline="alphabetic" xml:space="preserve">Display Curriculum detail page</text></g><g><path fill="none" stroke="black" paint-order="fill stroke markers" d=" M 319.1375910165364 237.513855982 L 86.95773223366666 237.513855982" stroke-miterlimit="10" stroke-width="1.3612669416666667" stroke-dasharray="6.53408132"/><g transform="translate(73.50841485,237.513855982) translate(-73.50841485,-237.513855982)"><path fill="black" stroke="none" paint-order="stroke fill markers" d=" M 87.12108426666666 230.70752127366666 L 73.50841485 237.513855982 L 87.12108426666666 244.32019069033333 Z"/></g></g><g><g><rect fill="white" stroke="none" x="92.83840542166662" y="262.016660932" width="206.96919502320313" height="21.23576429"/></g><text fill="black" stroke="none" font-family="sans-serif" font-size="11pt" font-style="normal" font-weight="normal" text-decoration="normal" x="95.28868591666662" y="276.71834390199996" text-anchor="start" dominant-baseline="alphabetic" xml:space="preserve">Click Edit icon in Combos table</text></g><g><path fill="none" stroke="black" paint-order="fill stroke markers" d=" M 73.50841485 283.252425222 L 305.68827363286977 283.252425222" stroke-miterlimit="10" stroke-width="1.3612669416666667" stroke-dasharray=""/><g transform="translate(319.1375910165364,283.252425222) translate(-319.1375910165364,-283.252425222)"><path fill="black" stroke="none" paint-order="stroke fill markers" d=" M 305.52492159986974 276.44609051366666 L 319.1375910165364 283.252425222 L 305.52492159986974 290.05875993033334 Z"/></g></g><g><g><rect fill="white" stroke="none" x="354.80278488820306" y="307.755230172" width="35.03657783570313" height="21.23576429"/></g><g><rect fill="white" stroke="none" x="354.80278488820306" y="324.090433472" width="172.36648811402344" height="21.23576429"/></g><g><rect fill="white" stroke="none" x="354.80278488820306" y="340.42563677199996" width="127.9570795446875" height="21.23576429"/></g><text fill="black" stroke="none" font-family="sans-serif" font-size="11pt" font-style="normal" font-weight="normal" text-decoration="normal" x="357.2530653832031" y="322.45691314199996" text-anchor="start" dominant-baseline="alphabetic" xml:space="preserve">GET</text><text fill="black" stroke="none" font-family="sans-serif" font-size="11pt" font-style="normal" font-weight="normal" text-decoration="normal" x="357.2530653832031" y="338.79211644199995" text-anchor="start" dominant-baseline="alphabetic" xml:space="preserve">/api/search?entity=combo</text><text fill="black" stroke="none" font-family="sans-serif" font-size="11pt" font-style="normal" font-weight="normal" text-decoration="normal" x="357.2530653832031" y="355.12731974199994" text-anchor="start" dominant-baseline="alphabetic" xml:space="preserve">&amp;{paramToSearch}</text></g><g><path fill="none" stroke="black" paint-order="fill stroke markers" d=" M 335.4727943165364 361.661401062 L 533.0499461902265 361.661401062" stroke-miterlimit="10" stroke-width="1.3612669416666667" stroke-dasharray=""/><g transform="translate(546.4992635738931,361.661401062) translate(-546.4992635738931,-361.661401062)"><path fill="black" stroke="none" paint-order="stroke fill markers" d=" M 532.8865941572265 354.85506635366664 L 546.4992635738931 361.661401062 L 532.8865941572265 368.4677357703333 Z"/></g></g><g><g><rect fill="white" stroke="none" x="398.60375687306635" y="386.16420601199997" width="84.76454414429688" height="21.23576429"/></g><text fill="black" stroke="none" font-family="sans-serif" font-size="11pt" font-style="normal" font-weight="normal" text-decoration="normal" x="401.05403736806636" y="400.86588898199994" text-anchor="start" dominant-baseline="alphabetic" xml:space="preserve">Combo data</text></g><g><path fill="none" stroke="black" paint-order="fill stroke markers" d=" M 546.4992635738931 407.399970302 L 348.92211170020306 407.399970302" stroke-miterlimit="10" stroke-width="1.3612669416666667" stroke-dasharray="6.53408132"/><g transform="translate(335.4727943165364,407.399970302) translate(-335.4727943165364,-407.399970302)"><path fill="black" stroke="none" paint-order="stroke fill markers" d=" M 349.0854637332031 400.59363559366665 L 335.4727943165364 407.399970302 L 349.0854637332031 414.2063050103333 Z"/></g></g><g><g><rect fill="white" stroke="none" x="127.46973781912756" y="431.90277525199997" width="137.70653022828125" height="21.23576429"/></g><g><rect fill="white" stroke="none" x="127.46973781912756" y="448.23797855199996" width="136.08876289429688" height="21.23576429"/></g><text fill="black" stroke="none" font-family="sans-serif" font-size="11pt" font-style="normal" font-weight="normal" text-decoration="normal" x="129.92001831412756" y="446.60445822199995" text-anchor="start" dominant-baseline="alphabetic" xml:space="preserve">Display Edit Combo </text><text fill="black" stroke="none" font-family="sans-serif" font-size="11pt" font-style="normal" font-weight="normal" text-decoration="normal" x="129.92001831412756" y="462.93966152199994" text-anchor="start" dominant-baseline="alphabetic" xml:space="preserve">in Curriculum popup</text></g><g><path fill="none" stroke="black" paint-order="fill stroke markers" d=" M 319.1375910165364 469.473742842 L 86.95773223366666 469.473742842" stroke-miterlimit="10" stroke-width="1.3612669416666667" stroke-dasharray="6.53408132"/><g transform="translate(73.50841485,469.473742842) translate(-73.50841485,-469.473742842)"><path fill="black" stroke="none" paint-order="stroke fill markers" d=" M 87.12108426666666 462.66740813366664 L 73.50841485 469.473742842 L 87.12108426666666 476.2800775503333 Z"/></g></g><g><g><rect fill="white" stroke="none" x="108.3144262346549" y="493.976547792" width="120.60560859742188" height="21.23576429"/></g><g><rect fill="white" stroke="none" x="108.3144262346549" y="510.311751092" width="176.01715339722656" height="21.23576429"/></g><text fill="black" stroke="none" font-family="sans-serif" font-size="11pt" font-style="normal" font-weight="normal" text-decoration="normal" x="110.7647067296549" y="508.678230762" text-anchor="start" dominant-baseline="alphabetic" xml:space="preserve">Update semester </text><text fill="black" stroke="none" font-family="sans-serif" font-size="11pt" font-style="normal" font-weight="normal" text-decoration="normal" x="110.7647067296549" y="525.013434062" text-anchor="start" dominant-baseline="alphabetic" xml:space="preserve">information and click Save</text></g><g><path fill="none" stroke="black" paint-order="fill stroke markers" d=" M 73.50841485 531.547515382 L 305.68827363286977 531.547515382" stroke-miterlimit="10" stroke-width="1.3612669416666667" stroke-dasharray=""/><g transform="translate(319.1375910165364,531.547515382) translate(-319.1375910165364,-531.547515382)"><path fill="black" stroke="none" paint-order="stroke fill markers" d=" M 305.52492159986974 524.7411806736667 L 319.1375910165364 531.547515382 L 305.52492159986974 538.3538500903334 Z"/></g></g><g><g><rect fill="white" stroke="none" x="405.9606895777538" y="556.050320332" width="212.66713203492188" height="21.23576429"/></g><text fill="black" stroke="none" font-family="sans-serif" font-size="11pt" font-style="normal" font-weight="normal" text-decoration="normal" x="408.4109700727538" y="570.7520033019999" text-anchor="start" dominant-baseline="alphabetic" xml:space="preserve">PUT:/api/curriculum/{id}/combos</text></g><g><path fill="none" stroke="black" paint-order="fill stroke markers" d=" M 335.4727943165364 577.286084622 L 675.6663994902265 577.286084622" stroke-miterlimit="10" stroke-width="1.3612669416666667" stroke-dasharray=""/><g transform="translate(689.1157168738931,577.286084622) translate(-689.1157168738931,-577.286084622)"><path fill="black" stroke="none" paint-order="stroke fill markers" d=" M 675.5030474572264 570.4797499136666 L 689.1157168738931 577.286084622 L 675.5030474572264 584.0924193303333 Z"/></g></g><g><g><rect fill="white" stroke="none" x="761.5644498602733" y="601.7888895719999" width="46.453859940195315" height="21.23576429"/></g><text fill="black" stroke="none" font-family="sans-serif" font-size="11pt" font-style="normal" font-weight="normal" text-decoration="normal" x="764.0147303552733" y="616.4905725419999" text-anchor="start" dominant-baseline="alphabetic" xml:space="preserve">get(id)</text></g><g><path fill="none" stroke="black" paint-order="fill stroke markers" d=" M 705.4509201738932 623.0246538619999 L 850.6825221031821 623.0246538619999" stroke-miterlimit="10" stroke-width="1.3612669416666667" stroke-dasharray=""/><g transform="translate(864.1318394868488,623.0246538619999) translate(-864.1318394868488,-623.0246538619999)"><path fill="black" stroke="none" paint-order="stroke fill markers" d=" M 850.5191700701821 616.2183191536666 L 864.1318394868488 623.0246538619999 L 850.5191700701821 629.8309885703333 Z"/></g></g><g><g><rect fill="white" stroke="none" x="989.3914150864757" y="647.5274588119998" width="46.453859940195315" height="21.23576429"/></g><text fill="black" stroke="none" font-family="sans-serif" font-size="11pt" font-style="normal" font-weight="normal" text-decoration="normal" x="991.8416955814757" y="662.2291417819998" text-anchor="start" dominant-baseline="alphabetic" xml:space="preserve">get(id)</text></g><g><path fill="none" stroke="black" paint-order="fill stroke markers" d=" M 880.4670427868489 668.7632231019999 L 1131.3203299426311 668.7632231019999" stroke-miterlimit="10" stroke-width="1.3612669416666667" stroke-dasharray=""/><g transform="translate(1144.769647326298,668.7632231019999) translate(-1144.769647326298,-668.7632231019999)"><path fill="black" stroke="none" paint-order="stroke fill markers" d=" M 1131.1569779096312 661.9568883936665 L 1144.769647326298 668.7632231019999 L 1131.1569779096312 675.5695578103332 Z"/></g></g><g><g><rect fill="white" stroke="none" x="958.4322247178234" y="693.2660280519998" width="108.3722406775" height="21.23576429"/></g><text fill="black" stroke="none" font-family="sans-serif" font-size="11pt" font-style="normal" font-weight="normal" text-decoration="normal" x="960.8825052128234" y="707.9677110219998" text-anchor="start" dominant-baseline="alphabetic" xml:space="preserve">Curriculum data</text></g><g><path fill="none" stroke="black" paint-order="fill stroke markers" d=" M 1144.769647326298 714.5017923419998 L 893.9163601705155 714.5017923419998" stroke-miterlimit="10" stroke-width="1.3612669416666667" stroke-dasharray="6.53408132"/><g transform="translate(880.4670427868489,714.5017923419998) translate(-880.4670427868489,-714.5017923419998)"><path fill="black" stroke="none" paint-order="stroke fill markers" d=" M 894.0797122035156 707.6954576336665 L 880.4670427868489 714.5017923419998 L 894.0797122035156 721.3081270503332 Z"/></g></g><g><g><rect fill="white" stroke="none" x="730.6052594916209" y="739.0045972919997" width="108.3722406775" height="21.23576429"/></g><text fill="black" stroke="none" font-family="sans-serif" font-size="11pt" font-style="normal" font-weight="normal" text-decoration="normal" x="733.0555399866209" y="753.7062802619997" text-anchor="start" dominant-baseline="alphabetic" xml:space="preserve">Curriculum data</text></g><g><path fill="none" stroke="black" paint-order="fill stroke markers" d=" M 864.1318394868488 760.2403615819998 L 718.9002375575599 760.2403615819998" stroke-miterlimit="10" stroke-width="1.3612669416666667" stroke-dasharray="6.53408132"/><g transform="translate(705.4509201738932,760.2403615819998) translate(-705.4509201738932,-760.2403615819998)"><path fill="black" stroke="none" paint-order="stroke fill markers" d=" M 719.0635895905599 753.4340268736664 L 705.4509201738932 760.2403615819998 L 719.0635895905599 767.0466962903331 Z"/></g></g><g><g><rect fill="white" stroke="none" x="732.9485123955599" y="784.7431665319997" width="125.46600593628906" height="21.23576429"/></g><g><rect fill="white" stroke="none" x="732.9485123955599" y="801.0783698319997" width="66.79744209351563" height="21.23576429"/></g><text fill="black" stroke="none" font-family="sans-serif" font-size="11pt" font-style="normal" font-weight="normal" text-decoration="normal" x="735.3987928905599" y="799.4448495019997" text-anchor="start" dominant-baseline="alphabetic" xml:space="preserve">Check Curriculum </text><text fill="black" stroke="none" font-family="sans-serif" font-size="11pt" font-style="normal" font-weight="normal" text-decoration="normal" x="735.3987928905599" y="815.7800528019997" text-anchor="start" dominant-baseline="alphabetic" xml:space="preserve">isEmpty()</text></g><g><path fill="none" stroke="black" paint-order="fill stroke markers" d=" M 705.4509201738932 822.3141341219997 L 778.9593350238931 822.3141341219997 L 778.9593350238931 843.5498984119997 L 727.0678392075598 843.5498984119997" stroke-miterlimit="10" stroke-width="1.3612669416666667" stroke-dasharray=""/><g transform="translate(713.6185218238932,843.5498984119997) translate(-713.6185218238932,-843.5498984119997)"><path fill="black" stroke="none" paint-order="stroke fill markers" d=" M 727.2311912405598 836.7435637036664 L 713.6185218238932 843.5498984119997 L 727.2311912405598 850.3562331203331 Z"/></g></g><g><g><rect fill="white" stroke="none" x="732.9485123955599" y="868.0527033619996" width="97.82106269898438" height="21.23576429"/></g><text fill="black" stroke="none" font-family="sans-serif" font-size="11pt" font-style="normal" font-weight="normal" text-decoration="normal" x="735.3987928905599" y="882.7543863319996" text-anchor="start" dominant-baseline="alphabetic" xml:space="preserve">Boolean value</text></g><g><path fill="none" stroke="black" paint-order="fill stroke markers" d=" M 713.6185218238932 889.2884676519997 L 778.9593350238931 889.2884676519997 L 778.9593350238931 910.5242319419997 L 718.9002375575598 910.5242319419997" stroke-miterlimit="10" stroke-width="1.3612669416666667" stroke-dasharray="6.53408132"/><g transform="translate(705.4509201738931,910.5242319419997) translate(-705.4509201738931,-910.5242319419997)"><path fill="black" stroke="none" paint-order="stroke fill markers" d=" M 719.0635895905598 903.7178972336663 L 705.4509201738931 910.5242319419997 L 719.0635895905598 917.330566650333 Z"/></g></g><g><g><rect fill="white" stroke="none" x="452.00931170910144" y="979.1320858019997" width="120.56988777222656" height="21.23576429"/></g><text fill="red" stroke="none" font-family="sans-serif" font-size="11pt" font-style="normal" font-weight="normal" text-decoration="normal" x="454.45959220410145" y="993.8337687719996" text-anchor="start" dominant-baseline="alphabetic" xml:space="preserve">404 NOT FOUND</text></g><g><path fill="none" stroke="black" paint-order="fill stroke markers" d=" M 689.1157168738931 1000.3678500919997 L 348.92211170020306 1000.3678500919997" stroke-miterlimit="10" stroke-width="1.3612669416666667" stroke-dasharray="6.53408132"/><g transform="translate(335.4727943165364,1000.3678500919997) translate(-335.4727943165364,-1000.3678500919997)"><path fill="black" stroke="none" paint-order="stroke fill markers" d=" M 349.0854637332031 993.5615153836663 L 335.4727943165364 1000.3678500919997 L 349.0854637332031 1007.174184800333 Z"/></g></g><g><g><rect fill="white" stroke="none" x="95.27218227713537" y="1024.8706550419997" width="202.10164131226563" height="21.23576429"/></g><text fill="black" stroke="none" font-family="sans-serif" font-size="11pt" font-style="normal" font-weight="normal" text-decoration="normal" x="97.72246277213537" y="1039.5723380119998" text-anchor="start" dominant-baseline="alphabetic" xml:space="preserve">Display 404 Not Found screen</text></g><g><path fill="none" stroke="black" paint-order="fill stroke markers" d=" M 319.1375910165364 1046.1064193319996 L 86.95773223366666 1046.1064193319996" stroke-miterlimit="10" stroke-width="1.3612669416666667" stroke-dasharray="6.53408132"/><g transform="translate(73.50841485,1046.1064193319996) translate(-73.50841485,-1046.1064193319996)"><path fill="black" stroke="none" paint-order="stroke fill markers" d=" M 87.12108426666666 1039.3000846236664 L 73.50841485 1046.1064193319996 L 87.12108426666666 1052.9127540403329 Z"/></g></g><g><g><rect fill="white" stroke="none" x="836.9403280844256" y="1114.7142731919998" width="59.50325264039063" height="21.23576429"/></g><text fill="black" stroke="none" font-family="sans-serif" font-size="11pt" font-style="normal" font-weight="normal" text-decoration="normal" x="839.3906085794256" y="1129.415956162" text-anchor="start" dominant-baseline="alphabetic" xml:space="preserve">update()</text></g><g><path fill="none" stroke="black" paint-order="fill stroke markers" d=" M 705.4509201738932 1135.9500374819997 L 1014.483671251682 1135.9500374819997" stroke-miterlimit="10" stroke-width="1.3612669416666667" stroke-dasharray=""/><g transform="translate(1027.9329886353487,1135.9500374819997) translate(-1027.9329886353487,-1135.9500374819997)"><path fill="black" stroke="none" paint-order="stroke fill markers" d=" M 1014.320319218682 1129.1437027736665 L 1027.9329886353487 1135.9500374819997 L 1014.320319218682 1142.756372190333 Z"/></g></g><g><g><rect fill="white" stroke="none" x="1064.767293310628" y="1160.452842432" width="59.50325264039063" height="21.23576429"/></g><text fill="black" stroke="none" font-family="sans-serif" font-size="11pt" font-style="normal" font-weight="normal" text-decoration="normal" x="1067.217573805628" y="1175.154525402" text-anchor="start" dominant-baseline="alphabetic" xml:space="preserve">update()</text></g><g><path fill="none" stroke="black" paint-order="fill stroke markers" d=" M 1044.2681919353488 1181.6886067219998 L 1131.3203299426311 1181.6886067219998" stroke-miterlimit="10" stroke-width="1.3612669416666667" stroke-dasharray=""/><g transform="translate(1144.769647326298,1181.6886067219998) translate(-1144.769647326298,-1181.6886067219998)"><path fill="black" stroke="none" paint-order="stroke fill markers" d=" M 1131.1569779096312 1174.8822720136666 L 1144.769647326298 1181.6886067219998 L 1131.1569779096312 1188.494941430333 Z"/></g></g><g><g><rect fill="white" stroke="none" x="1068.4394353394366" y="1206.1914116719997" width="52.15896858277344" height="21.23576429"/></g><g><rect fill="white" stroke="none" x="1068.4394353394366" y="1222.5266149719998" width="33.43312324585938" height="21.23576429"/></g><text fill="black" stroke="none" font-family="sans-serif" font-size="11pt" font-style="normal" font-weight="normal" text-decoration="normal" x="1070.8897158344366" y="1220.8930946419998" text-anchor="start" dominant-baseline="alphabetic" xml:space="preserve">Combo</text><text fill="black" stroke="none" font-family="sans-serif" font-size="11pt" font-style="normal" font-weight="normal" text-decoration="normal" x="1070.8897158344366" y="1237.228297942" text-anchor="start" dominant-baseline="alphabetic" xml:space="preserve">data</text></g><g><path fill="none" stroke="black" paint-order="fill stroke markers" d=" M 1144.769647326298 1243.7623792619997 L 1057.7175093190156 1243.7623792619997" stroke-miterlimit="10" stroke-width="1.3612669416666667" stroke-dasharray="6.53408132"/><g transform="translate(1044.2681919353488,1243.7623792619997) translate(-1044.2681919353488,-1243.7623792619997)"><path fill="black" stroke="none" paint-order="stroke fill markers" d=" M 1057.8808613520155 1236.9560445536665 L 1044.2681919353488 1243.7623792619997 L 1057.8808613520155 1250.568713970333 Z"/></g></g><g><g><rect fill="white" stroke="none" x="824.3096823324724" y="1268.265184212" width="84.76454414429688" height="21.23576429"/></g><text fill="black" stroke="none" font-family="sans-serif" font-size="11pt" font-style="normal" font-weight="normal" text-decoration="normal" x="826.7599628274725" y="1282.966867182" text-anchor="start" dominant-baseline="alphabetic" xml:space="preserve">Combo data</text></g><g><path fill="none" stroke="black" paint-order="fill stroke markers" d=" M 1027.9329886353487 1289.5009485019998 L 718.9002375575599 1289.5009485019998" stroke-miterlimit="10" stroke-width="1.3612669416666667" stroke-dasharray="6.53408132"/><g transform="translate(705.4509201738932,1289.5009485019998) translate(-705.4509201738932,-1289.5009485019998)"><path fill="black" stroke="none" paint-order="stroke fill markers" d=" M 719.0635895905599 1282.6946137936666 L 705.4509201738932 1289.5009485019998 L 719.0635895905599 1296.307283210333 Z"/></g></g><g><g><rect fill="white" stroke="none" x="416.9377708765819" y="1314.0037534519997" width="54.61422981324219" height="21.23576429"/></g><g><rect fill="white" stroke="none" x="416.9377708765819" y="1330.3389567519998" width="190.71296943726563" height="21.23576429"/></g><text fill="green" stroke="none" font-family="sans-serif" font-size="11pt" font-style="normal" font-weight="normal" text-decoration="normal" x="419.3880513715819" y="1328.7054364219998" text-anchor="start" dominant-baseline="alphabetic" xml:space="preserve">200 OK</text><text fill="green" stroke="none" font-family="sans-serif" font-size="11pt" font-style="normal" font-weight="normal" text-decoration="normal" x="419.3880513715819" y="1345.040639722" text-anchor="start" dominant-baseline="alphabetic" xml:space="preserve">Response body:Combo data</text></g><g><path fill="none" stroke="black" paint-order="fill stroke markers" d=" M 689.1157168738931 1351.5747210419997 L 348.92211170020306 1351.5747210419997" stroke-miterlimit="10" stroke-width="1.3612669416666667" stroke-dasharray="6.53408132"/><g transform="translate(335.4727943165364,1351.5747210419997) translate(-335.4727943165364,-1351.5747210419997)"><path fill="black" stroke="none" paint-order="stroke fill markers" d=" M 349.0854637332031 1344.7683863336665 L 335.4727943165364 1351.5747210419997 L 349.0854637332031 1358.381055750333 Z"/></g></g><g><g><rect fill="white" stroke="none" x="94.46689968436193" y="1376.077525992" width="203.7122064978125" height="21.23576429"/></g><text fill="black" stroke="none" font-family="sans-serif" font-size="11pt" font-style="normal" font-weight="normal" text-decoration="normal" x="96.91718017936194" y="1390.779208962" text-anchor="start" dominant-baseline="alphabetic" xml:space="preserve">Display Curriculum detail page</text></g><g><path fill="none" stroke="black" paint-order="fill stroke markers" d=" M 319.1375910165364 1397.3132902819998 L 86.95773223366666 1397.3132902819998" stroke-miterlimit="10" stroke-width="1.3612669416666667" stroke-dasharray="6.53408132"/><g transform="translate(73.50841485,1397.3132902819998) translate(-73.50841485,-1397.3132902819998)"><path fill="black" stroke="none" paint-order="stroke fill markers" d=" M 87.12108426666666 1390.5069555736666 L 73.50841485 1397.3132902819998 L 87.12108426666666 1404.119624990333 Z"/></g></g><g><g/><path fill="none" stroke="black" paint-order="fill stroke markers" d=" M 16.335203299999996 935.0270368919997 L 1210.1104605262979 935.0270368919997 L 1210.1104605262979 1421.8160952319997 L 16.335203299999996 1421.8160952319997 L 16.335203299999996 935.0270368919997 Z" stroke-miterlimit="10" stroke-width="2.3336004714285714" stroke-dasharray=""/><path fill="white" stroke="black" paint-order="fill stroke markers" d=" M 16.335203299999996 935.0270368919997 L 16.335203299999996 954.6292808519997 L 62.69440689707031 954.6292808519997 L 72.49552887707031 944.8281588719997 L 72.49552887707031 935.0270368919997 L 16.335203299999996 935.0270368919997" stroke-miterlimit="10" stroke-width="2.3336004714285714" stroke-dasharray=""/><text fill="black" stroke="none" font-family="sans-serif" font-size="8.8pt" font-style="normal" font-weight="bold" text-decoration="normal" x="32.67040659999999" y="948.0951995319997" text-anchor="start" dominant-baseline="alphabetic" xml:space="preserve">alt</text><g><rect fill="white" stroke="none" x="86.38045168207032" y="936.3338531559997" width="123.51199592652344" height="16.988611432000003"/></g><text fill="black" stroke="none" font-family="sans-serif" font-size="8.8pt" font-style="normal" font-weight="bold" text-decoration="normal" x="88.83073217707032" y="948.0951995319997" text-anchor="start" dominant-baseline="alphabetic" xml:space="preserve">[If Curriculum empty]</text><g><path fill="none" stroke="black" paint-order="fill stroke markers" d=" M 16.335203299999996 1070.6092242819998 L 1210.1104605262979 1070.6092242819998" stroke-miterlimit="10" stroke-width="2.3336004714285714" stroke-dasharray="4.083800825"/></g><g/></g><g/></g></g></svg>