<svg version="1.1" xmlns="http://www.w3.org/2000/svg" xmlns:xlink="http://www.w3.org/1999/xlink" width="1163" height="1271"><desc>title%20Remove%20Combo%20from%20Curriculum%0A%0A%0Aactor%20%23green%3A0.5%20%22Workspace%20Admin%22%20as%20w%0Aboundary%20%22FUniverse%20Admin%20%5CnClient%22%20as%20f%0Acontrol%20%22Curriculum%20Controller%22%20as%20gc%0Aparticipant%20%22Curriculum%20Service%22%20as%20gs%0Adatabase%20%23blue%3A1%20%22Database%22%20as%20db%0Aw-%3Ef%3AGo%20to%20Curriculum%20detail%20page%0Aactivate%20f%0Aw%3C--f%3ADisplay%20Curriculum%20detail%20page%0A%0Aw-%3Ef%3AClick%20delete%20icon%20in%20%5CnCombos%20table%0Aw%3C--f%3ARemove%20Combo%20from%20%5CnCurriculum%20confirmation%20popup%0Aw-%3Ef%3AClick%20Remove%20button%0Af-%3Egc%3ADELETE%3A%2Fapi%2Fcurriculum%2F%7Bid%7D%2Fcombo%2F%7Bcid%7D%0Aactivate%20gc%0Agc-%3Egs%3Aget(cid)%0Aactivate%20gs%0Ags-%3Edb%3A%20get(cid)%0Aactivate%20db%0Ags%3C--db%3ACurriculum%20data%0Adeactivate%20db%0Agc%3C--gs%3A%20Curriculum%20data%0Adeactivate%20gs%0A%0Agc-%3Egc%3A%20Check%20Curriculum%20%5CnisEmpty()%0Aalt%20If%20Curriculum%20empty%0A%0Af%3C--gc%3A%3Ccolor%3A%23red%3E404%20NOT%20FOUND%3C%2Fcolor%3E%0A%0Aw%3C--f%3A%20Display%20screen%20404%20not%20found%0Aelse%0Agc-%3Egs%3AremoveComboFromCurriculum()%0Aactivate%20gs%0Ags-%3Edb%3Aupdate()%0Aactivate%20db%0Ags%3C--db%3ACurriculum%20data%0Adeactivate%20db%0Agc%3C--gs%3ACurriculum%20data%0Adeactivate%20gs%0Af%3C--gc%3A%3Ccolor%3A%23green%3E200%20OK%5CnResponse%20body%3A%20Curriculum%20data%3C%2Fcolor%3E%0Adeactivate%20gc%0Aw%3C--f%3A%20Display%20Curriculum%20detail%20page%0Adeactivate%20f%0Aend%20%0A</desc><defs/><g><g/><g/><g/><g/><g/><g/><g/><g/><g/><g/><g/><g/><g/><g/><g/><g/><g/><g/><g/><g/><g/><g/><g/><g/><g/><g/><g/><g/><g/><g><rect fill="white" stroke="none" x="0" y="0" width="1163" height="1271"/></g><g><text fill="black" stroke="none" font-family="sans-serif" font-size="16.5pt" font-style="normal" font-weight="normal" text-decoration="normal" x="420.7623156898112" y="24.50280495" text-anchor="start" dominant-baseline="alphabetic" xml:space="preserve">Remove Combo from Curriculum</text></g><g/><g><path fill="none" stroke="black" paint-order="fill stroke markers" d=" M 73.50841485 137.869115852 L 73.50841485 1271.5322248719997" stroke-miterlimit="10" stroke-width="1.3612669416666667" stroke-dasharray="12.565541,5.445067766666667"/><path fill="none" stroke="black" paint-order="fill stroke markers" d=" M 324.8642441802083 137.869115852 L 324.8642441802083 1271.5322248719997" stroke-miterlimit="10" stroke-width="1.3612669416666667" stroke-dasharray="12.565541,5.445067766666667"/><path fill="none" stroke="black" paint-order="fill stroke markers" d=" M 647.1364239397135 137.869115852 L 647.1364239397135 1271.5322248719997" stroke-miterlimit="10" stroke-width="1.3612669416666667" stroke-dasharray="12.565541,5.445067766666667"/><path fill="none" stroke="black" paint-order="fill stroke markers" d=" M 918.005603821289 137.869115852 L 918.005603821289 1271.5322248719997" stroke-miterlimit="10" stroke-width="1.3612669416666667" stroke-dasharray="12.565541,5.445067766666667"/><path fill="none" stroke="black" paint-order="fill stroke markers" d=" M 1081.3730289421223 137.869115852 L 1081.3730289421223 1271.5322248719997" stroke-miterlimit="10" stroke-width="1.3612669416666667" stroke-dasharray="12.565541,5.445067766666667"/></g><g><g><path fill="white" stroke="green" paint-order="fill stroke markers" d=" M 82.819480731 68.771205893 A 9.311065881 9.311065881 0 1 1 82.81947607546743 68.76189482867083 M 73.50841485 78.082271774 L 73.50841485 98.0112198 M 61.747068473999995 85.269761226 L 85.26976122599999 85.269761226 M 73.50841485 98.0112198 L 61.747068473999995 116.633351562 M 73.50841485 98.0112198 L 85.26976122599999 116.633351562" stroke-miterlimit="10" stroke-width="1.3884922805000002" stroke-dasharray=""/></g><g><text fill="black" stroke="none" font-family="sans-serif" font-size="11pt" font-style="normal" font-weight="normal" text-decoration="normal" x="14.166991815332025" y="132.968554862" text-anchor="start" dominant-baseline="alphabetic" xml:space="preserve">Workspace Admin</text></g><g><path fill="white" stroke="black" paint-order="fill stroke markers" d=" M 357.2896227307083 74.65187908099998 A 24.2577769005 24.2577769005 0 1 1 357.28961060182087 74.62762130814242 M 293.82735791020826 49.00560989999997 L 293.82735791020826 100.29814826199998 M 292.4388656297083 74.65187908099998 L 308.7740689297083 74.65187908099998" stroke-miterlimit="10" stroke-width="2.7769845610000004" stroke-dasharray=""/></g><g><text fill="black" stroke="none" font-family="sans-serif" font-size="11pt" font-style="normal" font-weight="normal" text-decoration="normal" x="266.6144425444661" y="116.63335156199999" text-anchor="start" dominant-baseline="alphabetic" xml:space="preserve">FUniverse Admin </text><text fill="black" stroke="none" font-family="sans-serif" font-size="11pt" font-style="normal" font-weight="normal" text-decoration="normal" x="306.12409372854813" y="132.968554862" text-anchor="start" dominant-baseline="alphabetic" xml:space="preserve">Client</text></g><g><path fill="white" stroke="black" paint-order="fill stroke markers" d=" M 671.3942008402134 90.987082381 A 24.2577769005 24.2577769005 0 1 1 671.394188711326 90.96282460814244 M 643.8693832797135 66.72930548049999 L 653.6705052597134 58.56170383049999 M 643.8693832797135 66.72930548049999 L 653.6705052597134 74.89690713049998" stroke-miterlimit="10" stroke-width="2.7769845610000004" stroke-dasharray=""/></g><g><text fill="black" stroke="none" font-family="sans-serif" font-size="11pt" font-style="normal" font-weight="normal" text-decoration="normal" x="577.8916500749674" y="132.968554862" text-anchor="start" dominant-baseline="alphabetic" xml:space="preserve">Curriculum Controller</text></g><path fill="none" stroke="none"/><g><path fill="white" stroke="black" paint-order="fill stroke markers" d=" M 838.3707067637382 93.92741897500001 L 997.6405008788398 93.92741897500001 L 997.6405008788398 137.869115852 L 838.3707067637382 137.869115852 L 838.3707067637382 93.92741897500001 Z" stroke-miterlimit="10" stroke-width="2.613632528" stroke-dasharray=""/></g><g><text fill="black" stroke="none" font-family="sans-serif" font-size="11pt" font-style="normal" font-weight="normal" text-decoration="normal" x="856.0944023442382" y="121.53391255200002" text-anchor="start" dominant-baseline="alphabetic" xml:space="preserve">Curriculum Service</text></g><g><path fill="white" stroke="blue" paint-order="fill stroke markers" d=" M 1057.5236321241223 105.852117384 L 1057.5236321241223 71.54819045400001 L 1105.2224257601224 71.54819045400001 L 1105.2224257601224 105.852117384" stroke-miterlimit="10" stroke-width="2.7769845610000004" stroke-dasharray=""/><path fill="white" stroke="blue" paint-order="fill stroke markers" d=" M 1105.2224257601224 70.3557206131 L 1105.2212333002187 70.46353115801662 L 1105.2176560397527 70.5713309219686 L 1105.2116943364472 70.67910912506936 L 1105.203348786468 70.7868549895884 L 1105.1926202243628 70.89455774102909 L 1105.179509722979 71.00220660920601 L 1105.1640185933556 71.10979082932205 L 1105.146148384593 71.21729964304485 L 1105.125900883697 71.32472229958266 L 1105.1032781154008 71.4320480567593 L 1105.0782823419624 71.53926618208853 L 1105.0509160629385 71.64636595384712 L 1105.0211820149339 71.75333666214719 L 1104.9890831713287 71.86016761000703 L 1104.9546227419805 71.96684811442087 L 1104.9178041729037 72.07336750742718 L 1104.8786311459246 72.17971513717544 L 1104.8371075783127 72.28588036899126 L 1104.7932376223907 72.39185258643997 L 1104.7470256651175 72.49762119238811 L 1104.69847632765 72.60317561006323 L 1104.647594464882 72.70850528411152 L 1104.594385164957 72.81359968165337 L 1104.5388537487609 72.9184482933366 L 1104.481005769389 73.02304063438739 L 1104.4208470115907 73.1273662456588 L 1104.358383491192 73.23141469467667 L 1104.293621454493 73.33517557668279 L 1104.2265673776428 73.43863851567541 L 1104.1572279659938 73.54179316544686 L 1104.0856101534293 73.64462921061813 L 1104.0117211016707 73.74713636767041 L 1103.9355681995614 73.84930438597338 L 1103.8571590623287 73.95112304881039 L 1103.7765015308207 74.05258217439999 L 1103.6936036707232 74.15367161691415 L 1103.6084737717533 74.25438126749289 L 1103.52112034683 74.35470105525506 L 1103.4315521312228 74.45462094830549 L 1103.3397780816786 74.55413095473813 L 1103.2458073755263 74.65322112363528 L 1103.1496494097578 74.7518815460626 L 1103.0513138000895 74.8501023560601 L 1102.9508103800008 74.9478737316286 L 1102.8481491997495 75.04518589571202 L 1102.7433405253685 75.14202911717507 L 1102.6363948376377 75.23839371177628 L 1102.5273228310368 75.3342700431365 L 1102.4161354126754 75.4296485237025 L 1102.3028437012028 75.5245196157057 L 1102.187459025696 75.61887383211595 L 1102.0699929245259 75.71270173759025 L 1101.950457144205 75.80599394941623 L 1101.8288636382117 75.89874113845048 L 1101.7052245657953 75.99093403005133 L 1101.57955229076 76.08256340500651 L 1101.4518593802284 76.17362010045484 L 1101.3221586033856 76.26409501080266 L 1101.1904629302005 76.35397908863435 L 1101.0567855301313 76.44326334561701 L 1100.9211397708063 76.53193885339937 L 1100.7835392166885 76.61999674450452 L 1100.6439976277186 76.70742821321674 L 1100.5025289579394 76.79422451646202 L 1100.3591473540996 76.88037697468238 L 1100.2138671542402 76.96587697270375 L 1100.0667028862606 77.05071596059763 L 1099.9176692664644 77.13488545453589 L 1099.7667811980896 77.2183770376393 L 1099.6140537698172 77.30118236081911 L 1099.4595022542628 77.38329314361202 L 1099.3031421064493 77.46470117500817 L 1099.144988962261 77.54539831427226 L 1098.985058636881 77.6253764917576 L 1098.8233671232076 77.70462770971312 L 1098.6599305902582 77.78314404308304 L 1098.4947653815498 77.86091764029945 L 1098.3278880134656 77.93794072406746 L 1098.159315173603 78.01420559214287 L 1097.9890637191058 78.08970461810242 L 1097.8171506749777 78.16443025210643 L 1097.6435932323798 78.23837502165378 L 1097.4684087469113 78.31153153232914 L 1097.2916147368753 78.38389246854238 L 1097.1132288815252 78.45545059426021 L 1096.933269019298 78.52619875372969 L 1096.7517531460298 78.59612987219379 L 1096.568699413157 78.66523695659897 L 1096.3841261259 78.73351309629439 L 1096.1980517414338 78.80095146372295 L 1096.0104948670419 78.86754531510411 L 1095.8214742582552 78.93328799110824 L 1095.6310088169773 78.99817291752252 L 1095.4391175895935 79.06219360590838 L 1095.2458197650667 79.12534365425033 L 1095.0511346730182 79.18761674759615 L 1094.855081781795 79.24900665868842 L 1094.657680696523 79.30950724858717 L 1094.4589511571457 79.36911246728384 L 1094.258913036452 79.42781635430622 L 1094.057586338087 79.48561303931454 L 1093.854991194553 79.54249674268846 L 1093.6511478651953 79.59846177610503 L 1093.4460767341768 79.65350254310756 L 1093.2397983084402 79.70761353966523 L 1093.0323332156559 79.76078935472344 L 1092.8237022021601 79.81302467074504 L 1092.6139261308806 79.86431426424193 L 1092.4030259792496 79.9146530062975 L 1092.1910228371066 79.9640358630795 L 1091.977937904589 80.01245789634342 L 1091.7637924900125 80.05991426392626 L 1091.5486080077403 80.10640022023081 L 1091.3324059760412 80.1519111167002 L 1091.115208014938 80.19644240228268 L 1090.8970358440458 80.23998962388683 L 1090.6779112804004 80.28254842682676 L 1090.4578562362751 80.32411455525765 L 1090.236892716991 80.36468385260129 L 1090.015042818716 80.40425226196174 L 1089.792328726255 80.44281582653107 L 1089.5687727108316 80.48037068998494 L 1089.344397127861 80.5169130968683 L 1089.1192244147146 80.55243939297091 L 1088.8932770884762 80.58694602569277 L 1088.6665777436901 80.62042954439937 L 1088.4391490501016 80.65288660076673 L 1088.211013750391 80.68431394911627 L 1087.9821946578975 80.71470844673934 L 1087.7527146543403 80.74406705421151 L 1087.5225966875282 80.7723868356965 L 1087.2918637690661 80.79966495923973 L 1087.0605389720538 80.82589869705163 L 1086.828645428778 80.85108542578025 L 1086.5962063283998 80.8752226267737 L 1086.3632449146357 80.89830788633202 L 1086.1297844834328 80.92033889594848 L 1085.8958483806398 80.94131345254046 L 1085.661459999672 80.96122945866979 L 1085.426642779172 80.98008492275247 L 1085.1914202006662 80.99787795925778 L 1084.9558157862166 81.01460678889691 L 1084.7198530960684 81.03026973880085 L 1084.4835557262936 81.04486524268764 L 1084.2469473064325 81.05839184101906 L 1084.01005149713 81.07084818114656 L 1083.7728919877695 81.08223301744648 L 1083.5354924941043 81.09254521144472 L 1083.297876755886 81.10178373193042 L 1083.0600685344903 81.10994765505929 L 1082.8220916105413 81.11703616444578 L 1082.583969781533 81.12304855124486 L 1082.3457268594495 81.12798421422288 L 1082.1073866683853 81.13184265981764 L 1081.8689730421602 81.1346235021878 L 1081.6305098219386 81.13632646325144 L 1081.3920208538434 81.13695137271387 L 1081.153529986573 81.13649816808466 L 1080.915061069015 81.13496689468391 L 1080.676637947863 81.13235770563769 L 1080.4382844652298 81.1286708618627 L 1080.2000244562655 81.12390673204027 L 1079.9618817467722 81.1180657925794 L 1079.7238801508224 81.11114862756918 L 1079.4860434683776 81.10315592872034 L 1079.2483954829077 81.09408849529609 L 1079.0109599590132 81.08394723403225 L 1078.7737606400485 81.07273315904646 L 1078.5368212457481 81.0604473917369 L 1078.3001654698537 81.04709116067005 L 1078.063816977746 81.03266580145788 L 1077.827799404077 81.01717275662432 L 1077.5921363504074 81.0006135754609 L 1077.3568513828463 80.98298991387196 L 1077.1219680296942 80.96430353420898 L 1076.887509779091 80.94455630509435 L 1076.653500076666 80.92375020123451 L 1076.4199623231948 80.90188730322252 L 1076.1869198722577 80.87896979732996 L 1075.9543960279061 80.85499997528832 L 1075.7224140423302 80.82998023405985 L 1075.4909971135355 80.80391307559779 L 1075.2601683830221 80.77680110659627 L 1075.0299509334704 80.74864703822962 L 1074.800367786434 80.71945368588119 L 1074.5714419000358 80.68922396886191 L 1074.3431961666738 80.65796091011826 L 1074.115653410731 80.62566763593009 L 1073.8888363862939 80.5923473755979 L 1073.6627677748752 80.55800346111995 L 1073.4374701831482 80.52263932685908 L 1073.2129661406843 80.48625850919922 L 1072.9892780977004 80.44886464619185 L 1072.7664284228144 80.4104614771921 L 1072.5444394008084 80.37105284248486 L 1072.3233332303992 80.33064268290076 L 1072.10313202202 80.28923503942208 L 1071.8838577956076 80.24683405277868 L 1071.6655324784024 80.20344396303388 L 1071.4481779027542 80.1590691091605 L 1071.231815803939 80.11371392860693 L 1071.0164678179867 80.06738295685345 L 1070.8021554795164 80.02008082695862 L 1070.5889002195834 79.971812269096 L 1070.3767233635358 79.92258211008118 L 1070.1656461288826 79.87239527288902 L 1069.9556896231713 79.8212567761614 L 1069.7468748418773 79.76917173370542 L 1069.539222666305 79.71614535398189 L 1069.3327538614988 79.66218293958458 L 1069.1274890741672 79.60728988670999 L 1068.9234488306176 79.55147168461767 L 1068.7206535347048 79.49473391508127 L 1068.519123465789 79.4370822518305 L 1068.3188787767092 79.37852245998366 L 1068.1199394917678 79.31906039547108 L 1067.922325504727 79.2587020044497 L 1067.726056576821 79.1974533227083 L 1067.5311523347793 79.13532047506403 L 1067.3376322688632 79.07230967474987 L 1067.1455157309185 79.00842722279336 L 1066.9548219324388 78.94367950738643 L 1066.7655699426448 78.87807300324668 L 1066.5777786865779 78.81161427096987 L 1066.3914669432072 78.74430995637381 L 1066.2066533435518 78.6761667898339 L 1066.0233563688178 78.60719158561 L 1065.8415943485495 78.53739124116504 L 1065.661385458798 78.4667727364753 L 1065.4827477203016 78.39534313333243 L 1065.3056989966858 78.3231095746372 L 1065.130256992675 78.25007928368528 L 1064.9564392523234 78.17625956344492 L 1064.7842631572605 78.10165779582661 L 1064.6137459249524 78.02628144094496 L 1064.4449046069797 77.95013803637262 L 1064.2777560873337 77.87323519638663 L 1064.1123170807273 77.79558061120689 L 1063.9486041309233 77.7171820462272 L 1063.78663360908 77.63804734123872 L 1063.6264217121145 77.558184409646 L 1063.4679844610835 77.47760123767569 L 1063.3113376995798 77.39630588357778 L 1063.1564970921488 77.31430647681997 L 1063.0034781227225 77.23161121727458 L 1062.8522960930702 77.14822837439866 L 1062.702966121269 77.06416628640702 L 1062.5555031401914 76.9794333594384 L 1062.409921896013 76.8940380667149 L 1062.2662369467364 76.8079889476946 L 1062.1244626607372 76.72129460721773 L 1061.9846132153257 76.63396371464606 L 1061.84670259533 76.5460050029961 L 1061.710744591697 76.4574272680657 L 1061.576752800114 76.36823936755454 L 1061.4447406196482 76.27845022017834 L 1061.314721251408 76.18806880477703 L 1061.1867076972214 76.09710415941684 L 1061.0607127583376 76.00556538048647 L 1060.9367490341451 75.91346162178756 L 1060.8148289209134 75.82080209361922 L 1060.694964610552 75.72759606185704 L 1060.577168089392 75.63385284702655 L 1060.4614511369875 75.53958182337107 L 1060.3478253249375 75.44479241791444 L 1060.236302015728 75.34949410951822 L 1060.1268923615974 75.25369642793382 L 1060.0196073034197 75.15740895284955 L 1059.9144575696114 75.06064131293272 L 1059.8114536750584 74.96340318486665 L 1059.7106059200642 74.86570429238313 L 1059.61192438932 74.76755440528999 L 1059.5154189508971 74.66896333849414 L 1059.4210992552585 74.56994095102011 L 1059.3289747342956 74.47049714502414 L 1059.2390546003835 74.37064186480393 L 1059.1513478454604 74.27038509580431 L 1059.0658632401291 74.16973686361864 L 1058.9826093327788 74.06870723298624 L 1058.901594448731 73.967306306786 L 1058.8228266894062 73.86554422502604 L 1058.7463139315148 73.76343116382972 L 1058.672063826269 73.66097733441809 L 1058.6000837986173 73.5581929820887 L 1058.5303810465027 73.45508838519112 L 1058.4629625401421 73.35167385409913 L 1058.3978350213301 73.24795973017967 L 1058.3350050027643 73.14395638475868 L 1058.2744787673942 73.03967421808406 L 1058.2162623677928 72.93512365828555 L 1058.1603616255513 72.83031516033202 L 1058.1067821306979 72.72525920498593 L 1058.0555292411373 72.61996629775525 L 1058.0066080821152 72.51444696784297 L 1057.9600235457076 72.40871176709415 L 1057.9157802903285 72.30277126894076 L 1057.8738827402672 72.19663606734431 L 1057.8343350852433 72.09031677573653 L 1057.7971412799898 71.98382402595799 L 1057.7623050438558 71.87716846719489 L 1057.7298298604362 71.77036076491427 L 1057.6997189772221 71.66341159979731 L 1057.671975405277 71.55633166667144 L 1057.6466019189345 71.44913167344072 L 1057.6236010555226 71.34182234001513 L 1057.6029751151082 71.2344143972386 L 1057.584726160268 71.12691858581589 L 1057.5688560158826 71.01934565523857 L 1057.555366268953 70.91170636271006 L 1057.544258268443 70.80401147206992 L 1057.5355331251428 70.69627175271745 L 1057.5291917115599 70.5884979785348 L 1057.5252346618302 70.4807009268096 L 1057.5236623716555 70.37289137715717 L 1057.5244749982635 70.26508011044265 L 1057.527672460392 70.15727790770286 L 1057.5332544382977 70.04949554906824 L 1057.5412203737874 69.94174381268483 L 1057.5515694702742 69.8340334736365 L 1057.564300692857 69.72637530286737 L 1057.5794127684242 69.6187800661048 L 1057.5969041857807 69.51125852278282 L 1057.6167731957994 69.40382142496617 L 1057.6390178115962 69.29647951627507 L 1057.6636358087276 69.18924353081097 L 1057.6906247254146 69.08212419208301 L 1057.719981862788 68.97513221193586 L 1057.7517042851584 68.86827828947831 L 1057.7857888203102 68.76157311001361 L 1057.8222320598184 68.65502734397076 L 1057.8610303593891 68.54865164583758 L 1057.9021798392248 68.44245665309525 L 1057.9456763844119 68.33645298515454 L 1057.991515645332 68.23065124229389 L 1058.039693038097 68.12506200459944 L 1058.0902037450082 68.01969583090698 L 1058.143042715037 67.91456325774605 L 1058.19820466433 67.80967479828637 L 1058.2556840767386 67.70504094128646 L 1058.3154752043695 67.60067215004484 L 1058.3775720681595 67.49657886135367 L 1058.4419684584739 67.39277148445505 L 1058.5086579357276 67.28926040000019 L 1058.5776338310284 67.18605595901127 L 1058.6488892468442 67.08316848184637 L 1058.7224170576928 66.98060825716748 L 1058.7982099108544 66.8783855409116 L 1058.876260227107 66.77651055526518 L 1058.9565602014836 66.67499348764186 L 1059.039101804054 66.57384448966383 L 1059.123876780727 66.47307367614658 L 1059.2108766540748 66.37269112408752 L 1059.3000927241833 66.27270687165817 L 1059.3915160695192 66.17313091720047 L 1059.4851375478247 66.07397321822687 L 1059.58094779703 65.97524369042465 L 1059.6789372361895 65.87695220666431 L 1059.7790960664413 65.77910859601232 L 1059.8814142719857 65.68172264274821 L 1059.9858816210876 65.58480408538615 L 1060.092487667099 65.4883626157011 L 1060.2012217495044 65.3924078777597 L 1060.3120729949858 65.29694946695572 L 1060.425030318511 65.20199692905075 L 1060.540082424442 65.10755975921941 L 1060.6572178076642 65.01364740110003 L 1060.7764247547368 64.92026924585012 L 1060.8976913450642 64.82743463120741 L 1061.0210054520885 64.735152840556 L 1061.146354744502 64.64343310199806 L 1061.2737266874797 64.55228458743099 L 1061.4031085439335 64.46171641163032 L 1061.5344873757856 64.37173763133814 L 1061.6678500452622 64.2823572443575 L 1061.8031832162076 64.19358418865261 L 1061.9404733554175 64.10542734145508 L 1062.0797067339922 64.01789551837615 L 1062.22086942871 63.93099747252518 L 1062.3639473234193 63.84474189363436 L 1062.5089261104495 63.759137407189684 L 1062.6557912920427 63.67419257356846 L 1062.8045281818033 63.589915887183274 L 1062.9551219061664 63.50631577563253 L 1063.1075574058846 63.42340059885771 L 1063.2618194375355 63.3411786483074 L 1063.417892575044 63.25965814610814 L 1063.575761211227 63.17884724424221 L 1063.7354095593519 63.09875402373246 L 1063.896821654717 63.01938649383419 L 1064.0599813562474 62.940752591234265 L 1064.224872348109 62.8628601792574 L 1064.39147814134 62.78571704707989 L 1064.5597820754997 62.70933090895067 L 1064.729767320335 62.63370940341989 L 1064.9014168774634 62.558860092575095 L 1065.0747135820716 62.48479046128499 L 1065.2496401046342 62.41150791645098 L 1065.4261789526442 62.339019786266476 L 1065.6043124723644 62.267333319484095 L 1065.7840228505909 62.196455684690775 L 1065.9652921164359 62.12639396959093 L 1066.1481021431237 62.057155180297684 L 1066.3324346498039 61.98874624063228 L 1066.5182712033795 61.92117399143166 L 1066.70559322035 61.85444518986444 L 1066.8943819686701 61.788566508755174 L 1067.0846185696219 61.72354453591707 L 1067.276283999704 61.659385773493234 L 1067.469359092533 61.59609663730643 L 1067.6638245407607 61.533683456217545 L 1067.8596608980042 61.47215247149268 L 1068.0568485807912 61.41150983617902 L 1068.2553678705174 61.35176161448957 L 1068.4551989154193 61.29291378119671 L 1068.6563217325593 61.234972221034724 L 1068.858716209823 61.17794272811134 L 1069.062362107931 61.12183100532834 L 1069.267239062464 61.06664266381124 L 1069.4733265858965 61.012383222348184 L 1069.6806040696486 60.959058106838114 L 1069.889050786144 60.90667264974815 L 1070.098645890885 60.85523208958034 L 1070.3093684245362 60.804741570347836 L 1070.5211973150192 60.755206141060484 L 1070.7341113796217 60.70663075521993 L 1070.9480893271148 60.65902027032429 L 1071.163109759882 60.61237944738237 L 1071.3791511760592 60.56671295043759 L 1071.596191971685 60.52202534610161 L 1071.81421044286 60.4783211030976 L 1072.0331847879197 60.43560459181345 L 1072.2530931096114 60.3938800838647 L 1072.4739134172867 60.35315175166736 L 1072.6956236290982 60.313423668020725 L 1072.9182015742101 60.27469980570004 L 1073.1416249950132 60.23698403705927 L 1073.3658715493514 60.20028013364386 L 1073.5909188127564 60.164591765813555 L 1073.8167442806891 60.12992250237539 L 1074.043325370791 60.096275810226835 L 1074.2706394251422 60.06365505400906 L 1074.4986637125264 60.0320634957705 L 1074.7273754307048 60.001504294640654 L 1074.9567517086964 59.971980506514164 L 1075.1867696090644 59.94349508374525 L 1075.4174061302106 59.916050874852445 L 1075.648638208675 59.88965062423377 L 1075.8804427214425 59.86429697189228 L 1076.1127964882548 59.83999245317209 L 1076.345676273929 59.816739498504816 L 1076.5790587906806 59.794540433166546 L 1076.8129207004522 59.773397477045314 L 1077.047238617248 59.75331274441912 L 1077.2819891094716 59.73428824374447 L 1077.5171487022692 59.7163258774556 L 1077.7526938798776 59.69942744177417 L 1077.9886010879752 59.68359462652965 L 1078.224846736038 59.66882901499038 L 1078.4614071996978 59.655132083705205 L 1078.6982588231056 59.64250520235584 L 1078.935377921296 59.630949633619906 L 1079.1727407825576 59.620466533044635 L 1079.4103236708013 59.611056948931356 L 1079.6481028279368 59.602721822230635 L 1079.886054476246 59.5954619864482 L 1080.124154820763 59.58927816756158 L 1080.362380051651 59.58417098394751 L 1080.6007063465859 59.580140946320086 L 1080.839109873137 59.57718845767973 L 1081.0775667911498 59.57531381327283 L 1081.3160532551317 59.57451720056227 L 1081.5545454166347 59.57479869920866 L 1081.7930194266416 59.57615828106236 L 1082.03145143795 59.578595810166334 L 1082.2698176075573 59.5821110427697 L 1082.5080940990458 59.58670362735211 L 1082.746257084964 59.59237310465895 L 1082.9842827492128 59.5991189077472 L 1083.2221472894232 59.60694036204218 L 1083.45982691934 59.615836685404986 L 1083.6972978711979 59.625806988210684 L 1083.9345363981 59.636850273437304 L 1084.171518776391 59.648965436765536 L 1084.4082213080305 59.66215126668912 L 1084.6446203229627 59.676406444636086 L 1084.8806921814833 59.691729545100486 L 1085.116413276603 59.70811903578506 L 1085.3517600364087 59.72557327775439 L 1085.5867089264204 59.744090525598835 L 1085.8212364519454 59.76366892760903 L 1086.055319160426 59.7843065259611 L 1086.2889336437868 59.806001256912396 L 1086.522056540774 59.82875095100791 L 1086.754664539292 59.85255333329719 L 1086.986734378735 59.87740602356183 L 1087.2182428523126 59.90330653655353 L 1087.44916680937 59.93025228224257 L 1087.6794831577042 59.95824056607684 L 1087.909168865872 59.98726858925126 L 1088.1382009654944 60.01733344898773 L 1088.366556553552 60.048432138825305 L 1088.5942127946767 60.08056154892094 L 1088.8211469234334 60.11371846636038 L 1089.047336246599 60.14789957547953 L 1089.272758145429 60.18310145819595 L 1089.497390077922 60.2193205943507 L 1089.7212095810717 60.25655336206036 L 1089.9441942731141 60.29479603807917 L 1090.1663218557662 60.33404479817142 L 1090.3875701164548 60.37429571749378 L 1090.6079169305378 60.41554477098788 L 1090.8273402635177 60.457787833782746 L 1091.0458181732442 60.50102068160729 L 1091.263328812108 60.545238991212756 L 1091.4798504292269 60.590438340805036 L 1091.6953613726193 60.63661421048684 L 1091.9098400913706 60.683761982709676 L 1092.1232651377875 60.73187694273561 L 1092.3356151695434 60.78095427910874 L 1092.546868951812 60.83098908413633 L 1092.7570053593913 60.88197635437956 L 1092.9660033788155 60.9339109911539 L 1093.1738421104565 60.98678780103896 L 1093.3805007706148 61.0406014963978 L 1093.5859586935965 61.09534669590574 L 1093.7901953337805 61.151017925088446 L 1093.9931902676728 61.2076096168694 L 1094.1949231959495 61.26511611212656 L 1094.3953739454855 61.323531660258354 L 1094.5945224713732 61.38285041975863 L 1094.7923488589258 61.44306645880087 L 1094.9888333256695 61.50417375583136 L 1095.183956223321 61.5661662001713 L 1095.3776980397538 61.62903759262794 L 1095.5700394009473 61.69278164611441 L 1095.7609610729257 61.75739198627849 L 1095.950443963681 61.82286215214 L 1096.1384691250819 61.889185596736915 L 1096.3250177547689 61.95635568778004 L 1096.5100711980347 62.02436570831625 L 1096.693610949689 62.09320885740017 L 1096.8756186559096 62.162878250774256 L 1097.0560761160775 62.23336692155723 L 1097.2349652845974 62.30466782094075 L 1097.4122682727013 62.37677381889429 L 1097.587967350238 62.44967770487816 L 1097.7620449474464 62.52337218856451 L 1097.9344836567116 62.59784990056637 L 1098.1052662343066 62.673103393174614 L 1098.274375602116 62.74912514110269 L 1098.4417948493435 62.82590754223916 L 1098.6075072342044 62.90344291840789 L 1098.7714961855982 62.98172351613588 L 1098.933745304766 63.06074150742859 L 1099.0942383669317 63.14048899055273 L 1099.2529593229224 63.22095799082646 L 1099.409892300775 63.302140461416805 L 1099.5650216073225 63.38402828414435 L 1099.7183317297631 63.46661327029506 L 1099.869807337213 63.54988716143916 L 1100.019433282237 63.63384163025691 L 1100.167194602366 63.71846828137139 L 1100.3130765215903 63.80375865218803 L 1100.4570644518403 63.889704213740806 L 1100.5991439944423 63.97629637154519 L 1100.7393009415612 64.06352646645756 L 1100.8775212776184 64.15138577554112 L 1101.0137911806958 64.23986551293817 L 1101.1480970239165 64.3289568307487 L 1101.2804253768084 64.41865081991519 L 1101.410763006646 64.50893851111344 L 1101.5390968797753 64.59981087564961 L 1101.665414162916 64.69125882636293 L 1101.7897022244447 64.78327321853456 L 1101.9119486356592 64.87584485080197 L 1102.03214117202 64.96896446607904 L 1102.1502678143734 65.06262275248187 L 1102.2663167501541 65.15681034425987 L 1102.380276374565 65.25151782273234 L 1102.4921352917386 65.34673571723036 L 1102.6018823158765 65.44245450604383 L 1102.7095064723676 65.53866461737363 L 1102.814996998886 65.6353564302888 L 1102.9183433464673 65.73252027568861 L 1103.0195351805621 65.83014643726952 L 1103.118562382072 65.92822515249672 L 1103.215415048359 66.02674661358041 L 1103.3100834942375 66.12570096845658 L 1103.4025582529414 66.22507832177222 L 1103.492830077072 66.3248687358748 L 1103.5808899395224 66.42506223180607 L 1103.6667290343796 66.52564879029993 L 1103.7503387778054 66.62661835278435 L 1103.8317108088954 66.72796082238723 L 1103.9108369905143 66.82966606494605 L 1103.9877094101098 66.93172391002133 L 1104.062320380504 67.03412415191359 L 1104.134662440662 67.13685655068397 L 1104.2047283564382 67.23991083317823 L 1104.2725111212992 67.34327669405398 L 1104.3380039570252 67.44694379681127 L 1104.401200314387 67.55090177482622 L 1104.4620938738017 67.65514023238765 L 1104.520678545964 67.75964874573668 L 1104.5769484724558 67.86441686410906 L 1104.6308980263311 67.96943411078026 L 1104.6825218126792 68.07468998411312 L 1104.731814669165 68.18017395860804 L 1104.7787716665434 68.28587548595544 L 1104.8233881091544 68.39178399609071 L 1104.8656595353905 68.49788889825106 L 1104.9055817181443 68.60417958203472 L 1104.9431506652309 68.71064541846185 L 1104.978362619787 68.81727576103756 L 1105.0112140606464 68.92405994681646 L 1105.041701702692 69.03098729746893 L 1105.069822497186 69.13804712034903 L 1105.0955736320714 69.24522870956366 L 1105.1189525322563 69.35252134704326 L 1105.1399568598708 69.45991430361346 L 1105.158584514499 69.5673968400681 L 1105.1748336333912 69.67495820824311 L 1105.1887025916492 69.78258765209132 L 1105.2001900023884 69.890274408758 L 1105.2092947168776 69.99800770965726 L 1105.2160158246527 70.10577678154877 L 1105.2203526536089 70.21357084761514 L 1105.2223047700663 70.32137912853962 M 1105.2224257601224 104.6596475431 L 1105.2212333002187 104.76745808801661 L 1105.2176560397527 104.87525785196858 L 1105.2116943364472 104.98303605506935 L 1105.203348786468 105.0907819195884 L 1105.1926202243628 105.19848467102908 L 1105.179509722979 105.306133539206 L 1105.1640185933556 105.41371775932204 L 1105.146148384593 105.52122657304484 L 1105.125900883697 105.62864922958265 L 1105.1032781154008 105.73597498675929 L 1105.0782823419624 105.84319311208851 L 1105.0509160629385 105.95029288384711 L 1105.0211820149339 106.05726359214718 L 1104.9890831713287 106.16409454000701 L 1104.9546227419805 106.27077504442086 L 1104.9178041729037 106.37729443742717 L 1104.8786311459246 106.48364206717542 L 1104.8371075783127 106.58980729899125 L 1104.7932376223907 106.69577951643996 L 1104.7470256651175 106.8015481223881 L 1104.69847632765 106.90710254006322 L 1104.647594464882 107.01243221411151 L 1104.594385164957 107.11752661165336 L 1104.5388537487609 107.22237522333658 L 1104.481005769389 107.32696756438737 L 1104.4208470115907 107.4312931756588 L 1104.358383491192 107.53534162467666 L 1104.293621454493 107.63910250668278 L 1104.2265673776428 107.7425654456754 L 1104.1572279659938 107.84572009544685 L 1104.0856101534293 107.94855614061812 L 1104.0117211016707 108.0510632976704 L 1103.9355681995614 108.15323131597337 L 1103.8571590623287 108.25504997881038 L 1103.7765015308207 108.35650910439998 L 1103.6936036707232 108.45759854691414 L 1103.6084737717533 108.55830819749288 L 1103.52112034683 108.65862798525505 L 1103.4315521312228 108.75854787830548 L 1103.3397780816786 108.85805788473812 L 1103.2458073755263 108.95714805363527 L 1103.1496494097578 109.0558084760626 L 1103.0513138000895 109.1540292860601 L 1102.9508103800008 109.2518006616286 L 1102.8481491997495 109.34911282571201 L 1102.7433405253685 109.44595604717506 L 1102.6363948376377 109.54232064177627 L 1102.5273228310368 109.63819697313649 L 1102.4161354126754 109.73357545370249 L 1102.3028437012028 109.82844654570569 L 1102.187459025696 109.92280076211594 L 1102.0699929245259 110.01662866759024 L 1101.950457144205 110.10992087941622 L 1101.8288636382117 110.20266806845046 L 1101.7052245657953 110.29486096005132 L 1101.57955229076 110.3864903350065 L 1101.4518593802284 110.47754703045483 L 1101.3221586033856 110.56802194080265 L 1101.1904629302005 110.65790601863434 L 1101.0567855301313 110.747190275617 L 1100.9211397708063 110.83586578339936 L 1100.7835392166885 110.92392367450451 L 1100.6439976277186 111.01135514321673 L 1100.5025289579394 111.09815144646201 L 1100.3591473540996 111.18430390468237 L 1100.2138671542402 111.26980390270374 L 1100.0667028862606 111.35464289059762 L 1099.9176692664644 111.43881238453588 L 1099.7667811980896 111.52230396763929 L 1099.6140537698172 111.6051092908191 L 1099.4595022542628 111.68722007361201 L 1099.3031421064493 111.76862810500816 L 1099.144988962261 111.84932524427225 L 1098.985058636881 111.9293034217576 L 1098.8233671232076 112.00855463971311 L 1098.6599305902582 112.08707097308303 L 1098.4947653815498 112.16484457029944 L 1098.3278880134656 112.24186765406745 L 1098.159315173603 112.31813252214286 L 1097.9890637191058 112.3936315481024 L 1097.8171506749777 112.46835718210642 L 1097.6435932323798 112.54230195165377 L 1097.4684087469113 112.61545846232913 L 1097.2916147368753 112.68781939854237 L 1097.1132288815252 112.7593775242602 L 1096.933269019298 112.83012568372968 L 1096.7517531460298 112.90005680219377 L 1096.568699413157 112.96916388659896 L 1096.3841261259 113.03744002629438 L 1096.1980517414338 113.10487839372294 L 1096.0104948670419 113.1714722451041 L 1095.8214742582552 113.23721492110823 L 1095.6310088169773 113.30209984752251 L 1095.4391175895935 113.36612053590837 L 1095.2458197650667 113.42927058425032 L 1095.0511346730182 113.49154367759614 L 1094.855081781795 113.5529335886884 L 1094.657680696523 113.61343417858716 L 1094.4589511571457 113.67303939728383 L 1094.258913036452 113.7317432843062 L 1094.057586338087 113.78953996931453 L 1093.854991194553 113.84642367268845 L 1093.6511478651953 113.90238870610501 L 1093.4460767341768 113.95742947310755 L 1093.2397983084402 114.01154046966522 L 1093.0323332156559 114.06471628472343 L 1092.8237022021601 114.11695160074503 L 1092.6139261308806 114.16824119424192 L 1092.4030259792496 114.21857993629749 L 1092.1910228371066 114.26796279307949 L 1091.977937904589 114.31638482634341 L 1091.7637924900125 114.36384119392625 L 1091.5486080077403 114.4103271502308 L 1091.3324059760412 114.4558380467002 L 1091.115208014938 114.50036933228267 L 1090.8970358440458 114.54391655388682 L 1090.6779112804004 114.58647535682675 L 1090.4578562362751 114.62804148525764 L 1090.236892716991 114.66861078260128 L 1090.015042818716 114.70817919196173 L 1089.792328726255 114.74674275653106 L 1089.5687727108316 114.78429761998493 L 1089.344397127861 114.82084002686828 L 1089.1192244147146 114.8563663229709 L 1088.8932770884762 114.89087295569276 L 1088.6665777436901 114.92435647439936 L 1088.4391490501016 114.95681353076672 L 1088.211013750391 114.98824087911626 L 1087.9821946578975 115.01863537673933 L 1087.7527146543403 115.0479939842115 L 1087.5225966875282 115.07631376569648 L 1087.2918637690661 115.10359188923972 L 1087.0605389720538 115.12982562705162 L 1086.828645428778 115.15501235578024 L 1086.5962063283998 115.1791495567737 L 1086.3632449146357 115.20223481633201 L 1086.1297844834328 115.22426582594846 L 1085.8958483806398 115.24524038254044 L 1085.661459999672 115.26515638866978 L 1085.426642779172 115.28401185275246 L 1085.1914202006662 115.30180488925777 L 1084.9558157862166 115.3185337188969 L 1084.7198530960684 115.33419666880084 L 1084.4835557262936 115.34879217268762 L 1084.2469473064325 115.36231877101905 L 1084.01005149713 115.37477511114655 L 1083.7728919877695 115.38615994744647 L 1083.5354924941043 115.3964721414447 L 1083.297876755886 115.40571066193041 L 1083.0600685344903 115.41387458505928 L 1082.8220916105413 115.42096309444577 L 1082.583969781533 115.42697548124485 L 1082.3457268594495 115.43191114422287 L 1082.1073866683853 115.43576958981762 L 1081.8689730421602 115.43855043218778 L 1081.6305098219386 115.44025339325142 L 1081.3920208538434 115.44087830271386 L 1081.153529986573 115.44042509808465 L 1080.915061069015 115.4388938246839 L 1080.676637947863 115.43628463563768 L 1080.4382844652298 115.43259779186269 L 1080.2000244562655 115.42783366204026 L 1079.9618817467722 115.42199272257939 L 1079.7238801508224 115.41507555756917 L 1079.4860434683776 115.40708285872033 L 1079.2483954829077 115.39801542529608 L 1079.0109599590132 115.38787416403224 L 1078.7737606400485 115.37666008904645 L 1078.5368212457481 115.36437432173689 L 1078.3001654698537 115.35101809067004 L 1078.063816977746 115.33659273145787 L 1077.827799404077 115.32109968662431 L 1077.5921363504074 115.30454050546089 L 1077.3568513828463 115.28691684387195 L 1077.1219680296942 115.26823046420897 L 1076.887509779091 115.24848323509434 L 1076.653500076666 115.2276771312345 L 1076.4199623231948 115.20581423322251 L 1076.1869198722577 115.18289672732995 L 1075.9543960279061 115.15892690528831 L 1075.7224140423302 115.13390716405983 L 1075.4909971135355 115.10784000559778 L 1075.2601683830221 115.08072803659626 L 1075.0299509334704 115.05257396822961 L 1074.800367786434 115.02338061588118 L 1074.5714419000358 114.9931508988619 L 1074.3431961666738 114.96188784011825 L 1074.115653410731 114.92959456593007 L 1073.8888363862939 114.89627430559788 L 1073.6627677748752 114.86193039111994 L 1073.4374701831482 114.82656625685907 L 1073.2129661406843 114.7901854391992 L 1072.9892780977004 114.75279157619184 L 1072.7664284228144 114.71438840719209 L 1072.5444394008084 114.67497977248485 L 1072.3233332303992 114.63456961290075 L 1072.10313202202 114.59316196942207 L 1071.8838577956076 114.55076098277867 L 1071.6655324784024 114.50737089303387 L 1071.4481779027542 114.46299603916049 L 1071.231815803939 114.41764085860692 L 1071.0164678179867 114.37130988685344 L 1070.8021554795164 114.32400775695861 L 1070.5889002195834 114.275739199096 L 1070.3767233635358 114.22650904008117 L 1070.1656461288826 114.17632220288901 L 1069.9556896231713 114.1251837061614 L 1069.7468748418773 114.07309866370541 L 1069.539222666305 114.02007228398188 L 1069.3327538614988 113.96610986958457 L 1069.1274890741672 113.91121681670998 L 1068.9234488306176 113.85539861461766 L 1068.7206535347048 113.79866084508126 L 1068.519123465789 113.74100918183049 L 1068.3188787767092 113.68244938998365 L 1068.1199394917678 113.62298732547107 L 1067.922325504727 113.56262893444969 L 1067.726056576821 113.50138025270829 L 1067.5311523347793 113.43924740506402 L 1067.3376322688632 113.37623660474986 L 1067.1455157309185 113.31235415279335 L 1066.9548219324388 113.24760643738642 L 1066.7655699426448 113.18199993324667 L 1066.5777786865779 113.11554120096986 L 1066.3914669432072 113.0482368863738 L 1066.2066533435518 112.98009371983389 L 1066.0233563688178 112.91111851560999 L 1065.8415943485495 112.84131817116503 L 1065.661385458798 112.7706996664753 L 1065.4827477203016 112.69927006333242 L 1065.3056989966858 112.62703650463719 L 1065.130256992675 112.55400621368527 L 1064.9564392523234 112.4801864934449 L 1064.7842631572605 112.4055847258266 L 1064.6137459249524 112.33020837094494 L 1064.4449046069797 112.25406496637261 L 1064.2777560873337 112.17716212638662 L 1064.1123170807273 112.09950754120688 L 1063.9486041309233 112.02110897622718 L 1063.78663360908 111.9419742712387 L 1063.6264217121145 111.86211133964599 L 1063.4679844610835 111.78152816767567 L 1063.3113376995798 111.70023281357777 L 1063.1564970921488 111.61823340681995 L 1063.0034781227225 111.53553814727456 L 1062.8522960930702 111.45215530439864 L 1062.702966121269 111.368093216407 L 1062.5555031401914 111.28336028943839 L 1062.409921896013 111.19796499671489 L 1062.2662369467364 111.11191587769459 L 1062.1244626607372 111.02522153721772 L 1061.9846132153257 110.93789064464605 L 1061.84670259533 110.84993193299609 L 1061.710744591697 110.76135419806569 L 1061.576752800114 110.67216629755453 L 1061.4447406196482 110.58237715017833 L 1061.314721251408 110.49199573477702 L 1061.1867076972214 110.40103108941683 L 1061.0607127583376 110.30949231048646 L 1060.9367490341451 110.21738855178755 L 1060.8148289209134 110.12472902361921 L 1060.694964610552 110.03152299185703 L 1060.577168089392 109.93777977702653 L 1060.4614511369875 109.84350875337105 L 1060.3478253249375 109.74871934791443 L 1060.236302015728 109.65342103951821 L 1060.1268923615974 109.5576233579338 L 1060.0196073034197 109.46133588284954 L 1059.9144575696114 109.3645682429327 L 1059.8114536750584 109.26733011486664 L 1059.7106059200642 109.16963122238312 L 1059.61192438932 109.07148133528997 L 1059.5154189508971 108.97289026849413 L 1059.4210992552585 108.8738678810201 L 1059.3289747342956 108.77442407502413 L 1059.2390546003835 108.67456879480392 L 1059.1513478454604 108.5743120258043 L 1059.0658632401291 108.47366379361863 L 1058.9826093327788 108.37263416298623 L 1058.901594448731 108.27123323678599 L 1058.8228266894062 108.16947115502603 L 1058.7463139315148 108.06735809382971 L 1058.672063826269 107.96490426441808 L 1058.6000837986173 107.86211991208869 L 1058.5303810465027 107.7590153151911 L 1058.4629625401421 107.65560078409912 L 1058.3978350213301 107.55188666017966 L 1058.3350050027643 107.44788331475867 L 1058.2744787673942 107.34360114808405 L 1058.2162623677928 107.23905058828554 L 1058.1603616255513 107.13424209033201 L 1058.1067821306979 107.02918613498592 L 1058.0555292411373 106.92389322775524 L 1058.0066080821152 106.81837389784296 L 1057.9600235457076 106.71263869709414 L 1057.9157802903285 106.60669819894075 L 1057.8738827402672 106.5005629973443 L 1057.8343350852433 106.39424370573651 L 1057.7971412799898 106.28775095595797 L 1057.7623050438558 106.18109539719488 L 1057.7298298604362 106.07428769491426 L 1057.6997189772221 105.9673385297973 L 1057.671975405277 105.86025859667143 L 1057.6466019189345 105.7530586034407 L 1057.6236010555226 105.64574927001512 L 1057.6029751151082 105.53834132723858 L 1057.584726160268 105.43084551581588 L 1057.5688560158826 105.32327258523856 L 1057.555366268953 105.21563329271005 L 1057.544258268443 105.1079384020699 L 1057.5355331251428 105.00019868271744 L 1057.5291917115599 104.89242490853479 L 1057.5252346618302 104.78462785680959 L 1057.5236623716555 104.67681830715716" stroke-miterlimit="10" stroke-width="2.7769845610000004" stroke-dasharray=""/></g><g><text fill="black" stroke="none" font-family="sans-serif" font-size="11pt" font-style="normal" font-weight="normal" text-decoration="normal" x="1049.9950839958333" y="132.968554862" text-anchor="start" dominant-baseline="alphabetic" xml:space="preserve">Database</text></g></g><g><path fill="white" stroke="black" paint-order="fill stroke markers" d=" M 316.6966425302083 191.775286742 L 333.0318458302083 191.775286742 L 333.0318458302083 1189.8562083719999 L 316.6966425302083 1189.8562083719999 L 316.6966425302083 191.775286742" stroke-miterlimit="10" stroke-width="1.3612669416666667" stroke-dasharray=""/><path fill="white" stroke="black" paint-order="fill stroke markers" d=" M 638.9688222897134 453.138539542 L 655.3040255897135 453.138539542 L 655.3040255897135 1144.1176391319998 L 638.9688222897134 1144.1176391319998 L 638.9688222897134 453.138539542" stroke-miterlimit="10" stroke-width="1.3612669416666667" stroke-dasharray=""/><path fill="white" stroke="black" paint-order="fill stroke markers" d=" M 909.838002171289 498.877108782 L 926.1732054712891 498.877108782 L 926.1732054712891 636.0928165019999 L 909.838002171289 636.0928165019999 L 909.838002171289 498.877108782" stroke-miterlimit="10" stroke-width="1.3612669416666667" stroke-dasharray=""/><path fill="white" stroke="black" paint-order="fill stroke markers" d=" M 1073.2054272921223 544.615678022 L 1089.5406305921224 544.615678022 L 1089.5406305921224 590.354247262 L 1073.2054272921223 590.354247262 L 1073.2054272921223 544.615678022" stroke-miterlimit="10" stroke-width="1.3612669416666667" stroke-dasharray=""/><path fill="white" stroke="black" paint-order="fill stroke markers" d=" M 909.838002171289 944.8281588719998 L 926.1732054712891 944.8281588719998 L 926.1732054712891 1082.0438665919999 L 909.838002171289 1082.0438665919999 L 909.838002171289 944.8281588719998" stroke-miterlimit="10" stroke-width="1.3612669416666667" stroke-dasharray=""/><path fill="white" stroke="black" paint-order="fill stroke markers" d=" M 1073.2054272921223 990.5667281119997 L 1089.5406305921224 990.5667281119997 L 1089.5406305921224 1036.3052973519998 L 1073.2054272921223 1036.3052973519998 L 1073.2054272921223 990.5667281119997" stroke-miterlimit="10" stroke-width="1.3612669416666667" stroke-dasharray=""/><g><g><rect fill="white" stroke="none" x="99.35235195486975" y="170.539522452" width="191.50035347046875" height="21.23576429"/></g><text fill="black" stroke="none" font-family="sans-serif" font-size="11pt" font-style="normal" font-weight="normal" text-decoration="normal" x="101.80263244986975" y="185.24120542199998" text-anchor="start" dominant-baseline="alphabetic" xml:space="preserve">Go to Curriculum detail page</text></g><g><path fill="none" stroke="black" paint-order="fill stroke markers" d=" M 73.50841485 191.775286742 L 303.24732514654164 191.775286742" stroke-miterlimit="10" stroke-width="1.3612669416666667" stroke-dasharray=""/><g transform="translate(316.6966425302083,191.775286742) translate(-316.6966425302083,-191.775286742)"><path fill="black" stroke="none" paint-order="stroke fill markers" d=" M 303.0839731135416 184.96895203366665 L 316.6966425302083 191.775286742 L 303.0839731135416 198.58162145033333 Z"/></g></g><g><g><rect fill="white" stroke="none" x="93.24642544119787" y="216.278091692" width="203.7122064978125" height="21.23576429"/></g><text fill="black" stroke="none" font-family="sans-serif" font-size="11pt" font-style="normal" font-weight="normal" text-decoration="normal" x="95.69670593619787" y="230.97977466199998" text-anchor="start" dominant-baseline="alphabetic" xml:space="preserve">Display Curriculum detail page</text></g><g><path fill="none" stroke="black" paint-order="fill stroke markers" d=" M 316.6966425302083 237.513855982 L 86.95773223366666 237.513855982" stroke-miterlimit="10" stroke-width="1.3612669416666667" stroke-dasharray="6.53408132"/><g transform="translate(73.50841485,237.513855982) translate(-73.50841485,-237.513855982)"><path fill="black" stroke="none" paint-order="stroke fill markers" d=" M 87.12108426666666 230.70752127366666 L 73.50841485 237.513855982 L 87.12108426666666 244.32019069033333 Z"/></g></g><g><g><rect fill="white" stroke="none" x="129.50267391531898" y="262.016660932" width="131.19970954957031" height="21.23576429"/></g><g><rect fill="white" stroke="none" x="129.50267391531898" y="278.35186423199997" width="95.35150398316406" height="21.23576429"/></g><text fill="black" stroke="none" font-family="sans-serif" font-size="11pt" font-style="normal" font-weight="normal" text-decoration="normal" x="131.95295441031897" y="276.71834390199996" text-anchor="start" dominant-baseline="alphabetic" xml:space="preserve">Click delete icon in </text><text fill="black" stroke="none" font-family="sans-serif" font-size="11pt" font-style="normal" font-weight="normal" text-decoration="normal" x="131.95295441031897" y="293.05354720199995" text-anchor="start" dominant-baseline="alphabetic" xml:space="preserve">Combos table</text></g><g><path fill="none" stroke="black" paint-order="fill stroke markers" d=" M 73.50841485 299.587628522 L 303.24732514654164 299.587628522" stroke-miterlimit="10" stroke-width="1.3612669416666667" stroke-dasharray=""/><g transform="translate(316.6966425302083,299.587628522) translate(-316.6966425302083,-299.587628522)"><path fill="black" stroke="none" paint-order="stroke fill markers" d=" M 303.0839731135416 292.78129381366665 L 316.6966425302083 299.587628522 L 303.0839731135416 306.3939632303333 Z"/></g></g><g><g><rect fill="white" stroke="none" x="92.83840542166662" y="324.090433472" width="148.28636421265625" height="21.23576429"/></g><g><rect fill="white" stroke="none" x="92.83840542166662" y="340.42563677199996" width="204.528246536875" height="21.23576429"/></g><text fill="black" stroke="none" font-family="sans-serif" font-size="11pt" font-style="normal" font-weight="normal" text-decoration="normal" x="95.28868591666662" y="338.79211644199995" text-anchor="start" dominant-baseline="alphabetic" xml:space="preserve">Remove Combo from </text><text fill="black" stroke="none" font-family="sans-serif" font-size="11pt" font-style="normal" font-weight="normal" text-decoration="normal" x="95.28868591666662" y="355.12731974199994" text-anchor="start" dominant-baseline="alphabetic" xml:space="preserve">Curriculum confirmation popup</text></g><g><path fill="none" stroke="black" paint-order="fill stroke markers" d=" M 316.6966425302083 361.661401062 L 86.95773223366666 361.661401062" stroke-miterlimit="10" stroke-width="1.3612669416666667" stroke-dasharray="6.53408132"/><g transform="translate(73.50841485,361.661401062) translate(-73.50841485,-361.661401062)"><path fill="black" stroke="none" paint-order="stroke fill markers" d=" M 87.12108426666666 354.85506635366664 L 73.50841485 361.661401062 L 87.12108426666666 368.4677357703333 Z"/></g></g><g><g><rect fill="white" stroke="none" x="125.02521114676428" y="386.16420601199997" width="140.1546350866797" height="21.23576429"/></g><text fill="black" stroke="none" font-family="sans-serif" font-size="11pt" font-style="normal" font-weight="normal" text-decoration="normal" x="127.47549164176428" y="400.86588898199994" text-anchor="start" dominant-baseline="alphabetic" xml:space="preserve">Click Remove button</text></g><g><path fill="none" stroke="black" paint-order="fill stroke markers" d=" M 73.50841485 407.399970302 L 303.24732514654164 407.399970302" stroke-miterlimit="10" stroke-width="1.3612669416666667" stroke-dasharray=""/><g transform="translate(316.6966425302083,407.399970302) translate(-316.6966425302083,-407.399970302)"><path fill="black" stroke="none" paint-order="stroke fill markers" d=" M 303.0839731135416 400.59363559366665 L 316.6966425302083 407.399970302 L 303.0839731135416 414.2063050103333 Z"/></g></g><g><g><rect fill="white" stroke="none" x="352.36183640187494" y="431.90277525199997" width="267.27699531617185" height="21.23576429"/></g><text fill="black" stroke="none" font-family="sans-serif" font-size="11pt" font-style="normal" font-weight="normal" text-decoration="normal" x="354.81211689687495" y="446.60445822199995" text-anchor="start" dominant-baseline="alphabetic" xml:space="preserve">DELETE:/api/curriculum/{id}/combo/{cid}</text></g><g><path fill="none" stroke="black" paint-order="fill stroke markers" d=" M 333.0318458302083 453.138539542 L 625.5195049060468 453.138539542" stroke-miterlimit="10" stroke-width="1.3612669416666667" stroke-dasharray=""/><g transform="translate(638.9688222897134,453.138539542) translate(-638.9688222897134,-453.138539542)"><path fill="black" stroke="none" paint-order="stroke fill markers" d=" M 625.3561528730468 446.33220483366665 L 638.9688222897134 453.138539542 L 625.3561528730468 459.9448742503333 Z"/></g></g><g><g><rect fill="white" stroke="none" x="755.6790906242708" y="477.641344492" width="53.78384651246094" height="21.23576429"/></g><text fill="black" stroke="none" font-family="sans-serif" font-size="11pt" font-style="normal" font-weight="normal" text-decoration="normal" x="758.1293711192708" y="492.34302746199995" text-anchor="start" dominant-baseline="alphabetic" xml:space="preserve">get(cid)</text></g><g><path fill="none" stroke="black" paint-order="fill stroke markers" d=" M 655.3040255897135 498.877108782 L 896.3886847876223 498.877108782" stroke-miterlimit="10" stroke-width="1.3612669416666667" stroke-dasharray=""/><g transform="translate(909.838002171289,498.877108782) translate(-909.838002171289,-498.877108782)"><path fill="black" stroke="none" paint-order="stroke fill markers" d=" M 896.2253327546223 492.07077407366666 L 909.838002171289 498.877108782 L 896.2253327546223 505.68344349033333 Z"/></g></g><g><g><rect fill="white" stroke="none" x="972.7973931254752" y="523.379913732" width="53.78384651246094" height="21.23576429"/></g><text fill="black" stroke="none" font-family="sans-serif" font-size="11pt" font-style="normal" font-weight="normal" text-decoration="normal" x="975.2476736204752" y="538.081596702" text-anchor="start" dominant-baseline="alphabetic" xml:space="preserve">get(cid)</text></g><g><path fill="none" stroke="black" paint-order="fill stroke markers" d=" M 926.1732054712891 544.615678022 L 1059.7561099084555 544.615678022" stroke-miterlimit="10" stroke-width="1.3612669416666667" stroke-dasharray=""/><g transform="translate(1073.2054272921223,544.615678022) translate(-1073.2054272921223,-544.615678022)"><path fill="black" stroke="none" paint-order="stroke fill markers" d=" M 1059.5927578754556 537.8093433136667 L 1073.2054272921223 544.615678022 L 1059.5927578754556 551.4220127303333 Z"/></g></g><g><g><rect fill="white" stroke="none" x="945.5031960429557" y="569.1184829719999" width="108.3722406775" height="21.23576429"/></g><text fill="black" stroke="none" font-family="sans-serif" font-size="11pt" font-style="normal" font-weight="normal" text-decoration="normal" x="947.9534765379557" y="583.8201659419999" text-anchor="start" dominant-baseline="alphabetic" xml:space="preserve">Curriculum data</text></g><g><path fill="none" stroke="black" paint-order="fill stroke markers" d=" M 1073.2054272921223 590.354247262 L 939.6225228549557 590.354247262" stroke-miterlimit="10" stroke-width="1.3612669416666667" stroke-dasharray="6.53408132"/><g transform="translate(926.1732054712891,590.354247262) translate(-926.1732054712891,-590.354247262)"><path fill="black" stroke="none" paint-order="stroke fill markers" d=" M 939.7858748879557 583.5479125536666 L 926.1732054712891 590.354247262 L 939.7858748879557 597.1605819703333 Z"/></g></g><g><g><rect fill="white" stroke="none" x="728.3848935417512" y="614.8570522119999" width="108.3722406775" height="21.23576429"/></g><text fill="black" stroke="none" font-family="sans-serif" font-size="11pt" font-style="normal" font-weight="normal" text-decoration="normal" x="730.8351740367513" y="629.5587351819999" text-anchor="start" dominant-baseline="alphabetic" xml:space="preserve">Curriculum data</text></g><g><path fill="none" stroke="black" paint-order="fill stroke markers" d=" M 909.838002171289 636.0928165019999 L 668.7533429733802 636.0928165019999" stroke-miterlimit="10" stroke-width="1.3612669416666667" stroke-dasharray="6.53408132"/><g transform="translate(655.3040255897135,636.0928165019999) translate(-655.3040255897135,-636.0928165019999)"><path fill="black" stroke="none" paint-order="stroke fill markers" d=" M 668.9166950063802 629.2864817936666 L 655.3040255897135 636.0928165019999 L 668.9166950063802 642.8991512103332 Z"/></g></g><g><g><rect fill="white" stroke="none" x="674.6340161613803" y="660.5956214519998" width="125.46600593628906" height="21.23576429"/></g><g><rect fill="white" stroke="none" x="674.6340161613803" y="676.9308247519998" width="66.79744209351563" height="21.23576429"/></g><text fill="black" stroke="none" font-family="sans-serif" font-size="11pt" font-style="normal" font-weight="normal" text-decoration="normal" x="677.0842966563803" y="675.2973044219998" text-anchor="start" dominant-baseline="alphabetic" xml:space="preserve">Check Curriculum </text><text fill="black" stroke="none" font-family="sans-serif" font-size="11pt" font-style="normal" font-weight="normal" text-decoration="normal" x="677.0842966563803" y="691.6325077219998" text-anchor="start" dominant-baseline="alphabetic" xml:space="preserve">isEmpty()</text></g><g><path fill="none" stroke="black" paint-order="fill stroke markers" d=" M 655.3040255897135 698.1665890419998 L 720.6448387897135 698.1665890419998 L 720.6448387897135 719.4023533319998 L 668.7533429733802 719.4023533319998" stroke-miterlimit="10" stroke-width="1.3612669416666667" stroke-dasharray=""/><g transform="translate(655.3040255897135,719.4023533319998) translate(-655.3040255897135,-719.4023533319998)"><path fill="black" stroke="none" paint-order="stroke fill markers" d=" M 668.9166950063802 712.5960186236665 L 655.3040255897135 719.4023533319998 L 668.9166950063802 726.2086880403332 Z"/></g></g><g><g><rect fill="white" stroke="none" x="425.7153901738476" y="788.0102071919998" width="120.56988777222656" height="21.23576429"/></g><text fill="red" stroke="none" font-family="sans-serif" font-size="11pt" font-style="normal" font-weight="normal" text-decoration="normal" x="428.1656706688476" y="802.7118901619998" text-anchor="start" dominant-baseline="alphabetic" xml:space="preserve">404 NOT FOUND</text></g><g><path fill="none" stroke="black" paint-order="fill stroke markers" d=" M 638.9688222897134 809.2459714819998 L 346.48116321387494 809.2459714819998" stroke-miterlimit="10" stroke-width="1.3612669416666667" stroke-dasharray="6.53408132"/><g transform="translate(333.0318458302083,809.2459714819998) translate(-333.0318458302083,-809.2459714819998)"><path fill="black" stroke="none" paint-order="stroke fill markers" d=" M 346.64451524687496 802.4396367736665 L 333.0318458302083 809.2459714819998 L 346.64451524687496 816.0523061903332 Z"/></g></g><g><g><rect fill="white" stroke="none" x="97.70955257742834" y="833.7487764319998" width="194.78595222535156" height="21.23576429"/></g><text fill="black" stroke="none" font-family="sans-serif" font-size="11pt" font-style="normal" font-weight="normal" text-decoration="normal" x="100.15983307242834" y="848.4504594019998" text-anchor="start" dominant-baseline="alphabetic" xml:space="preserve">Display screen 404 not found</text></g><g><path fill="none" stroke="black" paint-order="fill stroke markers" d=" M 316.6966425302083 854.9845407219998 L 86.95773223366666 854.9845407219998" stroke-miterlimit="10" stroke-width="1.3612669416666667" stroke-dasharray="6.53408132"/><g transform="translate(73.50841485,854.9845407219998) translate(-73.50841485,-854.9845407219998)"><path fill="black" stroke="none" paint-order="stroke fill markers" d=" M 87.12108426666666 848.1782060136665 L 73.50841485 854.9845407219998 L 87.12108426666666 861.7908754303331 Z"/></g></g><g><g><rect fill="white" stroke="none" x="674.6340161613801" y="923.5923945819998" width="215.8739954382422" height="21.23576429"/></g><text fill="black" stroke="none" font-family="sans-serif" font-size="11pt" font-style="normal" font-weight="normal" text-decoration="normal" x="677.0842966563802" y="938.2940775519997" text-anchor="start" dominant-baseline="alphabetic" xml:space="preserve">removeComboFromCurriculum()</text></g><g><path fill="none" stroke="black" paint-order="fill stroke markers" d=" M 655.3040255897135 944.8281588719998 L 896.3886847876223 944.8281588719998" stroke-miterlimit="10" stroke-width="1.3612669416666667" stroke-dasharray=""/><g transform="translate(909.838002171289,944.8281588719998) translate(-909.838002171289,-944.8281588719998)"><path fill="black" stroke="none" paint-order="stroke fill markers" d=" M 896.2253327546223 938.0218241636665 L 909.838002171289 944.8281588719998 L 896.2253327546223 951.6344935803331 Z"/></g></g><g><g><rect fill="white" stroke="none" x="969.9376900615104" y="969.3309638219997" width="59.50325264039063" height="21.23576429"/></g><text fill="black" stroke="none" font-family="sans-serif" font-size="11pt" font-style="normal" font-weight="normal" text-decoration="normal" x="972.3879705565104" y="984.0326467919997" text-anchor="start" dominant-baseline="alphabetic" xml:space="preserve">update()</text></g><g><path fill="none" stroke="black" paint-order="fill stroke markers" d=" M 926.1732054712891 990.5667281119997 L 1059.7561099084555 990.5667281119997" stroke-miterlimit="10" stroke-width="1.3612669416666667" stroke-dasharray=""/><g transform="translate(1073.2054272921223,990.5667281119997) translate(-1073.2054272921223,-990.5667281119997)"><path fill="black" stroke="none" paint-order="stroke fill markers" d=" M 1059.5927578754556 983.7603934036664 L 1073.2054272921223 990.5667281119997 L 1059.5927578754556 997.3730628203331 Z"/></g></g><g><g><rect fill="white" stroke="none" x="945.5031960429557" y="1015.0695330619998" width="108.3722406775" height="21.23576429"/></g><text fill="black" stroke="none" font-family="sans-serif" font-size="11pt" font-style="normal" font-weight="normal" text-decoration="normal" x="947.9534765379557" y="1029.7712160319998" text-anchor="start" dominant-baseline="alphabetic" xml:space="preserve">Curriculum data</text></g><g><path fill="none" stroke="black" paint-order="fill stroke markers" d=" M 1073.2054272921223 1036.3052973519998 L 939.6225228549557 1036.3052973519998" stroke-miterlimit="10" stroke-width="1.3612669416666667" stroke-dasharray="6.53408132"/><g transform="translate(926.1732054712891,1036.3052973519998) translate(-926.1732054712891,-1036.3052973519998)"><path fill="black" stroke="none" paint-order="stroke fill markers" d=" M 939.7858748879557 1029.4989626436666 L 926.1732054712891 1036.3052973519998 L 939.7858748879557 1043.111632060333 Z"/></g></g><g><g><rect fill="white" stroke="none" x="728.3848935417512" y="1060.808102302" width="108.3722406775" height="21.23576429"/></g><text fill="black" stroke="none" font-family="sans-serif" font-size="11pt" font-style="normal" font-weight="normal" text-decoration="normal" x="730.8351740367513" y="1075.509785272" text-anchor="start" dominant-baseline="alphabetic" xml:space="preserve">Curriculum data</text></g><g><path fill="none" stroke="black" paint-order="fill stroke markers" d=" M 909.838002171289 1082.0438665919999 L 668.7533429733802 1082.0438665919999" stroke-miterlimit="10" stroke-width="1.3612669416666667" stroke-dasharray="6.53408132"/><g transform="translate(655.3040255897135,1082.0438665919999) translate(-655.3040255897135,-1082.0438665919999)"><path fill="black" stroke="none" paint-order="stroke fill markers" d=" M 668.9166950063802 1075.2375318836666 L 655.3040255897135 1082.0438665919999 L 668.9166950063802 1088.850201300333 Z"/></g></g><g><g><rect fill="white" stroke="none" x="376.80349442189447" y="1106.5466715419998" width="54.61422981324219" height="21.23576429"/></g><g><rect fill="white" stroke="none" x="376.80349442189447" y="1122.881874842" width="218.39367927613281" height="21.23576429"/></g><text fill="green" stroke="none" font-family="sans-serif" font-size="11pt" font-style="normal" font-weight="normal" text-decoration="normal" x="379.2537749168945" y="1121.2483545119999" text-anchor="start" dominant-baseline="alphabetic" xml:space="preserve">200 OK</text><text fill="green" stroke="none" font-family="sans-serif" font-size="11pt" font-style="normal" font-weight="normal" text-decoration="normal" x="379.2537749168945" y="1137.583557812" text-anchor="start" dominant-baseline="alphabetic" xml:space="preserve">Response body: Curriculum data</text></g><g><path fill="none" stroke="black" paint-order="fill stroke markers" d=" M 638.9688222897134 1144.1176391319998 L 346.48116321387494 1144.1176391319998" stroke-miterlimit="10" stroke-width="1.3612669416666667" stroke-dasharray="6.53408132"/><g transform="translate(333.0318458302083,1144.1176391319998) translate(-333.0318458302083,-1144.1176391319998)"><path fill="black" stroke="none" paint-order="stroke fill markers" d=" M 346.64451524687496 1137.3113044236666 L 333.0318458302083 1144.1176391319998 L 346.64451524687496 1150.923973840333 Z"/></g></g><g><g><rect fill="white" stroke="none" x="93.24642544119787" y="1168.620444082" width="203.7122064978125" height="21.23576429"/></g><text fill="black" stroke="none" font-family="sans-serif" font-size="11pt" font-style="normal" font-weight="normal" text-decoration="normal" x="95.69670593619787" y="1183.322127052" text-anchor="start" dominant-baseline="alphabetic" xml:space="preserve">Display Curriculum detail page</text></g><g><path fill="none" stroke="black" paint-order="fill stroke markers" d=" M 316.6966425302083 1189.8562083719999 L 86.95773223366666 1189.8562083719999" stroke-miterlimit="10" stroke-width="1.3612669416666667" stroke-dasharray="6.53408132"/><g transform="translate(73.50841485,1189.8562083719999) translate(-73.50841485,-1189.8562083719999)"><path fill="black" stroke="none" paint-order="stroke fill markers" d=" M 87.12108426666666 1183.0498736636666 L 73.50841485 1189.8562083719999 L 87.12108426666666 1196.662543080333 Z"/></g></g><g><g/><path fill="none" stroke="black" paint-order="fill stroke markers" d=" M 16.335203299999996 743.9051582819999 L 1138.5462404921223 743.9051582819999 L 1138.5462404921223 1214.3590133219998 L 16.335203299999996 1214.3590133219998 L 16.335203299999996 743.9051582819999 Z" stroke-miterlimit="10" stroke-width="2.3336004714285714" stroke-dasharray=""/><path fill="white" stroke="black" paint-order="fill stroke markers" d=" M 16.335203299999996 743.9051582819999 L 16.335203299999996 763.5074022419999 L 62.69440689707031 763.5074022419999 L 72.49552887707031 753.7062802619998 L 72.49552887707031 743.9051582819999 L 16.335203299999996 743.9051582819999" stroke-miterlimit="10" stroke-width="2.3336004714285714" stroke-dasharray=""/><text fill="black" stroke="none" font-family="sans-serif" font-size="8.8pt" font-style="normal" font-weight="bold" text-decoration="normal" x="32.67040659999999" y="756.9733209219999" text-anchor="start" dominant-baseline="alphabetic" xml:space="preserve">alt</text><g><rect fill="white" stroke="none" x="86.38045168207032" y="745.2119745459999" width="123.51199592652344" height="16.988611432000003"/></g><text fill="black" stroke="none" font-family="sans-serif" font-size="8.8pt" font-style="normal" font-weight="bold" text-decoration="normal" x="88.83073217707032" y="756.9733209219999" text-anchor="start" dominant-baseline="alphabetic" xml:space="preserve">[If Curriculum empty]</text><g><path fill="none" stroke="black" paint-order="fill stroke markers" d=" M 16.335203299999996 879.4873456719998 L 1138.5462404921223 879.4873456719998" stroke-miterlimit="10" stroke-width="2.3336004714285714" stroke-dasharray="4.083800825"/></g><g/></g><g/></g></g></svg>