<svg version="1.1" xmlns="http://www.w3.org/2000/svg" xmlns:xlink="http://www.w3.org/1999/xlink" width="1396" height="1818"><desc>title%20Add%20Combo%20into%20Curriculum%0A%0A%0Aactor%20%23green%3A0.5%20%22Workspace%20Admin%22%20as%20w%0Aboundary%20%22FUniverse%20Admin%20Client%22%20as%20f%0Acontrol%20%22Search%20Controller%22%20as%20ss%0Acontrol%20%22Curriculum%20Controller%22%20as%20gc%0Aparticipant%20%22Curriculum%20Service%22%20as%20gs%0Aparticipant%20%22Combo%20Service%22%20as%20cs%0Adatabase%20%23blue%3A1%20%22Database%22%20as%20db%0Aw-%3Ef%3AGo%20to%20Curriculum%20detail%20page%0Aactivate%20f%0Aw-%3Ef%3AClick%20Add%20Combo%20button%0Aref%20over%20f%3AHere%20we%20have%5Cnexternal%20process%0Aw%3C--f%3ADisplay%20Add%20Combo%20%5Cninto%20Curriculum%20popup%0Aw-%3Ef%3ASearch%20Combo%0Af-%3Ess%3AGET%5Cn%2Fapi%2Fsearch%3Fentity%3Dcombo%5Cn%26%7BparamToSearch%7D%0Aactivate%20ss%0Af%3C--ss%3ACombo%20list%0Adeactivate%20ss%0Aalt%20If%20there%20is%20no%20Combo%20match%20condition%0Aw%3C--f%3ANo%20Options%0Aelse%20Else%0Aw-%3Ef%3ASelect%20Combo%0Aw%3C--f%3A%20Display%20the%20semester%20input%20boxes%5Cn%20for%20the%20combo's%20syllabus%0Aw-%3Ef%3AFill%20semester%20information%5Cnand%20click%20Save%0Af-%3Egc%3APOST%3A%2Fapi%2Fcurriculum%2F%7Bid%7D%2Fcombos%0Aactivate%20gc%0Agc-%3Egs%3Aget(id)%0Aactivate%20gs%0Ags-%3Edb%3A%20get(id)%0Aactivate%20db%0Ags%3C--db%3ACurriculum%20data%0Adeactivate%20db%0Agc%3C--gs%3A%20Curriculum%20data%0Adeactivate%20gs%0Agc-%3Egc%3A%20Check%20Curriculum%20%5CnisEmpty()%0Aactivate%20gc%0Agc%3C--gc%3A%20Boolean%20value%0Adeactivate%20gc%0Aalt%20If%20Curriculum%20empty%0A%0Af%3C--gc%3A%3Ccolor%3A%23red%3E404%20NOT%20FOUND%3C%2Fcolor%3E%0A%0Aw%3C--f%3A%20Display%20404%20Not%20Found%20screen%0Aelse%0Agc-%3Ecs%3AaddComboToCurriculum()%0Aactivate%20cs%0Acs-%3Edb%3AaddComboToCurriculum()%0Aactivate%20db%0Acs%3C--db%3A%20Combo%20data%0Adeactivate%20db%0Agc%3C--cs%3ACombo%20data%0Adeactivate%20cs%0Af%3C--gc%3A%3Ccolor%3A%23green%3E200%20OK%5CnResponse%20body%3ACombo%20data%0Adeactivate%20gc%0Aw%3C--f%3A%20Display%20Curriculum%20detail%20page%0Adeactivate%20f%0Aend%20%0Aend</desc><defs/><g><g/><g/><g/><g/><g/><g/><g/><g/><g/><g/><g/><g/><g/><g/><g/><g/><g/><g/><g/><g/><g/><g/><g/><g/><g/><g/><g/><g/><g/><g/><g/><g/><g/><g/><g/><g/><g/><g/><g/><g/><g/><g><rect fill="white" stroke="none" x="0" y="0" width="1396" height="1818"/></g><g><text fill="black" stroke="none" font-family="sans-serif" font-size="16.5pt" font-style="normal" font-weight="normal" text-decoration="normal" x="563.2494154858873" y="24.50280495" text-anchor="start" dominant-baseline="alphabetic" xml:space="preserve">Add Combo into Curriculum</text></g><g/><g><path fill="none" stroke="black" paint-order="fill stroke markers" d=" M 89.84361815 129.701514202 L 89.84361815 1818.7615354220002" stroke-miterlimit="10" stroke-width="1.3612669416666667" stroke-dasharray="12.565541,5.445067766666667"/><path fill="none" stroke="black" paint-order="fill stroke markers" d=" M 357.5058134470052 129.701514202 L 357.5058134470052 1818.7615354220002" stroke-miterlimit="10" stroke-width="1.3612669416666667" stroke-dasharray="12.565541,5.445067766666667"/><path fill="none" stroke="black" paint-order="fill stroke markers" d=" M 584.8674860043619 129.701514202 L 584.8674860043619 1818.7615354220002" stroke-miterlimit="10" stroke-width="1.3612669416666667" stroke-dasharray="12.565541,5.445067766666667"/><path fill="none" stroke="black" paint-order="fill stroke markers" d=" M 732.1633116283529 129.701514202 L 732.1633116283529 1818.7615354220002" stroke-miterlimit="10" stroke-width="1.3612669416666667" stroke-dasharray="12.565541,5.445067766666667"/><path fill="none" stroke="black" paint-order="fill stroke markers" d=" M 907.1794342413086 129.701514202 L 907.1794342413086 1818.7615354220002" stroke-miterlimit="10" stroke-width="1.3612669416666667" stroke-dasharray="12.565541,5.445067766666667"/><path fill="none" stroke="black" paint-order="fill stroke markers" d=" M 1070.9805833898085 129.701514202 L 1070.9805833898085 1818.7615354220002" stroke-miterlimit="10" stroke-width="1.3612669416666667" stroke-dasharray="12.565541,5.445067766666667"/><path fill="none" stroke="black" paint-order="fill stroke markers" d=" M 1298.7073377342747 129.701514202 L 1298.7073377342747 1818.7615354220002" stroke-miterlimit="10" stroke-width="1.3612669416666667" stroke-dasharray="12.565541,5.445067766666667"/></g><g><g><path fill="white" stroke="green" paint-order="fill stroke markers" d=" M 99.154684031 60.60360424300001 A 9.311065881 9.311065881 0 1 1 99.15467937546744 60.594293178670846 M 89.84361815 69.91467012400001 L 89.84361815 89.84361815000001 M 78.08227177399999 77.102159576 L 101.604964526 77.102159576 M 89.84361815 89.84361815000001 L 78.08227177399999 108.465749912 M 89.84361815 89.84361815000001 L 101.604964526 108.465749912" stroke-miterlimit="10" stroke-width="1.3884922805000002" stroke-dasharray=""/></g><g><text fill="black" stroke="none" font-family="sans-serif" font-size="11pt" font-style="normal" font-weight="normal" text-decoration="normal" x="30.50219511533203" y="124.80095321200001" text-anchor="start" dominant-baseline="alphabetic" xml:space="preserve">Workspace Admin</text></g><g><path fill="white" stroke="black" paint-order="fill stroke markers" d=" M 389.9311919975052 82.819480731 A 24.2577769005 24.2577769005 0 1 1 389.9311798686178 82.79522295814245 M 326.4689271770052 57.17321154999999 L 326.4689271770052 108.465749912 M 325.0804348965052 82.819480731 L 341.4156381965052 82.819480731" stroke-miterlimit="10" stroke-width="2.7769845610000004" stroke-dasharray=""/></g><g><text fill="black" stroke="none" font-family="sans-serif" font-size="11pt" font-style="normal" font-weight="normal" text-decoration="normal" x="280.51586135960287" y="124.80095321200001" text-anchor="start" dominant-baseline="alphabetic" xml:space="preserve">FUniverse Admin Client</text></g><g><path fill="white" stroke="black" paint-order="fill stroke markers" d=" M 609.1252629048619 82.819480731 A 24.2577769005 24.2577769005 0 1 1 609.1252507759745 82.79522295814245 M 581.6004453443619 58.561703830499994 L 591.4015673243618 50.39410218049999 M 581.6004453443619 58.561703830499994 L 591.4015673243618 66.72930548049999" stroke-miterlimit="10" stroke-width="2.7769845610000004" stroke-dasharray=""/></g><g><text fill="black" stroke="none" font-family="sans-serif" font-size="11pt" font-style="normal" font-weight="normal" text-decoration="normal" x="527.831009869108" y="124.80095321200001" text-anchor="start" dominant-baseline="alphabetic" xml:space="preserve">Search Controller</text></g><g><path fill="white" stroke="black" paint-order="fill stroke markers" d=" M 756.4210885288528 82.819480731 A 24.2577769005 24.2577769005 0 1 1 756.4210763999654 82.79522295814245 M 728.8962709683528 58.561703830499994 L 738.6973929483528 50.39410218049999 M 728.8962709683528 58.561703830499994 L 738.6973929483528 66.72930548049999" stroke-miterlimit="10" stroke-width="2.7769845610000004" stroke-dasharray=""/></g><g><text fill="black" stroke="none" font-family="sans-serif" font-size="11pt" font-style="normal" font-weight="normal" text-decoration="normal" x="662.9185377636068" y="124.80095321200001" text-anchor="start" dominant-baseline="alphabetic" xml:space="preserve">Curriculum Controller</text></g><path fill="none" stroke="none"/><g><path fill="white" stroke="black" paint-order="fill stroke markers" d=" M 827.5445371837578 85.75981732500001 L 986.8143312988594 85.75981732500001 L 986.8143312988594 129.701514202 L 827.5445371837578 129.701514202 L 827.5445371837578 85.75981732500001 Z" stroke-miterlimit="10" stroke-width="2.613632528" stroke-dasharray=""/></g><g><text fill="black" stroke="none" font-family="sans-serif" font-size="11pt" font-style="normal" font-weight="normal" text-decoration="normal" x="845.2682327642578" y="113.36631090200002" text-anchor="start" dominant-baseline="alphabetic" xml:space="preserve">Curriculum Service</text></g><path fill="none" stroke="none"/><g><path fill="white" stroke="black" paint-order="fill stroke markers" d=" M 1003.1495345988593 85.75981732500001 L 1138.8116321807577 85.75981732500001 L 1138.8116321807577 129.701514202 L 1003.1495345988593 129.701514202 L 1003.1495345988593 85.75981732500001 Z" stroke-miterlimit="10" stroke-width="2.613632528" stroke-dasharray=""/></g><g><text fill="black" stroke="none" font-family="sans-serif" font-size="11pt" font-style="normal" font-weight="normal" text-decoration="normal" x="1020.8732301793593" y="113.36631090200002" text-anchor="start" dominant-baseline="alphabetic" xml:space="preserve">Combo Service</text></g><g><path fill="white" stroke="blue" paint-order="fill stroke markers" d=" M 1274.8579409162746 97.684515734 L 1274.8579409162746 63.380588804000006 L 1322.5567345522747 63.380588804000006 L 1322.5567345522747 97.684515734" stroke-miterlimit="10" stroke-width="2.7769845610000004" stroke-dasharray=""/><path fill="white" stroke="blue" paint-order="fill stroke markers" d=" M 1322.5567345522747 62.1881189631 L 1322.555542092371 62.29592950801663 L 1322.551964831905 62.403729271968594 L 1322.5460031285995 62.51150747506936 L 1322.5376575786204 62.619253339588404 L 1322.5269290165152 62.72695609102909 L 1322.5138185151313 62.834604959206004 L 1322.498327385508 62.94218917932205 L 1322.4804571767454 63.04969799304486 L 1322.4602096758495 63.15712064958265 L 1322.4375869075532 63.2644464067593 L 1322.4125911341148 63.371664532088516 L 1322.3852248550909 63.47876430384712 L 1322.3554908070862 63.58573501214718 L 1322.323391963481 63.692565960007016 L 1322.2889315341329 63.79924646442086 L 1322.252112965056 63.90576585742718 L 1322.212939938077 64.01211348717543 L 1322.171416370465 64.11827871899126 L 1322.127546414543 64.22425093643996 L 1322.0813344572698 64.3300195423881 L 1322.0327851198024 64.43557396006322 L 1321.9819032570344 64.54090363411153 L 1321.9286939571093 64.64599803165338 L 1321.8731625409132 64.75084664333659 L 1321.8153145615413 64.85543898438739 L 1321.755155803743 64.95976459565881 L 1321.6926922833443 65.06381304467668 L 1321.6279302466453 65.16757392668278 L 1321.5608761697952 65.27103686567541 L 1321.4915367581461 65.37419151544687 L 1321.4199189455817 65.47702756061814 L 1321.346029893823 65.5795347176704 L 1321.2698769917138 65.68170273597339 L 1321.191467854481 65.7835213988104 L 1321.110810322973 65.88498052439998 L 1321.0279124628755 65.98606996691414 L 1320.9427825639057 66.08677961749288 L 1320.8554291389823 66.18709940525505 L 1320.7658609233752 66.28701929830548 L 1320.674086873831 66.38652930473813 L 1320.5801161676786 66.48561947363528 L 1320.4839582019101 66.58427989606261 L 1320.3856225922418 66.6825007060601 L 1320.2851191721531 66.7802720816286 L 1320.1824579919019 66.87758424571203 L 1320.0776493175208 66.97442746717506 L 1319.97070362979 67.07079206177627 L 1319.8616316231892 67.1666683931365 L 1319.7504442048278 67.2620468737025 L 1319.6371524933552 67.35691796570569 L 1319.5217678178483 67.45127218211596 L 1319.4043017166782 67.54510008759026 L 1319.2847659363574 67.63839229941624 L 1319.163172430364 67.73113948845047 L 1319.0395333579477 67.82333238005134 L 1318.9138610829123 67.9149617550065 L 1318.7861681723807 68.00601845045483 L 1318.656467395538 68.09649336080267 L 1318.5247717223529 68.18637743863435 L 1318.3910943222836 68.27566169561702 L 1318.2554485629587 68.36433720339936 L 1318.1178480088408 68.45239509450451 L 1317.978306419871 68.53982656321674 L 1317.8368377500917 68.62662286646201 L 1317.693456146252 68.71277532468237 L 1317.5481759463926 68.79827532270376 L 1317.401011678413 68.88311431059763 L 1317.2519780586167 68.9672838045359 L 1317.101089990242 69.0507753876393 L 1316.9483625619696 69.13358071081912 L 1316.7938110464152 69.21569149361203 L 1316.6374508986016 69.29709952500816 L 1316.4792977544134 69.37779666427225 L 1316.3193674290333 69.45777484175761 L 1316.15767591536 69.53702605971311 L 1315.9942393824106 69.61554239308303 L 1315.829074173702 69.69331599029945 L 1315.662196805618 69.77033907406746 L 1315.4936239657554 69.84660394214286 L 1315.3233725112582 69.92210296810242 L 1315.15145946713 69.99682860210643 L 1314.977902024532 70.07077337165379 L 1314.8027175390637 70.14392988232913 L 1314.6259235290277 70.21629081854239 L 1314.4475376736775 70.28784894426022 L 1314.2675778114503 70.35859710372968 L 1314.0860619381822 70.42852822219379 L 1313.9030082053093 70.49763530659898 L 1313.7184349180523 70.5659114462944 L 1313.5323605335861 70.63334981372294 L 1313.3448036591942 70.69994366510412 L 1313.1557830504075 70.76568634110825 L 1312.9653176091297 70.83057126752253 L 1312.7734263817458 70.89459195590838 L 1312.580128557219 70.95774200425032 L 1312.3854434651705 71.02001509759614 L 1312.1893905739473 71.08140500868842 L 1311.9919894886752 71.14190559858717 L 1311.793259949298 71.20151081728383 L 1311.5932218286043 71.26021470430622 L 1311.3918951302394 71.31801138931453 L 1311.1892999867052 71.37489509268845 L 1310.9854566573476 71.43086012610503 L 1310.7803855263292 71.48590089310757 L 1310.5741071005925 71.54001188966522 L 1310.3666420078082 71.59318770472345 L 1310.1580109943125 71.64542302074504 L 1309.948234923033 71.69671261424193 L 1309.737334771402 71.7470513562975 L 1309.525331629259 71.79643421307951 L 1309.3122466967413 71.84485624634341 L 1309.0981012821649 71.89231261392625 L 1308.8829167998927 71.93879857023082 L 1308.6667147681935 71.9843094667002 L 1308.4495168070903 72.02884075228269 L 1308.2313446361982 72.07238797388683 L 1308.0122200725527 72.11494677682676 L 1307.7921650284275 72.15651290525764 L 1307.5712015091433 72.19708220260128 L 1307.3493516108683 72.23665061196175 L 1307.1266375184073 72.27521417653107 L 1306.903081502984 72.31276903998494 L 1306.6787059200133 72.3493114468683 L 1306.453533206867 72.38483774297092 L 1306.2275858806286 72.41934437569277 L 1306.0008865358425 72.45282789439938 L 1305.773457842254 72.48528495076673 L 1305.5453225425433 72.51671229911628 L 1305.3165034500498 72.54710679673934 L 1305.0870234464926 72.5764654042115 L 1304.8569054796806 72.60478518569649 L 1304.6261725612185 72.63206330923974 L 1304.3948477642061 72.65829704705163 L 1304.1629542209303 72.68348377578025 L 1303.9305151205522 72.70762097677371 L 1303.697553706788 72.73070623633201 L 1303.4640932755851 72.75273724594847 L 1303.2301571727921 72.77371180254045 L 1302.9957687918243 72.79362780866978 L 1302.7609515713243 72.81248327275246 L 1302.5257289928186 72.83027630925778 L 1302.290124578369 72.84700513889692 L 1302.0541618882207 72.86266808880085 L 1301.817864518446 72.87726359268764 L 1301.5812560985848 72.89079019101906 L 1301.3443602892823 72.90324653114655 L 1301.1072007799219 72.91463136744649 L 1300.8698012862567 72.9249435614447 L 1300.6321855480383 72.93418208193043 L 1300.3943773266426 72.94234600505929 L 1300.1564004026936 72.94943451444577 L 1299.9182785736853 72.95544690124485 L 1299.6800356516019 72.96038256422287 L 1299.4416954605376 72.96424100981763 L 1299.2032818343125 72.9670218521878 L 1298.964818614091 72.96872481325143 L 1298.7263296459957 72.96934972271386 L 1298.4878387787253 72.96889651808466 L 1298.2493698611675 72.96736524468392 L 1298.0109467400152 72.96475605563768 L 1297.7725932573821 72.96106921186271 L 1297.5343332484179 72.95630508204027 L 1297.2961905389245 72.9504641425794 L 1297.0581889429748 72.94354697756918 L 1296.82035226053 72.93555427872033 L 1296.58270427506 72.9264868452961 L 1296.3452687511656 72.91634558403224 L 1296.1080694322009 72.90513150904647 L 1295.8711300379005 72.89284574173689 L 1295.634474262006 72.87948951067006 L 1295.3981257698983 72.86506415145789 L 1295.1621081962294 72.84957110662431 L 1294.9264451425597 72.8330119254609 L 1294.6911601749987 72.81538826387197 L 1294.4562768218466 72.79670188420899 L 1294.2218185712434 72.77695465509434 L 1293.9878088688183 72.7561485512345 L 1293.7542711153471 72.73428565322251 L 1293.52122866441 72.71136814732996 L 1293.2887048200585 72.68739832528833 L 1293.0567228344826 72.66237858405984 L 1292.8253059056879 72.63631142559778 L 1292.5944771751745 72.60919945659627 L 1292.3642597256228 72.58104538822961 L 1292.1346765785863 72.55185203588118 L 1291.9057506921881 72.5216223188619 L 1291.6775049588261 72.49035926011825 L 1291.4499622028834 72.45806598593009 L 1291.2231451784462 72.4247457255979 L 1290.9970765670275 72.39040181111994 L 1290.7717789753005 72.35503767685907 L 1290.5472749328367 72.31865685919922 L 1290.3235868898528 72.28126299619186 L 1290.1007372149668 72.24285982719209 L 1289.8787481929608 72.20345119248485 L 1289.6576420225515 72.16304103290075 L 1289.4374408141723 72.12163338942209 L 1289.21816658776 72.07923240277869 L 1288.9998412705547 72.03584231303388 L 1288.7824866949065 71.99146745916049 L 1288.5661245960914 71.94611227860693 L 1288.350776610139 71.89978130685344 L 1288.1364642716687 71.85247917695861 L 1287.9232090117357 71.80421061909601 L 1287.7110321556881 71.75498046008119 L 1287.499954921035 71.70479362288901 L 1287.2899984153237 71.65365512616141 L 1287.0811836340297 71.60157008370541 L 1286.8735314584574 71.54854370398188 L 1286.667062653651 71.49458128958457 L 1286.4617978663196 71.43968823671 L 1286.25775762277 71.38387003461766 L 1286.054962326857 71.32713226508127 L 1285.8534322579414 71.26948060183051 L 1285.6531875688615 71.21092080998365 L 1285.4542482839202 71.15145874547107 L 1285.2566342968794 71.0911003544497 L 1285.0603653689734 71.0298516727083 L 1284.8654611269317 70.96771882506403 L 1284.6719410610156 70.90470802474988 L 1284.4798245230709 70.84082557279336 L 1284.2891307245911 70.77607785738643 L 1284.0998787347971 70.71047135324669 L 1283.9120874787302 70.64401262096986 L 1283.7257757353595 70.5767083063738 L 1283.5409621357041 70.50856513983389 L 1283.35766516097 70.43958993560999 L 1283.1759031407018 70.36978959116503 L 1282.9956942509502 70.29917108647531 L 1282.817056512454 70.22774148333244 L 1282.6400077888381 70.1555079246372 L 1282.4645657848273 70.08247763368529 L 1282.2907480444758 70.00865791344492 L 1282.1185719494129 69.9340561458266 L 1281.9480547171047 69.85867979094495 L 1281.779213399132 69.78253638637263 L 1281.612064879486 69.70563354638664 L 1281.4466258728796 69.62797896120689 L 1281.2829129230756 69.54958039622719 L 1281.1209424012322 69.47044569123871 L 1280.9607305042668 69.39058275964601 L 1280.8022932532358 69.30999958767568 L 1280.6456464917321 69.22870423357777 L 1280.4908058843012 69.14670482681996 L 1280.3377869148749 69.06400956727457 L 1280.1866048852226 68.98062672439866 L 1280.0372749134212 68.89656463640702 L 1279.8898119323437 68.8118317094384 L 1279.7442306881653 68.72643641671489 L 1279.6005457388887 68.6403872976946 L 1279.4587714528896 68.55369295721772 L 1279.318922007478 68.46636206464606 L 1279.1810113874824 68.37840335299609 L 1279.0450533838493 68.28982561806569 L 1278.9110615922664 68.20063771755453 L 1278.7790494118005 68.11084857017835 L 1278.6490300435603 68.02046715477704 L 1278.5210164893738 67.92950250941684 L 1278.39502155049 67.83796373048648 L 1278.2710578262975 67.74585997178757 L 1278.1491377130658 67.65320044361923 L 1278.0292734027043 67.55999441185705 L 1277.9114768815443 67.46625119702654 L 1277.7957599291399 67.37198017337107 L 1277.6821341170898 67.27719076791445 L 1277.5706108078803 67.18189245951821 L 1277.4612011537497 67.08609477793381 L 1277.353916095572 66.98980730284956 L 1277.2487663617637 66.89303966293272 L 1277.1457624672107 66.79580153486665 L 1277.0449147122165 66.69810264238313 L 1276.9462331814723 66.59995275528999 L 1276.8497277430495 66.50136168849414 L 1276.7554080474108 66.40233930102012 L 1276.663283526448 66.30289549502413 L 1276.5733633925356 66.20304021480393 L 1276.4856566376127 66.1027834458043 L 1276.4001720322815 66.00213521361863 L 1276.3169181249311 65.90110558298623 L 1276.2359032408833 65.799704656786 L 1276.1571354815585 65.69794257502603 L 1276.0806227236671 65.59582951382973 L 1276.0063726184214 65.4933756844181 L 1275.9343925907697 65.3905913320887 L 1275.864689838655 65.28748673519112 L 1275.7972713322945 65.18407220409914 L 1275.7321438134825 65.08035808017966 L 1275.6693137949167 64.97635473475869 L 1275.6087875595465 64.87207256808405 L 1275.550571159945 64.76752200828555 L 1275.4946704177037 64.66271351033203 L 1275.4410909228502 64.55765755498592 L 1275.3898380332896 64.45236464775525 L 1275.3409168742676 64.34684531784296 L 1275.29433233786 64.24111011709415 L 1275.2500890824808 64.13516961894075 L 1275.2081915324195 64.0290344173443 L 1275.1686438773957 63.92271512573653 L 1275.1314500721421 63.81622237595798 L 1275.0966138360081 63.70956681719489 L 1275.0641386525886 63.602759114914264 L 1275.0340277693745 63.49580994979732 L 1275.0062841974293 63.38873001667144 L 1274.9809107110868 63.28153002344071 L 1274.957909847675 63.17422069001512 L 1274.9372839072605 63.066812747238586 L 1274.9190349524204 62.959316935815885 L 1274.903164808035 62.85174400523857 L 1274.8896750611054 62.74410471271006 L 1274.8785670605953 62.636409822069915 L 1274.8698419172952 62.52867010271744 L 1274.8635005037122 62.4208963285348 L 1274.8595434539825 62.313099276809595 L 1274.8579711638079 62.20528972715717 L 1274.8587837904158 62.09747846044265 L 1274.8619812525444 61.98967625770286 L 1274.86756323045 61.88189389906824 L 1274.8755291659397 61.77414216268484 L 1274.8858782624266 61.66643182363649 L 1274.8986094850093 61.558773652867366 L 1274.9137215605765 61.4511784161048 L 1274.931212977933 61.34365687278283 L 1274.9510819879517 61.236219774966166 L 1274.9733266037485 61.12887786627507 L 1274.99794460088 61.02164188081096 L 1275.024933517567 60.91452254208302 L 1275.0542906549404 60.807530561935856 L 1275.0860130773108 60.70067663947832 L 1275.1200976124626 60.593971460013606 L 1275.1565408519707 60.487425693970756 L 1275.1953391515415 60.381049995837586 L 1275.2364886313771 60.27485500309525 L 1275.2799851765642 60.16885133515453 L 1275.3258244374842 60.06304959229389 L 1275.3740018302494 59.95746035459945 L 1275.4245125371606 59.852094180906974 L 1275.4773515071893 59.746961607746044 L 1275.5325134564823 59.64207314828636 L 1275.589992868891 59.537439291286454 L 1275.6497839965218 59.43307050004484 L 1275.7118808603118 59.32897721135367 L 1275.7762772506262 59.22516983445505 L 1275.84296672788 59.12165875000019 L 1275.9119426231807 59.01845430901127 L 1275.9831980389965 58.91556683184637 L 1276.0567258498452 58.81300660716748 L 1276.1325187030068 58.7107838909116 L 1276.2105690192593 58.60890890526517 L 1276.290868993636 58.507391837641855 L 1276.3734105962064 58.406242839663825 L 1276.4581855728793 58.30547202614659 L 1276.5451854462272 58.205089474087515 L 1276.6344015163356 58.105105221658164 L 1276.7258248616715 58.00552926720046 L 1276.819446339977 57.90637156822687 L 1276.9152565891823 57.807642040424646 L 1277.0132460283419 57.709350556664305 L 1277.1134048585936 57.61150694601232 L 1277.215723064138 57.514120992748204 L 1277.32019041324 57.417202435386145 L 1277.4267964592514 57.320760965701105 L 1277.5355305416567 57.224806227759686 L 1277.6463817871381 57.12934781695572 L 1277.7593391106634 57.03439527905074 L 1277.8743912165944 56.93995810921942 L 1277.9915265998166 56.84604575110002 L 1278.1107335468892 56.75266759585011 L 1278.2320001372166 56.65983298120741 L 1278.3553142442408 56.567551190555996 L 1278.4806635366544 56.47583145199805 L 1278.608035479632 56.384682937430995 L 1278.7374173360859 56.29411476163032 L 1278.868796167938 56.20413598133814 L 1279.0021588374145 56.1147555943575 L 1279.13749200836 56.02598253865261 L 1279.2747821475698 55.937825691455075 L 1279.4140155261446 55.85029386837614 L 1279.5551782208624 55.763395822525176 L 1279.6982561155717 55.677140243634355 L 1279.8432349026018 55.591535757189675 L 1279.990100084195 55.50659092356846 L 1280.1388369739557 55.42231423718327 L 1280.2894306983187 55.33871412563253 L 1280.441866198037 55.25579894885771 L 1280.5961282296878 55.1735769983074 L 1280.7522013671964 55.092056496108135 L 1280.9100700033794 55.01124559424221 L 1281.0697183515042 54.93115237373246 L 1281.2311304468694 54.851784843834196 L 1281.3942901483997 54.77315094123426 L 1281.5591811402614 54.6952585292574 L 1281.7257869334924 54.61811539707989 L 1281.894090867652 54.54172925895067 L 1282.0640761124873 54.46610775341989 L 1282.2357256696157 54.391258442575094 L 1282.409022374224 54.317188811284986 L 1282.5839488967865 54.24390626645098 L 1282.7604877447966 54.171418136266475 L 1282.9386212645168 54.09973166948409 L 1283.1183316427432 54.028854034690774 L 1283.2996009085882 53.95879231959093 L 1283.482410935276 53.88955353029769 L 1283.6667434419562 53.82114459063227 L 1283.8525799955319 53.753572341431656 L 1284.0399020125024 53.68684353986444 L 1284.2286907608225 53.62096485875517 L 1284.4189273617742 53.55594288591707 L 1284.6105927918563 53.49178412349323 L 1284.8036678846854 53.42849498730643 L 1284.998133332913 53.366081806217544 L 1285.1939696901566 53.304550821492676 L 1285.3911573729436 53.24390818617902 L 1285.5896766626697 53.18415996448957 L 1285.7895077075716 53.12531213119671 L 1285.9906305247116 53.067370571034715 L 1286.1930250019752 53.01034107811134 L 1286.3966709000833 52.95422935532834 L 1286.6015478546162 52.89904101381123 L 1286.8076353780489 52.84478157234818 L 1287.014912861801 52.79145645683812 L 1287.2233595782964 52.73907099974815 L 1287.4329546830375 52.687630439580346 L 1287.6436772166885 52.637139920347835 L 1287.8555061071715 52.58760449106049 L 1288.068420171774 52.53902910521993 L 1288.282398119267 52.49141862032429 L 1288.4974185520343 52.444777797382365 L 1288.7134599682115 52.399111300437596 L 1288.9305007638372 52.354423696101605 L 1289.1485192350124 52.3107194530976 L 1289.367493580072 52.26800294181345 L 1289.5874019017638 52.2262784338647 L 1289.808222209439 52.18555010166736 L 1290.0299324212506 52.14582201802072 L 1290.2525103663625 52.10709815570004 L 1290.4759337871656 52.06938238705927 L 1290.7001803415037 52.032678483643856 L 1290.9252276049087 51.996990115813546 L 1291.1510530728415 51.96232085237539 L 1291.3776341629434 51.928674160226834 L 1291.6049482172946 51.89605340400906 L 1291.8329725046788 51.8644618457705 L 1292.0616842228571 51.833902644640645 L 1292.2910605008487 51.80437885651416 L 1292.5210784012168 51.775893433745246 L 1292.751714922363 51.74844922485244 L 1292.9829470008274 51.722048974233765 L 1293.2147515135948 51.69669532189228 L 1293.4471052804072 51.672390803172085 L 1293.6799850660814 51.649137848504814 L 1293.913367582833 51.626938783166544 L 1294.1472294926045 51.60579582704531 L 1294.3815474094004 51.58571109441911 L 1294.616297901624 51.56668659374447 L 1294.8514574944215 51.54872422745561 L 1295.08700267203 51.53182579177417 L 1295.3229098801276 51.515992976529645 L 1295.5591555281903 51.50122736499037 L 1295.79571599185 51.4875304337052 L 1296.032567615258 51.47490355235584 L 1296.2696867134484 51.4633479836199 L 1296.50704957471 51.45286488304463 L 1296.7446324629536 51.443455298931354 L 1296.9824116200891 51.43512017223063 L 1297.2203632683984 51.4278603364482 L 1297.4584636129152 51.42167651756158 L 1297.6966888438033 51.41656933394751 L 1297.9350151387382 51.41253929632009 L 1298.1734186652893 51.40958680767973 L 1298.4118755833022 51.407712163272826 L 1298.650362047284 51.40691555056227 L 1298.888854208787 51.40719704920866 L 1299.127328218794 51.40855663106237 L 1299.3657602301023 51.41099416016634 L 1299.6041263997097 51.414509392769695 L 1299.8424028911982 51.419101977352106 L 1300.0805658771164 51.42477145465894 L 1300.318591541365 51.431517257747196 L 1300.5564560815756 51.43933871204218 L 1300.7941357114923 51.44823503540498 L 1301.0316066633502 51.45820533821068 L 1301.2688451902523 51.4692486234373 L 1301.5058275685433 51.48136378676553 L 1301.7425301001829 51.49454961668913 L 1301.978929115115 51.50880479463608 L 1302.2150009736356 51.524127895100484 L 1302.4507220687553 51.54051738578506 L 1302.686068828561 51.5579716277544 L 1302.9210177185728 51.57648887559884 L 1303.1555452440978 51.59606727760904 L 1303.3896279525784 51.6167048759611 L 1303.6232424359391 51.6383996069124 L 1303.8563653329263 51.66114930100791 L 1304.0889733314443 51.684951683297186 L 1304.3210431708874 51.70980437356183 L 1304.552551644465 51.735704886553535 L 1304.7834756015222 51.76265063224257 L 1305.0137919498566 51.79063891607683 L 1305.2434776580244 51.81966693925126 L 1305.4725097576468 51.849731798987726 L 1305.7008653457044 51.88083048882531 L 1305.928521586829 51.91295989892094 L 1306.1554557155857 51.94611681636038 L 1306.3816450387512 51.980297925479526 L 1306.6070669375813 52.01549980819594 L 1306.8316988700744 52.0517189443507 L 1307.055518373224 52.08895171206036 L 1307.2785030652665 52.127194388079175 L 1307.5006306479186 52.16644314817141 L 1307.721878908607 52.20669406749378 L 1307.9422257226902 52.247943120987884 L 1308.16164905567 52.29018618378274 L 1308.3801269653966 52.33341903160728 L 1308.5976376042604 52.37763734121275 L 1308.8141592213792 52.422836690805035 L 1309.0296701647717 52.46901256048684 L 1309.244148883523 52.516160332709674 L 1309.4575739299398 52.564275292735616 L 1309.6699239616958 52.613352629108746 L 1309.8811777439644 52.663387434136325 L 1310.0913141515437 52.71437470437956 L 1310.3003121709678 52.7663093411539 L 1310.5081509026088 52.819186151038956 L 1310.7148095627672 52.8729998463978 L 1310.9202674857488 52.92774504590574 L 1311.1245041259328 52.983416275088445 L 1311.3274990598252 53.040007966869396 L 1311.5292319881019 53.09751446212657 L 1311.7296827376379 53.15593001025836 L 1311.9288312635256 53.21524876975863 L 1312.1266576510782 53.27546480880087 L 1312.3231421178218 53.33657210583136 L 1312.5182650154734 53.3985645501713 L 1312.7120068319061 53.461435942627936 L 1312.9043481930996 53.52517999611441 L 1313.095269865078 53.58979033627848 L 1313.2847527558333 53.655260502139996 L 1313.4727779172342 53.721583946736914 L 1313.6593265469212 53.78875403778004 L 1313.844379990187 53.85676405831625 L 1314.0279197418413 53.92560720740017 L 1314.209927448062 53.995276600774254 L 1314.3903849082299 54.065765271557225 L 1314.5692740767497 54.13706617094075 L 1314.7465770648537 54.2091721688943 L 1314.9222761423903 54.28207605487816 L 1315.0963537395987 54.35577053856451 L 1315.268792448864 54.43024825056637 L 1315.439575026459 54.50550174317461 L 1315.6086843942683 54.581523491102686 L 1315.7761036414959 54.658305892239156 L 1315.9418160263567 54.73584126840789 L 1316.1058049777505 54.81412186613588 L 1316.2680540969184 54.89313985742859 L 1316.428547159084 54.97288734055273 L 1316.5872681150747 55.05335634082646 L 1316.7442010929274 55.1345388114168 L 1316.8993303994748 55.21642663414435 L 1317.0526405219155 55.29901162029506 L 1317.2041161293653 55.38228551143916 L 1317.3537420743894 55.46623998025691 L 1317.5015033945183 55.55086663137139 L 1317.6473853137427 55.63615700218803 L 1317.7913732439927 55.722102563740805 L 1317.933452786595 55.80869472154519 L 1318.0736097337135 55.89592481645755 L 1318.2118300697707 55.98378412554111 L 1318.348099972848 56.07226386293816 L 1318.4824058160689 56.1613551807487 L 1318.6147341689607 56.251049169915184 L 1318.7450717987983 56.34133686111345 L 1318.8734056719277 56.4322092256496 L 1318.9997229550684 56.52365717636293 L 1319.124011016597 56.615671568534566 L 1319.2462574278115 56.70824320080196 L 1319.3664499641723 56.80136281607904 L 1319.4845766065257 56.89502110248188 L 1319.6006255423065 56.98920869425987 L 1319.7145851667174 57.083916172732344 L 1319.826444083891 57.17913406723036 L 1319.9361911080289 57.27485285604382 L 1320.04381526452 57.37106296737362 L 1320.1493057910384 57.467754780288786 L 1320.2526521386196 57.56491862568861 L 1320.3538439727145 57.662544787269525 L 1320.4528711742244 57.76062350249672 L 1320.5497238405114 57.859144963580405 L 1320.6443922863898 57.95809931845658 L 1320.7368670450937 58.05747667177222 L 1320.8271388692244 58.15726708587479 L 1320.9151987316748 58.257460581806065 L 1321.001037826532 58.358047140299924 L 1321.0846475699577 58.459016702784346 L 1321.1660196010478 58.56035917238722 L 1321.2451457826667 58.66206441494605 L 1321.3220182022621 58.764122260021324 L 1321.3966291726563 58.866522501913586 L 1321.4689712328143 58.96925490068398 L 1321.5390371485905 59.072309183178234 L 1321.6068199134515 59.17567504405398 L 1321.6723127491775 59.279342146811274 L 1321.7355091065394 59.38330012482622 L 1321.796402665954 59.48753858238766 L 1321.8549873381166 59.59204709573668 L 1321.9112572646081 59.69681521410906 L 1321.9652068184835 59.80183246078026 L 1322.0168306048315 59.907088334113126 L 1322.0661234613174 60.012572308608036 L 1322.1130804586958 60.11827383595545 L 1322.1576969013067 60.22418234609071 L 1322.1999683275428 60.33028724825106 L 1322.2398905102966 60.43657793203471 L 1322.2774594573832 60.54304376846186 L 1322.3126714119394 60.64967411103757 L 1322.3455228527987 60.75645829681646 L 1322.3760104948444 60.86338564746893 L 1322.4041312893382 60.97044547034902 L 1322.4298824242237 61.07762705956367 L 1322.4532613244087 61.184919697043256 L 1322.4742656520232 61.29231265361346 L 1322.4928933066512 61.399795190068104 L 1322.5091424255436 61.50735655824312 L 1322.5230113838015 61.614986002091314 L 1322.5344987945407 61.72267275875801 L 1322.54360350903 61.830406059657264 L 1322.550324616805 61.93817513154877 L 1322.5546614457612 62.04596919761514 L 1322.5566135622187 62.15377747853961 M 1322.5567345522747 96.4920458931 L 1322.555542092371 96.59985643801662 L 1322.551964831905 96.70765620196859 L 1322.5460031285995 96.81543440506935 L 1322.5376575786204 96.9231802695884 L 1322.5269290165152 97.03088302102908 L 1322.5138185151313 97.138531889206 L 1322.498327385508 97.24611610932205 L 1322.4804571767454 97.35362492304485 L 1322.4602096758495 97.46104757958265 L 1322.4375869075532 97.5683733367593 L 1322.4125911341148 97.67559146208852 L 1322.3852248550909 97.78269123384712 L 1322.3554908070862 97.88966194214719 L 1322.323391963481 97.99649289000702 L 1322.2889315341329 98.10317339442086 L 1322.252112965056 98.20969278742717 L 1322.212939938077 98.31604041717543 L 1322.171416370465 98.42220564899125 L 1322.127546414543 98.52817786643996 L 1322.0813344572698 98.6339464723881 L 1322.0327851198024 98.73950089006323 L 1321.9819032570344 98.84483056411152 L 1321.9286939571093 98.94992496165337 L 1321.8731625409132 99.05477357333659 L 1321.8153145615413 99.15936591438738 L 1321.755155803743 99.2636915256588 L 1321.6926922833443 99.36773997467667 L 1321.6279302466453 99.47150085668278 L 1321.5608761697952 99.5749637956754 L 1321.4915367581461 99.67811844544686 L 1321.4199189455817 99.78095449061813 L 1321.346029893823 99.8834616476704 L 1321.2698769917138 99.98562966597338 L 1321.191467854481 100.08744832881038 L 1321.110810322973 100.18890745439998 L 1321.0279124628755 100.28999689691415 L 1320.9427825639057 100.39070654749288 L 1320.8554291389823 100.49102633525506 L 1320.7658609233752 100.59094622830548 L 1320.674086873831 100.69045623473812 L 1320.5801161676786 100.78954640363527 L 1320.4839582019101 100.8882068260626 L 1320.3856225922418 100.9864276360601 L 1320.2851191721531 101.0841990116286 L 1320.1824579919019 101.18151117571202 L 1320.0776493175208 101.27835439717506 L 1319.97070362979 101.37471899177628 L 1319.8616316231892 101.4705953231365 L 1319.7504442048278 101.56597380370249 L 1319.6371524933552 101.6608448957057 L 1319.5217678178483 101.75519911211595 L 1319.4043017166782 101.84902701759025 L 1319.2847659363574 101.94231922941623 L 1319.163172430364 102.03506641845047 L 1319.0395333579477 102.12725931005133 L 1318.9138610829123 102.2188886850065 L 1318.7861681723807 102.30994538045483 L 1318.656467395538 102.40042029080266 L 1318.5247717223529 102.49030436863434 L 1318.3910943222836 102.579588625617 L 1318.2554485629587 102.66826413339936 L 1318.1178480088408 102.75632202450451 L 1317.978306419871 102.84375349321674 L 1317.8368377500917 102.93054979646202 L 1317.693456146252 103.01670225468237 L 1317.5481759463926 103.10220225270375 L 1317.401011678413 103.18704124059762 L 1317.2519780586167 103.27121073453588 L 1317.101089990242 103.3547023176393 L 1316.9483625619696 103.4375076408191 L 1316.7938110464152 103.51961842361202 L 1316.6374508986016 103.60102645500817 L 1316.4792977544134 103.68172359427226 L 1316.3193674290333 103.7617017717576 L 1316.15767591536 103.84095298971312 L 1315.9942393824106 103.91946932308304 L 1315.829074173702 103.99724292029944 L 1315.662196805618 104.07426600406745 L 1315.4936239657554 104.15053087214287 L 1315.3233725112582 104.22602989810241 L 1315.15145946713 104.30075553210642 L 1314.977902024532 104.37470030165377 L 1314.8027175390637 104.44785681232914 L 1314.6259235290277 104.52021774854238 L 1314.4475376736775 104.59177587426021 L 1314.2675778114503 104.66252403372968 L 1314.0860619381822 104.73245515219378 L 1313.9030082053093 104.80156223659897 L 1313.7184349180523 104.86983837629438 L 1313.5323605335861 104.93727674372295 L 1313.3448036591942 105.0038705951041 L 1313.1557830504075 105.06961327110824 L 1312.9653176091297 105.13449819752252 L 1312.7734263817458 105.19851888590837 L 1312.580128557219 105.26166893425032 L 1312.3854434651705 105.32394202759615 L 1312.1893905739473 105.38533193868841 L 1311.9919894886752 105.44583252858716 L 1311.793259949298 105.50543774728384 L 1311.5932218286043 105.56414163430621 L 1311.3918951302394 105.62193831931454 L 1311.1892999867052 105.67882202268845 L 1310.9854566573476 105.73478705610502 L 1310.7803855263292 105.78982782310756 L 1310.5741071005925 105.84393881966523 L 1310.3666420078082 105.89711463472344 L 1310.1580109943125 105.94934995074503 L 1309.948234923033 106.00063954424192 L 1309.737334771402 106.0509782862975 L 1309.525331629259 106.1003611430795 L 1309.3122466967413 106.14878317634341 L 1309.0981012821649 106.19623954392625 L 1308.8829167998927 106.2427255002308 L 1308.6667147681935 106.2882363967002 L 1308.4495168070903 106.33276768228268 L 1308.2313446361982 106.37631490388682 L 1308.0122200725527 106.41887370682676 L 1307.7921650284275 106.46043983525765 L 1307.5712015091433 106.50100913260128 L 1307.3493516108683 106.54057754196174 L 1307.1266375184073 106.57914110653107 L 1306.903081502984 106.61669596998493 L 1306.6787059200133 106.65323837686829 L 1306.453533206867 106.6887646729709 L 1306.2275858806286 106.72327130569276 L 1306.0008865358425 106.75675482439937 L 1305.773457842254 106.78921188076673 L 1305.5453225425433 106.82063922911627 L 1305.3165034500498 106.85103372673933 L 1305.0870234464926 106.8803923342115 L 1304.8569054796806 106.90871211569649 L 1304.6261725612185 106.93599023923973 L 1304.3948477642061 106.96222397705162 L 1304.1629542209303 106.98741070578025 L 1303.9305151205522 107.0115479067737 L 1303.697553706788 107.03463316633201 L 1303.4640932755851 107.05666417594847 L 1303.2301571727921 107.07763873254045 L 1302.9957687918243 107.09755473866979 L 1302.7609515713243 107.11641020275246 L 1302.5257289928186 107.13420323925777 L 1302.290124578369 107.1509320688969 L 1302.0541618882207 107.16659501880085 L 1301.817864518446 107.18119052268763 L 1301.5812560985848 107.19471712101905 L 1301.3443602892823 107.20717346114655 L 1301.1072007799219 107.21855829744648 L 1300.8698012862567 107.22887049144471 L 1300.6321855480383 107.23810901193042 L 1300.3943773266426 107.24627293505928 L 1300.1564004026936 107.25336144444577 L 1299.9182785736853 107.25937383124486 L 1299.6800356516019 107.26430949422287 L 1299.4416954605376 107.26816793981763 L 1299.2032818343125 107.27094878218779 L 1298.964818614091 107.27265174325143 L 1298.7263296459957 107.27327665271386 L 1298.4878387787253 107.27282344808465 L 1298.2493698611675 107.27129217468391 L 1298.0109467400152 107.26868298563768 L 1297.7725932573821 107.2649961418627 L 1297.5343332484179 107.26023201204026 L 1297.2961905389245 107.2543910725794 L 1297.0581889429748 107.24747390756917 L 1296.82035226053 107.23948120872033 L 1296.58270427506 107.23041377529609 L 1296.3452687511656 107.22027251403225 L 1296.1080694322009 107.20905843904646 L 1295.8711300379005 107.1967726717369 L 1295.634474262006 107.18341644067004 L 1295.3981257698983 107.16899108145788 L 1295.1621081962294 107.15349803662431 L 1294.9264451425597 107.1369388554609 L 1294.6911601749987 107.11931519387196 L 1294.4562768218466 107.10062881420897 L 1294.2218185712434 107.08088158509435 L 1293.9878088688183 107.0600754812345 L 1293.7542711153471 107.03821258322252 L 1293.52122866441 107.01529507732995 L 1293.2887048200585 106.99132525528832 L 1293.0567228344826 106.96630551405984 L 1292.8253059056879 106.94023835559778 L 1292.5944771751745 106.91312638659626 L 1292.3642597256228 106.88497231822961 L 1292.1346765785863 106.85577896588119 L 1291.9057506921881 106.8255492488619 L 1291.6775049588261 106.79428619011826 L 1291.4499622028834 106.76199291593008 L 1291.2231451784462 106.72867265559789 L 1290.9970765670275 106.69432874111995 L 1290.7717789753005 106.65896460685907 L 1290.5472749328367 106.62258378919921 L 1290.3235868898528 106.58518992619184 L 1290.1007372149668 106.5467867571921 L 1289.8787481929608 106.50737812248485 L 1289.6576420225515 106.46696796290075 L 1289.4374408141723 106.42556031942208 L 1289.21816658776 106.38315933277867 L 1288.9998412705547 106.33976924303387 L 1288.7824866949065 106.29539438916049 L 1288.5661245960914 106.25003920860692 L 1288.350776610139 106.20370823685344 L 1288.1364642716687 106.15640610695861 L 1287.9232090117357 106.108137549096 L 1287.7110321556881 106.05890739008117 L 1287.499954921035 106.00872055288902 L 1287.2899984153237 105.9575820561614 L 1287.0811836340297 105.90549701370541 L 1286.8735314584574 105.85247063398188 L 1286.667062653651 105.79850821958458 L 1286.4617978663196 105.74361516670999 L 1286.25775762277 105.68779696461766 L 1286.054962326857 105.63105919508126 L 1285.8534322579414 105.5734075318305 L 1285.6531875688615 105.51484773998365 L 1285.4542482839202 105.45538567547108 L 1285.2566342968794 105.3950272844497 L 1285.0603653689734 105.33377860270829 L 1284.8654611269317 105.27164575506403 L 1284.6719410610156 105.20863495474987 L 1284.4798245230709 105.14475250279335 L 1284.2891307245911 105.08000478738643 L 1284.0998787347971 105.01439828324668 L 1283.9120874787302 104.94793955096986 L 1283.7257757353595 104.8806352363738 L 1283.5409621357041 104.8124920698339 L 1283.35766516097 104.74351686560999 L 1283.1759031407018 104.67371652116503 L 1282.9956942509502 104.6030980164753 L 1282.817056512454 104.53166841333243 L 1282.6400077888381 104.4594348546372 L 1282.4645657848273 104.38640456368528 L 1282.2907480444758 104.31258484344491 L 1282.1185719494129 104.2379830758266 L 1281.9480547171047 104.16260672094495 L 1281.779213399132 104.08646331637262 L 1281.612064879486 104.00956047638662 L 1281.4466258728796 103.93190589120688 L 1281.2829129230756 103.85350732622719 L 1281.1209424012322 103.77437262123871 L 1280.9607305042668 103.694509689646 L 1280.8022932532358 103.61392651767568 L 1280.6456464917321 103.53263116357778 L 1280.4908058843012 103.45063175681996 L 1280.3377869148749 103.36793649727457 L 1280.1866048852226 103.28455365439865 L 1280.0372749134212 103.20049156640701 L 1279.8898119323437 103.1157586394384 L 1279.7442306881653 103.03036334671489 L 1279.6005457388887 102.94431422769459 L 1279.4587714528896 102.85761988721772 L 1279.318922007478 102.77028899464605 L 1279.1810113874824 102.68233028299609 L 1279.0450533838493 102.5937525480657 L 1278.9110615922664 102.50456464755453 L 1278.7790494118005 102.41477550017834 L 1278.6490300435603 102.32439408477703 L 1278.5210164893738 102.23342943941684 L 1278.39502155049 102.14189066048647 L 1278.2710578262975 102.04978690178756 L 1278.1491377130658 101.95712737361922 L 1278.0292734027043 101.86392134185704 L 1277.9114768815443 101.77017812702654 L 1277.7957599291399 101.67590710337106 L 1277.6821341170898 101.58111769791444 L 1277.5706108078803 101.48581938951821 L 1277.4612011537497 101.39002170793381 L 1277.353916095572 101.29373423284954 L 1277.2487663617637 101.19696659293271 L 1277.1457624672107 101.09972846486664 L 1277.0449147122165 101.00202957238312 L 1276.9462331814723 100.90387968528998 L 1276.8497277430495 100.80528861849413 L 1276.7554080474108 100.70626623102011 L 1276.663283526448 100.60682242502413 L 1276.5733633925356 100.50696714480392 L 1276.4856566376127 100.40671037580431 L 1276.4001720322815 100.30606214361863 L 1276.3169181249311 100.20503251298624 L 1276.2359032408833 100.103631586786 L 1276.1571354815585 100.00186950502604 L 1276.0806227236671 99.89975644382972 L 1276.0063726184214 99.79730261441809 L 1275.9343925907697 99.69451826208869 L 1275.864689838655 99.59141366519111 L 1275.7972713322945 99.48799913409913 L 1275.7321438134825 99.38428501017967 L 1275.6693137949167 99.28028166475868 L 1275.6087875595465 99.17599949808405 L 1275.550571159945 99.07144893828554 L 1275.4946704177037 98.96664044033201 L 1275.4410909228502 98.86158448498593 L 1275.3898380332896 98.75629157775525 L 1275.3409168742676 98.65077224784297 L 1275.29433233786 98.54503704709414 L 1275.2500890824808 98.43909654894075 L 1275.2081915324195 98.33296134734431 L 1275.1686438773957 98.22664205573652 L 1275.1314500721421 98.12014930595798 L 1275.0966138360081 98.01349374719489 L 1275.0641386525886 97.90668604491427 L 1275.0340277693745 97.79973687979731 L 1275.0062841974293 97.69265694667143 L 1274.9809107110868 97.58545695344071 L 1274.957909847675 97.47814762001512 L 1274.9372839072605 97.37073967723859 L 1274.9190349524204 97.26324386581588 L 1274.903164808035 97.15567093523856 L 1274.8896750611054 97.04803164271006 L 1274.8785670605953 96.94033675206991 L 1274.8698419172952 96.83259703271744 L 1274.8635005037122 96.7248232585348 L 1274.8595434539825 96.6170262068096 L 1274.8579711638079 96.50921665715717" stroke-miterlimit="10" stroke-width="2.7769845610000004" stroke-dasharray=""/></g><g><text fill="black" stroke="none" font-family="sans-serif" font-size="11pt" font-style="normal" font-weight="normal" text-decoration="normal" x="1267.3293927879856" y="124.80095321200001" text-anchor="start" dominant-baseline="alphabetic" xml:space="preserve">Database</text></g></g><g><path fill="white" stroke="black" paint-order="fill stroke markers" d=" M 349.3382117970052 183.607685092 L 365.6734150970052 183.607685092 L 365.6734150970052 1712.5827139720004 L 349.3382117970052 1712.5827139720004 L 349.3382117970052 183.607685092" stroke-miterlimit="10" stroke-width="1.3612669416666667" stroke-dasharray=""/><path fill="white" stroke="black" paint-order="fill stroke markers" d=" M 576.6998843543619 513.578791752 L 593.035087654362 513.578791752 L 593.035087654362 559.317360992 L 576.6998843543619 559.317360992 L 576.6998843543619 513.578791752" stroke-miterlimit="10" stroke-width="1.3612669416666667" stroke-dasharray=""/><path fill="white" stroke="black" paint-order="fill stroke markers" d=" M 723.9957099783528 908.8907116119999 L 740.3309132783529 908.8907116119999 L 740.3309132783529 1666.8441447320004 L 723.9957099783528 1666.8441447320004 L 723.9957099783528 908.8907116119999" stroke-miterlimit="10" stroke-width="1.3612669416666667" stroke-dasharray=""/><path fill="white" stroke="black" paint-order="fill stroke markers" d=" M 899.0118325913086 954.6292808519999 L 915.3470358913087 954.6292808519999 L 915.3470358913087 1091.844988572 L 899.0118325913086 1091.844988572 L 899.0118325913086 954.6292808519999" stroke-miterlimit="10" stroke-width="1.3612669416666667" stroke-dasharray=""/><path fill="white" stroke="black" paint-order="fill stroke markers" d=" M 1290.5397360842746 1000.3678500919998 L 1306.8749393842747 1000.3678500919998 L 1306.8749393842747 1046.1064193319999 L 1290.5397360842746 1046.1064193319999 L 1290.5397360842746 1000.3678500919998" stroke-miterlimit="10" stroke-width="1.3612669416666667" stroke-dasharray=""/><path fill="white" stroke="black" paint-order="fill stroke markers" d=" M 732.1633116283529 1175.154525402 L 748.498514928353 1175.154525402 L 748.498514928353 1220.893094642 L 732.1633116283529 1220.893094642 L 732.1633116283529 1175.154525402" stroke-miterlimit="10" stroke-width="1.3612669416666667" stroke-dasharray=""/><path fill="white" stroke="black" paint-order="fill stroke markers" d=" M 1062.8129817398085 1467.5546644720002 L 1079.1481850398086 1467.5546644720002 L 1079.1481850398086 1604.7703721920004 L 1062.8129817398085 1604.7703721920004 L 1062.8129817398085 1467.5546644720002" stroke-miterlimit="10" stroke-width="1.3612669416666667" stroke-dasharray=""/><path fill="white" stroke="black" paint-order="fill stroke markers" d=" M 1290.5397360842746 1513.2932337120003 L 1306.8749393842747 1513.2932337120003 L 1306.8749393842747 1559.0318029520004 L 1290.5397360842746 1559.0318029520004 L 1290.5397360842746 1513.2932337120003" stroke-miterlimit="10" stroke-width="1.3612669416666667" stroke-dasharray=""/><g><g><rect fill="white" stroke="none" x="123.84073823826823" y="162.371920802" width="191.50035347046875" height="21.23576429"/></g><text fill="black" stroke="none" font-family="sans-serif" font-size="11pt" font-style="normal" font-weight="normal" text-decoration="normal" x="126.29101873326823" y="177.07360377199998" text-anchor="start" dominant-baseline="alphabetic" xml:space="preserve">Go to Curriculum detail page</text></g><g><path fill="none" stroke="black" paint-order="fill stroke markers" d=" M 89.84361815 183.607685092 L 335.88889441333856 183.607685092" stroke-miterlimit="10" stroke-width="1.3612669416666667" stroke-dasharray=""/><g transform="translate(349.3382117970052,183.607685092) translate(-349.3382117970052,-183.607685092)"><path fill="black" stroke="none" paint-order="stroke fill markers" d=" M 335.72554238033854 176.80135038366666 L 349.3382117970052 183.607685092 L 335.72554238033854 190.41401980033334 Z"/></g></g><g><g><rect fill="white" stroke="none" x="138.0998553647331" y="208.110490042" width="162.98211921753906" height="21.23576429"/></g><text fill="black" stroke="none" font-family="sans-serif" font-size="11pt" font-style="normal" font-weight="normal" text-decoration="normal" x="140.55013585973307" y="222.812173012" text-anchor="start" dominant-baseline="alphabetic" xml:space="preserve">Click Add Combo button</text></g><g><path fill="none" stroke="black" paint-order="fill stroke markers" d=" M 89.84361815 229.346254332 L 335.88889441333856 229.346254332" stroke-miterlimit="10" stroke-width="1.3612669416666667" stroke-dasharray=""/><g transform="translate(349.3382117970052,229.346254332) translate(-349.3382117970052,-229.346254332)"><path fill="black" stroke="none" paint-order="stroke fill markers" d=" M 335.72554238033854 222.53991962366666 L 349.3382117970052 229.346254332 L 335.72554238033854 236.15258904033334 Z"/></g></g><path fill="none" stroke="none"/><g><g/><path fill="white" stroke="black" paint-order="fill stroke markers" d=" M 280.85703358774737 253.84905928199998 L 434.154593306263 253.84905928199998 L 434.154593306263 327.357474132 L 280.85703358774737 327.357474132 L 280.85703358774737 253.84905928199998 Z" stroke-miterlimit="10" stroke-width="2.3336004714285714" stroke-dasharray=""/><path fill="white" stroke="black" paint-order="fill stroke markers" d=" M 280.85703358774737 253.84905928199998 L 280.85703358774737 273.451303242 L 328.52211487036453 273.451303242 L 338.32323685036454 263.650181262 L 338.32323685036454 253.84905928199998 L 280.85703358774737 253.84905928199998" stroke-miterlimit="10" stroke-width="2.3336004714285714" stroke-dasharray=""/><text fill="black" stroke="none" font-family="sans-serif" font-size="8.8pt" font-style="normal" font-weight="bold" text-decoration="normal" x="297.19223688774736" y="266.917221922" text-anchor="start" dominant-baseline="alphabetic" xml:space="preserve">ref</text></g><g><text fill="black" stroke="none" font-family="sans-serif" font-size="11pt" font-style="normal" font-weight="normal" text-decoration="normal" x="303.7263182077474" y="295.1537876262857" text-anchor="start" dominant-baseline="alphabetic" xml:space="preserve">Here we have</text><text fill="black" stroke="none" font-family="sans-serif" font-size="11pt" font-style="normal" font-weight="normal" text-decoration="normal" x="303.7263182077474" y="311.4889909262857" text-anchor="start" dominant-baseline="alphabetic" xml:space="preserve">external process</text></g><g><g><rect fill="white" stroke="none" x="145.43343538182293" y="351.860279082" width="138.52972663941406" height="21.23576429"/></g><g><rect fill="white" stroke="none" x="145.43343538182293" y="368.19548238199997" width="148.31495918335938" height="21.23576429"/></g><text fill="black" stroke="none" font-family="sans-serif" font-size="11pt" font-style="normal" font-weight="normal" text-decoration="normal" x="147.88371587682292" y="366.56196205199996" text-anchor="start" dominant-baseline="alphabetic" xml:space="preserve">Display Add Combo </text><text fill="black" stroke="none" font-family="sans-serif" font-size="11pt" font-style="normal" font-weight="normal" text-decoration="normal" x="147.88371587682292" y="382.89716535199994" text-anchor="start" dominant-baseline="alphabetic" xml:space="preserve">into Curriculum popup</text></g><g><path fill="none" stroke="black" paint-order="fill stroke markers" d=" M 349.3382117970052 389.431246672 L 103.29293553366666 389.431246672" stroke-miterlimit="10" stroke-width="1.3612669416666667" stroke-dasharray="6.53408132"/><g transform="translate(89.84361815,389.431246672) translate(-89.84361815,-389.431246672)"><path fill="black" stroke="none" paint-order="stroke fill markers" d=" M 103.45628756666666 382.62491196366665 L 89.84361815 389.431246672 L 103.45628756666666 396.2375813803333 Z"/></g></g><g><g><rect fill="white" stroke="none" x="168.25016969578778" y="413.93405162199997" width="102.68149055542969" height="21.23576429"/></g><text fill="black" stroke="none" font-family="sans-serif" font-size="11pt" font-style="normal" font-weight="normal" text-decoration="normal" x="170.70045019078776" y="428.63573459199995" text-anchor="start" dominant-baseline="alphabetic" xml:space="preserve">Search Combo</text></g><g><path fill="none" stroke="black" paint-order="fill stroke markers" d=" M 89.84361815 435.169815912 L 335.88889441333856 435.169815912" stroke-miterlimit="10" stroke-width="1.3612669416666667" stroke-dasharray=""/><g transform="translate(349.3382117970052,435.169815912) translate(-349.3382117970052,-435.169815912)"><path fill="black" stroke="none" paint-order="stroke fill markers" d=" M 335.72554238033854 428.36348120366665 L 349.3382117970052 435.169815912 L 335.72554238033854 441.9761506203333 Z"/></g></g><g><g><rect fill="white" stroke="none" x="385.0034056686718" y="459.67262086200003" width="35.03657783570313" height="21.23576429"/></g><g><rect fill="white" stroke="none" x="385.0034056686718" y="476.007824162" width="172.36648811402344" height="21.23576429"/></g><g><rect fill="white" stroke="none" x="385.0034056686718" y="492.343027462" width="127.9570795446875" height="21.23576429"/></g><text fill="black" stroke="none" font-family="sans-serif" font-size="11pt" font-style="normal" font-weight="normal" text-decoration="normal" x="387.4536861636718" y="474.374303832" text-anchor="start" dominant-baseline="alphabetic" xml:space="preserve">GET</text><text fill="black" stroke="none" font-family="sans-serif" font-size="11pt" font-style="normal" font-weight="normal" text-decoration="normal" x="387.4536861636718" y="490.709507132" text-anchor="start" dominant-baseline="alphabetic" xml:space="preserve">/api/search?entity=combo</text><text fill="black" stroke="none" font-family="sans-serif" font-size="11pt" font-style="normal" font-weight="normal" text-decoration="normal" x="387.4536861636718" y="507.044710432" text-anchor="start" dominant-baseline="alphabetic" xml:space="preserve">&amp;{paramToSearch}</text></g><g><path fill="none" stroke="black" paint-order="fill stroke markers" d=" M 365.6734150970052 513.578791752 L 563.2505669706952 513.578791752" stroke-miterlimit="10" stroke-width="1.3612669416666667" stroke-dasharray=""/><g transform="translate(576.6998843543619,513.578791752) translate(-576.6998843543619,-513.578791752)"><path fill="black" stroke="none" paint-order="stroke fill markers" d=" M 563.0872149376952 506.7724570436667 L 576.6998843543619 513.578791752 L 563.0872149376952 520.3851264603334 Z"/></g></g><g><g><rect fill="white" stroke="none" x="434.11218557589837" y="538.081596702" width="74.14892829957031" height="21.23576429"/></g><text fill="black" stroke="none" font-family="sans-serif" font-size="11pt" font-style="normal" font-weight="normal" text-decoration="normal" x="436.5624660708984" y="552.7832796719999" text-anchor="start" dominant-baseline="alphabetic" xml:space="preserve">Combo list</text></g><g><path fill="none" stroke="black" paint-order="fill stroke markers" d=" M 576.6998843543619 559.317360992 L 379.12273248067186 559.317360992" stroke-miterlimit="10" stroke-width="1.3612669416666667" stroke-dasharray="6.53408132"/><g transform="translate(365.6734150970052,559.317360992) translate(-365.6734150970052,-559.317360992)"><path fill="black" stroke="none" paint-order="stroke fill markers" d=" M 379.2860845136719 552.5110262836666 L 365.6734150970052 559.317360992 L 379.2860845136719 566.1236957003333 Z"/></g></g><g><g><rect fill="white" stroke="none" x="180.4727801694206" y="627.925214852" width="78.23626960816406" height="21.23576429"/></g><text fill="black" stroke="none" font-family="sans-serif" font-size="11pt" font-style="normal" font-weight="normal" text-decoration="normal" x="182.92306066442057" y="642.6268978219999" text-anchor="start" dominant-baseline="alphabetic" xml:space="preserve">No Options</text></g><g><path fill="none" stroke="black" paint-order="fill stroke markers" d=" M 349.3382117970052 649.160979142 L 103.29293553366666 649.160979142" stroke-miterlimit="10" stroke-width="1.3612669416666667" stroke-dasharray="6.53408132"/><g transform="translate(89.84361815,649.160979142) translate(-89.84361815,-649.160979142)"><path fill="black" stroke="none" paint-order="stroke fill markers" d=" M 103.45628756666666 642.3546444336666 L 89.84361815 649.160979142 L 103.45628756666666 655.9673138503333 Z"/></g></g><g><g><rect fill="white" stroke="none" x="171.10270875828778" y="717.7688330019998" width="96.97641243042969" height="21.23576429"/></g><text fill="black" stroke="none" font-family="sans-serif" font-size="11pt" font-style="normal" font-weight="normal" text-decoration="normal" x="173.55298925328776" y="732.4705159719998" text-anchor="start" dominant-baseline="alphabetic" xml:space="preserve">Select Combo</text></g><g><path fill="none" stroke="black" paint-order="fill stroke markers" d=" M 89.84361815 739.0045972919999 L 335.88889441333856 739.0045972919999" stroke-miterlimit="10" stroke-width="1.3612669416666667" stroke-dasharray=""/><g transform="translate(349.3382117970052,739.0045972919999) translate(-349.3382117970052,-739.0045972919999)"><path fill="black" stroke="none" paint-order="stroke fill markers" d=" M 335.72554238033854 732.1982625836665 L 349.3382117970052 739.0045972919999 L 335.72554238033854 745.8109320003332 Z"/></g></g><g><g><rect fill="white" stroke="none" x="109.17360872166667" y="763.5074022419999" width="220.83461250367188" height="21.23576429"/></g><g><rect fill="white" stroke="none" x="109.17360872166667" y="779.8426055419999" width="165.7737757116797" height="21.23576429"/></g><text fill="black" stroke="none" font-family="sans-serif" font-size="11pt" font-style="normal" font-weight="normal" text-decoration="normal" x="111.62388921666667" y="778.2090852119999" text-anchor="start" dominant-baseline="alphabetic" xml:space="preserve">Display the semester input boxes</text><text fill="black" stroke="none" font-family="sans-serif" font-size="11pt" font-style="normal" font-weight="normal" text-decoration="normal" x="111.62388921666667" y="794.5442885119999" text-anchor="start" dominant-baseline="alphabetic" xml:space="preserve"> for the combo's syllabus</text></g><g><path fill="none" stroke="black" paint-order="fill stroke markers" d=" M 349.3382117970052 801.0783698319999 L 103.29293553366666 801.0783698319999" stroke-miterlimit="10" stroke-width="1.3612669416666667" stroke-dasharray="6.53408132"/><g transform="translate(89.84361815,801.0783698319999) translate(-89.84361815,-801.0783698319999)"><path fill="black" stroke="none" paint-order="stroke fill markers" d=" M 103.45628756666666 794.2720351236666 L 89.84361815 801.0783698319999 L 103.45628756666666 807.8847045403332 Z"/></g></g><g><g><rect fill="white" stroke="none" x="137.30172914402996" y="825.581174782" width="164.57837165894531" height="21.23576429"/></g><g><rect fill="white" stroke="none" x="137.30172914402996" y="841.9163780819999" width="99.42448677125" height="21.23576429"/></g><text fill="black" stroke="none" font-family="sans-serif" font-size="11pt" font-style="normal" font-weight="normal" text-decoration="normal" x="139.75200963902995" y="840.2828577519999" text-anchor="start" dominant-baseline="alphabetic" xml:space="preserve">Fill semester information</text><text fill="black" stroke="none" font-family="sans-serif" font-size="11pt" font-style="normal" font-weight="normal" text-decoration="normal" x="139.75200963902995" y="856.6180610519999" text-anchor="start" dominant-baseline="alphabetic" xml:space="preserve">and click Save</text></g><g><path fill="none" stroke="black" paint-order="fill stroke markers" d=" M 89.84361815 863.152142372 L 335.88889441333856 863.152142372" stroke-miterlimit="10" stroke-width="1.3612669416666667" stroke-dasharray=""/><g transform="translate(349.3382117970052,863.152142372) translate(-349.3382117970052,-863.152142372)"><path fill="black" stroke="none" paint-order="stroke fill markers" d=" M 335.72554238033854 856.3458076636666 L 349.3382117970052 863.152142372 L 335.72554238033854 869.9584770803333 Z"/></g></g><g><g><rect fill="white" stroke="none" x="433.2039307853547" y="887.6549473219999" width="223.26126350464844" height="21.23576429"/></g><text fill="black" stroke="none" font-family="sans-serif" font-size="11pt" font-style="normal" font-weight="normal" text-decoration="normal" x="435.65421128035473" y="902.3566302919999" text-anchor="start" dominant-baseline="alphabetic" xml:space="preserve">POST:/api/curriculum/{id}/combos</text></g><g><path fill="none" stroke="black" paint-order="fill stroke markers" d=" M 365.6734150970052 908.8907116119999 L 710.5463925946862 908.8907116119999" stroke-miterlimit="10" stroke-width="1.3612669416666667" stroke-dasharray=""/><g transform="translate(723.9957099783528,908.8907116119999) translate(-723.9957099783528,-908.8907116119999)"><path fill="black" stroke="none" paint-order="stroke fill markers" d=" M 710.3830405616861 902.0843769036666 L 723.9957099783528 908.8907116119999 L 710.3830405616861 915.6970463203332 Z"/></g></g><g><g><rect fill="white" stroke="none" x="796.4444429647331" y="933.3935165619998" width="46.453859940195315" height="21.23576429"/></g><text fill="black" stroke="none" font-family="sans-serif" font-size="11pt" font-style="normal" font-weight="normal" text-decoration="normal" x="798.8947234597331" y="948.0951995319998" text-anchor="start" dominant-baseline="alphabetic" xml:space="preserve">get(id)</text></g><g><path fill="none" stroke="black" paint-order="fill stroke markers" d=" M 740.3309132783529 954.6292808519999 L 885.5625152076419 954.6292808519999" stroke-miterlimit="10" stroke-width="1.3612669416666667" stroke-dasharray=""/><g transform="translate(899.0118325913086,954.6292808519999) translate(-899.0118325913086,-954.6292808519999)"><path fill="black" stroke="none" paint-order="stroke fill markers" d=" M 885.3991631746419 947.8229461436665 L 899.0118325913086 954.6292808519999 L 885.3991631746419 961.4356155603332 Z"/></g></g><g><g><rect fill="white" stroke="none" x="1079.716456017694" y="979.1320858019998" width="46.453859940195315" height="21.23576429"/></g><text fill="black" stroke="none" font-family="sans-serif" font-size="11pt" font-style="normal" font-weight="normal" text-decoration="normal" x="1082.1667365126941" y="993.8337687719998" text-anchor="start" dominant-baseline="alphabetic" xml:space="preserve">get(id)</text></g><g><path fill="none" stroke="black" paint-order="fill stroke markers" d=" M 915.3470358913087 1000.3678500919998 L 1277.0904187006079 1000.3678500919998" stroke-miterlimit="10" stroke-width="1.3612669416666667" stroke-dasharray=""/><g transform="translate(1290.5397360842746,1000.3678500919998) translate(-1290.5397360842746,-1000.3678500919998)"><path fill="black" stroke="none" paint-order="stroke fill markers" d=" M 1276.927066667608 993.5615153836665 L 1290.5397360842746 1000.3678500919998 L 1276.927066667608 1007.1741848003331 Z"/></g></g><g><g><rect fill="white" stroke="none" x="1048.7572656490418" y="1024.870655042" width="108.3722406775" height="21.23576429"/></g><text fill="black" stroke="none" font-family="sans-serif" font-size="11pt" font-style="normal" font-weight="normal" text-decoration="normal" x="1051.2075461440418" y="1039.572338012" text-anchor="start" dominant-baseline="alphabetic" xml:space="preserve">Curriculum data</text></g><g><path fill="none" stroke="black" paint-order="fill stroke markers" d=" M 1290.5397360842746 1046.1064193319999 L 928.7963532749753 1046.1064193319999" stroke-miterlimit="10" stroke-width="1.3612669416666667" stroke-dasharray="6.53408132"/><g transform="translate(915.3470358913087,1046.1064193319999) translate(-915.3470358913087,-1046.1064193319999)"><path fill="black" stroke="none" paint-order="stroke fill markers" d=" M 928.9597053079754 1039.3000846236666 L 915.3470358913087 1046.1064193319999 L 928.9597053079754 1052.912754040333 Z"/></g></g><g><g><rect fill="white" stroke="none" x="765.4852525960807" y="1070.609224282" width="108.3722406775" height="21.23576429"/></g><text fill="black" stroke="none" font-family="sans-serif" font-size="11pt" font-style="normal" font-weight="normal" text-decoration="normal" x="767.9355330910807" y="1085.310907252" text-anchor="start" dominant-baseline="alphabetic" xml:space="preserve">Curriculum data</text></g><g><path fill="none" stroke="black" paint-order="fill stroke markers" d=" M 899.0118325913086 1091.844988572 L 753.7802306620196 1091.844988572" stroke-miterlimit="10" stroke-width="1.3612669416666667" stroke-dasharray="6.53408132"/><g transform="translate(740.3309132783529,1091.844988572) translate(-740.3309132783529,-1091.844988572)"><path fill="black" stroke="none" paint-order="stroke fill markers" d=" M 753.9435826950196 1085.0386538636667 L 740.3309132783529 1091.844988572 L 753.9435826950196 1098.6513232803331 Z"/></g></g><g><g><rect fill="white" stroke="none" x="767.8285055000196" y="1116.347793522" width="125.46600593628906" height="21.23576429"/></g><g><rect fill="white" stroke="none" x="767.8285055000196" y="1132.6829968220002" width="66.79744209351563" height="21.23576429"/></g><text fill="black" stroke="none" font-family="sans-serif" font-size="11pt" font-style="normal" font-weight="normal" text-decoration="normal" x="770.2787859950196" y="1131.0494764920002" text-anchor="start" dominant-baseline="alphabetic" xml:space="preserve">Check Curriculum </text><text fill="black" stroke="none" font-family="sans-serif" font-size="11pt" font-style="normal" font-weight="normal" text-decoration="normal" x="770.2787859950196" y="1147.3846797920003" text-anchor="start" dominant-baseline="alphabetic" xml:space="preserve">isEmpty()</text></g><g><path fill="none" stroke="black" paint-order="fill stroke markers" d=" M 740.3309132783529 1153.918761112 L 813.8393281283528 1153.918761112 L 813.8393281283528 1175.154525402 L 761.9478323120195 1175.154525402" stroke-miterlimit="10" stroke-width="1.3612669416666667" stroke-dasharray=""/><g transform="translate(748.4985149283528,1175.154525402) translate(-748.4985149283528,-1175.154525402)"><path fill="black" stroke="none" paint-order="stroke fill markers" d=" M 762.1111843450195 1168.3481906936668 L 748.4985149283528 1175.154525402 L 762.1111843450195 1181.9608601103332 Z"/></g></g><g><g><rect fill="white" stroke="none" x="767.8285055000196" y="1199.657330352" width="97.82106269898438" height="21.23576429"/></g><text fill="black" stroke="none" font-family="sans-serif" font-size="11pt" font-style="normal" font-weight="normal" text-decoration="normal" x="770.2787859950196" y="1214.359013322" text-anchor="start" dominant-baseline="alphabetic" xml:space="preserve">Boolean value</text></g><g><path fill="none" stroke="black" paint-order="fill stroke markers" d=" M 748.4985149283528 1220.893094642 L 813.8393281283528 1220.893094642 L 813.8393281283528 1242.128858932 L 753.7802306620194 1242.128858932" stroke-miterlimit="10" stroke-width="1.3612669416666667" stroke-dasharray="6.53408132"/><g transform="translate(740.3309132783528,1242.128858932) translate(-740.3309132783528,-1242.128858932)"><path fill="black" stroke="none" paint-order="stroke fill markers" d=" M 753.9435826950195 1235.3225242236667 L 740.3309132783528 1242.128858932 L 753.9435826950195 1248.9351936403332 Z"/></g></g><g><g><rect fill="white" stroke="none" x="484.54961865156565" y="1310.7367127920002" width="120.56988777222656" height="21.23576429"/></g><text fill="red" stroke="none" font-family="sans-serif" font-size="11pt" font-style="normal" font-weight="normal" text-decoration="normal" x="486.99989914656567" y="1325.4383957620003" text-anchor="start" dominant-baseline="alphabetic" xml:space="preserve">404 NOT FOUND</text></g><g><path fill="none" stroke="black" paint-order="fill stroke markers" d=" M 723.9957099783528 1331.972477082 L 379.12273248067186 1331.972477082" stroke-miterlimit="10" stroke-width="1.3612669416666667" stroke-dasharray="6.53408132"/><g transform="translate(365.6734150970052,1331.972477082) translate(-365.6734150970052,-1331.972477082)"><path fill="black" stroke="none" paint-order="stroke fill markers" d=" M 379.2860845136719 1325.1661423736668 L 365.6734150970052 1331.972477082 L 379.2860845136719 1338.7788117903333 Z"/></g></g><g><g><rect fill="white" stroke="none" x="118.54009431736979" y="1356.4752820320002" width="202.10164131226563" height="21.23576429"/></g><text fill="black" stroke="none" font-family="sans-serif" font-size="11pt" font-style="normal" font-weight="normal" text-decoration="normal" x="120.9903748123698" y="1371.1769650020003" text-anchor="start" dominant-baseline="alphabetic" xml:space="preserve">Display 404 Not Found screen</text></g><g><path fill="none" stroke="black" paint-order="fill stroke markers" d=" M 349.3382117970052 1377.7110463220001 L 103.29293553366666 1377.7110463220001" stroke-miterlimit="10" stroke-width="1.3612669416666667" stroke-dasharray="6.53408132"/><g transform="translate(89.84361815,1377.7110463220001) translate(-89.84361815,-1377.7110463220001)"><path fill="black" stroke="none" paint-order="stroke fill markers" d=" M 103.45628756666666 1370.904711613667 L 89.84361815 1377.7110463220001 L 103.45628756666666 1384.5173810303334 Z"/></g></g><g><g><rect fill="white" stroke="none" x="815.2061625585143" y="1446.3189001820003" width="172.73156990113281" height="21.23576429"/></g><text fill="black" stroke="none" font-family="sans-serif" font-size="11pt" font-style="normal" font-weight="normal" text-decoration="normal" x="817.6564430535143" y="1461.0205831520004" text-anchor="start" dominant-baseline="alphabetic" xml:space="preserve">addComboToCurriculum()</text></g><g><path fill="none" stroke="black" paint-order="fill stroke markers" d=" M 740.3309132783529 1467.5546644720002 L 1049.3636643561417 1467.5546644720002" stroke-miterlimit="10" stroke-width="1.3612669416666667" stroke-dasharray=""/><g transform="translate(1062.8129817398085,1467.5546644720002) translate(-1062.8129817398085,-1467.5546644720002)"><path fill="black" stroke="none" paint-order="stroke fill markers" d=" M 1049.2003123231418 1460.748329763667 L 1062.8129817398085 1467.5546644720002 L 1049.2003123231418 1474.3609991803335 Z"/></g></g><g><g><rect fill="white" stroke="none" x="1098.478175611475" y="1492.0574694220004" width="172.73156990113281" height="21.23576429"/></g><text fill="black" stroke="none" font-family="sans-serif" font-size="11pt" font-style="normal" font-weight="normal" text-decoration="normal" x="1100.928456106475" y="1506.7591523920005" text-anchor="start" dominant-baseline="alphabetic" xml:space="preserve">addComboToCurriculum()</text></g><g><path fill="none" stroke="black" paint-order="fill stroke markers" d=" M 1079.1481850398086 1513.2932337120003 L 1277.0904187006079 1513.2932337120003" stroke-miterlimit="10" stroke-width="1.3612669416666667" stroke-dasharray=""/><g transform="translate(1290.5397360842746,1513.2932337120003) translate(-1290.5397360842746,-1513.2932337120003)"><path fill="black" stroke="none" paint-order="stroke fill markers" d=" M 1276.927066667608 1506.486899003667 L 1290.5397360842746 1513.2932337120003 L 1276.927066667608 1520.0995684203335 Z"/></g></g><g><g><rect fill="white" stroke="none" x="1142.461688489893" y="1537.7960386620005" width="84.76454414429688" height="21.23576429"/></g><text fill="black" stroke="none" font-family="sans-serif" font-size="11pt" font-style="normal" font-weight="normal" text-decoration="normal" x="1144.911968984893" y="1552.4977216320005" text-anchor="start" dominant-baseline="alphabetic" xml:space="preserve">Combo data</text></g><g><path fill="none" stroke="black" paint-order="fill stroke markers" d=" M 1290.5397360842746 1559.0318029520004 L 1092.5975024234754 1559.0318029520004" stroke-miterlimit="10" stroke-width="1.3612669416666667" stroke-dasharray="6.53408132"/><g transform="translate(1079.1481850398086,1559.0318029520004) translate(-1079.1481850398086,-1559.0318029520004)"><path fill="black" stroke="none" paint-order="stroke fill markers" d=" M 1092.7608544564753 1552.2254682436671 L 1079.1481850398086 1559.0318029520004 L 1092.7608544564753 1565.8381376603336 Z"/></g></g><g><g><rect fill="white" stroke="none" x="859.1896754369322" y="1583.5346079020005" width="84.76454414429688" height="21.23576429"/></g><text fill="black" stroke="none" font-family="sans-serif" font-size="11pt" font-style="normal" font-weight="normal" text-decoration="normal" x="861.6399559319323" y="1598.2362908720006" text-anchor="start" dominant-baseline="alphabetic" xml:space="preserve">Combo data</text></g><g><path fill="none" stroke="black" paint-order="fill stroke markers" d=" M 1062.8129817398085 1604.7703721920004 L 753.7802306620196 1604.7703721920004" stroke-miterlimit="10" stroke-width="1.3612669416666667" stroke-dasharray="6.53408132"/><g transform="translate(740.3309132783529,1604.7703721920004) translate(-740.3309132783529,-1604.7703721920004)"><path fill="black" stroke="none" paint-order="stroke fill markers" d=" M 753.9435826950196 1597.9640374836672 L 740.3309132783529 1604.7703721920004 L 753.9435826950196 1611.5767069003336 Z"/></g></g><g><g><rect fill="white" stroke="none" x="449.4780778190461" y="1629.2731771420003" width="54.61422981324219" height="21.23576429"/></g><g><rect fill="white" stroke="none" x="449.4780778190461" y="1645.6083804420005" width="190.71296943726563" height="21.23576429"/></g><text fill="green" stroke="none" font-family="sans-serif" font-size="11pt" font-style="normal" font-weight="normal" text-decoration="normal" x="451.92835831404614" y="1643.9748601120004" text-anchor="start" dominant-baseline="alphabetic" xml:space="preserve">200 OK</text><text fill="green" stroke="none" font-family="sans-serif" font-size="11pt" font-style="normal" font-weight="normal" text-decoration="normal" x="451.92835831404614" y="1660.3100634120005" text-anchor="start" dominant-baseline="alphabetic" xml:space="preserve">Response body:Combo data</text></g><g><path fill="none" stroke="black" paint-order="fill stroke markers" d=" M 723.9957099783528 1666.8441447320004 L 379.12273248067186 1666.8441447320004" stroke-miterlimit="10" stroke-width="1.3612669416666667" stroke-dasharray="6.53408132"/><g transform="translate(365.6734150970052,1666.8441447320004) translate(-365.6734150970052,-1666.8441447320004)"><path fill="black" stroke="none" paint-order="stroke fill markers" d=" M 379.2860845136719 1660.0378100236671 L 365.6734150970052 1666.8441447320004 L 379.2860845136719 1673.6504794403336 Z"/></g></g><g><g><rect fill="white" stroke="none" x="117.73481172459636" y="1691.3469496820005" width="203.7122064978125" height="21.23576429"/></g><text fill="black" stroke="none" font-family="sans-serif" font-size="11pt" font-style="normal" font-weight="normal" text-decoration="normal" x="120.18509221959636" y="1706.0486326520006" text-anchor="start" dominant-baseline="alphabetic" xml:space="preserve">Display Curriculum detail page</text></g><g><path fill="none" stroke="black" paint-order="fill stroke markers" d=" M 349.3382117970052 1712.5827139720004 L 103.29293553366666 1712.5827139720004" stroke-miterlimit="10" stroke-width="1.3612669416666667" stroke-dasharray="6.53408132"/><g transform="translate(89.84361815,1712.5827139720004) translate(-89.84361815,-1712.5827139720004)"><path fill="black" stroke="none" paint-order="stroke fill markers" d=" M 103.45628756666666 1705.7763792636672 L 89.84361815 1712.5827139720004 L 103.45628756666666 1719.3890486803336 Z"/></g></g><g><g/><path fill="none" stroke="black" paint-order="fill stroke markers" d=" M 16.335203300000003 583.820165942 L 1372.2157525842747 583.820165942 L 1372.2157525842747 1761.5883238720003 L 16.335203300000003 1761.5883238720003 L 16.335203300000003 583.820165942 Z" stroke-miterlimit="10" stroke-width="2.3336004714285714" stroke-dasharray=""/><path fill="white" stroke="black" paint-order="fill stroke markers" d=" M 16.335203300000003 583.820165942 L 16.335203300000003 603.422409902 L 62.694406897070316 603.422409902 L 72.49552887707031 593.621287922 L 72.49552887707031 583.820165942 L 16.335203300000003 583.820165942" stroke-miterlimit="10" stroke-width="2.3336004714285714" stroke-dasharray=""/><text fill="black" stroke="none" font-family="sans-serif" font-size="8.8pt" font-style="normal" font-weight="bold" text-decoration="normal" x="32.67040660000001" y="596.888328582" text-anchor="start" dominant-baseline="alphabetic" xml:space="preserve">alt</text><g><rect fill="white" stroke="none" x="86.38045168207032" y="585.126982206" width="219.9464594275" height="16.988611432000003"/></g><text fill="black" stroke="none" font-family="sans-serif" font-size="8.8pt" font-style="normal" font-weight="bold" text-decoration="normal" x="88.83073217707032" y="596.888328582" text-anchor="start" dominant-baseline="alphabetic" xml:space="preserve">[If there is no Combo match condition]</text><g><path fill="none" stroke="black" paint-order="fill stroke markers" d=" M 16.335203300000003 673.6637840919999 L 1372.2157525842747 673.6637840919999" stroke-miterlimit="10" stroke-width="2.3336004714285714" stroke-dasharray="4.083800825"/></g><g/><g><rect fill="white" stroke="none" x="86.38045168207032" y="674.9706003559999" width="36.84300483765625" height="16.988611432000003"/></g><text fill="black" stroke="none" font-family="sans-serif" font-size="8.8pt" font-style="normal" font-weight="bold" text-decoration="normal" x="88.83073217707032" y="686.7319467319999" text-anchor="start" dominant-baseline="alphabetic" xml:space="preserve">[Else]</text></g><g/><g><g/><path fill="none" stroke="black" paint-order="fill stroke markers" d=" M 32.6704066 1266.631663882 L 1355.8805492842746 1266.631663882 L 1355.8805492842746 1737.0855189220003 L 32.6704066 1737.0855189220003 L 32.6704066 1266.631663882 Z" stroke-miterlimit="10" stroke-width="2.3336004714285714" stroke-dasharray=""/><path fill="white" stroke="black" paint-order="fill stroke markers" d=" M 32.6704066 1266.631663882 L 32.6704066 1286.233907842 L 79.02961019707031 1286.233907842 L 88.83073217707032 1276.4327858620002 L 88.83073217707032 1266.631663882 L 32.6704066 1266.631663882" stroke-miterlimit="10" stroke-width="2.3336004714285714" stroke-dasharray=""/><text fill="black" stroke="none" font-family="sans-serif" font-size="8.8pt" font-style="normal" font-weight="bold" text-decoration="normal" x="49.005609899999996" y="1279.699826522" text-anchor="start" dominant-baseline="alphabetic" xml:space="preserve">alt</text><g><rect fill="white" stroke="none" x="102.71565498207032" y="1267.938480146" width="123.51199592652344" height="16.988611432000003"/></g><text fill="black" stroke="none" font-family="sans-serif" font-size="8.8pt" font-style="normal" font-weight="bold" text-decoration="normal" x="105.16593547707032" y="1279.699826522" text-anchor="start" dominant-baseline="alphabetic" xml:space="preserve">[If Curriculum empty]</text><g><path fill="none" stroke="black" paint-order="fill stroke markers" d=" M 32.6704066 1402.2138512720003 L 1355.8805492842746 1402.2138512720003" stroke-miterlimit="10" stroke-width="2.3336004714285714" stroke-dasharray="4.083800825"/></g><g/></g><g/></g></g></svg>