<svg version="1.1" xmlns="http://www.w3.org/2000/svg" xmlns:xlink="http://www.w3.org/1999/xlink" width="1189" height="1724"><desc>title%20Add%20Syllabus%20into%20Combo%0A%0A%0Aactor%20%23green%3A0.5%20%22Workspace%20Admin%22%20as%20w%0Aboundary%20%22FUniverse%20Admin%20Client%22%20as%20f%0Acontrol%20%22Search%20Controller%22%20as%20ss%0Acontrol%20%22Combo%20Controller%22%20as%20gc%0Aparticipant%20%22Combo%20Service%22%20as%20gs%0Adatabase%20%23blue%3A1%20%22Database%22%20as%20db%0Aw-%3Ef%3AGo%20to%20Combo%20detail%20page%0Aactivate%20f%0Aw%3C--f%3A%20Display%20Combo%20detail%20page%0Aw-%3Ef%3AClick%20Add%20Syllabus%20button%0Aref%20over%20f%3AHere%20we%20have%5Cnexternal%20process%0Aw%3C--f%3AAdd%20Syllabus%20into%20Combo%20popup%0Aw-%3Ef%3ASearch%20Syllabus%0Af-%3Ess%3AGET%5Cn%2Fapi%2Fsearch%3Fentity%3Dsyllabus%5Cn%26%7BparamToSearch%7D%0Aactivate%20ss%0Af%3C--ss%3ASyllabus%20list%0Adeactivate%20ss%0Aalt%20If%20there%20is%20no%20syllabus%20match%20condition%0Aw%3C--f%3ANo%20Options%0Aelse%20Else%0Aw-%3Ef%3ASelect%20Syllabus%20and%20click%20Save%0Af-%3Egc%3APUT%3A%2Fapi%2Fcombo%0Aactivate%20gc%0Agc-%3Egs%3Aget(id)%0Aactivate%20gs%0Ags-%3Edb%3A%20get(id)%0Aactivate%20db%0Ags%3C--db%3ACombo%0Adeactivate%20db%0Agc%3C--gs%3A%20Combo%0Adeactivate%20gs%0Agc-%3Egc%3A%20Check%20combo%20%5CnisEmpty()%0Aactivate%20gc%0Agc%3C--gc%3A%20Boolean%20value%0Adeactivate%20gc%0Aalt%20If%20Combo%20empty%0A%0Af%3C--gc%3A%3Ccolor%3A%23red%3E404%20NOT%20FOUND%3C%2Fcolor%3E%0A%0Aw%3C--f%3A%20Display%20404%20Not%20Found%20screen%0Aelse%0Agc-%3Egs%3Aupdate()%0Aactivate%20gs%0Ags-%3Edb%3Aupdate()%0Aactivate%20db%0Ags%3C--db%3A%20New%20Combo%20data%0Adeactivate%20db%0Agc%3C--gs%3A%20New%20Combo%20data%0Adeactivate%20gs%0Af%3C--gc%3A%3Ccolor%3A%23green%3E200%20OK%5CnResponse%20body%3A%20New%20Combo%20data%3C%2Fcolor%3E%0Adeactivate%20gc%0Aw%3C--f%3A%20Display%20Combo%20detail%20page%0Adeactivate%20f%0Aend%20%0Aend</desc><defs/><g><g/><g/><g/><g/><g/><g/><g/><g/><g/><g/><g/><g/><g/><g/><g/><g/><g/><g/><g/><g/><g/><g/><g/><g/><g/><g/><g/><g/><g/><g/><g/><g/><g/><g/><g/><g/><g><rect fill="white" stroke="none" x="0" y="0" width="1189" height="1724"/></g><g><text fill="black" stroke="none" font-family="sans-serif" font-size="16.5pt" font-style="normal" font-weight="normal" text-decoration="normal" x="471.2868513401854" y="24.50280495" text-anchor="start" dominant-baseline="alphabetic" xml:space="preserve">Add Syllabus into Combo</text></g><g/><g><path fill="none" stroke="black" paint-order="fill stroke markers" d=" M 89.84361815 129.701514202 L 89.84361815 1724.0173562819998" stroke-miterlimit="10" stroke-width="1.3612669416666667" stroke-dasharray="12.565541,5.445067766666667"/><path fill="none" stroke="black" paint-order="fill stroke markers" d=" M 351.0205076608724 129.701514202 L 351.0205076608724 1724.0173562819998" stroke-miterlimit="10" stroke-width="1.3612669416666667" stroke-dasharray="12.565541,5.445067766666667"/><path fill="none" stroke="black" paint-order="fill stroke markers" d=" M 587.3442163510416 129.701514202 L 587.3442163510416 1724.0173562819998" stroke-miterlimit="10" stroke-width="1.3612669416666667" stroke-dasharray="12.565541,5.445067766666667"/><path fill="none" stroke="black" paint-order="fill stroke markers" d=" M 737.1024748363607 129.701514202 L 737.1024748363607 1724.0173562819998" stroke-miterlimit="10" stroke-width="1.3612669416666667" stroke-dasharray="12.565541,5.445067766666667"/><path fill="none" stroke="black" paint-order="fill stroke markers" d=" M 918.4299515583658 129.701514202 L 918.4299515583658 1724.0173562819998" stroke-miterlimit="10" stroke-width="1.3612669416666667" stroke-dasharray="12.565541,5.445067766666667"/><path fill="none" stroke="black" paint-order="fill stroke markers" d=" M 1091.589826630371 129.701514202 L 1091.589826630371 1724.0173562819998" stroke-miterlimit="10" stroke-width="1.3612669416666667" stroke-dasharray="12.565541,5.445067766666667"/></g><g><g><path fill="white" stroke="green" paint-order="fill stroke markers" d=" M 99.154684031 60.60360424300001 A 9.311065881 9.311065881 0 1 1 99.15467937546744 60.594293178670846 M 89.84361815 69.91467012400001 L 89.84361815 89.84361815000001 M 78.08227177399999 77.102159576 L 101.604964526 77.102159576 M 89.84361815 89.84361815000001 L 78.08227177399999 108.465749912 M 89.84361815 89.84361815000001 L 101.604964526 108.465749912" stroke-miterlimit="10" stroke-width="1.3884922805000002" stroke-dasharray=""/></g><g><text fill="black" stroke="none" font-family="sans-serif" font-size="11pt" font-style="normal" font-weight="normal" text-decoration="normal" x="30.50219511533203" y="124.80095321200001" text-anchor="start" dominant-baseline="alphabetic" xml:space="preserve">Workspace Admin</text></g><g><path fill="white" stroke="black" paint-order="fill stroke markers" d=" M 383.4458862113724 82.819480731 A 24.2577769005 24.2577769005 0 1 1 383.445874082485 82.79522295814245 M 319.9836213908724 57.17321154999999 L 319.9836213908724 108.465749912 M 318.5951291103724 82.819480731 L 334.9303324103724 82.819480731" stroke-miterlimit="10" stroke-width="2.7769845610000004" stroke-dasharray=""/></g><g><text fill="black" stroke="none" font-family="sans-serif" font-size="11pt" font-style="normal" font-weight="normal" text-decoration="normal" x="274.03055557347005" y="124.80095321200001" text-anchor="start" dominant-baseline="alphabetic" xml:space="preserve">FUniverse Admin Client</text></g><g><path fill="white" stroke="black" paint-order="fill stroke markers" d=" M 611.6019932515416 82.819480731 A 24.2577769005 24.2577769005 0 1 1 611.6019811226541 82.79522295814245 M 584.0771756910416 58.561703830499994 L 593.8782976710415 50.39410218049999 M 584.0771756910416 58.561703830499994 L 593.8782976710415 66.72930548049999" stroke-miterlimit="10" stroke-width="2.7769845610000004" stroke-dasharray=""/></g><g><text fill="black" stroke="none" font-family="sans-serif" font-size="11pt" font-style="normal" font-weight="normal" text-decoration="normal" x="530.3077402157877" y="124.80095321200001" text-anchor="start" dominant-baseline="alphabetic" xml:space="preserve">Search Controller</text></g><g><path fill="white" stroke="black" paint-order="fill stroke markers" d=" M 761.3602517368606 82.819480731 A 24.2577769005 24.2577769005 0 1 1 761.3602396079732 82.79522295814245 M 733.8354341763606 58.561703830499994 L 743.6365561563606 50.39410218049999 M 733.8354341763606 58.561703830499994 L 743.6365561563606 66.72930548049999" stroke-miterlimit="10" stroke-width="2.7769845610000004" stroke-dasharray=""/></g><g><text fill="black" stroke="none" font-family="sans-serif" font-size="11pt" font-style="normal" font-weight="normal" text-decoration="normal" x="679.6615492382161" y="124.80095321200001" text-anchor="start" dominant-baseline="alphabetic" xml:space="preserve">Combo Controller</text></g><path fill="none" stroke="none"/><g><path fill="white" stroke="black" paint-order="fill stroke markers" d=" M 850.5989027674166 85.75981732500001 L 986.261000349315 85.75981732500001 L 986.261000349315 129.701514202 L 850.5989027674166 129.701514202 L 850.5989027674166 85.75981732500001 Z" stroke-miterlimit="10" stroke-width="2.613632528" stroke-dasharray=""/></g><g><text fill="black" stroke="none" font-family="sans-serif" font-size="11pt" font-style="normal" font-weight="normal" text-decoration="normal" x="868.3225983479166" y="113.36631090200002" text-anchor="start" dominant-baseline="alphabetic" xml:space="preserve">Combo Service</text></g><g><path fill="white" stroke="blue" paint-order="fill stroke markers" d=" M 1067.7404298123708 97.684515734 L 1067.7404298123708 63.380588804000006 L 1115.439223448371 63.380588804000006 L 1115.439223448371 97.684515734" stroke-miterlimit="10" stroke-width="2.7769845610000004" stroke-dasharray=""/><path fill="white" stroke="blue" paint-order="fill stroke markers" d=" M 1115.439223448371 62.1881189631 L 1115.4380309884673 62.29592950801663 L 1115.4344537280012 62.403729271968594 L 1115.4284920246957 62.51150747506936 L 1115.4201464747166 62.619253339588404 L 1115.4094179126114 62.72695609102909 L 1115.3963074112276 62.834604959206004 L 1115.3808162816042 62.94218917932205 L 1115.3629460728416 63.04969799304486 L 1115.3426985719457 63.15712064958265 L 1115.3200758036494 63.2644464067593 L 1115.295080030211 63.371664532088516 L 1115.267713751187 63.47876430384712 L 1115.2379797031824 63.58573501214718 L 1115.2058808595773 63.692565960007016 L 1115.171420430229 63.79924646442086 L 1115.1346018611523 63.90576585742718 L 1115.0954288341732 64.01211348717543 L 1115.0539052665613 64.11827871899126 L 1115.0100353106393 64.22425093643996 L 1114.963823353366 64.3300195423881 L 1114.9152740158986 64.43557396006322 L 1114.8643921531307 64.54090363411153 L 1114.8111828532055 64.64599803165338 L 1114.7556514370094 64.75084664333659 L 1114.6978034576375 64.85543898438739 L 1114.6376446998393 64.95976459565881 L 1114.5751811794405 65.06381304467668 L 1114.5104191427415 65.16757392668278 L 1114.4433650658914 65.27103686567541 L 1114.3740256542424 65.37419151544687 L 1114.302407841678 65.47702756061814 L 1114.2285187899192 65.5795347176704 L 1114.15236588781 65.68170273597339 L 1114.0739567505773 65.7835213988104 L 1113.9932992190693 65.88498052439998 L 1113.9104013589717 65.98606996691414 L 1113.8252714600019 66.08677961749288 L 1113.7379180350786 66.18709940525505 L 1113.6483498194714 66.28701929830548 L 1113.5565757699271 66.38652930473813 L 1113.4626050637748 66.48561947363528 L 1113.3664470980063 66.58427989606261 L 1113.268111488338 66.6825007060601 L 1113.1676080682494 66.7802720816286 L 1113.064946887998 66.87758424571203 L 1112.960138213617 66.97442746717506 L 1112.8531925258862 67.07079206177627 L 1112.7441205192854 67.1666683931365 L 1112.632933100924 67.2620468737025 L 1112.5196413894514 67.35691796570569 L 1112.4042567139445 67.45127218211596 L 1112.2867906127744 67.54510008759026 L 1112.1672548324536 67.63839229941624 L 1112.0456613264603 67.73113948845047 L 1111.922022254044 67.82333238005134 L 1111.7963499790085 67.9149617550065 L 1111.668657068477 68.00601845045483 L 1111.5389562916341 68.09649336080267 L 1111.407260618449 68.18637743863435 L 1111.2735832183798 68.27566169561702 L 1111.137937459055 68.36433720339936 L 1111.000336904937 68.45239509450451 L 1110.8607953159672 68.53982656321674 L 1110.719326646188 68.62662286646201 L 1110.5759450423482 68.71277532468237 L 1110.4306648424888 68.79827532270376 L 1110.2835005745092 68.88311431059763 L 1110.134466954713 68.9672838045359 L 1109.9835788863381 69.0507753876393 L 1109.8308514580658 69.13358071081912 L 1109.6762999425114 69.21569149361203 L 1109.5199397946978 69.29709952500816 L 1109.3617866505097 69.37779666427225 L 1109.2018563251295 69.45777484175761 L 1109.0401648114562 69.53702605971311 L 1108.8767282785068 69.61554239308303 L 1108.7115630697983 69.69331599029945 L 1108.5446857017141 69.77033907406746 L 1108.3761128618517 69.84660394214286 L 1108.2058614073544 69.92210296810242 L 1108.0339483632263 69.99682860210643 L 1107.8603909206283 70.07077337165379 L 1107.68520643516 70.14392988232913 L 1107.5084124251239 70.21629081854239 L 1107.3300265697737 70.28784894426022 L 1107.1500667075466 70.35859710372968 L 1106.9685508342784 70.42852822219379 L 1106.7854971014056 70.49763530659898 L 1106.6009238141485 70.5659114462944 L 1106.4148494296824 70.63334981372294 L 1106.2272925552904 70.69994366510412 L 1106.0382719465038 70.76568634110825 L 1105.847806505226 70.83057126752253 L 1105.655915277842 70.89459195590838 L 1105.4626174533153 70.95774200425032 L 1105.2679323612667 71.02001509759614 L 1105.0718794700435 71.08140500868842 L 1104.8744783847715 71.14190559858717 L 1104.6757488453943 71.20151081728383 L 1104.4757107247005 71.26021470430622 L 1104.2743840263356 71.31801138931453 L 1104.0717888828015 71.37489509268845 L 1103.8679455534439 71.43086012610503 L 1103.6628744224254 71.48590089310757 L 1103.4565959966887 71.54001188966522 L 1103.2491309039044 71.59318770472345 L 1103.0404998904087 71.64542302074504 L 1102.8307238191292 71.69671261424193 L 1102.6198236674982 71.7470513562975 L 1102.4078205253552 71.79643421307951 L 1102.1947355928376 71.84485624634341 L 1101.980590178261 71.89231261392625 L 1101.7654056959889 71.93879857023082 L 1101.5492036642897 71.9843094667002 L 1101.3320057031865 72.02884075228269 L 1101.1138335322944 72.07238797388683 L 1100.894708968649 72.11494677682676 L 1100.6746539245237 72.15651290525764 L 1100.4536904052395 72.19708220260128 L 1100.2318405069645 72.23665061196175 L 1100.0091264145035 72.27521417653107 L 1099.7855703990801 72.31276903998494 L 1099.5611948161095 72.3493114468683 L 1099.3360221029632 72.38483774297092 L 1099.1100747767248 72.41934437569277 L 1098.8833754319387 72.45282789439938 L 1098.6559467383502 72.48528495076673 L 1098.4278114386395 72.51671229911628 L 1098.198992346146 72.54710679673934 L 1097.9695123425888 72.5764654042115 L 1097.7393943757768 72.60478518569649 L 1097.5086614573147 72.63206330923974 L 1097.2773366603024 72.65829704705163 L 1097.0454431170265 72.68348377578025 L 1096.8130040166484 72.70762097677371 L 1096.5800426028843 72.73070623633201 L 1096.3465821716813 72.75273724594847 L 1096.1126460688884 72.77371180254045 L 1095.8782576879205 72.79362780866978 L 1095.6434404674205 72.81248327275246 L 1095.4082178889148 72.83027630925778 L 1095.1726134744652 72.84700513889692 L 1094.936650784317 72.86266808880085 L 1094.7003534145422 72.87726359268764 L 1094.463744994681 72.89079019101906 L 1094.2268491853786 72.90324653114655 L 1093.989689676018 72.91463136744649 L 1093.752290182353 72.9249435614447 L 1093.5146744441345 72.93418208193043 L 1093.2768662227388 72.94234600505929 L 1093.0388892987899 72.94943451444577 L 1092.8007674697815 72.95544690124485 L 1092.562524547698 72.96038256422287 L 1092.3241843566339 72.96424100981763 L 1092.0857707304087 72.9670218521878 L 1091.8473075101872 72.96872481325143 L 1091.608818542092 72.96934972271386 L 1091.3703276748215 72.96889651808466 L 1091.1318587572637 72.96736524468392 L 1090.8934356361115 72.96475605563768 L 1090.6550821534784 72.96106921186271 L 1090.416822144514 72.95630508204027 L 1090.1786794350207 72.9504641425794 L 1089.940677839071 72.94354697756918 L 1089.7028411566262 72.93555427872033 L 1089.4651931711562 72.9264868452961 L 1089.2277576472618 72.91634558403224 L 1088.990558328297 72.90513150904647 L 1088.7536189339967 72.89284574173689 L 1088.5169631581023 72.87948951067006 L 1088.2806146659946 72.86506415145789 L 1088.0445970923256 72.84957110662431 L 1087.808934038656 72.8330119254609 L 1087.573649071095 72.81538826387197 L 1087.3387657179428 72.79670188420899 L 1087.1043074673396 72.77695465509434 L 1086.8702977649145 72.7561485512345 L 1086.6367600114434 72.73428565322251 L 1086.4037175605063 72.71136814732996 L 1086.1711937161547 72.68739832528833 L 1085.9392117305788 72.66237858405984 L 1085.707794801784 72.63631142559778 L 1085.4769660712707 72.60919945659627 L 1085.246748621719 72.58104538822961 L 1085.0171654746825 72.55185203588118 L 1084.7882395882843 72.5216223188619 L 1084.5599938549224 72.49035926011825 L 1084.3324510989796 72.45806598593009 L 1084.1056340745424 72.4247457255979 L 1083.8795654631238 72.39040181111994 L 1083.6542678713968 72.35503767685907 L 1083.429763828933 72.31865685919922 L 1083.206075785949 72.28126299619186 L 1082.983226111063 72.24285982719209 L 1082.761237089057 72.20345119248485 L 1082.5401309186477 72.16304103290075 L 1082.3199297102685 72.12163338942209 L 1082.1006554838561 72.07923240277869 L 1081.882330166651 72.03584231303388 L 1081.6649755910028 71.99146745916049 L 1081.4486134921876 71.94611227860693 L 1081.2332655062353 71.89978130685344 L 1081.018953167765 71.85247917695861 L 1080.805697907832 71.80421061909601 L 1080.5935210517844 71.75498046008119 L 1080.3824438171312 71.70479362288901 L 1080.17248731142 71.65365512616141 L 1079.963672530126 71.60157008370541 L 1079.7560203545536 71.54854370398188 L 1079.5495515497473 71.49458128958457 L 1079.3442867624158 71.43968823671 L 1079.1402465188662 71.38387003461766 L 1078.9374512229533 71.32713226508127 L 1078.7359211540377 71.26948060183051 L 1078.5356764649578 71.21092080998365 L 1078.3367371800164 71.15145874547107 L 1078.1391231929756 71.0911003544497 L 1077.9428542650696 71.0298516727083 L 1077.747950023028 70.96771882506403 L 1077.5544299571118 70.90470802474988 L 1077.362313419167 70.84082557279336 L 1077.1716196206874 70.77607785738643 L 1076.9823676308933 70.71047135324669 L 1076.7945763748264 70.64401262096986 L 1076.6082646314558 70.5767083063738 L 1076.4234510318004 70.50856513983389 L 1076.2401540570663 70.43958993560999 L 1076.058392036798 70.36978959116503 L 1075.8781831470465 70.29917108647531 L 1075.6995454085502 70.22774148333244 L 1075.5224966849344 70.1555079246372 L 1075.3470546809235 70.08247763368529 L 1075.173236940572 70.00865791344492 L 1075.001060845509 69.9340561458266 L 1074.830543613201 69.85867979094495 L 1074.6617022952282 69.78253638637263 L 1074.4945537755823 69.70563354638664 L 1074.3291147689758 69.62797896120689 L 1074.1654018191718 69.54958039622719 L 1074.0034312973285 69.47044569123871 L 1073.843219400363 69.39058275964601 L 1073.684782149332 69.30999958767568 L 1073.5281353878283 69.22870423357777 L 1073.3732947803974 69.14670482681996 L 1073.220275810971 69.06400956727457 L 1073.0690937813188 68.98062672439866 L 1072.9197638095175 68.89656463640702 L 1072.77230082844 68.8118317094384 L 1072.6267195842615 68.72643641671489 L 1072.483034634985 68.6403872976946 L 1072.3412603489858 68.55369295721772 L 1072.2014109035742 68.46636206464606 L 1072.0635002835786 68.37840335299609 L 1071.9275422799456 68.28982561806569 L 1071.7935504883626 68.20063771755453 L 1071.6615383078968 68.11084857017835 L 1071.5315189396565 68.02046715477704 L 1071.40350538547 67.92950250941684 L 1071.2775104465861 67.83796373048648 L 1071.1535467223937 67.74585997178757 L 1071.031626609162 67.65320044361923 L 1070.9117622988006 67.55999441185705 L 1070.7939657776406 67.46625119702654 L 1070.678248825236 67.37198017337107 L 1070.564623013186 67.27719076791445 L 1070.4530997039765 67.18189245951821 L 1070.343690049846 67.08609477793381 L 1070.2364049916682 66.98980730284956 L 1070.13125525786 66.89303966293272 L 1070.028251363307 66.79580153486665 L 1069.9274036083127 66.69810264238313 L 1069.8287220775685 66.59995275528999 L 1069.7322166391457 66.50136168849414 L 1069.637896943507 66.40233930102012 L 1069.5457724225441 66.30289549502413 L 1069.4558522886318 66.20304021480393 L 1069.368145533709 66.1027834458043 L 1069.2826609283777 66.00213521361863 L 1069.1994070210274 65.90110558298623 L 1069.1183921369795 65.799704656786 L 1069.0396243776547 65.69794257502603 L 1068.9631116197634 65.59582951382973 L 1068.8888615145177 65.4933756844181 L 1068.816881486866 65.3905913320887 L 1068.7471787347513 65.28748673519112 L 1068.6797602283907 65.18407220409914 L 1068.6146327095787 65.08035808017966 L 1068.5518026910129 64.97635473475869 L 1068.4912764556427 64.87207256808405 L 1068.4330600560413 64.76752200828555 L 1068.3771593138 64.66271351033203 L 1068.3235798189464 64.55765755498592 L 1068.2723269293858 64.45236464775525 L 1068.2234057703638 64.34684531784296 L 1068.1768212339562 64.24111011709415 L 1068.132577978577 64.13516961894075 L 1068.0906804285157 64.0290344173443 L 1068.0511327734919 63.92271512573653 L 1068.0139389682383 63.81622237595798 L 1067.9791027321044 63.70956681719489 L 1067.9466275486848 63.602759114914264 L 1067.9165166654707 63.49580994979732 L 1067.8887730935255 63.38873001667144 L 1067.863399607183 63.28153002344071 L 1067.8403987437712 63.17422069001512 L 1067.8197728033567 63.066812747238586 L 1067.8015238485166 62.959316935815885 L 1067.7856537041312 62.85174400523857 L 1067.7721639572017 62.74410471271006 L 1067.7610559566915 62.636409822069915 L 1067.7523308133914 62.52867010271744 L 1067.7459893998084 62.4208963285348 L 1067.7420323500787 62.313099276809595 L 1067.740460059904 62.20528972715717 L 1067.741272686512 62.09747846044265 L 1067.7444701486406 61.98967625770286 L 1067.7500521265463 61.88189389906824 L 1067.758018062036 61.77414216268484 L 1067.7683671585228 61.66643182363649 L 1067.7810983811055 61.558773652867366 L 1067.7962104566727 61.4511784161048 L 1067.8137018740292 61.34365687278283 L 1067.833570884048 61.236219774966166 L 1067.8558154998448 61.12887786627507 L 1067.8804334969761 61.02164188081096 L 1067.9074224136632 60.91452254208302 L 1067.9367795510366 60.807530561935856 L 1067.968501973407 60.70067663947832 L 1068.0025865085588 60.593971460013606 L 1068.039029748067 60.487425693970756 L 1068.0778280476377 60.381049995837586 L 1068.1189775274734 60.27485500309525 L 1068.1624740726604 60.16885133515453 L 1068.2083133335805 60.06304959229389 L 1068.2564907263456 59.95746035459945 L 1068.3070014332568 59.852094180906974 L 1068.3598404032855 59.746961607746044 L 1068.4150023525785 59.64207314828636 L 1068.4724817649872 59.537439291286454 L 1068.532272892618 59.43307050004484 L 1068.594369756408 59.32897721135367 L 1068.6587661467224 59.22516983445505 L 1068.7254556239761 59.12165875000019 L 1068.794431519277 59.01845430901127 L 1068.8656869350928 58.91556683184637 L 1068.9392147459414 58.81300660716748 L 1069.015007599103 58.7107838909116 L 1069.0930579153555 58.60890890526517 L 1069.1733578897322 58.507391837641855 L 1069.2558994923027 58.406242839663825 L 1069.3406744689755 58.30547202614659 L 1069.4276743423234 58.205089474087515 L 1069.5168904124318 58.105105221658164 L 1069.6083137577677 58.00552926720046 L 1069.7019352360733 57.90637156822687 L 1069.7977454852785 57.807642040424646 L 1069.895734924438 57.709350556664305 L 1069.9958937546899 57.61150694601232 L 1070.0982119602343 57.514120992748204 L 1070.2026793093362 57.417202435386145 L 1070.3092853553476 57.320760965701105 L 1070.418019437753 57.224806227759686 L 1070.5288706832343 57.12934781695572 L 1070.6418280067596 57.03439527905074 L 1070.7568801126906 56.93995810921942 L 1070.8740154959128 56.84604575110002 L 1070.9932224429854 56.75266759585011 L 1071.1144890333128 56.65983298120741 L 1071.237803140337 56.567551190555996 L 1071.3631524327507 56.47583145199805 L 1071.4905243757282 56.384682937430995 L 1071.619906232182 56.29411476163032 L 1071.7512850640342 56.20413598133814 L 1071.8846477335107 56.1147555943575 L 1072.0199809044561 56.02598253865261 L 1072.157271043666 55.937825691455075 L 1072.2965044222408 55.85029386837614 L 1072.4376671169587 55.763395822525176 L 1072.580745011668 55.677140243634355 L 1072.725723798698 55.591535757189675 L 1072.8725889802913 55.50659092356846 L 1073.021325870052 55.42231423718327 L 1073.171919594415 55.33871412563253 L 1073.3243550941331 55.25579894885771 L 1073.478617125784 55.1735769983074 L 1073.6346902632927 55.092056496108135 L 1073.7925588994756 55.01124559424221 L 1073.9522072476004 54.93115237373246 L 1074.1136193429656 54.851784843834196 L 1074.276779044496 54.77315094123426 L 1074.4416700363577 54.6952585292574 L 1074.6082758295886 54.61811539707989 L 1074.7765797637483 54.54172925895067 L 1074.9465650085835 54.46610775341989 L 1075.118214565712 54.391258442575094 L 1075.2915112703201 54.317188811284986 L 1075.4664377928827 54.24390626645098 L 1075.6429766408928 54.171418136266475 L 1075.821110160613 54.09973166948409 L 1076.0008205388394 54.028854034690774 L 1076.1820898046844 53.95879231959093 L 1076.3648998313722 53.88955353029769 L 1076.5492323380524 53.82114459063227 L 1076.735068891628 53.753572341431656 L 1076.9223909085986 53.68684353986444 L 1077.1111796569187 53.62096485875517 L 1077.3014162578704 53.55594288591707 L 1077.4930816879526 53.49178412349323 L 1077.6861567807816 53.42849498730643 L 1077.8806222290093 53.366081806217544 L 1078.0764585862528 53.304550821492676 L 1078.2736462690398 53.24390818617902 L 1078.472165558766 53.18415996448957 L 1078.6719966036678 53.12531213119671 L 1078.8731194208078 53.067370571034715 L 1079.0755138980714 53.01034107811134 L 1079.2791597961796 52.95422935532834 L 1079.4840367507124 52.89904101381123 L 1079.690124274145 52.84478157234818 L 1079.8974017578971 52.79145645683812 L 1080.1058484743926 52.73907099974815 L 1080.3154435791337 52.687630439580346 L 1080.5261661127847 52.637139920347835 L 1080.7379950032678 52.58760449106049 L 1080.9509090678703 52.53902910521993 L 1081.1648870153633 52.49141862032429 L 1081.3799074481306 52.444777797382365 L 1081.5959488643077 52.399111300437596 L 1081.8129896599335 52.354423696101605 L 1082.0310081311086 52.3107194530976 L 1082.2499824761683 52.26800294181345 L 1082.46989079786 52.2262784338647 L 1082.6907111055352 52.18555010166736 L 1082.9124213173468 52.14582201802072 L 1083.1349992624587 52.10709815570004 L 1083.3584226832618 52.06938238705927 L 1083.5826692376 52.032678483643856 L 1083.807716501005 51.996990115813546 L 1084.0335419689377 51.96232085237539 L 1084.2601230590396 51.928674160226834 L 1084.4874371133908 51.89605340400906 L 1084.715461400775 51.8644618457705 L 1084.9441731189534 51.833902644640645 L 1085.173549396945 51.80437885651416 L 1085.403567297313 51.775893433745246 L 1085.6342038184591 51.74844922485244 L 1085.8654358969236 51.722048974233765 L 1086.097240409691 51.69669532189228 L 1086.3295941765034 51.672390803172085 L 1086.5624739621776 51.649137848504814 L 1086.7958564789292 51.626938783166544 L 1087.0297183887008 51.60579582704531 L 1087.2640363054966 51.58571109441911 L 1087.4987867977202 51.56668659374447 L 1087.7339463905178 51.54872422745561 L 1087.9694915681262 51.53182579177417 L 1088.2053987762238 51.515992976529645 L 1088.4416444242866 51.50122736499037 L 1088.6782048879463 51.4875304337052 L 1088.9150565113541 51.47490355235584 L 1089.1521756095447 51.4633479836199 L 1089.3895384708062 51.45286488304463 L 1089.6271213590499 51.443455298931354 L 1089.8649005161853 51.43512017223063 L 1090.1028521644946 51.4278603364482 L 1090.3409525090115 51.42167651756158 L 1090.5791777398995 51.41656933394751 L 1090.8175040348344 51.41253929632009 L 1091.0559075613855 51.40958680767973 L 1091.2943644793984 51.407712163272826 L 1091.5328509433803 51.40691555056227 L 1091.7713431048833 51.40719704920866 L 1092.0098171148902 51.40855663106237 L 1092.2482491261985 51.41099416016634 L 1092.486615295806 51.414509392769695 L 1092.7248917872944 51.419101977352106 L 1092.9630547732127 51.42477145465894 L 1093.2010804374613 51.431517257747196 L 1093.4389449776718 51.43933871204218 L 1093.6766246075886 51.44823503540498 L 1093.9140955594464 51.45820533821068 L 1094.1513340863485 51.4692486234373 L 1094.3883164646395 51.48136378676553 L 1094.625018996279 51.49454961668913 L 1094.8614180112113 51.50880479463608 L 1095.0974898697318 51.524127895100484 L 1095.3332109648516 51.54051738578506 L 1095.5685577246572 51.5579716277544 L 1095.803506614669 51.57648887559884 L 1096.038034140194 51.59606727760904 L 1096.2721168486746 51.6167048759611 L 1096.5057313320353 51.6383996069124 L 1096.7388542290225 51.66114930100791 L 1096.9714622275405 51.684951683297186 L 1097.2035320669836 51.70980437356183 L 1097.4350405405612 51.735704886553535 L 1097.6659644976185 51.76265063224257 L 1097.8962808459528 51.79063891607683 L 1098.1259665541206 51.81966693925126 L 1098.354998653743 51.849731798987726 L 1098.5833542418006 51.88083048882531 L 1098.8110104829252 51.91295989892094 L 1099.037944611682 51.94611681636038 L 1099.2641339348475 51.980297925479526 L 1099.4895558336775 52.01549980819594 L 1099.7141877661707 52.0517189443507 L 1099.9380072693202 52.08895171206036 L 1100.1609919613627 52.127194388079175 L 1100.3831195440148 52.16644314817141 L 1100.6043678047033 52.20669406749378 L 1100.8247146187864 52.247943120987884 L 1101.0441379517663 52.29018618378274 L 1101.2626158614928 52.33341903160728 L 1101.4801265003566 52.37763734121275 L 1101.6966481174754 52.422836690805035 L 1101.912159060868 52.46901256048684 L 1102.1266377796192 52.516160332709674 L 1102.340062826036 52.564275292735616 L 1102.552412857792 52.613352629108746 L 1102.7636666400606 52.663387434136325 L 1102.9738030476399 52.71437470437956 L 1103.182801067064 52.7663093411539 L 1103.390639798705 52.819186151038956 L 1103.5972984588634 52.8729998463978 L 1103.802756381845 52.92774504590574 L 1104.006993022029 52.983416275088445 L 1104.2099879559214 53.040007966869396 L 1104.411720884198 53.09751446212657 L 1104.612171633734 53.15593001025836 L 1104.8113201596218 53.21524876975863 L 1105.0091465471744 53.27546480880087 L 1105.205631013918 53.33657210583136 L 1105.4007539115696 53.3985645501713 L 1105.5944957280024 53.461435942627936 L 1105.7868370891958 53.52517999611441 L 1105.9777587611743 53.58979033627848 L 1106.1672416519295 53.655260502139996 L 1106.3552668133304 53.721583946736914 L 1106.5418154430174 53.78875403778004 L 1106.7268688862832 53.85676405831625 L 1106.9104086379375 53.92560720740017 L 1107.0924163441582 53.995276600774254 L 1107.272873804326 54.065765271557225 L 1107.451762972846 54.13706617094075 L 1107.62906596095 54.2091721688943 L 1107.8047650384865 54.28207605487816 L 1107.978842635695 54.35577053856451 L 1108.1512813449601 54.43024825056637 L 1108.3220639225551 54.50550174317461 L 1108.4911732903645 54.581523491102686 L 1108.658592537592 54.658305892239156 L 1108.824304922453 54.73584126840789 L 1108.9882938738467 54.81412186613588 L 1109.1505429930146 54.89313985742859 L 1109.3110360551802 54.97288734055273 L 1109.469757011171 55.05335634082646 L 1109.6266899890236 55.1345388114168 L 1109.781819295571 55.21642663414435 L 1109.9351294180117 55.29901162029506 L 1110.0866050254615 55.38228551143916 L 1110.2362309704856 55.46623998025691 L 1110.3839922906145 55.55086663137139 L 1110.529874209839 55.63615700218803 L 1110.6738621400889 55.722102563740805 L 1110.8159416826911 55.80869472154519 L 1110.9560986298097 55.89592481645755 L 1111.094318965867 55.98378412554111 L 1111.2305888689443 56.07226386293816 L 1111.364894712165 56.1613551807487 L 1111.497223065057 56.251049169915184 L 1111.6275606948946 56.34133686111345 L 1111.755894568024 56.4322092256496 L 1111.8822118511646 56.52365717636293 L 1112.0064999126932 56.615671568534566 L 1112.1287463239078 56.70824320080196 L 1112.2489388602685 56.80136281607904 L 1112.367065502622 56.89502110248188 L 1112.4831144384027 56.98920869425987 L 1112.5970740628136 57.083916172732344 L 1112.7089329799871 57.17913406723036 L 1112.818680004125 57.27485285604382 L 1112.9263041606162 57.37106296737362 L 1113.0317946871346 57.467754780288786 L 1113.1351410347158 57.56491862568861 L 1113.2363328688107 57.662544787269525 L 1113.3353600703206 57.76062350249672 L 1113.4322127366077 57.859144963580405 L 1113.526881182486 57.95809931845658 L 1113.61935594119 58.05747667177222 L 1113.7096277653206 58.15726708587479 L 1113.797687627771 58.257460581806065 L 1113.8835267226282 58.358047140299924 L 1113.967136466054 58.459016702784346 L 1114.048508497144 58.56035917238722 L 1114.127634678763 58.66206441494605 L 1114.2045070983584 58.764122260021324 L 1114.2791180687525 58.866522501913586 L 1114.3514601289105 58.96925490068398 L 1114.4215260446867 59.072309183178234 L 1114.4893088095478 59.17567504405398 L 1114.5548016452738 59.279342146811274 L 1114.6179980026357 59.38330012482622 L 1114.6788915620502 59.48753858238766 L 1114.7374762342129 59.59204709573668 L 1114.7937461607044 59.69681521410906 L 1114.8476957145797 59.80183246078026 L 1114.8993195009277 59.907088334113126 L 1114.9486123574136 60.012572308608036 L 1114.995569354792 60.11827383595545 L 1115.040185797403 60.22418234609071 L 1115.082457223639 60.33028724825106 L 1115.1223794063928 60.43657793203471 L 1115.1599483534794 60.54304376846186 L 1115.1951603080356 60.64967411103757 L 1115.228011748895 60.75645829681646 L 1115.2584993909406 60.86338564746893 L 1115.2866201854345 60.97044547034902 L 1115.31237132032 61.07762705956367 L 1115.335750220505 61.184919697043256 L 1115.3567545481194 61.29231265361346 L 1115.3753822027475 61.399795190068104 L 1115.3916313216398 61.50735655824312 L 1115.4055002798978 61.614986002091314 L 1115.416987690637 61.72267275875801 L 1115.4260924051262 61.830406059657264 L 1115.4328135129012 61.93817513154877 L 1115.4371503418574 62.04596919761514 L 1115.439102458315 62.15377747853961 M 1115.439223448371 96.4920458931 L 1115.4380309884673 96.59985643801662 L 1115.4344537280012 96.70765620196859 L 1115.4284920246957 96.81543440506935 L 1115.4201464747166 96.9231802695884 L 1115.4094179126114 97.03088302102908 L 1115.3963074112276 97.138531889206 L 1115.3808162816042 97.24611610932205 L 1115.3629460728416 97.35362492304485 L 1115.3426985719457 97.46104757958265 L 1115.3200758036494 97.5683733367593 L 1115.295080030211 97.67559146208852 L 1115.267713751187 97.78269123384712 L 1115.2379797031824 97.88966194214719 L 1115.2058808595773 97.99649289000702 L 1115.171420430229 98.10317339442086 L 1115.1346018611523 98.20969278742717 L 1115.0954288341732 98.31604041717543 L 1115.0539052665613 98.42220564899125 L 1115.0100353106393 98.52817786643996 L 1114.963823353366 98.6339464723881 L 1114.9152740158986 98.73950089006323 L 1114.8643921531307 98.84483056411152 L 1114.8111828532055 98.94992496165337 L 1114.7556514370094 99.05477357333659 L 1114.6978034576375 99.15936591438738 L 1114.6376446998393 99.2636915256588 L 1114.5751811794405 99.36773997467667 L 1114.5104191427415 99.47150085668278 L 1114.4433650658914 99.5749637956754 L 1114.3740256542424 99.67811844544686 L 1114.302407841678 99.78095449061813 L 1114.2285187899192 99.8834616476704 L 1114.15236588781 99.98562966597338 L 1114.0739567505773 100.08744832881038 L 1113.9932992190693 100.18890745439998 L 1113.9104013589717 100.28999689691415 L 1113.8252714600019 100.39070654749288 L 1113.7379180350786 100.49102633525506 L 1113.6483498194714 100.59094622830548 L 1113.5565757699271 100.69045623473812 L 1113.4626050637748 100.78954640363527 L 1113.3664470980063 100.8882068260626 L 1113.268111488338 100.9864276360601 L 1113.1676080682494 101.0841990116286 L 1113.064946887998 101.18151117571202 L 1112.960138213617 101.27835439717506 L 1112.8531925258862 101.37471899177628 L 1112.7441205192854 101.4705953231365 L 1112.632933100924 101.56597380370249 L 1112.5196413894514 101.6608448957057 L 1112.4042567139445 101.75519911211595 L 1112.2867906127744 101.84902701759025 L 1112.1672548324536 101.94231922941623 L 1112.0456613264603 102.03506641845047 L 1111.922022254044 102.12725931005133 L 1111.7963499790085 102.2188886850065 L 1111.668657068477 102.30994538045483 L 1111.5389562916341 102.40042029080266 L 1111.407260618449 102.49030436863434 L 1111.2735832183798 102.579588625617 L 1111.137937459055 102.66826413339936 L 1111.000336904937 102.75632202450451 L 1110.8607953159672 102.84375349321674 L 1110.719326646188 102.93054979646202 L 1110.5759450423482 103.01670225468237 L 1110.4306648424888 103.10220225270375 L 1110.2835005745092 103.18704124059762 L 1110.134466954713 103.27121073453588 L 1109.9835788863381 103.3547023176393 L 1109.8308514580658 103.4375076408191 L 1109.6762999425114 103.51961842361202 L 1109.5199397946978 103.60102645500817 L 1109.3617866505097 103.68172359427226 L 1109.2018563251295 103.7617017717576 L 1109.0401648114562 103.84095298971312 L 1108.8767282785068 103.91946932308304 L 1108.7115630697983 103.99724292029944 L 1108.5446857017141 104.07426600406745 L 1108.3761128618517 104.15053087214287 L 1108.2058614073544 104.22602989810241 L 1108.0339483632263 104.30075553210642 L 1107.8603909206283 104.37470030165377 L 1107.68520643516 104.44785681232914 L 1107.5084124251239 104.52021774854238 L 1107.3300265697737 104.59177587426021 L 1107.1500667075466 104.66252403372968 L 1106.9685508342784 104.73245515219378 L 1106.7854971014056 104.80156223659897 L 1106.6009238141485 104.86983837629438 L 1106.4148494296824 104.93727674372295 L 1106.2272925552904 105.0038705951041 L 1106.0382719465038 105.06961327110824 L 1105.847806505226 105.13449819752252 L 1105.655915277842 105.19851888590837 L 1105.4626174533153 105.26166893425032 L 1105.2679323612667 105.32394202759615 L 1105.0718794700435 105.38533193868841 L 1104.8744783847715 105.44583252858716 L 1104.6757488453943 105.50543774728384 L 1104.4757107247005 105.56414163430621 L 1104.2743840263356 105.62193831931454 L 1104.0717888828015 105.67882202268845 L 1103.8679455534439 105.73478705610502 L 1103.6628744224254 105.78982782310756 L 1103.4565959966887 105.84393881966523 L 1103.2491309039044 105.89711463472344 L 1103.0404998904087 105.94934995074503 L 1102.8307238191292 106.00063954424192 L 1102.6198236674982 106.0509782862975 L 1102.4078205253552 106.1003611430795 L 1102.1947355928376 106.14878317634341 L 1101.980590178261 106.19623954392625 L 1101.7654056959889 106.2427255002308 L 1101.5492036642897 106.2882363967002 L 1101.3320057031865 106.33276768228268 L 1101.1138335322944 106.37631490388682 L 1100.894708968649 106.41887370682676 L 1100.6746539245237 106.46043983525765 L 1100.4536904052395 106.50100913260128 L 1100.2318405069645 106.54057754196174 L 1100.0091264145035 106.57914110653107 L 1099.7855703990801 106.61669596998493 L 1099.5611948161095 106.65323837686829 L 1099.3360221029632 106.6887646729709 L 1099.1100747767248 106.72327130569276 L 1098.8833754319387 106.75675482439937 L 1098.6559467383502 106.78921188076673 L 1098.4278114386395 106.82063922911627 L 1098.198992346146 106.85103372673933 L 1097.9695123425888 106.8803923342115 L 1097.7393943757768 106.90871211569649 L 1097.5086614573147 106.93599023923973 L 1097.2773366603024 106.96222397705162 L 1097.0454431170265 106.98741070578025 L 1096.8130040166484 107.0115479067737 L 1096.5800426028843 107.03463316633201 L 1096.3465821716813 107.05666417594847 L 1096.1126460688884 107.07763873254045 L 1095.8782576879205 107.09755473866979 L 1095.6434404674205 107.11641020275246 L 1095.4082178889148 107.13420323925777 L 1095.1726134744652 107.1509320688969 L 1094.936650784317 107.16659501880085 L 1094.7003534145422 107.18119052268763 L 1094.463744994681 107.19471712101905 L 1094.2268491853786 107.20717346114655 L 1093.989689676018 107.21855829744648 L 1093.752290182353 107.22887049144471 L 1093.5146744441345 107.23810901193042 L 1093.2768662227388 107.24627293505928 L 1093.0388892987899 107.25336144444577 L 1092.8007674697815 107.25937383124486 L 1092.562524547698 107.26430949422287 L 1092.3241843566339 107.26816793981763 L 1092.0857707304087 107.27094878218779 L 1091.8473075101872 107.27265174325143 L 1091.608818542092 107.27327665271386 L 1091.3703276748215 107.27282344808465 L 1091.1318587572637 107.27129217468391 L 1090.8934356361115 107.26868298563768 L 1090.6550821534784 107.2649961418627 L 1090.416822144514 107.26023201204026 L 1090.1786794350207 107.2543910725794 L 1089.940677839071 107.24747390756917 L 1089.7028411566262 107.23948120872033 L 1089.4651931711562 107.23041377529609 L 1089.2277576472618 107.22027251403225 L 1088.990558328297 107.20905843904646 L 1088.7536189339967 107.1967726717369 L 1088.5169631581023 107.18341644067004 L 1088.2806146659946 107.16899108145788 L 1088.0445970923256 107.15349803662431 L 1087.808934038656 107.1369388554609 L 1087.573649071095 107.11931519387196 L 1087.3387657179428 107.10062881420897 L 1087.1043074673396 107.08088158509435 L 1086.8702977649145 107.0600754812345 L 1086.6367600114434 107.03821258322252 L 1086.4037175605063 107.01529507732995 L 1086.1711937161547 106.99132525528832 L 1085.9392117305788 106.96630551405984 L 1085.707794801784 106.94023835559778 L 1085.4769660712707 106.91312638659626 L 1085.246748621719 106.88497231822961 L 1085.0171654746825 106.85577896588119 L 1084.7882395882843 106.8255492488619 L 1084.5599938549224 106.79428619011826 L 1084.3324510989796 106.76199291593008 L 1084.1056340745424 106.72867265559789 L 1083.8795654631238 106.69432874111995 L 1083.6542678713968 106.65896460685907 L 1083.429763828933 106.62258378919921 L 1083.206075785949 106.58518992619184 L 1082.983226111063 106.5467867571921 L 1082.761237089057 106.50737812248485 L 1082.5401309186477 106.46696796290075 L 1082.3199297102685 106.42556031942208 L 1082.1006554838561 106.38315933277867 L 1081.882330166651 106.33976924303387 L 1081.6649755910028 106.29539438916049 L 1081.4486134921876 106.25003920860692 L 1081.2332655062353 106.20370823685344 L 1081.018953167765 106.15640610695861 L 1080.805697907832 106.108137549096 L 1080.5935210517844 106.05890739008117 L 1080.3824438171312 106.00872055288902 L 1080.17248731142 105.9575820561614 L 1079.963672530126 105.90549701370541 L 1079.7560203545536 105.85247063398188 L 1079.5495515497473 105.79850821958458 L 1079.3442867624158 105.74361516670999 L 1079.1402465188662 105.68779696461766 L 1078.9374512229533 105.63105919508126 L 1078.7359211540377 105.5734075318305 L 1078.5356764649578 105.51484773998365 L 1078.3367371800164 105.45538567547108 L 1078.1391231929756 105.3950272844497 L 1077.9428542650696 105.33377860270829 L 1077.747950023028 105.27164575506403 L 1077.5544299571118 105.20863495474987 L 1077.362313419167 105.14475250279335 L 1077.1716196206874 105.08000478738643 L 1076.9823676308933 105.01439828324668 L 1076.7945763748264 104.94793955096986 L 1076.6082646314558 104.8806352363738 L 1076.4234510318004 104.8124920698339 L 1076.2401540570663 104.74351686560999 L 1076.058392036798 104.67371652116503 L 1075.8781831470465 104.6030980164753 L 1075.6995454085502 104.53166841333243 L 1075.5224966849344 104.4594348546372 L 1075.3470546809235 104.38640456368528 L 1075.173236940572 104.31258484344491 L 1075.001060845509 104.2379830758266 L 1074.830543613201 104.16260672094495 L 1074.6617022952282 104.08646331637262 L 1074.4945537755823 104.00956047638662 L 1074.3291147689758 103.93190589120688 L 1074.1654018191718 103.85350732622719 L 1074.0034312973285 103.77437262123871 L 1073.843219400363 103.694509689646 L 1073.684782149332 103.61392651767568 L 1073.5281353878283 103.53263116357778 L 1073.3732947803974 103.45063175681996 L 1073.220275810971 103.36793649727457 L 1073.0690937813188 103.28455365439865 L 1072.9197638095175 103.20049156640701 L 1072.77230082844 103.1157586394384 L 1072.6267195842615 103.03036334671489 L 1072.483034634985 102.94431422769459 L 1072.3412603489858 102.85761988721772 L 1072.2014109035742 102.77028899464605 L 1072.0635002835786 102.68233028299609 L 1071.9275422799456 102.5937525480657 L 1071.7935504883626 102.50456464755453 L 1071.6615383078968 102.41477550017834 L 1071.5315189396565 102.32439408477703 L 1071.40350538547 102.23342943941684 L 1071.2775104465861 102.14189066048647 L 1071.1535467223937 102.04978690178756 L 1071.031626609162 101.95712737361922 L 1070.9117622988006 101.86392134185704 L 1070.7939657776406 101.77017812702654 L 1070.678248825236 101.67590710337106 L 1070.564623013186 101.58111769791444 L 1070.4530997039765 101.48581938951821 L 1070.343690049846 101.39002170793381 L 1070.2364049916682 101.29373423284954 L 1070.13125525786 101.19696659293271 L 1070.028251363307 101.09972846486664 L 1069.9274036083127 101.00202957238312 L 1069.8287220775685 100.90387968528998 L 1069.7322166391457 100.80528861849413 L 1069.637896943507 100.70626623102011 L 1069.5457724225441 100.60682242502413 L 1069.4558522886318 100.50696714480392 L 1069.368145533709 100.40671037580431 L 1069.2826609283777 100.30606214361863 L 1069.1994070210274 100.20503251298624 L 1069.1183921369795 100.103631586786 L 1069.0396243776547 100.00186950502604 L 1068.9631116197634 99.89975644382972 L 1068.8888615145177 99.79730261441809 L 1068.816881486866 99.69451826208869 L 1068.7471787347513 99.59141366519111 L 1068.6797602283907 99.48799913409913 L 1068.6146327095787 99.38428501017967 L 1068.5518026910129 99.28028166475868 L 1068.4912764556427 99.17599949808405 L 1068.4330600560413 99.07144893828554 L 1068.3771593138 98.96664044033201 L 1068.3235798189464 98.86158448498593 L 1068.2723269293858 98.75629157775525 L 1068.2234057703638 98.65077224784297 L 1068.1768212339562 98.54503704709414 L 1068.132577978577 98.43909654894075 L 1068.0906804285157 98.33296134734431 L 1068.0511327734919 98.22664205573652 L 1068.0139389682383 98.12014930595798 L 1067.9791027321044 98.01349374719489 L 1067.9466275486848 97.90668604491427 L 1067.9165166654707 97.79973687979731 L 1067.8887730935255 97.69265694667143 L 1067.863399607183 97.58545695344071 L 1067.8403987437712 97.47814762001512 L 1067.8197728033567 97.37073967723859 L 1067.8015238485166 97.26324386581588 L 1067.7856537041312 97.15567093523856 L 1067.7721639572017 97.04803164271006 L 1067.7610559566915 96.94033675206991 L 1067.7523308133914 96.83259703271744 L 1067.7459893998084 96.7248232585348 L 1067.7420323500787 96.6170262068096 L 1067.740460059904 96.50921665715717" stroke-miterlimit="10" stroke-width="2.7769845610000004" stroke-dasharray=""/></g><g><text fill="black" stroke="none" font-family="sans-serif" font-size="11pt" font-style="normal" font-weight="normal" text-decoration="normal" x="1060.2118816840818" y="124.80095321200001" text-anchor="start" dominant-baseline="alphabetic" xml:space="preserve">Database</text></g></g><g><path fill="white" stroke="black" paint-order="fill stroke markers" d=" M 342.8529060108724 183.607685092 L 359.1881093108724 183.607685092 L 359.1881093108724 1617.838534832 L 342.8529060108724 1617.838534832 L 342.8529060108724 183.607685092" stroke-miterlimit="10" stroke-width="1.3612669416666667" stroke-dasharray=""/><path fill="white" stroke="black" paint-order="fill stroke markers" d=" M 579.1766147010416 542.982157692 L 595.5118180010417 542.982157692 L 595.5118180010417 588.7207269319999 L 579.1766147010416 588.7207269319999 L 579.1766147010416 542.982157692" stroke-miterlimit="10" stroke-width="1.3612669416666667" stroke-dasharray=""/><path fill="white" stroke="black" paint-order="fill stroke markers" d=" M 728.9348731863606 814.1465324719998 L 745.2700764863607 814.1465324719998 L 745.2700764863607 1572.099965592 L 728.9348731863606 1572.099965592 L 728.9348731863606 814.1465324719998" stroke-miterlimit="10" stroke-width="1.3612669416666667" stroke-dasharray=""/><path fill="white" stroke="black" paint-order="fill stroke markers" d=" M 910.2623499083658 859.8851017119997 L 926.5975532083659 859.8851017119997 L 926.5975532083659 997.1008094319996 L 910.2623499083658 997.1008094319996 L 910.2623499083658 859.8851017119997" stroke-miterlimit="10" stroke-width="1.3612669416666667" stroke-dasharray=""/><path fill="white" stroke="black" paint-order="fill stroke markers" d=" M 1083.4222249803709 905.6236709519997 L 1099.757428280371 905.6236709519997 L 1099.757428280371 951.3622401919996 L 1083.4222249803709 951.3622401919996 L 1083.4222249803709 905.6236709519997" stroke-miterlimit="10" stroke-width="1.3612669416666667" stroke-dasharray=""/><path fill="white" stroke="black" paint-order="fill stroke markers" d=" M 737.1024748363607 1080.4103462619996 L 753.4376781363608 1080.4103462619996 L 753.4376781363608 1126.1489155019997 L 737.1024748363607 1126.1489155019997 L 737.1024748363607 1080.4103462619996" stroke-miterlimit="10" stroke-width="1.3612669416666667" stroke-dasharray=""/><path fill="white" stroke="black" paint-order="fill stroke markers" d=" M 910.2623499083658 1372.8104853319999 L 926.5975532083659 1372.8104853319999 L 926.5975532083659 1510.026193052 L 910.2623499083658 1510.026193052 L 910.2623499083658 1372.8104853319999" stroke-miterlimit="10" stroke-width="1.3612669416666667" stroke-dasharray=""/><path fill="white" stroke="black" paint-order="fill stroke markers" d=" M 1083.4222249803709 1418.549054572 L 1099.757428280371 1418.549054572 L 1099.757428280371 1464.287623812 L 1083.4222249803709 1464.287623812 L 1083.4222249803709 1418.549054572" stroke-miterlimit="10" stroke-width="1.3612669416666667" stroke-dasharray=""/><g><g><rect fill="white" stroke="none" x="132.4019336118034" y="162.371920802" width="167.89265693726563" height="21.23576429"/></g><text fill="black" stroke="none" font-family="sans-serif" font-size="11pt" font-style="normal" font-weight="normal" text-decoration="normal" x="134.8522141068034" y="177.07360377199998" text-anchor="start" dominant-baseline="alphabetic" xml:space="preserve">Go to Combo detail page</text></g><g><path fill="none" stroke="black" paint-order="fill stroke markers" d=" M 89.84361815 183.607685092 L 329.40358862720575 183.607685092" stroke-miterlimit="10" stroke-width="1.3612669416666667" stroke-dasharray=""/><g transform="translate(342.8529060108724,183.607685092) translate(-342.8529060108724,-183.607685092)"><path fill="black" stroke="none" paint-order="stroke fill markers" d=" M 329.2402365942057 176.80135038366666 L 342.8529060108724 183.607685092 L 329.2402365942057 190.41401980033334 Z"/></g></g><g><g><rect fill="white" stroke="none" x="126.29600709813151" y="208.110490042" width="180.10450996460938" height="21.23576429"/></g><text fill="black" stroke="none" font-family="sans-serif" font-size="11pt" font-style="normal" font-weight="normal" text-decoration="normal" x="128.7462875931315" y="222.812173012" text-anchor="start" dominant-baseline="alphabetic" xml:space="preserve">Display Combo detail page</text></g><g><path fill="none" stroke="black" paint-order="fill stroke markers" d=" M 342.8529060108724 229.346254332 L 103.29293553366666 229.346254332" stroke-miterlimit="10" stroke-width="1.3612669416666667" stroke-dasharray="6.53408132"/><g transform="translate(89.84361815,229.346254332) translate(-89.84361815,-229.346254332)"><path fill="black" stroke="none" paint-order="stroke fill markers" d=" M 103.45628756666666 222.53991962366666 L 89.84361815 229.346254332 L 103.45628756666666 236.15258904033334 Z"/></g></g><g><g><rect fill="white" stroke="none" x="130.78062623875653" y="253.849059282" width="171.13527168335938" height="21.23576429"/></g><text fill="black" stroke="none" font-family="sans-serif" font-size="11pt" font-style="normal" font-weight="normal" text-decoration="normal" x="133.2309067337565" y="268.550742252" text-anchor="start" dominant-baseline="alphabetic" xml:space="preserve">Click Add Syllabus button</text></g><g><path fill="none" stroke="black" paint-order="fill stroke markers" d=" M 89.84361815 275.084823572 L 329.40358862720575 275.084823572" stroke-miterlimit="10" stroke-width="1.3612669416666667" stroke-dasharray=""/><g transform="translate(342.8529060108724,275.084823572) translate(-342.8529060108724,-275.084823572)"><path fill="black" stroke="none" paint-order="stroke fill markers" d=" M 329.2402365942057 268.27848886366667 L 342.8529060108724 275.084823572 L 329.2402365942057 281.89115828033334 Z"/></g></g><path fill="none" stroke="none"/><g><g/><path fill="white" stroke="black" paint-order="fill stroke markers" d=" M 274.37172780161455 299.587628522 L 427.6692875201302 299.587628522 L 427.6692875201302 373.096043372 L 274.37172780161455 373.096043372 L 274.37172780161455 299.587628522 Z" stroke-miterlimit="10" stroke-width="2.3336004714285714" stroke-dasharray=""/><path fill="white" stroke="black" paint-order="fill stroke markers" d=" M 274.37172780161455 299.587628522 L 274.37172780161455 319.189872482 L 322.0368090842317 319.189872482 L 331.8379310642317 309.388750502 L 331.8379310642317 299.587628522 L 274.37172780161455 299.587628522" stroke-miterlimit="10" stroke-width="2.3336004714285714" stroke-dasharray=""/><text fill="black" stroke="none" font-family="sans-serif" font-size="8.8pt" font-style="normal" font-weight="bold" text-decoration="normal" x="290.70693110161454" y="312.655791162" text-anchor="start" dominant-baseline="alphabetic" xml:space="preserve">ref</text></g><g><text fill="black" stroke="none" font-family="sans-serif" font-size="11pt" font-style="normal" font-weight="normal" text-decoration="normal" x="297.2410124216146" y="340.8923568662857" text-anchor="start" dominant-baseline="alphabetic" xml:space="preserve">Here we have</text><text fill="black" stroke="none" font-family="sans-serif" font-size="11pt" font-style="normal" font-weight="normal" text-decoration="normal" x="297.2410124216146" y="357.2275601662857" text-anchor="start" dominant-baseline="alphabetic" xml:space="preserve">external process</text></g><g><g><rect fill="white" stroke="none" x="109.17360872166667" y="397.598848322" width="214.34930671753906" height="21.23576429"/></g><text fill="black" stroke="none" font-family="sans-serif" font-size="11pt" font-style="normal" font-weight="normal" text-decoration="normal" x="111.62388921666667" y="412.30053129199996" text-anchor="start" dominant-baseline="alphabetic" xml:space="preserve">Add Syllabus into Combo popup</text></g><g><path fill="none" stroke="black" paint-order="fill stroke markers" d=" M 342.8529060108724 418.834612612 L 103.29293553366666 418.834612612" stroke-miterlimit="10" stroke-width="1.3612669416666667" stroke-dasharray="6.53408132"/><g transform="translate(89.84361815,418.834612612) translate(-89.84361815,-418.834612612)"><path fill="black" stroke="none" paint-order="stroke fill markers" d=" M 103.45628756666666 412.02827790366666 L 89.84361815 418.834612612 L 103.45628756666666 425.64094732033334 Z"/></g></g><g><g><rect fill="white" stroke="none" x="160.9309405698112" y="443.337417562" width="110.83464302125" height="21.23576429"/></g><text fill="black" stroke="none" font-family="sans-serif" font-size="11pt" font-style="normal" font-weight="normal" text-decoration="normal" x="163.3812210648112" y="458.03910053199996" text-anchor="start" dominant-baseline="alphabetic" xml:space="preserve">Search Syllabus</text></g><g><path fill="none" stroke="black" paint-order="fill stroke markers" d=" M 89.84361815 464.573181852 L 329.40358862720575 464.573181852" stroke-miterlimit="10" stroke-width="1.3612669416666667" stroke-dasharray=""/><g transform="translate(342.8529060108724,464.573181852) translate(-342.8529060108724,-464.573181852)"><path fill="black" stroke="none" paint-order="stroke fill markers" d=" M 329.2402365942057 457.76684714366667 L 342.8529060108724 464.573181852 L 329.2402365942057 471.37951656033334 Z"/></g></g><g><g><rect fill="white" stroke="none" x="378.518099882539" y="489.075986802" width="35.03657783570313" height="21.23576429"/></g><g><rect fill="white" stroke="none" x="378.518099882539" y="505.411190102" width="181.32852424683594" height="21.23576429"/></g><g><rect fill="white" stroke="none" x="378.518099882539" y="521.746393402" width="127.9570795446875" height="21.23576429"/></g><text fill="black" stroke="none" font-family="sans-serif" font-size="11pt" font-style="normal" font-weight="normal" text-decoration="normal" x="380.968380377539" y="503.77766977199997" text-anchor="start" dominant-baseline="alphabetic" xml:space="preserve">GET</text><text fill="black" stroke="none" font-family="sans-serif" font-size="11pt" font-style="normal" font-weight="normal" text-decoration="normal" x="380.968380377539" y="520.112873072" text-anchor="start" dominant-baseline="alphabetic" xml:space="preserve">/api/search?entity=syllabus</text><text fill="black" stroke="none" font-family="sans-serif" font-size="11pt" font-style="normal" font-weight="normal" text-decoration="normal" x="380.968380377539" y="536.448076372" text-anchor="start" dominant-baseline="alphabetic" xml:space="preserve">&amp;{paramToSearch}</text></g><g><path fill="none" stroke="black" paint-order="fill stroke markers" d=" M 359.1881093108724 542.982157692 L 565.7272973173749 542.982157692" stroke-miterlimit="10" stroke-width="1.3612669416666667" stroke-dasharray=""/><g transform="translate(579.1766147010416,542.982157692) translate(-579.1766147010416,-542.982157692)"><path fill="black" stroke="none" paint-order="stroke fill markers" d=" M 565.5639452843749 536.1758229836666 L 579.1766147010416 542.982157692 L 565.5639452843749 549.7884924003333 Z"/></g></g><g><g><rect fill="white" stroke="none" x="428.03132162326165" y="567.4849626419999" width="82.30208076539063" height="21.23576429"/></g><text fill="black" stroke="none" font-family="sans-serif" font-size="11pt" font-style="normal" font-weight="normal" text-decoration="normal" x="430.48160211826166" y="582.1866456119999" text-anchor="start" dominant-baseline="alphabetic" xml:space="preserve">Syllabus list</text></g><g><path fill="none" stroke="black" paint-order="fill stroke markers" d=" M 579.1766147010416 588.7207269319999 L 372.63742669453904 588.7207269319999" stroke-miterlimit="10" stroke-width="1.3612669416666667" stroke-dasharray="6.53408132"/><g transform="translate(359.1881093108724,588.7207269319999) translate(-359.1881093108724,-588.7207269319999)"><path fill="black" stroke="none" paint-order="stroke fill markers" d=" M 372.80077872753907 581.9143922236666 L 359.1881093108724 588.7207269319999 L 372.80077872753907 595.5270616403333 Z"/></g></g><g><g><rect fill="white" stroke="none" x="177.23012727635418" y="657.3285807919999" width="78.23626960816406" height="21.23576429"/></g><text fill="black" stroke="none" font-family="sans-serif" font-size="11pt" font-style="normal" font-weight="normal" text-decoration="normal" x="179.68040777135417" y="672.0302637619999" text-anchor="start" dominant-baseline="alphabetic" xml:space="preserve">No Options</text></g><g><path fill="none" stroke="black" paint-order="fill stroke markers" d=" M 342.8529060108724 678.5643450819999 L 103.29293553366666 678.5643450819999" stroke-miterlimit="10" stroke-width="1.3612669416666667" stroke-dasharray="6.53408132"/><g transform="translate(89.84361815,678.5643450819999) translate(-89.84361815,-678.5643450819999)"><path fill="black" stroke="none" paint-order="stroke fill markers" d=" M 103.45628756666666 671.7580103736666 L 89.84361815 678.5643450819999 L 103.45628756666666 685.3706797903333 Z"/></g></g><g><g><rect fill="white" stroke="none" x="114.48501008885417" y="747.1721989419998" width="203.72650398316406" height="21.23576429"/></g><text fill="black" stroke="none" font-family="sans-serif" font-size="11pt" font-style="normal" font-weight="normal" text-decoration="normal" x="116.93529058385417" y="761.8738819119998" text-anchor="start" dominant-baseline="alphabetic" xml:space="preserve">Select Syllabus and click Save</text></g><g><path fill="none" stroke="black" paint-order="fill stroke markers" d=" M 89.84361815 768.4079632319998 L 329.40358862720575 768.4079632319998" stroke-miterlimit="10" stroke-width="1.3612669416666667" stroke-dasharray=""/><g transform="translate(342.8529060108724,768.4079632319998) translate(-342.8529060108724,-768.4079632319998)"><path fill="black" stroke="none" paint-order="stroke fill markers" d=" M 329.2402365942057 761.6016285236665 L 342.8529060108724 768.4079632319998 L 329.2402365942057 775.2142979403332 Z"/></g></g><g><g><rect fill="white" stroke="none" x="489.8717774650422" y="792.9107681819997" width="108.37942756714844" height="21.23576429"/></g><text fill="black" stroke="none" font-family="sans-serif" font-size="11pt" font-style="normal" font-weight="normal" text-decoration="normal" x="492.32205796004223" y="807.6124511519997" text-anchor="start" dominant-baseline="alphabetic" xml:space="preserve">PUT:/api/combo</text></g><g><path fill="none" stroke="black" paint-order="fill stroke markers" d=" M 359.1881093108724 814.1465324719998 L 715.485555802694 814.1465324719998" stroke-miterlimit="10" stroke-width="1.3612669416666667" stroke-dasharray=""/><g transform="translate(728.9348731863606,814.1465324719998) translate(-728.9348731863606,-814.1465324719998)"><path fill="black" stroke="none" paint-order="stroke fill markers" d=" M 715.3222037696939 807.3401977636664 L 728.9348731863606 814.1465324719998 L 715.3222037696939 820.9528671803331 Z"/></g></g><g><g><rect fill="white" stroke="none" x="804.5392832272655" y="838.6493374219997" width="46.453859940195315" height="21.23576429"/></g><text fill="black" stroke="none" font-family="sans-serif" font-size="11pt" font-style="normal" font-weight="normal" text-decoration="normal" x="806.9895637222655" y="853.3510203919997" text-anchor="start" dominant-baseline="alphabetic" xml:space="preserve">get(id)</text></g><g><path fill="none" stroke="black" paint-order="fill stroke markers" d=" M 745.2700764863607 859.8851017119997 L 896.8130325246991 859.8851017119997" stroke-miterlimit="10" stroke-width="1.3612669416666667" stroke-dasharray=""/><g transform="translate(910.2623499083658,859.8851017119997) translate(-910.2623499083658,-859.8851017119997)"><path fill="black" stroke="none" paint-order="stroke fill markers" d=" M 896.6496804916991 853.0787670036664 L 910.2623499083658 859.8851017119997 L 896.6496804916991 866.691436420333 Z"/></g></g><g><g><rect fill="white" stroke="none" x="981.7829591242707" y="884.3879066619996" width="46.453859940195315" height="21.23576429"/></g><text fill="black" stroke="none" font-family="sans-serif" font-size="11pt" font-style="normal" font-weight="normal" text-decoration="normal" x="984.2332396192708" y="899.0895896319996" text-anchor="start" dominant-baseline="alphabetic" xml:space="preserve">get(id)</text></g><g><path fill="none" stroke="black" paint-order="fill stroke markers" d=" M 926.5975532083659 905.6236709519997 L 1069.972907596704 905.6236709519997" stroke-miterlimit="10" stroke-width="1.3612669416666667" stroke-dasharray=""/><g transform="translate(1083.4222249803709,905.6236709519997) translate(-1083.4222249803709,-905.6236709519997)"><path fill="black" stroke="none" paint-order="stroke fill markers" d=" M 1069.8095555637042 898.8173362436663 L 1083.4222249803709 905.6236709519997 L 1069.8095555637042 912.430005660333 Z"/></g></g><g><g><rect fill="white" stroke="none" x="978.9304048029817" y="930.1264759019996" width="52.15896858277344" height="21.23576429"/></g><text fill="black" stroke="none" font-family="sans-serif" font-size="11pt" font-style="normal" font-weight="normal" text-decoration="normal" x="981.3806852979817" y="944.8281588719996" text-anchor="start" dominant-baseline="alphabetic" xml:space="preserve">Combo</text></g><g><path fill="none" stroke="black" paint-order="fill stroke markers" d=" M 1083.4222249803709 951.3622401919996 L 940.0468705920325 951.3622401919996" stroke-miterlimit="10" stroke-width="1.3612669416666667" stroke-dasharray="6.53408132"/><g transform="translate(926.5975532083659,951.3622401919996) translate(-926.5975532083659,-951.3622401919996)"><path fill="black" stroke="none" paint-order="stroke fill markers" d=" M 940.2102226250325 944.5559054836663 L 926.5975532083659 951.3622401919996 L 940.2102226250325 958.1685749003329 Z"/></g></g><g><g><rect fill="white" stroke="none" x="801.6867289059765" y="975.8650451419995" width="52.15896858277344" height="21.23576429"/></g><text fill="black" stroke="none" font-family="sans-serif" font-size="11pt" font-style="normal" font-weight="normal" text-decoration="normal" x="804.1370094009765" y="990.5667281119995" text-anchor="start" dominant-baseline="alphabetic" xml:space="preserve">Combo</text></g><g><path fill="none" stroke="black" paint-order="fill stroke markers" d=" M 910.2623499083658 997.1008094319996 L 758.7193938700274 997.1008094319996" stroke-miterlimit="10" stroke-width="1.3612669416666667" stroke-dasharray="6.53408132"/><g transform="translate(745.2700764863607,997.1008094319996) translate(-745.2700764863607,-997.1008094319996)"><path fill="black" stroke="none" paint-order="stroke fill markers" d=" M 758.8827459030274 990.2944747236662 L 745.2700764863607 997.1008094319996 L 758.8827459030274 1003.9071441403329 Z"/></g></g><g><g><rect fill="white" stroke="none" x="772.7676687080274" y="1021.6036143819996" width="98.60132087769531" height="21.23576429"/></g><g><rect fill="white" stroke="none" x="772.7676687080274" y="1037.9388176819996" width="66.79744209351563" height="21.23576429"/></g><text fill="black" stroke="none" font-family="sans-serif" font-size="11pt" font-style="normal" font-weight="normal" text-decoration="normal" x="775.2179492030274" y="1036.3052973519996" text-anchor="start" dominant-baseline="alphabetic" xml:space="preserve">Check combo </text><text fill="black" stroke="none" font-family="sans-serif" font-size="11pt" font-style="normal" font-weight="normal" text-decoration="normal" x="775.2179492030274" y="1052.6405006519997" text-anchor="start" dominant-baseline="alphabetic" xml:space="preserve">isEmpty()</text></g><g><path fill="none" stroke="black" paint-order="fill stroke markers" d=" M 745.2700764863607 1059.1745819719997 L 818.7784913363606 1059.1745819719997 L 818.7784913363606 1080.4103462619996 L 766.8869955200273 1080.4103462619996" stroke-miterlimit="10" stroke-width="1.3612669416666667" stroke-dasharray=""/><g transform="translate(753.4376781363607,1080.4103462619996) translate(-753.4376781363607,-1080.4103462619996)"><path fill="black" stroke="none" paint-order="stroke fill markers" d=" M 767.0503475530273 1073.6040115536664 L 753.4376781363607 1080.4103462619996 L 767.0503475530273 1087.2166809703328 Z"/></g></g><g><g><rect fill="white" stroke="none" x="772.7676687080274" y="1104.9131512119995" width="97.82106269898438" height="21.23576429"/></g><text fill="black" stroke="none" font-family="sans-serif" font-size="11pt" font-style="normal" font-weight="normal" text-decoration="normal" x="775.2179492030274" y="1119.6148341819996" text-anchor="start" dominant-baseline="alphabetic" xml:space="preserve">Boolean value</text></g><g><path fill="none" stroke="black" paint-order="fill stroke markers" d=" M 753.4376781363607 1126.1489155019997 L 818.7784913363606 1126.1489155019997 L 818.7784913363606 1147.3846797919996 L 758.7193938700273 1147.3846797919996" stroke-miterlimit="10" stroke-width="1.3612669416666667" stroke-dasharray="6.53408132"/><g transform="translate(745.2700764863606,1147.3846797919996) translate(-745.2700764863606,-1147.3846797919996)"><path fill="black" stroke="none" paint-order="stroke fill markers" d=" M 758.8827459030273 1140.5783450836664 L 745.2700764863606 1147.3846797919996 L 758.8827459030273 1154.1910145003328 Z"/></g></g><g><g><rect fill="white" stroke="none" x="483.77654736250315" y="1215.9925336519998" width="120.56988777222656" height="21.23576429"/></g><text fill="red" stroke="none" font-family="sans-serif" font-size="11pt" font-style="normal" font-weight="normal" text-decoration="normal" x="486.22682785750317" y="1230.6942166219999" text-anchor="start" dominant-baseline="alphabetic" xml:space="preserve">404 NOT FOUND</text></g><g><path fill="none" stroke="black" paint-order="fill stroke markers" d=" M 728.9348731863606 1237.2282979419997 L 372.63742669453904 1237.2282979419997" stroke-miterlimit="10" stroke-width="1.3612669416666667" stroke-dasharray="6.53408132"/><g transform="translate(359.1881093108724,1237.2282979419997) translate(-359.1881093108724,-1237.2282979419997)"><path fill="black" stroke="none" paint-order="stroke fill markers" d=" M 372.80077872753907 1230.4219632336665 L 359.1881093108724 1237.2282979419997 L 372.80077872753907 1244.034632650333 Z"/></g></g><g><g><rect fill="white" stroke="none" x="115.29744142430339" y="1261.7311028919999" width="202.10164131226563" height="21.23576429"/></g><text fill="black" stroke="none" font-family="sans-serif" font-size="11pt" font-style="normal" font-weight="normal" text-decoration="normal" x="117.74772191930339" y="1276.432785862" text-anchor="start" dominant-baseline="alphabetic" xml:space="preserve">Display 404 Not Found screen</text></g><g><path fill="none" stroke="black" paint-order="fill stroke markers" d=" M 342.8529060108724 1282.9668671819998 L 103.29293553366666 1282.9668671819998" stroke-miterlimit="10" stroke-width="1.3612669416666667" stroke-dasharray="6.53408132"/><g transform="translate(89.84361815,1282.9668671819998) translate(-89.84361815,-1282.9668671819998)"><path fill="black" stroke="none" paint-order="stroke fill markers" d=" M 103.45628756666666 1276.1605324736665 L 89.84361815 1282.9668671819998 L 103.45628756666666 1289.773201890333 Z"/></g></g><g><g><rect fill="white" stroke="none" x="798.0145868771679" y="1351.574721042" width="59.50325264039063" height="21.23576429"/></g><text fill="black" stroke="none" font-family="sans-serif" font-size="11pt" font-style="normal" font-weight="normal" text-decoration="normal" x="800.4648673721679" y="1366.276404012" text-anchor="start" dominant-baseline="alphabetic" xml:space="preserve">update()</text></g><g><path fill="none" stroke="black" paint-order="fill stroke markers" d=" M 745.2700764863607 1372.8104853319999 L 896.8130325246991 1372.8104853319999" stroke-miterlimit="10" stroke-width="1.3612669416666667" stroke-dasharray=""/><g transform="translate(910.2623499083658,1372.8104853319999) translate(-910.2623499083658,-1372.8104853319999)"><path fill="black" stroke="none" paint-order="stroke fill markers" d=" M 896.6496804916991 1366.0041506236666 L 910.2623499083658 1372.8104853319999 L 896.6496804916991 1379.616820040333 Z"/></g></g><g><g><rect fill="white" stroke="none" x="975.2582627741731" y="1397.313290282" width="59.50325264039063" height="21.23576429"/></g><text fill="black" stroke="none" font-family="sans-serif" font-size="11pt" font-style="normal" font-weight="normal" text-decoration="normal" x="977.7085432691731" y="1412.0149732520001" text-anchor="start" dominant-baseline="alphabetic" xml:space="preserve">update()</text></g><g><path fill="none" stroke="black" paint-order="fill stroke markers" d=" M 926.5975532083659 1418.549054572 L 1069.972907596704 1418.549054572" stroke-miterlimit="10" stroke-width="1.3612669416666667" stroke-dasharray=""/><g transform="translate(1083.4222249803709,1418.549054572) translate(-1083.4222249803709,-1418.549054572)"><path fill="black" stroke="none" paint-order="stroke fill markers" d=" M 1069.8095555637042 1411.7427198636667 L 1083.4222249803709 1418.549054572 L 1069.8095555637042 1425.3553892803332 Z"/></g></g><g><g><rect fill="white" stroke="none" x="945.9275437800325" y="1443.051859522" width="118.16469062867188" height="21.23576429"/></g><text fill="black" stroke="none" font-family="sans-serif" font-size="11pt" font-style="normal" font-weight="normal" text-decoration="normal" x="948.3778242750325" y="1457.7535424920002" text-anchor="start" dominant-baseline="alphabetic" xml:space="preserve">New Combo data</text></g><g><path fill="none" stroke="black" paint-order="fill stroke markers" d=" M 1083.4222249803709 1464.287623812 L 940.0468705920325 1464.287623812" stroke-miterlimit="10" stroke-width="1.3612669416666667" stroke-dasharray="6.53408132"/><g transform="translate(926.5975532083659,1464.287623812) translate(-926.5975532083659,-1464.287623812)"><path fill="black" stroke="none" paint-order="stroke fill markers" d=" M 940.2102226250325 1457.4812891036668 L 926.5975532083659 1464.287623812 L 940.2102226250325 1471.0939585203332 Z"/></g></g><g><g><rect fill="white" stroke="none" x="768.6838678830272" y="1488.7904287620001" width="118.16469062867188" height="21.23576429"/></g><text fill="black" stroke="none" font-family="sans-serif" font-size="11pt" font-style="normal" font-weight="normal" text-decoration="normal" x="771.1341483780272" y="1503.4921117320002" text-anchor="start" dominant-baseline="alphabetic" xml:space="preserve">New Combo data</text></g><g><path fill="none" stroke="black" paint-order="fill stroke markers" d=" M 910.2623499083658 1510.026193052 L 758.7193938700274 1510.026193052" stroke-miterlimit="10" stroke-width="1.3612669416666667" stroke-dasharray="6.53408132"/><g transform="translate(745.2700764863607,1510.026193052) translate(-745.2700764863607,-1510.026193052)"><path fill="black" stroke="none" paint-order="stroke fill markers" d=" M 758.8827459030274 1503.2198583436668 L 745.2700764863607 1510.026193052 L 758.8827459030274 1516.8325277603333 Z"/></g></g><g><g><rect fill="white" stroke="none" x="429.9684266349641" y="1534.528998002" width="54.61422981324219" height="21.23576429"/></g><g><rect fill="white" stroke="none" x="429.9684266349641" y="1550.864201302" width="228.1861292273047" height="21.23576429"/></g><text fill="green" stroke="none" font-family="sans-serif" font-size="11pt" font-style="normal" font-weight="normal" text-decoration="normal" x="432.4187071299641" y="1549.230680972" text-anchor="start" dominant-baseline="alphabetic" xml:space="preserve">200 OK</text><text fill="green" stroke="none" font-family="sans-serif" font-size="11pt" font-style="normal" font-weight="normal" text-decoration="normal" x="432.4187071299641" y="1565.5658842720002" text-anchor="start" dominant-baseline="alphabetic" xml:space="preserve">Response body: New Combo data</text></g><g><path fill="none" stroke="black" paint-order="fill stroke markers" d=" M 728.9348731863606 1572.099965592 L 372.63742669453904 1572.099965592" stroke-miterlimit="10" stroke-width="1.3612669416666667" stroke-dasharray="6.53408132"/><g transform="translate(359.1881093108724,1572.099965592) translate(-359.1881093108724,-1572.099965592)"><path fill="black" stroke="none" paint-order="stroke fill markers" d=" M 372.80077872753907 1565.2936308836668 L 359.1881093108724 1572.099965592 L 372.80077872753907 1578.9063003003332 Z"/></g></g><g><g><rect fill="white" stroke="none" x="126.29600709813151" y="1596.6027705420001" width="180.10450996460938" height="21.23576429"/></g><text fill="black" stroke="none" font-family="sans-serif" font-size="11pt" font-style="normal" font-weight="normal" text-decoration="normal" x="128.7462875931315" y="1611.3044535120002" text-anchor="start" dominant-baseline="alphabetic" xml:space="preserve">Display Combo detail page</text></g><g><path fill="none" stroke="black" paint-order="fill stroke markers" d=" M 342.8529060108724 1617.838534832 L 103.29293553366666 1617.838534832" stroke-miterlimit="10" stroke-width="1.3612669416666667" stroke-dasharray="6.53408132"/><g transform="translate(89.84361815,1617.838534832) translate(-89.84361815,-1617.838534832)"><path fill="black" stroke="none" paint-order="stroke fill markers" d=" M 103.45628756666666 1611.0322001236668 L 89.84361815 1617.838534832 L 103.45628756666666 1624.6448695403333 Z"/></g></g><g><g/><path fill="none" stroke="black" paint-order="fill stroke markers" d=" M 16.335203300000003 613.223531882 L 1165.098241480371 613.223531882 L 1165.098241480371 1666.8441447319997 L 16.335203300000003 1666.8441447319997 L 16.335203300000003 613.223531882 Z" stroke-miterlimit="10" stroke-width="2.3336004714285714" stroke-dasharray=""/><path fill="white" stroke="black" paint-order="fill stroke markers" d=" M 16.335203300000003 613.223531882 L 16.335203300000003 632.825775842 L 62.694406897070316 632.825775842 L 72.49552887707031 623.0246538619999 L 72.49552887707031 613.223531882 L 16.335203300000003 613.223531882" stroke-miterlimit="10" stroke-width="2.3336004714285714" stroke-dasharray=""/><text fill="black" stroke="none" font-family="sans-serif" font-size="8.8pt" font-style="normal" font-weight="bold" text-decoration="normal" x="32.67040660000001" y="626.291694522" text-anchor="start" dominant-baseline="alphabetic" xml:space="preserve">alt</text><g><rect fill="white" stroke="none" x="86.38045168207032" y="614.5303481459999" width="226.49302925171875" height="16.988611432000003"/></g><text fill="black" stroke="none" font-family="sans-serif" font-size="8.8pt" font-style="normal" font-weight="bold" text-decoration="normal" x="88.83073217707032" y="626.291694522" text-anchor="start" dominant-baseline="alphabetic" xml:space="preserve">[If there is no syllabus match condition]</text><g><path fill="none" stroke="black" paint-order="fill stroke markers" d=" M 16.335203300000003 703.0671500319999 L 1165.098241480371 703.0671500319999" stroke-miterlimit="10" stroke-width="2.3336004714285714" stroke-dasharray="4.083800825"/></g><g/><g><rect fill="white" stroke="none" x="86.38045168207032" y="704.3739662959998" width="36.84300483765625" height="16.988611432000003"/></g><text fill="black" stroke="none" font-family="sans-serif" font-size="8.8pt" font-style="normal" font-weight="bold" text-decoration="normal" x="88.83073217707032" y="716.1353126719998" text-anchor="start" dominant-baseline="alphabetic" xml:space="preserve">[Else]</text></g><g/><g><g/><path fill="none" stroke="black" paint-order="fill stroke markers" d=" M 32.6704066 1171.8874847419997 L 1148.7630381803708 1171.8874847419997 L 1148.7630381803708 1642.341339782 L 32.6704066 1642.341339782 L 32.6704066 1171.8874847419997 Z" stroke-miterlimit="10" stroke-width="2.3336004714285714" stroke-dasharray=""/><path fill="white" stroke="black" paint-order="fill stroke markers" d=" M 32.6704066 1171.8874847419997 L 32.6704066 1191.4897287019996 L 79.02961019707031 1191.4897287019996 L 88.83073217707032 1181.6886067219998 L 88.83073217707032 1171.8874847419997 L 32.6704066 1171.8874847419997" stroke-miterlimit="10" stroke-width="2.3336004714285714" stroke-dasharray=""/><text fill="black" stroke="none" font-family="sans-serif" font-size="8.8pt" font-style="normal" font-weight="bold" text-decoration="normal" x="49.005609899999996" y="1184.9556473819996" text-anchor="start" dominant-baseline="alphabetic" xml:space="preserve">alt</text><g><rect fill="white" stroke="none" x="102.71565498207032" y="1173.1943010059997" width="101.340746536875" height="16.988611432000003"/></g><text fill="black" stroke="none" font-family="sans-serif" font-size="8.8pt" font-style="normal" font-weight="bold" text-decoration="normal" x="105.16593547707032" y="1184.9556473819996" text-anchor="start" dominant-baseline="alphabetic" xml:space="preserve">[If Combo empty]</text><g><path fill="none" stroke="black" paint-order="fill stroke markers" d=" M 32.6704066 1307.469672132 L 1148.7630381803708 1307.469672132" stroke-miterlimit="10" stroke-width="2.3336004714285714" stroke-dasharray="4.083800825"/></g><g/></g><g/></g></g></svg>