<svg version="1.1" xmlns="http://www.w3.org/2000/svg" xmlns:xlink="http://www.w3.org/1999/xlink" width="1217" height="593"><desc>title%20Get%20Post%20for%20Newsfeed%0A%0Aactor%20%23green%3A0.5%20%22Workspace%20User%22%20as%20w%0Aboundary%20%22Homepage%22%20as%20f%0Acontrol%20%22Workspace%20Controller%22%20as%20gc%0Aparticipant%20%22Post%20Service%22%20as%20gs%0Adatabase%20%23blue%3A1%20%22Database%22%20as%20db%0A%0Aw-%3Ef%3AGo%20to%20Homepage%0Aactivate%20f%0Af-%3Egc%3AGET%3A%20%2Fapi%2Fworkspace%2Fpost%0Aactivate%20gc%0Agc-%3Egs%3AgetAllPostForNewFeed(userID%2C%20page%2C%20sizes)%0Aactivate%20gs%0Ags-%3Edb%3AgetAllPostForNewFeed(userID%5Cn%2C%20page%2C%20sizes)%0Aactivate%20db%0Ags%3C--db%3APosts%20list%0Adeactivate%20db%0Agc%3C--gs%3APosts%20list%0Adeactivate%20gs%0Af%3C--gc%3A%3Ccolor%3A%23green%3E200%20OK%5CnResponse%20body%3A%20Entity%20data%20%3C%2Fcolor%3E%0Adeactivate%20gc%0Aw%3C--f%3A%20Display%20Homepage%20with%20posts%20list%0Adeactivate%20f%0A%0A%0A</desc><defs/><g><g/><g/><g/><g/><g/><g/><g/><g/><g/><g/><g/><g/><g/><g/><g/><g><rect fill="white" stroke="none" x="0" y="0" width="1217" height="593"/></g><g><text fill="black" stroke="none" font-family="sans-serif" font-size="16.5pt" font-style="normal" font-weight="normal" text-decoration="normal" x="498.1949882472819" y="24.50280495" text-anchor="start" dominant-baseline="alphabetic" xml:space="preserve">Get Post for Newsfeed</text></g><g/><g><path fill="none" stroke="black" paint-order="fill stroke markers" d=" M 62.20838076376953 129.701514202 L 62.20838076376953 593.621287922" stroke-miterlimit="10" stroke-width="1.3612669416666667" stroke-dasharray="12.565541,5.445067766666667"/><path fill="none" stroke="black" paint-order="fill stroke markers" d=" M 329.0402385363607 129.701514202 L 329.0402385363607 593.621287922" stroke-miterlimit="10" stroke-width="1.3612669416666667" stroke-dasharray="12.565541,5.445067766666667"/><path fill="none" stroke="black" paint-order="fill stroke markers" d=" M 572.3002722997721 129.701514202 L 572.3002722997721 593.621287922" stroke-miterlimit="10" stroke-width="1.3612669416666667" stroke-dasharray="12.565541,5.445067766666667"/><path fill="none" stroke="black" paint-order="fill stroke markers" d=" M 918.1801485924805 129.701514202 L 918.1801485924805 593.621287922" stroke-miterlimit="10" stroke-width="1.3612669416666667" stroke-dasharray="12.565541,5.445067766666667"/><path fill="none" stroke="black" paint-order="fill stroke markers" d=" M 1176.8732573070638 129.701514202 L 1176.8732573070638 593.621287922" stroke-miterlimit="10" stroke-width="1.3612669416666667" stroke-dasharray="12.565541,5.445067766666667"/></g><g><g><path fill="white" stroke="green" paint-order="fill stroke markers" d=" M 71.51944664476953 60.60360424300001 A 9.311065881 9.311065881 0 1 1 71.51944198923698 60.594293178670846 M 62.20838076376953 69.91467012400001 L 62.20838076376953 89.84361815000001 M 50.447034387769534 77.102159576 L 73.96972713976953 77.102159576 M 62.20838076376953 89.84361815000001 L 50.447034387769534 108.465749912 M 62.20838076376953 89.84361815000001 L 73.96972713976953 108.465749912" stroke-miterlimit="10" stroke-width="1.3884922805000002" stroke-dasharray=""/></g><g><text fill="black" stroke="none" font-family="sans-serif" font-size="11pt" font-style="normal" font-weight="normal" text-decoration="normal" x="8.167601650000002" y="124.80095321200001" text-anchor="start" dominant-baseline="alphabetic" xml:space="preserve">Workspace User</text></g><g><path fill="white" stroke="black" paint-order="fill stroke markers" d=" M 361.4656170868607 82.819480731 A 24.2577769005 24.2577769005 0 1 1 361.46560495797326 82.79522295814245 M 298.00335226636065 57.17321154999999 L 298.00335226636065 108.465749912 M 296.6148599858607 82.819480731 L 312.95006328586067 82.819480731" stroke-miterlimit="10" stroke-width="2.7769845610000004" stroke-dasharray=""/></g><g><text fill="black" stroke="none" font-family="sans-serif" font-size="11pt" font-style="normal" font-weight="normal" text-decoration="normal" x="293.1812602648763" y="124.80095321200001" text-anchor="start" dominant-baseline="alphabetic" xml:space="preserve">Homepage</text></g><g><path fill="white" stroke="black" paint-order="fill stroke markers" d=" M 596.5580492002721 82.819480731 A 24.2577769005 24.2577769005 0 1 1 596.5580370713847 82.79522295814245 M 569.0332316397721 58.561703830499994 L 578.8343536197721 50.39410218049999 M 569.0332316397721 58.561703830499994 L 578.8343536197721 66.72930548049999" stroke-miterlimit="10" stroke-width="2.7769845610000004" stroke-dasharray=""/></g><g><text fill="black" stroke="none" font-family="sans-serif" font-size="11pt" font-style="normal" font-weight="normal" text-decoration="normal" x="501.96029122067057" y="124.80095321200001" text-anchor="start" dominant-baseline="alphabetic" xml:space="preserve">Workspace Controller</text></g><path fill="none" stroke="none"/><g><path fill="white" stroke="black" paint-order="fill stroke markers" d=" M 859.3111664519218 85.75981732500001 L 977.0491307330391 85.75981732500001 L 977.0491307330391 129.701514202 L 859.3111664519218 129.701514202 L 859.3111664519218 85.75981732500001 Z" stroke-miterlimit="10" stroke-width="2.613632528" stroke-dasharray=""/></g><g><text fill="black" stroke="none" font-family="sans-serif" font-size="11pt" font-style="normal" font-weight="normal" text-decoration="normal" x="877.0348620324219" y="113.36631090200002" text-anchor="start" dominant-baseline="alphabetic" xml:space="preserve">Post Service</text></g><g><path fill="white" stroke="blue" paint-order="fill stroke markers" d=" M 1153.0238604890637 97.684515734 L 1153.0238604890637 63.380588804000006 L 1200.7226541250639 63.380588804000006 L 1200.7226541250639 97.684515734" stroke-miterlimit="10" stroke-width="2.7769845610000004" stroke-dasharray=""/><path fill="white" stroke="blue" paint-order="fill stroke markers" d=" M 1200.7226541250639 62.1881189631 L 1200.7214616651602 62.29592950801663 L 1200.7178844046941 62.403729271968594 L 1200.7119227013886 62.51150747506936 L 1200.7035771514095 62.619253339588404 L 1200.6928485893043 62.72695609102909 L 1200.6797380879204 62.834604959206004 L 1200.664246958297 62.94218917932205 L 1200.6463767495345 63.04969799304486 L 1200.6261292486386 63.15712064958265 L 1200.6035064803423 63.2644464067593 L 1200.578510706904 63.371664532088516 L 1200.55114442788 63.47876430384712 L 1200.5214103798753 63.58573501214718 L 1200.4893115362702 63.692565960007016 L 1200.454851106922 63.79924646442086 L 1200.4180325378452 63.90576585742718 L 1200.378859510866 64.01211348717543 L 1200.3373359432542 64.11827871899126 L 1200.2934659873322 64.22425093643996 L 1200.247254030059 64.3300195423881 L 1200.1987046925915 64.43557396006322 L 1200.1478228298236 64.54090363411153 L 1200.0946135298984 64.64599803165338 L 1200.0390821137023 64.75084664333659 L 1199.9812341343304 64.85543898438739 L 1199.9210753765321 64.95976459565881 L 1199.8586118561334 65.06381304467668 L 1199.7938498194344 65.16757392668278 L 1199.7267957425843 65.27103686567541 L 1199.6574563309352 65.37419151544687 L 1199.5858385183708 65.47702756061814 L 1199.5119494666121 65.5795347176704 L 1199.4357965645029 65.68170273597339 L 1199.3573874272702 65.7835213988104 L 1199.2767298957622 65.88498052439998 L 1199.1938320356646 65.98606996691414 L 1199.1087021366948 66.08677961749288 L 1199.0213487117715 66.18709940525505 L 1198.9317804961643 66.28701929830548 L 1198.84000644662 66.38652930473813 L 1198.7460357404677 66.48561947363528 L 1198.6498777746992 66.58427989606261 L 1198.551542165031 66.6825007060601 L 1198.4510387449423 66.7802720816286 L 1198.348377564691 66.87758424571203 L 1198.24356889031 66.97442746717506 L 1198.1366232025791 67.07079206177627 L 1198.0275511959783 67.1666683931365 L 1197.9163637776169 67.2620468737025 L 1197.8030720661443 67.35691796570569 L 1197.6876873906374 67.45127218211596 L 1197.5702212894673 67.54510008759026 L 1197.4506855091465 67.63839229941624 L 1197.3290920031532 67.73113948845047 L 1197.2054529307368 67.82333238005134 L 1197.0797806557014 67.9149617550065 L 1196.9520877451698 68.00601845045483 L 1196.822386968327 68.09649336080267 L 1196.690691295142 68.18637743863435 L 1196.5570138950727 68.27566169561702 L 1196.4213681357478 68.36433720339936 L 1196.28376758163 68.45239509450451 L 1196.14422599266 68.53982656321674 L 1196.0027573228808 68.62662286646201 L 1195.859375719041 68.71277532468237 L 1195.7140955191817 68.79827532270376 L 1195.566931251202 68.88311431059763 L 1195.4178976314058 68.9672838045359 L 1195.267009563031 69.0507753876393 L 1195.1142821347587 69.13358071081912 L 1194.9597306192043 69.21569149361203 L 1194.8033704713907 69.29709952500816 L 1194.6452173272025 69.37779666427225 L 1194.4852870018224 69.45777484175761 L 1194.323595488149 69.53702605971311 L 1194.1601589551997 69.61554239308303 L 1193.9949937464912 69.69331599029945 L 1193.828116378407 69.77033907406746 L 1193.6595435385445 69.84660394214286 L 1193.4892920840473 69.92210296810242 L 1193.3173790399192 69.99682860210643 L 1193.1438215973212 70.07077337165379 L 1192.9686371118528 70.14392988232913 L 1192.7918431018168 70.21629081854239 L 1192.6134572464666 70.28784894426022 L 1192.4334973842394 70.35859710372968 L 1192.2519815109713 70.42852822219379 L 1192.0689277780984 70.49763530659898 L 1191.8843544908414 70.5659114462944 L 1191.6982801063753 70.63334981372294 L 1191.5107232319833 70.69994366510412 L 1191.3217026231966 70.76568634110825 L 1191.1312371819188 70.83057126752253 L 1190.939345954535 70.89459195590838 L 1190.7460481300081 70.95774200425032 L 1190.5513630379596 71.02001509759614 L 1190.3553101467364 71.08140500868842 L 1190.1579090614644 71.14190559858717 L 1189.9591795220872 71.20151081728383 L 1189.7591414013934 71.26021470430622 L 1189.5578147030285 71.31801138931453 L 1189.3552195594943 71.37489509268845 L 1189.1513762301367 71.43086012610503 L 1188.9463050991183 71.48590089310757 L 1188.7400266733816 71.54001188966522 L 1188.5325615805973 71.59318770472345 L 1188.3239305671016 71.64542302074504 L 1188.114154495822 71.69671261424193 L 1187.903254344191 71.7470513562975 L 1187.691251202048 71.79643421307951 L 1187.4781662695304 71.84485624634341 L 1187.264020854954 71.89231261392625 L 1187.0488363726818 71.93879857023082 L 1186.8326343409826 71.9843094667002 L 1186.6154363798794 72.02884075228269 L 1186.3972642089873 72.07238797388683 L 1186.1781396453418 72.11494677682676 L 1185.9580846012166 72.15651290525764 L 1185.7371210819324 72.19708220260128 L 1185.5152711836574 72.23665061196175 L 1185.2925570911964 72.27521417653107 L 1185.069001075773 72.31276903998494 L 1184.8446254928024 72.3493114468683 L 1184.619452779656 72.38483774297092 L 1184.3935054534177 72.41934437569277 L 1184.1668061086316 72.45282789439938 L 1183.939377415043 72.48528495076673 L 1183.7112421153324 72.51671229911628 L 1183.482423022839 72.54710679673934 L 1183.2529430192817 72.5764654042115 L 1183.0228250524697 72.60478518569649 L 1182.7920921340076 72.63206330923974 L 1182.5607673369952 72.65829704705163 L 1182.3288737937194 72.68348377578025 L 1182.0964346933413 72.70762097677371 L 1181.8634732795772 72.73070623633201 L 1181.6300128483742 72.75273724594847 L 1181.3960767455812 72.77371180254045 L 1181.1616883646134 72.79362780866978 L 1180.9268711441134 72.81248327275246 L 1180.6916485656077 72.83027630925778 L 1180.456044151158 72.84700513889692 L 1180.2200814610098 72.86266808880085 L 1179.983784091235 72.87726359268764 L 1179.747175671374 72.89079019101906 L 1179.5102798620715 72.90324653114655 L 1179.273120352711 72.91463136744649 L 1179.0357208590458 72.9249435614447 L 1178.7981051208274 72.93418208193043 L 1178.5602968994317 72.94234600505929 L 1178.3223199754827 72.94943451444577 L 1178.0841981464744 72.95544690124485 L 1177.845955224391 72.96038256422287 L 1177.6076150333267 72.96424100981763 L 1177.3692014071016 72.9670218521878 L 1177.13073818688 72.96872481325143 L 1176.8922492187849 72.96934972271386 L 1176.6537583515144 72.96889651808466 L 1176.4152894339566 72.96736524468392 L 1176.1768663128043 72.96475605563768 L 1175.9385128301712 72.96106921186271 L 1175.700252821207 72.95630508204027 L 1175.4621101117136 72.9504641425794 L 1175.2241085157639 72.94354697756918 L 1174.986271833319 72.93555427872033 L 1174.748623847849 72.9264868452961 L 1174.5111883239547 72.91634558403224 L 1174.27398900499 72.90513150904647 L 1174.0370496106896 72.89284574173689 L 1173.8003938347952 72.87948951067006 L 1173.5640453426875 72.86506415145789 L 1173.3280277690185 72.84957110662431 L 1173.0923647153488 72.8330119254609 L 1172.8570797477878 72.81538826387197 L 1172.6221963946357 72.79670188420899 L 1172.3877381440325 72.77695465509434 L 1172.1537284416074 72.7561485512345 L 1171.9201906881362 72.73428565322251 L 1171.6871482371992 72.71136814732996 L 1171.4546243928476 72.68739832528833 L 1171.2226424072717 72.66237858405984 L 1170.991225478477 72.63631142559778 L 1170.7603967479636 72.60919945659627 L 1170.530179298412 72.58104538822961 L 1170.3005961513754 72.55185203588118 L 1170.0716702649772 72.5216223188619 L 1169.8434245316153 72.49035926011825 L 1169.6158817756725 72.45806598593009 L 1169.3890647512353 72.4247457255979 L 1169.1629961398166 72.39040181111994 L 1168.9376985480897 72.35503767685907 L 1168.7131945056258 72.31865685919922 L 1168.4895064626419 72.28126299619186 L 1168.266656787756 72.24285982719209 L 1168.0446677657499 72.20345119248485 L 1167.8235615953406 72.16304103290075 L 1167.6033603869614 72.12163338942209 L 1167.384086160549 72.07923240277869 L 1167.1657608433438 72.03584231303388 L 1166.9484062676956 71.99146745916049 L 1166.7320441688805 71.94611227860693 L 1166.5166961829282 71.89978130685344 L 1166.3023838444578 71.85247917695861 L 1166.0891285845248 71.80421061909601 L 1165.8769517284773 71.75498046008119 L 1165.665874493824 71.70479362288901 L 1165.4559179881128 71.65365512616141 L 1165.2471032068188 71.60157008370541 L 1165.0394510312465 71.54854370398188 L 1164.8329822264402 71.49458128958457 L 1164.6277174391087 71.43968823671 L 1164.423677195559 71.38387003461766 L 1164.2208818996462 71.32713226508127 L 1164.0193518307306 71.26948060183051 L 1163.8191071416506 71.21092080998365 L 1163.6201678567093 71.15145874547107 L 1163.4225538696685 71.0911003544497 L 1163.2262849417625 71.0298516727083 L 1163.0313806997208 70.96771882506403 L 1162.8378606338047 70.90470802474988 L 1162.64574409586 70.84082557279336 L 1162.4550502973802 70.77607785738643 L 1162.2657983075862 70.71047135324669 L 1162.0780070515193 70.64401262096986 L 1161.8916953081487 70.5767083063738 L 1161.7068817084933 70.50856513983389 L 1161.5235847337592 70.43958993560999 L 1161.341822713491 70.36978959116503 L 1161.1616138237393 70.29917108647531 L 1160.982976085243 70.22774148333244 L 1160.8059273616273 70.1555079246372 L 1160.6304853576164 70.08247763368529 L 1160.4566676172649 70.00865791344492 L 1160.284491522202 69.9340561458266 L 1160.1139742898938 69.85867979094495 L 1159.945132971921 69.78253638637263 L 1159.7779844522752 69.70563354638664 L 1159.6125454456687 69.62797896120689 L 1159.4488324958647 69.54958039622719 L 1159.2868619740213 69.47044569123871 L 1159.126650077056 69.39058275964601 L 1158.968212826025 69.30999958767568 L 1158.8115660645212 69.22870423357777 L 1158.6567254570903 69.14670482681996 L 1158.503706487664 69.06400956727457 L 1158.3525244580117 68.98062672439866 L 1158.2031944862104 68.89656463640702 L 1158.0557315051328 68.8118317094384 L 1157.9101502609544 68.72643641671489 L 1157.7664653116778 68.6403872976946 L 1157.6246910256787 68.55369295721772 L 1157.4848415802671 68.46636206464606 L 1157.3469309602715 68.37840335299609 L 1157.2109729566384 68.28982561806569 L 1157.0769811650555 68.20063771755453 L 1156.9449689845897 68.11084857017835 L 1156.8149496163494 68.02046715477704 L 1156.6869360621629 67.92950250941684 L 1156.560941123279 67.83796373048648 L 1156.4369773990866 67.74585997178757 L 1156.315057285855 67.65320044361923 L 1156.1951929754935 67.55999441185705 L 1156.0773964543334 67.46625119702654 L 1155.961679501929 67.37198017337107 L 1155.848053689879 67.27719076791445 L 1155.7365303806694 67.18189245951821 L 1155.6271207265388 67.08609477793381 L 1155.519835668361 66.98980730284956 L 1155.4146859345528 66.89303966293272 L 1155.3116820399998 66.79580153486665 L 1155.2108342850056 66.69810264238313 L 1155.1121527542614 66.59995275528999 L 1155.0156473158386 66.50136168849414 L 1154.9213276202 66.40233930102012 L 1154.829203099237 66.30289549502413 L 1154.739282965325 66.20304021480393 L 1154.6515762104018 66.1027834458043 L 1154.5660916050706 66.00213521361863 L 1154.4828376977202 65.90110558298623 L 1154.4018228136724 65.799704656786 L 1154.3230550543476 65.69794257502603 L 1154.2465422964563 65.59582951382973 L 1154.1722921912105 65.4933756844181 L 1154.1003121635588 65.3905913320887 L 1154.0306094114442 65.28748673519112 L 1153.9631909050836 65.18407220409914 L 1153.8980633862716 65.08035808017966 L 1153.8352333677058 64.97635473475869 L 1153.7747071323356 64.87207256808405 L 1153.7164907327342 64.76752200828555 L 1153.6605899904928 64.66271351033203 L 1153.6070104956393 64.55765755498592 L 1153.5557576060787 64.45236464775525 L 1153.5068364470567 64.34684531784296 L 1153.460251910649 64.24111011709415 L 1153.41600865527 64.13516961894075 L 1153.3741111052086 64.0290344173443 L 1153.3345634501848 63.92271512573653 L 1153.2973696449312 63.81622237595798 L 1153.2625334087973 63.70956681719489 L 1153.2300582253777 63.602759114914264 L 1153.1999473421636 63.49580994979732 L 1153.1722037702184 63.38873001667144 L 1153.146830283876 63.28153002344071 L 1153.123829420464 63.17422069001512 L 1153.1032034800496 63.066812747238586 L 1153.0849545252095 62.959316935815885 L 1153.069084380824 62.85174400523857 L 1153.0555946338945 62.74410471271006 L 1153.0444866333844 62.636409822069915 L 1153.0357614900843 62.52867010271744 L 1153.0294200765013 62.4208963285348 L 1153.0254630267716 62.313099276809595 L 1153.023890736597 62.20528972715717 L 1153.024703363205 62.09747846044265 L 1153.0279008253335 61.98967625770286 L 1153.0334828032392 61.88189389906824 L 1153.0414487387288 61.77414216268484 L 1153.0517978352157 61.66643182363649 L 1153.0645290577984 61.558773652867366 L 1153.0796411333656 61.4511784161048 L 1153.097132550722 61.34365687278283 L 1153.1170015607408 61.236219774966166 L 1153.1392461765377 61.12887786627507 L 1153.163864173669 61.02164188081096 L 1153.190853090356 60.91452254208302 L 1153.2202102277295 60.807530561935856 L 1153.2519326501 60.70067663947832 L 1153.2860171852517 60.593971460013606 L 1153.3224604247598 60.487425693970756 L 1153.3612587243306 60.381049995837586 L 1153.4024082041662 60.27485500309525 L 1153.4459047493533 60.16885133515453 L 1153.4917440102734 60.06304959229389 L 1153.5399214030385 59.95746035459945 L 1153.5904321099497 59.852094180906974 L 1153.6432710799784 59.746961607746044 L 1153.6984330292714 59.64207314828636 L 1153.75591244168 59.537439291286454 L 1153.815703569311 59.43307050004484 L 1153.877800433101 59.32897721135367 L 1153.9421968234153 59.22516983445505 L 1154.008886300669 59.12165875000019 L 1154.0778621959698 59.01845430901127 L 1154.1491176117856 58.91556683184637 L 1154.2226454226343 58.81300660716748 L 1154.298438275796 58.7107838909116 L 1154.3764885920484 58.60890890526517 L 1154.456788566425 58.507391837641855 L 1154.5393301689955 58.406242839663825 L 1154.6241051456684 58.30547202614659 L 1154.7111050190163 58.205089474087515 L 1154.8003210891247 58.105105221658164 L 1154.8917444344606 58.00552926720046 L 1154.9853659127662 57.90637156822687 L 1155.0811761619714 57.807642040424646 L 1155.179165601131 57.709350556664305 L 1155.2793244313827 57.61150694601232 L 1155.3816426369272 57.514120992748204 L 1155.486109986029 57.417202435386145 L 1155.5927160320405 57.320760965701105 L 1155.7014501144458 57.224806227759686 L 1155.8123013599272 57.12934781695572 L 1155.9252586834525 57.03439527905074 L 1156.0403107893835 56.93995810921942 L 1156.1574461726057 56.84604575110002 L 1156.2766531196783 56.75266759585011 L 1156.3979197100057 56.65983298120741 L 1156.52123381703 56.567551190555996 L 1156.6465831094436 56.47583145199805 L 1156.7739550524211 56.384682937430995 L 1156.903336908875 56.29411476163032 L 1157.034715740727 56.20413598133814 L 1157.1680784102036 56.1147555943575 L 1157.303411581149 56.02598253865261 L 1157.440701720359 55.937825691455075 L 1157.5799350989337 55.85029386837614 L 1157.7210977936516 55.763395822525176 L 1157.8641756883608 55.677140243634355 L 1158.009154475391 55.591535757189675 L 1158.1560196569842 55.50659092356846 L 1158.3047565467448 55.42231423718327 L 1158.4553502711078 55.33871412563253 L 1158.607785770826 55.25579894885771 L 1158.762047802477 55.1735769983074 L 1158.9181209399856 55.092056496108135 L 1159.0759895761685 55.01124559424221 L 1159.2356379242933 54.93115237373246 L 1159.3970500196585 54.851784843834196 L 1159.5602097211888 54.77315094123426 L 1159.7251007130506 54.6952585292574 L 1159.8917065062815 54.61811539707989 L 1160.0600104404411 54.54172925895067 L 1160.2299956852764 54.46610775341989 L 1160.4016452424048 54.391258442575094 L 1160.574941947013 54.317188811284986 L 1160.7498684695756 54.24390626645098 L 1160.9264073175857 54.171418136266475 L 1161.1045408373059 54.09973166948409 L 1161.2842512155323 54.028854034690774 L 1161.4655204813773 53.95879231959093 L 1161.648330508065 53.88955353029769 L 1161.8326630147453 53.82114459063227 L 1162.018499568321 53.753572341431656 L 1162.2058215852915 53.68684353986444 L 1162.3946103336116 53.62096485875517 L 1162.5848469345633 53.55594288591707 L 1162.7765123646454 53.49178412349323 L 1162.9695874574745 53.42849498730643 L 1163.1640529057022 53.366081806217544 L 1163.3598892629457 53.304550821492676 L 1163.5570769457327 53.24390818617902 L 1163.7555962354588 53.18415996448957 L 1163.9554272803607 53.12531213119671 L 1164.1565500975007 53.067370571034715 L 1164.3589445747643 53.01034107811134 L 1164.5625904728724 52.95422935532834 L 1164.7674674274053 52.89904101381123 L 1164.973554950838 52.84478157234818 L 1165.18083243459 52.79145645683812 L 1165.3892791510855 52.73907099974815 L 1165.5988742558266 52.687630439580346 L 1165.8095967894776 52.637139920347835 L 1166.0214256799607 52.58760449106049 L 1166.2343397445632 52.53902910521993 L 1166.4483176920562 52.49141862032429 L 1166.6633381248234 52.444777797382365 L 1166.8793795410006 52.399111300437596 L 1167.0964203366264 52.354423696101605 L 1167.3144388078015 52.3107194530976 L 1167.5334131528612 52.26800294181345 L 1167.7533214745529 52.2262784338647 L 1167.9741417822281 52.18555010166736 L 1168.1958519940397 52.14582201802072 L 1168.4184299391516 52.10709815570004 L 1168.6418533599547 52.06938238705927 L 1168.8660999142928 52.032678483643856 L 1169.0911471776978 51.996990115813546 L 1169.3169726456306 51.96232085237539 L 1169.5435537357325 51.928674160226834 L 1169.7708677900837 51.89605340400906 L 1169.9988920774679 51.8644618457705 L 1170.2276037956462 51.833902644640645 L 1170.4569800736379 51.80437885651416 L 1170.6869979740059 51.775893433745246 L 1170.917634495152 51.74844922485244 L 1171.1488665736165 51.722048974233765 L 1171.380671086384 51.69669532189228 L 1171.6130248531963 51.672390803172085 L 1171.8459046388705 51.649137848504814 L 1172.079287155622 51.626938783166544 L 1172.3131490653936 51.60579582704531 L 1172.5474669821895 51.58571109441911 L 1172.782217474413 51.56668659374447 L 1173.0173770672106 51.54872422745561 L 1173.252922244819 51.53182579177417 L 1173.4888294529167 51.515992976529645 L 1173.7250751009794 51.50122736499037 L 1173.9616355646392 51.4875304337052 L 1174.198487188047 51.47490355235584 L 1174.4356062862375 51.4633479836199 L 1174.672969147499 51.45286488304463 L 1174.9105520357427 51.443455298931354 L 1175.1483311928782 51.43512017223063 L 1175.3862828411875 51.4278603364482 L 1175.6243831857043 51.42167651756158 L 1175.8626084165924 51.41656933394751 L 1176.1009347115273 51.41253929632009 L 1176.3393382380784 51.40958680767973 L 1176.5777951560913 51.407712163272826 L 1176.8162816200731 51.40691555056227 L 1177.0547737815762 51.40719704920866 L 1177.293247791583 51.40855663106237 L 1177.5316798028914 51.41099416016634 L 1177.7700459724988 51.414509392769695 L 1178.0083224639873 51.419101977352106 L 1178.2464854499055 51.42477145465894 L 1178.4845111141542 51.431517257747196 L 1178.7223756543647 51.43933871204218 L 1178.9600552842815 51.44823503540498 L 1179.1975262361393 51.45820533821068 L 1179.4347647630414 51.4692486234373 L 1179.6717471413324 51.48136378676553 L 1179.908449672972 51.49454961668913 L 1180.1448486879042 51.50880479463608 L 1180.3809205464247 51.524127895100484 L 1180.6166416415444 51.54051738578506 L 1180.8519884013501 51.5579716277544 L 1181.086937291362 51.57648887559884 L 1181.3214648168869 51.59606727760904 L 1181.5555475253675 51.6167048759611 L 1181.7891620087282 51.6383996069124 L 1182.0222849057154 51.66114930100791 L 1182.2548929042334 51.684951683297186 L 1182.4869627436765 51.70980437356183 L 1182.718471217254 51.735704886553535 L 1182.9493951743113 51.76265063224257 L 1183.1797115226457 51.79063891607683 L 1183.4093972308135 51.81966693925126 L 1183.6384293304359 51.849731798987726 L 1183.8667849184935 51.88083048882531 L 1184.094441159618 51.91295989892094 L 1184.3213752883748 51.94611681636038 L 1184.5475646115403 51.980297925479526 L 1184.7729865103704 52.01549980819594 L 1184.9976184428635 52.0517189443507 L 1185.221437946013 52.08895171206036 L 1185.4444226380556 52.127194388079175 L 1185.6665502207077 52.16644314817141 L 1185.8877984813962 52.20669406749378 L 1186.1081452954793 52.247943120987884 L 1186.3275686284592 52.29018618378274 L 1186.5460465381857 52.33341903160728 L 1186.7635571770495 52.37763734121275 L 1186.9800787941683 52.422836690805035 L 1187.1955897375608 52.46901256048684 L 1187.410068456312 52.516160332709674 L 1187.623493502729 52.564275292735616 L 1187.8358435344849 52.613352629108746 L 1188.0470973167535 52.663387434136325 L 1188.2572337243328 52.71437470437956 L 1188.466231743757 52.7663093411539 L 1188.674070475398 52.819186151038956 L 1188.8807291355563 52.8729998463978 L 1189.086187058538 52.92774504590574 L 1189.290423698722 52.983416275088445 L 1189.4934186326143 53.040007966869396 L 1189.695151560891 53.09751446212657 L 1189.895602310427 53.15593001025836 L 1190.0947508363147 53.21524876975863 L 1190.2925772238673 53.27546480880087 L 1190.489061690611 53.33657210583136 L 1190.6841845882625 53.3985645501713 L 1190.8779264046952 53.461435942627936 L 1191.0702677658887 53.52517999611441 L 1191.2611894378672 53.58979033627848 L 1191.4506723286224 53.655260502139996 L 1191.6386974900233 53.721583946736914 L 1191.8252461197103 53.78875403778004 L 1192.0102995629761 53.85676405831625 L 1192.1938393146304 53.92560720740017 L 1192.375847020851 53.995276600774254 L 1192.556304481019 54.065765271557225 L 1192.7351936495388 54.13706617094075 L 1192.9124966376428 54.2091721688943 L 1193.0881957151794 54.28207605487816 L 1193.2622733123878 54.35577053856451 L 1193.434712021653 54.43024825056637 L 1193.605494599248 54.50550174317461 L 1193.7746039670574 54.581523491102686 L 1193.942023214285 54.658305892239156 L 1194.1077355991458 54.73584126840789 L 1194.2717245505396 54.81412186613588 L 1194.4339736697075 54.89313985742859 L 1194.5944667318731 54.97288734055273 L 1194.7531876878638 55.05335634082646 L 1194.9101206657165 55.1345388114168 L 1195.065249972264 55.21642663414435 L 1195.2185600947046 55.29901162029506 L 1195.3700357021544 55.38228551143916 L 1195.5196616471785 55.46623998025691 L 1195.6674229673074 55.55086663137139 L 1195.8133048865318 55.63615700218803 L 1195.9572928167818 55.722102563740805 L 1196.0993723593838 55.80869472154519 L 1196.2395293065026 55.89592481645755 L 1196.3777496425598 55.98378412554111 L 1196.5140195456372 56.07226386293816 L 1196.648325388858 56.1613551807487 L 1196.7806537417498 56.251049169915184 L 1196.9109913715874 56.34133686111345 L 1197.0393252447168 56.4322092256496 L 1197.1656425278575 56.52365717636293 L 1197.2899305893861 56.615671568534566 L 1197.4121770006006 56.70824320080196 L 1197.5323695369614 56.80136281607904 L 1197.6504961793148 56.89502110248188 L 1197.7665451150956 56.98920869425987 L 1197.8805047395065 57.083916172732344 L 1197.99236365668 57.17913406723036 L 1198.102110680818 57.27485285604382 L 1198.209734837309 57.37106296737362 L 1198.3152253638275 57.467754780288786 L 1198.4185717114087 57.56491862568861 L 1198.5197635455036 57.662544787269525 L 1198.6187907470135 57.76062350249672 L 1198.7156434133005 57.859144963580405 L 1198.810311859179 57.95809931845658 L 1198.9027866178828 58.05747667177222 L 1198.9930584420135 58.15726708587479 L 1199.0811183044639 58.257460581806065 L 1199.166957399321 58.358047140299924 L 1199.2505671427468 58.459016702784346 L 1199.3319391738369 58.56035917238722 L 1199.4110653554558 58.66206441494605 L 1199.4879377750513 58.764122260021324 L 1199.5625487454454 58.866522501913586 L 1199.6348908056034 58.96925490068398 L 1199.7049567213796 59.072309183178234 L 1199.7727394862407 59.17567504405398 L 1199.8382323219666 59.279342146811274 L 1199.9014286793285 59.38330012482622 L 1199.9623222387431 59.48753858238766 L 1200.0209069109055 59.59204709573668 L 1200.0771768373972 59.69681521410906 L 1200.1311263912726 59.80183246078026 L 1200.1827501776206 59.907088334113126 L 1200.2320430341065 60.012572308608036 L 1200.2790000314849 60.11827383595545 L 1200.3236164740958 60.22418234609071 L 1200.365887900332 60.33028724825106 L 1200.4058100830857 60.43657793203471 L 1200.4433790301723 60.54304376846186 L 1200.4785909847285 60.64967411103757 L 1200.5114424255878 60.75645829681646 L 1200.5419300676335 60.86338564746893 L 1200.5700508621273 60.97044547034902 L 1200.5958019970128 61.07762705956367 L 1200.6191808971978 61.184919697043256 L 1200.6401852248123 61.29231265361346 L 1200.6588128794403 61.399795190068104 L 1200.6750619983327 61.50735655824312 L 1200.6889309565906 61.614986002091314 L 1200.7004183673298 61.72267275875801 L 1200.709523081819 61.830406059657264 L 1200.7162441895941 61.93817513154877 L 1200.7205810185503 62.04596919761514 L 1200.7225331350078 62.15377747853961 M 1200.7226541250639 96.4920458931 L 1200.7214616651602 96.59985643801662 L 1200.7178844046941 96.70765620196859 L 1200.7119227013886 96.81543440506935 L 1200.7035771514095 96.9231802695884 L 1200.6928485893043 97.03088302102908 L 1200.6797380879204 97.138531889206 L 1200.664246958297 97.24611610932205 L 1200.6463767495345 97.35362492304485 L 1200.6261292486386 97.46104757958265 L 1200.6035064803423 97.5683733367593 L 1200.578510706904 97.67559146208852 L 1200.55114442788 97.78269123384712 L 1200.5214103798753 97.88966194214719 L 1200.4893115362702 97.99649289000702 L 1200.454851106922 98.10317339442086 L 1200.4180325378452 98.20969278742717 L 1200.378859510866 98.31604041717543 L 1200.3373359432542 98.42220564899125 L 1200.2934659873322 98.52817786643996 L 1200.247254030059 98.6339464723881 L 1200.1987046925915 98.73950089006323 L 1200.1478228298236 98.84483056411152 L 1200.0946135298984 98.94992496165337 L 1200.0390821137023 99.05477357333659 L 1199.9812341343304 99.15936591438738 L 1199.9210753765321 99.2636915256588 L 1199.8586118561334 99.36773997467667 L 1199.7938498194344 99.47150085668278 L 1199.7267957425843 99.5749637956754 L 1199.6574563309352 99.67811844544686 L 1199.5858385183708 99.78095449061813 L 1199.5119494666121 99.8834616476704 L 1199.4357965645029 99.98562966597338 L 1199.3573874272702 100.08744832881038 L 1199.2767298957622 100.18890745439998 L 1199.1938320356646 100.28999689691415 L 1199.1087021366948 100.39070654749288 L 1199.0213487117715 100.49102633525506 L 1198.9317804961643 100.59094622830548 L 1198.84000644662 100.69045623473812 L 1198.7460357404677 100.78954640363527 L 1198.6498777746992 100.8882068260626 L 1198.551542165031 100.9864276360601 L 1198.4510387449423 101.0841990116286 L 1198.348377564691 101.18151117571202 L 1198.24356889031 101.27835439717506 L 1198.1366232025791 101.37471899177628 L 1198.0275511959783 101.4705953231365 L 1197.9163637776169 101.56597380370249 L 1197.8030720661443 101.6608448957057 L 1197.6876873906374 101.75519911211595 L 1197.5702212894673 101.84902701759025 L 1197.4506855091465 101.94231922941623 L 1197.3290920031532 102.03506641845047 L 1197.2054529307368 102.12725931005133 L 1197.0797806557014 102.2188886850065 L 1196.9520877451698 102.30994538045483 L 1196.822386968327 102.40042029080266 L 1196.690691295142 102.49030436863434 L 1196.5570138950727 102.579588625617 L 1196.4213681357478 102.66826413339936 L 1196.28376758163 102.75632202450451 L 1196.14422599266 102.84375349321674 L 1196.0027573228808 102.93054979646202 L 1195.859375719041 103.01670225468237 L 1195.7140955191817 103.10220225270375 L 1195.566931251202 103.18704124059762 L 1195.4178976314058 103.27121073453588 L 1195.267009563031 103.3547023176393 L 1195.1142821347587 103.4375076408191 L 1194.9597306192043 103.51961842361202 L 1194.8033704713907 103.60102645500817 L 1194.6452173272025 103.68172359427226 L 1194.4852870018224 103.7617017717576 L 1194.323595488149 103.84095298971312 L 1194.1601589551997 103.91946932308304 L 1193.9949937464912 103.99724292029944 L 1193.828116378407 104.07426600406745 L 1193.6595435385445 104.15053087214287 L 1193.4892920840473 104.22602989810241 L 1193.3173790399192 104.30075553210642 L 1193.1438215973212 104.37470030165377 L 1192.9686371118528 104.44785681232914 L 1192.7918431018168 104.52021774854238 L 1192.6134572464666 104.59177587426021 L 1192.4334973842394 104.66252403372968 L 1192.2519815109713 104.73245515219378 L 1192.0689277780984 104.80156223659897 L 1191.8843544908414 104.86983837629438 L 1191.6982801063753 104.93727674372295 L 1191.5107232319833 105.0038705951041 L 1191.3217026231966 105.06961327110824 L 1191.1312371819188 105.13449819752252 L 1190.939345954535 105.19851888590837 L 1190.7460481300081 105.26166893425032 L 1190.5513630379596 105.32394202759615 L 1190.3553101467364 105.38533193868841 L 1190.1579090614644 105.44583252858716 L 1189.9591795220872 105.50543774728384 L 1189.7591414013934 105.56414163430621 L 1189.5578147030285 105.62193831931454 L 1189.3552195594943 105.67882202268845 L 1189.1513762301367 105.73478705610502 L 1188.9463050991183 105.78982782310756 L 1188.7400266733816 105.84393881966523 L 1188.5325615805973 105.89711463472344 L 1188.3239305671016 105.94934995074503 L 1188.114154495822 106.00063954424192 L 1187.903254344191 106.0509782862975 L 1187.691251202048 106.1003611430795 L 1187.4781662695304 106.14878317634341 L 1187.264020854954 106.19623954392625 L 1187.0488363726818 106.2427255002308 L 1186.8326343409826 106.2882363967002 L 1186.6154363798794 106.33276768228268 L 1186.3972642089873 106.37631490388682 L 1186.1781396453418 106.41887370682676 L 1185.9580846012166 106.46043983525765 L 1185.7371210819324 106.50100913260128 L 1185.5152711836574 106.54057754196174 L 1185.2925570911964 106.57914110653107 L 1185.069001075773 106.61669596998493 L 1184.8446254928024 106.65323837686829 L 1184.619452779656 106.6887646729709 L 1184.3935054534177 106.72327130569276 L 1184.1668061086316 106.75675482439937 L 1183.939377415043 106.78921188076673 L 1183.7112421153324 106.82063922911627 L 1183.482423022839 106.85103372673933 L 1183.2529430192817 106.8803923342115 L 1183.0228250524697 106.90871211569649 L 1182.7920921340076 106.93599023923973 L 1182.5607673369952 106.96222397705162 L 1182.3288737937194 106.98741070578025 L 1182.0964346933413 107.0115479067737 L 1181.8634732795772 107.03463316633201 L 1181.6300128483742 107.05666417594847 L 1181.3960767455812 107.07763873254045 L 1181.1616883646134 107.09755473866979 L 1180.9268711441134 107.11641020275246 L 1180.6916485656077 107.13420323925777 L 1180.456044151158 107.1509320688969 L 1180.2200814610098 107.16659501880085 L 1179.983784091235 107.18119052268763 L 1179.747175671374 107.19471712101905 L 1179.5102798620715 107.20717346114655 L 1179.273120352711 107.21855829744648 L 1179.0357208590458 107.22887049144471 L 1178.7981051208274 107.23810901193042 L 1178.5602968994317 107.24627293505928 L 1178.3223199754827 107.25336144444577 L 1178.0841981464744 107.25937383124486 L 1177.845955224391 107.26430949422287 L 1177.6076150333267 107.26816793981763 L 1177.3692014071016 107.27094878218779 L 1177.13073818688 107.27265174325143 L 1176.8922492187849 107.27327665271386 L 1176.6537583515144 107.27282344808465 L 1176.4152894339566 107.27129217468391 L 1176.1768663128043 107.26868298563768 L 1175.9385128301712 107.2649961418627 L 1175.700252821207 107.26023201204026 L 1175.4621101117136 107.2543910725794 L 1175.2241085157639 107.24747390756917 L 1174.986271833319 107.23948120872033 L 1174.748623847849 107.23041377529609 L 1174.5111883239547 107.22027251403225 L 1174.27398900499 107.20905843904646 L 1174.0370496106896 107.1967726717369 L 1173.8003938347952 107.18341644067004 L 1173.5640453426875 107.16899108145788 L 1173.3280277690185 107.15349803662431 L 1173.0923647153488 107.1369388554609 L 1172.8570797477878 107.11931519387196 L 1172.6221963946357 107.10062881420897 L 1172.3877381440325 107.08088158509435 L 1172.1537284416074 107.0600754812345 L 1171.9201906881362 107.03821258322252 L 1171.6871482371992 107.01529507732995 L 1171.4546243928476 106.99132525528832 L 1171.2226424072717 106.96630551405984 L 1170.991225478477 106.94023835559778 L 1170.7603967479636 106.91312638659626 L 1170.530179298412 106.88497231822961 L 1170.3005961513754 106.85577896588119 L 1170.0716702649772 106.8255492488619 L 1169.8434245316153 106.79428619011826 L 1169.6158817756725 106.76199291593008 L 1169.3890647512353 106.72867265559789 L 1169.1629961398166 106.69432874111995 L 1168.9376985480897 106.65896460685907 L 1168.7131945056258 106.62258378919921 L 1168.4895064626419 106.58518992619184 L 1168.266656787756 106.5467867571921 L 1168.0446677657499 106.50737812248485 L 1167.8235615953406 106.46696796290075 L 1167.6033603869614 106.42556031942208 L 1167.384086160549 106.38315933277867 L 1167.1657608433438 106.33976924303387 L 1166.9484062676956 106.29539438916049 L 1166.7320441688805 106.25003920860692 L 1166.5166961829282 106.20370823685344 L 1166.3023838444578 106.15640610695861 L 1166.0891285845248 106.108137549096 L 1165.8769517284773 106.05890739008117 L 1165.665874493824 106.00872055288902 L 1165.4559179881128 105.9575820561614 L 1165.2471032068188 105.90549701370541 L 1165.0394510312465 105.85247063398188 L 1164.8329822264402 105.79850821958458 L 1164.6277174391087 105.74361516670999 L 1164.423677195559 105.68779696461766 L 1164.2208818996462 105.63105919508126 L 1164.0193518307306 105.5734075318305 L 1163.8191071416506 105.51484773998365 L 1163.6201678567093 105.45538567547108 L 1163.4225538696685 105.3950272844497 L 1163.2262849417625 105.33377860270829 L 1163.0313806997208 105.27164575506403 L 1162.8378606338047 105.20863495474987 L 1162.64574409586 105.14475250279335 L 1162.4550502973802 105.08000478738643 L 1162.2657983075862 105.01439828324668 L 1162.0780070515193 104.94793955096986 L 1161.8916953081487 104.8806352363738 L 1161.7068817084933 104.8124920698339 L 1161.5235847337592 104.74351686560999 L 1161.341822713491 104.67371652116503 L 1161.1616138237393 104.6030980164753 L 1160.982976085243 104.53166841333243 L 1160.8059273616273 104.4594348546372 L 1160.6304853576164 104.38640456368528 L 1160.4566676172649 104.31258484344491 L 1160.284491522202 104.2379830758266 L 1160.1139742898938 104.16260672094495 L 1159.945132971921 104.08646331637262 L 1159.7779844522752 104.00956047638662 L 1159.6125454456687 103.93190589120688 L 1159.4488324958647 103.85350732622719 L 1159.2868619740213 103.77437262123871 L 1159.126650077056 103.694509689646 L 1158.968212826025 103.61392651767568 L 1158.8115660645212 103.53263116357778 L 1158.6567254570903 103.45063175681996 L 1158.503706487664 103.36793649727457 L 1158.3525244580117 103.28455365439865 L 1158.2031944862104 103.20049156640701 L 1158.0557315051328 103.1157586394384 L 1157.9101502609544 103.03036334671489 L 1157.7664653116778 102.94431422769459 L 1157.6246910256787 102.85761988721772 L 1157.4848415802671 102.77028899464605 L 1157.3469309602715 102.68233028299609 L 1157.2109729566384 102.5937525480657 L 1157.0769811650555 102.50456464755453 L 1156.9449689845897 102.41477550017834 L 1156.8149496163494 102.32439408477703 L 1156.6869360621629 102.23342943941684 L 1156.560941123279 102.14189066048647 L 1156.4369773990866 102.04978690178756 L 1156.315057285855 101.95712737361922 L 1156.1951929754935 101.86392134185704 L 1156.0773964543334 101.77017812702654 L 1155.961679501929 101.67590710337106 L 1155.848053689879 101.58111769791444 L 1155.7365303806694 101.48581938951821 L 1155.6271207265388 101.39002170793381 L 1155.519835668361 101.29373423284954 L 1155.4146859345528 101.19696659293271 L 1155.3116820399998 101.09972846486664 L 1155.2108342850056 101.00202957238312 L 1155.1121527542614 100.90387968528998 L 1155.0156473158386 100.80528861849413 L 1154.9213276202 100.70626623102011 L 1154.829203099237 100.60682242502413 L 1154.739282965325 100.50696714480392 L 1154.6515762104018 100.40671037580431 L 1154.5660916050706 100.30606214361863 L 1154.4828376977202 100.20503251298624 L 1154.4018228136724 100.103631586786 L 1154.3230550543476 100.00186950502604 L 1154.2465422964563 99.89975644382972 L 1154.1722921912105 99.79730261441809 L 1154.1003121635588 99.69451826208869 L 1154.0306094114442 99.59141366519111 L 1153.9631909050836 99.48799913409913 L 1153.8980633862716 99.38428501017967 L 1153.8352333677058 99.28028166475868 L 1153.7747071323356 99.17599949808405 L 1153.7164907327342 99.07144893828554 L 1153.6605899904928 98.96664044033201 L 1153.6070104956393 98.86158448498593 L 1153.5557576060787 98.75629157775525 L 1153.5068364470567 98.65077224784297 L 1153.460251910649 98.54503704709414 L 1153.41600865527 98.43909654894075 L 1153.3741111052086 98.33296134734431 L 1153.3345634501848 98.22664205573652 L 1153.2973696449312 98.12014930595798 L 1153.2625334087973 98.01349374719489 L 1153.2300582253777 97.90668604491427 L 1153.1999473421636 97.79973687979731 L 1153.1722037702184 97.69265694667143 L 1153.146830283876 97.58545695344071 L 1153.123829420464 97.47814762001512 L 1153.1032034800496 97.37073967723859 L 1153.0849545252095 97.26324386581588 L 1153.069084380824 97.15567093523856 L 1153.0555946338945 97.04803164271006 L 1153.0444866333844 96.94033675206991 L 1153.0357614900843 96.83259703271744 L 1153.0294200765013 96.7248232585348 L 1153.0254630267716 96.6170262068096 L 1153.023890736597 96.50921665715717" stroke-miterlimit="10" stroke-width="2.7769845610000004" stroke-dasharray=""/></g><g><text fill="black" stroke="none" font-family="sans-serif" font-size="11pt" font-style="normal" font-weight="normal" text-decoration="normal" x="1145.4953123607747" y="124.80095321200001" text-anchor="start" dominant-baseline="alphabetic" xml:space="preserve">Database</text></g></g><g><path fill="white" stroke="black" paint-order="fill stroke markers" d=" M 320.8726368863607 183.607685092 L 337.20784018636067 183.607685092 L 337.20784018636067 536.448076372 L 320.8726368863607 536.448076372 L 320.8726368863607 183.607685092" stroke-miterlimit="10" stroke-width="1.3612669416666667" stroke-dasharray=""/><path fill="white" stroke="black" paint-order="fill stroke markers" d=" M 564.1326706497721 229.346254332 L 580.4678739497722 229.346254332 L 580.4678739497722 490.709507132 L 564.1326706497721 490.709507132 L 564.1326706497721 229.346254332" stroke-miterlimit="10" stroke-width="1.3612669416666667" stroke-dasharray=""/><path fill="white" stroke="black" paint-order="fill stroke markers" d=" M 910.0125469424804 275.084823572 L 926.3477502424805 275.084823572 L 926.3477502424805 428.635734592 L 910.0125469424804 428.635734592 L 910.0125469424804 275.084823572" stroke-miterlimit="10" stroke-width="1.3612669416666667" stroke-dasharray=""/><path fill="white" stroke="black" paint-order="fill stroke markers" d=" M 1168.7056556570637 337.158596112 L 1185.0408589570638 337.158596112 L 1185.0408589570638 382.897165352 L 1168.7056556570637 382.897165352 L 1168.7056556570637 337.158596112" stroke-miterlimit="10" stroke-width="1.3612669416666667" stroke-dasharray=""/><g><g><rect fill="white" stroke="none" x="133.26703954832684" y="162.371920802" width="116.54693855347656" height="21.23576429"/></g><text fill="black" stroke="none" font-family="sans-serif" font-size="11pt" font-style="normal" font-weight="normal" text-decoration="normal" x="135.71732004332682" y="177.07360377199998" text-anchor="start" dominant-baseline="alphabetic" xml:space="preserve">Go to Homepage</text></g><g><path fill="none" stroke="black" paint-order="fill stroke markers" d=" M 62.20838076376953 183.607685092 L 307.423319502694 183.607685092" stroke-miterlimit="10" stroke-width="1.3612669416666667" stroke-dasharray=""/><g transform="translate(320.8726368863607,183.607685092) translate(-320.8726368863607,-183.607685092)"><path fill="black" stroke="none" paint-order="stroke fill markers" d=" M 307.259967469694 176.80135038366666 L 320.8726368863607 183.607685092 L 307.259967469694 190.41401980033334 Z"/></g></g><g><g><rect fill="white" stroke="none" x="365.10976068966795" y="208.110490042" width="171.12098945679688" height="21.23576429"/></g><text fill="black" stroke="none" font-family="sans-serif" font-size="11pt" font-style="normal" font-weight="normal" text-decoration="normal" x="367.56004118466797" y="222.812173012" text-anchor="start" dominant-baseline="alphabetic" xml:space="preserve">GET: /api/workspace/post</text></g><g><path fill="none" stroke="black" paint-order="fill stroke markers" d=" M 337.20784018636067 229.346254332 L 550.6833532661054 229.346254332" stroke-miterlimit="10" stroke-width="1.3612669416666667" stroke-dasharray=""/><g transform="translate(564.1326706497721,229.346254332) translate(-564.1326706497721,-229.346254332)"><path fill="black" stroke="none" paint-order="stroke fill markers" d=" M 550.5200012331054 222.53991962366666 L 564.1326706497721 229.346254332 L 550.5200012331054 236.15258904033334 Z"/></g></g><g><g><rect fill="white" stroke="none" x="599.7978645214388" y="253.849059282" width="290.884691849375" height="21.23576429"/></g><text fill="black" stroke="none" font-family="sans-serif" font-size="11pt" font-style="normal" font-weight="normal" text-decoration="normal" x="602.2481450164388" y="268.550742252" text-anchor="start" dominant-baseline="alphabetic" xml:space="preserve">getAllPostForNewFeed(userID, page, sizes)</text></g><g><path fill="none" stroke="black" paint-order="fill stroke markers" d=" M 580.4678739497722 275.084823572 L 896.5632295588138 275.084823572" stroke-miterlimit="10" stroke-width="1.3612669416666667" stroke-dasharray=""/><g transform="translate(910.0125469424804,275.084823572) translate(-910.0125469424804,-275.084823572)"><path fill="black" stroke="none" paint-order="stroke fill markers" d=" M 896.3998775258137 268.27848886366667 L 910.0125469424804 275.084823572 L 896.3998775258137 281.89115828033334 Z"/></g></g><g><g><rect fill="white" stroke="none" x="945.6777408141472" y="299.587628522" width="203.69792427125" height="21.23576429"/></g><g><rect fill="white" stroke="none" x="945.6777408141472" y="315.922831822" width="92.08734382691406" height="21.23576429"/></g><text fill="black" stroke="none" font-family="sans-serif" font-size="11pt" font-style="normal" font-weight="normal" text-decoration="normal" x="948.1280213091472" y="314.28931149199997" text-anchor="start" dominant-baseline="alphabetic" xml:space="preserve">getAllPostForNewFeed(userID</text><text fill="black" stroke="none" font-family="sans-serif" font-size="11pt" font-style="normal" font-weight="normal" text-decoration="normal" x="948.1280213091472" y="330.62451479199996" text-anchor="start" dominant-baseline="alphabetic" xml:space="preserve">, page, sizes)</text></g><g><path fill="none" stroke="black" paint-order="fill stroke markers" d=" M 926.3477502424805 337.158596112 L 1155.256338273397 337.158596112" stroke-miterlimit="10" stroke-width="1.3612669416666667" stroke-dasharray=""/><g transform="translate(1168.7056556570637,337.158596112) translate(-1168.7056556570637,-337.158596112)"><path fill="black" stroke="none" paint-order="stroke fill markers" d=" M 1155.092986240397 330.35226140366666 L 1168.7056556570637 337.158596112 L 1155.092986240397 343.96493082033334 Z"/></g></g><g><g><rect fill="white" stroke="none" x="1015.7493121642449" y="361.661401062" width="63.55478157105469" height="21.23576429"/></g><text fill="black" stroke="none" font-family="sans-serif" font-size="11pt" font-style="normal" font-weight="normal" text-decoration="normal" x="1018.1995926592449" y="376.36308403199996" text-anchor="start" dominant-baseline="alphabetic" xml:space="preserve">Posts list</text></g><g><path fill="none" stroke="black" paint-order="fill stroke markers" d=" M 1168.7056556570637 382.897165352 L 939.7970676261472 382.897165352" stroke-miterlimit="10" stroke-width="1.3612669416666667" stroke-dasharray="6.53408132"/><g transform="translate(926.3477502424805,382.897165352) translate(-926.3477502424805,-382.897165352)"><path fill="black" stroke="none" paint-order="stroke fill markers" d=" M 939.9604196591472 376.09083064366666 L 926.3477502424805 382.897165352 L 939.9604196591472 389.70350006033334 Z"/></g></g><g><g><rect fill="white" stroke="none" x="713.4628196605989" y="407.399970302" width="63.55478157105469" height="21.23576429"/></g><text fill="black" stroke="none" font-family="sans-serif" font-size="11pt" font-style="normal" font-weight="normal" text-decoration="normal" x="715.913100155599" y="422.10165327199996" text-anchor="start" dominant-baseline="alphabetic" xml:space="preserve">Posts list</text></g><g><path fill="none" stroke="black" paint-order="fill stroke markers" d=" M 910.0125469424804 428.635734592 L 593.9171913334388 428.635734592" stroke-miterlimit="10" stroke-width="1.3612669416666667" stroke-dasharray="6.53408132"/><g transform="translate(580.4678739497722,428.635734592) translate(-580.4678739497722,-428.635734592)"><path fill="black" stroke="none" paint-order="stroke fill markers" d=" M 594.0805433664389 421.82939988366667 L 580.4678739497722 428.635734592 L 594.0805433664389 435.44206930033334 Z"/></g></g><g><g><rect fill="white" stroke="none" x="356.5378307580273" y="453.138539542" width="54.61422981324219" height="21.23576429"/></g><g><rect fill="white" stroke="none" x="356.5378307580273" y="469.473742842" width="188.26484932007813" height="21.23576429"/></g><text fill="green" stroke="none" font-family="sans-serif" font-size="11pt" font-style="normal" font-weight="normal" text-decoration="normal" x="358.98811125302734" y="467.84022251199997" text-anchor="start" dominant-baseline="alphabetic" xml:space="preserve">200 OK</text><text fill="green" stroke="none" font-family="sans-serif" font-size="11pt" font-style="normal" font-weight="normal" text-decoration="normal" x="358.98811125302734" y="484.17542581199996" text-anchor="start" dominant-baseline="alphabetic" xml:space="preserve">Response body: Entity data </text></g><g><path fill="none" stroke="black" paint-order="fill stroke markers" d=" M 564.1326706497721 490.709507132 L 350.6571575700273 490.709507132" stroke-miterlimit="10" stroke-width="1.3612669416666667" stroke-dasharray="6.53408132"/><g transform="translate(337.20784018636067,490.709507132) translate(-337.20784018636067,-490.709507132)"><path fill="black" stroke="none" paint-order="stroke fill markers" d=" M 350.82050960302735 483.90317242366666 L 337.20784018636067 490.709507132 L 350.82050960302735 497.51584184033334 Z"/></g></g><g><g><rect fill="white" stroke="none" x="81.5383713354362" y="515.2123120819999" width="220.00427497925781" height="21.23576429"/></g><text fill="black" stroke="none" font-family="sans-serif" font-size="11pt" font-style="normal" font-weight="normal" text-decoration="normal" x="83.9886518304362" y="529.9139950519999" text-anchor="start" dominant-baseline="alphabetic" xml:space="preserve">Display Homepage with posts list</text></g><g><path fill="none" stroke="black" paint-order="fill stroke markers" d=" M 320.8726368863607 536.448076372 L 75.65769814743621 536.448076372" stroke-miterlimit="10" stroke-width="1.3612669416666667" stroke-dasharray="6.53408132"/><g transform="translate(62.20838076376953,536.448076372) translate(-62.20838076376953,-536.448076372)"><path fill="black" stroke="none" paint-order="stroke fill markers" d=" M 75.8210501804362 529.6417416636666 L 62.20838076376953 536.448076372 L 75.8210501804362 543.2544110803333 Z"/></g></g></g></g></svg>