<svg version="1.1" xmlns="http://www.w3.org/2000/svg" xmlns:xlink="http://www.w3.org/1999/xlink" width="1184" height="2006"><desc>title%20Update%20User%20with%20type%20Student%0A%0Aactor%20%23green%3A0.5%20%22Workspace%20Admin%22%20as%20w%0Aboundary%20%22Update%20User%20popup%22%20as%20f%0Aparticipant%20%22Search%20Service%22%20as%20ss%0Acontrol%20%22User%20Controller%22%20as%20gc%0Aparticipant%20%22User%20Service%22%20as%20gs%0Adatabase%20%23blue%3A1%20%22Database%22%20as%20db%0A%0Aw-%3Ef%3AGo%20to%20Update%20User%20popup%0Aactivate%20f%0Aw%3C--f%3ADisplay%20Update%20User%20popup%0Aw-%3Ef%3AUpdate%20information%20of%20User%0Af-%3Ef%3AValidate%20input%20data%0Aactivate%20f%0Af--%3Ef%3A%20Validate%20value%0Adeactivate%20f%0Aalt%20If%20the%20input%20data%20is%20wrong%0Aw%3C--f%3AValidate%20Message%0Aend%0Aw-%3Ef%3ASearch%20Curriculum%0Af-%3Ess%3AGET%5Cn%2Fapi%2Fsearch%3Fentity%3Dcurriculum%5Cn%2B%20%7BparamToSearch%7D%0Aactivate%20ss%0Af%3C--ss%3ACurriculum%20list%0Adeactivate%20ss%0Aalt%20If%20there%20is%20no%20curriculum%20match%20with%20condition%0Aw%3C--f%3ANo%20Options%0Aelse%20Else%0Aw%3C--f%3A%20Curriculum%20options%20list%0Aw-%3Ef%3ASelect%20Curriculum%20and%20click%20Save%0A%0Af-%3Egc%3APUT%3A%20%2Fapi%2Fuser%0Aactivate%20gc%0Aalt%20If%20there%20is%20required%20field%20do%20not%20have%20value%0Af%3C--gc%3A%3Ccolor%3A%23red%3E400%20BAD_REQUEST%3A%20%5CnMissing%20required%20property%3C%2Fcolor%3E%0Aw%3C--f%3AMessage%20is%20required%0Aelse%20Else%0Agc-%3Egs%3AisExist(id)%0Aactivate%20gs%0Ags-%3Edb%3AexistsById(id)%0Aactivate%20db%0Ags%3C--db%3A%20Boolean%20value%0Adeactivate%20db%0Agc%3C--gs%3ABoolean%20value%0Adeactivate%20gs%0Aalt%20If%20user%20is%20not%20exist%0Af%3C--gc%3A%3Ccolor%3A%23red%3E404%20NOT%20FOUND%3C%2Fcolor%3E%0Aw%3C--f%3A%20Close%20popup%0Aw%3C--f%3A%20Message%20Update%20fail%0Aelse%20Else%0Agc-%3Egs%3Asave()%0Aactivate%20gs%0Ags-%3Edb%3AUpdate%20User%0Aactivate%20db%0Ags%3C--db%3AUser%20entity%0Adeactivate%20db%0Agc%3C--gs%3AUser%20entity%0Adeactivate%20gs%0Af%3C--gc%3A%3Ccolor%3A%23green%3E200%20OK%5CnResponse%20body%3A%20User%20data%20%3C%2Fcolor%3E%0Adeactivate%20gc%0Aw%3C--f%3A%20Display%20User%20detail%20page%20%5Cnwith%20updated%20information%0Adeactivate%20f%0Aend%0Aend%20f%0A%0Aend%0A</desc><defs/><g><g/><g/><g/><g/><g/><g/><g/><g/><g/><g/><g/><g/><g/><g/><g/><g/><g/><g/><g/><g/><g/><g/><g/><g/><g/><g/><g/><g/><g/><g/><g/><g/><g/><g/><g/><g/><g/><g/><g/><g><rect fill="white" stroke="none" x="0" y="0" width="1184" height="2006"/></g><g><text fill="black" stroke="none" font-family="sans-serif" font-size="16.5pt" font-style="normal" font-weight="normal" text-decoration="normal" x="442.98356792249285" y="24.50280495" text-anchor="start" dominant-baseline="alphabetic" xml:space="preserve">Update User with type Student</text></g><g/><g><path fill="none" stroke="black" paint-order="fill stroke markers" d=" M 106.17882145 129.701514202 L 106.17882145 2006.616373372" stroke-miterlimit="10" stroke-width="1.3612669416666667" stroke-dasharray="12.565541,5.445067766666667"/><path fill="none" stroke="black" paint-order="fill stroke markers" d=" M 372.1874522938802 129.701514202 L 372.1874522938802 2006.616373372" stroke-miterlimit="10" stroke-width="1.3612669416666667" stroke-dasharray="12.565541,5.445067766666667"/><path fill="none" stroke="black" paint-order="fill stroke markers" d=" M 631.3244230344401 129.701514202 L 631.3244230344401 2006.616373372" stroke-miterlimit="10" stroke-width="1.3612669416666667" stroke-dasharray="12.565541,5.445067766666667"/><path fill="none" stroke="black" paint-order="fill stroke markers" d=" M 764.3739606478503 129.701514202 L 764.3739606478503 2006.616373372" stroke-miterlimit="10" stroke-width="1.3612669416666667" stroke-dasharray="12.565541,5.445067766666667"/><path fill="none" stroke="black" paint-order="fill stroke markers" d=" M 917.190207790168 129.701514202 L 917.190207790168 2006.616373372" stroke-miterlimit="10" stroke-width="1.3612669416666667" stroke-dasharray="12.565541,5.445067766666667"/><path fill="none" stroke="black" paint-order="fill stroke markers" d=" M 1070.0064549324857 129.701514202 L 1070.0064549324857 2006.616373372" stroke-miterlimit="10" stroke-width="1.3612669416666667" stroke-dasharray="12.565541,5.445067766666667"/></g><g><g><path fill="white" stroke="green" paint-order="fill stroke markers" d=" M 115.489887331 60.60360424300001 A 9.311065881 9.311065881 0 1 1 115.48988267546744 60.594293178670846 M 106.17882145 69.91467012400001 L 106.17882145 89.84361815000001 M 94.41747507400001 77.102159576 L 117.94016782599999 77.102159576 M 106.17882145 89.84361815000001 L 94.41747507400001 108.465749912 M 106.17882145 89.84361815000001 L 117.94016782599999 108.465749912" stroke-miterlimit="10" stroke-width="1.3884922805000002" stroke-dasharray=""/></g><g><text fill="black" stroke="none" font-family="sans-serif" font-size="11pt" font-style="normal" font-weight="normal" text-decoration="normal" x="46.83739841533203" y="124.80095321200001" text-anchor="start" dominant-baseline="alphabetic" xml:space="preserve">Workspace Admin</text></g><g><path fill="white" stroke="black" paint-order="fill stroke markers" d=" M 404.6128308443802 82.819480731 A 24.2577769005 24.2577769005 0 1 1 404.6128187154928 82.79522295814245 M 341.1505660238802 57.17321154999999 L 341.1505660238802 108.465749912 M 339.7620737433802 82.819480731 L 356.0972770433802 82.819480731" stroke-miterlimit="10" stroke-width="2.7769845610000004" stroke-dasharray=""/></g><g><text fill="black" stroke="none" font-family="sans-serif" font-size="11pt" font-style="normal" font-weight="normal" text-decoration="normal" x="308.61910817766926" y="124.80095321200001" text-anchor="start" dominant-baseline="alphabetic" xml:space="preserve">Update User popup</text></g><path fill="none" stroke="none"/><g><path fill="white" stroke="black" paint-order="fill stroke markers" d=" M 563.8978237063815 85.75981732500001 L 698.7510223624987 85.75981732500001 L 698.7510223624987 129.701514202 L 563.8978237063815 129.701514202 L 563.8978237063815 85.75981732500001 Z" stroke-miterlimit="10" stroke-width="2.613632528" stroke-dasharray=""/></g><g><text fill="black" stroke="none" font-family="sans-serif" font-size="11pt" font-style="normal" font-weight="normal" text-decoration="normal" x="581.6215192868815" y="113.36631090200002" text-anchor="start" dominant-baseline="alphabetic" xml:space="preserve">Search Service</text></g><g><path fill="white" stroke="black" paint-order="fill stroke markers" d=" M 788.6317375483502 82.819480731 A 24.2577769005 24.2577769005 0 1 1 788.6317254194628 82.79522295814245 M 761.1069199878502 58.561703830499994 L 770.9080419678502 50.39410218049999 M 761.1069199878502 58.561703830499994 L 770.9080419678502 66.72930548049999" stroke-miterlimit="10" stroke-width="2.7769845610000004" stroke-dasharray=""/></g><g><text fill="black" stroke="none" font-family="sans-serif" font-size="11pt" font-style="normal" font-weight="normal" text-decoration="normal" x="715.0862256624987" y="124.80095321200001" text-anchor="start" dominant-baseline="alphabetic" xml:space="preserve">User Controller</text></g><path fill="none" stroke="none"/><g><path fill="white" stroke="black" paint-order="fill stroke markers" d=" M 857.5123496120117 85.75981732500001 L 976.8680659683242 85.75981732500001 L 976.8680659683242 129.701514202 L 857.5123496120117 129.701514202 L 857.5123496120117 85.75981732500001 Z" stroke-miterlimit="10" stroke-width="2.613632528" stroke-dasharray=""/></g><g><text fill="black" stroke="none" font-family="sans-serif" font-size="11pt" font-style="normal" font-weight="normal" text-decoration="normal" x="875.2360451925117" y="113.36631090200002" text-anchor="start" dominant-baseline="alphabetic" xml:space="preserve">User Service</text></g><g><path fill="white" stroke="blue" paint-order="fill stroke markers" d=" M 1046.1570581144856 97.684515734 L 1046.1570581144856 63.380588804000006 L 1093.8558517504857 63.380588804000006 L 1093.8558517504857 97.684515734" stroke-miterlimit="10" stroke-width="2.7769845610000004" stroke-dasharray=""/><path fill="white" stroke="blue" paint-order="fill stroke markers" d=" M 1093.8558517504857 62.1881189631 L 1093.854659290582 62.29592950801663 L 1093.851082030116 62.403729271968594 L 1093.8451203268105 62.51150747506936 L 1093.8367747768314 62.619253339588404 L 1093.8260462147261 62.72695609102909 L 1093.8129357133423 62.834604959206004 L 1093.797444583719 62.94218917932205 L 1093.7795743749564 63.04969799304486 L 1093.7593268740604 63.15712064958265 L 1093.7367041057641 63.2644464067593 L 1093.7117083323258 63.371664532088516 L 1093.6843420533019 63.47876430384712 L 1093.6546080052972 63.58573501214718 L 1093.622509161692 63.692565960007016 L 1093.5880487323439 63.79924646442086 L 1093.551230163267 63.90576585742718 L 1093.512057136288 64.01211348717543 L 1093.470533568676 64.11827871899126 L 1093.426663612754 64.22425093643996 L 1093.3804516554808 64.3300195423881 L 1093.3319023180134 64.43557396006322 L 1093.2810204552454 64.54090363411153 L 1093.2278111553203 64.64599803165338 L 1093.1722797391242 64.75084664333659 L 1093.1144317597523 64.85543898438739 L 1093.054273001954 64.95976459565881 L 1092.9918094815553 65.06381304467668 L 1092.9270474448563 65.16757392668278 L 1092.8599933680061 65.27103686567541 L 1092.7906539563571 65.37419151544687 L 1092.7190361437927 65.47702756061814 L 1092.645147092034 65.5795347176704 L 1092.5689941899248 65.68170273597339 L 1092.490585052692 65.7835213988104 L 1092.409927521184 65.88498052439998 L 1092.3270296610865 65.98606996691414 L 1092.2418997621166 66.08677961749288 L 1092.1545463371933 66.18709940525505 L 1092.0649781215861 66.28701929830548 L 1091.9732040720419 66.38652930473813 L 1091.8792333658896 66.48561947363528 L 1091.783075400121 66.58427989606261 L 1091.6847397904528 66.6825007060601 L 1091.5842363703641 66.7802720816286 L 1091.4815751901128 66.87758424571203 L 1091.3767665157318 66.97442746717506 L 1091.269820828001 67.07079206177627 L 1091.1607488214001 67.1666683931365 L 1091.0495614030388 67.2620468737025 L 1090.9362696915662 67.35691796570569 L 1090.8208850160593 67.45127218211596 L 1090.7034189148892 67.54510008759026 L 1090.5838831345684 67.63839229941624 L 1090.462289628575 67.73113948845047 L 1090.3386505561587 67.82333238005134 L 1090.2129782811232 67.9149617550065 L 1090.0852853705917 68.00601845045483 L 1089.9555845937489 68.09649336080267 L 1089.8238889205638 68.18637743863435 L 1089.6902115204946 68.27566169561702 L 1089.5545657611697 68.36433720339936 L 1089.4169652070518 68.45239509450451 L 1089.277423618082 68.53982656321674 L 1089.1359549483027 68.62662286646201 L 1088.992573344463 68.71277532468237 L 1088.8472931446036 68.79827532270376 L 1088.700128876624 68.88311431059763 L 1088.5510952568277 68.9672838045359 L 1088.400207188453 69.0507753876393 L 1088.2474797601806 69.13358071081912 L 1088.0929282446261 69.21569149361203 L 1087.9365680968126 69.29709952500816 L 1087.7784149526244 69.37779666427225 L 1087.6184846272442 69.45777484175761 L 1087.456793113571 69.53702605971311 L 1087.2933565806215 69.61554239308303 L 1087.128191371913 69.69331599029945 L 1086.9613140038289 69.77033907406746 L 1086.7927411639664 69.84660394214286 L 1086.6224897094692 69.92210296810242 L 1086.450576665341 69.99682860210643 L 1086.277019222743 70.07077337165379 L 1086.1018347372747 70.14392988232913 L 1085.9250407272386 70.21629081854239 L 1085.7466548718885 70.28784894426022 L 1085.5666950096613 70.35859710372968 L 1085.3851791363932 70.42852822219379 L 1085.2021254035203 70.49763530659898 L 1085.0175521162632 70.5659114462944 L 1084.8314777317971 70.63334981372294 L 1084.6439208574052 70.69994366510412 L 1084.4549002486185 70.76568634110825 L 1084.2644348073406 70.83057126752253 L 1084.0725435799568 70.89459195590838 L 1083.87924575543 70.95774200425032 L 1083.6845606633815 71.02001509759614 L 1083.4885077721583 71.08140500868842 L 1083.2911066868862 71.14190559858717 L 1083.092377147509 71.20151081728383 L 1082.8923390268153 71.26021470430622 L 1082.6910123284504 71.31801138931453 L 1082.4884171849162 71.37489509268845 L 1082.2845738555586 71.43086012610503 L 1082.0795027245401 71.48590089310757 L 1081.8732242988035 71.54001188966522 L 1081.6657592060192 71.59318770472345 L 1081.4571281925234 71.64542302074504 L 1081.247352121244 71.69671261424193 L 1081.036451969613 71.7470513562975 L 1080.82444882747 71.79643421307951 L 1080.6113638949523 71.84485624634341 L 1080.3972184803758 71.89231261392625 L 1080.1820339981036 71.93879857023082 L 1079.9658319664045 71.9843094667002 L 1079.7486340053013 72.02884075228269 L 1079.5304618344092 72.07238797388683 L 1079.3113372707637 72.11494677682676 L 1079.0912822266384 72.15651290525764 L 1078.8703187073543 72.19708220260128 L 1078.6484688090793 72.23665061196175 L 1078.4257547166183 72.27521417653107 L 1078.202198701195 72.31276903998494 L 1077.9778231182243 72.3493114468683 L 1077.752650405078 72.38483774297092 L 1077.5267030788395 72.41934437569277 L 1077.3000037340535 72.45282789439938 L 1077.072575040465 72.48528495076673 L 1076.8444397407543 72.51671229911628 L 1076.6156206482608 72.54710679673934 L 1076.3861406447036 72.5764654042115 L 1076.1560226778915 72.60478518569649 L 1075.9252897594295 72.63206330923974 L 1075.693964962417 72.65829704705163 L 1075.4620714191412 72.68348377578025 L 1075.2296323187632 72.70762097677371 L 1074.996670904999 72.73070623633201 L 1074.763210473796 72.75273724594847 L 1074.529274371003 72.77371180254045 L 1074.2948859900353 72.79362780866978 L 1074.0600687695353 72.81248327275246 L 1073.8248461910296 72.83027630925778 L 1073.58924177658 72.84700513889692 L 1073.3532790864317 72.86266808880085 L 1073.116981716657 72.87726359268764 L 1072.8803732967958 72.89079019101906 L 1072.6434774874933 72.90324653114655 L 1072.4063179781328 72.91463136744649 L 1072.1689184844677 72.9249435614447 L 1071.9313027462492 72.93418208193043 L 1071.6934945248536 72.94234600505929 L 1071.4555176009046 72.94943451444577 L 1071.2173957718962 72.95544690124485 L 1070.9791528498129 72.96038256422287 L 1070.7408126587486 72.96424100981763 L 1070.5023990325235 72.9670218521878 L 1070.263935812302 72.96872481325143 L 1070.0254468442067 72.96934972271386 L 1069.7869559769363 72.96889651808466 L 1069.5484870593784 72.96736524468392 L 1069.3100639382262 72.96475605563768 L 1069.0717104555931 72.96106921186271 L 1068.8334504466288 72.95630508204027 L 1068.5953077371355 72.9504641425794 L 1068.3573061411857 72.94354697756918 L 1068.119469458741 72.93555427872033 L 1067.881821473271 72.9264868452961 L 1067.6443859493766 72.91634558403224 L 1067.4071866304118 72.90513150904647 L 1067.1702472361114 72.89284574173689 L 1066.933591460217 72.87948951067006 L 1066.6972429681093 72.86506415145789 L 1066.4612253944404 72.84957110662431 L 1066.2255623407707 72.8330119254609 L 1065.9902773732097 72.81538826387197 L 1065.7553940200576 72.79670188420899 L 1065.5209357694544 72.77695465509434 L 1065.2869260670293 72.7561485512345 L 1065.0533883135581 72.73428565322251 L 1064.820345862621 72.71136814732996 L 1064.5878220182694 72.68739832528833 L 1064.3558400326935 72.66237858405984 L 1064.1244231038988 72.63631142559778 L 1063.8935943733854 72.60919945659627 L 1063.6633769238338 72.58104538822961 L 1063.4337937767973 72.55185203588118 L 1063.204867890399 72.5216223188619 L 1062.9766221570371 72.49035926011825 L 1062.7490794010944 72.45806598593009 L 1062.5222623766572 72.4247457255979 L 1062.2961937652385 72.39040181111994 L 1062.0708961735115 72.35503767685907 L 1061.8463921310477 72.31865685919922 L 1061.6227040880638 72.28126299619186 L 1061.3998544131778 72.24285982719209 L 1061.1778653911717 72.20345119248485 L 1060.9567592207625 72.16304103290075 L 1060.7365580123833 72.12163338942209 L 1060.517283785971 72.07923240277869 L 1060.2989584687657 72.03584231303388 L 1060.0816038931175 71.99146745916049 L 1059.8652417943024 71.94611227860693 L 1059.64989380835 71.89978130685344 L 1059.4355814698797 71.85247917695861 L 1059.2223262099467 71.80421061909601 L 1059.0101493538991 71.75498046008119 L 1058.799072119246 71.70479362288901 L 1058.5891156135347 71.65365512616141 L 1058.3803008322407 71.60157008370541 L 1058.1726486566683 71.54854370398188 L 1057.966179851862 71.49458128958457 L 1057.7609150645305 71.43968823671 L 1057.556874820981 71.38387003461766 L 1057.354079525068 71.32713226508127 L 1057.1525494561524 71.26948060183051 L 1056.9523047670725 71.21092080998365 L 1056.7533654821311 71.15145874547107 L 1056.5557514950904 71.0911003544497 L 1056.3594825671844 71.0298516727083 L 1056.1645783251427 70.96771882506403 L 1055.9710582592265 70.90470802474988 L 1055.7789417212819 70.84082557279336 L 1055.588247922802 70.77607785738643 L 1055.398995933008 70.71047135324669 L 1055.2112046769412 70.64401262096986 L 1055.0248929335705 70.5767083063738 L 1054.8400793339151 70.50856513983389 L 1054.656782359181 70.43958993560999 L 1054.4750203389128 70.36978959116503 L 1054.2948114491612 70.29917108647531 L 1054.116173710665 70.22774148333244 L 1053.9391249870491 70.1555079246372 L 1053.7636829830383 70.08247763368529 L 1053.5898652426868 70.00865791344492 L 1053.4176891476238 69.9340561458266 L 1053.2471719153157 69.85867979094495 L 1053.078330597343 69.78253638637263 L 1052.911182077697 69.70563354638664 L 1052.7457430710906 69.62797896120689 L 1052.5820301212866 69.54958039622719 L 1052.4200595994432 69.47044569123871 L 1052.2598477024778 69.39058275964601 L 1052.1014104514468 69.30999958767568 L 1051.944763689943 69.22870423357777 L 1051.7899230825121 69.14670482681996 L 1051.6369041130858 69.06400956727457 L 1051.4857220834335 68.98062672439866 L 1051.3363921116322 68.89656463640702 L 1051.1889291305547 68.8118317094384 L 1051.0433478863763 68.72643641671489 L 1050.8996629370997 68.6403872976946 L 1050.7578886511005 68.55369295721772 L 1050.618039205689 68.46636206464606 L 1050.4801285856934 68.37840335299609 L 1050.3441705820603 68.28982561806569 L 1050.2101787904774 68.20063771755453 L 1050.0781666100115 68.11084857017835 L 1049.9481472417713 68.02046715477704 L 1049.8201336875848 67.92950250941684 L 1049.6941387487009 67.83796373048648 L 1049.5701750245084 67.74585997178757 L 1049.4482549112768 67.65320044361923 L 1049.3283906009153 67.55999441185705 L 1049.2105940797553 67.46625119702654 L 1049.0948771273509 67.37198017337107 L 1048.9812513153008 67.27719076791445 L 1048.8697280060912 67.18189245951821 L 1048.7603183519607 67.08609477793381 L 1048.653033293783 66.98980730284956 L 1048.5478835599747 66.89303966293272 L 1048.4448796654217 66.79580153486665 L 1048.3440319104275 66.69810264238313 L 1048.2453503796833 66.59995275528999 L 1048.1488449412604 66.50136168849414 L 1048.0545252456218 66.40233930102012 L 1047.962400724659 66.30289549502413 L 1047.8724805907468 66.20304021480393 L 1047.7847738358237 66.1027834458043 L 1047.6992892304925 66.00213521361863 L 1047.6160353231421 65.90110558298623 L 1047.5350204390943 65.799704656786 L 1047.4562526797695 65.69794257502603 L 1047.3797399218781 65.59582951382973 L 1047.3054898166324 65.4933756844181 L 1047.2335097889807 65.3905913320887 L 1047.163807036866 65.28748673519112 L 1047.0963885305055 65.18407220409914 L 1047.0312610116935 65.08035808017966 L 1046.9684309931276 64.97635473475869 L 1046.9079047577575 64.87207256808405 L 1046.849688358156 64.76752200828555 L 1046.7937876159147 64.66271351033203 L 1046.7402081210612 64.55765755498592 L 1046.6889552315006 64.45236464775525 L 1046.6400340724786 64.34684531784296 L 1046.593449536071 64.24111011709415 L 1046.5492062806918 64.13516961894075 L 1046.5073087306305 64.0290344173443 L 1046.4677610756066 63.92271512573653 L 1046.430567270353 63.81622237595798 L 1046.3957310342191 63.70956681719489 L 1046.3632558507995 63.602759114914264 L 1046.3331449675854 63.49580994979732 L 1046.3054013956403 63.38873001667144 L 1046.2800279092978 63.28153002344071 L 1046.257027045886 63.17422069001512 L 1046.2364011054715 63.066812747238586 L 1046.2181521506313 62.959316935815885 L 1046.202282006246 62.85174400523857 L 1046.1887922593164 62.74410471271006 L 1046.1776842588063 62.636409822069915 L 1046.1689591155061 62.52867010271744 L 1046.1626177019232 62.4208963285348 L 1046.1586606521935 62.313099276809595 L 1046.1570883620188 62.20528972715717 L 1046.1579009886268 62.09747846044265 L 1046.1610984507554 61.98967625770286 L 1046.166680428661 61.88189389906824 L 1046.1746463641507 61.77414216268484 L 1046.1849954606375 61.66643182363649 L 1046.1977266832203 61.558773652867366 L 1046.2128387587875 61.4511784161048 L 1046.230330176144 61.34365687278283 L 1046.2501991861627 61.236219774966166 L 1046.2724438019595 61.12887786627507 L 1046.297061799091 61.02164188081096 L 1046.324050715778 60.91452254208302 L 1046.3534078531513 60.807530561935856 L 1046.3851302755218 60.70067663947832 L 1046.4192148106736 60.593971460013606 L 1046.4556580501817 60.487425693970756 L 1046.4944563497525 60.381049995837586 L 1046.5356058295881 60.27485500309525 L 1046.5791023747752 60.16885133515453 L 1046.6249416356952 60.06304959229389 L 1046.6731190284604 59.95746035459945 L 1046.7236297353716 59.852094180906974 L 1046.7764687054002 59.746961607746044 L 1046.8316306546933 59.64207314828636 L 1046.889110067102 59.537439291286454 L 1046.9489011947328 59.43307050004484 L 1047.0109980585228 59.32897721135367 L 1047.0753944488372 59.22516983445505 L 1047.142083926091 59.12165875000019 L 1047.2110598213917 59.01845430901127 L 1047.2823152372075 58.91556683184637 L 1047.3558430480562 58.81300660716748 L 1047.4316359012178 58.7107838909116 L 1047.5096862174703 58.60890890526517 L 1047.589986191847 58.507391837641855 L 1047.6725277944174 58.406242839663825 L 1047.7573027710903 58.30547202614659 L 1047.8443026444381 58.205089474087515 L 1047.9335187145466 58.105105221658164 L 1048.0249420598825 58.00552926720046 L 1048.118563538188 57.90637156822687 L 1048.2143737873932 57.807642040424646 L 1048.3123632265529 57.709350556664305 L 1048.4125220568046 57.61150694601232 L 1048.514840262349 57.514120992748204 L 1048.619307611451 57.417202435386145 L 1048.7259136574623 57.320760965701105 L 1048.8346477398677 57.224806227759686 L 1048.945498985349 57.12934781695572 L 1049.0584563088744 57.03439527905074 L 1049.1735084148054 56.93995810921942 L 1049.2906437980275 56.84604575110002 L 1049.4098507451001 56.75266759585011 L 1049.5311173354276 56.65983298120741 L 1049.6544314424518 56.567551190555996 L 1049.7797807348654 56.47583145199805 L 1049.907152677843 56.384682937430995 L 1050.0365345342968 56.29411476163032 L 1050.167913366149 56.20413598133814 L 1050.3012760356255 56.1147555943575 L 1050.436609206571 56.02598253865261 L 1050.5738993457808 55.937825691455075 L 1050.7131327243555 55.85029386837614 L 1050.8542954190734 55.763395822525176 L 1050.9973733137826 55.677140243634355 L 1051.1423521008128 55.591535757189675 L 1051.289217282406 55.50659092356846 L 1051.4379541721667 55.42231423718327 L 1051.5885478965297 55.33871412563253 L 1051.7409833962479 55.25579894885771 L 1051.8952454278988 55.1735769983074 L 1052.0513185654074 55.092056496108135 L 1052.2091872015903 55.01124559424221 L 1052.3688355497152 54.93115237373246 L 1052.5302476450804 54.851784843834196 L 1052.6934073466107 54.77315094123426 L 1052.8582983384724 54.6952585292574 L 1053.0249041317034 54.61811539707989 L 1053.193208065863 54.54172925895067 L 1053.3631933106983 54.46610775341989 L 1053.5348428678267 54.391258442575094 L 1053.708139572435 54.317188811284986 L 1053.8830660949975 54.24390626645098 L 1054.0596049430076 54.171418136266475 L 1054.2377384627277 54.09973166948409 L 1054.4174488409542 54.028854034690774 L 1054.5987181067992 53.95879231959093 L 1054.781528133487 53.88955353029769 L 1054.9658606401672 53.82114459063227 L 1055.1516971937428 53.753572341431656 L 1055.3390192107133 53.68684353986444 L 1055.5278079590335 53.62096485875517 L 1055.7180445599852 53.55594288591707 L 1055.9097099900673 53.49178412349323 L 1056.1027850828964 53.42849498730643 L 1056.297250531124 53.366081806217544 L 1056.4930868883675 53.304550821492676 L 1056.6902745711545 53.24390818617902 L 1056.8887938608807 53.18415996448957 L 1057.0886249057826 53.12531213119671 L 1057.2897477229226 53.067370571034715 L 1057.4921422001862 53.01034107811134 L 1057.6957880982943 52.95422935532834 L 1057.9006650528272 52.89904101381123 L 1058.1067525762599 52.84478157234818 L 1058.3140300600119 52.79145645683812 L 1058.5224767765073 52.73907099974815 L 1058.7320718812484 52.687630439580346 L 1058.9427944148995 52.637139920347835 L 1059.1546233053825 52.58760449106049 L 1059.367537369985 52.53902910521993 L 1059.581515317478 52.49141862032429 L 1059.7965357502453 52.444777797382365 L 1060.0125771664225 52.399111300437596 L 1060.2296179620482 52.354423696101605 L 1060.4476364332234 52.3107194530976 L 1060.666610778283 52.26800294181345 L 1060.8865190999747 52.2262784338647 L 1061.10733940765 52.18555010166736 L 1061.3290496194616 52.14582201802072 L 1061.5516275645734 52.10709815570004 L 1061.7750509853765 52.06938238705927 L 1061.9992975397147 52.032678483643856 L 1062.2243448031197 51.996990115813546 L 1062.4501702710525 51.96232085237539 L 1062.6767513611544 51.928674160226834 L 1062.9040654155056 51.89605340400906 L 1063.1320897028897 51.8644618457705 L 1063.3608014210681 51.833902644640645 L 1063.5901776990597 51.80437885651416 L 1063.8201955994277 51.775893433745246 L 1064.050832120574 51.74844922485244 L 1064.2820641990384 51.722048974233765 L 1064.5138687118058 51.69669532189228 L 1064.7462224786182 51.672390803172085 L 1064.9791022642924 51.649137848504814 L 1065.212484781044 51.626938783166544 L 1065.4463466908155 51.60579582704531 L 1065.6806646076113 51.58571109441911 L 1065.915415099835 51.56668659374447 L 1066.1505746926325 51.54872422745561 L 1066.386119870241 51.53182579177417 L 1066.6220270783385 51.515992976529645 L 1066.8582727264013 51.50122736499037 L 1067.094833190061 51.4875304337052 L 1067.3316848134689 51.47490355235584 L 1067.5688039116594 51.4633479836199 L 1067.806166772921 51.45286488304463 L 1068.0437496611646 51.443455298931354 L 1068.2815288183 51.43512017223063 L 1068.5194804666094 51.4278603364482 L 1068.7575808111262 51.42167651756158 L 1068.9958060420142 51.41656933394751 L 1069.2341323369492 51.41253929632009 L 1069.4725358635003 51.40958680767973 L 1069.7109927815131 51.407712163272826 L 1069.949479245495 51.40691555056227 L 1070.187971406998 51.40719704920866 L 1070.426445417005 51.40855663106237 L 1070.6648774283133 51.41099416016634 L 1070.9032435979207 51.414509392769695 L 1071.1415200894091 51.419101977352106 L 1071.3796830753274 51.42477145465894 L 1071.617708739576 51.431517257747196 L 1071.8555732797865 51.43933871204218 L 1072.0932529097033 51.44823503540498 L 1072.3307238615612 51.45820533821068 L 1072.5679623884632 51.4692486234373 L 1072.8049447667543 51.48136378676553 L 1073.0416472983939 51.49454961668913 L 1073.278046313326 51.50880479463608 L 1073.5141181718466 51.524127895100484 L 1073.7498392669663 51.54051738578506 L 1073.985186026772 51.5579716277544 L 1074.2201349167838 51.57648887559884 L 1074.4546624423087 51.59606727760904 L 1074.6887451507894 51.6167048759611 L 1074.92235963415 51.6383996069124 L 1075.1554825311373 51.66114930100791 L 1075.3880905296553 51.684951683297186 L 1075.6201603690984 51.70980437356183 L 1075.851668842676 51.735704886553535 L 1076.0825927997332 51.76265063224257 L 1076.3129091480675 51.79063891607683 L 1076.5425948562354 51.81966693925126 L 1076.7716269558578 51.849731798987726 L 1076.9999825439154 51.88083048882531 L 1077.22763878504 51.91295989892094 L 1077.4545729137967 51.94611681636038 L 1077.6807622369622 51.980297925479526 L 1077.9061841357923 52.01549980819594 L 1078.1308160682854 52.0517189443507 L 1078.354635571435 52.08895171206036 L 1078.5776202634775 52.127194388079175 L 1078.7997478461295 52.16644314817141 L 1079.020996106818 52.20669406749378 L 1079.2413429209012 52.247943120987884 L 1079.460766253881 52.29018618378274 L 1079.6792441636076 52.33341903160728 L 1079.8967548024714 52.37763734121275 L 1080.1132764195902 52.422836690805035 L 1080.3287873629827 52.46901256048684 L 1080.543266081734 52.516160332709674 L 1080.7566911281508 52.564275292735616 L 1080.9690411599067 52.613352629108746 L 1081.1802949421754 52.663387434136325 L 1081.3904313497546 52.71437470437956 L 1081.5994293691788 52.7663093411539 L 1081.8072681008198 52.819186151038956 L 1082.0139267609782 52.8729998463978 L 1082.2193846839598 52.92774504590574 L 1082.4236213241438 52.983416275088445 L 1082.6266162580362 53.040007966869396 L 1082.8283491863128 53.09751446212657 L 1083.0287999358488 53.15593001025836 L 1083.2279484617366 53.21524876975863 L 1083.4257748492892 53.27546480880087 L 1083.6222593160328 53.33657210583136 L 1083.8173822136844 53.3985645501713 L 1084.0111240301171 53.461435942627936 L 1084.2034653913106 53.52517999611441 L 1084.394387063289 53.58979033627848 L 1084.5838699540443 53.655260502139996 L 1084.7718951154452 53.721583946736914 L 1084.9584437451322 53.78875403778004 L 1085.143497188398 53.85676405831625 L 1085.3270369400523 53.92560720740017 L 1085.509044646273 53.995276600774254 L 1085.6895021064408 54.065765271557225 L 1085.8683912749607 54.13706617094075 L 1086.0456942630647 54.2091721688943 L 1086.2213933406013 54.28207605487816 L 1086.3954709378097 54.35577053856451 L 1086.5679096470749 54.43024825056637 L 1086.7386922246699 54.50550174317461 L 1086.9078015924792 54.581523491102686 L 1087.0752208397068 54.658305892239156 L 1087.2409332245677 54.73584126840789 L 1087.4049221759615 54.81412186613588 L 1087.5671712951294 54.89313985742859 L 1087.727664357295 54.97288734055273 L 1087.8863853132857 55.05335634082646 L 1088.0433182911383 55.1345388114168 L 1088.1984475976858 55.21642663414435 L 1088.3517577201264 55.29901162029506 L 1088.5032333275763 55.38228551143916 L 1088.6528592726004 55.46623998025691 L 1088.8006205927293 55.55086663137139 L 1088.9465025119537 55.63615700218803 L 1089.0904904422036 55.722102563740805 L 1089.2325699848057 55.80869472154519 L 1089.3727269319245 55.89592481645755 L 1089.5109472679817 55.98378412554111 L 1089.647217171059 56.07226386293816 L 1089.7815230142799 56.1613551807487 L 1089.9138513671717 56.251049169915184 L 1090.0441889970093 56.34133686111345 L 1090.1725228701387 56.4322092256496 L 1090.2988401532793 56.52365717636293 L 1090.423128214808 56.615671568534566 L 1090.5453746260225 56.70824320080196 L 1090.6655671623832 56.80136281607904 L 1090.7836938047367 56.89502110248188 L 1090.8997427405175 56.98920869425987 L 1091.0137023649283 57.083916172732344 L 1091.125561282102 57.17913406723036 L 1091.2353083062399 57.27485285604382 L 1091.342932462731 57.37106296737362 L 1091.4484229892494 57.467754780288786 L 1091.5517693368306 57.56491862568861 L 1091.6529611709254 57.662544787269525 L 1091.7519883724353 57.76062350249672 L 1091.8488410387224 57.859144963580405 L 1091.9435094846008 57.95809931845658 L 1092.0359842433047 58.05747667177222 L 1092.1262560674354 58.15726708587479 L 1092.2143159298857 58.257460581806065 L 1092.300155024743 58.358047140299924 L 1092.3837647681687 58.459016702784346 L 1092.4651367992587 58.56035917238722 L 1092.5442629808776 58.66206441494605 L 1092.6211354004731 58.764122260021324 L 1092.6957463708673 58.866522501913586 L 1092.7680884310253 58.96925490068398 L 1092.8381543468015 59.072309183178234 L 1092.9059371116625 59.17567504405398 L 1092.9714299473885 59.279342146811274 L 1093.0346263047504 59.38330012482622 L 1093.095519864165 59.48753858238766 L 1093.1541045363274 59.59204709573668 L 1093.2103744628191 59.69681521410906 L 1093.2643240166944 59.80183246078026 L 1093.3159478030425 59.907088334113126 L 1093.3652406595284 60.012572308608036 L 1093.4121976569068 60.11827383595545 L 1093.4568140995177 60.22418234609071 L 1093.4990855257538 60.33028724825106 L 1093.5390077085076 60.43657793203471 L 1093.5765766555942 60.54304376846186 L 1093.6117886101504 60.64967411103757 L 1093.6446400510097 60.75645829681646 L 1093.6751276930554 60.86338564746893 L 1093.7032484875492 60.97044547034902 L 1093.7289996224347 61.07762705956367 L 1093.7523785226197 61.184919697043256 L 1093.7733828502342 61.29231265361346 L 1093.7920105048622 61.399795190068104 L 1093.8082596237546 61.50735655824312 L 1093.8221285820125 61.614986002091314 L 1093.8336159927517 61.72267275875801 L 1093.842720707241 61.830406059657264 L 1093.849441815016 61.93817513154877 L 1093.8537786439722 62.04596919761514 L 1093.8557307604297 62.15377747853961 M 1093.8558517504857 96.4920458931 L 1093.854659290582 96.59985643801662 L 1093.851082030116 96.70765620196859 L 1093.8451203268105 96.81543440506935 L 1093.8367747768314 96.9231802695884 L 1093.8260462147261 97.03088302102908 L 1093.8129357133423 97.138531889206 L 1093.797444583719 97.24611610932205 L 1093.7795743749564 97.35362492304485 L 1093.7593268740604 97.46104757958265 L 1093.7367041057641 97.5683733367593 L 1093.7117083323258 97.67559146208852 L 1093.6843420533019 97.78269123384712 L 1093.6546080052972 97.88966194214719 L 1093.622509161692 97.99649289000702 L 1093.5880487323439 98.10317339442086 L 1093.551230163267 98.20969278742717 L 1093.512057136288 98.31604041717543 L 1093.470533568676 98.42220564899125 L 1093.426663612754 98.52817786643996 L 1093.3804516554808 98.6339464723881 L 1093.3319023180134 98.73950089006323 L 1093.2810204552454 98.84483056411152 L 1093.2278111553203 98.94992496165337 L 1093.1722797391242 99.05477357333659 L 1093.1144317597523 99.15936591438738 L 1093.054273001954 99.2636915256588 L 1092.9918094815553 99.36773997467667 L 1092.9270474448563 99.47150085668278 L 1092.8599933680061 99.5749637956754 L 1092.7906539563571 99.67811844544686 L 1092.7190361437927 99.78095449061813 L 1092.645147092034 99.8834616476704 L 1092.5689941899248 99.98562966597338 L 1092.490585052692 100.08744832881038 L 1092.409927521184 100.18890745439998 L 1092.3270296610865 100.28999689691415 L 1092.2418997621166 100.39070654749288 L 1092.1545463371933 100.49102633525506 L 1092.0649781215861 100.59094622830548 L 1091.9732040720419 100.69045623473812 L 1091.8792333658896 100.78954640363527 L 1091.783075400121 100.8882068260626 L 1091.6847397904528 100.9864276360601 L 1091.5842363703641 101.0841990116286 L 1091.4815751901128 101.18151117571202 L 1091.3767665157318 101.27835439717506 L 1091.269820828001 101.37471899177628 L 1091.1607488214001 101.4705953231365 L 1091.0495614030388 101.56597380370249 L 1090.9362696915662 101.6608448957057 L 1090.8208850160593 101.75519911211595 L 1090.7034189148892 101.84902701759025 L 1090.5838831345684 101.94231922941623 L 1090.462289628575 102.03506641845047 L 1090.3386505561587 102.12725931005133 L 1090.2129782811232 102.2188886850065 L 1090.0852853705917 102.30994538045483 L 1089.9555845937489 102.40042029080266 L 1089.8238889205638 102.49030436863434 L 1089.6902115204946 102.579588625617 L 1089.5545657611697 102.66826413339936 L 1089.4169652070518 102.75632202450451 L 1089.277423618082 102.84375349321674 L 1089.1359549483027 102.93054979646202 L 1088.992573344463 103.01670225468237 L 1088.8472931446036 103.10220225270375 L 1088.700128876624 103.18704124059762 L 1088.5510952568277 103.27121073453588 L 1088.400207188453 103.3547023176393 L 1088.2474797601806 103.4375076408191 L 1088.0929282446261 103.51961842361202 L 1087.9365680968126 103.60102645500817 L 1087.7784149526244 103.68172359427226 L 1087.6184846272442 103.7617017717576 L 1087.456793113571 103.84095298971312 L 1087.2933565806215 103.91946932308304 L 1087.128191371913 103.99724292029944 L 1086.9613140038289 104.07426600406745 L 1086.7927411639664 104.15053087214287 L 1086.6224897094692 104.22602989810241 L 1086.450576665341 104.30075553210642 L 1086.277019222743 104.37470030165377 L 1086.1018347372747 104.44785681232914 L 1085.9250407272386 104.52021774854238 L 1085.7466548718885 104.59177587426021 L 1085.5666950096613 104.66252403372968 L 1085.3851791363932 104.73245515219378 L 1085.2021254035203 104.80156223659897 L 1085.0175521162632 104.86983837629438 L 1084.8314777317971 104.93727674372295 L 1084.6439208574052 105.0038705951041 L 1084.4549002486185 105.06961327110824 L 1084.2644348073406 105.13449819752252 L 1084.0725435799568 105.19851888590837 L 1083.87924575543 105.26166893425032 L 1083.6845606633815 105.32394202759615 L 1083.4885077721583 105.38533193868841 L 1083.2911066868862 105.44583252858716 L 1083.092377147509 105.50543774728384 L 1082.8923390268153 105.56414163430621 L 1082.6910123284504 105.62193831931454 L 1082.4884171849162 105.67882202268845 L 1082.2845738555586 105.73478705610502 L 1082.0795027245401 105.78982782310756 L 1081.8732242988035 105.84393881966523 L 1081.6657592060192 105.89711463472344 L 1081.4571281925234 105.94934995074503 L 1081.247352121244 106.00063954424192 L 1081.036451969613 106.0509782862975 L 1080.82444882747 106.1003611430795 L 1080.6113638949523 106.14878317634341 L 1080.3972184803758 106.19623954392625 L 1080.1820339981036 106.2427255002308 L 1079.9658319664045 106.2882363967002 L 1079.7486340053013 106.33276768228268 L 1079.5304618344092 106.37631490388682 L 1079.3113372707637 106.41887370682676 L 1079.0912822266384 106.46043983525765 L 1078.8703187073543 106.50100913260128 L 1078.6484688090793 106.54057754196174 L 1078.4257547166183 106.57914110653107 L 1078.202198701195 106.61669596998493 L 1077.9778231182243 106.65323837686829 L 1077.752650405078 106.6887646729709 L 1077.5267030788395 106.72327130569276 L 1077.3000037340535 106.75675482439937 L 1077.072575040465 106.78921188076673 L 1076.8444397407543 106.82063922911627 L 1076.6156206482608 106.85103372673933 L 1076.3861406447036 106.8803923342115 L 1076.1560226778915 106.90871211569649 L 1075.9252897594295 106.93599023923973 L 1075.693964962417 106.96222397705162 L 1075.4620714191412 106.98741070578025 L 1075.2296323187632 107.0115479067737 L 1074.996670904999 107.03463316633201 L 1074.763210473796 107.05666417594847 L 1074.529274371003 107.07763873254045 L 1074.2948859900353 107.09755473866979 L 1074.0600687695353 107.11641020275246 L 1073.8248461910296 107.13420323925777 L 1073.58924177658 107.1509320688969 L 1073.3532790864317 107.16659501880085 L 1073.116981716657 107.18119052268763 L 1072.8803732967958 107.19471712101905 L 1072.6434774874933 107.20717346114655 L 1072.4063179781328 107.21855829744648 L 1072.1689184844677 107.22887049144471 L 1071.9313027462492 107.23810901193042 L 1071.6934945248536 107.24627293505928 L 1071.4555176009046 107.25336144444577 L 1071.2173957718962 107.25937383124486 L 1070.9791528498129 107.26430949422287 L 1070.7408126587486 107.26816793981763 L 1070.5023990325235 107.27094878218779 L 1070.263935812302 107.27265174325143 L 1070.0254468442067 107.27327665271386 L 1069.7869559769363 107.27282344808465 L 1069.5484870593784 107.27129217468391 L 1069.3100639382262 107.26868298563768 L 1069.0717104555931 107.2649961418627 L 1068.8334504466288 107.26023201204026 L 1068.5953077371355 107.2543910725794 L 1068.3573061411857 107.24747390756917 L 1068.119469458741 107.23948120872033 L 1067.881821473271 107.23041377529609 L 1067.6443859493766 107.22027251403225 L 1067.4071866304118 107.20905843904646 L 1067.1702472361114 107.1967726717369 L 1066.933591460217 107.18341644067004 L 1066.6972429681093 107.16899108145788 L 1066.4612253944404 107.15349803662431 L 1066.2255623407707 107.1369388554609 L 1065.9902773732097 107.11931519387196 L 1065.7553940200576 107.10062881420897 L 1065.5209357694544 107.08088158509435 L 1065.2869260670293 107.0600754812345 L 1065.0533883135581 107.03821258322252 L 1064.820345862621 107.01529507732995 L 1064.5878220182694 106.99132525528832 L 1064.3558400326935 106.96630551405984 L 1064.1244231038988 106.94023835559778 L 1063.8935943733854 106.91312638659626 L 1063.6633769238338 106.88497231822961 L 1063.4337937767973 106.85577896588119 L 1063.204867890399 106.8255492488619 L 1062.9766221570371 106.79428619011826 L 1062.7490794010944 106.76199291593008 L 1062.5222623766572 106.72867265559789 L 1062.2961937652385 106.69432874111995 L 1062.0708961735115 106.65896460685907 L 1061.8463921310477 106.62258378919921 L 1061.6227040880638 106.58518992619184 L 1061.3998544131778 106.5467867571921 L 1061.1778653911717 106.50737812248485 L 1060.9567592207625 106.46696796290075 L 1060.7365580123833 106.42556031942208 L 1060.517283785971 106.38315933277867 L 1060.2989584687657 106.33976924303387 L 1060.0816038931175 106.29539438916049 L 1059.8652417943024 106.25003920860692 L 1059.64989380835 106.20370823685344 L 1059.4355814698797 106.15640610695861 L 1059.2223262099467 106.108137549096 L 1059.0101493538991 106.05890739008117 L 1058.799072119246 106.00872055288902 L 1058.5891156135347 105.9575820561614 L 1058.3803008322407 105.90549701370541 L 1058.1726486566683 105.85247063398188 L 1057.966179851862 105.79850821958458 L 1057.7609150645305 105.74361516670999 L 1057.556874820981 105.68779696461766 L 1057.354079525068 105.63105919508126 L 1057.1525494561524 105.5734075318305 L 1056.9523047670725 105.51484773998365 L 1056.7533654821311 105.45538567547108 L 1056.5557514950904 105.3950272844497 L 1056.3594825671844 105.33377860270829 L 1056.1645783251427 105.27164575506403 L 1055.9710582592265 105.20863495474987 L 1055.7789417212819 105.14475250279335 L 1055.588247922802 105.08000478738643 L 1055.398995933008 105.01439828324668 L 1055.2112046769412 104.94793955096986 L 1055.0248929335705 104.8806352363738 L 1054.8400793339151 104.8124920698339 L 1054.656782359181 104.74351686560999 L 1054.4750203389128 104.67371652116503 L 1054.2948114491612 104.6030980164753 L 1054.116173710665 104.53166841333243 L 1053.9391249870491 104.4594348546372 L 1053.7636829830383 104.38640456368528 L 1053.5898652426868 104.31258484344491 L 1053.4176891476238 104.2379830758266 L 1053.2471719153157 104.16260672094495 L 1053.078330597343 104.08646331637262 L 1052.911182077697 104.00956047638662 L 1052.7457430710906 103.93190589120688 L 1052.5820301212866 103.85350732622719 L 1052.4200595994432 103.77437262123871 L 1052.2598477024778 103.694509689646 L 1052.1014104514468 103.61392651767568 L 1051.944763689943 103.53263116357778 L 1051.7899230825121 103.45063175681996 L 1051.6369041130858 103.36793649727457 L 1051.4857220834335 103.28455365439865 L 1051.3363921116322 103.20049156640701 L 1051.1889291305547 103.1157586394384 L 1051.0433478863763 103.03036334671489 L 1050.8996629370997 102.94431422769459 L 1050.7578886511005 102.85761988721772 L 1050.618039205689 102.77028899464605 L 1050.4801285856934 102.68233028299609 L 1050.3441705820603 102.5937525480657 L 1050.2101787904774 102.50456464755453 L 1050.0781666100115 102.41477550017834 L 1049.9481472417713 102.32439408477703 L 1049.8201336875848 102.23342943941684 L 1049.6941387487009 102.14189066048647 L 1049.5701750245084 102.04978690178756 L 1049.4482549112768 101.95712737361922 L 1049.3283906009153 101.86392134185704 L 1049.2105940797553 101.77017812702654 L 1049.0948771273509 101.67590710337106 L 1048.9812513153008 101.58111769791444 L 1048.8697280060912 101.48581938951821 L 1048.7603183519607 101.39002170793381 L 1048.653033293783 101.29373423284954 L 1048.5478835599747 101.19696659293271 L 1048.4448796654217 101.09972846486664 L 1048.3440319104275 101.00202957238312 L 1048.2453503796833 100.90387968528998 L 1048.1488449412604 100.80528861849413 L 1048.0545252456218 100.70626623102011 L 1047.962400724659 100.60682242502413 L 1047.8724805907468 100.50696714480392 L 1047.7847738358237 100.40671037580431 L 1047.6992892304925 100.30606214361863 L 1047.6160353231421 100.20503251298624 L 1047.5350204390943 100.103631586786 L 1047.4562526797695 100.00186950502604 L 1047.3797399218781 99.89975644382972 L 1047.3054898166324 99.79730261441809 L 1047.2335097889807 99.69451826208869 L 1047.163807036866 99.59141366519111 L 1047.0963885305055 99.48799913409913 L 1047.0312610116935 99.38428501017967 L 1046.9684309931276 99.28028166475868 L 1046.9079047577575 99.17599949808405 L 1046.849688358156 99.07144893828554 L 1046.7937876159147 98.96664044033201 L 1046.7402081210612 98.86158448498593 L 1046.6889552315006 98.75629157775525 L 1046.6400340724786 98.65077224784297 L 1046.593449536071 98.54503704709414 L 1046.5492062806918 98.43909654894075 L 1046.5073087306305 98.33296134734431 L 1046.4677610756066 98.22664205573652 L 1046.430567270353 98.12014930595798 L 1046.3957310342191 98.01349374719489 L 1046.3632558507995 97.90668604491427 L 1046.3331449675854 97.79973687979731 L 1046.3054013956403 97.69265694667143 L 1046.2800279092978 97.58545695344071 L 1046.257027045886 97.47814762001512 L 1046.2364011054715 97.37073967723859 L 1046.2181521506313 97.26324386581588 L 1046.202282006246 97.15567093523856 L 1046.1887922593164 97.04803164271006 L 1046.1776842588063 96.94033675206991 L 1046.1689591155061 96.83259703271744 L 1046.1626177019232 96.7248232585348 L 1046.1586606521935 96.6170262068096 L 1046.1570883620188 96.50921665715717" stroke-miterlimit="10" stroke-width="2.7769845610000004" stroke-dasharray=""/></g><g><text fill="black" stroke="none" font-family="sans-serif" font-size="11pt" font-style="normal" font-weight="normal" text-decoration="normal" x="1038.6285099861966" y="124.80095321200001" text-anchor="start" dominant-baseline="alphabetic" xml:space="preserve">Database</text></g></g><g><path fill="white" stroke="black" paint-order="fill stroke markers" d=" M 364.0198506438802 183.607685092 L 380.3550539438802 183.607685092 L 380.3550539438802 1875.9347469720003 L 364.0198506438802 1875.9347469720003 L 364.0198506438802 183.607685092" stroke-miterlimit="10" stroke-width="1.3612669416666667" stroke-dasharray=""/><path fill="white" stroke="black" paint-order="fill stroke markers" d=" M 372.1874522938802 342.059157102 L 388.5226555938802 342.059157102 L 388.5226555938802 387.7977263419999 L 372.1874522938802 387.7977263419999 L 372.1874522938802 342.059157102" stroke-miterlimit="10" stroke-width="1.3612669416666667" stroke-dasharray=""/><path fill="white" stroke="black" paint-order="fill stroke markers" d=" M 623.15682138444 647.527458812 L 639.4920246844401 647.527458812 L 639.4920246844401 693.2660280519999 L 623.15682138444 693.2660280519999 L 623.15682138444 647.527458812" stroke-miterlimit="10" stroke-width="1.3612669416666667" stroke-dasharray=""/><path fill="white" stroke="black" paint-order="fill stroke markers" d=" M 756.2063589978502 964.4304028319997 L 772.5415622978503 964.4304028319997 L 772.5415622978503 1813.8609744320004 L 756.2063589978502 1813.8609744320004 L 756.2063589978502 964.4304028319997" stroke-miterlimit="10" stroke-width="1.3612669416666667" stroke-dasharray=""/><path fill="white" stroke="black" paint-order="fill stroke markers" d=" M 909.0226061401679 1206.1914116719997 L 925.357809440168 1206.1914116719997 L 925.357809440168 1343.407119392 L 909.0226061401679 1343.407119392 L 909.0226061401679 1206.1914116719997" stroke-miterlimit="10" stroke-width="1.3612669416666667" stroke-dasharray=""/><path fill="white" stroke="black" paint-order="fill stroke markers" d=" M 1061.8388532824856 1251.9299809119998 L 1078.1740565824857 1251.9299809119998 L 1078.1740565824857 1297.6685501519999 L 1061.8388532824856 1297.6685501519999 L 1061.8388532824856 1251.9299809119998" stroke-miterlimit="10" stroke-width="1.3612669416666667" stroke-dasharray=""/><path fill="white" stroke="black" paint-order="fill stroke markers" d=" M 909.0226061401679 1614.5714941720003 L 925.357809440168 1614.5714941720003 L 925.357809440168 1751.7872018920004 L 909.0226061401679 1751.7872018920004 L 909.0226061401679 1614.5714941720003" stroke-miterlimit="10" stroke-width="1.3612669416666667" stroke-dasharray=""/><path fill="white" stroke="black" paint-order="fill stroke markers" d=" M 1061.8388532824856 1660.3100634120003 L 1078.1740565824857 1660.3100634120003 L 1078.1740565824857 1706.0486326520004 L 1061.8388532824856 1706.0486326520004 L 1061.8388532824856 1660.3100634120003" stroke-miterlimit="10" stroke-width="1.3612669416666667" stroke-dasharray=""/><g><g><rect fill="white" stroke="none" x="149.11650092547526" y="162.371920802" width="171.9656702429297" height="21.23576429"/></g><text fill="black" stroke="none" font-family="sans-serif" font-size="11pt" font-style="normal" font-weight="normal" text-decoration="normal" x="151.56678142047525" y="177.07360377199998" text-anchor="start" dominant-baseline="alphabetic" xml:space="preserve">Go to Update User popup</text></g><g><path fill="none" stroke="black" paint-order="fill stroke markers" d=" M 106.17882145 183.607685092 L 350.57053326021355 183.607685092" stroke-miterlimit="10" stroke-width="1.3612669416666667" stroke-dasharray=""/><g transform="translate(364.0198506438802,183.607685092) translate(-364.0198506438802,-183.607685092)"><path fill="black" stroke="none" paint-order="stroke fill markers" d=" M 350.4071812272135 176.80135038366666 L 364.0198506438802 183.607685092 L 350.4071812272135 190.41401980033334 Z"/></g></g><g><g><rect fill="white" stroke="none" x="143.0105744118034" y="208.110490042" width="184.17752327027344" height="21.23576429"/></g><text fill="black" stroke="none" font-family="sans-serif" font-size="11pt" font-style="normal" font-weight="normal" text-decoration="normal" x="145.46085490680338" y="222.812173012" text-anchor="start" dominant-baseline="alphabetic" xml:space="preserve">Display Update User popup</text></g><g><path fill="none" stroke="black" paint-order="fill stroke markers" d=" M 364.0198506438802 229.346254332 L 119.62813883366667 229.346254332" stroke-miterlimit="10" stroke-width="1.3612669416666667" stroke-dasharray="6.53408132"/><g transform="translate(106.17882145,229.346254332) translate(-106.17882145,-229.346254332)"><path fill="black" stroke="none" paint-order="stroke fill markers" d=" M 119.79149086666666 222.53991962366666 L 106.17882145 229.346254332 L 119.79149086666666 236.15258904033334 Z"/></g></g><g><g><rect fill="white" stroke="none" x="145.05423743670573" y="253.849059282" width="180.09019722046875" height="21.23576429"/></g><text fill="black" stroke="none" font-family="sans-serif" font-size="11pt" font-style="normal" font-weight="normal" text-decoration="normal" x="147.50451793170572" y="268.550742252" text-anchor="start" dominant-baseline="alphabetic" xml:space="preserve">Update information of User</text></g><g><path fill="none" stroke="black" paint-order="fill stroke markers" d=" M 106.17882145 275.084823572 L 350.57053326021355 275.084823572" stroke-miterlimit="10" stroke-width="1.3612669416666667" stroke-dasharray=""/><g transform="translate(364.0198506438802,275.084823572) translate(-364.0198506438802,-275.084823572)"><path fill="black" stroke="none" paint-order="stroke fill markers" d=" M 350.4071812272135 268.27848886366667 L 364.0198506438802 275.084823572 L 350.4071812272135 281.89115828033334 Z"/></g></g><g><g><rect fill="white" stroke="none" x="407.85264616554684" y="299.587628522" width="125.25842536988281" height="21.23576429"/></g><text fill="black" stroke="none" font-family="sans-serif" font-size="11pt" font-style="normal" font-weight="normal" text-decoration="normal" x="410.30292666054686" y="314.28931149199997" text-anchor="start" dominant-baseline="alphabetic" xml:space="preserve">Validate input data</text></g><g><path fill="none" stroke="black" paint-order="fill stroke markers" d=" M 380.3550539438802 320.82339281199995 L 453.8634687938802 320.82339281199995 L 453.8634687938802 342.059157102 L 401.97197297754684 342.059157102" stroke-miterlimit="10" stroke-width="1.3612669416666667" stroke-dasharray=""/><g transform="translate(388.5226555938802,342.059157102) translate(-388.5226555938802,-342.059157102)"><path fill="black" stroke="none" paint-order="stroke fill markers" d=" M 402.13532501054686 335.25282239366663 L 388.5226555938802 342.059157102 L 402.13532501054686 348.8654918103333 Z"/></g></g><g><g><rect fill="white" stroke="none" x="407.85264616554684" y="366.56196205199996" width="95.90982307496094" height="21.23576429"/></g><text fill="black" stroke="none" font-family="sans-serif" font-size="11pt" font-style="normal" font-weight="normal" text-decoration="normal" x="410.30292666054686" y="381.26364502199993" text-anchor="start" dominant-baseline="alphabetic" xml:space="preserve">Validate value</text></g><g><path fill="none" stroke="black" paint-order="fill stroke markers" d=" M 388.5226555938802 387.7977263419999 L 453.8634687938802 387.7977263419999 L 453.8634687938802 409.03349063199994 L 393.80437132754685 409.03349063199994" stroke-miterlimit="10" stroke-width="1.3612669416666667" stroke-dasharray="6.53408132"/><g transform="translate(380.3550539438802,409.03349063199994) translate(-380.3550539438802,-409.03349063199994)"><path fill="black" stroke="none" paint-order="stroke fill markers" d=" M 393.96772336054687 402.2271559236666 L 380.3550539438802 409.03349063199994 L 393.96772336054687 415.8398253403333 Z"/></g></g><g><g><rect fill="white" stroke="none" x="174.92538459246745" y="477.6413444919999" width="120.34790290894531" height="21.23576429"/></g><text fill="black" stroke="none" font-family="sans-serif" font-size="11pt" font-style="normal" font-weight="normal" text-decoration="normal" x="177.37566508746744" y="492.3430274619999" text-anchor="start" dominant-baseline="alphabetic" xml:space="preserve">Validate Message</text></g><g><path fill="none" stroke="black" paint-order="fill stroke markers" d=" M 364.0198506438802 498.87710878199994 L 119.62813883366667 498.87710878199994" stroke-miterlimit="10" stroke-width="1.3612669416666667" stroke-dasharray="6.53408132"/><g transform="translate(106.17882145,498.87710878199994) translate(-106.17882145,-498.87710878199994)"><path fill="black" stroke="none" paint-order="stroke fill markers" d=" M 119.79149086666666 492.0707740736666 L 106.17882145 498.87710878199994 L 119.79149086666666 505.6834434903333 Z"/></g></g><g><g><rect fill="white" stroke="none" x="171.9547425026237" y="547.8827186819999" width="126.28918708863281" height="21.23576429"/></g><text fill="black" stroke="none" font-family="sans-serif" font-size="11pt" font-style="normal" font-weight="normal" text-decoration="normal" x="174.4050229976237" y="562.5844016519999" text-anchor="start" dominant-baseline="alphabetic" xml:space="preserve">Search Curriculum</text></g><g><path fill="none" stroke="black" paint-order="fill stroke markers" d=" M 106.17882145 569.1184829719999 L 350.57053326021355 569.1184829719999" stroke-miterlimit="10" stroke-width="1.3612669416666667" stroke-dasharray=""/><g transform="translate(364.0198506438802,569.1184829719999) translate(-364.0198506438802,-569.1184829719999)"><path fill="black" stroke="none" paint-order="stroke fill markers" d=" M 350.4071812272135 562.3121482636666 L 364.0198506438802 569.1184829719999 L 350.4071812272135 575.9248176803333 Z"/></g></g><g><g><rect fill="white" stroke="none" x="403.7688453405468" y="593.621287922" width="35.03657783570313" height="21.23576429"/></g><g><rect fill="white" stroke="none" x="403.7688453405468" y="609.956491222" width="195.97418464722656" height="21.23576429"/></g><g><rect fill="white" stroke="none" x="403.7688453405468" y="626.291694522" width="130.8132044226172" height="21.23576429"/></g><text fill="black" stroke="none" font-family="sans-serif" font-size="11pt" font-style="normal" font-weight="normal" text-decoration="normal" x="406.21912583554683" y="608.322970892" text-anchor="start" dominant-baseline="alphabetic" xml:space="preserve">GET</text><text fill="black" stroke="none" font-family="sans-serif" font-size="11pt" font-style="normal" font-weight="normal" text-decoration="normal" x="406.21912583554683" y="624.6581741919999" text-anchor="start" dominant-baseline="alphabetic" xml:space="preserve">/api/search?entity=curriculum</text><text fill="black" stroke="none" font-family="sans-serif" font-size="11pt" font-style="normal" font-weight="normal" text-decoration="normal" x="406.21912583554683" y="640.9933774919999" text-anchor="start" dominant-baseline="alphabetic" xml:space="preserve">+ {paramToSearch}</text></g><g><path fill="none" stroke="black" paint-order="fill stroke markers" d=" M 380.3550539438802 647.527458812 L 609.7075040007734 647.527458812" stroke-miterlimit="10" stroke-width="1.3612669416666667" stroke-dasharray=""/><g transform="translate(623.15682138444,647.527458812) translate(-623.15682138444,-647.527458812)"><path fill="black" stroke="none" paint-order="stroke fill markers" d=" M 609.5441519677734 640.7211241036666 L 623.15682138444 647.527458812 L 609.5441519677734 654.3337935203333 Z"/></g></g><g><g><rect fill="white" stroke="none" x="452.8776252477734" y="672.0302637619999" width="97.75662483277344" height="21.23576429"/></g><text fill="black" stroke="none" font-family="sans-serif" font-size="11pt" font-style="normal" font-weight="normal" text-decoration="normal" x="455.3279057427734" y="686.7319467319999" text-anchor="start" dominant-baseline="alphabetic" xml:space="preserve">Curriculum list</text></g><g><path fill="none" stroke="black" paint-order="fill stroke markers" d=" M 623.15682138444 693.2660280519999 L 393.80437132754685 693.2660280519999" stroke-miterlimit="10" stroke-width="1.3612669416666667" stroke-dasharray="6.53408132"/><g transform="translate(380.3550539438802,693.2660280519999) translate(-380.3550539438802,-693.2660280519999)"><path fill="black" stroke="none" paint-order="stroke fill markers" d=" M 393.96772336054687 686.4596933436666 L 380.3550539438802 693.2660280519999 L 393.96772336054687 700.0723627603332 Z"/></g></g><g><g><rect fill="white" stroke="none" x="195.98120124285808" y="761.8738819119999" width="78.23626960816406" height="21.23576429"/></g><text fill="black" stroke="none" font-family="sans-serif" font-size="11pt" font-style="normal" font-weight="normal" text-decoration="normal" x="198.43148173785806" y="776.5755648819999" text-anchor="start" dominant-baseline="alphabetic" xml:space="preserve">No Options</text></g><g><path fill="none" stroke="black" paint-order="fill stroke markers" d=" M 364.0198506438802 783.1096462019999 L 119.62813883366667 783.1096462019999" stroke-miterlimit="10" stroke-width="1.3612669416666667" stroke-dasharray="6.53408132"/><g transform="translate(106.17882145,783.1096462019999) translate(-106.17882145,-783.1096462019999)"><path fill="black" stroke="none" paint-order="stroke fill markers" d=" M 119.79149086666666 776.3033114936666 L 106.17882145 783.1096462019999 L 119.79149086666666 789.9159809103332 Z"/></g></g><g><g><rect fill="white" stroke="none" x="160.54816443865886" y="851.7175000619998" width="149.1023432165625" height="21.23576429"/></g><text fill="black" stroke="none" font-family="sans-serif" font-size="11pt" font-style="normal" font-weight="normal" text-decoration="normal" x="162.99844493365885" y="866.4191830319998" text-anchor="start" dominant-baseline="alphabetic" xml:space="preserve">Curriculum options list</text></g><g><path fill="none" stroke="black" paint-order="fill stroke markers" d=" M 364.0198506438802 872.9532643519998 L 119.62813883366667 872.9532643519998" stroke-miterlimit="10" stroke-width="1.3612669416666667" stroke-dasharray="6.53408132"/><g transform="translate(106.17882145,872.9532643519998) translate(-106.17882145,-872.9532643519998)"><path fill="black" stroke="none" paint-order="stroke fill markers" d=" M 119.79149086666666 866.1469296436665 L 106.17882145 872.9532643519998 L 119.79149086666666 879.7595990603331 Z"/></g></g><g><g><rect fill="white" stroke="none" x="125.50881202166666" y="897.4560693019997" width="219.18104805054688" height="21.23576429"/></g><text fill="black" stroke="none" font-family="sans-serif" font-size="11pt" font-style="normal" font-weight="normal" text-decoration="normal" x="127.95909251666666" y="912.1577522719997" text-anchor="start" dominant-baseline="alphabetic" xml:space="preserve">Select Curriculum and click Save</text></g><g><path fill="none" stroke="black" paint-order="fill stroke markers" d=" M 106.17882145 918.6918335919997 L 350.57053326021355 918.6918335919997" stroke-miterlimit="10" stroke-width="1.3612669416666667" stroke-dasharray=""/><g transform="translate(364.0198506438802,918.6918335919997) translate(-364.0198506438802,-918.6918335919997)"><path fill="black" stroke="none" paint-order="stroke fill markers" d=" M 350.4071812272135 911.8854988836664 L 364.0198506438802 918.6918335919997 L 350.4071812272135 925.4981683003331 Z"/></g></g><g><g><rect fill="white" stroke="none" x="519.7960784416855" y="943.1946385419997" width="96.96925605835938" height="21.23576429"/></g><text fill="black" stroke="none" font-family="sans-serif" font-size="11pt" font-style="normal" font-weight="normal" text-decoration="normal" x="522.2463589366855" y="957.8963215119996" text-anchor="start" dominant-baseline="alphabetic" xml:space="preserve">PUT: /api/user</text></g><g><path fill="none" stroke="black" paint-order="fill stroke markers" d=" M 380.3550539438802 964.4304028319997 L 742.7570416141835 964.4304028319997" stroke-miterlimit="10" stroke-width="1.3612669416666667" stroke-dasharray=""/><g transform="translate(756.2063589978502,964.4304028319997) translate(-756.2063589978502,-964.4304028319997)"><path fill="black" stroke="none" paint-order="stroke fill markers" d=" M 742.5936895811835 957.6240681236663 L 756.2063589978502 964.4304028319997 L 742.5936895811835 971.236737540333 Z"/></g></g><g><g><rect fill="white" stroke="none" x="483.1282546501816" y="1033.0382566919995" width="149.11673225464844" height="21.23576429"/></g><g><rect fill="white" stroke="none" x="483.1282546501816" y="1049.3734599919997" width="170.3049036413672" height="21.23576429"/></g><text fill="red" stroke="none" font-family="sans-serif" font-size="11pt" font-style="normal" font-weight="normal" text-decoration="normal" x="485.5785351451816" y="1047.7399396619996" text-anchor="start" dominant-baseline="alphabetic" xml:space="preserve">400 BAD_REQUEST: </text><text fill="red" stroke="none" font-family="sans-serif" font-size="11pt" font-style="normal" font-weight="normal" text-decoration="normal" x="485.5785351451816" y="1064.0751429619997" text-anchor="start" dominant-baseline="alphabetic" xml:space="preserve">Missing required property</text></g><g><path fill="none" stroke="black" paint-order="fill stroke markers" d=" M 756.2063589978502 1070.6092242819996 L 393.80437132754685 1070.6092242819996" stroke-miterlimit="10" stroke-width="1.3612669416666667" stroke-dasharray="6.53408132"/><g transform="translate(380.3550539438802,1070.6092242819996) translate(-380.3550539438802,-1070.6092242819996)"><path fill="black" stroke="none" paint-order="stroke fill markers" d=" M 393.96772336054687 1063.8028895736663 L 380.3550539438802 1070.6092242819996 L 393.96772336054687 1077.4155589903328 Z"/></g></g><g><g><rect fill="white" stroke="none" x="166.64694220965495" y="1095.1120292319997" width="136.90478767457031" height="21.23576429"/></g><text fill="black" stroke="none" font-family="sans-serif" font-size="11pt" font-style="normal" font-weight="normal" text-decoration="normal" x="169.09722270465494" y="1109.8137122019998" text-anchor="start" dominant-baseline="alphabetic" xml:space="preserve">Message is required</text></g><g><path fill="none" stroke="black" paint-order="fill stroke markers" d=" M 364.0198506438802 1116.3477935219996 L 119.62813883366667 1116.3477935219996" stroke-miterlimit="10" stroke-width="1.3612669416666667" stroke-dasharray="6.53408132"/><g transform="translate(106.17882145,1116.3477935219996) translate(-106.17882145,-1116.3477935219996)"><path fill="black" stroke="none" paint-order="stroke fill markers" d=" M 119.79149086666666 1109.5414588136664 L 106.17882145 1116.3477935219996 L 119.79149086666666 1123.1541282303328 Z"/></g></g><g><g><rect fill="white" stroke="none" x="806.5673383919778" y="1184.9556473819998" width="68.4294916540625" height="21.23576429"/></g><text fill="black" stroke="none" font-family="sans-serif" font-size="11pt" font-style="normal" font-weight="normal" text-decoration="normal" x="809.0176188869779" y="1199.657330352" text-anchor="start" dominant-baseline="alphabetic" xml:space="preserve">isExist(id)</text></g><g><path fill="none" stroke="black" paint-order="fill stroke markers" d=" M 772.5415622978503 1206.1914116719997 L 895.5732887565013 1206.1914116719997" stroke-miterlimit="10" stroke-width="1.3612669416666667" stroke-dasharray=""/><g transform="translate(909.0226061401679,1206.1914116719997) translate(-909.0226061401679,-1206.1914116719997)"><path fill="black" stroke="none" paint-order="stroke fill markers" d=" M 895.4099367235012 1199.3850769636665 L 909.0226061401679 1206.1914116719997 L 895.4099367235012 1212.997746380333 Z"/></g></g><g><g><rect fill="white" stroke="none" x="947.157389245233" y="1230.6942166219999" width="92.8818842321875" height="21.23576429"/></g><text fill="black" stroke="none" font-family="sans-serif" font-size="11pt" font-style="normal" font-weight="normal" text-decoration="normal" x="949.6076697402331" y="1245.395899592" text-anchor="start" dominant-baseline="alphabetic" xml:space="preserve">existsById(id)</text></g><g><path fill="none" stroke="black" paint-order="fill stroke markers" d=" M 925.357809440168 1251.9299809119998 L 1048.3895358988188 1251.9299809119998" stroke-miterlimit="10" stroke-width="1.3612669416666667" stroke-dasharray=""/><g transform="translate(1061.8388532824856,1251.9299809119998) translate(-1061.8388532824856,-1251.9299809119998)"><path fill="black" stroke="none" paint-order="stroke fill markers" d=" M 1048.226183865819 1245.1236462036666 L 1061.8388532824856 1251.9299809119998 L 1048.226183865819 1258.736315620333 Z"/></g></g><g><g><rect fill="white" stroke="none" x="944.6878000118346" y="1276.432785862" width="97.82106269898438" height="21.23576429"/></g><text fill="black" stroke="none" font-family="sans-serif" font-size="11pt" font-style="normal" font-weight="normal" text-decoration="normal" x="947.1380805068346" y="1291.134468832" text-anchor="start" dominant-baseline="alphabetic" xml:space="preserve">Boolean value</text></g><g><path fill="none" stroke="black" paint-order="fill stroke markers" d=" M 1061.8388532824856 1297.6685501519999 L 938.8071268238347 1297.6685501519999" stroke-miterlimit="10" stroke-width="1.3612669416666667" stroke-dasharray="6.53408132"/><g transform="translate(925.357809440168,1297.6685501519999) translate(-925.357809440168,-1297.6685501519999)"><path fill="black" stroke="none" paint-order="stroke fill markers" d=" M 938.9704788568347 1290.8622154436666 L 925.357809440168 1297.6685501519999 L 938.9704788568347 1304.474884860333 Z"/></g></g><g><g><rect fill="white" stroke="none" x="791.8715528695169" y="1322.171355102" width="97.82106269898438" height="21.23576429"/></g><text fill="black" stroke="none" font-family="sans-serif" font-size="11pt" font-style="normal" font-weight="normal" text-decoration="normal" x="794.3218333645169" y="1336.873038072" text-anchor="start" dominant-baseline="alphabetic" xml:space="preserve">Boolean value</text></g><g><path fill="none" stroke="black" paint-order="fill stroke markers" d=" M 909.0226061401679 1343.407119392 L 785.990879681517 1343.407119392" stroke-miterlimit="10" stroke-width="1.3612669416666667" stroke-dasharray="6.53408132"/><g transform="translate(772.5415622978503,1343.407119392) translate(-772.5415622978503,-1343.407119392)"><path fill="black" stroke="none" paint-order="stroke fill markers" d=" M 786.154231714517 1336.6007846836667 L 772.5415622978503 1343.407119392 L 786.154231714517 1350.2134541003331 Z"/></g></g><g><g><rect fill="white" stroke="none" x="507.9957625847519" y="1412.0149732520001" width="120.56988777222656" height="21.23576429"/></g><text fill="red" stroke="none" font-family="sans-serif" font-size="11pt" font-style="normal" font-weight="normal" text-decoration="normal" x="510.4460430797519" y="1426.7166562220002" text-anchor="start" dominant-baseline="alphabetic" xml:space="preserve">404 NOT FOUND</text></g><g><path fill="none" stroke="black" paint-order="fill stroke markers" d=" M 756.2063589978502 1433.250737542 L 393.80437132754685 1433.250737542" stroke-miterlimit="10" stroke-width="1.3612669416666667" stroke-dasharray="6.53408132"/><g transform="translate(380.3550539438802,1433.250737542) translate(-380.3550539438802,-1433.250737542)"><path fill="black" stroke="none" paint-order="stroke fill markers" d=" M 393.96772336054687 1426.4444028336668 L 380.3550539438802 1433.250737542 L 393.96772336054687 1440.0570722503332 Z"/></g></g><g><g><rect fill="white" stroke="none" x="191.48944098895183" y="1457.7535424920002" width="87.21979011597656" height="21.23576429"/></g><text fill="black" stroke="none" font-family="sans-serif" font-size="11pt" font-style="normal" font-weight="normal" text-decoration="normal" x="193.9397214839518" y="1472.4552254620003" text-anchor="start" dominant-baseline="alphabetic" xml:space="preserve">Close popup</text></g><g><path fill="none" stroke="black" paint-order="fill stroke markers" d=" M 364.0198506438802 1478.989306782 L 119.62813883366667 1478.989306782" stroke-miterlimit="10" stroke-width="1.3612669416666667" stroke-dasharray="6.53408132"/><g transform="translate(106.17882145,1478.989306782) translate(-106.17882145,-1478.989306782)"><path fill="black" stroke="none" paint-order="stroke fill markers" d=" M 119.79149086666666 1472.1829720736669 L 106.17882145 1478.989306782 L 119.79149086666666 1485.7956414903333 Z"/></g></g><g><g><rect fill="white" stroke="none" x="165.82731635516276" y="1503.4921117320002" width="138.5440393835547" height="21.23576429"/></g><text fill="black" stroke="none" font-family="sans-serif" font-size="11pt" font-style="normal" font-weight="normal" text-decoration="normal" x="168.27759685016275" y="1518.1937947020003" text-anchor="start" dominant-baseline="alphabetic" xml:space="preserve">Message Update fail</text></g><g><path fill="none" stroke="black" paint-order="fill stroke markers" d=" M 364.0198506438802 1524.7278760220001 L 119.62813883366667 1524.7278760220001" stroke-miterlimit="10" stroke-width="1.3612669416666667" stroke-dasharray="6.53408132"/><g transform="translate(106.17882145,1524.7278760220001) translate(-106.17882145,-1524.7278760220001)"><path fill="black" stroke="none" paint-order="stroke fill markers" d=" M 119.79149086666666 1517.921541313667 L 106.17882145 1524.7278760220001 L 119.79149086666666 1531.5342107303334 Z"/></g></g><g><g><rect fill="white" stroke="none" x="817.9667524544778" y="1593.3357298820004" width="45.6306635290625" height="21.23576429"/></g><text fill="black" stroke="none" font-family="sans-serif" font-size="11pt" font-style="normal" font-weight="normal" text-decoration="normal" x="820.4170329494779" y="1608.0374128520004" text-anchor="start" dominant-baseline="alphabetic" xml:space="preserve">save()</text></g><g><path fill="none" stroke="black" paint-order="fill stroke markers" d=" M 772.5415622978503 1614.5714941720003 L 895.5732887565013 1614.5714941720003" stroke-miterlimit="10" stroke-width="1.3612669416666667" stroke-dasharray=""/><g transform="translate(909.0226061401679,1614.5714941720003) translate(-909.0226061401679,-1614.5714941720003)"><path fill="black" stroke="none" paint-order="stroke fill markers" d=" M 895.4099367235012 1607.765159463667 L 909.0226061401679 1614.5714941720003 L 895.4099367235012 1621.3778288803335 Z"/></g></g><g><g><rect fill="white" stroke="none" x="949.999170861444" y="1639.0742991220004" width="87.19832099976563" height="21.23576429"/></g><text fill="black" stroke="none" font-family="sans-serif" font-size="11pt" font-style="normal" font-weight="normal" text-decoration="normal" x="952.449451356444" y="1653.7759820920005" text-anchor="start" dominant-baseline="alphabetic" xml:space="preserve">Update User</text></g><g><path fill="none" stroke="black" paint-order="fill stroke markers" d=" M 925.357809440168 1660.3100634120003 L 1048.3895358988188 1660.3100634120003" stroke-miterlimit="10" stroke-width="1.3612669416666667" stroke-dasharray=""/><g transform="translate(1061.8388532824856,1660.3100634120003) translate(-1061.8388532824856,-1660.3100634120003)"><path fill="black" stroke="none" paint-order="stroke fill markers" d=" M 1048.226183865819 1653.503728703667 L 1061.8388532824856 1660.3100634120003 L 1048.226183865819 1667.1163981203335 Z"/></g></g><g><g><rect fill="white" stroke="none" x="956.1158548214049" y="1684.8128683620005" width="74.96495307984375" height="21.23576429"/></g><text fill="black" stroke="none" font-family="sans-serif" font-size="11pt" font-style="normal" font-weight="normal" text-decoration="normal" x="958.5661353164049" y="1699.5145513320006" text-anchor="start" dominant-baseline="alphabetic" xml:space="preserve">User entity</text></g><g><path fill="none" stroke="black" paint-order="fill stroke markers" d=" M 1061.8388532824856 1706.0486326520004 L 938.8071268238347 1706.0486326520004" stroke-miterlimit="10" stroke-width="1.3612669416666667" stroke-dasharray="6.53408132"/><g transform="translate(925.357809440168,1706.0486326520004) translate(-925.357809440168,-1706.0486326520004)"><path fill="black" stroke="none" paint-order="stroke fill markers" d=" M 938.9704788568347 1699.2422979436672 L 925.357809440168 1706.0486326520004 L 938.9704788568347 1712.8549673603336 Z"/></g></g><g><g><rect fill="white" stroke="none" x="803.2996076790872" y="1730.5514376020005" width="74.96495307984375" height="21.23576429"/></g><text fill="black" stroke="none" font-family="sans-serif" font-size="11pt" font-style="normal" font-weight="normal" text-decoration="normal" x="805.7498881740872" y="1745.2531205720006" text-anchor="start" dominant-baseline="alphabetic" xml:space="preserve">User entity</text></g><g><path fill="none" stroke="black" paint-order="fill stroke markers" d=" M 909.0226061401679 1751.7872018920004 L 785.990879681517 1751.7872018920004" stroke-miterlimit="10" stroke-width="1.3612669416666667" stroke-dasharray="6.53408132"/><g transform="translate(772.5415622978503,1751.7872018920004) translate(-772.5415622978503,-1751.7872018920004)"><path fill="black" stroke="none" paint-order="stroke fill markers" d=" M 786.154231714517 1744.9808671836672 L 772.5415622978503 1751.7872018920004 L 786.154231714517 1758.5935366003337 Z"/></g></g><g><g><rect fill="white" stroke="none" x="477.0043990593613" y="1776.2900068420004" width="54.61422981324219" height="21.23576429"/></g><g><rect fill="white" stroke="none" x="477.0043990593613" y="1792.6252101420005" width="182.55261482300781" height="21.23576429"/></g><text fill="green" stroke="none" font-family="sans-serif" font-size="11pt" font-style="normal" font-weight="normal" text-decoration="normal" x="479.4546795543613" y="1790.9916898120005" text-anchor="start" dominant-baseline="alphabetic" xml:space="preserve">200 OK</text><text fill="green" stroke="none" font-family="sans-serif" font-size="11pt" font-style="normal" font-weight="normal" text-decoration="normal" x="479.4546795543613" y="1807.3268931120006" text-anchor="start" dominant-baseline="alphabetic" xml:space="preserve">Response body: User data </text></g><g><path fill="none" stroke="black" paint-order="fill stroke markers" d=" M 756.2063589978502 1813.8609744320004 L 393.80437132754685 1813.8609744320004" stroke-miterlimit="10" stroke-width="1.3612669416666667" stroke-dasharray="6.53408132"/><g transform="translate(380.3550539438802,1813.8609744320004) translate(-380.3550539438802,-1813.8609744320004)"><path fill="black" stroke="none" paint-order="stroke fill markers" d=" M 393.96772336054687 1807.0546397236672 L 380.3550539438802 1813.8609744320004 L 393.96772336054687 1820.6673091403336 Z"/></g></g><g><g><rect fill="white" stroke="none" x="151.16376502459636" y="1838.3637793820003" width="167.8711420446875" height="21.23576429"/></g><g><rect fill="white" stroke="none" x="151.16376502459636" y="1854.6989826820004" width="164.62849678101563" height="21.23576429"/></g><text fill="black" stroke="none" font-family="sans-serif" font-size="11pt" font-style="normal" font-weight="normal" text-decoration="normal" x="153.61404551959635" y="1853.0654623520004" text-anchor="start" dominant-baseline="alphabetic" xml:space="preserve">Display User detail page </text><text fill="black" stroke="none" font-family="sans-serif" font-size="11pt" font-style="normal" font-weight="normal" text-decoration="normal" x="153.61404551959635" y="1869.4006656520005" text-anchor="start" dominant-baseline="alphabetic" xml:space="preserve">with updated information</text></g><g><path fill="none" stroke="black" paint-order="fill stroke markers" d=" M 364.0198506438802 1875.9347469720003 L 119.62813883366667 1875.9347469720003" stroke-miterlimit="10" stroke-width="1.3612669416666667" stroke-dasharray="6.53408132"/><g transform="translate(106.17882145,1875.9347469720003) translate(-106.17882145,-1875.9347469720003)"><path fill="black" stroke="none" paint-order="stroke fill markers" d=" M 119.79149086666666 1869.128412263667 L 106.17882145 1875.9347469720003 L 119.79149086666666 1882.7410816803335 Z"/></g></g><g><g/><path fill="none" stroke="black" paint-order="fill stroke markers" d=" M 49.0056099 433.5362955819999 L 429.3606638438802 433.5362955819999 L 429.3606638438802 523.379913732 L 49.0056099 523.379913732 L 49.0056099 433.5362955819999 Z" stroke-miterlimit="10" stroke-width="2.3336004714285714" stroke-dasharray=""/><path fill="white" stroke="black" paint-order="fill stroke markers" d=" M 49.0056099 433.5362955819999 L 49.0056099 453.13853954199993 L 95.36481349707032 453.13853954199993 L 105.16593547707032 443.3374175619999 L 105.16593547707032 433.5362955819999 L 49.0056099 433.5362955819999" stroke-miterlimit="10" stroke-width="2.3336004714285714" stroke-dasharray=""/><text fill="black" stroke="none" font-family="sans-serif" font-size="8.8pt" font-style="normal" font-weight="bold" text-decoration="normal" x="65.3408132" y="446.60445822199995" text-anchor="start" dominant-baseline="alphabetic" xml:space="preserve">alt</text><g><rect fill="white" stroke="none" x="119.05085828207032" y="434.84311184599994" width="151.5138880163672" height="16.988611432000003"/></g><text fill="black" stroke="none" font-family="sans-serif" font-size="8.8pt" font-style="normal" font-weight="bold" text-decoration="normal" x="121.50113877707032" y="446.60445822199995" text-anchor="start" dominant-baseline="alphabetic" xml:space="preserve">[If the input data is wrong]</text></g><g><g/><path fill="none" stroke="black" paint-order="fill stroke markers" d=" M 16.335203300000003 717.768833002 L 1159.8500730824858 717.768833002 L 1159.8500730824858 1949.443161822 L 16.335203300000003 1949.443161822 L 16.335203300000003 717.768833002 Z" stroke-miterlimit="10" stroke-width="2.3336004714285714" stroke-dasharray=""/><path fill="white" stroke="black" paint-order="fill stroke markers" d=" M 16.335203300000003 717.768833002 L 16.335203300000003 737.371076962 L 62.694406897070316 737.371076962 L 72.49552887707031 727.5699549819999 L 72.49552887707031 717.768833002 L 16.335203300000003 717.768833002" stroke-miterlimit="10" stroke-width="2.3336004714285714" stroke-dasharray=""/><text fill="black" stroke="none" font-family="sans-serif" font-size="8.8pt" font-style="normal" font-weight="bold" text-decoration="normal" x="32.67040660000001" y="730.8369956419999" text-anchor="start" dominant-baseline="alphabetic" xml:space="preserve">alt</text><g><rect fill="white" stroke="none" x="86.38045168207032" y="719.0756492659999" width="266.8835321814062" height="16.988611432000003"/></g><text fill="black" stroke="none" font-family="sans-serif" font-size="8.8pt" font-style="normal" font-weight="bold" text-decoration="normal" x="88.83073217707032" y="730.8369956419999" text-anchor="start" dominant-baseline="alphabetic" xml:space="preserve">[If there is no curriculum match with condition]</text><g><path fill="none" stroke="black" paint-order="fill stroke markers" d=" M 16.335203300000003 807.6124511519998 L 1159.8500730824858 807.6124511519998" stroke-miterlimit="10" stroke-width="2.3336004714285714" stroke-dasharray="4.083800825"/></g><g/><g><rect fill="white" stroke="none" x="86.38045168207032" y="808.9192674159998" width="36.84300483765625" height="16.988611432000003"/></g><text fill="black" stroke="none" font-family="sans-serif" font-size="8.8pt" font-style="normal" font-weight="bold" text-decoration="normal" x="88.83073217707032" y="820.6806137919998" text-anchor="start" dominant-baseline="alphabetic" xml:space="preserve">[Else]</text></g><g/><g><g/><path fill="none" stroke="black" paint-order="fill stroke markers" d=" M 32.67040660000001 988.9332077819996 L 1143.5148697824857 988.9332077819996 L 1143.5148697824857 1924.9403568720002 L 32.67040660000001 1924.9403568720002 L 32.67040660000001 988.9332077819996 Z" stroke-miterlimit="10" stroke-width="2.3336004714285714" stroke-dasharray=""/><path fill="white" stroke="black" paint-order="fill stroke markers" d=" M 32.67040660000001 988.9332077819996 L 32.67040660000001 1008.5354517419996 L 79.02961019707033 1008.5354517419996 L 88.83073217707033 998.7343297619996 L 88.83073217707033 988.9332077819996 L 32.67040660000001 988.9332077819996" stroke-miterlimit="10" stroke-width="2.3336004714285714" stroke-dasharray=""/><text fill="black" stroke="none" font-family="sans-serif" font-size="8.8pt" font-style="normal" font-weight="bold" text-decoration="normal" x="49.00560990000001" y="1002.0013704219996" text-anchor="start" dominant-baseline="alphabetic" xml:space="preserve">alt</text><g><rect fill="white" stroke="none" x="102.71565498207033" y="990.2400240459996" width="244.7581049353125" height="16.988611432000003"/></g><text fill="black" stroke="none" font-family="sans-serif" font-size="8.8pt" font-style="normal" font-weight="bold" text-decoration="normal" x="105.16593547707033" y="1002.0013704219996" text-anchor="start" dominant-baseline="alphabetic" xml:space="preserve">[If there is required field do not have value]</text><g><path fill="none" stroke="black" paint-order="fill stroke markers" d=" M 32.67040660000001 1140.8505984719998 L 1143.5148697824857 1140.8505984719998" stroke-miterlimit="10" stroke-width="2.3336004714285714" stroke-dasharray="4.083800825"/></g><g/><g><rect fill="white" stroke="none" x="102.71565498207033" y="1142.1574147359997" width="36.84300483765625" height="16.988611432000003"/></g><text fill="black" stroke="none" font-family="sans-serif" font-size="8.8pt" font-style="normal" font-weight="bold" text-decoration="normal" x="105.16593547707033" y="1153.9187611119996" text-anchor="start" dominant-baseline="alphabetic" xml:space="preserve">[Else]</text></g><g/><g><g/><path fill="none" stroke="black" paint-order="fill stroke markers" d=" M 49.0056099 1367.909924342 L 1127.1796664824856 1367.909924342 L 1127.1796664824856 1900.4375519220002 L 49.0056099 1900.4375519220002 L 49.0056099 1367.909924342 Z" stroke-miterlimit="10" stroke-width="2.3336004714285714" stroke-dasharray=""/><path fill="white" stroke="black" paint-order="fill stroke markers" d=" M 49.0056099 1367.909924342 L 49.0056099 1387.512168302 L 95.36481349707032 1387.512168302 L 105.16593547707032 1377.7110463220001 L 105.16593547707032 1367.909924342 L 49.0056099 1367.909924342" stroke-miterlimit="10" stroke-width="2.3336004714285714" stroke-dasharray=""/><text fill="black" stroke="none" font-family="sans-serif" font-size="8.8pt" font-style="normal" font-weight="bold" text-decoration="normal" x="65.3408132" y="1380.978086982" text-anchor="start" dominant-baseline="alphabetic" xml:space="preserve">alt</text><g><rect fill="white" stroke="none" x="119.05085828207032" y="1369.216740606" width="112.44639839234375" height="16.988611432000003"/></g><text fill="black" stroke="none" font-family="sans-serif" font-size="8.8pt" font-style="normal" font-weight="bold" text-decoration="normal" x="121.50113877707032" y="1380.978086982" text-anchor="start" dominant-baseline="alphabetic" xml:space="preserve">[If user is not exist]</text><g><path fill="none" stroke="black" paint-order="fill stroke markers" d=" M 49.0056099 1549.2306809720003 L 1127.1796664824856 1549.2306809720003" stroke-miterlimit="10" stroke-width="2.3336004714285714" stroke-dasharray="4.083800825"/></g><g/><g><rect fill="white" stroke="none" x="119.05085828207032" y="1550.5374972360003" width="36.84300483765625" height="16.988611432000003"/></g><text fill="black" stroke="none" font-family="sans-serif" font-size="8.8pt" font-style="normal" font-weight="bold" text-decoration="normal" x="121.50113877707032" y="1562.2988436120002" text-anchor="start" dominant-baseline="alphabetic" xml:space="preserve">[Else]</text></g><g/></g></g></svg>