<svg version="1.1" xmlns="http://www.w3.org/2000/svg" xmlns:xlink="http://www.w3.org/1999/xlink" width="959" height="1087"><desc>title%20Delete%20User%0A%0Aactor%20%23green%3A0.5%20%22Workspace%20Admin%22%20as%20w%0Aboundary%20%22User%20list%20page%22%20as%20f%0Aparticipant%20%22User%20Controller%22%20as%20gc%0Aparticipant%20%22User%20Service%22%20as%20gs%0Adatabase%20%23blue%3A1%20%22Database%22%20as%20db%0A%0Aw-%3Ef%3AClick%20Delete%20button%0Aactivate%20f%0Aw%3C--f%3ADisplay%20delete%20User%20%5Cnconfirmation%20popup%0Aw-%3Ef%3AClick%20Deactive%20button%0Af-%3Egc%3ADELETE%3A%20%2Fapi%2Fuser%2F%7Bid%7D%0Aactivate%20gc%0Agc-%3Egs%3AisExist(id)%0Aactivate%20gs%0Ags-%3Edb%3AexistsById(id)%0Aactivate%20db%0Ags%3C--db%3A%20Boolean%20value%0Adeactivate%20db%0Agc%3C--gs%3ABoolean%20value%0Adeactivate%20gs%0Aalt%20If%20user%20is%20not%20exist%0Af%3C--gc%3A%3Ccolor%3A%23red%3E404%20NOT%20FOUND%3C%2Fcolor%3E%0Aw%3C--f%3A%20Message%20Delete%20fail%0Aelse%20Else%0Agc-%3Egs%3Ainactivate(id)%0Aactivate%20gs%0Ags-%3Edb%3AupdateIsActive(id%2C%20false)%0Aactivate%20db%0Ags%3C--db%3A%0Adeactivate%20db%0Agc%3C--gs%3A%0Adeactivate%20gs%0Af%3C--gc%3A%3Ccolor%3A%23green%3E200%20OK%5CnResponse%20body%3A%20User%20data%20%3C%2Fcolor%3E%0Adeactivate%20gc%0Aw%3C--f%3A%20Display%20User%20list%20page%20%5Cnwithout%20deleted%20User%0Adeactivate%20f%0Aend</desc><defs/><g><g/><g/><g/><g/><g/><g/><g/><g/><g/><g/><g/><g/><g/><g/><g/><g/><g/><g/><g/><g/><g/><g/><g/><g/><g><rect fill="white" stroke="none" x="0" y="0" width="959" height="1087"/></g><g><text fill="black" stroke="none" font-family="sans-serif" font-size="16.5pt" font-style="normal" font-weight="normal" text-decoration="normal" x="421.6537799232096" y="24.50280495" text-anchor="start" dominant-baseline="alphabetic" xml:space="preserve">Delete User</text></g><g/><g><path fill="none" stroke="black" paint-order="fill stroke markers" d=" M 73.50841485 128.884754037 L 73.50841485 1087.7611877469997" stroke-miterlimit="10" stroke-width="1.3612669416666667" stroke-dasharray="12.565541,5.445067766666667"/><path fill="none" stroke="black" paint-order="fill stroke markers" d=" M 271.0775773100911 128.884754037 L 271.0775773100911 1087.7611877469997" stroke-miterlimit="10" stroke-width="1.3612669416666667" stroke-dasharray="12.565541,5.445067766666667"/><path fill="none" stroke="black" paint-order="fill stroke markers" d=" M 508.62537657643225 128.884754037 L 508.62537657643225 1087.7611877469997" stroke-miterlimit="10" stroke-width="1.3612669416666667" stroke-dasharray="12.565541,5.445067766666667"/><path fill="none" stroke="black" paint-order="fill stroke markers" d=" M 661.44162371875 128.884754037 L 661.44162371875 1087.7611877469997" stroke-miterlimit="10" stroke-width="1.3612669416666667" stroke-dasharray="12.565541,5.445067766666667"/><path fill="none" stroke="black" paint-order="fill stroke markers" d=" M 877.7868167839192 128.884754037 L 877.7868167839192 1087.7611877469997" stroke-miterlimit="10" stroke-width="1.3612669416666667" stroke-dasharray="12.565541,5.445067766666667"/></g><g><g><path fill="white" stroke="green" paint-order="fill stroke markers" d=" M 82.819480731 59.786844078 A 9.311065881 9.311065881 0 1 1 82.81947607546743 59.77753301367084 M 73.50841485 69.097909959 L 73.50841485 89.026857985 M 61.747068473999995 76.285399411 L 85.26976122599999 76.285399411 M 73.50841485 89.026857985 L 61.747068473999995 107.648989747 M 73.50841485 89.026857985 L 85.26976122599999 107.648989747" stroke-miterlimit="10" stroke-width="1.3884922805000002" stroke-dasharray=""/></g><g><text fill="black" stroke="none" font-family="sans-serif" font-size="11pt" font-style="normal" font-weight="normal" text-decoration="normal" x="14.166991815332025" y="123.984193047" text-anchor="start" dominant-baseline="alphabetic" xml:space="preserve">Workspace Admin</text></g><g><path fill="white" stroke="black" paint-order="fill stroke markers" d=" M 303.5029558605911 82.002720566 A 24.2577769005 24.2577769005 0 1 1 303.5029437317037 81.97846279314244 M 240.0406910400911 56.356451384999986 L 240.0406910400911 107.648989747 M 238.6521987595911 82.002720566 L 254.9874020595911 82.002720566" stroke-miterlimit="10" stroke-width="2.7769845610000004" stroke-dasharray=""/></g><g><text fill="black" stroke="none" font-family="sans-serif" font-size="11pt" font-style="normal" font-weight="normal" text-decoration="normal" x="226.26371164847" y="123.984193047" text-anchor="start" dominant-baseline="alphabetic" xml:space="preserve">User list page</text></g><path fill="none" stroke="none"/><g><path fill="white" stroke="black" paint-order="fill stroke markers" d=" M 441.61394601058066 84.94305716000001 L 575.6368071422838 84.94305716000001 L 575.6368071422838 128.884754037 L 441.61394601058066 128.884754037 L 441.61394601058066 84.94305716000001 Z" stroke-miterlimit="10" stroke-width="2.613632528" stroke-dasharray=""/></g><g><text fill="black" stroke="none" font-family="sans-serif" font-size="11pt" font-style="normal" font-weight="normal" text-decoration="normal" x="459.3376415910807" y="112.54955073700002" text-anchor="start" dominant-baseline="alphabetic" xml:space="preserve">User Controller</text></g><path fill="none" stroke="none"/><g><path fill="white" stroke="black" paint-order="fill stroke markers" d=" M 601.7637655405937 84.94305716000001 L 721.1194818969062 84.94305716000001 L 721.1194818969062 128.884754037 L 601.7637655405937 128.884754037 L 601.7637655405937 84.94305716000001 Z" stroke-miterlimit="10" stroke-width="2.613632528" stroke-dasharray=""/></g><g><text fill="black" stroke="none" font-family="sans-serif" font-size="11pt" font-style="normal" font-weight="normal" text-decoration="normal" x="619.4874611210937" y="112.54955073700002" text-anchor="start" dominant-baseline="alphabetic" xml:space="preserve">User Service</text></g><g><path fill="white" stroke="blue" paint-order="fill stroke markers" d=" M 853.9374199659193 96.867755569 L 853.9374199659193 62.563828639 L 901.6362136019192 62.563828639 L 901.6362136019192 96.867755569" stroke-miterlimit="10" stroke-width="2.7769845610000004" stroke-dasharray=""/><path fill="white" stroke="blue" paint-order="fill stroke markers" d=" M 901.6362136019192 61.3713587981 L 901.6350211420155 61.47916934301662 L 901.6314438815494 61.58696910696859 L 901.6254821782442 61.69474731006935 L 901.6171366282648 61.8024931745884 L 901.6064080661596 61.91019592602908 L 901.5932975647758 62.017844794206 L 901.5778064351525 62.125429014322044 L 901.5599362263899 62.232937828044854 L 901.5396887254939 62.34036048458265 L 901.5170659571977 62.44768624175929 L 901.4920701837593 62.55490436708851 L 901.4647039047353 62.66200413884712 L 901.4349698567307 62.76897484714718 L 901.4028710131256 62.87580579500701 L 901.3684105837775 62.982486299420856 L 901.3315920147007 63.08900569242717 L 901.2924189877214 63.19535332217542 L 901.2508954201096 63.30151855399125 L 901.2070254641876 63.40749077143996 L 901.1608135069142 63.5132593773881 L 901.1122641694469 63.618813795063225 L 901.0613823066789 63.724143469111524 L 901.008173006754 63.82923786665337 L 900.9526415905577 63.93408647833659 L 900.8947936111857 64.03867881938739 L 900.8346348533876 64.1430044306588 L 900.7721713329889 64.24705287967667 L 900.7074092962897 64.35081376168277 L 900.6403552194397 64.45427670067541 L 900.5710158077908 64.55743135044686 L 900.4993979952261 64.66026739561813 L 900.4255089434674 64.7627745526704 L 900.3493560413584 64.86494257097338 L 900.2709469041256 64.96676123381039 L 900.1902893726175 65.06822035939997 L 900.10739151252 65.16930980191414 L 900.0222616135502 65.27001945249287 L 899.9349081886268 65.37033924025505 L 899.8453399730196 65.47025913330548 L 899.7535659234755 65.56976913973813 L 899.6595952173232 65.66885930863528 L 899.5634372515545 65.7675197310626 L 899.4651016418865 65.86574054106009 L 899.3645982217977 65.96351191662859 L 899.2619370415465 66.06082408071202 L 899.1571283671655 66.15766730217506 L 899.0501826794346 66.25403189677627 L 898.9411106728336 66.3499082281365 L 898.8299232544723 66.4452867087025 L 898.7166315429997 66.54015780070569 L 898.6012468674928 66.63451201711595 L 898.4837807663228 66.72833992259025 L 898.3642449860018 66.82163213441623 L 898.2426514800086 66.91437932345046 L 898.1190124075922 67.00657221505134 L 897.9933401325568 67.0982015900065 L 897.8656472220254 67.18925828545483 L 897.7359464451823 67.27973319580266 L 897.6042507719974 67.36961727363435 L 897.4705733719281 67.45890153061701 L 897.3349276126032 67.54757703839935 L 897.1973270584854 67.6356349295045 L 897.0577854695155 67.72306639821673 L 896.9163167997361 67.80986270146201 L 896.7729351958964 67.89601515968236 L 896.6276549960372 67.98151515770375 L 896.4804907280574 68.06635414559763 L 896.3314571082612 68.15052363953589 L 896.1805690398863 68.2340152226393 L 896.027841611614 68.31682054581911 L 895.8732900960597 68.39893132861202 L 895.7169299482463 68.48033936000816 L 895.558776804058 68.56103649927225 L 895.3988464786777 68.6410146767576 L 895.2371549650045 68.72026589471311 L 895.0737184320552 68.79878222808303 L 894.9085532233466 68.87655582529945 L 894.7416758552623 68.95357890906746 L 894.5731030153999 69.02984377714286 L 894.4028515609027 69.10534280310242 L 894.2309385167746 69.18006843710643 L 894.0573810741765 69.25401320665378 L 893.8821965887082 69.32716971732913 L 893.7054025786722 69.39953065354239 L 893.5270167233222 69.47108877926021 L 893.3470568610949 69.54183693872967 L 893.1655409878268 69.61176805719379 L 892.9824872549539 69.68087514159897 L 892.7979139676969 69.74915128129439 L 892.6118395832307 69.81658964872294 L 892.4242827088387 69.88318350010411 L 892.2352621000521 69.94892617610824 L 892.0447966587742 70.01381110252252 L 891.8529054313904 70.07783179090838 L 891.6596076068636 70.14098183925032 L 891.464922514815 70.20325493259614 L 891.2688696235919 70.26464484368842 L 891.0714685383197 70.32514543358717 L 890.8727389989426 70.38475065228383 L 890.6727008782489 70.44345453930622 L 890.4713741798839 70.50125122431453 L 890.2687790363499 70.55813492768844 L 890.0649357069921 70.61409996110503 L 889.8598645759738 70.66914072810756 L 889.6535861502371 70.72325172466522 L 889.4461210574527 70.77642753972344 L 889.237490043957 70.82866285574504 L 889.0277139726776 70.87995244924193 L 888.8168138210466 70.9302911912975 L 888.6048106789035 70.9796740480795 L 888.3917257463859 71.0280960813434 L 888.1775803318095 71.07555244892625 L 887.9623958495372 71.12203840523081 L 887.7461938178379 71.16754930170019 L 887.5289958567348 71.21208058728268 L 887.3108236858428 71.25562780888683 L 887.0916991221973 71.29818661182675 L 886.8716440780719 71.33975274025764 L 886.6506805587878 71.38032203760127 L 886.4288306605129 71.41989044696174 L 886.2061165680518 71.45845401153106 L 885.9825605526283 71.49600887498494 L 885.7581849696579 71.5325512818683 L 885.5330122565116 71.56807757797091 L 885.3070649302732 71.60258421069277 L 885.080365585487 71.63606772939937 L 884.8529368918986 71.66852478576672 L 884.6248015921877 71.69995213411627 L 884.3959824996945 71.73034663173934 L 884.1665024961371 71.7597052392115 L 883.9363845293251 71.78802502069648 L 883.705651610863 71.81530314423973 L 883.4743268138507 71.84153688205163 L 883.2424332705748 71.86672361078024 L 883.0099941701967 71.8908608117737 L 882.7770327564326 71.913946071332 L 882.5435723252297 71.93597708094846 L 882.3096362224367 71.95695163754044 L 882.0752478414687 71.97686764366978 L 881.8404306209687 71.99572310775245 L 881.6052080424631 72.01351614425778 L 881.3696036280135 72.03024497389691 L 881.1336409378652 72.04590792380084 L 880.8973435680905 72.06050342768764 L 880.6607351482295 72.07403002601906 L 880.4238393389269 72.08648636614654 L 880.1866798295664 72.09787120244648 L 879.9492803359012 72.1081833964447 L 879.7116645976828 72.11742191693043 L 879.4738563762871 72.12558584005929 L 879.235879452338 72.13267434944576 L 878.9977576233297 72.13868673624485 L 878.7595147012465 72.14362239922286 L 878.5211745101822 72.14748084481762 L 878.2827608839572 72.1502616871878 L 878.0442976637354 72.15196464825142 L 877.8058086956403 72.15258955771385 L 877.5673178283697 72.15213635308466 L 877.3288489108119 72.15060507968391 L 877.0904257896597 72.14799589063767 L 876.8520723070267 72.1443090468627 L 876.6138122980623 72.13954491704027 L 876.375669588569 72.1337039775794 L 876.1376679926194 72.12678681256918 L 875.8998313101746 72.11879411372033 L 875.6621833247046 72.10972668029609 L 875.4247478008101 72.09958541903224 L 875.1875484818454 72.08837134404646 L 874.950609087545 72.07608557673689 L 874.7139533116507 72.06272934567005 L 874.4776048195429 72.04830398645788 L 874.2415872458738 72.0328109416243 L 874.0059241922042 72.01625176046089 L 873.7706392246431 71.99862809887196 L 873.5357558714911 71.97994171920898 L 873.3012976208878 71.96019449009434 L 873.067287918463 71.9393883862345 L 872.8337501649916 71.91752548822251 L 872.6007077140547 71.89460798232996 L 872.368183869703 71.87063816028832 L 872.1362018841271 71.84561841905983 L 871.9047849553325 71.81955126059778 L 871.673956224819 71.79243929159627 L 871.4437387752674 71.7642852232296 L 871.2141556282309 71.73509187088118 L 870.9852297418325 71.7048621538619 L 870.7569840084706 71.67359909511825 L 870.5294412525279 71.64130582093009 L 870.3026242280906 71.6079855605979 L 870.0765556166722 71.57364164611994 L 869.8512580249452 71.53827751185906 L 869.6267539824811 71.50189669419922 L 869.4030659394972 71.46450283119185 L 869.1802162646113 71.42609966219209 L 868.9582272426052 71.38669102748484 L 868.7371210721961 71.34628086790075 L 868.5169198638167 71.30487322442208 L 868.2976456374046 71.26247223777868 L 868.0793203201994 71.21908214803388 L 867.861965744551 71.17470729416048 L 867.645603645736 71.12935211360693 L 867.4302556597836 71.08302114185344 L 867.2159433213134 71.0357190119586 L 867.0026880613802 70.987450454096 L 866.7905112053328 70.93822029508118 L 866.5794339706795 70.88803345788901 L 866.3694774649681 70.8368949611614 L 866.1606626836742 70.7848099187054 L 865.9530105081019 70.73178353898187 L 865.7465417032957 70.67782112458457 L 865.5412769159641 70.62292807170999 L 865.3372366724146 70.56710986961765 L 865.1344413765016 70.51037210008127 L 864.9329113075859 70.4527204368305 L 864.7326666185062 70.39416064498364 L 864.5337273335646 70.33469858047107 L 864.3361133465238 70.27434018944969 L 864.1398444186179 70.2130915077083 L 863.9449401765761 70.15095866006402 L 863.7514201106602 70.08794785974987 L 863.5593035727154 70.02406540779336 L 863.3686097742357 69.95931769238642 L 863.1793577844417 69.89371118824668 L 862.9915665283747 69.82725245596986 L 862.8052547850041 69.7599481413738 L 862.6204411853487 69.69180497483389 L 862.4371442106146 69.62282977060998 L 862.2553821903464 69.55302942616503 L 862.0751733005949 69.4824109214753 L 861.8965355620986 69.41098131833243 L 861.7194868384827 69.3387477596372 L 861.5440448344718 69.26571746868528 L 861.3702270941204 69.19189774844492 L 861.1980509990575 69.1172959808266 L 861.0275337667491 69.04191962594494 L 860.8586924487765 68.96577622137262 L 860.6915439291306 68.88887338138663 L 860.5261049225243 68.81121879620689 L 860.36239197272 68.73282023122718 L 860.2004214508768 68.6536855262387 L 860.0402095539115 68.573822594646 L 859.8817723028803 68.49323942267567 L 859.7251255413765 68.41194406857777 L 859.5702849339457 68.32994466181995 L 859.4172659645194 68.24724940227456 L 859.2660839348671 68.16386655939866 L 859.1167539630658 68.07980447140702 L 858.9692909819883 67.99507154443839 L 858.8237097378097 67.90967625171488 L 858.6800247885333 67.8236271326946 L 858.5382505025341 67.73693279221771 L 858.3984010571227 67.64960189964606 L 858.2604904371269 67.56164318799608 L 858.1245324334939 67.47306545306569 L 857.9905406419108 67.38387755255452 L 857.8585284614451 67.29408840517834 L 857.7285090932047 67.20370698977703 L 857.6004955390182 67.11274234441683 L 857.4745006001343 67.02120356548647 L 857.350536875942 66.92909980678756 L 857.2286167627103 66.83644027861922 L 857.1087524523489 66.74323424685704 L 856.990955931189 66.64949103202653 L 856.8752389787845 66.55522000837107 L 856.7616131667343 66.46043060291444 L 856.6500898575249 66.3651322945182 L 856.5406802033942 66.2693346129338 L 856.4333951452165 66.17304713784955 L 856.3282454114083 66.07627949793272 L 856.2252415168552 65.97904136986665 L 856.1243937618609 65.88134247738313 L 856.0257122311168 65.78319259028999 L 855.9292067926939 65.68460152349414 L 855.8348870970555 65.58557913602012 L 855.7427625760924 65.48613533002413 L 855.6528424421803 65.38628004980393 L 855.5651356872573 65.2860232808043 L 855.479651081926 65.18537504861862 L 855.3963971745758 65.08434541798623 L 855.3153822905277 64.982944491786 L 855.2366145312029 64.88118241002603 L 855.1601017733117 64.77906934882972 L 855.0858516680659 64.67661551941809 L 855.0138716404143 64.5738311670887 L 854.9441688882996 64.47072657019112 L 854.8767503819391 64.36731203909913 L 854.8116228631271 64.26359791517966 L 854.7487928445612 64.15959456975868 L 854.688266609191 64.05531240308405 L 854.6300502095895 63.95076184328555 L 854.5741494673483 63.84595334533201 L 854.5205699724949 63.74089738998592 L 854.469317082934 63.63560448275524 L 854.4203959239122 63.530085152842965 L 854.3738113875044 63.42434995209415 L 854.3295681321255 63.318409453940745 L 854.287670582064 63.2122742523443 L 854.2481229270403 63.105954960736526 L 854.2109291217866 62.99946221095797 L 854.1760928856528 62.892806652194885 L 854.1436177022331 62.78599894991426 L 854.1135068190191 62.679049784797314 L 854.0857632470738 62.57196985167143 L 854.0603897607315 62.464769858440704 L 854.0373888973195 62.357460525015114 L 854.016762956905 62.25005258223858 L 853.9985140020649 62.14255677081588 L 853.9826438576795 62.03498384023857 L 853.96915411075 61.92734454771006 L 853.9580461102397 61.81964965706991 L 853.9493209669397 61.71190993771744 L 853.9429795533567 61.6041361635348 L 853.9390225036271 61.49633911180959 L 853.9374502134524 61.38852956215717 L 853.9382628400604 61.28071829544265 L 853.941460302189 61.172916092702856 L 853.9470422800946 61.06513373406823 L 853.9550082155843 60.957381997684834 L 853.965357312071 60.84967165863649 L 853.9780885346538 60.74201348786736 L 853.9932006102209 60.6344182511048 L 854.0106920275775 60.526896707782825 L 854.0305610375963 60.41945960996616 L 854.052805653393 60.31211770127506 L 854.0774236505245 60.204881715810956 L 854.1044125672114 60.097762377083015 L 854.1337697045848 59.99077039693585 L 854.1654921269553 59.88391647447831 L 854.1995766621072 59.7772112950136 L 854.2360199016152 59.67066552897075 L 854.274818201186 59.56428983083758 L 854.3159676810217 59.45809483809524 L 854.3594642262087 59.35209117015452 L 854.4053034871288 59.24628942729389 L 854.453480879894 59.14070018959944 L 854.5039915868052 59.03533401590697 L 854.5568305568338 58.93020144274604 L 854.611992506127 58.82531298328635 L 854.6694719185356 58.72067912628645 L 854.7292630461664 58.61631033504484 L 854.7913599099562 58.51221704635366 L 854.8557563002707 58.40840966945505 L 854.9224457775246 58.30489858500019 L 854.9914216728254 58.20169414401126 L 855.0626770886412 58.098806666846365 L 855.1362048994898 57.996246442167475 L 855.2119977526514 57.894023725911595 L 855.2900480689038 57.79214874026516 L 855.3703480432806 57.69063167264185 L 855.452889645851 57.58948267466382 L 855.5376646225237 57.488711861146584 L 855.6246644958717 57.38832930908751 L 855.71388056598 57.28834505665816 L 855.8053039113162 57.18876910220045 L 855.8989253896217 57.08961140322686 L 855.9947356388267 56.99088187542464 L 856.0927250779863 56.8925903916643 L 856.1928839082382 56.794746781012314 L 856.2952021137827 56.6973608277482 L 856.3996694628845 56.60044227038614 L 856.506275508896 56.5040008007011 L 856.6150095913013 56.40804606275968 L 856.7258608367825 56.31258765195572 L 856.8388181603079 56.217635114050736 L 856.953870266239 56.12319794421941 L 857.0710056494612 56.029285586100016 L 857.1902125965336 55.93590743085011 L 857.311479186861 55.8430728162074 L 857.4347932938854 55.75079102555599 L 857.5601425862989 55.65907128699804 L 857.6875145292765 55.56792277243099 L 857.8168963857304 55.47735459663031 L 857.9482752175825 55.387375816338135 L 858.0816378870591 55.29799542935749 L 858.2169710580044 55.20922237365261 L 858.3542611972143 55.12106552645507 L 858.4934945757891 55.033533703376136 L 858.634657270507 54.94663565752517 L 858.7777351652161 54.86038007863435 L 858.9227139522462 54.77477559218967 L 859.0695791338395 54.689830758568455 L 859.2183160236002 54.60555407218327 L 859.3689097479631 54.52195396063252 L 859.5213452476816 54.439038783857704 L 859.6756072793323 54.35681683330739 L 859.831680416841 54.27529633110813 L 859.9895490530238 54.19448542924221 L 860.1491974011487 54.114392208732454 L 860.3106094965138 54.03502467883419 L 860.4737691980444 53.95639077623426 L 860.6386601899059 53.878498364257396 L 860.8052659831368 53.801355232079885 L 860.9735699172966 53.72496909395066 L 861.1435551621319 53.649347588419886 L 861.3152047192601 53.57449827757509 L 861.4885014238686 53.50042864628498 L 861.663427946431 53.42714610145097 L 861.8399667944412 53.35465797126647 L 862.0181003141613 53.28297150448409 L 862.1978106923879 53.21209386969077 L 862.3790799582328 53.14203215459092 L 862.5618899849204 53.072793365297684 L 862.7462224916006 53.00438442563227 L 862.9320590451764 52.93681217643165 L 863.119381062147 52.870083374864436 L 863.3081698104669 52.80420469375517 L 863.4984064114187 52.739182720917064 L 863.6900718415009 52.67502395849323 L 863.88314693433 52.611734822306424 L 864.0776123825576 52.54932164121754 L 864.2734487398012 52.48779065649267 L 864.470636422588 52.427148021179015 L 864.6691557123143 52.36739979948956 L 864.8689867572162 52.3085519661967 L 865.070109574356 52.25061040603471 L 865.2725040516196 52.19358091311133 L 865.476149949728 52.13746919032833 L 865.6810269042608 52.08228084881122 L 865.8871144276934 52.02802140734818 L 866.0943919114453 51.974696291838114 L 866.3028386279408 51.922310834748146 L 866.512433732682 51.87087027458034 L 866.7231562663329 51.82037975534783 L 866.934985156816 51.770844326060484 L 867.1478992214186 51.72226894021993 L 867.3618771689117 51.674658455324284 L 867.576897601679 51.62801763238236 L 867.7929390178562 51.58235113543759 L 868.0099798134817 51.5376635311016 L 868.227998284657 51.49395928809759 L 868.4469726297166 51.451242776813444 L 868.6668809514083 51.409518268864694 L 868.8877012590835 51.368789936667355 L 869.1094114708952 51.32906185302072 L 869.3319894160071 51.29033799070003 L 869.5554128368101 51.252622222059266 L 869.7796593911482 51.21591831864385 L 870.0047066545532 51.18022995081354 L 870.2305321224859 51.14556068737539 L 870.457113212588 51.11191399522683 L 870.6844272669391 51.079293239009054 L 870.9124515543232 51.047701680770494 L 871.1411632725017 51.01714247964064 L 871.3705395504933 50.98761869151416 L 871.6005574508614 50.95913326874524 L 871.8311939720076 50.93168905985244 L 872.0624260504719 50.90528880923376 L 872.2942305632392 50.87993515689227 L 872.5265843300516 50.85563063817208 L 872.7594641157258 50.83237768350481 L 872.9928466324774 50.81017861816654 L 873.2267085422492 50.78903566204531 L 873.461026459045 50.768950929419105 L 873.6957769512685 50.749926428744466 L 873.9309365440661 50.7319640624556 L 874.1664817216745 50.71506562677416 L 874.4023889297721 50.69923281152964 L 874.6386345778349 50.684467199990365 L 874.8751950414946 50.6707702687052 L 875.1120466649024 50.658143387355835 L 875.3491657630931 50.64658781861989 L 875.5865286243545 50.63610471804463 L 875.8241115125983 50.62669513393135 L 876.0618906697335 50.61836000723063 L 876.2998423180429 50.61110017144819 L 876.5379426625597 50.604916352561574 L 876.7761678934478 50.5998091689475 L 877.0144941883829 50.595779131320086 L 877.2528977149339 50.592826642679725 L 877.4913546329467 50.59095199827282 L 877.7298410969286 50.59015538556226 L 877.9683332584316 50.59043688420866 L 878.2068072684384 50.59179646606236 L 878.4452392797468 50.594233995166334 L 878.6836054493543 50.59774922776969 L 878.9218819408426 50.6023418123521 L 879.1600449267611 50.60801128965893 L 879.3980705910096 50.61475709274719 L 879.6359351312201 50.622578547042174 L 879.8736147611368 50.63147487040497 L 880.1110857129948 50.64144517321068 L 880.3483242398968 50.6524884584373 L 880.5853066181877 50.66460362176552 L 880.8220091498273 50.67778945168912 L 881.0584081647596 50.69204462963607 L 881.2944800232802 50.70736773010048 L 881.5302011183999 50.72375722078505 L 881.7655478782056 50.74121146275439 L 882.0004967682174 50.759728710598836 L 882.2350242937422 50.77930711260903 L 882.4691070022229 50.79994471096109 L 882.7027214855837 50.821639441912396 L 882.9358443825707 50.844389136007905 L 883.1684523810889 50.86819151829718 L 883.4005222205319 50.893044208561825 L 883.6320306941094 50.91894472155353 L 883.8629546511669 50.94589046724256 L 884.0932709995011 50.973878751076825 L 884.322956707669 51.00290677425126 L 884.5519888072914 51.03297163398772 L 884.7803443953491 51.064070323825305 L 885.0080006364735 51.09619973392093 L 885.2349347652303 51.129356651360375 L 885.4611240883956 51.16353776047952 L 885.6865459872259 51.198739643195935 L 885.9111779197189 51.23495877935069 L 886.1349974228685 51.27219154706035 L 886.3579821149111 51.31043422307917 L 886.5801096975631 51.349682983171405 L 886.8013579582516 51.38993390249377 L 887.0217047723347 51.43118295598788 L 887.2411281053146 51.47342601878273 L 887.459606015041 51.51665886660727 L 887.6771166539049 51.56087717621274 L 887.8936382710237 51.60607652580503 L 888.1091492144161 51.65225239548683 L 888.3236279331674 51.69940016770967 L 888.5370529795844 51.74751512773561 L 888.7494030113403 51.79659246410874 L 888.960656793609 51.84662726913632 L 889.1707932011882 51.89761453937955 L 889.3797912206122 51.949549176153894 L 889.5876299522535 52.00242598603895 L 889.7942886124117 52.0562396813978 L 889.9997465353935 52.11098488090573 L 890.2039831755774 52.16665611008844 L 890.4069781094697 52.22324780186939 L 890.6087110377463 52.28075429712656 L 890.8091617872824 52.339169845258354 L 891.00831031317 52.398488604758626 L 891.2061367007226 52.458704643800864 L 891.4026211674662 52.51981194083135 L 891.597744065118 52.581804385171296 L 891.7914858815508 52.64467577762793 L 891.9838272427442 52.708419831114405 L 892.1747489147226 52.77303017127848 L 892.3642318054777 52.83850033713999 L 892.5522569668786 52.90482378173691 L 892.7388055965657 52.97199387278003 L 892.9238590398314 53.040003893316246 L 893.1073987914857 53.108847042400164 L 893.2894064977064 53.17851643577425 L 893.4698639578745 53.24900510655722 L 893.6487531263944 53.32030600594074 L 893.8260561144981 53.39241200389429 L 894.0017551920349 53.465315889878156 L 894.1758327892433 53.5390103735645 L 894.3482714985086 53.61348808556637 L 894.5190540761035 53.68874157817461 L 894.6881634439128 53.76476332610268 L 894.8555826911404 53.84154572723915 L 895.0212950760013 53.91908110340788 L 895.1852840273949 53.99736170113587 L 895.3475331465629 54.07637969242858 L 895.5080262087286 54.156127175552726 L 895.6667471647194 54.236596175826456 L 895.8236801425719 54.3177786464168 L 895.9788094491192 54.39966646914434 L 896.1321195715601 54.48225145529506 L 896.2835951790098 54.56552534643915 L 896.4332211240339 54.6494798152569 L 896.5809824441627 54.73410646637139 L 896.7268643633872 54.81939683718802 L 896.8708522936371 54.9053423987408 L 897.0129318362393 54.99193455654518 L 897.153088783358 55.079164651457546 L 897.2913091194152 55.16702396054111 L 897.4275790224926 55.25550369793815 L 897.5618848657134 55.344595015748695 L 897.6942132186052 55.43428900491518 L 897.8245508484429 55.52457669611344 L 897.9528847215722 55.615449060649595 L 898.0792020047129 55.706897011362926 L 898.2034900662416 55.79891140353456 L 898.325736477456 55.891483035801954 L 898.4459290138167 55.98460265107904 L 898.5640556561704 56.07826093748187 L 898.680104591951 56.17244852925987 L 898.7940642163619 56.26715600773234 L 898.9059231335356 56.36237390223035 L 899.0156701576734 56.45809269104382 L 899.1232943141646 56.55430280237361 L 899.228784840683 56.65099461528878 L 899.332131188264 56.74815846068861 L 899.433323022359 56.84578462226952 L 899.5323502238689 56.943863337496715 L 899.6292028901559 57.0423847985804 L 899.7238713360342 57.14133915345658 L 899.8163460947382 57.240716506772216 L 899.906617918869 57.34050692087479 L 899.9946777813193 57.44070041680606 L 900.0805168761764 57.54128697529992 L 900.1641266196024 57.64225653778434 L 900.2454986506923 57.74359900738722 L 900.3246248323112 57.84530424994605 L 900.4014972519067 57.94736209502132 L 900.4761082223008 58.04976233691358 L 900.5484502824588 58.15249473568397 L 900.618516198235 58.25554901817823 L 900.6862989630961 58.35891487905398 L 900.7517917988221 58.46258198181127 L 900.814988156184 58.566539959826216 L 900.8758817155987 58.67077841738765 L 900.9344663877611 58.77528693073668 L 900.9907363142527 58.88005504910905 L 901.0446858681279 58.985072295780256 L 901.0963096544762 59.09032816911312 L 901.1456025109618 59.19581214360803 L 901.1925595083404 59.301513670955444 L 901.2371759509513 59.4074221810907 L 901.2794473771874 59.513527083251056 L 901.3193695599412 59.619817767034704 L 901.3569385070278 59.72628360346185 L 901.3921504615838 59.832913946037564 L 901.4250019024432 59.939698131816456 L 901.4554895444891 60.046625482468926 L 901.4836103389828 60.153685305349015 L 901.5093614738681 60.26086689456366 L 901.5327403740533 60.36815953204325 L 901.5537447016676 60.47555248861345 L 901.5723723562959 60.5830350250681 L 901.5886214751881 60.69059639324311 L 901.6024904334461 60.79822583709131 L 901.6139778441853 60.905912593758 L 901.6230825586745 61.01364589465726 L 901.6298036664497 61.12141496654876 L 901.6341404954056 61.22920903261514 L 901.6360926118632 61.337017313539604 M 901.6362136019192 95.6752857281 L 901.6350211420155 95.78309627301661 L 901.6314438815494 95.89089603696858 L 901.6254821782442 95.99867424006935 L 901.6171366282648 96.1064201045884 L 901.6064080661596 96.21412285602908 L 901.5932975647758 96.321771724206 L 901.5778064351525 96.42935594432204 L 901.5599362263899 96.53686475804484 L 901.5396887254939 96.64428741458265 L 901.5170659571977 96.75161317175929 L 901.4920701837593 96.85883129708851 L 901.4647039047353 96.96593106884711 L 901.4349698567307 97.07290177714718 L 901.4028710131256 97.17973272500701 L 901.3684105837775 97.28641322942086 L 901.3315920147007 97.39293262242717 L 901.2924189877214 97.49928025217542 L 901.2508954201096 97.60544548399125 L 901.2070254641876 97.71141770143996 L 901.1608135069142 97.8171863073881 L 901.1122641694469 97.92274072506322 L 901.0613823066789 98.02807039911151 L 901.008173006754 98.13316479665336 L 900.9526415905577 98.23801340833658 L 900.8947936111857 98.34260574938737 L 900.8346348533876 98.4469313606588 L 900.7721713329889 98.55097980967666 L 900.7074092962897 98.65474069168278 L 900.6403552194397 98.7582036306754 L 900.5710158077908 98.86135828044685 L 900.4993979952261 98.96419432561812 L 900.4255089434674 99.0667014826704 L 900.3493560413584 99.16886950097337 L 900.2709469041256 99.27068816381038 L 900.1902893726175 99.37214728939998 L 900.10739151252 99.47323673191414 L 900.0222616135502 99.57394638249288 L 899.9349081886268 99.67426617025505 L 899.8453399730196 99.77418606330548 L 899.7535659234755 99.87369606973812 L 899.6595952173232 99.97278623863527 L 899.5634372515545 100.0714466610626 L 899.4651016418865 100.1696674710601 L 899.3645982217977 100.2674388466286 L 899.2619370415465 100.36475101071201 L 899.1571283671655 100.46159423217506 L 899.0501826794346 100.55795882677627 L 898.9411106728336 100.65383515813649 L 898.8299232544723 100.74921363870249 L 898.7166315429997 100.84408473070569 L 898.6012468674928 100.93843894711594 L 898.4837807663228 101.03226685259024 L 898.3642449860018 101.12555906441622 L 898.2426514800086 101.21830625345046 L 898.1190124075922 101.31049914505132 L 897.9933401325568 101.4021285200065 L 897.8656472220254 101.49318521545483 L 897.7359464451823 101.58366012580265 L 897.6042507719974 101.67354420363434 L 897.4705733719281 101.762828460617 L 897.3349276126032 101.85150396839936 L 897.1973270584854 101.93956185950451 L 897.0577854695155 102.02699332821673 L 896.9163167997361 102.11378963146201 L 896.7729351958964 102.19994208968237 L 896.6276549960372 102.28544208770374 L 896.4804907280574 102.37028107559762 L 896.3314571082612 102.45445056953588 L 896.1805690398863 102.53794215263929 L 896.027841611614 102.6207474758191 L 895.8732900960597 102.70285825861201 L 895.7169299482463 102.78426629000816 L 895.558776804058 102.86496342927225 L 895.3988464786777 102.9449416067576 L 895.2371549650045 103.02419282471311 L 895.0737184320552 103.10270915808303 L 894.9085532233466 103.18048275529944 L 894.7416758552623 103.25750583906745 L 894.5731030153999 103.33377070714286 L 894.4028515609027 103.4092697331024 L 894.2309385167746 103.48399536710642 L 894.0573810741765 103.55794013665377 L 893.8821965887082 103.63109664732913 L 893.7054025786722 103.70345758354237 L 893.5270167233222 103.7750157092602 L 893.3470568610949 103.84576386872968 L 893.1655409878268 103.91569498719377 L 892.9824872549539 103.98480207159896 L 892.7979139676969 104.05307821129438 L 892.6118395832307 104.12051657872294 L 892.4242827088387 104.1871104301041 L 892.2352621000521 104.25285310610823 L 892.0447966587742 104.31773803252251 L 891.8529054313904 104.38175872090837 L 891.6596076068636 104.44490876925032 L 891.464922514815 104.50718186259614 L 891.2688696235919 104.5685717736884 L 891.0714685383197 104.62907236358716 L 890.8727389989426 104.68867758228383 L 890.6727008782489 104.7473814693062 L 890.4713741798839 104.80517815431453 L 890.2687790363499 104.86206185768845 L 890.0649357069921 104.91802689110501 L 889.8598645759738 104.97306765810755 L 889.6535861502371 105.02717865466522 L 889.4461210574527 105.08035446972343 L 889.237490043957 105.13258978574503 L 889.0277139726776 105.18387937924192 L 888.8168138210466 105.23421812129749 L 888.6048106789035 105.28360097807949 L 888.3917257463859 105.33202301134341 L 888.1775803318095 105.37947937892625 L 887.9623958495372 105.4259653352308 L 887.7461938178379 105.4714762317002 L 887.5289958567348 105.51600751728267 L 887.3108236858428 105.55955473888682 L 887.0916991221973 105.60211354182675 L 886.8716440780719 105.64367967025764 L 886.6506805587878 105.68424896760128 L 886.4288306605129 105.72381737696173 L 886.2061165680518 105.76238094153106 L 885.9825605526283 105.79993580498493 L 885.7581849696579 105.83647821186828 L 885.5330122565116 105.8720045079709 L 885.3070649302732 105.90651114069276 L 885.080365585487 105.93999465939936 L 884.8529368918986 105.97245171576672 L 884.6248015921877 106.00387906411626 L 884.3959824996945 106.03427356173933 L 884.1665024961371 106.0636321692115 L 883.9363845293251 106.09195195069648 L 883.705651610863 106.11923007423972 L 883.4743268138507 106.14546381205162 L 883.2424332705748 106.17065054078024 L 883.0099941701967 106.1947877417737 L 882.7770327564326 106.21787300133201 L 882.5435723252297 106.23990401094846 L 882.3096362224367 106.26087856754044 L 882.0752478414687 106.28079457366978 L 881.8404306209687 106.29965003775246 L 881.6052080424631 106.31744307425777 L 881.3696036280135 106.3341719038969 L 881.1336409378652 106.34983485380084 L 880.8973435680905 106.36443035768762 L 880.6607351482295 106.37795695601905 L 880.4238393389269 106.39041329614655 L 880.1866798295664 106.40179813244647 L 879.9492803359012 106.4121103264447 L 879.7116645976828 106.42134884693041 L 879.4738563762871 106.42951277005928 L 879.235879452338 106.43660127944577 L 878.9977576233297 106.44261366624485 L 878.7595147012465 106.44754932922287 L 878.5211745101822 106.45140777481762 L 878.2827608839572 106.45418861718778 L 878.0442976637354 106.45589157825142 L 877.8058086956403 106.45651648771386 L 877.5673178283697 106.45606328308465 L 877.3288489108119 106.4545320096839 L 877.0904257896597 106.45192282063768 L 876.8520723070267 106.44823597686269 L 876.6138122980623 106.44347184704026 L 876.375669588569 106.43763090757939 L 876.1376679926194 106.43071374256917 L 875.8998313101746 106.42272104372033 L 875.6621833247046 106.41365361029608 L 875.4247478008101 106.40351234903224 L 875.1875484818454 106.39229827404645 L 874.950609087545 106.38001250673689 L 874.7139533116507 106.36665627567004 L 874.4776048195429 106.35223091645787 L 874.2415872458738 106.33673787162431 L 874.0059241922042 106.32017869046089 L 873.7706392246431 106.30255502887195 L 873.5357558714911 106.28386864920897 L 873.3012976208878 106.26412142009434 L 873.067287918463 106.2433153162345 L 872.8337501649916 106.22145241822251 L 872.6007077140547 106.19853491232995 L 872.368183869703 106.17456509028831 L 872.1362018841271 106.14954534905984 L 871.9047849553325 106.12347819059778 L 871.673956224819 106.09636622159626 L 871.4437387752674 106.06821215322961 L 871.2141556282309 106.03901880088118 L 870.9852297418325 106.0087890838619 L 870.7569840084706 105.97752602511825 L 870.5294412525279 105.94523275093007 L 870.3026242280906 105.91191249059789 L 870.0765556166722 105.87756857611994 L 869.8512580249452 105.84220444185907 L 869.6267539824811 105.8058236241992 L 869.4030659394972 105.76842976119184 L 869.1802162646113 105.73002659219209 L 868.9582272426052 105.69061795748485 L 868.7371210721961 105.65020779790075 L 868.5169198638167 105.60880015442207 L 868.2976456374046 105.56639916777867 L 868.0793203201994 105.52300907803387 L 867.861965744551 105.47863422416049 L 867.645603645736 105.43327904360692 L 867.4302556597836 105.38694807185344 L 867.2159433213134 105.33964594195861 L 867.0026880613802 105.291377384096 L 866.7905112053328 105.24214722508117 L 866.5794339706795 105.19196038788901 L 866.3694774649681 105.1408218911614 L 866.1606626836742 105.08873684870541 L 865.9530105081019 105.03571046898188 L 865.7465417032957 104.98174805458457 L 865.5412769159641 104.92685500170998 L 865.3372366724146 104.87103679961766 L 865.1344413765016 104.81429903008126 L 864.9329113075859 104.75664736683049 L 864.7326666185062 104.69808757498365 L 864.5337273335646 104.63862551047107 L 864.3361133465238 104.57826711944969 L 864.1398444186179 104.51701843770829 L 863.9449401765761 104.45488559006402 L 863.7514201106602 104.39187478974986 L 863.5593035727154 104.32799233779335 L 863.3686097742357 104.26324462238642 L 863.1793577844417 104.19763811824667 L 862.9915665283747 104.13117938596986 L 862.8052547850041 104.0638750713738 L 862.6204411853487 103.99573190483389 L 862.4371442106146 103.92675670060999 L 862.2553821903464 103.85695635616503 L 862.0751733005949 103.7863378514753 L 861.8965355620986 103.71490824833242 L 861.7194868384827 103.64267468963719 L 861.5440448344718 103.56964439868527 L 861.3702270941204 103.4958246784449 L 861.1980509990575 103.4212229108266 L 861.0275337667491 103.34584655594495 L 860.8586924487765 103.26970315137261 L 860.6915439291306 103.19280031138662 L 860.5261049225243 103.11514572620688 L 860.36239197272 103.03674716122718 L 860.2004214508768 102.9576124562387 L 860.0402095539115 102.87774952464599 L 859.8817723028803 102.79716635267567 L 859.7251255413765 102.71587099857777 L 859.5702849339457 102.63387159181995 L 859.4172659645194 102.55117633227457 L 859.2660839348671 102.46779348939864 L 859.1167539630658 102.383731401407 L 858.9692909819883 102.29899847443839 L 858.8237097378097 102.21360318171489 L 858.6800247885333 102.12755406269459 L 858.5382505025341 102.04085972221772 L 858.3984010571227 101.95352882964605 L 858.2604904371269 101.86557011799609 L 858.1245324334939 101.77699238306569 L 857.9905406419108 101.68780448255453 L 857.8585284614451 101.59801533517833 L 857.7285090932047 101.50763391977702 L 857.6004955390182 101.41666927441683 L 857.4745006001343 101.32513049548646 L 857.350536875942 101.23302673678755 L 857.2286167627103 101.14036720861921 L 857.1087524523489 101.04716117685703 L 856.990955931189 100.95341796202653 L 856.8752389787845 100.85914693837105 L 856.7616131667343 100.76435753291443 L 856.6500898575249 100.66905922451821 L 856.5406802033942 100.5732615429338 L 856.4333951452165 100.47697406784954 L 856.3282454114083 100.3802064279327 L 856.2252415168552 100.28296829986664 L 856.1243937618609 100.18526940738312 L 856.0257122311168 100.08711952028997 L 855.9292067926939 99.98852845349413 L 855.8348870970555 99.8895060660201 L 855.7427625760924 99.79006226002413 L 855.6528424421803 99.69020697980392 L 855.5651356872573 99.5899502108043 L 855.479651081926 99.48930197861863 L 855.3963971745758 99.38827234798623 L 855.3153822905277 99.28687142178599 L 855.2366145312029 99.18510934002603 L 855.1601017733117 99.08299627882971 L 855.0858516680659 98.98054244941808 L 855.0138716404143 98.87775809708869 L 854.9441688882996 98.7746535001911 L 854.8767503819391 98.67123896909912 L 854.8116228631271 98.56752484517966 L 854.7487928445612 98.46352149975867 L 854.688266609191 98.35923933308405 L 854.6300502095895 98.25468877328554 L 854.5741494673483 98.14988027533201 L 854.5205699724949 98.04482431998592 L 854.469317082934 97.93953141275524 L 854.4203959239122 97.83401208284296 L 854.3738113875044 97.72827688209414 L 854.3295681321255 97.62233638394075 L 854.287670582064 97.5162011823443 L 854.2481229270403 97.40988189073651 L 854.2109291217866 97.30338914095798 L 854.1760928856528 97.19673358219488 L 854.1436177022331 97.08992587991426 L 854.1135068190191 96.9829767147973 L 854.0857632470738 96.87589678167143 L 854.0603897607315 96.7686967884407 L 854.0373888973195 96.66138745501512 L 854.016762956905 96.55397951223858 L 853.9985140020649 96.44648370081588 L 853.9826438576795 96.33891077023856 L 853.96915411075 96.23127147771005 L 853.9580461102397 96.1235765870699 L 853.9493209669397 96.01583686771744 L 853.9429795533567 95.90806309353479 L 853.9390225036271 95.80026604180959 L 853.9374502134524 95.69245649215716" stroke-miterlimit="10" stroke-width="2.7769845610000004" stroke-dasharray=""/></g><g><text fill="black" stroke="none" font-family="sans-serif" font-size="11pt" font-style="normal" font-weight="normal" text-decoration="normal" x="846.4088718376302" y="123.984193047" text-anchor="start" dominant-baseline="alphabetic" xml:space="preserve">Database</text></g></g><g><path fill="white" stroke="black" paint-order="fill stroke markers" d=" M 262.9099756600911 182.790924927 L 279.2451789600911 182.790924927 L 279.2451789600911 1006.0851712469998 L 262.9099756600911 1006.0851712469998 L 262.9099756600911 182.790924927" stroke-miterlimit="10" stroke-width="1.3612669416666667" stroke-dasharray=""/><path fill="white" stroke="black" paint-order="fill stroke markers" d=" M 500.45777492643225 336.341835947 L 516.7929782264323 336.341835947 L 516.7929782264323 944.0113987069998 L 500.45777492643225 944.0113987069998 L 500.45777492643225 336.341835947" stroke-miterlimit="10" stroke-width="1.3612669416666667" stroke-dasharray=""/><path fill="white" stroke="black" paint-order="fill stroke markers" d=" M 653.2740220687499 382.080405187 L 669.60922536875 382.080405187 L 669.60922536875 519.296112907 L 653.2740220687499 519.296112907 L 653.2740220687499 382.080405187" stroke-miterlimit="10" stroke-width="1.3612669416666667" stroke-dasharray=""/><path fill="white" stroke="black" paint-order="fill stroke markers" d=" M 869.6192151339192 427.818974427 L 885.9544184339193 427.818974427 L 885.9544184339193 473.557543667 L 869.6192151339192 473.557543667 L 869.6192151339192 427.818974427" stroke-miterlimit="10" stroke-width="1.3612669416666667" stroke-dasharray=""/><path fill="white" stroke="black" paint-order="fill stroke markers" d=" M 653.2740220687499 744.7219184469999 L 669.60922536875 744.7219184469999 L 669.60922536875 881.9376261669997 L 653.2740220687499 881.9376261669997 L 653.2740220687499 744.7219184469999" stroke-miterlimit="10" stroke-width="1.3612669416666667" stroke-dasharray=""/><path fill="white" stroke="black" paint-order="fill stroke markers" d=" M 869.6192151339192 790.4604876869998 L 885.9544184339193 790.4604876869998 L 885.9544184339193 836.1990569269998 L 869.6192151339192 836.1990569269998 L 869.6192151339192 790.4604876869998" stroke-miterlimit="10" stroke-width="1.3612669416666667" stroke-dasharray=""/><g><g><rect fill="white" stroke="none" x="104.23781948416662" y="161.555160637" width="127.94275154175781" height="21.23576429"/></g><text fill="black" stroke="none" font-family="sans-serif" font-size="11pt" font-style="normal" font-weight="normal" text-decoration="normal" x="106.68809997916662" y="176.25684360699998" text-anchor="start" dominant-baseline="alphabetic" xml:space="preserve">Click Delete button</text></g><g><path fill="none" stroke="black" paint-order="fill stroke markers" d=" M 73.50841485 182.790924927 L 249.46065827642445 182.790924927" stroke-miterlimit="10" stroke-width="1.3612669416666667" stroke-dasharray=""/><g transform="translate(262.9099756600911,182.790924927) translate(-262.9099756600911,-182.790924927)"><path fill="black" stroke="none" paint-order="stroke fill markers" d=" M 249.29730624342443 175.98459021866665 L 262.9099756600911 182.790924927 L 249.29730624342443 189.59725963533333 Z"/></g></g><g><g><rect fill="white" stroke="none" x="100.16839199393225" y="207.29372987699998" width="136.08160652222656" height="21.23576429"/></g><g><rect fill="white" stroke="none" x="100.16839199393225" y="223.62893317699996" width="129.58912910523438" height="21.23576429"/></g><text fill="black" stroke="none" font-family="sans-serif" font-size="11pt" font-style="normal" font-weight="normal" text-decoration="normal" x="102.61867248893225" y="221.99541284699995" text-anchor="start" dominant-baseline="alphabetic" xml:space="preserve">Display delete User </text><text fill="black" stroke="none" font-family="sans-serif" font-size="11pt" font-style="normal" font-weight="normal" text-decoration="normal" x="102.61867248893225" y="238.33061614699994" text-anchor="start" dominant-baseline="alphabetic" xml:space="preserve">confirmation popup</text></g><g><path fill="none" stroke="black" paint-order="fill stroke markers" d=" M 262.9099756600911 244.86469746699998 L 86.95773223366666 244.86469746699998" stroke-miterlimit="10" stroke-width="1.3612669416666667" stroke-dasharray="6.53408132"/><g transform="translate(73.50841485,244.86469746699998) translate(-73.50841485,-244.86469746699998)"><path fill="black" stroke="none" paint-order="stroke fill markers" d=" M 87.12108426666666 238.05836275866665 L 73.50841485 244.86469746699998 L 87.12108426666666 251.67103217533332 Z"/></g></g><g><g><rect fill="white" stroke="none" x="96.907832911901" y="269.36750241699997" width="142.60272468628906" height="21.23576429"/></g><text fill="black" stroke="none" font-family="sans-serif" font-size="11pt" font-style="normal" font-weight="normal" text-decoration="normal" x="99.358113406901" y="284.06918538699995" text-anchor="start" dominant-baseline="alphabetic" xml:space="preserve">Click Deactive button</text></g><g><path fill="none" stroke="black" paint-order="fill stroke markers" d=" M 73.50841485 290.603266707 L 249.46065827642445 290.603266707" stroke-miterlimit="10" stroke-width="1.3612669416666667" stroke-dasharray=""/><g transform="translate(262.9099756600911,290.603266707) translate(-262.9099756600911,-290.603266707)"><path fill="black" stroke="none" paint-order="stroke fill markers" d=" M 249.29730624342443 283.79693199866665 L 262.9099756600911 290.603266707 L 249.29730624342443 297.4096014153333 Z"/></g></g><g><g><rect fill="white" stroke="none" x="314.06191727345697" y="315.106071657" width="151.57911933960938" height="21.23576429"/></g><text fill="black" stroke="none" font-family="sans-serif" font-size="11pt" font-style="normal" font-weight="normal" text-decoration="normal" x="316.512197768457" y="329.80775462699995" text-anchor="start" dominant-baseline="alphabetic" xml:space="preserve">DELETE: /api/user/{id}</text></g><g><path fill="none" stroke="black" paint-order="fill stroke markers" d=" M 279.2451789600911 336.341835947 L 487.0084575427656 336.341835947" stroke-miterlimit="10" stroke-width="1.3612669416666667" stroke-dasharray=""/><g transform="translate(500.45777492643225,336.341835947) translate(-500.45777492643225,-336.341835947)"><path fill="black" stroke="none" paint-order="stroke fill markers" d=" M 486.8451055097656 329.53550123866665 L 500.45777492643225 336.341835947 L 486.8451055097656 343.14817065533333 Z"/></g></g><g><g><rect fill="white" stroke="none" x="550.8187543205598" y="360.844640897" width="68.4294916540625" height="21.23576429"/></g><text fill="black" stroke="none" font-family="sans-serif" font-size="11pt" font-style="normal" font-weight="normal" text-decoration="normal" x="553.2690348155598" y="375.54632386699996" text-anchor="start" dominant-baseline="alphabetic" xml:space="preserve">isExist(id)</text></g><g><path fill="none" stroke="black" paint-order="fill stroke markers" d=" M 516.7929782264323 382.080405187 L 639.8247046850832 382.080405187" stroke-miterlimit="10" stroke-width="1.3612669416666667" stroke-dasharray=""/><g transform="translate(653.2740220687499,382.080405187) translate(-653.2740220687499,-382.080405187)"><path fill="black" stroke="none" paint-order="stroke fill markers" d=" M 639.6613526520832 375.27407047866666 L 653.2740220687499 382.080405187 L 639.6613526520832 388.88673989533333 Z"/></g></g><g><g><rect fill="white" stroke="none" x="723.1732781352408" y="406.583210137" width="92.8818842321875" height="21.23576429"/></g><text fill="black" stroke="none" font-family="sans-serif" font-size="11pt" font-style="normal" font-weight="normal" text-decoration="normal" x="725.6235586302408" y="421.28489310699996" text-anchor="start" dominant-baseline="alphabetic" xml:space="preserve">existsById(id)</text></g><g><path fill="none" stroke="black" paint-order="fill stroke markers" d=" M 669.60922536875 427.818974427 L 856.1698977502525 427.818974427" stroke-miterlimit="10" stroke-width="1.3612669416666667" stroke-dasharray=""/><g transform="translate(869.6192151339192,427.818974427) translate(-869.6192151339192,-427.818974427)"><path fill="black" stroke="none" paint-order="stroke fill markers" d=" M 856.0065457172525 421.01263971866666 L 869.6192151339192 427.818974427 L 856.0065457172525 434.62530913533334 Z"/></g></g><g><g><rect fill="white" stroke="none" x="720.7036889018424" y="452.321779377" width="97.82106269898438" height="21.23576429"/></g><text fill="black" stroke="none" font-family="sans-serif" font-size="11pt" font-style="normal" font-weight="normal" text-decoration="normal" x="723.1539693968424" y="467.02346234699996" text-anchor="start" dominant-baseline="alphabetic" xml:space="preserve">Boolean value</text></g><g><path fill="none" stroke="black" paint-order="fill stroke markers" d=" M 869.6192151339192 473.557543667 L 683.0585427524167 473.557543667" stroke-miterlimit="10" stroke-width="1.3612669416666667" stroke-dasharray="6.53408132"/><g transform="translate(669.60922536875,473.557543667) translate(-669.60922536875,-473.557543667)"><path fill="black" stroke="none" paint-order="stroke fill markers" d=" M 683.2218947854167 466.75120895866667 L 669.60922536875 473.557543667 L 683.2218947854167 480.36387837533334 Z"/></g></g><g><g><rect fill="white" stroke="none" x="536.1229687980989" y="498.06034861699993" width="97.82106269898438" height="21.23576429"/></g><text fill="black" stroke="none" font-family="sans-serif" font-size="11pt" font-style="normal" font-weight="normal" text-decoration="normal" x="538.5732492930989" y="512.7620315869999" text-anchor="start" dominant-baseline="alphabetic" xml:space="preserve">Boolean value</text></g><g><path fill="none" stroke="black" paint-order="fill stroke markers" d=" M 653.2740220687499 519.296112907 L 530.242295610099 519.296112907" stroke-miterlimit="10" stroke-width="1.3612669416666667" stroke-dasharray="6.53408132"/><g transform="translate(516.7929782264323,519.296112907) translate(-516.7929782264323,-519.296112907)"><path fill="black" stroke="none" paint-order="stroke fill markers" d=" M 530.405647643099 512.4897781986666 L 516.7929782264323 519.296112907 L 530.405647643099 526.1024476153333 Z"/></g></g><g><g><rect fill="white" stroke="none" x="329.5665330571484" y="587.9039667669999" width="120.56988777222656" height="21.23576429"/></g><text fill="red" stroke="none" font-family="sans-serif" font-size="11pt" font-style="normal" font-weight="normal" text-decoration="normal" x="332.0168135521484" y="602.6056497369999" text-anchor="start" dominant-baseline="alphabetic" xml:space="preserve">404 NOT FOUND</text></g><g><path fill="none" stroke="black" paint-order="fill stroke markers" d=" M 500.45777492643225 609.139731057 L 292.69449634375775 609.139731057" stroke-miterlimit="10" stroke-width="1.3612669416666667" stroke-dasharray="6.53408132"/><g transform="translate(279.2451789600911,609.139731057) translate(-279.2451789600911,-609.139731057)"><path fill="black" stroke="none" paint-order="stroke fill markers" d=" M 292.8578483767578 602.3333963486666 L 279.2451789600911 609.139731057 L 292.8578483767578 615.9460657653333 Z"/></g></g><g><g><rect fill="white" stroke="none" x="101.38528042166662" y="633.6425360069999" width="133.64782966675781" height="21.23576429"/></g><text fill="black" stroke="none" font-family="sans-serif" font-size="11pt" font-style="normal" font-weight="normal" text-decoration="normal" x="103.83556091666662" y="648.3442189769999" text-anchor="start" dominant-baseline="alphabetic" xml:space="preserve">Message Delete fail</text></g><g><path fill="none" stroke="black" paint-order="fill stroke markers" d=" M 262.9099756600911 654.8783002969999 L 86.95773223366666 654.8783002969999" stroke-miterlimit="10" stroke-width="1.3612669416666667" stroke-dasharray="6.53408132"/><g transform="translate(73.50841485,654.8783002969999) translate(-73.50841485,-654.8783002969999)"><path fill="black" stroke="none" paint-order="stroke fill markers" d=" M 87.12108426666666 648.0719655886666 L 73.50841485 654.8783002969999 L 87.12108426666666 661.6846350053332 Z"/></g></g><g><g><rect fill="white" stroke="none" x="541.0299207023958" y="723.4861541569999" width="88.00715889039063" height="21.23576429"/></g><text fill="black" stroke="none" font-family="sans-serif" font-size="11pt" font-style="normal" font-weight="normal" text-decoration="normal" x="543.4802011973958" y="738.1878371269999" text-anchor="start" dominant-baseline="alphabetic" xml:space="preserve">inactivate(id)</text></g><g><path fill="none" stroke="black" paint-order="fill stroke markers" d=" M 516.7929782264323 744.7219184469999 L 639.8247046850832 744.7219184469999" stroke-miterlimit="10" stroke-width="1.3612669416666667" stroke-dasharray=""/><g transform="translate(653.2740220687499,744.7219184469999) translate(-653.2740220687499,-744.7219184469999)"><path fill="black" stroke="none" paint-order="stroke fill markers" d=" M 639.6613526520832 737.9155837386666 L 653.2740220687499 744.7219184469999 L 639.6613526520832 751.5282531553332 Z"/></g></g><g><g><rect fill="white" stroke="none" x="688.9392159404166" y="769.2247233969998" width="161.35000862183594" height="21.23576429"/></g><text fill="black" stroke="none" font-family="sans-serif" font-size="11pt" font-style="normal" font-weight="normal" text-decoration="normal" x="691.3894964354166" y="783.9264063669998" text-anchor="start" dominant-baseline="alphabetic" xml:space="preserve">updateIsActive(id, false)</text></g><g><path fill="none" stroke="black" paint-order="fill stroke markers" d=" M 669.60922536875 790.4604876869998 L 856.1698977502525 790.4604876869998" stroke-miterlimit="10" stroke-width="1.3612669416666667" stroke-dasharray=""/><g transform="translate(869.6192151339192,790.4604876869998) translate(-869.6192151339192,-790.4604876869998)"><path fill="black" stroke="none" paint-order="stroke fill markers" d=" M 856.0065457172525 783.6541529786665 L 869.6192151339192 790.4604876869998 L 856.0065457172525 797.2668223953332 Z"/></g></g><g><g><rect fill="white" stroke="none" x="767.1639397563346" y="814.9632926369998" width="4.90056099" height="21.23576429"/></g><text fill="black" stroke="none" font-family="sans-serif" font-size="11pt" font-style="normal" font-weight="normal" text-decoration="normal" x="769.6142202513346" y="829.6649756069997" text-anchor="start" dominant-baseline="alphabetic" xml:space="preserve"></text></g><g><path fill="none" stroke="black" paint-order="fill stroke markers" d=" M 869.6192151339192 836.1990569269998 L 683.0585427524167 836.1990569269998" stroke-miterlimit="10" stroke-width="1.3612669416666667" stroke-dasharray="6.53408132"/><g transform="translate(669.60922536875,836.1990569269998) translate(-669.60922536875,-836.1990569269998)"><path fill="black" stroke="none" paint-order="stroke fill markers" d=" M 683.2218947854167 829.3927222186664 L 669.60922536875 836.1990569269998 L 683.2218947854167 843.0053916353331 Z"/></g></g><g><g><rect fill="white" stroke="none" x="582.5832196525911" y="860.7018618769997" width="4.90056099" height="21.23576429"/></g><text fill="black" stroke="none" font-family="sans-serif" font-size="11pt" font-style="normal" font-weight="normal" text-decoration="normal" x="585.0335001475911" y="875.4035448469997" text-anchor="start" dominant-baseline="alphabetic" xml:space="preserve"></text></g><g><path fill="none" stroke="black" paint-order="fill stroke markers" d=" M 653.2740220687499 881.9376261669997 L 530.242295610099 881.9376261669997" stroke-miterlimit="10" stroke-width="1.3612669416666667" stroke-dasharray="6.53408132"/><g transform="translate(516.7929782264323,881.9376261669997) translate(-516.7929782264323,-881.9376261669997)"><path fill="black" stroke="none" paint-order="stroke fill markers" d=" M 530.405647643099 875.1312914586664 L 516.7929782264323 881.9376261669997 L 530.405647643099 888.7439608753331 Z"/></g></g><g><g><rect fill="white" stroke="none" x="298.57516953175775" y="906.4404311169998" width="54.61422981324219" height="21.23576429"/></g><g><rect fill="white" stroke="none" x="298.57516953175775" y="922.7756344169998" width="182.55261482300781" height="21.23576429"/></g><text fill="green" stroke="none" font-family="sans-serif" font-size="11pt" font-style="normal" font-weight="normal" text-decoration="normal" x="301.02545002675777" y="921.1421140869998" text-anchor="start" dominant-baseline="alphabetic" xml:space="preserve">200 OK</text><text fill="green" stroke="none" font-family="sans-serif" font-size="11pt" font-style="normal" font-weight="normal" text-decoration="normal" x="301.02545002675777" y="937.4773173869997" text-anchor="start" dominant-baseline="alphabetic" xml:space="preserve">Response body: User data </text></g><g><path fill="none" stroke="black" paint-order="fill stroke markers" d=" M 500.45777492643225 944.0113987069998 L 292.69449634375775 944.0113987069998" stroke-miterlimit="10" stroke-width="1.3612669416666667" stroke-dasharray="6.53408132"/><g transform="translate(279.2451789600911,944.0113987069998) translate(-279.2451789600911,-944.0113987069998)"><path fill="black" stroke="none" paint-order="stroke fill markers" d=" M 292.8578483767578 937.2050639986664 L 279.2451789600911 944.0113987069998 L 292.8578483767578 950.8177334153331 Z"/></g></g><g><g><rect fill="white" stroke="none" x="92.83840542166662" y="968.5142036569998" width="150.74157966675781" height="21.23576429"/></g><g><rect fill="white" stroke="none" x="92.83840542166662" y="984.8494069569998" width="138.5440393835547" height="21.23576429"/></g><text fill="black" stroke="none" font-family="sans-serif" font-size="11pt" font-style="normal" font-weight="normal" text-decoration="normal" x="95.28868591666662" y="983.2158866269998" text-anchor="start" dominant-baseline="alphabetic" xml:space="preserve">Display User list page </text><text fill="black" stroke="none" font-family="sans-serif" font-size="11pt" font-style="normal" font-weight="normal" text-decoration="normal" x="95.28868591666662" y="999.5510899269998" text-anchor="start" dominant-baseline="alphabetic" xml:space="preserve">without deleted User</text></g><g><path fill="none" stroke="black" paint-order="fill stroke markers" d=" M 262.9099756600911 1006.0851712469998 L 86.95773223366666 1006.0851712469998" stroke-miterlimit="10" stroke-width="1.3612669416666667" stroke-dasharray="6.53408132"/><g transform="translate(73.50841485,1006.0851712469998) translate(-73.50841485,-1006.0851712469998)"><path fill="black" stroke="none" paint-order="stroke fill markers" d=" M 87.12108426666666 999.2788365386665 L 73.50841485 1006.0851712469998 L 87.12108426666666 1012.8915059553332 Z"/></g></g><g><g/><path fill="none" stroke="black" paint-order="fill stroke markers" d=" M 16.335203299999996 543.798917857 L 934.9600283339192 543.798917857 L 934.9600283339192 1030.5879761969998 L 16.335203299999996 1030.5879761969998 L 16.335203299999996 543.798917857 Z" stroke-miterlimit="10" stroke-width="2.3336004714285714" stroke-dasharray=""/><path fill="white" stroke="black" paint-order="fill stroke markers" d=" M 16.335203299999996 543.798917857 L 16.335203299999996 563.401161817 L 62.69440689707031 563.401161817 L 72.49552887707031 553.6000398369999 L 72.49552887707031 543.798917857 L 16.335203299999996 543.798917857" stroke-miterlimit="10" stroke-width="2.3336004714285714" stroke-dasharray=""/><text fill="black" stroke="none" font-family="sans-serif" font-size="8.8pt" font-style="normal" font-weight="bold" text-decoration="normal" x="32.67040659999999" y="556.867080497" text-anchor="start" dominant-baseline="alphabetic" xml:space="preserve">alt</text><g><rect fill="white" stroke="none" x="86.38045168207032" y="545.105734121" width="112.44639839234375" height="16.988611432000003"/></g><text fill="black" stroke="none" font-family="sans-serif" font-size="8.8pt" font-style="normal" font-weight="bold" text-decoration="normal" x="88.83073217707032" y="556.867080497" text-anchor="start" dominant-baseline="alphabetic" xml:space="preserve">[If user is not exist]</text><g><path fill="none" stroke="black" paint-order="fill stroke markers" d=" M 16.335203299999996 679.3811052469999 L 934.9600283339192 679.3811052469999" stroke-miterlimit="10" stroke-width="2.3336004714285714" stroke-dasharray="4.083800825"/></g><g/><g><rect fill="white" stroke="none" x="86.38045168207032" y="680.6879215109999" width="36.84300483765625" height="16.988611432000003"/></g><text fill="black" stroke="none" font-family="sans-serif" font-size="8.8pt" font-style="normal" font-weight="bold" text-decoration="normal" x="88.83073217707032" y="692.4492678869999" text-anchor="start" dominant-baseline="alphabetic" xml:space="preserve">[Else]</text></g><g/></g></g></svg>