<svg version="1.1" xmlns="http://www.w3.org/2000/svg" xmlns:xlink="http://www.w3.org/1999/xlink" width="973" height="1228"><desc>%20title%20Create%20User%20with%20type%20Teacher%20or%20Officer%20or%20Workspace%20Admin%0A%0Aactor%20%23green%3A0.5%20%22Workspace%20Admin%22%20as%20w%0Aboundary%20%22Create%20User%20popup%22%20as%20f%0Aparticipant%20%22User%20Controller%22%20as%20gc%0Aparticipant%20%22User%20Service%22%20as%20gs%0Adatabase%20%23blue%3A1%20%22Database%22%20as%20db%0A%0Aw-%3Ef%3AClick%20Create%20User%20button%0Aactivate%20f%0Aw%3C--f%3ADisplay%20Create%20User%20popup%0Aw-%3Ef%3ASelect%20type%20Teacher%20or%20Officer%20%5Cnor%20Workspace%20Admin%0Aw-%3Ef%3AType%20information%20of%20User%0Af-%3Ef%3AValidate%20input%20data%0Aactivate%20f%0Af--%3Ef%3A%20Validate%20value%0Adeactivate%20f%0Aalt%20If%20the%20input%20data%20is%20wrong%0Aw%3C--f%3AValidate%20Message%0Aend%0Aw-%3Ef%3A%20Click%20button%20Save%0Af-%3Egc%3APOST%3A%20%2Fapi%2Fuser%0Aactivate%20gc%0Aalt%20If%20there%20is%20required%20field%20do%20not%20have%20value%0Af%3C--gc%3A%3Ccolor%3A%23red%3E400%20BAD_REQUEST%3A%20%5CnMissing%20required%20property%3C%2Fcolor%3E%0Aw%3C--f%3AMessage%20is%20required%0Aelse%20Else%0Agc-%3Egs%3Asave()%0Aactivate%20gs%0Ags-%3Edb%3ACreate%20User%0Aactivate%20db%0Ags%3C--db%3AUser%20entity%0Adeactivate%20db%0Agc%3C--gs%3ANew%20User%20data%0Adeactivate%20gs%0Af%3C--gc%3A%3Ccolor%3A%23green%3E201%20OK%3A%20CREATED%3C%2Fcolor%3E%0Adeactivate%20gc%0Aw%3C--f%3A%20Display%20User%20list%20table%20with%20new%20User%0Adeactivate%20f%0Aend</desc><defs/><g><g/><g/><g/><g/><g/><g/><g/><g/><g/><g/><g/><g/><g/><g/><g/><g/><g/><g/><g/><g/><g/><g/><g/><g/><g><rect fill="white" stroke="none" x="0" y="0" width="973" height="1228"/></g><g><text fill="black" stroke="none" font-family="sans-serif" font-size="16.5pt" font-style="normal" font-weight="normal" text-decoration="normal" x="185.63231036246742" y="24.50280495" text-anchor="start" dominant-baseline="alphabetic" xml:space="preserve">Create User with type Teacher or Officer or Workspace Admin</text></g><g/><g><path fill="none" stroke="black" paint-order="fill stroke markers" d=" M 73.50841485 128.884754037 L 73.50841485 1228.2439361269996" stroke-miterlimit="10" stroke-width="1.3612669416666667" stroke-dasharray="12.565541,5.445067766666667"/><path fill="none" stroke="black" paint-order="fill stroke markers" d=" M 362.3159195952474 128.884754037 L 362.3159195952474 1228.2439361269996" stroke-miterlimit="10" stroke-width="1.3612669416666667" stroke-dasharray="12.565541,5.445067766666667"/><path fill="none" stroke="black" paint-order="fill stroke markers" d=" M 595.7836093299479 128.884754037 L 595.7836093299479 1228.2439361269996" stroke-miterlimit="10" stroke-width="1.3612669416666667" stroke-dasharray="12.565541,5.445067766666667"/><path fill="none" stroke="black" paint-order="fill stroke markers" d=" M 752.6371031763672 128.884754037 L 752.6371031763672 1228.2439361269996" stroke-miterlimit="10" stroke-width="1.3612669416666667" stroke-dasharray="12.565541,5.445067766666667"/><path fill="none" stroke="black" paint-order="fill stroke markers" d=" M 891.5593073499349 128.884754037 L 891.5593073499349 1228.2439361269996" stroke-miterlimit="10" stroke-width="1.3612669416666667" stroke-dasharray="12.565541,5.445067766666667"/></g><g><g><path fill="white" stroke="green" paint-order="fill stroke markers" d=" M 82.819480731 59.786844078 A 9.311065881 9.311065881 0 1 1 82.81947607546743 59.77753301367084 M 73.50841485 69.097909959 L 73.50841485 89.026857985 M 61.747068473999995 76.285399411 L 85.26976122599999 76.285399411 M 73.50841485 89.026857985 L 61.747068473999995 107.648989747 M 73.50841485 89.026857985 L 85.26976122599999 107.648989747" stroke-miterlimit="10" stroke-width="1.3884922805000002" stroke-dasharray=""/></g><g><text fill="black" stroke="none" font-family="sans-serif" font-size="11pt" font-style="normal" font-weight="normal" text-decoration="normal" x="14.166991815332025" y="123.984193047" text-anchor="start" dominant-baseline="alphabetic" xml:space="preserve">Workspace Admin</text></g><g><path fill="white" stroke="black" paint-order="fill stroke markers" d=" M 394.7412981457474 82.002720566 A 24.2577769005 24.2577769005 0 1 1 394.74128601686 81.97846279314244 M 331.2790333252474 56.356451384999986 L 331.2790333252474 107.648989747 M 329.8905410447474 82.002720566 L 346.2257443447474 82.002720566" stroke-miterlimit="10" stroke-width="2.7769845610000004" stroke-dasharray=""/></g><g><text fill="black" stroke="none" font-family="sans-serif" font-size="11pt" font-style="normal" font-weight="normal" text-decoration="normal" x="300.3832261138021" y="123.984193047" text-anchor="start" dominant-baseline="alphabetic" xml:space="preserve">Create User popup</text></g><path fill="none" stroke="none"/><g><path fill="white" stroke="black" paint-order="fill stroke markers" d=" M 528.7721787640963 84.94305716000001 L 662.7950398957995 84.94305716000001 L 662.7950398957995 128.884754037 L 528.7721787640963 128.884754037 L 528.7721787640963 84.94305716000001 Z" stroke-miterlimit="10" stroke-width="2.613632528" stroke-dasharray=""/></g><g><text fill="black" stroke="none" font-family="sans-serif" font-size="11pt" font-style="normal" font-weight="normal" text-decoration="normal" x="546.4958743445964" y="112.54955073700002" text-anchor="start" dominant-baseline="alphabetic" xml:space="preserve">User Controller</text></g><path fill="none" stroke="none"/><g><path fill="white" stroke="black" paint-order="fill stroke markers" d=" M 692.9592449982109 84.94305716000001 L 812.3149613545235 84.94305716000001 L 812.3149613545235 128.884754037 L 692.9592449982109 128.884754037 L 692.9592449982109 84.94305716000001 Z" stroke-miterlimit="10" stroke-width="2.613632528" stroke-dasharray=""/></g><g><text fill="black" stroke="none" font-family="sans-serif" font-size="11pt" font-style="normal" font-weight="normal" text-decoration="normal" x="710.6829405787109" y="112.54955073700002" text-anchor="start" dominant-baseline="alphabetic" xml:space="preserve">User Service</text></g><g><path fill="white" stroke="blue" paint-order="fill stroke markers" d=" M 867.709910531935 96.867755569 L 867.709910531935 62.563828639 L 915.4087041679348 62.563828639 L 915.4087041679348 96.867755569" stroke-miterlimit="10" stroke-width="2.7769845610000004" stroke-dasharray=""/><path fill="white" stroke="blue" paint-order="fill stroke markers" d=" M 915.4087041679348 61.3713587981 L 915.4075117080312 61.47916934301662 L 915.4039344475651 61.58696910696859 L 915.3979727442598 61.69474731006935 L 915.3896271942805 61.8024931745884 L 915.3788986321753 61.91019592602908 L 915.3657881307914 62.017844794206 L 915.3502970011682 62.125429014322044 L 915.3324267924056 62.232937828044854 L 915.3121792915096 62.34036048458265 L 915.2895565232134 62.44768624175929 L 915.264560749775 62.55490436708851 L 915.237194470751 62.66200413884712 L 915.2074604227464 62.76897484714718 L 915.1753615791413 62.87580579500701 L 915.1409011497932 62.982486299420856 L 915.1040825807164 63.08900569242717 L 915.064909553737 63.19535332217542 L 915.0233859861253 63.30151855399125 L 914.9795160302033 63.40749077143996 L 914.9333040729299 63.5132593773881 L 914.8847547354626 63.618813795063225 L 914.8338728726945 63.724143469111524 L 914.7806635727696 63.82923786665337 L 914.7251321565734 63.93408647833659 L 914.6672841772014 64.03867881938739 L 914.6071254194032 64.1430044306588 L 914.5446618990046 64.24705287967667 L 914.4798998623054 64.35081376168277 L 914.4128457854554 64.45427670067541 L 914.3435063738065 64.55743135044686 L 914.2718885612418 64.66026739561813 L 914.1979995094831 64.7627745526704 L 914.1218466073741 64.86494257097338 L 914.0434374701413 64.96676123381039 L 913.9627799386332 65.06822035939997 L 913.8798820785357 65.16930980191414 L 913.7947521795659 65.27001945249287 L 913.7073987546424 65.37033924025505 L 913.6178305390353 65.47025913330548 L 913.5260564894912 65.56976913973813 L 913.4320857833388 65.66885930863528 L 913.3359278175702 65.7675197310626 L 913.2375922079021 65.86574054106009 L 913.1370887878134 65.96351191662859 L 913.0344276075622 66.06082408071202 L 912.9296189331811 66.15766730217506 L 912.8226732454502 66.25403189677627 L 912.7136012388493 66.3499082281365 L 912.602413820488 66.4452867087025 L 912.4891221090154 66.54015780070569 L 912.3737374335085 66.63451201711595 L 912.2562713323384 66.72833992259025 L 912.1367355520175 66.82163213441623 L 912.0151420460243 66.91437932345046 L 911.8915029736079 67.00657221505134 L 911.7658306985725 67.0982015900065 L 911.638137788041 67.18925828545483 L 911.508437011198 67.27973319580266 L 911.3767413380131 67.36961727363435 L 911.2430639379438 67.45890153061701 L 911.1074181786189 67.54757703839935 L 910.969817624501 67.6356349295045 L 910.8302760355311 67.72306639821673 L 910.6888073657518 67.80986270146201 L 910.545425761912 67.89601515968236 L 910.4001455620529 67.98151515770375 L 910.252981294073 68.06635414559763 L 910.1039476742769 68.15052363953589 L 909.953059605902 68.2340152226393 L 909.8003321776297 68.31682054581911 L 909.6457806620754 68.39893132861202 L 909.489420514262 68.48033936000816 L 909.3312673700736 68.56103649927225 L 909.1713370446934 68.6410146767576 L 909.0096455310202 68.72026589471311 L 908.8462089980709 68.79878222808303 L 908.6810437893623 68.87655582529945 L 908.514166421278 68.95357890906746 L 908.3455935814155 69.02984377714286 L 908.1753421269184 69.10534280310242 L 908.0034290827903 69.18006843710643 L 907.8298716401922 69.25401320665378 L 907.6546871547239 69.32716971732913 L 907.4778931446879 69.39953065354239 L 907.2995072893378 69.47108877926021 L 907.1195474271105 69.54183693872967 L 906.9380315538425 69.61176805719379 L 906.7549778209695 69.68087514159897 L 906.5704045337126 69.74915128129439 L 906.3843301492464 69.81658964872294 L 906.1967732748544 69.88318350010411 L 906.0077526660677 69.94892617610824 L 905.8172872247899 70.01381110252252 L 905.625395997406 70.07783179090838 L 905.4320981728793 70.14098183925032 L 905.2374130808307 70.20325493259614 L 905.0413601896075 70.26464484368842 L 904.8439591043353 70.32514543358717 L 904.6452295649583 70.38475065228383 L 904.4451914442645 70.44345453930622 L 904.2438647458996 70.50125122431453 L 904.0412696023656 70.55813492768844 L 903.8374262730077 70.61409996110503 L 903.6323551419895 70.66914072810756 L 903.4260767162527 70.72325172466522 L 903.2186116234684 70.77642753972344 L 903.0099806099727 70.82866285574504 L 902.8002045386933 70.87995244924193 L 902.5893043870623 70.9302911912975 L 902.3773012449192 70.9796740480795 L 902.1642163124015 71.0280960813434 L 901.9500708978252 71.07555244892625 L 901.7348864155529 71.12203840523081 L 901.5186843838536 71.16754930170019 L 901.3014864227505 71.21208058728268 L 901.0833142518585 71.25562780888683 L 900.864189688213 71.29818661182675 L 900.6441346440876 71.33975274025764 L 900.4231711248035 71.38032203760127 L 900.2013212265285 71.41989044696174 L 899.9786071340675 71.45845401153106 L 899.755051118644 71.49600887498494 L 899.5306755356736 71.5325512818683 L 899.3055028225273 71.56807757797091 L 899.0795554962889 71.60258421069277 L 898.8528561515027 71.63606772939937 L 898.6254274579143 71.66852478576672 L 898.3972921582034 71.69995213411627 L 898.1684730657101 71.73034663173934 L 897.9389930621528 71.7597052392115 L 897.7088750953408 71.78802502069648 L 897.4781421768787 71.81530314423973 L 897.2468173798663 71.84153688205163 L 897.0149238365905 71.86672361078024 L 896.7824847362124 71.8908608117737 L 896.5495233224483 71.913946071332 L 896.3160628912453 71.93597708094846 L 896.0821267884523 71.95695163754044 L 895.8477384074844 71.97686764366978 L 895.6129211869844 71.99572310775245 L 895.3776986084788 72.01351614425778 L 895.1420941940291 72.03024497389691 L 894.9061315038808 72.04590792380084 L 894.6698341341062 72.06050342768764 L 894.4332257142452 72.07403002601906 L 894.1963299049426 72.08648636614654 L 893.9591703955821 72.09787120244648 L 893.7217709019169 72.1081833964447 L 893.4841551636985 72.11742191693043 L 893.2463469423028 72.12558584005929 L 893.0083700183537 72.13267434944576 L 892.7702481893454 72.13868673624485 L 892.5320052672622 72.14362239922286 L 892.2936650761978 72.14748084481762 L 892.0552514499728 72.1502616871878 L 891.8167882297511 72.15196464825142 L 891.578299261656 72.15258955771385 L 891.3398083943854 72.15213635308466 L 891.1013394768275 72.15060507968391 L 890.8629163556753 72.14799589063767 L 890.6245628730424 72.1443090468627 L 890.386302864078 72.13954491704027 L 890.1481601545847 72.1337039775794 L 889.9101585586351 72.12678681256918 L 889.6723218761903 72.11879411372033 L 889.4346738907203 72.10972668029609 L 889.1972383668258 72.09958541903224 L 888.9600390478611 72.08837134404646 L 888.7230996535607 72.07608557673689 L 888.4864438776664 72.06272934567005 L 888.2500953855586 72.04830398645788 L 888.0140778118895 72.0328109416243 L 887.7784147582199 72.01625176046089 L 887.5431297906588 71.99862809887196 L 887.3082464375068 71.97994171920898 L 887.0737881869035 71.96019449009434 L 886.8397784844786 71.9393883862345 L 886.6062407310072 71.91752548822251 L 886.3731982800704 71.89460798232996 L 886.1406744357187 71.87063816028832 L 885.9086924501428 71.84561841905983 L 885.6772755213482 71.81955126059778 L 885.4464467908347 71.79243929159627 L 885.2162293412831 71.7642852232296 L 884.9866461942465 71.73509187088118 L 884.7577203078482 71.7048621538619 L 884.5294745744862 71.67359909511825 L 884.3019318185436 71.64130582093009 L 884.0751147941063 71.6079855605979 L 883.8490461826879 71.57364164611994 L 883.6237485909609 71.53827751185906 L 883.3992445484968 71.50189669419922 L 883.1755565055129 71.46450283119185 L 882.952706830627 71.42609966219209 L 882.7307178086209 71.38669102748484 L 882.5096116382118 71.34628086790075 L 882.2894104298324 71.30487322442208 L 882.0701362034202 71.26247223777868 L 881.851810886215 71.21908214803388 L 881.6344563105666 71.17470729416048 L 881.4180942117516 71.12935211360693 L 881.2027462257993 71.08302114185344 L 880.988433887329 71.0357190119586 L 880.7751786273959 70.987450454096 L 880.5630017713485 70.93822029508118 L 880.3519245366952 70.88803345788901 L 880.1419680309838 70.8368949611614 L 879.9331532496899 70.7848099187054 L 879.7255010741176 70.73178353898187 L 879.5190322693114 70.67782112458457 L 879.3137674819798 70.62292807170999 L 879.1097272384303 70.56710986961765 L 878.9069319425173 70.51037210008127 L 878.7054018736015 70.4527204368305 L 878.5051571845219 70.39416064498364 L 878.3062178995802 70.33469858047107 L 878.1086039125395 70.27434018944969 L 877.9123349846336 70.2130915077083 L 877.7174307425918 70.15095866006402 L 877.5239106766759 70.08794785974987 L 877.3317941387311 70.02406540779336 L 877.1411003402513 69.95931769238642 L 876.9518483504573 69.89371118824668 L 876.7640570943904 69.82725245596986 L 876.5777453510198 69.7599481413738 L 876.3929317513644 69.69180497483389 L 876.2096347766303 69.62282977060998 L 876.0278727563621 69.55302942616503 L 875.8476638666106 69.4824109214753 L 875.6690261281143 69.41098131833243 L 875.4919774044984 69.3387477596372 L 875.3165354004875 69.26571746868528 L 875.1427176601361 69.19189774844492 L 874.9705415650732 69.1172959808266 L 874.8000243327648 69.04191962594494 L 874.6311830147922 68.96577622137262 L 874.4640344951463 68.88887338138663 L 874.29859548854 68.81121879620689 L 874.1348825387357 68.73282023122718 L 873.9729120168925 68.6536855262387 L 873.8127001199272 68.573822594646 L 873.654262868896 68.49323942267567 L 873.4976161073922 68.41194406857777 L 873.3427754999614 68.32994466181995 L 873.1897565305351 68.24724940227456 L 873.0385745008828 68.16386655939866 L 872.8892445290815 68.07980447140702 L 872.7417815480039 67.99507154443839 L 872.5962003038254 67.90967625171488 L 872.452515354549 67.8236271326946 L 872.3107410685498 67.73693279221771 L 872.1708916231383 67.64960189964606 L 872.0329810031426 67.56164318799608 L 871.8970229995095 67.47306545306569 L 871.7630312079265 67.38387755255452 L 871.6310190274608 67.29408840517834 L 871.5009996592204 67.20370698977703 L 871.3729861050339 67.11274234441683 L 871.24699116615 67.02120356548647 L 871.1230274419577 66.92909980678756 L 871.001107328726 66.83644027861922 L 870.8812430183646 66.74323424685704 L 870.7634464972047 66.64949103202653 L 870.6477295448002 66.55522000837107 L 870.5341037327499 66.46043060291444 L 870.4225804235406 66.3651322945182 L 870.3131707694099 66.2693346129338 L 870.2058857112322 66.17304713784955 L 870.1007359774239 66.07627949793272 L 869.9977320828709 65.97904136986665 L 869.8968843278766 65.88134247738313 L 869.7982027971325 65.78319259028999 L 869.7016973587096 65.68460152349414 L 869.6073776630711 65.58557913602012 L 869.5152531421081 65.48613533002413 L 869.4253330081959 65.38628004980393 L 869.337626253273 65.2860232808043 L 869.2521416479417 65.18537504861862 L 869.1688877405915 65.08434541798623 L 869.0878728565434 64.982944491786 L 869.0091050972186 64.88118241002603 L 868.9325923393274 64.77906934882972 L 868.8583422340815 64.67661551941809 L 868.78636220643 64.5738311670887 L 868.7166594543153 64.47072657019112 L 868.6492409479548 64.36731203909913 L 868.5841134291428 64.26359791517966 L 868.5212834105769 64.15959456975868 L 868.4607571752067 64.05531240308405 L 868.4025407756052 63.95076184328555 L 868.346640033364 63.84595334533201 L 868.2930605385105 63.74089738998592 L 868.2418076489497 63.63560448275524 L 868.1928864899279 63.530085152842965 L 868.14630195352 63.42434995209415 L 868.1020586981411 63.318409453940745 L 868.0601611480797 63.2122742523443 L 868.020613493056 63.105954960736526 L 867.9834196878023 62.99946221095797 L 867.9485834516685 62.892806652194885 L 867.9161082682488 62.78599894991426 L 867.8859973850348 62.679049784797314 L 867.8582538130895 62.57196985167143 L 867.8328803267472 62.464769858440704 L 867.8098794633352 62.357460525015114 L 867.7892535229207 62.25005258223858 L 867.7710045680806 62.14255677081588 L 867.7551344236952 62.03498384023857 L 867.7416446767656 61.92734454771006 L 867.7305366762554 61.81964965706991 L 867.7218115329554 61.71190993771744 L 867.7154701193724 61.6041361635348 L 867.7115130696428 61.49633911180959 L 867.7099407794681 61.38852956215717 L 867.710753406076 61.28071829544265 L 867.7139508682046 61.172916092702856 L 867.7195328461103 61.06513373406823 L 867.7274987815999 60.957381997684834 L 867.7378478780867 60.84967165863649 L 867.7505791006695 60.74201348786736 L 867.7656911762366 60.6344182511048 L 867.7831825935932 60.526896707782825 L 867.803051603612 60.41945960996616 L 867.8252962194086 60.31211770127506 L 867.8499142165401 60.204881715810956 L 867.8769031332271 60.097762377083015 L 867.9062602706005 59.99077039693585 L 867.937982692971 59.88391647447831 L 867.9720672281229 59.7772112950136 L 868.0085104676309 59.67066552897075 L 868.0473087672017 59.56428983083758 L 868.0884582470374 59.45809483809524 L 868.1319547922244 59.35209117015452 L 868.1777940531445 59.24628942729389 L 868.2259714459096 59.14070018959944 L 868.2764821528209 59.03533401590697 L 868.3293211228495 58.93020144274604 L 868.3844830721426 58.82531298328635 L 868.4419624845513 58.72067912628645 L 868.501753612182 58.61631033504484 L 868.5638504759719 58.51221704635366 L 868.6282468662864 58.40840966945505 L 868.6949363435402 58.30489858500019 L 868.763912238841 58.20169414401126 L 868.8351676546569 58.098806666846365 L 868.9086954655055 57.996246442167475 L 868.9844883186671 57.894023725911595 L 869.0625386349195 57.79214874026516 L 869.1428386092963 57.69063167264185 L 869.2253802118666 57.58948267466382 L 869.3101551885394 57.488711861146584 L 869.3971550618874 57.38832930908751 L 869.4863711319957 57.28834505665816 L 869.5777944773318 57.18876910220045 L 869.6714159556374 57.08961140322686 L 869.7672262048424 56.99088187542464 L 869.865215644002 56.8925903916643 L 869.9653744742538 56.794746781012314 L 870.0676926797984 56.6973608277482 L 870.1721600289002 56.60044227038614 L 870.2787660749117 56.5040008007011 L 870.3875001573169 56.40804606275968 L 870.4983514027982 56.31258765195572 L 870.6113087263236 56.217635114050736 L 870.7263608322547 56.12319794421941 L 870.8434962154769 56.029285586100016 L 870.9627031625492 55.93590743085011 L 871.0839697528767 55.8430728162074 L 871.207283859901 55.75079102555599 L 871.3326331523145 55.65907128699804 L 871.4600050952922 55.56792277243099 L 871.5893869517461 55.47735459663031 L 871.7207657835982 55.387375816338135 L 871.8541284530747 55.29799542935749 L 871.9894616240201 55.20922237365261 L 872.12675176323 55.12106552645507 L 872.2659851418048 55.033533703376136 L 872.4071478365227 54.94663565752517 L 872.5502257312318 54.86038007863435 L 872.6952045182619 54.77477559218967 L 872.8420696998552 54.689830758568455 L 872.9908065896159 54.60555407218327 L 873.1414003139788 54.52195396063252 L 873.2938358136972 54.439038783857704 L 873.448097845348 54.35681683330739 L 873.6041709828567 54.27529633110813 L 873.7620396190395 54.19448542924221 L 873.9216879671644 54.114392208732454 L 874.0831000625295 54.03502467883419 L 874.24625976406 53.95639077623426 L 874.4111507559215 53.878498364257396 L 874.5777565491525 53.801355232079885 L 874.7460604833122 53.72496909395066 L 874.9160457281475 53.649347588419886 L 875.0876952852758 53.57449827757509 L 875.2609919898842 53.50042864628498 L 875.4359185124467 53.42714610145097 L 875.6124573604569 53.35465797126647 L 875.790590880177 53.28297150448409 L 875.9703012584035 53.21209386969077 L 876.1515705242484 53.14203215459092 L 876.3343805509361 53.072793365297684 L 876.5187130576163 53.00438442563227 L 876.7045496111921 52.93681217643165 L 876.8918716281627 52.870083374864436 L 877.0806603764826 52.80420469375517 L 877.2708969774344 52.739182720917064 L 877.4625624075165 52.67502395849323 L 877.6556375003456 52.611734822306424 L 877.8501029485733 52.54932164121754 L 878.0459393058169 52.48779065649267 L 878.2431269886036 52.427148021179015 L 878.4416462783299 52.36739979948956 L 878.6414773232319 52.3085519661967 L 878.8426001403717 52.25061040603471 L 879.0449946176353 52.19358091311133 L 879.2486405157437 52.13746919032833 L 879.4535174702764 52.08228084881122 L 879.6596049937091 52.02802140734818 L 879.866882477461 51.974696291838114 L 880.0753291939565 51.922310834748146 L 880.2849242986977 51.87087027458034 L 880.4956468323486 51.82037975534783 L 880.7074757228316 51.770844326060484 L 880.9203897874343 51.72226894021993 L 881.1343677349274 51.674658455324284 L 881.3493881676947 51.62801763238236 L 881.5654295838718 51.58235113543759 L 881.7824703794973 51.5376635311016 L 882.0004888506727 51.49395928809759 L 882.2194631957323 51.451242776813444 L 882.439371517424 51.409518268864694 L 882.6601918250992 51.368789936667355 L 882.8819020369109 51.32906185302072 L 883.1044799820228 51.29033799070003 L 883.3279034028258 51.252622222059266 L 883.5521499571639 51.21591831864385 L 883.7771972205688 51.18022995081354 L 884.0030226885016 51.14556068737539 L 884.2296037786036 51.11191399522683 L 884.4569178329548 51.079293239009054 L 884.6849421203389 51.047701680770494 L 884.9136538385173 51.01714247964064 L 885.143030116509 50.98761869151416 L 885.3730480168771 50.95913326874524 L 885.6036845380232 50.93168905985244 L 885.8349166164876 50.90528880923376 L 886.0667211292549 50.87993515689227 L 886.2990748960673 50.85563063817208 L 886.5319546817415 50.83237768350481 L 886.7653371984931 50.81017861816654 L 886.9991991082649 50.78903566204531 L 887.2335170250607 50.768950929419105 L 887.4682675172842 50.749926428744466 L 887.7034271100817 50.7319640624556 L 887.9389722876901 50.71506562677416 L 888.1748794957878 50.69923281152964 L 888.4111251438505 50.684467199990365 L 888.6476856075103 50.6707702687052 L 888.8845372309181 50.658143387355835 L 889.1216563291088 50.64658781861989 L 889.3590191903702 50.63610471804463 L 889.596602078614 50.62669513393135 L 889.8343812357492 50.61836000723063 L 890.0723328840586 50.61110017144819 L 890.3104332285753 50.604916352561574 L 890.5486584594635 50.5998091689475 L 890.7869847543985 50.595779131320086 L 891.0253882809495 50.592826642679725 L 891.2638451989624 50.59095199827282 L 891.5023316629442 50.59015538556226 L 891.7408238244473 50.59043688420866 L 891.9792978344541 50.59179646606236 L 892.2177298457625 50.594233995166334 L 892.45609601537 50.59774922776969 L 892.6943725068583 50.6023418123521 L 892.9325354927768 50.60801128965893 L 893.1705611570253 50.61475709274719 L 893.4084256972358 50.622578547042174 L 893.6461053271524 50.63147487040497 L 893.8835762790105 50.64144517321068 L 894.1208148059125 50.6524884584373 L 894.3577971842034 50.66460362176552 L 894.594499715843 50.67778945168912 L 894.8308987307753 50.69204462963607 L 895.0669705892959 50.70736773010048 L 895.3026916844155 50.72375722078505 L 895.5380384442212 50.74121146275439 L 895.7729873342331 50.759728710598836 L 896.0075148597579 50.77930711260903 L 896.2415975682386 50.79994471096109 L 896.4752120515993 50.821639441912396 L 896.7083349485864 50.844389136007905 L 896.9409429471045 50.86819151829718 L 897.1730127865476 50.893044208561825 L 897.4045212601251 50.91894472155353 L 897.6354452171826 50.94589046724256 L 897.8657615655168 50.973878751076825 L 898.0954472736847 51.00290677425126 L 898.3244793733071 51.03297163398772 L 898.5528349613647 51.064070323825305 L 898.7804912024892 51.09619973392093 L 899.0074253312459 51.129356651360375 L 899.2336146544113 51.16353776047952 L 899.4590365532416 51.198739643195935 L 899.6836684857345 51.23495877935069 L 899.9074879888842 51.27219154706035 L 900.1304726809268 51.31043422307917 L 900.3526002635788 51.349682983171405 L 900.5738485242673 51.38993390249377 L 900.7941953383504 51.43118295598788 L 901.0136186713303 51.47342601878273 L 901.2320965810567 51.51665886660727 L 901.4496072199206 51.56087717621274 L 901.6661288370394 51.60607652580503 L 901.8816397804318 51.65225239548683 L 902.096118499183 51.69940016770967 L 902.3095435456 51.74751512773561 L 902.521893577356 51.79659246410874 L 902.7331473596247 51.84662726913632 L 902.9432837672039 51.89761453937955 L 903.1522817866279 51.949549176153894 L 903.3601205182691 52.00242598603895 L 903.5667791784274 52.0562396813978 L 903.7722371014091 52.11098488090573 L 903.976473741593 52.16665611008844 L 904.1794686754854 52.22324780186939 L 904.381201603762 52.28075429712656 L 904.5816523532981 52.339169845258354 L 904.7808008791857 52.398488604758626 L 904.9786272667383 52.458704643800864 L 905.1751117334819 52.51981194083135 L 905.3702346311337 52.581804385171296 L 905.5639764475665 52.64467577762793 L 905.7563178087598 52.708419831114405 L 905.9472394807383 52.77303017127848 L 906.1367223714934 52.83850033713999 L 906.3247475328943 52.90482378173691 L 906.5112961625814 52.97199387278003 L 906.6963496058471 53.040003893316246 L 906.8798893575014 53.108847042400164 L 907.0618970637221 53.17851643577425 L 907.2423545238902 53.24900510655722 L 907.42124369241 53.32030600594074 L 907.5985466805138 53.39241200389429 L 907.7742457580506 53.465315889878156 L 907.9483233552589 53.5390103735645 L 908.1207620645242 53.61348808556637 L 908.2915446421192 53.68874157817461 L 908.4606540099285 53.76476332610268 L 908.6280732571561 53.84154572723915 L 908.7937856420169 53.91908110340788 L 908.9577745934106 53.99736170113587 L 909.1200237125786 54.07637969242858 L 909.2805167747442 54.156127175552726 L 909.439237730735 54.236596175826456 L 909.5961707085876 54.3177786464168 L 909.7513000151349 54.39966646914434 L 909.9046101375758 54.48225145529506 L 910.0560857450255 54.56552534643915 L 910.2057116900496 54.6494798152569 L 910.3534730101784 54.73410646637139 L 910.4993549294029 54.81939683718802 L 910.6433428596528 54.9053423987408 L 910.785422402255 54.99193455654518 L 910.9255793493737 55.079164651457546 L 911.0637996854309 55.16702396054111 L 911.2000695885083 55.25550369793815 L 911.3343754317291 55.344595015748695 L 911.4667037846209 55.43428900491518 L 911.5970414144585 55.52457669611344 L 911.7253752875879 55.615449060649595 L 911.8516925707286 55.706897011362926 L 911.9759806322572 55.79891140353456 L 912.0982270434716 55.891483035801954 L 912.2184195798324 55.98460265107904 L 912.336546222186 56.07826093748187 L 912.4525951579667 56.17244852925987 L 912.5665547823776 56.26715600773234 L 912.6784136995512 56.36237390223035 L 912.7881607236891 56.45809269104382 L 912.8957848801803 56.55430280237361 L 913.0012754066987 56.65099461528878 L 913.1046217542797 56.74815846068861 L 913.2058135883747 56.84578462226952 L 913.3048407898846 56.943863337496715 L 913.4016934561715 57.0423847985804 L 913.4963619020499 57.14133915345658 L 913.5888366607538 57.240716506772216 L 913.6791084848846 57.34050692087479 L 913.767168347335 57.44070041680606 L 913.853007442192 57.54128697529992 L 913.936617185618 57.64225653778434 L 914.017989216708 57.74359900738722 L 914.0971153983269 57.84530424994605 L 914.1739878179224 57.94736209502132 L 914.2485987883165 58.04976233691358 L 914.3209408484745 58.15249473568397 L 914.3910067642507 58.25554901817823 L 914.4587895291118 58.35891487905398 L 914.5242823648377 58.46258198181127 L 914.5874787221996 58.566539959826216 L 914.6483722816143 58.67077841738765 L 914.7069569537767 58.77528693073668 L 914.7632268802683 58.88005504910905 L 914.8171764341436 58.985072295780256 L 914.8688002204918 59.09032816911312 L 914.9180930769775 59.19581214360803 L 914.9650500743561 59.301513670955444 L 915.009666516967 59.4074221810907 L 915.051937943203 59.513527083251056 L 915.0918601259568 59.619817767034704 L 915.1294290730435 59.72628360346185 L 915.1646410275995 59.832913946037564 L 915.1974924684589 59.939698131816456 L 915.2279801105047 60.046625482468926 L 915.2561009049984 60.153685305349015 L 915.2818520398838 60.26086689456366 L 915.305230940069 60.36815953204325 L 915.3262352676833 60.47555248861345 L 915.3448629223116 60.5830350250681 L 915.3611120412038 60.69059639324311 L 915.3749809994617 60.79822583709131 L 915.386468410201 60.905912593758 L 915.3955731246901 61.01364589465726 L 915.4022942324654 61.12141496654876 L 915.4066310614213 61.22920903261514 L 915.4085831778789 61.337017313539604 M 915.4087041679348 95.6752857281 L 915.4075117080312 95.78309627301661 L 915.4039344475651 95.89089603696858 L 915.3979727442598 95.99867424006935 L 915.3896271942805 96.1064201045884 L 915.3788986321753 96.21412285602908 L 915.3657881307914 96.321771724206 L 915.3502970011682 96.42935594432204 L 915.3324267924056 96.53686475804484 L 915.3121792915096 96.64428741458265 L 915.2895565232134 96.75161317175929 L 915.264560749775 96.85883129708851 L 915.237194470751 96.96593106884711 L 915.2074604227464 97.07290177714718 L 915.1753615791413 97.17973272500701 L 915.1409011497932 97.28641322942086 L 915.1040825807164 97.39293262242717 L 915.064909553737 97.49928025217542 L 915.0233859861253 97.60544548399125 L 914.9795160302033 97.71141770143996 L 914.9333040729299 97.8171863073881 L 914.8847547354626 97.92274072506322 L 914.8338728726945 98.02807039911151 L 914.7806635727696 98.13316479665336 L 914.7251321565734 98.23801340833658 L 914.6672841772014 98.34260574938737 L 914.6071254194032 98.4469313606588 L 914.5446618990046 98.55097980967666 L 914.4798998623054 98.65474069168278 L 914.4128457854554 98.7582036306754 L 914.3435063738065 98.86135828044685 L 914.2718885612418 98.96419432561812 L 914.1979995094831 99.0667014826704 L 914.1218466073741 99.16886950097337 L 914.0434374701413 99.27068816381038 L 913.9627799386332 99.37214728939998 L 913.8798820785357 99.47323673191414 L 913.7947521795659 99.57394638249288 L 913.7073987546424 99.67426617025505 L 913.6178305390353 99.77418606330548 L 913.5260564894912 99.87369606973812 L 913.4320857833388 99.97278623863527 L 913.3359278175702 100.0714466610626 L 913.2375922079021 100.1696674710601 L 913.1370887878134 100.2674388466286 L 913.0344276075622 100.36475101071201 L 912.9296189331811 100.46159423217506 L 912.8226732454502 100.55795882677627 L 912.7136012388493 100.65383515813649 L 912.602413820488 100.74921363870249 L 912.4891221090154 100.84408473070569 L 912.3737374335085 100.93843894711594 L 912.2562713323384 101.03226685259024 L 912.1367355520175 101.12555906441622 L 912.0151420460243 101.21830625345046 L 911.8915029736079 101.31049914505132 L 911.7658306985725 101.4021285200065 L 911.638137788041 101.49318521545483 L 911.508437011198 101.58366012580265 L 911.3767413380131 101.67354420363434 L 911.2430639379438 101.762828460617 L 911.1074181786189 101.85150396839936 L 910.969817624501 101.93956185950451 L 910.8302760355311 102.02699332821673 L 910.6888073657518 102.11378963146201 L 910.545425761912 102.19994208968237 L 910.4001455620529 102.28544208770374 L 910.252981294073 102.37028107559762 L 910.1039476742769 102.45445056953588 L 909.953059605902 102.53794215263929 L 909.8003321776297 102.6207474758191 L 909.6457806620754 102.70285825861201 L 909.489420514262 102.78426629000816 L 909.3312673700736 102.86496342927225 L 909.1713370446934 102.9449416067576 L 909.0096455310202 103.02419282471311 L 908.8462089980709 103.10270915808303 L 908.6810437893623 103.18048275529944 L 908.514166421278 103.25750583906745 L 908.3455935814155 103.33377070714286 L 908.1753421269184 103.4092697331024 L 908.0034290827903 103.48399536710642 L 907.8298716401922 103.55794013665377 L 907.6546871547239 103.63109664732913 L 907.4778931446879 103.70345758354237 L 907.2995072893378 103.7750157092602 L 907.1195474271105 103.84576386872968 L 906.9380315538425 103.91569498719377 L 906.7549778209695 103.98480207159896 L 906.5704045337126 104.05307821129438 L 906.3843301492464 104.12051657872294 L 906.1967732748544 104.1871104301041 L 906.0077526660677 104.25285310610823 L 905.8172872247899 104.31773803252251 L 905.625395997406 104.38175872090837 L 905.4320981728793 104.44490876925032 L 905.2374130808307 104.50718186259614 L 905.0413601896075 104.5685717736884 L 904.8439591043353 104.62907236358716 L 904.6452295649583 104.68867758228383 L 904.4451914442645 104.7473814693062 L 904.2438647458996 104.80517815431453 L 904.0412696023656 104.86206185768845 L 903.8374262730077 104.91802689110501 L 903.6323551419895 104.97306765810755 L 903.4260767162527 105.02717865466522 L 903.2186116234684 105.08035446972343 L 903.0099806099727 105.13258978574503 L 902.8002045386933 105.18387937924192 L 902.5893043870623 105.23421812129749 L 902.3773012449192 105.28360097807949 L 902.1642163124015 105.33202301134341 L 901.9500708978252 105.37947937892625 L 901.7348864155529 105.4259653352308 L 901.5186843838536 105.4714762317002 L 901.3014864227505 105.51600751728267 L 901.0833142518585 105.55955473888682 L 900.864189688213 105.60211354182675 L 900.6441346440876 105.64367967025764 L 900.4231711248035 105.68424896760128 L 900.2013212265285 105.72381737696173 L 899.9786071340675 105.76238094153106 L 899.755051118644 105.79993580498493 L 899.5306755356736 105.83647821186828 L 899.3055028225273 105.8720045079709 L 899.0795554962889 105.90651114069276 L 898.8528561515027 105.93999465939936 L 898.6254274579143 105.97245171576672 L 898.3972921582034 106.00387906411626 L 898.1684730657101 106.03427356173933 L 897.9389930621528 106.0636321692115 L 897.7088750953408 106.09195195069648 L 897.4781421768787 106.11923007423972 L 897.2468173798663 106.14546381205162 L 897.0149238365905 106.17065054078024 L 896.7824847362124 106.1947877417737 L 896.5495233224483 106.21787300133201 L 896.3160628912453 106.23990401094846 L 896.0821267884523 106.26087856754044 L 895.8477384074844 106.28079457366978 L 895.6129211869844 106.29965003775246 L 895.3776986084788 106.31744307425777 L 895.1420941940291 106.3341719038969 L 894.9061315038808 106.34983485380084 L 894.6698341341062 106.36443035768762 L 894.4332257142452 106.37795695601905 L 894.1963299049426 106.39041329614655 L 893.9591703955821 106.40179813244647 L 893.7217709019169 106.4121103264447 L 893.4841551636985 106.42134884693041 L 893.2463469423028 106.42951277005928 L 893.0083700183537 106.43660127944577 L 892.7702481893454 106.44261366624485 L 892.5320052672622 106.44754932922287 L 892.2936650761978 106.45140777481762 L 892.0552514499728 106.45418861718778 L 891.8167882297511 106.45589157825142 L 891.578299261656 106.45651648771386 L 891.3398083943854 106.45606328308465 L 891.1013394768275 106.4545320096839 L 890.8629163556753 106.45192282063768 L 890.6245628730424 106.44823597686269 L 890.386302864078 106.44347184704026 L 890.1481601545847 106.43763090757939 L 889.9101585586351 106.43071374256917 L 889.6723218761903 106.42272104372033 L 889.4346738907203 106.41365361029608 L 889.1972383668258 106.40351234903224 L 888.9600390478611 106.39229827404645 L 888.7230996535607 106.38001250673689 L 888.4864438776664 106.36665627567004 L 888.2500953855586 106.35223091645787 L 888.0140778118895 106.33673787162431 L 887.7784147582199 106.32017869046089 L 887.5431297906588 106.30255502887195 L 887.3082464375068 106.28386864920897 L 887.0737881869035 106.26412142009434 L 886.8397784844786 106.2433153162345 L 886.6062407310072 106.22145241822251 L 886.3731982800704 106.19853491232995 L 886.1406744357187 106.17456509028831 L 885.9086924501428 106.14954534905984 L 885.6772755213482 106.12347819059778 L 885.4464467908347 106.09636622159626 L 885.2162293412831 106.06821215322961 L 884.9866461942465 106.03901880088118 L 884.7577203078482 106.0087890838619 L 884.5294745744862 105.97752602511825 L 884.3019318185436 105.94523275093007 L 884.0751147941063 105.91191249059789 L 883.8490461826879 105.87756857611994 L 883.6237485909609 105.84220444185907 L 883.3992445484968 105.8058236241992 L 883.1755565055129 105.76842976119184 L 882.952706830627 105.73002659219209 L 882.7307178086209 105.69061795748485 L 882.5096116382118 105.65020779790075 L 882.2894104298324 105.60880015442207 L 882.0701362034202 105.56639916777867 L 881.851810886215 105.52300907803387 L 881.6344563105666 105.47863422416049 L 881.4180942117516 105.43327904360692 L 881.2027462257993 105.38694807185344 L 880.988433887329 105.33964594195861 L 880.7751786273959 105.291377384096 L 880.5630017713485 105.24214722508117 L 880.3519245366952 105.19196038788901 L 880.1419680309838 105.1408218911614 L 879.9331532496899 105.08873684870541 L 879.7255010741176 105.03571046898188 L 879.5190322693114 104.98174805458457 L 879.3137674819798 104.92685500170998 L 879.1097272384303 104.87103679961766 L 878.9069319425173 104.81429903008126 L 878.7054018736015 104.75664736683049 L 878.5051571845219 104.69808757498365 L 878.3062178995802 104.63862551047107 L 878.1086039125395 104.57826711944969 L 877.9123349846336 104.51701843770829 L 877.7174307425918 104.45488559006402 L 877.5239106766759 104.39187478974986 L 877.3317941387311 104.32799233779335 L 877.1411003402513 104.26324462238642 L 876.9518483504573 104.19763811824667 L 876.7640570943904 104.13117938596986 L 876.5777453510198 104.0638750713738 L 876.3929317513644 103.99573190483389 L 876.2096347766303 103.92675670060999 L 876.0278727563621 103.85695635616503 L 875.8476638666106 103.7863378514753 L 875.6690261281143 103.71490824833242 L 875.4919774044984 103.64267468963719 L 875.3165354004875 103.56964439868527 L 875.1427176601361 103.4958246784449 L 874.9705415650732 103.4212229108266 L 874.8000243327648 103.34584655594495 L 874.6311830147922 103.26970315137261 L 874.4640344951463 103.19280031138662 L 874.29859548854 103.11514572620688 L 874.1348825387357 103.03674716122718 L 873.9729120168925 102.9576124562387 L 873.8127001199272 102.87774952464599 L 873.654262868896 102.79716635267567 L 873.4976161073922 102.71587099857777 L 873.3427754999614 102.63387159181995 L 873.1897565305351 102.55117633227457 L 873.0385745008828 102.46779348939864 L 872.8892445290815 102.383731401407 L 872.7417815480039 102.29899847443839 L 872.5962003038254 102.21360318171489 L 872.452515354549 102.12755406269459 L 872.3107410685498 102.04085972221772 L 872.1708916231383 101.95352882964605 L 872.0329810031426 101.86557011799609 L 871.8970229995095 101.77699238306569 L 871.7630312079265 101.68780448255453 L 871.6310190274608 101.59801533517833 L 871.5009996592204 101.50763391977702 L 871.3729861050339 101.41666927441683 L 871.24699116615 101.32513049548646 L 871.1230274419577 101.23302673678755 L 871.001107328726 101.14036720861921 L 870.8812430183646 101.04716117685703 L 870.7634464972047 100.95341796202653 L 870.6477295448002 100.85914693837105 L 870.5341037327499 100.76435753291443 L 870.4225804235406 100.66905922451821 L 870.3131707694099 100.5732615429338 L 870.2058857112322 100.47697406784954 L 870.1007359774239 100.3802064279327 L 869.9977320828709 100.28296829986664 L 869.8968843278766 100.18526940738312 L 869.7982027971325 100.08711952028997 L 869.7016973587096 99.98852845349413 L 869.6073776630711 99.8895060660201 L 869.5152531421081 99.79006226002413 L 869.4253330081959 99.69020697980392 L 869.337626253273 99.5899502108043 L 869.2521416479417 99.48930197861863 L 869.1688877405915 99.38827234798623 L 869.0878728565434 99.28687142178599 L 869.0091050972186 99.18510934002603 L 868.9325923393274 99.08299627882971 L 868.8583422340815 98.98054244941808 L 868.78636220643 98.87775809708869 L 868.7166594543153 98.7746535001911 L 868.6492409479548 98.67123896909912 L 868.5841134291428 98.56752484517966 L 868.5212834105769 98.46352149975867 L 868.4607571752067 98.35923933308405 L 868.4025407756052 98.25468877328554 L 868.346640033364 98.14988027533201 L 868.2930605385105 98.04482431998592 L 868.2418076489497 97.93953141275524 L 868.1928864899279 97.83401208284296 L 868.14630195352 97.72827688209414 L 868.1020586981411 97.62233638394075 L 868.0601611480797 97.5162011823443 L 868.020613493056 97.40988189073651 L 867.9834196878023 97.30338914095798 L 867.9485834516685 97.19673358219488 L 867.9161082682488 97.08992587991426 L 867.8859973850348 96.9829767147973 L 867.8582538130895 96.87589678167143 L 867.8328803267472 96.7686967884407 L 867.8098794633352 96.66138745501512 L 867.7892535229207 96.55397951223858 L 867.7710045680806 96.44648370081588 L 867.7551344236952 96.33891077023856 L 867.7416446767656 96.23127147771005 L 867.7305366762554 96.1235765870699 L 867.7218115329554 96.01583686771744 L 867.7154701193724 95.90806309353479 L 867.7115130696428 95.80026604180959 L 867.7099407794681 95.69245649215716" stroke-miterlimit="10" stroke-width="2.7769845610000004" stroke-dasharray=""/></g><g><text fill="black" stroke="none" font-family="sans-serif" font-size="11pt" font-style="normal" font-weight="normal" text-decoration="normal" x="860.1813624036458" y="123.984193047" text-anchor="start" dominant-baseline="alphabetic" xml:space="preserve">Database</text></g></g><g><path fill="white" stroke="black" paint-order="fill stroke markers" d=" M 354.1483179452474 182.790924927 L 370.4835212452474 182.790924927 L 370.4835212452474 1146.5679196269998 L 354.1483179452474 1146.5679196269998 L 354.1483179452474 182.790924927" stroke-miterlimit="10" stroke-width="1.3612669416666667" stroke-dasharray=""/><path fill="white" stroke="black" paint-order="fill stroke markers" d=" M 362.3159195952474 403.316169477 L 378.6511228952474 403.316169477 L 378.6511228952474 449.05473871699996 L 362.3159195952474 449.05473871699996 L 362.3159195952474 403.316169477" stroke-miterlimit="10" stroke-width="1.3612669416666667" stroke-dasharray=""/><path fill="white" stroke="black" paint-order="fill stroke markers" d=" M 587.6160076799479 676.1140645869998 L 603.951210979948 676.1140645869998 L 603.951210979948 1100.8293503869997 L 587.6160076799479 1100.8293503869997 L 587.6160076799479 676.1140645869998" stroke-miterlimit="10" stroke-width="1.3612669416666667" stroke-dasharray=""/><path fill="white" stroke="black" paint-order="fill stroke markers" d=" M 744.4695015263671 917.8750734269998 L 760.8047048263672 917.8750734269998 L 760.8047048263672 1055.0907811469997 L 744.4695015263671 1055.0907811469997 L 744.4695015263671 917.8750734269998" stroke-miterlimit="10" stroke-width="1.3612669416666667" stroke-dasharray=""/><path fill="white" stroke="black" paint-order="fill stroke markers" d=" M 883.3917056999348 963.6136426669998 L 899.726908999935 963.6136426669998 L 899.726908999935 1009.3522119069997 L 883.3917056999348 1009.3522119069997 L 883.3917056999348 963.6136426669998" stroke-miterlimit="10" stroke-width="1.3612669416666667" stroke-dasharray=""/><g><g><rect fill="white" stroke="none" x="131.53201656668622" y="161.555160637" width="164.592699661875" height="21.23576429"/></g><text fill="black" stroke="none" font-family="sans-serif" font-size="11pt" font-style="normal" font-weight="normal" text-decoration="normal" x="133.9822970616862" y="176.25684360699998" text-anchor="start" dominant-baseline="alphabetic" xml:space="preserve">Click Create User button</text></g><g><path fill="none" stroke="black" paint-order="fill stroke markers" d=" M 73.50841485 182.790924927 L 340.69900056158076 182.790924927" stroke-miterlimit="10" stroke-width="1.3612669416666667" stroke-dasharray=""/><g transform="translate(354.1483179452474,182.790924927) translate(-354.1483179452474,-182.790924927)"><path fill="black" stroke="none" paint-order="stroke fill markers" d=" M 340.53564852858074 175.98459021866665 L 354.1483179452474 182.790924927 L 340.53564852858074 189.59725963533333 Z"/></g></g><g><g><rect fill="white" stroke="none" x="123.37525539725262" y="207.293729877" width="180.9062220007422" height="21.23576429"/></g><text fill="black" stroke="none" font-family="sans-serif" font-size="11pt" font-style="normal" font-weight="normal" text-decoration="normal" x="125.82553589225262" y="221.99541284699998" text-anchor="start" dominant-baseline="alphabetic" xml:space="preserve">Display Create User popup</text></g><g><path fill="none" stroke="black" paint-order="fill stroke markers" d=" M 354.1483179452474 228.529494167 L 86.95773223366666 228.529494167" stroke-miterlimit="10" stroke-width="1.3612669416666667" stroke-dasharray="6.53408132"/><g transform="translate(73.50841485,228.529494167) translate(-73.50841485,-228.529494167)"><path fill="black" stroke="none" paint-order="stroke fill markers" d=" M 87.12108426666666 221.72315945866666 L 73.50841485 228.529494167 L 87.12108426666666 235.33582887533333 Z"/></g></g><g><g><rect fill="white" stroke="none" x="112.9207113298698" y="253.03229911699998" width="201.81531013550781" height="21.23576429"/></g><g><rect fill="white" stroke="none" x="112.9207113298698" y="269.36750241699997" width="140.69148506226563" height="21.23576429"/></g><text fill="black" stroke="none" font-family="sans-serif" font-size="11pt" font-style="normal" font-weight="normal" text-decoration="normal" x="115.3709918248698" y="267.73398208699996" text-anchor="start" dominant-baseline="alphabetic" xml:space="preserve">Select type Teacher or Officer </text><text fill="black" stroke="none" font-family="sans-serif" font-size="11pt" font-style="normal" font-weight="normal" text-decoration="normal" x="115.3709918248698" y="284.06918538699995" text-anchor="start" dominant-baseline="alphabetic" xml:space="preserve">or Workspace Admin</text></g><g><path fill="none" stroke="black" paint-order="fill stroke markers" d=" M 73.50841485 290.603266707 L 340.69900056158076 290.603266707" stroke-miterlimit="10" stroke-width="1.3612669416666667" stroke-dasharray=""/><g transform="translate(354.1483179452474,290.603266707) translate(-354.1483179452474,-290.603266707)"><path fill="black" stroke="none" paint-order="stroke fill markers" d=" M 340.53564852858074 283.79693199866665 L 354.1483179452474 290.603266707 L 340.53564852858074 297.4096014153333 Z"/></g></g><g><g><rect fill="white" stroke="none" x="131.52843838065107" y="315.106071657" width="164.59985603394531" height="21.23576429"/></g><text fill="black" stroke="none" font-family="sans-serif" font-size="11pt" font-style="normal" font-weight="normal" text-decoration="normal" x="133.97871887565105" y="329.80775462699995" text-anchor="start" dominant-baseline="alphabetic" xml:space="preserve">Type information of User</text></g><g><path fill="none" stroke="black" paint-order="fill stroke markers" d=" M 73.50841485 336.341835947 L 340.69900056158076 336.341835947" stroke-miterlimit="10" stroke-width="1.3612669416666667" stroke-dasharray=""/><g transform="translate(354.1483179452474,336.341835947) translate(-354.1483179452474,-336.341835947)"><path fill="black" stroke="none" paint-order="stroke fill markers" d=" M 340.53564852858074 329.53550123866665 L 354.1483179452474 336.341835947 L 340.53564852858074 343.14817065533333 Z"/></g></g><g><g><rect fill="white" stroke="none" x="397.98111346691405" y="360.84464089700003" width="125.25842536988281" height="21.23576429"/></g><text fill="black" stroke="none" font-family="sans-serif" font-size="11pt" font-style="normal" font-weight="normal" text-decoration="normal" x="400.43139396191407" y="375.546323867" text-anchor="start" dominant-baseline="alphabetic" xml:space="preserve">Validate input data</text></g><g><path fill="none" stroke="black" paint-order="fill stroke markers" d=" M 370.4835212452474 382.080405187 L 443.9919360952474 382.080405187 L 443.9919360952474 403.316169477 L 392.10044027891405 403.316169477" stroke-miterlimit="10" stroke-width="1.3612669416666667" stroke-dasharray=""/><g transform="translate(378.6511228952474,403.316169477) translate(-378.6511228952474,-403.316169477)"><path fill="black" stroke="none" paint-order="stroke fill markers" d=" M 392.2637923119141 396.5098347686667 L 378.6511228952474 403.316169477 L 392.2637923119141 410.12250418533336 Z"/></g></g><g><g><rect fill="white" stroke="none" x="397.98111346691405" y="427.818974427" width="95.90982307496094" height="21.23576429"/></g><text fill="black" stroke="none" font-family="sans-serif" font-size="11pt" font-style="normal" font-weight="normal" text-decoration="normal" x="400.43139396191407" y="442.520657397" text-anchor="start" dominant-baseline="alphabetic" xml:space="preserve">Validate value</text></g><g><path fill="none" stroke="black" paint-order="fill stroke markers" d=" M 378.6511228952474 449.05473871699996 L 443.9919360952474 449.05473871699996 L 443.9919360952474 470.290503007 L 383.93283862891406 470.290503007" stroke-miterlimit="10" stroke-width="1.3612669416666667" stroke-dasharray="6.53408132"/><g transform="translate(370.4835212452474,470.290503007) translate(-370.4835212452474,-470.290503007)"><path fill="black" stroke="none" paint-order="stroke fill markers" d=" M 384.0961906619141 463.48416829866665 L 370.4835212452474 470.290503007 L 384.0961906619141 477.0968377153333 Z"/></g></g><g><g><rect fill="white" stroke="none" x="153.65441494315107" y="538.8983568669998" width="120.34790290894531" height="21.23576429"/></g><text fill="black" stroke="none" font-family="sans-serif" font-size="11pt" font-style="normal" font-weight="normal" text-decoration="normal" x="156.10469543815105" y="553.6000398369998" text-anchor="start" dominant-baseline="alphabetic" xml:space="preserve">Validate Message</text></g><g><path fill="none" stroke="black" paint-order="fill stroke markers" d=" M 354.1483179452474 560.1341211569999 L 86.95773223366666 560.1341211569999" stroke-miterlimit="10" stroke-width="1.3612669416666667" stroke-dasharray="6.53408132"/><g transform="translate(73.50841485,560.1341211569999) translate(-73.50841485,-560.1341211569999)"><path fill="black" stroke="none" paint-order="stroke fill markers" d=" M 87.12108426666666 553.3277864486665 L 73.50841485 560.1341211569999 L 87.12108426666666 566.9404558653332 Z"/></g></g><g><g><rect fill="white" stroke="none" x="154.33802395194013" y="609.1397310569998" width="118.98068489136719" height="21.23576429"/></g><text fill="black" stroke="none" font-family="sans-serif" font-size="11pt" font-style="normal" font-weight="normal" text-decoration="normal" x="156.78830444694012" y="623.8414140269998" text-anchor="start" dominant-baseline="alphabetic" xml:space="preserve">Click button Save</text></g><g><path fill="none" stroke="black" paint-order="fill stroke markers" d=" M 73.50841485 630.3754953469999 L 340.69900056158076 630.3754953469999" stroke-miterlimit="10" stroke-width="1.3612669416666667" stroke-dasharray=""/><g transform="translate(354.1483179452474,630.3754953469999) translate(-354.1483179452474,-630.3754953469999)"><path fill="black" stroke="none" paint-order="stroke fill markers" d=" M 340.53564852858074 623.5691606386665 L 354.1483179452474 630.3754953469999 L 340.53564852858074 637.1818300553332 Z"/></g></g><g><g><rect fill="white" stroke="none" x="425.26807069855465" y="654.8783002969998" width="107.56338752808594" height="21.23576429"/></g><text fill="black" stroke="none" font-family="sans-serif" font-size="11pt" font-style="normal" font-weight="normal" text-decoration="normal" x="427.71835119355467" y="669.5799832669998" text-anchor="start" dominant-baseline="alphabetic" xml:space="preserve">POST: /api/user</text></g><g><path fill="none" stroke="black" paint-order="fill stroke markers" d=" M 370.4835212452474 676.1140645869998 L 574.1666902962812 676.1140645869998" stroke-miterlimit="10" stroke-width="1.3612669416666667" stroke-dasharray=""/><g transform="translate(587.6160076799479,676.1140645869998) translate(-587.6160076799479,-676.1140645869998)"><path fill="black" stroke="none" paint-order="stroke fill markers" d=" M 574.0033382632812 669.3077298786665 L 587.6160076799479 676.1140645869998 L 574.0033382632812 682.9203992953331 Z"/></g></g><g><g><rect fill="white" stroke="none" x="393.897312641914" y="744.7219184469999" width="149.11673225464844" height="21.23576429"/></g><g><rect fill="white" stroke="none" x="393.897312641914" y="761.0571217469999" width="170.3049036413672" height="21.23576429"/></g><text fill="red" stroke="none" font-family="sans-serif" font-size="11pt" font-style="normal" font-weight="normal" text-decoration="normal" x="396.34759313691404" y="759.4236014169999" text-anchor="start" dominant-baseline="alphabetic" xml:space="preserve">400 BAD_REQUEST: </text><text fill="red" stroke="none" font-family="sans-serif" font-size="11pt" font-style="normal" font-weight="normal" text-decoration="normal" x="396.34759313691404" y="775.7588047169999" text-anchor="start" dominant-baseline="alphabetic" xml:space="preserve">Missing required property</text></g><g><path fill="none" stroke="black" paint-order="fill stroke markers" d=" M 587.6160076799479 782.2928860369999 L 383.93283862891406 782.2928860369999" stroke-miterlimit="10" stroke-width="1.3612669416666667" stroke-dasharray="6.53408132"/><g transform="translate(370.4835212452474,782.2928860369999) translate(-370.4835212452474,-782.2928860369999)"><path fill="black" stroke="none" paint-order="stroke fill markers" d=" M 384.0961906619141 775.4865513286666 L 370.4835212452474 782.2928860369999 L 384.0961906619141 789.0992207453332 Z"/></g></g><g><g><rect fill="white" stroke="none" x="145.37597256033857" y="806.7956909869998" width="136.90478767457031" height="21.23576429"/></g><text fill="black" stroke="none" font-family="sans-serif" font-size="11pt" font-style="normal" font-weight="normal" text-decoration="normal" x="147.82625305533855" y="821.4973739569998" text-anchor="start" dominant-baseline="alphabetic" xml:space="preserve">Message is required</text></g><g><path fill="none" stroke="black" paint-order="fill stroke markers" d=" M 354.1483179452474 828.0314552769998 L 86.95773223366666 828.0314552769998" stroke-miterlimit="10" stroke-width="1.3612669416666667" stroke-dasharray="6.53408132"/><g transform="translate(73.50841485,828.0314552769998) translate(-73.50841485,-828.0314552769998)"><path fill="black" stroke="none" paint-order="stroke fill markers" d=" M 87.12108426666666 821.2251205686665 L 73.50841485 828.0314552769998 L 87.12108426666666 834.8377899853332 Z"/></g></g><g><g><rect fill="white" stroke="none" x="651.3950244886263" y="896.6393091369998" width="45.6306635290625" height="21.23576429"/></g><text fill="black" stroke="none" font-family="sans-serif" font-size="11pt" font-style="normal" font-weight="normal" text-decoration="normal" x="653.8453049836263" y="911.3409921069998" text-anchor="start" dominant-baseline="alphabetic" xml:space="preserve">save()</text></g><g><path fill="none" stroke="black" paint-order="fill stroke markers" d=" M 603.951210979948 917.8750734269998 L 731.0201841427005 917.8750734269998" stroke-miterlimit="10" stroke-width="1.3612669416666667" stroke-dasharray=""/><g transform="translate(744.4695015263671,917.8750734269998) translate(-744.4695015263671,-917.8750734269998)"><path fill="black" stroke="none" paint-order="stroke fill markers" d=" M 730.8568321097005 911.0687387186665 L 744.4695015263671 917.8750734269998 L 730.8568321097005 924.6814081353332 Z"/></g></g><g><g><rect fill="white" stroke="none" x="780.1346953980338" y="942.3778783769998" width="83.92701973023438" height="21.23576429"/></g><text fill="black" stroke="none" font-family="sans-serif" font-size="11pt" font-style="normal" font-weight="normal" text-decoration="normal" x="782.5849758930339" y="957.0795613469998" text-anchor="start" dominant-baseline="alphabetic" xml:space="preserve">Create User</text></g><g><path fill="none" stroke="black" paint-order="fill stroke markers" d=" M 760.8047048263672 963.6136426669998 L 869.9423883162682 963.6136426669998" stroke-miterlimit="10" stroke-width="1.3612669416666667" stroke-dasharray=""/><g transform="translate(883.3917056999348,963.6136426669998) translate(-883.3917056999348,-963.6136426669998)"><path fill="black" stroke="none" paint-order="stroke fill markers" d=" M 869.7790362832682 956.8073079586665 L 883.3917056999348 963.6136426669998 L 869.7790362832682 970.4199773753331 Z"/></g></g><g><g><rect fill="white" stroke="none" x="784.6157287232292" y="988.1164476169997" width="74.96495307984375" height="21.23576429"/></g><text fill="black" stroke="none" font-family="sans-serif" font-size="11pt" font-style="normal" font-weight="normal" text-decoration="normal" x="787.0660092182292" y="1002.8181305869997" text-anchor="start" dominant-baseline="alphabetic" xml:space="preserve">User entity</text></g><g><path fill="none" stroke="black" paint-order="fill stroke markers" d=" M 883.3917056999348 1009.3522119069997 L 774.2540222100339 1009.3522119069997" stroke-miterlimit="10" stroke-width="1.3612669416666667" stroke-dasharray="6.53408132"/><g transform="translate(760.8047048263672,1009.3522119069997) translate(-760.8047048263672,-1009.3522119069997)"><path fill="black" stroke="none" paint-order="stroke fill markers" d=" M 774.4173742430339 1002.5458771986664 L 760.8047048263672 1009.3522119069997 L 774.4173742430339 1016.1585466153331 Z"/></g></g><g><g><rect fill="white" stroke="none" x="623.2812015516146" y="1033.8550168569998" width="101.85830940308594" height="21.23576429"/></g><text fill="black" stroke="none" font-family="sans-serif" font-size="11pt" font-style="normal" font-weight="normal" text-decoration="normal" x="625.7314820466146" y="1048.5566998269999" text-anchor="start" dominant-baseline="alphabetic" xml:space="preserve">New User data</text></g><g><path fill="none" stroke="black" paint-order="fill stroke markers" d=" M 744.4695015263671 1055.0907811469997 L 617.4005283636146 1055.0907811469997" stroke-miterlimit="10" stroke-width="1.3612669416666667" stroke-dasharray="6.53408132"/><g transform="translate(603.951210979948,1055.0907811469997) translate(-603.951210979948,-1055.0907811469997)"><path fill="black" stroke="none" paint-order="stroke fill markers" d=" M 617.5638803966146 1048.2844464386665 L 603.951210979948 1055.0907811469997 L 617.5638803966146 1061.897115855333 Z"/></g></g><g><g><rect fill="white" stroke="none" x="413.18860292511715" y="1079.5935860969998" width="131.72232307496094" height="21.23576429"/></g><text fill="green" stroke="none" font-family="sans-serif" font-size="11pt" font-style="normal" font-weight="normal" text-decoration="normal" x="415.63888342011717" y="1094.295269067" text-anchor="start" dominant-baseline="alphabetic" xml:space="preserve">201 OK: CREATED</text></g><g><path fill="none" stroke="black" paint-order="fill stroke markers" d=" M 587.6160076799479 1100.8293503869997 L 383.93283862891406 1100.8293503869997" stroke-miterlimit="10" stroke-width="1.3612669416666667" stroke-dasharray="6.53408132"/><g transform="translate(370.4835212452474,1100.8293503869997) translate(-370.4835212452474,-1100.8293503869997)"><path fill="black" stroke="none" paint-order="stroke fill markers" d=" M 384.0961906619141 1094.0230156786665 L 370.4835212452474 1100.8293503869997 L 384.0961906619141 1107.635685095333 Z"/></g></g><g><g><rect fill="white" stroke="none" x="92.83840542166668" y="1125.332155337" width="241.97992195191406" height="21.23576429"/></g><text fill="black" stroke="none" font-family="sans-serif" font-size="11pt" font-style="normal" font-weight="normal" text-decoration="normal" x="95.28868591666668" y="1140.033838307" text-anchor="start" dominant-baseline="alphabetic" xml:space="preserve">Display User list table with new User</text></g><g><path fill="none" stroke="black" paint-order="fill stroke markers" d=" M 354.1483179452474 1146.5679196269998 L 86.95773223366666 1146.5679196269998" stroke-miterlimit="10" stroke-width="1.3612669416666667" stroke-dasharray="6.53408132"/><g transform="translate(73.50841485,1146.5679196269998) translate(-73.50841485,-1146.5679196269998)"><path fill="black" stroke="none" paint-order="stroke fill markers" d=" M 87.12108426666666 1139.7615849186666 L 73.50841485 1146.5679196269998 L 87.12108426666666 1153.374254335333 Z"/></g></g><g><g/><path fill="none" stroke="black" paint-order="fill stroke markers" d=" M 16.335203299999996 494.7933079569999 L 419.4891311452474 494.7933079569999 L 419.4891311452474 584.6369261069999 L 16.335203299999996 584.6369261069999 L 16.335203299999996 494.7933079569999 Z" stroke-miterlimit="10" stroke-width="2.3336004714285714" stroke-dasharray=""/><path fill="white" stroke="black" paint-order="fill stroke markers" d=" M 16.335203299999996 494.7933079569999 L 16.335203299999996 514.3955519169999 L 62.69440689707031 514.3955519169999 L 72.49552887707031 504.5944299369999 L 72.49552887707031 494.7933079569999 L 16.335203299999996 494.7933079569999" stroke-miterlimit="10" stroke-width="2.3336004714285714" stroke-dasharray=""/><text fill="black" stroke="none" font-family="sans-serif" font-size="8.8pt" font-style="normal" font-weight="bold" text-decoration="normal" x="32.67040659999999" y="507.86147059699994" text-anchor="start" dominant-baseline="alphabetic" xml:space="preserve">alt</text><g><rect fill="white" stroke="none" x="86.38045168207032" y="496.10012422099993" width="151.5138880163672" height="16.988611432000003"/></g><text fill="black" stroke="none" font-family="sans-serif" font-size="8.8pt" font-style="normal" font-weight="bold" text-decoration="normal" x="88.83073217707032" y="507.86147059699994" text-anchor="start" dominant-baseline="alphabetic" xml:space="preserve">[If the input data is wrong]</text></g><g><g/><path fill="none" stroke="black" paint-order="fill stroke markers" d=" M 16.335203299999996 700.6168695369998 L 948.7325188999349 700.6168695369998 L 948.7325188999349 1171.0707245769997 L 16.335203299999996 1171.0707245769997 L 16.335203299999996 700.6168695369998 Z" stroke-miterlimit="10" stroke-width="2.3336004714285714" stroke-dasharray=""/><path fill="white" stroke="black" paint-order="fill stroke markers" d=" M 16.335203299999996 700.6168695369998 L 16.335203299999996 720.2191134969999 L 62.69440689707031 720.2191134969999 L 72.49552887707031 710.4179915169998 L 72.49552887707031 700.6168695369998 L 16.335203299999996 700.6168695369998" stroke-miterlimit="10" stroke-width="2.3336004714285714" stroke-dasharray=""/><text fill="black" stroke="none" font-family="sans-serif" font-size="8.8pt" font-style="normal" font-weight="bold" text-decoration="normal" x="32.67040659999999" y="713.6850321769998" text-anchor="start" dominant-baseline="alphabetic" xml:space="preserve">alt</text><g><rect fill="white" stroke="none" x="86.38045168207032" y="701.9236858009998" width="244.7581049353125" height="16.988611432000003"/></g><text fill="black" stroke="none" font-family="sans-serif" font-size="8.8pt" font-style="normal" font-weight="bold" text-decoration="normal" x="88.83073217707032" y="713.6850321769998" text-anchor="start" dominant-baseline="alphabetic" xml:space="preserve">[If there is required field do not have value]</text><g><path fill="none" stroke="black" paint-order="fill stroke markers" d=" M 16.335203299999996 852.5342602269999 L 948.7325188999349 852.5342602269999" stroke-miterlimit="10" stroke-width="2.3336004714285714" stroke-dasharray="4.083800825"/></g><g/><g><rect fill="white" stroke="none" x="86.38045168207032" y="853.8410764909999" width="36.84300483765625" height="16.988611432000003"/></g><text fill="black" stroke="none" font-family="sans-serif" font-size="8.8pt" font-style="normal" font-weight="bold" text-decoration="normal" x="88.83073217707032" y="865.6024228669999" text-anchor="start" dominant-baseline="alphabetic" xml:space="preserve">[Else]</text></g><g/></g></g></svg>