<svg version="1.1" xmlns="http://www.w3.org/2000/svg" xmlns:xlink="http://www.w3.org/1999/xlink" width="1263" height="1524"><desc>%20title%20Create%20User%20with%20type%20Student%0A%0Aactor%20%23green%3A0.5%20%22Workspace%20Admin%22%20as%20w%0Aboundary%20%22Create%20User%20popup%22%20as%20f%0Aparticipant%20%22Search%20Service%22%20as%20ss%0Acontrol%20%22User%20Controller%22%20as%20gc%0Aparticipant%20%22User%20Service%22%20as%20gs%0Adatabase%20%23blue%3A1%20%22Database%22%20as%20db%0A%0Aw-%3Ef%3AClick%20Create%20User%20button%0Aactivate%20f%0Aw%3C--f%3ADisplay%20Create%20User%20popup%0Aw-%3Ef%3AType%20information%20of%20User%0Af-%3Ef%3AValidate%20input%20data%0Aactivate%20f%0Af--%3Ef%3A%20Validate%20value%0Adeactivate%20f%0Aalt%20If%20the%20input%20data%20is%20wrong%0Aw%3C--f%3AValidate%20Message%0Aend%0Aw-%3Ef%3ASearch%20Curriculum%0Af-%3Ess%3AGET%5Cn%2Fapi%2Fsearch%3Fentity%3Dcurriculum%5Cn%2B%20%7BparamToSearch%7D%0Aactivate%20ss%0Af%3C--ss%3ACurriculum%20list%0Adeactivate%20ss%0Aalt%20If%20there%20is%20no%20curriculum%20match%20with%20condition%0Aw%3C--f%3ANo%20Options%0Aelse%20Else%0Aw%3C--f%3A%20Curriculum%20options%20list%0A%0Aw-%3Ef%3ASelect%20Curriculum%20and%20click%20Save%0Af-%3Egc%3APOST%3A%20%2Fapi%2Fuser%0Aactivate%20gc%0Aalt%20If%20there%20is%20required%20field%20do%20not%20have%20value%0Af%3C--gc%3A%3Ccolor%3A%23red%3E400%20BAD_REQUEST%3A%20Missing%20required%20property%3C%2Fcolor%3E%0Aw%3C--f%3AMessage%20is%20required%0Aelse%20Else%0Agc-%3Egs%3Asave()%0Aactivate%20gs%0Ags-%3Edb%3ACreate%20User%0Aactivate%20db%0Ags%3C--db%3AUser%20entity%0Adeactivate%20db%0Agc%3C--gs%3ANew%20Student%20data%0Adeactivate%20gs%0Af%3C--gc%3A%3Ccolor%3A%23green%3E201%20OK%3A%20CREATED%3C%2Fcolor%3E%0Adeactivate%20gc%0Aw%3C--f%3A%20Display%20User%20list%20table%20with%20new%20Student%0Adeactivate%20f%0Aend%0Aend%20f%0A%0A%0A</desc><defs/><g><g/><g/><g/><g/><g/><g/><g/><g/><g/><g/><g/><g/><g/><g/><g/><g/><g/><g/><g/><g/><g/><g/><g/><g/><g/><g/><g/><g/><g/><g><rect fill="white" stroke="none" x="0" y="0" width="1263" height="1524"/></g><g><text fill="black" stroke="none" font-family="sans-serif" font-size="16.5pt" font-style="normal" font-weight="normal" text-decoration="normal" x="485.0969137486328" y="24.50280495" text-anchor="start" dominant-baseline="alphabetic" xml:space="preserve">Create User with type Student</text></g><g/><g><path fill="none" stroke="black" paint-order="fill stroke markers" d=" M 89.84361815 129.701514202 L 89.84361815 1524.727876022" stroke-miterlimit="10" stroke-width="1.3612669416666667" stroke-dasharray="12.565541,5.445067766666667"/><path fill="none" stroke="black" paint-order="fill stroke markers" d=" M 398.23594650364583 129.701514202 L 398.23594650364583 1524.727876022" stroke-miterlimit="10" stroke-width="1.3612669416666667" stroke-dasharray="12.565541,5.445067766666667"/><path fill="none" stroke="black" paint-order="fill stroke markers" d=" M 657.3729172442057 129.701514202 L 657.3729172442057 1524.727876022" stroke-miterlimit="10" stroke-width="1.3612669416666667" stroke-dasharray="12.565541,5.445067766666667"/><path fill="none" stroke="black" paint-order="fill stroke markers" d=" M 850.2986485688803 129.701514202 L 850.2986485688803 1524.727876022" stroke-miterlimit="10" stroke-width="1.3612669416666667" stroke-dasharray="12.565541,5.445067766666667"/><path fill="none" stroke="black" paint-order="fill stroke markers" d=" M 1026.736966023698 129.701514202 L 1026.736966023698 1524.727876022" stroke-miterlimit="10" stroke-width="1.3612669416666667" stroke-dasharray="12.565541,5.445067766666667"/><path fill="none" stroke="black" paint-order="fill stroke markers" d=" M 1165.6591701972657 129.701514202 L 1165.6591701972657 1524.727876022" stroke-miterlimit="10" stroke-width="1.3612669416666667" stroke-dasharray="12.565541,5.445067766666667"/></g><g><g><path fill="white" stroke="green" paint-order="fill stroke markers" d=" M 99.154684031 60.60360424300001 A 9.311065881 9.311065881 0 1 1 99.15467937546744 60.594293178670846 M 89.84361815 69.91467012400001 L 89.84361815 89.84361815000001 M 78.08227177399999 77.102159576 L 101.604964526 77.102159576 M 89.84361815 89.84361815000001 L 78.08227177399999 108.465749912 M 89.84361815 89.84361815000001 L 101.604964526 108.465749912" stroke-miterlimit="10" stroke-width="1.3884922805000002" stroke-dasharray=""/></g><g><text fill="black" stroke="none" font-family="sans-serif" font-size="11pt" font-style="normal" font-weight="normal" text-decoration="normal" x="30.50219511533203" y="124.80095321200001" text-anchor="start" dominant-baseline="alphabetic" xml:space="preserve">Workspace Admin</text></g><g><path fill="white" stroke="black" paint-order="fill stroke markers" d=" M 430.66132505414583 82.819480731 A 24.2577769005 24.2577769005 0 1 1 430.6613129252584 82.79522295814245 M 367.1990602336458 57.17321154999999 L 367.1990602336458 108.465749912 M 365.81056795314583 82.819480731 L 382.1457712531458 82.819480731" stroke-miterlimit="10" stroke-width="2.7769845610000004" stroke-dasharray=""/></g><g><text fill="black" stroke="none" font-family="sans-serif" font-size="11pt" font-style="normal" font-weight="normal" text-decoration="normal" x="336.3032530222005" y="124.80095321200001" text-anchor="start" dominant-baseline="alphabetic" xml:space="preserve">Create User popup</text></g><path fill="none" stroke="none"/><g><path fill="white" stroke="black" paint-order="fill stroke markers" d=" M 589.9463179161471 85.75981732500001 L 724.7995165722643 85.75981732500001 L 724.7995165722643 129.701514202 L 589.9463179161471 129.701514202 L 589.9463179161471 85.75981732500001 Z" stroke-miterlimit="10" stroke-width="2.613632528" stroke-dasharray=""/></g><g><text fill="black" stroke="none" font-family="sans-serif" font-size="11pt" font-style="normal" font-weight="normal" text-decoration="normal" x="607.6700134966471" y="113.36631090200002" text-anchor="start" dominant-baseline="alphabetic" xml:space="preserve">Search Service</text></g><g><path fill="white" stroke="black" paint-order="fill stroke markers" d=" M 874.5564254693802 82.819480731 A 24.2577769005 24.2577769005 0 1 1 874.5564133404928 82.79522295814245 M 847.0316079088802 58.561703830499994 L 856.8327298888802 50.39410218049999 M 847.0316079088802 58.561703830499994 L 856.8327298888802 66.72930548049999" stroke-miterlimit="10" stroke-width="2.7769845610000004" stroke-dasharray=""/></g><g><text fill="black" stroke="none" font-family="sans-serif" font-size="11pt" font-style="normal" font-weight="normal" text-decoration="normal" x="801.0109135835287" y="124.80095321200001" text-anchor="start" dominant-baseline="alphabetic" xml:space="preserve">User Controller</text></g><path fill="none" stroke="none"/><g><path fill="white" stroke="black" paint-order="fill stroke markers" d=" M 967.0591078455417 85.75981732500001 L 1086.4148242018541 85.75981732500001 L 1086.4148242018541 129.701514202 L 967.0591078455417 129.701514202 L 967.0591078455417 85.75981732500001 Z" stroke-miterlimit="10" stroke-width="2.613632528" stroke-dasharray=""/></g><g><text fill="black" stroke="none" font-family="sans-serif" font-size="11pt" font-style="normal" font-weight="normal" text-decoration="normal" x="984.7828034260417" y="113.36631090200002" text-anchor="start" dominant-baseline="alphabetic" xml:space="preserve">User Service</text></g><g><path fill="white" stroke="blue" paint-order="fill stroke markers" d=" M 1141.8097733792656 97.684515734 L 1141.8097733792656 63.380588804000006 L 1189.5085670152657 63.380588804000006 L 1189.5085670152657 97.684515734" stroke-miterlimit="10" stroke-width="2.7769845610000004" stroke-dasharray=""/><path fill="white" stroke="blue" paint-order="fill stroke markers" d=" M 1189.5085670152657 62.1881189631 L 1189.507374555362 62.29592950801663 L 1189.503797294896 62.403729271968594 L 1189.4978355915905 62.51150747506936 L 1189.4894900416114 62.619253339588404 L 1189.4787614795061 62.72695609102909 L 1189.4656509781223 62.834604959206004 L 1189.450159848499 62.94218917932205 L 1189.4322896397364 63.04969799304486 L 1189.4120421388404 63.15712064958265 L 1189.3894193705441 63.2644464067593 L 1189.3644235971058 63.371664532088516 L 1189.3370573180819 63.47876430384712 L 1189.3073232700772 63.58573501214718 L 1189.275224426472 63.692565960007016 L 1189.2407639971238 63.79924646442086 L 1189.203945428047 63.90576585742718 L 1189.164772401068 64.01211348717543 L 1189.123248833456 64.11827871899126 L 1189.079378877534 64.22425093643996 L 1189.0331669202608 64.3300195423881 L 1188.9846175827934 64.43557396006322 L 1188.9337357200254 64.54090363411153 L 1188.8805264201003 64.64599803165338 L 1188.8249950039042 64.75084664333659 L 1188.7671470245323 64.85543898438739 L 1188.706988266734 64.95976459565881 L 1188.6445247463353 65.06381304467668 L 1188.5797627096363 65.16757392668278 L 1188.5127086327861 65.27103686567541 L 1188.4433692211371 65.37419151544687 L 1188.3717514085727 65.47702756061814 L 1188.297862356814 65.5795347176704 L 1188.2217094547048 65.68170273597339 L 1188.143300317472 65.7835213988104 L 1188.062642785964 65.88498052439998 L 1187.9797449258665 65.98606996691414 L 1187.8946150268966 66.08677961749288 L 1187.8072616019733 66.18709940525505 L 1187.7176933863661 66.28701929830548 L 1187.6259193368219 66.38652930473813 L 1187.5319486306696 66.48561947363528 L 1187.435790664901 66.58427989606261 L 1187.3374550552328 66.6825007060601 L 1187.2369516351441 66.7802720816286 L 1187.1342904548928 66.87758424571203 L 1187.0294817805118 66.97442746717506 L 1186.922536092781 67.07079206177627 L 1186.8134640861801 67.1666683931365 L 1186.7022766678188 67.2620468737025 L 1186.5889849563462 67.35691796570569 L 1186.4736002808393 67.45127218211596 L 1186.3561341796692 67.54510008759026 L 1186.2365983993484 67.63839229941624 L 1186.115004893355 67.73113948845047 L 1185.9913658209387 67.82333238005134 L 1185.8656935459032 67.9149617550065 L 1185.7380006353717 68.00601845045483 L 1185.6082998585289 68.09649336080267 L 1185.4766041853438 68.18637743863435 L 1185.3429267852746 68.27566169561702 L 1185.2072810259497 68.36433720339936 L 1185.0696804718318 68.45239509450451 L 1184.930138882862 68.53982656321674 L 1184.7886702130827 68.62662286646201 L 1184.645288609243 68.71277532468237 L 1184.5000084093836 68.79827532270376 L 1184.352844141404 68.88311431059763 L 1184.2038105216077 68.9672838045359 L 1184.052922453233 69.0507753876393 L 1183.9001950249606 69.13358071081912 L 1183.7456435094061 69.21569149361203 L 1183.5892833615926 69.29709952500816 L 1183.4311302174044 69.37779666427225 L 1183.2711998920242 69.45777484175761 L 1183.109508378351 69.53702605971311 L 1182.9460718454015 69.61554239308303 L 1182.780906636693 69.69331599029945 L 1182.6140292686089 69.77033907406746 L 1182.4454564287464 69.84660394214286 L 1182.2752049742492 69.92210296810242 L 1182.103291930121 69.99682860210643 L 1181.929734487523 70.07077337165379 L 1181.7545500020547 70.14392988232913 L 1181.5777559920186 70.21629081854239 L 1181.3993701366685 70.28784894426022 L 1181.2194102744413 70.35859710372968 L 1181.0378944011732 70.42852822219379 L 1180.8548406683003 70.49763530659898 L 1180.6702673810432 70.5659114462944 L 1180.4841929965771 70.63334981372294 L 1180.2966361221852 70.69994366510412 L 1180.1076155133985 70.76568634110825 L 1179.9171500721206 70.83057126752253 L 1179.7252588447368 70.89459195590838 L 1179.53196102021 70.95774200425032 L 1179.3372759281615 71.02001509759614 L 1179.1412230369383 71.08140500868842 L 1178.9438219516662 71.14190559858717 L 1178.745092412289 71.20151081728383 L 1178.5450542915953 71.26021470430622 L 1178.3437275932304 71.31801138931453 L 1178.1411324496962 71.37489509268845 L 1177.9372891203386 71.43086012610503 L 1177.7322179893201 71.48590089310757 L 1177.5259395635835 71.54001188966522 L 1177.3184744707992 71.59318770472345 L 1177.1098434573034 71.64542302074504 L 1176.900067386024 71.69671261424193 L 1176.689167234393 71.7470513562975 L 1176.47716409225 71.79643421307951 L 1176.2640791597323 71.84485624634341 L 1176.0499337451558 71.89231261392625 L 1175.8347492628836 71.93879857023082 L 1175.6185472311845 71.9843094667002 L 1175.4013492700813 72.02884075228269 L 1175.1831770991892 72.07238797388683 L 1174.9640525355437 72.11494677682676 L 1174.7439974914184 72.15651290525764 L 1174.5230339721343 72.19708220260128 L 1174.3011840738593 72.23665061196175 L 1174.0784699813983 72.27521417653107 L 1173.854913965975 72.31276903998494 L 1173.6305383830043 72.3493114468683 L 1173.405365669858 72.38483774297092 L 1173.1794183436195 72.41934437569277 L 1172.9527189988335 72.45282789439938 L 1172.725290305245 72.48528495076673 L 1172.4971550055343 72.51671229911628 L 1172.2683359130408 72.54710679673934 L 1172.0388559094836 72.5764654042115 L 1171.8087379426715 72.60478518569649 L 1171.5780050242095 72.63206330923974 L 1171.346680227197 72.65829704705163 L 1171.1147866839212 72.68348377578025 L 1170.8823475835432 72.70762097677371 L 1170.649386169779 72.73070623633201 L 1170.415925738576 72.75273724594847 L 1170.181989635783 72.77371180254045 L 1169.9476012548153 72.79362780866978 L 1169.7127840343153 72.81248327275246 L 1169.4775614558096 72.83027630925778 L 1169.24195704136 72.84700513889692 L 1169.0059943512117 72.86266808880085 L 1168.769696981437 72.87726359268764 L 1168.5330885615758 72.89079019101906 L 1168.2961927522733 72.90324653114655 L 1168.0590332429128 72.91463136744649 L 1167.8216337492477 72.9249435614447 L 1167.5840180110292 72.93418208193043 L 1167.3462097896336 72.94234600505929 L 1167.1082328656846 72.94943451444577 L 1166.8701110366762 72.95544690124485 L 1166.6318681145929 72.96038256422287 L 1166.3935279235286 72.96424100981763 L 1166.1551142973035 72.9670218521878 L 1165.916651077082 72.96872481325143 L 1165.6781621089867 72.96934972271386 L 1165.4396712417163 72.96889651808466 L 1165.2012023241584 72.96736524468392 L 1164.9627792030062 72.96475605563768 L 1164.7244257203731 72.96106921186271 L 1164.4861657114088 72.95630508204027 L 1164.2480230019155 72.9504641425794 L 1164.0100214059657 72.94354697756918 L 1163.772184723521 72.93555427872033 L 1163.534536738051 72.9264868452961 L 1163.2971012141566 72.91634558403224 L 1163.0599018951918 72.90513150904647 L 1162.8229625008914 72.89284574173689 L 1162.586306724997 72.87948951067006 L 1162.3499582328893 72.86506415145789 L 1162.1139406592204 72.84957110662431 L 1161.8782776055507 72.8330119254609 L 1161.6429926379897 72.81538826387197 L 1161.4081092848376 72.79670188420899 L 1161.1736510342344 72.77695465509434 L 1160.9396413318093 72.7561485512345 L 1160.7061035783381 72.73428565322251 L 1160.473061127401 72.71136814732996 L 1160.2405372830494 72.68739832528833 L 1160.0085552974735 72.66237858405984 L 1159.7771383686788 72.63631142559778 L 1159.5463096381654 72.60919945659627 L 1159.3160921886138 72.58104538822961 L 1159.0865090415773 72.55185203588118 L 1158.857583155179 72.5216223188619 L 1158.6293374218171 72.49035926011825 L 1158.4017946658744 72.45806598593009 L 1158.1749776414372 72.4247457255979 L 1157.9489090300185 72.39040181111994 L 1157.7236114382915 72.35503767685907 L 1157.4991073958277 72.31865685919922 L 1157.2754193528438 72.28126299619186 L 1157.0525696779578 72.24285982719209 L 1156.8305806559517 72.20345119248485 L 1156.6094744855425 72.16304103290075 L 1156.3892732771633 72.12163338942209 L 1156.169999050751 72.07923240277869 L 1155.9516737335457 72.03584231303388 L 1155.7343191578975 71.99146745916049 L 1155.5179570590824 71.94611227860693 L 1155.30260907313 71.89978130685344 L 1155.0882967346597 71.85247917695861 L 1154.8750414747267 71.80421061909601 L 1154.6628646186791 71.75498046008119 L 1154.451787384026 71.70479362288901 L 1154.2418308783147 71.65365512616141 L 1154.0330160970207 71.60157008370541 L 1153.8253639214483 71.54854370398188 L 1153.618895116642 71.49458128958457 L 1153.4136303293105 71.43968823671 L 1153.209590085761 71.38387003461766 L 1153.006794789848 71.32713226508127 L 1152.8052647209324 71.26948060183051 L 1152.6050200318525 71.21092080998365 L 1152.4060807469111 71.15145874547107 L 1152.2084667598704 71.0911003544497 L 1152.0121978319644 71.0298516727083 L 1151.8172935899227 70.96771882506403 L 1151.6237735240065 70.90470802474988 L 1151.4316569860619 70.84082557279336 L 1151.240963187582 70.77607785738643 L 1151.051711197788 70.71047135324669 L 1150.8639199417212 70.64401262096986 L 1150.6776081983505 70.5767083063738 L 1150.4927945986951 70.50856513983389 L 1150.309497623961 70.43958993560999 L 1150.1277356036928 70.36978959116503 L 1149.9475267139412 70.29917108647531 L 1149.768888975445 70.22774148333244 L 1149.5918402518291 70.1555079246372 L 1149.4163982478183 70.08247763368529 L 1149.2425805074668 70.00865791344492 L 1149.0704044124038 69.9340561458266 L 1148.8998871800957 69.85867979094495 L 1148.731045862123 69.78253638637263 L 1148.563897342477 69.70563354638664 L 1148.3984583358706 69.62797896120689 L 1148.2347453860666 69.54958039622719 L 1148.0727748642232 69.47044569123871 L 1147.9125629672578 69.39058275964601 L 1147.7541257162268 69.30999958767568 L 1147.597478954723 69.22870423357777 L 1147.4426383472921 69.14670482681996 L 1147.2896193778658 69.06400956727457 L 1147.1384373482135 68.98062672439866 L 1146.9891073764122 68.89656463640702 L 1146.8416443953347 68.8118317094384 L 1146.6960631511563 68.72643641671489 L 1146.5523782018797 68.6403872976946 L 1146.4106039158805 68.55369295721772 L 1146.270754470469 68.46636206464606 L 1146.1328438504734 68.37840335299609 L 1145.9968858468403 68.28982561806569 L 1145.8628940552574 68.20063771755453 L 1145.7308818747915 68.11084857017835 L 1145.6008625065513 68.02046715477704 L 1145.4728489523648 67.92950250941684 L 1145.3468540134809 67.83796373048648 L 1145.2228902892884 67.74585997178757 L 1145.1009701760568 67.65320044361923 L 1144.9811058656953 67.55999441185705 L 1144.8633093445353 67.46625119702654 L 1144.7475923921309 67.37198017337107 L 1144.6339665800808 67.27719076791445 L 1144.5224432708712 67.18189245951821 L 1144.4130336167407 67.08609477793381 L 1144.305748558563 66.98980730284956 L 1144.2005988247547 66.89303966293272 L 1144.0975949302017 66.79580153486665 L 1143.9967471752075 66.69810264238313 L 1143.8980656444633 66.59995275528999 L 1143.8015602060404 66.50136168849414 L 1143.7072405104018 66.40233930102012 L 1143.615115989439 66.30289549502413 L 1143.5251958555268 66.20304021480393 L 1143.4374891006037 66.1027834458043 L 1143.3520044952725 66.00213521361863 L 1143.268750587922 65.90110558298623 L 1143.1877357038743 65.799704656786 L 1143.1089679445495 65.69794257502603 L 1143.0324551866581 65.59582951382973 L 1142.9582050814124 65.4933756844181 L 1142.8862250537607 65.3905913320887 L 1142.816522301646 65.28748673519112 L 1142.7491037952855 65.18407220409914 L 1142.6839762764735 65.08035808017966 L 1142.6211462579076 64.97635473475869 L 1142.5606200225375 64.87207256808405 L 1142.502403622936 64.76752200828555 L 1142.4465028806947 64.66271351033203 L 1142.3929233858412 64.55765755498592 L 1142.3416704962806 64.45236464775525 L 1142.2927493372586 64.34684531784296 L 1142.246164800851 64.24111011709415 L 1142.2019215454718 64.13516961894075 L 1142.1600239954105 64.0290344173443 L 1142.1204763403866 63.92271512573653 L 1142.083282535133 63.81622237595798 L 1142.0484462989991 63.70956681719489 L 1142.0159711155795 63.602759114914264 L 1141.9858602323654 63.49580994979732 L 1141.9581166604203 63.38873001667144 L 1141.9327431740778 63.28153002344071 L 1141.909742310666 63.17422069001512 L 1141.8891163702515 63.066812747238586 L 1141.8708674154113 62.959316935815885 L 1141.854997271026 62.85174400523857 L 1141.8415075240964 62.74410471271006 L 1141.8303995235863 62.636409822069915 L 1141.8216743802861 62.52867010271744 L 1141.8153329667032 62.4208963285348 L 1141.8113759169735 62.313099276809595 L 1141.8098036267988 62.20528972715717 L 1141.8106162534068 62.09747846044265 L 1141.8138137155354 61.98967625770286 L 1141.819395693441 61.88189389906824 L 1141.8273616289307 61.77414216268484 L 1141.8377107254175 61.66643182363649 L 1141.8504419480003 61.558773652867366 L 1141.8655540235675 61.4511784161048 L 1141.883045440924 61.34365687278283 L 1141.9029144509427 61.236219774966166 L 1141.9251590667395 61.12887786627507 L 1141.949777063871 61.02164188081096 L 1141.976765980558 60.91452254208302 L 1142.0061231179313 60.807530561935856 L 1142.0378455403018 60.70067663947832 L 1142.0719300754536 60.593971460013606 L 1142.1083733149617 60.487425693970756 L 1142.1471716145325 60.381049995837586 L 1142.1883210943681 60.27485500309525 L 1142.2318176395552 60.16885133515453 L 1142.2776569004752 60.06304959229389 L 1142.3258342932404 59.95746035459945 L 1142.3763450001516 59.852094180906974 L 1142.4291839701802 59.746961607746044 L 1142.4843459194733 59.64207314828636 L 1142.541825331882 59.537439291286454 L 1142.6016164595128 59.43307050004484 L 1142.6637133233028 59.32897721135367 L 1142.7281097136172 59.22516983445505 L 1142.794799190871 59.12165875000019 L 1142.8637750861717 59.01845430901127 L 1142.9350305019875 58.91556683184637 L 1143.0085583128362 58.81300660716748 L 1143.0843511659978 58.7107838909116 L 1143.1624014822503 58.60890890526517 L 1143.242701456627 58.507391837641855 L 1143.3252430591974 58.406242839663825 L 1143.4100180358703 58.30547202614659 L 1143.4970179092181 58.205089474087515 L 1143.5862339793266 58.105105221658164 L 1143.6776573246625 58.00552926720046 L 1143.771278802968 57.90637156822687 L 1143.8670890521732 57.807642040424646 L 1143.9650784913329 57.709350556664305 L 1144.0652373215846 57.61150694601232 L 1144.167555527129 57.514120992748204 L 1144.272022876231 57.417202435386145 L 1144.3786289222423 57.320760965701105 L 1144.4873630046477 57.224806227759686 L 1144.598214250129 57.12934781695572 L 1144.7111715736544 57.03439527905074 L 1144.8262236795854 56.93995810921942 L 1144.9433590628075 56.84604575110002 L 1145.0625660098801 56.75266759585011 L 1145.1838326002076 56.65983298120741 L 1145.3071467072318 56.567551190555996 L 1145.4324959996454 56.47583145199805 L 1145.559867942623 56.384682937430995 L 1145.6892497990768 56.29411476163032 L 1145.820628630929 56.20413598133814 L 1145.9539913004055 56.1147555943575 L 1146.089324471351 56.02598253865261 L 1146.2266146105608 55.937825691455075 L 1146.3658479891355 55.85029386837614 L 1146.5070106838534 55.763395822525176 L 1146.6500885785626 55.677140243634355 L 1146.7950673655928 55.591535757189675 L 1146.941932547186 55.50659092356846 L 1147.0906694369467 55.42231423718327 L 1147.2412631613097 55.33871412563253 L 1147.3936986610279 55.25579894885771 L 1147.5479606926788 55.1735769983074 L 1147.7040338301874 55.092056496108135 L 1147.8619024663703 55.01124559424221 L 1148.0215508144952 54.93115237373246 L 1148.1829629098604 54.851784843834196 L 1148.3461226113907 54.77315094123426 L 1148.5110136032524 54.6952585292574 L 1148.6776193964834 54.61811539707989 L 1148.845923330643 54.54172925895067 L 1149.0159085754783 54.46610775341989 L 1149.1875581326067 54.391258442575094 L 1149.360854837215 54.317188811284986 L 1149.5357813597775 54.24390626645098 L 1149.7123202077876 54.171418136266475 L 1149.8904537275077 54.09973166948409 L 1150.0701641057342 54.028854034690774 L 1150.2514333715792 53.95879231959093 L 1150.434243398267 53.88955353029769 L 1150.6185759049472 53.82114459063227 L 1150.8044124585228 53.753572341431656 L 1150.9917344754933 53.68684353986444 L 1151.1805232238135 53.62096485875517 L 1151.3707598247652 53.55594288591707 L 1151.5624252548473 53.49178412349323 L 1151.7555003476764 53.42849498730643 L 1151.949965795904 53.366081806217544 L 1152.1458021531475 53.304550821492676 L 1152.3429898359345 53.24390818617902 L 1152.5415091256607 53.18415996448957 L 1152.7413401705626 53.12531213119671 L 1152.9424629877026 53.067370571034715 L 1153.1448574649662 53.01034107811134 L 1153.3485033630743 52.95422935532834 L 1153.5533803176072 52.89904101381123 L 1153.7594678410399 52.84478157234818 L 1153.9667453247919 52.79145645683812 L 1154.1751920412873 52.73907099974815 L 1154.3847871460284 52.687630439580346 L 1154.5955096796795 52.637139920347835 L 1154.8073385701625 52.58760449106049 L 1155.020252634765 52.53902910521993 L 1155.234230582258 52.49141862032429 L 1155.4492510150253 52.444777797382365 L 1155.6652924312025 52.399111300437596 L 1155.8823332268282 52.354423696101605 L 1156.1003516980034 52.3107194530976 L 1156.319326043063 52.26800294181345 L 1156.5392343647547 52.2262784338647 L 1156.76005467243 52.18555010166736 L 1156.9817648842416 52.14582201802072 L 1157.2043428293534 52.10709815570004 L 1157.4277662501565 52.06938238705927 L 1157.6520128044947 52.032678483643856 L 1157.8770600678997 51.996990115813546 L 1158.1028855358325 51.96232085237539 L 1158.3294666259344 51.928674160226834 L 1158.5567806802856 51.89605340400906 L 1158.7848049676697 51.8644618457705 L 1159.0135166858481 51.833902644640645 L 1159.2428929638397 51.80437885651416 L 1159.4729108642077 51.775893433745246 L 1159.7035473853539 51.74844922485244 L 1159.9347794638184 51.722048974233765 L 1160.1665839765858 51.69669532189228 L 1160.3989377433982 51.672390803172085 L 1160.6318175290724 51.649137848504814 L 1160.865200045824 51.626938783166544 L 1161.0990619555955 51.60579582704531 L 1161.3333798723913 51.58571109441911 L 1161.568130364615 51.56668659374447 L 1161.8032899574125 51.54872422745561 L 1162.038835135021 51.53182579177417 L 1162.2747423431185 51.515992976529645 L 1162.5109879911813 51.50122736499037 L 1162.747548454841 51.4875304337052 L 1162.9844000782489 51.47490355235584 L 1163.2215191764394 51.4633479836199 L 1163.458882037701 51.45286488304463 L 1163.6964649259446 51.443455298931354 L 1163.93424408308 51.43512017223063 L 1164.1721957313894 51.4278603364482 L 1164.4102960759062 51.42167651756158 L 1164.6485213067942 51.41656933394751 L 1164.8868476017292 51.41253929632009 L 1165.1252511282803 51.40958680767973 L 1165.3637080462931 51.407712163272826 L 1165.602194510275 51.40691555056227 L 1165.840686671778 51.40719704920866 L 1166.079160681785 51.40855663106237 L 1166.3175926930933 51.41099416016634 L 1166.5559588627007 51.414509392769695 L 1166.7942353541891 51.419101977352106 L 1167.0323983401074 51.42477145465894 L 1167.270424004356 51.431517257747196 L 1167.5082885445665 51.43933871204218 L 1167.7459681744833 51.44823503540498 L 1167.9834391263412 51.45820533821068 L 1168.2206776532432 51.4692486234373 L 1168.4576600315343 51.48136378676553 L 1168.6943625631739 51.49454961668913 L 1168.930761578106 51.50880479463608 L 1169.1668334366266 51.524127895100484 L 1169.4025545317463 51.54051738578506 L 1169.637901291552 51.5579716277544 L 1169.8728501815638 51.57648887559884 L 1170.1073777070887 51.59606727760904 L 1170.3414604155694 51.6167048759611 L 1170.57507489893 51.6383996069124 L 1170.8081977959173 51.66114930100791 L 1171.0408057944353 51.684951683297186 L 1171.2728756338784 51.70980437356183 L 1171.504384107456 51.735704886553535 L 1171.7353080645132 51.76265063224257 L 1171.9656244128475 51.79063891607683 L 1172.1953101210154 51.81966693925126 L 1172.4243422206378 51.849731798987726 L 1172.6526978086954 51.88083048882531 L 1172.88035404982 51.91295989892094 L 1173.1072881785767 51.94611681636038 L 1173.3334775017422 51.980297925479526 L 1173.5588994005723 52.01549980819594 L 1173.7835313330654 52.0517189443507 L 1174.007350836215 52.08895171206036 L 1174.2303355282575 52.127194388079175 L 1174.4524631109095 52.16644314817141 L 1174.673711371598 52.20669406749378 L 1174.8940581856812 52.247943120987884 L 1175.113481518661 52.29018618378274 L 1175.3319594283876 52.33341903160728 L 1175.5494700672514 52.37763734121275 L 1175.7659916843702 52.422836690805035 L 1175.9815026277627 52.46901256048684 L 1176.195981346514 52.516160332709674 L 1176.4094063929308 52.564275292735616 L 1176.6217564246867 52.613352629108746 L 1176.8330102069554 52.663387434136325 L 1177.0431466145346 52.71437470437956 L 1177.2521446339588 52.7663093411539 L 1177.4599833655998 52.819186151038956 L 1177.6666420257582 52.8729998463978 L 1177.8720999487398 52.92774504590574 L 1178.0763365889238 52.983416275088445 L 1178.2793315228162 53.040007966869396 L 1178.4810644510928 53.09751446212657 L 1178.6815152006288 53.15593001025836 L 1178.8806637265166 53.21524876975863 L 1179.0784901140692 53.27546480880087 L 1179.2749745808128 53.33657210583136 L 1179.4700974784644 53.3985645501713 L 1179.6638392948971 53.461435942627936 L 1179.8561806560906 53.52517999611441 L 1180.047102328069 53.58979033627848 L 1180.2365852188243 53.655260502139996 L 1180.4246103802252 53.721583946736914 L 1180.6111590099122 53.78875403778004 L 1180.796212453178 53.85676405831625 L 1180.9797522048323 53.92560720740017 L 1181.161759911053 53.995276600774254 L 1181.3422173712208 54.065765271557225 L 1181.5211065397407 54.13706617094075 L 1181.6984095278447 54.2091721688943 L 1181.8741086053813 54.28207605487816 L 1182.0481862025897 54.35577053856451 L 1182.2206249118549 54.43024825056637 L 1182.3914074894499 54.50550174317461 L 1182.5605168572592 54.581523491102686 L 1182.7279361044868 54.658305892239156 L 1182.8936484893477 54.73584126840789 L 1183.0576374407415 54.81412186613588 L 1183.2198865599094 54.89313985742859 L 1183.380379622075 54.97288734055273 L 1183.5391005780657 55.05335634082646 L 1183.6960335559183 55.1345388114168 L 1183.8511628624658 55.21642663414435 L 1184.0044729849064 55.29901162029506 L 1184.1559485923563 55.38228551143916 L 1184.3055745373804 55.46623998025691 L 1184.4533358575093 55.55086663137139 L 1184.5992177767337 55.63615700218803 L 1184.7432057069836 55.722102563740805 L 1184.8852852495856 55.80869472154519 L 1185.0254421967045 55.89592481645755 L 1185.1636625327617 55.98378412554111 L 1185.299932435839 56.07226386293816 L 1185.4342382790599 56.1613551807487 L 1185.5665666319517 56.251049169915184 L 1185.6969042617893 56.34133686111345 L 1185.8252381349187 56.4322092256496 L 1185.9515554180593 56.52365717636293 L 1186.075843479588 56.615671568534566 L 1186.1980898908025 56.70824320080196 L 1186.3182824271632 56.80136281607904 L 1186.4364090695167 56.89502110248188 L 1186.5524580052975 56.98920869425987 L 1186.6664176297083 57.083916172732344 L 1186.778276546882 57.17913406723036 L 1186.8880235710199 57.27485285604382 L 1186.995647727511 57.37106296737362 L 1187.1011382540294 57.467754780288786 L 1187.2044846016106 57.56491862568861 L 1187.3056764357054 57.662544787269525 L 1187.4047036372153 57.76062350249672 L 1187.5015563035024 57.859144963580405 L 1187.5962247493808 57.95809931845658 L 1187.6886995080847 58.05747667177222 L 1187.7789713322154 58.15726708587479 L 1187.8670311946657 58.257460581806065 L 1187.952870289523 58.358047140299924 L 1188.0364800329487 58.459016702784346 L 1188.1178520640387 58.56035917238722 L 1188.1969782456576 58.66206441494605 L 1188.2738506652531 58.764122260021324 L 1188.3484616356473 58.866522501913586 L 1188.4208036958053 58.96925490068398 L 1188.4908696115815 59.072309183178234 L 1188.5586523764425 59.17567504405398 L 1188.6241452121685 59.279342146811274 L 1188.6873415695304 59.38330012482622 L 1188.748235128945 59.48753858238766 L 1188.8068198011074 59.59204709573668 L 1188.8630897275991 59.69681521410906 L 1188.9170392814744 59.80183246078026 L 1188.9686630678225 59.907088334113126 L 1189.0179559243084 60.012572308608036 L 1189.0649129216868 60.11827383595545 L 1189.1095293642977 60.22418234609071 L 1189.1518007905338 60.33028724825106 L 1189.1917229732876 60.43657793203471 L 1189.2292919203742 60.54304376846186 L 1189.2645038749304 60.64967411103757 L 1189.2973553157897 60.75645829681646 L 1189.3278429578354 60.86338564746893 L 1189.3559637523292 60.97044547034902 L 1189.3817148872147 61.07762705956367 L 1189.4050937873997 61.184919697043256 L 1189.4260981150142 61.29231265361346 L 1189.4447257696422 61.399795190068104 L 1189.4609748885346 61.50735655824312 L 1189.4748438467925 61.614986002091314 L 1189.4863312575317 61.72267275875801 L 1189.495435972021 61.830406059657264 L 1189.502157079796 61.93817513154877 L 1189.5064939087522 62.04596919761514 L 1189.5084460252097 62.15377747853961 M 1189.5085670152657 96.4920458931 L 1189.507374555362 96.59985643801662 L 1189.503797294896 96.70765620196859 L 1189.4978355915905 96.81543440506935 L 1189.4894900416114 96.9231802695884 L 1189.4787614795061 97.03088302102908 L 1189.4656509781223 97.138531889206 L 1189.450159848499 97.24611610932205 L 1189.4322896397364 97.35362492304485 L 1189.4120421388404 97.46104757958265 L 1189.3894193705441 97.5683733367593 L 1189.3644235971058 97.67559146208852 L 1189.3370573180819 97.78269123384712 L 1189.3073232700772 97.88966194214719 L 1189.275224426472 97.99649289000702 L 1189.2407639971238 98.10317339442086 L 1189.203945428047 98.20969278742717 L 1189.164772401068 98.31604041717543 L 1189.123248833456 98.42220564899125 L 1189.079378877534 98.52817786643996 L 1189.0331669202608 98.6339464723881 L 1188.9846175827934 98.73950089006323 L 1188.9337357200254 98.84483056411152 L 1188.8805264201003 98.94992496165337 L 1188.8249950039042 99.05477357333659 L 1188.7671470245323 99.15936591438738 L 1188.706988266734 99.2636915256588 L 1188.6445247463353 99.36773997467667 L 1188.5797627096363 99.47150085668278 L 1188.5127086327861 99.5749637956754 L 1188.4433692211371 99.67811844544686 L 1188.3717514085727 99.78095449061813 L 1188.297862356814 99.8834616476704 L 1188.2217094547048 99.98562966597338 L 1188.143300317472 100.08744832881038 L 1188.062642785964 100.18890745439998 L 1187.9797449258665 100.28999689691415 L 1187.8946150268966 100.39070654749288 L 1187.8072616019733 100.49102633525506 L 1187.7176933863661 100.59094622830548 L 1187.6259193368219 100.69045623473812 L 1187.5319486306696 100.78954640363527 L 1187.435790664901 100.8882068260626 L 1187.3374550552328 100.9864276360601 L 1187.2369516351441 101.0841990116286 L 1187.1342904548928 101.18151117571202 L 1187.0294817805118 101.27835439717506 L 1186.922536092781 101.37471899177628 L 1186.8134640861801 101.4705953231365 L 1186.7022766678188 101.56597380370249 L 1186.5889849563462 101.6608448957057 L 1186.4736002808393 101.75519911211595 L 1186.3561341796692 101.84902701759025 L 1186.2365983993484 101.94231922941623 L 1186.115004893355 102.03506641845047 L 1185.9913658209387 102.12725931005133 L 1185.8656935459032 102.2188886850065 L 1185.7380006353717 102.30994538045483 L 1185.6082998585289 102.40042029080266 L 1185.4766041853438 102.49030436863434 L 1185.3429267852746 102.579588625617 L 1185.2072810259497 102.66826413339936 L 1185.0696804718318 102.75632202450451 L 1184.930138882862 102.84375349321674 L 1184.7886702130827 102.93054979646202 L 1184.645288609243 103.01670225468237 L 1184.5000084093836 103.10220225270375 L 1184.352844141404 103.18704124059762 L 1184.2038105216077 103.27121073453588 L 1184.052922453233 103.3547023176393 L 1183.9001950249606 103.4375076408191 L 1183.7456435094061 103.51961842361202 L 1183.5892833615926 103.60102645500817 L 1183.4311302174044 103.68172359427226 L 1183.2711998920242 103.7617017717576 L 1183.109508378351 103.84095298971312 L 1182.9460718454015 103.91946932308304 L 1182.780906636693 103.99724292029944 L 1182.6140292686089 104.07426600406745 L 1182.4454564287464 104.15053087214287 L 1182.2752049742492 104.22602989810241 L 1182.103291930121 104.30075553210642 L 1181.929734487523 104.37470030165377 L 1181.7545500020547 104.44785681232914 L 1181.5777559920186 104.52021774854238 L 1181.3993701366685 104.59177587426021 L 1181.2194102744413 104.66252403372968 L 1181.0378944011732 104.73245515219378 L 1180.8548406683003 104.80156223659897 L 1180.6702673810432 104.86983837629438 L 1180.4841929965771 104.93727674372295 L 1180.2966361221852 105.0038705951041 L 1180.1076155133985 105.06961327110824 L 1179.9171500721206 105.13449819752252 L 1179.7252588447368 105.19851888590837 L 1179.53196102021 105.26166893425032 L 1179.3372759281615 105.32394202759615 L 1179.1412230369383 105.38533193868841 L 1178.9438219516662 105.44583252858716 L 1178.745092412289 105.50543774728384 L 1178.5450542915953 105.56414163430621 L 1178.3437275932304 105.62193831931454 L 1178.1411324496962 105.67882202268845 L 1177.9372891203386 105.73478705610502 L 1177.7322179893201 105.78982782310756 L 1177.5259395635835 105.84393881966523 L 1177.3184744707992 105.89711463472344 L 1177.1098434573034 105.94934995074503 L 1176.900067386024 106.00063954424192 L 1176.689167234393 106.0509782862975 L 1176.47716409225 106.1003611430795 L 1176.2640791597323 106.14878317634341 L 1176.0499337451558 106.19623954392625 L 1175.8347492628836 106.2427255002308 L 1175.6185472311845 106.2882363967002 L 1175.4013492700813 106.33276768228268 L 1175.1831770991892 106.37631490388682 L 1174.9640525355437 106.41887370682676 L 1174.7439974914184 106.46043983525765 L 1174.5230339721343 106.50100913260128 L 1174.3011840738593 106.54057754196174 L 1174.0784699813983 106.57914110653107 L 1173.854913965975 106.61669596998493 L 1173.6305383830043 106.65323837686829 L 1173.405365669858 106.6887646729709 L 1173.1794183436195 106.72327130569276 L 1172.9527189988335 106.75675482439937 L 1172.725290305245 106.78921188076673 L 1172.4971550055343 106.82063922911627 L 1172.2683359130408 106.85103372673933 L 1172.0388559094836 106.8803923342115 L 1171.8087379426715 106.90871211569649 L 1171.5780050242095 106.93599023923973 L 1171.346680227197 106.96222397705162 L 1171.1147866839212 106.98741070578025 L 1170.8823475835432 107.0115479067737 L 1170.649386169779 107.03463316633201 L 1170.415925738576 107.05666417594847 L 1170.181989635783 107.07763873254045 L 1169.9476012548153 107.09755473866979 L 1169.7127840343153 107.11641020275246 L 1169.4775614558096 107.13420323925777 L 1169.24195704136 107.1509320688969 L 1169.0059943512117 107.16659501880085 L 1168.769696981437 107.18119052268763 L 1168.5330885615758 107.19471712101905 L 1168.2961927522733 107.20717346114655 L 1168.0590332429128 107.21855829744648 L 1167.8216337492477 107.22887049144471 L 1167.5840180110292 107.23810901193042 L 1167.3462097896336 107.24627293505928 L 1167.1082328656846 107.25336144444577 L 1166.8701110366762 107.25937383124486 L 1166.6318681145929 107.26430949422287 L 1166.3935279235286 107.26816793981763 L 1166.1551142973035 107.27094878218779 L 1165.916651077082 107.27265174325143 L 1165.6781621089867 107.27327665271386 L 1165.4396712417163 107.27282344808465 L 1165.2012023241584 107.27129217468391 L 1164.9627792030062 107.26868298563768 L 1164.7244257203731 107.2649961418627 L 1164.4861657114088 107.26023201204026 L 1164.2480230019155 107.2543910725794 L 1164.0100214059657 107.24747390756917 L 1163.772184723521 107.23948120872033 L 1163.534536738051 107.23041377529609 L 1163.2971012141566 107.22027251403225 L 1163.0599018951918 107.20905843904646 L 1162.8229625008914 107.1967726717369 L 1162.586306724997 107.18341644067004 L 1162.3499582328893 107.16899108145788 L 1162.1139406592204 107.15349803662431 L 1161.8782776055507 107.1369388554609 L 1161.6429926379897 107.11931519387196 L 1161.4081092848376 107.10062881420897 L 1161.1736510342344 107.08088158509435 L 1160.9396413318093 107.0600754812345 L 1160.7061035783381 107.03821258322252 L 1160.473061127401 107.01529507732995 L 1160.2405372830494 106.99132525528832 L 1160.0085552974735 106.96630551405984 L 1159.7771383686788 106.94023835559778 L 1159.5463096381654 106.91312638659626 L 1159.3160921886138 106.88497231822961 L 1159.0865090415773 106.85577896588119 L 1158.857583155179 106.8255492488619 L 1158.6293374218171 106.79428619011826 L 1158.4017946658744 106.76199291593008 L 1158.1749776414372 106.72867265559789 L 1157.9489090300185 106.69432874111995 L 1157.7236114382915 106.65896460685907 L 1157.4991073958277 106.62258378919921 L 1157.2754193528438 106.58518992619184 L 1157.0525696779578 106.5467867571921 L 1156.8305806559517 106.50737812248485 L 1156.6094744855425 106.46696796290075 L 1156.3892732771633 106.42556031942208 L 1156.169999050751 106.38315933277867 L 1155.9516737335457 106.33976924303387 L 1155.7343191578975 106.29539438916049 L 1155.5179570590824 106.25003920860692 L 1155.30260907313 106.20370823685344 L 1155.0882967346597 106.15640610695861 L 1154.8750414747267 106.108137549096 L 1154.6628646186791 106.05890739008117 L 1154.451787384026 106.00872055288902 L 1154.2418308783147 105.9575820561614 L 1154.0330160970207 105.90549701370541 L 1153.8253639214483 105.85247063398188 L 1153.618895116642 105.79850821958458 L 1153.4136303293105 105.74361516670999 L 1153.209590085761 105.68779696461766 L 1153.006794789848 105.63105919508126 L 1152.8052647209324 105.5734075318305 L 1152.6050200318525 105.51484773998365 L 1152.4060807469111 105.45538567547108 L 1152.2084667598704 105.3950272844497 L 1152.0121978319644 105.33377860270829 L 1151.8172935899227 105.27164575506403 L 1151.6237735240065 105.20863495474987 L 1151.4316569860619 105.14475250279335 L 1151.240963187582 105.08000478738643 L 1151.051711197788 105.01439828324668 L 1150.8639199417212 104.94793955096986 L 1150.6776081983505 104.8806352363738 L 1150.4927945986951 104.8124920698339 L 1150.309497623961 104.74351686560999 L 1150.1277356036928 104.67371652116503 L 1149.9475267139412 104.6030980164753 L 1149.768888975445 104.53166841333243 L 1149.5918402518291 104.4594348546372 L 1149.4163982478183 104.38640456368528 L 1149.2425805074668 104.31258484344491 L 1149.0704044124038 104.2379830758266 L 1148.8998871800957 104.16260672094495 L 1148.731045862123 104.08646331637262 L 1148.563897342477 104.00956047638662 L 1148.3984583358706 103.93190589120688 L 1148.2347453860666 103.85350732622719 L 1148.0727748642232 103.77437262123871 L 1147.9125629672578 103.694509689646 L 1147.7541257162268 103.61392651767568 L 1147.597478954723 103.53263116357778 L 1147.4426383472921 103.45063175681996 L 1147.2896193778658 103.36793649727457 L 1147.1384373482135 103.28455365439865 L 1146.9891073764122 103.20049156640701 L 1146.8416443953347 103.1157586394384 L 1146.6960631511563 103.03036334671489 L 1146.5523782018797 102.94431422769459 L 1146.4106039158805 102.85761988721772 L 1146.270754470469 102.77028899464605 L 1146.1328438504734 102.68233028299609 L 1145.9968858468403 102.5937525480657 L 1145.8628940552574 102.50456464755453 L 1145.7308818747915 102.41477550017834 L 1145.6008625065513 102.32439408477703 L 1145.4728489523648 102.23342943941684 L 1145.3468540134809 102.14189066048647 L 1145.2228902892884 102.04978690178756 L 1145.1009701760568 101.95712737361922 L 1144.9811058656953 101.86392134185704 L 1144.8633093445353 101.77017812702654 L 1144.7475923921309 101.67590710337106 L 1144.6339665800808 101.58111769791444 L 1144.5224432708712 101.48581938951821 L 1144.4130336167407 101.39002170793381 L 1144.305748558563 101.29373423284954 L 1144.2005988247547 101.19696659293271 L 1144.0975949302017 101.09972846486664 L 1143.9967471752075 101.00202957238312 L 1143.8980656444633 100.90387968528998 L 1143.8015602060404 100.80528861849413 L 1143.7072405104018 100.70626623102011 L 1143.615115989439 100.60682242502413 L 1143.5251958555268 100.50696714480392 L 1143.4374891006037 100.40671037580431 L 1143.3520044952725 100.30606214361863 L 1143.268750587922 100.20503251298624 L 1143.1877357038743 100.103631586786 L 1143.1089679445495 100.00186950502604 L 1143.0324551866581 99.89975644382972 L 1142.9582050814124 99.79730261441809 L 1142.8862250537607 99.69451826208869 L 1142.816522301646 99.59141366519111 L 1142.7491037952855 99.48799913409913 L 1142.6839762764735 99.38428501017967 L 1142.6211462579076 99.28028166475868 L 1142.5606200225375 99.17599949808405 L 1142.502403622936 99.07144893828554 L 1142.4465028806947 98.96664044033201 L 1142.3929233858412 98.86158448498593 L 1142.3416704962806 98.75629157775525 L 1142.2927493372586 98.65077224784297 L 1142.246164800851 98.54503704709414 L 1142.2019215454718 98.43909654894075 L 1142.1600239954105 98.33296134734431 L 1142.1204763403866 98.22664205573652 L 1142.083282535133 98.12014930595798 L 1142.0484462989991 98.01349374719489 L 1142.0159711155795 97.90668604491427 L 1141.9858602323654 97.79973687979731 L 1141.9581166604203 97.69265694667143 L 1141.9327431740778 97.58545695344071 L 1141.909742310666 97.47814762001512 L 1141.8891163702515 97.37073967723859 L 1141.8708674154113 97.26324386581588 L 1141.854997271026 97.15567093523856 L 1141.8415075240964 97.04803164271006 L 1141.8303995235863 96.94033675206991 L 1141.8216743802861 96.83259703271744 L 1141.8153329667032 96.7248232585348 L 1141.8113759169735 96.6170262068096 L 1141.8098036267988 96.50921665715717" stroke-miterlimit="10" stroke-width="2.7769845610000004" stroke-dasharray=""/></g><g><text fill="black" stroke="none" font-family="sans-serif" font-size="11pt" font-style="normal" font-weight="normal" text-decoration="normal" x="1134.2812252509766" y="124.80095321200001" text-anchor="start" dominant-baseline="alphabetic" xml:space="preserve">Database</text></g></g><g><path fill="white" stroke="black" paint-order="fill stroke markers" d=" M 390.06834485364584 183.607685092 L 406.40354815364583 183.607685092 L 406.40354815364583 1418.5490545720002 L 390.06834485364584 1418.5490545720002 L 390.06834485364584 183.607685092" stroke-miterlimit="10" stroke-width="1.3612669416666667" stroke-dasharray=""/><path fill="white" stroke="black" paint-order="fill stroke markers" d=" M 398.23594650364583 342.059157102 L 414.5711498036458 342.059157102 L 414.5711498036458 387.7977263419999 L 398.23594650364583 387.7977263419999 L 398.23594650364583 342.059157102" stroke-miterlimit="10" stroke-width="1.3612669416666667" stroke-dasharray=""/><path fill="white" stroke="black" paint-order="fill stroke markers" d=" M 649.2053155942057 647.527458812 L 665.5405188942058 647.527458812 L 665.5405188942058 693.2660280519999 L 649.2053155942057 693.2660280519999 L 649.2053155942057 647.527458812" stroke-miterlimit="10" stroke-width="1.3612669416666667" stroke-dasharray=""/><path fill="white" stroke="black" paint-order="fill stroke markers" d=" M 842.1310469188802 964.4304028319997 L 858.4662502188803 964.4304028319997 L 858.4662502188803 1372.810485332 L 842.1310469188802 1372.810485332 L 842.1310469188802 964.4304028319997" stroke-miterlimit="10" stroke-width="1.3612669416666667" stroke-dasharray=""/><path fill="white" stroke="black" paint-order="fill stroke markers" d=" M 1018.5693643736979 1189.8562083719999 L 1034.904567673698 1189.8562083719999 L 1034.904567673698 1327.071916092 L 1018.5693643736979 1327.071916092 L 1018.5693643736979 1189.8562083719999" stroke-miterlimit="10" stroke-width="1.3612669416666667" stroke-dasharray=""/><path fill="white" stroke="black" paint-order="fill stroke markers" d=" M 1157.4915685472656 1235.594777612 L 1173.8267718472657 1235.594777612 L 1173.8267718472657 1281.333346852 L 1157.4915685472656 1281.333346852 L 1157.4915685472656 1235.594777612" stroke-miterlimit="10" stroke-width="1.3612669416666667" stroke-dasharray=""/><g><g><rect fill="white" stroke="none" x="157.65963167088543" y="162.371920802" width="164.592699661875" height="21.23576429"/></g><text fill="black" stroke="none" font-family="sans-serif" font-size="11pt" font-style="normal" font-weight="normal" text-decoration="normal" x="160.10991216588542" y="177.07360377199998" text-anchor="start" dominant-baseline="alphabetic" xml:space="preserve">Click Create User button</text></g><g><path fill="none" stroke="black" paint-order="fill stroke markers" d=" M 89.84361815 183.607685092 L 376.6190274699792 183.607685092" stroke-miterlimit="10" stroke-width="1.3612669416666667" stroke-dasharray=""/><g transform="translate(390.06834485364584,183.607685092) translate(-390.06834485364584,-183.607685092)"><path fill="black" stroke="none" paint-order="stroke fill markers" d=" M 376.45567543697916 176.80135038366666 L 390.06834485364584 183.607685092 L 376.45567543697916 190.41401980033334 Z"/></g></g><g><g><rect fill="white" stroke="none" x="149.50287050145184" y="208.110490042" width="180.9062220007422" height="21.23576429"/></g><text fill="black" stroke="none" font-family="sans-serif" font-size="11pt" font-style="normal" font-weight="normal" text-decoration="normal" x="151.95315099645182" y="222.812173012" text-anchor="start" dominant-baseline="alphabetic" xml:space="preserve">Display Create User popup</text></g><g><path fill="none" stroke="black" paint-order="fill stroke markers" d=" M 390.06834485364584 229.346254332 L 103.29293553366666 229.346254332" stroke-miterlimit="10" stroke-width="1.3612669416666667" stroke-dasharray="6.53408132"/><g transform="translate(89.84361815,229.346254332) translate(-89.84361815,-229.346254332)"><path fill="black" stroke="none" paint-order="stroke fill markers" d=" M 103.45628756666666 222.53991962366666 L 89.84361815 229.346254332 L 103.45628756666666 236.15258904033334 Z"/></g></g><g><g><rect fill="white" stroke="none" x="157.65605348485028" y="253.849059282" width="164.59985603394531" height="21.23576429"/></g><text fill="black" stroke="none" font-family="sans-serif" font-size="11pt" font-style="normal" font-weight="normal" text-decoration="normal" x="160.10633397985026" y="268.550742252" text-anchor="start" dominant-baseline="alphabetic" xml:space="preserve">Type information of User</text></g><g><path fill="none" stroke="black" paint-order="fill stroke markers" d=" M 89.84361815 275.084823572 L 376.6190274699792 275.084823572" stroke-miterlimit="10" stroke-width="1.3612669416666667" stroke-dasharray=""/><g transform="translate(390.06834485364584,275.084823572) translate(-390.06834485364584,-275.084823572)"><path fill="black" stroke="none" paint-order="stroke fill markers" d=" M 376.45567543697916 268.27848886366667 L 390.06834485364584 275.084823572 L 376.45567543697916 281.89115828033334 Z"/></g></g><g><g><rect fill="white" stroke="none" x="433.9011403753125" y="299.587628522" width="125.25842536988281" height="21.23576429"/></g><text fill="black" stroke="none" font-family="sans-serif" font-size="11pt" font-style="normal" font-weight="normal" text-decoration="normal" x="436.3514208703125" y="314.28931149199997" text-anchor="start" dominant-baseline="alphabetic" xml:space="preserve">Validate input data</text></g><g><path fill="none" stroke="black" paint-order="fill stroke markers" d=" M 406.40354815364583 320.82339281199995 L 479.91196300364584 320.82339281199995 L 479.91196300364584 342.059157102 L 428.0204671873125 342.059157102" stroke-miterlimit="10" stroke-width="1.3612669416666667" stroke-dasharray=""/><g transform="translate(414.5711498036458,342.059157102) translate(-414.5711498036458,-342.059157102)"><path fill="black" stroke="none" paint-order="stroke fill markers" d=" M 428.1838192203125 335.25282239366663 L 414.5711498036458 342.059157102 L 428.1838192203125 348.8654918103333 Z"/></g></g><g><g><rect fill="white" stroke="none" x="433.9011403753125" y="366.56196205199996" width="95.90982307496094" height="21.23576429"/></g><text fill="black" stroke="none" font-family="sans-serif" font-size="11pt" font-style="normal" font-weight="normal" text-decoration="normal" x="436.3514208703125" y="381.26364502199993" text-anchor="start" dominant-baseline="alphabetic" xml:space="preserve">Validate value</text></g><g><path fill="none" stroke="black" paint-order="fill stroke markers" d=" M 414.5711498036458 387.7977263419999 L 479.91196300364584 387.7977263419999 L 479.91196300364584 409.03349063199994 L 419.8528655373125 409.03349063199994" stroke-miterlimit="10" stroke-width="1.3612669416666667" stroke-dasharray="6.53408132"/><g transform="translate(406.40354815364583,409.03349063199994) translate(-406.40354815364583,-409.03349063199994)"><path fill="black" stroke="none" paint-order="stroke fill markers" d=" M 420.0162175703125 402.2271559236666 L 406.40354815364583 409.03349063199994 L 420.0162175703125 415.8398253403333 Z"/></g></g><g><g><rect fill="white" stroke="none" x="179.78203004735028" y="477.6413444919999" width="120.34790290894531" height="21.23576429"/></g><text fill="black" stroke="none" font-family="sans-serif" font-size="11pt" font-style="normal" font-weight="normal" text-decoration="normal" x="182.23231054235026" y="492.3430274619999" text-anchor="start" dominant-baseline="alphabetic" xml:space="preserve">Validate Message</text></g><g><path fill="none" stroke="black" paint-order="fill stroke markers" d=" M 390.06834485364584 498.87710878199994 L 103.29293553366666 498.87710878199994" stroke-miterlimit="10" stroke-width="1.3612669416666667" stroke-dasharray="6.53408132"/><g transform="translate(89.84361815,498.87710878199994) translate(-89.84361815,-498.87710878199994)"><path fill="black" stroke="none" paint-order="stroke fill markers" d=" M 103.45628756666666 492.0707740736666 L 89.84361815 498.87710878199994 L 103.45628756666666 505.6834434903333 Z"/></g></g><g><g><rect fill="white" stroke="none" x="176.81138795750653" y="547.8827186819999" width="126.28918708863281" height="21.23576429"/></g><text fill="black" stroke="none" font-family="sans-serif" font-size="11pt" font-style="normal" font-weight="normal" text-decoration="normal" x="179.2616684525065" y="562.5844016519999" text-anchor="start" dominant-baseline="alphabetic" xml:space="preserve">Search Curriculum</text></g><g><path fill="none" stroke="black" paint-order="fill stroke markers" d=" M 89.84361815 569.1184829719999 L 376.6190274699792 569.1184829719999" stroke-miterlimit="10" stroke-width="1.3612669416666667" stroke-dasharray=""/><g transform="translate(390.06834485364584,569.1184829719999) translate(-390.06834485364584,-569.1184829719999)"><path fill="black" stroke="none" paint-order="stroke fill markers" d=" M 376.45567543697916 562.3121482636666 L 390.06834485364584 569.1184829719999 L 376.45567543697916 575.9248176803333 Z"/></g></g><g><g><rect fill="white" stroke="none" x="429.81733955031245" y="593.621287922" width="35.03657783570313" height="21.23576429"/></g><g><rect fill="white" stroke="none" x="429.81733955031245" y="609.956491222" width="195.97418464722656" height="21.23576429"/></g><g><rect fill="white" stroke="none" x="429.81733955031245" y="626.291694522" width="130.8132044226172" height="21.23576429"/></g><text fill="black" stroke="none" font-family="sans-serif" font-size="11pt" font-style="normal" font-weight="normal" text-decoration="normal" x="432.26762004531247" y="608.322970892" text-anchor="start" dominant-baseline="alphabetic" xml:space="preserve">GET</text><text fill="black" stroke="none" font-family="sans-serif" font-size="11pt" font-style="normal" font-weight="normal" text-decoration="normal" x="432.26762004531247" y="624.6581741919999" text-anchor="start" dominant-baseline="alphabetic" xml:space="preserve">/api/search?entity=curriculum</text><text fill="black" stroke="none" font-family="sans-serif" font-size="11pt" font-style="normal" font-weight="normal" text-decoration="normal" x="432.26762004531247" y="640.9933774919999" text-anchor="start" dominant-baseline="alphabetic" xml:space="preserve">+ {paramToSearch}</text></g><g><path fill="none" stroke="black" paint-order="fill stroke markers" d=" M 406.40354815364583 647.527458812 L 635.755998210539 647.527458812" stroke-miterlimit="10" stroke-width="1.3612669416666667" stroke-dasharray=""/><g transform="translate(649.2053155942057,647.527458812) translate(-649.2053155942057,-647.527458812)"><path fill="black" stroke="none" paint-order="stroke fill markers" d=" M 635.592646177539 640.7211241036666 L 649.2053155942057 647.527458812 L 635.592646177539 654.3337935203333 Z"/></g></g><g><g><rect fill="white" stroke="none" x="478.926119457539" y="672.0302637619999" width="97.75662483277344" height="21.23576429"/></g><text fill="black" stroke="none" font-family="sans-serif" font-size="11pt" font-style="normal" font-weight="normal" text-decoration="normal" x="481.37639995253903" y="686.7319467319999" text-anchor="start" dominant-baseline="alphabetic" xml:space="preserve">Curriculum list</text></g><g><path fill="none" stroke="black" paint-order="fill stroke markers" d=" M 649.2053155942057 693.2660280519999 L 419.8528655373125 693.2660280519999" stroke-miterlimit="10" stroke-width="1.3612669416666667" stroke-dasharray="6.53408132"/><g transform="translate(406.40354815364583,693.2660280519999) translate(-406.40354815364583,-693.2660280519999)"><path fill="black" stroke="none" paint-order="stroke fill markers" d=" M 420.0162175703125 686.4596933436666 L 406.40354815364583 693.2660280519999 L 420.0162175703125 700.0723627603332 Z"/></g></g><g><g><rect fill="white" stroke="none" x="200.8378466977409" y="761.8738819119999" width="78.23626960816406" height="21.23576429"/></g><text fill="black" stroke="none" font-family="sans-serif" font-size="11pt" font-style="normal" font-weight="normal" text-decoration="normal" x="203.2881271927409" y="776.5755648819999" text-anchor="start" dominant-baseline="alphabetic" xml:space="preserve">No Options</text></g><g><path fill="none" stroke="black" paint-order="fill stroke markers" d=" M 390.06834485364584 783.1096462019999 L 103.29293553366666 783.1096462019999" stroke-miterlimit="10" stroke-width="1.3612669416666667" stroke-dasharray="6.53408132"/><g transform="translate(89.84361815,783.1096462019999) translate(-89.84361815,-783.1096462019999)"><path fill="black" stroke="none" paint-order="stroke fill markers" d=" M 103.45628756666666 776.3033114936666 L 89.84361815 783.1096462019999 L 103.45628756666666 789.9159809103332 Z"/></g></g><g><g><rect fill="white" stroke="none" x="165.40480989354168" y="851.7175000619998" width="149.1023432165625" height="21.23576429"/></g><text fill="black" stroke="none" font-family="sans-serif" font-size="11pt" font-style="normal" font-weight="normal" text-decoration="normal" x="167.85509038854167" y="866.4191830319998" text-anchor="start" dominant-baseline="alphabetic" xml:space="preserve">Curriculum options list</text></g><g><path fill="none" stroke="black" paint-order="fill stroke markers" d=" M 390.06834485364584 872.9532643519998 L 103.29293553366666 872.9532643519998" stroke-miterlimit="10" stroke-width="1.3612669416666667" stroke-dasharray="6.53408132"/><g transform="translate(89.84361815,872.9532643519998) translate(-89.84361815,-872.9532643519998)"><path fill="black" stroke="none" paint-order="stroke fill markers" d=" M 103.45628756666666 866.1469296436665 L 89.84361815 872.9532643519998 L 103.45628756666666 879.7595990603331 Z"/></g></g><g><g><rect fill="white" stroke="none" x="130.3654574765495" y="897.4560693019997" width="219.18104805054688" height="21.23576429"/></g><text fill="black" stroke="none" font-family="sans-serif" font-size="11pt" font-style="normal" font-weight="normal" text-decoration="normal" x="132.81573797154948" y="912.1577522719997" text-anchor="start" dominant-baseline="alphabetic" xml:space="preserve">Select Curriculum and click Save</text></g><g><path fill="none" stroke="black" paint-order="fill stroke markers" d=" M 89.84361815 918.6918335919997 L 376.6190274699792 918.6918335919997" stroke-miterlimit="10" stroke-width="1.3612669416666667" stroke-dasharray=""/><g transform="translate(390.06834485364584,918.6918335919997) translate(-390.06834485364584,-918.6918335919997)"><path fill="black" stroke="none" paint-order="stroke fill markers" d=" M 376.45567543697916 911.8854988836664 L 390.06834485364584 918.6918335919997 L 376.45567543697916 925.4981683003331 Z"/></g></g><g><g><rect fill="white" stroke="none" x="570.48560377222" y="943.1946385419997" width="107.56338752808594" height="21.23576429"/></g><text fill="black" stroke="none" font-family="sans-serif" font-size="11pt" font-style="normal" font-weight="normal" text-decoration="normal" x="572.93588426722" y="957.8963215119996" text-anchor="start" dominant-baseline="alphabetic" xml:space="preserve">POST: /api/user</text></g><g><path fill="none" stroke="black" paint-order="fill stroke markers" d=" M 406.40354815364583 964.4304028319997 L 828.6817295352135 964.4304028319997" stroke-miterlimit="10" stroke-width="1.3612669416666667" stroke-dasharray=""/><g transform="translate(842.1310469188802,964.4304028319997) translate(-842.1310469188802,-964.4304028319997)"><path fill="black" stroke="none" paint-order="stroke fill markers" d=" M 828.5183775022135 957.6240681236663 L 842.1310469188802 964.4304028319997 L 828.5183775022135 971.236737540333 Z"/></g></g><g><g><rect fill="white" stroke="none" x="467.00676008325513" y="1033.0382566919998" width="314.5210749060156" height="21.23576429"/></g><text fill="red" stroke="none" font-family="sans-serif" font-size="11pt" font-style="normal" font-weight="normal" text-decoration="normal" x="469.45704057825515" y="1047.7399396619999" text-anchor="start" dominant-baseline="alphabetic" xml:space="preserve">400 BAD_REQUEST: Missing required property</text></g><g><path fill="none" stroke="black" paint-order="fill stroke markers" d=" M 842.1310469188802 1054.2740209819997 L 419.8528655373125 1054.2740209819997" stroke-miterlimit="10" stroke-width="1.3612669416666667" stroke-dasharray="6.53408132"/><g transform="translate(406.40354815364583,1054.2740209819997) translate(-406.40354815364583,-1054.2740209819997)"><path fill="black" stroke="none" paint-order="stroke fill markers" d=" M 420.0162175703125 1047.4676862736665 L 406.40354815364583 1054.2740209819997 L 420.0162175703125 1061.080355690333 Z"/></g></g><g><g><rect fill="white" stroke="none" x="171.50358766453778" y="1078.7768259319998" width="136.90478767457031" height="21.23576429"/></g><text fill="black" stroke="none" font-family="sans-serif" font-size="11pt" font-style="normal" font-weight="normal" text-decoration="normal" x="173.95386815953776" y="1093.478508902" text-anchor="start" dominant-baseline="alphabetic" xml:space="preserve">Message is required</text></g><g><path fill="none" stroke="black" paint-order="fill stroke markers" d=" M 390.06834485364584 1100.0125902219997 L 103.29293553366666 1100.0125902219997" stroke-miterlimit="10" stroke-width="1.3612669416666667" stroke-dasharray="6.53408132"/><g transform="translate(89.84361815,1100.0125902219997) translate(-89.84361815,-1100.0125902219997)"><path fill="black" stroke="none" paint-order="stroke fill markers" d=" M 103.45628756666666 1093.2062555136665 L 89.84361815 1100.0125902219997 L 103.45628756666666 1106.818924930333 Z"/></g></g><g><g><rect fill="white" stroke="none" x="915.7024755317578" y="1168.620444082" width="45.6306635290625" height="21.23576429"/></g><text fill="black" stroke="none" font-family="sans-serif" font-size="11pt" font-style="normal" font-weight="normal" text-decoration="normal" x="918.1527560267579" y="1183.322127052" text-anchor="start" dominant-baseline="alphabetic" xml:space="preserve">save()</text></g><g><path fill="none" stroke="black" paint-order="fill stroke markers" d=" M 858.4662502188803 1189.8562083719999 L 1005.1200469900313 1189.8562083719999" stroke-miterlimit="10" stroke-width="1.3612669416666667" stroke-dasharray=""/><g transform="translate(1018.5693643736979,1189.8562083719999) translate(-1018.5693643736979,-1189.8562083719999)"><path fill="black" stroke="none" paint-order="stroke fill markers" d=" M 1004.9566949570312 1183.0498736636666 L 1018.5693643736979 1189.8562083719999 L 1004.9566949570312 1196.662543080333 Z"/></g></g><g><g><rect fill="white" stroke="none" x="1054.2345582453647" y="1214.359013322" width="83.92701973023438" height="21.23576429"/></g><text fill="black" stroke="none" font-family="sans-serif" font-size="11pt" font-style="normal" font-weight="normal" text-decoration="normal" x="1056.6848387403647" y="1229.060696292" text-anchor="start" dominant-baseline="alphabetic" xml:space="preserve">Create User</text></g><g><path fill="none" stroke="black" paint-order="fill stroke markers" d=" M 1034.904567673698 1235.594777612 L 1144.0422511635988 1235.594777612" stroke-miterlimit="10" stroke-width="1.3612669416666667" stroke-dasharray=""/><g transform="translate(1157.4915685472656,1235.594777612) translate(-1157.4915685472656,-1235.594777612)"><path fill="black" stroke="none" paint-order="stroke fill markers" d=" M 1143.878899130599 1228.7884429036667 L 1157.4915685472656 1235.594777612 L 1143.878899130599 1242.4011123203331 Z"/></g></g><g><g><rect fill="white" stroke="none" x="1058.71559157056" y="1260.097582562" width="74.96495307984375" height="21.23576429"/></g><text fill="black" stroke="none" font-family="sans-serif" font-size="11pt" font-style="normal" font-weight="normal" text-decoration="normal" x="1061.16587206556" y="1274.7992655320002" text-anchor="start" dominant-baseline="alphabetic" xml:space="preserve">User entity</text></g><g><path fill="none" stroke="black" paint-order="fill stroke markers" d=" M 1157.4915685472656 1281.333346852 L 1048.3538850573648 1281.333346852" stroke-miterlimit="10" stroke-width="1.3612669416666667" stroke-dasharray="6.53408132"/><g transform="translate(1034.904567673698,1281.333346852) translate(-1034.904567673698,-1281.333346852)"><path fill="black" stroke="none" paint-order="stroke fill markers" d=" M 1048.5172370903647 1274.5270121436668 L 1034.904567673698 1281.333346852 L 1048.5172370903647 1288.1396815603332 Z"/></g></g><g><g><rect fill="white" stroke="none" x="877.7962407905469" y="1305.8361518020001" width="121.44313301148438" height="21.23576429"/></g><text fill="black" stroke="none" font-family="sans-serif" font-size="11pt" font-style="normal" font-weight="normal" text-decoration="normal" x="880.2465212855469" y="1320.5378347720002" text-anchor="start" dominant-baseline="alphabetic" xml:space="preserve">New Student data</text></g><g><path fill="none" stroke="black" paint-order="fill stroke markers" d=" M 1018.5693643736979 1327.071916092 L 871.915567602547 1327.071916092" stroke-miterlimit="10" stroke-width="1.3612669416666667" stroke-dasharray="6.53408132"/><g transform="translate(858.4662502188803,1327.071916092) translate(-858.4662502188803,-1327.071916092)"><path fill="black" stroke="none" paint-order="stroke fill markers" d=" M 872.078919635547 1320.2655813836668 L 858.4662502188803 1327.071916092 L 872.078919635547 1333.8782508003333 Z"/></g></g><g><g><rect fill="white" stroke="none" x="558.4061359987825" y="1351.5747210420002" width="131.72232307496094" height="21.23576429"/></g><text fill="green" stroke="none" font-family="sans-serif" font-size="11pt" font-style="normal" font-weight="normal" text-decoration="normal" x="560.8564164937825" y="1366.2764040120003" text-anchor="start" dominant-baseline="alphabetic" xml:space="preserve">201 OK: CREATED</text></g><g><path fill="none" stroke="black" paint-order="fill stroke markers" d=" M 842.1310469188802 1372.810485332 L 419.8528655373125 1372.810485332" stroke-miterlimit="10" stroke-width="1.3612669416666667" stroke-dasharray="6.53408132"/><g transform="translate(406.40354815364583,1372.810485332) translate(-406.40354815364583,-1372.810485332)"><path fill="black" stroke="none" paint-order="stroke fill markers" d=" M 420.0162175703125 1366.0041506236669 L 406.40354815364583 1372.810485332 L 420.0162175703125 1379.6168200403333 Z"/></g></g><g><g><rect fill="white" stroke="none" x="109.17360872166667" y="1397.3132902820003" width="261.5647455603125" height="21.23576429"/></g><text fill="black" stroke="none" font-family="sans-serif" font-size="11pt" font-style="normal" font-weight="normal" text-decoration="normal" x="111.62388921666667" y="1412.0149732520003" text-anchor="start" dominant-baseline="alphabetic" xml:space="preserve">Display User list table with new Student</text></g><g><path fill="none" stroke="black" paint-order="fill stroke markers" d=" M 390.06834485364584 1418.5490545720002 L 103.29293553366666 1418.5490545720002" stroke-miterlimit="10" stroke-width="1.3612669416666667" stroke-dasharray="6.53408132"/><g transform="translate(89.84361815,1418.5490545720002) translate(-89.84361815,-1418.5490545720002)"><path fill="black" stroke="none" paint-order="stroke fill markers" d=" M 103.45628756666666 1411.742719863667 L 89.84361815 1418.5490545720002 L 103.45628756666666 1425.3553892803334 Z"/></g></g><g><g/><path fill="none" stroke="black" paint-order="fill stroke markers" d=" M 32.6704066 433.5362955819999 L 455.40915805364585 433.5362955819999 L 455.40915805364585 523.379913732 L 32.6704066 523.379913732 L 32.6704066 433.5362955819999 Z" stroke-miterlimit="10" stroke-width="2.3336004714285714" stroke-dasharray=""/><path fill="white" stroke="black" paint-order="fill stroke markers" d=" M 32.6704066 433.5362955819999 L 32.6704066 453.13853954199993 L 79.02961019707031 453.13853954199993 L 88.83073217707032 443.3374175619999 L 88.83073217707032 433.5362955819999 L 32.6704066 433.5362955819999" stroke-miterlimit="10" stroke-width="2.3336004714285714" stroke-dasharray=""/><text fill="black" stroke="none" font-family="sans-serif" font-size="8.8pt" font-style="normal" font-weight="bold" text-decoration="normal" x="49.005609899999996" y="446.60445822199995" text-anchor="start" dominant-baseline="alphabetic" xml:space="preserve">alt</text><g><rect fill="white" stroke="none" x="102.71565498207032" y="434.84311184599994" width="151.5138880163672" height="16.988611432000003"/></g><text fill="black" stroke="none" font-family="sans-serif" font-size="8.8pt" font-style="normal" font-weight="bold" text-decoration="normal" x="105.16593547707032" y="446.60445822199995" text-anchor="start" dominant-baseline="alphabetic" xml:space="preserve">[If the input data is wrong]</text></g><g><g/><path fill="none" stroke="black" paint-order="fill stroke markers" d=" M 16.335203300000003 717.768833002 L 1239.1675850472657 717.768833002 L 1239.1675850472657 1467.554664472 L 16.335203300000003 1467.554664472 L 16.335203300000003 717.768833002 Z" stroke-miterlimit="10" stroke-width="2.3336004714285714" stroke-dasharray=""/><path fill="white" stroke="black" paint-order="fill stroke markers" d=" M 16.335203300000003 717.768833002 L 16.335203300000003 737.371076962 L 62.694406897070316 737.371076962 L 72.49552887707031 727.5699549819999 L 72.49552887707031 717.768833002 L 16.335203300000003 717.768833002" stroke-miterlimit="10" stroke-width="2.3336004714285714" stroke-dasharray=""/><text fill="black" stroke="none" font-family="sans-serif" font-size="8.8pt" font-style="normal" font-weight="bold" text-decoration="normal" x="32.67040660000001" y="730.8369956419999" text-anchor="start" dominant-baseline="alphabetic" xml:space="preserve">alt</text><g><rect fill="white" stroke="none" x="86.38045168207032" y="719.0756492659999" width="266.8835321814062" height="16.988611432000003"/></g><text fill="black" stroke="none" font-family="sans-serif" font-size="8.8pt" font-style="normal" font-weight="bold" text-decoration="normal" x="88.83073217707032" y="730.8369956419999" text-anchor="start" dominant-baseline="alphabetic" xml:space="preserve">[If there is no curriculum match with condition]</text><g><path fill="none" stroke="black" paint-order="fill stroke markers" d=" M 16.335203300000003 807.6124511519998 L 1239.1675850472657 807.6124511519998" stroke-miterlimit="10" stroke-width="2.3336004714285714" stroke-dasharray="4.083800825"/></g><g/><g><rect fill="white" stroke="none" x="86.38045168207032" y="808.9192674159998" width="36.84300483765625" height="16.988611432000003"/></g><text fill="black" stroke="none" font-family="sans-serif" font-size="8.8pt" font-style="normal" font-weight="bold" text-decoration="normal" x="88.83073217707032" y="820.6806137919998" text-anchor="start" dominant-baseline="alphabetic" xml:space="preserve">[Else]</text></g><g/><g><g/><path fill="none" stroke="black" paint-order="fill stroke markers" d=" M 32.6704066 988.9332077819996 L 1222.8323817472656 988.9332077819996 L 1222.8323817472656 1443.051859522 L 32.6704066 1443.051859522 L 32.6704066 988.9332077819996 Z" stroke-miterlimit="10" stroke-width="2.3336004714285714" stroke-dasharray=""/><path fill="white" stroke="black" paint-order="fill stroke markers" d=" M 32.6704066 988.9332077819996 L 32.6704066 1008.5354517419996 L 79.02961019707031 1008.5354517419996 L 88.83073217707032 998.7343297619996 L 88.83073217707032 988.9332077819996 L 32.6704066 988.9332077819996" stroke-miterlimit="10" stroke-width="2.3336004714285714" stroke-dasharray=""/><text fill="black" stroke="none" font-family="sans-serif" font-size="8.8pt" font-style="normal" font-weight="bold" text-decoration="normal" x="49.005609899999996" y="1002.0013704219996" text-anchor="start" dominant-baseline="alphabetic" xml:space="preserve">alt</text><g><rect fill="white" stroke="none" x="102.71565498207032" y="990.2400240459996" width="244.7581049353125" height="16.988611432000003"/></g><text fill="black" stroke="none" font-family="sans-serif" font-size="8.8pt" font-style="normal" font-weight="bold" text-decoration="normal" x="105.16593547707032" y="1002.0013704219996" text-anchor="start" dominant-baseline="alphabetic" xml:space="preserve">[If there is required field do not have value]</text><g><path fill="none" stroke="black" paint-order="fill stroke markers" d=" M 32.6704066 1124.515395172 L 1222.8323817472656 1124.515395172" stroke-miterlimit="10" stroke-width="2.3336004714285714" stroke-dasharray="4.083800825"/></g><g/><g><rect fill="white" stroke="none" x="102.71565498207032" y="1125.8222114359999" width="36.84300483765625" height="16.988611432000003"/></g><text fill="black" stroke="none" font-family="sans-serif" font-size="8.8pt" font-style="normal" font-weight="bold" text-decoration="normal" x="105.16593547707032" y="1137.5835578119998" text-anchor="start" dominant-baseline="alphabetic" xml:space="preserve">[Else]</text></g><g/></g></g></svg>