<svg version="1.1" xmlns="http://www.w3.org/2000/svg" xmlns:xlink="http://www.w3.org/1999/xlink" width="970" height="1586"><desc>title%20Update%20User%20with%20type%20Teacher%20or%20Officer%20or%20Workspace%20Admin%0A%0Aactor%20%23green%3A0.5%20%22Workspace%20Admin%22%20as%20w%0Aboundary%20%22Update%20User%20popup%22%20as%20f%0Acontrol%20%22User%20Controller%22%20as%20gc%0Aparticipant%20%22User%20Service%22%20as%20gs%0Adatabase%20%23blue%3A1%20%22Database%22%20as%20db%0A%0Aw-%3Ef%3AGo%20to%20Update%20User%20popup%0Aactivate%20f%0Aw%3C--f%3ADisplay%20Update%20User%20popup%0Aw-%3Ef%3AUpdate%20information%20of%20User%0Af-%3Ef%3AValidate%20input%20data%0Aactivate%20f%0Af--%3Ef%3A%20Validate%20value%0Adeactivate%20f%0Aalt%20If%20the%20input%20data%20is%20wrong%0Aw%3C--f%3AValidate%20Message%20%0Aend%0A%0Aw-%3Ef%3AClick%20Save%20button%0Af-%3Egc%3APUT%3A%20%2Fapi%2Fuser%0Aactivate%20gc%0Aalt%20If%20there%20is%20required%20field%20do%20not%20have%20value%0Af%3C--gc%3A%3Ccolor%3A%23red%3E400%20BAD_REQUEST%3A%20%5CnMissing%20required%20property%3C%2Fcolor%3E%0Aw%3C--f%3AMessage%20is%20required%0Aelse%20Else%0Agc-%3Egs%3AisExist(id)%0Aactivate%20gs%0Ags-%3Edb%3AexistsById(id)%0Aactivate%20db%0Ags%3C--db%3A%20Boolean%20value%0Adeactivate%20db%0Agc%3C--gs%3ABoolean%20value%0Adeactivate%20gs%0Aalt%20If%20user%20is%20not%20exist%0Af%3C--gc%3A%3Ccolor%3A%23red%3E404%20NOT%20FOUND%3C%2Fcolor%3E%0Aw%3C--f%3A%20Message%20Update%20fail%0Aelse%20Else%0Agc-%3Egs%3Asave()%0Aactivate%20gs%0Ags-%3Edb%3AUpdate%20User%0Aactivate%20db%0Ags%3C--db%3AUser%20entity%0Adeactivate%20db%0Agc%3C--gs%3AUser%20entity%0Adeactivate%20gs%0Af%3C--gc%3A%3Ccolor%3A%23green%3E200%20OK%5CnResponse%20body%3A%20User%20data%20%3C%2Fcolor%3E%0Adeactivate%20gc%0Aw%3C--f%3A%20Display%20User%20detail%20page%20%5Cnwith%20updated%20information%0Adeactivate%20f%0Aend%0Aend%20f%0A</desc><defs/><g><g/><g/><g/><g/><g/><g/><g/><g/><g/><g/><g/><g/><g/><g/><g/><g/><g/><g/><g/><g/><g/><g/><g/><g/><g/><g/><g/><g/><g/><g/><g><rect fill="white" stroke="none" x="0" y="0" width="970" height="1586"/></g><g><text fill="black" stroke="none" font-family="sans-serif" font-size="16.5pt" font-style="normal" font-weight="normal" text-decoration="normal" x="181.66397820104157" y="24.50280495" text-anchor="start" dominant-baseline="alphabetic" xml:space="preserve">Update User with type Teacher or Officer or Workspace Admin</text></g><g/><g><path fill="none" stroke="black" paint-order="fill stroke markers" d=" M 89.84361815 129.701514202 L 89.84361815 1586.8016485619999" stroke-miterlimit="10" stroke-width="1.3612669416666667" stroke-dasharray="12.565541,5.445067766666667"/><path fill="none" stroke="black" paint-order="fill stroke markers" d=" M 320.8487242136067 129.701514202 L 320.8487242136067 1586.8016485619999" stroke-miterlimit="10" stroke-width="1.3612669416666667" stroke-dasharray="12.565541,5.445067766666667"/><path fill="none" stroke="black" paint-order="fill stroke markers" d=" M 566.5641251299478 129.701514202 L 566.5641251299478 1586.8016485619999" stroke-miterlimit="10" stroke-width="1.3612669416666667" stroke-dasharray="12.565541,5.445067766666667"/><path fill="none" stroke="black" paint-order="fill stroke markers" d=" M 719.3803722722655 129.701514202 L 719.3803722722655 1586.8016485619999" stroke-miterlimit="10" stroke-width="1.3612669416666667" stroke-dasharray="12.565541,5.445067766666667"/><path fill="none" stroke="black" paint-order="fill stroke markers" d=" M 872.1966194145832 129.701514202 L 872.1966194145832 1586.8016485619999" stroke-miterlimit="10" stroke-width="1.3612669416666667" stroke-dasharray="12.565541,5.445067766666667"/></g><g><g><path fill="white" stroke="green" paint-order="fill stroke markers" d=" M 99.154684031 60.60360424300001 A 9.311065881 9.311065881 0 1 1 99.15467937546744 60.594293178670846 M 89.84361815 69.91467012400001 L 89.84361815 89.84361815000001 M 78.08227177399999 77.102159576 L 101.604964526 77.102159576 M 89.84361815 89.84361815000001 L 78.08227177399999 108.465749912 M 89.84361815 89.84361815000001 L 101.604964526 108.465749912" stroke-miterlimit="10" stroke-width="1.3884922805000002" stroke-dasharray=""/></g><g><text fill="black" stroke="none" font-family="sans-serif" font-size="11pt" font-style="normal" font-weight="normal" text-decoration="normal" x="30.50219511533203" y="124.80095321200001" text-anchor="start" dominant-baseline="alphabetic" xml:space="preserve">Workspace Admin</text></g><g><path fill="white" stroke="black" paint-order="fill stroke markers" d=" M 353.2741027641067 82.819480731 A 24.2577769005 24.2577769005 0 1 1 353.2740906352193 82.79522295814245 M 289.8118379436067 57.17321154999999 L 289.8118379436067 108.465749912 M 288.4233456631067 82.819480731 L 304.7585489631067 82.819480731" stroke-miterlimit="10" stroke-width="2.7769845610000004" stroke-dasharray=""/></g><g><text fill="black" stroke="none" font-family="sans-serif" font-size="11pt" font-style="normal" font-weight="normal" text-decoration="normal" x="257.2803800973958" y="124.80095321200001" text-anchor="start" dominant-baseline="alphabetic" xml:space="preserve">Update User popup</text></g><g><path fill="white" stroke="black" paint-order="fill stroke markers" d=" M 590.8219020304477 82.819480731 A 24.2577769005 24.2577769005 0 1 1 590.8218899015603 82.79522295814245 M 563.2970844699478 58.561703830499994 L 573.0982064499477 50.39410218049999 M 563.2970844699478 58.561703830499994 L 573.0982064499477 66.72930548049999" stroke-miterlimit="10" stroke-width="2.7769845610000004" stroke-dasharray=""/></g><g><text fill="black" stroke="none" font-family="sans-serif" font-size="11pt" font-style="normal" font-weight="normal" text-decoration="normal" x="517.2763901445962" y="124.80095321200001" text-anchor="start" dominant-baseline="alphabetic" xml:space="preserve">User Controller</text></g><path fill="none" stroke="none"/><g><path fill="white" stroke="black" paint-order="fill stroke markers" d=" M 659.7025140941092 85.75981732500001 L 779.0582304504218 85.75981732500001 L 779.0582304504218 129.701514202 L 659.7025140941092 129.701514202 L 659.7025140941092 85.75981732500001 Z" stroke-miterlimit="10" stroke-width="2.613632528" stroke-dasharray=""/></g><g><text fill="black" stroke="none" font-family="sans-serif" font-size="11pt" font-style="normal" font-weight="normal" text-decoration="normal" x="677.4262096746093" y="113.36631090200002" text-anchor="start" dominant-baseline="alphabetic" xml:space="preserve">User Service</text></g><g><path fill="white" stroke="blue" paint-order="fill stroke markers" d=" M 848.3472225965833 97.684515734 L 848.3472225965833 63.380588804000006 L 896.0460162325832 63.380588804000006 L 896.0460162325832 97.684515734" stroke-miterlimit="10" stroke-width="2.7769845610000004" stroke-dasharray=""/><path fill="white" stroke="blue" paint-order="fill stroke markers" d=" M 896.0460162325832 62.1881189631 L 896.0448237726795 62.29592950801663 L 896.0412465122134 62.403729271968594 L 896.0352848089082 62.51150747506936 L 896.0269392589288 62.619253339588404 L 896.0162106968236 62.72695609102909 L 896.0031001954397 62.834604959206004 L 895.9876090658165 62.94218917932205 L 895.9697388570539 63.04969799304486 L 895.9494913561579 63.15712064958265 L 895.9268685878617 63.2644464067593 L 895.9018728144233 63.371664532088516 L 895.8745065353993 63.47876430384712 L 895.8447724873947 63.58573501214718 L 895.8126736437896 63.692565960007016 L 895.7782132144415 63.79924646442086 L 895.7413946453647 63.90576585742718 L 895.7022216183854 64.01211348717543 L 895.6606980507736 64.11827871899126 L 895.6168280948516 64.22425093643996 L 895.5706161375782 64.3300195423881 L 895.5220668001109 64.43557396006322 L 895.4711849373429 64.54090363411153 L 895.417975637418 64.64599803165338 L 895.3624442212217 64.75084664333659 L 895.3045962418497 64.85543898438739 L 895.2444374840516 64.95976459565881 L 895.1819739636529 65.06381304467668 L 895.1172119269537 65.16757392668278 L 895.0501578501037 65.27103686567541 L 894.9808184384548 65.37419151544687 L 894.9092006258901 65.47702756061814 L 894.8353115741314 65.5795347176704 L 894.7591586720224 65.68170273597339 L 894.6807495347896 65.7835213988104 L 894.6000920032815 65.88498052439998 L 894.517194143184 65.98606996691414 L 894.4320642442142 66.08677961749288 L 894.3447108192908 66.18709940525505 L 894.2551426036836 66.28701929830548 L 894.1633685541395 66.38652930473813 L 894.0693978479871 66.48561947363528 L 893.9732398822185 66.58427989606261 L 893.8749042725505 66.6825007060601 L 893.7744008524617 66.7802720816286 L 893.6717396722105 66.87758424571203 L 893.5669309978294 66.97442746717506 L 893.4599853100985 67.07079206177627 L 893.3509133034976 67.1666683931365 L 893.2397258851363 67.2620468737025 L 893.1264341736637 67.35691796570569 L 893.0110494981568 67.45127218211596 L 892.8935833969867 67.54510008759026 L 892.7740476166658 67.63839229941624 L 892.6524541106726 67.73113948845047 L 892.5288150382562 67.82333238005134 L 892.4031427632208 67.9149617550065 L 892.2754498526893 68.00601845045483 L 892.1457490758463 68.09649336080267 L 892.0140534026614 68.18637743863435 L 891.8803760025921 68.27566169561702 L 891.7447302432672 68.36433720339936 L 891.6071296891494 68.45239509450451 L 891.4675881001795 68.53982656321674 L 891.3261194304001 68.62662286646201 L 891.1827378265604 68.71277532468237 L 891.0374576267012 68.79827532270376 L 890.8902933587214 68.88311431059763 L 890.7412597389252 68.9672838045359 L 890.5903716705503 69.0507753876393 L 890.437644242278 69.13358071081912 L 890.2830927267237 69.21569149361203 L 890.1267325789103 69.29709952500816 L 889.968579434722 69.37779666427225 L 889.8086491093417 69.45777484175761 L 889.6469575956685 69.53702605971311 L 889.4835210627192 69.61554239308303 L 889.3183558540106 69.69331599029945 L 889.1514784859263 69.77033907406746 L 888.9829056460638 69.84660394214286 L 888.8126541915667 69.92210296810242 L 888.6407411474386 69.99682860210643 L 888.4671837048405 70.07077337165379 L 888.2919992193722 70.14392988232913 L 888.1152052093362 70.21629081854239 L 887.9368193539862 70.28784894426022 L 887.7568594917589 70.35859710372968 L 887.5753436184908 70.42852822219379 L 887.3922898856179 70.49763530659898 L 887.2077165983609 70.5659114462944 L 887.0216422138947 70.63334981372294 L 886.8340853395027 70.69994366510412 L 886.6450647307161 70.76568634110825 L 886.4545992894382 70.83057126752253 L 886.2627080620543 70.89459195590838 L 886.0694102375276 70.95774200425032 L 885.874725145479 71.02001509759614 L 885.6786722542558 71.08140500868842 L 885.4812711689837 71.14190559858717 L 885.2825416296066 71.20151081728383 L 885.0825035089129 71.26021470430622 L 884.8811768105479 71.31801138931453 L 884.6785816670139 71.37489509268845 L 884.474738337656 71.43086012610503 L 884.2696672066378 71.48590089310757 L 884.063388780901 71.54001188966522 L 883.8559236881167 71.59318770472345 L 883.647292674621 71.64542302074504 L 883.4375166033416 71.69671261424193 L 883.2266164517106 71.7470513562975 L 883.0146133095675 71.79643421307951 L 882.8015283770499 71.84485624634341 L 882.5873829624735 71.89231261392625 L 882.3721984802012 71.93879857023082 L 882.1559964485019 71.9843094667002 L 881.9387984873988 72.02884075228269 L 881.7206263165068 72.07238797388683 L 881.5015017528613 72.11494677682676 L 881.2814467087359 72.15651290525764 L 881.0604831894518 72.19708220260128 L 880.8386332911768 72.23665061196175 L 880.6159191987158 72.27521417653107 L 880.3923631832923 72.31276903998494 L 880.1679876003219 72.3493114468683 L 879.9428148871756 72.38483774297092 L 879.7168675609372 72.41934437569277 L 879.490168216151 72.45282789439938 L 879.2627395225626 72.48528495076673 L 879.0346042228517 72.51671229911628 L 878.8057851303585 72.54710679673934 L 878.5763051268011 72.5764654042115 L 878.3461871599891 72.60478518569649 L 878.115454241527 72.63206330923974 L 877.8841294445147 72.65829704705163 L 877.6522359012388 72.68348377578025 L 877.4197968008607 72.70762097677371 L 877.1868353870966 72.73070623633201 L 876.9533749558937 72.75273724594847 L 876.7194388531007 72.77371180254045 L 876.4850504721327 72.79362780866978 L 876.2502332516327 72.81248327275246 L 876.0150106731271 72.83027630925778 L 875.7794062586775 72.84700513889692 L 875.5434435685291 72.86266808880085 L 875.3071461987545 72.87726359268764 L 875.0705377788935 72.89079019101906 L 874.8336419695909 72.90324653114655 L 874.5964824602304 72.91463136744649 L 874.3590829665652 72.9249435614447 L 874.1214672283468 72.93418208193043 L 873.8836590069511 72.94234600505929 L 873.645682083002 72.94943451444577 L 873.4075602539937 72.95544690124485 L 873.1693173319105 72.96038256422287 L 872.9309771408462 72.96424100981763 L 872.6925635146212 72.9670218521878 L 872.4541002943994 72.96872481325143 L 872.2156113263043 72.96934972271386 L 871.9771204590337 72.96889651808466 L 871.7386515414759 72.96736524468392 L 871.5002284203237 72.96475605563768 L 871.2618749376907 72.96106921186271 L 871.0236149287263 72.95630508204027 L 870.785472219233 72.9504641425794 L 870.5474706232834 72.94354697756918 L 870.3096339408386 72.93555427872033 L 870.0719859553686 72.9264868452961 L 869.8345504314741 72.91634558403224 L 869.5973511125094 72.90513150904647 L 869.360411718209 72.89284574173689 L 869.1237559423147 72.87948951067006 L 868.8874074502069 72.86506415145789 L 868.6513898765378 72.84957110662431 L 868.4157268228682 72.8330119254609 L 868.1804418553071 72.81538826387197 L 867.9455585021551 72.79670188420899 L 867.7111002515518 72.77695465509434 L 867.477090549127 72.7561485512345 L 867.2435527956555 72.73428565322251 L 867.0105103447187 72.71136814732996 L 866.777986500367 72.68739832528833 L 866.5460045147911 72.66237858405984 L 866.3145875859965 72.63631142559778 L 866.083758855483 72.60919945659627 L 865.8535414059314 72.58104538822961 L 865.6239582588948 72.55185203588118 L 865.3950323724965 72.5216223188619 L 865.1667866391346 72.49035926011825 L 864.9392438831919 72.45806598593009 L 864.7124268587546 72.4247457255979 L 864.4863582473362 72.39040181111994 L 864.2610606556092 72.35503767685907 L 864.0365566131451 72.31865685919922 L 863.8128685701612 72.28126299619186 L 863.5900188952753 72.24285982719209 L 863.3680298732692 72.20345119248485 L 863.1469237028601 72.16304103290075 L 862.9267224944807 72.12163338942209 L 862.7074482680686 72.07923240277869 L 862.4891229508634 72.03584231303388 L 862.271768375215 71.99146745916049 L 862.0554062763999 71.94611227860693 L 861.8400582904476 71.89978130685344 L 861.6257459519774 71.85247917695861 L 861.4124906920442 71.80421061909601 L 861.2003138359968 71.75498046008119 L 860.9892366013435 71.70479362288901 L 860.7792800956321 71.65365512616141 L 860.5704653143382 71.60157008370541 L 860.3628131387659 71.54854370398188 L 860.1563443339597 71.49458128958457 L 859.9510795466281 71.43968823671 L 859.7470393030786 71.38387003461766 L 859.5442440071656 71.32713226508127 L 859.3427139382499 71.26948060183051 L 859.1424692491702 71.21092080998365 L 858.9435299642286 71.15145874547107 L 858.7459159771878 71.0911003544497 L 858.5496470492819 71.0298516727083 L 858.3547428072401 70.96771882506403 L 858.1612227413242 70.90470802474988 L 857.9691062033794 70.84082557279336 L 857.7784124048997 70.77607785738643 L 857.5891604151057 70.71047135324669 L 857.4013691590387 70.64401262096986 L 857.2150574156681 70.5767083063738 L 857.0302438160127 70.50856513983389 L 856.8469468412786 70.43958993560999 L 856.6651848210104 70.36978959116503 L 856.4849759312589 70.29917108647531 L 856.3063381927626 70.22774148333244 L 856.1292894691467 70.1555079246372 L 855.9538474651358 70.08247763368529 L 855.7800297247844 70.00865791344492 L 855.6078536297215 69.9340561458266 L 855.4373363974131 69.85867979094495 L 855.2684950794405 69.78253638637263 L 855.1013465597946 69.70563354638664 L 854.9359075531883 69.62797896120689 L 854.772194603384 69.54958039622719 L 854.6102240815408 69.47044569123871 L 854.4500121845755 69.39058275964601 L 854.2915749335443 69.30999958767568 L 854.1349281720405 69.22870423357777 L 853.9800875646097 69.14670482681996 L 853.8270685951834 69.06400956727457 L 853.6758865655311 68.98062672439866 L 853.5265565937298 68.89656463640702 L 853.3790936126522 68.8118317094384 L 853.2335123684737 68.72643641671489 L 853.0898274191973 68.6403872976946 L 852.9480531331981 68.55369295721772 L 852.8082036877867 68.46636206464606 L 852.6702930677909 68.37840335299609 L 852.5343350641579 68.28982561806569 L 852.4003432725748 68.20063771755453 L 852.2683310921091 68.11084857017835 L 852.1383117238687 68.02046715477704 L 852.0102981696822 67.92950250941684 L 851.8843032307983 67.83796373048648 L 851.760339506606 67.74585997178757 L 851.6384193933743 67.65320044361923 L 851.5185550830129 67.55999441185705 L 851.400758561853 67.46625119702654 L 851.2850416094485 67.37198017337107 L 851.1714157973983 67.27719076791445 L 851.0598924881889 67.18189245951821 L 850.9504828340582 67.08609477793381 L 850.8431977758805 66.98980730284956 L 850.7380480420723 66.89303966293272 L 850.6350441475192 66.79580153486665 L 850.5341963925249 66.69810264238313 L 850.4355148617808 66.59995275528999 L 850.3390094233579 66.50136168849414 L 850.2446897277194 66.40233930102012 L 850.1525652067564 66.30289549502413 L 850.0626450728442 66.20304021480393 L 849.9749383179213 66.1027834458043 L 849.88945371259 66.00213521361863 L 849.8061998052398 65.90110558298623 L 849.7251849211917 65.799704656786 L 849.6464171618669 65.69794257502603 L 849.5699044039757 65.59582951382973 L 849.4956542987298 65.4933756844181 L 849.4236742710783 65.3905913320887 L 849.3539715189636 65.28748673519112 L 849.2865530126031 65.18407220409914 L 849.2214254937911 65.08035808017966 L 849.1585954752252 64.97635473475869 L 849.098069239855 64.87207256808405 L 849.0398528402535 64.76752200828555 L 848.9839520980123 64.66271351033203 L 848.9303726031588 64.55765755498592 L 848.879119713598 64.45236464775525 L 848.8301985545762 64.34684531784296 L 848.7836140181684 64.24111011709415 L 848.7393707627895 64.13516961894075 L 848.697473212728 64.0290344173443 L 848.6579255577043 63.92271512573653 L 848.6207317524506 63.81622237595798 L 848.5858955163168 63.70956681719489 L 848.5534203328971 63.602759114914264 L 848.5233094496831 63.49580994979732 L 848.4955658777378 63.38873001667144 L 848.4701923913955 63.28153002344071 L 848.4471915279835 63.17422069001512 L 848.426565587569 63.066812747238586 L 848.4083166327289 62.959316935815885 L 848.3924464883435 62.85174400523857 L 848.378956741414 62.74410471271006 L 848.3678487409037 62.636409822069915 L 848.3591235976037 62.52867010271744 L 848.3527821840207 62.4208963285348 L 848.3488251342911 62.313099276809595 L 848.3472528441164 62.20528972715717 L 848.3480654707244 62.09747846044265 L 848.3512629328529 61.98967625770286 L 848.3568449107586 61.88189389906824 L 848.3648108462482 61.77414216268484 L 848.375159942735 61.66643182363649 L 848.3878911653178 61.558773652867366 L 848.4030032408849 61.4511784161048 L 848.4204946582415 61.34365687278283 L 848.4403636682603 61.236219774966166 L 848.462608284057 61.12887786627507 L 848.4872262811884 61.02164188081096 L 848.5142151978754 60.91452254208302 L 848.5435723352488 60.807530561935856 L 848.5752947576193 60.70067663947832 L 848.6093792927712 60.593971460013606 L 848.6458225322792 60.487425693970756 L 848.68462083185 60.381049995837586 L 848.7257703116857 60.27485500309525 L 848.7692668568727 60.16885133515453 L 848.8151061177928 60.06304959229389 L 848.863283510558 59.95746035459945 L 848.9137942174692 59.852094180906974 L 848.9666331874978 59.746961607746044 L 849.021795136791 59.64207314828636 L 849.0792745491996 59.537439291286454 L 849.1390656768303 59.43307050004484 L 849.2011625406202 59.32897721135367 L 849.2655589309347 59.22516983445505 L 849.3322484081885 59.12165875000019 L 849.4012243034894 59.01845430901127 L 849.4724797193052 58.91556683184637 L 849.5460075301538 58.81300660716748 L 849.6218003833154 58.7107838909116 L 849.6998506995678 58.60890890526517 L 849.7801506739446 58.507391837641855 L 849.862692276515 58.406242839663825 L 849.9474672531877 58.30547202614659 L 850.0344671265357 58.205089474087515 L 850.123683196644 58.105105221658164 L 850.2151065419802 58.00552926720046 L 850.3087280202857 57.90637156822687 L 850.4045382694907 57.807642040424646 L 850.5025277086503 57.709350556664305 L 850.6026865389022 57.61150694601232 L 850.7050047444467 57.514120992748204 L 850.8094720935485 57.417202435386145 L 850.91607813956 57.320760965701105 L 851.0248122219652 57.224806227759686 L 851.1356634674465 57.12934781695572 L 851.2486207909719 57.03439527905074 L 851.363672896903 56.93995810921942 L 851.4808082801252 56.84604575110002 L 851.6000152271976 56.75266759585011 L 851.721281817525 56.65983298120741 L 851.8445959245494 56.567551190555996 L 851.9699452169629 56.47583145199805 L 852.0973171599405 56.384682937430995 L 852.2266990163944 56.29411476163032 L 852.3580778482465 56.20413598133814 L 852.491440517723 56.1147555943575 L 852.6267736886684 56.02598253865261 L 852.7640638278783 55.937825691455075 L 852.9032972064531 55.85029386837614 L 853.044459901171 55.763395822525176 L 853.1875377958801 55.677140243634355 L 853.3325165829102 55.591535757189675 L 853.4793817645035 55.50659092356846 L 853.6281186542642 55.42231423718327 L 853.7787123786271 55.33871412563253 L 853.9311478783455 55.25579894885771 L 854.0854099099963 55.1735769983074 L 854.241483047505 55.092056496108135 L 854.3993516836878 55.01124559424221 L 854.5590000318127 54.93115237373246 L 854.7204121271778 54.851784843834196 L 854.8835718287083 54.77315094123426 L 855.0484628205699 54.6952585292574 L 855.2150686138008 54.61811539707989 L 855.3833725479606 54.54172925895067 L 855.5533577927959 54.46610775341989 L 855.7250073499241 54.391258442575094 L 855.8983040545326 54.317188811284986 L 856.073230577095 54.24390626645098 L 856.2497694251052 54.171418136266475 L 856.4279029448253 54.09973166948409 L 856.6076133230519 54.028854034690774 L 856.7888825888967 53.95879231959093 L 856.9716926155844 53.88955353029769 L 857.1560251222646 53.82114459063227 L 857.3418616758404 53.753572341431656 L 857.529183692811 53.68684353986444 L 857.7179724411309 53.62096485875517 L 857.9082090420827 53.55594288591707 L 858.0998744721649 53.49178412349323 L 858.2929495649939 53.42849498730643 L 858.4874150132216 53.366081806217544 L 858.6832513704652 53.304550821492676 L 858.880439053252 53.24390818617902 L 859.0789583429782 53.18415996448957 L 859.2787893878802 53.12531213119671 L 859.47991220502 53.067370571034715 L 859.6823066822836 53.01034107811134 L 859.885952580392 52.95422935532834 L 860.0908295349248 52.89904101381123 L 860.2969170583574 52.84478157234818 L 860.5041945421093 52.79145645683812 L 860.7126412586048 52.73907099974815 L 860.922236363346 52.687630439580346 L 861.1329588969969 52.637139920347835 L 861.34478778748 52.58760449106049 L 861.5577018520826 52.53902910521993 L 861.7716797995757 52.49141862032429 L 861.986700232343 52.444777797382365 L 862.2027416485201 52.399111300437596 L 862.4197824441457 52.354423696101605 L 862.637800915321 52.3107194530976 L 862.8567752603806 52.26800294181345 L 863.0766835820723 52.2262784338647 L 863.2975038897475 52.18555010166736 L 863.5192141015592 52.14582201802072 L 863.7417920466711 52.10709815570004 L 863.9652154674741 52.06938238705927 L 864.1894620218122 52.032678483643856 L 864.4145092852172 51.996990115813546 L 864.6403347531499 51.96232085237539 L 864.866915843252 51.928674160226834 L 865.0942298976031 51.89605340400906 L 865.3222541849872 51.8644618457705 L 865.5509659031657 51.833902644640645 L 865.7803421811573 51.80437885651416 L 866.0103600815254 51.775893433745246 L 866.2409966026715 51.74844922485244 L 866.4722286811359 51.722048974233765 L 866.7040331939032 51.69669532189228 L 866.9363869607156 51.672390803172085 L 867.1692667463898 51.649137848504814 L 867.4026492631414 51.626938783166544 L 867.6365111729132 51.60579582704531 L 867.870829089709 51.58571109441911 L 868.1055795819325 51.56668659374447 L 868.3407391747301 51.54872422745561 L 868.5762843523385 51.53182579177417 L 868.8121915604361 51.515992976529645 L 869.0484372084989 51.50122736499037 L 869.2849976721586 51.4875304337052 L 869.5218492955664 51.47490355235584 L 869.7589683937571 51.4633479836199 L 869.9963312550185 51.45286488304463 L 870.2339141432623 51.443455298931354 L 870.4716933003975 51.43512017223063 L 870.7096449487069 51.4278603364482 L 870.9477452932236 51.42167651756158 L 871.1859705241118 51.41656933394751 L 871.4242968190468 51.41253929632009 L 871.6627003455978 51.40958680767973 L 871.9011572636107 51.407712163272826 L 872.1396437275926 51.40691555056227 L 872.3781358890956 51.40719704920866 L 872.6166098991024 51.40855663106237 L 872.8550419104108 51.41099416016634 L 873.0934080800183 51.414509392769695 L 873.3316845715066 51.419101977352106 L 873.5698475574251 51.42477145465894 L 873.8078732216736 51.431517257747196 L 874.0457377618841 51.43933871204218 L 874.2834173918008 51.44823503540498 L 874.5208883436588 51.45820533821068 L 874.7581268705608 51.4692486234373 L 874.9951092488517 51.48136378676553 L 875.2318117804913 51.49454961668913 L 875.4682107954236 51.50880479463608 L 875.7042826539442 51.524127895100484 L 875.9400037490639 51.54051738578506 L 876.1753505088695 51.5579716277544 L 876.4102993988814 51.57648887559884 L 876.6448269244062 51.59606727760904 L 876.8789096328869 51.6167048759611 L 877.1125241162476 51.6383996069124 L 877.3456470132347 51.66114930100791 L 877.5782550117528 51.684951683297186 L 877.8103248511959 51.70980437356183 L 878.0418333247734 51.735704886553535 L 878.2727572818309 51.76265063224257 L 878.5030736301651 51.79063891607683 L 878.732759338333 51.81966693925126 L 878.9617914379554 51.849731798987726 L 879.190147026013 51.88083048882531 L 879.4178032671375 51.91295989892094 L 879.6447373958943 51.94611681636038 L 879.8709267190596 51.980297925479526 L 880.0963486178899 52.01549980819594 L 880.3209805503828 52.0517189443507 L 880.5448000535325 52.08895171206036 L 880.7677847455751 52.127194388079175 L 880.9899123282271 52.16644314817141 L 881.2111605889156 52.20669406749378 L 881.4315074029987 52.247943120987884 L 881.6509307359786 52.29018618378274 L 881.869408645705 52.33341903160728 L 882.0869192845689 52.37763734121275 L 882.3034409016877 52.422836690805035 L 882.5189518450801 52.46901256048684 L 882.7334305638313 52.516160332709674 L 882.9468556102483 52.564275292735616 L 883.1592056420043 52.613352629108746 L 883.370459424273 52.663387434136325 L 883.5805958318522 52.71437470437956 L 883.7895938512762 52.7663093411539 L 883.9974325829174 52.819186151038956 L 884.2040912430757 52.8729998463978 L 884.4095491660574 52.92774504590574 L 884.6137858062414 52.983416275088445 L 884.8167807401337 53.040007966869396 L 885.0185136684103 53.09751446212657 L 885.2189644179464 53.15593001025836 L 885.418112943834 53.21524876975863 L 885.6159393313866 53.27546480880087 L 885.8124237981302 53.33657210583136 L 886.007546695782 53.3985645501713 L 886.2012885122148 53.461435942627936 L 886.3936298734081 53.52517999611441 L 886.5845515453866 53.58979033627848 L 886.7740344361417 53.655260502139996 L 886.9620595975426 53.721583946736914 L 887.1486082272297 53.78875403778004 L 887.3336616704954 53.85676405831625 L 887.5172014221497 53.92560720740017 L 887.6992091283704 53.995276600774254 L 887.8796665885385 54.065765271557225 L 888.0585557570583 54.13706617094075 L 888.2358587451621 54.2091721688943 L 888.4115578226989 54.28207605487816 L 888.5856354199072 54.35577053856451 L 888.7580741291725 54.43024825056637 L 888.9288567067675 54.50550174317461 L 889.0979660745768 54.581523491102686 L 889.2653853218044 54.658305892239156 L 889.4310977066652 54.73584126840789 L 889.5950866580589 54.81412186613588 L 889.7573357772269 54.89313985742859 L 889.9178288393925 54.97288734055273 L 890.0765497953834 55.05335634082646 L 890.2334827732359 55.1345388114168 L 890.3886120797832 55.21642663414435 L 890.5419222022241 55.29901162029506 L 890.6933978096738 55.38228551143916 L 890.8430237546979 55.46623998025691 L 890.9907850748267 55.55086663137139 L 891.1366669940512 55.63615700218803 L 891.2806549243011 55.722102563740805 L 891.4227344669033 55.80869472154519 L 891.562891414022 55.89592481645755 L 891.7011117500792 55.98378412554111 L 891.8373816531566 56.07226386293816 L 891.9716874963774 56.1613551807487 L 892.1040158492692 56.251049169915184 L 892.2343534791069 56.34133686111345 L 892.3626873522362 56.4322092256496 L 892.4890046353769 56.52365717636293 L 892.6132926969055 56.615671568534566 L 892.73553910812 56.70824320080196 L 892.8557316444807 56.80136281607904 L 892.9738582868343 56.89502110248188 L 893.089907222615 56.98920869425987 L 893.2038668470259 57.083916172732344 L 893.3157257641996 57.17913406723036 L 893.4254727883374 57.27485285604382 L 893.5330969448286 57.37106296737362 L 893.638587471347 57.467754780288786 L 893.741933818928 57.56491862568861 L 893.843125653023 57.662544787269525 L 893.9421528545329 57.76062350249672 L 894.0390055208198 57.859144963580405 L 894.1336739666982 57.95809931845658 L 894.2261487254021 58.05747667177222 L 894.316420549533 58.15726708587479 L 894.4044804119833 58.257460581806065 L 894.4903195068404 58.358047140299924 L 894.5739292502664 58.459016702784346 L 894.6553012813563 58.56035917238722 L 894.7344274629752 58.66206441494605 L 894.8112998825707 58.764122260021324 L 894.8859108529648 58.866522501913586 L 894.9582529131228 58.96925490068398 L 895.028318828899 59.072309183178234 L 895.0961015937601 59.17567504405398 L 895.1615944294861 59.279342146811274 L 895.224790786848 59.38330012482622 L 895.2856843462627 59.48753858238766 L 895.344269018425 59.59204709573668 L 895.4005389449167 59.69681521410906 L 895.4544884987919 59.80183246078026 L 895.5061122851401 59.907088334113126 L 895.5554051416258 60.012572308608036 L 895.6023621390044 60.11827383595545 L 895.6469785816153 60.22418234609071 L 895.6892500078513 60.33028724825106 L 895.7291721906051 60.43657793203471 L 895.7667411376918 60.54304376846186 L 895.8019530922478 60.64967411103757 L 895.8348045331072 60.75645829681646 L 895.8652921751531 60.86338564746893 L 895.8934129696468 60.97044547034902 L 895.9191641045321 61.07762705956367 L 895.9425430047173 61.184919697043256 L 895.9635473323316 61.29231265361346 L 895.9821749869599 61.399795190068104 L 895.9984241058521 61.50735655824312 L 896.01229306411 61.614986002091314 L 896.0237804748493 61.72267275875801 L 896.0328851893385 61.830406059657264 L 896.0396062971137 61.93817513154877 L 896.0439431260696 62.04596919761514 L 896.0458952425272 62.15377747853961 M 896.0460162325832 96.4920458931 L 896.0448237726795 96.59985643801662 L 896.0412465122134 96.70765620196859 L 896.0352848089082 96.81543440506935 L 896.0269392589288 96.9231802695884 L 896.0162106968236 97.03088302102908 L 896.0031001954397 97.138531889206 L 895.9876090658165 97.24611610932205 L 895.9697388570539 97.35362492304485 L 895.9494913561579 97.46104757958265 L 895.9268685878617 97.5683733367593 L 895.9018728144233 97.67559146208852 L 895.8745065353993 97.78269123384712 L 895.8447724873947 97.88966194214719 L 895.8126736437896 97.99649289000702 L 895.7782132144415 98.10317339442086 L 895.7413946453647 98.20969278742717 L 895.7022216183854 98.31604041717543 L 895.6606980507736 98.42220564899125 L 895.6168280948516 98.52817786643996 L 895.5706161375782 98.6339464723881 L 895.5220668001109 98.73950089006323 L 895.4711849373429 98.84483056411152 L 895.417975637418 98.94992496165337 L 895.3624442212217 99.05477357333659 L 895.3045962418497 99.15936591438738 L 895.2444374840516 99.2636915256588 L 895.1819739636529 99.36773997467667 L 895.1172119269537 99.47150085668278 L 895.0501578501037 99.5749637956754 L 894.9808184384548 99.67811844544686 L 894.9092006258901 99.78095449061813 L 894.8353115741314 99.8834616476704 L 894.7591586720224 99.98562966597338 L 894.6807495347896 100.08744832881038 L 894.6000920032815 100.18890745439998 L 894.517194143184 100.28999689691415 L 894.4320642442142 100.39070654749288 L 894.3447108192908 100.49102633525506 L 894.2551426036836 100.59094622830548 L 894.1633685541395 100.69045623473812 L 894.0693978479871 100.78954640363527 L 893.9732398822185 100.8882068260626 L 893.8749042725505 100.9864276360601 L 893.7744008524617 101.0841990116286 L 893.6717396722105 101.18151117571202 L 893.5669309978294 101.27835439717506 L 893.4599853100985 101.37471899177628 L 893.3509133034976 101.4705953231365 L 893.2397258851363 101.56597380370249 L 893.1264341736637 101.6608448957057 L 893.0110494981568 101.75519911211595 L 892.8935833969867 101.84902701759025 L 892.7740476166658 101.94231922941623 L 892.6524541106726 102.03506641845047 L 892.5288150382562 102.12725931005133 L 892.4031427632208 102.2188886850065 L 892.2754498526893 102.30994538045483 L 892.1457490758463 102.40042029080266 L 892.0140534026614 102.49030436863434 L 891.8803760025921 102.579588625617 L 891.7447302432672 102.66826413339936 L 891.6071296891494 102.75632202450451 L 891.4675881001795 102.84375349321674 L 891.3261194304001 102.93054979646202 L 891.1827378265604 103.01670225468237 L 891.0374576267012 103.10220225270375 L 890.8902933587214 103.18704124059762 L 890.7412597389252 103.27121073453588 L 890.5903716705503 103.3547023176393 L 890.437644242278 103.4375076408191 L 890.2830927267237 103.51961842361202 L 890.1267325789103 103.60102645500817 L 889.968579434722 103.68172359427226 L 889.8086491093417 103.7617017717576 L 889.6469575956685 103.84095298971312 L 889.4835210627192 103.91946932308304 L 889.3183558540106 103.99724292029944 L 889.1514784859263 104.07426600406745 L 888.9829056460638 104.15053087214287 L 888.8126541915667 104.22602989810241 L 888.6407411474386 104.30075553210642 L 888.4671837048405 104.37470030165377 L 888.2919992193722 104.44785681232914 L 888.1152052093362 104.52021774854238 L 887.9368193539862 104.59177587426021 L 887.7568594917589 104.66252403372968 L 887.5753436184908 104.73245515219378 L 887.3922898856179 104.80156223659897 L 887.2077165983609 104.86983837629438 L 887.0216422138947 104.93727674372295 L 886.8340853395027 105.0038705951041 L 886.6450647307161 105.06961327110824 L 886.4545992894382 105.13449819752252 L 886.2627080620543 105.19851888590837 L 886.0694102375276 105.26166893425032 L 885.874725145479 105.32394202759615 L 885.6786722542558 105.38533193868841 L 885.4812711689837 105.44583252858716 L 885.2825416296066 105.50543774728384 L 885.0825035089129 105.56414163430621 L 884.8811768105479 105.62193831931454 L 884.6785816670139 105.67882202268845 L 884.474738337656 105.73478705610502 L 884.2696672066378 105.78982782310756 L 884.063388780901 105.84393881966523 L 883.8559236881167 105.89711463472344 L 883.647292674621 105.94934995074503 L 883.4375166033416 106.00063954424192 L 883.2266164517106 106.0509782862975 L 883.0146133095675 106.1003611430795 L 882.8015283770499 106.14878317634341 L 882.5873829624735 106.19623954392625 L 882.3721984802012 106.2427255002308 L 882.1559964485019 106.2882363967002 L 881.9387984873988 106.33276768228268 L 881.7206263165068 106.37631490388682 L 881.5015017528613 106.41887370682676 L 881.2814467087359 106.46043983525765 L 881.0604831894518 106.50100913260128 L 880.8386332911768 106.54057754196174 L 880.6159191987158 106.57914110653107 L 880.3923631832923 106.61669596998493 L 880.1679876003219 106.65323837686829 L 879.9428148871756 106.6887646729709 L 879.7168675609372 106.72327130569276 L 879.490168216151 106.75675482439937 L 879.2627395225626 106.78921188076673 L 879.0346042228517 106.82063922911627 L 878.8057851303585 106.85103372673933 L 878.5763051268011 106.8803923342115 L 878.3461871599891 106.90871211569649 L 878.115454241527 106.93599023923973 L 877.8841294445147 106.96222397705162 L 877.6522359012388 106.98741070578025 L 877.4197968008607 107.0115479067737 L 877.1868353870966 107.03463316633201 L 876.9533749558937 107.05666417594847 L 876.7194388531007 107.07763873254045 L 876.4850504721327 107.09755473866979 L 876.2502332516327 107.11641020275246 L 876.0150106731271 107.13420323925777 L 875.7794062586775 107.1509320688969 L 875.5434435685291 107.16659501880085 L 875.3071461987545 107.18119052268763 L 875.0705377788935 107.19471712101905 L 874.8336419695909 107.20717346114655 L 874.5964824602304 107.21855829744648 L 874.3590829665652 107.22887049144471 L 874.1214672283468 107.23810901193042 L 873.8836590069511 107.24627293505928 L 873.645682083002 107.25336144444577 L 873.4075602539937 107.25937383124486 L 873.1693173319105 107.26430949422287 L 872.9309771408462 107.26816793981763 L 872.6925635146212 107.27094878218779 L 872.4541002943994 107.27265174325143 L 872.2156113263043 107.27327665271386 L 871.9771204590337 107.27282344808465 L 871.7386515414759 107.27129217468391 L 871.5002284203237 107.26868298563768 L 871.2618749376907 107.2649961418627 L 871.0236149287263 107.26023201204026 L 870.785472219233 107.2543910725794 L 870.5474706232834 107.24747390756917 L 870.3096339408386 107.23948120872033 L 870.0719859553686 107.23041377529609 L 869.8345504314741 107.22027251403225 L 869.5973511125094 107.20905843904646 L 869.360411718209 107.1967726717369 L 869.1237559423147 107.18341644067004 L 868.8874074502069 107.16899108145788 L 868.6513898765378 107.15349803662431 L 868.4157268228682 107.1369388554609 L 868.1804418553071 107.11931519387196 L 867.9455585021551 107.10062881420897 L 867.7111002515518 107.08088158509435 L 867.477090549127 107.0600754812345 L 867.2435527956555 107.03821258322252 L 867.0105103447187 107.01529507732995 L 866.777986500367 106.99132525528832 L 866.5460045147911 106.96630551405984 L 866.3145875859965 106.94023835559778 L 866.083758855483 106.91312638659626 L 865.8535414059314 106.88497231822961 L 865.6239582588948 106.85577896588119 L 865.3950323724965 106.8255492488619 L 865.1667866391346 106.79428619011826 L 864.9392438831919 106.76199291593008 L 864.7124268587546 106.72867265559789 L 864.4863582473362 106.69432874111995 L 864.2610606556092 106.65896460685907 L 864.0365566131451 106.62258378919921 L 863.8128685701612 106.58518992619184 L 863.5900188952753 106.5467867571921 L 863.3680298732692 106.50737812248485 L 863.1469237028601 106.46696796290075 L 862.9267224944807 106.42556031942208 L 862.7074482680686 106.38315933277867 L 862.4891229508634 106.33976924303387 L 862.271768375215 106.29539438916049 L 862.0554062763999 106.25003920860692 L 861.8400582904476 106.20370823685344 L 861.6257459519774 106.15640610695861 L 861.4124906920442 106.108137549096 L 861.2003138359968 106.05890739008117 L 860.9892366013435 106.00872055288902 L 860.7792800956321 105.9575820561614 L 860.5704653143382 105.90549701370541 L 860.3628131387659 105.85247063398188 L 860.1563443339597 105.79850821958458 L 859.9510795466281 105.74361516670999 L 859.7470393030786 105.68779696461766 L 859.5442440071656 105.63105919508126 L 859.3427139382499 105.5734075318305 L 859.1424692491702 105.51484773998365 L 858.9435299642286 105.45538567547108 L 858.7459159771878 105.3950272844497 L 858.5496470492819 105.33377860270829 L 858.3547428072401 105.27164575506403 L 858.1612227413242 105.20863495474987 L 857.9691062033794 105.14475250279335 L 857.7784124048997 105.08000478738643 L 857.5891604151057 105.01439828324668 L 857.4013691590387 104.94793955096986 L 857.2150574156681 104.8806352363738 L 857.0302438160127 104.8124920698339 L 856.8469468412786 104.74351686560999 L 856.6651848210104 104.67371652116503 L 856.4849759312589 104.6030980164753 L 856.3063381927626 104.53166841333243 L 856.1292894691467 104.4594348546372 L 855.9538474651358 104.38640456368528 L 855.7800297247844 104.31258484344491 L 855.6078536297215 104.2379830758266 L 855.4373363974131 104.16260672094495 L 855.2684950794405 104.08646331637262 L 855.1013465597946 104.00956047638662 L 854.9359075531883 103.93190589120688 L 854.772194603384 103.85350732622719 L 854.6102240815408 103.77437262123871 L 854.4500121845755 103.694509689646 L 854.2915749335443 103.61392651767568 L 854.1349281720405 103.53263116357778 L 853.9800875646097 103.45063175681996 L 853.8270685951834 103.36793649727457 L 853.6758865655311 103.28455365439865 L 853.5265565937298 103.20049156640701 L 853.3790936126522 103.1157586394384 L 853.2335123684737 103.03036334671489 L 853.0898274191973 102.94431422769459 L 852.9480531331981 102.85761988721772 L 852.8082036877867 102.77028899464605 L 852.6702930677909 102.68233028299609 L 852.5343350641579 102.5937525480657 L 852.4003432725748 102.50456464755453 L 852.2683310921091 102.41477550017834 L 852.1383117238687 102.32439408477703 L 852.0102981696822 102.23342943941684 L 851.8843032307983 102.14189066048647 L 851.760339506606 102.04978690178756 L 851.6384193933743 101.95712737361922 L 851.5185550830129 101.86392134185704 L 851.400758561853 101.77017812702654 L 851.2850416094485 101.67590710337106 L 851.1714157973983 101.58111769791444 L 851.0598924881889 101.48581938951821 L 850.9504828340582 101.39002170793381 L 850.8431977758805 101.29373423284954 L 850.7380480420723 101.19696659293271 L 850.6350441475192 101.09972846486664 L 850.5341963925249 101.00202957238312 L 850.4355148617808 100.90387968528998 L 850.3390094233579 100.80528861849413 L 850.2446897277194 100.70626623102011 L 850.1525652067564 100.60682242502413 L 850.0626450728442 100.50696714480392 L 849.9749383179213 100.40671037580431 L 849.88945371259 100.30606214361863 L 849.8061998052398 100.20503251298624 L 849.7251849211917 100.103631586786 L 849.6464171618669 100.00186950502604 L 849.5699044039757 99.89975644382972 L 849.4956542987298 99.79730261441809 L 849.4236742710783 99.69451826208869 L 849.3539715189636 99.59141366519111 L 849.2865530126031 99.48799913409913 L 849.2214254937911 99.38428501017967 L 849.1585954752252 99.28028166475868 L 849.098069239855 99.17599949808405 L 849.0398528402535 99.07144893828554 L 848.9839520980123 98.96664044033201 L 848.9303726031588 98.86158448498593 L 848.879119713598 98.75629157775525 L 848.8301985545762 98.65077224784297 L 848.7836140181684 98.54503704709414 L 848.7393707627895 98.43909654894075 L 848.697473212728 98.33296134734431 L 848.6579255577043 98.22664205573652 L 848.6207317524506 98.12014930595798 L 848.5858955163168 98.01349374719489 L 848.5534203328971 97.90668604491427 L 848.5233094496831 97.79973687979731 L 848.4955658777378 97.69265694667143 L 848.4701923913955 97.58545695344071 L 848.4471915279835 97.47814762001512 L 848.426565587569 97.37073967723859 L 848.4083166327289 97.26324386581588 L 848.3924464883435 97.15567093523856 L 848.378956741414 97.04803164271006 L 848.3678487409037 96.94033675206991 L 848.3591235976037 96.83259703271744 L 848.3527821840207 96.7248232585348 L 848.3488251342911 96.6170262068096 L 848.3472528441164 96.50921665715717" stroke-miterlimit="10" stroke-width="2.7769845610000004" stroke-dasharray=""/></g><g><text fill="black" stroke="none" font-family="sans-serif" font-size="11pt" font-style="normal" font-weight="normal" text-decoration="normal" x="840.8186744682941" y="124.80095321200001" text-anchor="start" dominant-baseline="alphabetic" xml:space="preserve">Database</text></g></g><g><path fill="white" stroke="black" paint-order="fill stroke markers" d=" M 312.6811225636067 183.607685092 L 329.0163258636067 183.607685092 L 329.0163258636067 1480.622827112 L 312.6811225636067 1480.622827112 L 312.6811225636067 183.607685092" stroke-miterlimit="10" stroke-width="1.3612669416666667" stroke-dasharray=""/><path fill="white" stroke="black" paint-order="fill stroke markers" d=" M 320.8487242136067 342.059157102 L 337.1839275136067 342.059157102 L 337.1839275136067 387.7977263419999 L 320.8487242136067 387.7977263419999 L 320.8487242136067 342.059157102" stroke-miterlimit="10" stroke-width="1.3612669416666667" stroke-dasharray=""/><path fill="white" stroke="black" paint-order="fill stroke markers" d=" M 558.3965234799477 614.8570522119999 L 574.7317267799478 614.8570522119999 L 574.7317267799478 1418.5490545720002 L 558.3965234799477 1418.5490545720002 L 558.3965234799477 614.8570522119999" stroke-miterlimit="10" stroke-width="1.3612669416666667" stroke-dasharray=""/><path fill="white" stroke="black" paint-order="fill stroke markers" d=" M 711.2127706222655 856.6180610519999 L 727.5479739222656 856.6180610519999 L 727.5479739222656 993.8337687719998 L 711.2127706222655 993.8337687719998 L 711.2127706222655 856.6180610519999" stroke-miterlimit="10" stroke-width="1.3612669416666667" stroke-dasharray=""/><path fill="white" stroke="black" paint-order="fill stroke markers" d=" M 864.0290177645832 902.3566302919999 L 880.3642210645833 902.3566302919999 L 880.3642210645833 948.0951995319998 L 864.0290177645832 948.0951995319998 L 864.0290177645832 902.3566302919999" stroke-miterlimit="10" stroke-width="1.3612669416666667" stroke-dasharray=""/><path fill="white" stroke="black" paint-order="fill stroke markers" d=" M 711.2127706222655 1219.259574312 L 727.5479739222656 1219.259574312 L 727.5479739222656 1356.4752820320002 L 711.2127706222655 1356.4752820320002 L 711.2127706222655 1219.259574312" stroke-miterlimit="10" stroke-width="1.3612669416666667" stroke-dasharray=""/><path fill="white" stroke="black" paint-order="fill stroke markers" d=" M 864.0290177645832 1264.998143552 L 880.3642210645833 1264.998143552 L 880.3642210645833 1310.7367127920002 L 864.0290177645832 1310.7367127920002 L 864.0290177645832 1264.998143552" stroke-miterlimit="10" stroke-width="1.3612669416666667" stroke-dasharray=""/><g><g><rect fill="white" stroke="none" x="115.27953523533851" y="162.371920802" width="171.9656702429297" height="21.23576429"/></g><text fill="black" stroke="none" font-family="sans-serif" font-size="11pt" font-style="normal" font-weight="normal" text-decoration="normal" x="117.72981573033852" y="177.07360377199998" text-anchor="start" dominant-baseline="alphabetic" xml:space="preserve">Go to Update User popup</text></g><g><path fill="none" stroke="black" paint-order="fill stroke markers" d=" M 89.84361815 183.607685092 L 299.23180517994007 183.607685092" stroke-miterlimit="10" stroke-width="1.3612669416666667" stroke-dasharray=""/><g transform="translate(312.6811225636067,183.607685092) translate(-312.6811225636067,-183.607685092)"><path fill="black" stroke="none" paint-order="stroke fill markers" d=" M 299.06845314694004 176.80135038366666 L 312.6811225636067 183.607685092 L 299.06845314694004 190.41401980033334 Z"/></g></g><g><g><rect fill="white" stroke="none" x="109.17360872166664" y="208.110490042" width="184.17752327027344" height="21.23576429"/></g><text fill="black" stroke="none" font-family="sans-serif" font-size="11pt" font-style="normal" font-weight="normal" text-decoration="normal" x="111.62388921666664" y="222.812173012" text-anchor="start" dominant-baseline="alphabetic" xml:space="preserve">Display Update User popup</text></g><g><path fill="none" stroke="black" paint-order="fill stroke markers" d=" M 312.6811225636067 229.346254332 L 103.29293553366666 229.346254332" stroke-miterlimit="10" stroke-width="1.3612669416666667" stroke-dasharray="6.53408132"/><g transform="translate(89.84361815,229.346254332) translate(-89.84361815,-229.346254332)"><path fill="black" stroke="none" paint-order="stroke fill markers" d=" M 103.45628756666666 222.53991962366666 L 89.84361815 229.346254332 L 103.45628756666666 236.15258904033334 Z"/></g></g><g><g><rect fill="white" stroke="none" x="111.21727174656898" y="253.849059282" width="180.09019722046875" height="21.23576429"/></g><text fill="black" stroke="none" font-family="sans-serif" font-size="11pt" font-style="normal" font-weight="normal" text-decoration="normal" x="113.66755224156898" y="268.550742252" text-anchor="start" dominant-baseline="alphabetic" xml:space="preserve">Update information of User</text></g><g><path fill="none" stroke="black" paint-order="fill stroke markers" d=" M 89.84361815 275.084823572 L 299.23180517994007 275.084823572" stroke-miterlimit="10" stroke-width="1.3612669416666667" stroke-dasharray=""/><g transform="translate(312.6811225636067,275.084823572) translate(-312.6811225636067,-275.084823572)"><path fill="black" stroke="none" paint-order="stroke fill markers" d=" M 299.06845314694004 268.27848886366667 L 312.6811225636067 275.084823572 L 299.06845314694004 281.89115828033334 Z"/></g></g><g><g><rect fill="white" stroke="none" x="356.51391808527336" y="299.587628522" width="125.25842536988281" height="21.23576429"/></g><text fill="black" stroke="none" font-family="sans-serif" font-size="11pt" font-style="normal" font-weight="normal" text-decoration="normal" x="358.9641985802734" y="314.28931149199997" text-anchor="start" dominant-baseline="alphabetic" xml:space="preserve">Validate input data</text></g><g><path fill="none" stroke="black" paint-order="fill stroke markers" d=" M 329.0163258636067 320.82339281199995 L 402.5247407136067 320.82339281199995 L 402.5247407136067 342.059157102 L 350.63324489727336 342.059157102" stroke-miterlimit="10" stroke-width="1.3612669416666667" stroke-dasharray=""/><g transform="translate(337.1839275136067,342.059157102) translate(-337.1839275136067,-342.059157102)"><path fill="black" stroke="none" paint-order="stroke fill markers" d=" M 350.7965969302734 335.25282239366663 L 337.1839275136067 342.059157102 L 350.7965969302734 348.8654918103333 Z"/></g></g><g><g><rect fill="white" stroke="none" x="356.51391808527336" y="366.56196205199996" width="95.90982307496094" height="21.23576429"/></g><text fill="black" stroke="none" font-family="sans-serif" font-size="11pt" font-style="normal" font-weight="normal" text-decoration="normal" x="358.9641985802734" y="381.26364502199993" text-anchor="start" dominant-baseline="alphabetic" xml:space="preserve">Validate value</text></g><g><path fill="none" stroke="black" paint-order="fill stroke markers" d=" M 337.1839275136067 387.7977263419999 L 402.5247407136067 387.7977263419999 L 402.5247407136067 409.03349063199994 L 342.46564324727336 409.03349063199994" stroke-miterlimit="10" stroke-width="1.3612669416666667" stroke-dasharray="6.53408132"/><g transform="translate(329.0163258636067,409.03349063199994) translate(-329.0163258636067,-409.03349063199994)"><path fill="black" stroke="none" paint-order="stroke fill markers" d=" M 342.6289952802734 402.2271559236666 L 329.0163258636067 409.03349063199994 L 342.6289952802734 415.8398253403333 Z"/></g></g><g><g><rect fill="white" stroke="none" x="139.05191224949868" y="477.6413444919999" width="124.42091621460938" height="21.23576429"/></g><text fill="black" stroke="none" font-family="sans-serif" font-size="11pt" font-style="normal" font-weight="normal" text-decoration="normal" x="141.50219274449867" y="492.3430274619999" text-anchor="start" dominant-baseline="alphabetic" xml:space="preserve">Validate Message </text></g><g><path fill="none" stroke="black" paint-order="fill stroke markers" d=" M 312.6811225636067 498.87710878199994 L 103.29293553366666 498.87710878199994" stroke-miterlimit="10" stroke-width="1.3612669416666667" stroke-dasharray="6.53408132"/><g transform="translate(89.84361815,498.87710878199994) translate(-89.84361815,-498.87710878199994)"><path fill="black" stroke="none" paint-order="stroke fill markers" d=" M 103.45628756666666 492.0707740736666 L 89.84361815 498.87710878199994 L 103.45628756666666 505.6834434903333 Z"/></g></g><g><g><rect fill="white" stroke="none" x="141.77202791111978" y="547.8827186819999" width="118.98068489136719" height="21.23576429"/></g><text fill="black" stroke="none" font-family="sans-serif" font-size="11pt" font-style="normal" font-weight="normal" text-decoration="normal" x="144.22230840611977" y="562.5844016519999" text-anchor="start" dominant-baseline="alphabetic" xml:space="preserve">Click Save button</text></g><g><path fill="none" stroke="black" paint-order="fill stroke markers" d=" M 89.84361815 569.1184829719999 L 299.23180517994007 569.1184829719999" stroke-miterlimit="10" stroke-width="1.3612669416666667" stroke-dasharray=""/><g transform="translate(312.6811225636067,569.1184829719999) translate(-312.6811225636067,-569.1184829719999)"><path fill="black" stroke="none" paint-order="stroke fill markers" d=" M 299.06845314694004 562.3121482636666 L 312.6811225636067 569.1184829719999 L 299.06845314694004 575.9248176803333 Z"/></g></g><g><g><rect fill="white" stroke="none" x="395.2217966425975" y="593.6212879219999" width="96.96925605835938" height="21.23576429"/></g><text fill="black" stroke="none" font-family="sans-serif" font-size="11pt" font-style="normal" font-weight="normal" text-decoration="normal" x="397.6720771375975" y="608.3229708919998" text-anchor="start" dominant-baseline="alphabetic" xml:space="preserve">PUT: /api/user</text></g><g><path fill="none" stroke="black" paint-order="fill stroke markers" d=" M 329.0163258636067 614.8570522119999 L 544.9472060962811 614.8570522119999" stroke-miterlimit="10" stroke-width="1.3612669416666667" stroke-dasharray=""/><g transform="translate(558.3965234799477,614.8570522119999) translate(-558.3965234799477,-614.8570522119999)"><path fill="black" stroke="none" paint-order="stroke fill markers" d=" M 544.7838540632811 608.0507175036665 L 558.3965234799477 614.8570522119999 L 544.7838540632811 621.6633869203332 Z"/></g></g><g><g><rect fill="white" stroke="none" x="358.5539728510936" y="683.464906072" width="149.11673225464844" height="21.23576429"/></g><g><rect fill="white" stroke="none" x="358.5539728510936" y="699.800109372" width="170.3049036413672" height="21.23576429"/></g><text fill="red" stroke="none" font-family="sans-serif" font-size="11pt" font-style="normal" font-weight="normal" text-decoration="normal" x="361.0042533460936" y="698.1665890419999" text-anchor="start" dominant-baseline="alphabetic" xml:space="preserve">400 BAD_REQUEST: </text><text fill="red" stroke="none" font-family="sans-serif" font-size="11pt" font-style="normal" font-weight="normal" text-decoration="normal" x="361.0042533460936" y="714.5017923419999" text-anchor="start" dominant-baseline="alphabetic" xml:space="preserve">Missing required property</text></g><g><path fill="none" stroke="black" paint-order="fill stroke markers" d=" M 558.3965234799477 721.035873662 L 342.46564324727336 721.035873662" stroke-miterlimit="10" stroke-width="1.3612669416666667" stroke-dasharray="6.53408132"/><g transform="translate(329.0163258636067,721.035873662) translate(-329.0163258636067,-721.035873662)"><path fill="black" stroke="none" paint-order="stroke fill markers" d=" M 342.6289952802734 714.2295389536666 L 329.0163258636067 721.035873662 L 342.6289952802734 727.8422083703333 Z"/></g></g><g><g><rect fill="white" stroke="none" x="132.80997651951822" y="745.5386786119999" width="136.90478767457031" height="21.23576429"/></g><text fill="black" stroke="none" font-family="sans-serif" font-size="11pt" font-style="normal" font-weight="normal" text-decoration="normal" x="135.2602570145182" y="760.2403615819999" text-anchor="start" dominant-baseline="alphabetic" xml:space="preserve">Message is required</text></g><g><path fill="none" stroke="black" paint-order="fill stroke markers" d=" M 312.6811225636067 766.7744429019999 L 103.29293553366666 766.7744429019999" stroke-miterlimit="10" stroke-width="1.3612669416666667" stroke-dasharray="6.53408132"/><g transform="translate(89.84361815,766.7744429019999) translate(-89.84361815,-766.7744429019999)"><path fill="black" stroke="none" paint-order="stroke fill markers" d=" M 103.45628756666666 759.9681081936666 L 89.84361815 766.7744429019999 L 103.45628756666666 773.5807776103333 Z"/></g></g><g><g><rect fill="white" stroke="none" x="608.7575028740754" y="835.3822967619999" width="68.4294916540625" height="21.23576429"/></g><text fill="black" stroke="none" font-family="sans-serif" font-size="11pt" font-style="normal" font-weight="normal" text-decoration="normal" x="611.2077833690754" y="850.0839797319999" text-anchor="start" dominant-baseline="alphabetic" xml:space="preserve">isExist(id)</text></g><g><path fill="none" stroke="black" paint-order="fill stroke markers" d=" M 574.7317267799478 856.6180610519999 L 697.7634532385988 856.6180610519999" stroke-miterlimit="10" stroke-width="1.3612669416666667" stroke-dasharray=""/><g transform="translate(711.2127706222655,856.6180610519999) translate(-711.2127706222655,-856.6180610519999)"><path fill="black" stroke="none" paint-order="stroke fill markers" d=" M 697.6001012055988 849.8117263436666 L 711.2127706222655 856.6180610519999 L 697.6001012055988 863.4243957603333 Z"/></g></g><g><g><rect fill="white" stroke="none" x="749.3475537273306" y="881.1208660019998" width="92.8818842321875" height="21.23576429"/></g><text fill="black" stroke="none" font-family="sans-serif" font-size="11pt" font-style="normal" font-weight="normal" text-decoration="normal" x="751.7978342223306" y="895.8225489719998" text-anchor="start" dominant-baseline="alphabetic" xml:space="preserve">existsById(id)</text></g><g><path fill="none" stroke="black" paint-order="fill stroke markers" d=" M 727.5479739222656 902.3566302919999 L 850.5797003809165 902.3566302919999" stroke-miterlimit="10" stroke-width="1.3612669416666667" stroke-dasharray=""/><g transform="translate(864.0290177645832,902.3566302919999) translate(-864.0290177645832,-902.3566302919999)"><path fill="black" stroke="none" paint-order="stroke fill markers" d=" M 850.4163483479165 895.5502955836665 L 864.0290177645832 902.3566302919999 L 850.4163483479165 909.1629650003332 Z"/></g></g><g><g><rect fill="white" stroke="none" x="746.8779644939322" y="926.8594352419998" width="97.82106269898438" height="21.23576429"/></g><text fill="black" stroke="none" font-family="sans-serif" font-size="11pt" font-style="normal" font-weight="normal" text-decoration="normal" x="749.3282449889322" y="941.5611182119998" text-anchor="start" dominant-baseline="alphabetic" xml:space="preserve">Boolean value</text></g><g><path fill="none" stroke="black" paint-order="fill stroke markers" d=" M 864.0290177645832 948.0951995319998 L 740.9972913059322 948.0951995319998" stroke-miterlimit="10" stroke-width="1.3612669416666667" stroke-dasharray="6.53408132"/><g transform="translate(727.5479739222656,948.0951995319998) translate(-727.5479739222656,-948.0951995319998)"><path fill="black" stroke="none" paint-order="stroke fill markers" d=" M 741.1606433389322 941.2888648236665 L 727.5479739222656 948.0951995319998 L 741.1606433389322 954.9015342403331 Z"/></g></g><g><g><rect fill="white" stroke="none" x="594.0617173516144" y="972.5980044819997" width="97.82106269898438" height="21.23576429"/></g><text fill="black" stroke="none" font-family="sans-serif" font-size="11pt" font-style="normal" font-weight="normal" text-decoration="normal" x="596.5119978466145" y="987.2996874519997" text-anchor="start" dominant-baseline="alphabetic" xml:space="preserve">Boolean value</text></g><g><path fill="none" stroke="black" paint-order="fill stroke markers" d=" M 711.2127706222655 993.8337687719998 L 588.1810441636145 993.8337687719998" stroke-miterlimit="10" stroke-width="1.3612669416666667" stroke-dasharray="6.53408132"/><g transform="translate(574.7317267799478,993.8337687719998) translate(-574.7317267799478,-993.8337687719998)"><path fill="black" stroke="none" paint-order="stroke fill markers" d=" M 588.3443961966145 987.0274340636664 L 574.7317267799478 993.8337687719998 L 588.3443961966145 1000.6401034803331 Z"/></g></g><g><g><rect fill="white" stroke="none" x="383.4214807856639" y="1062.441622632" width="120.56988777222656" height="21.23576429"/></g><text fill="red" stroke="none" font-family="sans-serif" font-size="11pt" font-style="normal" font-weight="normal" text-decoration="normal" x="385.8717612806639" y="1077.143305602" text-anchor="start" dominant-baseline="alphabetic" xml:space="preserve">404 NOT FOUND</text></g><g><path fill="none" stroke="black" paint-order="fill stroke markers" d=" M 558.3965234799477 1083.6773869219999 L 342.46564324727336 1083.6773869219999" stroke-miterlimit="10" stroke-width="1.3612669416666667" stroke-dasharray="6.53408132"/><g transform="translate(329.0163258636067,1083.6773869219999) translate(-329.0163258636067,-1083.6773869219999)"><path fill="black" stroke="none" paint-order="stroke fill markers" d=" M 342.6289952802734 1076.8710522136666 L 329.0163258636067 1083.6773869219999 L 342.6289952802734 1090.483721630333 Z"/></g></g><g><g><rect fill="white" stroke="none" x="131.99035066502603" y="1108.180191872" width="138.5440393835547" height="21.23576429"/></g><text fill="black" stroke="none" font-family="sans-serif" font-size="11pt" font-style="normal" font-weight="normal" text-decoration="normal" x="134.44063116002602" y="1122.8818748420001" text-anchor="start" dominant-baseline="alphabetic" xml:space="preserve">Message Update fail</text></g><g><path fill="none" stroke="black" paint-order="fill stroke markers" d=" M 312.6811225636067 1129.415956162 L 103.29293553366666 1129.415956162" stroke-miterlimit="10" stroke-width="1.3612669416666667" stroke-dasharray="6.53408132"/><g transform="translate(89.84361815,1129.415956162) translate(-89.84361815,-1129.415956162)"><path fill="black" stroke="none" paint-order="stroke fill markers" d=" M 103.45628756666666 1122.6096214536667 L 89.84361815 1129.415956162 L 103.45628756666666 1136.2222908703332 Z"/></g></g><g><g><rect fill="white" stroke="none" x="620.1569169365754" y="1198.0238100220001" width="45.6306635290625" height="21.23576429"/></g><text fill="black" stroke="none" font-family="sans-serif" font-size="11pt" font-style="normal" font-weight="normal" text-decoration="normal" x="622.6071974315754" y="1212.7254929920002" text-anchor="start" dominant-baseline="alphabetic" xml:space="preserve">save()</text></g><g><path fill="none" stroke="black" paint-order="fill stroke markers" d=" M 574.7317267799478 1219.259574312 L 697.7634532385988 1219.259574312" stroke-miterlimit="10" stroke-width="1.3612669416666667" stroke-dasharray=""/><g transform="translate(711.2127706222655,1219.259574312) translate(-711.2127706222655,-1219.259574312)"><path fill="black" stroke="none" paint-order="stroke fill markers" d=" M 697.6001012055988 1212.4532396036668 L 711.2127706222655 1219.259574312 L 697.6001012055988 1226.0659090203333 Z"/></g></g><g><g><rect fill="white" stroke="none" x="752.1893353435415" y="1243.7623792620002" width="87.19832099976563" height="21.23576429"/></g><text fill="black" stroke="none" font-family="sans-serif" font-size="11pt" font-style="normal" font-weight="normal" text-decoration="normal" x="754.6396158385415" y="1258.4640622320003" text-anchor="start" dominant-baseline="alphabetic" xml:space="preserve">Update User</text></g><g><path fill="none" stroke="black" paint-order="fill stroke markers" d=" M 727.5479739222656 1264.998143552 L 850.5797003809165 1264.998143552" stroke-miterlimit="10" stroke-width="1.3612669416666667" stroke-dasharray=""/><g transform="translate(864.0290177645832,1264.998143552) translate(-864.0290177645832,-1264.998143552)"><path fill="black" stroke="none" paint-order="stroke fill markers" d=" M 850.4163483479165 1258.1918088436669 L 864.0290177645832 1264.998143552 L 850.4163483479165 1271.8044782603333 Z"/></g></g><g><g><rect fill="white" stroke="none" x="758.3060193035025" y="1289.5009485020003" width="74.96495307984375" height="21.23576429"/></g><text fill="black" stroke="none" font-family="sans-serif" font-size="11pt" font-style="normal" font-weight="normal" text-decoration="normal" x="760.7562997985025" y="1304.2026314720003" text-anchor="start" dominant-baseline="alphabetic" xml:space="preserve">User entity</text></g><g><path fill="none" stroke="black" paint-order="fill stroke markers" d=" M 864.0290177645832 1310.7367127920002 L 740.9972913059322 1310.7367127920002" stroke-miterlimit="10" stroke-width="1.3612669416666667" stroke-dasharray="6.53408132"/><g transform="translate(727.5479739222656,1310.7367127920002) translate(-727.5479739222656,-1310.7367127920002)"><path fill="black" stroke="none" paint-order="stroke fill markers" d=" M 741.1606433389322 1303.930378083667 L 727.5479739222656 1310.7367127920002 L 741.1606433389322 1317.5430475003334 Z"/></g></g><g><g><rect fill="white" stroke="none" x="605.4897721611848" y="1335.2395177420003" width="74.96495307984375" height="21.23576429"/></g><text fill="black" stroke="none" font-family="sans-serif" font-size="11pt" font-style="normal" font-weight="normal" text-decoration="normal" x="607.9400526561848" y="1349.9412007120004" text-anchor="start" dominant-baseline="alphabetic" xml:space="preserve">User entity</text></g><g><path fill="none" stroke="black" paint-order="fill stroke markers" d=" M 711.2127706222655 1356.4752820320002 L 588.1810441636145 1356.4752820320002" stroke-miterlimit="10" stroke-width="1.3612669416666667" stroke-dasharray="6.53408132"/><g transform="translate(574.7317267799478,1356.4752820320002) translate(-574.7317267799478,-1356.4752820320002)"><path fill="black" stroke="none" paint-order="stroke fill markers" d=" M 588.3443961966145 1349.668947323667 L 574.7317267799478 1356.4752820320002 L 588.3443961966145 1363.2816167403334 Z"/></g></g><g><g><rect fill="white" stroke="none" x="352.4301172602733" y="1380.9780869820001" width="54.61422981324219" height="21.23576429"/></g><g><rect fill="white" stroke="none" x="352.4301172602733" y="1397.3132902820003" width="182.55261482300781" height="21.23576429"/></g><text fill="green" stroke="none" font-family="sans-serif" font-size="11pt" font-style="normal" font-weight="normal" text-decoration="normal" x="354.8803977552733" y="1395.6797699520002" text-anchor="start" dominant-baseline="alphabetic" xml:space="preserve">200 OK</text><text fill="green" stroke="none" font-family="sans-serif" font-size="11pt" font-style="normal" font-weight="normal" text-decoration="normal" x="354.8803977552733" y="1412.0149732520003" text-anchor="start" dominant-baseline="alphabetic" xml:space="preserve">Response body: User data </text></g><g><path fill="none" stroke="black" paint-order="fill stroke markers" d=" M 558.3965234799477 1418.5490545720002 L 342.46564324727336 1418.5490545720002" stroke-miterlimit="10" stroke-width="1.3612669416666667" stroke-dasharray="6.53408132"/><g transform="translate(329.0163258636067,1418.5490545720002) translate(-329.0163258636067,-1418.5490545720002)"><path fill="black" stroke="none" paint-order="stroke fill markers" d=" M 342.6289952802734 1411.742719863667 L 329.0163258636067 1418.5490545720002 L 342.6289952802734 1425.3553892803334 Z"/></g></g><g><g><rect fill="white" stroke="none" x="117.32679933445961" y="1443.051859522" width="167.8711420446875" height="21.23576429"/></g><g><rect fill="white" stroke="none" x="117.32679933445961" y="1459.3870628220002" width="164.62849678101563" height="21.23576429"/></g><text fill="black" stroke="none" font-family="sans-serif" font-size="11pt" font-style="normal" font-weight="normal" text-decoration="normal" x="119.77707982945961" y="1457.7535424920002" text-anchor="start" dominant-baseline="alphabetic" xml:space="preserve">Display User detail page </text><text fill="black" stroke="none" font-family="sans-serif" font-size="11pt" font-style="normal" font-weight="normal" text-decoration="normal" x="119.77707982945961" y="1474.0887457920003" text-anchor="start" dominant-baseline="alphabetic" xml:space="preserve">with updated information</text></g><g><path fill="none" stroke="black" paint-order="fill stroke markers" d=" M 312.6811225636067 1480.622827112 L 103.29293553366666 1480.622827112" stroke-miterlimit="10" stroke-width="1.3612669416666667" stroke-dasharray="6.53408132"/><g transform="translate(89.84361815,1480.622827112) translate(-89.84361815,-1480.622827112)"><path fill="black" stroke="none" paint-order="stroke fill markers" d=" M 103.45628756666666 1473.8164924036669 L 89.84361815 1480.622827112 L 103.45628756666666 1487.4291618203333 Z"/></g></g><g><g/><path fill="none" stroke="black" paint-order="fill stroke markers" d=" M 32.6704066 433.5362955819999 L 378.02193576360673 433.5362955819999 L 378.02193576360673 523.379913732 L 32.6704066 523.379913732 L 32.6704066 433.5362955819999 Z" stroke-miterlimit="10" stroke-width="2.3336004714285714" stroke-dasharray=""/><path fill="white" stroke="black" paint-order="fill stroke markers" d=" M 32.6704066 433.5362955819999 L 32.6704066 453.13853954199993 L 79.02961019707031 453.13853954199993 L 88.83073217707032 443.3374175619999 L 88.83073217707032 433.5362955819999 L 32.6704066 433.5362955819999" stroke-miterlimit="10" stroke-width="2.3336004714285714" stroke-dasharray=""/><text fill="black" stroke="none" font-family="sans-serif" font-size="8.8pt" font-style="normal" font-weight="bold" text-decoration="normal" x="49.005609899999996" y="446.60445822199995" text-anchor="start" dominant-baseline="alphabetic" xml:space="preserve">alt</text><g><rect fill="white" stroke="none" x="102.71565498207032" y="434.84311184599994" width="151.5138880163672" height="16.988611432000003"/></g><text fill="black" stroke="none" font-family="sans-serif" font-size="8.8pt" font-style="normal" font-weight="bold" text-decoration="normal" x="105.16593547707032" y="446.60445822199995" text-anchor="start" dominant-baseline="alphabetic" xml:space="preserve">[If the input data is wrong]</text></g><g><g/><path fill="none" stroke="black" paint-order="fill stroke markers" d=" M 16.335203300000003 639.3598571619999 L 945.7050342645832 639.3598571619999 L 945.7050342645832 1529.628437012 L 16.335203300000003 1529.628437012 L 16.335203300000003 639.3598571619999 Z" stroke-miterlimit="10" stroke-width="2.3336004714285714" stroke-dasharray=""/><path fill="white" stroke="black" paint-order="fill stroke markers" d=" M 16.335203300000003 639.3598571619999 L 16.335203300000003 658.9621011219999 L 62.694406897070316 658.9621011219999 L 72.49552887707031 649.1609791419999 L 72.49552887707031 639.3598571619999 L 16.335203300000003 639.3598571619999" stroke-miterlimit="10" stroke-width="2.3336004714285714" stroke-dasharray=""/><text fill="black" stroke="none" font-family="sans-serif" font-size="8.8pt" font-style="normal" font-weight="bold" text-decoration="normal" x="32.67040660000001" y="652.4280198019999" text-anchor="start" dominant-baseline="alphabetic" xml:space="preserve">alt</text><g><rect fill="white" stroke="none" x="86.38045168207032" y="640.6666734259999" width="244.7581049353125" height="16.988611432000003"/></g><text fill="black" stroke="none" font-family="sans-serif" font-size="8.8pt" font-style="normal" font-weight="bold" text-decoration="normal" x="88.83073217707032" y="652.4280198019999" text-anchor="start" dominant-baseline="alphabetic" xml:space="preserve">[If there is required field do not have value]</text><g><path fill="none" stroke="black" paint-order="fill stroke markers" d=" M 16.335203300000003 791.277247852 L 945.7050342645832 791.277247852" stroke-miterlimit="10" stroke-width="2.3336004714285714" stroke-dasharray="4.083800825"/></g><g/><g><rect fill="white" stroke="none" x="86.38045168207032" y="792.5840641159999" width="36.84300483765625" height="16.988611432000003"/></g><text fill="black" stroke="none" font-family="sans-serif" font-size="8.8pt" font-style="normal" font-weight="bold" text-decoration="normal" x="88.83073217707032" y="804.3454104919999" text-anchor="start" dominant-baseline="alphabetic" xml:space="preserve">[Else]</text></g><g/><g><g/><path fill="none" stroke="black" paint-order="fill stroke markers" d=" M 32.6704066 1018.3365737219998 L 929.3698309645832 1018.3365737219998 L 929.3698309645832 1505.125632062 L 32.6704066 1505.125632062 L 32.6704066 1018.3365737219998 Z" stroke-miterlimit="10" stroke-width="2.3336004714285714" stroke-dasharray=""/><path fill="white" stroke="black" paint-order="fill stroke markers" d=" M 32.6704066 1018.3365737219998 L 32.6704066 1037.9388176819998 L 79.02961019707031 1037.9388176819998 L 88.83073217707032 1028.1376957019997 L 88.83073217707032 1018.3365737219998 L 32.6704066 1018.3365737219998" stroke-miterlimit="10" stroke-width="2.3336004714285714" stroke-dasharray=""/><text fill="black" stroke="none" font-family="sans-serif" font-size="8.8pt" font-style="normal" font-weight="bold" text-decoration="normal" x="49.005609899999996" y="1031.4047363619998" text-anchor="start" dominant-baseline="alphabetic" xml:space="preserve">alt</text><g><rect fill="white" stroke="none" x="102.71565498207032" y="1019.6433899859998" width="112.44639839234375" height="16.988611432000003"/></g><text fill="black" stroke="none" font-family="sans-serif" font-size="8.8pt" font-style="normal" font-weight="bold" text-decoration="normal" x="105.16593547707032" y="1031.4047363619998" text-anchor="start" dominant-baseline="alphabetic" xml:space="preserve">[If user is not exist]</text><g><path fill="none" stroke="black" paint-order="fill stroke markers" d=" M 32.6704066 1153.918761112 L 929.3698309645832 1153.918761112" stroke-miterlimit="10" stroke-width="2.3336004714285714" stroke-dasharray="4.083800825"/></g><g/><g><rect fill="white" stroke="none" x="102.71565498207032" y="1155.225577376" width="36.84300483765625" height="16.988611432000003"/></g><text fill="black" stroke="none" font-family="sans-serif" font-size="8.8pt" font-style="normal" font-weight="bold" text-decoration="normal" x="105.16593547707032" y="1166.986923752" text-anchor="start" dominant-baseline="alphabetic" xml:space="preserve">[Else]</text></g><g/></g></g></svg>