<svg version="1.1" xmlns="http://www.w3.org/2000/svg" xmlns:xlink="http://www.w3.org/1999/xlink" width="1319" height="1632"><desc>title%20Create%20Specialization%0A%0Aactor%20%23green%3A0.5%20%22Workspace%20Admin%22%20as%20w%0Aboundary%20%22FUniverse%20Admin%20Client%22%20as%20f%0Acontrol%20%22Specialization%20Controller%22%20as%20gc%0Aparticipant%20%22Major%20Service%22%20as%20ms%0Aparticipant%20%22Specialization%20Service%22%20as%20gs%0Adatabase%20%23blue%3A1%20%22Database%22%20as%20db%0A%0Aw-%3Ef%3AGo%20to%20Major%20detail%20page%0Aactivate%20f%0Aw-%3Ef%3AClick%20Edit%20icon%20in%20Specializations%20table%0Aw%3C--f%3ADisplay%20Update%20Specialization%20popup%0Aw-%3Ef%3AType%20information%20of%20Specialization%0Af-%3Ef%3AValidate%20input%20data%0Aactivate%20f%0Af--%3Ef%3A%20Validate%20value%0Adeactivate%20f%0Aalt%20If%20the%20input%20data%20is%20wrong%0Aw%3C--f%3AValidate%20Message%0Aend%0Aw-%3Ef%3A%20Click%20button%20Save%0Af-%3Egc%3APOST%3A%20%2Fapi%2Fspecialization%0Aactivate%20gc%0Aalt%20If%20there%20is%20required%20field%20do%20not%20have%20value%0Af%3C--gc%3A%3Ccolor%3A%23red%3E400%20BAD_REQUEST%3A%20%5CnMissing%20required%20property%3C%2Fcolor%3E%0Aw%3C--f%3AMessage%20is%20required%0Aelse%20Else%0A%0Agc-%3Ems%3AisExist(majorID)%0Aactivate%20ms%0Ams-%3Edb%3AexistsById(majorID)%0Aactivate%20db%0Ams%3C--db%3ABoolean%20value%0Adeactivate%20db%0Agc%3C--ms%3ABoolean%20value%0Adeactivate%20ms%0Aalt%20If%20Major%20is%20empty%0Af%3C--gc%3A%3Ccolor%3A%23red%3E404%20NOT%20FOUND%3C%2Fcolor%3E%0Aw%3C--f%3ADisplay%20404%20Not%20Found%20screen%0Aelse%20Else%0A%0Agc-%3Egs%3Asave()%0Aactivate%20gs%0Ags-%3Edb%3AUpdate%20Specialization%0Aactivate%20db%0Ags%3C--db%3ASpecialization%20data%0Adeactivate%20db%0Agc%3C--gs%3ASpecialization%20data%0Adeactivate%20gs%0Af%3C--gc%3A%3Ccolor%3A%23green%3E200%20OK%5CnResponse%20body%3A%20Specialization%20data%3C%2Fcolor%3E%0Adeactivate%20gc%0Aw%3C--f%3A%20Display%20Major%20detail%20page%20with%20%5Cnupdated%20specialization%0Adeactivate%20f%0Aend%0Aend</desc><defs/><g><g/><g/><g/><g/><g/><g/><g/><g/><g/><g/><g/><g/><g/><g/><g/><g/><g/><g/><g/><g/><g/><g/><g/><g/><g/><g/><g/><g/><g/><g/><g/><g/><g><rect fill="white" stroke="none" x="0" y="0" width="1319" height="1632"/></g><g><text fill="black" stroke="none" font-family="sans-serif" font-size="16.5pt" font-style="normal" font-weight="normal" text-decoration="normal" x="555.7168965252916" y="24.50280495" text-anchor="start" dominant-baseline="alphabetic" xml:space="preserve">Create Specialization</text></g><g/><g><path fill="none" stroke="black" paint-order="fill stroke markers" d=" M 89.84361815 129.701514202 L 89.84361815 1632.540217802" stroke-miterlimit="10" stroke-width="1.3612669416666667" stroke-dasharray="12.565541,5.445067766666667"/><path fill="none" stroke="black" paint-order="fill stroke markers" d=" M 386.8400572214193 129.701514202 L 386.8400572214193 1632.540217802" stroke-miterlimit="10" stroke-width="1.3612669416666667" stroke-dasharray="12.565541,5.445067766666667"/><path fill="none" stroke="black" paint-order="fill stroke markers" d=" M 687.9884873125651 129.701514202 L 687.9884873125651 1632.540217802" stroke-miterlimit="10" stroke-width="1.3612669416666667" stroke-dasharray="12.565541,5.445067766666667"/><path fill="none" stroke="black" paint-order="fill stroke markers" d=" M 851.3201000554687 129.701514202 L 851.3201000554687 1632.540217802" stroke-miterlimit="10" stroke-width="1.3612669416666667" stroke-dasharray="12.565541,5.445067766666667"/><path fill="none" stroke="black" paint-order="fill stroke markers" d=" M 1019.6165800145156 129.701514202 L 1019.6165800145156 1632.540217802" stroke-miterlimit="10" stroke-width="1.3612669416666667" stroke-dasharray="12.565541,5.445067766666667"/><path fill="none" stroke="black" paint-order="fill stroke markers" d=" M 1221.3161279380834 129.701514202 L 1221.3161279380834 1632.540217802" stroke-miterlimit="10" stroke-width="1.3612669416666667" stroke-dasharray="12.565541,5.445067766666667"/></g><g><g><path fill="white" stroke="green" paint-order="fill stroke markers" d=" M 99.154684031 60.60360424300001 A 9.311065881 9.311065881 0 1 1 99.15467937546744 60.594293178670846 M 89.84361815 69.91467012400001 L 89.84361815 89.84361815000001 M 78.08227177399999 77.102159576 L 101.604964526 77.102159576 M 89.84361815 89.84361815000001 L 78.08227177399999 108.465749912 M 89.84361815 89.84361815000001 L 101.604964526 108.465749912" stroke-miterlimit="10" stroke-width="1.3884922805000002" stroke-dasharray=""/></g><g><text fill="black" stroke="none" font-family="sans-serif" font-size="11pt" font-style="normal" font-weight="normal" text-decoration="normal" x="30.50219511533203" y="124.80095321200001" text-anchor="start" dominant-baseline="alphabetic" xml:space="preserve">Workspace Admin</text></g><g><path fill="white" stroke="black" paint-order="fill stroke markers" d=" M 419.2654357719193 82.819480731 A 24.2577769005 24.2577769005 0 1 1 419.26542364303185 82.79522295814245 M 355.80317095141925 57.17321154999999 L 355.80317095141925 108.465749912 M 354.4146786709193 82.819480731 L 370.74988197091926 82.819480731" stroke-miterlimit="10" stroke-width="2.7769845610000004" stroke-dasharray=""/></g><g><text fill="black" stroke="none" font-family="sans-serif" font-size="11pt" font-style="normal" font-weight="normal" text-decoration="normal" x="309.8501051340169" y="124.80095321200001" text-anchor="start" dominant-baseline="alphabetic" xml:space="preserve">FUniverse Admin Client</text></g><g><path fill="white" stroke="black" paint-order="fill stroke markers" d=" M 712.246264213065 82.819480731 A 24.2577769005 24.2577769005 0 1 1 712.2462520841776 82.79522295814245 M 684.7214466525651 58.561703830499994 L 694.522568632565 50.39410218049999 M 684.7214466525651 58.561703830499994 L 694.522568632565 66.72930548049999" stroke-miterlimit="10" stroke-width="2.7769845610000004" stroke-dasharray=""/></g><g><text fill="black" stroke="none" font-family="sans-serif" font-size="11pt" font-style="normal" font-weight="normal" text-decoration="normal" x="608.9477310869792" y="124.80095321200001" text-anchor="start" dominant-baseline="alphabetic" xml:space="preserve">Specialization Controller</text></g><path fill="none" stroke="none"/><g><path fill="white" stroke="black" paint-order="fill stroke markers" d=" M 788.7897028148125 85.75981732500001 L 913.850497296125 85.75981732500001 L 913.850497296125 129.701514202 L 788.7897028148125 129.701514202 L 788.7897028148125 85.75981732500001 Z" stroke-miterlimit="10" stroke-width="2.613632528" stroke-dasharray=""/></g><g><text fill="black" stroke="none" font-family="sans-serif" font-size="11pt" font-style="normal" font-weight="normal" text-decoration="normal" x="806.5133983953125" y="113.36631090200002" text-anchor="start" dominant-baseline="alphabetic" xml:space="preserve">Major Service</text></g><path fill="none" stroke="none"/><g><path fill="white" stroke="black" paint-order="fill stroke markers" d=" M 930.185700596125 85.75981732500001 L 1109.0474594329062 85.75981732500001 L 1109.0474594329062 129.701514202 L 930.185700596125 129.701514202 L 930.185700596125 85.75981732500001 Z" stroke-miterlimit="10" stroke-width="2.613632528" stroke-dasharray=""/></g><g><text fill="black" stroke="none" font-family="sans-serif" font-size="11pt" font-style="normal" font-weight="normal" text-decoration="normal" x="947.909396176625" y="113.36631090200002" text-anchor="start" dominant-baseline="alphabetic" xml:space="preserve">Specialization Service</text></g><g><path fill="white" stroke="blue" paint-order="fill stroke markers" d=" M 1197.4667311200833 97.684515734 L 1197.4667311200833 63.380588804000006 L 1245.1655247560834 63.380588804000006 L 1245.1655247560834 97.684515734" stroke-miterlimit="10" stroke-width="2.7769845610000004" stroke-dasharray=""/><path fill="white" stroke="blue" paint-order="fill stroke markers" d=" M 1245.1655247560834 62.1881189631 L 1245.1643322961797 62.29592950801663 L 1245.1607550357137 62.403729271968594 L 1245.1547933324082 62.51150747506936 L 1245.146447782429 62.619253339588404 L 1245.1357192203238 62.72695609102909 L 1245.12260871894 62.834604959206004 L 1245.1071175893167 62.94218917932205 L 1245.089247380554 63.04969799304486 L 1245.0689998796581 63.15712064958265 L 1245.0463771113618 63.2644464067593 L 1245.0213813379235 63.371664532088516 L 1244.9940150588995 63.47876430384712 L 1244.9642810108949 63.58573501214718 L 1244.9321821672897 63.692565960007016 L 1244.8977217379415 63.79924646442086 L 1244.8609031688648 63.90576585742718 L 1244.8217301418856 64.01211348717543 L 1244.7802065742737 64.11827871899126 L 1244.7363366183517 64.22425093643996 L 1244.6901246610785 64.3300195423881 L 1244.641575323611 64.43557396006322 L 1244.590693460843 64.54090363411153 L 1244.537484160918 64.64599803165338 L 1244.4819527447219 64.75084664333659 L 1244.42410476535 64.85543898438739 L 1244.3639460075517 64.95976459565881 L 1244.301482487153 65.06381304467668 L 1244.236720450454 65.16757392668278 L 1244.1696663736038 65.27103686567541 L 1244.1003269619548 65.37419151544687 L 1244.0287091493904 65.47702756061814 L 1243.9548200976317 65.5795347176704 L 1243.8786671955224 65.68170273597339 L 1243.8002580582897 65.7835213988104 L 1243.7196005267817 65.88498052439998 L 1243.6367026666842 65.98606996691414 L 1243.5515727677143 66.08677961749288 L 1243.464219342791 66.18709940525505 L 1243.3746511271838 66.28701929830548 L 1243.2828770776396 66.38652930473813 L 1243.1889063714873 66.48561947363528 L 1243.0927484057188 66.58427989606261 L 1242.9944127960505 66.6825007060601 L 1242.8939093759618 66.7802720816286 L 1242.7912481957105 66.87758424571203 L 1242.6864395213295 66.97442746717506 L 1242.5794938335987 67.07079206177627 L 1242.4704218269978 67.1666683931365 L 1242.3592344086364 67.2620468737025 L 1242.2459426971639 67.35691796570569 L 1242.130558021657 67.45127218211596 L 1242.0130919204869 67.54510008759026 L 1241.893556140166 67.63839229941624 L 1241.7719626341727 67.73113948845047 L 1241.6483235617563 67.82333238005134 L 1241.522651286721 67.9149617550065 L 1241.3949583761894 68.00601845045483 L 1241.2652575993466 68.09649336080267 L 1241.1335619261615 68.18637743863435 L 1240.9998845260923 68.27566169561702 L 1240.8642387667674 68.36433720339936 L 1240.7266382126495 68.45239509450451 L 1240.5870966236796 68.53982656321674 L 1240.4456279539004 68.62662286646201 L 1240.3022463500606 68.71277532468237 L 1240.1569661502012 68.79827532270376 L 1240.0098018822216 68.88311431059763 L 1239.8607682624254 68.9672838045359 L 1239.7098801940506 69.0507753876393 L 1239.5571527657783 69.13358071081912 L 1239.4026012502238 69.21569149361203 L 1239.2462411024103 69.29709952500816 L 1239.088087958222 69.37779666427225 L 1238.928157632842 69.45777484175761 L 1238.7664661191686 69.53702605971311 L 1238.6030295862192 69.61554239308303 L 1238.4378643775108 69.69331599029945 L 1238.2709870094266 69.77033907406746 L 1238.102414169564 69.84660394214286 L 1237.9321627150669 69.92210296810242 L 1237.7602496709387 69.99682860210643 L 1237.5866922283408 70.07077337165379 L 1237.4115077428723 70.14392988232913 L 1237.2347137328363 70.21629081854239 L 1237.0563278774862 70.28784894426022 L 1236.876368015259 70.35859710372968 L 1236.6948521419909 70.42852822219379 L 1236.511798409118 70.49763530659898 L 1236.327225121861 70.5659114462944 L 1236.1411507373948 70.63334981372294 L 1235.9535938630029 70.69994366510412 L 1235.7645732542162 70.76568634110825 L 1235.5741078129383 70.83057126752253 L 1235.3822165855545 70.89459195590838 L 1235.1889187610277 70.95774200425032 L 1234.9942336689792 71.02001509759614 L 1234.798180777756 71.08140500868842 L 1234.600779692484 71.14190559858717 L 1234.4020501531068 71.20151081728383 L 1234.202012032413 71.26021470430622 L 1234.000685334048 71.31801138931453 L 1233.798090190514 71.37489509268845 L 1233.5942468611563 71.43086012610503 L 1233.3891757301378 71.48590089310757 L 1233.1828973044012 71.54001188966522 L 1232.9754322116169 71.59318770472345 L 1232.7668011981211 71.64542302074504 L 1232.5570251268416 71.69671261424193 L 1232.3461249752106 71.7470513562975 L 1232.1341218330676 71.79643421307951 L 1231.92103690055 71.84485624634341 L 1231.7068914859735 71.89231261392625 L 1231.4917070037013 71.93879857023082 L 1231.2755049720022 71.9843094667002 L 1231.058307010899 72.02884075228269 L 1230.8401348400068 72.07238797388683 L 1230.6210102763614 72.11494677682676 L 1230.4009552322361 72.15651290525764 L 1230.179991712952 72.19708220260128 L 1229.958141814677 72.23665061196175 L 1229.735427722216 72.27521417653107 L 1229.5118717067926 72.31276903998494 L 1229.287496123822 72.3493114468683 L 1229.0623234106756 72.38483774297092 L 1228.8363760844372 72.41934437569277 L 1228.6096767396511 72.45282789439938 L 1228.3822480460626 72.48528495076673 L 1228.154112746352 72.51671229911628 L 1227.9252936538585 72.54710679673934 L 1227.6958136503013 72.5764654042115 L 1227.4656956834892 72.60478518569649 L 1227.2349627650271 72.63206330923974 L 1227.0036379680148 72.65829704705163 L 1226.771744424739 72.68348377578025 L 1226.5393053243608 72.70762097677371 L 1226.3063439105968 72.73070623633201 L 1226.0728834793938 72.75273724594847 L 1225.8389473766008 72.77371180254045 L 1225.604558995633 72.79362780866978 L 1225.369741775133 72.81248327275246 L 1225.1345191966273 72.83027630925778 L 1224.8989147821776 72.84700513889692 L 1224.6629520920294 72.86266808880085 L 1224.4266547222546 72.87726359268764 L 1224.1900463023935 72.89079019101906 L 1223.953150493091 72.90324653114655 L 1223.7159909837305 72.91463136744649 L 1223.4785914900654 72.9249435614447 L 1223.240975751847 72.93418208193043 L 1223.0031675304513 72.94234600505929 L 1222.7651906065023 72.94943451444577 L 1222.527068777494 72.95544690124485 L 1222.2888258554106 72.96038256422287 L 1222.0504856643463 72.96424100981763 L 1221.8120720381212 72.9670218521878 L 1221.5736088178996 72.96872481325143 L 1221.3351198498044 72.96934972271386 L 1221.096628982534 72.96889651808466 L 1220.8581600649761 72.96736524468392 L 1220.619736943824 72.96475605563768 L 1220.3813834611908 72.96106921186271 L 1220.1431234522265 72.95630508204027 L 1219.9049807427332 72.9504641425794 L 1219.6669791467834 72.94354697756918 L 1219.4291424643386 72.93555427872033 L 1219.1914944788687 72.9264868452961 L 1218.9540589549742 72.91634558403224 L 1218.7168596360095 72.90513150904647 L 1218.4799202417091 72.89284574173689 L 1218.2432644658147 72.87948951067006 L 1218.006915973707 72.86506415145789 L 1217.770898400038 72.84957110662431 L 1217.5352353463684 72.8330119254609 L 1217.2999503788074 72.81538826387197 L 1217.0650670256553 72.79670188420899 L 1216.830608775052 72.77695465509434 L 1216.596599072627 72.7561485512345 L 1216.3630613191558 72.73428565322251 L 1216.1300188682187 72.71136814732996 L 1215.8974950238671 72.68739832528833 L 1215.6655130382912 72.66237858405984 L 1215.4340961094965 72.63631142559778 L 1215.2032673789831 72.60919945659627 L 1214.9730499294315 72.58104538822961 L 1214.743466782395 72.55185203588118 L 1214.5145408959968 72.5216223188619 L 1214.2862951626348 72.49035926011825 L 1214.058752406692 72.45806598593009 L 1213.8319353822549 72.4247457255979 L 1213.6058667708362 72.39040181111994 L 1213.3805691791092 72.35503767685907 L 1213.1560651366453 72.31865685919922 L 1212.9323770936614 72.28126299619186 L 1212.7095274187755 72.24285982719209 L 1212.4875383967694 72.20345119248485 L 1212.2664322263602 72.16304103290075 L 1212.046231017981 72.12163338942209 L 1211.8269567915686 72.07923240277869 L 1211.6086314743634 72.03584231303388 L 1211.3912768987152 71.99146745916049 L 1211.1749147999 71.94611227860693 L 1210.9595668139477 71.89978130685344 L 1210.7452544754774 71.85247917695861 L 1210.5319992155444 71.80421061909601 L 1210.3198223594968 71.75498046008119 L 1210.1087451248436 71.70479362288901 L 1209.8987886191323 71.65365512616141 L 1209.6899738378384 71.60157008370541 L 1209.482321662266 71.54854370398188 L 1209.2758528574598 71.49458128958457 L 1209.0705880701282 71.43968823671 L 1208.8665478265787 71.38387003461766 L 1208.6637525306658 71.32713226508127 L 1208.4622224617501 71.26948060183051 L 1208.2619777726702 71.21092080998365 L 1208.0630384877288 71.15145874547107 L 1207.865424500688 71.0911003544497 L 1207.669155572782 71.0298516727083 L 1207.4742513307403 70.96771882506403 L 1207.2807312648242 70.90470802474988 L 1207.0886147268795 70.84082557279336 L 1206.8979209283998 70.77607785738643 L 1206.7086689386058 70.71047135324669 L 1206.5208776825389 70.64401262096986 L 1206.3345659391682 70.5767083063738 L 1206.1497523395128 70.50856513983389 L 1205.9664553647788 70.43958993560999 L 1205.7846933445105 70.36978959116503 L 1205.604484454759 70.29917108647531 L 1205.4258467162626 70.22774148333244 L 1205.2487979926468 70.1555079246372 L 1205.073355988636 70.08247763368529 L 1204.8995382482844 70.00865791344492 L 1204.7273621532215 69.9340561458266 L 1204.5568449209134 69.85867979094495 L 1204.3880036029407 69.78253638637263 L 1204.2208550832947 69.70563354638664 L 1204.0554160766883 69.62797896120689 L 1203.8917031268843 69.54958039622719 L 1203.729732605041 69.47044569123871 L 1203.5695207080755 69.39058275964601 L 1203.4110834570445 69.30999958767568 L 1203.2544366955408 69.22870423357777 L 1203.0995960881098 69.14670482681996 L 1202.9465771186835 69.06400956727457 L 1202.7953950890312 68.98062672439866 L 1202.64606511723 68.89656463640702 L 1202.4986021361524 68.8118317094384 L 1202.353020891974 68.72643641671489 L 1202.2093359426974 68.6403872976946 L 1202.0675616566982 68.55369295721772 L 1201.9277122112867 68.46636206464606 L 1201.789801591291 68.37840335299609 L 1201.653843587658 68.28982561806569 L 1201.519851796075 68.20063771755453 L 1201.3878396156092 68.11084857017835 L 1201.257820247369 68.02046715477704 L 1201.1298066931824 67.92950250941684 L 1201.0038117542986 67.83796373048648 L 1200.8798480301061 67.74585997178757 L 1200.7579279168745 67.65320044361923 L 1200.638063606513 67.55999441185705 L 1200.520267085353 67.46625119702654 L 1200.4045501329485 67.37198017337107 L 1200.2909243208985 67.27719076791445 L 1200.179401011689 67.18189245951821 L 1200.0699913575584 67.08609477793381 L 1199.9627062993807 66.98980730284956 L 1199.8575565655724 66.89303966293272 L 1199.7545526710194 66.79580153486665 L 1199.6537049160252 66.69810264238313 L 1199.555023385281 66.59995275528999 L 1199.4585179468581 66.50136168849414 L 1199.3641982512195 66.40233930102012 L 1199.2720737302566 66.30289549502413 L 1199.1821535963445 66.20304021480393 L 1199.0944468414214 66.1027834458043 L 1199.0089622360902 66.00213521361863 L 1198.9257083287398 65.90110558298623 L 1198.844693444692 65.799704656786 L 1198.7659256853672 65.69794257502603 L 1198.6894129274758 65.59582951382973 L 1198.61516282223 65.4933756844181 L 1198.5431827945783 65.3905913320887 L 1198.4734800424637 65.28748673519112 L 1198.4060615361032 65.18407220409914 L 1198.3409340172911 65.08035808017966 L 1198.2781039987253 64.97635473475869 L 1198.2175777633552 64.87207256808405 L 1198.1593613637538 64.76752200828555 L 1198.1034606215123 64.66271351033203 L 1198.0498811266589 64.55765755498592 L 1197.9986282370983 64.45236464775525 L 1197.9497070780762 64.34684531784296 L 1197.9031225416686 64.24111011709415 L 1197.8588792862895 64.13516961894075 L 1197.8169817362282 64.0290344173443 L 1197.7774340812043 63.92271512573653 L 1197.7402402759508 63.81622237595798 L 1197.7054040398168 63.70956681719489 L 1197.6729288563972 63.602759114914264 L 1197.6428179731831 63.49580994979732 L 1197.615074401238 63.38873001667144 L 1197.5897009148955 63.28153002344071 L 1197.5667000514836 63.17422069001512 L 1197.5460741110692 63.066812747238586 L 1197.527825156229 62.959316935815885 L 1197.5119550118436 62.85174400523857 L 1197.498465264914 62.74410471271006 L 1197.487357264404 62.636409822069915 L 1197.4786321211038 62.52867010271744 L 1197.4722907075209 62.4208963285348 L 1197.4683336577912 62.313099276809595 L 1197.4667613676165 62.20528972715717 L 1197.4675739942245 62.09747846044265 L 1197.470771456353 61.98967625770286 L 1197.4763534342587 61.88189389906824 L 1197.4843193697484 61.77414216268484 L 1197.4946684662352 61.66643182363649 L 1197.507399688818 61.558773652867366 L 1197.5225117643852 61.4511784161048 L 1197.5400031817417 61.34365687278283 L 1197.5598721917604 61.236219774966166 L 1197.5821168075572 61.12887786627507 L 1197.6067348046886 61.02164188081096 L 1197.6337237213756 60.91452254208302 L 1197.663080858749 60.807530561935856 L 1197.6948032811194 60.70067663947832 L 1197.7288878162713 60.593971460013606 L 1197.7653310557794 60.487425693970756 L 1197.8041293553501 60.381049995837586 L 1197.8452788351858 60.27485500309525 L 1197.8887753803729 60.16885133515453 L 1197.934614641293 60.06304959229389 L 1197.982792034058 59.95746035459945 L 1198.0333027409692 59.852094180906974 L 1198.086141710998 59.746961607746044 L 1198.141303660291 59.64207314828636 L 1198.1987830726996 59.537439291286454 L 1198.2585742003305 59.43307050004484 L 1198.3206710641205 59.32897721135367 L 1198.3850674544349 59.22516983445505 L 1198.4517569316886 59.12165875000019 L 1198.5207328269894 59.01845430901127 L 1198.5919882428052 58.91556683184637 L 1198.6655160536538 58.81300660716748 L 1198.7413089068154 58.7107838909116 L 1198.819359223068 58.60890890526517 L 1198.8996591974446 58.507391837641855 L 1198.982200800015 58.406242839663825 L 1199.066975776688 58.30547202614659 L 1199.1539756500358 58.205089474087515 L 1199.2431917201443 58.105105221658164 L 1199.3346150654802 58.00552926720046 L 1199.4282365437857 57.90637156822687 L 1199.524046792991 57.807642040424646 L 1199.6220362321505 57.709350556664305 L 1199.7221950624023 57.61150694601232 L 1199.8245132679467 57.514120992748204 L 1199.9289806170486 57.417202435386145 L 1200.03558666306 57.320760965701105 L 1200.1443207454654 57.224806227759686 L 1200.2551719909468 57.12934781695572 L 1200.368129314472 57.03439527905074 L 1200.483181420403 56.93995810921942 L 1200.6003168036252 56.84604575110002 L 1200.7195237506978 56.75266759585011 L 1200.8407903410252 56.65983298120741 L 1200.9641044480495 56.567551190555996 L 1201.0894537404631 56.47583145199805 L 1201.2168256834407 56.384682937430995 L 1201.3462075398945 56.29411476163032 L 1201.4775863717466 56.20413598133814 L 1201.6109490412232 56.1147555943575 L 1201.7462822121686 56.02598253865261 L 1201.8835723513785 55.937825691455075 L 1202.0228057299532 55.85029386837614 L 1202.163968424671 55.763395822525176 L 1202.3070463193803 55.677140243634355 L 1202.4520251064105 55.591535757189675 L 1202.5988902880038 55.50659092356846 L 1202.7476271777643 55.42231423718327 L 1202.8982209021274 55.33871412563253 L 1203.0506564018456 55.25579894885771 L 1203.2049184334965 55.1735769983074 L 1203.3609915710051 55.092056496108135 L 1203.518860207188 55.01124559424221 L 1203.6785085553129 54.93115237373246 L 1203.839920650678 54.851784843834196 L 1204.0030803522084 54.77315094123426 L 1204.16797134407 54.6952585292574 L 1204.334577137301 54.61811539707989 L 1204.5028810714607 54.54172925895067 L 1204.672866316296 54.46610775341989 L 1204.8445158734244 54.391258442575094 L 1205.0178125780326 54.317188811284986 L 1205.1927391005952 54.24390626645098 L 1205.3692779486053 54.171418136266475 L 1205.5474114683254 54.09973166948409 L 1205.7271218465519 54.028854034690774 L 1205.9083911123969 53.95879231959093 L 1206.0912011390847 53.88955353029769 L 1206.2755336457649 53.82114459063227 L 1206.4613701993405 53.753572341431656 L 1206.648692216311 53.68684353986444 L 1206.8374809646311 53.62096485875517 L 1207.0277175655829 53.55594288591707 L 1207.219382995665 53.49178412349323 L 1207.412458088494 53.42849498730643 L 1207.6069235367218 53.366081806217544 L 1207.8027598939652 53.304550821492676 L 1207.9999475767522 53.24390818617902 L 1208.1984668664784 53.18415996448957 L 1208.3982979113803 53.12531213119671 L 1208.5994207285203 53.067370571034715 L 1208.801815205784 53.01034107811134 L 1209.005461103892 52.95422935532834 L 1209.210338058425 52.89904101381123 L 1209.4164255818575 52.84478157234818 L 1209.6237030656096 52.79145645683812 L 1209.832149782105 52.73907099974815 L 1210.0417448868461 52.687630439580346 L 1210.2524674204972 52.637139920347835 L 1210.4642963109802 52.58760449106049 L 1210.6772103755827 52.53902910521993 L 1210.8911883230758 52.49141862032429 L 1211.106208755843 52.444777797382365 L 1211.3222501720202 52.399111300437596 L 1211.539290967646 52.354423696101605 L 1211.757309438821 52.3107194530976 L 1211.9762837838807 52.26800294181345 L 1212.1961921055724 52.2262784338647 L 1212.4170124132477 52.18555010166736 L 1212.6387226250592 52.14582201802072 L 1212.8613005701711 52.10709815570004 L 1213.0847239909742 52.06938238705927 L 1213.3089705453124 52.032678483643856 L 1213.5340178087174 51.996990115813546 L 1213.7598432766501 51.96232085237539 L 1213.986424366752 51.928674160226834 L 1214.2137384211032 51.89605340400906 L 1214.4417627084874 51.8644618457705 L 1214.6704744266658 51.833902644640645 L 1214.8998507046574 51.80437885651416 L 1215.1298686050254 51.775893433745246 L 1215.3605051261716 51.74844922485244 L 1215.591737204636 51.722048974233765 L 1215.8235417174035 51.69669532189228 L 1216.0558954842159 51.672390803172085 L 1216.28877526989 51.649137848504814 L 1216.5221577866416 51.626938783166544 L 1216.7560196964132 51.60579582704531 L 1216.990337613209 51.58571109441911 L 1217.2250881054326 51.56668659374447 L 1217.4602476982302 51.54872422745561 L 1217.6957928758386 51.53182579177417 L 1217.9317000839362 51.515992976529645 L 1218.167945731999 51.50122736499037 L 1218.4045061956588 51.4875304337052 L 1218.6413578190666 51.47490355235584 L 1218.878476917257 51.4633479836199 L 1219.1158397785186 51.45286488304463 L 1219.3534226667623 51.443455298931354 L 1219.5912018238978 51.43512017223063 L 1219.829153472207 51.4278603364482 L 1220.067253816724 51.42167651756158 L 1220.305479047612 51.41656933394751 L 1220.5438053425469 51.41253929632009 L 1220.782208869098 51.40958680767973 L 1221.0206657871108 51.407712163272826 L 1221.2591522510927 51.40691555056227 L 1221.4976444125957 51.40719704920866 L 1221.7361184226027 51.40855663106237 L 1221.974550433911 51.41099416016634 L 1222.2129166035184 51.414509392769695 L 1222.4511930950068 51.419101977352106 L 1222.689356080925 51.42477145465894 L 1222.9273817451738 51.431517257747196 L 1223.1652462853842 51.43933871204218 L 1223.402925915301 51.44823503540498 L 1223.6403968671589 51.45820533821068 L 1223.877635394061 51.4692486234373 L 1224.114617772352 51.48136378676553 L 1224.3513203039915 51.49454961668913 L 1224.5877193189237 51.50880479463608 L 1224.8237911774443 51.524127895100484 L 1225.059512272564 51.54051738578506 L 1225.2948590323697 51.5579716277544 L 1225.5298079223815 51.57648887559884 L 1225.7643354479064 51.59606727760904 L 1225.998418156387 51.6167048759611 L 1226.2320326397478 51.6383996069124 L 1226.465155536735 51.66114930100791 L 1226.697763535253 51.684951683297186 L 1226.929833374696 51.70980437356183 L 1227.1613418482737 51.735704886553535 L 1227.392265805331 51.76265063224257 L 1227.6225821536652 51.79063891607683 L 1227.852267861833 51.81966693925126 L 1228.0812999614554 51.849731798987726 L 1228.309655549513 51.88083048882531 L 1228.5373117906377 51.91295989892094 L 1228.7642459193944 51.94611681636038 L 1228.99043524256 51.980297925479526 L 1229.21585714139 52.01549980819594 L 1229.440489073883 52.0517189443507 L 1229.6643085770327 52.08895171206036 L 1229.8872932690751 52.127194388079175 L 1230.1094208517272 52.16644314817141 L 1230.3306691124158 52.20669406749378 L 1230.5510159264988 52.247943120987884 L 1230.7704392594787 52.29018618378274 L 1230.9889171692053 52.33341903160728 L 1231.206427808069 52.37763734121275 L 1231.4229494251879 52.422836690805035 L 1231.6384603685804 52.46901256048684 L 1231.8529390873316 52.516160332709674 L 1232.0663641337485 52.564275292735616 L 1232.2787141655044 52.613352629108746 L 1232.489967947773 52.663387434136325 L 1232.7001043553523 52.71437470437956 L 1232.9091023747765 52.7663093411539 L 1233.1169411064175 52.819186151038956 L 1233.3235997665759 52.8729998463978 L 1233.5290576895575 52.92774504590574 L 1233.7332943297415 52.983416275088445 L 1233.9362892636339 53.040007966869396 L 1234.1380221919105 53.09751446212657 L 1234.3384729414465 53.15593001025836 L 1234.5376214673342 53.21524876975863 L 1234.7354478548868 53.27546480880087 L 1234.9319323216305 53.33657210583136 L 1235.127055219282 53.3985645501713 L 1235.3207970357148 53.461435942627936 L 1235.5131383969083 53.52517999611441 L 1235.7040600688867 53.58979033627848 L 1235.893542959642 53.655260502139996 L 1236.081568121043 53.721583946736914 L 1236.2681167507299 53.78875403778004 L 1236.4531701939957 53.85676405831625 L 1236.63670994565 53.92560720740017 L 1236.8187176518707 53.995276600774254 L 1236.9991751120385 54.065765271557225 L 1237.1780642805584 54.13706617094075 L 1237.3553672686623 54.2091721688943 L 1237.531066346199 54.28207605487816 L 1237.7051439434074 54.35577053856451 L 1237.8775826526726 54.43024825056637 L 1238.0483652302676 54.50550174317461 L 1238.217474598077 54.581523491102686 L 1238.3848938453045 54.658305892239156 L 1238.5506062301654 54.73584126840789 L 1238.7145951815592 54.81412186613588 L 1238.876844300727 54.89313985742859 L 1239.0373373628927 54.97288734055273 L 1239.1960583188834 55.05335634082646 L 1239.352991296736 55.1345388114168 L 1239.5081206032835 55.21642663414435 L 1239.6614307257241 55.29901162029506 L 1239.812906333174 55.38228551143916 L 1239.962532278198 55.46623998025691 L 1240.110293598327 55.55086663137139 L 1240.2561755175514 55.63615700218803 L 1240.4001634478013 55.722102563740805 L 1240.5422429904033 55.80869472154519 L 1240.6823999375222 55.89592481645755 L 1240.8206202735794 55.98378412554111 L 1240.9568901766568 56.07226386293816 L 1241.0911960198775 56.1613551807487 L 1241.2235243727694 56.251049169915184 L 1241.353862002607 56.34133686111345 L 1241.4821958757364 56.4322092256496 L 1241.608513158877 56.52365717636293 L 1241.7328012204057 56.615671568534566 L 1241.8550476316202 56.70824320080196 L 1241.975240167981 56.80136281607904 L 1242.0933668103344 56.89502110248188 L 1242.2094157461152 56.98920869425987 L 1242.323375370526 57.083916172732344 L 1242.4352342876996 57.17913406723036 L 1242.5449813118375 57.27485285604382 L 1242.6526054683286 57.37106296737362 L 1242.758095994847 57.467754780288786 L 1242.8614423424283 57.56491862568861 L 1242.9626341765231 57.662544787269525 L 1243.061661378033 57.76062350249672 L 1243.15851404432 57.859144963580405 L 1243.2531824901985 57.95809931845658 L 1243.3456572489024 58.05747667177222 L 1243.435929073033 58.15726708587479 L 1243.5239889354834 58.257460581806065 L 1243.6098280303406 58.358047140299924 L 1243.6934377737664 58.459016702784346 L 1243.7748098048564 58.56035917238722 L 1243.8539359864753 58.66206441494605 L 1243.9308084060708 58.764122260021324 L 1244.005419376465 58.866522501913586 L 1244.077761436623 58.96925490068398 L 1244.1478273523992 59.072309183178234 L 1244.2156101172602 59.17567504405398 L 1244.2811029529862 59.279342146811274 L 1244.344299310348 59.38330012482622 L 1244.4051928697627 59.48753858238766 L 1244.463777541925 59.59204709573668 L 1244.5200474684168 59.69681521410906 L 1244.5739970222921 59.80183246078026 L 1244.6256208086402 59.907088334113126 L 1244.674913665126 60.012572308608036 L 1244.7218706625044 60.11827383595545 L 1244.7664871051154 60.22418234609071 L 1244.8087585313515 60.33028724825106 L 1244.8486807141053 60.43657793203471 L 1244.8862496611919 60.54304376846186 L 1244.921461615748 60.64967411103757 L 1244.9543130566074 60.75645829681646 L 1244.984800698653 60.86338564746893 L 1245.012921493147 60.97044547034902 L 1245.0386726280324 61.07762705956367 L 1245.0620515282174 61.184919697043256 L 1245.0830558558318 61.29231265361346 L 1245.10168351046 61.399795190068104 L 1245.1179326293523 61.50735655824312 L 1245.1318015876102 61.614986002091314 L 1245.1432889983494 61.72267275875801 L 1245.1523937128386 61.830406059657264 L 1245.1591148206137 61.93817513154877 L 1245.1634516495699 62.04596919761514 L 1245.1654037660273 62.15377747853961 M 1245.1655247560834 96.4920458931 L 1245.1643322961797 96.59985643801662 L 1245.1607550357137 96.70765620196859 L 1245.1547933324082 96.81543440506935 L 1245.146447782429 96.9231802695884 L 1245.1357192203238 97.03088302102908 L 1245.12260871894 97.138531889206 L 1245.1071175893167 97.24611610932205 L 1245.089247380554 97.35362492304485 L 1245.0689998796581 97.46104757958265 L 1245.0463771113618 97.5683733367593 L 1245.0213813379235 97.67559146208852 L 1244.9940150588995 97.78269123384712 L 1244.9642810108949 97.88966194214719 L 1244.9321821672897 97.99649289000702 L 1244.8977217379415 98.10317339442086 L 1244.8609031688648 98.20969278742717 L 1244.8217301418856 98.31604041717543 L 1244.7802065742737 98.42220564899125 L 1244.7363366183517 98.52817786643996 L 1244.6901246610785 98.6339464723881 L 1244.641575323611 98.73950089006323 L 1244.590693460843 98.84483056411152 L 1244.537484160918 98.94992496165337 L 1244.4819527447219 99.05477357333659 L 1244.42410476535 99.15936591438738 L 1244.3639460075517 99.2636915256588 L 1244.301482487153 99.36773997467667 L 1244.236720450454 99.47150085668278 L 1244.1696663736038 99.5749637956754 L 1244.1003269619548 99.67811844544686 L 1244.0287091493904 99.78095449061813 L 1243.9548200976317 99.8834616476704 L 1243.8786671955224 99.98562966597338 L 1243.8002580582897 100.08744832881038 L 1243.7196005267817 100.18890745439998 L 1243.6367026666842 100.28999689691415 L 1243.5515727677143 100.39070654749288 L 1243.464219342791 100.49102633525506 L 1243.3746511271838 100.59094622830548 L 1243.2828770776396 100.69045623473812 L 1243.1889063714873 100.78954640363527 L 1243.0927484057188 100.8882068260626 L 1242.9944127960505 100.9864276360601 L 1242.8939093759618 101.0841990116286 L 1242.7912481957105 101.18151117571202 L 1242.6864395213295 101.27835439717506 L 1242.5794938335987 101.37471899177628 L 1242.4704218269978 101.4705953231365 L 1242.3592344086364 101.56597380370249 L 1242.2459426971639 101.6608448957057 L 1242.130558021657 101.75519911211595 L 1242.0130919204869 101.84902701759025 L 1241.893556140166 101.94231922941623 L 1241.7719626341727 102.03506641845047 L 1241.6483235617563 102.12725931005133 L 1241.522651286721 102.2188886850065 L 1241.3949583761894 102.30994538045483 L 1241.2652575993466 102.40042029080266 L 1241.1335619261615 102.49030436863434 L 1240.9998845260923 102.579588625617 L 1240.8642387667674 102.66826413339936 L 1240.7266382126495 102.75632202450451 L 1240.5870966236796 102.84375349321674 L 1240.4456279539004 102.93054979646202 L 1240.3022463500606 103.01670225468237 L 1240.1569661502012 103.10220225270375 L 1240.0098018822216 103.18704124059762 L 1239.8607682624254 103.27121073453588 L 1239.7098801940506 103.3547023176393 L 1239.5571527657783 103.4375076408191 L 1239.4026012502238 103.51961842361202 L 1239.2462411024103 103.60102645500817 L 1239.088087958222 103.68172359427226 L 1238.928157632842 103.7617017717576 L 1238.7664661191686 103.84095298971312 L 1238.6030295862192 103.91946932308304 L 1238.4378643775108 103.99724292029944 L 1238.2709870094266 104.07426600406745 L 1238.102414169564 104.15053087214287 L 1237.9321627150669 104.22602989810241 L 1237.7602496709387 104.30075553210642 L 1237.5866922283408 104.37470030165377 L 1237.4115077428723 104.44785681232914 L 1237.2347137328363 104.52021774854238 L 1237.0563278774862 104.59177587426021 L 1236.876368015259 104.66252403372968 L 1236.6948521419909 104.73245515219378 L 1236.511798409118 104.80156223659897 L 1236.327225121861 104.86983837629438 L 1236.1411507373948 104.93727674372295 L 1235.9535938630029 105.0038705951041 L 1235.7645732542162 105.06961327110824 L 1235.5741078129383 105.13449819752252 L 1235.3822165855545 105.19851888590837 L 1235.1889187610277 105.26166893425032 L 1234.9942336689792 105.32394202759615 L 1234.798180777756 105.38533193868841 L 1234.600779692484 105.44583252858716 L 1234.4020501531068 105.50543774728384 L 1234.202012032413 105.56414163430621 L 1234.000685334048 105.62193831931454 L 1233.798090190514 105.67882202268845 L 1233.5942468611563 105.73478705610502 L 1233.3891757301378 105.78982782310756 L 1233.1828973044012 105.84393881966523 L 1232.9754322116169 105.89711463472344 L 1232.7668011981211 105.94934995074503 L 1232.5570251268416 106.00063954424192 L 1232.3461249752106 106.0509782862975 L 1232.1341218330676 106.1003611430795 L 1231.92103690055 106.14878317634341 L 1231.7068914859735 106.19623954392625 L 1231.4917070037013 106.2427255002308 L 1231.2755049720022 106.2882363967002 L 1231.058307010899 106.33276768228268 L 1230.8401348400068 106.37631490388682 L 1230.6210102763614 106.41887370682676 L 1230.4009552322361 106.46043983525765 L 1230.179991712952 106.50100913260128 L 1229.958141814677 106.54057754196174 L 1229.735427722216 106.57914110653107 L 1229.5118717067926 106.61669596998493 L 1229.287496123822 106.65323837686829 L 1229.0623234106756 106.6887646729709 L 1228.8363760844372 106.72327130569276 L 1228.6096767396511 106.75675482439937 L 1228.3822480460626 106.78921188076673 L 1228.154112746352 106.82063922911627 L 1227.9252936538585 106.85103372673933 L 1227.6958136503013 106.8803923342115 L 1227.4656956834892 106.90871211569649 L 1227.2349627650271 106.93599023923973 L 1227.0036379680148 106.96222397705162 L 1226.771744424739 106.98741070578025 L 1226.5393053243608 107.0115479067737 L 1226.3063439105968 107.03463316633201 L 1226.0728834793938 107.05666417594847 L 1225.8389473766008 107.07763873254045 L 1225.604558995633 107.09755473866979 L 1225.369741775133 107.11641020275246 L 1225.1345191966273 107.13420323925777 L 1224.8989147821776 107.1509320688969 L 1224.6629520920294 107.16659501880085 L 1224.4266547222546 107.18119052268763 L 1224.1900463023935 107.19471712101905 L 1223.953150493091 107.20717346114655 L 1223.7159909837305 107.21855829744648 L 1223.4785914900654 107.22887049144471 L 1223.240975751847 107.23810901193042 L 1223.0031675304513 107.24627293505928 L 1222.7651906065023 107.25336144444577 L 1222.527068777494 107.25937383124486 L 1222.2888258554106 107.26430949422287 L 1222.0504856643463 107.26816793981763 L 1221.8120720381212 107.27094878218779 L 1221.5736088178996 107.27265174325143 L 1221.3351198498044 107.27327665271386 L 1221.096628982534 107.27282344808465 L 1220.8581600649761 107.27129217468391 L 1220.619736943824 107.26868298563768 L 1220.3813834611908 107.2649961418627 L 1220.1431234522265 107.26023201204026 L 1219.9049807427332 107.2543910725794 L 1219.6669791467834 107.24747390756917 L 1219.4291424643386 107.23948120872033 L 1219.1914944788687 107.23041377529609 L 1218.9540589549742 107.22027251403225 L 1218.7168596360095 107.20905843904646 L 1218.4799202417091 107.1967726717369 L 1218.2432644658147 107.18341644067004 L 1218.006915973707 107.16899108145788 L 1217.770898400038 107.15349803662431 L 1217.5352353463684 107.1369388554609 L 1217.2999503788074 107.11931519387196 L 1217.0650670256553 107.10062881420897 L 1216.830608775052 107.08088158509435 L 1216.596599072627 107.0600754812345 L 1216.3630613191558 107.03821258322252 L 1216.1300188682187 107.01529507732995 L 1215.8974950238671 106.99132525528832 L 1215.6655130382912 106.96630551405984 L 1215.4340961094965 106.94023835559778 L 1215.2032673789831 106.91312638659626 L 1214.9730499294315 106.88497231822961 L 1214.743466782395 106.85577896588119 L 1214.5145408959968 106.8255492488619 L 1214.2862951626348 106.79428619011826 L 1214.058752406692 106.76199291593008 L 1213.8319353822549 106.72867265559789 L 1213.6058667708362 106.69432874111995 L 1213.3805691791092 106.65896460685907 L 1213.1560651366453 106.62258378919921 L 1212.9323770936614 106.58518992619184 L 1212.7095274187755 106.5467867571921 L 1212.4875383967694 106.50737812248485 L 1212.2664322263602 106.46696796290075 L 1212.046231017981 106.42556031942208 L 1211.8269567915686 106.38315933277867 L 1211.6086314743634 106.33976924303387 L 1211.3912768987152 106.29539438916049 L 1211.1749147999 106.25003920860692 L 1210.9595668139477 106.20370823685344 L 1210.7452544754774 106.15640610695861 L 1210.5319992155444 106.108137549096 L 1210.3198223594968 106.05890739008117 L 1210.1087451248436 106.00872055288902 L 1209.8987886191323 105.9575820561614 L 1209.6899738378384 105.90549701370541 L 1209.482321662266 105.85247063398188 L 1209.2758528574598 105.79850821958458 L 1209.0705880701282 105.74361516670999 L 1208.8665478265787 105.68779696461766 L 1208.6637525306658 105.63105919508126 L 1208.4622224617501 105.5734075318305 L 1208.2619777726702 105.51484773998365 L 1208.0630384877288 105.45538567547108 L 1207.865424500688 105.3950272844497 L 1207.669155572782 105.33377860270829 L 1207.4742513307403 105.27164575506403 L 1207.2807312648242 105.20863495474987 L 1207.0886147268795 105.14475250279335 L 1206.8979209283998 105.08000478738643 L 1206.7086689386058 105.01439828324668 L 1206.5208776825389 104.94793955096986 L 1206.3345659391682 104.8806352363738 L 1206.1497523395128 104.8124920698339 L 1205.9664553647788 104.74351686560999 L 1205.7846933445105 104.67371652116503 L 1205.604484454759 104.6030980164753 L 1205.4258467162626 104.53166841333243 L 1205.2487979926468 104.4594348546372 L 1205.073355988636 104.38640456368528 L 1204.8995382482844 104.31258484344491 L 1204.7273621532215 104.2379830758266 L 1204.5568449209134 104.16260672094495 L 1204.3880036029407 104.08646331637262 L 1204.2208550832947 104.00956047638662 L 1204.0554160766883 103.93190589120688 L 1203.8917031268843 103.85350732622719 L 1203.729732605041 103.77437262123871 L 1203.5695207080755 103.694509689646 L 1203.4110834570445 103.61392651767568 L 1203.2544366955408 103.53263116357778 L 1203.0995960881098 103.45063175681996 L 1202.9465771186835 103.36793649727457 L 1202.7953950890312 103.28455365439865 L 1202.64606511723 103.20049156640701 L 1202.4986021361524 103.1157586394384 L 1202.353020891974 103.03036334671489 L 1202.2093359426974 102.94431422769459 L 1202.0675616566982 102.85761988721772 L 1201.9277122112867 102.77028899464605 L 1201.789801591291 102.68233028299609 L 1201.653843587658 102.5937525480657 L 1201.519851796075 102.50456464755453 L 1201.3878396156092 102.41477550017834 L 1201.257820247369 102.32439408477703 L 1201.1298066931824 102.23342943941684 L 1201.0038117542986 102.14189066048647 L 1200.8798480301061 102.04978690178756 L 1200.7579279168745 101.95712737361922 L 1200.638063606513 101.86392134185704 L 1200.520267085353 101.77017812702654 L 1200.4045501329485 101.67590710337106 L 1200.2909243208985 101.58111769791444 L 1200.179401011689 101.48581938951821 L 1200.0699913575584 101.39002170793381 L 1199.9627062993807 101.29373423284954 L 1199.8575565655724 101.19696659293271 L 1199.7545526710194 101.09972846486664 L 1199.6537049160252 101.00202957238312 L 1199.555023385281 100.90387968528998 L 1199.4585179468581 100.80528861849413 L 1199.3641982512195 100.70626623102011 L 1199.2720737302566 100.60682242502413 L 1199.1821535963445 100.50696714480392 L 1199.0944468414214 100.40671037580431 L 1199.0089622360902 100.30606214361863 L 1198.9257083287398 100.20503251298624 L 1198.844693444692 100.103631586786 L 1198.7659256853672 100.00186950502604 L 1198.6894129274758 99.89975644382972 L 1198.61516282223 99.79730261441809 L 1198.5431827945783 99.69451826208869 L 1198.4734800424637 99.59141366519111 L 1198.4060615361032 99.48799913409913 L 1198.3409340172911 99.38428501017967 L 1198.2781039987253 99.28028166475868 L 1198.2175777633552 99.17599949808405 L 1198.1593613637538 99.07144893828554 L 1198.1034606215123 98.96664044033201 L 1198.0498811266589 98.86158448498593 L 1197.9986282370983 98.75629157775525 L 1197.9497070780762 98.65077224784297 L 1197.9031225416686 98.54503704709414 L 1197.8588792862895 98.43909654894075 L 1197.8169817362282 98.33296134734431 L 1197.7774340812043 98.22664205573652 L 1197.7402402759508 98.12014930595798 L 1197.7054040398168 98.01349374719489 L 1197.6729288563972 97.90668604491427 L 1197.6428179731831 97.79973687979731 L 1197.615074401238 97.69265694667143 L 1197.5897009148955 97.58545695344071 L 1197.5667000514836 97.47814762001512 L 1197.5460741110692 97.37073967723859 L 1197.527825156229 97.26324386581588 L 1197.5119550118436 97.15567093523856 L 1197.498465264914 97.04803164271006 L 1197.487357264404 96.94033675206991 L 1197.4786321211038 96.83259703271744 L 1197.4722907075209 96.7248232585348 L 1197.4683336577912 96.6170262068096 L 1197.4667613676165 96.50921665715717" stroke-miterlimit="10" stroke-width="2.7769845610000004" stroke-dasharray=""/></g><g><text fill="black" stroke="none" font-family="sans-serif" font-size="11pt" font-style="normal" font-weight="normal" text-decoration="normal" x="1189.9381829917943" y="124.80095321200001" text-anchor="start" dominant-baseline="alphabetic" xml:space="preserve">Database</text></g></g><g><path fill="white" stroke="black" paint-order="fill stroke markers" d=" M 378.6724555714193 183.607685092 L 395.00765887141927 183.607685092 L 395.00765887141927 1526.3613963520002 L 378.6724555714193 1526.3613963520002 L 378.6724555714193 183.607685092" stroke-miterlimit="10" stroke-width="1.3612669416666667" stroke-dasharray=""/><path fill="white" stroke="black" paint-order="fill stroke markers" d=" M 386.8400572214193 387.79772634200003 L 403.17526052141926 387.79772634200003 L 403.17526052141926 433.536295582 L 386.8400572214193 433.536295582 L 386.8400572214193 387.79772634200003" stroke-miterlimit="10" stroke-width="1.3612669416666667" stroke-dasharray=""/><path fill="white" stroke="black" paint-order="fill stroke markers" d=" M 679.820885662565 660.5956214519999 L 696.1560889625651 660.5956214519999 L 696.1560889625651 1464.2876238120002 L 679.820885662565 1464.2876238120002 L 679.820885662565 660.5956214519999" stroke-miterlimit="10" stroke-width="1.3612669416666667" stroke-dasharray=""/><path fill="white" stroke="black" paint-order="fill stroke markers" d=" M 843.1524984054687 902.356630292 L 859.4877017054688 902.356630292 L 859.4877017054688 1039.5723380119998 L 843.1524984054687 1039.5723380119998 L 843.1524984054687 902.356630292" stroke-miterlimit="10" stroke-width="1.3612669416666667" stroke-dasharray=""/><path fill="white" stroke="black" paint-order="fill stroke markers" d=" M 1213.1485262880833 948.0951995319999 L 1229.4837295880834 948.0951995319999 L 1229.4837295880834 993.8337687719999 L 1213.1485262880833 993.8337687719999 L 1213.1485262880833 948.0951995319999" stroke-miterlimit="10" stroke-width="1.3612669416666667" stroke-dasharray=""/><path fill="white" stroke="black" paint-order="fill stroke markers" d=" M 1011.4489783645156 1264.998143552 L 1027.7841816645157 1264.998143552 L 1027.7841816645157 1402.2138512720003 L 1011.4489783645156 1402.2138512720003 L 1011.4489783645156 1264.998143552" stroke-miterlimit="10" stroke-width="1.3612669416666667" stroke-dasharray=""/><path fill="white" stroke="black" paint-order="fill stroke markers" d=" M 1213.1485262880833 1310.7367127920002 L 1229.4837295880834 1310.7367127920002 L 1229.4837295880834 1356.4752820320002 L 1213.1485262880833 1356.4752820320002 L 1213.1485262880833 1310.7367127920002" stroke-miterlimit="10" stroke-width="1.3612669416666667" stroke-dasharray=""/><g><g><rect fill="white" stroke="none" x="155.6123599423698" y="162.371920802" width="157.2913538366797" height="21.23576429"/></g><text fill="black" stroke="none" font-family="sans-serif" font-size="11pt" font-style="normal" font-weight="normal" text-decoration="normal" x="158.0626404373698" y="177.07360377199998" text-anchor="start" dominant-baseline="alphabetic" xml:space="preserve">Go to Major detail page</text></g><g><path fill="none" stroke="black" paint-order="fill stroke markers" d=" M 89.84361815 183.607685092 L 365.2231381877526 183.607685092" stroke-miterlimit="10" stroke-width="1.3612669416666667" stroke-dasharray=""/><g transform="translate(378.6724555714193,183.607685092) translate(-378.6724555714193,-183.607685092)"><path fill="black" stroke="none" paint-order="stroke fill markers" d=" M 365.0597861547526 176.80135038366666 L 378.6724555714193 183.607685092 L 365.0597861547526 190.41401980033334 Z"/></g></g><g><g><rect fill="white" stroke="none" x="109.17360872166667" y="208.110490042" width="250.16885627808594" height="21.23576429"/></g><text fill="black" stroke="none" font-family="sans-serif" font-size="11pt" font-style="normal" font-weight="normal" text-decoration="normal" x="111.62388921666667" y="222.812173012" text-anchor="start" dominant-baseline="alphabetic" xml:space="preserve">Click Edit icon in Specializations table</text></g><g><path fill="none" stroke="black" paint-order="fill stroke markers" d=" M 89.84361815 229.346254332 L 365.2231381877526 229.346254332" stroke-miterlimit="10" stroke-width="1.3612669416666667" stroke-dasharray=""/><g transform="translate(378.6724555714193,229.346254332) translate(-378.6724555714193,-229.346254332)"><path fill="black" stroke="none" paint-order="stroke fill markers" d=" M 365.0597861547526 222.53991962366666 L 378.6724555714193 229.346254332 L 365.0597861547526 236.15258904033334 Z"/></g></g><g><g><rect fill="white" stroke="none" x="112.41625398533854" y="253.849059282" width="243.6835657507422" height="21.23576429"/></g><text fill="black" stroke="none" font-family="sans-serif" font-size="11pt" font-style="normal" font-weight="normal" text-decoration="normal" x="114.86653448033854" y="268.550742252" text-anchor="start" dominant-baseline="alphabetic" xml:space="preserve">Display Update Specialization popup</text></g><g><path fill="none" stroke="black" paint-order="fill stroke markers" d=" M 378.6724555714193 275.084823572 L 103.29293553366666 275.084823572" stroke-miterlimit="10" stroke-width="1.3612669416666667" stroke-dasharray="6.53408132"/><g transform="translate(89.84361815,275.084823572) translate(-89.84361815,-275.084823572)"><path fill="black" stroke="none" paint-order="stroke fill markers" d=" M 103.45628756666666 268.27848886366667 L 89.84361815 275.084823572 L 103.45628756666666 281.89115828033334 Z"/></g></g><g><g><rect fill="white" stroke="none" x="122.2050876035026" y="299.587628522" width="224.10589851441406" height="21.23576429"/></g><text fill="black" stroke="none" font-family="sans-serif" font-size="11pt" font-style="normal" font-weight="normal" text-decoration="normal" x="124.6553680985026" y="314.28931149199997" text-anchor="start" dominant-baseline="alphabetic" xml:space="preserve">Type information of Specialization</text></g><g><path fill="none" stroke="black" paint-order="fill stroke markers" d=" M 89.84361815 320.823392812 L 365.2231381877526 320.823392812" stroke-miterlimit="10" stroke-width="1.3612669416666667" stroke-dasharray=""/><g transform="translate(378.6724555714193,320.823392812) translate(-378.6724555714193,-320.823392812)"><path fill="black" stroke="none" paint-order="stroke fill markers" d=" M 365.0597861547526 314.01705810366667 L 378.6724555714193 320.823392812 L 365.0597861547526 327.62972752033335 Z"/></g></g><g><g><rect fill="white" stroke="none" x="422.5052510930859" y="345.32619776200005" width="125.25842536988281" height="21.23576429"/></g><text fill="black" stroke="none" font-family="sans-serif" font-size="11pt" font-style="normal" font-weight="normal" text-decoration="normal" x="424.95553158808593" y="360.027880732" text-anchor="start" dominant-baseline="alphabetic" xml:space="preserve">Validate input data</text></g><g><path fill="none" stroke="black" paint-order="fill stroke markers" d=" M 395.00765887141927 366.561962052 L 468.5160737214193 366.561962052 L 468.5160737214193 387.79772634200003 L 416.6245779050859 387.79772634200003" stroke-miterlimit="10" stroke-width="1.3612669416666667" stroke-dasharray=""/><g transform="translate(403.17526052141926,387.79772634200003) translate(-403.17526052141926,-387.79772634200003)"><path fill="black" stroke="none" paint-order="stroke fill markers" d=" M 416.78792993808594 380.9913916336667 L 403.17526052141926 387.79772634200003 L 416.78792993808594 394.60406105033337 Z"/></g></g><g><g><rect fill="white" stroke="none" x="422.5052510930859" y="412.300531292" width="95.90982307496094" height="21.23576429"/></g><text fill="black" stroke="none" font-family="sans-serif" font-size="11pt" font-style="normal" font-weight="normal" text-decoration="normal" x="424.95553158808593" y="427.002214262" text-anchor="start" dominant-baseline="alphabetic" xml:space="preserve">Validate value</text></g><g><path fill="none" stroke="black" paint-order="fill stroke markers" d=" M 403.17526052141926 433.536295582 L 468.5160737214193 433.536295582 L 468.5160737214193 454.772059872 L 408.4569762550859 454.772059872" stroke-miterlimit="10" stroke-width="1.3612669416666667" stroke-dasharray="6.53408132"/><g transform="translate(395.00765887141927,454.772059872) translate(-395.00765887141927,-454.772059872)"><path fill="black" stroke="none" paint-order="stroke fill markers" d=" M 408.62032828808594 447.96572516366666 L 395.00765887141927 454.772059872 L 408.62032828808594 461.57839458033334 Z"/></g></g><g><g><rect fill="white" stroke="none" x="174.084085406237" y="523.379913732" width="120.34790290894531" height="21.23576429"/></g><text fill="black" stroke="none" font-family="sans-serif" font-size="11pt" font-style="normal" font-weight="normal" text-decoration="normal" x="176.53436590123698" y="538.081596702" text-anchor="start" dominant-baseline="alphabetic" xml:space="preserve">Validate Message</text></g><g><path fill="none" stroke="black" paint-order="fill stroke markers" d=" M 378.6724555714193 544.615678022 L 103.29293553366666 544.615678022" stroke-miterlimit="10" stroke-width="1.3612669416666667" stroke-dasharray="6.53408132"/><g transform="translate(89.84361815,544.615678022) translate(-89.84361815,-544.615678022)"><path fill="black" stroke="none" paint-order="stroke fill markers" d=" M 103.45628756666666 537.8093433136667 L 89.84361815 544.615678022 L 103.45628756666666 551.4220127303333 Z"/></g></g><g><g><rect fill="white" stroke="none" x="174.76769441502606" y="593.621287922" width="118.98068489136719" height="21.23576429"/></g><text fill="black" stroke="none" font-family="sans-serif" font-size="11pt" font-style="normal" font-weight="normal" text-decoration="normal" x="177.21797491002604" y="608.322970892" text-anchor="start" dominant-baseline="alphabetic" xml:space="preserve">Click button Save</text></g><g><path fill="none" stroke="black" paint-order="fill stroke markers" d=" M 89.84361815 614.857052212 L 365.2231381877526 614.857052212" stroke-miterlimit="10" stroke-width="1.3612669416666667" stroke-dasharray=""/><g transform="translate(378.6724555714193,614.857052212) translate(-378.6724555714193,-614.857052212)"><path fill="black" stroke="none" paint-order="stroke fill markers" d=" M 365.0597861547526 608.0507175036666 L 378.6724555714193 614.857052212 L 365.0597861547526 621.6633869203333 Z"/></g></g><g><g><rect fill="white" stroke="none" x="453.8867136347851" y="639.3598571619999" width="167.05511726441406" height="21.23576429"/></g><text fill="black" stroke="none" font-family="sans-serif" font-size="11pt" font-style="normal" font-weight="normal" text-decoration="normal" x="456.3369941297851" y="654.0615401319999" text-anchor="start" dominant-baseline="alphabetic" xml:space="preserve">POST: /api/specialization</text></g><g><path fill="none" stroke="black" paint-order="fill stroke markers" d=" M 395.00765887141927 660.5956214519999 L 666.3715682788984 660.5956214519999" stroke-miterlimit="10" stroke-width="1.3612669416666667" stroke-dasharray=""/><g transform="translate(679.820885662565,660.5956214519999) translate(-679.820885662565,-660.5956214519999)"><path fill="black" stroke="none" paint-order="stroke fill markers" d=" M 666.2082162458984 653.7892867436666 L 679.820885662565 660.5956214519999 L 666.2082162458984 667.4019561603333 Z"/></g></g><g><g><rect fill="white" stroke="none" x="452.26182044630855" y="729.203475312" width="149.11673225464844" height="21.23576429"/></g><g><rect fill="white" stroke="none" x="452.26182044630855" y="745.538678612" width="170.3049036413672" height="21.23576429"/></g><text fill="red" stroke="none" font-family="sans-serif" font-size="11pt" font-style="normal" font-weight="normal" text-decoration="normal" x="454.71210094130856" y="743.905158282" text-anchor="start" dominant-baseline="alphabetic" xml:space="preserve">400 BAD_REQUEST: </text><text fill="red" stroke="none" font-family="sans-serif" font-size="11pt" font-style="normal" font-weight="normal" text-decoration="normal" x="454.71210094130856" y="760.240361582" text-anchor="start" dominant-baseline="alphabetic" xml:space="preserve">Missing required property</text></g><g><path fill="none" stroke="black" paint-order="fill stroke markers" d=" M 679.820885662565 766.774442902 L 408.4569762550859 766.774442902" stroke-miterlimit="10" stroke-width="1.3612669416666667" stroke-dasharray="6.53408132"/><g transform="translate(395.00765887141927,766.774442902) translate(-395.00765887141927,-766.774442902)"><path fill="black" stroke="none" paint-order="stroke fill markers" d=" M 408.62032828808594 759.9681081936667 L 395.00765887141927 766.774442902 L 408.62032828808594 773.5807776103334 Z"/></g></g><g><g><rect fill="white" stroke="none" x="165.8056430234245" y="791.277247852" width="136.90478767457031" height="21.23576429"/></g><text fill="black" stroke="none" font-family="sans-serif" font-size="11pt" font-style="normal" font-weight="normal" text-decoration="normal" x="168.25592351842448" y="805.9789308219999" text-anchor="start" dominant-baseline="alphabetic" xml:space="preserve">Message is required</text></g><g><path fill="none" stroke="black" paint-order="fill stroke markers" d=" M 378.6724555714193 812.513012142 L 103.29293553366666 812.513012142" stroke-miterlimit="10" stroke-width="1.3612669416666667" stroke-dasharray="6.53408132"/><g transform="translate(89.84361815,812.513012142) translate(-89.84361815,-812.513012142)"><path fill="black" stroke="none" paint-order="stroke fill markers" d=" M 103.45628756666666 805.7066774336666 L 89.84361815 812.513012142 L 103.45628756666666 819.3193468503333 Z"/></g></g><g><g><rect fill="white" stroke="none" x="715.4860795342317" y="881.120866002" width="108.33642829957031" height="21.23576429"/></g><text fill="black" stroke="none" font-family="sans-serif" font-size="11pt" font-style="normal" font-weight="normal" text-decoration="normal" x="717.9363600292318" y="895.8225489719999" text-anchor="start" dominant-baseline="alphabetic" xml:space="preserve">isExist(majorID)</text></g><g><path fill="none" stroke="black" paint-order="fill stroke markers" d=" M 696.1560889625651 902.356630292 L 829.703181021802 902.356630292" stroke-miterlimit="10" stroke-width="1.3612669416666667" stroke-dasharray=""/><g transform="translate(843.1524984054687,902.356630292) translate(-843.1524984054687,-902.356630292)"><path fill="black" stroke="none" paint-order="stroke fill markers" d=" M 829.539828988802 895.5502955836666 L 843.1524984054687 902.356630292 L 829.539828988802 909.1629650003333 Z"/></g></g><g><g><rect fill="white" stroke="none" x="969.9237035579283" y="926.8594352419999" width="132.78882087769531" height="21.23576429"/></g><text fill="black" stroke="none" font-family="sans-serif" font-size="11pt" font-style="normal" font-weight="normal" text-decoration="normal" x="972.3739840529283" y="941.5611182119999" text-anchor="start" dominant-baseline="alphabetic" xml:space="preserve">existsById(majorID)</text></g><g><path fill="none" stroke="black" paint-order="fill stroke markers" d=" M 859.4877017054688 948.0951995319999 L 1199.6992089044165 948.0951995319999" stroke-miterlimit="10" stroke-width="1.3612669416666667" stroke-dasharray=""/><g transform="translate(1213.1485262880833,948.0951995319999) translate(-1213.1485262880833,-948.0951995319999)"><path fill="black" stroke="none" paint-order="stroke fill markers" d=" M 1199.5358568714166 941.2888648236666 L 1213.1485262880833 948.0951995319999 L 1199.5358568714166 954.9015342403333 Z"/></g></g><g><g><rect fill="white" stroke="none" x="987.4075826472838" y="972.5980044819999" width="97.82106269898438" height="21.23576429"/></g><text fill="black" stroke="none" font-family="sans-serif" font-size="11pt" font-style="normal" font-weight="normal" text-decoration="normal" x="989.8578631422838" y="987.2996874519998" text-anchor="start" dominant-baseline="alphabetic" xml:space="preserve">Boolean value</text></g><g><path fill="none" stroke="black" paint-order="fill stroke markers" d=" M 1213.1485262880833 993.8337687719999 L 872.9370190891354 993.8337687719999" stroke-miterlimit="10" stroke-width="1.3612669416666667" stroke-dasharray="6.53408132"/><g transform="translate(859.4877017054688,993.8337687719999) translate(-859.4877017054688,-993.8337687719999)"><path fill="black" stroke="none" paint-order="stroke fill markers" d=" M 873.1003711221355 987.0274340636665 L 859.4877017054688 993.8337687719999 L 873.1003711221355 1000.6401034803332 Z"/></g></g><g><g><rect fill="white" stroke="none" x="720.7437623345247" y="1018.3365737219998" width="97.82106269898438" height="21.23576429"/></g><text fill="black" stroke="none" font-family="sans-serif" font-size="11pt" font-style="normal" font-weight="normal" text-decoration="normal" x="723.1940428295247" y="1033.0382566919998" text-anchor="start" dominant-baseline="alphabetic" xml:space="preserve">Boolean value</text></g><g><path fill="none" stroke="black" paint-order="fill stroke markers" d=" M 843.1524984054687 1039.5723380119998 L 709.6054063462318 1039.5723380119998" stroke-miterlimit="10" stroke-width="1.3612669416666667" stroke-dasharray="6.53408132"/><g transform="translate(696.1560889625651,1039.5723380119998) translate(-696.1560889625651,-1039.5723380119998)"><path fill="black" stroke="none" paint-order="stroke fill markers" d=" M 709.7687583792318 1032.7660033036666 L 696.1560889625651 1039.5723380119998 L 709.7687583792318 1046.378672720333 Z"/></g></g><g><g><rect fill="white" stroke="none" x="477.12932838087886" y="1108.180191872" width="120.56988777222656" height="21.23576429"/></g><text fill="red" stroke="none" font-family="sans-serif" font-size="11pt" font-style="normal" font-weight="normal" text-decoration="normal" x="479.5796088758789" y="1122.8818748420001" text-anchor="start" dominant-baseline="alphabetic" xml:space="preserve">404 NOT FOUND</text></g><g><path fill="none" stroke="black" paint-order="fill stroke markers" d=" M 679.820885662565 1129.415956162 L 408.4569762550859 1129.415956162" stroke-miterlimit="10" stroke-width="1.3612669416666667" stroke-dasharray="6.53408132"/><g transform="translate(395.00765887141927,1129.415956162) translate(-395.00765887141927,-1129.415956162)"><path fill="black" stroke="none" paint-order="stroke fill markers" d=" M 408.62032828808594 1122.6096214536667 L 395.00765887141927 1129.415956162 L 408.62032828808594 1136.2222908703332 Z"/></g></g><g><g><rect fill="white" stroke="none" x="133.20721620457684" y="1153.918761112" width="202.10164131226563" height="21.23576429"/></g><text fill="black" stroke="none" font-family="sans-serif" font-size="11pt" font-style="normal" font-weight="normal" text-decoration="normal" x="135.65749669957682" y="1168.6204440820002" text-anchor="start" dominant-baseline="alphabetic" xml:space="preserve">Display 404 Not Found screen</text></g><g><path fill="none" stroke="black" paint-order="fill stroke markers" d=" M 378.6724555714193 1175.154525402 L 103.29293553366666 1175.154525402" stroke-miterlimit="10" stroke-width="1.3612669416666667" stroke-dasharray="6.53408132"/><g transform="translate(89.84361815,1175.154525402) translate(-89.84361815,-1175.154525402)"><path fill="black" stroke="none" paint-order="stroke fill markers" d=" M 103.45628756666666 1168.3481906936668 L 89.84361815 1175.154525402 L 103.45628756666666 1181.9608601103332 Z"/></g></g><g><g><rect fill="white" stroke="none" x="830.987201899009" y="1243.7623792620002" width="45.6306635290625" height="21.23576429"/></g><text fill="black" stroke="none" font-family="sans-serif" font-size="11pt" font-style="normal" font-weight="normal" text-decoration="normal" x="833.4374823940091" y="1258.4640622320003" text-anchor="start" dominant-baseline="alphabetic" xml:space="preserve">save()</text></g><g><path fill="none" stroke="black" paint-order="fill stroke markers" d=" M 696.1560889625651 1264.998143552 L 997.999660980849 1264.998143552" stroke-miterlimit="10" stroke-width="1.3612669416666667" stroke-dasharray=""/><g transform="translate(1011.4489783645156,1264.998143552) translate(-1011.4489783645156,-1264.998143552)"><path fill="black" stroke="none" paint-order="stroke fill markers" d=" M 997.8363089478489 1258.1918088436669 L 1011.4489783645156 1264.998143552 L 997.8363089478489 1271.8044782603333 Z"/></g></g><g><g><rect fill="white" stroke="none" x="1047.1141722361824" y="1289.5009485020003" width="146.70436348023438" height="21.23576429"/></g><text fill="black" stroke="none" font-family="sans-serif" font-size="11pt" font-style="normal" font-weight="normal" text-decoration="normal" x="1049.5644527311824" y="1304.2026314720003" text-anchor="start" dominant-baseline="alphabetic" xml:space="preserve">Update Specialization</text></g><g><path fill="none" stroke="black" paint-order="fill stroke markers" d=" M 1027.7841816645157 1310.7367127920002 L 1199.6992089044165 1310.7367127920002" stroke-miterlimit="10" stroke-width="1.3612669416666667" stroke-dasharray=""/><g transform="translate(1213.1485262880833,1310.7367127920002) translate(-1213.1485262880833,-1310.7367127920002)"><path fill="black" stroke="none" paint-order="stroke fill markers" d=" M 1199.5358568714166 1303.930378083667 L 1213.1485262880833 1310.7367127920002 L 1199.5358568714166 1317.5430475003334 Z"/></g></g><g><g><rect fill="white" stroke="none" x="1056.4842512767098" y="1335.2395177420003" width="127.96420539917969" height="21.23576429"/></g><text fill="black" stroke="none" font-family="sans-serif" font-size="11pt" font-style="normal" font-weight="normal" text-decoration="normal" x="1058.9345317717098" y="1349.9412007120004" text-anchor="start" dominant-baseline="alphabetic" xml:space="preserve">Specialization data</text></g><g><path fill="none" stroke="black" paint-order="fill stroke markers" d=" M 1213.1485262880833 1356.4752820320002 L 1041.2334990481825 1356.4752820320002" stroke-miterlimit="10" stroke-width="1.3612669416666667" stroke-dasharray="6.53408132"/><g transform="translate(1027.7841816645157,1356.4752820320002) translate(-1027.7841816645157,-1356.4752820320002)"><path fill="black" stroke="none" paint-order="stroke fill markers" d=" M 1041.3968510811824 1349.668947323667 L 1027.7841816645157 1356.4752820320002 L 1041.3968510811824 1363.2816167403334 Z"/></g></g><g><g><rect fill="white" stroke="none" x="789.8204309639505" y="1380.9780869820004" width="127.96420539917969" height="21.23576429"/></g><text fill="black" stroke="none" font-family="sans-serif" font-size="11pt" font-style="normal" font-weight="normal" text-decoration="normal" x="792.2707114589505" y="1395.6797699520005" text-anchor="start" dominant-baseline="alphabetic" xml:space="preserve">Specialization data</text></g><g><path fill="none" stroke="black" paint-order="fill stroke markers" d=" M 1011.4489783645156 1402.2138512720003 L 709.6054063462318 1402.2138512720003" stroke-miterlimit="10" stroke-width="1.3612669416666667" stroke-dasharray="6.53408132"/><g transform="translate(696.1560889625651,1402.2138512720003) translate(-696.1560889625651,-1402.2138512720003)"><path fill="black" stroke="none" paint-order="stroke fill markers" d=" M 709.7687583792318 1395.407516563667 L 696.1560889625651 1402.2138512720003 L 709.7687583792318 1409.0201859803335 Z"/></g></g><g><g><rect fill="white" stroke="none" x="418.4214502680859" y="1426.7166562220002" width="54.61422981324219" height="21.23576429"/></g><g><rect fill="white" stroke="none" x="418.4214502680859" y="1443.0518595220003" width="237.9856439978125" height="21.23576429"/></g><text fill="green" stroke="none" font-family="sans-serif" font-size="11pt" font-style="normal" font-weight="normal" text-decoration="normal" x="420.8717307630859" y="1441.4183391920003" text-anchor="start" dominant-baseline="alphabetic" xml:space="preserve">200 OK</text><text fill="green" stroke="none" font-family="sans-serif" font-size="11pt" font-style="normal" font-weight="normal" text-decoration="normal" x="420.8717307630859" y="1457.7535424920004" text-anchor="start" dominant-baseline="alphabetic" xml:space="preserve">Response body: Specialization data</text></g><g><path fill="none" stroke="black" paint-order="fill stroke markers" d=" M 679.820885662565 1464.2876238120002 L 408.4569762550859 1464.2876238120002" stroke-miterlimit="10" stroke-width="1.3612669416666667" stroke-dasharray="6.53408132"/><g transform="translate(395.00765887141927,1464.2876238120002) translate(-395.00765887141927,-1464.2876238120002)"><path fill="black" stroke="none" paint-order="stroke fill markers" d=" M 408.62032828808594 1457.481289103667 L 395.00765887141927 1464.2876238120002 L 408.62032828808594 1471.0939585203334 Z"/></g></g><g><g><rect fill="white" stroke="none" x="132.3983477963737" y="1488.7904287620001" width="203.71937812867188" height="21.23576429"/></g><g><rect fill="white" stroke="none" x="132.3983477963737" y="1505.1256320620002" width="149.97564949097656" height="21.23576429"/></g><text fill="black" stroke="none" font-family="sans-serif" font-size="11pt" font-style="normal" font-weight="normal" text-decoration="normal" x="134.8486282913737" y="1503.4921117320002" text-anchor="start" dominant-baseline="alphabetic" xml:space="preserve">Display Major detail page with </text><text fill="black" stroke="none" font-family="sans-serif" font-size="11pt" font-style="normal" font-weight="normal" text-decoration="normal" x="134.8486282913737" y="1519.8273150320003" text-anchor="start" dominant-baseline="alphabetic" xml:space="preserve">updated specialization</text></g><g><path fill="none" stroke="black" paint-order="fill stroke markers" d=" M 378.6724555714193 1526.3613963520002 L 103.29293553366666 1526.3613963520002" stroke-miterlimit="10" stroke-width="1.3612669416666667" stroke-dasharray="6.53408132"/><g transform="translate(89.84361815,1526.3613963520002) translate(-89.84361815,-1526.3613963520002)"><path fill="black" stroke="none" paint-order="stroke fill markers" d=" M 103.45628756666666 1519.555061643667 L 89.84361815 1526.3613963520002 L 103.45628756666666 1533.1677310603334 Z"/></g></g><g><g/><path fill="none" stroke="black" paint-order="fill stroke markers" d=" M 32.6704066 479.274864822 L 444.0132687714193 479.274864822 L 444.0132687714193 569.118482972 L 32.6704066 569.118482972 L 32.6704066 479.274864822 Z" stroke-miterlimit="10" stroke-width="2.3336004714285714" stroke-dasharray=""/><path fill="white" stroke="black" paint-order="fill stroke markers" d=" M 32.6704066 479.274864822 L 32.6704066 498.877108782 L 79.02961019707031 498.877108782 L 88.83073217707032 489.075986802 L 88.83073217707032 479.274864822 L 32.6704066 479.274864822" stroke-miterlimit="10" stroke-width="2.3336004714285714" stroke-dasharray=""/><text fill="black" stroke="none" font-family="sans-serif" font-size="8.8pt" font-style="normal" font-weight="bold" text-decoration="normal" x="49.005609899999996" y="492.343027462" text-anchor="start" dominant-baseline="alphabetic" xml:space="preserve">alt</text><g><rect fill="white" stroke="none" x="102.71565498207032" y="480.581681086" width="151.5138880163672" height="16.988611432000003"/></g><text fill="black" stroke="none" font-family="sans-serif" font-size="8.8pt" font-style="normal" font-weight="bold" text-decoration="normal" x="105.16593547707032" y="492.343027462" text-anchor="start" dominant-baseline="alphabetic" xml:space="preserve">[If the input data is wrong]</text></g><g><g/><path fill="none" stroke="black" paint-order="fill stroke markers" d=" M 16.335203300000003 685.098426402 L 1294.8245427880834 685.098426402 L 1294.8245427880834 1575.367006252 L 16.335203300000003 1575.367006252 L 16.335203300000003 685.098426402 Z" stroke-miterlimit="10" stroke-width="2.3336004714285714" stroke-dasharray=""/><path fill="white" stroke="black" paint-order="fill stroke markers" d=" M 16.335203300000003 685.098426402 L 16.335203300000003 704.700670362 L 62.694406897070316 704.700670362 L 72.49552887707031 694.8995483819999 L 72.49552887707031 685.098426402 L 16.335203300000003 685.098426402" stroke-miterlimit="10" stroke-width="2.3336004714285714" stroke-dasharray=""/><text fill="black" stroke="none" font-family="sans-serif" font-size="8.8pt" font-style="normal" font-weight="bold" text-decoration="normal" x="32.67040660000001" y="698.1665890419999" text-anchor="start" dominant-baseline="alphabetic" xml:space="preserve">alt</text><g><rect fill="white" stroke="none" x="86.38045168207032" y="686.4052426659999" width="244.7581049353125" height="16.988611432000003"/></g><text fill="black" stroke="none" font-family="sans-serif" font-size="8.8pt" font-style="normal" font-weight="bold" text-decoration="normal" x="88.83073217707032" y="698.1665890419999" text-anchor="start" dominant-baseline="alphabetic" xml:space="preserve">[If there is required field do not have value]</text><g><path fill="none" stroke="black" paint-order="fill stroke markers" d=" M 16.335203300000003 837.015817092 L 1294.8245427880834 837.015817092" stroke-miterlimit="10" stroke-width="2.3336004714285714" stroke-dasharray="4.083800825"/></g><g/><g><rect fill="white" stroke="none" x="86.38045168207032" y="838.322633356" width="36.84300483765625" height="16.988611432000003"/></g><text fill="black" stroke="none" font-family="sans-serif" font-size="8.8pt" font-style="normal" font-weight="bold" text-decoration="normal" x="88.83073217707032" y="850.083979732" text-anchor="start" dominant-baseline="alphabetic" xml:space="preserve">[Else]</text></g><g/><g><g/><path fill="none" stroke="black" paint-order="fill stroke markers" d=" M 32.6704066 1064.075142962 L 1278.4893394880833 1064.075142962 L 1278.4893394880833 1550.864201302 L 32.6704066 1550.864201302 L 32.6704066 1064.075142962 Z" stroke-miterlimit="10" stroke-width="2.3336004714285714" stroke-dasharray=""/><path fill="white" stroke="black" paint-order="fill stroke markers" d=" M 32.6704066 1064.075142962 L 32.6704066 1083.6773869219999 L 79.02961019707031 1083.6773869219999 L 88.83073217707032 1073.876264942 L 88.83073217707032 1064.075142962 L 32.6704066 1064.075142962" stroke-miterlimit="10" stroke-width="2.3336004714285714" stroke-dasharray=""/><text fill="black" stroke="none" font-family="sans-serif" font-size="8.8pt" font-style="normal" font-weight="bold" text-decoration="normal" x="49.005609899999996" y="1077.1433056019998" text-anchor="start" dominant-baseline="alphabetic" xml:space="preserve">alt</text><g><rect fill="white" stroke="none" x="102.71565498207032" y="1065.381959226" width="105.26980842652344" height="16.988611432000003"/></g><text fill="black" stroke="none" font-family="sans-serif" font-size="8.8pt" font-style="normal" font-weight="bold" text-decoration="normal" x="105.16593547707032" y="1077.1433056019998" text-anchor="start" dominant-baseline="alphabetic" xml:space="preserve">[If Major is empty]</text><g><path fill="none" stroke="black" paint-order="fill stroke markers" d=" M 32.6704066 1199.6573303520001 L 1278.4893394880833 1199.6573303520001" stroke-miterlimit="10" stroke-width="2.3336004714285714" stroke-dasharray="4.083800825"/></g><g/><g><rect fill="white" stroke="none" x="102.71565498207032" y="1200.964146616" width="36.84300483765625" height="16.988611432000003"/></g><text fill="black" stroke="none" font-family="sans-serif" font-size="8.8pt" font-style="normal" font-weight="bold" text-decoration="normal" x="105.16593547707032" y="1212.725492992" text-anchor="start" dominant-baseline="alphabetic" xml:space="preserve">[Else]</text></g><g/></g></g></svg>