<svg version="1.1" xmlns="http://www.w3.org/2000/svg" xmlns:xlink="http://www.w3.org/1999/xlink" width="861" height="781"><desc>title%20Get%20User%20information%0A%0A%0Aactor%20%23green%3A0.5%20%22Workspace%20User%22%20as%20w%0Aboundary%20%22Account%20detail%20page%22%20as%20f%0Acontrol%20%22User%20Controller%22%20as%20gc%0Aparticipant%20%22User%20Service%22%20as%20gs%0Adatabase%20%23blue%3A1%20%22Database%22%20as%20db%0A%0Aw-%3Ef%3AGo%20to%20Account%20detail%20page%0Aactivate%20f%0Af-%3Egc%3AGET%3A%20%2Fapi%2Fuser%2F%7Bid%7D%0Aactivate%20gc%0Agc-%3Egs%3Aget(id)%0Aactivate%20gs%0Ags-%3Edb%3AfindById(id)%0Aactivate%20db%0Ags%3C--db%3AUser%20data%0Adeactivate%20db%0Agc%3C--gs%3AUser%20data%0Adeactivate%20gs%0Aalt%20If%20no%20User%20matches%20id%0Af%3C--gc%3A%3Ccolor%3A%23red%3E404%20NOT%20FOUND%3C%2Fcolor%3E%0A%0Aw%3C--f%3A%20Display%20404%20Not%20Found%20screen%0Aelse%20Else%0Af%3C--gc%3A%3Ccolor%3A%23green%3E200%20OK%5CnResponse%20body%3A%20User%20data%20%3C%2Fcolor%3E%0Adeactivate%20gc%0A%0Aw%3C--f%3A%20Display%20User%20detail%20information%0Adeactivate%20f%0Aend</desc><defs/><g><g/><g/><g/><g/><g/><g/><g/><g/><g/><g/><g/><g/><g/><g/><g/><g/><g><rect fill="white" stroke="none" x="0" y="0" width="861" height="781"/></g><g><text fill="black" stroke="none" font-family="sans-serif" font-size="16.5pt" font-style="normal" font-weight="normal" text-decoration="normal" x="329.40252653302343" y="24.50280495" text-anchor="start" dominant-baseline="alphabetic" xml:space="preserve">Get User information</text></g><g/><g><path fill="none" stroke="black" paint-order="fill stroke markers" d=" M 73.50841485 129.701514202 L 73.50841485 781.476125872" stroke-miterlimit="10" stroke-width="1.3612669416666667" stroke-dasharray="12.565541,5.445067766666667"/><path fill="none" stroke="black" paint-order="fill stroke markers" d=" M 324.0410477690755 129.701514202 L 324.0410477690755 781.476125872" stroke-miterlimit="10" stroke-width="1.3612669416666667" stroke-dasharray="12.565541,5.445067766666667"/><path fill="none" stroke="black" paint-order="fill stroke markers" d=" M 561.5888470354166 129.701514202 L 561.5888470354166 781.476125872" stroke-miterlimit="10" stroke-width="1.3612669416666667" stroke-dasharray="12.565541,5.445067766666667"/><path fill="none" stroke="black" paint-order="fill stroke markers" d=" M 686.8896434989244 129.701514202 L 686.8896434989244 781.476125872" stroke-miterlimit="10" stroke-width="1.3612669416666667" stroke-dasharray="12.565541,5.445067766666667"/><path fill="none" stroke="black" paint-order="fill stroke markers" d=" M 820.9299354410468 129.701514202 L 820.9299354410468 781.476125872" stroke-miterlimit="10" stroke-width="1.3612669416666667" stroke-dasharray="12.565541,5.445067766666667"/></g><g><g><path fill="white" stroke="green" paint-order="fill stroke markers" d=" M 82.819480731 60.60360424300001 A 9.311065881 9.311065881 0 1 1 82.81947607546743 60.594293178670846 M 73.50841485 69.91467012400001 L 73.50841485 89.84361815000001 M 61.747068473999995 77.102159576 L 85.26976122599999 77.102159576 M 73.50841485 89.84361815000001 L 61.747068473999995 108.465749912 M 73.50841485 89.84361815000001 L 85.26976122599999 108.465749912" stroke-miterlimit="10" stroke-width="1.3884922805000002" stroke-dasharray=""/></g><g><text fill="black" stroke="none" font-family="sans-serif" font-size="11pt" font-style="normal" font-weight="normal" text-decoration="normal" x="19.467635736230463" y="124.80095321200001" text-anchor="start" dominant-baseline="alphabetic" xml:space="preserve">Workspace User</text></g><g><path fill="white" stroke="black" paint-order="fill stroke markers" d=" M 356.4664263195755 82.819480731 A 24.2577769005 24.2577769005 0 1 1 356.46641419068806 82.79522295814245 M 293.00416149907545 57.17321154999999 L 293.00416149907545 108.465749912 M 291.6156692185755 82.819480731 L 307.95087251857547 82.819480731" stroke-miterlimit="10" stroke-width="2.7769845610000004" stroke-dasharray=""/></g><g><text fill="black" stroke="none" font-family="sans-serif" font-size="11pt" font-style="normal" font-weight="normal" text-decoration="normal" x="259.65310068655594" y="124.80095321200001" text-anchor="start" dominant-baseline="alphabetic" xml:space="preserve">Account detail page</text></g><g><path fill="white" stroke="black" paint-order="fill stroke markers" d=" M 585.8466239359166 82.819480731 A 24.2577769005 24.2577769005 0 1 1 585.8466118070291 82.79522295814245 M 558.3218063754166 58.561703830499994 L 568.1229283554165 50.39410218049999 M 558.3218063754166 58.561703830499994 L 568.1229283554165 66.72930548049999" stroke-miterlimit="10" stroke-width="2.7769845610000004" stroke-dasharray=""/></g><g><text fill="black" stroke="none" font-family="sans-serif" font-size="11pt" font-style="normal" font-weight="normal" text-decoration="normal" x="512.3011120500651" y="124.80095321200001" text-anchor="start" dominant-baseline="alphabetic" xml:space="preserve">User Controller</text></g><path fill="none" stroke="none"/><g><path fill="white" stroke="black" paint-order="fill stroke markers" d=" M 627.2117853207682 85.75981732500001 L 746.5675016770807 85.75981732500001 L 746.5675016770807 129.701514202 L 627.2117853207682 129.701514202 L 627.2117853207682 85.75981732500001 Z" stroke-miterlimit="10" stroke-width="2.613632528" stroke-dasharray=""/></g><g><text fill="black" stroke="none" font-family="sans-serif" font-size="11pt" font-style="normal" font-weight="normal" text-decoration="normal" x="644.9354809012682" y="113.36631090200002" text-anchor="start" dominant-baseline="alphabetic" xml:space="preserve">User Service</text></g><g><path fill="white" stroke="blue" paint-order="fill stroke markers" d=" M 797.0805386230469 97.684515734 L 797.0805386230469 63.380588804000006 L 844.7793322590468 63.380588804000006 L 844.7793322590468 97.684515734" stroke-miterlimit="10" stroke-width="2.7769845610000004" stroke-dasharray=""/><path fill="white" stroke="blue" paint-order="fill stroke markers" d=" M 844.7793322590468 62.1881189631 L 844.7781397991431 62.29592950801663 L 844.7745625386771 62.403729271968594 L 844.7686008353718 62.51150747506936 L 844.7602552853924 62.619253339588404 L 844.7495267232872 62.72695609102909 L 844.7364162219034 62.834604959206004 L 844.7209250922801 62.94218917932205 L 844.7030548835176 63.04969799304486 L 844.6828073826215 63.15712064958265 L 844.6601846143253 63.2644464067593 L 844.6351888408869 63.371664532088516 L 844.6078225618629 63.47876430384712 L 844.5780885138583 63.58573501214718 L 844.5459896702532 63.692565960007016 L 844.5115292409051 63.79924646442086 L 844.4747106718283 63.90576585742718 L 844.435537644849 64.01211348717543 L 844.3940140772372 64.11827871899126 L 844.3501441213152 64.22425093643996 L 844.3039321640418 64.3300195423881 L 844.2553828265745 64.43557396006322 L 844.2045009638065 64.54090363411153 L 844.1512916638816 64.64599803165338 L 844.0957602476853 64.75084664333659 L 844.0379122683133 64.85543898438739 L 843.9777535105152 64.95976459565881 L 843.9152899901165 65.06381304467668 L 843.8505279534173 65.16757392668278 L 843.7834738765673 65.27103686567541 L 843.7141344649184 65.37419151544687 L 843.6425166523537 65.47702756061814 L 843.568627600595 65.5795347176704 L 843.492474698486 65.68170273597339 L 843.4140655612532 65.7835213988104 L 843.3334080297451 65.88498052439998 L 843.2505101696477 65.98606996691414 L 843.1653802706778 66.08677961749288 L 843.0780268457544 66.18709940525505 L 842.9884586301472 66.28701929830548 L 842.8966845806032 66.38652930473813 L 842.8027138744508 66.48561947363528 L 842.7065559086822 66.58427989606261 L 842.6082202990141 66.6825007060601 L 842.5077168789253 66.7802720816286 L 842.4050556986741 66.87758424571203 L 842.3002470242931 66.97442746717506 L 842.1933013365622 67.07079206177627 L 842.0842293299612 67.1666683931365 L 841.9730419115999 67.2620468737025 L 841.8597502001273 67.35691796570569 L 841.7443655246204 67.45127218211596 L 841.6268994234504 67.54510008759026 L 841.5073636431295 67.63839229941624 L 841.3857701371362 67.73113948845047 L 841.2621310647198 67.82333238005134 L 841.1364587896844 67.9149617550065 L 841.008765879153 68.00601845045483 L 840.8790651023099 68.09649336080267 L 840.747369429125 68.18637743863435 L 840.6136920290558 68.27566169561702 L 840.4780462697308 68.36433720339936 L 840.340445715613 68.45239509450451 L 840.2009041266431 68.53982656321674 L 840.0594354568638 68.62662286646201 L 839.916053853024 68.71277532468237 L 839.7707736531648 68.79827532270376 L 839.623609385185 68.88311431059763 L 839.4745757653889 68.9672838045359 L 839.323687697014 69.0507753876393 L 839.1709602687416 69.13358071081912 L 839.0164087531873 69.21569149361203 L 838.8600486053739 69.29709952500816 L 838.7018954611856 69.37779666427225 L 838.5419651358053 69.45777484175761 L 838.3802736221321 69.53702605971311 L 838.2168370891828 69.61554239308303 L 838.0516718804743 69.69331599029945 L 837.8847945123899 69.77033907406746 L 837.7162216725275 69.84660394214286 L 837.5459702180303 69.92210296810242 L 837.3740571739022 69.99682860210643 L 837.2004997313041 70.07077337165379 L 837.0253152458358 70.14392988232913 L 836.8485212357998 70.21629081854239 L 836.6701353804498 70.28784894426022 L 836.4901755182225 70.35859710372968 L 836.3086596449544 70.42852822219379 L 836.1256059120815 70.49763530659898 L 835.9410326248245 70.5659114462944 L 835.7549582403583 70.63334981372294 L 835.5674013659664 70.69994366510412 L 835.3783807571797 70.76568634110825 L 835.1879153159018 70.83057126752253 L 834.996024088518 70.89459195590838 L 834.8027262639912 70.95774200425032 L 834.6080411719427 71.02001509759614 L 834.4119882807195 71.08140500868842 L 834.2145871954473 71.14190559858717 L 834.0158576560702 71.20151081728383 L 833.8158195353765 71.26021470430622 L 833.6144928370115 71.31801138931453 L 833.4118976934775 71.37489509268845 L 833.2080543641197 71.43086012610503 L 833.0029832331014 71.48590089310757 L 832.7967048073647 71.54001188966522 L 832.5892397145803 71.59318770472345 L 832.3806087010846 71.64542302074504 L 832.1708326298052 71.69671261424193 L 831.9599324781742 71.7470513562975 L 831.7479293360311 71.79643421307951 L 831.5348444035135 71.84485624634341 L 831.3206989889371 71.89231261392625 L 831.1055145066648 71.93879857023082 L 830.8893124749655 71.9843094667002 L 830.6721145138624 72.02884075228269 L 830.4539423429704 72.07238797388683 L 830.2348177793249 72.11494677682676 L 830.0147627351995 72.15651290525764 L 829.7937992159154 72.19708220260128 L 829.5719493176405 72.23665061196175 L 829.3492352251794 72.27521417653107 L 829.125679209756 72.31276903998494 L 828.9013036267855 72.3493114468683 L 828.6761309136392 72.38483774297092 L 828.4501835874008 72.41934437569277 L 828.2234842426146 72.45282789439938 L 827.9960555490262 72.48528495076673 L 827.7679202493154 72.51671229911628 L 827.5391011568221 72.54710679673934 L 827.3096211532647 72.5764654042115 L 827.0795031864527 72.60478518569649 L 826.8487702679906 72.63206330923974 L 826.6174454709783 72.65829704705163 L 826.3855519277024 72.68348377578025 L 826.1531128273243 72.70762097677371 L 825.9201514135602 72.73070623633201 L 825.6866909823573 72.75273724594847 L 825.4527548795643 72.77371180254045 L 825.2183664985963 72.79362780866978 L 824.9835492780963 72.81248327275246 L 824.7483266995907 72.83027630925778 L 824.5127222851411 72.84700513889692 L 824.2767595949928 72.86266808880085 L 824.0404622252181 72.87726359268764 L 823.8038538053571 72.89079019101906 L 823.5669579960545 72.90324653114655 L 823.329798486694 72.91463136744649 L 823.0923989930288 72.9249435614447 L 822.8547832548104 72.93418208193043 L 822.6169750334147 72.94234600505929 L 822.3789981094657 72.94943451444577 L 822.1408762804573 72.95544690124485 L 821.9026333583741 72.96038256422287 L 821.6642931673098 72.96424100981763 L 821.4258795410848 72.9670218521878 L 821.187416320863 72.96872481325143 L 820.9489273527679 72.96934972271386 L 820.7104364854973 72.96889651808466 L 820.4719675679395 72.96736524468392 L 820.2335444467873 72.96475605563768 L 819.9951909641543 72.96106921186271 L 819.7569309551899 72.95630508204027 L 819.5187882456967 72.9504641425794 L 819.280786649747 72.94354697756918 L 819.0429499673022 72.93555427872033 L 818.8053019818323 72.9264868452961 L 818.5678664579377 72.91634558403224 L 818.330667138973 72.90513150904647 L 818.0937277446726 72.89284574173689 L 817.8570719687783 72.87948951067006 L 817.6207234766705 72.86506415145789 L 817.3847059030014 72.84957110662431 L 817.1490428493319 72.8330119254609 L 816.9137578817707 72.81538826387197 L 816.6788745286187 72.79670188420899 L 816.4444162780154 72.77695465509434 L 816.2104065755906 72.7561485512345 L 815.9768688221192 72.73428565322251 L 815.7438263711823 72.71136814732996 L 815.5113025268306 72.68739832528833 L 815.2793205412547 72.66237858405984 L 815.0479036124601 72.63631142559778 L 814.8170748819466 72.60919945659627 L 814.586857432395 72.58104538822961 L 814.3572742853585 72.55185203588118 L 814.1283483989602 72.5216223188619 L 813.9001026655982 72.49035926011825 L 813.6725599096555 72.45806598593009 L 813.4457428852182 72.4247457255979 L 813.2196742737998 72.39040181111994 L 812.9943766820728 72.35503767685907 L 812.7698726396087 72.31865685919922 L 812.5461845966248 72.28126299619186 L 812.3233349217389 72.24285982719209 L 812.1013458997328 72.20345119248485 L 811.8802397293238 72.16304103290075 L 811.6600385209443 72.12163338942209 L 811.4407642945322 72.07923240277869 L 811.222438977327 72.03584231303388 L 811.0050844016786 71.99146745916049 L 810.7887223028636 71.94611227860693 L 810.5733743169112 71.89978130685344 L 810.359061978441 71.85247917695861 L 810.1458067185079 71.80421061909601 L 809.9336298624604 71.75498046008119 L 809.7225526278071 71.70479362288901 L 809.5125961220957 71.65365512616141 L 809.3037813408018 71.60157008370541 L 809.0961291652295 71.54854370398188 L 808.8896603604234 71.49458128958457 L 808.6843955730917 71.43968823671 L 808.4803553295422 71.38387003461766 L 808.2775600336292 71.32713226508127 L 808.0760299647135 71.26948060183051 L 807.8757852756338 71.21092080998365 L 807.6768459906922 71.15145874547107 L 807.4792320036514 71.0911003544497 L 807.2829630757456 71.0298516727083 L 807.0880588337037 70.96771882506403 L 806.8945387677878 70.90470802474988 L 806.702422229843 70.84082557279336 L 806.5117284313633 70.77607785738643 L 806.3224764415693 70.71047135324669 L 806.1346851855023 70.64401262096986 L 805.9483734421317 70.5767083063738 L 805.7635598424763 70.50856513983389 L 805.5802628677422 70.43958993560999 L 805.398500847474 70.36978959116503 L 805.2182919577225 70.29917108647531 L 805.0396542192262 70.22774148333244 L 804.8626054956103 70.1555079246372 L 804.6871634915994 70.08247763368529 L 804.513345751248 70.00865791344492 L 804.3411696561851 69.9340561458266 L 804.1706524238767 69.85867979094495 L 804.0018111059042 69.78253638637263 L 803.8346625862582 69.70563354638664 L 803.6692235796519 69.62797896120689 L 803.5055106298477 69.54958039622719 L 803.3435401080044 69.47044569123871 L 803.1833282110391 69.39058275964601 L 803.024890960008 69.30999958767568 L 802.8682441985042 69.22870423357777 L 802.7134035910733 69.14670482681996 L 802.560384621647 69.06400956727457 L 802.4092025919947 68.98062672439866 L 802.2598726201934 68.89656463640702 L 802.1124096391159 68.8118317094384 L 801.9668283949374 68.72643641671489 L 801.8231434456609 68.6403872976946 L 801.6813691596617 68.55369295721772 L 801.5415197142503 68.46636206464606 L 801.4036090942545 68.37840335299609 L 801.2676510906215 68.28982561806569 L 801.1336592990384 68.20063771755453 L 801.0016471185727 68.11084857017835 L 800.8716277503323 68.02046715477704 L 800.7436141961458 67.92950250941684 L 800.6176192572619 67.83796373048648 L 800.4936555330696 67.74585997178757 L 800.3717354198379 67.65320044361923 L 800.2518711094765 67.55999441185705 L 800.1340745883166 67.46625119702654 L 800.0183576359121 67.37198017337107 L 799.9047318238619 67.27719076791445 L 799.7932085146525 67.18189245951821 L 799.6837988605218 67.08609477793381 L 799.5765138023442 66.98980730284956 L 799.4713640685359 66.89303966293272 L 799.3683601739829 66.79580153486665 L 799.2675124189885 66.69810264238313 L 799.1688308882444 66.59995275528999 L 799.0723254498215 66.50136168849414 L 798.9780057541831 66.40233930102012 L 798.8858812332201 66.30289549502413 L 798.7959610993079 66.20304021480393 L 798.708254344385 66.1027834458043 L 798.6227697390536 66.00213521361863 L 798.5395158317034 65.90110558298623 L 798.4585009476554 65.799704656786 L 798.3797331883305 65.69794257502603 L 798.3032204304393 65.59582951382973 L 798.2289703251935 65.4933756844181 L 798.1569902975419 65.3905913320887 L 798.0872875454272 65.28748673519112 L 798.0198690390667 65.18407220409914 L 797.9547415202547 65.08035808017966 L 797.8919115016888 64.97635473475869 L 797.8313852663186 64.87207256808405 L 797.7731688667171 64.76752200828555 L 797.7172681244759 64.66271351033203 L 797.6636886296225 64.55765755498592 L 797.6124357400616 64.45236464775525 L 797.5635145810398 64.34684531784296 L 797.516930044632 64.24111011709415 L 797.4726867892531 64.13516961894075 L 797.4307892391917 64.0290344173443 L 797.3912415841679 63.92271512573653 L 797.3540477789143 63.81622237595798 L 797.3192115427804 63.70956681719489 L 797.2867363593607 63.602759114914264 L 797.2566254761467 63.49580994979732 L 797.2288819042014 63.38873001667144 L 797.2035084178591 63.28153002344071 L 797.1805075544471 63.17422069001512 L 797.1598816140327 63.066812747238586 L 797.1416326591925 62.959316935815885 L 797.1257625148071 62.85174400523857 L 797.1122727678776 62.74410471271006 L 797.1011647673673 62.636409822069915 L 797.0924396240673 62.52867010271744 L 797.0860982104844 62.4208963285348 L 797.0821411607548 62.313099276809595 L 797.08056887058 62.20528972715717 L 797.081381497188 62.09747846044265 L 797.0845789593166 61.98967625770286 L 797.0901609372222 61.88189389906824 L 797.0981268727119 61.77414216268484 L 797.1084759691986 61.66643182363649 L 797.1212071917814 61.558773652867366 L 797.1363192673485 61.4511784161048 L 797.1538106847051 61.34365687278283 L 797.1736796947239 61.236219774966166 L 797.1959243105206 61.12887786627507 L 797.2205423076521 61.02164188081096 L 797.247531224339 60.91452254208302 L 797.2768883617124 60.807530561935856 L 797.3086107840829 60.70067663947832 L 797.3426953192348 60.593971460013606 L 797.3791385587429 60.487425693970756 L 797.4179368583136 60.381049995837586 L 797.4590863381493 60.27485500309525 L 797.5025828833363 60.16885133515453 L 797.5484221442564 60.06304959229389 L 797.5965995370216 59.95746035459945 L 797.6471102439328 59.852094180906974 L 797.6999492139614 59.746961607746044 L 797.7551111632546 59.64207314828636 L 797.8125905756632 59.537439291286454 L 797.872381703294 59.43307050004484 L 797.9344785670838 59.32897721135367 L 797.9988749573984 59.22516983445505 L 798.0655644346522 59.12165875000019 L 798.134540329953 59.01845430901127 L 798.2057957457688 58.91556683184637 L 798.2793235566174 58.81300660716748 L 798.355116409779 58.7107838909116 L 798.4331667260315 58.60890890526517 L 798.5134667004082 58.507391837641855 L 798.5960083029786 58.406242839663825 L 798.6807832796513 58.30547202614659 L 798.7677831529993 58.205089474087515 L 798.8569992231077 58.105105221658164 L 798.9484225684438 58.00552926720046 L 799.0420440467493 57.90637156822687 L 799.1378542959543 57.807642040424646 L 799.2358437351139 57.709350556664305 L 799.3360025653658 57.61150694601232 L 799.4383207709103 57.514120992748204 L 799.5427881200121 57.417202435386145 L 799.6493941660236 57.320760965701105 L 799.7581282484289 57.224806227759686 L 799.8689794939102 57.12934781695572 L 799.9819368174356 57.03439527905074 L 800.0969889233667 56.93995810921942 L 800.2141243065888 56.84604575110002 L 800.3333312536612 56.75266759585011 L 800.4545978439886 56.65983298120741 L 800.577911951013 56.567551190555996 L 800.7032612434265 56.47583145199805 L 800.8306331864042 56.384682937430995 L 800.960015042858 56.29411476163032 L 801.0913938747101 56.20413598133814 L 801.2247565441867 56.1147555943575 L 801.3600897151321 56.02598253865261 L 801.497379854342 55.937825691455075 L 801.6366132329167 55.85029386837614 L 801.7777759276346 55.763395822525176 L 801.9208538223437 55.677140243634355 L 802.0658326093738 55.591535757189675 L 802.2126977909671 55.50659092356846 L 802.3614346807278 55.42231423718327 L 802.5120284050907 55.33871412563253 L 802.6644639048092 55.25579894885771 L 802.8187259364599 55.1735769983074 L 802.9747990739686 55.092056496108135 L 803.1326677101514 55.01124559424221 L 803.2923160582764 54.93115237373246 L 803.4537281536415 54.851784843834196 L 803.616887855172 54.77315094123426 L 803.7817788470335 54.6952585292574 L 803.9483846402644 54.61811539707989 L 804.1166885744242 54.54172925895067 L 804.2866738192595 54.46610775341989 L 804.4583233763877 54.391258442575094 L 804.6316200809962 54.317188811284986 L 804.8065466035587 54.24390626645098 L 804.9830854515689 54.171418136266475 L 805.1612189712889 54.09973166948409 L 805.3409293495155 54.028854034690774 L 805.5221986153604 53.95879231959093 L 805.705008642048 53.88955353029769 L 805.8893411487282 53.82114459063227 L 806.075177702304 53.753572341431656 L 806.2624997192746 53.68684353986444 L 806.4512884675945 53.62096485875517 L 806.6415250685463 53.55594288591707 L 806.8331904986285 53.49178412349323 L 807.0262655914576 53.42849498730643 L 807.2207310396852 53.366081806217544 L 807.4165673969288 53.304550821492676 L 807.6137550797156 53.24390818617902 L 807.8122743694419 53.18415996448957 L 808.0121054143439 53.12531213119671 L 808.2132282314836 53.067370571034715 L 808.4156227087473 53.01034107811134 L 808.6192686068556 52.95422935532834 L 808.8241455613884 52.89904101381123 L 809.030233084821 52.84478157234818 L 809.2375105685729 52.79145645683812 L 809.4459572850684 52.73907099974815 L 809.6555523898096 52.687630439580346 L 809.8662749234605 52.637139920347835 L 810.0781038139436 52.58760449106049 L 810.2910178785462 52.53902910521993 L 810.5049958260394 52.49141862032429 L 810.7200162588066 52.444777797382365 L 810.9360576749838 52.399111300437596 L 811.1530984706093 52.354423696101605 L 811.3711169417846 52.3107194530976 L 811.5900912868442 52.26800294181345 L 811.8099996085359 52.2262784338647 L 812.0308199162112 52.18555010166736 L 812.2525301280228 52.14582201802072 L 812.4751080731347 52.10709815570004 L 812.6985314939377 52.06938238705927 L 812.9227780482759 52.032678483643856 L 813.1478253116808 51.996990115813546 L 813.3736507796135 51.96232085237539 L 813.6002318697156 51.928674160226834 L 813.8275459240667 51.89605340400906 L 814.0555702114508 51.8644618457705 L 814.2842819296293 51.833902644640645 L 814.5136582076209 51.80437885651416 L 814.743676107989 51.775893433745246 L 814.9743126291352 51.74844922485244 L 815.2055447075995 51.722048974233765 L 815.4373492203669 51.69669532189228 L 815.6697029871792 51.672390803172085 L 815.9025827728534 51.649137848504814 L 816.135965289605 51.626938783166544 L 816.3698271993768 51.60579582704531 L 816.6041451161726 51.58571109441911 L 816.8388956083961 51.56668659374447 L 817.0740552011937 51.54872422745561 L 817.3096003788021 51.53182579177417 L 817.5455075868997 51.515992976529645 L 817.7817532349625 51.50122736499037 L 818.0183136986223 51.4875304337052 L 818.25516532203 51.47490355235584 L 818.4922844202207 51.4633479836199 L 818.7296472814821 51.45286488304463 L 818.9672301697259 51.443455298931354 L 819.2050093268612 51.43512017223063 L 819.4429609751705 51.4278603364482 L 819.6810613196873 51.42167651756158 L 819.9192865505754 51.41656933394751 L 820.1576128455105 51.41253929632009 L 820.3960163720615 51.40958680767973 L 820.6344732900743 51.407712163272826 L 820.8729597540562 51.40691555056227 L 821.1114519155592 51.40719704920866 L 821.349925925566 51.40855663106237 L 821.5883579368744 51.41099416016634 L 821.826724106482 51.414509392769695 L 822.0650005979702 51.419101977352106 L 822.3031635838887 51.42477145465894 L 822.5411892481372 51.431517257747196 L 822.7790537883477 51.43933871204218 L 823.0167334182644 51.44823503540498 L 823.2542043701225 51.45820533821068 L 823.4914428970244 51.4692486234373 L 823.7284252753153 51.48136378676553 L 823.9651278069549 51.49454961668913 L 824.2015268218872 51.50880479463608 L 824.4375986804079 51.524127895100484 L 824.6733197755275 51.54051738578506 L 824.9086665353332 51.5579716277544 L 825.143615425345 51.57648887559884 L 825.3781429508698 51.59606727760904 L 825.6122256593505 51.6167048759611 L 825.8458401427113 51.6383996069124 L 826.0789630396984 51.66114930100791 L 826.3115710382165 51.684951683297186 L 826.5436408776595 51.70980437356183 L 826.775149351237 51.735704886553535 L 827.0060733082945 51.76265063224257 L 827.2363896566287 51.79063891607683 L 827.4660753647967 51.81966693925126 L 827.695107464419 51.849731798987726 L 827.9234630524767 51.88083048882531 L 828.1511192936011 51.91295989892094 L 828.3780534223579 51.94611681636038 L 828.6042427455233 51.980297925479526 L 828.8296646443536 52.01549980819594 L 829.0542965768465 52.0517189443507 L 829.2781160799962 52.08895171206036 L 829.5011007720387 52.127194388079175 L 829.7232283546907 52.16644314817141 L 829.9444766153792 52.20669406749378 L 830.1648234294623 52.247943120987884 L 830.3842467624422 52.29018618378274 L 830.6027246721686 52.33341903160728 L 830.8202353110325 52.37763734121275 L 831.0367569281514 52.422836690805035 L 831.2522678715437 52.46901256048684 L 831.466746590295 52.516160332709674 L 831.680171636712 52.564275292735616 L 831.8925216684679 52.613352629108746 L 832.1037754507366 52.663387434136325 L 832.3139118583158 52.71437470437956 L 832.5229098777398 52.7663093411539 L 832.7307486093811 52.819186151038956 L 832.9374072695393 52.8729998463978 L 833.1428651925211 52.92774504590574 L 833.347101832705 52.983416275088445 L 833.5500967665973 53.040007966869396 L 833.7518296948739 53.09751446212657 L 833.95228044441 53.15593001025836 L 834.1514289702976 53.21524876975863 L 834.3492553578502 53.27546480880087 L 834.5457398245939 53.33657210583136 L 834.7408627222457 53.3985645501713 L 834.9346045386784 53.461435942627936 L 835.1269458998718 53.52517999611441 L 835.3178675718502 53.58979033627848 L 835.5073504626054 53.655260502139996 L 835.6953756240063 53.721583946736914 L 835.8819242536933 53.78875403778004 L 836.066977696959 53.85676405831625 L 836.2505174486133 53.92560720740017 L 836.432525154834 53.995276600774254 L 836.6129826150021 54.065765271557225 L 836.791871783522 54.13706617094075 L 836.9691747716257 54.2091721688943 L 837.1448738491625 54.28207605487816 L 837.3189514463709 54.35577053856451 L 837.4913901556362 54.43024825056637 L 837.6621727332312 54.50550174317461 L 837.8312821010404 54.581523491102686 L 837.998701348268 54.658305892239156 L 838.1644137331289 54.73584126840789 L 838.3284026845225 54.81412186613588 L 838.4906518036905 54.89313985742859 L 838.6511448658562 54.97288734055273 L 838.809865821847 55.05335634082646 L 838.9667987996995 55.1345388114168 L 839.1219281062469 55.21642663414435 L 839.2752382286877 55.29901162029506 L 839.4267138361374 55.38228551143916 L 839.5763397811616 55.46623998025691 L 839.7241011012903 55.55086663137139 L 839.8699830205148 55.63615700218803 L 840.0139709507647 55.722102563740805 L 840.1560504933669 55.80869472154519 L 840.2962074404857 55.89592481645755 L 840.4344277765429 55.98378412554111 L 840.5706976796203 56.07226386293816 L 840.705003522841 56.1613551807487 L 840.8373318757328 56.251049169915184 L 840.9676695055705 56.34133686111345 L 841.0960033786998 56.4322092256496 L 841.2223206618405 56.52365717636293 L 841.3466087233692 56.615671568534566 L 841.4688551345836 56.70824320080196 L 841.5890476709443 56.80136281607904 L 841.707174313298 56.89502110248188 L 841.8232232490786 56.98920869425987 L 841.9371828734895 57.083916172732344 L 842.0490417906632 57.17913406723036 L 842.158788814801 57.27485285604382 L 842.2664129712922 57.37106296737362 L 842.3719034978106 57.467754780288786 L 842.4752498453917 57.56491862568861 L 842.5764416794866 57.662544787269525 L 842.6754688809965 57.76062350249672 L 842.7723215472835 57.859144963580405 L 842.8669899931618 57.95809931845658 L 842.9594647518658 58.05747667177222 L 843.0497365759966 58.15726708587479 L 843.1377964384469 58.257460581806065 L 843.223635533304 58.358047140299924 L 843.30724527673 58.459016702784346 L 843.3886173078199 58.56035917238722 L 843.4677434894388 58.66206441494605 L 843.5446159090343 58.764122260021324 L 843.6192268794284 58.866522501913586 L 843.6915689395864 58.96925490068398 L 843.7616348553627 59.072309183178234 L 843.8294176202237 59.17567504405398 L 843.8949104559497 59.279342146811274 L 843.9581068133116 59.38330012482622 L 844.0190003727263 59.48753858238766 L 844.0775850448887 59.59204709573668 L 844.1338549713803 59.69681521410906 L 844.1878045252555 59.80183246078026 L 844.2394283116038 59.907088334113126 L 844.2887211680894 60.012572308608036 L 844.335678165468 60.11827383595545 L 844.3802946080789 60.22418234609071 L 844.422566034315 60.33028724825106 L 844.4624882170688 60.43657793203471 L 844.5000571641555 60.54304376846186 L 844.5352691187114 60.64967411103757 L 844.5681205595708 60.75645829681646 L 844.5986082016167 60.86338564746893 L 844.6267289961104 60.97044547034902 L 844.6524801309957 61.07762705956367 L 844.675859031181 61.184919697043256 L 844.6968633587952 61.29231265361346 L 844.7154910134235 61.399795190068104 L 844.7317401323157 61.50735655824312 L 844.7456090905737 61.614986002091314 L 844.757096501313 61.72267275875801 L 844.7662012158021 61.830406059657264 L 844.7729223235773 61.93817513154877 L 844.7772591525332 62.04596919761514 L 844.7792112689908 62.15377747853961 M 844.7793322590468 96.4920458931 L 844.7781397991431 96.59985643801662 L 844.7745625386771 96.70765620196859 L 844.7686008353718 96.81543440506935 L 844.7602552853924 96.9231802695884 L 844.7495267232872 97.03088302102908 L 844.7364162219034 97.138531889206 L 844.7209250922801 97.24611610932205 L 844.7030548835176 97.35362492304485 L 844.6828073826215 97.46104757958265 L 844.6601846143253 97.5683733367593 L 844.6351888408869 97.67559146208852 L 844.6078225618629 97.78269123384712 L 844.5780885138583 97.88966194214719 L 844.5459896702532 97.99649289000702 L 844.5115292409051 98.10317339442086 L 844.4747106718283 98.20969278742717 L 844.435537644849 98.31604041717543 L 844.3940140772372 98.42220564899125 L 844.3501441213152 98.52817786643996 L 844.3039321640418 98.6339464723881 L 844.2553828265745 98.73950089006323 L 844.2045009638065 98.84483056411152 L 844.1512916638816 98.94992496165337 L 844.0957602476853 99.05477357333659 L 844.0379122683133 99.15936591438738 L 843.9777535105152 99.2636915256588 L 843.9152899901165 99.36773997467667 L 843.8505279534173 99.47150085668278 L 843.7834738765673 99.5749637956754 L 843.7141344649184 99.67811844544686 L 843.6425166523537 99.78095449061813 L 843.568627600595 99.8834616476704 L 843.492474698486 99.98562966597338 L 843.4140655612532 100.08744832881038 L 843.3334080297451 100.18890745439998 L 843.2505101696477 100.28999689691415 L 843.1653802706778 100.39070654749288 L 843.0780268457544 100.49102633525506 L 842.9884586301472 100.59094622830548 L 842.8966845806032 100.69045623473812 L 842.8027138744508 100.78954640363527 L 842.7065559086822 100.8882068260626 L 842.6082202990141 100.9864276360601 L 842.5077168789253 101.0841990116286 L 842.4050556986741 101.18151117571202 L 842.3002470242931 101.27835439717506 L 842.1933013365622 101.37471899177628 L 842.0842293299612 101.4705953231365 L 841.9730419115999 101.56597380370249 L 841.8597502001273 101.6608448957057 L 841.7443655246204 101.75519911211595 L 841.6268994234504 101.84902701759025 L 841.5073636431295 101.94231922941623 L 841.3857701371362 102.03506641845047 L 841.2621310647198 102.12725931005133 L 841.1364587896844 102.2188886850065 L 841.008765879153 102.30994538045483 L 840.8790651023099 102.40042029080266 L 840.747369429125 102.49030436863434 L 840.6136920290558 102.579588625617 L 840.4780462697308 102.66826413339936 L 840.340445715613 102.75632202450451 L 840.2009041266431 102.84375349321674 L 840.0594354568638 102.93054979646202 L 839.916053853024 103.01670225468237 L 839.7707736531648 103.10220225270375 L 839.623609385185 103.18704124059762 L 839.4745757653889 103.27121073453588 L 839.323687697014 103.3547023176393 L 839.1709602687416 103.4375076408191 L 839.0164087531873 103.51961842361202 L 838.8600486053739 103.60102645500817 L 838.7018954611856 103.68172359427226 L 838.5419651358053 103.7617017717576 L 838.3802736221321 103.84095298971312 L 838.2168370891828 103.91946932308304 L 838.0516718804743 103.99724292029944 L 837.8847945123899 104.07426600406745 L 837.7162216725275 104.15053087214287 L 837.5459702180303 104.22602989810241 L 837.3740571739022 104.30075553210642 L 837.2004997313041 104.37470030165377 L 837.0253152458358 104.44785681232914 L 836.8485212357998 104.52021774854238 L 836.6701353804498 104.59177587426021 L 836.4901755182225 104.66252403372968 L 836.3086596449544 104.73245515219378 L 836.1256059120815 104.80156223659897 L 835.9410326248245 104.86983837629438 L 835.7549582403583 104.93727674372295 L 835.5674013659664 105.0038705951041 L 835.3783807571797 105.06961327110824 L 835.1879153159018 105.13449819752252 L 834.996024088518 105.19851888590837 L 834.8027262639912 105.26166893425032 L 834.6080411719427 105.32394202759615 L 834.4119882807195 105.38533193868841 L 834.2145871954473 105.44583252858716 L 834.0158576560702 105.50543774728384 L 833.8158195353765 105.56414163430621 L 833.6144928370115 105.62193831931454 L 833.4118976934775 105.67882202268845 L 833.2080543641197 105.73478705610502 L 833.0029832331014 105.78982782310756 L 832.7967048073647 105.84393881966523 L 832.5892397145803 105.89711463472344 L 832.3806087010846 105.94934995074503 L 832.1708326298052 106.00063954424192 L 831.9599324781742 106.0509782862975 L 831.7479293360311 106.1003611430795 L 831.5348444035135 106.14878317634341 L 831.3206989889371 106.19623954392625 L 831.1055145066648 106.2427255002308 L 830.8893124749655 106.2882363967002 L 830.6721145138624 106.33276768228268 L 830.4539423429704 106.37631490388682 L 830.2348177793249 106.41887370682676 L 830.0147627351995 106.46043983525765 L 829.7937992159154 106.50100913260128 L 829.5719493176405 106.54057754196174 L 829.3492352251794 106.57914110653107 L 829.125679209756 106.61669596998493 L 828.9013036267855 106.65323837686829 L 828.6761309136392 106.6887646729709 L 828.4501835874008 106.72327130569276 L 828.2234842426146 106.75675482439937 L 827.9960555490262 106.78921188076673 L 827.7679202493154 106.82063922911627 L 827.5391011568221 106.85103372673933 L 827.3096211532647 106.8803923342115 L 827.0795031864527 106.90871211569649 L 826.8487702679906 106.93599023923973 L 826.6174454709783 106.96222397705162 L 826.3855519277024 106.98741070578025 L 826.1531128273243 107.0115479067737 L 825.9201514135602 107.03463316633201 L 825.6866909823573 107.05666417594847 L 825.4527548795643 107.07763873254045 L 825.2183664985963 107.09755473866979 L 824.9835492780963 107.11641020275246 L 824.7483266995907 107.13420323925777 L 824.5127222851411 107.1509320688969 L 824.2767595949928 107.16659501880085 L 824.0404622252181 107.18119052268763 L 823.8038538053571 107.19471712101905 L 823.5669579960545 107.20717346114655 L 823.329798486694 107.21855829744648 L 823.0923989930288 107.22887049144471 L 822.8547832548104 107.23810901193042 L 822.6169750334147 107.24627293505928 L 822.3789981094657 107.25336144444577 L 822.1408762804573 107.25937383124486 L 821.9026333583741 107.26430949422287 L 821.6642931673098 107.26816793981763 L 821.4258795410848 107.27094878218779 L 821.187416320863 107.27265174325143 L 820.9489273527679 107.27327665271386 L 820.7104364854973 107.27282344808465 L 820.4719675679395 107.27129217468391 L 820.2335444467873 107.26868298563768 L 819.9951909641543 107.2649961418627 L 819.7569309551899 107.26023201204026 L 819.5187882456967 107.2543910725794 L 819.280786649747 107.24747390756917 L 819.0429499673022 107.23948120872033 L 818.8053019818323 107.23041377529609 L 818.5678664579377 107.22027251403225 L 818.330667138973 107.20905843904646 L 818.0937277446726 107.1967726717369 L 817.8570719687783 107.18341644067004 L 817.6207234766705 107.16899108145788 L 817.3847059030014 107.15349803662431 L 817.1490428493319 107.1369388554609 L 816.9137578817707 107.11931519387196 L 816.6788745286187 107.10062881420897 L 816.4444162780154 107.08088158509435 L 816.2104065755906 107.0600754812345 L 815.9768688221192 107.03821258322252 L 815.7438263711823 107.01529507732995 L 815.5113025268306 106.99132525528832 L 815.2793205412547 106.96630551405984 L 815.0479036124601 106.94023835559778 L 814.8170748819466 106.91312638659626 L 814.586857432395 106.88497231822961 L 814.3572742853585 106.85577896588119 L 814.1283483989602 106.8255492488619 L 813.9001026655982 106.79428619011826 L 813.6725599096555 106.76199291593008 L 813.4457428852182 106.72867265559789 L 813.2196742737998 106.69432874111995 L 812.9943766820728 106.65896460685907 L 812.7698726396087 106.62258378919921 L 812.5461845966248 106.58518992619184 L 812.3233349217389 106.5467867571921 L 812.1013458997328 106.50737812248485 L 811.8802397293238 106.46696796290075 L 811.6600385209443 106.42556031942208 L 811.4407642945322 106.38315933277867 L 811.222438977327 106.33976924303387 L 811.0050844016786 106.29539438916049 L 810.7887223028636 106.25003920860692 L 810.5733743169112 106.20370823685344 L 810.359061978441 106.15640610695861 L 810.1458067185079 106.108137549096 L 809.9336298624604 106.05890739008117 L 809.7225526278071 106.00872055288902 L 809.5125961220957 105.9575820561614 L 809.3037813408018 105.90549701370541 L 809.0961291652295 105.85247063398188 L 808.8896603604234 105.79850821958458 L 808.6843955730917 105.74361516670999 L 808.4803553295422 105.68779696461766 L 808.2775600336292 105.63105919508126 L 808.0760299647135 105.5734075318305 L 807.8757852756338 105.51484773998365 L 807.6768459906922 105.45538567547108 L 807.4792320036514 105.3950272844497 L 807.2829630757456 105.33377860270829 L 807.0880588337037 105.27164575506403 L 806.8945387677878 105.20863495474987 L 806.702422229843 105.14475250279335 L 806.5117284313633 105.08000478738643 L 806.3224764415693 105.01439828324668 L 806.1346851855023 104.94793955096986 L 805.9483734421317 104.8806352363738 L 805.7635598424763 104.8124920698339 L 805.5802628677422 104.74351686560999 L 805.398500847474 104.67371652116503 L 805.2182919577225 104.6030980164753 L 805.0396542192262 104.53166841333243 L 804.8626054956103 104.4594348546372 L 804.6871634915994 104.38640456368528 L 804.513345751248 104.31258484344491 L 804.3411696561851 104.2379830758266 L 804.1706524238767 104.16260672094495 L 804.0018111059042 104.08646331637262 L 803.8346625862582 104.00956047638662 L 803.6692235796519 103.93190589120688 L 803.5055106298477 103.85350732622719 L 803.3435401080044 103.77437262123871 L 803.1833282110391 103.694509689646 L 803.024890960008 103.61392651767568 L 802.8682441985042 103.53263116357778 L 802.7134035910733 103.45063175681996 L 802.560384621647 103.36793649727457 L 802.4092025919947 103.28455365439865 L 802.2598726201934 103.20049156640701 L 802.1124096391159 103.1157586394384 L 801.9668283949374 103.03036334671489 L 801.8231434456609 102.94431422769459 L 801.6813691596617 102.85761988721772 L 801.5415197142503 102.77028899464605 L 801.4036090942545 102.68233028299609 L 801.2676510906215 102.5937525480657 L 801.1336592990384 102.50456464755453 L 801.0016471185727 102.41477550017834 L 800.8716277503323 102.32439408477703 L 800.7436141961458 102.23342943941684 L 800.6176192572619 102.14189066048647 L 800.4936555330696 102.04978690178756 L 800.3717354198379 101.95712737361922 L 800.2518711094765 101.86392134185704 L 800.1340745883166 101.77017812702654 L 800.0183576359121 101.67590710337106 L 799.9047318238619 101.58111769791444 L 799.7932085146525 101.48581938951821 L 799.6837988605218 101.39002170793381 L 799.5765138023442 101.29373423284954 L 799.4713640685359 101.19696659293271 L 799.3683601739829 101.09972846486664 L 799.2675124189885 101.00202957238312 L 799.1688308882444 100.90387968528998 L 799.0723254498215 100.80528861849413 L 798.9780057541831 100.70626623102011 L 798.8858812332201 100.60682242502413 L 798.7959610993079 100.50696714480392 L 798.708254344385 100.40671037580431 L 798.6227697390536 100.30606214361863 L 798.5395158317034 100.20503251298624 L 798.4585009476554 100.103631586786 L 798.3797331883305 100.00186950502604 L 798.3032204304393 99.89975644382972 L 798.2289703251935 99.79730261441809 L 798.1569902975419 99.69451826208869 L 798.0872875454272 99.59141366519111 L 798.0198690390667 99.48799913409913 L 797.9547415202547 99.38428501017967 L 797.8919115016888 99.28028166475868 L 797.8313852663186 99.17599949808405 L 797.7731688667171 99.07144893828554 L 797.7172681244759 98.96664044033201 L 797.6636886296225 98.86158448498593 L 797.6124357400616 98.75629157775525 L 797.5635145810398 98.65077224784297 L 797.516930044632 98.54503704709414 L 797.4726867892531 98.43909654894075 L 797.4307892391917 98.33296134734431 L 797.3912415841679 98.22664205573652 L 797.3540477789143 98.12014930595798 L 797.3192115427804 98.01349374719489 L 797.2867363593607 97.90668604491427 L 797.2566254761467 97.79973687979731 L 797.2288819042014 97.69265694667143 L 797.2035084178591 97.58545695344071 L 797.1805075544471 97.47814762001512 L 797.1598816140327 97.37073967723859 L 797.1416326591925 97.26324386581588 L 797.1257625148071 97.15567093523856 L 797.1122727678776 97.04803164271006 L 797.1011647673673 96.94033675206991 L 797.0924396240673 96.83259703271744 L 797.0860982104844 96.7248232585348 L 797.0821411607548 96.6170262068096 L 797.08056887058 96.50921665715717" stroke-miterlimit="10" stroke-width="2.7769845610000004" stroke-dasharray=""/></g><g><text fill="black" stroke="none" font-family="sans-serif" font-size="11pt" font-style="normal" font-weight="normal" text-decoration="normal" x="789.5519904947578" y="124.80095321200001" text-anchor="start" dominant-baseline="alphabetic" xml:space="preserve">Database</text></g></g><g><path fill="white" stroke="black" paint-order="fill stroke markers" d=" M 315.8734461190755 183.607685092 L 332.20864941907547 183.607685092 L 332.20864941907547 699.800109372 L 315.8734461190755 699.800109372 L 315.8734461190755 183.607685092" stroke-miterlimit="10" stroke-width="1.3612669416666667" stroke-dasharray=""/><path fill="white" stroke="black" paint-order="fill stroke markers" d=" M 553.4212453854166 229.346254332 L 569.7564486854167 229.346254332 L 569.7564486854167 654.061540132 L 553.4212453854166 654.061540132 L 553.4212453854166 229.346254332" stroke-miterlimit="10" stroke-width="1.3612669416666667" stroke-dasharray=""/><path fill="white" stroke="black" paint-order="fill stroke markers" d=" M 678.7220418489244 275.084823572 L 695.0572451489245 275.084823572 L 695.0572451489245 412.300531292 L 678.7220418489244 412.300531292 L 678.7220418489244 275.084823572" stroke-miterlimit="10" stroke-width="1.3612669416666667" stroke-dasharray=""/><path fill="white" stroke="black" paint-order="fill stroke markers" d=" M 812.7623337910468 320.823392812 L 829.0975370910469 320.823392812 L 829.0975370910469 366.561962052 L 812.7623337910468 366.561962052 L 812.7623337910468 320.823392812" stroke-miterlimit="10" stroke-width="1.3612669416666667" stroke-dasharray=""/><g><g><rect fill="white" stroke="none" x="107.88849239676428" y="162.371920802" width="173.60487617554688" height="21.23576429"/></g><text fill="black" stroke="none" font-family="sans-serif" font-size="11pt" font-style="normal" font-weight="normal" text-decoration="normal" x="110.33877289176428" y="177.07360377199998" text-anchor="start" dominant-baseline="alphabetic" xml:space="preserve">Go to Account detail page</text></g><g><path fill="none" stroke="black" paint-order="fill stroke markers" d=" M 73.50841485 183.607685092 L 302.42412873540883 183.607685092" stroke-miterlimit="10" stroke-width="1.3612669416666667" stroke-dasharray=""/><g transform="translate(315.8734461190755,183.607685092) translate(-315.8734461190755,-183.607685092)"><path fill="black" stroke="none" paint-order="stroke fill markers" d=" M 302.2607767024088 176.80135038366666 L 315.8734461190755 183.607685092 L 302.2607767024088 190.41401980033334 Z"/></g></g><g><g><rect fill="white" stroke="none" x="381.2845048589062" y="208.110490042" width="123.06088508667969" height="21.23576429"/></g><text fill="black" stroke="none" font-family="sans-serif" font-size="11pt" font-style="normal" font-weight="normal" text-decoration="normal" x="383.7347853539062" y="222.812173012" text-anchor="start" dominant-baseline="alphabetic" xml:space="preserve">GET: /api/user/{id}</text></g><g><path fill="none" stroke="black" paint-order="fill stroke markers" d=" M 332.20864941907547 229.346254332 L 539.9719280017499 229.346254332" stroke-miterlimit="10" stroke-width="1.3612669416666667" stroke-dasharray=""/><g transform="translate(553.4212453854166,229.346254332) translate(-553.4212453854166,-229.346254332)"><path fill="black" stroke="none" paint-order="stroke fill markers" d=" M 539.8085759687499 222.53991962366666 L 553.4212453854166 229.346254332 L 539.8085759687499 236.15258904033334 Z"/></g></g><g><g><rect fill="white" stroke="none" x="601.0123152970729" y="253.849059282" width="46.453859940195315" height="21.23576429"/></g><text fill="black" stroke="none" font-family="sans-serif" font-size="11pt" font-style="normal" font-weight="normal" text-decoration="normal" x="603.4625957920729" y="268.550742252" text-anchor="start" dominant-baseline="alphabetic" xml:space="preserve">get(id)</text></g><g><path fill="none" stroke="black" paint-order="fill stroke markers" d=" M 569.7564486854167 275.084823572 L 665.2727244652577 275.084823572" stroke-miterlimit="10" stroke-width="1.3612669416666667" stroke-dasharray=""/><g transform="translate(678.7220418489244,275.084823572) translate(-678.7220418489244,-275.084823572)"><path fill="black" stroke="none" paint-order="stroke fill markers" d=" M 665.1093724322577 268.27848886366667 L 678.7220418489244 275.084823572 L 665.1093724322577 281.89115828033334 Z"/></g></g><g><g><rect fill="white" stroke="none" x="714.3872357205911" y="299.587628522" width="79.04510749878906" height="21.23576429"/></g><text fill="black" stroke="none" font-family="sans-serif" font-size="11pt" font-style="normal" font-weight="normal" text-decoration="normal" x="716.8375162155911" y="314.28931149199997" text-anchor="start" dominant-baseline="alphabetic" xml:space="preserve">findById(id)</text></g><g><path fill="none" stroke="black" paint-order="fill stroke markers" d=" M 695.0572451489245 320.823392812 L 799.3130164073801 320.823392812" stroke-miterlimit="10" stroke-width="1.3612669416666667" stroke-dasharray=""/><g transform="translate(812.7623337910468,320.823392812) translate(-812.7623337910468,-320.823392812)"><path fill="black" stroke="none" paint-order="stroke fill markers" d=" M 799.1496643743801 314.01705810366667 L 812.7623337910468 320.823392812 L 799.1496643743801 327.62972752033335 Z"/></g></g><g><g><rect fill="white" stroke="none" x="719.6807080106302" y="345.326197762" width="68.45816291871094" height="21.23576429"/></g><text fill="black" stroke="none" font-family="sans-serif" font-size="11pt" font-style="normal" font-weight="normal" text-decoration="normal" x="722.1309885056302" y="360.02788073199997" text-anchor="start" dominant-baseline="alphabetic" xml:space="preserve">User data</text></g><g><path fill="none" stroke="black" paint-order="fill stroke markers" d=" M 812.7623337910468 366.561962052 L 708.5065625325911 366.561962052" stroke-miterlimit="10" stroke-width="1.3612669416666667" stroke-dasharray="6.53408132"/><g transform="translate(695.0572451489245,366.561962052) translate(-695.0572451489245,-366.561962052)"><path fill="black" stroke="none" paint-order="stroke fill markers" d=" M 708.6699145655912 359.7556273436667 L 695.0572451489245 366.561962052 L 708.6699145655912 373.36829676033335 Z"/></g></g><g><g><rect fill="white" stroke="none" x="590.010163807815" y="391.064767002" width="68.45816291871094" height="21.23576429"/></g><text fill="black" stroke="none" font-family="sans-serif" font-size="11pt" font-style="normal" font-weight="normal" text-decoration="normal" x="592.4604443028151" y="405.766449972" text-anchor="start" dominant-baseline="alphabetic" xml:space="preserve">User data</text></g><g><path fill="none" stroke="black" paint-order="fill stroke markers" d=" M 678.7220418489244 412.300531292 L 583.2057660690833 412.300531292" stroke-miterlimit="10" stroke-width="1.3612669416666667" stroke-dasharray="6.53408132"/><g transform="translate(569.7564486854167,412.300531292) translate(-569.7564486854167,-412.300531292)"><path fill="black" stroke="none" paint-order="stroke fill markers" d=" M 583.3691181020833 405.4941965836667 L 569.7564486854167 412.300531292 L 583.3691181020833 419.10686600033335 Z"/></g></g><g><g><rect fill="white" stroke="none" x="382.53000351613275" y="480.908385152" width="120.56988777222656" height="21.23576429"/></g><text fill="red" stroke="none" font-family="sans-serif" font-size="11pt" font-style="normal" font-weight="normal" text-decoration="normal" x="384.98028401113277" y="495.610068122" text-anchor="start" dominant-baseline="alphabetic" xml:space="preserve">404 NOT FOUND</text></g><g><path fill="none" stroke="black" paint-order="fill stroke markers" d=" M 553.4212453854166 502.144149442 L 345.6579668027421 502.144149442" stroke-miterlimit="10" stroke-width="1.3612669416666667" stroke-dasharray="6.53408132"/><g transform="translate(332.20864941907547,502.144149442) translate(-332.20864941907547,-502.144149442)"><path fill="black" stroke="none" paint-order="stroke fill markers" d=" M 345.82131883574215 495.3378147336667 L 332.20864941907547 502.144149442 L 345.82131883574215 508.95048415033335 Z"/></g></g><g><g><rect fill="white" stroke="none" x="93.6401098284049" y="526.646954392" width="202.10164131226563" height="21.23576429"/></g><text fill="black" stroke="none" font-family="sans-serif" font-size="11pt" font-style="normal" font-weight="normal" text-decoration="normal" x="96.0903903234049" y="541.348637362" text-anchor="start" dominant-baseline="alphabetic" xml:space="preserve">Display 404 Not Found screen</text></g><g><path fill="none" stroke="black" paint-order="fill stroke markers" d=" M 315.8734461190755 547.882718682 L 86.95773223366666 547.882718682" stroke-miterlimit="10" stroke-width="1.3612669416666667" stroke-dasharray="6.53408132"/><g transform="translate(73.50841485,547.882718682) translate(-73.50841485,-547.882718682)"><path fill="black" stroke="none" paint-order="stroke fill markers" d=" M 87.12108426666666 541.0763839736667 L 73.50841485 547.882718682 L 87.12108426666666 554.6890533903334 Z"/></g></g><g><g><rect fill="white" stroke="none" x="351.5386399907421" y="616.490572542" width="54.61422981324219" height="21.23576429"/></g><g><rect fill="white" stroke="none" x="351.5386399907421" y="632.825775842" width="182.55261482300781" height="21.23576429"/></g><text fill="green" stroke="none" font-family="sans-serif" font-size="11pt" font-style="normal" font-weight="normal" text-decoration="normal" x="353.98892048574214" y="631.192255512" text-anchor="start" dominant-baseline="alphabetic" xml:space="preserve">200 OK</text><text fill="green" stroke="none" font-family="sans-serif" font-size="11pt" font-style="normal" font-weight="normal" text-decoration="normal" x="353.98892048574214" y="647.527458812" text-anchor="start" dominant-baseline="alphabetic" xml:space="preserve">Response body: User data </text></g><g><path fill="none" stroke="black" paint-order="fill stroke markers" d=" M 553.4212453854166 654.061540132 L 345.6579668027421 654.061540132" stroke-miterlimit="10" stroke-width="1.3612669416666667" stroke-dasharray="6.53408132"/><g transform="translate(332.20864941907547,654.061540132) translate(-332.20864941907547,-654.061540132)"><path fill="black" stroke="none" paint-order="stroke fill markers" d=" M 345.82131883574215 647.2552054236667 L 332.20864941907547 654.061540132 L 345.82131883574215 660.8678748403333 Z"/></g></g><g><g><rect fill="white" stroke="none" x="92.83840542166662" y="678.5643450819999" width="203.7050501257422" height="21.23576429"/></g><text fill="black" stroke="none" font-family="sans-serif" font-size="11pt" font-style="normal" font-weight="normal" text-decoration="normal" x="95.28868591666662" y="693.2660280519999" text-anchor="start" dominant-baseline="alphabetic" xml:space="preserve">Display User detail information</text></g><g><path fill="none" stroke="black" paint-order="fill stroke markers" d=" M 315.8734461190755 699.800109372 L 86.95773223366666 699.800109372" stroke-miterlimit="10" stroke-width="1.3612669416666667" stroke-dasharray="6.53408132"/><g transform="translate(73.50841485,699.800109372) translate(-73.50841485,-699.800109372)"><path fill="black" stroke="none" paint-order="stroke fill markers" d=" M 87.12108426666666 692.9937746636666 L 73.50841485 699.800109372 L 87.12108426666666 706.6064440803333 Z"/></g></g><g><g/><path fill="none" stroke="black" paint-order="fill stroke markers" d=" M 16.335203299999996 436.803336242 L 618.7620585854166 436.803336242 L 618.7620585854166 724.302914322 L 16.335203299999996 724.302914322 L 16.335203299999996 436.803336242 Z" stroke-miterlimit="10" stroke-width="2.3336004714285714" stroke-dasharray=""/><path fill="white" stroke="black" paint-order="fill stroke markers" d=" M 16.335203299999996 436.803336242 L 16.335203299999996 456.405580202 L 62.69440689707031 456.405580202 L 72.49552887707031 446.604458222 L 72.49552887707031 436.803336242 L 16.335203299999996 436.803336242" stroke-miterlimit="10" stroke-width="2.3336004714285714" stroke-dasharray=""/><text fill="black" stroke="none" font-family="sans-serif" font-size="8.8pt" font-style="normal" font-weight="bold" text-decoration="normal" x="32.67040659999999" y="449.871498882" text-anchor="start" dominant-baseline="alphabetic" xml:space="preserve">alt</text><g><rect fill="white" stroke="none" x="86.38045168207032" y="438.110152506" width="131.34727729859375" height="16.988611432000003"/></g><text fill="black" stroke="none" font-family="sans-serif" font-size="8.8pt" font-style="normal" font-weight="bold" text-decoration="normal" x="88.83073217707032" y="449.871498882" text-anchor="start" dominant-baseline="alphabetic" xml:space="preserve">[If no User matches id]</text><g><path fill="none" stroke="black" paint-order="fill stroke markers" d=" M 16.335203299999996 572.385523632 L 618.7620585854166 572.385523632" stroke-miterlimit="10" stroke-width="2.3336004714285714" stroke-dasharray="4.083800825"/></g><g/><g><rect fill="white" stroke="none" x="86.38045168207032" y="573.6923398959999" width="36.84300483765625" height="16.988611432000003"/></g><text fill="black" stroke="none" font-family="sans-serif" font-size="8.8pt" font-style="normal" font-weight="bold" text-decoration="normal" x="88.83073217707032" y="585.4536862719999" text-anchor="start" dominant-baseline="alphabetic" xml:space="preserve">[Else]</text></g><g/></g></g></svg>