<svg version="1.1" xmlns="http://www.w3.org/2000/svg" xmlns:xlink="http://www.w3.org/1999/xlink" width="968" height="1101"><desc>title%20Update%20User%20information%0A%0A%0Aactor%20%23green%3A0.5%20%22Workspace%20User%22%20as%20w%0Aboundary%20%22Application%20Client%22%20as%20f%0Acontrol%20%22User%20Controller%22%20as%20gc%0Aparticipant%20%22User%20Service%22%20as%20gs%0Adatabase%20%23blue%3A1%20%22Database%22%20as%20db%0A%0Aw-%3Ef%3AGo%20to%20Account%20detail%20page%0Aactivate%20f%0Aw-%3Ef%3A%20Click%20edit%20button%0Aw%3C--f%3A%20Update%20User%20information%20page%0Aw-%3Ef%3A%20Type%20update%20value%20and%20click%20Save%0Af-%3Egc%3APUT%3A%20%2Fapi%2Fuser%2F%7Bid%7D%0Aactivate%20gc%0Agc-%3Egs%3AisExist(id)%0Aactivate%20gs%0Ags-%3Edb%3AisExist(id)%0Aactivate%20db%0Ags%3C--db%3ABoolean%20value%0Adeactivate%20db%0Agc%3C--gs%3ABoolean%20value%0Adeactivate%20gs%0Aalt%20If%20no%20User%20matches%20id%0Af%3C--gc%3A%3Ccolor%3A%23red%3E404%20NOT%20FOUND%3C%2Fcolor%3E%0A%0Aw%3C--f%3A%20Display%20404%20Not%20Found%20screen%0Aelse%20Else%0Agc-%3Egs%3Asave()%0Aactivate%20gs%0Ags-%3Edb%3Asave()%0Aactivate%20db%0Ags%3C--db%3AUser%20data%0Adeactivate%20db%0Agc%3C--gs%3AUser%20data%0Adeactivate%20gs%0Af%3C--gc%3A%3Ccolor%3A%23green%3E200%20OK%5CnResponse%20body%3A%20User%20data%20%3C%2Fcolor%3E%0Adeactivate%20gc%0A%0Aw%3C--f%3A%20Display%20User%20detail%0Adeactivate%20f%0Aend</desc><defs/><g><g/><g/><g/><g/><g/><g/><g/><g/><g/><g/><g/><g/><g/><g/><g/><g/><g/><g/><g/><g/><g/><g/><g/><g><rect fill="white" stroke="none" x="0" y="0" width="968" height="1101"/></g><g><text fill="black" stroke="none" font-family="sans-serif" font-size="16.5pt" font-style="normal" font-weight="normal" text-decoration="normal" x="365.0296573035807" y="24.50280495" text-anchor="start" dominant-baseline="alphabetic" xml:space="preserve">Update User information</text></g><g/><g><path fill="none" stroke="black" paint-order="fill stroke markers" d=" M 73.50841485 129.701514202 L 73.50841485 1101.6461105519995" stroke-miterlimit="10" stroke-width="1.3612669416666667" stroke-dasharray="12.565541,5.445067766666667"/><path fill="none" stroke="black" paint-order="fill stroke markers" d=" M 343.6473404936849 129.701514202 L 343.6473404936849 1101.6461105519995" stroke-miterlimit="10" stroke-width="1.3612669416666667" stroke-dasharray="12.565541,5.445067766666667"/><path fill="none" stroke="black" paint-order="fill stroke markers" d=" M 581.195139760026 129.701514202 L 581.195139760026 1101.6461105519995" stroke-miterlimit="10" stroke-width="1.3612669416666667" stroke-dasharray="12.565541,5.445067766666667"/><path fill="none" stroke="black" paint-order="fill stroke markers" d=" M 734.0113869023437 129.701514202 L 734.0113869023437 1101.6461105519995" stroke-miterlimit="10" stroke-width="1.3612669416666667" stroke-dasharray="12.565541,5.445067766666667"/><path fill="none" stroke="black" paint-order="fill stroke markers" d=" M 886.8276340446614 129.701514202 L 886.8276340446614 1101.6461105519995" stroke-miterlimit="10" stroke-width="1.3612669416666667" stroke-dasharray="12.565541,5.445067766666667"/></g><g><g><path fill="white" stroke="green" paint-order="fill stroke markers" d=" M 82.819480731 60.60360424300001 A 9.311065881 9.311065881 0 1 1 82.81947607546743 60.594293178670846 M 73.50841485 69.91467012400001 L 73.50841485 89.84361815000001 M 61.747068473999995 77.102159576 L 85.26976122599999 77.102159576 M 73.50841485 89.84361815000001 L 61.747068473999995 108.465749912 M 73.50841485 89.84361815000001 L 85.26976122599999 108.465749912" stroke-miterlimit="10" stroke-width="1.3884922805000002" stroke-dasharray=""/></g><g><text fill="black" stroke="none" font-family="sans-serif" font-size="11pt" font-style="normal" font-weight="normal" text-decoration="normal" x="19.467635736230463" y="124.80095321200001" text-anchor="start" dominant-baseline="alphabetic" xml:space="preserve">Workspace User</text></g><g><path fill="white" stroke="black" paint-order="fill stroke markers" d=" M 376.0727190441849 82.819480731 A 24.2577769005 24.2577769005 0 1 1 376.0727069152975 82.79522295814245 M 312.6104542236849 57.17321154999999 L 312.6104542236849 108.465749912 M 311.2219619431849 82.819480731 L 327.5571652431849 82.819480731" stroke-miterlimit="10" stroke-width="2.7769845610000004" stroke-dasharray=""/></g><g><text fill="black" stroke="none" font-family="sans-serif" font-size="11pt" font-style="normal" font-weight="normal" text-decoration="normal" x="287.0117203764974" y="124.80095321200001" text-anchor="start" dominant-baseline="alphabetic" xml:space="preserve">Application Client</text></g><g><path fill="white" stroke="black" paint-order="fill stroke markers" d=" M 605.452916660526 82.819480731 A 24.2577769005 24.2577769005 0 1 1 605.4529045316385 82.79522295814245 M 577.928099100026 58.561703830499994 L 587.7292210800259 50.39410218049999 M 577.928099100026 58.561703830499994 L 587.7292210800259 66.72930548049999" stroke-miterlimit="10" stroke-width="2.7769845610000004" stroke-dasharray=""/></g><g><text fill="black" stroke="none" font-family="sans-serif" font-size="11pt" font-style="normal" font-weight="normal" text-decoration="normal" x="531.9074047746744" y="124.80095321200001" text-anchor="start" dominant-baseline="alphabetic" xml:space="preserve">User Controller</text></g><path fill="none" stroke="none"/><g><path fill="white" stroke="black" paint-order="fill stroke markers" d=" M 674.3335287241874 85.75981732500001 L 793.6892450805 85.75981732500001 L 793.6892450805 129.701514202 L 674.3335287241874 129.701514202 L 674.3335287241874 85.75981732500001 Z" stroke-miterlimit="10" stroke-width="2.613632528" stroke-dasharray=""/></g><g><text fill="black" stroke="none" font-family="sans-serif" font-size="11pt" font-style="normal" font-weight="normal" text-decoration="normal" x="692.0572243046875" y="113.36631090200002" text-anchor="start" dominant-baseline="alphabetic" xml:space="preserve">User Service</text></g><g><path fill="white" stroke="blue" paint-order="fill stroke markers" d=" M 862.9782372266615 97.684515734 L 862.9782372266615 63.380588804000006 L 910.6770308626614 63.380588804000006 L 910.6770308626614 97.684515734" stroke-miterlimit="10" stroke-width="2.7769845610000004" stroke-dasharray=""/><path fill="white" stroke="blue" paint-order="fill stroke markers" d=" M 910.6770308626614 62.1881189631 L 910.6758384027577 62.29592950801663 L 910.6722611422916 62.403729271968594 L 910.6662994389864 62.51150747506936 L 910.657953889007 62.619253339588404 L 910.6472253269018 62.72695609102909 L 910.6341148255179 62.834604959206004 L 910.6186236958947 62.94218917932205 L 910.6007534871321 63.04969799304486 L 910.5805059862361 63.15712064958265 L 910.5578832179399 63.2644464067593 L 910.5328874445015 63.371664532088516 L 910.5055211654775 63.47876430384712 L 910.4757871174729 63.58573501214718 L 910.4436882738678 63.692565960007016 L 910.4092278445197 63.79924646442086 L 910.3724092754429 63.90576585742718 L 910.3332362484635 64.01211348717543 L 910.2917126808518 64.11827871899126 L 910.2478427249298 64.22425093643996 L 910.2016307676564 64.3300195423881 L 910.1530814301891 64.43557396006322 L 910.102199567421 64.54090363411153 L 910.0489902674962 64.64599803165338 L 909.9934588512999 64.75084664333659 L 909.9356108719279 64.85543898438739 L 909.8754521141298 64.95976459565881 L 909.8129885937311 65.06381304467668 L 909.7482265570319 65.16757392668278 L 909.6811724801819 65.27103686567541 L 909.611833068533 65.37419151544687 L 909.5402152559683 65.47702756061814 L 909.4663262042096 65.5795347176704 L 909.3901733021006 65.68170273597339 L 909.3117641648678 65.7835213988104 L 909.2311066333597 65.88498052439998 L 909.1482087732622 65.98606996691414 L 909.0630788742924 66.08677961749288 L 908.975725449369 66.18709940525505 L 908.8861572337618 66.28701929830548 L 908.7943831842177 66.38652930473813 L 908.7004124780653 66.48561947363528 L 908.6042545122967 66.58427989606261 L 908.5059189026287 66.6825007060601 L 908.4054154825399 66.7802720816286 L 908.3027543022887 66.87758424571203 L 908.1979456279076 66.97442746717506 L 908.0909999401767 67.07079206177627 L 907.9819279335758 67.1666683931365 L 907.8707405152145 67.2620468737025 L 907.7574488037419 67.35691796570569 L 907.642064128235 67.45127218211596 L 907.5245980270649 67.54510008759026 L 907.405062246744 67.63839229941624 L 907.2834687407508 67.73113948845047 L 907.1598296683344 67.82333238005134 L 907.034157393299 67.9149617550065 L 906.9064644827675 68.00601845045483 L 906.7767637059245 68.09649336080267 L 906.6450680327396 68.18637743863435 L 906.5113906326703 68.27566169561702 L 906.3757448733454 68.36433720339936 L 906.2381443192276 68.45239509450451 L 906.0986027302577 68.53982656321674 L 905.9571340604783 68.62662286646201 L 905.8137524566386 68.71277532468237 L 905.6684722567794 68.79827532270376 L 905.5213079887995 68.88311431059763 L 905.3722743690034 68.9672838045359 L 905.2213863006285 69.0507753876393 L 905.0686588723562 69.13358071081912 L 904.9141073568019 69.21569149361203 L 904.7577472089885 69.29709952500816 L 904.5995940648002 69.37779666427225 L 904.4396637394199 69.45777484175761 L 904.2779722257467 69.53702605971311 L 904.1145356927974 69.61554239308303 L 903.9493704840888 69.69331599029945 L 903.7824931160045 69.77033907406746 L 903.613920276142 69.84660394214286 L 903.4436688216449 69.92210296810242 L 903.2717557775168 69.99682860210643 L 903.0981983349187 70.07077337165379 L 902.9230138494504 70.14392988232913 L 902.7462198394144 70.21629081854239 L 902.5678339840644 70.28784894426022 L 902.3878741218371 70.35859710372968 L 902.206358248569 70.42852822219379 L 902.023304515696 70.49763530659898 L 901.8387312284391 70.5659114462944 L 901.6526568439729 70.63334981372294 L 901.4650999695809 70.69994366510412 L 901.2760793607943 70.76568634110825 L 901.0856139195164 70.83057126752253 L 900.8937226921325 70.89459195590838 L 900.7004248676058 70.95774200425032 L 900.5057397755572 71.02001509759614 L 900.309686884334 71.08140500868842 L 900.1122857990619 71.14190559858717 L 899.9135562596848 71.20151081728383 L 899.713518138991 71.26021470430622 L 899.5121914406261 71.31801138931453 L 899.3095962970921 71.37489509268845 L 899.1057529677342 71.43086012610503 L 898.900681836716 71.48590089310757 L 898.6944034109792 71.54001188966522 L 898.4869383181949 71.59318770472345 L 898.2783073046992 71.64542302074504 L 898.0685312334198 71.69671261424193 L 897.8576310817888 71.7470513562975 L 897.6456279396457 71.79643421307951 L 897.4325430071281 71.84485624634341 L 897.2183975925517 71.89231261392625 L 897.0032131102794 71.93879857023082 L 896.7870110785801 71.9843094667002 L 896.569813117477 72.02884075228269 L 896.351640946585 72.07238797388683 L 896.1325163829395 72.11494677682676 L 895.9124613388141 72.15651290525764 L 895.69149781953 72.19708220260128 L 895.469647921255 72.23665061196175 L 895.246933828794 72.27521417653107 L 895.0233778133705 72.31276903998494 L 894.7990022304001 72.3493114468683 L 894.5738295172538 72.38483774297092 L 894.3478821910154 72.41934437569277 L 894.1211828462292 72.45282789439938 L 893.8937541526408 72.48528495076673 L 893.6656188529299 72.51671229911628 L 893.4367997604367 72.54710679673934 L 893.2073197568793 72.5764654042115 L 892.9772017900673 72.60478518569649 L 892.7464688716052 72.63206330923974 L 892.5151440745929 72.65829704705163 L 892.283250531317 72.68348377578025 L 892.0508114309389 72.70762097677371 L 891.8178500171748 72.73070623633201 L 891.5843895859718 72.75273724594847 L 891.3504534831789 72.77371180254045 L 891.1160651022109 72.79362780866978 L 890.8812478817109 72.81248327275246 L 890.6460253032053 72.83027630925778 L 890.4104208887557 72.84700513889692 L 890.1744581986073 72.86266808880085 L 889.9381608288327 72.87726359268764 L 889.7015524089717 72.89079019101906 L 889.4646565996691 72.90324653114655 L 889.2274970903086 72.91463136744649 L 888.9900975966434 72.9249435614447 L 888.752481858425 72.93418208193043 L 888.5146736370293 72.94234600505929 L 888.2766967130802 72.94943451444577 L 888.0385748840719 72.95544690124485 L 887.8003319619887 72.96038256422287 L 887.5619917709244 72.96424100981763 L 887.3235781446994 72.9670218521878 L 887.0851149244776 72.96872481325143 L 886.8466259563825 72.96934972271386 L 886.6081350891119 72.96889651808466 L 886.3696661715541 72.96736524468392 L 886.1312430504018 72.96475605563768 L 885.8928895677689 72.96106921186271 L 885.6546295588045 72.95630508204027 L 885.4164868493112 72.9504641425794 L 885.1784852533616 72.94354697756918 L 884.9406485709168 72.93555427872033 L 884.7030005854468 72.9264868452961 L 884.4655650615523 72.91634558403224 L 884.2283657425876 72.90513150904647 L 883.9914263482872 72.89284574173689 L 883.7547705723929 72.87948951067006 L 883.5184220802851 72.86506415145789 L 883.282404506616 72.84957110662431 L 883.0467414529464 72.8330119254609 L 882.8114564853853 72.81538826387197 L 882.5765731322333 72.79670188420899 L 882.34211488163 72.77695465509434 L 882.1081051792052 72.7561485512345 L 881.8745674257337 72.73428565322251 L 881.6415249747969 72.71136814732996 L 881.4090011304452 72.68739832528833 L 881.1770191448693 72.66237858405984 L 880.9456022160747 72.63631142559778 L 880.7147734855612 72.60919945659627 L 880.4845560360096 72.58104538822961 L 880.254972888973 72.55185203588118 L 880.0260470025747 72.5216223188619 L 879.7978012692128 72.49035926011825 L 879.5702585132701 72.45806598593009 L 879.3434414888328 72.4247457255979 L 879.1173728774144 72.39040181111994 L 878.8920752856874 72.35503767685907 L 878.6675712432233 72.31865685919922 L 878.4438832002394 72.28126299619186 L 878.2210335253535 72.24285982719209 L 877.9990445033474 72.20345119248485 L 877.7779383329383 72.16304103290075 L 877.5577371245589 72.12163338942209 L 877.3384628981468 72.07923240277869 L 877.1201375809416 72.03584231303388 L 876.9027830052931 71.99146745916049 L 876.6864209064781 71.94611227860693 L 876.4710729205258 71.89978130685344 L 876.2567605820556 71.85247917695861 L 876.0435053221224 71.80421061909601 L 875.831328466075 71.75498046008119 L 875.6202512314217 71.70479362288901 L 875.4102947257103 71.65365512616141 L 875.2014799444164 71.60157008370541 L 874.9938277688441 71.54854370398188 L 874.7873589640379 71.49458128958457 L 874.5820941767063 71.43968823671 L 874.3780539331568 71.38387003461766 L 874.1752586372438 71.32713226508127 L 873.973728568328 71.26948060183051 L 873.7734838792484 71.21092080998365 L 873.5745445943068 71.15145874547107 L 873.376930607266 71.0911003544497 L 873.1806616793601 71.0298516727083 L 872.9857574373183 70.96771882506403 L 872.7922373714024 70.90470802474988 L 872.6001208334576 70.84082557279336 L 872.4094270349779 70.77607785738643 L 872.2201750451839 70.71047135324669 L 872.0323837891169 70.64401262096986 L 871.8460720457463 70.5767083063738 L 871.6612584460909 70.50856513983389 L 871.4779614713568 70.43958993560999 L 871.2961994510886 70.36978959116503 L 871.1159905613371 70.29917108647531 L 870.9373528228408 70.22774148333244 L 870.7603040992249 70.1555079246372 L 870.584862095214 70.08247763368529 L 870.4110443548626 70.00865791344492 L 870.2388682597997 69.9340561458266 L 870.0683510274913 69.85867979094495 L 869.8995097095187 69.78253638637263 L 869.7323611898728 69.70563354638664 L 869.5669221832665 69.62797896120689 L 869.4032092334622 69.54958039622719 L 869.241238711619 69.47044569123871 L 869.0810268146537 69.39058275964601 L 868.9225895636225 69.30999958767568 L 868.7659428021187 69.22870423357777 L 868.6111021946879 69.14670482681996 L 868.4580832252616 69.06400956727457 L 868.3069011956093 68.98062672439866 L 868.157571223808 68.89656463640702 L 868.0101082427304 68.8118317094384 L 867.8645269985519 68.72643641671489 L 867.7208420492755 68.6403872976946 L 867.5790677632763 68.55369295721772 L 867.4392183178649 68.46636206464606 L 867.3013076978691 68.37840335299609 L 867.165349694236 68.28982561806569 L 867.031357902653 68.20063771755453 L 866.8993457221873 68.11084857017835 L 866.7693263539469 68.02046715477704 L 866.6413127997604 67.92950250941684 L 866.5153178608765 67.83796373048648 L 866.3913541366842 67.74585997178757 L 866.2694340234525 67.65320044361923 L 866.1495697130911 67.55999441185705 L 866.0317731919312 67.46625119702654 L 865.9160562395267 67.37198017337107 L 865.8024304274765 67.27719076791445 L 865.6909071182671 67.18189245951821 L 865.5814974641364 67.08609477793381 L 865.4742124059587 66.98980730284956 L 865.3690626721504 66.89303966293272 L 865.2660587775974 66.79580153486665 L 865.1652110226031 66.69810264238313 L 865.066529491859 66.59995275528999 L 864.9700240534361 66.50136168849414 L 864.8757043577976 66.40233930102012 L 864.7835798368346 66.30289549502413 L 864.6936597029224 66.20304021480393 L 864.6059529479995 66.1027834458043 L 864.5204683426682 66.00213521361863 L 864.437214435318 65.90110558298623 L 864.3561995512699 65.799704656786 L 864.2774317919451 65.69794257502603 L 864.2009190340539 65.59582951382973 L 864.126668928808 65.4933756844181 L 864.0546889011565 65.3905913320887 L 863.9849861490418 65.28748673519112 L 863.9175676426813 65.18407220409914 L 863.8524401238693 65.08035808017966 L 863.7896101053034 64.97635473475869 L 863.7290838699332 64.87207256808405 L 863.6708674703317 64.76752200828555 L 863.6149667280905 64.66271351033203 L 863.561387233237 64.55765755498592 L 863.5101343436762 64.45236464775525 L 863.4612131846544 64.34684531784296 L 863.4146286482465 64.24111011709415 L 863.3703853928677 64.13516961894075 L 863.3284878428062 64.0290344173443 L 863.2889401877825 63.92271512573653 L 863.2517463825288 63.81622237595798 L 863.216910146395 63.70956681719489 L 863.1844349629753 63.602759114914264 L 863.1543240797613 63.49580994979732 L 863.126580507816 63.38873001667144 L 863.1012070214737 63.28153002344071 L 863.0782061580617 63.17422069001512 L 863.0575802176472 63.066812747238586 L 863.0393312628071 62.959316935815885 L 863.0234611184217 62.85174400523857 L 863.0099713714922 62.74410471271006 L 862.9988633709819 62.636409822069915 L 862.9901382276819 62.52867010271744 L 862.9837968140989 62.4208963285348 L 862.9798397643693 62.313099276809595 L 862.9782674741946 62.20528972715717 L 862.9790801008025 62.09747846044265 L 862.9822775629311 61.98967625770286 L 862.9878595408368 61.88189389906824 L 862.9958254763264 61.77414216268484 L 863.0061745728132 61.66643182363649 L 863.018905795396 61.558773652867366 L 863.0340178709631 61.4511784161048 L 863.0515092883197 61.34365687278283 L 863.0713782983385 61.236219774966166 L 863.0936229141352 61.12887786627507 L 863.1182409112666 61.02164188081096 L 863.1452298279536 60.91452254208302 L 863.174586965327 60.807530561935856 L 863.2063093876975 60.70067663947832 L 863.2403939228494 60.593971460013606 L 863.2768371623574 60.487425693970756 L 863.3156354619282 60.381049995837586 L 863.3567849417639 60.27485500309525 L 863.4002814869509 60.16885133515453 L 863.446120747871 60.06304959229389 L 863.4942981406361 59.95746035459945 L 863.5448088475474 59.852094180906974 L 863.597647817576 59.746961607746044 L 863.6528097668692 59.64207314828636 L 863.7102891792778 59.537439291286454 L 863.7700803069085 59.43307050004484 L 863.8321771706984 59.32897721135367 L 863.8965735610129 59.22516983445505 L 863.9632630382667 59.12165875000019 L 864.0322389335676 59.01845430901127 L 864.1034943493834 58.91556683184637 L 864.177022160232 58.81300660716748 L 864.2528150133936 58.7107838909116 L 864.330865329646 58.60890890526517 L 864.4111653040228 58.507391837641855 L 864.4937069065932 58.406242839663825 L 864.5784818832659 58.30547202614659 L 864.6654817566139 58.205089474087515 L 864.7546978267222 58.105105221658164 L 864.8461211720584 58.00552926720046 L 864.9397426503639 57.90637156822687 L 865.0355528995689 57.807642040424646 L 865.1335423387285 57.709350556664305 L 865.2337011689804 57.61150694601232 L 865.3360193745249 57.514120992748204 L 865.4404867236267 57.417202435386145 L 865.5470927696382 57.320760965701105 L 865.6558268520434 57.224806227759686 L 865.7666780975247 57.12934781695572 L 865.8796354210501 57.03439527905074 L 865.9946875269812 56.93995810921942 L 866.1118229102034 56.84604575110002 L 866.2310298572758 56.75266759585011 L 866.3522964476032 56.65983298120741 L 866.4756105546276 56.567551190555996 L 866.600959847041 56.47583145199805 L 866.7283317900187 56.384682937430995 L 866.8577136464726 56.29411476163032 L 866.9890924783247 56.20413598133814 L 867.1224551478012 56.1147555943575 L 867.2577883187466 56.02598253865261 L 867.3950784579565 55.937825691455075 L 867.5343118365313 55.85029386837614 L 867.6754745312492 55.763395822525176 L 867.8185524259583 55.677140243634355 L 867.9635312129884 55.591535757189675 L 868.1103963945817 55.50659092356846 L 868.2591332843424 55.42231423718327 L 868.4097270087053 55.33871412563253 L 868.5621625084237 55.25579894885771 L 868.7164245400745 55.1735769983074 L 868.8724976775832 55.092056496108135 L 869.030366313766 55.01124559424221 L 869.1900146618909 54.93115237373246 L 869.351426757256 54.851784843834196 L 869.5145864587865 54.77315094123426 L 869.679477450648 54.6952585292574 L 869.846083243879 54.61811539707989 L 870.0143871780388 54.54172925895067 L 870.184372422874 54.46610775341989 L 870.3560219800023 54.391258442575094 L 870.5293186846108 54.317188811284986 L 870.7042452071732 54.24390626645098 L 870.8807840551834 54.171418136266475 L 871.0589175749035 54.09973166948409 L 871.23862795313 54.028854034690774 L 871.4198972189749 53.95879231959093 L 871.6027072456626 53.88955353029769 L 871.7870397523428 53.82114459063227 L 871.9728763059186 53.753572341431656 L 872.1601983228892 53.68684353986444 L 872.3489870712091 53.62096485875517 L 872.5392236721609 53.55594288591707 L 872.730889102243 53.49178412349323 L 872.9239641950721 53.42849498730643 L 873.1184296432998 53.366081806217544 L 873.3142660005434 53.304550821492676 L 873.5114536833302 53.24390818617902 L 873.7099729730564 53.18415996448957 L 873.9098040179584 53.12531213119671 L 874.1109268350982 53.067370571034715 L 874.3133213123618 53.01034107811134 L 874.5169672104702 52.95422935532834 L 874.721844165003 52.89904101381123 L 874.9279316884356 52.84478157234818 L 875.1352091721875 52.79145645683812 L 875.343655888683 52.73907099974815 L 875.5532509934242 52.687630439580346 L 875.7639735270751 52.637139920347835 L 875.9758024175582 52.58760449106049 L 876.1887164821608 52.53902910521993 L 876.4026944296539 52.49141862032429 L 876.6177148624212 52.444777797382365 L 876.8337562785983 52.399111300437596 L 877.0507970742239 52.354423696101605 L 877.2688155453992 52.3107194530976 L 877.4877898904588 52.26800294181345 L 877.7076982121505 52.2262784338647 L 877.9285185198257 52.18555010166736 L 878.1502287316374 52.14582201802072 L 878.3728066767493 52.10709815570004 L 878.5962300975523 52.06938238705927 L 878.8204766518904 52.032678483643856 L 879.0455239152953 51.996990115813546 L 879.2713493832281 51.96232085237539 L 879.4979304733301 51.928674160226834 L 879.7252445276813 51.89605340400906 L 879.9532688150654 51.8644618457705 L 880.1819805332439 51.833902644640645 L 880.4113568112355 51.80437885651416 L 880.6413747116036 51.775893433745246 L 880.8720112327497 51.74844922485244 L 881.1032433112141 51.722048974233765 L 881.3350478239814 51.69669532189228 L 881.5674015907938 51.672390803172085 L 881.800281376468 51.649137848504814 L 882.0336638932196 51.626938783166544 L 882.2675258029914 51.60579582704531 L 882.5018437197872 51.58571109441911 L 882.7365942120107 51.56668659374447 L 882.9717538048083 51.54872422745561 L 883.2072989824167 51.53182579177417 L 883.4432061905143 51.515992976529645 L 883.679451838577 51.50122736499037 L 883.9160123022368 51.4875304337052 L 884.1528639256446 51.47490355235584 L 884.3899830238353 51.4633479836199 L 884.6273458850967 51.45286488304463 L 884.8649287733405 51.443455298931354 L 885.1027079304757 51.43512017223063 L 885.3406595787851 51.4278603364482 L 885.5787599233018 51.42167651756158 L 885.81698515419 51.41656933394751 L 886.055311449125 51.41253929632009 L 886.293714975676 51.40958680767973 L 886.5321718936889 51.407712163272826 L 886.7706583576708 51.40691555056227 L 887.0091505191738 51.40719704920866 L 887.2476245291806 51.40855663106237 L 887.486056540489 51.41099416016634 L 887.7244227100965 51.414509392769695 L 887.9626992015848 51.419101977352106 L 888.2008621875033 51.42477145465894 L 888.4388878517518 51.431517257747196 L 888.6767523919623 51.43933871204218 L 888.914432021879 51.44823503540498 L 889.151902973737 51.45820533821068 L 889.389141500639 51.4692486234373 L 889.6261238789299 51.48136378676553 L 889.8628264105695 51.49454961668913 L 890.0992254255018 51.50880479463608 L 890.3352972840224 51.524127895100484 L 890.5710183791421 51.54051738578506 L 890.8063651389477 51.5579716277544 L 891.0413140289596 51.57648887559884 L 891.2758415544844 51.59606727760904 L 891.5099242629651 51.6167048759611 L 891.7435387463258 51.6383996069124 L 891.9766616433129 51.66114930100791 L 892.209269641831 51.684951683297186 L 892.4413394812741 51.70980437356183 L 892.6728479548516 51.735704886553535 L 892.9037719119091 51.76265063224257 L 893.1340882602433 51.79063891607683 L 893.3637739684112 51.81966693925126 L 893.5928060680336 51.849731798987726 L 893.8211616560912 51.88083048882531 L 894.0488178972157 51.91295989892094 L 894.2757520259725 51.94611681636038 L 894.5019413491378 51.980297925479526 L 894.7273632479681 52.01549980819594 L 894.951995180461 52.0517189443507 L 895.1758146836107 52.08895171206036 L 895.3987993756533 52.127194388079175 L 895.6209269583053 52.16644314817141 L 895.8421752189938 52.20669406749378 L 896.0625220330769 52.247943120987884 L 896.2819453660568 52.29018618378274 L 896.5004232757832 52.33341903160728 L 896.7179339146471 52.37763734121275 L 896.9344555317659 52.422836690805035 L 897.1499664751583 52.46901256048684 L 897.3644451939095 52.516160332709674 L 897.5778702403265 52.564275292735616 L 897.7902202720825 52.613352629108746 L 898.0014740543512 52.663387434136325 L 898.2116104619304 52.71437470437956 L 898.4206084813544 52.7663093411539 L 898.6284472129956 52.819186151038956 L 898.8351058731539 52.8729998463978 L 899.0405637961356 52.92774504590574 L 899.2448004363196 52.983416275088445 L 899.4477953702119 53.040007966869396 L 899.6495282984885 53.09751446212657 L 899.8499790480246 53.15593001025836 L 900.0491275739122 53.21524876975863 L 900.2469539614648 53.27546480880087 L 900.4434384282084 53.33657210583136 L 900.6385613258602 53.3985645501713 L 900.832303142293 53.461435942627936 L 901.0246445034863 53.52517999611441 L 901.2155661754648 53.58979033627848 L 901.4050490662199 53.655260502139996 L 901.5930742276208 53.721583946736914 L 901.7796228573079 53.78875403778004 L 901.9646763005736 53.85676405831625 L 902.1482160522279 53.92560720740017 L 902.3302237584486 53.995276600774254 L 902.5106812186167 54.065765271557225 L 902.6895703871365 54.13706617094075 L 902.8668733752403 54.2091721688943 L 903.0425724527771 54.28207605487816 L 903.2166500499854 54.35577053856451 L 903.3890887592507 54.43024825056637 L 903.5598713368457 54.50550174317461 L 903.728980704655 54.581523491102686 L 903.8963999518826 54.658305892239156 L 904.0621123367434 54.73584126840789 L 904.2261012881371 54.81412186613588 L 904.3883504073051 54.89313985742859 L 904.5488434694707 54.97288734055273 L 904.7075644254616 55.05335634082646 L 904.8644974033141 55.1345388114168 L 905.0196267098614 55.21642663414435 L 905.1729368323023 55.29901162029506 L 905.324412439752 55.38228551143916 L 905.4740383847761 55.46623998025691 L 905.6217997049049 55.55086663137139 L 905.7676816241294 55.63615700218803 L 905.9116695543793 55.722102563740805 L 906.0537490969815 55.80869472154519 L 906.1939060441002 55.89592481645755 L 906.3321263801574 55.98378412554111 L 906.4683962832348 56.07226386293816 L 906.6027021264556 56.1613551807487 L 906.7350304793474 56.251049169915184 L 906.865368109185 56.34133686111345 L 906.9937019823144 56.4322092256496 L 907.1200192654551 56.52365717636293 L 907.2443073269837 56.615671568534566 L 907.3665537381981 56.70824320080196 L 907.4867462745589 56.80136281607904 L 907.6048729169125 56.89502110248188 L 907.7209218526932 56.98920869425987 L 907.8348814771041 57.083916172732344 L 907.9467403942778 57.17913406723036 L 908.0564874184156 57.27485285604382 L 908.1641115749068 57.37106296737362 L 908.2696021014252 57.467754780288786 L 908.3729484490062 57.56491862568861 L 908.4741402831012 57.662544787269525 L 908.5731674846111 57.76062350249672 L 908.670020150898 57.859144963580405 L 908.7646885967764 57.95809931845658 L 908.8571633554803 58.05747667177222 L 908.9474351796111 58.15726708587479 L 909.0354950420615 58.257460581806065 L 909.1213341369186 58.358047140299924 L 909.2049438803446 58.459016702784346 L 909.2863159114345 58.56035917238722 L 909.3654420930534 58.66206441494605 L 909.4423145126489 58.764122260021324 L 909.516925483043 58.866522501913586 L 909.589267543201 58.96925490068398 L 909.6593334589772 59.072309183178234 L 909.7271162238383 59.17567504405398 L 909.7926090595643 59.279342146811274 L 909.8558054169262 59.38330012482622 L 909.9166989763409 59.48753858238766 L 909.9752836485033 59.59204709573668 L 910.0315535749949 59.69681521410906 L 910.0855031288701 59.80183246078026 L 910.1371269152183 59.907088334113126 L 910.186419771704 60.012572308608036 L 910.2333767690826 60.11827383595545 L 910.2779932116935 60.22418234609071 L 910.3202646379295 60.33028724825106 L 910.3601868206833 60.43657793203471 L 910.39775576777 60.54304376846186 L 910.432967722326 60.64967411103757 L 910.4658191631854 60.75645829681646 L 910.4963068052313 60.86338564746893 L 910.524427599725 60.97044547034902 L 910.5501787346103 61.07762705956367 L 910.5735576347955 61.184919697043256 L 910.5945619624098 61.29231265361346 L 910.6131896170381 61.399795190068104 L 910.6294387359303 61.50735655824312 L 910.6433076941883 61.614986002091314 L 910.6547951049275 61.72267275875801 L 910.6638998194167 61.830406059657264 L 910.6706209271919 61.93817513154877 L 910.6749577561478 62.04596919761514 L 910.6769098726054 62.15377747853961 M 910.6770308626614 96.4920458931 L 910.6758384027577 96.59985643801662 L 910.6722611422916 96.70765620196859 L 910.6662994389864 96.81543440506935 L 910.657953889007 96.9231802695884 L 910.6472253269018 97.03088302102908 L 910.6341148255179 97.138531889206 L 910.6186236958947 97.24611610932205 L 910.6007534871321 97.35362492304485 L 910.5805059862361 97.46104757958265 L 910.5578832179399 97.5683733367593 L 910.5328874445015 97.67559146208852 L 910.5055211654775 97.78269123384712 L 910.4757871174729 97.88966194214719 L 910.4436882738678 97.99649289000702 L 910.4092278445197 98.10317339442086 L 910.3724092754429 98.20969278742717 L 910.3332362484635 98.31604041717543 L 910.2917126808518 98.42220564899125 L 910.2478427249298 98.52817786643996 L 910.2016307676564 98.6339464723881 L 910.1530814301891 98.73950089006323 L 910.102199567421 98.84483056411152 L 910.0489902674962 98.94992496165337 L 909.9934588512999 99.05477357333659 L 909.9356108719279 99.15936591438738 L 909.8754521141298 99.2636915256588 L 909.8129885937311 99.36773997467667 L 909.7482265570319 99.47150085668278 L 909.6811724801819 99.5749637956754 L 909.611833068533 99.67811844544686 L 909.5402152559683 99.78095449061813 L 909.4663262042096 99.8834616476704 L 909.3901733021006 99.98562966597338 L 909.3117641648678 100.08744832881038 L 909.2311066333597 100.18890745439998 L 909.1482087732622 100.28999689691415 L 909.0630788742924 100.39070654749288 L 908.975725449369 100.49102633525506 L 908.8861572337618 100.59094622830548 L 908.7943831842177 100.69045623473812 L 908.7004124780653 100.78954640363527 L 908.6042545122967 100.8882068260626 L 908.5059189026287 100.9864276360601 L 908.4054154825399 101.0841990116286 L 908.3027543022887 101.18151117571202 L 908.1979456279076 101.27835439717506 L 908.0909999401767 101.37471899177628 L 907.9819279335758 101.4705953231365 L 907.8707405152145 101.56597380370249 L 907.7574488037419 101.6608448957057 L 907.642064128235 101.75519911211595 L 907.5245980270649 101.84902701759025 L 907.405062246744 101.94231922941623 L 907.2834687407508 102.03506641845047 L 907.1598296683344 102.12725931005133 L 907.034157393299 102.2188886850065 L 906.9064644827675 102.30994538045483 L 906.7767637059245 102.40042029080266 L 906.6450680327396 102.49030436863434 L 906.5113906326703 102.579588625617 L 906.3757448733454 102.66826413339936 L 906.2381443192276 102.75632202450451 L 906.0986027302577 102.84375349321674 L 905.9571340604783 102.93054979646202 L 905.8137524566386 103.01670225468237 L 905.6684722567794 103.10220225270375 L 905.5213079887995 103.18704124059762 L 905.3722743690034 103.27121073453588 L 905.2213863006285 103.3547023176393 L 905.0686588723562 103.4375076408191 L 904.9141073568019 103.51961842361202 L 904.7577472089885 103.60102645500817 L 904.5995940648002 103.68172359427226 L 904.4396637394199 103.7617017717576 L 904.2779722257467 103.84095298971312 L 904.1145356927974 103.91946932308304 L 903.9493704840888 103.99724292029944 L 903.7824931160045 104.07426600406745 L 903.613920276142 104.15053087214287 L 903.4436688216449 104.22602989810241 L 903.2717557775168 104.30075553210642 L 903.0981983349187 104.37470030165377 L 902.9230138494504 104.44785681232914 L 902.7462198394144 104.52021774854238 L 902.5678339840644 104.59177587426021 L 902.3878741218371 104.66252403372968 L 902.206358248569 104.73245515219378 L 902.023304515696 104.80156223659897 L 901.8387312284391 104.86983837629438 L 901.6526568439729 104.93727674372295 L 901.4650999695809 105.0038705951041 L 901.2760793607943 105.06961327110824 L 901.0856139195164 105.13449819752252 L 900.8937226921325 105.19851888590837 L 900.7004248676058 105.26166893425032 L 900.5057397755572 105.32394202759615 L 900.309686884334 105.38533193868841 L 900.1122857990619 105.44583252858716 L 899.9135562596848 105.50543774728384 L 899.713518138991 105.56414163430621 L 899.5121914406261 105.62193831931454 L 899.3095962970921 105.67882202268845 L 899.1057529677342 105.73478705610502 L 898.900681836716 105.78982782310756 L 898.6944034109792 105.84393881966523 L 898.4869383181949 105.89711463472344 L 898.2783073046992 105.94934995074503 L 898.0685312334198 106.00063954424192 L 897.8576310817888 106.0509782862975 L 897.6456279396457 106.1003611430795 L 897.4325430071281 106.14878317634341 L 897.2183975925517 106.19623954392625 L 897.0032131102794 106.2427255002308 L 896.7870110785801 106.2882363967002 L 896.569813117477 106.33276768228268 L 896.351640946585 106.37631490388682 L 896.1325163829395 106.41887370682676 L 895.9124613388141 106.46043983525765 L 895.69149781953 106.50100913260128 L 895.469647921255 106.54057754196174 L 895.246933828794 106.57914110653107 L 895.0233778133705 106.61669596998493 L 894.7990022304001 106.65323837686829 L 894.5738295172538 106.6887646729709 L 894.3478821910154 106.72327130569276 L 894.1211828462292 106.75675482439937 L 893.8937541526408 106.78921188076673 L 893.6656188529299 106.82063922911627 L 893.4367997604367 106.85103372673933 L 893.2073197568793 106.8803923342115 L 892.9772017900673 106.90871211569649 L 892.7464688716052 106.93599023923973 L 892.5151440745929 106.96222397705162 L 892.283250531317 106.98741070578025 L 892.0508114309389 107.0115479067737 L 891.8178500171748 107.03463316633201 L 891.5843895859718 107.05666417594847 L 891.3504534831789 107.07763873254045 L 891.1160651022109 107.09755473866979 L 890.8812478817109 107.11641020275246 L 890.6460253032053 107.13420323925777 L 890.4104208887557 107.1509320688969 L 890.1744581986073 107.16659501880085 L 889.9381608288327 107.18119052268763 L 889.7015524089717 107.19471712101905 L 889.4646565996691 107.20717346114655 L 889.2274970903086 107.21855829744648 L 888.9900975966434 107.22887049144471 L 888.752481858425 107.23810901193042 L 888.5146736370293 107.24627293505928 L 888.2766967130802 107.25336144444577 L 888.0385748840719 107.25937383124486 L 887.8003319619887 107.26430949422287 L 887.5619917709244 107.26816793981763 L 887.3235781446994 107.27094878218779 L 887.0851149244776 107.27265174325143 L 886.8466259563825 107.27327665271386 L 886.6081350891119 107.27282344808465 L 886.3696661715541 107.27129217468391 L 886.1312430504018 107.26868298563768 L 885.8928895677689 107.2649961418627 L 885.6546295588045 107.26023201204026 L 885.4164868493112 107.2543910725794 L 885.1784852533616 107.24747390756917 L 884.9406485709168 107.23948120872033 L 884.7030005854468 107.23041377529609 L 884.4655650615523 107.22027251403225 L 884.2283657425876 107.20905843904646 L 883.9914263482872 107.1967726717369 L 883.7547705723929 107.18341644067004 L 883.5184220802851 107.16899108145788 L 883.282404506616 107.15349803662431 L 883.0467414529464 107.1369388554609 L 882.8114564853853 107.11931519387196 L 882.5765731322333 107.10062881420897 L 882.34211488163 107.08088158509435 L 882.1081051792052 107.0600754812345 L 881.8745674257337 107.03821258322252 L 881.6415249747969 107.01529507732995 L 881.4090011304452 106.99132525528832 L 881.1770191448693 106.96630551405984 L 880.9456022160747 106.94023835559778 L 880.7147734855612 106.91312638659626 L 880.4845560360096 106.88497231822961 L 880.254972888973 106.85577896588119 L 880.0260470025747 106.8255492488619 L 879.7978012692128 106.79428619011826 L 879.5702585132701 106.76199291593008 L 879.3434414888328 106.72867265559789 L 879.1173728774144 106.69432874111995 L 878.8920752856874 106.65896460685907 L 878.6675712432233 106.62258378919921 L 878.4438832002394 106.58518992619184 L 878.2210335253535 106.5467867571921 L 877.9990445033474 106.50737812248485 L 877.7779383329383 106.46696796290075 L 877.5577371245589 106.42556031942208 L 877.3384628981468 106.38315933277867 L 877.1201375809416 106.33976924303387 L 876.9027830052931 106.29539438916049 L 876.6864209064781 106.25003920860692 L 876.4710729205258 106.20370823685344 L 876.2567605820556 106.15640610695861 L 876.0435053221224 106.108137549096 L 875.831328466075 106.05890739008117 L 875.6202512314217 106.00872055288902 L 875.4102947257103 105.9575820561614 L 875.2014799444164 105.90549701370541 L 874.9938277688441 105.85247063398188 L 874.7873589640379 105.79850821958458 L 874.5820941767063 105.74361516670999 L 874.3780539331568 105.68779696461766 L 874.1752586372438 105.63105919508126 L 873.973728568328 105.5734075318305 L 873.7734838792484 105.51484773998365 L 873.5745445943068 105.45538567547108 L 873.376930607266 105.3950272844497 L 873.1806616793601 105.33377860270829 L 872.9857574373183 105.27164575506403 L 872.7922373714024 105.20863495474987 L 872.6001208334576 105.14475250279335 L 872.4094270349779 105.08000478738643 L 872.2201750451839 105.01439828324668 L 872.0323837891169 104.94793955096986 L 871.8460720457463 104.8806352363738 L 871.6612584460909 104.8124920698339 L 871.4779614713568 104.74351686560999 L 871.2961994510886 104.67371652116503 L 871.1159905613371 104.6030980164753 L 870.9373528228408 104.53166841333243 L 870.7603040992249 104.4594348546372 L 870.584862095214 104.38640456368528 L 870.4110443548626 104.31258484344491 L 870.2388682597997 104.2379830758266 L 870.0683510274913 104.16260672094495 L 869.8995097095187 104.08646331637262 L 869.7323611898728 104.00956047638662 L 869.5669221832665 103.93190589120688 L 869.4032092334622 103.85350732622719 L 869.241238711619 103.77437262123871 L 869.0810268146537 103.694509689646 L 868.9225895636225 103.61392651767568 L 868.7659428021187 103.53263116357778 L 868.6111021946879 103.45063175681996 L 868.4580832252616 103.36793649727457 L 868.3069011956093 103.28455365439865 L 868.157571223808 103.20049156640701 L 868.0101082427304 103.1157586394384 L 867.8645269985519 103.03036334671489 L 867.7208420492755 102.94431422769459 L 867.5790677632763 102.85761988721772 L 867.4392183178649 102.77028899464605 L 867.3013076978691 102.68233028299609 L 867.165349694236 102.5937525480657 L 867.031357902653 102.50456464755453 L 866.8993457221873 102.41477550017834 L 866.7693263539469 102.32439408477703 L 866.6413127997604 102.23342943941684 L 866.5153178608765 102.14189066048647 L 866.3913541366842 102.04978690178756 L 866.2694340234525 101.95712737361922 L 866.1495697130911 101.86392134185704 L 866.0317731919312 101.77017812702654 L 865.9160562395267 101.67590710337106 L 865.8024304274765 101.58111769791444 L 865.6909071182671 101.48581938951821 L 865.5814974641364 101.39002170793381 L 865.4742124059587 101.29373423284954 L 865.3690626721504 101.19696659293271 L 865.2660587775974 101.09972846486664 L 865.1652110226031 101.00202957238312 L 865.066529491859 100.90387968528998 L 864.9700240534361 100.80528861849413 L 864.8757043577976 100.70626623102011 L 864.7835798368346 100.60682242502413 L 864.6936597029224 100.50696714480392 L 864.6059529479995 100.40671037580431 L 864.5204683426682 100.30606214361863 L 864.437214435318 100.20503251298624 L 864.3561995512699 100.103631586786 L 864.2774317919451 100.00186950502604 L 864.2009190340539 99.89975644382972 L 864.126668928808 99.79730261441809 L 864.0546889011565 99.69451826208869 L 863.9849861490418 99.59141366519111 L 863.9175676426813 99.48799913409913 L 863.8524401238693 99.38428501017967 L 863.7896101053034 99.28028166475868 L 863.7290838699332 99.17599949808405 L 863.6708674703317 99.07144893828554 L 863.6149667280905 98.96664044033201 L 863.561387233237 98.86158448498593 L 863.5101343436762 98.75629157775525 L 863.4612131846544 98.65077224784297 L 863.4146286482465 98.54503704709414 L 863.3703853928677 98.43909654894075 L 863.3284878428062 98.33296134734431 L 863.2889401877825 98.22664205573652 L 863.2517463825288 98.12014930595798 L 863.216910146395 98.01349374719489 L 863.1844349629753 97.90668604491427 L 863.1543240797613 97.79973687979731 L 863.126580507816 97.69265694667143 L 863.1012070214737 97.58545695344071 L 863.0782061580617 97.47814762001512 L 863.0575802176472 97.37073967723859 L 863.0393312628071 97.26324386581588 L 863.0234611184217 97.15567093523856 L 863.0099713714922 97.04803164271006 L 862.9988633709819 96.94033675206991 L 862.9901382276819 96.83259703271744 L 862.9837968140989 96.7248232585348 L 862.9798397643693 96.6170262068096 L 862.9782674741946 96.50921665715717" stroke-miterlimit="10" stroke-width="2.7769845610000004" stroke-dasharray=""/></g><g><text fill="black" stroke="none" font-family="sans-serif" font-size="11pt" font-style="normal" font-weight="normal" text-decoration="normal" x="855.4496890983723" y="124.80095321200001" text-anchor="start" dominant-baseline="alphabetic" xml:space="preserve">Database</text></g></g><g><path fill="white" stroke="black" paint-order="fill stroke markers" d=" M 335.4797388436849 183.607685092 L 351.8149421436849 183.607685092 L 351.8149421436849 1019.9700940519997 L 335.4797388436849 1019.9700940519997 L 335.4797388436849 183.607685092" stroke-miterlimit="10" stroke-width="1.3612669416666667" stroke-dasharray=""/><path fill="white" stroke="black" paint-order="fill stroke markers" d=" M 573.027538110026 366.561962052 L 589.362741410026 366.561962052 L 589.362741410026 974.2315248119997 L 573.027538110026 974.2315248119997 L 573.027538110026 366.561962052" stroke-miterlimit="10" stroke-width="1.3612669416666667" stroke-dasharray=""/><path fill="white" stroke="black" paint-order="fill stroke markers" d=" M 725.8437852523437 412.300531292 L 742.1789885523438 412.300531292 L 742.1789885523438 549.516239012 L 725.8437852523437 549.516239012 L 725.8437852523437 412.300531292" stroke-miterlimit="10" stroke-width="1.3612669416666667" stroke-dasharray=""/><path fill="white" stroke="black" paint-order="fill stroke markers" d=" M 878.6600323946614 458.039100532 L 894.9952356946615 458.039100532 L 894.9952356946615 503.777669772 L 878.6600323946614 503.777669772 L 878.6600323946614 458.039100532" stroke-miterlimit="10" stroke-width="1.3612669416666667" stroke-dasharray=""/><path fill="white" stroke="black" paint-order="fill stroke markers" d=" M 725.8437852523437 774.9420445519999 L 742.1789885523438 774.9420445519999 L 742.1789885523438 912.1577522719997 L 725.8437852523437 912.1577522719997 L 725.8437852523437 774.9420445519999" stroke-miterlimit="10" stroke-width="1.3612669416666667" stroke-dasharray=""/><path fill="white" stroke="black" paint-order="fill stroke markers" d=" M 878.6600323946614 820.6806137919998 L 894.9952356946615 820.6806137919998 L 894.9952356946615 866.4191830319998 L 878.6600323946614 866.4191830319998 L 878.6600323946614 820.6806137919998" stroke-miterlimit="10" stroke-width="1.3612669416666667" stroke-dasharray=""/><g><g><rect fill="white" stroke="none" x="117.69163875906902" y="162.371920802" width="173.60487617554688" height="21.23576429"/></g><text fill="black" stroke="none" font-family="sans-serif" font-size="11pt" font-style="normal" font-weight="normal" text-decoration="normal" x="120.14191925406902" y="177.07360377199998" text-anchor="start" dominant-baseline="alphabetic" xml:space="preserve">Go to Account detail page</text></g><g><path fill="none" stroke="black" paint-order="fill stroke markers" d=" M 73.50841485 183.607685092 L 322.03042146001826 183.607685092" stroke-miterlimit="10" stroke-width="1.3612669416666667" stroke-dasharray=""/><g transform="translate(335.4797388436849,183.607685092) translate(-335.4797388436849,-183.607685092)"><path fill="black" stroke="none" paint-order="stroke fill markers" d=" M 321.86706942701824 176.80135038366666 L 335.4797388436849 183.607685092 L 321.86706942701824 190.41401980033334 Z"/></g></g><g><g><rect fill="white" stroke="none" x="149.8927801164909" y="208.110490042" width="109.20259346070313" height="21.23576429"/></g><text fill="black" stroke="none" font-family="sans-serif" font-size="11pt" font-style="normal" font-weight="normal" text-decoration="normal" x="152.3430606114909" y="222.812173012" text-anchor="start" dominant-baseline="alphabetic" xml:space="preserve">Click edit button</text></g><g><path fill="none" stroke="black" paint-order="fill stroke markers" d=" M 73.50841485 229.346254332 L 322.03042146001826 229.346254332" stroke-miterlimit="10" stroke-width="1.3612669416666667" stroke-dasharray=""/><g transform="translate(335.4797388436849,229.346254332) translate(-335.4797388436849,-229.346254332)"><path fill="black" stroke="none" paint-order="stroke fill markers" d=" M 321.86706942701824 222.53991962366666 L 335.4797388436849 229.346254332 L 321.86706942701824 236.15258904033334 Z"/></g></g><g><g><rect fill="white" stroke="none" x="104.25571041434246" y="253.849059282" width="200.476732865" height="21.23576429"/></g><text fill="black" stroke="none" font-family="sans-serif" font-size="11pt" font-style="normal" font-weight="normal" text-decoration="normal" x="106.70599090934246" y="268.550742252" text-anchor="start" dominant-baseline="alphabetic" xml:space="preserve">Update User information page</text></g><g><path fill="none" stroke="black" paint-order="fill stroke markers" d=" M 335.4797388436849 275.084823572 L 86.95773223366666 275.084823572" stroke-miterlimit="10" stroke-width="1.3612669416666667" stroke-dasharray="6.53408132"/><g transform="translate(73.50841485,275.084823572) translate(-73.50841485,-275.084823572)"><path fill="black" stroke="none" paint-order="stroke fill markers" d=" M 87.12108426666666 268.27848886366667 L 73.50841485 275.084823572 L 87.12108426666666 281.89115828033334 Z"/></g></g><g><g><rect fill="white" stroke="none" x="92.83840542166668" y="299.587628522" width="223.31134285035156" height="21.23576429"/></g><text fill="black" stroke="none" font-family="sans-serif" font-size="11pt" font-style="normal" font-weight="normal" text-decoration="normal" x="95.28868591666668" y="314.28931149199997" text-anchor="start" dominant-baseline="alphabetic" xml:space="preserve">Type update value and click Save</text></g><g><path fill="none" stroke="black" paint-order="fill stroke markers" d=" M 73.50841485 320.823392812 L 322.03042146001826 320.823392812" stroke-miterlimit="10" stroke-width="1.3612669416666667" stroke-dasharray=""/><g transform="translate(335.4797388436849,320.823392812) translate(-335.4797388436849,-320.823392812)"><path fill="black" stroke="none" paint-order="stroke fill markers" d=" M 321.86706942701824 314.01705810366667 L 335.4797388436849 320.823392812 L 321.86706942701824 327.62972752033335 Z"/></g></g><g><g><rect fill="white" stroke="none" x="401.2988176030468" y="345.326197762" width="122.24484504761719" height="21.23576429"/></g><text fill="black" stroke="none" font-family="sans-serif" font-size="11pt" font-style="normal" font-weight="normal" text-decoration="normal" x="403.74909809804683" y="360.02788073199997" text-anchor="start" dominant-baseline="alphabetic" xml:space="preserve">PUT: /api/user/{id}</text></g><g><path fill="none" stroke="black" paint-order="fill stroke markers" d=" M 351.8149421436849 366.561962052 L 559.5782207263593 366.561962052" stroke-miterlimit="10" stroke-width="1.3612669416666667" stroke-dasharray=""/><g transform="translate(573.027538110026,366.561962052) translate(-573.027538110026,-366.561962052)"><path fill="black" stroke="none" paint-order="stroke fill markers" d=" M 559.4148686933593 359.7556273436667 L 573.027538110026 366.561962052 L 559.4148686933593 373.36829676033335 Z"/></g></g><g><g><rect fill="white" stroke="none" x="623.3885175041536" y="391.064767002" width="68.4294916540625" height="21.23576429"/></g><text fill="black" stroke="none" font-family="sans-serif" font-size="11pt" font-style="normal" font-weight="normal" text-decoration="normal" x="625.8387979991536" y="405.766449972" text-anchor="start" dominant-baseline="alphabetic" xml:space="preserve">isExist(id)</text></g><g><path fill="none" stroke="black" paint-order="fill stroke markers" d=" M 589.362741410026 412.300531292 L 712.394467868677 412.300531292" stroke-miterlimit="10" stroke-width="1.3612669416666667" stroke-dasharray=""/><g transform="translate(725.8437852523437,412.300531292) translate(-725.8437852523437,-412.300531292)"><path fill="black" stroke="none" paint-order="stroke fill markers" d=" M 712.231115835677 405.4941965836667 L 725.8437852523437 412.300531292 L 712.231115835677 419.10686600033335 Z"/></g></g><g><g><rect fill="white" stroke="none" x="776.2047646464713" y="436.803336242" width="68.4294916540625" height="21.23576429"/></g><text fill="black" stroke="none" font-family="sans-serif" font-size="11pt" font-style="normal" font-weight="normal" text-decoration="normal" x="778.6550451414713" y="451.505019212" text-anchor="start" dominant-baseline="alphabetic" xml:space="preserve">isExist(id)</text></g><g><path fill="none" stroke="black" paint-order="fill stroke markers" d=" M 742.1789885523438 458.039100532 L 865.2107150109947 458.039100532" stroke-miterlimit="10" stroke-width="1.3612669416666667" stroke-dasharray=""/><g transform="translate(878.6600323946614,458.039100532) translate(-878.6600323946614,-458.039100532)"><path fill="black" stroke="none" paint-order="stroke fill markers" d=" M 865.0473629779947 451.2327658236667 L 878.6600323946614 458.039100532 L 865.0473629779947 464.84543524033336 Z"/></g></g><g><g><rect fill="white" stroke="none" x="761.5089791240104" y="482.541905482" width="97.82106269898438" height="21.23576429"/></g><text fill="black" stroke="none" font-family="sans-serif" font-size="11pt" font-style="normal" font-weight="normal" text-decoration="normal" x="763.9592596190104" y="497.243588452" text-anchor="start" dominant-baseline="alphabetic" xml:space="preserve">Boolean value</text></g><g><path fill="none" stroke="black" paint-order="fill stroke markers" d=" M 878.6600323946614 503.777669772 L 755.6283059360104 503.777669772" stroke-miterlimit="10" stroke-width="1.3612669416666667" stroke-dasharray="6.53408132"/><g transform="translate(742.1789885523438,503.777669772) translate(-742.1789885523438,-503.777669772)"><path fill="black" stroke="none" paint-order="stroke fill markers" d=" M 755.7916579690104 496.9713350636667 L 742.1789885523438 503.777669772 L 755.7916579690104 510.58400448033336 Z"/></g></g><g><g><rect fill="white" stroke="none" x="608.6927319816926" y="528.280474722" width="97.82106269898438" height="21.23576429"/></g><text fill="black" stroke="none" font-family="sans-serif" font-size="11pt" font-style="normal" font-weight="normal" text-decoration="normal" x="611.1430124766927" y="542.982157692" text-anchor="start" dominant-baseline="alphabetic" xml:space="preserve">Boolean value</text></g><g><path fill="none" stroke="black" paint-order="fill stroke markers" d=" M 725.8437852523437 549.516239012 L 602.8120587936927 549.516239012" stroke-miterlimit="10" stroke-width="1.3612669416666667" stroke-dasharray="6.53408132"/><g transform="translate(589.362741410026,549.516239012) translate(-589.362741410026,-549.516239012)"><path fill="black" stroke="none" paint-order="stroke fill markers" d=" M 602.9754108266927 542.7099043036667 L 589.362741410026 549.516239012 L 602.9754108266927 556.3225737203334 Z"/></g></g><g><g><rect fill="white" stroke="none" x="402.1362962407421" y="618.1240928719999" width="120.56988777222656" height="21.23576429"/></g><text fill="red" stroke="none" font-family="sans-serif" font-size="11pt" font-style="normal" font-weight="normal" text-decoration="normal" x="404.58657673574214" y="632.8257758419999" text-anchor="start" dominant-baseline="alphabetic" xml:space="preserve">404 NOT FOUND</text></g><g><path fill="none" stroke="black" paint-order="fill stroke markers" d=" M 573.027538110026 639.3598571619999 L 365.26425952735156 639.3598571619999" stroke-miterlimit="10" stroke-width="1.3612669416666667" stroke-dasharray="6.53408132"/><g transform="translate(351.8149421436849,639.3598571619999) translate(-351.8149421436849,-639.3598571619999)"><path fill="black" stroke="none" paint-order="stroke fill markers" d=" M 365.4276115603516 632.5535224536666 L 351.8149421436849 639.3598571619999 L 365.4276115603516 646.1661918703333 Z"/></g></g><g><g><rect fill="white" stroke="none" x="103.44325619070965" y="663.8626621119998" width="202.10164131226563" height="21.23576429"/></g><text fill="black" stroke="none" font-family="sans-serif" font-size="11pt" font-style="normal" font-weight="normal" text-decoration="normal" x="105.89353668570965" y="678.5643450819998" text-anchor="start" dominant-baseline="alphabetic" xml:space="preserve">Display 404 Not Found screen</text></g><g><path fill="none" stroke="black" paint-order="fill stroke markers" d=" M 335.4797388436849 685.0984264019999 L 86.95773223366666 685.0984264019999" stroke-miterlimit="10" stroke-width="1.3612669416666667" stroke-dasharray="6.53408132"/><g transform="translate(73.50841485,685.0984264019999) translate(-73.50841485,-685.0984264019999)"><path fill="black" stroke="none" paint-order="stroke fill markers" d=" M 87.12108426666666 678.2920916936665 L 73.50841485 685.0984264019999 L 87.12108426666666 691.9047611103332 Z"/></g></g><g><g><rect fill="white" stroke="none" x="634.7879315666536" y="753.7062802619998" width="45.6306635290625" height="21.23576429"/></g><text fill="black" stroke="none" font-family="sans-serif" font-size="11pt" font-style="normal" font-weight="normal" text-decoration="normal" x="637.2382120616536" y="768.4079632319998" text-anchor="start" dominant-baseline="alphabetic" xml:space="preserve">save()</text></g><g><path fill="none" stroke="black" paint-order="fill stroke markers" d=" M 589.362741410026 774.9420445519999 L 712.394467868677 774.9420445519999" stroke-miterlimit="10" stroke-width="1.3612669416666667" stroke-dasharray=""/><g transform="translate(725.8437852523437,774.9420445519999) translate(-725.8437852523437,-774.9420445519999)"><path fill="black" stroke="none" paint-order="stroke fill markers" d=" M 712.231115835677 768.1357098436665 L 725.8437852523437 774.9420445519999 L 712.231115835677 781.7483792603332 Z"/></g></g><g><g><rect fill="white" stroke="none" x="787.6041787089713" y="799.4448495019998" width="45.6306635290625" height="21.23576429"/></g><text fill="black" stroke="none" font-family="sans-serif" font-size="11pt" font-style="normal" font-weight="normal" text-decoration="normal" x="790.0544592039713" y="814.1465324719998" text-anchor="start" dominant-baseline="alphabetic" xml:space="preserve">save()</text></g><g><path fill="none" stroke="black" paint-order="fill stroke markers" d=" M 742.1789885523438 820.6806137919998 L 865.2107150109947 820.6806137919998" stroke-miterlimit="10" stroke-width="1.3612669416666667" stroke-dasharray=""/><g transform="translate(878.6600323946614,820.6806137919998) translate(-878.6600323946614,-820.6806137919998)"><path fill="black" stroke="none" paint-order="stroke fill markers" d=" M 865.0473629779947 813.8742790836665 L 878.6600323946614 820.6806137919998 L 865.0473629779947 827.4869485003331 Z"/></g></g><g><g><rect fill="white" stroke="none" x="776.1904290141471" y="845.1834187419997" width="68.45816291871094" height="21.23576429"/></g><text fill="black" stroke="none" font-family="sans-serif" font-size="11pt" font-style="normal" font-weight="normal" text-decoration="normal" x="778.6407095091471" y="859.8851017119997" text-anchor="start" dominant-baseline="alphabetic" xml:space="preserve">User data</text></g><g><path fill="none" stroke="black" paint-order="fill stroke markers" d=" M 878.6600323946614 866.4191830319998 L 755.6283059360104 866.4191830319998" stroke-miterlimit="10" stroke-width="1.3612669416666667" stroke-dasharray="6.53408132"/><g transform="translate(742.1789885523438,866.4191830319998) translate(-742.1789885523438,-866.4191830319998)"><path fill="black" stroke="none" paint-order="stroke fill markers" d=" M 755.7916579690104 859.6128483236664 L 742.1789885523438 866.4191830319998 L 755.7916579690104 873.2255177403331 Z"/></g></g><g><g><rect fill="white" stroke="none" x="623.3741818718294" y="890.9219879819997" width="68.45816291871094" height="21.23576429"/></g><text fill="black" stroke="none" font-family="sans-serif" font-size="11pt" font-style="normal" font-weight="normal" text-decoration="normal" x="625.8244623668294" y="905.6236709519997" text-anchor="start" dominant-baseline="alphabetic" xml:space="preserve">User data</text></g><g><path fill="none" stroke="black" paint-order="fill stroke markers" d=" M 725.8437852523437 912.1577522719997 L 602.8120587936927 912.1577522719997" stroke-miterlimit="10" stroke-width="1.3612669416666667" stroke-dasharray="6.53408132"/><g transform="translate(589.362741410026,912.1577522719997) translate(-589.362741410026,-912.1577522719997)"><path fill="black" stroke="none" paint-order="stroke fill markers" d=" M 602.9754108266927 905.3514175636664 L 589.362741410026 912.1577522719997 L 602.9754108266927 918.964086980333 Z"/></g></g><g><g><rect fill="white" stroke="none" x="371.1449327153515" y="936.6605572219997" width="54.61422981324219" height="21.23576429"/></g><g><rect fill="white" stroke="none" x="371.1449327153515" y="952.9957605219997" width="182.55261482300781" height="21.23576429"/></g><text fill="green" stroke="none" font-family="sans-serif" font-size="11pt" font-style="normal" font-weight="normal" text-decoration="normal" x="373.5952132103515" y="951.3622401919997" text-anchor="start" dominant-baseline="alphabetic" xml:space="preserve">200 OK</text><text fill="green" stroke="none" font-family="sans-serif" font-size="11pt" font-style="normal" font-weight="normal" text-decoration="normal" x="373.5952132103515" y="967.6974434919997" text-anchor="start" dominant-baseline="alphabetic" xml:space="preserve">Response body: User data </text></g><g><path fill="none" stroke="black" paint-order="fill stroke markers" d=" M 573.027538110026 974.2315248119997 L 365.26425952735156 974.2315248119997" stroke-miterlimit="10" stroke-width="1.3612669416666667" stroke-dasharray="6.53408132"/><g transform="translate(351.8149421436849,974.2315248119997) translate(-351.8149421436849,-974.2315248119997)"><path fill="black" stroke="none" paint-order="stroke fill markers" d=" M 365.4276115603516 967.4251901036664 L 351.8149421436849 974.2315248119997 L 365.4276115603516 981.0378595203331 Z"/></g></g><g><g><rect fill="white" stroke="none" x="140.93788509695966" y="998.7343297619997" width="127.11238349976563" height="21.23576429"/></g><text fill="black" stroke="none" font-family="sans-serif" font-size="11pt" font-style="normal" font-weight="normal" text-decoration="normal" x="143.38816559195965" y="1013.4360127319997" text-anchor="start" dominant-baseline="alphabetic" xml:space="preserve">Display User detail</text></g><g><path fill="none" stroke="black" paint-order="fill stroke markers" d=" M 335.4797388436849 1019.9700940519997 L 86.95773223366666 1019.9700940519997" stroke-miterlimit="10" stroke-width="1.3612669416666667" stroke-dasharray="6.53408132"/><g transform="translate(73.50841485,1019.9700940519997) translate(-73.50841485,-1019.9700940519997)"><path fill="black" stroke="none" paint-order="stroke fill markers" d=" M 87.12108426666666 1013.1637593436664 L 73.50841485 1019.9700940519997 L 87.12108426666666 1026.776428760333 Z"/></g></g><g><g/><path fill="none" stroke="black" paint-order="fill stroke markers" d=" M 16.335203299999996 574.019043962 L 944.0008455946614 574.019043962 L 944.0008455946614 1044.4728990019996 L 16.335203299999996 1044.4728990019996 L 16.335203299999996 574.019043962 Z" stroke-miterlimit="10" stroke-width="2.3336004714285714" stroke-dasharray=""/><path fill="white" stroke="black" paint-order="fill stroke markers" d=" M 16.335203299999996 574.019043962 L 16.335203299999996 593.621287922 L 62.69440689707031 593.621287922 L 72.49552887707031 583.8201659419999 L 72.49552887707031 574.019043962 L 16.335203299999996 574.019043962" stroke-miterlimit="10" stroke-width="2.3336004714285714" stroke-dasharray=""/><text fill="black" stroke="none" font-family="sans-serif" font-size="8.8pt" font-style="normal" font-weight="bold" text-decoration="normal" x="32.67040659999999" y="587.0872066019999" text-anchor="start" dominant-baseline="alphabetic" xml:space="preserve">alt</text><g><rect fill="white" stroke="none" x="86.38045168207032" y="575.3258602259999" width="131.34727729859375" height="16.988611432000003"/></g><text fill="black" stroke="none" font-family="sans-serif" font-size="8.8pt" font-style="normal" font-weight="bold" text-decoration="normal" x="88.83073217707032" y="587.0872066019999" text-anchor="start" dominant-baseline="alphabetic" xml:space="preserve">[If no User matches id]</text><g><path fill="none" stroke="black" paint-order="fill stroke markers" d=" M 16.335203299999996 709.6012313519999 L 944.0008455946614 709.6012313519999" stroke-miterlimit="10" stroke-width="2.3336004714285714" stroke-dasharray="4.083800825"/></g><g/><g><rect fill="white" stroke="none" x="86.38045168207032" y="710.9080476159999" width="36.84300483765625" height="16.988611432000003"/></g><text fill="black" stroke="none" font-family="sans-serif" font-size="8.8pt" font-style="normal" font-weight="bold" text-decoration="normal" x="88.83073217707032" y="722.6693939919999" text-anchor="start" dominant-baseline="alphabetic" xml:space="preserve">[Else]</text></g><g/></g></g></svg>