<svg version="1.1" xmlns="http://www.w3.org/2000/svg" xmlns:xlink="http://www.w3.org/1999/xlink" width="1111" height="1599"><desc>%20title%20Create%20Group%20with%20type%20Department%20or%20Normal%0A%0Aactor%20%23green%3A0.5%20%22Workspace%20Admin%22%20as%20w%0Aboundary%20%22Update%20Group%20popup%22%20as%20f%0Acontrol%20%22Group%20Controller%22%20as%20gc%0Aparticipant%20%22Group%20Service%22%20as%20gs%0Adatabase%20%23blue%3A1%20%22Database%22%20as%20db%0A%0Aw-%3Ef%3AGo%20to%20Update%20Group%20popup%0Aactivate%20f%0Aw%3C--f%3ADisplay%20Update%20Group%20popup%0A%0Aw-%3Ef%3AUpdate%20name%20of%20group%0Af-%3Ef%3AValidate%20input%20data%0Aactivate%20f%0Af--%3Ef%3A%20Validate%20value%0Adeactivate%20f%0Aalt%20If%20the%20input%20data%20is%20wrong%0Aw%3C--f%3AValidate%20Message%0Aend%0Aw-%3Ef%3AClick%20Save%0Af-%3Egc%3APUT%3A%20%2Fapi%2Fgroup%0Aactivate%20gc%0Aalt%20if%20Name%20do%20not%20have%20value%0Af%3C--gc%3A%3Ccolor%3A%23red%3E400%20BAD_REQUEST%3A%20Missing%20required%20property%3C%2Fcolor%3E%0Aw%3C--f%3AName%20is%20required%0Aelse%20Else%0Agc-%3Egs%3AisExist(id)%0Aactivate%20gs%0Ags-%3Edb%3AexistsById(id)%0Aactivate%20db%0Ags%3C--db%3A%20Boolean%20value%0Adeactivate%20db%0Agc%3C--gs%3ABoolean%20value%0Adeactivate%20gs%0Aalt%20If%20group%20is%20not%20exist%0Af%3C--gc%3A%3Ccolor%3A%23red%3E404%20NOT%20FOUND%3C%2Fcolor%3E%0Aw%3C--f%3AClose%20popup%0Aw%3C--f%3A%20Message%20Update%20fail%0Aelse%20Else%0Agc-%3Egs%3Asave()%0Aactivate%20gs%0Ags-%3Edb%3AUpdate%20Group%0Aactivate%20db%0Ags%3C--db%3AGroup%20entity%0Adeactivate%20db%0Agc%3C--gs%3AGroup%20data%0Adeactivate%20gs%0Af%3C--gc%3A%3Ccolor%3A%23green%3E200%20OK%5CnResponse%20body%3A%20Group%20data%3C%2Fcolor%3E%0Adeactivate%20gc%0Aw%3C--f%3A%20Display%20Group%20detail%0Adeactivate%20f%0Aend%0Aend%0A%0A%0A%0A</desc><defs/><g><g/><g/><g/><g/><g/><g/><g/><g/><g/><g/><g/><g/><g/><g/><g/><g/><g/><g/><g/><g/><g/><g/><g/><g/><g/><g/><g/><g/><g/><g><rect fill="white" stroke="none" x="0" y="0" width="1111" height="1599"/></g><g><text fill="black" stroke="none" font-family="sans-serif" font-size="16.5pt" font-style="normal" font-weight="normal" text-decoration="normal" x="331.00535545934235" y="24.50280495" text-anchor="start" dominant-baseline="alphabetic" xml:space="preserve">Create Group with type Department or Normal</text></g><g/><g><path fill="none" stroke="black" paint-order="fill stroke markers" d=" M 89.84361815 129.701514202 L 89.84361815 1599.869811202" stroke-miterlimit="10" stroke-width="1.3612669416666667" stroke-dasharray="12.565541,5.445067766666667"/><path fill="none" stroke="black" paint-order="fill stroke markers" d=" M 330.64114364720047 129.701514202 L 330.64114364720047 1599.869811202" stroke-miterlimit="10" stroke-width="1.3612669416666667" stroke-dasharray="12.565541,5.445067766666667"/><path fill="none" stroke="black" paint-order="fill stroke markers" d=" M 708.3250046465494 129.701514202 L 708.3250046465494 1599.869811202" stroke-miterlimit="10" stroke-width="1.3612669416666667" stroke-dasharray="12.565541,5.445067766666667"/><path fill="none" stroke="black" paint-order="fill stroke markers" d=" M 861.1412517888671 129.701514202 L 861.1412517888671 1599.869811202" stroke-miterlimit="10" stroke-width="1.3612669416666667" stroke-dasharray="12.565541,5.445067766666667"/><path fill="none" stroke="black" paint-order="fill stroke markers" d=" M 1013.9574989311848 129.701514202 L 1013.9574989311848 1599.869811202" stroke-miterlimit="10" stroke-width="1.3612669416666667" stroke-dasharray="12.565541,5.445067766666667"/></g><g><g><path fill="white" stroke="green" paint-order="fill stroke markers" d=" M 99.154684031 60.60360424300001 A 9.311065881 9.311065881 0 1 1 99.15467937546744 60.594293178670846 M 89.84361815 69.91467012400001 L 89.84361815 89.84361815000001 M 78.08227177399999 77.102159576 L 101.604964526 77.102159576 M 89.84361815 89.84361815000001 L 78.08227177399999 108.465749912 M 89.84361815 89.84361815000001 L 101.604964526 108.465749912" stroke-miterlimit="10" stroke-width="1.3884922805000002" stroke-dasharray=""/></g><g><text fill="black" stroke="none" font-family="sans-serif" font-size="11pt" font-style="normal" font-weight="normal" text-decoration="normal" x="30.50219511533203" y="124.80095321200001" text-anchor="start" dominant-baseline="alphabetic" xml:space="preserve">Workspace Admin</text></g><g><path fill="white" stroke="black" paint-order="fill stroke markers" d=" M 363.06652219770046 82.819480731 A 24.2577769005 24.2577769005 0 1 1 363.06651006881305 82.79522295814245 M 299.60425737720044 57.17321154999999 L 299.60425737720044 108.465749912 M 298.21576509670047 82.819480731 L 314.55096839670045 82.819480731" stroke-miterlimit="10" stroke-width="2.7769845610000004" stroke-dasharray=""/></g><g><text fill="black" stroke="none" font-family="sans-serif" font-size="11pt" font-style="normal" font-weight="normal" text-decoration="normal" x="262.17658981419265" y="124.80095321200001" text-anchor="start" dominant-baseline="alphabetic" xml:space="preserve">Update Group popup</text></g><g><path fill="white" stroke="black" paint-order="fill stroke markers" d=" M 732.5827815470493 82.819480731 A 24.2577769005 24.2577769005 0 1 1 732.5827694181619 82.79522295814245 M 705.0579639865493 58.561703830499994 L 714.8590859665493 50.39410218049999 M 705.0579639865493 58.561703830499994 L 714.8590859665493 66.72930548049999" stroke-miterlimit="10" stroke-width="2.7769845610000004" stroke-dasharray=""/></g><g><text fill="black" stroke="none" font-family="sans-serif" font-size="11pt" font-style="normal" font-weight="normal" text-decoration="normal" x="654.1410599444009" y="124.80095321200001" text-anchor="start" dominant-baseline="alphabetic" xml:space="preserve">Group Controller</text></g><path fill="none" stroke="none"/><g><path fill="white" stroke="black" paint-order="fill stroke markers" d=" M 796.5671838939139 85.75981732500001 L 925.7153196838202 85.75981732500001 L 925.7153196838202 129.701514202 L 796.5671838939139 129.701514202 L 796.5671838939139 85.75981732500001 Z" stroke-miterlimit="10" stroke-width="2.613632528" stroke-dasharray=""/></g><g><text fill="black" stroke="none" font-family="sans-serif" font-size="11pt" font-style="normal" font-weight="normal" text-decoration="normal" x="814.2908794744139" y="113.36631090200002" text-anchor="start" dominant-baseline="alphabetic" xml:space="preserve">Group Service</text></g><g><path fill="white" stroke="blue" paint-order="fill stroke markers" d=" M 990.1081021131848 97.684515734 L 990.1081021131848 63.380588804000006 L 1037.8068957491848 63.380588804000006 L 1037.8068957491848 97.684515734" stroke-miterlimit="10" stroke-width="2.7769845610000004" stroke-dasharray=""/><path fill="white" stroke="blue" paint-order="fill stroke markers" d=" M 1037.8068957491848 62.1881189631 L 1037.8057032892812 62.29592950801663 L 1037.802126028815 62.403729271968594 L 1037.7961643255096 62.51150747506936 L 1037.7878187755305 62.619253339588404 L 1037.7770902134253 62.72695609102909 L 1037.7639797120414 62.834604959206004 L 1037.748488582418 62.94218917932205 L 1037.7306183736555 63.04969799304486 L 1037.7103708727595 63.15712064958265 L 1037.6877481044633 63.2644464067593 L 1037.6627523310249 63.371664532088516 L 1037.635386052001 63.47876430384712 L 1037.6056520039963 63.58573501214718 L 1037.5735531603912 63.692565960007016 L 1037.539092731043 63.79924646442086 L 1037.5022741619662 63.90576585742718 L 1037.463101134987 64.01211348717543 L 1037.4215775673752 64.11827871899126 L 1037.3777076114532 64.22425093643996 L 1037.33149565418 64.3300195423881 L 1037.2829463167125 64.43557396006322 L 1037.2320644539445 64.54090363411153 L 1037.1788551540194 64.64599803165338 L 1037.1233237378233 64.75084664333659 L 1037.0654757584514 64.85543898438739 L 1037.0053170006531 64.95976459565881 L 1036.9428534802544 65.06381304467668 L 1036.8780914435554 65.16757392668278 L 1036.8110373667052 65.27103686567541 L 1036.7416979550562 65.37419151544687 L 1036.6700801424918 65.47702756061814 L 1036.596191090733 65.5795347176704 L 1036.5200381886239 65.68170273597339 L 1036.4416290513911 65.7835213988104 L 1036.3609715198832 65.88498052439998 L 1036.2780736597856 65.98606996691414 L 1036.1929437608158 66.08677961749288 L 1036.1055903358924 66.18709940525505 L 1036.0160221202852 66.28701929830548 L 1035.924248070741 66.38652930473813 L 1035.8302773645887 66.48561947363528 L 1035.7341193988202 66.58427989606261 L 1035.635783789152 66.6825007060601 L 1035.5352803690632 66.7802720816286 L 1035.432619188812 66.87758424571203 L 1035.327810514431 66.97442746717506 L 1035.2208648267 67.07079206177627 L 1035.1117928200993 67.1666683931365 L 1035.0006054017379 67.2620468737025 L 1034.8873136902653 67.35691796570569 L 1034.7719290147584 67.45127218211596 L 1034.6544629135883 67.54510008759026 L 1034.5349271332675 67.63839229941624 L 1034.4133336272741 67.73113948845047 L 1034.2896945548578 67.82333238005134 L 1034.1640222798223 67.9149617550065 L 1034.0363293692908 68.00601845045483 L 1033.906628592448 68.09649336080267 L 1033.774932919263 68.18637743863435 L 1033.6412555191937 68.27566169561702 L 1033.5056097598688 68.36433720339936 L 1033.368009205751 68.45239509450451 L 1033.228467616781 68.53982656321674 L 1033.0869989470018 68.62662286646201 L 1032.943617343162 68.71277532468237 L 1032.7983371433027 68.79827532270376 L 1032.651172875323 68.88311431059763 L 1032.5021392555268 68.9672838045359 L 1032.351251187152 69.0507753876393 L 1032.1985237588797 69.13358071081912 L 1032.0439722433252 69.21569149361203 L 1031.8876120955117 69.29709952500816 L 1031.7294589513235 69.37779666427225 L 1031.5695286259433 69.45777484175761 L 1031.40783711227 69.53702605971311 L 1031.2444005793207 69.61554239308303 L 1031.0792353706122 69.69331599029945 L 1030.912358002528 69.77033907406746 L 1030.7437851626655 69.84660394214286 L 1030.5735337081683 69.92210296810242 L 1030.4016206640401 69.99682860210643 L 1030.2280632214422 70.07077337165379 L 1030.0528787359738 70.14392988232913 L 1029.8760847259377 70.21629081854239 L 1029.6976988705876 70.28784894426022 L 1029.5177390083604 70.35859710372968 L 1029.3362231350923 70.42852822219379 L 1029.1531694022194 70.49763530659898 L 1028.9685961149623 70.5659114462944 L 1028.7825217304962 70.63334981372294 L 1028.5949648561043 70.69994366510412 L 1028.4059442473176 70.76568634110825 L 1028.2154788060398 70.83057126752253 L 1028.023587578656 70.89459195590838 L 1027.8302897541291 70.95774200425032 L 1027.6356046620806 71.02001509759614 L 1027.4395517708574 71.08140500868842 L 1027.2421506855853 71.14190559858717 L 1027.0434211462082 71.20151081728383 L 1026.8433830255144 71.26021470430622 L 1026.6420563271495 71.31801138931453 L 1026.4394611836153 71.37489509268845 L 1026.2356178542577 71.43086012610503 L 1026.0305467232392 71.48590089310757 L 1025.8242682975026 71.54001188966522 L 1025.6168032047183 71.59318770472345 L 1025.4081721912225 71.64542302074504 L 1025.198396119943 71.69671261424193 L 1024.987495968312 71.7470513562975 L 1024.775492826169 71.79643421307951 L 1024.5624078936514 71.84485624634341 L 1024.348262479075 71.89231261392625 L 1024.1330779968027 71.93879857023082 L 1023.9168759651035 71.9843094667002 L 1023.6996780040004 72.02884075228269 L 1023.4815058331084 72.07238797388683 L 1023.2623812694628 72.11494677682676 L 1023.0423262253374 72.15651290525764 L 1022.8213627060534 72.19708220260128 L 1022.5995128077784 72.23665061196175 L 1022.3767987153174 72.27521417653107 L 1022.1532426998939 72.31276903998494 L 1021.9288671169235 72.3493114468683 L 1021.7036944037771 72.38483774297092 L 1021.4777470775388 72.41934437569277 L 1021.2510477327526 72.45282789439938 L 1021.0236190391641 72.48528495076673 L 1020.7954837394533 72.51671229911628 L 1020.56666464696 72.54710679673934 L 1020.3371846434027 72.5764654042115 L 1020.1070666765906 72.60478518569649 L 1019.8763337581286 72.63206330923974 L 1019.6450089611162 72.65829704705163 L 1019.4131154178403 72.68348377578025 L 1019.1806763174623 72.70762097677371 L 1018.9477149036982 72.73070623633201 L 1018.7142544724952 72.75273724594847 L 1018.4803183697022 72.77371180254045 L 1018.2459299887342 72.79362780866978 L 1018.0111127682343 72.81248327275246 L 1017.7758901897287 72.83027630925778 L 1017.540285775279 72.84700513889692 L 1017.3043230851307 72.86266808880085 L 1017.068025715356 72.87726359268764 L 1016.831417295495 72.89079019101906 L 1016.5945214861924 72.90324653114655 L 1016.357361976832 72.91463136744649 L 1016.1199624831668 72.9249435614447 L 1015.8823467449483 72.93418208193043 L 1015.6445385235527 72.94234600505929 L 1015.4065615996036 72.94943451444577 L 1015.1684397705952 72.95544690124485 L 1014.9301968485121 72.96038256422287 L 1014.6918566574477 72.96424100981763 L 1014.4534430312227 72.9670218521878 L 1014.214979811001 72.96872481325143 L 1013.9764908429058 72.96934972271386 L 1013.7379999756353 72.96889651808466 L 1013.4995310580774 72.96736524468392 L 1013.2611079369252 72.96475605563768 L 1013.0227544542922 72.96106921186271 L 1012.7844944453278 72.95630508204027 L 1012.5463517358346 72.9504641425794 L 1012.308350139885 72.94354697756918 L 1012.0705134574401 72.93555427872033 L 1011.8328654719702 72.9264868452961 L 1011.5954299480757 72.91634558403224 L 1011.358230629111 72.90513150904647 L 1011.1212912348105 72.89284574173689 L 1010.8846354589163 72.87948951067006 L 1010.6482869668084 72.86506415145789 L 1010.4122693931394 72.84957110662431 L 1010.1766063394698 72.8330119254609 L 1009.9413213719087 72.81538826387197 L 1009.7064380187567 72.79670188420899 L 1009.4719797681533 72.77695465509434 L 1009.2379700657285 72.7561485512345 L 1009.0044323122571 72.73428565322251 L 1008.7713898613202 72.71136814732996 L 1008.5388660169685 72.68739832528833 L 1008.3068840313927 72.66237858405984 L 1008.075467102598 72.63631142559778 L 1007.8446383720845 72.60919945659627 L 1007.614420922533 72.58104538822961 L 1007.3848377754964 72.55185203588118 L 1007.1559118890981 72.5216223188619 L 1006.9276661557361 72.49035926011825 L 1006.7001233997935 72.45806598593009 L 1006.4733063753562 72.4247457255979 L 1006.2472377639377 72.39040181111994 L 1006.0219401722107 72.35503767685907 L 1005.7974361297466 72.31865685919922 L 1005.5737480867627 72.28126299619186 L 1005.3508984118769 72.24285982719209 L 1005.1289093898707 72.20345119248485 L 1004.9078032194617 72.16304103290075 L 1004.6876020110823 72.12163338942209 L 1004.4683277846701 72.07923240277869 L 1004.2500024674649 72.03584231303388 L 1004.0326478918165 71.99146745916049 L 1003.8162857930015 71.94611227860693 L 1003.6009378070491 71.89978130685344 L 1003.3866254685789 71.85247917695861 L 1003.1733702086458 71.80421061909601 L 1002.9611933525983 71.75498046008119 L 1002.750116117945 71.70479362288901 L 1002.5401596122337 71.65365512616141 L 1002.3313448309398 71.60157008370541 L 1002.1236926553674 71.54854370398188 L 1001.9172238505613 71.49458128958457 L 1001.7119590632296 71.43968823671 L 1001.5079188196802 71.38387003461766 L 1001.3051235237672 71.32713226508127 L 1001.1035934548514 71.26948060183051 L 1000.9033487657717 71.21092080998365 L 1000.7044094808301 71.15145874547107 L 1000.5067954937894 71.0911003544497 L 1000.3105265658835 71.0298516727083 L 1000.1156223238416 70.96771882506403 L 999.9221022579258 70.90470802474988 L 999.729985719981 70.84082557279336 L 999.5392919215012 70.77607785738643 L 999.3500399317072 70.71047135324669 L 999.1622486756403 70.64401262096986 L 998.9759369322696 70.5767083063738 L 998.7911233326142 70.50856513983389 L 998.6078263578802 70.43958993560999 L 998.4260643376119 70.36978959116503 L 998.2458554478604 70.29917108647531 L 998.0672177093642 70.22774148333244 L 997.8901689857482 70.1555079246372 L 997.7147269817374 70.08247763368529 L 997.540909241386 70.00865791344492 L 997.368733146323 69.9340561458266 L 997.1982159140147 69.85867979094495 L 997.0293745960421 69.78253638637263 L 996.8622260763962 69.70563354638664 L 996.6967870697898 69.62797896120689 L 996.5330741199856 69.54958039622719 L 996.3711035981423 69.47044569123871 L 996.210891701177 69.39058275964601 L 996.0524544501459 69.30999958767568 L 995.8958076886421 69.22870423357777 L 995.7409670812112 69.14670482681996 L 995.587948111785 69.06400956727457 L 995.4367660821326 68.98062672439866 L 995.2874361103313 68.89656463640702 L 995.1399731292538 68.8118317094384 L 994.9943918850753 68.72643641671489 L 994.8507069357988 68.6403872976946 L 994.7089326497996 68.55369295721772 L 994.5690832043882 68.46636206464606 L 994.4311725843925 68.37840335299609 L 994.2952145807594 68.28982561806569 L 994.1612227891763 68.20063771755453 L 994.0292106087106 68.11084857017835 L 993.8991912404703 68.02046715477704 L 993.7711776862837 67.92950250941684 L 993.6451827473999 67.83796373048648 L 993.5212190232075 67.74585997178757 L 993.3992989099759 67.65320044361923 L 993.2794345996144 67.55999441185705 L 993.1616380784545 67.46625119702654 L 993.0459211260501 67.37198017337107 L 992.9322953139998 67.27719076791445 L 992.8207720047905 67.18189245951821 L 992.7113623506598 67.08609477793381 L 992.6040772924821 66.98980730284956 L 992.4989275586738 66.89303966293272 L 992.3959236641208 66.79580153486665 L 992.2950759091265 66.69810264238313 L 992.1963943783824 66.59995275528999 L 992.0998889399594 66.50136168849414 L 992.005569244321 66.40233930102012 L 991.913444723358 66.30289549502413 L 991.8235245894458 66.20304021480393 L 991.7358178345229 66.1027834458043 L 991.6503332291916 66.00213521361863 L 991.5670793218413 65.90110558298623 L 991.4860644377933 65.799704656786 L 991.4072966784685 65.69794257502603 L 991.3307839205772 65.59582951382973 L 991.2565338153314 65.4933756844181 L 991.1845537876799 65.3905913320887 L 991.1148510355652 65.28748673519112 L 991.0474325292047 65.18407220409914 L 990.9823050103927 65.08035808017966 L 990.9194749918267 64.97635473475869 L 990.8589487564566 64.87207256808405 L 990.8007323568551 64.76752200828555 L 990.7448316146139 64.66271351033203 L 990.6912521197604 64.55765755498592 L 990.6399992301996 64.45236464775525 L 990.5910780711778 64.34684531784296 L 990.5444935347699 64.24111011709415 L 990.500250279391 64.13516961894075 L 990.4583527293296 64.0290344173443 L 990.4188050743059 63.92271512573653 L 990.3816112690522 63.81622237595798 L 990.3467750329183 63.70956681719489 L 990.3142998494986 63.602759114914264 L 990.2841889662847 63.49580994979732 L 990.2564453943394 63.38873001667144 L 990.231071907997 63.28153002344071 L 990.208071044585 63.17422069001512 L 990.1874451041706 63.066812747238586 L 990.1691961493304 62.959316935815885 L 990.153326004945 62.85174400523857 L 990.1398362580155 62.74410471271006 L 990.1287282575053 62.636409822069915 L 990.1200031142052 62.52867010271744 L 990.1136617006223 62.4208963285348 L 990.1097046508927 62.313099276809595 L 990.108132360718 62.20528972715717 L 990.1089449873259 62.09747846044265 L 990.1121424494545 61.98967625770286 L 990.1177244273601 61.88189389906824 L 990.1256903628498 61.77414216268484 L 990.1360394593365 61.66643182363649 L 990.1487706819194 61.558773652867366 L 990.1638827574865 61.4511784161048 L 990.1813741748431 61.34365687278283 L 990.2012431848618 61.236219774966166 L 990.2234878006585 61.12887786627507 L 990.24810579779 61.02164188081096 L 990.275094714477 60.91452254208302 L 990.3044518518503 60.807530561935856 L 990.3361742742209 60.70067663947832 L 990.3702588093728 60.593971460013606 L 990.4067020488808 60.487425693970756 L 990.4455003484516 60.381049995837586 L 990.4866498282872 60.27485500309525 L 990.5301463734743 60.16885133515453 L 990.5759856343943 60.06304959229389 L 990.6241630271595 59.95746035459945 L 990.6746737340708 59.852094180906974 L 990.7275127040994 59.746961607746044 L 990.7826746533925 59.64207314828636 L 990.8401540658011 59.537439291286454 L 990.8999451934319 59.43307050004484 L 990.9620420572218 59.32897721135367 L 991.0264384475363 59.22516983445505 L 991.0931279247901 59.12165875000019 L 991.1621038200909 59.01845430901127 L 991.2333592359067 58.91556683184637 L 991.3068870467554 58.81300660716748 L 991.382679899917 58.7107838909116 L 991.4607302161694 58.60890890526517 L 991.5410301905462 58.507391837641855 L 991.6235717931165 58.406242839663825 L 991.7083467697893 58.30547202614659 L 991.7953466431372 58.205089474087515 L 991.8845627132456 58.105105221658164 L 991.9759860585817 58.00552926720046 L 992.0696075368872 57.90637156822687 L 992.1654177860922 57.807642040424646 L 992.2634072252519 57.709350556664305 L 992.3635660555037 57.61150694601232 L 992.4658842610482 57.514120992748204 L 992.57035161015 57.417202435386145 L 992.6769576561616 57.320760965701105 L 992.7856917385668 57.224806227759686 L 992.8965429840481 57.12934781695572 L 993.0095003075735 57.03439527905074 L 993.1245524135046 56.93995810921942 L 993.2416877967268 56.84604575110002 L 993.3608947437991 56.75266759585011 L 993.4821613341265 56.65983298120741 L 993.6054754411509 56.567551190555996 L 993.7308247335644 56.47583145199805 L 993.8581966765421 56.384682937430995 L 993.9875785329959 56.29411476163032 L 994.118957364848 56.20413598133814 L 994.2523200343246 56.1147555943575 L 994.38765320527 56.02598253865261 L 994.5249433444799 55.937825691455075 L 994.6641767230547 55.85029386837614 L 994.8053394177725 55.763395822525176 L 994.9484173124816 55.677140243634355 L 995.0933960995118 55.591535757189675 L 995.2402612811051 55.50659092356846 L 995.3889981708658 55.42231423718327 L 995.5395918952287 55.33871412563253 L 995.6920273949471 55.25579894885771 L 995.8462894265979 55.1735769983074 L 996.0023625641065 55.092056496108135 L 996.1602312002893 55.01124559424221 L 996.3198795484143 54.93115237373246 L 996.4812916437794 54.851784843834196 L 996.6444513453099 54.77315094123426 L 996.8093423371714 54.6952585292574 L 996.9759481304023 54.61811539707989 L 997.1442520645621 54.54172925895067 L 997.3142373093974 54.46610775341989 L 997.4858868665257 54.391258442575094 L 997.6591835711341 54.317188811284986 L 997.8341100936966 54.24390626645098 L 998.0106489417068 54.171418136266475 L 998.1887824614269 54.09973166948409 L 998.3684928396534 54.028854034690774 L 998.5497621054983 53.95879231959093 L 998.732572132186 53.88955353029769 L 998.9169046388662 53.82114459063227 L 999.102741192442 53.753572341431656 L 999.2900632094126 53.68684353986444 L 999.4788519577324 53.62096485875517 L 999.6690885586843 53.55594288591707 L 999.8607539887664 53.49178412349323 L 1000.0538290815955 53.42849498730643 L 1000.2482945298232 53.366081806217544 L 1000.4441308870668 53.304550821492676 L 1000.6413185698535 53.24390818617902 L 1000.8398378595798 53.18415996448957 L 1001.0396689044818 53.12531213119671 L 1001.2407917216216 53.067370571034715 L 1001.4431861988852 53.01034107811134 L 1001.6468320969935 52.95422935532834 L 1001.8517090515263 52.89904101381123 L 1002.057796574959 52.84478157234818 L 1002.2650740587109 52.79145645683812 L 1002.4735207752063 52.73907099974815 L 1002.6831158799475 52.687630439580346 L 1002.8938384135985 52.637139920347835 L 1003.1056673040815 52.58760449106049 L 1003.3185813686841 52.53902910521993 L 1003.5325593161773 52.49141862032429 L 1003.7475797489445 52.444777797382365 L 1003.9636211651217 52.399111300437596 L 1004.1806619607472 52.354423696101605 L 1004.3986804319226 52.3107194530976 L 1004.6176547769821 52.26800294181345 L 1004.8375630986739 52.2262784338647 L 1005.0583834063491 52.18555010166736 L 1005.2800936181608 52.14582201802072 L 1005.5026715632727 52.10709815570004 L 1005.7260949840756 52.06938238705927 L 1005.9503415384138 52.032678483643856 L 1006.1753888018187 51.996990115813546 L 1006.4012142697514 51.96232085237539 L 1006.6277953598535 51.928674160226834 L 1006.8551094142047 51.89605340400906 L 1007.0831337015887 51.8644618457705 L 1007.3118454197672 51.833902644640645 L 1007.5412216977588 51.80437885651416 L 1007.771239598127 51.775893433745246 L 1008.0018761192731 51.74844922485244 L 1008.2331081977375 51.722048974233765 L 1008.4649127105048 51.69669532189228 L 1008.6972664773172 51.672390803172085 L 1008.9301462629913 51.649137848504814 L 1009.1635287797429 51.626938783166544 L 1009.3973906895147 51.60579582704531 L 1009.6317086063106 51.58571109441911 L 1009.866459098534 51.56668659374447 L 1010.1016186913316 51.54872422745561 L 1010.33716386894 51.53182579177417 L 1010.5730710770376 51.515992976529645 L 1010.8093167251004 51.50122736499037 L 1011.0458771887602 51.4875304337052 L 1011.282728812168 51.47490355235584 L 1011.5198479103586 51.4633479836199 L 1011.7572107716201 51.45286488304463 L 1011.9947936598638 51.443455298931354 L 1012.2325728169991 51.43512017223063 L 1012.4705244653085 51.4278603364482 L 1012.7086248098252 51.42167651756158 L 1012.9468500407133 51.41656933394751 L 1013.1851763356484 51.41253929632009 L 1013.4235798621994 51.40958680767973 L 1013.6620367802122 51.407712163272826 L 1013.9005232441941 51.40691555056227 L 1014.1390154056971 51.40719704920866 L 1014.377489415704 51.40855663106237 L 1014.6159214270124 51.41099416016634 L 1014.8542875966199 51.414509392769695 L 1015.0925640881081 51.419101977352106 L 1015.3307270740266 51.42477145465894 L 1015.5687527382752 51.431517257747196 L 1015.8066172784856 51.43933871204218 L 1016.0442969084023 51.44823503540498 L 1016.2817678602604 51.45820533821068 L 1016.5190063871623 51.4692486234373 L 1016.7559887654533 51.48136378676553 L 1016.9926912970928 51.49454961668913 L 1017.2290903120252 51.50880479463608 L 1017.4651621705458 51.524127895100484 L 1017.7008832656654 51.54051738578506 L 1017.9362300254711 51.5579716277544 L 1018.171178915483 51.57648887559884 L 1018.4057064410077 51.59606727760904 L 1018.6397891494885 51.6167048759611 L 1018.8734036328492 51.6383996069124 L 1019.1065265298363 51.66114930100791 L 1019.3391345283544 51.684951683297186 L 1019.5712043677975 51.70980437356183 L 1019.802712841375 51.735704886553535 L 1020.0336367984324 51.76265063224257 L 1020.2639531467667 51.79063891607683 L 1020.4936388549346 51.81966693925126 L 1020.722670954557 51.849731798987726 L 1020.9510265426146 51.88083048882531 L 1021.1786827837391 51.91295989892094 L 1021.4056169124958 51.94611681636038 L 1021.6318062356612 51.980297925479526 L 1021.8572281344915 52.01549980819594 L 1022.0818600669844 52.0517189443507 L 1022.3056795701341 52.08895171206036 L 1022.5286642621767 52.127194388079175 L 1022.7507918448287 52.16644314817141 L 1022.9720401055172 52.20669406749378 L 1023.1923869196003 52.247943120987884 L 1023.4118102525802 52.29018618378274 L 1023.6302881623066 52.33341903160728 L 1023.8477988011705 52.37763734121275 L 1024.0643204182893 52.422836690805035 L 1024.2798313616818 52.46901256048684 L 1024.494310080433 52.516160332709674 L 1024.70773512685 52.564275292735616 L 1024.9200851586058 52.613352629108746 L 1025.1313389408745 52.663387434136325 L 1025.3414753484537 52.71437470437956 L 1025.5504733678779 52.7663093411539 L 1025.758312099519 52.819186151038956 L 1025.9649707596773 52.8729998463978 L 1026.170428682659 52.92774504590574 L 1026.374665322843 52.983416275088445 L 1026.5776602567353 53.040007966869396 L 1026.779393185012 53.09751446212657 L 1026.979843934548 53.15593001025836 L 1027.1789924604357 53.21524876975863 L 1027.3768188479883 53.27546480880087 L 1027.573303314732 53.33657210583136 L 1027.7684262123835 53.3985645501713 L 1027.9621680288162 53.461435942627936 L 1028.1545093900097 53.52517999611441 L 1028.3454310619882 53.58979033627848 L 1028.5349139527434 53.655260502139996 L 1028.7229391141443 53.721583946736914 L 1028.9094877438313 53.78875403778004 L 1029.094541187097 53.85676405831625 L 1029.2780809387514 53.92560720740017 L 1029.460088644972 53.995276600774254 L 1029.64054610514 54.065765271557225 L 1029.8194352736598 54.13706617094075 L 1029.9967382617638 54.2091721688943 L 1030.1724373393004 54.28207605487816 L 1030.3465149365088 54.35577053856451 L 1030.518953645774 54.43024825056637 L 1030.689736223369 54.50550174317461 L 1030.8588455911784 54.581523491102686 L 1031.026264838406 54.658305892239156 L 1031.1919772232668 54.73584126840789 L 1031.3559661746606 54.81412186613588 L 1031.5182152938285 54.89313985742859 L 1031.678708355994 54.97288734055273 L 1031.8374293119848 55.05335634082646 L 1031.9943622898375 55.1345388114168 L 1032.149491596385 55.21642663414435 L 1032.3028017188255 55.29901162029506 L 1032.4542773262754 55.38228551143916 L 1032.6039032712995 55.46623998025691 L 1032.7516645914284 55.55086663137139 L 1032.8975465106528 55.63615700218803 L 1033.0415344409028 55.722102563740805 L 1033.183613983505 55.80869472154519 L 1033.3237709306236 55.89592481645755 L 1033.4619912666808 55.98378412554111 L 1033.5982611697582 56.07226386293816 L 1033.732567012979 56.1613551807487 L 1033.8648953658708 56.251049169915184 L 1033.9952329957084 56.34133686111345 L 1034.1235668688378 56.4322092256496 L 1034.2498841519784 56.52365717636293 L 1034.374172213507 56.615671568534566 L 1034.4964186247216 56.70824320080196 L 1034.6166111610823 56.80136281607904 L 1034.7347378034358 56.89502110248188 L 1034.8507867392166 56.98920869425987 L 1034.9647463636275 57.083916172732344 L 1035.076605280801 57.17913406723036 L 1035.186352304939 57.27485285604382 L 1035.29397646143 57.37106296737362 L 1035.3994669879485 57.467754780288786 L 1035.5028133355297 57.56491862568861 L 1035.6040051696245 57.662544787269525 L 1035.7030323711344 57.76062350249672 L 1035.7998850374215 57.859144963580405 L 1035.8945534833 57.95809931845658 L 1035.9870282420038 58.05747667177222 L 1036.0773000661345 58.15726708587479 L 1036.1653599285848 58.257460581806065 L 1036.251199023442 58.358047140299924 L 1036.3348087668678 58.459016702784346 L 1036.4161807979578 58.56035917238722 L 1036.4953069795768 58.66206441494605 L 1036.5721793991722 58.764122260021324 L 1036.6467903695664 58.866522501913586 L 1036.7191324297244 58.96925490068398 L 1036.7891983455006 59.072309183178234 L 1036.8569811103616 59.17567504405398 L 1036.9224739460876 59.279342146811274 L 1036.9856703034495 59.38330012482622 L 1037.046563862864 59.48753858238766 L 1037.1051485350267 59.59204709573668 L 1037.1614184615182 59.69681521410906 L 1037.2153680153936 59.80183246078026 L 1037.2669918017416 59.907088334113126 L 1037.3162846582275 60.012572308608036 L 1037.3632416556059 60.11827383595545 L 1037.4078580982168 60.22418234609071 L 1037.450129524453 60.33028724825106 L 1037.4900517072067 60.43657793203471 L 1037.5276206542933 60.54304376846186 L 1037.5628326088495 60.64967411103757 L 1037.5956840497088 60.75645829681646 L 1037.6261716917545 60.86338564746893 L 1037.6542924862483 60.97044547034902 L 1037.6800436211338 61.07762705956367 L 1037.7034225213188 61.184919697043256 L 1037.7244268489333 61.29231265361346 L 1037.7430545035613 61.399795190068104 L 1037.7593036224537 61.50735655824312 L 1037.7731725807116 61.614986002091314 L 1037.7846599914508 61.72267275875801 L 1037.79376470594 61.830406059657264 L 1037.800485813715 61.93817513154877 L 1037.8048226426713 62.04596919761514 L 1037.8067747591288 62.15377747853961 M 1037.8068957491848 96.4920458931 L 1037.8057032892812 96.59985643801662 L 1037.802126028815 96.70765620196859 L 1037.7961643255096 96.81543440506935 L 1037.7878187755305 96.9231802695884 L 1037.7770902134253 97.03088302102908 L 1037.7639797120414 97.138531889206 L 1037.748488582418 97.24611610932205 L 1037.7306183736555 97.35362492304485 L 1037.7103708727595 97.46104757958265 L 1037.6877481044633 97.5683733367593 L 1037.6627523310249 97.67559146208852 L 1037.635386052001 97.78269123384712 L 1037.6056520039963 97.88966194214719 L 1037.5735531603912 97.99649289000702 L 1037.539092731043 98.10317339442086 L 1037.5022741619662 98.20969278742717 L 1037.463101134987 98.31604041717543 L 1037.4215775673752 98.42220564899125 L 1037.3777076114532 98.52817786643996 L 1037.33149565418 98.6339464723881 L 1037.2829463167125 98.73950089006323 L 1037.2320644539445 98.84483056411152 L 1037.1788551540194 98.94992496165337 L 1037.1233237378233 99.05477357333659 L 1037.0654757584514 99.15936591438738 L 1037.0053170006531 99.2636915256588 L 1036.9428534802544 99.36773997467667 L 1036.8780914435554 99.47150085668278 L 1036.8110373667052 99.5749637956754 L 1036.7416979550562 99.67811844544686 L 1036.6700801424918 99.78095449061813 L 1036.596191090733 99.8834616476704 L 1036.5200381886239 99.98562966597338 L 1036.4416290513911 100.08744832881038 L 1036.3609715198832 100.18890745439998 L 1036.2780736597856 100.28999689691415 L 1036.1929437608158 100.39070654749288 L 1036.1055903358924 100.49102633525506 L 1036.0160221202852 100.59094622830548 L 1035.924248070741 100.69045623473812 L 1035.8302773645887 100.78954640363527 L 1035.7341193988202 100.8882068260626 L 1035.635783789152 100.9864276360601 L 1035.5352803690632 101.0841990116286 L 1035.432619188812 101.18151117571202 L 1035.327810514431 101.27835439717506 L 1035.2208648267 101.37471899177628 L 1035.1117928200993 101.4705953231365 L 1035.0006054017379 101.56597380370249 L 1034.8873136902653 101.6608448957057 L 1034.7719290147584 101.75519911211595 L 1034.6544629135883 101.84902701759025 L 1034.5349271332675 101.94231922941623 L 1034.4133336272741 102.03506641845047 L 1034.2896945548578 102.12725931005133 L 1034.1640222798223 102.2188886850065 L 1034.0363293692908 102.30994538045483 L 1033.906628592448 102.40042029080266 L 1033.774932919263 102.49030436863434 L 1033.6412555191937 102.579588625617 L 1033.5056097598688 102.66826413339936 L 1033.368009205751 102.75632202450451 L 1033.228467616781 102.84375349321674 L 1033.0869989470018 102.93054979646202 L 1032.943617343162 103.01670225468237 L 1032.7983371433027 103.10220225270375 L 1032.651172875323 103.18704124059762 L 1032.5021392555268 103.27121073453588 L 1032.351251187152 103.3547023176393 L 1032.1985237588797 103.4375076408191 L 1032.0439722433252 103.51961842361202 L 1031.8876120955117 103.60102645500817 L 1031.7294589513235 103.68172359427226 L 1031.5695286259433 103.7617017717576 L 1031.40783711227 103.84095298971312 L 1031.2444005793207 103.91946932308304 L 1031.0792353706122 103.99724292029944 L 1030.912358002528 104.07426600406745 L 1030.7437851626655 104.15053087214287 L 1030.5735337081683 104.22602989810241 L 1030.4016206640401 104.30075553210642 L 1030.2280632214422 104.37470030165377 L 1030.0528787359738 104.44785681232914 L 1029.8760847259377 104.52021774854238 L 1029.6976988705876 104.59177587426021 L 1029.5177390083604 104.66252403372968 L 1029.3362231350923 104.73245515219378 L 1029.1531694022194 104.80156223659897 L 1028.9685961149623 104.86983837629438 L 1028.7825217304962 104.93727674372295 L 1028.5949648561043 105.0038705951041 L 1028.4059442473176 105.06961327110824 L 1028.2154788060398 105.13449819752252 L 1028.023587578656 105.19851888590837 L 1027.8302897541291 105.26166893425032 L 1027.6356046620806 105.32394202759615 L 1027.4395517708574 105.38533193868841 L 1027.2421506855853 105.44583252858716 L 1027.0434211462082 105.50543774728384 L 1026.8433830255144 105.56414163430621 L 1026.6420563271495 105.62193831931454 L 1026.4394611836153 105.67882202268845 L 1026.2356178542577 105.73478705610502 L 1026.0305467232392 105.78982782310756 L 1025.8242682975026 105.84393881966523 L 1025.6168032047183 105.89711463472344 L 1025.4081721912225 105.94934995074503 L 1025.198396119943 106.00063954424192 L 1024.987495968312 106.0509782862975 L 1024.775492826169 106.1003611430795 L 1024.5624078936514 106.14878317634341 L 1024.348262479075 106.19623954392625 L 1024.1330779968027 106.2427255002308 L 1023.9168759651035 106.2882363967002 L 1023.6996780040004 106.33276768228268 L 1023.4815058331084 106.37631490388682 L 1023.2623812694628 106.41887370682676 L 1023.0423262253374 106.46043983525765 L 1022.8213627060534 106.50100913260128 L 1022.5995128077784 106.54057754196174 L 1022.3767987153174 106.57914110653107 L 1022.1532426998939 106.61669596998493 L 1021.9288671169235 106.65323837686829 L 1021.7036944037771 106.6887646729709 L 1021.4777470775388 106.72327130569276 L 1021.2510477327526 106.75675482439937 L 1021.0236190391641 106.78921188076673 L 1020.7954837394533 106.82063922911627 L 1020.56666464696 106.85103372673933 L 1020.3371846434027 106.8803923342115 L 1020.1070666765906 106.90871211569649 L 1019.8763337581286 106.93599023923973 L 1019.6450089611162 106.96222397705162 L 1019.4131154178403 106.98741070578025 L 1019.1806763174623 107.0115479067737 L 1018.9477149036982 107.03463316633201 L 1018.7142544724952 107.05666417594847 L 1018.4803183697022 107.07763873254045 L 1018.2459299887342 107.09755473866979 L 1018.0111127682343 107.11641020275246 L 1017.7758901897287 107.13420323925777 L 1017.540285775279 107.1509320688969 L 1017.3043230851307 107.16659501880085 L 1017.068025715356 107.18119052268763 L 1016.831417295495 107.19471712101905 L 1016.5945214861924 107.20717346114655 L 1016.357361976832 107.21855829744648 L 1016.1199624831668 107.22887049144471 L 1015.8823467449483 107.23810901193042 L 1015.6445385235527 107.24627293505928 L 1015.4065615996036 107.25336144444577 L 1015.1684397705952 107.25937383124486 L 1014.9301968485121 107.26430949422287 L 1014.6918566574477 107.26816793981763 L 1014.4534430312227 107.27094878218779 L 1014.214979811001 107.27265174325143 L 1013.9764908429058 107.27327665271386 L 1013.7379999756353 107.27282344808465 L 1013.4995310580774 107.27129217468391 L 1013.2611079369252 107.26868298563768 L 1013.0227544542922 107.2649961418627 L 1012.7844944453278 107.26023201204026 L 1012.5463517358346 107.2543910725794 L 1012.308350139885 107.24747390756917 L 1012.0705134574401 107.23948120872033 L 1011.8328654719702 107.23041377529609 L 1011.5954299480757 107.22027251403225 L 1011.358230629111 107.20905843904646 L 1011.1212912348105 107.1967726717369 L 1010.8846354589163 107.18341644067004 L 1010.6482869668084 107.16899108145788 L 1010.4122693931394 107.15349803662431 L 1010.1766063394698 107.1369388554609 L 1009.9413213719087 107.11931519387196 L 1009.7064380187567 107.10062881420897 L 1009.4719797681533 107.08088158509435 L 1009.2379700657285 107.0600754812345 L 1009.0044323122571 107.03821258322252 L 1008.7713898613202 107.01529507732995 L 1008.5388660169685 106.99132525528832 L 1008.3068840313927 106.96630551405984 L 1008.075467102598 106.94023835559778 L 1007.8446383720845 106.91312638659626 L 1007.614420922533 106.88497231822961 L 1007.3848377754964 106.85577896588119 L 1007.1559118890981 106.8255492488619 L 1006.9276661557361 106.79428619011826 L 1006.7001233997935 106.76199291593008 L 1006.4733063753562 106.72867265559789 L 1006.2472377639377 106.69432874111995 L 1006.0219401722107 106.65896460685907 L 1005.7974361297466 106.62258378919921 L 1005.5737480867627 106.58518992619184 L 1005.3508984118769 106.5467867571921 L 1005.1289093898707 106.50737812248485 L 1004.9078032194617 106.46696796290075 L 1004.6876020110823 106.42556031942208 L 1004.4683277846701 106.38315933277867 L 1004.2500024674649 106.33976924303387 L 1004.0326478918165 106.29539438916049 L 1003.8162857930015 106.25003920860692 L 1003.6009378070491 106.20370823685344 L 1003.3866254685789 106.15640610695861 L 1003.1733702086458 106.108137549096 L 1002.9611933525983 106.05890739008117 L 1002.750116117945 106.00872055288902 L 1002.5401596122337 105.9575820561614 L 1002.3313448309398 105.90549701370541 L 1002.1236926553674 105.85247063398188 L 1001.9172238505613 105.79850821958458 L 1001.7119590632296 105.74361516670999 L 1001.5079188196802 105.68779696461766 L 1001.3051235237672 105.63105919508126 L 1001.1035934548514 105.5734075318305 L 1000.9033487657717 105.51484773998365 L 1000.7044094808301 105.45538567547108 L 1000.5067954937894 105.3950272844497 L 1000.3105265658835 105.33377860270829 L 1000.1156223238416 105.27164575506403 L 999.9221022579258 105.20863495474987 L 999.729985719981 105.14475250279335 L 999.5392919215012 105.08000478738643 L 999.3500399317072 105.01439828324668 L 999.1622486756403 104.94793955096986 L 998.9759369322696 104.8806352363738 L 998.7911233326142 104.8124920698339 L 998.6078263578802 104.74351686560999 L 998.4260643376119 104.67371652116503 L 998.2458554478604 104.6030980164753 L 998.0672177093642 104.53166841333243 L 997.8901689857482 104.4594348546372 L 997.7147269817374 104.38640456368528 L 997.540909241386 104.31258484344491 L 997.368733146323 104.2379830758266 L 997.1982159140147 104.16260672094495 L 997.0293745960421 104.08646331637262 L 996.8622260763962 104.00956047638662 L 996.6967870697898 103.93190589120688 L 996.5330741199856 103.85350732622719 L 996.3711035981423 103.77437262123871 L 996.210891701177 103.694509689646 L 996.0524544501459 103.61392651767568 L 995.8958076886421 103.53263116357778 L 995.7409670812112 103.45063175681996 L 995.587948111785 103.36793649727457 L 995.4367660821326 103.28455365439865 L 995.2874361103313 103.20049156640701 L 995.1399731292538 103.1157586394384 L 994.9943918850753 103.03036334671489 L 994.8507069357988 102.94431422769459 L 994.7089326497996 102.85761988721772 L 994.5690832043882 102.77028899464605 L 994.4311725843925 102.68233028299609 L 994.2952145807594 102.5937525480657 L 994.1612227891763 102.50456464755453 L 994.0292106087106 102.41477550017834 L 993.8991912404703 102.32439408477703 L 993.7711776862837 102.23342943941684 L 993.6451827473999 102.14189066048647 L 993.5212190232075 102.04978690178756 L 993.3992989099759 101.95712737361922 L 993.2794345996144 101.86392134185704 L 993.1616380784545 101.77017812702654 L 993.0459211260501 101.67590710337106 L 992.9322953139998 101.58111769791444 L 992.8207720047905 101.48581938951821 L 992.7113623506598 101.39002170793381 L 992.6040772924821 101.29373423284954 L 992.4989275586738 101.19696659293271 L 992.3959236641208 101.09972846486664 L 992.2950759091265 101.00202957238312 L 992.1963943783824 100.90387968528998 L 992.0998889399594 100.80528861849413 L 992.005569244321 100.70626623102011 L 991.913444723358 100.60682242502413 L 991.8235245894458 100.50696714480392 L 991.7358178345229 100.40671037580431 L 991.6503332291916 100.30606214361863 L 991.5670793218413 100.20503251298624 L 991.4860644377933 100.103631586786 L 991.4072966784685 100.00186950502604 L 991.3307839205772 99.89975644382972 L 991.2565338153314 99.79730261441809 L 991.1845537876799 99.69451826208869 L 991.1148510355652 99.59141366519111 L 991.0474325292047 99.48799913409913 L 990.9823050103927 99.38428501017967 L 990.9194749918267 99.28028166475868 L 990.8589487564566 99.17599949808405 L 990.8007323568551 99.07144893828554 L 990.7448316146139 98.96664044033201 L 990.6912521197604 98.86158448498593 L 990.6399992301996 98.75629157775525 L 990.5910780711778 98.65077224784297 L 990.5444935347699 98.54503704709414 L 990.500250279391 98.43909654894075 L 990.4583527293296 98.33296134734431 L 990.4188050743059 98.22664205573652 L 990.3816112690522 98.12014930595798 L 990.3467750329183 98.01349374719489 L 990.3142998494986 97.90668604491427 L 990.2841889662847 97.79973687979731 L 990.2564453943394 97.69265694667143 L 990.231071907997 97.58545695344071 L 990.208071044585 97.47814762001512 L 990.1874451041706 97.37073967723859 L 990.1691961493304 97.26324386581588 L 990.153326004945 97.15567093523856 L 990.1398362580155 97.04803164271006 L 990.1287282575053 96.94033675206991 L 990.1200031142052 96.83259703271744 L 990.1136617006223 96.7248232585348 L 990.1097046508927 96.6170262068096 L 990.108132360718 96.50921665715717" stroke-miterlimit="10" stroke-width="2.7769845610000004" stroke-dasharray=""/></g><g><text fill="black" stroke="none" font-family="sans-serif" font-size="11pt" font-style="normal" font-weight="normal" text-decoration="normal" x="982.5795539848957" y="124.80095321200001" text-anchor="start" dominant-baseline="alphabetic" xml:space="preserve">Database</text></g></g><g><path fill="white" stroke="black" paint-order="fill stroke markers" d=" M 322.47354199720047 183.607685092 L 338.80874529720046 183.607685092 L 338.80874529720046 1493.6909897520002 L 322.47354199720047 1493.6909897520002 L 322.47354199720047 183.607685092" stroke-miterlimit="10" stroke-width="1.3612669416666667" stroke-dasharray=""/><path fill="white" stroke="black" paint-order="fill stroke markers" d=" M 330.64114364720047 342.059157102 L 346.97634694720045 342.059157102 L 346.97634694720045 387.7977263419999 L 330.64114364720047 387.7977263419999 L 330.64114364720047 342.059157102" stroke-miterlimit="10" stroke-width="1.3612669416666667" stroke-dasharray=""/><path fill="white" stroke="black" paint-order="fill stroke markers" d=" M 700.1574029965493 614.8570522119999 L 716.4926062965494 614.8570522119999 L 716.4926062965494 1447.9524205120001 L 700.1574029965493 1447.9524205120001 L 700.1574029965493 614.8570522119999" stroke-miterlimit="10" stroke-width="1.3612669416666667" stroke-dasharray=""/><path fill="white" stroke="black" paint-order="fill stroke markers" d=" M 852.973650138867 840.2828577519998 L 869.3088534388671 840.2828577519998 L 869.3088534388671 977.4985654719997 L 852.973650138867 977.4985654719997 L 852.973650138867 840.2828577519998" stroke-miterlimit="10" stroke-width="1.3612669416666667" stroke-dasharray=""/><path fill="white" stroke="black" paint-order="fill stroke markers" d=" M 1005.7898972811847 886.0214269919998 L 1022.1251005811848 886.0214269919998 L 1022.1251005811848 931.7599962319997 L 1005.7898972811847 931.7599962319997 L 1005.7898972811847 886.0214269919998" stroke-miterlimit="10" stroke-width="1.3612669416666667" stroke-dasharray=""/><path fill="white" stroke="black" paint-order="fill stroke markers" d=" M 852.973650138867 1248.662940252 L 869.3088534388671 1248.662940252 L 869.3088534388671 1385.8786479720002 L 852.973650138867 1385.8786479720002 L 852.973650138867 1248.662940252" stroke-miterlimit="10" stroke-width="1.3612669416666667" stroke-dasharray=""/><path fill="white" stroke="black" paint-order="fill stroke markers" d=" M 1005.7898972811847 1294.401509492 L 1022.1251005811848 1294.401509492 L 1022.1251005811848 1340.1400787320001 L 1005.7898972811847 1340.1400787320001 L 1005.7898972811847 1294.401509492" stroke-miterlimit="10" stroke-width="1.3612669416666667" stroke-dasharray=""/><g><g><rect fill="white" stroke="none" x="115.27953523533851" y="162.371920802" width="181.75808967652344" height="21.23576429"/></g><text fill="black" stroke="none" font-family="sans-serif" font-size="11pt" font-style="normal" font-weight="normal" text-decoration="normal" x="117.72981573033852" y="177.07360377199998" text-anchor="start" dominant-baseline="alphabetic" xml:space="preserve">Go to Update Group popup</text></g><g><path fill="none" stroke="black" paint-order="fill stroke markers" d=" M 89.84361815 183.607685092 L 309.0242246135338 183.607685092" stroke-miterlimit="10" stroke-width="1.3612669416666667" stroke-dasharray=""/><g transform="translate(322.47354199720047,183.607685092) translate(-322.47354199720047,-183.607685092)"><path fill="black" stroke="none" paint-order="stroke fill markers" d=" M 308.8608725805338 176.80135038366666 L 322.47354199720047 183.607685092 L 308.8608725805338 190.41401980033334 Z"/></g></g><g><g><rect fill="white" stroke="none" x="109.17360872166664" y="208.110490042" width="193.9699427038672" height="21.23576429"/></g><text fill="black" stroke="none" font-family="sans-serif" font-size="11pt" font-style="normal" font-weight="normal" text-decoration="normal" x="111.62388921666664" y="222.812173012" text-anchor="start" dominant-baseline="alphabetic" xml:space="preserve">Display Update Group popup</text></g><g><path fill="none" stroke="black" paint-order="fill stroke markers" d=" M 322.47354199720047 229.346254332 L 103.29293553366666 229.346254332" stroke-miterlimit="10" stroke-width="1.3612669416666667" stroke-dasharray="6.53408132"/><g transform="translate(89.84361815,229.346254332) translate(-89.84361815,-229.346254332)"><path fill="black" stroke="none" paint-order="stroke fill markers" d=" M 103.45628756666666 222.53991962366666 L 89.84361815 229.346254332 L 103.45628756666666 236.15258904033334 Z"/></g></g><g><g><rect fill="white" stroke="none" x="130.7662982358268" y="253.849059282" width="150.78456367554688" height="21.23576429"/></g><text fill="black" stroke="none" font-family="sans-serif" font-size="11pt" font-style="normal" font-weight="normal" text-decoration="normal" x="133.2165787308268" y="268.550742252" text-anchor="start" dominant-baseline="alphabetic" xml:space="preserve">Update name of group</text></g><g><path fill="none" stroke="black" paint-order="fill stroke markers" d=" M 89.84361815 275.084823572 L 309.0242246135338 275.084823572" stroke-miterlimit="10" stroke-width="1.3612669416666667" stroke-dasharray=""/><g transform="translate(322.47354199720047,275.084823572) translate(-322.47354199720047,-275.084823572)"><path fill="black" stroke="none" paint-order="stroke fill markers" d=" M 308.8608725805338 268.27848886366667 L 322.47354199720047 275.084823572 L 308.8608725805338 281.89115828033334 Z"/></g></g><g><g><rect fill="white" stroke="none" x="366.3063375188671" y="299.587628522" width="125.25842536988281" height="21.23576429"/></g><text fill="black" stroke="none" font-family="sans-serif" font-size="11pt" font-style="normal" font-weight="normal" text-decoration="normal" x="368.7566180138671" y="314.28931149199997" text-anchor="start" dominant-baseline="alphabetic" xml:space="preserve">Validate input data</text></g><g><path fill="none" stroke="black" paint-order="fill stroke markers" d=" M 338.80874529720046 320.82339281199995 L 412.31716014720047 320.82339281199995 L 412.31716014720047 342.059157102 L 360.4256643308671 342.059157102" stroke-miterlimit="10" stroke-width="1.3612669416666667" stroke-dasharray=""/><g transform="translate(346.97634694720045,342.059157102) translate(-346.97634694720045,-342.059157102)"><path fill="black" stroke="none" paint-order="stroke fill markers" d=" M 360.58901636386713 335.25282239366663 L 346.97634694720045 342.059157102 L 360.58901636386713 348.8654918103333 Z"/></g></g><g><g><rect fill="white" stroke="none" x="366.3063375188671" y="366.56196205199996" width="95.90982307496094" height="21.23576429"/></g><text fill="black" stroke="none" font-family="sans-serif" font-size="11pt" font-style="normal" font-weight="normal" text-decoration="normal" x="368.7566180138671" y="381.26364502199993" text-anchor="start" dominant-baseline="alphabetic" xml:space="preserve">Validate value</text></g><g><path fill="none" stroke="black" paint-order="fill stroke markers" d=" M 346.97634694720045 387.7977263419999 L 412.31716014720047 387.7977263419999 L 412.31716014720047 409.03349063199994 L 352.2580626808671 409.03349063199994" stroke-miterlimit="10" stroke-width="1.3612669416666667" stroke-dasharray="6.53408132"/><g transform="translate(338.80874529720046,409.03349063199994) translate(-338.80874529720046,-409.03349063199994)"><path fill="black" stroke="none" paint-order="stroke fill markers" d=" M 352.42141471386714 402.2271559236666 L 338.80874529720046 409.03349063199994 L 352.42141471386714 415.8398253403333 Z"/></g></g><g><g><rect fill="white" stroke="none" x="145.9846286191276" y="477.6413444919999" width="120.34790290894531" height="21.23576429"/></g><text fill="black" stroke="none" font-family="sans-serif" font-size="11pt" font-style="normal" font-weight="normal" text-decoration="normal" x="148.43490911412758" y="492.3430274619999" text-anchor="start" dominant-baseline="alphabetic" xml:space="preserve">Validate Message</text></g><g><path fill="none" stroke="black" paint-order="fill stroke markers" d=" M 322.47354199720047 498.87710878199994 L 103.29293553366666 498.87710878199994" stroke-miterlimit="10" stroke-width="1.3612669416666667" stroke-dasharray="6.53408132"/><g transform="translate(89.84361815,498.87710878199994) translate(-89.84361815,-498.87710878199994)"><path fill="black" stroke="none" paint-order="stroke fill markers" d=" M 103.45628756666666 492.0707740736666 L 89.84361815 498.87710878199994 L 103.45628756666666 505.6834434903333 Z"/></g></g><g><g><rect fill="white" stroke="none" x="169.08412355320962" y="547.8827186819999" width="74.14891304078125" height="21.23576429"/></g><text fill="black" stroke="none" font-family="sans-serif" font-size="11pt" font-style="normal" font-weight="normal" text-decoration="normal" x="171.5344040482096" y="562.5844016519999" text-anchor="start" dominant-baseline="alphabetic" xml:space="preserve">Click Save</text></g><g><path fill="none" stroke="black" paint-order="fill stroke markers" d=" M 89.84361815 569.1184829719999 L 309.0242246135338 569.1184829719999" stroke-miterlimit="10" stroke-width="1.3612669416666667" stroke-dasharray=""/><g transform="translate(322.47354199720047,569.1184829719999) translate(-322.47354199720047,-569.1184829719999)"><path fill="black" stroke="none" paint-order="stroke fill markers" d=" M 308.8608725805338 562.3121482636666 L 322.47354199720047 569.1184829719999 L 308.8608725805338 575.9248176803333 Z"/></g></g><g><g><rect fill="white" stroke="none" x="466.5102564204295" y="593.6212879219999" width="105.94563545289063" height="21.23576429"/></g><text fill="black" stroke="none" font-family="sans-serif" font-size="11pt" font-style="normal" font-weight="normal" text-decoration="normal" x="468.96053691542954" y="608.3229708919998" text-anchor="start" dominant-baseline="alphabetic" xml:space="preserve">PUT: /api/group</text></g><g><path fill="none" stroke="black" paint-order="fill stroke markers" d=" M 338.80874529720046 614.8570522119999 L 686.7080856128827 614.8570522119999" stroke-miterlimit="10" stroke-width="1.3612669416666667" stroke-dasharray=""/><g transform="translate(700.1574029965493,614.8570522119999) translate(-700.1574029965493,-614.8570522119999)"><path fill="black" stroke="none" paint-order="stroke fill markers" d=" M 686.5447335798826 608.0507175036665 L 700.1574029965493 614.8570522119999 L 686.5447335798826 621.6633869203332 Z"/></g></g><g><g><rect fill="white" stroke="none" x="362.222536693867" y="683.4649060719998" width="314.5210749060156" height="21.23576429"/></g><text fill="red" stroke="none" font-family="sans-serif" font-size="11pt" font-style="normal" font-weight="normal" text-decoration="normal" x="364.67281718886704" y="698.1665890419998" text-anchor="start" dominant-baseline="alphabetic" xml:space="preserve">400 BAD_REQUEST: Missing required property</text></g><g><path fill="none" stroke="black" paint-order="fill stroke markers" d=" M 700.1574029965493 704.7006703619999 L 352.2580626808671 704.7006703619999" stroke-miterlimit="10" stroke-width="1.3612669416666667" stroke-dasharray="6.53408132"/><g transform="translate(338.80874529720046,704.7006703619999) translate(-338.80874529720046,-704.7006703619999)"><path fill="black" stroke="none" paint-order="stroke fill markers" d=" M 352.42141471386714 697.8943356536665 L 338.80874529720046 704.7006703619999 L 352.42141471386714 711.5070050703332 Z"/></g></g><g><g><rect fill="white" stroke="none" x="147.89586824315103" y="729.2034753119998" width="116.52542366089844" height="21.23576429"/></g><text fill="black" stroke="none" font-family="sans-serif" font-size="11pt" font-style="normal" font-weight="normal" text-decoration="normal" x="150.34614873815102" y="743.9051582819998" text-anchor="start" dominant-baseline="alphabetic" xml:space="preserve">Name is required</text></g><g><path fill="none" stroke="black" paint-order="fill stroke markers" d=" M 322.47354199720047 750.4392396019998 L 103.29293553366666 750.4392396019998" stroke-miterlimit="10" stroke-width="1.3612669416666667" stroke-dasharray="6.53408132"/><g transform="translate(89.84361815,750.4392396019998) translate(-89.84361815,-750.4392396019998)"><path fill="black" stroke="none" paint-order="stroke fill markers" d=" M 103.45628756666666 743.6329048936665 L 89.84361815 750.4392396019998 L 103.45628756666666 757.2455743103332 Z"/></g></g><g><g><rect fill="white" stroke="none" x="750.518382390677" y="819.0470934619998" width="68.4294916540625" height="21.23576429"/></g><text fill="black" stroke="none" font-family="sans-serif" font-size="11pt" font-style="normal" font-weight="normal" text-decoration="normal" x="752.968662885677" y="833.7487764319998" text-anchor="start" dominant-baseline="alphabetic" xml:space="preserve">isExist(id)</text></g><g><path fill="none" stroke="black" paint-order="fill stroke markers" d=" M 716.4926062965494 840.2828577519998 L 839.5243327552004 840.2828577519998" stroke-miterlimit="10" stroke-width="1.3612669416666667" stroke-dasharray=""/><g transform="translate(852.973650138867,840.2828577519998) translate(-852.973650138867,-840.2828577519998)"><path fill="black" stroke="none" paint-order="stroke fill markers" d=" M 839.3609807222003 833.4765230436665 L 852.973650138867 840.2828577519998 L 839.3609807222003 847.0891924603332 Z"/></g></g><g><g><rect fill="white" stroke="none" x="891.1084332439322" y="864.7856627019997" width="92.8818842321875" height="21.23576429"/></g><text fill="black" stroke="none" font-family="sans-serif" font-size="11pt" font-style="normal" font-weight="normal" text-decoration="normal" x="893.5587137389322" y="879.4873456719997" text-anchor="start" dominant-baseline="alphabetic" xml:space="preserve">existsById(id)</text></g><g><path fill="none" stroke="black" paint-order="fill stroke markers" d=" M 869.3088534388671 886.0214269919998 L 992.3405798975181 886.0214269919998" stroke-miterlimit="10" stroke-width="1.3612669416666667" stroke-dasharray=""/><g transform="translate(1005.7898972811847,886.0214269919998) translate(-1005.7898972811847,-886.0214269919998)"><path fill="black" stroke="none" paint-order="stroke fill markers" d=" M 992.177227864518 879.2150922836664 L 1005.7898972811847 886.0214269919998 L 992.177227864518 892.8277617003331 Z"/></g></g><g><g><rect fill="white" stroke="none" x="888.6388440105337" y="910.5242319419997" width="97.82106269898438" height="21.23576429"/></g><text fill="black" stroke="none" font-family="sans-serif" font-size="11pt" font-style="normal" font-weight="normal" text-decoration="normal" x="891.0891245055337" y="925.2259149119997" text-anchor="start" dominant-baseline="alphabetic" xml:space="preserve">Boolean value</text></g><g><path fill="none" stroke="black" paint-order="fill stroke markers" d=" M 1005.7898972811847 931.7599962319997 L 882.7581708225338 931.7599962319997" stroke-miterlimit="10" stroke-width="1.3612669416666667" stroke-dasharray="6.53408132"/><g transform="translate(869.3088534388671,931.7599962319997) translate(-869.3088534388671,-931.7599962319997)"><path fill="black" stroke="none" paint-order="stroke fill markers" d=" M 882.9215228555338 924.9536615236664 L 869.3088534388671 931.7599962319997 L 882.9215228555338 938.566330940333 Z"/></g></g><g><g><rect fill="white" stroke="none" x="735.822596868216" y="956.2628011819996" width="97.82106269898438" height="21.23576429"/></g><text fill="black" stroke="none" font-family="sans-serif" font-size="11pt" font-style="normal" font-weight="normal" text-decoration="normal" x="738.272877363216" y="970.9644841519996" text-anchor="start" dominant-baseline="alphabetic" xml:space="preserve">Boolean value</text></g><g><path fill="none" stroke="black" paint-order="fill stroke markers" d=" M 852.973650138867 977.4985654719997 L 729.9419236802161 977.4985654719997" stroke-miterlimit="10" stroke-width="1.3612669416666667" stroke-dasharray="6.53408132"/><g transform="translate(716.4926062965494,977.4985654719997) translate(-716.4926062965494,-977.4985654719997)"><path fill="black" stroke="none" paint-order="stroke fill markers" d=" M 730.1052757132161 970.6922307636663 L 716.4926062965494 977.4985654719997 L 730.1052757132161 984.304900180333 Z"/></g></g><g><g><rect fill="white" stroke="none" x="459.19813026076156" y="1046.1064193319999" width="120.56988777222656" height="21.23576429"/></g><text fill="red" stroke="none" font-family="sans-serif" font-size="11pt" font-style="normal" font-weight="normal" text-decoration="normal" x="461.6484107557616" y="1060.808102302" text-anchor="start" dominant-baseline="alphabetic" xml:space="preserve">404 NOT FOUND</text></g><g><path fill="none" stroke="black" paint-order="fill stroke markers" d=" M 700.1574029965493 1067.3421836219998 L 352.2580626808671 1067.3421836219998" stroke-miterlimit="10" stroke-width="1.3612669416666667" stroke-dasharray="6.53408132"/><g transform="translate(338.80874529720046,1067.3421836219998) translate(-338.80874529720046,-1067.3421836219998)"><path fill="black" stroke="none" paint-order="stroke fill markers" d=" M 352.42141471386714 1060.5358489136665 L 338.80874529720046 1067.3421836219998 L 352.42141471386714 1074.148518330333 Z"/></g></g><g><g><rect fill="white" stroke="none" x="162.54868501561197" y="1091.844988572" width="87.21979011597656" height="21.23576429"/></g><text fill="black" stroke="none" font-family="sans-serif" font-size="11pt" font-style="normal" font-weight="normal" text-decoration="normal" x="164.99896551061195" y="1106.546671542" text-anchor="start" dominant-baseline="alphabetic" xml:space="preserve">Close popup</text></g><g><path fill="none" stroke="black" paint-order="fill stroke markers" d=" M 322.47354199720047 1113.0807528619998 L 103.29293553366666 1113.0807528619998" stroke-miterlimit="10" stroke-width="1.3612669416666667" stroke-dasharray="6.53408132"/><g transform="translate(89.84361815,1113.0807528619998) translate(-89.84361815,-1113.0807528619998)"><path fill="black" stroke="none" paint-order="stroke fill markers" d=" M 103.45628756666666 1106.2744181536666 L 89.84361815 1113.0807528619998 L 103.45628756666666 1119.887087570333 Z"/></g></g><g><g><rect fill="white" stroke="none" x="136.8865603818229" y="1137.583557812" width="138.5440393835547" height="21.23576429"/></g><text fill="black" stroke="none" font-family="sans-serif" font-size="11pt" font-style="normal" font-weight="normal" text-decoration="normal" x="139.3368408768229" y="1152.285240782" text-anchor="start" dominant-baseline="alphabetic" xml:space="preserve">Message Update fail</text></g><g><path fill="none" stroke="black" paint-order="fill stroke markers" d=" M 322.47354199720047 1158.819322102 L 103.29293553366666 1158.819322102" stroke-miterlimit="10" stroke-width="1.3612669416666667" stroke-dasharray="6.53408132"/><g transform="translate(89.84361815,1158.819322102) translate(-89.84361815,-1158.819322102)"><path fill="black" stroke="none" paint-order="stroke fill markers" d=" M 103.45628756666666 1152.0129873936667 L 89.84361815 1158.819322102 L 103.45628756666666 1165.625656810333 Z"/></g></g><g><g><rect fill="white" stroke="none" x="761.917796453177" y="1227.427175962" width="45.6306635290625" height="21.23576429"/></g><text fill="black" stroke="none" font-family="sans-serif" font-size="11pt" font-style="normal" font-weight="normal" text-decoration="normal" x="764.368076948177" y="1242.1288589320002" text-anchor="start" dominant-baseline="alphabetic" xml:space="preserve">save()</text></g><g><path fill="none" stroke="black" paint-order="fill stroke markers" d=" M 716.4926062965494 1248.662940252 L 839.5243327552004 1248.662940252" stroke-miterlimit="10" stroke-width="1.3612669416666667" stroke-dasharray=""/><g transform="translate(852.973650138867,1248.662940252) translate(-852.973650138867,-1248.662940252)"><path fill="black" stroke="none" paint-order="stroke fill markers" d=" M 839.3609807222003 1241.8566055436668 L 852.973650138867 1248.662940252 L 839.3609807222003 1255.4692749603332 Z"/></g></g><g><g><rect fill="white" stroke="none" x="889.0540051433462" y="1273.1657452020002" width="96.99074043335938" height="21.23576429"/></g><text fill="black" stroke="none" font-family="sans-serif" font-size="11pt" font-style="normal" font-weight="normal" text-decoration="normal" x="891.5042856383462" y="1287.8674281720002" text-anchor="start" dominant-baseline="alphabetic" xml:space="preserve">Update Group</text></g><g><path fill="none" stroke="black" paint-order="fill stroke markers" d=" M 869.3088534388671 1294.401509492 L 992.3405798975181 1294.401509492" stroke-miterlimit="10" stroke-width="1.3612669416666667" stroke-dasharray=""/><g transform="translate(1005.7898972811847,1294.401509492) translate(-1005.7898972811847,-1294.401509492)"><path fill="black" stroke="none" paint-order="stroke fill markers" d=" M 992.177227864518 1287.5951747836668 L 1005.7898972811847 1294.401509492 L 992.177227864518 1301.2078442003333 Z"/></g></g><g><g><rect fill="white" stroke="none" x="895.1706891033072" y="1318.9043144420002" width="84.7573725134375" height="21.23576429"/></g><text fill="black" stroke="none" font-family="sans-serif" font-size="11pt" font-style="normal" font-weight="normal" text-decoration="normal" x="897.6209695983072" y="1333.6059974120003" text-anchor="start" dominant-baseline="alphabetic" xml:space="preserve">Group entity</text></g><g><path fill="none" stroke="black" paint-order="fill stroke markers" d=" M 1005.7898972811847 1340.1400787320001 L 882.7581708225338 1340.1400787320001" stroke-miterlimit="10" stroke-width="1.3612669416666667" stroke-dasharray="6.53408132"/><g transform="translate(869.3088534388671,1340.1400787320001) translate(-869.3088534388671,-1340.1400787320001)"><path fill="black" stroke="none" paint-order="stroke fill markers" d=" M 882.9215228555338 1333.333744023667 L 869.3088534388671 1340.1400787320001 L 882.9215228555338 1346.9464134403333 Z"/></g></g><g><g><rect fill="white" stroke="none" x="745.6078370415559" y="1364.6428836820003" width="78.25058235230469" height="21.23576429"/></g><text fill="black" stroke="none" font-family="sans-serif" font-size="11pt" font-style="normal" font-weight="normal" text-decoration="normal" x="748.0581175365559" y="1379.3445666520004" text-anchor="start" dominant-baseline="alphabetic" xml:space="preserve">Group data</text></g><g><path fill="none" stroke="black" paint-order="fill stroke markers" d=" M 852.973650138867 1385.8786479720002 L 729.9419236802161 1385.8786479720002" stroke-miterlimit="10" stroke-width="1.3612669416666667" stroke-dasharray="6.53408132"/><g transform="translate(716.4926062965494,1385.8786479720002) translate(-716.4926062965494,-1385.8786479720002)"><path fill="black" stroke="none" paint-order="stroke fill markers" d=" M 730.1052757132161 1379.072313263667 L 716.4926062965494 1385.8786479720002 L 730.1052757132161 1392.6849826803334 Z"/></g></g><g><g><rect fill="white" stroke="none" x="425.3470636714061" y="1410.381452922" width="54.61422981324219" height="21.23576429"/></g><g><rect fill="white" stroke="none" x="425.3470636714061" y="1426.7166562220002" width="188.2720209509375" height="21.23576429"/></g><text fill="green" stroke="none" font-family="sans-serif" font-size="11pt" font-style="normal" font-weight="normal" text-decoration="normal" x="427.7973441664061" y="1425.0831358920002" text-anchor="start" dominant-baseline="alphabetic" xml:space="preserve">200 OK</text><text fill="green" stroke="none" font-family="sans-serif" font-size="11pt" font-style="normal" font-weight="normal" text-decoration="normal" x="427.7973441664061" y="1441.4183391920003" text-anchor="start" dominant-baseline="alphabetic" xml:space="preserve">Response body: Group data</text></g><g><path fill="none" stroke="black" paint-order="fill stroke markers" d=" M 700.1574029965493 1447.9524205120001 L 352.2580626808671 1447.9524205120001" stroke-miterlimit="10" stroke-width="1.3612669416666667" stroke-dasharray="6.53408132"/><g transform="translate(338.80874529720046,1447.9524205120001) translate(-338.80874529720046,-1447.9524205120001)"><path fill="black" stroke="none" paint-order="stroke fill markers" d=" M 352.42141471386714 1441.146085803667 L 338.80874529720046 1447.9524205120001 L 352.42141471386714 1454.7587552203333 Z"/></g></g><g><g><rect fill="white" stroke="none" x="137.70617860692056" y="1472.4552254620003" width="136.90480293335938" height="21.23576429"/></g><text fill="black" stroke="none" font-family="sans-serif" font-size="11pt" font-style="normal" font-weight="normal" text-decoration="normal" x="140.15645910192055" y="1487.1569084320004" text-anchor="start" dominant-baseline="alphabetic" xml:space="preserve">Display Group detail</text></g><g><path fill="none" stroke="black" paint-order="fill stroke markers" d=" M 322.47354199720047 1493.6909897520002 L 103.29293553366666 1493.6909897520002" stroke-miterlimit="10" stroke-width="1.3612669416666667" stroke-dasharray="6.53408132"/><g transform="translate(89.84361815,1493.6909897520002) translate(-89.84361815,-1493.6909897520002)"><path fill="black" stroke="none" paint-order="stroke fill markers" d=" M 103.45628756666666 1486.884655043667 L 89.84361815 1493.6909897520002 L 103.45628756666666 1500.4973244603334 Z"/></g></g><g><g/><path fill="none" stroke="black" paint-order="fill stroke markers" d=" M 32.6704066 433.5362955819999 L 387.8143551972005 433.5362955819999 L 387.8143551972005 523.379913732 L 32.6704066 523.379913732 L 32.6704066 433.5362955819999 Z" stroke-miterlimit="10" stroke-width="2.3336004714285714" stroke-dasharray=""/><path fill="white" stroke="black" paint-order="fill stroke markers" d=" M 32.6704066 433.5362955819999 L 32.6704066 453.13853954199993 L 79.02961019707031 453.13853954199993 L 88.83073217707032 443.3374175619999 L 88.83073217707032 433.5362955819999 L 32.6704066 433.5362955819999" stroke-miterlimit="10" stroke-width="2.3336004714285714" stroke-dasharray=""/><text fill="black" stroke="none" font-family="sans-serif" font-size="8.8pt" font-style="normal" font-weight="bold" text-decoration="normal" x="49.005609899999996" y="446.60445822199995" text-anchor="start" dominant-baseline="alphabetic" xml:space="preserve">alt</text><g><rect fill="white" stroke="none" x="102.71565498207032" y="434.84311184599994" width="151.5138880163672" height="16.988611432000003"/></g><text fill="black" stroke="none" font-family="sans-serif" font-size="8.8pt" font-style="normal" font-weight="bold" text-decoration="normal" x="105.16593547707032" y="446.60445822199995" text-anchor="start" dominant-baseline="alphabetic" xml:space="preserve">[If the input data is wrong]</text></g><g><g/><path fill="none" stroke="black" paint-order="fill stroke markers" d=" M 16.335203300000003 639.3598571619999 L 1087.4659137811848 639.3598571619999 L 1087.4659137811848 1542.696599652 L 16.335203300000003 1542.696599652 L 16.335203300000003 639.3598571619999 Z" stroke-miterlimit="10" stroke-width="2.3336004714285714" stroke-dasharray=""/><path fill="white" stroke="black" paint-order="fill stroke markers" d=" M 16.335203300000003 639.3598571619999 L 16.335203300000003 658.9621011219999 L 62.694406897070316 658.9621011219999 L 72.49552887707031 649.1609791419999 L 72.49552887707031 639.3598571619999 L 16.335203300000003 639.3598571619999" stroke-miterlimit="10" stroke-width="2.3336004714285714" stroke-dasharray=""/><text fill="black" stroke="none" font-family="sans-serif" font-size="8.8pt" font-style="normal" font-weight="bold" text-decoration="normal" x="32.67040660000001" y="652.4280198019999" text-anchor="start" dominant-baseline="alphabetic" xml:space="preserve">alt</text><g><rect fill="white" stroke="none" x="86.38045168207032" y="640.6666734259999" width="157.41902412476563" height="16.988611432000003"/></g><text fill="black" stroke="none" font-family="sans-serif" font-size="8.8pt" font-style="normal" font-weight="bold" text-decoration="normal" x="88.83073217707032" y="652.4280198019999" text-anchor="start" dominant-baseline="alphabetic" xml:space="preserve">[if Name do not have value]</text><g><path fill="none" stroke="black" paint-order="fill stroke markers" d=" M 16.335203300000003 774.9420445519999 L 1087.4659137811848 774.9420445519999" stroke-miterlimit="10" stroke-width="2.3336004714285714" stroke-dasharray="4.083800825"/></g><g/><g><rect fill="white" stroke="none" x="86.38045168207032" y="776.2488608159998" width="36.84300483765625" height="16.988611432000003"/></g><text fill="black" stroke="none" font-family="sans-serif" font-size="8.8pt" font-style="normal" font-weight="bold" text-decoration="normal" x="88.83073217707032" y="788.0102071919998" text-anchor="start" dominant-baseline="alphabetic" xml:space="preserve">[Else]</text></g><g/><g><g/><path fill="none" stroke="black" paint-order="fill stroke markers" d=" M 32.6704066 1002.0013704219997 L 1071.1307104811847 1002.0013704219997 L 1071.1307104811847 1518.193794702 L 32.6704066 1518.193794702 L 32.6704066 1002.0013704219997 Z" stroke-miterlimit="10" stroke-width="2.3336004714285714" stroke-dasharray=""/><path fill="white" stroke="black" paint-order="fill stroke markers" d=" M 32.6704066 1002.0013704219997 L 32.6704066 1021.6036143819997 L 79.02961019707031 1021.6036143819997 L 88.83073217707032 1011.8024924019996 L 88.83073217707032 1002.0013704219997 L 32.6704066 1002.0013704219997" stroke-miterlimit="10" stroke-width="2.3336004714285714" stroke-dasharray=""/><text fill="black" stroke="none" font-family="sans-serif" font-size="8.8pt" font-style="normal" font-weight="bold" text-decoration="normal" x="49.005609899999996" y="1015.0695330619997" text-anchor="start" dominant-baseline="alphabetic" xml:space="preserve">alt</text><g><rect fill="white" stroke="none" x="102.71565498207032" y="1003.3081866859997" width="120.89450325074219" height="16.988611432000003"/></g><text fill="black" stroke="none" font-family="sans-serif" font-size="8.8pt" font-style="normal" font-weight="bold" text-decoration="normal" x="105.16593547707032" y="1015.0695330619997" text-anchor="start" dominant-baseline="alphabetic" xml:space="preserve">[If group is not exist]</text><g><path fill="none" stroke="black" paint-order="fill stroke markers" d=" M 32.6704066 1183.322127052 L 1071.1307104811847 1183.322127052" stroke-miterlimit="10" stroke-width="2.3336004714285714" stroke-dasharray="4.083800825"/></g><g/><g><rect fill="white" stroke="none" x="102.71565498207032" y="1184.628943316" width="36.84300483765625" height="16.988611432000003"/></g><text fill="black" stroke="none" font-family="sans-serif" font-size="8.8pt" font-style="normal" font-weight="bold" text-decoration="normal" x="105.16593547707032" y="1196.390289692" text-anchor="start" dominant-baseline="alphabetic" xml:space="preserve">[Else]</text></g><g/></g></g></svg>