<svg version="1.1" xmlns="http://www.w3.org/2000/svg" xmlns:xlink="http://www.w3.org/1999/xlink" width="1166" height="948"><desc>%20title%20Create%20Group%20with%20type%20Department%20or%20Normal%0A%0Aactor%20%23green%3A0.5%20%22Workspace%20Admin%22%20as%20w%0Aboundary%20%22Create%20Group%20popup%22%20as%20f%0Aparticipant%20%22Search%20Service%22%20as%20ss%0Acontrol%20%22Group%20Controller%22%20as%20gc%0Aparticipant%20%22Group%20Service%22%20as%20gs%0Adatabase%20%23blue%3A1%20%22Database%22%20as%20db%0A%0A%0Aw-%3Ef%3AGo%20to%20Create%20Group%20button%0Aactivate%20f%0Aw%3C--f%3ADisplay%20Create%20Group%20popup%0A%0Aw-%3Ef%3ASelect%20Type%20Department%20or%20Normal%0Aw-%3Ef%3AEnter%20name%20of%20group%0A%0Aw-%3Ef%3AClick%20Save%0Af-%3Egc%3APOST%3A%20%2Fapi%2Fgroup%0Aactivate%20gc%0Aalt%20If%20Name%20do%20not%20have%20value%0Af%3C--gc%3A%3Ccolor%3A%23red%3E400%20BAD_REQUEST%3A%20Missing%20required%20property%3C%2Fcolor%3E%0Aw%3C--f%3AName%20is%20required%0Aelse%20Else%0Agc-%3Egs%3Asave()%0Aactivate%20gs%0Ags-%3Edb%3Asave()%0Aactivate%20db%0Ags%3C--db%3ANew%20Group%20data%0Adeactivate%20db%0Agc%3C--gs%3ANew%20Group%20data%0Adeactivate%20gs%0Af%3C--gc%3A%3Ccolor%3A%23green%3E201%20CREATED%3C%2Fcolor%3E%0Adeactivate%20gc%0Aw%3C--f%3A%20Display%20Group%20list%20table%20with%20new%20Group%0Adeactivate%20f%0Aend</desc><defs/><g><g/><g/><g/><g/><g/><g/><g/><g/><g/><g/><g/><g/><g/><g/><g/><g/><g/><g/><g/><g/><g><rect fill="white" stroke="none" x="0" y="0" width="1166" height="948"/></g><g><text fill="black" stroke="none" font-family="sans-serif" font-size="16.5pt" font-style="normal" font-weight="normal" text-decoration="normal" x="358.2134189002604" y="24.50280495" text-anchor="start" dominant-baseline="alphabetic" xml:space="preserve">Create Group with type Department or Normal</text></g><g/><g><path fill="none" stroke="black" paint-order="fill stroke markers" d=" M 73.50841485 129.701514202 L 73.50841485 948.0951995319997" stroke-miterlimit="10" stroke-width="1.3612669416666667" stroke-dasharray="12.565541,5.445067766666667"/><path fill="none" stroke="black" paint-order="fill stroke markers" d=" M 381.90074320364585 129.701514202 L 381.90074320364585 948.0951995319997" stroke-miterlimit="10" stroke-width="1.3612669416666667" stroke-dasharray="12.565541,5.445067766666667"/><path fill="none" stroke="black" paint-order="fill stroke markers" d=" M 566.6588728783204 129.701514202 L 566.6588728783204 948.0951995319997" stroke-miterlimit="10" stroke-width="1.3612669416666667" stroke-dasharray="12.565541,5.445067766666667"/><path fill="none" stroke="black" paint-order="fill stroke markers" d=" M 751.4170025529949 129.701514202 L 751.4170025529949 948.0951995319997" stroke-miterlimit="10" stroke-width="1.3612669416666667" stroke-dasharray="12.565541,5.445067766666667"/><path fill="none" stroke="black" paint-order="fill stroke markers" d=" M 918.0629158330079 129.701514202 L 918.0629158330079 948.0951995319997" stroke-miterlimit="10" stroke-width="1.3612669416666667" stroke-dasharray="12.565541,5.445067766666667"/><path fill="none" stroke="black" paint-order="fill stroke markers" d=" M 1084.7088291130208 129.701514202 L 1084.7088291130208 948.0951995319997" stroke-miterlimit="10" stroke-width="1.3612669416666667" stroke-dasharray="12.565541,5.445067766666667"/></g><g><g><path fill="white" stroke="green" paint-order="fill stroke markers" d=" M 82.819480731 60.60360424300001 A 9.311065881 9.311065881 0 1 1 82.81947607546743 60.594293178670846 M 73.50841485 69.91467012400001 L 73.50841485 89.84361815000001 M 61.747068473999995 77.102159576 L 85.26976122599999 77.102159576 M 73.50841485 89.84361815000001 L 61.747068473999995 108.465749912 M 73.50841485 89.84361815000001 L 85.26976122599999 108.465749912" stroke-miterlimit="10" stroke-width="1.3884922805000002" stroke-dasharray=""/></g><g><text fill="black" stroke="none" font-family="sans-serif" font-size="11pt" font-style="normal" font-weight="normal" text-decoration="normal" x="14.166991815332025" y="124.80095321200001" text-anchor="start" dominant-baseline="alphabetic" xml:space="preserve">Workspace Admin</text></g><g><path fill="white" stroke="black" paint-order="fill stroke markers" d=" M 414.32612175414584 82.819480731 A 24.2577769005 24.2577769005 0 1 1 414.3261096252584 82.79522295814245 M 350.8638569336458 57.17321154999999 L 350.8638569336458 108.465749912 M 349.47536465314585 82.819480731 L 365.81056795314583 82.819480731" stroke-miterlimit="10" stroke-width="2.7769845610000004" stroke-dasharray=""/></g><g><text fill="black" stroke="none" font-family="sans-serif" font-size="11pt" font-style="normal" font-weight="normal" text-decoration="normal" x="315.07184000540366" y="124.80095321200001" text-anchor="start" dominant-baseline="alphabetic" xml:space="preserve">Create Group popup</text></g><path fill="none" stroke="none"/><g><path fill="white" stroke="black" paint-order="fill stroke markers" d=" M 499.23227355026177 85.75981732500001 L 634.085472206379 85.75981732500001 L 634.085472206379 129.701514202 L 499.23227355026177 129.701514202 L 499.23227355026177 85.75981732500001 Z" stroke-miterlimit="10" stroke-width="2.613632528" stroke-dasharray=""/></g><g><text fill="black" stroke="none" font-family="sans-serif" font-size="11pt" font-style="normal" font-weight="normal" text-decoration="normal" x="516.9559691307618" y="113.36631090200002" text-anchor="start" dominant-baseline="alphabetic" xml:space="preserve">Search Service</text></g><g><path fill="white" stroke="black" paint-order="fill stroke markers" d=" M 775.6747794534948 82.819480731 A 24.2577769005 24.2577769005 0 1 1 775.6747673246074 82.79522295814245 M 748.1499618929948 58.561703830499994 L 757.9510838729948 50.39410218049999 M 748.1499618929948 58.561703830499994 L 757.9510838729948 66.72930548049999" stroke-miterlimit="10" stroke-width="2.7769845610000004" stroke-dasharray=""/></g><g><text fill="black" stroke="none" font-family="sans-serif" font-size="11pt" font-style="normal" font-weight="normal" text-decoration="normal" x="697.2330578508464" y="124.80095321200001" text-anchor="start" dominant-baseline="alphabetic" xml:space="preserve">Group Controller</text></g><path fill="none" stroke="none"/><g><path fill="white" stroke="black" paint-order="fill stroke markers" d=" M 853.4888479380547 85.75981732500001 L 982.636983727961 85.75981732500001 L 982.636983727961 129.701514202 L 853.4888479380547 129.701514202 L 853.4888479380547 85.75981732500001 Z" stroke-miterlimit="10" stroke-width="2.613632528" stroke-dasharray=""/></g><g><text fill="black" stroke="none" font-family="sans-serif" font-size="11pt" font-style="normal" font-weight="normal" text-decoration="normal" x="871.2125435185548" y="113.36631090200002" text-anchor="start" dominant-baseline="alphabetic" xml:space="preserve">Group Service</text></g><g><path fill="white" stroke="blue" paint-order="fill stroke markers" d=" M 1060.8594322950207 97.684515734 L 1060.8594322950207 63.380588804000006 L 1108.5582259310208 63.380588804000006 L 1108.5582259310208 97.684515734" stroke-miterlimit="10" stroke-width="2.7769845610000004" stroke-dasharray=""/><path fill="white" stroke="blue" paint-order="fill stroke markers" d=" M 1108.5582259310208 62.1881189631 L 1108.5570334711172 62.29592950801663 L 1108.5534562106511 62.403729271968594 L 1108.5474945073456 62.51150747506936 L 1108.5391489573665 62.619253339588404 L 1108.5284203952613 62.72695609102909 L 1108.5153098938774 62.834604959206004 L 1108.499818764254 62.94218917932205 L 1108.4819485554915 63.04969799304486 L 1108.4617010545956 63.15712064958265 L 1108.4390782862993 63.2644464067593 L 1108.414082512861 63.371664532088516 L 1108.386716233837 63.47876430384712 L 1108.3569821858323 63.58573501214718 L 1108.3248833422272 63.692565960007016 L 1108.290422912879 63.79924646442086 L 1108.2536043438022 63.90576585742718 L 1108.214431316823 64.01211348717543 L 1108.1729077492112 64.11827871899126 L 1108.1290377932892 64.22425093643996 L 1108.082825836016 64.3300195423881 L 1108.0342764985485 64.43557396006322 L 1107.9833946357805 64.54090363411153 L 1107.9301853358554 64.64599803165338 L 1107.8746539196593 64.75084664333659 L 1107.8168059402874 64.85543898438739 L 1107.7566471824891 64.95976459565881 L 1107.6941836620904 65.06381304467668 L 1107.6294216253914 65.16757392668278 L 1107.5623675485413 65.27103686567541 L 1107.4930281368922 65.37419151544687 L 1107.4214103243278 65.47702756061814 L 1107.347521272569 65.5795347176704 L 1107.2713683704599 65.68170273597339 L 1107.1929592332272 65.7835213988104 L 1107.1123017017192 65.88498052439998 L 1107.0294038416216 65.98606996691414 L 1106.9442739426518 66.08677961749288 L 1106.8569205177284 66.18709940525505 L 1106.7673523021213 66.28701929830548 L 1106.675578252577 66.38652930473813 L 1106.5816075464247 66.48561947363528 L 1106.4854495806562 66.58427989606261 L 1106.387113970988 66.6825007060601 L 1106.2866105508992 66.7802720816286 L 1106.183949370648 66.87758424571203 L 1106.079140696267 66.97442746717506 L 1105.9721950085361 67.07079206177627 L 1105.8631230019353 67.1666683931365 L 1105.7519355835739 67.2620468737025 L 1105.6386438721013 67.35691796570569 L 1105.5232591965944 67.45127218211596 L 1105.4057930954243 67.54510008759026 L 1105.2862573151035 67.63839229941624 L 1105.1646638091102 67.73113948845047 L 1105.0410247366938 67.82333238005134 L 1104.9153524616584 67.9149617550065 L 1104.7876595511268 68.00601845045483 L 1104.657958774284 68.09649336080267 L 1104.526263101099 68.18637743863435 L 1104.3925857010297 68.27566169561702 L 1104.2569399417048 68.36433720339936 L 1104.119339387587 68.45239509450451 L 1103.979797798617 68.53982656321674 L 1103.8383291288378 68.62662286646201 L 1103.694947524998 68.71277532468237 L 1103.5496673251387 68.79827532270376 L 1103.402503057159 68.88311431059763 L 1103.2534694373628 68.9672838045359 L 1103.102581368988 69.0507753876393 L 1102.9498539407157 69.13358071081912 L 1102.7953024251613 69.21569149361203 L 1102.6389422773477 69.29709952500816 L 1102.4807891331595 69.37779666427225 L 1102.3208588077794 69.45777484175761 L 1102.159167294106 69.53702605971311 L 1101.9957307611567 69.61554239308303 L 1101.8305655524482 69.69331599029945 L 1101.663688184364 69.77033907406746 L 1101.4951153445015 69.84660394214286 L 1101.3248638900043 69.92210296810242 L 1101.1529508458761 69.99682860210643 L 1100.9793934032782 70.07077337165379 L 1100.8042089178098 70.14392988232913 L 1100.6274149077738 70.21629081854239 L 1100.4490290524236 70.28784894426022 L 1100.2690691901964 70.35859710372968 L 1100.0875533169283 70.42852822219379 L 1099.9044995840554 70.49763530659898 L 1099.7199262967983 70.5659114462944 L 1099.5338519123322 70.63334981372294 L 1099.3462950379403 70.69994366510412 L 1099.1572744291536 70.76568634110825 L 1098.9668089878758 70.83057126752253 L 1098.774917760492 70.89459195590838 L 1098.5816199359651 70.95774200425032 L 1098.3869348439166 71.02001509759614 L 1098.1908819526934 71.08140500868842 L 1097.9934808674213 71.14190559858717 L 1097.7947513280442 71.20151081728383 L 1097.5947132073504 71.26021470430622 L 1097.3933865089855 71.31801138931453 L 1097.1907913654513 71.37489509268845 L 1096.9869480360937 71.43086012610503 L 1096.7818769050753 71.48590089310757 L 1096.5755984793386 71.54001188966522 L 1096.3681333865543 71.59318770472345 L 1096.1595023730586 71.64542302074504 L 1095.949726301779 71.69671261424193 L 1095.738826150148 71.7470513562975 L 1095.526823008005 71.79643421307951 L 1095.3137380754874 71.84485624634341 L 1095.099592660911 71.89231261392625 L 1094.8844081786388 71.93879857023082 L 1094.6682061469396 71.9843094667002 L 1094.4510081858364 72.02884075228269 L 1094.2328360149443 72.07238797388683 L 1094.0137114512988 72.11494677682676 L 1093.7936564071736 72.15651290525764 L 1093.5726928878894 72.19708220260128 L 1093.3508429896144 72.23665061196175 L 1093.1281288971534 72.27521417653107 L 1092.90457288173 72.31276903998494 L 1092.6801972987594 72.3493114468683 L 1092.455024585613 72.38483774297092 L 1092.2290772593747 72.41934437569277 L 1092.0023779145886 72.45282789439938 L 1091.774949221 72.48528495076673 L 1091.5468139212894 72.51671229911628 L 1091.317994828796 72.54710679673934 L 1091.0885148252387 72.5764654042115 L 1090.8583968584267 72.60478518569649 L 1090.6276639399646 72.63206330923974 L 1090.3963391429522 72.65829704705163 L 1090.1644455996764 72.68348377578025 L 1089.9320064992983 72.70762097677371 L 1089.6990450855342 72.73070623633201 L 1089.4655846543312 72.75273724594847 L 1089.2316485515382 72.77371180254045 L 1088.9972601705704 72.79362780866978 L 1088.7624429500704 72.81248327275246 L 1088.5272203715647 72.83027630925778 L 1088.291615957115 72.84700513889692 L 1088.0556532669668 72.86266808880085 L 1087.819355897192 72.87726359268764 L 1087.582747477331 72.89079019101906 L 1087.3458516680284 72.90324653114655 L 1087.108692158668 72.91463136744649 L 1086.8712926650028 72.9249435614447 L 1086.6336769267843 72.93418208193043 L 1086.3958687053887 72.94234600505929 L 1086.1578917814397 72.94943451444577 L 1085.9197699524314 72.95544690124485 L 1085.681527030348 72.96038256422287 L 1085.4431868392837 72.96424100981763 L 1085.2047732130586 72.9670218521878 L 1084.966309992837 72.96872481325143 L 1084.7278210247418 72.96934972271386 L 1084.4893301574714 72.96889651808466 L 1084.2508612399135 72.96736524468392 L 1084.0124381187613 72.96475605563768 L 1083.7740846361282 72.96106921186271 L 1083.535824627164 72.95630508204027 L 1083.2976819176706 72.9504641425794 L 1083.0596803217209 72.94354697756918 L 1082.821843639276 72.93555427872033 L 1082.584195653806 72.9264868452961 L 1082.3467601299117 72.91634558403224 L 1082.109560810947 72.90513150904647 L 1081.8726214166466 72.89284574173689 L 1081.6359656407521 72.87948951067006 L 1081.3996171486444 72.86506415145789 L 1081.1635995749755 72.84957110662431 L 1080.9279365213058 72.8330119254609 L 1080.6926515537448 72.81538826387197 L 1080.4577682005927 72.79670188420899 L 1080.2233099499895 72.77695465509434 L 1079.9893002475644 72.7561485512345 L 1079.7557624940932 72.73428565322251 L 1079.5227200431561 72.71136814732996 L 1079.2901961988046 72.68739832528833 L 1079.0582142132287 72.66237858405984 L 1078.826797284434 72.63631142559778 L 1078.5959685539206 72.60919945659627 L 1078.3657511043689 72.58104538822961 L 1078.1361679573324 72.55185203588118 L 1077.9072420709342 72.5216223188619 L 1077.6789963375722 72.49035926011825 L 1077.4514535816295 72.45806598593009 L 1077.2246365571923 72.4247457255979 L 1076.9985679457736 72.39040181111994 L 1076.7732703540466 72.35503767685907 L 1076.5487663115828 72.31865685919922 L 1076.3250782685989 72.28126299619186 L 1076.1022285937129 72.24285982719209 L 1075.8802395717069 72.20345119248485 L 1075.6591334012976 72.16304103290075 L 1075.4389321929184 72.12163338942209 L 1075.219657966506 72.07923240277869 L 1075.0013326493008 72.03584231303388 L 1074.7839780736526 71.99146745916049 L 1074.5676159748375 71.94611227860693 L 1074.3522679888852 71.89978130685344 L 1074.1379556504148 71.85247917695861 L 1073.9247003904818 71.80421061909601 L 1073.7125235344342 71.75498046008119 L 1073.501446299781 71.70479362288901 L 1073.2914897940698 71.65365512616141 L 1073.0826750127758 71.60157008370541 L 1072.8750228372035 71.54854370398188 L 1072.6685540323972 71.49458128958457 L 1072.4632892450657 71.43968823671 L 1072.259249001516 71.38387003461766 L 1072.0564537056032 71.32713226508127 L 1071.8549236366875 71.26948060183051 L 1071.6546789476076 71.21092080998365 L 1071.4557396626662 71.15145874547107 L 1071.2581256756255 71.0911003544497 L 1071.0618567477195 71.0298516727083 L 1070.8669525056778 70.96771882506403 L 1070.6734324397617 70.90470802474988 L 1070.481315901817 70.84082557279336 L 1070.2906221033372 70.77607785738643 L 1070.1013701135432 70.71047135324669 L 1069.9135788574763 70.64401262096986 L 1069.7272671141056 70.5767083063738 L 1069.5424535144502 70.50856513983389 L 1069.3591565397162 70.43958993560999 L 1069.177394519448 70.36978959116503 L 1068.9971856296963 70.29917108647531 L 1068.8185478912 70.22774148333244 L 1068.6414991675842 70.1555079246372 L 1068.4660571635734 70.08247763368529 L 1068.2922394232219 70.00865791344492 L 1068.120063328159 69.9340561458266 L 1067.9495460958508 69.85867979094495 L 1067.780704777878 69.78253638637263 L 1067.6135562582322 69.70563354638664 L 1067.4481172516257 69.62797896120689 L 1067.2844043018217 69.54958039622719 L 1067.1224337799783 69.47044569123871 L 1066.962221883013 69.39058275964601 L 1066.803784631982 69.30999958767568 L 1066.6471378704782 69.22870423357777 L 1066.4922972630472 69.14670482681996 L 1066.339278293621 69.06400956727457 L 1066.1880962639686 68.98062672439866 L 1066.0387662921673 68.89656463640702 L 1065.8913033110898 68.8118317094384 L 1065.7457220669114 68.72643641671489 L 1065.6020371176348 68.6403872976946 L 1065.4602628316356 68.55369295721772 L 1065.3204133862241 68.46636206464606 L 1065.1825027662285 68.37840335299609 L 1065.0465447625954 68.28982561806569 L 1064.9125529710125 68.20063771755453 L 1064.7805407905466 68.11084857017835 L 1064.6505214223064 68.02046715477704 L 1064.5225078681199 67.92950250941684 L 1064.396512929236 67.83796373048648 L 1064.2725492050436 67.74585997178757 L 1064.1506290918119 67.65320044361923 L 1064.0307647814504 67.55999441185705 L 1063.9129682602904 67.46625119702654 L 1063.797251307886 67.37198017337107 L 1063.683625495836 67.27719076791445 L 1063.5721021866264 67.18189245951821 L 1063.4626925324958 67.08609477793381 L 1063.355407474318 66.98980730284956 L 1063.2502577405098 66.89303966293272 L 1063.1472538459568 66.79580153486665 L 1063.0464060909626 66.69810264238313 L 1062.9477245602184 66.59995275528999 L 1062.8512191217956 66.50136168849414 L 1062.756899426157 66.40233930102012 L 1062.664774905194 66.30289549502413 L 1062.574854771282 66.20304021480393 L 1062.4871480163588 66.1027834458043 L 1062.4016634110276 66.00213521361863 L 1062.3184095036772 65.90110558298623 L 1062.2373946196294 65.799704656786 L 1062.1586268603046 65.69794257502603 L 1062.0821141024132 65.59582951382973 L 1062.0078639971675 65.4933756844181 L 1061.9358839695158 65.3905913320887 L 1061.8661812174012 65.28748673519112 L 1061.7987627110406 65.18407220409914 L 1061.7336351922286 65.08035808017966 L 1061.6708051736628 64.97635473475869 L 1061.6102789382926 64.87207256808405 L 1061.5520625386912 64.76752200828555 L 1061.4961617964498 64.66271351033203 L 1061.4425823015963 64.55765755498592 L 1061.3913294120357 64.45236464775525 L 1061.3424082530137 64.34684531784296 L 1061.295823716606 64.24111011709415 L 1061.251580461227 64.13516961894075 L 1061.2096829111656 64.0290344173443 L 1061.1701352561417 63.92271512573653 L 1061.1329414508882 63.81622237595798 L 1061.0981052147542 63.70956681719489 L 1061.0656300313346 63.602759114914264 L 1061.0355191481206 63.49580994979732 L 1061.0077755761754 63.38873001667144 L 1060.982402089833 63.28153002344071 L 1060.959401226421 63.17422069001512 L 1060.9387752860066 63.066812747238586 L 1060.9205263311665 62.959316935815885 L 1060.904656186781 62.85174400523857 L 1060.8911664398515 62.74410471271006 L 1060.8800584393414 62.636409822069915 L 1060.8713332960413 62.52867010271744 L 1060.8649918824583 62.4208963285348 L 1060.8610348327286 62.313099276809595 L 1060.859462542554 62.20528972715717 L 1060.860275169162 62.09747846044265 L 1060.8634726312905 61.98967625770286 L 1060.8690546091962 61.88189389906824 L 1060.8770205446858 61.77414216268484 L 1060.8873696411727 61.66643182363649 L 1060.9001008637554 61.558773652867366 L 1060.9152129393226 61.4511784161048 L 1060.932704356679 61.34365687278283 L 1060.9525733666978 61.236219774966166 L 1060.9748179824946 61.12887786627507 L 1060.999435979626 61.02164188081096 L 1061.026424896313 60.91452254208302 L 1061.0557820336865 60.807530561935856 L 1061.0875044560569 60.70067663947832 L 1061.1215889912087 60.593971460013606 L 1061.1580322307168 60.487425693970756 L 1061.1968305302876 60.381049995837586 L 1061.2379800101232 60.27485500309525 L 1061.2814765553103 60.16885133515453 L 1061.3273158162303 60.06304959229389 L 1061.3754932089955 59.95746035459945 L 1061.4260039159067 59.852094180906974 L 1061.4788428859354 59.746961607746044 L 1061.5340048352284 59.64207314828636 L 1061.591484247637 59.537439291286454 L 1061.651275375268 59.43307050004484 L 1061.713372239058 59.32897721135367 L 1061.7777686293723 59.22516983445505 L 1061.844458106626 59.12165875000019 L 1061.9134340019268 59.01845430901127 L 1061.9846894177426 58.91556683184637 L 1062.0582172285913 58.81300660716748 L 1062.1340100817529 58.7107838909116 L 1062.2120603980054 58.60890890526517 L 1062.292360372382 58.507391837641855 L 1062.3749019749525 58.406242839663825 L 1062.4596769516254 58.30547202614659 L 1062.5466768249732 58.205089474087515 L 1062.6358928950817 58.105105221658164 L 1062.7273162404176 58.00552926720046 L 1062.8209377187231 57.90637156822687 L 1062.9167479679284 57.807642040424646 L 1063.014737407088 57.709350556664305 L 1063.1148962373397 57.61150694601232 L 1063.2172144428841 57.514120992748204 L 1063.321681791986 57.417202435386145 L 1063.4282878379975 57.320760965701105 L 1063.5370219204028 57.224806227759686 L 1063.6478731658842 57.12934781695572 L 1063.7608304894095 57.03439527905074 L 1063.8758825953405 56.93995810921942 L 1063.9930179785626 56.84604575110002 L 1064.1122249256352 56.75266759585011 L 1064.2334915159627 56.65983298120741 L 1064.356805622987 56.567551190555996 L 1064.4821549154005 56.47583145199805 L 1064.609526858378 56.384682937430995 L 1064.738908714832 56.29411476163032 L 1064.870287546684 56.20413598133814 L 1065.0036502161606 56.1147555943575 L 1065.138983387106 56.02598253865261 L 1065.276273526316 55.937825691455075 L 1065.4155069048907 55.85029386837614 L 1065.5566695996085 55.763395822525176 L 1065.6997474943178 55.677140243634355 L 1065.844726281348 55.591535757189675 L 1065.9915914629412 55.50659092356846 L 1066.1403283527018 55.42231423718327 L 1066.2909220770648 55.33871412563253 L 1066.443357576783 55.25579894885771 L 1066.597619608434 55.1735769983074 L 1066.7536927459425 55.092056496108135 L 1066.9115613821255 55.01124559424221 L 1067.0712097302503 54.93115237373246 L 1067.2326218256155 54.851784843834196 L 1067.3957815271458 54.77315094123426 L 1067.5606725190075 54.6952585292574 L 1067.7272783122385 54.61811539707989 L 1067.8955822463981 54.54172925895067 L 1068.0655674912334 54.46610775341989 L 1068.2372170483618 54.391258442575094 L 1068.41051375297 54.317188811284986 L 1068.5854402755326 54.24390626645098 L 1068.7619791235427 54.171418136266475 L 1068.9401126432629 54.09973166948409 L 1069.1198230214893 54.028854034690774 L 1069.3010922873343 53.95879231959093 L 1069.483902314022 53.88955353029769 L 1069.6682348207023 53.82114459063227 L 1069.854071374278 53.753572341431656 L 1070.0413933912484 53.68684353986444 L 1070.2301821395686 53.62096485875517 L 1070.4204187405203 53.55594288591707 L 1070.6120841706024 53.49178412349323 L 1070.8051592634315 53.42849498730643 L 1070.9996247116592 53.366081806217544 L 1071.1954610689027 53.304550821492676 L 1071.3926487516896 53.24390818617902 L 1071.5911680414158 53.18415996448957 L 1071.7909990863177 53.12531213119671 L 1071.9921219034577 53.067370571034715 L 1072.1945163807213 53.01034107811134 L 1072.3981622788294 52.95422935532834 L 1072.6030392333623 52.89904101381123 L 1072.809126756795 52.84478157234818 L 1073.016404240547 52.79145645683812 L 1073.2248509570425 52.73907099974815 L 1073.4344460617835 52.687630439580346 L 1073.6451685954346 52.637139920347835 L 1073.8569974859176 52.58760449106049 L 1074.0699115505201 52.53902910521993 L 1074.2838894980132 52.49141862032429 L 1074.4989099307804 52.444777797382365 L 1074.7149513469576 52.399111300437596 L 1074.9319921425833 52.354423696101605 L 1075.1500106137585 52.3107194530976 L 1075.3689849588181 52.26800294181345 L 1075.5888932805099 52.2262784338647 L 1075.809713588185 52.18555010166736 L 1076.0314237999967 52.14582201802072 L 1076.2540017451086 52.10709815570004 L 1076.4774251659117 52.06938238705927 L 1076.7016717202498 52.032678483643856 L 1076.9267189836548 51.996990115813546 L 1077.1525444515876 51.96232085237539 L 1077.3791255416895 51.928674160226834 L 1077.6064395960407 51.89605340400906 L 1077.8344638834249 51.8644618457705 L 1078.0631756016032 51.833902644640645 L 1078.2925518795948 51.80437885651416 L 1078.5225697799629 51.775893433745246 L 1078.753206301109 51.74844922485244 L 1078.9844383795735 51.722048974233765 L 1079.216242892341 51.69669532189228 L 1079.4485966591533 51.672390803172085 L 1079.6814764448275 51.649137848504814 L 1079.914858961579 51.626938783166544 L 1080.1487208713506 51.60579582704531 L 1080.3830387881465 51.58571109441911 L 1080.61778928037 51.56668659374447 L 1080.8529488731676 51.54872422745561 L 1081.088494050776 51.53182579177417 L 1081.3244012588736 51.515992976529645 L 1081.5606469069364 51.50122736499037 L 1081.7972073705962 51.4875304337052 L 1082.034058994004 51.47490355235584 L 1082.2711780921945 51.4633479836199 L 1082.508540953456 51.45286488304463 L 1082.7461238416997 51.443455298931354 L 1082.9839029988352 51.43512017223063 L 1083.2218546471445 51.4278603364482 L 1083.4599549916613 51.42167651756158 L 1083.6981802225494 51.41656933394751 L 1083.9365065174843 51.41253929632009 L 1084.1749100440354 51.40958680767973 L 1084.4133669620483 51.407712163272826 L 1084.6518534260301 51.40691555056227 L 1084.8903455875331 51.40719704920866 L 1085.12881959754 51.40855663106237 L 1085.3672516088484 51.41099416016634 L 1085.6056177784558 51.414509392769695 L 1085.8438942699443 51.419101977352106 L 1086.0820572558625 51.42477145465894 L 1086.3200829201112 51.431517257747196 L 1086.5579474603217 51.43933871204218 L 1086.7956270902384 51.44823503540498 L 1087.0330980420963 51.45820533821068 L 1087.2703365689983 51.4692486234373 L 1087.5073189472894 51.48136378676553 L 1087.744021478929 51.49454961668913 L 1087.9804204938612 51.50880479463608 L 1088.2164923523817 51.524127895100484 L 1088.4522134475014 51.54051738578506 L 1088.6875602073071 51.5579716277544 L 1088.9225090973189 51.57648887559884 L 1089.1570366228439 51.59606727760904 L 1089.3911193313245 51.6167048759611 L 1089.6247338146852 51.6383996069124 L 1089.8578567116724 51.66114930100791 L 1090.0904647101904 51.684951683297186 L 1090.3225345496335 51.70980437356183 L 1090.554043023211 51.735704886553535 L 1090.7849669802683 51.76265063224257 L 1091.0152833286027 51.79063891607683 L 1091.2449690367705 51.81966693925126 L 1091.4740011363929 51.849731798987726 L 1091.7023567244505 51.88083048882531 L 1091.930012965575 51.91295989892094 L 1092.1569470943318 51.94611681636038 L 1092.3831364174973 51.980297925479526 L 1092.6085583163274 52.01549980819594 L 1092.8331902488205 52.0517189443507 L 1093.05700975197 52.08895171206036 L 1093.2799944440126 52.127194388079175 L 1093.5021220266647 52.16644314817141 L 1093.7233702873532 52.20669406749378 L 1093.9437171014363 52.247943120987884 L 1094.1631404344162 52.29018618378274 L 1094.3816183441427 52.33341903160728 L 1094.5991289830065 52.37763734121275 L 1094.8156506001253 52.422836690805035 L 1095.0311615435178 52.46901256048684 L 1095.245640262269 52.516160332709674 L 1095.459065308686 52.564275292735616 L 1095.6714153404419 52.613352629108746 L 1095.8826691227105 52.663387434136325 L 1096.0928055302898 52.71437470437956 L 1096.301803549714 52.7663093411539 L 1096.509642281355 52.819186151038956 L 1096.7163009415133 52.8729998463978 L 1096.921758864495 52.92774504590574 L 1097.125995504679 52.983416275088445 L 1097.3289904385713 53.040007966869396 L 1097.530723366848 53.09751446212657 L 1097.731174116384 53.15593001025836 L 1097.9303226422717 53.21524876975863 L 1098.1281490298243 53.27546480880087 L 1098.324633496568 53.33657210583136 L 1098.5197563942195 53.3985645501713 L 1098.7134982106522 53.461435942627936 L 1098.9058395718457 53.52517999611441 L 1099.0967612438242 53.58979033627848 L 1099.2862441345794 53.655260502139996 L 1099.4742692959803 53.721583946736914 L 1099.6608179256673 53.78875403778004 L 1099.845871368933 53.85676405831625 L 1100.0294111205874 53.92560720740017 L 1100.211418826808 53.995276600774254 L 1100.391876286976 54.065765271557225 L 1100.5707654554958 54.13706617094075 L 1100.7480684435998 54.2091721688943 L 1100.9237675211364 54.28207605487816 L 1101.0978451183448 54.35577053856451 L 1101.27028382761 54.43024825056637 L 1101.441066405205 54.50550174317461 L 1101.6101757730144 54.581523491102686 L 1101.777595020242 54.658305892239156 L 1101.9433074051028 54.73584126840789 L 1102.1072963564966 54.81412186613588 L 1102.2695454756645 54.89313985742859 L 1102.4300385378301 54.97288734055273 L 1102.5887594938208 55.05335634082646 L 1102.7456924716735 55.1345388114168 L 1102.900821778221 55.21642663414435 L 1103.0541319006616 55.29901162029506 L 1103.2056075081114 55.38228551143916 L 1103.3552334531355 55.46623998025691 L 1103.5029947732644 55.55086663137139 L 1103.6488766924888 55.63615700218803 L 1103.7928646227388 55.722102563740805 L 1103.9349441653408 55.80869472154519 L 1104.0751011124596 55.89592481645755 L 1104.2133214485168 55.98378412554111 L 1104.3495913515942 56.07226386293816 L 1104.483897194815 56.1613551807487 L 1104.6162255477068 56.251049169915184 L 1104.7465631775444 56.34133686111345 L 1104.8748970506738 56.4322092256496 L 1105.0012143338145 56.52365717636293 L 1105.1255023953431 56.615671568534566 L 1105.2477488065576 56.70824320080196 L 1105.3679413429184 56.80136281607904 L 1105.4860679852718 56.89502110248188 L 1105.6021169210526 56.98920869425987 L 1105.7160765454635 57.083916172732344 L 1105.827935462637 57.17913406723036 L 1105.937682486775 57.27485285604382 L 1106.045306643266 57.37106296737362 L 1106.1507971697845 57.467754780288786 L 1106.2541435173657 57.56491862568861 L 1106.3553353514606 57.662544787269525 L 1106.4543625529705 57.76062350249672 L 1106.5512152192575 57.859144963580405 L 1106.645883665136 57.95809931845658 L 1106.7383584238398 58.05747667177222 L 1106.8286302479705 58.15726708587479 L 1106.9166901104209 58.257460581806065 L 1107.002529205278 58.358047140299924 L 1107.0861389487038 58.459016702784346 L 1107.1675109797939 58.56035917238722 L 1107.2466371614128 58.66206441494605 L 1107.3235095810082 58.764122260021324 L 1107.3981205514024 58.866522501913586 L 1107.4704626115604 58.96925490068398 L 1107.5405285273366 59.072309183178234 L 1107.6083112921976 59.17567504405398 L 1107.6738041279236 59.279342146811274 L 1107.7370004852855 59.38330012482622 L 1107.7978940447001 59.48753858238766 L 1107.8564787168625 59.59204709573668 L 1107.9127486433542 59.69681521410906 L 1107.9666981972296 59.80183246078026 L 1108.0183219835776 59.907088334113126 L 1108.0676148400635 60.012572308608036 L 1108.1145718374419 60.11827383595545 L 1108.1591882800528 60.22418234609071 L 1108.201459706289 60.33028724825106 L 1108.2413818890427 60.43657793203471 L 1108.2789508361293 60.54304376846186 L 1108.3141627906855 60.64967411103757 L 1108.3470142315448 60.75645829681646 L 1108.3775018735905 60.86338564746893 L 1108.4056226680843 60.97044547034902 L 1108.4313738029698 61.07762705956367 L 1108.4547527031548 61.184919697043256 L 1108.4757570307693 61.29231265361346 L 1108.4943846853973 61.399795190068104 L 1108.5106338042897 61.50735655824312 L 1108.5245027625476 61.614986002091314 L 1108.5359901732868 61.72267275875801 L 1108.545094887776 61.830406059657264 L 1108.5518159955511 61.93817513154877 L 1108.5561528245073 62.04596919761514 L 1108.5581049409648 62.15377747853961 M 1108.5582259310208 96.4920458931 L 1108.5570334711172 96.59985643801662 L 1108.5534562106511 96.70765620196859 L 1108.5474945073456 96.81543440506935 L 1108.5391489573665 96.9231802695884 L 1108.5284203952613 97.03088302102908 L 1108.5153098938774 97.138531889206 L 1108.499818764254 97.24611610932205 L 1108.4819485554915 97.35362492304485 L 1108.4617010545956 97.46104757958265 L 1108.4390782862993 97.5683733367593 L 1108.414082512861 97.67559146208852 L 1108.386716233837 97.78269123384712 L 1108.3569821858323 97.88966194214719 L 1108.3248833422272 97.99649289000702 L 1108.290422912879 98.10317339442086 L 1108.2536043438022 98.20969278742717 L 1108.214431316823 98.31604041717543 L 1108.1729077492112 98.42220564899125 L 1108.1290377932892 98.52817786643996 L 1108.082825836016 98.6339464723881 L 1108.0342764985485 98.73950089006323 L 1107.9833946357805 98.84483056411152 L 1107.9301853358554 98.94992496165337 L 1107.8746539196593 99.05477357333659 L 1107.8168059402874 99.15936591438738 L 1107.7566471824891 99.2636915256588 L 1107.6941836620904 99.36773997467667 L 1107.6294216253914 99.47150085668278 L 1107.5623675485413 99.5749637956754 L 1107.4930281368922 99.67811844544686 L 1107.4214103243278 99.78095449061813 L 1107.347521272569 99.8834616476704 L 1107.2713683704599 99.98562966597338 L 1107.1929592332272 100.08744832881038 L 1107.1123017017192 100.18890745439998 L 1107.0294038416216 100.28999689691415 L 1106.9442739426518 100.39070654749288 L 1106.8569205177284 100.49102633525506 L 1106.7673523021213 100.59094622830548 L 1106.675578252577 100.69045623473812 L 1106.5816075464247 100.78954640363527 L 1106.4854495806562 100.8882068260626 L 1106.387113970988 100.9864276360601 L 1106.2866105508992 101.0841990116286 L 1106.183949370648 101.18151117571202 L 1106.079140696267 101.27835439717506 L 1105.9721950085361 101.37471899177628 L 1105.8631230019353 101.4705953231365 L 1105.7519355835739 101.56597380370249 L 1105.6386438721013 101.6608448957057 L 1105.5232591965944 101.75519911211595 L 1105.4057930954243 101.84902701759025 L 1105.2862573151035 101.94231922941623 L 1105.1646638091102 102.03506641845047 L 1105.0410247366938 102.12725931005133 L 1104.9153524616584 102.2188886850065 L 1104.7876595511268 102.30994538045483 L 1104.657958774284 102.40042029080266 L 1104.526263101099 102.49030436863434 L 1104.3925857010297 102.579588625617 L 1104.2569399417048 102.66826413339936 L 1104.119339387587 102.75632202450451 L 1103.979797798617 102.84375349321674 L 1103.8383291288378 102.93054979646202 L 1103.694947524998 103.01670225468237 L 1103.5496673251387 103.10220225270375 L 1103.402503057159 103.18704124059762 L 1103.2534694373628 103.27121073453588 L 1103.102581368988 103.3547023176393 L 1102.9498539407157 103.4375076408191 L 1102.7953024251613 103.51961842361202 L 1102.6389422773477 103.60102645500817 L 1102.4807891331595 103.68172359427226 L 1102.3208588077794 103.7617017717576 L 1102.159167294106 103.84095298971312 L 1101.9957307611567 103.91946932308304 L 1101.8305655524482 103.99724292029944 L 1101.663688184364 104.07426600406745 L 1101.4951153445015 104.15053087214287 L 1101.3248638900043 104.22602989810241 L 1101.1529508458761 104.30075553210642 L 1100.9793934032782 104.37470030165377 L 1100.8042089178098 104.44785681232914 L 1100.6274149077738 104.52021774854238 L 1100.4490290524236 104.59177587426021 L 1100.2690691901964 104.66252403372968 L 1100.0875533169283 104.73245515219378 L 1099.9044995840554 104.80156223659897 L 1099.7199262967983 104.86983837629438 L 1099.5338519123322 104.93727674372295 L 1099.3462950379403 105.0038705951041 L 1099.1572744291536 105.06961327110824 L 1098.9668089878758 105.13449819752252 L 1098.774917760492 105.19851888590837 L 1098.5816199359651 105.26166893425032 L 1098.3869348439166 105.32394202759615 L 1098.1908819526934 105.38533193868841 L 1097.9934808674213 105.44583252858716 L 1097.7947513280442 105.50543774728384 L 1097.5947132073504 105.56414163430621 L 1097.3933865089855 105.62193831931454 L 1097.1907913654513 105.67882202268845 L 1096.9869480360937 105.73478705610502 L 1096.7818769050753 105.78982782310756 L 1096.5755984793386 105.84393881966523 L 1096.3681333865543 105.89711463472344 L 1096.1595023730586 105.94934995074503 L 1095.949726301779 106.00063954424192 L 1095.738826150148 106.0509782862975 L 1095.526823008005 106.1003611430795 L 1095.3137380754874 106.14878317634341 L 1095.099592660911 106.19623954392625 L 1094.8844081786388 106.2427255002308 L 1094.6682061469396 106.2882363967002 L 1094.4510081858364 106.33276768228268 L 1094.2328360149443 106.37631490388682 L 1094.0137114512988 106.41887370682676 L 1093.7936564071736 106.46043983525765 L 1093.5726928878894 106.50100913260128 L 1093.3508429896144 106.54057754196174 L 1093.1281288971534 106.57914110653107 L 1092.90457288173 106.61669596998493 L 1092.6801972987594 106.65323837686829 L 1092.455024585613 106.6887646729709 L 1092.2290772593747 106.72327130569276 L 1092.0023779145886 106.75675482439937 L 1091.774949221 106.78921188076673 L 1091.5468139212894 106.82063922911627 L 1091.317994828796 106.85103372673933 L 1091.0885148252387 106.8803923342115 L 1090.8583968584267 106.90871211569649 L 1090.6276639399646 106.93599023923973 L 1090.3963391429522 106.96222397705162 L 1090.1644455996764 106.98741070578025 L 1089.9320064992983 107.0115479067737 L 1089.6990450855342 107.03463316633201 L 1089.4655846543312 107.05666417594847 L 1089.2316485515382 107.07763873254045 L 1088.9972601705704 107.09755473866979 L 1088.7624429500704 107.11641020275246 L 1088.5272203715647 107.13420323925777 L 1088.291615957115 107.1509320688969 L 1088.0556532669668 107.16659501880085 L 1087.819355897192 107.18119052268763 L 1087.582747477331 107.19471712101905 L 1087.3458516680284 107.20717346114655 L 1087.108692158668 107.21855829744648 L 1086.8712926650028 107.22887049144471 L 1086.6336769267843 107.23810901193042 L 1086.3958687053887 107.24627293505928 L 1086.1578917814397 107.25336144444577 L 1085.9197699524314 107.25937383124486 L 1085.681527030348 107.26430949422287 L 1085.4431868392837 107.26816793981763 L 1085.2047732130586 107.27094878218779 L 1084.966309992837 107.27265174325143 L 1084.7278210247418 107.27327665271386 L 1084.4893301574714 107.27282344808465 L 1084.2508612399135 107.27129217468391 L 1084.0124381187613 107.26868298563768 L 1083.7740846361282 107.2649961418627 L 1083.535824627164 107.26023201204026 L 1083.2976819176706 107.2543910725794 L 1083.0596803217209 107.24747390756917 L 1082.821843639276 107.23948120872033 L 1082.584195653806 107.23041377529609 L 1082.3467601299117 107.22027251403225 L 1082.109560810947 107.20905843904646 L 1081.8726214166466 107.1967726717369 L 1081.6359656407521 107.18341644067004 L 1081.3996171486444 107.16899108145788 L 1081.1635995749755 107.15349803662431 L 1080.9279365213058 107.1369388554609 L 1080.6926515537448 107.11931519387196 L 1080.4577682005927 107.10062881420897 L 1080.2233099499895 107.08088158509435 L 1079.9893002475644 107.0600754812345 L 1079.7557624940932 107.03821258322252 L 1079.5227200431561 107.01529507732995 L 1079.2901961988046 106.99132525528832 L 1079.0582142132287 106.96630551405984 L 1078.826797284434 106.94023835559778 L 1078.5959685539206 106.91312638659626 L 1078.3657511043689 106.88497231822961 L 1078.1361679573324 106.85577896588119 L 1077.9072420709342 106.8255492488619 L 1077.6789963375722 106.79428619011826 L 1077.4514535816295 106.76199291593008 L 1077.2246365571923 106.72867265559789 L 1076.9985679457736 106.69432874111995 L 1076.7732703540466 106.65896460685907 L 1076.5487663115828 106.62258378919921 L 1076.3250782685989 106.58518992619184 L 1076.1022285937129 106.5467867571921 L 1075.8802395717069 106.50737812248485 L 1075.6591334012976 106.46696796290075 L 1075.4389321929184 106.42556031942208 L 1075.219657966506 106.38315933277867 L 1075.0013326493008 106.33976924303387 L 1074.7839780736526 106.29539438916049 L 1074.5676159748375 106.25003920860692 L 1074.3522679888852 106.20370823685344 L 1074.1379556504148 106.15640610695861 L 1073.9247003904818 106.108137549096 L 1073.7125235344342 106.05890739008117 L 1073.501446299781 106.00872055288902 L 1073.2914897940698 105.9575820561614 L 1073.0826750127758 105.90549701370541 L 1072.8750228372035 105.85247063398188 L 1072.6685540323972 105.79850821958458 L 1072.4632892450657 105.74361516670999 L 1072.259249001516 105.68779696461766 L 1072.0564537056032 105.63105919508126 L 1071.8549236366875 105.5734075318305 L 1071.6546789476076 105.51484773998365 L 1071.4557396626662 105.45538567547108 L 1071.2581256756255 105.3950272844497 L 1071.0618567477195 105.33377860270829 L 1070.8669525056778 105.27164575506403 L 1070.6734324397617 105.20863495474987 L 1070.481315901817 105.14475250279335 L 1070.2906221033372 105.08000478738643 L 1070.1013701135432 105.01439828324668 L 1069.9135788574763 104.94793955096986 L 1069.7272671141056 104.8806352363738 L 1069.5424535144502 104.8124920698339 L 1069.3591565397162 104.74351686560999 L 1069.177394519448 104.67371652116503 L 1068.9971856296963 104.6030980164753 L 1068.8185478912 104.53166841333243 L 1068.6414991675842 104.4594348546372 L 1068.4660571635734 104.38640456368528 L 1068.2922394232219 104.31258484344491 L 1068.120063328159 104.2379830758266 L 1067.9495460958508 104.16260672094495 L 1067.780704777878 104.08646331637262 L 1067.6135562582322 104.00956047638662 L 1067.4481172516257 103.93190589120688 L 1067.2844043018217 103.85350732622719 L 1067.1224337799783 103.77437262123871 L 1066.962221883013 103.694509689646 L 1066.803784631982 103.61392651767568 L 1066.6471378704782 103.53263116357778 L 1066.4922972630472 103.45063175681996 L 1066.339278293621 103.36793649727457 L 1066.1880962639686 103.28455365439865 L 1066.0387662921673 103.20049156640701 L 1065.8913033110898 103.1157586394384 L 1065.7457220669114 103.03036334671489 L 1065.6020371176348 102.94431422769459 L 1065.4602628316356 102.85761988721772 L 1065.3204133862241 102.77028899464605 L 1065.1825027662285 102.68233028299609 L 1065.0465447625954 102.5937525480657 L 1064.9125529710125 102.50456464755453 L 1064.7805407905466 102.41477550017834 L 1064.6505214223064 102.32439408477703 L 1064.5225078681199 102.23342943941684 L 1064.396512929236 102.14189066048647 L 1064.2725492050436 102.04978690178756 L 1064.1506290918119 101.95712737361922 L 1064.0307647814504 101.86392134185704 L 1063.9129682602904 101.77017812702654 L 1063.797251307886 101.67590710337106 L 1063.683625495836 101.58111769791444 L 1063.5721021866264 101.48581938951821 L 1063.4626925324958 101.39002170793381 L 1063.355407474318 101.29373423284954 L 1063.2502577405098 101.19696659293271 L 1063.1472538459568 101.09972846486664 L 1063.0464060909626 101.00202957238312 L 1062.9477245602184 100.90387968528998 L 1062.8512191217956 100.80528861849413 L 1062.756899426157 100.70626623102011 L 1062.664774905194 100.60682242502413 L 1062.574854771282 100.50696714480392 L 1062.4871480163588 100.40671037580431 L 1062.4016634110276 100.30606214361863 L 1062.3184095036772 100.20503251298624 L 1062.2373946196294 100.103631586786 L 1062.1586268603046 100.00186950502604 L 1062.0821141024132 99.89975644382972 L 1062.0078639971675 99.79730261441809 L 1061.9358839695158 99.69451826208869 L 1061.8661812174012 99.59141366519111 L 1061.7987627110406 99.48799913409913 L 1061.7336351922286 99.38428501017967 L 1061.6708051736628 99.28028166475868 L 1061.6102789382926 99.17599949808405 L 1061.5520625386912 99.07144893828554 L 1061.4961617964498 98.96664044033201 L 1061.4425823015963 98.86158448498593 L 1061.3913294120357 98.75629157775525 L 1061.3424082530137 98.65077224784297 L 1061.295823716606 98.54503704709414 L 1061.251580461227 98.43909654894075 L 1061.2096829111656 98.33296134734431 L 1061.1701352561417 98.22664205573652 L 1061.1329414508882 98.12014930595798 L 1061.0981052147542 98.01349374719489 L 1061.0656300313346 97.90668604491427 L 1061.0355191481206 97.79973687979731 L 1061.0077755761754 97.69265694667143 L 1060.982402089833 97.58545695344071 L 1060.959401226421 97.47814762001512 L 1060.9387752860066 97.37073967723859 L 1060.9205263311665 97.26324386581588 L 1060.904656186781 97.15567093523856 L 1060.8911664398515 97.04803164271006 L 1060.8800584393414 96.94033675206991 L 1060.8713332960413 96.83259703271744 L 1060.8649918824583 96.7248232585348 L 1060.8610348327286 96.6170262068096 L 1060.859462542554 96.50921665715717" stroke-miterlimit="10" stroke-width="2.7769845610000004" stroke-dasharray=""/></g><g><text fill="black" stroke="none" font-family="sans-serif" font-size="11pt" font-style="normal" font-weight="normal" text-decoration="normal" x="1053.3308841667317" y="124.80095321200001" text-anchor="start" dominant-baseline="alphabetic" xml:space="preserve">Database</text></g></g><g><path fill="white" stroke="black" paint-order="fill stroke markers" d=" M 373.73314155364585 183.607685092 L 390.06834485364584 183.607685092 L 390.06834485364584 866.4191830319996 L 373.73314155364585 866.4191830319996 L 373.73314155364585 183.607685092" stroke-miterlimit="10" stroke-width="1.3612669416666667" stroke-dasharray=""/><path fill="white" stroke="black" paint-order="fill stroke markers" d=" M 743.2494009029948 412.300531292 L 759.5846042029949 412.300531292 L 759.5846042029949 820.6806137919997 L 743.2494009029948 820.6806137919997 L 743.2494009029948 412.300531292" stroke-miterlimit="10" stroke-width="1.3612669416666667" stroke-dasharray=""/><path fill="white" stroke="black" paint-order="fill stroke markers" d=" M 909.8953141830078 637.7263368319999 L 926.2305174830079 637.7263368319999 L 926.2305174830079 774.9420445519997 L 909.8953141830078 774.9420445519997 L 909.8953141830078 637.7263368319999" stroke-miterlimit="10" stroke-width="1.3612669416666667" stroke-dasharray=""/><path fill="white" stroke="black" paint-order="fill stroke markers" d=" M 1076.5412274630207 683.4649060719998 L 1092.8764307630208 683.4649060719998 L 1092.8764307630208 729.2034753119998 L 1076.5412274630207 729.2034753119998 L 1076.5412274630207 683.4649060719998" stroke-miterlimit="10" stroke-width="1.3612669416666667" stroke-dasharray=""/><g><g><rect fill="white" stroke="none" x="134.380962184362" y="162.371920802" width="178.47963203492188" height="21.23576429"/></g><text fill="black" stroke="none" font-family="sans-serif" font-size="11pt" font-style="normal" font-weight="normal" text-decoration="normal" x="136.831242679362" y="177.07360377199998" text-anchor="start" dominant-baseline="alphabetic" xml:space="preserve">Go to Create Group button</text></g><g><path fill="none" stroke="black" paint-order="fill stroke markers" d=" M 73.50841485 183.607685092 L 360.2838241699792 183.607685092" stroke-miterlimit="10" stroke-width="1.3612669416666667" stroke-dasharray=""/><g transform="translate(373.73314155364585,183.607685092) translate(-373.73314155364585,-183.607685092)"><path fill="black" stroke="none" paint-order="stroke fill markers" d=" M 360.1204721369792 176.80135038366666 L 373.73314155364585 183.607685092 L 360.1204721369792 190.41401980033334 Z"/></g></g><g><g><rect fill="white" stroke="none" x="128.27145748465497" y="208.110490042" width="190.69864143433594" height="21.23576429"/></g><text fill="black" stroke="none" font-family="sans-serif" font-size="11pt" font-style="normal" font-weight="normal" text-decoration="normal" x="130.72173797965496" y="222.812173012" text-anchor="start" dominant-baseline="alphabetic" xml:space="preserve">Display Create Group popup</text></g><g><path fill="none" stroke="black" paint-order="fill stroke markers" d=" M 373.73314155364585 229.346254332 L 86.95773223366666 229.346254332" stroke-miterlimit="10" stroke-width="1.3612669416666667" stroke-dasharray="6.53408132"/><g transform="translate(73.50841485,229.346254332) translate(-73.50841485,-229.346254332)"><path fill="black" stroke="none" paint-order="stroke fill markers" d=" M 87.12108426666666 222.53991962366666 L 73.50841485 229.346254332 L 87.12108426666666 236.15258904033334 Z"/></g></g><g><g><rect fill="white" stroke="none" x="108.3251531633659" y="253.849059282" width="230.59125007691406" height="21.23576429"/></g><text fill="black" stroke="none" font-family="sans-serif" font-size="11pt" font-style="normal" font-weight="normal" text-decoration="normal" x="110.7754336583659" y="268.550742252" text-anchor="start" dominant-baseline="alphabetic" xml:space="preserve">Select Type Department or Normal</text></g><g><path fill="none" stroke="black" paint-order="fill stroke markers" d=" M 73.50841485 275.084823572 L 360.2838241699792 275.084823572" stroke-miterlimit="10" stroke-width="1.3612669416666667" stroke-dasharray=""/><g transform="translate(373.73314155364585,275.084823572) translate(-373.73314155364585,-275.084823572)"><path fill="black" stroke="none" paint-order="stroke fill markers" d=" M 360.1204721369792 268.27848886366667 L 373.73314155364585 275.084823572 L 360.1204721369792 281.89115828033334 Z"/></g></g><g><g><rect fill="white" stroke="none" x="154.34518032401044" y="299.587628522" width="138.551195755625" height="21.23576429"/></g><text fill="black" stroke="none" font-family="sans-serif" font-size="11pt" font-style="normal" font-weight="normal" text-decoration="normal" x="156.79546081901043" y="314.28931149199997" text-anchor="start" dominant-baseline="alphabetic" xml:space="preserve">Enter name of group</text></g><g><path fill="none" stroke="black" paint-order="fill stroke markers" d=" M 73.50841485 320.823392812 L 360.2838241699792 320.823392812" stroke-miterlimit="10" stroke-width="1.3612669416666667" stroke-dasharray=""/><g transform="translate(373.73314155364585,320.823392812) translate(-373.73314155364585,-320.823392812)"><path fill="black" stroke="none" paint-order="stroke fill markers" d=" M 360.1204721369792 314.01705810366667 L 373.73314155364585 320.823392812 L 360.1204721369792 327.62972752033335 Z"/></g></g><g><g><rect fill="white" stroke="none" x="186.54632168143232" y="345.326197762" width="74.14891304078125" height="21.23576429"/></g><text fill="black" stroke="none" font-family="sans-serif" font-size="11pt" font-style="normal" font-weight="normal" text-decoration="normal" x="188.9966021764323" y="360.02788073199997" text-anchor="start" dominant-baseline="alphabetic" xml:space="preserve">Click Save</text></g><g><path fill="none" stroke="black" paint-order="fill stroke markers" d=" M 73.50841485 366.561962052 L 360.2838241699792 366.561962052" stroke-miterlimit="10" stroke-width="1.3612669416666667" stroke-dasharray=""/><g transform="translate(373.73314155364585,366.561962052) translate(-373.73314155364585,-366.561962052)"><path fill="black" stroke="none" paint-order="stroke fill markers" d=" M 360.1204721369792 359.7556273436667 L 373.73314155364585 366.561962052 L 360.1204721369792 373.36829676033335 Z"/></g></g><g><g><rect fill="white" stroke="none" x="508.38898941701177" y="391.064767002" width="116.53976692261719" height="21.23576429"/></g><text fill="black" stroke="none" font-family="sans-serif" font-size="11pt" font-style="normal" font-weight="normal" text-decoration="normal" x="510.8392699120118" y="405.766449972" text-anchor="start" dominant-baseline="alphabetic" xml:space="preserve">POST: /api/group</text></g><g><path fill="none" stroke="black" paint-order="fill stroke markers" d=" M 390.06834485364584 412.300531292 L 729.8000835193282 412.300531292" stroke-miterlimit="10" stroke-width="1.3612669416666667" stroke-dasharray=""/><g transform="translate(743.2494009029948,412.300531292) translate(-743.2494009029948,-412.300531292)"><path fill="black" stroke="none" paint-order="stroke fill markers" d=" M 729.6367314863281 405.4941965836667 L 743.2494009029948 412.300531292 L 729.6367314863281 419.10686600033335 Z"/></g></g><g><g><rect fill="white" stroke="none" x="409.39833542531255" y="480.908385152" width="314.5210749060156" height="21.23576429"/></g><text fill="red" stroke="none" font-family="sans-serif" font-size="11pt" font-style="normal" font-weight="normal" text-decoration="normal" x="411.84861592031257" y="495.610068122" text-anchor="start" dominant-baseline="alphabetic" xml:space="preserve">400 BAD_REQUEST: Missing required property</text></g><g><path fill="none" stroke="black" paint-order="fill stroke markers" d=" M 743.2494009029948 502.144149442 L 403.5176622373125 502.144149442" stroke-miterlimit="10" stroke-width="1.3612669416666667" stroke-dasharray="6.53408132"/><g transform="translate(390.06834485364584,502.144149442) translate(-390.06834485364584,-502.144149442)"><path fill="black" stroke="none" paint-order="stroke fill markers" d=" M 403.6810142703125 495.3378147336667 L 390.06834485364584 502.144149442 L 403.6810142703125 508.95048415033335 Z"/></g></g><g><g><rect fill="white" stroke="none" x="165.35806637137372" y="526.646954392" width="116.52542366089844" height="21.23576429"/></g><text fill="black" stroke="none" font-family="sans-serif" font-size="11pt" font-style="normal" font-weight="normal" text-decoration="normal" x="167.8083468663737" y="541.348637362" text-anchor="start" dominant-baseline="alphabetic" xml:space="preserve">Name is required</text></g><g><path fill="none" stroke="black" paint-order="fill stroke markers" d=" M 373.73314155364585 547.882718682 L 86.95773223366666 547.882718682" stroke-miterlimit="10" stroke-width="1.3612669416666667" stroke-dasharray="6.53408132"/><g transform="translate(73.50841485,547.882718682) translate(-73.50841485,-547.882718682)"><path fill="black" stroke="none" paint-order="stroke fill markers" d=" M 87.12108426666666 541.0763839736667 L 73.50841485 547.882718682 L 87.12108426666666 554.6890533903334 Z"/></g></g><g><g><rect fill="white" stroke="none" x="811.9246274284701" y="616.4905725419999" width="45.6306635290625" height="21.23576429"/></g><text fill="black" stroke="none" font-family="sans-serif" font-size="11pt" font-style="normal" font-weight="normal" text-decoration="normal" x="814.3749079234701" y="631.1922555119999" text-anchor="start" dominant-baseline="alphabetic" xml:space="preserve">save()</text></g><g><path fill="none" stroke="black" paint-order="fill stroke markers" d=" M 759.5846042029949 637.7263368319999 L 896.4459967993412 637.7263368319999" stroke-miterlimit="10" stroke-width="1.3612669416666667" stroke-dasharray=""/><g transform="translate(909.8953141830078,637.7263368319999) translate(-909.8953141830078,-637.7263368319999)"><path fill="black" stroke="none" paint-order="stroke fill markers" d=" M 896.2826447663411 630.9200021236666 L 909.8953141830078 637.7263368319999 L 896.2826447663411 644.5326715403332 Z"/></g></g><g><g><rect fill="white" stroke="none" x="978.5705407084831" y="662.2291417819998" width="45.6306635290625" height="21.23576429"/></g><text fill="black" stroke="none" font-family="sans-serif" font-size="11pt" font-style="normal" font-weight="normal" text-decoration="normal" x="981.0208212034831" y="676.9308247519998" text-anchor="start" dominant-baseline="alphabetic" xml:space="preserve">save()</text></g><g><path fill="none" stroke="black" paint-order="fill stroke markers" d=" M 926.2305174830079 683.4649060719998 L 1063.091910079354 683.4649060719998" stroke-miterlimit="10" stroke-width="1.3612669416666667" stroke-dasharray=""/><g transform="translate(1076.5412274630207,683.4649060719998) translate(-1076.5412274630207,-683.4649060719998)"><path fill="black" stroke="none" paint-order="stroke fill markers" d=" M 1062.928558046354 676.6585713636665 L 1076.5412274630207 683.4649060719998 L 1062.928558046354 690.2712407803332 Z"/></g></g><g><g><rect fill="white" stroke="none" x="945.5605080546745" y="707.9677110219998" width="111.65072883667969" height="21.23576429"/></g><text fill="black" stroke="none" font-family="sans-serif" font-size="11pt" font-style="normal" font-weight="normal" text-decoration="normal" x="948.0107885496745" y="722.6693939919998" text-anchor="start" dominant-baseline="alphabetic" xml:space="preserve">New Group data</text></g><g><path fill="none" stroke="black" paint-order="fill stroke markers" d=" M 1076.5412274630207 729.2034753119998 L 939.6798348666746 729.2034753119998" stroke-miterlimit="10" stroke-width="1.3612669416666667" stroke-dasharray="6.53408132"/><g transform="translate(926.2305174830079,729.2034753119998) translate(-926.2305174830079,-729.2034753119998)"><path fill="black" stroke="none" paint-order="stroke fill markers" d=" M 939.8431868996746 722.3971406036665 L 926.2305174830079 729.2034753119998 L 939.8431868996746 736.0098100203331 Z"/></g></g><g><g><rect fill="white" stroke="none" x="778.9145947746615" y="753.7062802619997" width="111.65072883667969" height="21.23576429"/></g><text fill="black" stroke="none" font-family="sans-serif" font-size="11pt" font-style="normal" font-weight="normal" text-decoration="normal" x="781.3648752696615" y="768.4079632319997" text-anchor="start" dominant-baseline="alphabetic" xml:space="preserve">New Group data</text></g><g><path fill="none" stroke="black" paint-order="fill stroke markers" d=" M 909.8953141830078 774.9420445519997 L 773.0339215866616 774.9420445519997" stroke-miterlimit="10" stroke-width="1.3612669416666667" stroke-dasharray="6.53408132"/><g transform="translate(759.5846042029949,774.9420445519997) translate(-759.5846042029949,-774.9420445519997)"><path fill="black" stroke="none" paint-order="stroke fill markers" d=" M 773.1972736196616 768.1357098436664 L 759.5846042029949 774.9420445519997 L 773.1972736196616 781.7483792603331 Z"/></g></g><g><g><rect fill="white" stroke="none" x="515.4612779301954" y="799.4448495019997" width="102.39518989625" height="21.23576429"/></g><text fill="green" stroke="none" font-family="sans-serif" font-size="11pt" font-style="normal" font-weight="normal" text-decoration="normal" x="517.9115584251954" y="814.1465324719996" text-anchor="start" dominant-baseline="alphabetic" xml:space="preserve">201 CREATED</text></g><g><path fill="none" stroke="black" paint-order="fill stroke markers" d=" M 743.2494009029948 820.6806137919997 L 403.5176622373125 820.6806137919997" stroke-miterlimit="10" stroke-width="1.3612669416666667" stroke-dasharray="6.53408132"/><g transform="translate(390.06834485364584,820.6806137919997) translate(-390.06834485364584,-820.6806137919997)"><path fill="black" stroke="none" paint-order="stroke fill markers" d=" M 403.6810142703125 813.8742790836664 L 390.06834485364584 820.6806137919997 L 403.6810142703125 827.486948500333 Z"/></g></g><g><g><rect fill="white" stroke="none" x="92.83840542166668" y="845.1834187419996" width="261.5647455603125" height="21.23576429"/></g><text fill="black" stroke="none" font-family="sans-serif" font-size="11pt" font-style="normal" font-weight="normal" text-decoration="normal" x="95.28868591666668" y="859.8851017119996" text-anchor="start" dominant-baseline="alphabetic" xml:space="preserve">Display Group list table with new Group</text></g><g><path fill="none" stroke="black" paint-order="fill stroke markers" d=" M 373.73314155364585 866.4191830319996 L 86.95773223366666 866.4191830319996" stroke-miterlimit="10" stroke-width="1.3612669416666667" stroke-dasharray="6.53408132"/><g transform="translate(73.50841485,866.4191830319996) translate(-73.50841485,-866.4191830319996)"><path fill="black" stroke="none" paint-order="stroke fill markers" d=" M 87.12108426666666 859.6128483236663 L 73.50841485 866.4191830319996 L 87.12108426666666 873.225517740333 Z"/></g></g><g><g/><path fill="none" stroke="black" paint-order="fill stroke markers" d=" M 16.335203299999996 436.803336242 L 1141.8820406630207 436.803336242 L 1141.8820406630207 890.9219879819997 L 16.335203299999996 890.9219879819997 L 16.335203299999996 436.803336242 Z" stroke-miterlimit="10" stroke-width="2.3336004714285714" stroke-dasharray=""/><path fill="white" stroke="black" paint-order="fill stroke markers" d=" M 16.335203299999996 436.803336242 L 16.335203299999996 456.405580202 L 62.69440689707031 456.405580202 L 72.49552887707031 446.604458222 L 72.49552887707031 436.803336242 L 16.335203299999996 436.803336242" stroke-miterlimit="10" stroke-width="2.3336004714285714" stroke-dasharray=""/><text fill="black" stroke="none" font-family="sans-serif" font-size="8.8pt" font-style="normal" font-weight="bold" text-decoration="normal" x="32.67040659999999" y="449.871498882" text-anchor="start" dominant-baseline="alphabetic" xml:space="preserve">alt</text><g><rect fill="white" stroke="none" x="86.38045168207032" y="438.110152506" width="157.41902412476563" height="16.988611432000003"/></g><text fill="black" stroke="none" font-family="sans-serif" font-size="8.8pt" font-style="normal" font-weight="bold" text-decoration="normal" x="88.83073217707032" y="449.871498882" text-anchor="start" dominant-baseline="alphabetic" xml:space="preserve">[If Name do not have value]</text><g><path fill="none" stroke="black" paint-order="fill stroke markers" d=" M 16.335203299999996 572.385523632 L 1141.8820406630207 572.385523632" stroke-miterlimit="10" stroke-width="2.3336004714285714" stroke-dasharray="4.083800825"/></g><g/><g><rect fill="white" stroke="none" x="86.38045168207032" y="573.6923398959999" width="36.84300483765625" height="16.988611432000003"/></g><text fill="black" stroke="none" font-family="sans-serif" font-size="8.8pt" font-style="normal" font-weight="bold" text-decoration="normal" x="88.83073217707032" y="585.4536862719999" text-anchor="start" dominant-baseline="alphabetic" xml:space="preserve">[Else]</text></g><g/></g></g></svg>