<svg version="1.1" xmlns="http://www.w3.org/2000/svg" xmlns:xlink="http://www.w3.org/1999/xlink" width="1228" height="1774"><desc>title%20Update%20Group%20with%20type%20Course%0A%0Aactor%20%23green%3A0.5%20%22Workspace%20Admin%22%20as%20w%0Aboundary%20%22Update%20Group%20popup%22%20as%20f%0Aparticipant%20%22Search%20Service%22%20as%20ss%0Acontrol%20%22Group%20Controller%22%20as%20gc%0Aparticipant%20%22Group%20Service%22%20as%20gs%0Adatabase%20%23blue%3A1%20%22Database%22%20as%20db%0A%0Aw-%3Ef%3AGo%20to%20Update%20Group%20popup%0Aactivate%20f%0Aw%3C--f%3ADisplay%20Update%20Group%20popup%0A%0Aw-%3Ef%3ASearch%20Teacher%0Af-%3Ess%3AGET%5Cn%2Fapi%2Fsearch%3Fentity%3Duser%5Cn%26%7BparamToSearch%7D%0Aactivate%20ss%0Af%3C--ss%3AResult%20list%0Adeactivate%20ss%0Aalt%20If%20there%20are%20not%20data%20match%20condition%0Aw%3C--f%3ANo%20Options%0Aelse%20Else%0A%0A%0Aw%3C--f%3A%20Teacher%20options%20list%0Aw-%3Ef%3ASelect%20Teacher%20and%20click%20Save%0Af-%3Egc%3APUT%3A%20%2Fapi%2Fgroup%0Aactivate%20gc%0Aalt%20If%20there%20is%20field%20do%20not%20have%20value%0Af%3C--gc%3A%3Ccolor%3A%23red%3E400%20BAD_REQUEST%3A%20%5CnMissing%20required%20property%3C%2Fcolor%3E%0Aw%3C--f%3ARequired%20message%0Aelse%20Else%0Agc-%3Egs%3AisExist(id)%0Aactivate%20gs%0Ags-%3Edb%3AexistsById(id)%0Aactivate%20db%0Ags%3C--db%3A%20Boolean%20value%0Adeactivate%20db%0Agc%3C--gs%3ABoolean%20value%0Adeactivate%20gs%0Aalt%20If%20group%20is%20not%20exist%0Af%3C--gc%3A%3Ccolor%3A%23red%3E404%20NOT%20FOUND%3C%2Fcolor%3E%0Aw%3C--f%3AClose%20popup%0Aw%3C--f%3A%20Message%20Update%20fail%0Aelse%0Agc-%3Egs%3ASet%20teacher%20is%20an%20admin%20%5Cnof%20group%20by%20setAdmin()%0Aactivate%20gs%0Agc-%3Egs%3Asave()%0Ags-%3Edb%3AUpdate%20Group%0Aactivate%20db%0Ags%3C--db%3A%20Updated%20Group%20data%0Adeactivate%20db%0Agc%3C--gs%3AUpdated%20Group%20data%0Adeactivate%20gs%0Af%3C--gc%3A%3Ccolor%3A%23green%3E200%20OK%5CnResponse%20body%3A%20Group%20data%20%3C%2Fcolor%3E%0Adeactivate%20gc%0Aw%3C--f%3A%20Display%20Group%20detail%20page%20%5Cnwith%20updated%20value%0Adeactivate%20f%0Aend%0Aend%0Aend%20f</desc><defs/><g><g/><g/><g/><g/><g/><g/><g/><g/><g/><g/><g/><g/><g/><g/><g/><g/><g/><g/><g/><g/><g/><g/><g/><g/><g/><g/><g/><g/><g/><g/><g/><g/><g/><g/><g/><g/><g/><g><rect fill="white" stroke="none" x="0" y="0" width="1228" height="1774"/></g><g><text fill="black" stroke="none" font-family="sans-serif" font-size="16.5pt" font-style="normal" font-weight="normal" text-decoration="normal" x="460.1073018875319" y="24.50280495" text-anchor="start" dominant-baseline="alphabetic" xml:space="preserve">Update Group with type Course</text></g><g/><g><path fill="none" stroke="black" paint-order="fill stroke markers" d=" M 106.17882145 129.701514202 L 106.17882145 1774.6564865119997" stroke-miterlimit="10" stroke-width="1.3612669416666667" stroke-dasharray="12.565541,5.445067766666667"/><path fill="none" stroke="black" paint-order="fill stroke markers" d=" M 353.4759502186849 129.701514202 L 353.4759502186849 1774.6564865119997" stroke-miterlimit="10" stroke-width="1.3612669416666667" stroke-dasharray="12.565541,5.445067766666667"/><path fill="none" stroke="black" paint-order="fill stroke markers" d=" M 565.3544379615885 129.701514202 L 565.3544379615885 1774.6564865119997" stroke-miterlimit="10" stroke-width="1.3612669416666667" stroke-dasharray="12.565541,5.445067766666667"/><path fill="none" stroke="black" paint-order="fill stroke markers" d=" M 703.3001852917955 129.701514202 L 703.3001852917955 1774.6564865119997" stroke-miterlimit="10" stroke-width="1.3612669416666667" stroke-dasharray="12.565541,5.445067766666667"/><path fill="none" stroke="black" paint-order="fill stroke markers" d=" M 921.2846300659492 129.701514202 L 921.2846300659492 1774.6564865119997" stroke-miterlimit="10" stroke-width="1.3612669416666667" stroke-dasharray="12.565541,5.445067766666667"/><path fill="none" stroke="black" paint-order="fill stroke markers" d=" M 1114.0293134875637 129.701514202 L 1114.0293134875637 1774.6564865119997" stroke-miterlimit="10" stroke-width="1.3612669416666667" stroke-dasharray="12.565541,5.445067766666667"/></g><g><g><path fill="white" stroke="green" paint-order="fill stroke markers" d=" M 115.489887331 60.60360424300001 A 9.311065881 9.311065881 0 1 1 115.48988267546744 60.594293178670846 M 106.17882145 69.91467012400001 L 106.17882145 89.84361815000001 M 94.41747507400001 77.102159576 L 117.94016782599999 77.102159576 M 106.17882145 89.84361815000001 L 94.41747507400001 108.465749912 M 106.17882145 89.84361815000001 L 117.94016782599999 108.465749912" stroke-miterlimit="10" stroke-width="1.3884922805000002" stroke-dasharray=""/></g><g><text fill="black" stroke="none" font-family="sans-serif" font-size="11pt" font-style="normal" font-weight="normal" text-decoration="normal" x="46.83739841533203" y="124.80095321200001" text-anchor="start" dominant-baseline="alphabetic" xml:space="preserve">Workspace Admin</text></g><g><path fill="white" stroke="black" paint-order="fill stroke markers" d=" M 385.9013287691849 82.819480731 A 24.2577769005 24.2577769005 0 1 1 385.90131664029747 82.79522295814245 M 322.43906394868486 57.17321154999999 L 322.43906394868486 108.465749912 M 321.0505716681849 82.819480731 L 337.3857749681849 82.819480731" stroke-miterlimit="10" stroke-width="2.7769845610000004" stroke-dasharray=""/></g><g><text fill="black" stroke="none" font-family="sans-serif" font-size="11pt" font-style="normal" font-weight="normal" text-decoration="normal" x="285.0113963856771" y="124.80095321200001" text-anchor="start" dominant-baseline="alphabetic" xml:space="preserve">Update Group popup</text></g><path fill="none" stroke="none"/><g><path fill="white" stroke="black" paint-order="fill stroke markers" d=" M 497.92783863352986 85.75981732500001 L 632.7810372896471 85.75981732500001 L 632.7810372896471 129.701514202 L 497.92783863352986 129.701514202 L 497.92783863352986 85.75981732500001 Z" stroke-miterlimit="10" stroke-width="2.613632528" stroke-dasharray=""/></g><g><text fill="black" stroke="none" font-family="sans-serif" font-size="11pt" font-style="normal" font-weight="normal" text-decoration="normal" x="515.6515342140299" y="113.36631090200002" text-anchor="start" dominant-baseline="alphabetic" xml:space="preserve">Search Service</text></g><g><path fill="white" stroke="black" paint-order="fill stroke markers" d=" M 727.5579621922955 82.819480731 A 24.2577769005 24.2577769005 0 1 1 727.557950063408 82.79522295814245 M 700.0331446317955 58.561703830499994 L 709.8342666117954 50.39410218049999 M 700.0331446317955 58.561703830499994 L 709.8342666117954 66.72930548049999" stroke-miterlimit="10" stroke-width="2.7769845610000004" stroke-dasharray=""/></g><g><text fill="black" stroke="none" font-family="sans-serif" font-size="11pt" font-style="normal" font-weight="normal" text-decoration="normal" x="649.1162405896471" y="124.80095321200001" text-anchor="start" dominant-baseline="alphabetic" xml:space="preserve">Group Controller</text></g><path fill="none" stroke="none"/><g><path fill="white" stroke="black" paint-order="fill stroke markers" d=" M 856.710562170996 85.75981732500001 L 985.8586979609023 85.75981732500001 L 985.8586979609023 129.701514202 L 856.710562170996 129.701514202 L 856.710562170996 85.75981732500001 Z" stroke-miterlimit="10" stroke-width="2.613632528" stroke-dasharray=""/></g><g><text fill="black" stroke="none" font-family="sans-serif" font-size="11pt" font-style="normal" font-weight="normal" text-decoration="normal" x="874.434257751496" y="113.36631090200002" text-anchor="start" dominant-baseline="alphabetic" xml:space="preserve">Group Service</text></g><g><path fill="white" stroke="blue" paint-order="fill stroke markers" d=" M 1090.1799166695637 97.684515734 L 1090.1799166695637 63.380588804000006 L 1137.8787103055638 63.380588804000006 L 1137.8787103055638 97.684515734" stroke-miterlimit="10" stroke-width="2.7769845610000004" stroke-dasharray=""/><path fill="white" stroke="blue" paint-order="fill stroke markers" d=" M 1137.8787103055638 62.1881189631 L 1137.8775178456601 62.29592950801663 L 1137.873940585194 62.403729271968594 L 1137.8679788818886 62.51150747506936 L 1137.8596333319094 62.619253339588404 L 1137.8489047698042 62.72695609102909 L 1137.8357942684204 62.834604959206004 L 1137.820303138797 62.94218917932205 L 1137.8024329300345 63.04969799304486 L 1137.7821854291385 63.15712064958265 L 1137.7595626608422 63.2644464067593 L 1137.7345668874038 63.371664532088516 L 1137.70720060838 63.47876430384712 L 1137.6774665603753 63.58573501214718 L 1137.6453677167701 63.692565960007016 L 1137.610907287422 63.79924646442086 L 1137.5740887183451 63.90576585742718 L 1137.534915691366 64.01211348717543 L 1137.4933921237541 64.11827871899126 L 1137.4495221678321 64.22425093643996 L 1137.4033102105589 64.3300195423881 L 1137.3547608730914 64.43557396006322 L 1137.3038790103235 64.54090363411153 L 1137.2506697103984 64.64599803165338 L 1137.1951382942023 64.75084664333659 L 1137.1372903148304 64.85543898438739 L 1137.077131557032 64.95976459565881 L 1137.0146680366333 65.06381304467668 L 1136.9499059999343 65.16757392668278 L 1136.8828519230842 65.27103686567541 L 1136.8135125114352 65.37419151544687 L 1136.7418946988707 65.47702756061814 L 1136.668005647112 65.5795347176704 L 1136.5918527450028 65.68170273597339 L 1136.5134436077701 65.7835213988104 L 1136.4327860762621 65.88498052439998 L 1136.3498882161646 65.98606996691414 L 1136.2647583171947 66.08677961749288 L 1136.1774048922714 66.18709940525505 L 1136.0878366766642 66.28701929830548 L 1135.99606262712 66.38652930473813 L 1135.9020919209677 66.48561947363528 L 1135.8059339551992 66.58427989606261 L 1135.7075983455309 66.6825007060601 L 1135.6070949254422 66.7802720816286 L 1135.504433745191 66.87758424571203 L 1135.3996250708099 66.97442746717506 L 1135.292679383079 67.07079206177627 L 1135.1836073764782 67.1666683931365 L 1135.0724199581168 67.2620468737025 L 1134.9591282466442 67.35691796570569 L 1134.8437435711373 67.45127218211596 L 1134.7262774699673 67.54510008759026 L 1134.6067416896465 67.63839229941624 L 1134.485148183653 67.73113948845047 L 1134.3615091112367 67.82333238005134 L 1134.2358368362013 67.9149617550065 L 1134.1081439256698 68.00601845045483 L 1133.978443148827 68.09649336080267 L 1133.846747475642 68.18637743863435 L 1133.7130700755727 68.27566169561702 L 1133.5774243162477 68.36433720339936 L 1133.43982376213 68.45239509450451 L 1133.30028217316 68.53982656321674 L 1133.1588135033808 68.62662286646201 L 1133.015431899541 68.71277532468237 L 1132.8701516996816 68.79827532270376 L 1132.722987431702 68.88311431059763 L 1132.5739538119058 68.9672838045359 L 1132.423065743531 69.0507753876393 L 1132.2703383152586 69.13358071081912 L 1132.1157867997042 69.21569149361203 L 1131.9594266518907 69.29709952500816 L 1131.8012735077025 69.37779666427225 L 1131.6413431823223 69.45777484175761 L 1131.479651668649 69.53702605971311 L 1131.3162151356996 69.61554239308303 L 1131.1510499269912 69.69331599029945 L 1130.984172558907 69.77033907406746 L 1130.8155997190445 69.84660394214286 L 1130.6453482645472 69.92210296810242 L 1130.473435220419 69.99682860210643 L 1130.2998777778212 70.07077337165379 L 1130.1246932923527 70.14392988232913 L 1129.9478992823167 70.21629081854239 L 1129.7695134269666 70.28784894426022 L 1129.5895535647394 70.35859710372968 L 1129.4080376914712 70.42852822219379 L 1129.2249839585984 70.49763530659898 L 1129.0404106713413 70.5659114462944 L 1128.8543362868752 70.63334981372294 L 1128.6667794124833 70.69994366510412 L 1128.4777588036966 70.76568634110825 L 1128.2872933624187 70.83057126752253 L 1128.0954021350349 70.89459195590838 L 1127.902104310508 70.95774200425032 L 1127.7074192184596 71.02001509759614 L 1127.5113663272364 71.08140500868842 L 1127.3139652419643 71.14190559858717 L 1127.1152357025871 71.20151081728383 L 1126.9151975818934 71.26021470430622 L 1126.7138708835284 71.31801138931453 L 1126.5112757399943 71.37489509268845 L 1126.3074324106367 71.43086012610503 L 1126.1023612796182 71.48590089310757 L 1125.8960828538816 71.54001188966522 L 1125.6886177610972 71.59318770472345 L 1125.4799867476015 71.64542302074504 L 1125.270210676322 71.69671261424193 L 1125.059310524691 71.7470513562975 L 1124.847307382548 71.79643421307951 L 1124.6342224500304 71.84485624634341 L 1124.420077035454 71.89231261392625 L 1124.2048925531817 71.93879857023082 L 1123.9886905214826 71.9843094667002 L 1123.7714925603793 72.02884075228269 L 1123.5533203894872 72.07238797388683 L 1123.3341958258418 72.11494677682676 L 1123.1141407817165 72.15651290525764 L 1122.8931772624323 72.19708220260128 L 1122.6713273641574 72.23665061196175 L 1122.4486132716963 72.27521417653107 L 1122.225057256273 72.31276903998494 L 1122.0006816733023 72.3493114468683 L 1121.775508960156 72.38483774297092 L 1121.5495616339176 72.41934437569277 L 1121.3228622891315 72.45282789439938 L 1121.095433595543 72.48528495076673 L 1120.8672982958324 72.51671229911628 L 1120.6384792033389 72.54710679673934 L 1120.4089991997816 72.5764654042115 L 1120.1788812329696 72.60478518569649 L 1119.9481483145075 72.63206330923974 L 1119.7168235174952 72.65829704705163 L 1119.4849299742193 72.68348377578025 L 1119.2524908738412 72.70762097677371 L 1119.0195294600771 72.73070623633201 L 1118.7860690288742 72.75273724594847 L 1118.5521329260812 72.77371180254045 L 1118.3177445451133 72.79362780866978 L 1118.0829273246134 72.81248327275246 L 1117.8477047461076 72.83027630925778 L 1117.612100331658 72.84700513889692 L 1117.3761376415098 72.86266808880085 L 1117.139840271735 72.87726359268764 L 1116.903231851874 72.89079019101906 L 1116.6663360425714 72.90324653114655 L 1116.429176533211 72.91463136744649 L 1116.1917770395457 72.9249435614447 L 1115.9541613013273 72.93418208193043 L 1115.7163530799317 72.94234600505929 L 1115.4783761559827 72.94943451444577 L 1115.2402543269743 72.95544690124485 L 1115.002011404891 72.96038256422287 L 1114.7636712138267 72.96424100981763 L 1114.5252575876016 72.9670218521878 L 1114.28679436738 72.96872481325143 L 1114.0483053992848 72.96934972271386 L 1113.8098145320143 72.96889651808466 L 1113.5713456144565 72.96736524468392 L 1113.3329224933043 72.96475605563768 L 1113.0945690106712 72.96106921186271 L 1112.856309001707 72.95630508204027 L 1112.6181662922136 72.9504641425794 L 1112.3801646962638 72.94354697756918 L 1112.142328013819 72.93555427872033 L 1111.904680028349 72.9264868452961 L 1111.6672445044546 72.91634558403224 L 1111.43004518549 72.90513150904647 L 1111.1931057911895 72.89284574173689 L 1110.956450015295 72.87948951067006 L 1110.7201015231874 72.86506415145789 L 1110.4840839495184 72.84957110662431 L 1110.2484208958488 72.8330119254609 L 1110.0131359282877 72.81538826387197 L 1109.7782525751356 72.79670188420899 L 1109.5437943245324 72.77695465509434 L 1109.3097846221074 72.7561485512345 L 1109.0762468686362 72.73428565322251 L 1108.843204417699 72.71136814732996 L 1108.6106805733475 72.68739832528833 L 1108.3786985877716 72.66237858405984 L 1108.147281658977 72.63631142559778 L 1107.9164529284635 72.60919945659627 L 1107.6862354789118 72.58104538822961 L 1107.4566523318754 72.55185203588118 L 1107.2277264454772 72.5216223188619 L 1106.9994807121152 72.49035926011825 L 1106.7719379561725 72.45806598593009 L 1106.5451209317353 72.4247457255979 L 1106.3190523203166 72.39040181111994 L 1106.0937547285896 72.35503767685907 L 1105.8692506861257 72.31865685919922 L 1105.6455626431418 72.28126299619186 L 1105.4227129682558 72.24285982719209 L 1105.2007239462498 72.20345119248485 L 1104.9796177758406 72.16304103290075 L 1104.7594165674614 72.12163338942209 L 1104.540142341049 72.07923240277869 L 1104.3218170238438 72.03584231303388 L 1104.1044624481956 71.99146745916049 L 1103.8881003493805 71.94611227860693 L 1103.6727523634281 71.89978130685344 L 1103.4584400249578 71.85247917695861 L 1103.2451847650248 71.80421061909601 L 1103.0330079089772 71.75498046008119 L 1102.821930674324 71.70479362288901 L 1102.6119741686127 71.65365512616141 L 1102.4031593873187 71.60157008370541 L 1102.1955072117464 71.54854370398188 L 1101.9890384069402 71.49458128958457 L 1101.7837736196086 71.43968823671 L 1101.579733376059 71.38387003461766 L 1101.3769380801461 71.32713226508127 L 1101.1754080112305 71.26948060183051 L 1100.9751633221506 71.21092080998365 L 1100.7762240372092 71.15145874547107 L 1100.5786100501684 71.0911003544497 L 1100.3823411222625 71.0298516727083 L 1100.1874368802207 70.96771882506403 L 1099.9939168143046 70.90470802474988 L 1099.80180027636 70.84082557279336 L 1099.6111064778802 70.77607785738643 L 1099.4218544880862 70.71047135324669 L 1099.2340632320193 70.64401262096986 L 1099.0477514886486 70.5767083063738 L 1098.8629378889932 70.50856513983389 L 1098.6796409142592 70.43958993560999 L 1098.497878893991 70.36978959116503 L 1098.3176700042393 70.29917108647531 L 1098.139032265743 70.22774148333244 L 1097.9619835421272 70.1555079246372 L 1097.7865415381164 70.08247763368529 L 1097.6127237977648 70.00865791344492 L 1097.440547702702 69.9340561458266 L 1097.2700304703937 69.85867979094495 L 1097.101189152421 69.78253638637263 L 1096.9340406327751 69.70563354638664 L 1096.7686016261687 69.62797896120689 L 1096.6048886763647 69.54958039622719 L 1096.4429181545213 69.47044569123871 L 1096.282706257556 69.39058275964601 L 1096.1242690065249 69.30999958767568 L 1095.9676222450212 69.22870423357777 L 1095.8127816375902 69.14670482681996 L 1095.659762668164 69.06400956727457 L 1095.5085806385116 68.98062672439866 L 1095.3592506667103 68.89656463640702 L 1095.2117876856328 68.8118317094384 L 1095.0662064414544 68.72643641671489 L 1094.9225214921778 68.6403872976946 L 1094.7807472061786 68.55369295721772 L 1094.640897760767 68.46636206464606 L 1094.5029871407714 68.37840335299609 L 1094.3670291371384 68.28982561806569 L 1094.2330373455554 68.20063771755453 L 1094.1010251650896 68.11084857017835 L 1093.9710057968493 68.02046715477704 L 1093.8429922426628 67.92950250941684 L 1093.716997303779 67.83796373048648 L 1093.5930335795865 67.74585997178757 L 1093.4711134663548 67.65320044361923 L 1093.3512491559934 67.55999441185705 L 1093.2334526348334 67.46625119702654 L 1093.117735682429 67.37198017337107 L 1093.004109870379 67.27719076791445 L 1092.8925865611693 67.18189245951821 L 1092.7831769070388 67.08609477793381 L 1092.675891848861 66.98980730284956 L 1092.5707421150528 66.89303966293272 L 1092.4677382204998 66.79580153486665 L 1092.3668904655055 66.69810264238313 L 1092.2682089347613 66.59995275528999 L 1092.1717034963385 66.50136168849414 L 1092.0773838006999 66.40233930102012 L 1091.985259279737 66.30289549502413 L 1091.895339145825 66.20304021480393 L 1091.8076323909017 66.1027834458043 L 1091.7221477855705 66.00213521361863 L 1091.6388938782202 65.90110558298623 L 1091.5578789941724 65.799704656786 L 1091.4791112348476 65.69794257502603 L 1091.4025984769562 65.59582951382973 L 1091.3283483717105 65.4933756844181 L 1091.2563683440587 65.3905913320887 L 1091.1866655919441 65.28748673519112 L 1091.1192470855835 65.18407220409914 L 1091.0541195667715 65.08035808017966 L 1090.9912895482057 64.97635473475869 L 1090.9307633128356 64.87207256808405 L 1090.8725469132341 64.76752200828555 L 1090.8166461709927 64.66271351033203 L 1090.7630666761393 64.55765755498592 L 1090.7118137865787 64.45236464775525 L 1090.6628926275566 64.34684531784296 L 1090.616308091149 64.24111011709415 L 1090.5720648357699 64.13516961894075 L 1090.5301672857086 64.0290344173443 L 1090.4906196306847 63.92271512573653 L 1090.4534258254312 63.81622237595798 L 1090.4185895892972 63.70956681719489 L 1090.3861144058776 63.602759114914264 L 1090.3560035226635 63.49580994979732 L 1090.3282599507183 63.38873001667144 L 1090.302886464376 63.28153002344071 L 1090.279885600964 63.17422069001512 L 1090.2592596605496 63.066812747238586 L 1090.2410107057094 62.959316935815885 L 1090.225140561324 62.85174400523857 L 1090.2116508143945 62.74410471271006 L 1090.2005428138843 62.636409822069915 L 1090.1918176705842 62.52867010271744 L 1090.1854762570013 62.4208963285348 L 1090.1815192072715 62.313099276809595 L 1090.179946917097 62.20528972715717 L 1090.1807595437049 62.09747846044265 L 1090.1839570058335 61.98967625770286 L 1090.189538983739 61.88189389906824 L 1090.1975049192288 61.77414216268484 L 1090.2078540157156 61.66643182363649 L 1090.2205852382983 61.558773652867366 L 1090.2356973138656 61.4511784161048 L 1090.253188731222 61.34365687278283 L 1090.2730577412408 61.236219774966166 L 1090.2953023570376 61.12887786627507 L 1090.319920354169 61.02164188081096 L 1090.346909270856 60.91452254208302 L 1090.3762664082294 60.807530561935856 L 1090.4079888305998 60.70067663947832 L 1090.4420733657516 60.593971460013606 L 1090.4785166052598 60.487425693970756 L 1090.5173149048305 60.381049995837586 L 1090.5584643846662 60.27485500309525 L 1090.6019609298532 60.16885133515453 L 1090.6478001907733 60.06304959229389 L 1090.6959775835385 59.95746035459945 L 1090.7464882904496 59.852094180906974 L 1090.7993272604783 59.746961607746044 L 1090.8544892097714 59.64207314828636 L 1090.91196862218 59.537439291286454 L 1090.9717597498109 59.43307050004484 L 1091.0338566136008 59.32897721135367 L 1091.0982530039153 59.22516983445505 L 1091.164942481169 59.12165875000019 L 1091.2339183764698 59.01845430901127 L 1091.3051737922856 58.91556683184637 L 1091.3787016031342 58.81300660716748 L 1091.4544944562958 58.7107838909116 L 1091.5325447725484 58.60890890526517 L 1091.612844746925 58.507391837641855 L 1091.6953863494955 58.406242839663825 L 1091.7801613261684 58.30547202614659 L 1091.8671611995162 58.205089474087515 L 1091.9563772696247 58.105105221658164 L 1092.0478006149606 58.00552926720046 L 1092.141422093266 57.90637156822687 L 1092.2372323424713 57.807642040424646 L 1092.335221781631 57.709350556664305 L 1092.4353806118827 57.61150694601232 L 1092.537698817427 57.514120992748204 L 1092.642166166529 57.417202435386145 L 1092.7487722125404 57.320760965701105 L 1092.8575062949458 57.224806227759686 L 1092.9683575404272 57.12934781695572 L 1093.0813148639525 57.03439527905074 L 1093.1963669698835 56.93995810921942 L 1093.3135023531056 56.84604575110002 L 1093.4327093001782 56.75266759585011 L 1093.5539758905056 56.65983298120741 L 1093.67728999753 56.567551190555996 L 1093.8026392899435 56.47583145199805 L 1093.930011232921 56.384682937430995 L 1094.059393089375 56.29411476163032 L 1094.190771921227 56.20413598133814 L 1094.3241345907036 56.1147555943575 L 1094.459467761649 56.02598253865261 L 1094.5967579008588 55.937825691455075 L 1094.7359912794336 55.85029386837614 L 1094.8771539741515 55.763395822525176 L 1095.0202318688607 55.677140243634355 L 1095.1652106558909 55.591535757189675 L 1095.3120758374841 55.50659092356846 L 1095.4608127272447 55.42231423718327 L 1095.6114064516078 55.33871412563253 L 1095.763841951326 55.25579894885771 L 1095.9181039829768 55.1735769983074 L 1096.0741771204855 55.092056496108135 L 1096.2320457566684 55.01124559424221 L 1096.3916941047933 54.93115237373246 L 1096.5531062001585 54.851784843834196 L 1096.7162659016888 54.77315094123426 L 1096.8811568935505 54.6952585292574 L 1097.0477626867814 54.61811539707989 L 1097.216066620941 54.54172925895067 L 1097.3860518657764 54.46610775341989 L 1097.5577014229048 54.391258442575094 L 1097.730998127513 54.317188811284986 L 1097.9059246500756 54.24390626645098 L 1098.0824634980856 54.171418136266475 L 1098.2605970178058 54.09973166948409 L 1098.4403073960323 54.028854034690774 L 1098.6215766618773 53.95879231959093 L 1098.804386688565 53.88955353029769 L 1098.9887191952453 53.82114459063227 L 1099.174555748821 53.753572341431656 L 1099.3618777657914 53.68684353986444 L 1099.5506665141115 53.62096485875517 L 1099.7409031150632 53.55594288591707 L 1099.9325685451454 53.49178412349323 L 1100.1256436379745 53.42849498730643 L 1100.3201090862021 53.366081806217544 L 1100.5159454434456 53.304550821492676 L 1100.7131331262326 53.24390818617902 L 1100.9116524159588 53.18415996448957 L 1101.1114834608607 53.12531213119671 L 1101.3126062780007 53.067370571034715 L 1101.5150007552643 53.01034107811134 L 1101.7186466533724 52.95422935532834 L 1101.9235236079053 52.89904101381123 L 1102.129611131338 52.84478157234818 L 1102.33688861509 52.79145645683812 L 1102.5453353315854 52.73907099974815 L 1102.7549304363265 52.687630439580346 L 1102.9656529699776 52.637139920347835 L 1103.1774818604606 52.58760449106049 L 1103.390395925063 52.53902910521993 L 1103.6043738725562 52.49141862032429 L 1103.8193943053234 52.444777797382365 L 1104.0354357215006 52.399111300437596 L 1104.2524765171263 52.354423696101605 L 1104.4704949883014 52.3107194530976 L 1104.689469333361 52.26800294181345 L 1104.9093776550528 52.2262784338647 L 1105.130197962728 52.18555010166736 L 1105.3519081745396 52.14582201802072 L 1105.5744861196515 52.10709815570004 L 1105.7979095404546 52.06938238705927 L 1106.0221560947928 52.032678483643856 L 1106.2472033581978 51.996990115813546 L 1106.4730288261305 51.96232085237539 L 1106.6996099162325 51.928674160226834 L 1106.9269239705836 51.89605340400906 L 1107.1549482579678 51.8644618457705 L 1107.3836599761462 51.833902644640645 L 1107.6130362541378 51.80437885651416 L 1107.8430541545058 51.775893433745246 L 1108.073690675652 51.74844922485244 L 1108.3049227541164 51.722048974233765 L 1108.5367272668839 51.69669532189228 L 1108.7690810336962 51.672390803172085 L 1109.0019608193704 51.649137848504814 L 1109.235343336122 51.626938783166544 L 1109.4692052458936 51.60579582704531 L 1109.7035231626894 51.58571109441911 L 1109.938273654913 51.56668659374447 L 1110.1734332477106 51.54872422745561 L 1110.408978425319 51.53182579177417 L 1110.6448856334166 51.515992976529645 L 1110.8811312814794 51.50122736499037 L 1111.1176917451392 51.4875304337052 L 1111.354543368547 51.47490355235584 L 1111.5916624667375 51.4633479836199 L 1111.829025327999 51.45286488304463 L 1112.0666082162427 51.443455298931354 L 1112.3043873733782 51.43512017223063 L 1112.5423390216874 51.4278603364482 L 1112.7804393662043 51.42167651756158 L 1113.0186645970923 51.41656933394751 L 1113.2569908920273 51.41253929632009 L 1113.4953944185784 51.40958680767973 L 1113.7338513365912 51.407712163272826 L 1113.972337800573 51.40691555056227 L 1114.210829962076 51.40719704920866 L 1114.449303972083 51.40855663106237 L 1114.6877359833913 51.41099416016634 L 1114.9261021529987 51.414509392769695 L 1115.1643786444872 51.419101977352106 L 1115.4025416304055 51.42477145465894 L 1115.6405672946541 51.431517257747196 L 1115.8784318348646 51.43933871204218 L 1116.1161114647814 51.44823503540498 L 1116.3535824166393 51.45820533821068 L 1116.5908209435413 51.4692486234373 L 1116.8278033218323 51.48136378676553 L 1117.064505853472 51.49454961668913 L 1117.3009048684041 51.50880479463608 L 1117.5369767269246 51.524127895100484 L 1117.7726978220444 51.54051738578506 L 1118.00804458185 51.5579716277544 L 1118.2429934718618 51.57648887559884 L 1118.4775209973868 51.59606727760904 L 1118.7116037058674 51.6167048759611 L 1118.9452181892282 51.6383996069124 L 1119.1783410862154 51.66114930100791 L 1119.4109490847334 51.684951683297186 L 1119.6430189241764 51.70980437356183 L 1119.874527397754 51.735704886553535 L 1120.1054513548113 51.76265063224257 L 1120.3357677031456 51.79063891607683 L 1120.5654534113135 51.81966693925126 L 1120.7944855109358 51.849731798987726 L 1121.0228410989935 51.88083048882531 L 1121.250497340118 51.91295989892094 L 1121.4774314688748 51.94611681636038 L 1121.7036207920403 51.980297925479526 L 1121.9290426908703 52.01549980819594 L 1122.1536746233635 52.0517189443507 L 1122.377494126513 52.08895171206036 L 1122.6004788185555 52.127194388079175 L 1122.8226064012076 52.16644314817141 L 1123.0438546618961 52.20669406749378 L 1123.2642014759792 52.247943120987884 L 1123.4836248089591 52.29018618378274 L 1123.7021027186856 52.33341903160728 L 1123.9196133575495 52.37763734121275 L 1124.1361349746683 52.422836690805035 L 1124.3516459180607 52.46901256048684 L 1124.566124636812 52.516160332709674 L 1124.7795496832289 52.564275292735616 L 1124.9918997149848 52.613352629108746 L 1125.2031534972534 52.663387434136325 L 1125.4132899048327 52.71437470437956 L 1125.6222879242569 52.7663093411539 L 1125.8301266558979 52.819186151038956 L 1126.0367853160562 52.8729998463978 L 1126.2422432390379 52.92774504590574 L 1126.446479879222 52.983416275088445 L 1126.6494748131142 53.040007966869396 L 1126.851207741391 53.09751446212657 L 1127.051658490927 53.15593001025836 L 1127.2508070168146 53.21524876975863 L 1127.4486334043672 53.27546480880087 L 1127.6451178711109 53.33657210583136 L 1127.8402407687624 53.3985645501713 L 1128.0339825851952 53.461435942627936 L 1128.2263239463887 53.52517999611441 L 1128.4172456183671 53.58979033627848 L 1128.6067285091224 53.655260502139996 L 1128.7947536705233 53.721583946736914 L 1128.9813023002102 53.78875403778004 L 1129.166355743476 53.85676405831625 L 1129.3498954951303 53.92560720740017 L 1129.531903201351 53.995276600774254 L 1129.712360661519 54.065765271557225 L 1129.8912498300388 54.13706617094075 L 1130.0685528181427 54.2091721688943 L 1130.2442518956793 54.28207605487816 L 1130.4183294928878 54.35577053856451 L 1130.590768202153 54.43024825056637 L 1130.761550779748 54.50550174317461 L 1130.9306601475573 54.581523491102686 L 1131.098079394785 54.658305892239156 L 1131.2637917796458 54.73584126840789 L 1131.4277807310395 54.81412186613588 L 1131.5900298502074 54.89313985742859 L 1131.750522912373 54.97288734055273 L 1131.9092438683638 55.05335634082646 L 1132.0661768462164 55.1345388114168 L 1132.2213061527639 55.21642663414435 L 1132.3746162752045 55.29901162029506 L 1132.5260918826543 55.38228551143916 L 1132.6757178276785 55.46623998025691 L 1132.8234791478073 55.55086663137139 L 1132.9693610670317 55.63615700218803 L 1133.1133489972817 55.722102563740805 L 1133.2554285398837 55.80869472154519 L 1133.3955854870026 55.89592481645755 L 1133.5338058230598 55.98378412554111 L 1133.6700757261372 56.07226386293816 L 1133.804381569358 56.1613551807487 L 1133.9367099222497 56.251049169915184 L 1134.0670475520874 56.34133686111345 L 1134.1953814252167 56.4322092256496 L 1134.3216987083574 56.52365717636293 L 1134.445986769886 56.615671568534566 L 1134.5682331811006 56.70824320080196 L 1134.6884257174613 56.80136281607904 L 1134.8065523598148 56.89502110248188 L 1134.9226012955955 56.98920869425987 L 1135.0365609200064 57.083916172732344 L 1135.14841983718 57.17913406723036 L 1135.258166861318 57.27485285604382 L 1135.365791017809 57.37106296737362 L 1135.4712815443274 57.467754780288786 L 1135.5746278919087 57.56491862568861 L 1135.6758197260035 57.662544787269525 L 1135.7748469275134 57.76062350249672 L 1135.8716995938005 57.859144963580405 L 1135.9663680396789 57.95809931845658 L 1136.0588427983828 58.05747667177222 L 1136.1491146225135 58.15726708587479 L 1136.2371744849638 58.257460581806065 L 1136.323013579821 58.358047140299924 L 1136.4066233232468 58.459016702784346 L 1136.4879953543368 58.56035917238722 L 1136.5671215359557 58.66206441494605 L 1136.6439939555512 58.764122260021324 L 1136.7186049259453 58.866522501913586 L 1136.7909469861033 58.96925490068398 L 1136.8610129018796 59.072309183178234 L 1136.9287956667406 59.17567504405398 L 1136.9942885024666 59.279342146811274 L 1137.0574848598285 59.38330012482622 L 1137.118378419243 59.48753858238766 L 1137.1769630914055 59.59204709573668 L 1137.2332330178972 59.69681521410906 L 1137.2871825717725 59.80183246078026 L 1137.3388063581206 59.907088334113126 L 1137.3880992146064 60.012572308608036 L 1137.4350562119848 60.11827383595545 L 1137.4796726545958 60.22418234609071 L 1137.5219440808319 60.33028724825106 L 1137.5618662635857 60.43657793203471 L 1137.5994352106723 60.54304376846186 L 1137.6346471652284 60.64967411103757 L 1137.6674986060877 60.75645829681646 L 1137.6979862481335 60.86338564746893 L 1137.7261070426273 60.97044547034902 L 1137.7518581775128 61.07762705956367 L 1137.7752370776977 61.184919697043256 L 1137.7962414053122 61.29231265361346 L 1137.8148690599403 61.399795190068104 L 1137.8311181788326 61.50735655824312 L 1137.8449871370906 61.614986002091314 L 1137.8564745478297 61.72267275875801 L 1137.865579262319 61.830406059657264 L 1137.872300370094 61.93817513154877 L 1137.8766371990503 62.04596919761514 L 1137.8785893155077 62.15377747853961 M 1137.8787103055638 96.4920458931 L 1137.8775178456601 96.59985643801662 L 1137.873940585194 96.70765620196859 L 1137.8679788818886 96.81543440506935 L 1137.8596333319094 96.9231802695884 L 1137.8489047698042 97.03088302102908 L 1137.8357942684204 97.138531889206 L 1137.820303138797 97.24611610932205 L 1137.8024329300345 97.35362492304485 L 1137.7821854291385 97.46104757958265 L 1137.7595626608422 97.5683733367593 L 1137.7345668874038 97.67559146208852 L 1137.70720060838 97.78269123384712 L 1137.6774665603753 97.88966194214719 L 1137.6453677167701 97.99649289000702 L 1137.610907287422 98.10317339442086 L 1137.5740887183451 98.20969278742717 L 1137.534915691366 98.31604041717543 L 1137.4933921237541 98.42220564899125 L 1137.4495221678321 98.52817786643996 L 1137.4033102105589 98.6339464723881 L 1137.3547608730914 98.73950089006323 L 1137.3038790103235 98.84483056411152 L 1137.2506697103984 98.94992496165337 L 1137.1951382942023 99.05477357333659 L 1137.1372903148304 99.15936591438738 L 1137.077131557032 99.2636915256588 L 1137.0146680366333 99.36773997467667 L 1136.9499059999343 99.47150085668278 L 1136.8828519230842 99.5749637956754 L 1136.8135125114352 99.67811844544686 L 1136.7418946988707 99.78095449061813 L 1136.668005647112 99.8834616476704 L 1136.5918527450028 99.98562966597338 L 1136.5134436077701 100.08744832881038 L 1136.4327860762621 100.18890745439998 L 1136.3498882161646 100.28999689691415 L 1136.2647583171947 100.39070654749288 L 1136.1774048922714 100.49102633525506 L 1136.0878366766642 100.59094622830548 L 1135.99606262712 100.69045623473812 L 1135.9020919209677 100.78954640363527 L 1135.8059339551992 100.8882068260626 L 1135.7075983455309 100.9864276360601 L 1135.6070949254422 101.0841990116286 L 1135.504433745191 101.18151117571202 L 1135.3996250708099 101.27835439717506 L 1135.292679383079 101.37471899177628 L 1135.1836073764782 101.4705953231365 L 1135.0724199581168 101.56597380370249 L 1134.9591282466442 101.6608448957057 L 1134.8437435711373 101.75519911211595 L 1134.7262774699673 101.84902701759025 L 1134.6067416896465 101.94231922941623 L 1134.485148183653 102.03506641845047 L 1134.3615091112367 102.12725931005133 L 1134.2358368362013 102.2188886850065 L 1134.1081439256698 102.30994538045483 L 1133.978443148827 102.40042029080266 L 1133.846747475642 102.49030436863434 L 1133.7130700755727 102.579588625617 L 1133.5774243162477 102.66826413339936 L 1133.43982376213 102.75632202450451 L 1133.30028217316 102.84375349321674 L 1133.1588135033808 102.93054979646202 L 1133.015431899541 103.01670225468237 L 1132.8701516996816 103.10220225270375 L 1132.722987431702 103.18704124059762 L 1132.5739538119058 103.27121073453588 L 1132.423065743531 103.3547023176393 L 1132.2703383152586 103.4375076408191 L 1132.1157867997042 103.51961842361202 L 1131.9594266518907 103.60102645500817 L 1131.8012735077025 103.68172359427226 L 1131.6413431823223 103.7617017717576 L 1131.479651668649 103.84095298971312 L 1131.3162151356996 103.91946932308304 L 1131.1510499269912 103.99724292029944 L 1130.984172558907 104.07426600406745 L 1130.8155997190445 104.15053087214287 L 1130.6453482645472 104.22602989810241 L 1130.473435220419 104.30075553210642 L 1130.2998777778212 104.37470030165377 L 1130.1246932923527 104.44785681232914 L 1129.9478992823167 104.52021774854238 L 1129.7695134269666 104.59177587426021 L 1129.5895535647394 104.66252403372968 L 1129.4080376914712 104.73245515219378 L 1129.2249839585984 104.80156223659897 L 1129.0404106713413 104.86983837629438 L 1128.8543362868752 104.93727674372295 L 1128.6667794124833 105.0038705951041 L 1128.4777588036966 105.06961327110824 L 1128.2872933624187 105.13449819752252 L 1128.0954021350349 105.19851888590837 L 1127.902104310508 105.26166893425032 L 1127.7074192184596 105.32394202759615 L 1127.5113663272364 105.38533193868841 L 1127.3139652419643 105.44583252858716 L 1127.1152357025871 105.50543774728384 L 1126.9151975818934 105.56414163430621 L 1126.7138708835284 105.62193831931454 L 1126.5112757399943 105.67882202268845 L 1126.3074324106367 105.73478705610502 L 1126.1023612796182 105.78982782310756 L 1125.8960828538816 105.84393881966523 L 1125.6886177610972 105.89711463472344 L 1125.4799867476015 105.94934995074503 L 1125.270210676322 106.00063954424192 L 1125.059310524691 106.0509782862975 L 1124.847307382548 106.1003611430795 L 1124.6342224500304 106.14878317634341 L 1124.420077035454 106.19623954392625 L 1124.2048925531817 106.2427255002308 L 1123.9886905214826 106.2882363967002 L 1123.7714925603793 106.33276768228268 L 1123.5533203894872 106.37631490388682 L 1123.3341958258418 106.41887370682676 L 1123.1141407817165 106.46043983525765 L 1122.8931772624323 106.50100913260128 L 1122.6713273641574 106.54057754196174 L 1122.4486132716963 106.57914110653107 L 1122.225057256273 106.61669596998493 L 1122.0006816733023 106.65323837686829 L 1121.775508960156 106.6887646729709 L 1121.5495616339176 106.72327130569276 L 1121.3228622891315 106.75675482439937 L 1121.095433595543 106.78921188076673 L 1120.8672982958324 106.82063922911627 L 1120.6384792033389 106.85103372673933 L 1120.4089991997816 106.8803923342115 L 1120.1788812329696 106.90871211569649 L 1119.9481483145075 106.93599023923973 L 1119.7168235174952 106.96222397705162 L 1119.4849299742193 106.98741070578025 L 1119.2524908738412 107.0115479067737 L 1119.0195294600771 107.03463316633201 L 1118.7860690288742 107.05666417594847 L 1118.5521329260812 107.07763873254045 L 1118.3177445451133 107.09755473866979 L 1118.0829273246134 107.11641020275246 L 1117.8477047461076 107.13420323925777 L 1117.612100331658 107.1509320688969 L 1117.3761376415098 107.16659501880085 L 1117.139840271735 107.18119052268763 L 1116.903231851874 107.19471712101905 L 1116.6663360425714 107.20717346114655 L 1116.429176533211 107.21855829744648 L 1116.1917770395457 107.22887049144471 L 1115.9541613013273 107.23810901193042 L 1115.7163530799317 107.24627293505928 L 1115.4783761559827 107.25336144444577 L 1115.2402543269743 107.25937383124486 L 1115.002011404891 107.26430949422287 L 1114.7636712138267 107.26816793981763 L 1114.5252575876016 107.27094878218779 L 1114.28679436738 107.27265174325143 L 1114.0483053992848 107.27327665271386 L 1113.8098145320143 107.27282344808465 L 1113.5713456144565 107.27129217468391 L 1113.3329224933043 107.26868298563768 L 1113.0945690106712 107.2649961418627 L 1112.856309001707 107.26023201204026 L 1112.6181662922136 107.2543910725794 L 1112.3801646962638 107.24747390756917 L 1112.142328013819 107.23948120872033 L 1111.904680028349 107.23041377529609 L 1111.6672445044546 107.22027251403225 L 1111.43004518549 107.20905843904646 L 1111.1931057911895 107.1967726717369 L 1110.956450015295 107.18341644067004 L 1110.7201015231874 107.16899108145788 L 1110.4840839495184 107.15349803662431 L 1110.2484208958488 107.1369388554609 L 1110.0131359282877 107.11931519387196 L 1109.7782525751356 107.10062881420897 L 1109.5437943245324 107.08088158509435 L 1109.3097846221074 107.0600754812345 L 1109.0762468686362 107.03821258322252 L 1108.843204417699 107.01529507732995 L 1108.6106805733475 106.99132525528832 L 1108.3786985877716 106.96630551405984 L 1108.147281658977 106.94023835559778 L 1107.9164529284635 106.91312638659626 L 1107.6862354789118 106.88497231822961 L 1107.4566523318754 106.85577896588119 L 1107.2277264454772 106.8255492488619 L 1106.9994807121152 106.79428619011826 L 1106.7719379561725 106.76199291593008 L 1106.5451209317353 106.72867265559789 L 1106.3190523203166 106.69432874111995 L 1106.0937547285896 106.65896460685907 L 1105.8692506861257 106.62258378919921 L 1105.6455626431418 106.58518992619184 L 1105.4227129682558 106.5467867571921 L 1105.2007239462498 106.50737812248485 L 1104.9796177758406 106.46696796290075 L 1104.7594165674614 106.42556031942208 L 1104.540142341049 106.38315933277867 L 1104.3218170238438 106.33976924303387 L 1104.1044624481956 106.29539438916049 L 1103.8881003493805 106.25003920860692 L 1103.6727523634281 106.20370823685344 L 1103.4584400249578 106.15640610695861 L 1103.2451847650248 106.108137549096 L 1103.0330079089772 106.05890739008117 L 1102.821930674324 106.00872055288902 L 1102.6119741686127 105.9575820561614 L 1102.4031593873187 105.90549701370541 L 1102.1955072117464 105.85247063398188 L 1101.9890384069402 105.79850821958458 L 1101.7837736196086 105.74361516670999 L 1101.579733376059 105.68779696461766 L 1101.3769380801461 105.63105919508126 L 1101.1754080112305 105.5734075318305 L 1100.9751633221506 105.51484773998365 L 1100.7762240372092 105.45538567547108 L 1100.5786100501684 105.3950272844497 L 1100.3823411222625 105.33377860270829 L 1100.1874368802207 105.27164575506403 L 1099.9939168143046 105.20863495474987 L 1099.80180027636 105.14475250279335 L 1099.6111064778802 105.08000478738643 L 1099.4218544880862 105.01439828324668 L 1099.2340632320193 104.94793955096986 L 1099.0477514886486 104.8806352363738 L 1098.8629378889932 104.8124920698339 L 1098.6796409142592 104.74351686560999 L 1098.497878893991 104.67371652116503 L 1098.3176700042393 104.6030980164753 L 1098.139032265743 104.53166841333243 L 1097.9619835421272 104.4594348546372 L 1097.7865415381164 104.38640456368528 L 1097.6127237977648 104.31258484344491 L 1097.440547702702 104.2379830758266 L 1097.2700304703937 104.16260672094495 L 1097.101189152421 104.08646331637262 L 1096.9340406327751 104.00956047638662 L 1096.7686016261687 103.93190589120688 L 1096.6048886763647 103.85350732622719 L 1096.4429181545213 103.77437262123871 L 1096.282706257556 103.694509689646 L 1096.1242690065249 103.61392651767568 L 1095.9676222450212 103.53263116357778 L 1095.8127816375902 103.45063175681996 L 1095.659762668164 103.36793649727457 L 1095.5085806385116 103.28455365439865 L 1095.3592506667103 103.20049156640701 L 1095.2117876856328 103.1157586394384 L 1095.0662064414544 103.03036334671489 L 1094.9225214921778 102.94431422769459 L 1094.7807472061786 102.85761988721772 L 1094.640897760767 102.77028899464605 L 1094.5029871407714 102.68233028299609 L 1094.3670291371384 102.5937525480657 L 1094.2330373455554 102.50456464755453 L 1094.1010251650896 102.41477550017834 L 1093.9710057968493 102.32439408477703 L 1093.8429922426628 102.23342943941684 L 1093.716997303779 102.14189066048647 L 1093.5930335795865 102.04978690178756 L 1093.4711134663548 101.95712737361922 L 1093.3512491559934 101.86392134185704 L 1093.2334526348334 101.77017812702654 L 1093.117735682429 101.67590710337106 L 1093.004109870379 101.58111769791444 L 1092.8925865611693 101.48581938951821 L 1092.7831769070388 101.39002170793381 L 1092.675891848861 101.29373423284954 L 1092.5707421150528 101.19696659293271 L 1092.4677382204998 101.09972846486664 L 1092.3668904655055 101.00202957238312 L 1092.2682089347613 100.90387968528998 L 1092.1717034963385 100.80528861849413 L 1092.0773838006999 100.70626623102011 L 1091.985259279737 100.60682242502413 L 1091.895339145825 100.50696714480392 L 1091.8076323909017 100.40671037580431 L 1091.7221477855705 100.30606214361863 L 1091.6388938782202 100.20503251298624 L 1091.5578789941724 100.103631586786 L 1091.4791112348476 100.00186950502604 L 1091.4025984769562 99.89975644382972 L 1091.3283483717105 99.79730261441809 L 1091.2563683440587 99.69451826208869 L 1091.1866655919441 99.59141366519111 L 1091.1192470855835 99.48799913409913 L 1091.0541195667715 99.38428501017967 L 1090.9912895482057 99.28028166475868 L 1090.9307633128356 99.17599949808405 L 1090.8725469132341 99.07144893828554 L 1090.8166461709927 98.96664044033201 L 1090.7630666761393 98.86158448498593 L 1090.7118137865787 98.75629157775525 L 1090.6628926275566 98.65077224784297 L 1090.616308091149 98.54503704709414 L 1090.5720648357699 98.43909654894075 L 1090.5301672857086 98.33296134734431 L 1090.4906196306847 98.22664205573652 L 1090.4534258254312 98.12014930595798 L 1090.4185895892972 98.01349374719489 L 1090.3861144058776 97.90668604491427 L 1090.3560035226635 97.79973687979731 L 1090.3282599507183 97.69265694667143 L 1090.302886464376 97.58545695344071 L 1090.279885600964 97.47814762001512 L 1090.2592596605496 97.37073967723859 L 1090.2410107057094 97.26324386581588 L 1090.225140561324 97.15567093523856 L 1090.2116508143945 97.04803164271006 L 1090.2005428138843 96.94033675206991 L 1090.1918176705842 96.83259703271744 L 1090.1854762570013 96.7248232585348 L 1090.1815192072715 96.6170262068096 L 1090.179946917097 96.50921665715717" stroke-miterlimit="10" stroke-width="2.7769845610000004" stroke-dasharray=""/></g><g><text fill="black" stroke="none" font-family="sans-serif" font-size="11pt" font-style="normal" font-weight="normal" text-decoration="normal" x="1082.6513685412747" y="124.80095321200001" text-anchor="start" dominant-baseline="alphabetic" xml:space="preserve">Database</text></g></g><g><path fill="white" stroke="black" paint-order="fill stroke markers" d=" M 345.3083485686849 183.607685092 L 361.6435518686849 183.607685092 L 361.6435518686849 1643.974860112 L 345.3083485686849 1643.974860112 L 345.3083485686849 183.607685092" stroke-miterlimit="10" stroke-width="1.3612669416666667" stroke-dasharray=""/><path fill="white" stroke="black" paint-order="fill stroke markers" d=" M 557.1868363115884 353.493799412 L 573.5220396115885 353.493799412 L 573.5220396115885 399.232368652 L 557.1868363115884 399.232368652 L 557.1868363115884 353.493799412" stroke-miterlimit="10" stroke-width="1.3612669416666667" stroke-dasharray=""/><path fill="white" stroke="black" paint-order="fill stroke markers" d=" M 695.1325836417955 670.3967434319999 L 711.4677869417956 670.3967434319999 L 711.4677869417956 1581.901087572 L 695.1325836417955 1581.901087572 L 695.1325836417955 670.3967434319999" stroke-miterlimit="10" stroke-width="1.3612669416666667" stroke-dasharray=""/><path fill="white" stroke="black" paint-order="fill stroke markers" d=" M 913.1170284159491 912.1577522719998 L 929.4522317159492 912.1577522719998 L 929.4522317159492 1049.3734599919997 L 913.1170284159491 1049.3734599919997 L 913.1170284159491 912.1577522719998" stroke-miterlimit="10" stroke-width="1.3612669416666667" stroke-dasharray=""/><path fill="white" stroke="black" paint-order="fill stroke markers" d=" M 1105.8617118375637 957.8963215119998 L 1122.1969151375638 957.8963215119998 L 1122.1969151375638 1003.6348907519997 L 1105.8617118375637 1003.6348907519997 L 1105.8617118375637 957.8963215119998" stroke-miterlimit="10" stroke-width="1.3612669416666667" stroke-dasharray=""/><path fill="white" stroke="black" paint-order="fill stroke markers" d=" M 913.1170284159491 1336.8730380719999 L 929.4522317159492 1336.8730380719999 L 929.4522317159492 1519.8273150320001 L 913.1170284159491 1519.8273150320001 L 913.1170284159491 1336.8730380719999" stroke-miterlimit="10" stroke-width="1.3612669416666667" stroke-dasharray=""/><path fill="white" stroke="black" paint-order="fill stroke markers" d=" M 1105.8617118375637 1428.350176552 L 1122.1969151375638 1428.350176552 L 1122.1969151375638 1474.088745792 L 1105.8617118375637 1474.088745792 L 1105.8617118375637 1428.350176552" stroke-miterlimit="10" stroke-width="1.3612669416666667" stroke-dasharray=""/><g><g><rect fill="white" stroke="none" x="134.86454017108073" y="162.371920802" width="181.75808967652344" height="21.23576429"/></g><text fill="black" stroke="none" font-family="sans-serif" font-size="11pt" font-style="normal" font-weight="normal" text-decoration="normal" x="137.31482066608072" y="177.07360377199998" text-anchor="start" dominant-baseline="alphabetic" xml:space="preserve">Go to Update Group popup</text></g><g><path fill="none" stroke="black" paint-order="fill stroke markers" d=" M 106.17882145 183.607685092 L 331.85903118501824 183.607685092" stroke-miterlimit="10" stroke-width="1.3612669416666667" stroke-dasharray=""/><g transform="translate(345.3083485686849,183.607685092) translate(-345.3083485686849,-183.607685092)"><path fill="black" stroke="none" paint-order="stroke fill markers" d=" M 331.6956791520182 176.80135038366666 L 345.3083485686849 183.607685092 L 331.6956791520182 190.41401980033334 Z"/></g></g><g><g><rect fill="white" stroke="none" x="128.75861365740886" y="208.110490042" width="193.9699427038672" height="21.23576429"/></g><text fill="black" stroke="none" font-family="sans-serif" font-size="11pt" font-style="normal" font-weight="normal" text-decoration="normal" x="131.20889415240885" y="222.812173012" text-anchor="start" dominant-baseline="alphabetic" xml:space="preserve">Display Update Group popup</text></g><g><path fill="none" stroke="black" paint-order="fill stroke markers" d=" M 345.3083485686849 229.346254332 L 119.62813883366667 229.346254332" stroke-miterlimit="10" stroke-width="1.3612669416666667" stroke-dasharray="6.53408132"/><g transform="translate(106.17882145,229.346254332) translate(-106.17882145,-229.346254332)"><path fill="black" stroke="none" paint-order="stroke fill markers" d=" M 119.79149086666666 222.53991962366666 L 106.17882145 229.346254332 L 119.79149086666666 236.15258904033334 Z"/></g></g><g><g><rect fill="white" stroke="none" x="171.9547425026237" y="253.849059282" width="107.5776850134375" height="21.23576429"/></g><text fill="black" stroke="none" font-family="sans-serif" font-size="11pt" font-style="normal" font-weight="normal" text-decoration="normal" x="174.4050229976237" y="268.550742252" text-anchor="start" dominant-baseline="alphabetic" xml:space="preserve">Search Teacher</text></g><g><path fill="none" stroke="black" paint-order="fill stroke markers" d=" M 106.17882145 275.084823572 L 331.85903118501824 275.084823572" stroke-miterlimit="10" stroke-width="1.3612669416666667" stroke-dasharray=""/><g transform="translate(345.3083485686849,275.084823572) translate(-345.3083485686849,-275.084823572)"><path fill="black" stroke="none" paint-order="stroke fill markers" d=" M 331.6956791520182 268.27848886366667 L 345.3083485686849 275.084823572 L 331.6956791520182 281.89115828033334 Z"/></g></g><g><g><rect fill="white" stroke="none" x="380.9735424403515" y="299.587628522" width="35.03657783570313" height="21.23576429"/></g><g><rect fill="white" stroke="none" x="380.9735424403515" y="315.922831822" width="156.88330329957031" height="21.23576429"/></g><g><rect fill="white" stroke="none" x="380.9735424403515" y="332.25803512199997" width="127.9570795446875" height="21.23576429"/></g><text fill="black" stroke="none" font-family="sans-serif" font-size="11pt" font-style="normal" font-weight="normal" text-decoration="normal" x="383.4238229353515" y="314.28931149199997" text-anchor="start" dominant-baseline="alphabetic" xml:space="preserve">GET</text><text fill="black" stroke="none" font-family="sans-serif" font-size="11pt" font-style="normal" font-weight="normal" text-decoration="normal" x="383.4238229353515" y="330.62451479199996" text-anchor="start" dominant-baseline="alphabetic" xml:space="preserve">/api/search?entity=user</text><text fill="black" stroke="none" font-family="sans-serif" font-size="11pt" font-style="normal" font-weight="normal" text-decoration="normal" x="383.4238229353515" y="346.95971809199995" text-anchor="start" dominant-baseline="alphabetic" xml:space="preserve">&amp;{paramToSearch}</text></g><g><path fill="none" stroke="black" paint-order="fill stroke markers" d=" M 361.6435518686849 353.493799412 L 543.7375189279218 353.493799412" stroke-miterlimit="10" stroke-width="1.3612669416666667" stroke-dasharray=""/><g transform="translate(557.1868363115884,353.493799412) translate(-557.1868363115884,-353.493799412)"><path fill="black" stroke="none" paint-order="stroke fill markers" d=" M 543.5741668949217 346.68746470366665 L 557.1868363115884 353.493799412 L 543.5741668949217 360.3001341203333 Z"/></g></g><g><g><rect fill="white" stroke="none" x="425.193276632246" y="377.99660436199997" width="68.44383491578125" height="21.23576429"/></g><text fill="black" stroke="none" font-family="sans-serif" font-size="11pt" font-style="normal" font-weight="normal" text-decoration="normal" x="427.643557127246" y="392.69828733199995" text-anchor="start" dominant-baseline="alphabetic" xml:space="preserve">Result list</text></g><g><path fill="none" stroke="black" paint-order="fill stroke markers" d=" M 557.1868363115884 399.232368652 L 375.09286925235153 399.232368652" stroke-miterlimit="10" stroke-width="1.3612669416666667" stroke-dasharray="6.53408132"/><g transform="translate(361.6435518686849,399.232368652) translate(-361.6435518686849,-399.232368652)"><path fill="black" stroke="none" paint-order="stroke fill markers" d=" M 375.25622128535156 392.42603394366665 L 361.6435518686849 399.232368652 L 375.25622128535156 406.03870336033333 Z"/></g></g><g><g><rect fill="white" stroke="none" x="186.62545020526042" y="467.84022251199997" width="78.23626960816406" height="21.23576429"/></g><text fill="black" stroke="none" font-family="sans-serif" font-size="11pt" font-style="normal" font-weight="normal" text-decoration="normal" x="189.0757307002604" y="482.54190548199995" text-anchor="start" dominant-baseline="alphabetic" xml:space="preserve">No Options</text></g><g><path fill="none" stroke="black" paint-order="fill stroke markers" d=" M 345.3083485686849 489.075986802 L 119.62813883366667 489.075986802" stroke-miterlimit="10" stroke-width="1.3612669416666667" stroke-dasharray="6.53408132"/><g transform="translate(106.17882145,489.075986802) translate(-106.17882145,-489.075986802)"><path fill="black" stroke="none" paint-order="stroke fill markers" d=" M 119.79149086666666 482.26965209366665 L 106.17882145 489.075986802 L 119.79149086666666 495.8823215103333 Z"/></g></g><g><g><rect fill="white" stroke="none" x="160.54816443865886" y="557.683840662" width="130.3908411413672" height="21.23576429"/></g><text fill="black" stroke="none" font-family="sans-serif" font-size="11pt" font-style="normal" font-weight="normal" text-decoration="normal" x="162.99844493365885" y="572.385523632" text-anchor="start" dominant-baseline="alphabetic" xml:space="preserve">Teacher options list</text></g><g><path fill="none" stroke="black" paint-order="fill stroke markers" d=" M 345.3083485686849 578.919604952 L 119.62813883366667 578.919604952" stroke-miterlimit="10" stroke-width="1.3612669416666667" stroke-dasharray="6.53408132"/><g transform="translate(106.17882145,578.919604952) translate(-106.17882145,-578.919604952)"><path fill="black" stroke="none" paint-order="stroke fill markers" d=" M 119.79149086666666 572.1132702436666 L 106.17882145 578.919604952 L 119.79149086666666 585.7259396603333 Z"/></g></g><g><g><rect fill="white" stroke="none" x="125.50881202166666" y="603.4224099019999" width="200.46954597535156" height="21.23576429"/></g><text fill="black" stroke="none" font-family="sans-serif" font-size="11pt" font-style="normal" font-weight="normal" text-decoration="normal" x="127.95909251666666" y="618.1240928719999" text-anchor="start" dominant-baseline="alphabetic" xml:space="preserve">Select Teacher and click Save</text></g><g><path fill="none" stroke="black" paint-order="fill stroke markers" d=" M 106.17882145 624.6581741919999 L 331.85903118501824 624.6581741919999" stroke-miterlimit="10" stroke-width="1.3612669416666667" stroke-dasharray=""/><g transform="translate(345.3083485686849,624.6581741919999) translate(-345.3083485686849,-624.6581741919999)"><path fill="black" stroke="none" paint-order="stroke fill markers" d=" M 331.6956791520182 617.8518394836666 L 345.3083485686849 624.6581741919999 L 331.6956791520182 631.4645089003333 Z"/></g></g><g><g><rect fill="white" stroke="none" x="475.41525002879484" y="649.1609791419999" width="105.94563545289063" height="21.23576429"/></g><text fill="black" stroke="none" font-family="sans-serif" font-size="11pt" font-style="normal" font-weight="normal" text-decoration="normal" x="477.86553052379486" y="663.8626621119998" text-anchor="start" dominant-baseline="alphabetic" xml:space="preserve">PUT: /api/group</text></g><g><path fill="none" stroke="black" paint-order="fill stroke markers" d=" M 361.6435518686849 670.3967434319999 L 681.6832662581288 670.3967434319999" stroke-miterlimit="10" stroke-width="1.3612669416666667" stroke-dasharray=""/><g transform="translate(695.1325836417955,670.3967434319999) translate(-695.1325836417955,-670.3967434319999)"><path fill="black" stroke="none" paint-order="stroke fill markers" d=" M 681.5199142251288 663.5904087236665 L 695.1325836417955 670.3967434319999 L 681.5199142251288 677.2030781403332 Z"/></g></g><g><g><rect fill="white" stroke="none" x="443.23561593455656" y="739.0045972919999" width="149.11673225464844" height="21.23576429"/></g><g><rect fill="white" stroke="none" x="443.23561593455656" y="755.3398005919998" width="170.3049036413672" height="21.23576429"/></g><text fill="red" stroke="none" font-family="sans-serif" font-size="11pt" font-style="normal" font-weight="normal" text-decoration="normal" x="445.6858964295566" y="753.7062802619998" text-anchor="start" dominant-baseline="alphabetic" xml:space="preserve">400 BAD_REQUEST: </text><text fill="red" stroke="none" font-family="sans-serif" font-size="11pt" font-style="normal" font-weight="normal" text-decoration="normal" x="445.6858964295566" y="770.0414835619998" text-anchor="start" dominant-baseline="alphabetic" xml:space="preserve">Missing required property</text></g><g><path fill="none" stroke="black" paint-order="fill stroke markers" d=" M 695.1325836417955 776.5755648819999 L 375.09286925235153 776.5755648819999" stroke-miterlimit="10" stroke-width="1.3612669416666667" stroke-dasharray="6.53408132"/><g transform="translate(361.6435518686849,776.5755648819999) translate(-361.6435518686849,-776.5755648819999)"><path fill="black" stroke="none" paint-order="stroke fill markers" d=" M 375.25622128535156 769.7692301736665 L 361.6435518686849 776.5755648819999 L 375.25622128535156 783.3818995903332 Z"/></g></g><g><g><rect fill="white" stroke="none" x="161.7686310524284" y="801.0783698319998" width="127.94990791382813" height="21.23576429"/></g><text fill="black" stroke="none" font-family="sans-serif" font-size="11pt" font-style="normal" font-weight="normal" text-decoration="normal" x="164.21891154742838" y="815.7800528019998" text-anchor="start" dominant-baseline="alphabetic" xml:space="preserve">Required message</text></g><g><path fill="none" stroke="black" paint-order="fill stroke markers" d=" M 345.3083485686849 822.3141341219998 L 119.62813883366667 822.3141341219998" stroke-miterlimit="10" stroke-width="1.3612669416666667" stroke-dasharray="6.53408132"/><g transform="translate(106.17882145,822.3141341219998) translate(-106.17882145,-822.3141341219998)"><path fill="black" stroke="none" paint-order="stroke fill markers" d=" M 119.79149086666666 815.5077994136665 L 106.17882145 822.3141341219998 L 119.79149086666666 829.1204688303332 Z"/></g></g><g><g><rect fill="white" stroke="none" x="778.0776618518411" y="890.9219879819998" width="68.4294916540625" height="21.23576429"/></g><text fill="black" stroke="none" font-family="sans-serif" font-size="11pt" font-style="normal" font-weight="normal" text-decoration="normal" x="780.5279423468411" y="905.6236709519998" text-anchor="start" dominant-baseline="alphabetic" xml:space="preserve">isExist(id)</text></g><g><path fill="none" stroke="black" paint-order="fill stroke markers" d=" M 711.4677869417956 912.1577522719998 L 899.6677110322825 912.1577522719998" stroke-miterlimit="10" stroke-width="1.3612669416666667" stroke-dasharray=""/><g transform="translate(913.1170284159491,912.1577522719998) translate(-913.1170284159491,-912.1577522719998)"><path fill="black" stroke="none" paint-order="stroke fill markers" d=" M 899.5043589992824 905.3514175636665 L 913.1170284159491 912.1577522719998 L 899.5043589992824 918.9640869803331 Z"/></g></g><g><g><rect fill="white" stroke="none" x="971.2160296606627" y="936.6605572219997" width="92.8818842321875" height="21.23576429"/></g><text fill="black" stroke="none" font-family="sans-serif" font-size="11pt" font-style="normal" font-weight="normal" text-decoration="normal" x="973.6663101556627" y="951.3622401919997" text-anchor="start" dominant-baseline="alphabetic" xml:space="preserve">existsById(id)</text></g><g><path fill="none" stroke="black" paint-order="fill stroke markers" d=" M 929.4522317159492 957.8963215119998 L 1092.412394453897 957.8963215119998" stroke-miterlimit="10" stroke-width="1.3612669416666667" stroke-dasharray=""/><g transform="translate(1105.8617118375637,957.8963215119998) translate(-1105.8617118375637,-957.8963215119998)"><path fill="black" stroke="none" paint-order="stroke fill markers" d=" M 1092.249042420897 951.0899868036664 L 1105.8617118375637 957.8963215119998 L 1092.249042420897 964.7026562203331 Z"/></g></g><g><g><rect fill="white" stroke="none" x="968.7464404272642" y="982.3991264619997" width="97.82106269898438" height="21.23576429"/></g><text fill="black" stroke="none" font-family="sans-serif" font-size="11pt" font-style="normal" font-weight="normal" text-decoration="normal" x="971.1967209222643" y="997.1008094319997" text-anchor="start" dominant-baseline="alphabetic" xml:space="preserve">Boolean value</text></g><g><path fill="none" stroke="black" paint-order="fill stroke markers" d=" M 1105.8617118375637 1003.6348907519997 L 942.9015490996159 1003.6348907519997" stroke-miterlimit="10" stroke-width="1.3612669416666667" stroke-dasharray="6.53408132"/><g transform="translate(929.4522317159492,1003.6348907519997) translate(-929.4522317159492,-1003.6348907519997)"><path fill="black" stroke="none" paint-order="stroke fill markers" d=" M 943.0649011326159 996.8285560436664 L 929.4522317159492 1003.6348907519997 L 943.0649011326159 1010.441225460333 Z"/></g></g><g><g><rect fill="white" stroke="none" x="763.3818763293801" y="1028.1376957019997" width="97.82106269898438" height="21.23576429"/></g><text fill="black" stroke="none" font-family="sans-serif" font-size="11pt" font-style="normal" font-weight="normal" text-decoration="normal" x="765.8321568243801" y="1042.8393786719998" text-anchor="start" dominant-baseline="alphabetic" xml:space="preserve">Boolean value</text></g><g><path fill="none" stroke="black" paint-order="fill stroke markers" d=" M 913.1170284159491 1049.3734599919997 L 724.9171043254622 1049.3734599919997" stroke-miterlimit="10" stroke-width="1.3612669416666667" stroke-dasharray="6.53408132"/><g transform="translate(711.4677869417956,1049.3734599919997) translate(-711.4677869417956,-1049.3734599919997)"><path fill="black" stroke="none" paint-order="stroke fill markers" d=" M 725.0804563584622 1042.5671252836664 L 711.4677869417956 1049.3734599919997 L 725.0804563584622 1056.1797947003329 Z"/></g></g><g><g><rect fill="white" stroke="none" x="468.1031238691269" y="1117.9813138519999" width="120.56988777222656" height="21.23576429"/></g><text fill="red" stroke="none" font-family="sans-serif" font-size="11pt" font-style="normal" font-weight="normal" text-decoration="normal" x="470.5534043641269" y="1132.682996822" text-anchor="start" dominant-baseline="alphabetic" xml:space="preserve">404 NOT FOUND</text></g><g><path fill="none" stroke="black" paint-order="fill stroke markers" d=" M 695.1325836417955 1139.2170781419998 L 375.09286925235153 1139.2170781419998" stroke-miterlimit="10" stroke-width="1.3612669416666667" stroke-dasharray="6.53408132"/><g transform="translate(361.6435518686849,1139.2170781419998) translate(-361.6435518686849,-1139.2170781419998)"><path fill="black" stroke="none" paint-order="stroke fill markers" d=" M 375.25622128535156 1132.4107434336665 L 361.6435518686849 1139.2170781419998 L 375.25622128535156 1146.023412850333 Z"/></g></g><g><g><rect fill="white" stroke="none" x="182.13368995135417" y="1163.719883092" width="87.21979011597656" height="21.23576429"/></g><text fill="black" stroke="none" font-family="sans-serif" font-size="11pt" font-style="normal" font-weight="normal" text-decoration="normal" x="184.58397044635416" y="1178.421566062" text-anchor="start" dominant-baseline="alphabetic" xml:space="preserve">Close popup</text></g><g><path fill="none" stroke="black" paint-order="fill stroke markers" d=" M 345.3083485686849 1184.9556473819998 L 119.62813883366667 1184.9556473819998" stroke-miterlimit="10" stroke-width="1.3612669416666667" stroke-dasharray="6.53408132"/><g transform="translate(106.17882145,1184.9556473819998) translate(-106.17882145,-1184.9556473819998)"><path fill="black" stroke="none" paint-order="stroke fill markers" d=" M 119.79149086666666 1178.1493126736666 L 106.17882145 1184.9556473819998 L 119.79149086666666 1191.761982090333 Z"/></g></g><g><g><rect fill="white" stroke="none" x="156.4715653175651" y="1209.458452332" width="138.5440393835547" height="21.23576429"/></g><text fill="black" stroke="none" font-family="sans-serif" font-size="11pt" font-style="normal" font-weight="normal" text-decoration="normal" x="158.9218458125651" y="1224.160135302" text-anchor="start" dominant-baseline="alphabetic" xml:space="preserve">Message Update fail</text></g><g><path fill="none" stroke="black" paint-order="fill stroke markers" d=" M 345.3083485686849 1230.6942166219999 L 119.62813883366667 1230.6942166219999" stroke-miterlimit="10" stroke-width="1.3612669416666667" stroke-dasharray="6.53408132"/><g transform="translate(106.17882145,1230.6942166219999) translate(-106.17882145,-1230.6942166219999)"><path fill="black" stroke="none" paint-order="stroke fill markers" d=" M 119.79149086666666 1223.8878819136667 L 106.17882145 1230.6942166219999 L 119.79149086666666 1237.500551330333 Z"/></g></g><g><g><rect fill="white" stroke="none" x="730.7977775134622" y="1299.3020704819999" width="162.98926033082031" height="21.23576429"/></g><g><rect fill="white" stroke="none" x="730.7977775134622" y="1315.637273782" width="153.19684089722656" height="21.23576429"/></g><text fill="black" stroke="none" font-family="sans-serif" font-size="11pt" font-style="normal" font-weight="normal" text-decoration="normal" x="733.2480580084622" y="1314.003753452" text-anchor="start" dominant-baseline="alphabetic" xml:space="preserve">Set teacher is an admin </text><text fill="black" stroke="none" font-family="sans-serif" font-size="11pt" font-style="normal" font-weight="normal" text-decoration="normal" x="733.2480580084622" y="1330.338956752" text-anchor="start" dominant-baseline="alphabetic" xml:space="preserve">of group by setAdmin()</text></g><g><path fill="none" stroke="black" paint-order="fill stroke markers" d=" M 711.4677869417956 1336.8730380719999 L 899.6677110322825 1336.8730380719999" stroke-miterlimit="10" stroke-width="1.3612669416666667" stroke-dasharray=""/><g transform="translate(913.1170284159491,1336.8730380719999) translate(-913.1170284159491,-1336.8730380719999)"><path fill="black" stroke="none" paint-order="stroke fill markers" d=" M 899.5043589992824 1330.0667033636666 L 913.1170284159491 1336.8730380719999 L 899.5043589992824 1343.679372780333 Z"/></g></g><g><g><rect fill="white" stroke="none" x="789.4770759143411" y="1361.375843022" width="45.6306635290625" height="21.23576429"/></g><text fill="black" stroke="none" font-family="sans-serif" font-size="11pt" font-style="normal" font-weight="normal" text-decoration="normal" x="791.9273564093411" y="1376.0775259920001" text-anchor="start" dominant-baseline="alphabetic" xml:space="preserve">save()</text></g><g><path fill="none" stroke="black" paint-order="fill stroke markers" d=" M 711.4677869417956 1382.611607312 L 899.6677110322825 1382.611607312" stroke-miterlimit="10" stroke-width="1.3612669416666667" stroke-dasharray=""/><g transform="translate(913.1170284159491,1382.611607312) translate(-913.1170284159491,-1382.611607312)"><path fill="black" stroke="none" paint-order="stroke fill markers" d=" M 899.5043589992824 1375.8052726036667 L 913.1170284159491 1382.611607312 L 899.5043589992824 1389.4179420203332 Z"/></g></g><g><g><rect fill="white" stroke="none" x="969.1616015600767" y="1407.114412262" width="96.99074043335938" height="21.23576429"/></g><text fill="black" stroke="none" font-family="sans-serif" font-size="11pt" font-style="normal" font-weight="normal" text-decoration="normal" x="971.6118820550768" y="1421.8160952320002" text-anchor="start" dominant-baseline="alphabetic" xml:space="preserve">Update Group</text></g><g><path fill="none" stroke="black" paint-order="fill stroke markers" d=" M 929.4522317159492 1428.350176552 L 1092.412394453897 1428.350176552" stroke-miterlimit="10" stroke-width="1.3612669416666667" stroke-dasharray=""/><g transform="translate(1105.8617118375637,1428.350176552) translate(-1105.8617118375637,-1428.350176552)"><path fill="black" stroke="none" paint-order="stroke fill markers" d=" M 1092.249042420897 1421.5438418436668 L 1105.8617118375637 1428.350176552 L 1092.249042420897 1435.1565112603332 Z"/></g></g><g><g><rect fill="white" stroke="none" x="948.7822222876158" y="1452.8529815020001" width="137.74949897828125" height="21.23576429"/></g><text fill="black" stroke="none" font-family="sans-serif" font-size="11pt" font-style="normal" font-weight="normal" text-decoration="normal" x="951.2325027826158" y="1467.5546644720002" text-anchor="start" dominant-baseline="alphabetic" xml:space="preserve">Updated Group data</text></g><g><path fill="none" stroke="black" paint-order="fill stroke markers" d=" M 1105.8617118375637 1474.088745792 L 942.9015490996159 1474.088745792" stroke-miterlimit="10" stroke-width="1.3612669416666667" stroke-dasharray="6.53408132"/><g transform="translate(929.4522317159492,1474.088745792) translate(-929.4522317159492,-1474.088745792)"><path fill="black" stroke="none" paint-order="stroke fill markers" d=" M 943.0649011326159 1467.2824110836668 L 929.4522317159492 1474.088745792 L 943.0649011326159 1480.8950805003333 Z"/></g></g><g><g><rect fill="white" stroke="none" x="743.4176581897317" y="1498.5915507420002" width="137.74949897828125" height="21.23576429"/></g><text fill="black" stroke="none" font-family="sans-serif" font-size="11pt" font-style="normal" font-weight="normal" text-decoration="normal" x="745.8679386847317" y="1513.2932337120003" text-anchor="start" dominant-baseline="alphabetic" xml:space="preserve">Updated Group data</text></g><g><path fill="none" stroke="black" paint-order="fill stroke markers" d=" M 913.1170284159491 1519.8273150320001 L 724.9171043254622 1519.8273150320001" stroke-miterlimit="10" stroke-width="1.3612669416666667" stroke-dasharray="6.53408132"/><g transform="translate(711.4677869417956,1519.8273150320001) translate(-711.4677869417956,-1519.8273150320001)"><path fill="black" stroke="none" paint-order="stroke fill markers" d=" M 725.0804563584622 1513.020980323667 L 711.4677869417956 1519.8273150320001 L 725.0804563584622 1526.6336497403333 Z"/></g></g><g><g><rect fill="white" stroke="none" x="432.2155506269394" y="1544.330119982" width="54.61422981324219" height="21.23576429"/></g><g><rect fill="white" stroke="none" x="432.2155506269394" y="1560.6653232820001" width="192.34503425660156" height="21.23576429"/></g><text fill="green" stroke="none" font-family="sans-serif" font-size="11pt" font-style="normal" font-weight="normal" text-decoration="normal" x="434.6658311219394" y="1559.0318029520001" text-anchor="start" dominant-baseline="alphabetic" xml:space="preserve">200 OK</text><text fill="green" stroke="none" font-family="sans-serif" font-size="11pt" font-style="normal" font-weight="normal" text-decoration="normal" x="434.6658311219394" y="1575.3670062520002" text-anchor="start" dominant-baseline="alphabetic" xml:space="preserve">Response body: Group data </text></g><g><path fill="none" stroke="black" paint-order="fill stroke markers" d=" M 695.1325836417955 1581.901087572 L 375.09286925235153 1581.901087572" stroke-miterlimit="10" stroke-width="1.3612669416666667" stroke-dasharray="6.53408132"/><g transform="translate(361.6435518686849,1581.901087572) translate(-361.6435518686849,-1581.901087572)"><path fill="black" stroke="none" paint-order="stroke fill markers" d=" M 375.25622128535156 1575.0947528636668 L 361.6435518686849 1581.901087572 L 375.25622128535156 1588.7074222803333 Z"/></g></g><g><g><rect fill="white" stroke="none" x="136.91180427020183" y="1606.403892522" width="177.66356147828125" height="21.23576429"/></g><g><rect fill="white" stroke="none" x="136.91180427020183" y="1622.739095822" width="127.15535224976563" height="21.23576429"/></g><text fill="black" stroke="none" font-family="sans-serif" font-size="11pt" font-style="normal" font-weight="normal" text-decoration="normal" x="139.3620847652018" y="1621.105575492" text-anchor="start" dominant-baseline="alphabetic" xml:space="preserve">Display Group detail page </text><text fill="black" stroke="none" font-family="sans-serif" font-size="11pt" font-style="normal" font-weight="normal" text-decoration="normal" x="139.3620847652018" y="1637.4407787920002" text-anchor="start" dominant-baseline="alphabetic" xml:space="preserve">with updated value</text></g><g><path fill="none" stroke="black" paint-order="fill stroke markers" d=" M 345.3083485686849 1643.974860112 L 119.62813883366667 1643.974860112" stroke-miterlimit="10" stroke-width="1.3612669416666667" stroke-dasharray="6.53408132"/><g transform="translate(106.17882145,1643.974860112) translate(-106.17882145,-1643.974860112)"><path fill="black" stroke="none" paint-order="stroke fill markers" d=" M 119.79149086666666 1637.1685254036668 L 106.17882145 1643.974860112 L 119.79149086666666 1650.7811948203332 Z"/></g></g><g><g/><path fill="none" stroke="black" paint-order="fill stroke markers" d=" M 16.335203300000003 423.735173602 L 1203.8729316375639 423.735173602 L 1203.8729316375639 1717.4832749619998 L 16.335203300000003 1717.4832749619998 L 16.335203300000003 423.735173602 Z" stroke-miterlimit="10" stroke-width="2.3336004714285714" stroke-dasharray=""/><path fill="white" stroke="black" paint-order="fill stroke markers" d=" M 16.335203300000003 423.735173602 L 16.335203300000003 443.337417562 L 62.694406897070316 443.337417562 L 72.49552887707031 433.536295582 L 72.49552887707031 423.735173602 L 16.335203300000003 423.735173602" stroke-miterlimit="10" stroke-width="2.3336004714285714" stroke-dasharray=""/><text fill="black" stroke="none" font-family="sans-serif" font-size="8.8pt" font-style="normal" font-weight="bold" text-decoration="normal" x="32.67040660000001" y="436.803336242" text-anchor="start" dominant-baseline="alphabetic" xml:space="preserve">alt</text><g><rect fill="white" stroke="none" x="86.38045168207032" y="425.041989866" width="215.40452827515625" height="16.988611432000003"/></g><text fill="black" stroke="none" font-family="sans-serif" font-size="8.8pt" font-style="normal" font-weight="bold" text-decoration="normal" x="88.83073217707032" y="436.803336242" text-anchor="start" dominant-baseline="alphabetic" xml:space="preserve">[If there are not data match condition]</text><g><path fill="none" stroke="black" paint-order="fill stroke markers" d=" M 16.335203300000003 513.578791752 L 1203.8729316375639 513.578791752" stroke-miterlimit="10" stroke-width="2.3336004714285714" stroke-dasharray="4.083800825"/></g><g/><g><rect fill="white" stroke="none" x="86.38045168207032" y="514.885608016" width="36.84300483765625" height="16.988611432000003"/></g><text fill="black" stroke="none" font-family="sans-serif" font-size="8.8pt" font-style="normal" font-weight="bold" text-decoration="normal" x="88.83073217707032" y="526.646954392" text-anchor="start" dominant-baseline="alphabetic" xml:space="preserve">[Else]</text></g><g/><g><g/><path fill="none" stroke="black" paint-order="fill stroke markers" d=" M 32.67040660000001 694.8995483819998 L 1187.5377283375637 694.8995483819998 L 1187.5377283375637 1692.9804700119998 L 32.67040660000001 1692.9804700119998 L 32.67040660000001 694.8995483819998 Z" stroke-miterlimit="10" stroke-width="2.3336004714285714" stroke-dasharray=""/><path fill="white" stroke="black" paint-order="fill stroke markers" d=" M 32.67040660000001 694.8995483819998 L 32.67040660000001 714.5017923419998 L 79.02961019707033 714.5017923419998 L 88.83073217707033 704.7006703619998 L 88.83073217707033 694.8995483819998 L 32.67040660000001 694.8995483819998" stroke-miterlimit="10" stroke-width="2.3336004714285714" stroke-dasharray=""/><text fill="black" stroke="none" font-family="sans-serif" font-size="8.8pt" font-style="normal" font-weight="bold" text-decoration="normal" x="49.00560990000001" y="707.9677110219998" text-anchor="start" dominant-baseline="alphabetic" xml:space="preserve">alt</text><g><rect fill="white" stroke="none" x="102.71565498207033" y="696.2063646459998" width="194.56775154175781" height="16.988611432000003"/></g><text fill="black" stroke="none" font-family="sans-serif" font-size="8.8pt" font-style="normal" font-weight="bold" text-decoration="normal" x="105.16593547707033" y="707.9677110219998" text-anchor="start" dominant-baseline="alphabetic" xml:space="preserve">[If there is field do not have value]</text><g><path fill="none" stroke="black" paint-order="fill stroke markers" d=" M 32.67040660000001 846.8169390719999 L 1187.5377283375637 846.8169390719999" stroke-miterlimit="10" stroke-width="2.3336004714285714" stroke-dasharray="4.083800825"/></g><g/><g><rect fill="white" stroke="none" x="102.71565498207033" y="848.1237553359998" width="36.84300483765625" height="16.988611432000003"/></g><text fill="black" stroke="none" font-family="sans-serif" font-size="8.8pt" font-style="normal" font-weight="bold" text-decoration="normal" x="105.16593547707033" y="859.8851017119998" text-anchor="start" dominant-baseline="alphabetic" xml:space="preserve">[Else]</text></g><g/><g><g/><path fill="none" stroke="black" paint-order="fill stroke markers" d=" M 49.0056099 1073.8762649419998 L 1171.2025250375636 1073.8762649419998 L 1171.2025250375636 1668.477665062 L 49.0056099 1668.477665062 L 49.0056099 1073.8762649419998 Z" stroke-miterlimit="10" stroke-width="2.3336004714285714" stroke-dasharray=""/><path fill="white" stroke="black" paint-order="fill stroke markers" d=" M 49.0056099 1073.8762649419998 L 49.0056099 1093.4785089019997 L 95.36481349707032 1093.4785089019997 L 105.16593547707032 1083.6773869219999 L 105.16593547707032 1073.8762649419998 L 49.0056099 1073.8762649419998" stroke-miterlimit="10" stroke-width="2.3336004714285714" stroke-dasharray=""/><text fill="black" stroke="none" font-family="sans-serif" font-size="8.8pt" font-style="normal" font-weight="bold" text-decoration="normal" x="65.3408132" y="1086.9444275819997" text-anchor="start" dominant-baseline="alphabetic" xml:space="preserve">alt</text><g><rect fill="white" stroke="none" x="119.05085828207032" y="1075.1830812059998" width="120.89450325074219" height="16.988611432000003"/></g><text fill="black" stroke="none" font-family="sans-serif" font-size="8.8pt" font-style="normal" font-weight="bold" text-decoration="normal" x="121.50113877707032" y="1086.9444275819997" text-anchor="start" dominant-baseline="alphabetic" xml:space="preserve">[If group is not exist]</text><g><path fill="none" stroke="black" paint-order="fill stroke markers" d=" M 49.0056099 1255.197021572 L 1171.2025250375636 1255.197021572" stroke-miterlimit="10" stroke-width="2.3336004714285714" stroke-dasharray="4.083800825"/></g><g/></g><g/></g></g></svg>