<svg version="1.1" xmlns="http://www.w3.org/2000/svg" xmlns:xlink="http://www.w3.org/1999/xlink" width="1395" height="1478"><desc>%20title%20Create%20Group%20with%20type%20Class%0A%0Aactor%20%23green%3A0.5%20%22Workspace%20Admin%22%20as%20w%0Aboundary%20%22Create%20Group%20popup%22%20as%20f%0Aparticipant%20%22Search%20Service%22%20as%20ss%0Acontrol%20%22Group%20Controller%22%20as%20gc%0Aparticipant%20%22Group%20Service%22%20as%20gs%0Adatabase%20%23blue%3A1%20%22Database%22%20as%20db%0A%0Aw-%3Ef%3AGo%20to%20Create%20Group%20button%0Aactivate%20f%0Aw%3C--f%3ADisplay%20Create%20Group%20popup%0Aw-%3Ef%3ASelect%20Type%20Class%0Aw-%3Ef%3ASearch%20Curriculum%0Af-%3Ess%3AGET%5Cn%2Fapi%2Fsearch%3Fentity%3Dcurriculum%5Cn%26%7BparamToSearch%7D%0Aactivate%20ss%0Af%3C--ss%3ACurriculum%20list%0Adeactivate%20ss%0Aalt%20if%20there%20is%20no%20curriculum%20match%20condition%0Aw%3C--f%3ANo%20Options%0Aelse%20Else%0Aw%3C--f%3A%20Curriculum%20options%20list%0A%0Aw-%3Ef%3ASelect%20Curriculum%20and%20click%20Save%0Af-%3Egc%3APOST%3A%20%2Fapi%2Fgroup%0Aactivate%20gc%0Aalt%20if%20Curriculum%20do%20not%20have%20value%0Af%3C--gc%3A%3Ccolor%3A%23red%3E400%20BAD_REQUEST%3A%20%5CnMissing%20required%20property%3C%2Fcolor%3E%0Aw%3C--f%3ACurriculum%20is%20required%0Aelse%20Else%0Agc-%3Egs%3AgenerateNameForClass()%0Aactivate%20gs%0Anote%20right%20of%20gs%3A%20Name%20of%20Class%20will%20be%20depend%5Cnon%20the%20Specialization%20and%20school%5Cnyear%20of%20Curriculum%0Agc%3C--gs%3AClass's%20name%0Agc-%3Egs%3Asave()%0Ags-%3Edb%3Asave()%0Aactivate%20db%0Ags%3C--db%3ANew%20Class%20data%0Adeactivate%20db%0Agc%3C--gs%3ANew%20Class%20data%0Adeactivate%20gs%0Af%3C--gc%3A%3Ccolor%3A%23green%3E201%20CREATED%3C%2Fcolor%3E%0Adeactivate%20gc%0Aw%3C--f%3A%20Display%20Group%20list%20table%20with%20new%20Class%0Adeactivate%20f%0Aend%0Aend%20f%0A%0A%0A</desc><defs/><g><g/><g/><g/><g/><g/><g/><g/><g/><g/><g/><g/><g/><g/><g/><g/><g/><g/><g/><g/><g/><g/><g/><g/><g/><g/><g/><g/><g/><g/><g/><g/><g/><g><rect fill="white" stroke="none" x="0" y="0" width="1395" height="1478"/></g><g><text fill="black" stroke="none" font-family="sans-serif" font-size="16.5pt" font-style="normal" font-weight="normal" text-decoration="normal" x="553.8494382781698" y="24.50280495" text-anchor="start" dominant-baseline="alphabetic" xml:space="preserve">Create Group with type Class</text></g><g/><g><path fill="none" stroke="black" paint-order="fill stroke markers" d=" M 89.84361815 129.701514202 L 89.84361815 1478.9893067819999" stroke-miterlimit="10" stroke-width="1.3612669416666667" stroke-dasharray="12.565541,5.445067766666667"/><path fill="none" stroke="black" paint-order="fill stroke markers" d=" M 394.14862045384115 129.701514202 L 394.14862045384115 1478.9893067819999" stroke-miterlimit="10" stroke-width="1.3612669416666667" stroke-dasharray="12.565541,5.445067766666667"/><path fill="none" stroke="black" paint-order="fill stroke markers" d=" M 645.117989544401 129.701514202 L 645.117989544401 1478.9893067819999" stroke-miterlimit="10" stroke-width="1.3612669416666667" stroke-dasharray="12.565541,5.445067766666667"/><path fill="none" stroke="black" paint-order="fill stroke markers" d=" M 783.063736874608 129.701514202 L 783.063736874608 1478.9893067819999" stroke-miterlimit="10" stroke-width="1.3612669416666667" stroke-dasharray="12.565541,5.445067766666667"/><path fill="none" stroke="black" paint-order="fill stroke markers" d=" M 1008.349542732746 129.701514202 L 1008.349542732746 1478.9893067819999" stroke-miterlimit="10" stroke-width="1.3612669416666667" stroke-dasharray="12.565541,5.445067766666667"/><path fill="none" stroke="black" paint-order="fill stroke markers" d=" M 1297.0304301938397 129.701514202 L 1297.0304301938397 1478.9893067819999" stroke-miterlimit="10" stroke-width="1.3612669416666667" stroke-dasharray="12.565541,5.445067766666667"/></g><g><g><path fill="white" stroke="green" paint-order="fill stroke markers" d=" M 99.154684031 60.60360424300001 A 9.311065881 9.311065881 0 1 1 99.15467937546744 60.594293178670846 M 89.84361815 69.91467012400001 L 89.84361815 89.84361815000001 M 78.08227177399999 77.102159576 L 101.604964526 77.102159576 M 89.84361815 89.84361815000001 L 78.08227177399999 108.465749912 M 89.84361815 89.84361815000001 L 101.604964526 108.465749912" stroke-miterlimit="10" stroke-width="1.3884922805000002" stroke-dasharray=""/></g><g><text fill="black" stroke="none" font-family="sans-serif" font-size="11pt" font-style="normal" font-weight="normal" text-decoration="normal" x="30.50219511533203" y="124.80095321200001" text-anchor="start" dominant-baseline="alphabetic" xml:space="preserve">Workspace Admin</text></g><g><path fill="white" stroke="black" paint-order="fill stroke markers" d=" M 426.57399900434115 82.819480731 A 24.2577769005 24.2577769005 0 1 1 426.5739868754537 82.79522295814245 M 363.1117341838411 57.17321154999999 L 363.1117341838411 108.465749912 M 361.72324190334115 82.819480731 L 378.05844520334114 82.819480731" stroke-miterlimit="10" stroke-width="2.7769845610000004" stroke-dasharray=""/></g><g><text fill="black" stroke="none" font-family="sans-serif" font-size="11pt" font-style="normal" font-weight="normal" text-decoration="normal" x="327.31971725559896" y="124.80095321200001" text-anchor="start" dominant-baseline="alphabetic" xml:space="preserve">Create Group popup</text></g><path fill="none" stroke="none"/><g><path fill="white" stroke="black" paint-order="fill stroke markers" d=" M 577.6913902163424 85.75981732500001 L 712.5445888724596 85.75981732500001 L 712.5445888724596 129.701514202 L 577.6913902163424 129.701514202 L 577.6913902163424 85.75981732500001 Z" stroke-miterlimit="10" stroke-width="2.613632528" stroke-dasharray=""/></g><g><text fill="black" stroke="none" font-family="sans-serif" font-size="11pt" font-style="normal" font-weight="normal" text-decoration="normal" x="595.4150857968424" y="113.36631090200002" text-anchor="start" dominant-baseline="alphabetic" xml:space="preserve">Search Service</text></g><g><path fill="white" stroke="black" paint-order="fill stroke markers" d=" M 807.321513775108 82.819480731 A 24.2577769005 24.2577769005 0 1 1 807.3215016462206 82.79522295814245 M 779.796696214608 58.561703830499994 L 789.597818194608 50.39410218049999 M 779.796696214608 58.561703830499994 L 789.597818194608 66.72930548049999" stroke-miterlimit="10" stroke-width="2.7769845610000004" stroke-dasharray=""/></g><g><text fill="black" stroke="none" font-family="sans-serif" font-size="11pt" font-style="normal" font-weight="normal" text-decoration="normal" x="728.8797921724596" y="124.80095321200001" text-anchor="start" dominant-baseline="alphabetic" xml:space="preserve">Group Controller</text></g><path fill="none" stroke="none"/><g><path fill="white" stroke="black" paint-order="fill stroke markers" d=" M 943.7754748377929 85.75981732500001 L 1072.9236106276992 85.75981732500001 L 1072.9236106276992 129.701514202 L 943.7754748377929 129.701514202 L 943.7754748377929 85.75981732500001 Z" stroke-miterlimit="10" stroke-width="2.613632528" stroke-dasharray=""/></g><g><text fill="black" stroke="none" font-family="sans-serif" font-size="11pt" font-style="normal" font-weight="normal" text-decoration="normal" x="961.4991704182929" y="113.36631090200002" text-anchor="start" dominant-baseline="alphabetic" xml:space="preserve">Group Service</text></g><g><path fill="white" stroke="blue" paint-order="fill stroke markers" d=" M 1273.1810333758397 97.684515734 L 1273.1810333758397 63.380588804000006 L 1320.8798270118398 63.380588804000006 L 1320.8798270118398 97.684515734" stroke-miterlimit="10" stroke-width="2.7769845610000004" stroke-dasharray=""/><path fill="white" stroke="blue" paint-order="fill stroke markers" d=" M 1320.8798270118398 62.1881189631 L 1320.878634551936 62.29592950801663 L 1320.87505729147 62.403729271968594 L 1320.8690955881646 62.51150747506936 L 1320.8607500381854 62.619253339588404 L 1320.8500214760802 62.72695609102909 L 1320.8369109746964 62.834604959206004 L 1320.821419845073 62.94218917932205 L 1320.8035496363104 63.04969799304486 L 1320.7833021354145 63.15712064958265 L 1320.7606793671182 63.2644464067593 L 1320.7356835936798 63.371664532088516 L 1320.708317314656 63.47876430384712 L 1320.6785832666512 63.58573501214718 L 1320.646484423046 63.692565960007016 L 1320.612023993698 63.79924646442086 L 1320.5752054246211 63.90576585742718 L 1320.536032397642 64.01211348717543 L 1320.49450883003 64.11827871899126 L 1320.450638874108 64.22425093643996 L 1320.4044269168348 64.3300195423881 L 1320.3558775793674 64.43557396006322 L 1320.3049957165995 64.54090363411153 L 1320.2517864166743 64.64599803165338 L 1320.1962550004782 64.75084664333659 L 1320.1384070211063 64.85543898438739 L 1320.078248263308 64.95976459565881 L 1320.0157847429093 65.06381304467668 L 1319.9510227062103 65.16757392668278 L 1319.8839686293602 65.27103686567541 L 1319.8146292177112 65.37419151544687 L 1319.7430114051467 65.47702756061814 L 1319.669122353388 65.5795347176704 L 1319.5929694512788 65.68170273597339 L 1319.514560314046 65.7835213988104 L 1319.433902782538 65.88498052439998 L 1319.3510049224406 65.98606996691414 L 1319.2658750234707 66.08677961749288 L 1319.1785215985474 66.18709940525505 L 1319.0889533829402 66.28701929830548 L 1318.997179333396 66.38652930473813 L 1318.9032086272437 66.48561947363528 L 1318.8070506614752 66.58427989606261 L 1318.7087150518068 66.6825007060601 L 1318.6082116317182 66.7802720816286 L 1318.505550451467 66.87758424571203 L 1318.4007417770858 66.97442746717506 L 1318.293796089355 67.07079206177627 L 1318.1847240827542 67.1666683931365 L 1318.0735366643928 67.2620468737025 L 1317.9602449529202 67.35691796570569 L 1317.8448602774133 67.45127218211596 L 1317.7273941762433 67.54510008759026 L 1317.6078583959224 67.63839229941624 L 1317.486264889929 67.73113948845047 L 1317.3626258175127 67.82333238005134 L 1317.2369535424773 67.9149617550065 L 1317.1092606319457 68.00601845045483 L 1316.979559855103 68.09649336080267 L 1316.8478641819179 68.18637743863435 L 1316.7141867818486 68.27566169561702 L 1316.5785410225237 68.36433720339936 L 1316.4409404684059 68.45239509450451 L 1316.301398879436 68.53982656321674 L 1316.1599302096567 68.62662286646201 L 1316.016548605817 68.71277532468237 L 1315.8712684059576 68.79827532270376 L 1315.724104137978 68.88311431059763 L 1315.5750705181817 68.9672838045359 L 1315.424182449807 69.0507753876393 L 1315.2714550215346 69.13358071081912 L 1315.1169035059802 69.21569149361203 L 1314.9605433581667 69.29709952500816 L 1314.8023902139785 69.37779666427225 L 1314.6424598885983 69.45777484175761 L 1314.480768374925 69.53702605971311 L 1314.3173318419756 69.61554239308303 L 1314.1521666332671 69.69331599029945 L 1313.985289265183 69.77033907406746 L 1313.8167164253205 69.84660394214286 L 1313.6464649708232 69.92210296810242 L 1313.474551926695 69.99682860210643 L 1313.3009944840971 70.07077337165379 L 1313.1258099986287 70.14392988232913 L 1312.9490159885927 70.21629081854239 L 1312.7706301332425 70.28784894426022 L 1312.5906702710154 70.35859710372968 L 1312.4091543977472 70.42852822219379 L 1312.2261006648744 70.49763530659898 L 1312.0415273776173 70.5659114462944 L 1311.8554529931512 70.63334981372294 L 1311.6678961187592 70.69994366510412 L 1311.4788755099726 70.76568634110825 L 1311.2884100686947 70.83057126752253 L 1311.0965188413109 70.89459195590838 L 1310.903221016784 70.95774200425032 L 1310.7085359247355 71.02001509759614 L 1310.5124830335124 71.08140500868842 L 1310.3150819482403 71.14190559858717 L 1310.1163524088631 71.20151081728383 L 1309.9163142881694 71.26021470430622 L 1309.7149875898044 71.31801138931453 L 1309.5123924462703 71.37489509268845 L 1309.3085491169127 71.43086012610503 L 1309.1034779858942 71.48590089310757 L 1308.8971995601576 71.54001188966522 L 1308.6897344673732 71.59318770472345 L 1308.4811034538775 71.64542302074504 L 1308.271327382598 71.69671261424193 L 1308.060427230967 71.7470513562975 L 1307.848424088824 71.79643421307951 L 1307.6353391563064 71.84485624634341 L 1307.42119374173 71.89231261392625 L 1307.2060092594577 71.93879857023082 L 1306.9898072277585 71.9843094667002 L 1306.7726092666553 72.02884075228269 L 1306.5544370957632 72.07238797388683 L 1306.3353125321178 72.11494677682676 L 1306.1152574879925 72.15651290525764 L 1305.8942939687083 72.19708220260128 L 1305.6724440704334 72.23665061196175 L 1305.4497299779723 72.27521417653107 L 1305.226173962549 72.31276903998494 L 1305.0017983795783 72.3493114468683 L 1304.776625666432 72.38483774297092 L 1304.5506783401936 72.41934437569277 L 1304.3239789954075 72.45282789439938 L 1304.096550301819 72.48528495076673 L 1303.8684150021083 72.51671229911628 L 1303.6395959096149 72.54710679673934 L 1303.4101159060576 72.5764654042115 L 1303.1799979392456 72.60478518569649 L 1302.9492650207835 72.63206330923974 L 1302.7179402237712 72.65829704705163 L 1302.4860466804953 72.68348377578025 L 1302.2536075801172 72.70762097677371 L 1302.0206461663531 72.73070623633201 L 1301.7871857351502 72.75273724594847 L 1301.5532496323572 72.77371180254045 L 1301.3188612513893 72.79362780866978 L 1301.0840440308893 72.81248327275246 L 1300.8488214523836 72.83027630925778 L 1300.613217037934 72.84700513889692 L 1300.3772543477858 72.86266808880085 L 1300.140956978011 72.87726359268764 L 1299.9043485581499 72.89079019101906 L 1299.6674527488474 72.90324653114655 L 1299.430293239487 72.91463136744649 L 1299.1928937458217 72.9249435614447 L 1298.9552780076033 72.93418208193043 L 1298.7174697862076 72.94234600505929 L 1298.4794928622587 72.94943451444577 L 1298.2413710332503 72.95544690124485 L 1298.003128111167 72.96038256422287 L 1297.7647879201027 72.96424100981763 L 1297.5263742938776 72.9670218521878 L 1297.287911073656 72.96872481325143 L 1297.0494221055608 72.96934972271386 L 1296.8109312382903 72.96889651808466 L 1296.5724623207325 72.96736524468392 L 1296.3340391995803 72.96475605563768 L 1296.0956857169472 72.96106921186271 L 1295.8574257079829 72.95630508204027 L 1295.6192829984896 72.9504641425794 L 1295.3812814025398 72.94354697756918 L 1295.143444720095 72.93555427872033 L 1294.905796734625 72.9264868452961 L 1294.6683612107306 72.91634558403224 L 1294.431161891766 72.90513150904647 L 1294.1942224974655 72.89284574173689 L 1293.957566721571 72.87948951067006 L 1293.7212182294634 72.86506415145789 L 1293.4852006557944 72.84957110662431 L 1293.2495376021247 72.8330119254609 L 1293.0142526345637 72.81538826387197 L 1292.7793692814116 72.79670188420899 L 1292.5449110308084 72.77695465509434 L 1292.3109013283834 72.7561485512345 L 1292.0773635749122 72.73428565322251 L 1291.844321123975 72.71136814732996 L 1291.6117972796235 72.68739832528833 L 1291.3798152940476 72.66237858405984 L 1291.148398365253 72.63631142559778 L 1290.9175696347395 72.60919945659627 L 1290.6873521851878 72.58104538822961 L 1290.4577690381514 72.55185203588118 L 1290.2288431517532 72.5216223188619 L 1290.0005974183912 72.49035926011825 L 1289.7730546624484 72.45806598593009 L 1289.5462376380112 72.4247457255979 L 1289.3201690265926 72.39040181111994 L 1289.0948714348656 72.35503767685907 L 1288.8703673924017 72.31865685919922 L 1288.6466793494178 72.28126299619186 L 1288.4238296745318 72.24285982719209 L 1288.2018406525258 72.20345119248485 L 1287.9807344821165 72.16304103290075 L 1287.7605332737373 72.12163338942209 L 1287.541259047325 72.07923240277869 L 1287.3229337301198 72.03584231303388 L 1287.1055791544716 71.99146745916049 L 1286.8892170556564 71.94611227860693 L 1286.673869069704 71.89978130685344 L 1286.4595567312338 71.85247917695861 L 1286.2463014713007 71.80421061909601 L 1286.0341246152532 71.75498046008119 L 1285.8230473806 71.70479362288901 L 1285.6130908748887 71.65365512616141 L 1285.4042760935947 71.60157008370541 L 1285.1966239180224 71.54854370398188 L 1284.9901551132161 71.49458128958457 L 1284.7848903258846 71.43968823671 L 1284.580850082335 71.38387003461766 L 1284.3780547864221 71.32713226508127 L 1284.1765247175065 71.26948060183051 L 1283.9762800284266 71.21092080998365 L 1283.7773407434852 71.15145874547107 L 1283.5797267564444 71.0911003544497 L 1283.3834578285384 71.0298516727083 L 1283.1885535864967 70.96771882506403 L 1282.9950335205806 70.90470802474988 L 1282.802916982636 70.84082557279336 L 1282.6122231841562 70.77607785738643 L 1282.4229711943622 70.71047135324669 L 1282.2351799382952 70.64401262096986 L 1282.0488681949246 70.5767083063738 L 1281.8640545952692 70.50856513983389 L 1281.6807576205351 70.43958993560999 L 1281.4989956002669 70.36978959116503 L 1281.3187867105153 70.29917108647531 L 1281.140148972019 70.22774148333244 L 1280.9631002484032 70.1555079246372 L 1280.7876582443923 70.08247763368529 L 1280.6138405040408 70.00865791344492 L 1280.4416644089779 69.9340561458266 L 1280.2711471766697 69.85867979094495 L 1280.102305858697 69.78253638637263 L 1279.935157339051 69.70563354638664 L 1279.7697183324447 69.62797896120689 L 1279.6060053826407 69.54958039622719 L 1279.4440348607973 69.47044569123871 L 1279.2838229638319 69.39058275964601 L 1279.1253857128008 69.30999958767568 L 1278.9687389512972 69.22870423357777 L 1278.8138983438662 69.14670482681996 L 1278.66087937444 69.06400956727457 L 1278.5096973447876 68.98062672439866 L 1278.3603673729863 68.89656463640702 L 1278.2129043919088 68.8118317094384 L 1278.0673231477303 68.72643641671489 L 1277.9236381984538 68.6403872976946 L 1277.7818639124546 68.55369295721772 L 1277.642014467043 68.46636206464606 L 1277.5041038470474 68.37840335299609 L 1277.3681458434144 68.28982561806569 L 1277.2341540518314 68.20063771755453 L 1277.1021418713656 68.11084857017835 L 1276.9721225031253 68.02046715477704 L 1276.8441089489388 67.92950250941684 L 1276.718114010055 67.83796373048648 L 1276.5941502858625 67.74585997178757 L 1276.4722301726308 67.65320044361923 L 1276.3523658622694 67.55999441185705 L 1276.2345693411094 67.46625119702654 L 1276.118852388705 67.37198017337107 L 1276.0052265766549 67.27719076791445 L 1275.8937032674453 67.18189245951821 L 1275.7842936133147 67.08609477793381 L 1275.677008555137 66.98980730284956 L 1275.5718588213288 66.89303966293272 L 1275.4688549267757 66.79580153486665 L 1275.3680071717815 66.69810264238313 L 1275.2693256410373 66.59995275528999 L 1275.1728202026145 66.50136168849414 L 1275.0785005069758 66.40233930102012 L 1274.986375986013 66.30289549502413 L 1274.8964558521006 66.20304021480393 L 1274.8087490971777 66.1027834458043 L 1274.7232644918465 66.00213521361863 L 1274.6400105844962 65.90110558298623 L 1274.5589957004483 65.799704656786 L 1274.4802279411235 65.69794257502603 L 1274.4037151832322 65.59582951382973 L 1274.3294650779865 65.4933756844181 L 1274.2574850503347 65.3905913320887 L 1274.18778229822 65.28748673519112 L 1274.1203637918595 65.18407220409914 L 1274.0552362730475 65.08035808017966 L 1273.9924062544817 64.97635473475869 L 1273.9318800191115 64.87207256808405 L 1273.8736636195101 64.76752200828555 L 1273.8177628772687 64.66271351033203 L 1273.7641833824152 64.55765755498592 L 1273.7129304928546 64.45236464775525 L 1273.6640093338326 64.34684531784296 L 1273.617424797425 64.24111011709415 L 1273.5731815420459 64.13516961894075 L 1273.5312839919845 64.0290344173443 L 1273.4917363369607 63.92271512573653 L 1273.4545425317071 63.81622237595798 L 1273.4197062955732 63.70956681719489 L 1273.3872311121536 63.602759114914264 L 1273.3571202289395 63.49580994979732 L 1273.3293766569943 63.38873001667144 L 1273.3040031706519 63.28153002344071 L 1273.28100230724 63.17422069001512 L 1273.2603763668255 63.066812747238586 L 1273.2421274119854 62.959316935815885 L 1273.2262572676 62.85174400523857 L 1273.2127675206705 62.74410471271006 L 1273.2016595201603 62.636409822069915 L 1273.1929343768602 62.52867010271744 L 1273.1865929632772 62.4208963285348 L 1273.1826359135475 62.313099276809595 L 1273.181063623373 62.20528972715717 L 1273.1818762499809 62.09747846044265 L 1273.1850737121094 61.98967625770286 L 1273.190655690015 61.88189389906824 L 1273.1986216255048 61.77414216268484 L 1273.2089707219916 61.66643182363649 L 1273.2217019445743 61.558773652867366 L 1273.2368140201415 61.4511784161048 L 1273.254305437498 61.34365687278283 L 1273.2741744475168 61.236219774966166 L 1273.2964190633136 61.12887786627507 L 1273.321037060445 61.02164188081096 L 1273.348025977132 60.91452254208302 L 1273.3773831145054 60.807530561935856 L 1273.4091055368758 60.70067663947832 L 1273.4431900720276 60.593971460013606 L 1273.4796333115357 60.487425693970756 L 1273.5184316111065 60.381049995837586 L 1273.5595810909422 60.27485500309525 L 1273.6030776361292 60.16885133515453 L 1273.6489168970493 60.06304959229389 L 1273.6970942898145 59.95746035459945 L 1273.7476049967256 59.852094180906974 L 1273.8004439667543 59.746961607746044 L 1273.8556059160474 59.64207314828636 L 1273.913085328456 59.537439291286454 L 1273.9728764560869 59.43307050004484 L 1274.0349733198768 59.32897721135367 L 1274.0993697101912 59.22516983445505 L 1274.166059187445 59.12165875000019 L 1274.2350350827458 59.01845430901127 L 1274.3062904985616 58.91556683184637 L 1274.3798183094102 58.81300660716748 L 1274.4556111625718 58.7107838909116 L 1274.5336614788243 58.60890890526517 L 1274.613961453201 58.507391837641855 L 1274.6965030557715 58.406242839663825 L 1274.7812780324443 58.30547202614659 L 1274.8682779057922 58.205089474087515 L 1274.9574939759007 58.105105221658164 L 1275.0489173212366 58.00552926720046 L 1275.142538799542 57.90637156822687 L 1275.2383490487473 57.807642040424646 L 1275.336338487907 57.709350556664305 L 1275.4364973181587 57.61150694601232 L 1275.538815523703 57.514120992748204 L 1275.643282872805 57.417202435386145 L 1275.7498889188164 57.320760965701105 L 1275.8586230012218 57.224806227759686 L 1275.9694742467032 57.12934781695572 L 1276.0824315702284 57.03439527905074 L 1276.1974836761594 56.93995810921942 L 1276.3146190593816 56.84604575110002 L 1276.4338260064542 56.75266759585011 L 1276.5550925967816 56.65983298120741 L 1276.6784067038059 56.567551190555996 L 1276.8037559962195 56.47583145199805 L 1276.931127939197 56.384682937430995 L 1277.060509795651 56.29411476163032 L 1277.191888627503 56.20413598133814 L 1277.3252512969796 56.1147555943575 L 1277.460584467925 56.02598253865261 L 1277.5978746071348 55.937825691455075 L 1277.7371079857096 55.85029386837614 L 1277.8782706804275 55.763395822525176 L 1278.0213485751367 55.677140243634355 L 1278.1663273621668 55.591535757189675 L 1278.3131925437601 55.50659092356846 L 1278.4619294335207 55.42231423718327 L 1278.6125231578837 55.33871412563253 L 1278.764958657602 55.25579894885771 L 1278.9192206892528 55.1735769983074 L 1279.0752938267615 55.092056496108135 L 1279.2331624629444 55.01124559424221 L 1279.3928108110692 54.93115237373246 L 1279.5542229064345 54.851784843834196 L 1279.7173826079647 54.77315094123426 L 1279.8822735998265 54.6952585292574 L 1280.0488793930574 54.61811539707989 L 1280.217183327217 54.54172925895067 L 1280.3871685720524 54.46610775341989 L 1280.5588181291807 54.391258442575094 L 1280.732114833789 54.317188811284986 L 1280.9070413563516 54.24390626645098 L 1281.0835802043616 54.171418136266475 L 1281.2617137240818 54.09973166948409 L 1281.4414241023082 54.028854034690774 L 1281.6226933681533 53.95879231959093 L 1281.805503394841 53.88955353029769 L 1281.9898359015212 53.82114459063227 L 1282.175672455097 53.753572341431656 L 1282.3629944720674 53.68684353986444 L 1282.5517832203875 53.62096485875517 L 1282.7420198213392 53.55594288591707 L 1282.9336852514214 53.49178412349323 L 1283.1267603442504 53.42849498730643 L 1283.3212257924781 53.366081806217544 L 1283.5170621497216 53.304550821492676 L 1283.7142498325086 53.24390818617902 L 1283.9127691222347 53.18415996448957 L 1284.1126001671366 53.12531213119671 L 1284.3137229842766 53.067370571034715 L 1284.5161174615403 53.01034107811134 L 1284.7197633596484 52.95422935532834 L 1284.9246403141813 52.89904101381123 L 1285.130727837614 52.84478157234818 L 1285.338005321366 52.79145645683812 L 1285.5464520378614 52.73907099974815 L 1285.7560471426025 52.687630439580346 L 1285.9667696762535 52.637139920347835 L 1286.1785985667366 52.58760449106049 L 1286.391512631339 52.53902910521993 L 1286.6054905788321 52.49141862032429 L 1286.8205110115994 52.444777797382365 L 1287.0365524277765 52.399111300437596 L 1287.2535932234023 52.354423696101605 L 1287.4716116945774 52.3107194530976 L 1287.690586039637 52.26800294181345 L 1287.9104943613288 52.2262784338647 L 1288.131314669004 52.18555010166736 L 1288.3530248808156 52.14582201802072 L 1288.5756028259275 52.10709815570004 L 1288.7990262467306 52.06938238705927 L 1289.0232728010687 52.032678483643856 L 1289.2483200644738 51.996990115813546 L 1289.4741455324065 51.96232085237539 L 1289.7007266225085 51.928674160226834 L 1289.9280406768596 51.89605340400906 L 1290.1560649642438 51.8644618457705 L 1290.3847766824222 51.833902644640645 L 1290.6141529604138 51.80437885651416 L 1290.8441708607818 51.775893433745246 L 1291.074807381928 51.74844922485244 L 1291.3060394603924 51.722048974233765 L 1291.5378439731599 51.69669532189228 L 1291.7701977399722 51.672390803172085 L 1292.0030775256464 51.649137848504814 L 1292.236460042398 51.626938783166544 L 1292.4703219521696 51.60579582704531 L 1292.7046398689654 51.58571109441911 L 1292.939390361189 51.56668659374447 L 1293.1745499539866 51.54872422745561 L 1293.410095131595 51.53182579177417 L 1293.6460023396926 51.515992976529645 L 1293.8822479877554 51.50122736499037 L 1294.1188084514151 51.4875304337052 L 1294.355660074823 51.47490355235584 L 1294.5927791730135 51.4633479836199 L 1294.830142034275 51.45286488304463 L 1295.0677249225187 51.443455298931354 L 1295.3055040796542 51.43512017223063 L 1295.5434557279634 51.4278603364482 L 1295.7815560724803 51.42167651756158 L 1296.0197813033683 51.41656933394751 L 1296.2581075983032 51.41253929632009 L 1296.4965111248544 51.40958680767973 L 1296.7349680428672 51.407712163272826 L 1296.973454506849 51.40691555056227 L 1297.211946668352 51.40719704920866 L 1297.450420678359 51.40855663106237 L 1297.6888526896673 51.41099416016634 L 1297.9272188592747 51.414509392769695 L 1298.1654953507632 51.419101977352106 L 1298.4036583366815 51.42477145465894 L 1298.6416840009301 51.431517257747196 L 1298.8795485411406 51.43933871204218 L 1299.1172281710574 51.44823503540498 L 1299.3546991229152 51.45820533821068 L 1299.5919376498173 51.4692486234373 L 1299.8289200281083 51.48136378676553 L 1300.065622559748 51.49454961668913 L 1300.30202157468 51.50880479463608 L 1300.5380934332006 51.524127895100484 L 1300.7738145283204 51.54051738578506 L 1301.009161288126 51.5579716277544 L 1301.2441101781378 51.57648887559884 L 1301.4786377036628 51.59606727760904 L 1301.7127204121434 51.6167048759611 L 1301.9463348955042 51.6383996069124 L 1302.1794577924913 51.66114930100791 L 1302.4120657910094 51.684951683297186 L 1302.6441356304524 51.70980437356183 L 1302.87564410403 51.735704886553535 L 1303.1065680610873 51.76265063224257 L 1303.3368844094216 51.79063891607683 L 1303.5665701175894 51.81966693925126 L 1303.7956022172118 51.849731798987726 L 1304.0239578052694 51.88083048882531 L 1304.251614046394 51.91295989892094 L 1304.4785481751508 51.94611681636038 L 1304.7047374983163 51.980297925479526 L 1304.9301593971463 52.01549980819594 L 1305.1547913296395 52.0517189443507 L 1305.378610832789 52.08895171206036 L 1305.6015955248315 52.127194388079175 L 1305.8237231074836 52.16644314817141 L 1306.0449713681721 52.20669406749378 L 1306.2653181822552 52.247943120987884 L 1306.484741515235 52.29018618378274 L 1306.7032194249616 52.33341903160728 L 1306.9207300638254 52.37763734121275 L 1307.1372516809442 52.422836690805035 L 1307.3527626243367 52.46901256048684 L 1307.567241343088 52.516160332709674 L 1307.7806663895049 52.564275292735616 L 1307.9930164212608 52.613352629108746 L 1308.2042702035294 52.663387434136325 L 1308.4144066111087 52.71437470437956 L 1308.6234046305328 52.7663093411539 L 1308.8312433621738 52.819186151038956 L 1309.0379020223322 52.8729998463978 L 1309.2433599453138 52.92774504590574 L 1309.4475965854979 52.983416275088445 L 1309.6505915193902 53.040007966869396 L 1309.852324447667 53.09751446212657 L 1310.052775197203 53.15593001025836 L 1310.2519237230906 53.21524876975863 L 1310.4497501106432 53.27546480880087 L 1310.6462345773868 53.33657210583136 L 1310.8413574750384 53.3985645501713 L 1311.0350992914712 53.461435942627936 L 1311.2274406526647 53.52517999611441 L 1311.418362324643 53.58979033627848 L 1311.6078452153984 53.655260502139996 L 1311.7958703767993 53.721583946736914 L 1311.9824190064862 53.78875403778004 L 1312.167472449752 53.85676405831625 L 1312.3510122014063 53.92560720740017 L 1312.533019907627 53.995276600774254 L 1312.713477367795 54.065765271557225 L 1312.8923665363147 54.13706617094075 L 1313.0696695244187 54.2091721688943 L 1313.2453686019553 54.28207605487816 L 1313.4194461991638 54.35577053856451 L 1313.591884908429 54.43024825056637 L 1313.762667486024 54.50550174317461 L 1313.9317768538333 54.581523491102686 L 1314.099196101061 54.658305892239156 L 1314.2649084859218 54.73584126840789 L 1314.4288974373155 54.81412186613588 L 1314.5911465564834 54.89313985742859 L 1314.751639618649 54.97288734055273 L 1314.9103605746398 55.05335634082646 L 1315.0672935524924 55.1345388114168 L 1315.2224228590399 55.21642663414435 L 1315.3757329814805 55.29901162029506 L 1315.5272085889303 55.38228551143916 L 1315.6768345339544 55.46623998025691 L 1315.8245958540833 55.55086663137139 L 1315.9704777733077 55.63615700218803 L 1316.1144657035577 55.722102563740805 L 1316.25654524616 55.80869472154519 L 1316.3967021932785 55.89592481645755 L 1316.5349225293357 55.98378412554111 L 1316.6711924324131 56.07226386293816 L 1316.805498275634 56.1613551807487 L 1316.9378266285257 56.251049169915184 L 1317.0681642583634 56.34133686111345 L 1317.1964981314927 56.4322092256496 L 1317.3228154146334 56.52365717636293 L 1317.447103476162 56.615671568534566 L 1317.5693498873766 56.70824320080196 L 1317.6895424237373 56.80136281607904 L 1317.8076690660907 56.89502110248188 L 1317.9237180018715 56.98920869425987 L 1318.0376776262824 57.083916172732344 L 1318.149536543456 57.17913406723036 L 1318.259283567594 57.27485285604382 L 1318.366907724085 57.37106296737362 L 1318.4723982506034 57.467754780288786 L 1318.5757445981847 57.56491862568861 L 1318.6769364322795 57.662544787269525 L 1318.7759636337894 57.76062350249672 L 1318.8728163000765 57.859144963580405 L 1318.9674847459548 57.95809931845658 L 1319.0599595046588 58.05747667177222 L 1319.1502313287895 58.15726708587479 L 1319.2382911912398 58.257460581806065 L 1319.324130286097 58.358047140299924 L 1319.4077400295228 58.459016702784346 L 1319.4891120606128 58.56035917238722 L 1319.5682382422317 58.66206441494605 L 1319.6451106618272 58.764122260021324 L 1319.7197216322213 58.866522501913586 L 1319.7920636923793 58.96925490068398 L 1319.8621296081556 59.072309183178234 L 1319.9299123730166 59.17567504405398 L 1319.9954052087426 59.279342146811274 L 1320.0586015661045 59.38330012482622 L 1320.119495125519 59.48753858238766 L 1320.1780797976817 59.59204709573668 L 1320.2343497241732 59.69681521410906 L 1320.2882992780485 59.80183246078026 L 1320.3399230643965 59.907088334113126 L 1320.3892159208824 60.012572308608036 L 1320.4361729182608 60.11827383595545 L 1320.4807893608718 60.22418234609071 L 1320.5230607871079 60.33028724825106 L 1320.5629829698617 60.43657793203471 L 1320.6005519169482 60.54304376846186 L 1320.6357638715044 60.64967411103757 L 1320.6686153123637 60.75645829681646 L 1320.6991029544095 60.86338564746893 L 1320.7272237489033 60.97044547034902 L 1320.7529748837887 61.07762705956367 L 1320.7763537839737 61.184919697043256 L 1320.7973581115882 61.29231265361346 L 1320.8159857662163 61.399795190068104 L 1320.8322348851086 61.50735655824312 L 1320.8461038433666 61.614986002091314 L 1320.8575912541057 61.72267275875801 L 1320.866695968595 61.830406059657264 L 1320.87341707637 61.93817513154877 L 1320.8777539053262 62.04596919761514 L 1320.8797060217837 62.15377747853961 M 1320.8798270118398 96.4920458931 L 1320.878634551936 96.59985643801662 L 1320.87505729147 96.70765620196859 L 1320.8690955881646 96.81543440506935 L 1320.8607500381854 96.9231802695884 L 1320.8500214760802 97.03088302102908 L 1320.8369109746964 97.138531889206 L 1320.821419845073 97.24611610932205 L 1320.8035496363104 97.35362492304485 L 1320.7833021354145 97.46104757958265 L 1320.7606793671182 97.5683733367593 L 1320.7356835936798 97.67559146208852 L 1320.708317314656 97.78269123384712 L 1320.6785832666512 97.88966194214719 L 1320.646484423046 97.99649289000702 L 1320.612023993698 98.10317339442086 L 1320.5752054246211 98.20969278742717 L 1320.536032397642 98.31604041717543 L 1320.49450883003 98.42220564899125 L 1320.450638874108 98.52817786643996 L 1320.4044269168348 98.6339464723881 L 1320.3558775793674 98.73950089006323 L 1320.3049957165995 98.84483056411152 L 1320.2517864166743 98.94992496165337 L 1320.1962550004782 99.05477357333659 L 1320.1384070211063 99.15936591438738 L 1320.078248263308 99.2636915256588 L 1320.0157847429093 99.36773997467667 L 1319.9510227062103 99.47150085668278 L 1319.8839686293602 99.5749637956754 L 1319.8146292177112 99.67811844544686 L 1319.7430114051467 99.78095449061813 L 1319.669122353388 99.8834616476704 L 1319.5929694512788 99.98562966597338 L 1319.514560314046 100.08744832881038 L 1319.433902782538 100.18890745439998 L 1319.3510049224406 100.28999689691415 L 1319.2658750234707 100.39070654749288 L 1319.1785215985474 100.49102633525506 L 1319.0889533829402 100.59094622830548 L 1318.997179333396 100.69045623473812 L 1318.9032086272437 100.78954640363527 L 1318.8070506614752 100.8882068260626 L 1318.7087150518068 100.9864276360601 L 1318.6082116317182 101.0841990116286 L 1318.505550451467 101.18151117571202 L 1318.4007417770858 101.27835439717506 L 1318.293796089355 101.37471899177628 L 1318.1847240827542 101.4705953231365 L 1318.0735366643928 101.56597380370249 L 1317.9602449529202 101.6608448957057 L 1317.8448602774133 101.75519911211595 L 1317.7273941762433 101.84902701759025 L 1317.6078583959224 101.94231922941623 L 1317.486264889929 102.03506641845047 L 1317.3626258175127 102.12725931005133 L 1317.2369535424773 102.2188886850065 L 1317.1092606319457 102.30994538045483 L 1316.979559855103 102.40042029080266 L 1316.8478641819179 102.49030436863434 L 1316.7141867818486 102.579588625617 L 1316.5785410225237 102.66826413339936 L 1316.4409404684059 102.75632202450451 L 1316.301398879436 102.84375349321674 L 1316.1599302096567 102.93054979646202 L 1316.016548605817 103.01670225468237 L 1315.8712684059576 103.10220225270375 L 1315.724104137978 103.18704124059762 L 1315.5750705181817 103.27121073453588 L 1315.424182449807 103.3547023176393 L 1315.2714550215346 103.4375076408191 L 1315.1169035059802 103.51961842361202 L 1314.9605433581667 103.60102645500817 L 1314.8023902139785 103.68172359427226 L 1314.6424598885983 103.7617017717576 L 1314.480768374925 103.84095298971312 L 1314.3173318419756 103.91946932308304 L 1314.1521666332671 103.99724292029944 L 1313.985289265183 104.07426600406745 L 1313.8167164253205 104.15053087214287 L 1313.6464649708232 104.22602989810241 L 1313.474551926695 104.30075553210642 L 1313.3009944840971 104.37470030165377 L 1313.1258099986287 104.44785681232914 L 1312.9490159885927 104.52021774854238 L 1312.7706301332425 104.59177587426021 L 1312.5906702710154 104.66252403372968 L 1312.4091543977472 104.73245515219378 L 1312.2261006648744 104.80156223659897 L 1312.0415273776173 104.86983837629438 L 1311.8554529931512 104.93727674372295 L 1311.6678961187592 105.0038705951041 L 1311.4788755099726 105.06961327110824 L 1311.2884100686947 105.13449819752252 L 1311.0965188413109 105.19851888590837 L 1310.903221016784 105.26166893425032 L 1310.7085359247355 105.32394202759615 L 1310.5124830335124 105.38533193868841 L 1310.3150819482403 105.44583252858716 L 1310.1163524088631 105.50543774728384 L 1309.9163142881694 105.56414163430621 L 1309.7149875898044 105.62193831931454 L 1309.5123924462703 105.67882202268845 L 1309.3085491169127 105.73478705610502 L 1309.1034779858942 105.78982782310756 L 1308.8971995601576 105.84393881966523 L 1308.6897344673732 105.89711463472344 L 1308.4811034538775 105.94934995074503 L 1308.271327382598 106.00063954424192 L 1308.060427230967 106.0509782862975 L 1307.848424088824 106.1003611430795 L 1307.6353391563064 106.14878317634341 L 1307.42119374173 106.19623954392625 L 1307.2060092594577 106.2427255002308 L 1306.9898072277585 106.2882363967002 L 1306.7726092666553 106.33276768228268 L 1306.5544370957632 106.37631490388682 L 1306.3353125321178 106.41887370682676 L 1306.1152574879925 106.46043983525765 L 1305.8942939687083 106.50100913260128 L 1305.6724440704334 106.54057754196174 L 1305.4497299779723 106.57914110653107 L 1305.226173962549 106.61669596998493 L 1305.0017983795783 106.65323837686829 L 1304.776625666432 106.6887646729709 L 1304.5506783401936 106.72327130569276 L 1304.3239789954075 106.75675482439937 L 1304.096550301819 106.78921188076673 L 1303.8684150021083 106.82063922911627 L 1303.6395959096149 106.85103372673933 L 1303.4101159060576 106.8803923342115 L 1303.1799979392456 106.90871211569649 L 1302.9492650207835 106.93599023923973 L 1302.7179402237712 106.96222397705162 L 1302.4860466804953 106.98741070578025 L 1302.2536075801172 107.0115479067737 L 1302.0206461663531 107.03463316633201 L 1301.7871857351502 107.05666417594847 L 1301.5532496323572 107.07763873254045 L 1301.3188612513893 107.09755473866979 L 1301.0840440308893 107.11641020275246 L 1300.8488214523836 107.13420323925777 L 1300.613217037934 107.1509320688969 L 1300.3772543477858 107.16659501880085 L 1300.140956978011 107.18119052268763 L 1299.9043485581499 107.19471712101905 L 1299.6674527488474 107.20717346114655 L 1299.430293239487 107.21855829744648 L 1299.1928937458217 107.22887049144471 L 1298.9552780076033 107.23810901193042 L 1298.7174697862076 107.24627293505928 L 1298.4794928622587 107.25336144444577 L 1298.2413710332503 107.25937383124486 L 1298.003128111167 107.26430949422287 L 1297.7647879201027 107.26816793981763 L 1297.5263742938776 107.27094878218779 L 1297.287911073656 107.27265174325143 L 1297.0494221055608 107.27327665271386 L 1296.8109312382903 107.27282344808465 L 1296.5724623207325 107.27129217468391 L 1296.3340391995803 107.26868298563768 L 1296.0956857169472 107.2649961418627 L 1295.8574257079829 107.26023201204026 L 1295.6192829984896 107.2543910725794 L 1295.3812814025398 107.24747390756917 L 1295.143444720095 107.23948120872033 L 1294.905796734625 107.23041377529609 L 1294.6683612107306 107.22027251403225 L 1294.431161891766 107.20905843904646 L 1294.1942224974655 107.1967726717369 L 1293.957566721571 107.18341644067004 L 1293.7212182294634 107.16899108145788 L 1293.4852006557944 107.15349803662431 L 1293.2495376021247 107.1369388554609 L 1293.0142526345637 107.11931519387196 L 1292.7793692814116 107.10062881420897 L 1292.5449110308084 107.08088158509435 L 1292.3109013283834 107.0600754812345 L 1292.0773635749122 107.03821258322252 L 1291.844321123975 107.01529507732995 L 1291.6117972796235 106.99132525528832 L 1291.3798152940476 106.96630551405984 L 1291.148398365253 106.94023835559778 L 1290.9175696347395 106.91312638659626 L 1290.6873521851878 106.88497231822961 L 1290.4577690381514 106.85577896588119 L 1290.2288431517532 106.8255492488619 L 1290.0005974183912 106.79428619011826 L 1289.7730546624484 106.76199291593008 L 1289.5462376380112 106.72867265559789 L 1289.3201690265926 106.69432874111995 L 1289.0948714348656 106.65896460685907 L 1288.8703673924017 106.62258378919921 L 1288.6466793494178 106.58518992619184 L 1288.4238296745318 106.5467867571921 L 1288.2018406525258 106.50737812248485 L 1287.9807344821165 106.46696796290075 L 1287.7605332737373 106.42556031942208 L 1287.541259047325 106.38315933277867 L 1287.3229337301198 106.33976924303387 L 1287.1055791544716 106.29539438916049 L 1286.8892170556564 106.25003920860692 L 1286.673869069704 106.20370823685344 L 1286.4595567312338 106.15640610695861 L 1286.2463014713007 106.108137549096 L 1286.0341246152532 106.05890739008117 L 1285.8230473806 106.00872055288902 L 1285.6130908748887 105.9575820561614 L 1285.4042760935947 105.90549701370541 L 1285.1966239180224 105.85247063398188 L 1284.9901551132161 105.79850821958458 L 1284.7848903258846 105.74361516670999 L 1284.580850082335 105.68779696461766 L 1284.3780547864221 105.63105919508126 L 1284.1765247175065 105.5734075318305 L 1283.9762800284266 105.51484773998365 L 1283.7773407434852 105.45538567547108 L 1283.5797267564444 105.3950272844497 L 1283.3834578285384 105.33377860270829 L 1283.1885535864967 105.27164575506403 L 1282.9950335205806 105.20863495474987 L 1282.802916982636 105.14475250279335 L 1282.6122231841562 105.08000478738643 L 1282.4229711943622 105.01439828324668 L 1282.2351799382952 104.94793955096986 L 1282.0488681949246 104.8806352363738 L 1281.8640545952692 104.8124920698339 L 1281.6807576205351 104.74351686560999 L 1281.4989956002669 104.67371652116503 L 1281.3187867105153 104.6030980164753 L 1281.140148972019 104.53166841333243 L 1280.9631002484032 104.4594348546372 L 1280.7876582443923 104.38640456368528 L 1280.6138405040408 104.31258484344491 L 1280.4416644089779 104.2379830758266 L 1280.2711471766697 104.16260672094495 L 1280.102305858697 104.08646331637262 L 1279.935157339051 104.00956047638662 L 1279.7697183324447 103.93190589120688 L 1279.6060053826407 103.85350732622719 L 1279.4440348607973 103.77437262123871 L 1279.2838229638319 103.694509689646 L 1279.1253857128008 103.61392651767568 L 1278.9687389512972 103.53263116357778 L 1278.8138983438662 103.45063175681996 L 1278.66087937444 103.36793649727457 L 1278.5096973447876 103.28455365439865 L 1278.3603673729863 103.20049156640701 L 1278.2129043919088 103.1157586394384 L 1278.0673231477303 103.03036334671489 L 1277.9236381984538 102.94431422769459 L 1277.7818639124546 102.85761988721772 L 1277.642014467043 102.77028899464605 L 1277.5041038470474 102.68233028299609 L 1277.3681458434144 102.5937525480657 L 1277.2341540518314 102.50456464755453 L 1277.1021418713656 102.41477550017834 L 1276.9721225031253 102.32439408477703 L 1276.8441089489388 102.23342943941684 L 1276.718114010055 102.14189066048647 L 1276.5941502858625 102.04978690178756 L 1276.4722301726308 101.95712737361922 L 1276.3523658622694 101.86392134185704 L 1276.2345693411094 101.77017812702654 L 1276.118852388705 101.67590710337106 L 1276.0052265766549 101.58111769791444 L 1275.8937032674453 101.48581938951821 L 1275.7842936133147 101.39002170793381 L 1275.677008555137 101.29373423284954 L 1275.5718588213288 101.19696659293271 L 1275.4688549267757 101.09972846486664 L 1275.3680071717815 101.00202957238312 L 1275.2693256410373 100.90387968528998 L 1275.1728202026145 100.80528861849413 L 1275.0785005069758 100.70626623102011 L 1274.986375986013 100.60682242502413 L 1274.8964558521006 100.50696714480392 L 1274.8087490971777 100.40671037580431 L 1274.7232644918465 100.30606214361863 L 1274.6400105844962 100.20503251298624 L 1274.5589957004483 100.103631586786 L 1274.4802279411235 100.00186950502604 L 1274.4037151832322 99.89975644382972 L 1274.3294650779865 99.79730261441809 L 1274.2574850503347 99.69451826208869 L 1274.18778229822 99.59141366519111 L 1274.1203637918595 99.48799913409913 L 1274.0552362730475 99.38428501017967 L 1273.9924062544817 99.28028166475868 L 1273.9318800191115 99.17599949808405 L 1273.8736636195101 99.07144893828554 L 1273.8177628772687 98.96664044033201 L 1273.7641833824152 98.86158448498593 L 1273.7129304928546 98.75629157775525 L 1273.6640093338326 98.65077224784297 L 1273.617424797425 98.54503704709414 L 1273.5731815420459 98.43909654894075 L 1273.5312839919845 98.33296134734431 L 1273.4917363369607 98.22664205573652 L 1273.4545425317071 98.12014930595798 L 1273.4197062955732 98.01349374719489 L 1273.3872311121536 97.90668604491427 L 1273.3571202289395 97.79973687979731 L 1273.3293766569943 97.69265694667143 L 1273.3040031706519 97.58545695344071 L 1273.28100230724 97.47814762001512 L 1273.2603763668255 97.37073967723859 L 1273.2421274119854 97.26324386581588 L 1273.2262572676 97.15567093523856 L 1273.2127675206705 97.04803164271006 L 1273.2016595201603 96.94033675206991 L 1273.1929343768602 96.83259703271744 L 1273.1865929632772 96.7248232585348 L 1273.1826359135475 96.6170262068096 L 1273.181063623373 96.50921665715717" stroke-miterlimit="10" stroke-width="2.7769845610000004" stroke-dasharray=""/></g><g><text fill="black" stroke="none" font-family="sans-serif" font-size="11pt" font-style="normal" font-weight="normal" text-decoration="normal" x="1265.6524852475507" y="124.80095321200001" text-anchor="start" dominant-baseline="alphabetic" xml:space="preserve">Database</text></g></g><g><path fill="white" stroke="black" paint-order="fill stroke markers" d=" M 385.98101880384115 183.607685092 L 402.31622210384114 183.607685092 L 402.31622210384114 1372.810485332 L 385.98101880384115 1372.810485332 L 385.98101880384115 183.607685092" stroke-miterlimit="10" stroke-width="1.3612669416666667" stroke-dasharray=""/><path fill="white" stroke="black" paint-order="fill stroke markers" d=" M 636.9503878944009 399.232368652 L 653.285591194401 399.232368652 L 653.285591194401 444.970937892 L 636.9503878944009 444.970937892 L 636.9503878944009 399.232368652" stroke-miterlimit="10" stroke-width="1.3612669416666667" stroke-dasharray=""/><path fill="white" stroke="black" paint-order="fill stroke markers" d=" M 774.896135224608 716.1353126719997 L 791.2313385246081 716.1353126719997 L 791.2313385246081 1327.071916092 L 774.896135224608 1327.071916092 L 774.896135224608 716.1353126719997" stroke-miterlimit="10" stroke-width="1.3612669416666667" stroke-dasharray=""/><path fill="white" stroke="black" paint-order="fill stroke markers" d=" M 1000.181941082746 957.8963215119996 L 1016.5171443827461 957.8963215119996 L 1016.5171443827461 1281.333346852 L 1000.181941082746 1281.333346852 L 1000.181941082746 957.8963215119996" stroke-miterlimit="10" stroke-width="1.3612669416666667" stroke-dasharray=""/><path fill="white" stroke="black" paint-order="fill stroke markers" d=" M 1288.8628285438397 1189.8562083719999 L 1305.1980318438398 1189.8562083719999 L 1305.1980318438398 1235.594777612 L 1288.8628285438397 1235.594777612 L 1288.8628285438397 1189.8562083719999" stroke-miterlimit="10" stroke-width="1.3612669416666667" stroke-dasharray=""/><g><g><rect fill="white" stroke="none" x="148.67250245945965" y="162.371920802" width="178.47963203492188" height="21.23576429"/></g><text fill="black" stroke="none" font-family="sans-serif" font-size="11pt" font-style="normal" font-weight="normal" text-decoration="normal" x="151.12278295445964" y="177.07360377199998" text-anchor="start" dominant-baseline="alphabetic" xml:space="preserve">Go to Create Group button</text></g><g><path fill="none" stroke="black" paint-order="fill stroke markers" d=" M 89.84361815 183.607685092 L 372.5317014201745 183.607685092" stroke-miterlimit="10" stroke-width="1.3612669416666667" stroke-dasharray=""/><g transform="translate(385.98101880384115,183.607685092) translate(-385.98101880384115,-183.607685092)"><path fill="black" stroke="none" paint-order="stroke fill markers" d=" M 372.3683493871745 176.80135038366666 L 385.98101880384115 183.607685092 L 372.3683493871745 190.41401980033334 Z"/></g></g><g><g><rect fill="white" stroke="none" x="142.56299775975262" y="208.110490042" width="190.69864143433594" height="21.23576429"/></g><text fill="black" stroke="none" font-family="sans-serif" font-size="11pt" font-style="normal" font-weight="normal" text-decoration="normal" x="145.0132782547526" y="222.812173012" text-anchor="start" dominant-baseline="alphabetic" xml:space="preserve">Display Create Group popup</text></g><g><path fill="none" stroke="black" paint-order="fill stroke markers" d=" M 385.98101880384115 229.346254332 L 103.29293553366666 229.346254332" stroke-miterlimit="10" stroke-width="1.3612669416666667" stroke-dasharray="6.53408132"/><g transform="translate(89.84361815,229.346254332) translate(-89.84361815,-229.346254332)"><path fill="black" stroke="none" paint-order="stroke fill markers" d=" M 103.45628756666666 222.53991962366666 L 89.84361815 229.346254332 L 103.45628756666666 236.15258904033334 Z"/></g></g><g><g><rect fill="white" stroke="none" x="176.79706758397137" y="253.849059282" width="122.23050178589844" height="21.23576429"/></g><text fill="black" stroke="none" font-family="sans-serif" font-size="11pt" font-style="normal" font-weight="normal" text-decoration="normal" x="179.24734807897136" y="268.550742252" text-anchor="start" dominant-baseline="alphabetic" xml:space="preserve">Select Type Class</text></g><g><path fill="none" stroke="black" paint-order="fill stroke markers" d=" M 89.84361815 275.084823572 L 372.5317014201745 275.084823572" stroke-miterlimit="10" stroke-width="1.3612669416666667" stroke-dasharray=""/><g transform="translate(385.98101880384115,275.084823572) translate(-385.98101880384115,-275.084823572)"><path fill="black" stroke="none" paint-order="stroke fill markers" d=" M 372.3683493871745 268.27848886366667 L 385.98101880384115 275.084823572 L 372.3683493871745 281.89115828033334 Z"/></g></g><g><g><rect fill="white" stroke="none" x="174.76772493260418" y="299.587628522" width="126.28918708863281" height="21.23576429"/></g><text fill="black" stroke="none" font-family="sans-serif" font-size="11pt" font-style="normal" font-weight="normal" text-decoration="normal" x="177.21800542760417" y="314.28931149199997" text-anchor="start" dominant-baseline="alphabetic" xml:space="preserve">Search Curriculum</text></g><g><path fill="none" stroke="black" paint-order="fill stroke markers" d=" M 89.84361815 320.823392812 L 372.5317014201745 320.823392812" stroke-miterlimit="10" stroke-width="1.3612669416666667" stroke-dasharray=""/><g transform="translate(385.98101880384115,320.823392812) translate(-385.98101880384115,-320.823392812)"><path fill="black" stroke="none" paint-order="stroke fill markers" d=" M 372.3683493871745 314.01705810366667 L 385.98101880384115 320.823392812 L 372.3683493871745 327.62972752033335 Z"/></g></g><g><g><rect fill="white" stroke="none" x="421.64621267550774" y="345.326197762" width="35.03657783570313" height="21.23576429"/></g><g><rect fill="white" stroke="none" x="421.64621267550774" y="361.661401062" width="195.97418464722656" height="21.23576429"/></g><g><rect fill="white" stroke="none" x="421.64621267550774" y="377.99660436199997" width="127.9570795446875" height="21.23576429"/></g><text fill="black" stroke="none" font-family="sans-serif" font-size="11pt" font-style="normal" font-weight="normal" text-decoration="normal" x="424.09649317050776" y="360.02788073199997" text-anchor="start" dominant-baseline="alphabetic" xml:space="preserve">GET</text><text fill="black" stroke="none" font-family="sans-serif" font-size="11pt" font-style="normal" font-weight="normal" text-decoration="normal" x="424.09649317050776" y="376.36308403199996" text-anchor="start" dominant-baseline="alphabetic" xml:space="preserve">/api/search?entity=curriculum</text><text fill="black" stroke="none" font-family="sans-serif" font-size="11pt" font-style="normal" font-weight="normal" text-decoration="normal" x="424.09649317050776" y="392.69828733199995" text-anchor="start" dominant-baseline="alphabetic" xml:space="preserve">&amp;{paramToSearch}</text></g><g><path fill="none" stroke="black" paint-order="fill stroke markers" d=" M 402.31622210384114 399.232368652 L 623.5010705107343 399.232368652" stroke-miterlimit="10" stroke-width="1.3612669416666667" stroke-dasharray=""/><g transform="translate(636.9503878944009,399.232368652) translate(-636.9503878944009,-399.232368652)"><path fill="black" stroke="none" paint-order="stroke fill markers" d=" M 623.3377184777343 392.42603394366665 L 636.9503878944009 399.232368652 L 623.3377184777343 406.03870336033333 Z"/></g></g><g><g><rect fill="white" stroke="none" x="470.7549925827343" y="423.735173602" width="97.75662483277344" height="21.23576429"/></g><text fill="black" stroke="none" font-family="sans-serif" font-size="11pt" font-style="normal" font-weight="normal" text-decoration="normal" x="473.2052730777343" y="438.43685657199995" text-anchor="start" dominant-baseline="alphabetic" xml:space="preserve">Curriculum list</text></g><g><path fill="none" stroke="black" paint-order="fill stroke markers" d=" M 636.9503878944009 444.970937892 L 415.7655394875078 444.970937892" stroke-miterlimit="10" stroke-width="1.3612669416666667" stroke-dasharray="6.53408132"/><g transform="translate(402.31622210384114,444.970937892) translate(-402.31622210384114,-444.970937892)"><path fill="black" stroke="none" paint-order="stroke fill markers" d=" M 415.9288915205078 438.16460318366666 L 402.31622210384114 444.970937892 L 415.9288915205078 451.77727260033333 Z"/></g></g><g><g><rect fill="white" stroke="none" x="198.79418367283856" y="513.5787917519999" width="78.23626960816406" height="21.23576429"/></g><text fill="black" stroke="none" font-family="sans-serif" font-size="11pt" font-style="normal" font-weight="normal" text-decoration="normal" x="201.24446416783854" y="528.2804747219999" text-anchor="start" dominant-baseline="alphabetic" xml:space="preserve">No Options</text></g><g><path fill="none" stroke="black" paint-order="fill stroke markers" d=" M 385.98101880384115 534.8145560419999 L 103.29293553366666 534.8145560419999" stroke-miterlimit="10" stroke-width="1.3612669416666667" stroke-dasharray="6.53408132"/><g transform="translate(89.84361815,534.8145560419999) translate(-89.84361815,-534.8145560419999)"><path fill="black" stroke="none" paint-order="stroke fill markers" d=" M 103.45628756666666 528.0082213336666 L 89.84361815 534.8145560419999 L 103.45628756666666 541.6208907503333 Z"/></g></g><g><g><rect fill="white" stroke="none" x="163.36114686863934" y="603.4224099019998" width="149.1023432165625" height="21.23576429"/></g><text fill="black" stroke="none" font-family="sans-serif" font-size="11pt" font-style="normal" font-weight="normal" text-decoration="normal" x="165.81142736363932" y="618.1240928719998" text-anchor="start" dominant-baseline="alphabetic" xml:space="preserve">Curriculum options list</text></g><g><path fill="none" stroke="black" paint-order="fill stroke markers" d=" M 385.98101880384115 624.6581741919998 L 103.29293553366666 624.6581741919998" stroke-miterlimit="10" stroke-width="1.3612669416666667" stroke-dasharray="6.53408132"/><g transform="translate(89.84361815,624.6581741919998) translate(-89.84361815,-624.6581741919998)"><path fill="black" stroke="none" paint-order="stroke fill markers" d=" M 103.45628756666666 617.8518394836665 L 89.84361815 624.6581741919998 L 103.45628756666666 631.4645089003332 Z"/></g></g><g><g><rect fill="white" stroke="none" x="128.32179445164715" y="649.1609791419997" width="219.18104805054688" height="21.23576429"/></g><text fill="black" stroke="none" font-family="sans-serif" font-size="11pt" font-style="normal" font-weight="normal" text-decoration="normal" x="130.77207494664714" y="663.8626621119997" text-anchor="start" dominant-baseline="alphabetic" xml:space="preserve">Select Curriculum and click Save</text></g><g><path fill="none" stroke="black" paint-order="fill stroke markers" d=" M 89.84361815 670.3967434319998 L 372.5317014201745 670.3967434319998" stroke-miterlimit="10" stroke-width="1.3612669416666667" stroke-dasharray=""/><g transform="translate(385.98101880384115,670.3967434319998) translate(-385.98101880384115,-670.3967434319998)"><path fill="black" stroke="none" paint-order="stroke fill markers" d=" M 372.3683493871745 663.5904087236664 L 385.98101880384115 670.3967434319998 L 372.3683493871745 677.2030781403331 Z"/></g></g><g><g><rect fill="white" stroke="none" x="530.336295202916" y="694.8995483819997" width="116.53976692261719" height="21.23576429"/></g><text fill="black" stroke="none" font-family="sans-serif" font-size="11pt" font-style="normal" font-weight="normal" text-decoration="normal" x="532.786575697916" y="709.6012313519997" text-anchor="start" dominant-baseline="alphabetic" xml:space="preserve">POST: /api/group</text></g><g><path fill="none" stroke="black" paint-order="fill stroke markers" d=" M 402.31622210384114 716.1353126719997 L 761.4468178409413 716.1353126719997" stroke-miterlimit="10" stroke-width="1.3612669416666667" stroke-dasharray=""/><g transform="translate(774.896135224608,716.1353126719997) translate(-774.896135224608,-716.1353126719997)"><path fill="black" stroke="none" paint-order="stroke fill markers" d=" M 761.2834658079413 709.3289779636664 L 774.896135224608 716.1353126719997 L 761.2834658079413 722.941647380333 Z"/></g></g><g><g><rect fill="white" stroke="none" x="503.45372684354095" y="784.7431665319997" width="149.11673225464844" height="21.23576429"/></g><g><rect fill="white" stroke="none" x="503.45372684354095" y="801.0783698319997" width="170.3049036413672" height="21.23576429"/></g><text fill="red" stroke="none" font-family="sans-serif" font-size="11pt" font-style="normal" font-weight="normal" text-decoration="normal" x="505.90400733854096" y="799.4448495019997" text-anchor="start" dominant-baseline="alphabetic" xml:space="preserve">400 BAD_REQUEST: </text><text fill="red" stroke="none" font-family="sans-serif" font-size="11pt" font-style="normal" font-weight="normal" text-decoration="normal" x="505.90400733854096" y="815.7800528019997" text-anchor="start" dominant-baseline="alphabetic" xml:space="preserve">Missing required property</text></g><g><path fill="none" stroke="black" paint-order="fill stroke markers" d=" M 774.896135224608 822.3141341219997 L 415.7655394875078 822.3141341219997" stroke-miterlimit="10" stroke-width="1.3612669416666667" stroke-dasharray="6.53408132"/><g transform="translate(402.31622210384114,822.3141341219997) translate(-402.31622210384114,-822.3141341219997)"><path fill="black" stroke="none" paint-order="stroke fill markers" d=" M 415.9288915205078 815.5077994136664 L 402.31622210384114 822.3141341219997 L 415.9288915205078 829.120468830333 Z"/></g></g><g><g><rect fill="white" stroke="none" x="163.7691668881706" y="846.8169390719996" width="148.2863031775" height="21.23576429"/></g><text fill="black" stroke="none" font-family="sans-serif" font-size="11pt" font-style="normal" font-weight="normal" text-decoration="normal" x="166.21944738317057" y="861.5186220419996" text-anchor="start" dominant-baseline="alphabetic" xml:space="preserve">Curriculum is required</text></g><g><path fill="none" stroke="black" paint-order="fill stroke markers" d=" M 385.98101880384115 868.0527033619996 L 103.29293553366666 868.0527033619996" stroke-miterlimit="10" stroke-width="1.3612669416666667" stroke-dasharray="6.53408132"/><g transform="translate(89.84361815,868.0527033619996) translate(-89.84361815,-868.0527033619996)"><path fill="black" stroke="none" paint-order="stroke fill markers" d=" M 103.45628756666666 861.2463686536663 L 89.84361815 868.0527033619996 L 103.45628756666666 874.859038070333 Z"/></g></g><g><g><rect fill="white" stroke="none" x="810.5613290962747" y="936.6605572219996" width="170.2906214148047" height="21.23576429"/></g><text fill="black" stroke="none" font-family="sans-serif" font-size="11pt" font-style="normal" font-weight="normal" text-decoration="normal" x="813.0116095912747" y="951.3622401919996" text-anchor="start" dominant-baseline="alphabetic" xml:space="preserve">generateNameForClass()</text></g><g><path fill="none" stroke="black" paint-order="fill stroke markers" d=" M 791.2313385246081 957.8963215119996 L 986.7326236990793 957.8963215119996" stroke-miterlimit="10" stroke-width="1.3612669416666667" stroke-dasharray=""/><g transform="translate(1000.181941082746,957.8963215119996) translate(-1000.181941082746,-957.8963215119996)"><path fill="black" stroke="none" paint-order="stroke fill markers" d=" M 986.5692716660793 951.0899868036663 L 1000.181941082746 957.8963215119996 L 986.5692716660793 964.702656220333 Z"/></g></g><path fill="white" stroke="black" paint-order="fill stroke markers" d=" M 1016.5171443827461 1017.5198135569997 L 1024.684746032746 1017.5198135569997 M 1024.684746032746 982.3991264619997 L 1265.9935439238398 982.3991264619997 L 1280.6952268938398 997.1008094319997 L 1280.6952268938398 1052.6405006519997 L 1024.684746032746 1052.6405006519997 L 1024.684746032746 982.3991264619997 M 1265.9935439238398 982.3991264619997 L 1265.9935439238398 997.1008094319997 L 1280.6952268938398 997.1008094319997" stroke-miterlimit="10" stroke-width="1.3612669416666667" stroke-dasharray=""/><g><text fill="black" stroke="none" font-family="sans-serif" font-size="11pt" font-style="normal" font-weight="normal" text-decoration="normal" x="1047.554030652746" y="1005.2684110819997" text-anchor="start" dominant-baseline="alphabetic" xml:space="preserve">Name of Class will be depend</text><text fill="black" stroke="none" font-family="sans-serif" font-size="11pt" font-style="normal" font-weight="normal" text-decoration="normal" x="1047.554030652746" y="1021.6036143819997" text-anchor="start" dominant-baseline="alphabetic" xml:space="preserve">on the Specialization and school</text><text fill="black" stroke="none" font-family="sans-serif" font-size="11pt" font-style="normal" font-weight="normal" text-decoration="normal" x="1047.554030652746" y="1037.9388176819998" text-anchor="start" dominant-baseline="alphabetic" xml:space="preserve">year of Curriculum</text></g><g><g><rect fill="white" stroke="none" x="849.4911691841653" y="1077.1433056019998" width="92.43094123902344" height="21.23576429"/></g><text fill="black" stroke="none" font-family="sans-serif" font-size="11pt" font-style="normal" font-weight="normal" text-decoration="normal" x="851.9414496791653" y="1091.844988572" text-anchor="start" dominant-baseline="alphabetic" xml:space="preserve">Class's name</text></g><g><path fill="none" stroke="black" paint-order="fill stroke markers" d=" M 1000.181941082746 1098.3790698919997 L 804.6806559082747 1098.3790698919997" stroke-miterlimit="10" stroke-width="1.3612669416666667" stroke-dasharray="6.53408132"/><g transform="translate(791.2313385246081,1098.3790698919997) translate(-791.2313385246081,-1098.3790698919997)"><path fill="black" stroke="none" paint-order="stroke fill markers" d=" M 804.8440079412748 1091.5727351836665 L 791.2313385246081 1098.3790698919997 L 804.8440079412748 1105.185404600333 Z"/></g></g><g><g><rect fill="white" stroke="none" x="872.8913080391458" y="1122.881874842" width="45.6306635290625" height="21.23576429"/></g><text fill="black" stroke="none" font-family="sans-serif" font-size="11pt" font-style="normal" font-weight="normal" text-decoration="normal" x="875.3415885341458" y="1137.583557812" text-anchor="start" dominant-baseline="alphabetic" xml:space="preserve">save()</text></g><g><path fill="none" stroke="black" paint-order="fill stroke markers" d=" M 791.2313385246081 1144.1176391319998 L 986.7326236990793 1144.1176391319998" stroke-miterlimit="10" stroke-width="1.3612669416666667" stroke-dasharray=""/><g transform="translate(1000.181941082746,1144.1176391319998) translate(-1000.181941082746,-1144.1176391319998)"><path fill="black" stroke="none" paint-order="stroke fill markers" d=" M 986.5692716660793 1137.3113044236666 L 1000.181941082746 1144.1176391319998 L 986.5692716660793 1150.923973840333 Z"/></g></g><g><g><rect fill="white" stroke="none" x="1129.8746546987616" y="1168.620444082" width="45.6306635290625" height="21.23576429"/></g><text fill="black" stroke="none" font-family="sans-serif" font-size="11pt" font-style="normal" font-weight="normal" text-decoration="normal" x="1132.3249351937616" y="1183.322127052" text-anchor="start" dominant-baseline="alphabetic" xml:space="preserve">save()</text></g><g><path fill="none" stroke="black" paint-order="fill stroke markers" d=" M 1016.5171443827461 1189.8562083719999 L 1275.413511160173 1189.8562083719999" stroke-miterlimit="10" stroke-width="1.3612669416666667" stroke-dasharray=""/><g transform="translate(1288.8628285438397,1189.8562083719999) translate(-1288.8628285438397,-1189.8562083719999)"><path fill="black" stroke="none" paint-order="stroke fill markers" d=" M 1275.250159127173 1183.0498736636666 L 1288.8628285438397 1189.8562083719999 L 1275.250159127173 1196.662543080333 Z"/></g></g><g><g><rect fill="white" stroke="none" x="1098.9082926992498" y="1214.359013322" width="107.56338752808594" height="21.23576429"/></g><text fill="black" stroke="none" font-family="sans-serif" font-size="11pt" font-style="normal" font-weight="normal" text-decoration="normal" x="1101.3585731942499" y="1229.060696292" text-anchor="start" dominant-baseline="alphabetic" xml:space="preserve">New Class data</text></g><g><path fill="none" stroke="black" paint-order="fill stroke markers" d=" M 1288.8628285438397 1235.594777612 L 1029.9664617664127 1235.594777612" stroke-miterlimit="10" stroke-width="1.3612669416666667" stroke-dasharray="6.53408132"/><g transform="translate(1016.5171443827461,1235.594777612) translate(-1016.5171443827461,-1235.594777612)"><path fill="black" stroke="none" paint-order="stroke fill markers" d=" M 1030.1298137994127 1228.7884429036667 L 1016.5171443827461 1235.594777612 L 1030.1298137994127 1242.4011123203331 Z"/></g></g><g><g><rect fill="white" stroke="none" x="841.924946039634" y="1260.097582562" width="107.56338752808594" height="21.23576429"/></g><text fill="black" stroke="none" font-family="sans-serif" font-size="11pt" font-style="normal" font-weight="normal" text-decoration="normal" x="844.3752265346341" y="1274.7992655320002" text-anchor="start" dominant-baseline="alphabetic" xml:space="preserve">New Class data</text></g><g><path fill="none" stroke="black" paint-order="fill stroke markers" d=" M 1000.181941082746 1281.333346852 L 804.6806559082747 1281.333346852" stroke-miterlimit="10" stroke-width="1.3612669416666667" stroke-dasharray="6.53408132"/><g transform="translate(791.2313385246081,1281.333346852) translate(-791.2313385246081,-1281.333346852)"><path fill="black" stroke="none" paint-order="stroke fill markers" d=" M 804.8440079412748 1274.5270121436668 L 791.2313385246081 1281.333346852 L 804.8440079412748 1288.1396815603332 Z"/></g></g><g><g><rect fill="white" stroke="none" x="537.4085837160995" y="1305.8361518020001" width="102.39518989625" height="21.23576429"/></g><text fill="green" stroke="none" font-family="sans-serif" font-size="11pt" font-style="normal" font-weight="normal" text-decoration="normal" x="539.8588642110996" y="1320.5378347720002" text-anchor="start" dominant-baseline="alphabetic" xml:space="preserve">201 CREATED</text></g><g><path fill="none" stroke="black" paint-order="fill stroke markers" d=" M 774.896135224608 1327.071916092 L 415.7655394875078 1327.071916092" stroke-miterlimit="10" stroke-width="1.3612669416666667" stroke-dasharray="6.53408132"/><g transform="translate(402.31622210384114,1327.071916092) translate(-402.31622210384114,-1327.071916092)"><path fill="black" stroke="none" paint-order="stroke fill markers" d=" M 415.9288915205078 1320.2655813836668 L 402.31622210384114 1327.071916092 L 415.9288915205078 1333.8782508003333 Z"/></g></g><g><g><rect fill="white" stroke="none" x="109.17360872166667" y="1351.5747210420002" width="257.4774195105078" height="21.23576429"/></g><text fill="black" stroke="none" font-family="sans-serif" font-size="11pt" font-style="normal" font-weight="normal" text-decoration="normal" x="111.62388921666667" y="1366.2764040120003" text-anchor="start" dominant-baseline="alphabetic" xml:space="preserve">Display Group list table with new Class</text></g><g><path fill="none" stroke="black" paint-order="fill stroke markers" d=" M 385.98101880384115 1372.810485332 L 103.29293553366666 1372.810485332" stroke-miterlimit="10" stroke-width="1.3612669416666667" stroke-dasharray="6.53408132"/><g transform="translate(89.84361815,1372.810485332) translate(-89.84361815,-1372.810485332)"><path fill="black" stroke="none" paint-order="stroke fill markers" d=" M 103.45628756666666 1366.0041506236669 L 89.84361815 1372.810485332 L 103.45628756666666 1379.6168200403333 Z"/></g></g><g><g/><path fill="none" stroke="black" paint-order="fill stroke markers" d=" M 16.335203300000003 469.473742842 L 1370.5388450438397 469.473742842 L 1370.5388450438397 1421.816095232 L 16.335203300000003 1421.816095232 L 16.335203300000003 469.473742842 Z" stroke-miterlimit="10" stroke-width="2.3336004714285714" stroke-dasharray=""/><path fill="white" stroke="black" paint-order="fill stroke markers" d=" M 16.335203300000003 469.473742842 L 16.335203300000003 489.075986802 L 62.694406897070316 489.075986802 L 72.49552887707031 479.274864822 L 72.49552887707031 469.473742842 L 16.335203300000003 469.473742842" stroke-miterlimit="10" stroke-width="2.3336004714285714" stroke-dasharray=""/><text fill="black" stroke="none" font-family="sans-serif" font-size="8.8pt" font-style="normal" font-weight="bold" text-decoration="normal" x="32.67040660000001" y="482.541905482" text-anchor="start" dominant-baseline="alphabetic" xml:space="preserve">alt</text><g><rect fill="white" stroke="none" x="86.38045168207032" y="470.780559106" width="240.17035163941406" height="16.988611432000003"/></g><text fill="black" stroke="none" font-family="sans-serif" font-size="8.8pt" font-style="normal" font-weight="bold" text-decoration="normal" x="88.83073217707032" y="482.541905482" text-anchor="start" dominant-baseline="alphabetic" xml:space="preserve">[if there is no curriculum match condition]</text><g><path fill="none" stroke="black" paint-order="fill stroke markers" d=" M 16.335203300000003 559.3173609919999 L 1370.5388450438397 559.3173609919999" stroke-miterlimit="10" stroke-width="2.3336004714285714" stroke-dasharray="4.083800825"/></g><g/><g><rect fill="white" stroke="none" x="86.38045168207032" y="560.6241772559998" width="36.84300483765625" height="16.988611432000003"/></g><text fill="black" stroke="none" font-family="sans-serif" font-size="8.8pt" font-style="normal" font-weight="bold" text-decoration="normal" x="88.83073217707032" y="572.3855236319998" text-anchor="start" dominant-baseline="alphabetic" xml:space="preserve">[Else]</text></g><g/><g><g/><path fill="none" stroke="black" paint-order="fill stroke markers" d=" M 32.6704066 740.6381176219996 L 1354.2036417438396 740.6381176219996 L 1354.2036417438396 1397.313290282 L 32.6704066 1397.313290282 L 32.6704066 740.6381176219996 Z" stroke-miterlimit="10" stroke-width="2.3336004714285714" stroke-dasharray=""/><path fill="white" stroke="black" paint-order="fill stroke markers" d=" M 32.6704066 740.6381176219996 L 32.6704066 760.2403615819997 L 79.02961019707031 760.2403615819997 L 88.83073217707032 750.4392396019996 L 88.83073217707032 740.6381176219996 L 32.6704066 740.6381176219996" stroke-miterlimit="10" stroke-width="2.3336004714285714" stroke-dasharray=""/><text fill="black" stroke="none" font-family="sans-serif" font-size="8.8pt" font-style="normal" font-weight="bold" text-decoration="normal" x="49.005609899999996" y="753.7062802619996" text-anchor="start" dominant-baseline="alphabetic" xml:space="preserve">alt</text><g><rect fill="white" stroke="none" x="102.71565498207032" y="741.9449338859996" width="188.0383783728125" height="16.988611432000003"/></g><text fill="black" stroke="none" font-family="sans-serif" font-size="8.8pt" font-style="normal" font-weight="bold" text-decoration="normal" x="105.16593547707032" y="753.7062802619996" text-anchor="start" dominant-baseline="alphabetic" xml:space="preserve">[if Curriculum do not have value]</text><g><path fill="none" stroke="black" paint-order="fill stroke markers" d=" M 32.6704066 892.5555083119997 L 1354.2036417438396 892.5555083119997" stroke-miterlimit="10" stroke-width="2.3336004714285714" stroke-dasharray="4.083800825"/></g><g/><g><rect fill="white" stroke="none" x="102.71565498207032" y="893.8623245759997" width="36.84300483765625" height="16.988611432000003"/></g><text fill="black" stroke="none" font-family="sans-serif" font-size="8.8pt" font-style="normal" font-weight="bold" text-decoration="normal" x="105.16593547707032" y="905.6236709519997" text-anchor="start" dominant-baseline="alphabetic" xml:space="preserve">[Else]</text></g><g/></g></g></svg>