<svg version="1.1" xmlns="http://www.w3.org/2000/svg" xmlns:xlink="http://www.w3.org/1999/xlink" width="1424" height="1724"><desc>title%20Create%20Group%20with%20type%20Course%0A%0Aactor%20%23green%3A0.5%20%22Workspace%20Admin%22%20as%20w%0Aboundary%20%22Create%20Popup%20page%22%20as%20f%0Aparticipant%20%22Search%20Service%22%20as%20ss%0Acontrol%20%22Group%20Controller%22%20as%20gc%0Aparticipant%20%22Group%20Service%22%20as%20gs%0Adatabase%20%23blue%3A1%20%22Database%22%20as%20db%0A%0Aw-%3Ef%3AGo%20to%20Create%20Group%20popup%0Aactivate%20f%0Aw%3C--f%3ADisplay%20Create%20Group%20popup%0Aw-%3Ef%3ASelect%20Group%20type%20Course%0A%0Aw-%3Ef%3ASearch%20Syllabus%5CnSearch%20Class%5CnSearch%20Teacher%0Af-%3Ess%3AGET%5Cn%2Fapi%2Fsearch%3Fentity%3D%7Bentity%7D%5Cn%26%7BparamToSearch%7D%0Aactivate%20ss%0Af%3C--ss%3AResult%20list%0Adeactivate%20ss%0Aalt%20if%20there%20are%20not%20data%20match%20condition%0Aw%3C--f%3ANo%20Options%0Aelse%20Else%0A%0Aw%3C--f%3A%20Syllabus%20options%20list%0Aw-%3Ef%3ASelect%20Syllabus%0A%0Aw%3C--f%3A%20Class%20options%20list%0Aw-%3Ef%3ASelect%20Class%0A%0Aw%3C--f%3A%20Teacher%20options%20list%0Aw-%3Ef%3ASelect%20Teacher%20and%20click%20Save%0Af-%3Egc%3APOST%3A%20%2Fapi%2Fgroup%0Aactivate%20gc%0Aalt%20if%20there%20is%20field%20do%20not%20have%20value%0Af%3C--gc%3A%3Ccolor%3A%23red%3E400%20BAD_REQUEST%3A%20Missing%20required%20property%3C%2Fcolor%3E%0Aw%3C--f%3ASyllabus%20or%20Class%20or%20Teacher%20is%20required%0Aelse%20Else%0Agc-%3Egs%3AgenerateName(Course)%0Aactivate%20gs%0Anote%20right%20of%20gs%3A%20Name%20of%20Course%20will%20be%20depend%5Cnon%20the%20Class%20and%20Syllabus%0Agc%3C--gs%3ACourse's%20name%0Agc-%3Egs%3ASet%20teacher%20is%20an%20admin%20%5Cnof%20group%20by%20setAdmin()%0Agc-%3Egs%3Asave()%0Ags-%3Edb%3Asave()%0Aactivate%20db%0Ags%3C--db%3ANew%20Course%20data%0Adeactivate%20db%0Agc%3C--gs%3ANew%20Course%20data%0Adeactivate%20gs%0Af%3C--gc%3A%3Ccolor%3A%23green%3E201%20CREATED%3C%2Fcolor%3E%0Adeactivate%20gc%0Aw%3C--f%3A%20Display%20Group%20list%20table%20with%20new%20Course%0Adeactivate%20f%0Aend%0Aend%20f%0A%0A%0A</desc><defs/><g><g/><g/><g/><g/><g/><g/><g/><g/><g/><g/><g/><g/><g/><g/><g/><g/><g/><g/><g/><g/><g/><g/><g/><g/><g/><g/><g/><g/><g/><g/><g/><g/><g/><g/><g/><g/><g/><g/><g><rect fill="white" stroke="none" x="0" y="0" width="1424" height="1724"/></g><g><text fill="black" stroke="none" font-family="sans-serif" font-size="16.5pt" font-style="normal" font-weight="normal" text-decoration="normal" x="560.7793030171028" y="24.50280495" text-anchor="start" dominant-baseline="alphabetic" xml:space="preserve">Create Group with type Course</text></g><g/><g><path fill="none" stroke="black" paint-order="fill stroke markers" d=" M 89.84361815 129.701514202 L 89.84361815 1724.0173562819996" stroke-miterlimit="10" stroke-width="1.3612669416666667" stroke-dasharray="12.565541,5.445067766666667"/><path fill="none" stroke="black" paint-order="fill stroke markers" d=" M 404.7499235544271 129.701514202 L 404.7499235544271 1724.0173562819996" stroke-miterlimit="10" stroke-width="1.3612669416666667" stroke-dasharray="12.565541,5.445067766666667"/><path fill="none" stroke="black" paint-order="fill stroke markers" d=" M 632.9419488949869 129.701514202 L 632.9419488949869 1724.0173562819996" stroke-miterlimit="10" stroke-width="1.3612669416666667" stroke-dasharray="12.565541,5.445067766666667"/><path fill="none" stroke="black" paint-order="fill stroke markers" d=" M 825.8676802196615 129.701514202 L 825.8676802196615 1724.0173562819996" stroke-miterlimit="10" stroke-width="1.3612669416666667" stroke-dasharray="12.565541,5.445067766666667"/><path fill="none" stroke="black" paint-order="fill stroke markers" d=" M 1043.852124993815 129.701514202 L 1043.852124993815 1724.0173562819996" stroke-miterlimit="10" stroke-width="1.3612669416666667" stroke-dasharray="12.565541,5.445067766666667"/><path fill="none" stroke="black" paint-order="fill stroke markers" d=" M 1326.7993393592058 129.701514202 L 1326.7993393592058 1724.0173562819996" stroke-miterlimit="10" stroke-width="1.3612669416666667" stroke-dasharray="12.565541,5.445067766666667"/></g><g><g><path fill="white" stroke="green" paint-order="fill stroke markers" d=" M 99.154684031 60.60360424300001 A 9.311065881 9.311065881 0 1 1 99.15467937546744 60.594293178670846 M 89.84361815 69.91467012400001 L 89.84361815 89.84361815000001 M 78.08227177399999 77.102159576 L 101.604964526 77.102159576 M 89.84361815 89.84361815000001 L 78.08227177399999 108.465749912 M 89.84361815 89.84361815000001 L 101.604964526 108.465749912" stroke-miterlimit="10" stroke-width="1.3884922805000002" stroke-dasharray=""/></g><g><text fill="black" stroke="none" font-family="sans-serif" font-size="11pt" font-style="normal" font-weight="normal" text-decoration="normal" x="30.50219511533203" y="124.80095321200001" text-anchor="start" dominant-baseline="alphabetic" xml:space="preserve">Workspace Admin</text></g><g><path fill="white" stroke="black" paint-order="fill stroke markers" d=" M 437.1753021049271 82.819480731 A 24.2577769005 24.2577769005 0 1 1 437.17528997603966 82.79522295814245 M 373.71303728442706 57.17321154999999 L 373.71303728442706 108.465749912 M 372.3245450039271 82.819480731 L 388.6597483039271 82.819480731" stroke-miterlimit="10" stroke-width="2.7769845610000004" stroke-dasharray=""/></g><g><text fill="black" stroke="none" font-family="sans-serif" font-size="11pt" font-style="normal" font-weight="normal" text-decoration="normal" x="341.17442306614583" y="124.80095321200001" text-anchor="start" dominant-baseline="alphabetic" xml:space="preserve">Create Popup page</text></g><path fill="none" stroke="none"/><g><path fill="white" stroke="black" paint-order="fill stroke markers" d=" M 565.5153495669283 85.75981732500001 L 700.3685482230455 85.75981732500001 L 700.3685482230455 129.701514202 L 565.5153495669283 129.701514202 L 565.5153495669283 85.75981732500001 Z" stroke-miterlimit="10" stroke-width="2.613632528" stroke-dasharray=""/></g><g><text fill="black" stroke="none" font-family="sans-serif" font-size="11pt" font-style="normal" font-weight="normal" text-decoration="normal" x="583.2390451474283" y="113.36631090200002" text-anchor="start" dominant-baseline="alphabetic" xml:space="preserve">Search Service</text></g><g><path fill="white" stroke="black" paint-order="fill stroke markers" d=" M 850.1254571201614 82.819480731 A 24.2577769005 24.2577769005 0 1 1 850.125444991274 82.79522295814245 M 822.6006395596614 58.561703830499994 L 832.4017615396614 50.39410218049999 M 822.6006395596614 58.561703830499994 L 832.4017615396614 66.72930548049999" stroke-miterlimit="10" stroke-width="2.7769845610000004" stroke-dasharray=""/></g><g><text fill="black" stroke="none" font-family="sans-serif" font-size="11pt" font-style="normal" font-weight="normal" text-decoration="normal" x="771.683735517513" y="124.80095321200001" text-anchor="start" dominant-baseline="alphabetic" xml:space="preserve">Group Controller</text></g><path fill="none" stroke="none"/><g><path fill="white" stroke="black" paint-order="fill stroke markers" d=" M 979.278057098862 85.75981732500001 L 1108.4261928887681 85.75981732500001 L 1108.4261928887681 129.701514202 L 979.278057098862 129.701514202 L 979.278057098862 85.75981732500001 Z" stroke-miterlimit="10" stroke-width="2.613632528" stroke-dasharray=""/></g><g><text fill="black" stroke="none" font-family="sans-serif" font-size="11pt" font-style="normal" font-weight="normal" text-decoration="normal" x="997.001752679362" y="113.36631090200002" text-anchor="start" dominant-baseline="alphabetic" xml:space="preserve">Group Service</text></g><g><path fill="white" stroke="blue" paint-order="fill stroke markers" d=" M 1302.9499425412057 97.684515734 L 1302.9499425412057 63.380588804000006 L 1350.6487361772058 63.380588804000006 L 1350.6487361772058 97.684515734" stroke-miterlimit="10" stroke-width="2.7769845610000004" stroke-dasharray=""/><path fill="white" stroke="blue" paint-order="fill stroke markers" d=" M 1350.6487361772058 62.1881189631 L 1350.6475437173021 62.29592950801663 L 1350.643966456836 62.403729271968594 L 1350.6380047535306 62.51150747506936 L 1350.6296592035515 62.619253339588404 L 1350.6189306414462 62.72695609102909 L 1350.6058201400624 62.834604959206004 L 1350.590329010439 62.94218917932205 L 1350.5724588016765 63.04969799304486 L 1350.5522113007805 63.15712064958265 L 1350.5295885324842 63.2644464067593 L 1350.5045927590459 63.371664532088516 L 1350.477226480022 63.47876430384712 L 1350.4474924320173 63.58573501214718 L 1350.4153935884121 63.692565960007016 L 1350.380933159064 63.79924646442086 L 1350.3441145899872 63.90576585742718 L 1350.304941563008 64.01211348717543 L 1350.2634179953961 64.11827871899126 L 1350.2195480394741 64.22425093643996 L 1350.1733360822009 64.3300195423881 L 1350.1247867447335 64.43557396006322 L 1350.0739048819655 64.54090363411153 L 1350.0206955820404 64.64599803165338 L 1349.9651641658443 64.75084664333659 L 1349.9073161864724 64.85543898438739 L 1349.847157428674 64.95976459565881 L 1349.7846939082754 65.06381304467668 L 1349.7199318715764 65.16757392668278 L 1349.6528777947262 65.27103686567541 L 1349.5835383830772 65.37419151544687 L 1349.5119205705128 65.47702756061814 L 1349.438031518754 65.5795347176704 L 1349.3618786166448 65.68170273597339 L 1349.2834694794121 65.7835213988104 L 1349.2028119479041 65.88498052439998 L 1349.1199140878066 65.98606996691414 L 1349.0347841888367 66.08677961749288 L 1348.9474307639134 66.18709940525505 L 1348.8578625483062 66.28701929830548 L 1348.766088498762 66.38652930473813 L 1348.6721177926097 66.48561947363528 L 1348.5759598268412 66.58427989606261 L 1348.477624217173 66.6825007060601 L 1348.3771207970842 66.7802720816286 L 1348.274459616833 66.87758424571203 L 1348.1696509424519 66.97442746717506 L 1348.062705254721 67.07079206177627 L 1347.9536332481202 67.1666683931365 L 1347.8424458297588 67.2620468737025 L 1347.7291541182863 67.35691796570569 L 1347.6137694427794 67.45127218211596 L 1347.4963033416093 67.54510008759026 L 1347.3767675612885 67.63839229941624 L 1347.2551740552951 67.73113948845047 L 1347.1315349828787 67.82333238005134 L 1347.0058627078433 67.9149617550065 L 1346.8781697973118 68.00601845045483 L 1346.748469020469 68.09649336080267 L 1346.616773347284 68.18637743863435 L 1346.4830959472147 68.27566169561702 L 1346.3474501878898 68.36433720339936 L 1346.209849633772 68.45239509450451 L 1346.070308044802 68.53982656321674 L 1345.9288393750228 68.62662286646201 L 1345.785457771183 68.71277532468237 L 1345.6401775713236 68.79827532270376 L 1345.493013303344 68.88311431059763 L 1345.3439796835478 68.9672838045359 L 1345.193091615173 69.0507753876393 L 1345.0403641869007 69.13358071081912 L 1344.8858126713462 69.21569149361203 L 1344.7294525235327 69.29709952500816 L 1344.5712993793445 69.37779666427225 L 1344.4113690539643 69.45777484175761 L 1344.249677540291 69.53702605971311 L 1344.0862410073416 69.61554239308303 L 1343.9210757986332 69.69331599029945 L 1343.754198430549 69.77033907406746 L 1343.5856255906865 69.84660394214286 L 1343.4153741361893 69.92210296810242 L 1343.2434610920611 69.99682860210643 L 1343.0699036494632 70.07077337165379 L 1342.8947191639948 70.14392988232913 L 1342.7179251539587 70.21629081854239 L 1342.5395392986086 70.28784894426022 L 1342.3595794363814 70.35859710372968 L 1342.1780635631133 70.42852822219379 L 1341.9950098302404 70.49763530659898 L 1341.8104365429833 70.5659114462944 L 1341.6243621585172 70.63334981372294 L 1341.4368052841253 70.69994366510412 L 1341.2477846753386 70.76568634110825 L 1341.0573192340607 70.83057126752253 L 1340.865428006677 70.89459195590838 L 1340.67213018215 70.95774200425032 L 1340.4774450901016 71.02001509759614 L 1340.2813921988784 71.08140500868842 L 1340.0839911136063 71.14190559858717 L 1339.8852615742292 71.20151081728383 L 1339.6852234535354 71.26021470430622 L 1339.4838967551705 71.31801138931453 L 1339.2813016116363 71.37489509268845 L 1339.0774582822787 71.43086012610503 L 1338.8723871512602 71.48590089310757 L 1338.6661087255236 71.54001188966522 L 1338.4586436327393 71.59318770472345 L 1338.2500126192435 71.64542302074504 L 1338.040236547964 71.69671261424193 L 1337.829336396333 71.7470513562975 L 1337.61733325419 71.79643421307951 L 1337.4042483216724 71.84485624634341 L 1337.190102907096 71.89231261392625 L 1336.9749184248237 71.93879857023082 L 1336.7587163931246 71.9843094667002 L 1336.5415184320213 72.02884075228269 L 1336.3233462611292 72.07238797388683 L 1336.1042216974838 72.11494677682676 L 1335.8841666533585 72.15651290525764 L 1335.6632031340744 72.19708220260128 L 1335.4413532357994 72.23665061196175 L 1335.2186391433384 72.27521417653107 L 1334.995083127915 72.31276903998494 L 1334.7707075449443 72.3493114468683 L 1334.545534831798 72.38483774297092 L 1334.3195875055596 72.41934437569277 L 1334.0928881607736 72.45282789439938 L 1333.865459467185 72.48528495076673 L 1333.6373241674744 72.51671229911628 L 1333.408505074981 72.54710679673934 L 1333.1790250714237 72.5764654042115 L 1332.9489071046116 72.60478518569649 L 1332.7181741861496 72.63206330923974 L 1332.4868493891372 72.65829704705163 L 1332.2549558458613 72.68348377578025 L 1332.0225167454832 72.70762097677371 L 1331.7895553317192 72.73070623633201 L 1331.5560949005162 72.75273724594847 L 1331.3221587977232 72.77371180254045 L 1331.0877704167553 72.79362780866978 L 1330.8529531962554 72.81248327275246 L 1330.6177306177497 72.83027630925778 L 1330.3821262033 72.84700513889692 L 1330.1461635131518 72.86266808880085 L 1329.909866143377 72.87726359268764 L 1329.673257723516 72.89079019101906 L 1329.4363619142134 72.90324653114655 L 1329.199202404853 72.91463136744649 L 1328.9618029111878 72.9249435614447 L 1328.7241871729693 72.93418208193043 L 1328.4863789515737 72.94234600505929 L 1328.2484020276247 72.94943451444577 L 1328.0102801986163 72.95544690124485 L 1327.772037276533 72.96038256422287 L 1327.5336970854687 72.96424100981763 L 1327.2952834592436 72.9670218521878 L 1327.056820239022 72.96872481325143 L 1326.8183312709268 72.96934972271386 L 1326.5798404036564 72.96889651808466 L 1326.3413714860985 72.96736524468392 L 1326.1029483649463 72.96475605563768 L 1325.8645948823132 72.96106921186271 L 1325.626334873349 72.95630508204027 L 1325.3881921638556 72.9504641425794 L 1325.1501905679058 72.94354697756918 L 1324.912353885461 72.93555427872033 L 1324.674705899991 72.9264868452961 L 1324.4372703760966 72.91634558403224 L 1324.200071057132 72.90513150904647 L 1323.9631316628315 72.89284574173689 L 1323.7264758869371 72.87948951067006 L 1323.4901273948294 72.86506415145789 L 1323.2541098211605 72.84957110662431 L 1323.0184467674908 72.8330119254609 L 1322.7831617999298 72.81538826387197 L 1322.5482784467777 72.79670188420899 L 1322.3138201961744 72.77695465509434 L 1322.0798104937494 72.7561485512345 L 1321.8462727402782 72.73428565322251 L 1321.6132302893411 72.71136814732996 L 1321.3807064449895 72.68739832528833 L 1321.1487244594136 72.66237858405984 L 1320.917307530619 72.63631142559778 L 1320.6864788001055 72.60919945659627 L 1320.4562613505539 72.58104538822961 L 1320.2266782035174 72.55185203588118 L 1319.9977523171192 72.5216223188619 L 1319.7695065837572 72.49035926011825 L 1319.5419638278145 72.45806598593009 L 1319.3151468033773 72.4247457255979 L 1319.0890781919586 72.39040181111994 L 1318.8637806002316 72.35503767685907 L 1318.6392765577677 72.31865685919922 L 1318.4155885147838 72.28126299619186 L 1318.1927388398979 72.24285982719209 L 1317.9707498178918 72.20345119248485 L 1317.7496436474826 72.16304103290075 L 1317.5294424391034 72.12163338942209 L 1317.310168212691 72.07923240277869 L 1317.0918428954858 72.03584231303388 L 1316.8744883198376 71.99146745916049 L 1316.6581262210225 71.94611227860693 L 1316.4427782350701 71.89978130685344 L 1316.2284658965998 71.85247917695861 L 1316.0152106366668 71.80421061909601 L 1315.8030337806192 71.75498046008119 L 1315.591956545966 71.70479362288901 L 1315.3820000402548 71.65365512616141 L 1315.1731852589608 71.60157008370541 L 1314.9655330833884 71.54854370398188 L 1314.7590642785822 71.49458128958457 L 1314.5537994912506 71.43968823671 L 1314.349759247701 71.38387003461766 L 1314.1469639517882 71.32713226508127 L 1313.9454338828725 71.26948060183051 L 1313.7451891937926 71.21092080998365 L 1313.5462499088512 71.15145874547107 L 1313.3486359218105 71.0911003544497 L 1313.1523669939045 71.0298516727083 L 1312.9574627518627 70.96771882506403 L 1312.7639426859466 70.90470802474988 L 1312.571826148002 70.84082557279336 L 1312.3811323495222 70.77607785738643 L 1312.1918803597282 70.71047135324669 L 1312.0040891036613 70.64401262096986 L 1311.8177773602906 70.5767083063738 L 1311.6329637606352 70.50856513983389 L 1311.4496667859012 70.43958993560999 L 1311.267904765633 70.36978959116503 L 1311.0876958758813 70.29917108647531 L 1310.909058137385 70.22774148333244 L 1310.7320094137692 70.1555079246372 L 1310.5565674097584 70.08247763368529 L 1310.3827496694068 70.00865791344492 L 1310.210573574344 69.9340561458266 L 1310.0400563420358 69.85867979094495 L 1309.871215024063 69.78253638637263 L 1309.7040665044171 69.70563354638664 L 1309.5386274978107 69.62797896120689 L 1309.3749145480067 69.54958039622719 L 1309.2129440261633 69.47044569123871 L 1309.052732129198 69.39058275964601 L 1308.8942948781669 69.30999958767568 L 1308.7376481166632 69.22870423357777 L 1308.5828075092322 69.14670482681996 L 1308.429788539806 69.06400956727457 L 1308.2786065101536 68.98062672439866 L 1308.1292765383523 68.89656463640702 L 1307.9818135572748 68.8118317094384 L 1307.8362323130964 68.72643641671489 L 1307.6925473638198 68.6403872976946 L 1307.5507730778206 68.55369295721772 L 1307.410923632409 68.46636206464606 L 1307.2730130124135 68.37840335299609 L 1307.1370550087804 68.28982561806569 L 1307.0030632171975 68.20063771755453 L 1306.8710510367316 68.11084857017835 L 1306.7410316684914 68.02046715477704 L 1306.6130181143049 67.92950250941684 L 1306.487023175421 67.83796373048648 L 1306.3630594512285 67.74585997178757 L 1306.2411393379969 67.65320044361923 L 1306.1212750276354 67.55999441185705 L 1306.0034785064754 67.46625119702654 L 1305.887761554071 67.37198017337107 L 1305.774135742021 67.27719076791445 L 1305.6626124328113 67.18189245951821 L 1305.5532027786808 67.08609477793381 L 1305.445917720503 66.98980730284956 L 1305.3407679866948 66.89303966293272 L 1305.2377640921418 66.79580153486665 L 1305.1369163371476 66.69810264238313 L 1305.0382348064034 66.59995275528999 L 1304.9417293679805 66.50136168849414 L 1304.8474096723419 66.40233930102012 L 1304.755285151379 66.30289549502413 L 1304.6653650174667 66.20304021480393 L 1304.5776582625438 66.1027834458043 L 1304.4921736572126 66.00213521361863 L 1304.4089197498622 65.90110558298623 L 1304.3279048658144 65.799704656786 L 1304.2491371064896 65.69794257502603 L 1304.1726243485982 65.59582951382973 L 1304.0983742433525 65.4933756844181 L 1304.0263942157007 65.3905913320887 L 1303.9566914635861 65.28748673519112 L 1303.8892729572256 65.18407220409914 L 1303.8241454384136 65.08035808017966 L 1303.7613154198477 64.97635473475869 L 1303.7007891844776 64.87207256808405 L 1303.6425727848762 64.76752200828555 L 1303.5866720426347 64.66271351033203 L 1303.5330925477813 64.55765755498592 L 1303.4818396582207 64.45236464775525 L 1303.4329184991986 64.34684531784296 L 1303.386333962791 64.24111011709415 L 1303.342090707412 64.13516961894075 L 1303.3001931573506 64.0290344173443 L 1303.2606455023267 63.92271512573653 L 1303.2234516970732 63.81622237595798 L 1303.1886154609392 63.70956681719489 L 1303.1561402775196 63.602759114914264 L 1303.1260293943055 63.49580994979732 L 1303.0982858223604 63.38873001667144 L 1303.072912336018 63.28153002344071 L 1303.049911472606 63.17422069001512 L 1303.0292855321916 63.066812747238586 L 1303.0110365773514 62.959316935815885 L 1302.995166432966 62.85174400523857 L 1302.9816766860365 62.74410471271006 L 1302.9705686855264 62.636409822069915 L 1302.9618435422262 62.52867010271744 L 1302.9555021286433 62.4208963285348 L 1302.9515450789136 62.313099276809595 L 1302.949972788739 62.20528972715717 L 1302.950785415347 62.09747846044265 L 1302.9539828774755 61.98967625770286 L 1302.9595648553811 61.88189389906824 L 1302.9675307908708 61.77414216268484 L 1302.9778798873576 61.66643182363649 L 1302.9906111099403 61.558773652867366 L 1303.0057231855076 61.4511784161048 L 1303.023214602864 61.34365687278283 L 1303.0430836128828 61.236219774966166 L 1303.0653282286796 61.12887786627507 L 1303.089946225811 61.02164188081096 L 1303.116935142498 60.91452254208302 L 1303.1462922798714 60.807530561935856 L 1303.1780147022419 60.70067663947832 L 1303.2120992373937 60.593971460013606 L 1303.2485424769018 60.487425693970756 L 1303.2873407764725 60.381049995837586 L 1303.3284902563082 60.27485500309525 L 1303.3719868014953 60.16885133515453 L 1303.4178260624153 60.06304959229389 L 1303.4660034551805 59.95746035459945 L 1303.5165141620917 59.852094180906974 L 1303.5693531321203 59.746961607746044 L 1303.6245150814134 59.64207314828636 L 1303.681994493822 59.537439291286454 L 1303.741785621453 59.43307050004484 L 1303.8038824852429 59.32897721135367 L 1303.8682788755573 59.22516983445505 L 1303.934968352811 59.12165875000019 L 1304.0039442481118 59.01845430901127 L 1304.0751996639276 58.91556683184637 L 1304.1487274747763 58.81300660716748 L 1304.2245203279379 58.7107838909116 L 1304.3025706441904 58.60890890526517 L 1304.382870618567 58.507391837641855 L 1304.4654122211375 58.406242839663825 L 1304.5501871978104 58.30547202614659 L 1304.6371870711582 58.205089474087515 L 1304.7264031412667 58.105105221658164 L 1304.8178264866026 58.00552926720046 L 1304.9114479649081 57.90637156822687 L 1305.0072582141133 57.807642040424646 L 1305.105247653273 57.709350556664305 L 1305.2054064835247 57.61150694601232 L 1305.3077246890691 57.514120992748204 L 1305.412192038171 57.417202435386145 L 1305.5187980841824 57.320760965701105 L 1305.6275321665878 57.224806227759686 L 1305.7383834120692 57.12934781695572 L 1305.8513407355945 57.03439527905074 L 1305.9663928415255 56.93995810921942 L 1306.0835282247476 56.84604575110002 L 1306.2027351718202 56.75266759585011 L 1306.3240017621476 56.65983298120741 L 1306.447315869172 56.567551190555996 L 1306.5726651615855 56.47583145199805 L 1306.700037104563 56.384682937430995 L 1306.829418961017 56.29411476163032 L 1306.960797792869 56.20413598133814 L 1307.0941604623456 56.1147555943575 L 1307.229493633291 56.02598253865261 L 1307.3667837725009 55.937825691455075 L 1307.5060171510756 55.85029386837614 L 1307.6471798457935 55.763395822525176 L 1307.7902577405027 55.677140243634355 L 1307.9352365275329 55.591535757189675 L 1308.0821017091262 55.50659092356846 L 1308.2308385988867 55.42231423718327 L 1308.3814323232498 55.33871412563253 L 1308.533867822968 55.25579894885771 L 1308.6881298546189 55.1735769983074 L 1308.8442029921275 55.092056496108135 L 1309.0020716283104 55.01124559424221 L 1309.1617199764353 54.93115237373246 L 1309.3231320718005 54.851784843834196 L 1309.4862917733308 54.77315094123426 L 1309.6511827651925 54.6952585292574 L 1309.8177885584234 54.61811539707989 L 1309.986092492583 54.54172925895067 L 1310.1560777374184 54.46610775341989 L 1310.3277272945468 54.391258442575094 L 1310.501023999155 54.317188811284986 L 1310.6759505217176 54.24390626645098 L 1310.8524893697277 54.171418136266475 L 1311.0306228894478 54.09973166948409 L 1311.2103332676743 54.028854034690774 L 1311.3916025335193 53.95879231959093 L 1311.574412560207 53.88955353029769 L 1311.7587450668873 53.82114459063227 L 1311.944581620463 53.753572341431656 L 1312.1319036374334 53.68684353986444 L 1312.3206923857535 53.62096485875517 L 1312.5109289867053 53.55594288591707 L 1312.7025944167874 53.49178412349323 L 1312.8956695096165 53.42849498730643 L 1313.0901349578442 53.366081806217544 L 1313.2859713150876 53.304550821492676 L 1313.4831589978746 53.24390818617902 L 1313.6816782876008 53.18415996448957 L 1313.8815093325027 53.12531213119671 L 1314.0826321496427 53.067370571034715 L 1314.2850266269063 53.01034107811134 L 1314.4886725250144 52.95422935532834 L 1314.6935494795473 52.89904101381123 L 1314.89963700298 52.84478157234818 L 1315.106914486732 52.79145645683812 L 1315.3153612032274 52.73907099974815 L 1315.5249563079685 52.687630439580346 L 1315.7356788416196 52.637139920347835 L 1315.9475077321026 52.58760449106049 L 1316.1604217967051 52.53902910521993 L 1316.3743997441982 52.49141862032429 L 1316.5894201769654 52.444777797382365 L 1316.8054615931426 52.399111300437596 L 1317.0225023887683 52.354423696101605 L 1317.2405208599434 52.3107194530976 L 1317.4594952050031 52.26800294181345 L 1317.6794035266948 52.2262784338647 L 1317.90022383437 52.18555010166736 L 1318.1219340461817 52.14582201802072 L 1318.3445119912935 52.10709815570004 L 1318.5679354120966 52.06938238705927 L 1318.7921819664348 52.032678483643856 L 1319.0172292298398 51.996990115813546 L 1319.2430546977725 51.96232085237539 L 1319.4696357878745 51.928674160226834 L 1319.6969498422256 51.89605340400906 L 1319.9249741296098 51.8644618457705 L 1320.1536858477882 51.833902644640645 L 1320.3830621257798 51.80437885651416 L 1320.6130800261478 51.775893433745246 L 1320.843716547294 51.74844922485244 L 1321.0749486257585 51.722048974233765 L 1321.306753138526 51.69669532189228 L 1321.5391069053383 51.672390803172085 L 1321.7719866910124 51.649137848504814 L 1322.005369207764 51.626938783166544 L 1322.2392311175356 51.60579582704531 L 1322.4735490343314 51.58571109441911 L 1322.708299526555 51.56668659374447 L 1322.9434591193526 51.54872422745561 L 1323.179004296961 51.53182579177417 L 1323.4149115050586 51.515992976529645 L 1323.6511571531214 51.50122736499037 L 1323.8877176167812 51.4875304337052 L 1324.124569240189 51.47490355235584 L 1324.3616883383795 51.4633479836199 L 1324.599051199641 51.45286488304463 L 1324.8366340878847 51.443455298931354 L 1325.0744132450202 51.43512017223063 L 1325.3123648933295 51.4278603364482 L 1325.5504652378463 51.42167651756158 L 1325.7886904687343 51.41656933394751 L 1326.0270167636693 51.41253929632009 L 1326.2654202902204 51.40958680767973 L 1326.5038772082332 51.407712163272826 L 1326.742363672215 51.40691555056227 L 1326.9808558337181 51.40719704920866 L 1327.219329843725 51.40855663106237 L 1327.4577618550334 51.41099416016634 L 1327.6961280246408 51.414509392769695 L 1327.9344045161292 51.419101977352106 L 1328.1725675020475 51.42477145465894 L 1328.4105931662962 51.431517257747196 L 1328.6484577065066 51.43933871204218 L 1328.8861373364234 51.44823503540498 L 1329.1236082882813 51.45820533821068 L 1329.3608468151833 51.4692486234373 L 1329.5978291934744 51.48136378676553 L 1329.834531725114 51.49454961668913 L 1330.0709307400462 51.50880479463608 L 1330.3070025985667 51.524127895100484 L 1330.5427236936864 51.54051738578506 L 1330.778070453492 51.5579716277544 L 1331.0130193435039 51.57648887559884 L 1331.2475468690288 51.59606727760904 L 1331.4816295775095 51.6167048759611 L 1331.7152440608702 51.6383996069124 L 1331.9483669578574 51.66114930100791 L 1332.1809749563754 51.684951683297186 L 1332.4130447958185 51.70980437356183 L 1332.644553269396 51.735704886553535 L 1332.8754772264533 51.76265063224257 L 1333.1057935747876 51.79063891607683 L 1333.3354792829555 51.81966693925126 L 1333.5645113825778 51.849731798987726 L 1333.7928669706355 51.88083048882531 L 1334.02052321176 51.91295989892094 L 1334.2474573405168 51.94611681636038 L 1334.4736466636823 51.980297925479526 L 1334.6990685625124 52.01549980819594 L 1334.9237004950055 52.0517189443507 L 1335.147519998155 52.08895171206036 L 1335.3705046901975 52.127194388079175 L 1335.5926322728496 52.16644314817141 L 1335.8138805335382 52.20669406749378 L 1336.0342273476213 52.247943120987884 L 1336.2536506806011 52.29018618378274 L 1336.4721285903277 52.33341903160728 L 1336.6896392291915 52.37763734121275 L 1336.9061608463103 52.422836690805035 L 1337.1216717897028 52.46901256048684 L 1337.336150508454 52.516160332709674 L 1337.549575554871 52.564275292735616 L 1337.7619255866268 52.613352629108746 L 1337.9731793688954 52.663387434136325 L 1338.1833157764747 52.71437470437956 L 1338.3923137958989 52.7663093411539 L 1338.6001525275399 52.819186151038956 L 1338.8068111876983 52.8729998463978 L 1339.0122691106799 52.92774504590574 L 1339.216505750864 52.983416275088445 L 1339.4195006847563 53.040007966869396 L 1339.621233613033 53.09751446212657 L 1339.821684362569 53.15593001025836 L 1340.0208328884567 53.21524876975863 L 1340.2186592760092 53.27546480880087 L 1340.415143742753 53.33657210583136 L 1340.6102666404045 53.3985645501713 L 1340.8040084568372 53.461435942627936 L 1340.9963498180307 53.52517999611441 L 1341.1872714900092 53.58979033627848 L 1341.3767543807644 53.655260502139996 L 1341.5647795421653 53.721583946736914 L 1341.7513281718523 53.78875403778004 L 1341.936381615118 53.85676405831625 L 1342.1199213667724 53.92560720740017 L 1342.301929072993 53.995276600774254 L 1342.482386533161 54.065765271557225 L 1342.6612757016808 54.13706617094075 L 1342.8385786897848 54.2091721688943 L 1343.0142777673213 54.28207605487816 L 1343.1883553645298 54.35577053856451 L 1343.360794073795 54.43024825056637 L 1343.53157665139 54.50550174317461 L 1343.7006860191993 54.581523491102686 L 1343.868105266427 54.658305892239156 L 1344.0338176512878 54.73584126840789 L 1344.1978066026816 54.81412186613588 L 1344.3600557218494 54.89313985742859 L 1344.520548784015 54.97288734055273 L 1344.6792697400058 55.05335634082646 L 1344.8362027178584 55.1345388114168 L 1344.991332024406 55.21642663414435 L 1345.1446421468465 55.29901162029506 L 1345.2961177542963 55.38228551143916 L 1345.4457436993205 55.46623998025691 L 1345.5935050194494 55.55086663137139 L 1345.7393869386738 55.63615700218803 L 1345.8833748689237 55.722102563740805 L 1346.025454411526 55.80869472154519 L 1346.1656113586446 55.89592481645755 L 1346.3038316947018 55.98378412554111 L 1346.4401015977792 56.07226386293816 L 1346.574407441 56.1613551807487 L 1346.7067357938918 56.251049169915184 L 1346.8370734237294 56.34133686111345 L 1346.9654072968588 56.4322092256496 L 1347.0917245799994 56.52365717636293 L 1347.216012641528 56.615671568534566 L 1347.3382590527426 56.70824320080196 L 1347.4584515891033 56.80136281607904 L 1347.5765782314568 56.89502110248188 L 1347.6926271672376 56.98920869425987 L 1347.8065867916484 57.083916172732344 L 1347.918445708822 57.17913406723036 L 1348.02819273296 57.27485285604382 L 1348.135816889451 57.37106296737362 L 1348.2413074159695 57.467754780288786 L 1348.3446537635507 57.56491862568861 L 1348.4458455976455 57.662544787269525 L 1348.5448727991554 57.76062350249672 L 1348.6417254654425 57.859144963580405 L 1348.7363939113209 57.95809931845658 L 1348.8288686700248 58.05747667177222 L 1348.9191404941555 58.15726708587479 L 1349.0072003566058 58.257460581806065 L 1349.093039451463 58.358047140299924 L 1349.1766491948888 58.459016702784346 L 1349.2580212259788 58.56035917238722 L 1349.3371474075977 58.66206441494605 L 1349.4140198271932 58.764122260021324 L 1349.4886307975873 58.866522501913586 L 1349.5609728577454 58.96925490068398 L 1349.6310387735216 59.072309183178234 L 1349.6988215383826 59.17567504405398 L 1349.7643143741086 59.279342146811274 L 1349.8275107314705 59.38330012482622 L 1349.888404290885 59.48753858238766 L 1349.9469889630477 59.59204709573668 L 1350.0032588895392 59.69681521410906 L 1350.0572084434145 59.80183246078026 L 1350.1088322297626 59.907088334113126 L 1350.1581250862484 60.012572308608036 L 1350.2050820836268 60.11827383595545 L 1350.2496985262378 60.22418234609071 L 1350.291969952474 60.33028724825106 L 1350.3318921352277 60.43657793203471 L 1350.3694610823143 60.54304376846186 L 1350.4046730368705 60.64967411103757 L 1350.4375244777298 60.75645829681646 L 1350.4680121197755 60.86338564746893 L 1350.4961329142693 60.97044547034902 L 1350.5218840491548 61.07762705956367 L 1350.5452629493398 61.184919697043256 L 1350.5662672769542 61.29231265361346 L 1350.5848949315823 61.399795190068104 L 1350.6011440504747 61.50735655824312 L 1350.6150130087326 61.614986002091314 L 1350.6265004194718 61.72267275875801 L 1350.635605133961 61.830406059657264 L 1350.642326241736 61.93817513154877 L 1350.6466630706923 62.04596919761514 L 1350.6486151871497 62.15377747853961 M 1350.6487361772058 96.4920458931 L 1350.6475437173021 96.59985643801662 L 1350.643966456836 96.70765620196859 L 1350.6380047535306 96.81543440506935 L 1350.6296592035515 96.9231802695884 L 1350.6189306414462 97.03088302102908 L 1350.6058201400624 97.138531889206 L 1350.590329010439 97.24611610932205 L 1350.5724588016765 97.35362492304485 L 1350.5522113007805 97.46104757958265 L 1350.5295885324842 97.5683733367593 L 1350.5045927590459 97.67559146208852 L 1350.477226480022 97.78269123384712 L 1350.4474924320173 97.88966194214719 L 1350.4153935884121 97.99649289000702 L 1350.380933159064 98.10317339442086 L 1350.3441145899872 98.20969278742717 L 1350.304941563008 98.31604041717543 L 1350.2634179953961 98.42220564899125 L 1350.2195480394741 98.52817786643996 L 1350.1733360822009 98.6339464723881 L 1350.1247867447335 98.73950089006323 L 1350.0739048819655 98.84483056411152 L 1350.0206955820404 98.94992496165337 L 1349.9651641658443 99.05477357333659 L 1349.9073161864724 99.15936591438738 L 1349.847157428674 99.2636915256588 L 1349.7846939082754 99.36773997467667 L 1349.7199318715764 99.47150085668278 L 1349.6528777947262 99.5749637956754 L 1349.5835383830772 99.67811844544686 L 1349.5119205705128 99.78095449061813 L 1349.438031518754 99.8834616476704 L 1349.3618786166448 99.98562966597338 L 1349.2834694794121 100.08744832881038 L 1349.2028119479041 100.18890745439998 L 1349.1199140878066 100.28999689691415 L 1349.0347841888367 100.39070654749288 L 1348.9474307639134 100.49102633525506 L 1348.8578625483062 100.59094622830548 L 1348.766088498762 100.69045623473812 L 1348.6721177926097 100.78954640363527 L 1348.5759598268412 100.8882068260626 L 1348.477624217173 100.9864276360601 L 1348.3771207970842 101.0841990116286 L 1348.274459616833 101.18151117571202 L 1348.1696509424519 101.27835439717506 L 1348.062705254721 101.37471899177628 L 1347.9536332481202 101.4705953231365 L 1347.8424458297588 101.56597380370249 L 1347.7291541182863 101.6608448957057 L 1347.6137694427794 101.75519911211595 L 1347.4963033416093 101.84902701759025 L 1347.3767675612885 101.94231922941623 L 1347.2551740552951 102.03506641845047 L 1347.1315349828787 102.12725931005133 L 1347.0058627078433 102.2188886850065 L 1346.8781697973118 102.30994538045483 L 1346.748469020469 102.40042029080266 L 1346.616773347284 102.49030436863434 L 1346.4830959472147 102.579588625617 L 1346.3474501878898 102.66826413339936 L 1346.209849633772 102.75632202450451 L 1346.070308044802 102.84375349321674 L 1345.9288393750228 102.93054979646202 L 1345.785457771183 103.01670225468237 L 1345.6401775713236 103.10220225270375 L 1345.493013303344 103.18704124059762 L 1345.3439796835478 103.27121073453588 L 1345.193091615173 103.3547023176393 L 1345.0403641869007 103.4375076408191 L 1344.8858126713462 103.51961842361202 L 1344.7294525235327 103.60102645500817 L 1344.5712993793445 103.68172359427226 L 1344.4113690539643 103.7617017717576 L 1344.249677540291 103.84095298971312 L 1344.0862410073416 103.91946932308304 L 1343.9210757986332 103.99724292029944 L 1343.754198430549 104.07426600406745 L 1343.5856255906865 104.15053087214287 L 1343.4153741361893 104.22602989810241 L 1343.2434610920611 104.30075553210642 L 1343.0699036494632 104.37470030165377 L 1342.8947191639948 104.44785681232914 L 1342.7179251539587 104.52021774854238 L 1342.5395392986086 104.59177587426021 L 1342.3595794363814 104.66252403372968 L 1342.1780635631133 104.73245515219378 L 1341.9950098302404 104.80156223659897 L 1341.8104365429833 104.86983837629438 L 1341.6243621585172 104.93727674372295 L 1341.4368052841253 105.0038705951041 L 1341.2477846753386 105.06961327110824 L 1341.0573192340607 105.13449819752252 L 1340.865428006677 105.19851888590837 L 1340.67213018215 105.26166893425032 L 1340.4774450901016 105.32394202759615 L 1340.2813921988784 105.38533193868841 L 1340.0839911136063 105.44583252858716 L 1339.8852615742292 105.50543774728384 L 1339.6852234535354 105.56414163430621 L 1339.4838967551705 105.62193831931454 L 1339.2813016116363 105.67882202268845 L 1339.0774582822787 105.73478705610502 L 1338.8723871512602 105.78982782310756 L 1338.6661087255236 105.84393881966523 L 1338.4586436327393 105.89711463472344 L 1338.2500126192435 105.94934995074503 L 1338.040236547964 106.00063954424192 L 1337.829336396333 106.0509782862975 L 1337.61733325419 106.1003611430795 L 1337.4042483216724 106.14878317634341 L 1337.190102907096 106.19623954392625 L 1336.9749184248237 106.2427255002308 L 1336.7587163931246 106.2882363967002 L 1336.5415184320213 106.33276768228268 L 1336.3233462611292 106.37631490388682 L 1336.1042216974838 106.41887370682676 L 1335.8841666533585 106.46043983525765 L 1335.6632031340744 106.50100913260128 L 1335.4413532357994 106.54057754196174 L 1335.2186391433384 106.57914110653107 L 1334.995083127915 106.61669596998493 L 1334.7707075449443 106.65323837686829 L 1334.545534831798 106.6887646729709 L 1334.3195875055596 106.72327130569276 L 1334.0928881607736 106.75675482439937 L 1333.865459467185 106.78921188076673 L 1333.6373241674744 106.82063922911627 L 1333.408505074981 106.85103372673933 L 1333.1790250714237 106.8803923342115 L 1332.9489071046116 106.90871211569649 L 1332.7181741861496 106.93599023923973 L 1332.4868493891372 106.96222397705162 L 1332.2549558458613 106.98741070578025 L 1332.0225167454832 107.0115479067737 L 1331.7895553317192 107.03463316633201 L 1331.5560949005162 107.05666417594847 L 1331.3221587977232 107.07763873254045 L 1331.0877704167553 107.09755473866979 L 1330.8529531962554 107.11641020275246 L 1330.6177306177497 107.13420323925777 L 1330.3821262033 107.1509320688969 L 1330.1461635131518 107.16659501880085 L 1329.909866143377 107.18119052268763 L 1329.673257723516 107.19471712101905 L 1329.4363619142134 107.20717346114655 L 1329.199202404853 107.21855829744648 L 1328.9618029111878 107.22887049144471 L 1328.7241871729693 107.23810901193042 L 1328.4863789515737 107.24627293505928 L 1328.2484020276247 107.25336144444577 L 1328.0102801986163 107.25937383124486 L 1327.772037276533 107.26430949422287 L 1327.5336970854687 107.26816793981763 L 1327.2952834592436 107.27094878218779 L 1327.056820239022 107.27265174325143 L 1326.8183312709268 107.27327665271386 L 1326.5798404036564 107.27282344808465 L 1326.3413714860985 107.27129217468391 L 1326.1029483649463 107.26868298563768 L 1325.8645948823132 107.2649961418627 L 1325.626334873349 107.26023201204026 L 1325.3881921638556 107.2543910725794 L 1325.1501905679058 107.24747390756917 L 1324.912353885461 107.23948120872033 L 1324.674705899991 107.23041377529609 L 1324.4372703760966 107.22027251403225 L 1324.200071057132 107.20905843904646 L 1323.9631316628315 107.1967726717369 L 1323.7264758869371 107.18341644067004 L 1323.4901273948294 107.16899108145788 L 1323.2541098211605 107.15349803662431 L 1323.0184467674908 107.1369388554609 L 1322.7831617999298 107.11931519387196 L 1322.5482784467777 107.10062881420897 L 1322.3138201961744 107.08088158509435 L 1322.0798104937494 107.0600754812345 L 1321.8462727402782 107.03821258322252 L 1321.6132302893411 107.01529507732995 L 1321.3807064449895 106.99132525528832 L 1321.1487244594136 106.96630551405984 L 1320.917307530619 106.94023835559778 L 1320.6864788001055 106.91312638659626 L 1320.4562613505539 106.88497231822961 L 1320.2266782035174 106.85577896588119 L 1319.9977523171192 106.8255492488619 L 1319.7695065837572 106.79428619011826 L 1319.5419638278145 106.76199291593008 L 1319.3151468033773 106.72867265559789 L 1319.0890781919586 106.69432874111995 L 1318.8637806002316 106.65896460685907 L 1318.6392765577677 106.62258378919921 L 1318.4155885147838 106.58518992619184 L 1318.1927388398979 106.5467867571921 L 1317.9707498178918 106.50737812248485 L 1317.7496436474826 106.46696796290075 L 1317.5294424391034 106.42556031942208 L 1317.310168212691 106.38315933277867 L 1317.0918428954858 106.33976924303387 L 1316.8744883198376 106.29539438916049 L 1316.6581262210225 106.25003920860692 L 1316.4427782350701 106.20370823685344 L 1316.2284658965998 106.15640610695861 L 1316.0152106366668 106.108137549096 L 1315.8030337806192 106.05890739008117 L 1315.591956545966 106.00872055288902 L 1315.3820000402548 105.9575820561614 L 1315.1731852589608 105.90549701370541 L 1314.9655330833884 105.85247063398188 L 1314.7590642785822 105.79850821958458 L 1314.5537994912506 105.74361516670999 L 1314.349759247701 105.68779696461766 L 1314.1469639517882 105.63105919508126 L 1313.9454338828725 105.5734075318305 L 1313.7451891937926 105.51484773998365 L 1313.5462499088512 105.45538567547108 L 1313.3486359218105 105.3950272844497 L 1313.1523669939045 105.33377860270829 L 1312.9574627518627 105.27164575506403 L 1312.7639426859466 105.20863495474987 L 1312.571826148002 105.14475250279335 L 1312.3811323495222 105.08000478738643 L 1312.1918803597282 105.01439828324668 L 1312.0040891036613 104.94793955096986 L 1311.8177773602906 104.8806352363738 L 1311.6329637606352 104.8124920698339 L 1311.4496667859012 104.74351686560999 L 1311.267904765633 104.67371652116503 L 1311.0876958758813 104.6030980164753 L 1310.909058137385 104.53166841333243 L 1310.7320094137692 104.4594348546372 L 1310.5565674097584 104.38640456368528 L 1310.3827496694068 104.31258484344491 L 1310.210573574344 104.2379830758266 L 1310.0400563420358 104.16260672094495 L 1309.871215024063 104.08646331637262 L 1309.7040665044171 104.00956047638662 L 1309.5386274978107 103.93190589120688 L 1309.3749145480067 103.85350732622719 L 1309.2129440261633 103.77437262123871 L 1309.052732129198 103.694509689646 L 1308.8942948781669 103.61392651767568 L 1308.7376481166632 103.53263116357778 L 1308.5828075092322 103.45063175681996 L 1308.429788539806 103.36793649727457 L 1308.2786065101536 103.28455365439865 L 1308.1292765383523 103.20049156640701 L 1307.9818135572748 103.1157586394384 L 1307.8362323130964 103.03036334671489 L 1307.6925473638198 102.94431422769459 L 1307.5507730778206 102.85761988721772 L 1307.410923632409 102.77028899464605 L 1307.2730130124135 102.68233028299609 L 1307.1370550087804 102.5937525480657 L 1307.0030632171975 102.50456464755453 L 1306.8710510367316 102.41477550017834 L 1306.7410316684914 102.32439408477703 L 1306.6130181143049 102.23342943941684 L 1306.487023175421 102.14189066048647 L 1306.3630594512285 102.04978690178756 L 1306.2411393379969 101.95712737361922 L 1306.1212750276354 101.86392134185704 L 1306.0034785064754 101.77017812702654 L 1305.887761554071 101.67590710337106 L 1305.774135742021 101.58111769791444 L 1305.6626124328113 101.48581938951821 L 1305.5532027786808 101.39002170793381 L 1305.445917720503 101.29373423284954 L 1305.3407679866948 101.19696659293271 L 1305.2377640921418 101.09972846486664 L 1305.1369163371476 101.00202957238312 L 1305.0382348064034 100.90387968528998 L 1304.9417293679805 100.80528861849413 L 1304.8474096723419 100.70626623102011 L 1304.755285151379 100.60682242502413 L 1304.6653650174667 100.50696714480392 L 1304.5776582625438 100.40671037580431 L 1304.4921736572126 100.30606214361863 L 1304.4089197498622 100.20503251298624 L 1304.3279048658144 100.103631586786 L 1304.2491371064896 100.00186950502604 L 1304.1726243485982 99.89975644382972 L 1304.0983742433525 99.79730261441809 L 1304.0263942157007 99.69451826208869 L 1303.9566914635861 99.59141366519111 L 1303.8892729572256 99.48799913409913 L 1303.8241454384136 99.38428501017967 L 1303.7613154198477 99.28028166475868 L 1303.7007891844776 99.17599949808405 L 1303.6425727848762 99.07144893828554 L 1303.5866720426347 98.96664044033201 L 1303.5330925477813 98.86158448498593 L 1303.4818396582207 98.75629157775525 L 1303.4329184991986 98.65077224784297 L 1303.386333962791 98.54503704709414 L 1303.342090707412 98.43909654894075 L 1303.3001931573506 98.33296134734431 L 1303.2606455023267 98.22664205573652 L 1303.2234516970732 98.12014930595798 L 1303.1886154609392 98.01349374719489 L 1303.1561402775196 97.90668604491427 L 1303.1260293943055 97.79973687979731 L 1303.0982858223604 97.69265694667143 L 1303.072912336018 97.58545695344071 L 1303.049911472606 97.47814762001512 L 1303.0292855321916 97.37073967723859 L 1303.0110365773514 97.26324386581588 L 1302.995166432966 97.15567093523856 L 1302.9816766860365 97.04803164271006 L 1302.9705686855264 96.94033675206991 L 1302.9618435422262 96.83259703271744 L 1302.9555021286433 96.7248232585348 L 1302.9515450789136 96.6170262068096 L 1302.949972788739 96.50921665715717" stroke-miterlimit="10" stroke-width="2.7769845610000004" stroke-dasharray=""/></g><g><text fill="black" stroke="none" font-family="sans-serif" font-size="11pt" font-style="normal" font-weight="normal" text-decoration="normal" x="1295.4213944129167" y="124.80095321200001" text-anchor="start" dominant-baseline="alphabetic" xml:space="preserve">Database</text></g></g><g><path fill="white" stroke="black" paint-order="fill stroke markers" d=" M 396.5823219044271 183.607685092 L 412.9175252044271 183.607685092 L 412.9175252044271 1617.8385348319998 L 396.5823219044271 1617.8385348319998 L 396.5823219044271 183.607685092" stroke-miterlimit="10" stroke-width="1.3612669416666667" stroke-dasharray=""/><path fill="white" stroke="black" paint-order="fill stroke markers" d=" M 624.7743472449869 431.90277525199997 L 641.109550544987 431.90277525199997 L 641.109550544987 477.641344492 L 624.7743472449869 477.641344492 L 624.7743472449869 431.90277525199997" stroke-miterlimit="10" stroke-width="1.3612669416666667" stroke-dasharray=""/><path fill="white" stroke="black" paint-order="fill stroke markers" d=" M 817.7000785696614 931.7599962319995 L 834.0352818696615 931.7599962319995 L 834.0352818696615 1572.0999655919998 L 817.7000785696614 1572.0999655919998 L 817.7000785696614 931.7599962319995" stroke-miterlimit="10" stroke-width="1.3612669416666667" stroke-dasharray=""/><path fill="white" stroke="black" paint-order="fill stroke markers" d=" M 1035.684523343815 1157.1858017719994 L 1052.0197266438151 1157.1858017719994 L 1052.0197266438151 1526.3613963519997 L 1035.684523343815 1526.3613963519997 L 1035.684523343815 1157.1858017719994" stroke-miterlimit="10" stroke-width="1.3612669416666667" stroke-dasharray=""/><path fill="white" stroke="black" paint-order="fill stroke markers" d=" M 1318.6317377092057 1434.8842578719996 L 1334.9669410092058 1434.8842578719996 L 1334.9669410092058 1480.6228271119996 L 1318.6317377092057 1480.6228271119996 L 1318.6317377092057 1434.8842578719996" stroke-miterlimit="10" stroke-width="1.3612669416666667" stroke-dasharray=""/><g><g><rect fill="white" stroke="none" x="153.96957582371746" y="162.371920802" width="178.4867884069922" height="21.23576429"/></g><text fill="black" stroke="none" font-family="sans-serif" font-size="11pt" font-style="normal" font-weight="normal" text-decoration="normal" x="156.41985631871745" y="177.07360377199998" text-anchor="start" dominant-baseline="alphabetic" xml:space="preserve">Go to Create Group popup</text></g><g><path fill="none" stroke="black" paint-order="fill stroke markers" d=" M 89.84361815 183.607685092 L 383.13300452076044 183.607685092" stroke-miterlimit="10" stroke-width="1.3612669416666667" stroke-dasharray=""/><g transform="translate(396.5823219044271,183.607685092) translate(-396.5823219044271,-183.607685092)"><path fill="black" stroke="none" paint-order="stroke fill markers" d=" M 382.9696524877604 176.80135038366666 L 396.5823219044271 183.607685092 L 382.9696524877604 190.41401980033334 Z"/></g></g><g><g><rect fill="white" stroke="none" x="147.8636493100456" y="208.110490042" width="190.69864143433594" height="21.23576429"/></g><text fill="black" stroke="none" font-family="sans-serif" font-size="11pt" font-style="normal" font-weight="normal" text-decoration="normal" x="150.31392980504557" y="222.812173012" text-anchor="start" dominant-baseline="alphabetic" xml:space="preserve">Display Create Group popup</text></g><g><path fill="none" stroke="black" paint-order="fill stroke markers" d=" M 396.5823219044271 229.346254332 L 103.29293553366666 229.346254332" stroke-miterlimit="10" stroke-width="1.3612669416666667" stroke-dasharray="6.53408132"/><g transform="translate(89.84361815,229.346254332) translate(-89.84361815,-229.346254332)"><path fill="black" stroke="none" paint-order="stroke fill markers" d=" M 103.45628756666666 222.53991962366666 L 89.84361815 229.346254332 L 103.45628756666666 236.15258904033334 Z"/></g></g><g><g><rect fill="white" stroke="none" x="156.42485231297528" y="253.849059282" width="173.57623542847656" height="21.23576429"/></g><text fill="black" stroke="none" font-family="sans-serif" font-size="11pt" font-style="normal" font-weight="normal" text-decoration="normal" x="158.87513280797526" y="268.550742252" text-anchor="start" dominant-baseline="alphabetic" xml:space="preserve">Select Group type Course</text></g><g><path fill="none" stroke="black" paint-order="fill stroke markers" d=" M 89.84361815 275.084823572 L 383.13300452076044 275.084823572" stroke-miterlimit="10" stroke-width="1.3612669416666667" stroke-dasharray=""/><g transform="translate(396.5823219044271,275.084823572) translate(-396.5823219044271,-275.084823572)"><path fill="black" stroke="none" paint-order="stroke fill markers" d=" M 382.9696524877604 268.27848886366667 L 396.5823219044271 275.084823572 L 382.9696524877604 281.89115828033334 Z"/></g></g><g><g><rect fill="white" stroke="none" x="187.79564851658856" y="299.587628522" width="110.83464302125" height="21.23576429"/></g><g><rect fill="white" stroke="none" x="187.79564851658856" y="315.922831822" width="92.08018745484375" height="21.23576429"/></g><g><rect fill="white" stroke="none" x="187.79564851658856" y="332.25803512199997" width="107.5776850134375" height="21.23576429"/></g><text fill="black" stroke="none" font-family="sans-serif" font-size="11pt" font-style="normal" font-weight="normal" text-decoration="normal" x="190.24592901158854" y="314.28931149199997" text-anchor="start" dominant-baseline="alphabetic" xml:space="preserve">Search Syllabus</text><text fill="black" stroke="none" font-family="sans-serif" font-size="11pt" font-style="normal" font-weight="normal" text-decoration="normal" x="190.24592901158854" y="330.62451479199996" text-anchor="start" dominant-baseline="alphabetic" xml:space="preserve">Search Class</text><text fill="black" stroke="none" font-family="sans-serif" font-size="11pt" font-style="normal" font-weight="normal" text-decoration="normal" x="190.24592901158854" y="346.95971809199995" text-anchor="start" dominant-baseline="alphabetic" xml:space="preserve">Search Teacher</text></g><g><path fill="none" stroke="black" paint-order="fill stroke markers" d=" M 89.84361815 353.493799412 L 383.13300452076044 353.493799412" stroke-miterlimit="10" stroke-width="1.3612669416666667" stroke-dasharray=""/><g transform="translate(396.5823219044271,353.493799412) translate(-396.5823219044271,-353.493799412)"><path fill="black" stroke="none" paint-order="stroke fill markers" d=" M 382.9696524877604 346.68746470366665 L 396.5823219044271 353.493799412 L 382.9696524877604 360.3001341203333 Z"/></g></g><g><g><rect fill="white" stroke="none" x="432.2475157760937" y="377.99660436199997" width="35.03657783570313" height="21.23576429"/></g><g><rect fill="white" stroke="none" x="432.2475157760937" y="394.33180766199996" width="173.19684089722656" height="21.23576429"/></g><g><rect fill="white" stroke="none" x="432.2475157760937" y="410.66701096199995" width="127.9570795446875" height="21.23576429"/></g><text fill="black" stroke="none" font-family="sans-serif" font-size="11pt" font-style="normal" font-weight="normal" text-decoration="normal" x="434.6977962710937" y="392.69828733199995" text-anchor="start" dominant-baseline="alphabetic" xml:space="preserve">GET</text><text fill="black" stroke="none" font-family="sans-serif" font-size="11pt" font-style="normal" font-weight="normal" text-decoration="normal" x="434.6977962710937" y="409.03349063199994" text-anchor="start" dominant-baseline="alphabetic" xml:space="preserve">/api/search?entity={entity}</text><text fill="black" stroke="none" font-family="sans-serif" font-size="11pt" font-style="normal" font-weight="normal" text-decoration="normal" x="434.6977962710937" y="425.3686939319999" text-anchor="start" dominant-baseline="alphabetic" xml:space="preserve">&amp;{paramToSearch}</text></g><g><path fill="none" stroke="black" paint-order="fill stroke markers" d=" M 412.9175252044271 431.90277525199997 L 611.3250298613202 431.90277525199997" stroke-miterlimit="10" stroke-width="1.3612669416666667" stroke-dasharray=""/><g transform="translate(624.7743472449869,431.90277525199997) translate(-624.7743472449869,-431.90277525199997)"><path fill="black" stroke="none" paint-order="stroke fill markers" d=" M 611.1616778283202 425.09644054366663 L 624.7743472449869 431.90277525199997 L 611.1616778283202 438.7091099603333 Z"/></g></g><g><g><rect fill="white" stroke="none" x="484.62401876681633" y="456.40558020199995" width="68.44383491578125" height="21.23576429"/></g><text fill="black" stroke="none" font-family="sans-serif" font-size="11pt" font-style="normal" font-weight="normal" text-decoration="normal" x="487.07429926181635" y="471.10726317199993" text-anchor="start" dominant-baseline="alphabetic" xml:space="preserve">Result list</text></g><g><path fill="none" stroke="black" paint-order="fill stroke markers" d=" M 624.7743472449869 477.641344492 L 426.36684258809373 477.641344492" stroke-miterlimit="10" stroke-width="1.3612669416666667" stroke-dasharray="6.53408132"/><g transform="translate(412.9175252044271,477.641344492) translate(-412.9175252044271,-477.641344492)"><path fill="black" stroke="none" paint-order="stroke fill markers" d=" M 426.53019462109376 470.83500978366664 L 412.9175252044271 477.641344492 L 426.53019462109376 484.4476792003333 Z"/></g></g><g><g><rect fill="white" stroke="none" x="204.09483522313153" y="546.2491983519999" width="78.23626960816406" height="21.23576429"/></g><text fill="black" stroke="none" font-family="sans-serif" font-size="11pt" font-style="normal" font-weight="normal" text-decoration="normal" x="206.5451157181315" y="560.9508813219999" text-anchor="start" dominant-baseline="alphabetic" xml:space="preserve">No Options</text></g><g><path fill="none" stroke="black" paint-order="fill stroke markers" d=" M 396.5823219044271 567.4849626419999 L 103.29293553366666 567.4849626419999" stroke-miterlimit="10" stroke-width="1.3612669416666667" stroke-dasharray="6.53408132"/><g transform="translate(89.84361815,567.4849626419999) translate(-89.84361815,-567.4849626419999)"><path fill="black" stroke="none" paint-order="stroke fill markers" d=" M 103.45628756666666 560.6786279336666 L 89.84361815 567.4849626419999 L 103.45628756666666 574.2912973503333 Z"/></g></g><g><g><rect fill="white" stroke="none" x="176.3890704526237" y="636.0928165019998" width="133.6477991491797" height="21.23576429"/></g><text fill="black" stroke="none" font-family="sans-serif" font-size="11pt" font-style="normal" font-weight="normal" text-decoration="normal" x="178.8393509476237" y="650.7944994719998" text-anchor="start" dominant-baseline="alphabetic" xml:space="preserve">Syllabus options list</text></g><g><path fill="none" stroke="black" paint-order="fill stroke markers" d=" M 396.5823219044271 657.3285807919998 L 103.29293553366666 657.3285807919998" stroke-miterlimit="10" stroke-width="1.3612669416666667" stroke-dasharray="6.53408132"/><g transform="translate(89.84361815,657.3285807919998) translate(-89.84361815,-657.3285807919998)"><path fill="black" stroke="none" paint-order="stroke fill markers" d=" M 103.45628756666666 650.5222460836665 L 89.84361815 657.3285807919998 L 103.45628756666666 664.1349155003331 Z"/></g></g><g><g><rect fill="white" stroke="none" x="190.64818757908856" y="681.8313857419997" width="105.12956489625" height="21.23576429"/></g><text fill="black" stroke="none" font-family="sans-serif" font-size="11pt" font-style="normal" font-weight="normal" text-decoration="normal" x="193.09846807408854" y="696.5330687119997" text-anchor="start" dominant-baseline="alphabetic" xml:space="preserve">Select Syllabus</text></g><g><path fill="none" stroke="black" paint-order="fill stroke markers" d=" M 89.84361815 703.0671500319997 L 383.13300452076044 703.0671500319997" stroke-miterlimit="10" stroke-width="1.3612669416666667" stroke-dasharray=""/><g transform="translate(396.5823219044271,703.0671500319997) translate(-396.5823219044271,-703.0671500319997)"><path fill="black" stroke="none" paint-order="stroke fill markers" d=" M 382.9696524877604 696.2608153236664 L 396.5823219044271 703.0671500319997 L 382.9696524877604 709.8734847403331 Z"/></g></g><g><g><rect fill="white" stroke="none" x="185.76629823582684" y="727.5699549819997" width="114.89334358277344" height="21.23576429"/></g><text fill="black" stroke="none" font-family="sans-serif" font-size="11pt" font-style="normal" font-weight="normal" text-decoration="normal" x="188.21657873082682" y="742.2716379519997" text-anchor="start" dominant-baseline="alphabetic" xml:space="preserve">Class options list</text></g><g><path fill="none" stroke="black" paint-order="fill stroke markers" d=" M 396.5823219044271 748.8057192719997 L 103.29293553366666 748.8057192719997" stroke-miterlimit="10" stroke-width="1.3612669416666667" stroke-dasharray="6.53408132"/><g transform="translate(89.84361815,748.8057192719997) translate(-89.84361815,-748.8057192719997)"><path fill="black" stroke="none" paint-order="stroke fill markers" d=" M 103.45628756666666 741.9993845636664 L 89.84361815 748.8057192719997 L 103.45628756666666 755.612053980333 Z"/></g></g><g><g><rect fill="white" stroke="none" x="200.02541536229168" y="773.3085242219996" width="86.37510932984375" height="21.23576429"/></g><text fill="black" stroke="none" font-family="sans-serif" font-size="11pt" font-style="normal" font-weight="normal" text-decoration="normal" x="202.47569585729167" y="788.0102071919996" text-anchor="start" dominant-baseline="alphabetic" xml:space="preserve">Select Class</text></g><g><path fill="none" stroke="black" paint-order="fill stroke markers" d=" M 89.84361815 794.5442885119996 L 383.13300452076044 794.5442885119996" stroke-miterlimit="10" stroke-width="1.3612669416666667" stroke-dasharray=""/><g transform="translate(396.5823219044271,794.5442885119996) translate(-396.5823219044271,-794.5442885119996)"><path fill="black" stroke="none" paint-order="stroke fill markers" d=" M 382.9696524877604 787.7379538036663 L 396.5823219044271 794.5442885119996 L 382.9696524877604 801.350623220333 Z"/></g></g><g><g><rect fill="white" stroke="none" x="178.01754945652996" y="819.0470934619996" width="130.3908411413672" height="21.23576429"/></g><text fill="black" stroke="none" font-family="sans-serif" font-size="11pt" font-style="normal" font-weight="normal" text-decoration="normal" x="180.46782995152995" y="833.7487764319995" text-anchor="start" dominant-baseline="alphabetic" xml:space="preserve">Teacher options list</text></g><g><path fill="none" stroke="black" paint-order="fill stroke markers" d=" M 396.5823219044271 840.2828577519996 L 103.29293553366666 840.2828577519996" stroke-miterlimit="10" stroke-width="1.3612669416666667" stroke-dasharray="6.53408132"/><g transform="translate(89.84361815,840.2828577519996) translate(-89.84361815,-840.2828577519996)"><path fill="black" stroke="none" paint-order="stroke fill markers" d=" M 103.45628756666666 833.4765230436662 L 89.84361815 840.2828577519996 L 103.45628756666666 847.0891924603329 Z"/></g></g><g><g><rect fill="white" stroke="none" x="142.97819703953778" y="864.7856627019995" width="200.46954597535156" height="21.23576429"/></g><text fill="black" stroke="none" font-family="sans-serif" font-size="11pt" font-style="normal" font-weight="normal" text-decoration="normal" x="145.42847753453776" y="879.4873456719995" text-anchor="start" dominant-baseline="alphabetic" xml:space="preserve">Select Teacher and click Save</text></g><g><path fill="none" stroke="black" paint-order="fill stroke markers" d=" M 89.84361815 886.0214269919995 L 383.13300452076044 886.0214269919995" stroke-miterlimit="10" stroke-width="1.3612669416666667" stroke-dasharray=""/><g transform="translate(396.5823219044271,886.0214269919995) translate(-396.5823219044271,-886.0214269919995)"><path fill="black" stroke="none" paint-order="stroke fill markers" d=" M 382.9696524877604 879.2150922836662 L 396.5823219044271 886.0214269919995 L 382.9696524877604 892.8277617003329 Z"/></g></g><g><g><rect fill="white" stroke="none" x="557.0389184257356" y="910.5242319419995" width="116.53976692261719" height="21.23576429"/></g><text fill="black" stroke="none" font-family="sans-serif" font-size="11pt" font-style="normal" font-weight="normal" text-decoration="normal" x="559.4891989207356" y="925.2259149119994" text-anchor="start" dominant-baseline="alphabetic" xml:space="preserve">POST: /api/group</text></g><g><path fill="none" stroke="black" paint-order="fill stroke markers" d=" M 412.9175252044271 931.7599962319995 L 804.2507611859947 931.7599962319995" stroke-miterlimit="10" stroke-width="1.3612669416666667" stroke-dasharray=""/><g transform="translate(817.7000785696614,931.7599962319995) translate(-817.7000785696614,-931.7599962319995)"><path fill="black" stroke="none" paint-order="stroke fill markers" d=" M 804.0874091529947 924.9536615236661 L 817.7000785696614 931.7599962319995 L 804.0874091529947 938.5663309403328 Z"/></g></g><g><g><rect fill="white" stroke="none" x="458.04826443403635" y="1000.3678500919993" width="314.5210749060156" height="21.23576429"/></g><text fill="red" stroke="none" font-family="sans-serif" font-size="11pt" font-style="normal" font-weight="normal" text-decoration="normal" x="460.49854492903637" y="1015.0695330619993" text-anchor="start" dominant-baseline="alphabetic" xml:space="preserve">400 BAD_REQUEST: Missing required property</text></g><g><path fill="none" stroke="black" paint-order="fill stroke markers" d=" M 817.7000785696614 1021.6036143819994 L 426.36684258809373 1021.6036143819994" stroke-miterlimit="10" stroke-width="1.3612669416666667" stroke-dasharray="6.53408132"/><g transform="translate(412.9175252044271,1021.6036143819994) translate(-412.9175252044271,-1021.6036143819994)"><path fill="black" stroke="none" paint-order="stroke fill markers" d=" M 426.53019462109376 1014.797279673666 L 412.9175252044271 1021.6036143819994 L 426.53019462109376 1028.4099490903327 Z"/></g></g><g><g><rect fill="white" stroke="none" x="111.21013826268229" y="1046.1064193319994" width="264.0056635290625" height="21.23576429"/></g><text fill="black" stroke="none" font-family="sans-serif" font-size="11pt" font-style="normal" font-weight="normal" text-decoration="normal" x="113.6604187576823" y="1060.8081023019995" text-anchor="start" dominant-baseline="alphabetic" xml:space="preserve">Syllabus or Class or Teacher is required</text></g><g><path fill="none" stroke="black" paint-order="fill stroke markers" d=" M 396.5823219044271 1067.3421836219993 L 103.29293553366666 1067.3421836219993" stroke-miterlimit="10" stroke-width="1.3612669416666667" stroke-dasharray="6.53408132"/><g transform="translate(89.84361815,1067.3421836219993) translate(-89.84361815,-1067.3421836219993)"><path fill="black" stroke="none" paint-order="stroke fill markers" d=" M 103.45628756666666 1060.535848913666 L 89.84361815 1067.3421836219993 L 103.45628756666666 1074.1485183303325 Z"/></g></g><g><g><rect fill="white" stroke="none" x="855.4089354662304" y="1135.9500374819995" width="158.90193428101563" height="21.23576429"/></g><text fill="black" stroke="none" font-family="sans-serif" font-size="11pt" font-style="normal" font-weight="normal" text-decoration="normal" x="857.8592159612305" y="1150.6517204519996" text-anchor="start" dominant-baseline="alphabetic" xml:space="preserve">generateName(Course)</text></g><g><path fill="none" stroke="black" paint-order="fill stroke markers" d=" M 834.0352818696615 1157.1858017719994 L 1022.2352059601484 1157.1858017719994" stroke-miterlimit="10" stroke-width="1.3612669416666667" stroke-dasharray=""/><g transform="translate(1035.684523343815,1157.1858017719994) translate(-1035.684523343815,-1157.1858017719994)"><path fill="black" stroke="none" paint-order="stroke fill markers" d=" M 1022.0718539271484 1150.3794670636662 L 1035.684523343815 1157.1858017719994 L 1022.0718539271484 1163.9921364803326 Z"/></g></g><path fill="white" stroke="black" paint-order="fill stroke markers" d=" M 1052.0197266438151 1208.6416921669995 L 1060.1873282938152 1208.6416921669995 M 1060.1873282938152 1181.6886067219993 L 1295.7624530892058 1181.6886067219993 L 1310.4641360592059 1196.3902896919994 L 1310.4641360592059 1235.5947776119995 L 1060.1873282938152 1235.5947776119995 L 1060.1873282938152 1181.6886067219993 M 1295.7624530892058 1181.6886067219993 L 1295.7624530892058 1196.3902896919994 L 1310.4641360592059 1196.3902896919994" stroke-miterlimit="10" stroke-width="1.3612669416666667" stroke-dasharray=""/><g><text fill="black" stroke="none" font-family="sans-serif" font-size="11pt" font-style="normal" font-weight="normal" text-decoration="normal" x="1083.0566129138151" y="1204.5578913419997" text-anchor="start" dominant-baseline="alphabetic" xml:space="preserve">Name of Course will be depend</text><text fill="black" stroke="none" font-family="sans-serif" font-size="11pt" font-style="normal" font-weight="normal" text-decoration="normal" x="1083.0566129138151" y="1220.8930946419998" text-anchor="start" dominant-baseline="alphabetic" xml:space="preserve">on the Class and Syllabus</text></g><g><g><rect fill="white" stroke="none" x="883.3437880663281" y="1260.0975825619996" width="103.03222908082031" height="21.23576429"/></g><text fill="black" stroke="none" font-family="sans-serif" font-size="11pt" font-style="normal" font-weight="normal" text-decoration="normal" x="885.7940685613281" y="1274.7992655319997" text-anchor="start" dominant-baseline="alphabetic" xml:space="preserve">Course's name</text></g><g><path fill="none" stroke="black" paint-order="fill stroke markers" d=" M 1035.684523343815 1281.3333468519995 L 847.4845992533282 1281.3333468519995" stroke-miterlimit="10" stroke-width="1.3612669416666667" stroke-dasharray="6.53408132"/><g transform="translate(834.0352818696615,1281.3333468519995) translate(-834.0352818696615,-1281.3333468519995)"><path fill="black" stroke="none" paint-order="stroke fill markers" d=" M 847.6479512863282 1274.5270121436663 L 834.0352818696615 1281.3333468519995 L 847.6479512863282 1288.1396815603327 Z"/></g></g><g><g><rect fill="white" stroke="none" x="853.3652724413281" y="1305.8361518019994" width="162.98926033082031" height="21.23576429"/></g><g><rect fill="white" stroke="none" x="853.3652724413281" y="1322.1713551019996" width="153.19684089722656" height="21.23576429"/></g><text fill="black" stroke="none" font-family="sans-serif" font-size="11pt" font-style="normal" font-weight="normal" text-decoration="normal" x="855.8155529363281" y="1320.5378347719995" text-anchor="start" dominant-baseline="alphabetic" xml:space="preserve">Set teacher is an admin </text><text fill="black" stroke="none" font-family="sans-serif" font-size="11pt" font-style="normal" font-weight="normal" text-decoration="normal" x="855.8155529363281" y="1336.8730380719996" text-anchor="start" dominant-baseline="alphabetic" xml:space="preserve">of group by setAdmin()</text></g><g><path fill="none" stroke="black" paint-order="fill stroke markers" d=" M 834.0352818696615 1343.4071193919995 L 1022.2352059601484 1343.4071193919995" stroke-miterlimit="10" stroke-width="1.3612669416666667" stroke-dasharray=""/><g transform="translate(1035.684523343815,1343.4071193919995) translate(-1035.684523343815,-1343.4071193919995)"><path fill="black" stroke="none" paint-order="stroke fill markers" d=" M 1022.0718539271484 1336.6007846836662 L 1035.684523343815 1343.4071193919995 L 1022.0718539271484 1350.2134541003327 Z"/></g></g><g><g><rect fill="white" stroke="none" x="912.044570842207" y="1367.9099243419996" width="45.6306635290625" height="21.23576429"/></g><text fill="black" stroke="none" font-family="sans-serif" font-size="11pt" font-style="normal" font-weight="normal" text-decoration="normal" x="914.494851337207" y="1382.6116073119997" text-anchor="start" dominant-baseline="alphabetic" xml:space="preserve">save()</text></g><g><path fill="none" stroke="black" paint-order="fill stroke markers" d=" M 834.0352818696615 1389.1456886319995 L 1022.2352059601484 1389.1456886319995" stroke-miterlimit="10" stroke-width="1.3612669416666667" stroke-dasharray=""/><g transform="translate(1035.684523343815,1389.1456886319995) translate(-1035.684523343815,-1389.1456886319995)"><path fill="black" stroke="none" paint-order="stroke fill markers" d=" M 1022.0718539271484 1382.3393539236663 L 1035.684523343815 1389.1456886319995 L 1022.0718539271484 1395.9520233403327 Z"/></g></g><g><g><rect fill="white" stroke="none" x="1162.5104004119792" y="1413.6484935819997" width="45.6306635290625" height="21.23576429"/></g><text fill="black" stroke="none" font-family="sans-serif" font-size="11pt" font-style="normal" font-weight="normal" text-decoration="normal" x="1164.9606809069792" y="1428.3501765519998" text-anchor="start" dominant-baseline="alphabetic" xml:space="preserve">save()</text></g><g><path fill="none" stroke="black" paint-order="fill stroke markers" d=" M 1052.0197266438151 1434.8842578719996 L 1305.182420325539 1434.8842578719996" stroke-miterlimit="10" stroke-width="1.3612669416666667" stroke-dasharray=""/><g transform="translate(1318.6317377092057,1434.8842578719996) translate(-1318.6317377092057,-1434.8842578719996)"><path fill="black" stroke="none" paint-order="stroke fill markers" d=" M 1305.019068292539 1428.0779231636664 L 1318.6317377092057 1434.8842578719996 L 1305.019068292539 1441.6905925803328 Z"/></g></g><g><g><rect fill="white" stroke="none" x="1126.243394491569" y="1459.3870628219997" width="118.16467536988281" height="21.23576429"/></g><text fill="black" stroke="none" font-family="sans-serif" font-size="11pt" font-style="normal" font-weight="normal" text-decoration="normal" x="1128.693674986569" y="1474.0887457919998" text-anchor="start" dominant-baseline="alphabetic" xml:space="preserve">New Course data</text></g><g><path fill="none" stroke="black" paint-order="fill stroke markers" d=" M 1318.6317377092057 1480.6228271119996 L 1065.469044027482 1480.6228271119996" stroke-miterlimit="10" stroke-width="1.3612669416666667" stroke-dasharray="6.53408132"/><g transform="translate(1052.0197266438151,1480.6228271119996) translate(-1052.0197266438151,-1480.6228271119996)"><path fill="black" stroke="none" paint-order="stroke fill markers" d=" M 1065.6323960604818 1473.8164924036664 L 1052.0197266438151 1480.6228271119996 L 1065.6323960604818 1487.4291618203329 Z"/></g></g><g><g><rect fill="white" stroke="none" x="875.7775649217969" y="1505.1256320619998" width="118.16467536988281" height="21.23576429"/></g><text fill="black" stroke="none" font-family="sans-serif" font-size="11pt" font-style="normal" font-weight="normal" text-decoration="normal" x="878.2278454167969" y="1519.827315032" text-anchor="start" dominant-baseline="alphabetic" xml:space="preserve">New Course data</text></g><g><path fill="none" stroke="black" paint-order="fill stroke markers" d=" M 1035.684523343815 1526.3613963519997 L 847.4845992533282 1526.3613963519997" stroke-miterlimit="10" stroke-width="1.3612669416666667" stroke-dasharray="6.53408132"/><g transform="translate(834.0352818696615,1526.3613963519997) translate(-834.0352818696615,-1526.3613963519997)"><path fill="black" stroke="none" paint-order="stroke fill markers" d=" M 847.6479512863282 1519.5550616436665 L 834.0352818696615 1526.3613963519997 L 847.6479512863282 1533.167731060333 Z"/></g></g><g><g><rect fill="white" stroke="none" x="564.1112069389192" y="1550.8642013019999" width="102.39518989625" height="21.23576429"/></g><text fill="green" stroke="none" font-family="sans-serif" font-size="11pt" font-style="normal" font-weight="normal" text-decoration="normal" x="566.5614874339192" y="1565.565884272" text-anchor="start" dominant-baseline="alphabetic" xml:space="preserve">201 CREATED</text></g><g><path fill="none" stroke="black" paint-order="fill stroke markers" d=" M 817.7000785696614 1572.0999655919998 L 426.36684258809373 1572.0999655919998" stroke-miterlimit="10" stroke-width="1.3612669416666667" stroke-dasharray="6.53408132"/><g transform="translate(412.9175252044271,1572.0999655919998) translate(-412.9175252044271,-1572.0999655919998)"><path fill="black" stroke="none" paint-order="stroke fill markers" d=" M 426.53019462109376 1565.2936308836665 L 412.9175252044271 1572.0999655919998 L 426.53019462109376 1578.906300300333 Z"/></g></g><g><g><rect fill="white" stroke="none" x="109.17360872166667" y="1596.602770542" width="268.0787226110937" height="21.23576429"/></g><text fill="black" stroke="none" font-family="sans-serif" font-size="11pt" font-style="normal" font-weight="normal" text-decoration="normal" x="111.62388921666667" y="1611.304453512" text-anchor="start" dominant-baseline="alphabetic" xml:space="preserve">Display Group list table with new Course</text></g><g><path fill="none" stroke="black" paint-order="fill stroke markers" d=" M 396.5823219044271 1617.8385348319998 L 103.29293553366666 1617.8385348319998" stroke-miterlimit="10" stroke-width="1.3612669416666667" stroke-dasharray="6.53408132"/><g transform="translate(89.84361815,1617.8385348319998) translate(-89.84361815,-1617.8385348319998)"><path fill="black" stroke="none" paint-order="stroke fill markers" d=" M 103.45628756666666 1611.0322001236666 L 89.84361815 1617.8385348319998 L 103.45628756666666 1624.644869540333 Z"/></g></g><g><g/><path fill="none" stroke="black" paint-order="fill stroke markers" d=" M 16.335203300000003 502.14414944199996 L 1400.3077542092058 502.14414944199996 L 1400.3077542092058 1666.8441447319997 L 16.335203300000003 1666.8441447319997 L 16.335203300000003 502.14414944199996 Z" stroke-miterlimit="10" stroke-width="2.3336004714285714" stroke-dasharray=""/><path fill="white" stroke="black" paint-order="fill stroke markers" d=" M 16.335203300000003 502.14414944199996 L 16.335203300000003 521.746393402 L 62.694406897070316 521.746393402 L 72.49552887707031 511.94527142199996 L 72.49552887707031 502.14414944199996 L 16.335203300000003 502.14414944199996" stroke-miterlimit="10" stroke-width="2.3336004714285714" stroke-dasharray=""/><text fill="black" stroke="none" font-family="sans-serif" font-size="8.8pt" font-style="normal" font-weight="bold" text-decoration="normal" x="32.67040660000001" y="515.2123120819999" text-anchor="start" dominant-baseline="alphabetic" xml:space="preserve">alt</text><g><rect fill="white" stroke="none" x="86.38045168207032" y="503.4509657059999" width="215.40452827515625" height="16.988611432000003"/></g><text fill="black" stroke="none" font-family="sans-serif" font-size="8.8pt" font-style="normal" font-weight="bold" text-decoration="normal" x="88.83073217707032" y="515.2123120819999" text-anchor="start" dominant-baseline="alphabetic" xml:space="preserve">[if there are not data match condition]</text><g><path fill="none" stroke="black" paint-order="fill stroke markers" d=" M 16.335203300000003 591.9877675919998 L 1400.3077542092058 591.9877675919998" stroke-miterlimit="10" stroke-width="2.3336004714285714" stroke-dasharray="4.083800825"/></g><g/><g><rect fill="white" stroke="none" x="86.38045168207032" y="593.2945838559998" width="36.84300483765625" height="16.988611432000003"/></g><text fill="black" stroke="none" font-family="sans-serif" font-size="8.8pt" font-style="normal" font-weight="bold" text-decoration="normal" x="88.83073217707032" y="605.0559302319998" text-anchor="start" dominant-baseline="alphabetic" xml:space="preserve">[Else]</text></g><g/><g><g/><path fill="none" stroke="black" paint-order="fill stroke markers" d=" M 32.6704066 956.2628011819994 L 1383.9725509092057 956.2628011819994 L 1383.9725509092057 1642.3413397819997 L 32.6704066 1642.3413397819997 L 32.6704066 956.2628011819994 Z" stroke-miterlimit="10" stroke-width="2.3336004714285714" stroke-dasharray=""/><path fill="white" stroke="black" paint-order="fill stroke markers" d=" M 32.6704066 956.2628011819994 L 32.6704066 975.8650451419994 L 79.02961019707031 975.8650451419994 L 88.83073217707032 966.0639231619994 L 88.83073217707032 956.2628011819994 L 32.6704066 956.2628011819994" stroke-miterlimit="10" stroke-width="2.3336004714285714" stroke-dasharray=""/><text fill="black" stroke="none" font-family="sans-serif" font-size="8.8pt" font-style="normal" font-weight="bold" text-decoration="normal" x="49.005609899999996" y="969.3309638219994" text-anchor="start" dominant-baseline="alphabetic" xml:space="preserve">alt</text><g><rect fill="white" stroke="none" x="102.71565498207032" y="957.5696174459994" width="194.56775154175781" height="16.988611432000003"/></g><text fill="black" stroke="none" font-family="sans-serif" font-size="8.8pt" font-style="normal" font-weight="bold" text-decoration="normal" x="105.16593547707032" y="969.3309638219994" text-anchor="start" dominant-baseline="alphabetic" xml:space="preserve">[if there is field do not have value]</text><g><path fill="none" stroke="black" paint-order="fill stroke markers" d=" M 32.6704066 1091.8449885719995 L 1383.9725509092057 1091.8449885719995" stroke-miterlimit="10" stroke-width="2.3336004714285714" stroke-dasharray="4.083800825"/></g><g/><g><rect fill="white" stroke="none" x="102.71565498207032" y="1093.1518048359994" width="36.84300483765625" height="16.988611432000003"/></g><text fill="black" stroke="none" font-family="sans-serif" font-size="8.8pt" font-style="normal" font-weight="bold" text-decoration="normal" x="105.16593547707032" y="1104.9131512119993" text-anchor="start" dominant-baseline="alphabetic" xml:space="preserve">[Else]</text></g><g/></g></g></svg>