<svg version="1.1" xmlns="http://www.w3.org/2000/svg" xmlns:xlink="http://www.w3.org/1999/xlink" width="1050" height="1183"><desc>title%20Update%20Curriculum%0A%0Aactor%20%23green%3A0.5%20%22Workspace%20Admin%22%20as%20w%0Aboundary%20%22Update%20Curriculum%20popup%22%20as%20f%0Acontrol%20%22Curriculum%20Controller%22%20as%20gc%0Aparticipant%20%22Curriculum%20Service%22%20as%20gs%0Adatabase%20%23blue%3A1%20%22Database%22%20as%20db%0A%0Aw-%3Ef%3AClick%20Edit%20button%0Aactivate%20f%0Aw%3C--f%3ADisplay%20Update%20Curriculum%20popup%0Aw-%3Ef%3AType%20information%20of%20Curriculum%0Af-%3Ef%3AValidate%20input%20data%0Aactivate%20f%0Af--%3Ef%3A%20Validate%20value%0Adeactivate%20f%0Aalt%20If%20the%20input%20data%20is%20wrong%0Aw%3C--f%3AValidate%20Message%0Aend%0Aw-%3Ef%3AClick%20save%0Af-%3Egc%3APUT%3A%20%2Fapi%2Fcurriculum%0Aactivate%20gc%0Aalt%20If%20there%20is%20required%20field%20do%20not%20have%20value%0Af%3C--gc%3A%3Ccolor%3A%23red%3E400%20BAD_REQUEST%3A%20%5CnMissing%20required%20property%3C%2Fcolor%3E%0Aw%3C--f%3AMessage%20is%20required%0Aelse%20Else%0A%0Agc-%3Egs%3Asave()%0Aactivate%20gs%0Ags-%3Edb%3AUpdate%20Curriculum%0Aactivate%20db%0Ags%3C--db%3ACurriculum%20data%0Adeactivate%20db%0Agc%3C--gs%3ACurriculum%20data%0Adeactivate%20gs%0Af%3C--gc%3A%3Ccolor%3A%23green%3E200%20OK%5CnResponse%20body%3ACurriculum%20data%3C%2Fcolor%3E%0Adeactivate%20gc%0Aw%3C--f%3A%20Display%20Curriculum%20detail%0Adeactivate%20f%0Aend</desc><defs/><g><g/><g/><g/><g/><g/><g/><g/><g/><g/><g/><g/><g/><g/><g/><g/><g/><g/><g/><g/><g/><g/><g/><g/><g><rect fill="white" stroke="none" x="0" y="0" width="1050" height="1183"/></g><g><text fill="black" stroke="none" font-family="sans-serif" font-size="16.5pt" font-style="normal" font-weight="normal" text-decoration="normal" x="433.75407873644144" y="24.50280495" text-anchor="start" dominant-baseline="alphabetic" xml:space="preserve">Update Curriculum</text></g><g/><g><path fill="none" stroke="black" paint-order="fill stroke markers" d=" M 73.50841485 129.701514202 L 73.50841485 1183.3221270519996" stroke-miterlimit="10" stroke-width="1.3612669416666667" stroke-dasharray="12.565541,5.445067766666667"/><path fill="none" stroke="black" paint-order="fill stroke markers" d=" M 344.42759867239585 129.701514202 L 344.42759867239585 1183.3221270519996" stroke-miterlimit="10" stroke-width="1.3612669416666667" stroke-dasharray="12.565541,5.445067766666667"/><path fill="none" stroke="black" paint-order="fill stroke markers" d=" M 621.9110507361979 129.701514202 L 621.9110507361979 1183.3221270519996" stroke-miterlimit="10" stroke-width="1.3612669416666667" stroke-dasharray="12.565541,5.445067766666667"/><path fill="none" stroke="black" paint-order="fill stroke markers" d=" M 787.1259249584948 129.701514202 L 787.1259249584948 1183.3221270519996" stroke-miterlimit="10" stroke-width="1.3612669416666667" stroke-dasharray="12.565541,5.445067766666667"/><path fill="none" stroke="black" paint-order="fill stroke markers" d=" M 969.2335081603828 129.701514202 L 969.2335081603828 1183.3221270519996" stroke-miterlimit="10" stroke-width="1.3612669416666667" stroke-dasharray="12.565541,5.445067766666667"/></g><g><g><path fill="white" stroke="green" paint-order="fill stroke markers" d=" M 82.819480731 60.60360424300001 A 9.311065881 9.311065881 0 1 1 82.81947607546743 60.594293178670846 M 73.50841485 69.91467012400001 L 73.50841485 89.84361815000001 M 61.747068473999995 77.102159576 L 85.26976122599999 77.102159576 M 73.50841485 89.84361815000001 L 61.747068473999995 108.465749912 M 73.50841485 89.84361815000001 L 85.26976122599999 108.465749912" stroke-miterlimit="10" stroke-width="1.3884922805000002" stroke-dasharray=""/></g><g><text fill="black" stroke="none" font-family="sans-serif" font-size="11pt" font-style="normal" font-weight="normal" text-decoration="normal" x="14.166991815332025" y="124.80095321200001" text-anchor="start" dominant-baseline="alphabetic" xml:space="preserve">Workspace Admin</text></g><g><path fill="white" stroke="black" paint-order="fill stroke markers" d=" M 376.85297722289584 82.819480731 A 24.2577769005 24.2577769005 0 1 1 376.8529650940084 82.79522295814245 M 313.3907124023958 57.17321154999999 L 313.3907124023958 108.465749912 M 312.00222012189585 82.819480731 L 328.33742342189583 82.819480731" stroke-miterlimit="10" stroke-width="2.7769845610000004" stroke-dasharray=""/></g><g><text fill="black" stroke="none" font-family="sans-serif" font-size="11pt" font-style="normal" font-weight="normal" text-decoration="normal" x="260.9022156767904" y="124.80095321200001" text-anchor="start" dominant-baseline="alphabetic" xml:space="preserve">Update Curriculum popup</text></g><g><path fill="white" stroke="black" paint-order="fill stroke markers" d=" M 646.1688276366979 82.819480731 A 24.2577769005 24.2577769005 0 1 1 646.1688155078105 82.79522295814245 M 618.6440100761979 58.561703830499994 L 628.4451320561978 50.39410218049999 M 618.6440100761979 58.561703830499994 L 628.4451320561978 66.72930548049999" stroke-miterlimit="10" stroke-width="2.7769845610000004" stroke-dasharray=""/></g><g><text fill="black" stroke="none" font-family="sans-serif" font-size="11pt" font-style="normal" font-weight="normal" text-decoration="normal" x="552.6662768714518" y="124.80095321200001" text-anchor="start" dominant-baseline="alphabetic" xml:space="preserve">Curriculum Controller</text></g><path fill="none" stroke="none"/><g><path fill="white" stroke="black" paint-order="fill stroke markers" d=" M 707.491027900944 85.75981732500001 L 866.7608220160456 85.75981732500001 L 866.7608220160456 129.701514202 L 707.491027900944 129.701514202 L 707.491027900944 85.75981732500001 Z" stroke-miterlimit="10" stroke-width="2.613632528" stroke-dasharray=""/></g><g><text fill="black" stroke="none" font-family="sans-serif" font-size="11pt" font-style="normal" font-weight="normal" text-decoration="normal" x="725.214723481444" y="113.36631090200002" text-anchor="start" dominant-baseline="alphabetic" xml:space="preserve">Curriculum Service</text></g><g><path fill="white" stroke="blue" paint-order="fill stroke markers" d=" M 945.3841113423829 97.684515734 L 945.3841113423829 63.380588804000006 L 993.0829049783828 63.380588804000006 L 993.0829049783828 97.684515734" stroke-miterlimit="10" stroke-width="2.7769845610000004" stroke-dasharray=""/><path fill="white" stroke="blue" paint-order="fill stroke markers" d=" M 993.0829049783828 62.1881189631 L 993.0817125184791 62.29592950801663 L 993.078135258013 62.403729271968594 L 993.0721735547078 62.51150747506936 L 993.0638280047284 62.619253339588404 L 993.0530994426232 62.72695609102909 L 993.0399889412394 62.834604959206004 L 993.0244978116161 62.94218917932205 L 993.0066276028535 63.04969799304486 L 992.9863801019575 63.15712064958265 L 992.9637573336613 63.2644464067593 L 992.9387615602229 63.371664532088516 L 992.9113952811989 63.47876430384712 L 992.8816612331943 63.58573501214718 L 992.8495623895892 63.692565960007016 L 992.8151019602411 63.79924646442086 L 992.7782833911643 63.90576585742718 L 992.739110364185 64.01211348717543 L 992.6975867965732 64.11827871899126 L 992.6537168406512 64.22425093643996 L 992.6075048833778 64.3300195423881 L 992.5589555459105 64.43557396006322 L 992.5080736831425 64.54090363411153 L 992.4548643832176 64.64599803165338 L 992.3993329670213 64.75084664333659 L 992.3414849876493 64.85543898438739 L 992.2813262298512 64.95976459565881 L 992.2188627094525 65.06381304467668 L 992.1541006727533 65.16757392668278 L 992.0870465959033 65.27103686567541 L 992.0177071842544 65.37419151544687 L 991.9460893716897 65.47702756061814 L 991.872200319931 65.5795347176704 L 991.796047417822 65.68170273597339 L 991.7176382805892 65.7835213988104 L 991.6369807490811 65.88498052439998 L 991.5540828889837 65.98606996691414 L 991.4689529900138 66.08677961749288 L 991.3815995650904 66.18709940525505 L 991.2920313494832 66.28701929830548 L 991.2002572999392 66.38652930473813 L 991.1062865937868 66.48561947363528 L 991.0101286280182 66.58427989606261 L 990.9117930183501 66.6825007060601 L 990.8112895982613 66.7802720816286 L 990.7086284180101 66.87758424571203 L 990.6038197436291 66.97442746717506 L 990.4968740558982 67.07079206177627 L 990.3878020492972 67.1666683931365 L 990.2766146309359 67.2620468737025 L 990.1633229194633 67.35691796570569 L 990.0479382439564 67.45127218211596 L 989.9304721427864 67.54510008759026 L 989.8109363624654 67.63839229941624 L 989.6893428564722 67.73113948845047 L 989.5657037840558 67.82333238005134 L 989.4400315090204 67.9149617550065 L 989.312338598489 68.00601845045483 L 989.1826378216459 68.09649336080267 L 989.050942148461 68.18637743863435 L 988.9172647483917 68.27566169561702 L 988.7816189890668 68.36433720339936 L 988.644018434949 68.45239509450451 L 988.5044768459791 68.53982656321674 L 988.3630081761997 68.62662286646201 L 988.21962657236 68.71277532468237 L 988.0743463725008 68.79827532270376 L 987.927182104521 68.88311431059763 L 987.7781484847249 68.9672838045359 L 987.6272604163499 69.0507753876393 L 987.4745329880776 69.13358071081912 L 987.3199814725233 69.21569149361203 L 987.1636213247099 69.29709952500816 L 987.0054681805216 69.37779666427225 L 986.8455378551413 69.45777484175761 L 986.6838463414681 69.53702605971311 L 986.5204098085188 69.61554239308303 L 986.3552445998102 69.69331599029945 L 986.1883672317259 69.77033907406746 L 986.0197943918635 69.84660394214286 L 985.8495429373663 69.92210296810242 L 985.6776298932382 69.99682860210643 L 985.5040724506401 70.07077337165379 L 985.3288879651718 70.14392988232913 L 985.1520939551358 70.21629081854239 L 984.9737080997858 70.28784894426022 L 984.7937482375585 70.35859710372968 L 984.6122323642904 70.42852822219379 L 984.4291786314175 70.49763530659898 L 984.2446053441605 70.5659114462944 L 984.0585309596943 70.63334981372294 L 983.8709740853024 70.69994366510412 L 983.6819534765157 70.76568634110825 L 983.4914880352378 70.83057126752253 L 983.299596807854 70.89459195590838 L 983.1062989833272 70.95774200425032 L 982.9116138912786 71.02001509759614 L 982.7155610000555 71.08140500868842 L 982.5181599147833 71.14190559858717 L 982.3194303754062 71.20151081728383 L 982.1193922547125 71.26021470430622 L 981.9180655563475 71.31801138931453 L 981.7154704128135 71.37489509268845 L 981.5116270834557 71.43086012610503 L 981.3065559524374 71.48590089310757 L 981.1002775267007 71.54001188966522 L 980.8928124339163 71.59318770472345 L 980.6841814204206 71.64542302074504 L 980.4744053491412 71.69671261424193 L 980.2635051975102 71.7470513562975 L 980.0515020553671 71.79643421307951 L 979.8384171228495 71.84485624634341 L 979.6242717082731 71.89231261392625 L 979.4090872260008 71.93879857023082 L 979.1928851943015 71.9843094667002 L 978.9756872331984 72.02884075228269 L 978.7575150623064 72.07238797388683 L 978.5383904986609 72.11494677682676 L 978.3183354545355 72.15651290525764 L 978.0973719352514 72.19708220260128 L 977.8755220369765 72.23665061196175 L 977.6528079445154 72.27521417653107 L 977.429251929092 72.31276903998494 L 977.2048763461215 72.3493114468683 L 976.9797036329752 72.38483774297092 L 976.7537563067368 72.41934437569277 L 976.5270569619506 72.45282789439938 L 976.2996282683622 72.48528495076673 L 976.0714929686513 72.51671229911628 L 975.8426738761581 72.54710679673934 L 975.6131938726007 72.5764654042115 L 975.3830759057887 72.60478518569649 L 975.1523429873266 72.63206330923974 L 974.9210181903143 72.65829704705163 L 974.6891246470384 72.68348377578025 L 974.4566855466603 72.70762097677371 L 974.2237241328962 72.73070623633201 L 973.9902637016933 72.75273724594847 L 973.7563275989003 72.77371180254045 L 973.5219392179323 72.79362780866978 L 973.2871219974323 72.81248327275246 L 973.0518994189267 72.83027630925778 L 972.8162950044771 72.84700513889692 L 972.5803323143288 72.86266808880085 L 972.3440349445541 72.87726359268764 L 972.1074265246931 72.89079019101906 L 971.8705307153905 72.90324653114655 L 971.63337120603 72.91463136744649 L 971.3959717123648 72.9249435614447 L 971.1583559741464 72.93418208193043 L 970.9205477527507 72.94234600505929 L 970.6825708288017 72.94943451444577 L 970.4444489997933 72.95544690124485 L 970.2062060777101 72.96038256422287 L 969.9678658866458 72.96424100981763 L 969.7294522604208 72.9670218521878 L 969.490989040199 72.96872481325143 L 969.2525000721039 72.96934972271386 L 969.0140092048333 72.96889651808466 L 968.7755402872755 72.96736524468392 L 968.5371171661233 72.96475605563768 L 968.2987636834903 72.96106921186271 L 968.0605036745259 72.95630508204027 L 967.8223609650327 72.9504641425794 L 967.584359369083 72.94354697756918 L 967.3465226866382 72.93555427872033 L 967.1088747011682 72.9264868452961 L 966.8714391772737 72.91634558403224 L 966.634239858309 72.90513150904647 L 966.3973004640086 72.89284574173689 L 966.1606446881143 72.87948951067006 L 965.9242961960065 72.86506415145789 L 965.6882786223374 72.84957110662431 L 965.4526155686679 72.8330119254609 L 965.2173306011067 72.81538826387197 L 964.9824472479547 72.79670188420899 L 964.7479889973514 72.77695465509434 L 964.5139792949266 72.7561485512345 L 964.2804415414552 72.73428565322251 L 964.0473990905183 72.71136814732996 L 963.8148752461666 72.68739832528833 L 963.5828932605907 72.66237858405984 L 963.3514763317961 72.63631142559778 L 963.1206476012826 72.60919945659627 L 962.890430151731 72.58104538822961 L 962.6608470046945 72.55185203588118 L 962.4319211182961 72.5216223188619 L 962.2036753849342 72.49035926011825 L 961.9761326289915 72.45806598593009 L 961.7493156045542 72.4247457255979 L 961.5232469931358 72.39040181111994 L 961.2979494014088 72.35503767685907 L 961.0734453589447 72.31865685919922 L 960.8497573159608 72.28126299619186 L 960.6269076410749 72.24285982719209 L 960.4049186190688 72.20345119248485 L 960.1838124486598 72.16304103290075 L 959.9636112402803 72.12163338942209 L 959.7443370138682 72.07923240277869 L 959.526011696663 72.03584231303388 L 959.3086571210146 71.99146745916049 L 959.0922950221996 71.94611227860693 L 958.8769470362472 71.89978130685344 L 958.662634697777 71.85247917695861 L 958.4493794378438 71.80421061909601 L 958.2372025817964 71.75498046008119 L 958.0261253471431 71.70479362288901 L 957.8161688414317 71.65365512616141 L 957.6073540601378 71.60157008370541 L 957.3997018845655 71.54854370398188 L 957.1932330797594 71.49458128958457 L 956.9879682924277 71.43968823671 L 956.7839280488782 71.38387003461766 L 956.5811327529652 71.32713226508127 L 956.3796026840495 71.26948060183051 L 956.1793579949698 71.21092080998365 L 955.9804187100282 71.15145874547107 L 955.7828047229874 71.0911003544497 L 955.5865357950815 71.0298516727083 L 955.3916315530397 70.96771882506403 L 955.1981114871238 70.90470802474988 L 955.005994949179 70.84082557279336 L 954.8153011506993 70.77607785738643 L 954.6260491609053 70.71047135324669 L 954.4382579048383 70.64401262096986 L 954.2519461614677 70.5767083063738 L 954.0671325618123 70.50856513983389 L 953.8838355870782 70.43958993560999 L 953.70207356681 70.36978959116503 L 953.5218646770585 70.29917108647531 L 953.3432269385622 70.22774148333244 L 953.1661782149463 70.1555079246372 L 952.9907362109354 70.08247763368529 L 952.816918470584 70.00865791344492 L 952.6447423755211 69.9340561458266 L 952.4742251432127 69.85867979094495 L 952.3053838252401 69.78253638637263 L 952.1382353055942 69.70563354638664 L 951.9727962989879 69.62797896120689 L 951.8090833491837 69.54958039622719 L 951.6471128273404 69.47044569123871 L 951.4869009303751 69.39058275964601 L 951.3284636793439 69.30999958767568 L 951.1718169178401 69.22870423357777 L 951.0169763104093 69.14670482681996 L 950.863957340983 69.06400956727457 L 950.7127753113307 68.98062672439866 L 950.5634453395294 68.89656463640702 L 950.4159823584519 68.8118317094384 L 950.2704011142733 68.72643641671489 L 950.1267161649969 68.6403872976946 L 949.9849418789977 68.55369295721772 L 949.8450924335863 68.46636206464606 L 949.7071818135905 68.37840335299609 L 949.5712238099575 68.28982561806569 L 949.4372320183744 68.20063771755453 L 949.3052198379087 68.11084857017835 L 949.1752004696683 68.02046715477704 L 949.0471869154818 67.92950250941684 L 948.9211919765979 67.83796373048648 L 948.7972282524056 67.74585997178757 L 948.6753081391739 67.65320044361923 L 948.5554438288125 67.55999441185705 L 948.4376473076526 67.46625119702654 L 948.3219303552481 67.37198017337107 L 948.2083045431979 67.27719076791445 L 948.0967812339885 67.18189245951821 L 947.9873715798578 67.08609477793381 L 947.8800865216801 66.98980730284956 L 947.7749367878719 66.89303966293272 L 947.6719328933189 66.79580153486665 L 947.5710851383245 66.69810264238313 L 947.4724036075804 66.59995275528999 L 947.3758981691575 66.50136168849414 L 947.2815784735191 66.40233930102012 L 947.189453952556 66.30289549502413 L 947.0995338186439 66.20304021480393 L 947.011827063721 66.1027834458043 L 946.9263424583896 66.00213521361863 L 946.8430885510394 65.90110558298623 L 946.7620736669913 65.799704656786 L 946.6833059076665 65.69794257502603 L 946.6067931497753 65.59582951382973 L 946.5325430445295 65.4933756844181 L 946.4605630168779 65.3905913320887 L 946.3908602647632 65.28748673519112 L 946.3234417584027 65.18407220409914 L 946.2583142395907 65.08035808017966 L 946.1954842210248 64.97635473475869 L 946.1349579856546 64.87207256808405 L 946.0767415860531 64.76752200828555 L 946.0208408438119 64.66271351033203 L 945.9672613489585 64.55765755498592 L 945.9160084593976 64.45236464775525 L 945.8670873003758 64.34684531784296 L 945.820502763968 64.24111011709415 L 945.7762595085891 64.13516961894075 L 945.7343619585276 64.0290344173443 L 945.6948143035039 63.92271512573653 L 945.6576204982503 63.81622237595798 L 945.6227842621164 63.70956681719489 L 945.5903090786967 63.602759114914264 L 945.5601981954827 63.49580994979732 L 945.5324546235374 63.38873001667144 L 945.5070811371951 63.28153002344071 L 945.4840802737831 63.17422069001512 L 945.4634543333686 63.066812747238586 L 945.4452053785285 62.959316935815885 L 945.4293352341431 62.85174400523857 L 945.4158454872136 62.74410471271006 L 945.4047374867033 62.636409822069915 L 945.3960123434033 62.52867010271744 L 945.3896709298203 62.4208963285348 L 945.3857138800907 62.313099276809595 L 945.384141589916 62.20528972715717 L 945.384954216524 62.09747846044265 L 945.3881516786525 61.98967625770286 L 945.3937336565582 61.88189389906824 L 945.4016995920479 61.77414216268484 L 945.4120486885346 61.66643182363649 L 945.4247799111174 61.558773652867366 L 945.4398919866845 61.4511784161048 L 945.4573834040411 61.34365687278283 L 945.4772524140599 61.236219774966166 L 945.4994970298566 61.12887786627507 L 945.524115026988 61.02164188081096 L 945.551103943675 60.91452254208302 L 945.5804610810484 60.807530561935856 L 945.6121835034189 60.70067663947832 L 945.6462680385708 60.593971460013606 L 945.6827112780788 60.487425693970756 L 945.7215095776496 60.381049995837586 L 945.7626590574853 60.27485500309525 L 945.8061556026723 60.16885133515453 L 945.8519948635924 60.06304959229389 L 945.9001722563576 59.95746035459945 L 945.9506829632688 59.852094180906974 L 946.0035219332974 59.746961607746044 L 946.0586838825906 59.64207314828636 L 946.1161632949992 59.537439291286454 L 946.17595442263 59.43307050004484 L 946.2380512864198 59.32897721135367 L 946.3024476767343 59.22516983445505 L 946.3691371539882 59.12165875000019 L 946.438113049289 59.01845430901127 L 946.5093684651048 58.91556683184637 L 946.5828962759534 58.81300660716748 L 946.658689129115 58.7107838909116 L 946.7367394453674 58.60890890526517 L 946.8170394197442 58.507391837641855 L 946.8995810223146 58.406242839663825 L 946.9843559989873 58.30547202614659 L 947.0713558723353 58.205089474087515 L 947.1605719424437 58.105105221658164 L 947.2519952877798 58.00552926720046 L 947.3456167660853 57.90637156822687 L 947.4414270152903 57.807642040424646 L 947.5394164544499 57.709350556664305 L 947.6395752847018 57.61150694601232 L 947.7418934902463 57.514120992748204 L 947.8463608393481 57.417202435386145 L 947.9529668853596 57.320760965701105 L 948.0617009677649 57.224806227759686 L 948.1725522132461 57.12934781695572 L 948.2855095367715 57.03439527905074 L 948.4005616427027 56.93995810921942 L 948.5176970259248 56.84604575110002 L 948.6369039729972 56.75266759585011 L 948.7581705633246 56.65983298120741 L 948.881484670349 56.567551190555996 L 949.0068339627625 56.47583145199805 L 949.1342059057401 56.384682937430995 L 949.263587762194 56.29411476163032 L 949.3949665940461 56.20413598133814 L 949.5283292635227 56.1147555943575 L 949.663662434468 56.02598253865261 L 949.8009525736779 55.937825691455075 L 949.9401859522527 55.85029386837614 L 950.0813486469706 55.763395822525176 L 950.2244265416797 55.677140243634355 L 950.3694053287098 55.591535757189675 L 950.5162705103031 55.50659092356846 L 950.6650074000638 55.42231423718327 L 950.8156011244267 55.33871412563253 L 950.9680366241452 55.25579894885771 L 951.1222986557959 55.1735769983074 L 951.2783717933046 55.092056496108135 L 951.4362404294874 55.01124559424221 L 951.5958887776123 54.93115237373246 L 951.7573008729775 54.851784843834196 L 951.920460574508 54.77315094123426 L 952.0853515663695 54.6952585292574 L 952.2519573596004 54.61811539707989 L 952.4202612937602 54.54172925895067 L 952.5902465385955 54.46610775341989 L 952.7618960957237 54.391258442575094 L 952.9351928003322 54.317188811284986 L 953.1101193228947 54.24390626645098 L 953.2866581709048 54.171418136266475 L 953.4647916906249 54.09973166948409 L 953.6445020688515 54.028854034690774 L 953.8257713346964 53.95879231959093 L 954.008581361384 53.88955353029769 L 954.1929138680642 53.82114459063227 L 954.37875042164 53.753572341431656 L 954.5660724386106 53.68684353986444 L 954.7548611869305 53.62096485875517 L 954.9450977878823 53.55594288591707 L 955.1367632179645 53.49178412349323 L 955.3298383107935 53.42849498730643 L 955.5243037590212 53.366081806217544 L 955.7201401162648 53.304550821492676 L 955.9173277990516 53.24390818617902 L 956.1158470887779 53.18415996448957 L 956.3156781336799 53.12531213119671 L 956.5168009508196 53.067370571034715 L 956.7191954280833 53.01034107811134 L 956.9228413261916 52.95422935532834 L 957.1277182807244 52.89904101381123 L 957.333805804157 52.84478157234818 L 957.5410832879089 52.79145645683812 L 957.7495300044044 52.73907099974815 L 957.9591251091456 52.687630439580346 L 958.1698476427965 52.637139920347835 L 958.3816765332796 52.58760449106049 L 958.5945905978822 52.53902910521993 L 958.8085685453754 52.49141862032429 L 959.0235889781426 52.444777797382365 L 959.2396303943198 52.399111300437596 L 959.4566711899453 52.354423696101605 L 959.6746896611206 52.3107194530976 L 959.8936640061802 52.26800294181345 L 960.1135723278719 52.2262784338647 L 960.3343926355471 52.18555010166736 L 960.5561028473588 52.14582201802072 L 960.7786807924707 52.10709815570004 L 961.0021042132737 52.06938238705927 L 961.2263507676118 52.032678483643856 L 961.4513980310168 51.996990115813546 L 961.6772234989495 51.96232085237539 L 961.9038045890516 51.928674160226834 L 962.1311186434027 51.89605340400906 L 962.3591429307868 51.8644618457705 L 962.5878546489653 51.833902644640645 L 962.8172309269569 51.80437885651416 L 963.047248827325 51.775893433745246 L 963.2778853484712 51.74844922485244 L 963.5091174269355 51.722048974233765 L 963.7409219397028 51.69669532189228 L 963.9732757065152 51.672390803172085 L 964.2061554921894 51.649137848504814 L 964.439538008941 51.626938783166544 L 964.6733999187128 51.60579582704531 L 964.9077178355086 51.58571109441911 L 965.1424683277321 51.56668659374447 L 965.3776279205297 51.54872422745561 L 965.6131730981381 51.53182579177417 L 965.8490803062357 51.515992976529645 L 966.0853259542985 51.50122736499037 L 966.3218864179582 51.4875304337052 L 966.558738041366 51.47490355235584 L 966.7958571395567 51.4633479836199 L 967.0332200008181 51.45286488304463 L 967.2708028890619 51.443455298931354 L 967.5085820461971 51.43512017223063 L 967.7465336945065 51.4278603364482 L 967.9846340390233 51.42167651756158 L 968.2228592699114 51.41656933394751 L 968.4611855648465 51.41253929632009 L 968.6995890913975 51.40958680767973 L 968.9380460094103 51.407712163272826 L 969.1765324733922 51.40691555056227 L 969.4150246348952 51.40719704920866 L 969.653498644902 51.40855663106237 L 969.8919306562104 51.41099416016634 L 970.1302968258179 51.414509392769695 L 970.3685733173062 51.419101977352106 L 970.6067363032247 51.42477145465894 L 970.8447619674732 51.431517257747196 L 971.0826265076837 51.43933871204218 L 971.3203061376004 51.44823503540498 L 971.5577770894585 51.45820533821068 L 971.7950156163604 51.4692486234373 L 972.0319979946513 51.48136378676553 L 972.2687005262909 51.49454961668913 L 972.5050995412232 51.50880479463608 L 972.7411713997438 51.524127895100484 L 972.9768924948635 51.54051738578506 L 973.2122392546692 51.5579716277544 L 973.447188144681 51.57648887559884 L 973.6817156702058 51.59606727760904 L 973.9157983786865 51.6167048759611 L 974.1494128620473 51.6383996069124 L 974.3825357590343 51.66114930100791 L 974.6151437575525 51.684951683297186 L 974.8472135969955 51.70980437356183 L 975.078722070573 51.735704886553535 L 975.3096460276305 51.76265063224257 L 975.5399623759647 51.79063891607683 L 975.7696480841327 51.81966693925126 L 975.998680183755 51.849731798987726 L 976.2270357718127 51.88083048882531 L 976.4546920129371 51.91295989892094 L 976.6816261416939 51.94611681636038 L 976.9078154648593 51.980297925479526 L 977.1332373636895 52.01549980819594 L 977.3578692961825 52.0517189443507 L 977.5816887993321 52.08895171206036 L 977.8046734913747 52.127194388079175 L 978.0268010740267 52.16644314817141 L 978.2480493347152 52.20669406749378 L 978.4683961487983 52.247943120987884 L 978.6878194817782 52.29018618378274 L 978.9062973915046 52.33341903160728 L 979.1238080303685 52.37763734121275 L 979.3403296474874 52.422836690805035 L 979.5558405908797 52.46901256048684 L 979.770319309631 52.516160332709674 L 979.983744356048 52.564275292735616 L 980.1960943878039 52.613352629108746 L 980.4073481700726 52.663387434136325 L 980.6174845776518 52.71437470437956 L 980.8264825970758 52.7663093411539 L 981.034321328717 52.819186151038956 L 981.2409799888753 52.8729998463978 L 981.4464379118571 52.92774504590574 L 981.650674552041 52.983416275088445 L 981.8536694859333 53.040007966869396 L 982.0554024142099 53.09751446212657 L 982.255853163746 53.15593001025836 L 982.4550016896336 53.21524876975863 L 982.6528280771862 53.27546480880087 L 982.8493125439298 53.33657210583136 L 983.0444354415816 53.3985645501713 L 983.2381772580144 53.461435942627936 L 983.4305186192078 53.52517999611441 L 983.6214402911862 53.58979033627848 L 983.8109231819413 53.655260502139996 L 983.9989483433422 53.721583946736914 L 984.1854969730293 53.78875403778004 L 984.370550416295 53.85676405831625 L 984.5540901679493 53.92560720740017 L 984.73609787417 53.995276600774254 L 984.9165553343381 54.065765271557225 L 985.095444502858 54.13706617094075 L 985.2727474909617 54.2091721688943 L 985.4484465684985 54.28207605487816 L 985.6225241657069 54.35577053856451 L 985.7949628749722 54.43024825056637 L 985.9657454525671 54.50550174317461 L 986.1348548203764 54.581523491102686 L 986.302274067604 54.658305892239156 L 986.4679864524649 54.73584126840789 L 986.6319754038585 54.81412186613588 L 986.7942245230265 54.89313985742859 L 986.9547175851922 54.97288734055273 L 987.113438541183 55.05335634082646 L 987.2703715190355 55.1345388114168 L 987.4255008255828 55.21642663414435 L 987.5788109480237 55.29901162029506 L 987.7302865554734 55.38228551143916 L 987.8799125004975 55.46623998025691 L 988.0276738206263 55.55086663137139 L 988.1735557398508 55.63615700218803 L 988.3175436701007 55.722102563740805 L 988.4596232127029 55.80869472154519 L 988.5997801598216 55.89592481645755 L 988.7380004958789 55.98378412554111 L 988.8742703989562 56.07226386293816 L 989.008576242177 56.1613551807487 L 989.1409045950688 56.251049169915184 L 989.2712422249065 56.34133686111345 L 989.3995760980358 56.4322092256496 L 989.5258933811765 56.52365717636293 L 989.6501814427052 56.615671568534566 L 989.7724278539196 56.70824320080196 L 989.8926203902803 56.80136281607904 L 990.010747032634 56.89502110248188 L 990.1267959684146 56.98920869425987 L 990.2407555928255 57.083916172732344 L 990.3526145099992 57.17913406723036 L 990.462361534137 57.27485285604382 L 990.5699856906282 57.37106296737362 L 990.6754762171466 57.467754780288786 L 990.7788225647276 57.56491862568861 L 990.8800143988226 57.662544787269525 L 990.9790416003325 57.76062350249672 L 991.0758942666195 57.859144963580405 L 991.1705627124978 57.95809931845658 L 991.2630374712018 58.05747667177222 L 991.3533092953326 58.15726708587479 L 991.4413691577829 58.257460581806065 L 991.52720825264 58.358047140299924 L 991.610817996066 58.459016702784346 L 991.6921900271559 58.56035917238722 L 991.7713162087748 58.66206441494605 L 991.8481886283703 58.764122260021324 L 991.9227995987644 58.866522501913586 L 991.9951416589224 58.96925490068398 L 992.0652075746987 59.072309183178234 L 992.1329903395597 59.17567504405398 L 992.1984831752857 59.279342146811274 L 992.2616795326476 59.38330012482622 L 992.3225730920623 59.48753858238766 L 992.3811577642247 59.59204709573668 L 992.4374276907163 59.69681521410906 L 992.4913772445915 59.80183246078026 L 992.5430010309398 59.907088334113126 L 992.5922938874254 60.012572308608036 L 992.639250884804 60.11827383595545 L 992.6838673274149 60.22418234609071 L 992.726138753651 60.33028724825106 L 992.7660609364048 60.43657793203471 L 992.8036298834915 60.54304376846186 L 992.8388418380474 60.64967411103757 L 992.8716932789068 60.75645829681646 L 992.9021809209527 60.86338564746893 L 992.9303017154464 60.97044547034902 L 992.9560528503317 61.07762705956367 L 992.9794317505169 61.184919697043256 L 993.0004360781312 61.29231265361346 L 993.0190637327595 61.399795190068104 L 993.0353128516517 61.50735655824312 L 993.0491818099097 61.614986002091314 L 993.060669220649 61.72267275875801 L 993.0697739351381 61.830406059657264 L 993.0764950429133 61.93817513154877 L 993.0808318718692 62.04596919761514 L 993.0827839883268 62.15377747853961 M 993.0829049783828 96.4920458931 L 993.0817125184791 96.59985643801662 L 993.078135258013 96.70765620196859 L 993.0721735547078 96.81543440506935 L 993.0638280047284 96.9231802695884 L 993.0530994426232 97.03088302102908 L 993.0399889412394 97.138531889206 L 993.0244978116161 97.24611610932205 L 993.0066276028535 97.35362492304485 L 992.9863801019575 97.46104757958265 L 992.9637573336613 97.5683733367593 L 992.9387615602229 97.67559146208852 L 992.9113952811989 97.78269123384712 L 992.8816612331943 97.88966194214719 L 992.8495623895892 97.99649289000702 L 992.8151019602411 98.10317339442086 L 992.7782833911643 98.20969278742717 L 992.739110364185 98.31604041717543 L 992.6975867965732 98.42220564899125 L 992.6537168406512 98.52817786643996 L 992.6075048833778 98.6339464723881 L 992.5589555459105 98.73950089006323 L 992.5080736831425 98.84483056411152 L 992.4548643832176 98.94992496165337 L 992.3993329670213 99.05477357333659 L 992.3414849876493 99.15936591438738 L 992.2813262298512 99.2636915256588 L 992.2188627094525 99.36773997467667 L 992.1541006727533 99.47150085668278 L 992.0870465959033 99.5749637956754 L 992.0177071842544 99.67811844544686 L 991.9460893716897 99.78095449061813 L 991.872200319931 99.8834616476704 L 991.796047417822 99.98562966597338 L 991.7176382805892 100.08744832881038 L 991.6369807490811 100.18890745439998 L 991.5540828889837 100.28999689691415 L 991.4689529900138 100.39070654749288 L 991.3815995650904 100.49102633525506 L 991.2920313494832 100.59094622830548 L 991.2002572999392 100.69045623473812 L 991.1062865937868 100.78954640363527 L 991.0101286280182 100.8882068260626 L 990.9117930183501 100.9864276360601 L 990.8112895982613 101.0841990116286 L 990.7086284180101 101.18151117571202 L 990.6038197436291 101.27835439717506 L 990.4968740558982 101.37471899177628 L 990.3878020492972 101.4705953231365 L 990.2766146309359 101.56597380370249 L 990.1633229194633 101.6608448957057 L 990.0479382439564 101.75519911211595 L 989.9304721427864 101.84902701759025 L 989.8109363624654 101.94231922941623 L 989.6893428564722 102.03506641845047 L 989.5657037840558 102.12725931005133 L 989.4400315090204 102.2188886850065 L 989.312338598489 102.30994538045483 L 989.1826378216459 102.40042029080266 L 989.050942148461 102.49030436863434 L 988.9172647483917 102.579588625617 L 988.7816189890668 102.66826413339936 L 988.644018434949 102.75632202450451 L 988.5044768459791 102.84375349321674 L 988.3630081761997 102.93054979646202 L 988.21962657236 103.01670225468237 L 988.0743463725008 103.10220225270375 L 987.927182104521 103.18704124059762 L 987.7781484847249 103.27121073453588 L 987.6272604163499 103.3547023176393 L 987.4745329880776 103.4375076408191 L 987.3199814725233 103.51961842361202 L 987.1636213247099 103.60102645500817 L 987.0054681805216 103.68172359427226 L 986.8455378551413 103.7617017717576 L 986.6838463414681 103.84095298971312 L 986.5204098085188 103.91946932308304 L 986.3552445998102 103.99724292029944 L 986.1883672317259 104.07426600406745 L 986.0197943918635 104.15053087214287 L 985.8495429373663 104.22602989810241 L 985.6776298932382 104.30075553210642 L 985.5040724506401 104.37470030165377 L 985.3288879651718 104.44785681232914 L 985.1520939551358 104.52021774854238 L 984.9737080997858 104.59177587426021 L 984.7937482375585 104.66252403372968 L 984.6122323642904 104.73245515219378 L 984.4291786314175 104.80156223659897 L 984.2446053441605 104.86983837629438 L 984.0585309596943 104.93727674372295 L 983.8709740853024 105.0038705951041 L 983.6819534765157 105.06961327110824 L 983.4914880352378 105.13449819752252 L 983.299596807854 105.19851888590837 L 983.1062989833272 105.26166893425032 L 982.9116138912786 105.32394202759615 L 982.7155610000555 105.38533193868841 L 982.5181599147833 105.44583252858716 L 982.3194303754062 105.50543774728384 L 982.1193922547125 105.56414163430621 L 981.9180655563475 105.62193831931454 L 981.7154704128135 105.67882202268845 L 981.5116270834557 105.73478705610502 L 981.3065559524374 105.78982782310756 L 981.1002775267007 105.84393881966523 L 980.8928124339163 105.89711463472344 L 980.6841814204206 105.94934995074503 L 980.4744053491412 106.00063954424192 L 980.2635051975102 106.0509782862975 L 980.0515020553671 106.1003611430795 L 979.8384171228495 106.14878317634341 L 979.6242717082731 106.19623954392625 L 979.4090872260008 106.2427255002308 L 979.1928851943015 106.2882363967002 L 978.9756872331984 106.33276768228268 L 978.7575150623064 106.37631490388682 L 978.5383904986609 106.41887370682676 L 978.3183354545355 106.46043983525765 L 978.0973719352514 106.50100913260128 L 977.8755220369765 106.54057754196174 L 977.6528079445154 106.57914110653107 L 977.429251929092 106.61669596998493 L 977.2048763461215 106.65323837686829 L 976.9797036329752 106.6887646729709 L 976.7537563067368 106.72327130569276 L 976.5270569619506 106.75675482439937 L 976.2996282683622 106.78921188076673 L 976.0714929686513 106.82063922911627 L 975.8426738761581 106.85103372673933 L 975.6131938726007 106.8803923342115 L 975.3830759057887 106.90871211569649 L 975.1523429873266 106.93599023923973 L 974.9210181903143 106.96222397705162 L 974.6891246470384 106.98741070578025 L 974.4566855466603 107.0115479067737 L 974.2237241328962 107.03463316633201 L 973.9902637016933 107.05666417594847 L 973.7563275989003 107.07763873254045 L 973.5219392179323 107.09755473866979 L 973.2871219974323 107.11641020275246 L 973.0518994189267 107.13420323925777 L 972.8162950044771 107.1509320688969 L 972.5803323143288 107.16659501880085 L 972.3440349445541 107.18119052268763 L 972.1074265246931 107.19471712101905 L 971.8705307153905 107.20717346114655 L 971.63337120603 107.21855829744648 L 971.3959717123648 107.22887049144471 L 971.1583559741464 107.23810901193042 L 970.9205477527507 107.24627293505928 L 970.6825708288017 107.25336144444577 L 970.4444489997933 107.25937383124486 L 970.2062060777101 107.26430949422287 L 969.9678658866458 107.26816793981763 L 969.7294522604208 107.27094878218779 L 969.490989040199 107.27265174325143 L 969.2525000721039 107.27327665271386 L 969.0140092048333 107.27282344808465 L 968.7755402872755 107.27129217468391 L 968.5371171661233 107.26868298563768 L 968.2987636834903 107.2649961418627 L 968.0605036745259 107.26023201204026 L 967.8223609650327 107.2543910725794 L 967.584359369083 107.24747390756917 L 967.3465226866382 107.23948120872033 L 967.1088747011682 107.23041377529609 L 966.8714391772737 107.22027251403225 L 966.634239858309 107.20905843904646 L 966.3973004640086 107.1967726717369 L 966.1606446881143 107.18341644067004 L 965.9242961960065 107.16899108145788 L 965.6882786223374 107.15349803662431 L 965.4526155686679 107.1369388554609 L 965.2173306011067 107.11931519387196 L 964.9824472479547 107.10062881420897 L 964.7479889973514 107.08088158509435 L 964.5139792949266 107.0600754812345 L 964.2804415414552 107.03821258322252 L 964.0473990905183 107.01529507732995 L 963.8148752461666 106.99132525528832 L 963.5828932605907 106.96630551405984 L 963.3514763317961 106.94023835559778 L 963.1206476012826 106.91312638659626 L 962.890430151731 106.88497231822961 L 962.6608470046945 106.85577896588119 L 962.4319211182961 106.8255492488619 L 962.2036753849342 106.79428619011826 L 961.9761326289915 106.76199291593008 L 961.7493156045542 106.72867265559789 L 961.5232469931358 106.69432874111995 L 961.2979494014088 106.65896460685907 L 961.0734453589447 106.62258378919921 L 960.8497573159608 106.58518992619184 L 960.6269076410749 106.5467867571921 L 960.4049186190688 106.50737812248485 L 960.1838124486598 106.46696796290075 L 959.9636112402803 106.42556031942208 L 959.7443370138682 106.38315933277867 L 959.526011696663 106.33976924303387 L 959.3086571210146 106.29539438916049 L 959.0922950221996 106.25003920860692 L 958.8769470362472 106.20370823685344 L 958.662634697777 106.15640610695861 L 958.4493794378438 106.108137549096 L 958.2372025817964 106.05890739008117 L 958.0261253471431 106.00872055288902 L 957.8161688414317 105.9575820561614 L 957.6073540601378 105.90549701370541 L 957.3997018845655 105.85247063398188 L 957.1932330797594 105.79850821958458 L 956.9879682924277 105.74361516670999 L 956.7839280488782 105.68779696461766 L 956.5811327529652 105.63105919508126 L 956.3796026840495 105.5734075318305 L 956.1793579949698 105.51484773998365 L 955.9804187100282 105.45538567547108 L 955.7828047229874 105.3950272844497 L 955.5865357950815 105.33377860270829 L 955.3916315530397 105.27164575506403 L 955.1981114871238 105.20863495474987 L 955.005994949179 105.14475250279335 L 954.8153011506993 105.08000478738643 L 954.6260491609053 105.01439828324668 L 954.4382579048383 104.94793955096986 L 954.2519461614677 104.8806352363738 L 954.0671325618123 104.8124920698339 L 953.8838355870782 104.74351686560999 L 953.70207356681 104.67371652116503 L 953.5218646770585 104.6030980164753 L 953.3432269385622 104.53166841333243 L 953.1661782149463 104.4594348546372 L 952.9907362109354 104.38640456368528 L 952.816918470584 104.31258484344491 L 952.6447423755211 104.2379830758266 L 952.4742251432127 104.16260672094495 L 952.3053838252401 104.08646331637262 L 952.1382353055942 104.00956047638662 L 951.9727962989879 103.93190589120688 L 951.8090833491837 103.85350732622719 L 951.6471128273404 103.77437262123871 L 951.4869009303751 103.694509689646 L 951.3284636793439 103.61392651767568 L 951.1718169178401 103.53263116357778 L 951.0169763104093 103.45063175681996 L 950.863957340983 103.36793649727457 L 950.7127753113307 103.28455365439865 L 950.5634453395294 103.20049156640701 L 950.4159823584519 103.1157586394384 L 950.2704011142733 103.03036334671489 L 950.1267161649969 102.94431422769459 L 949.9849418789977 102.85761988721772 L 949.8450924335863 102.77028899464605 L 949.7071818135905 102.68233028299609 L 949.5712238099575 102.5937525480657 L 949.4372320183744 102.50456464755453 L 949.3052198379087 102.41477550017834 L 949.1752004696683 102.32439408477703 L 949.0471869154818 102.23342943941684 L 948.9211919765979 102.14189066048647 L 948.7972282524056 102.04978690178756 L 948.6753081391739 101.95712737361922 L 948.5554438288125 101.86392134185704 L 948.4376473076526 101.77017812702654 L 948.3219303552481 101.67590710337106 L 948.2083045431979 101.58111769791444 L 948.0967812339885 101.48581938951821 L 947.9873715798578 101.39002170793381 L 947.8800865216801 101.29373423284954 L 947.7749367878719 101.19696659293271 L 947.6719328933189 101.09972846486664 L 947.5710851383245 101.00202957238312 L 947.4724036075804 100.90387968528998 L 947.3758981691575 100.80528861849413 L 947.2815784735191 100.70626623102011 L 947.189453952556 100.60682242502413 L 947.0995338186439 100.50696714480392 L 947.011827063721 100.40671037580431 L 946.9263424583896 100.30606214361863 L 946.8430885510394 100.20503251298624 L 946.7620736669913 100.103631586786 L 946.6833059076665 100.00186950502604 L 946.6067931497753 99.89975644382972 L 946.5325430445295 99.79730261441809 L 946.4605630168779 99.69451826208869 L 946.3908602647632 99.59141366519111 L 946.3234417584027 99.48799913409913 L 946.2583142395907 99.38428501017967 L 946.1954842210248 99.28028166475868 L 946.1349579856546 99.17599949808405 L 946.0767415860531 99.07144893828554 L 946.0208408438119 98.96664044033201 L 945.9672613489585 98.86158448498593 L 945.9160084593976 98.75629157775525 L 945.8670873003758 98.65077224784297 L 945.820502763968 98.54503704709414 L 945.7762595085891 98.43909654894075 L 945.7343619585276 98.33296134734431 L 945.6948143035039 98.22664205573652 L 945.6576204982503 98.12014930595798 L 945.6227842621164 98.01349374719489 L 945.5903090786967 97.90668604491427 L 945.5601981954827 97.79973687979731 L 945.5324546235374 97.69265694667143 L 945.5070811371951 97.58545695344071 L 945.4840802737831 97.47814762001512 L 945.4634543333686 97.37073967723859 L 945.4452053785285 97.26324386581588 L 945.4293352341431 97.15567093523856 L 945.4158454872136 97.04803164271006 L 945.4047374867033 96.94033675206991 L 945.3960123434033 96.83259703271744 L 945.3896709298203 96.7248232585348 L 945.3857138800907 96.6170262068096 L 945.384141589916 96.50921665715717" stroke-miterlimit="10" stroke-width="2.7769845610000004" stroke-dasharray=""/></g><g><text fill="black" stroke="none" font-family="sans-serif" font-size="11pt" font-style="normal" font-weight="normal" text-decoration="normal" x="937.8555632140938" y="124.80095321200001" text-anchor="start" dominant-baseline="alphabetic" xml:space="preserve">Database</text></g></g><g><path fill="white" stroke="black" paint-order="fill stroke markers" d=" M 336.25999702239585 183.607685092 L 352.59520032239584 183.607685092 L 352.59520032239584 1101.6461105519998 L 336.25999702239585 1101.6461105519998 L 336.25999702239585 183.607685092" stroke-miterlimit="10" stroke-width="1.3612669416666667" stroke-dasharray=""/><path fill="white" stroke="black" paint-order="fill stroke markers" d=" M 344.42759867239585 342.059157102 L 360.76280197239583 342.059157102 L 360.76280197239583 387.7977263419999 L 344.42759867239585 387.7977263419999 L 344.42759867239585 342.059157102" stroke-miterlimit="10" stroke-width="1.3612669416666667" stroke-dasharray=""/><path fill="white" stroke="black" paint-order="fill stroke markers" d=" M 613.7434490861979 614.8570522119999 L 630.078652386198 614.8570522119999 L 630.078652386198 1055.9075413119997 L 613.7434490861979 1055.9075413119997 L 613.7434490861979 614.8570522119999" stroke-miterlimit="10" stroke-width="1.3612669416666667" stroke-dasharray=""/><path fill="white" stroke="black" paint-order="fill stroke markers" d=" M 778.9583233084948 856.6180610519999 L 795.2935266084949 856.6180610519999 L 795.2935266084949 993.8337687719998 L 778.9583233084948 993.8337687719998 L 778.9583233084948 856.6180610519999" stroke-miterlimit="10" stroke-width="1.3612669416666667" stroke-dasharray=""/><path fill="white" stroke="black" paint-order="fill stroke markers" d=" M 961.0659065103828 902.3566302919999 L 977.4011098103829 902.3566302919999 L 977.4011098103829 948.0951995319998 L 961.0659065103828 948.0951995319998 L 961.0659065103828 902.3566302919999" stroke-miterlimit="10" stroke-width="1.3612669416666667" stroke-dasharray=""/><g><g><rect fill="white" stroke="none" x="149.47045498221357" y="162.371920802" width="110.82750190796875" height="21.23576429"/></g><text fill="black" stroke="none" font-family="sans-serif" font-size="11pt" font-style="normal" font-weight="normal" text-decoration="normal" x="151.92073547721355" y="177.07360377199998" text-anchor="start" dominant-baseline="alphabetic" xml:space="preserve">Click Edit button</text></g><g><path fill="none" stroke="black" paint-order="fill stroke markers" d=" M 73.50841485 183.607685092 L 322.8106796387292 183.607685092" stroke-miterlimit="10" stroke-width="1.3612669416666667" stroke-dasharray=""/><g transform="translate(336.25999702239585,183.607685092) translate(-336.25999702239585,-183.607685092)"><path fill="black" stroke="none" paint-order="stroke fill markers" d=" M 322.6473276057292 176.80135038366666 L 336.25999702239585 183.607685092 L 322.6473276057292 190.41401980033334 Z"/></g></g><g><g><rect fill="white" stroke="none" x="92.83840542166668" y="208.110490042" width="224.0916010290625" height="21.23576429"/></g><text fill="black" stroke="none" font-family="sans-serif" font-size="11pt" font-style="normal" font-weight="normal" text-decoration="normal" x="95.28868591666668" y="222.812173012" text-anchor="start" dominant-baseline="alphabetic" xml:space="preserve">Display Update Curriculum popup</text></g><g><path fill="none" stroke="black" paint-order="fill stroke markers" d=" M 336.25999702239585 229.346254332 L 86.95773223366666 229.346254332" stroke-miterlimit="10" stroke-width="1.3612669416666667" stroke-dasharray="6.53408132"/><g transform="translate(73.50841485,229.346254332) translate(-73.50841485,-229.346254332)"><path fill="black" stroke="none" paint-order="stroke fill markers" d=" M 87.12108426666666 222.53991962366666 L 73.50841485 229.346254332 L 87.12108426666666 236.15258904033334 Z"/></g></g><g><g><rect fill="white" stroke="none" x="102.62723903983074" y="253.849059282" width="204.51393379273438" height="21.23576429"/></g><text fill="black" stroke="none" font-family="sans-serif" font-size="11pt" font-style="normal" font-weight="normal" text-decoration="normal" x="105.07751953483074" y="268.550742252" text-anchor="start" dominant-baseline="alphabetic" xml:space="preserve">Type information of Curriculum</text></g><g><path fill="none" stroke="black" paint-order="fill stroke markers" d=" M 73.50841485 275.084823572 L 322.8106796387292 275.084823572" stroke-miterlimit="10" stroke-width="1.3612669416666667" stroke-dasharray=""/><g transform="translate(336.25999702239585,275.084823572) translate(-336.25999702239585,-275.084823572)"><path fill="black" stroke="none" paint-order="stroke fill markers" d=" M 322.6473276057292 268.27848886366667 L 336.25999702239585 275.084823572 L 322.6473276057292 281.89115828033334 Z"/></g></g><g><g><rect fill="white" stroke="none" x="380.0927925440625" y="299.587628522" width="125.25842536988281" height="21.23576429"/></g><text fill="black" stroke="none" font-family="sans-serif" font-size="11pt" font-style="normal" font-weight="normal" text-decoration="normal" x="382.5430730390625" y="314.28931149199997" text-anchor="start" dominant-baseline="alphabetic" xml:space="preserve">Validate input data</text></g><g><path fill="none" stroke="black" paint-order="fill stroke markers" d=" M 352.59520032239584 320.82339281199995 L 426.10361517239585 320.82339281199995 L 426.10361517239585 342.059157102 L 374.2121193560625 342.059157102" stroke-miterlimit="10" stroke-width="1.3612669416666667" stroke-dasharray=""/><g transform="translate(360.76280197239583,342.059157102) translate(-360.76280197239583,-342.059157102)"><path fill="black" stroke="none" paint-order="stroke fill markers" d=" M 374.3754713890625 335.25282239366663 L 360.76280197239583 342.059157102 L 374.3754713890625 348.8654918103333 Z"/></g></g><g><g><rect fill="white" stroke="none" x="380.0927925440625" y="366.56196205199996" width="95.90982307496094" height="21.23576429"/></g><text fill="black" stroke="none" font-family="sans-serif" font-size="11pt" font-style="normal" font-weight="normal" text-decoration="normal" x="382.5430730390625" y="381.26364502199993" text-anchor="start" dominant-baseline="alphabetic" xml:space="preserve">Validate value</text></g><g><path fill="none" stroke="black" paint-order="fill stroke markers" d=" M 360.76280197239583 387.7977263419999 L 426.10361517239585 387.7977263419999 L 426.10361517239585 409.03349063199994 L 366.0445177060625 409.03349063199994" stroke-miterlimit="10" stroke-width="1.3612669416666667" stroke-dasharray="6.53408132"/><g transform="translate(352.59520032239584,409.03349063199994) translate(-352.59520032239584,-409.03349063199994)"><path fill="black" stroke="none" paint-order="stroke fill markers" d=" M 366.2078697390625 402.2271559236666 L 352.59520032239584 409.03349063199994 L 366.2078697390625 415.8398253403333 Z"/></g></g><g><g><rect fill="white" stroke="none" x="144.7102544817253" y="477.6413444919999" width="120.34790290894531" height="21.23576429"/></g><text fill="black" stroke="none" font-family="sans-serif" font-size="11pt" font-style="normal" font-weight="normal" text-decoration="normal" x="147.16053497672527" y="492.3430274619999" text-anchor="start" dominant-baseline="alphabetic" xml:space="preserve">Validate Message</text></g><g><path fill="none" stroke="black" paint-order="fill stroke markers" d=" M 336.25999702239585 498.87710878199994 L 86.95773223366666 498.87710878199994" stroke-miterlimit="10" stroke-width="1.3612669416666667" stroke-dasharray="6.53408132"/><g transform="translate(73.50841485,498.87710878199994) translate(-73.50841485,-498.87710878199994)"><path fill="black" stroke="none" paint-order="stroke fill markers" d=" M 87.12108426666666 492.0707740736666 L 73.50841485 498.87710878199994 L 87.12108426666666 505.6834434903333 Z"/></g></g><g><g><rect fill="white" stroke="none" x="169.03380184500654" y="547.8827186819999" width="71.70080818238281" height="21.23576429"/></g><text fill="black" stroke="none" font-family="sans-serif" font-size="11pt" font-style="normal" font-weight="normal" text-decoration="normal" x="171.48408234000652" y="562.5844016519999" text-anchor="start" dominant-baseline="alphabetic" xml:space="preserve">Click save</text></g><g><path fill="none" stroke="black" paint-order="fill stroke markers" d=" M 73.50841485 569.1184829719999 L 322.8106796387292 569.1184829719999" stroke-miterlimit="10" stroke-width="1.3612669416666667" stroke-dasharray=""/><g transform="translate(336.25999702239585,569.1184829719999) translate(-336.25999702239585,-569.1184829719999)"><path fill="black" stroke="none" paint-order="stroke fill markers" d=" M 322.6473276057292 562.3121482636666 L 336.25999702239585 569.1184829719999 L 322.6473276057292 575.9248176803333 Z"/></g></g><g><g><rect fill="white" stroke="none" x="415.139256001289" y="593.6212879219999" width="136.06013740601563" height="21.23576429"/></g><text fill="black" stroke="none" font-family="sans-serif" font-size="11pt" font-style="normal" font-weight="normal" text-decoration="normal" x="417.58953649628904" y="608.3229708919998" text-anchor="start" dominant-baseline="alphabetic" xml:space="preserve">PUT: /api/curriculum</text></g><g><path fill="none" stroke="black" paint-order="fill stroke markers" d=" M 352.59520032239584 614.8570522119999 L 600.2941317025312 614.8570522119999" stroke-miterlimit="10" stroke-width="1.3612669416666667" stroke-dasharray=""/><g transform="translate(613.7434490861979,614.8570522119999) translate(-613.7434490861979,-614.8570522119999)"><path fill="black" stroke="none" paint-order="stroke fill markers" d=" M 600.1307796695312 608.0507175036665 L 613.7434490861979 614.8570522119999 L 600.1307796695312 621.6633869203332 Z"/></g></g><g><g><rect fill="white" stroke="none" x="398.01687288361325" y="683.464906072" width="149.11673225464844" height="21.23576429"/></g><g><rect fill="white" stroke="none" x="398.01687288361325" y="699.800109372" width="170.3049036413672" height="21.23576429"/></g><text fill="red" stroke="none" font-family="sans-serif" font-size="11pt" font-style="normal" font-weight="normal" text-decoration="normal" x="400.46715337861326" y="698.1665890419999" text-anchor="start" dominant-baseline="alphabetic" xml:space="preserve">400 BAD_REQUEST: </text><text fill="red" stroke="none" font-family="sans-serif" font-size="11pt" font-style="normal" font-weight="normal" text-decoration="normal" x="400.46715337861326" y="714.5017923419999" text-anchor="start" dominant-baseline="alphabetic" xml:space="preserve">Missing required property</text></g><g><path fill="none" stroke="black" paint-order="fill stroke markers" d=" M 613.7434490861979 721.035873662 L 366.0445177060625 721.035873662" stroke-miterlimit="10" stroke-width="1.3612669416666667" stroke-dasharray="6.53408132"/><g transform="translate(352.59520032239584,721.035873662) translate(-352.59520032239584,-721.035873662)"><path fill="black" stroke="none" paint-order="stroke fill markers" d=" M 366.2078697390625 714.2295389536666 L 352.59520032239584 721.035873662 L 366.2078697390625 727.8422083703333 Z"/></g></g><g><g><rect fill="white" stroke="none" x="136.4318120989128" y="745.5386786119999" width="136.90478767457031" height="21.23576429"/></g><text fill="black" stroke="none" font-family="sans-serif" font-size="11pt" font-style="normal" font-weight="normal" text-decoration="normal" x="138.88209259391277" y="760.2403615819999" text-anchor="start" dominant-baseline="alphabetic" xml:space="preserve">Message is required</text></g><g><path fill="none" stroke="black" paint-order="fill stroke markers" d=" M 336.25999702239585 766.7744429019999 L 86.95773223366666 766.7744429019999" stroke-miterlimit="10" stroke-width="1.3612669416666667" stroke-dasharray="6.53408132"/><g transform="translate(73.50841485,766.7744429019999) translate(-73.50841485,-766.7744429019999)"><path fill="black" stroke="none" paint-order="stroke fill markers" d=" M 87.12108426666666 759.9681081936666 L 73.50841485 766.7744429019999 L 87.12108426666666 773.5807776103333 Z"/></g></g><g><g><rect fill="white" stroke="none" x="681.7031560828151" y="835.3822967619999" width="45.6306635290625" height="21.23576429"/></g><text fill="black" stroke="none" font-family="sans-serif" font-size="11pt" font-style="normal" font-weight="normal" text-decoration="normal" x="684.1534365778151" y="850.0839797319999" text-anchor="start" dominant-baseline="alphabetic" xml:space="preserve">save()</text></g><g><path fill="none" stroke="black" paint-order="fill stroke markers" d=" M 630.078652386198 856.6180610519999 L 765.5090059248281 856.6180610519999" stroke-miterlimit="10" stroke-width="1.3612669416666667" stroke-dasharray=""/><g transform="translate(778.9583233084948,856.6180610519999) translate(-778.9583233084948,-856.6180610519999)"><path fill="black" stroke="none" paint-order="stroke fill markers" d=" M 765.3456538918281 849.8117263436666 L 778.9583233084948 856.6180610519999 L 765.3456538918281 863.4243957603333 Z"/></g></g><g><g><rect fill="white" stroke="none" x="814.6235171801615" y="881.1208660019998" width="127.11239875855469" height="21.23576429"/></g><text fill="black" stroke="none" font-family="sans-serif" font-size="11pt" font-style="normal" font-weight="normal" text-decoration="normal" x="817.0737976751615" y="895.8225489719998" text-anchor="start" dominant-baseline="alphabetic" xml:space="preserve">Update Curriculum</text></g><g><path fill="none" stroke="black" paint-order="fill stroke markers" d=" M 795.2935266084949 902.3566302919999 L 947.6165891267161 902.3566302919999" stroke-miterlimit="10" stroke-width="1.3612669416666667" stroke-dasharray=""/><g transform="translate(961.0659065103828,902.3566302919999) translate(-961.0659065103828,-902.3566302919999)"><path fill="black" stroke="none" paint-order="stroke fill markers" d=" M 947.4532370937161 895.5502955836665 L 961.0659065103828 902.3566302919999 L 947.4532370937161 909.1629650003332 Z"/></g></g><g><g><rect fill="white" stroke="none" x="823.9935962206888" y="926.8594352419998" width="108.3722406775" height="21.23576429"/></g><text fill="black" stroke="none" font-family="sans-serif" font-size="11pt" font-style="normal" font-weight="normal" text-decoration="normal" x="826.4438767156888" y="941.5611182119998" text-anchor="start" dominant-baseline="alphabetic" xml:space="preserve">Curriculum data</text></g><g><path fill="none" stroke="black" paint-order="fill stroke markers" d=" M 961.0659065103828 948.0951995319998 L 808.7428439921615 948.0951995319998" stroke-miterlimit="10" stroke-width="1.3612669416666667" stroke-dasharray="6.53408132"/><g transform="translate(795.2935266084949,948.0951995319998) translate(-795.2935266084949,-948.0951995319998)"><path fill="black" stroke="none" paint-order="stroke fill markers" d=" M 808.9061960251615 941.2888648236665 L 795.2935266084949 948.0951995319998 L 808.9061960251615 954.9015342403331 Z"/></g></g><g><g><rect fill="white" stroke="none" x="650.3323675085963" y="972.5980044819997" width="108.3722406775" height="21.23576429"/></g><text fill="black" stroke="none" font-family="sans-serif" font-size="11pt" font-style="normal" font-weight="normal" text-decoration="normal" x="652.7826480035964" y="987.2996874519997" text-anchor="start" dominant-baseline="alphabetic" xml:space="preserve">Curriculum data</text></g><g><path fill="none" stroke="black" paint-order="fill stroke markers" d=" M 778.9583233084948 993.8337687719998 L 643.5279697698646 993.8337687719998" stroke-miterlimit="10" stroke-width="1.3612669416666667" stroke-dasharray="6.53408132"/><g transform="translate(630.078652386198,993.8337687719998) translate(-630.078652386198,-993.8337687719998)"><path fill="black" stroke="none" paint-order="stroke fill markers" d=" M 643.6913218028646 987.0274340636664 L 630.078652386198 993.8337687719998 L 643.6913218028646 1000.6401034803331 Z"/></g></g><g><g><rect fill="white" stroke="none" x="376.00899171906246" y="1018.3365737219997" width="54.61422981324219" height="21.23576429"/></g><g><rect fill="white" stroke="none" x="376.00899171906246" y="1034.6717770219998" width="214.32066597046875" height="21.23576429"/></g><text fill="green" stroke="none" font-family="sans-serif" font-size="11pt" font-style="normal" font-weight="normal" text-decoration="normal" x="378.4592722140625" y="1033.0382566919998" text-anchor="start" dominant-baseline="alphabetic" xml:space="preserve">200 OK</text><text fill="green" stroke="none" font-family="sans-serif" font-size="11pt" font-style="normal" font-weight="normal" text-decoration="normal" x="378.4592722140625" y="1049.3734599919999" text-anchor="start" dominant-baseline="alphabetic" xml:space="preserve">Response body:Curriculum data</text></g><g><path fill="none" stroke="black" paint-order="fill stroke markers" d=" M 613.7434490861979 1055.9075413119997 L 366.0445177060625 1055.9075413119997" stroke-miterlimit="10" stroke-width="1.3612669416666667" stroke-dasharray="6.53408132"/><g transform="translate(352.59520032239584,1055.9075413119997) translate(-352.59520032239584,-1055.9075413119997)"><path fill="black" stroke="none" paint-order="stroke fill markers" d=" M 366.2078697390625 1049.1012066036665 L 352.59520032239584 1055.9075413119997 L 366.2078697390625 1062.713876020333 Z"/></g></g><g><g><rect fill="white" stroke="none" x="121.37097530692058" y="1080.4103462619998" width="167.0264612585547" height="21.23576429"/></g><text fill="black" stroke="none" font-family="sans-serif" font-size="11pt" font-style="normal" font-weight="normal" text-decoration="normal" x="123.82125580192059" y="1095.112029232" text-anchor="start" dominant-baseline="alphabetic" xml:space="preserve">Display Curriculum detail</text></g><g><path fill="none" stroke="black" paint-order="fill stroke markers" d=" M 336.25999702239585 1101.6461105519998 L 86.95773223366666 1101.6461105519998" stroke-miterlimit="10" stroke-width="1.3612669416666667" stroke-dasharray="6.53408132"/><g transform="translate(73.50841485,1101.6461105519998) translate(-73.50841485,-1101.6461105519998)"><path fill="black" stroke="none" paint-order="stroke fill markers" d=" M 87.12108426666666 1094.8397758436665 L 73.50841485 1101.6461105519998 L 87.12108426666666 1108.452445260333 Z"/></g></g><g><g/><path fill="none" stroke="black" paint-order="fill stroke markers" d=" M 16.335203299999996 433.5362955819999 L 401.60081022239586 433.5362955819999 L 401.60081022239586 523.379913732 L 16.335203299999996 523.379913732 L 16.335203299999996 433.5362955819999 Z" stroke-miterlimit="10" stroke-width="2.3336004714285714" stroke-dasharray=""/><path fill="white" stroke="black" paint-order="fill stroke markers" d=" M 16.335203299999996 433.5362955819999 L 16.335203299999996 453.13853954199993 L 62.69440689707031 453.13853954199993 L 72.49552887707031 443.3374175619999 L 72.49552887707031 433.5362955819999 L 16.335203299999996 433.5362955819999" stroke-miterlimit="10" stroke-width="2.3336004714285714" stroke-dasharray=""/><text fill="black" stroke="none" font-family="sans-serif" font-size="8.8pt" font-style="normal" font-weight="bold" text-decoration="normal" x="32.67040659999999" y="446.60445822199995" text-anchor="start" dominant-baseline="alphabetic" xml:space="preserve">alt</text><g><rect fill="white" stroke="none" x="86.38045168207032" y="434.84311184599994" width="151.5138880163672" height="16.988611432000003"/></g><text fill="black" stroke="none" font-family="sans-serif" font-size="8.8pt" font-style="normal" font-weight="bold" text-decoration="normal" x="88.83073217707032" y="446.60445822199995" text-anchor="start" dominant-baseline="alphabetic" xml:space="preserve">[If the input data is wrong]</text></g><g><g/><path fill="none" stroke="black" paint-order="fill stroke markers" d=" M 16.335203299999996 639.3598571619999 L 1026.4067197103827 639.3598571619999 L 1026.4067197103827 1126.1489155019997 L 16.335203299999996 1126.1489155019997 L 16.335203299999996 639.3598571619999 Z" stroke-miterlimit="10" stroke-width="2.3336004714285714" stroke-dasharray=""/><path fill="white" stroke="black" paint-order="fill stroke markers" d=" M 16.335203299999996 639.3598571619999 L 16.335203299999996 658.9621011219999 L 62.69440689707031 658.9621011219999 L 72.49552887707031 649.1609791419999 L 72.49552887707031 639.3598571619999 L 16.335203299999996 639.3598571619999" stroke-miterlimit="10" stroke-width="2.3336004714285714" stroke-dasharray=""/><text fill="black" stroke="none" font-family="sans-serif" font-size="8.8pt" font-style="normal" font-weight="bold" text-decoration="normal" x="32.67040659999999" y="652.4280198019999" text-anchor="start" dominant-baseline="alphabetic" xml:space="preserve">alt</text><g><rect fill="white" stroke="none" x="86.38045168207032" y="640.6666734259999" width="244.7581049353125" height="16.988611432000003"/></g><text fill="black" stroke="none" font-family="sans-serif" font-size="8.8pt" font-style="normal" font-weight="bold" text-decoration="normal" x="88.83073217707032" y="652.4280198019999" text-anchor="start" dominant-baseline="alphabetic" xml:space="preserve">[If there is required field do not have value]</text><g><path fill="none" stroke="black" paint-order="fill stroke markers" d=" M 16.335203299999996 791.277247852 L 1026.4067197103827 791.277247852" stroke-miterlimit="10" stroke-width="2.3336004714285714" stroke-dasharray="4.083800825"/></g><g/><g><rect fill="white" stroke="none" x="86.38045168207032" y="792.5840641159999" width="36.84300483765625" height="16.988611432000003"/></g><text fill="black" stroke="none" font-family="sans-serif" font-size="8.8pt" font-style="normal" font-weight="bold" text-decoration="normal" x="88.83073217707032" y="804.3454104919999" text-anchor="start" dominant-baseline="alphabetic" xml:space="preserve">[Else]</text></g><g/></g></g></svg>