<svg version="1.1" xmlns="http://www.w3.org/2000/svg" xmlns:xlink="http://www.w3.org/1999/xlink" width="1298" height="1385"><desc>title%20Get%20Curriculum%20Detail%0A%0A%0Aactor%20%23green%3A0.5%20%22Workspace%20Admin%22%20as%20w%0Aboundary%20%22Curriculum%20detail%20page%22%20as%20f%0Acontrol%20%22Curriculum%20%5CnController%22%20as%20gc%0Aparticipant%20%22Curriculum%20%5CnService%22%20as%20gs%0Aparticipant%20%22Curriculum%20Plan%20%5CnService%22%20as%20cps%0Aparticipant%20%22Combo%20%5CnService%22%20as%20cbs%0A%0Adatabase%20%23blue%3A1%20%22Database%22%20as%20db%0Aw-%3Ef%3AGo%20to%20Curriculum%20detail%20page%0Aactivate%20f%0Af-%3Egc%3AGET%3A%20%2Fapi%2Fcurriculum%2F%7Bid%7D%0Aactivate%20gc%0Agc-%3Egs%3Aget(id)%0Aactivate%20gs%0Ags-%3Edb%3AfindById(id)%0Aactivate%20db%0Ags%3C--db%3ACurriculum%20data%0Adeactivate%20db%0Agc%3C--gs%3ACurriculum%20data%0Adeactivate%20gs%0Aalt%20If%20Curriculum%20is%20empty%0Af%3C--gc%3A%3Ccolor%3A%23red%3E404%20NOT%20FOUND%3C%2Fcolor%3E%0A%0Aw%3C--f%3A%20Display%20404%20Not%20Found%20screen%0Aelse%20If%20Curriculum%20is%20present%0Af-%3Egc%3AGET%3A%20%5Cn%2Fapi%2Fcurriculum%2F%7Bid%7D%2Fsyllabus%0Agc-%3Ecps%3AgetAllByCurriculumId(id)%0Aactivate%20cps%0Acps-%3Edb%3AgetAllByCurriculumId(id)%0Aactivate%20db%0Acps%3C--db%3ASyllabus%20list%20%5Cnin%20Curriculum%0Adeactivate%20db%0Agc%3C--cps%3ASyllabus%20list%20%5Cnin%20Curriculum%0Adeactivate%20cps%0A%0Af-%3Egc%3AGET%3A%20%5Cn%2Fapi%2Fcurriculum%2F%7Bid%7D%2Fcombos%0Agc-%3Ecbs%3AgetAllByCurriculumId(id)%0Aactivate%20cbs%0Acbs-%3Edb%3AgetAllByCurriculumId(id)%0Aactivate%20db%0Acbs%3C--db%3ACombo%20list%20%5Cnin%20Curriculum%0Adeactivate%20db%0Agc%3C--cbs%3ACombo%20list%20%5Cnin%20Curriculum%0Adeactivate%20cbs%0A%0Af%3C--gc%3A%3Ccolor%3A%23green%3E200%20OK%3A%20%5CnAll%20data%20of%20Curriculum%5CnSyllabus%20List%5CnCombo%20list%20%3C%2Fcolor%3E%0Adeactivate%20gc%0A%0Aw%3C--f%3A%20Display%20Curriculum%20detail%0Adeactivate%20f%0Aend</desc><defs/><g><g/><g/><g/><g/><g/><g/><g/><g/><g/><g/><g/><g/><g/><g/><g/><g/><g/><g/><g/><g/><g/><g/><g/><g/><g/><g/><g/><g/><g/><g/><g/><g/><g/><g/><g/><g/><g/><g/><g/><g/><g><rect fill="white" stroke="none" x="0" y="0" width="1298" height="1385"/></g><g><text fill="black" stroke="none" font-family="sans-serif" font-size="16.5pt" font-style="normal" font-weight="normal" text-decoration="normal" x="543.8622624457331" y="24.50280495" text-anchor="start" dominant-baseline="alphabetic" xml:space="preserve">Get Curriculum Detail</text></g><g/><g><path fill="none" stroke="black" paint-order="fill stroke markers" d=" M 73.50841485 146.036717502 L 73.50841485 1385.8786479719995" stroke-miterlimit="10" stroke-width="1.3612669416666667" stroke-dasharray="12.565541,5.445067766666667"/><path fill="none" stroke="black" paint-order="fill stroke markers" d=" M 322.4376389555989 146.036717502 L 322.4376389555989 1385.8786479719995" stroke-miterlimit="10" stroke-width="1.3612669416666667" stroke-dasharray="12.565541,5.445067766666667"/><path fill="none" stroke="black" paint-order="fill stroke markers" d=" M 559.9639233293619 146.036717502 L 559.9639233293619 1385.8786479719995" stroke-miterlimit="10" stroke-width="1.3612669416666667" stroke-dasharray="12.565541,5.445067766666667"/><path fill="none" stroke="black" paint-order="fill stroke markers" d=" M 723.3313484501953 146.036717502 L 723.3313484501953 1385.8786479719995" stroke-miterlimit="10" stroke-width="1.3612669416666667" stroke-dasharray="12.565541,5.445067766666667"/><path fill="none" stroke="black" paint-order="fill stroke markers" d=" M 866.7602823276992 146.036717502 L 866.7602823276992 1385.8786479719995" stroke-miterlimit="10" stroke-width="1.3612669416666667" stroke-dasharray="12.565541,5.445067766666667"/><path fill="none" stroke="black" paint-order="fill stroke markers" d=" M 998.3853679386016 146.036717502 L 998.3853679386016 1385.8786479719995" stroke-miterlimit="10" stroke-width="1.3612669416666667" stroke-dasharray="12.565541,5.445067766666667"/><path fill="none" stroke="black" paint-order="fill stroke markers" d=" M 1216.3268287039662 146.036717502 L 1216.3268287039662 1385.8786479719995" stroke-miterlimit="10" stroke-width="1.3612669416666667" stroke-dasharray="12.565541,5.445067766666667"/></g><g><g><path fill="white" stroke="green" paint-order="fill stroke markers" d=" M 82.819480731 76.93880754300004 A 9.311065881 9.311065881 0 1 1 82.81947607546743 76.92949647867087 M 73.50841485 86.24987342400003 L 73.50841485 106.17882145000003 M 61.747068473999995 93.43736287600004 L 85.26976122599999 93.43736287600004 M 73.50841485 106.17882145000003 L 61.747068473999995 124.80095321200002 M 73.50841485 106.17882145000003 L 85.26976122599999 124.80095321200002" stroke-miterlimit="10" stroke-width="1.3884922805000002" stroke-dasharray=""/></g><g><text fill="black" stroke="none" font-family="sans-serif" font-size="11pt" font-style="normal" font-weight="normal" text-decoration="normal" x="14.166991815332025" y="141.136156512" text-anchor="start" dominant-baseline="alphabetic" xml:space="preserve">Workspace Admin</text></g><g><path fill="white" stroke="black" paint-order="fill stroke markers" d=" M 354.8630175060989 99.15468403100002 A 24.2577769005 24.2577769005 0 1 1 354.8630053772115 99.13042625814246 M 291.4007526855989 73.50841485000001 L 291.4007526855989 124.80095321200002 M 290.0122604050989 99.15468403100002 L 306.3474637050989 99.15468403100002" stroke-miterlimit="10" stroke-width="2.7769845610000004" stroke-dasharray=""/></g><g><text fill="black" stroke="none" font-family="sans-serif" font-size="11pt" font-style="normal" font-weight="normal" text-decoration="normal" x="249.10195322561844" y="141.136156512" text-anchor="start" dominant-baseline="alphabetic" xml:space="preserve">Curriculum detail page</text></g><g><path fill="white" stroke="black" paint-order="fill stroke markers" d=" M 584.2217002298619 82.819480731 A 24.2577769005 24.2577769005 0 1 1 584.2216881009745 82.79522295814245 M 556.6968826693619 58.561703830499994 L 566.4980046493619 50.39410218049999 M 556.6968826693619 58.561703830499994 L 566.4980046493619 66.72930548049999" stroke-miterlimit="10" stroke-width="2.7769845610000004" stroke-dasharray=""/></g><g><text fill="black" stroke="none" font-family="sans-serif" font-size="11pt" font-style="normal" font-weight="normal" text-decoration="normal" x="522.4943646135416" y="124.80095321200001" text-anchor="start" dominant-baseline="alphabetic" xml:space="preserve">Curriculum </text><text fill="black" stroke="none" font-family="sans-serif" font-size="11pt" font-style="normal" font-weight="normal" text-decoration="normal" x="528.1887081804362" y="141.136156512" text-anchor="start" dominant-baseline="alphabetic" xml:space="preserve">Controller</text></g><path fill="none" stroke="none"/><g><path fill="white" stroke="black" paint-order="fill stroke markers" d=" M 668.1380941538749 85.75981732500003 L 778.5246027465156 85.75981732500003 L 778.5246027465156 146.03671750200002 L 668.1380941538749 146.03671750200002 L 668.1380941538749 85.75981732500003 Z" stroke-miterlimit="10" stroke-width="2.613632528" stroke-dasharray=""/></g><g><text fill="black" stroke="none" font-family="sans-serif" font-size="11pt" font-style="normal" font-weight="normal" text-decoration="normal" x="685.861789734375" y="113.366310902" text-anchor="start" dominant-baseline="alphabetic" xml:space="preserve">Curriculum </text><text fill="black" stroke="none" font-family="sans-serif" font-size="11pt" font-style="normal" font-weight="normal" text-decoration="normal" x="698.8897056889648" y="129.701514202" text-anchor="start" dominant-baseline="alphabetic" xml:space="preserve">Service</text></g><path fill="none" stroke="none"/><g><path fill="white" stroke="black" paint-order="fill stroke markers" d=" M 794.8598060465156 85.75981732500003 L 938.6607586088828 85.75981732500003 L 938.6607586088828 146.03671750200002 L 794.8598060465156 146.03671750200002 L 794.8598060465156 85.75981732500003 Z" stroke-miterlimit="10" stroke-width="2.613632528" stroke-dasharray=""/></g><g><text fill="black" stroke="none" font-family="sans-serif" font-size="11pt" font-style="normal" font-weight="normal" text-decoration="normal" x="812.5835016270156" y="113.366310902" text-anchor="start" dominant-baseline="alphabetic" xml:space="preserve">Curriculum Plan </text><text fill="black" stroke="none" font-family="sans-serif" font-size="11pt" font-style="normal" font-weight="normal" text-decoration="normal" x="842.3186395664687" y="129.701514202" text-anchor="start" dominant-baseline="alphabetic" xml:space="preserve">Service</text></g><path fill="none" stroke="none"/><g><path fill="white" stroke="black" paint-order="fill stroke markers" d=" M 954.9959619088828 85.75981732500003 L 1041.7747739683202 85.75981732500003 L 1041.7747739683202 146.03671750200002 L 954.9959619088828 146.03671750200002 L 954.9959619088828 85.75981732500003 Z" stroke-miterlimit="10" stroke-width="2.613632528" stroke-dasharray=""/></g><g><text fill="black" stroke="none" font-family="sans-serif" font-size="11pt" font-style="normal" font-weight="normal" text-decoration="normal" x="972.7196574893828" y="113.366310902" text-anchor="start" dominant-baseline="alphabetic" xml:space="preserve">Combo </text><text fill="black" stroke="none" font-family="sans-serif" font-size="11pt" font-style="normal" font-weight="normal" text-decoration="normal" x="973.9437251773711" y="129.701514202" text-anchor="start" dominant-baseline="alphabetic" xml:space="preserve">Service</text></g><g><path fill="white" stroke="blue" paint-order="fill stroke markers" d=" M 1192.477431885966 114.01971903400002 L 1192.477431885966 79.71579210400003 L 1240.1762255219662 79.71579210400003 L 1240.1762255219662 114.01971903400002" stroke-miterlimit="10" stroke-width="2.7769845610000004" stroke-dasharray=""/><path fill="white" stroke="blue" paint-order="fill stroke markers" d=" M 1240.1762255219662 78.52332226310003 L 1240.1750330620625 78.63113280801664 L 1240.1714558015965 78.73893257196862 L 1240.165494098291 78.84671077506938 L 1240.1571485483119 78.95445663958843 L 1240.1464199862066 79.06215939102911 L 1240.1333094848228 79.16980825920604 L 1240.1178183551995 79.27739247932207 L 1240.0999481464369 79.38490129304488 L 1240.079700645541 79.49232394958268 L 1240.0570778772446 79.59964970675932 L 1240.0320821038063 79.70686783208855 L 1240.0047158247824 79.81396760384715 L 1239.9749817767777 79.92093831214721 L 1239.9428829331725 80.02776926000705 L 1239.9084225038243 80.13444976442089 L 1239.8716039347476 80.2409691574272 L 1239.8324309077684 80.34731678717546 L 1239.7909073401565 80.45348201899128 L 1239.7470373842345 80.55945423643999 L 1239.7008254269613 80.66522284238813 L 1239.6522760894939 80.77077726006326 L 1239.601394226726 80.87610693411155 L 1239.5481849268008 80.9812013316534 L 1239.4926535106047 81.08604994333662 L 1239.4348055312328 81.19064228438741 L 1239.3746467734345 81.29496789565883 L 1239.3121832530358 81.3990163446767 L 1239.2474212163368 81.50277722668281 L 1239.1803671394866 81.60624016567543 L 1239.1110277278376 81.70939481544688 L 1239.0394099152732 81.81223086061816 L 1238.9655208635145 81.91473801767043 L 1238.8893679614052 82.0169060359734 L 1238.8109588241725 82.11872469881041 L 1238.7303012926645 82.22018382440001 L 1238.647403432567 82.32127326691418 L 1238.5622735335971 82.42198291749291 L 1238.4749201086738 82.52230270525509 L 1238.3853518930666 82.62222259830551 L 1238.2935778435224 82.72173260473815 L 1238.19960713737 82.8208227736353 L 1238.1034491716016 82.91948319606263 L 1238.0051135619333 83.01770400606013 L 1237.9046101418446 83.11547538162863 L 1237.8019489615933 83.21278754571205 L 1237.6971402872123 83.3096307671751 L 1237.5901945994815 83.4059953617763 L 1237.4811225928806 83.50187169313652 L 1237.3699351745192 83.59725017370252 L 1237.2566434630467 83.69212126570572 L 1237.1412587875398 83.78647548211597 L 1237.0237926863697 83.88030338759027 L 1236.9042569060489 83.97359559941626 L 1236.7826634000555 84.0663427884505 L 1236.6590243276391 84.15853568005136 L 1236.5333520526037 84.25016505500653 L 1236.4056591420722 84.34122175045486 L 1236.2759583652294 84.43169666080269 L 1236.1442626920443 84.52158073863437 L 1236.010585291975 84.61086499561704 L 1235.8749395326502 84.69954050339939 L 1235.7373389785323 84.78759839450454 L 1235.5977973895624 84.87502986321677 L 1235.4563287197832 84.96182616646205 L 1235.3129471159434 85.0479786246824 L 1235.167666916084 85.13347862270378 L 1235.0205026481044 85.21831761059765 L 1234.8714690283082 85.30248710453591 L 1234.7205809599334 85.38597868763932 L 1234.567853531661 85.46878401081914 L 1234.4133020161066 85.55089479361204 L 1234.256941868293 85.6323028250082 L 1234.098788724105 85.71299996427229 L 1233.9388583987247 85.79297814175763 L 1233.7771668850514 85.87222935971315 L 1233.613730352102 85.95074569308306 L 1233.4485651433936 86.02851929029947 L 1233.2816877753094 86.10554237406748 L 1233.113114935447 86.1818072421429 L 1232.9428634809497 86.25730626810244 L 1232.7709504368215 86.33203190210645 L 1232.5973929942236 86.4059766716538 L 1232.4222085087551 86.47913318232916 L 1232.2454144987191 86.55149411854241 L 1232.067028643369 86.62305224426024 L 1231.8870687811418 86.69380040372971 L 1231.7055529078737 86.76373152219381 L 1231.5224991750008 86.832838606599 L 1231.3379258877437 86.90111474629441 L 1231.1518515032776 86.96855311372298 L 1230.9642946288857 87.03514696510413 L 1230.775274020099 87.10088964110827 L 1230.5848085788211 87.16577456752255 L 1230.3929173514373 87.2297952559084 L 1230.1996195269105 87.29294530425035 L 1230.004934434862 87.35521839759618 L 1229.8088815436388 87.41660830868844 L 1229.6114804583667 87.47710889858719 L 1229.4127509189896 87.53671411728386 L 1229.2127127982958 87.59541800430624 L 1229.0113860999309 87.65321468931457 L 1228.8087909563967 87.71009839268848 L 1228.604947627039 87.76606342610505 L 1228.3998764960206 87.82110419310759 L 1228.193598070284 87.87521518966525 L 1227.9861329774997 87.92839100472347 L 1227.777501964004 87.98062632074506 L 1227.5677258927244 88.03191591424195 L 1227.3568257410934 88.08225465629752 L 1227.1448225989504 88.13163751307953 L 1226.9317376664328 88.18005954634344 L 1226.7175922518563 88.22751591392628 L 1226.5024077695841 88.27400187023083 L 1226.286205737885 88.31951276670023 L 1226.0690077767817 88.36404405228271 L 1225.8508356058896 88.40759127388685 L 1225.6317110422442 88.45015007682679 L 1225.411655998119 88.49171620525767 L 1225.1906924788348 88.53228550260131 L 1224.9688425805598 88.57185391196177 L 1224.7461284880987 88.6104174765311 L 1224.5225724726754 88.64797233998496 L 1224.2981968897047 88.68451474686832 L 1224.0730241765584 88.72004104297093 L 1223.84707685032 88.75454767569279 L 1223.620377505534 88.7880311943994 L 1223.3929488119454 88.82048825076676 L 1223.1648135122348 88.8519155991163 L 1222.9359944197413 88.88231009673936 L 1222.706514416184 88.91166870421154 L 1222.476396449372 88.93998848569652 L 1222.24566353091 88.96726660923976 L 1222.0143387338976 88.99350034705165 L 1221.7824451906217 89.01868707578028 L 1221.5500060902436 89.04282427677373 L 1221.3170446764796 89.06590953633204 L 1221.0835842452766 89.0879405459485 L 1220.8496481424836 89.10891510254048 L 1220.6152597615157 89.12883110866981 L 1220.3804425410158 89.14768657275249 L 1220.14521996251 89.1654796092578 L 1219.9096155480604 89.18220843889694 L 1219.6736528579122 89.19787138880088 L 1219.4373554881374 89.21246689268766 L 1219.2007470682763 89.22599349101908 L 1218.9638512589738 89.23844983114658 L 1218.7266917496133 89.2498346674465 L 1218.4892922559482 89.26014686144474 L 1218.2516765177297 89.26938538193045 L 1218.013868296334 89.27754930505931 L 1217.775891372385 89.2846378144458 L 1217.5377695433767 89.29065020124489 L 1217.2995266212934 89.2955858642229 L 1217.061186430229 89.29944430981766 L 1216.822772804004 89.30222515218782 L 1216.5843095837824 89.30392811325146 L 1216.3458206156872 89.30455302271389 L 1216.1073297484168 89.30409981808468 L 1215.868860830859 89.30256854468394 L 1215.6304377097067 89.29995935563771 L 1215.3920842270736 89.29627251186272 L 1215.1538242181093 89.29150838204029 L 1214.915681508616 89.28566744257942 L 1214.6776799126662 89.2787502775692 L 1214.4398432302214 89.27075757872036 L 1214.2021952447515 89.26169014529611 L 1213.964759720857 89.25154888403227 L 1213.7275604018923 89.24033480904649 L 1213.490621007592 89.22804904173692 L 1213.2539652316975 89.21469281067007 L 1213.0176167395898 89.2002674514579 L 1212.7815991659209 89.18477440662434 L 1212.5459361122512 89.16821522546093 L 1212.3106511446902 89.15059156387198 L 1212.075767791538 89.131905184209 L 1211.8413095409348 89.11215795509437 L 1211.6072998385098 89.09135185123453 L 1211.3737620850386 89.06948895322255 L 1211.1407196341015 89.04657144732998 L 1210.90819578975 89.02260162528835 L 1210.676213804174 88.99758188405987 L 1210.4447968753793 88.97151472559781 L 1210.213968144866 88.94440275659629 L 1209.9837506953143 88.91624868822964 L 1209.7541675482778 88.88705533588121 L 1209.5252416618796 88.85682561886193 L 1209.2969959285176 88.82556256011829 L 1209.0694531725749 88.79326928593011 L 1208.8426361481377 88.75994902559792 L 1208.616567536719 88.72560511111998 L 1208.391269944992 88.6902409768591 L 1208.1667659025281 88.65386015919924 L 1207.9430778595442 88.61646629619187 L 1207.7202281846583 88.57806312719212 L 1207.4982391626522 88.53865449248488 L 1207.277132992243 88.49824433290078 L 1207.0569317838638 88.4568366894221 L 1206.8376575574514 88.4144357027787 L 1206.6193322402462 88.3710456130339 L 1206.401977664598 88.32667075916052 L 1206.1856155657829 88.28131557860695 L 1205.9702675798305 88.23498460685347 L 1205.7559552413602 88.18768247695864 L 1205.5426999814272 88.13941391909603 L 1205.3305231253796 88.0901837600812 L 1205.1194458907264 88.03999692288905 L 1204.9094893850151 87.98885842616143 L 1204.7006746037212 87.93677338370544 L 1204.4930224281488 87.88374700398191 L 1204.2865536233426 87.8297845895846 L 1204.081288836011 87.77489153671002 L 1203.8772485924615 87.71907333461769 L 1203.6744532965486 87.66233556508129 L 1203.472923227633 87.60468390183053 L 1203.272678538553 87.54612410998368 L 1203.0737392536116 87.4866620454711 L 1202.8761252665709 87.42630365444973 L 1202.6798563386649 87.36505497270832 L 1202.4849520966231 87.30292212506406 L 1202.291432030707 87.2399113247499 L 1202.0993154927623 87.17602887279338 L 1201.9086216942826 87.11128115738646 L 1201.7193697044886 87.0456746532467 L 1201.5315784484217 86.97921592096989 L 1201.345266705051 86.91191160637383 L 1201.1604531053956 86.84376843983392 L 1200.9771561306616 86.77479323561002 L 1200.7953941103933 86.70499289116506 L 1200.6151852206417 86.63437438647533 L 1200.4365474821454 86.56294478333245 L 1200.2594987585296 86.49071122463722 L 1200.0840567545188 86.4176809336853 L 1199.9102390141672 86.34386121344494 L 1199.7380629191043 86.26925944582663 L 1199.5675456867962 86.19388309094498 L 1199.3987043688235 86.11773968637264 L 1199.2315558491775 86.04083684638665 L 1199.066116842571 85.96318226120691 L 1198.902403892767 85.88478369622722 L 1198.7404333709237 85.80564899123874 L 1198.5802214739583 85.72578605964603 L 1198.4217842229273 85.64520288767571 L 1198.2651374614236 85.5639075335778 L 1198.1102968539926 85.48190812681999 L 1197.9572778845663 85.3992128672746 L 1197.806095854914 85.31583002439868 L 1197.6567658831127 85.23176793640704 L 1197.5093029020352 85.14703500943843 L 1197.3637216578568 85.06163971671492 L 1197.2200367085802 84.97559059769462 L 1197.078262422581 84.88889625721775 L 1196.9384129771695 84.80156536464608 L 1196.8005023571739 84.71360665299612 L 1196.6645443535408 84.62502891806572 L 1196.5305525619578 84.53584101755456 L 1196.398540381492 84.44605187017837 L 1196.2685210132518 84.35567045477706 L 1196.1405074590652 84.26470580941687 L 1196.0145125201814 84.1731670304865 L 1195.890548795989 84.08106327178758 L 1195.7686286827573 83.98840374361924 L 1195.6487643723958 83.89519771185707 L 1195.5309678512358 83.80145449702657 L 1195.4152508988313 83.70718347337109 L 1195.3016250867813 83.61239406791447 L 1195.1901017775717 83.51709575951824 L 1195.0806921234412 83.42129807793384 L 1194.9734070652635 83.32501060284957 L 1194.8682573314552 83.22824296293274 L 1194.7652534369022 83.13100483486667 L 1194.664405681908 83.03330594238315 L 1194.5657241511637 82.93515605529001 L 1194.469218712741 82.83656498849416 L 1194.3748990171023 82.73754260102014 L 1194.2827744961394 82.63809879502416 L 1194.192854362227 82.53824351480395 L 1194.1051476073042 82.43798674580434 L 1194.019663001973 82.33733851361866 L 1193.9364090946226 82.23630888298626 L 1193.8553942105748 82.13490795678602 L 1193.77662645125 82.03314587502607 L 1193.7001136933586 81.93103281382975 L 1193.625863588113 81.82857898441812 L 1193.5538835604611 81.72579463208872 L 1193.4841808083465 81.62269003519114 L 1193.416762301986 81.51927550409916 L 1193.351634783174 81.4155613801797 L 1193.2888047646081 81.3115580347587 L 1193.228278529238 81.20727586808408 L 1193.1700621296366 81.10272530828557 L 1193.1141613873951 80.99791681033204 L 1193.0605818925417 80.89286085498595 L 1193.009329002981 80.78756794775528 L 1192.960407843959 80.682048617843 L 1192.9138233075514 80.57631341709417 L 1192.8695800521723 80.47037291894078 L 1192.827682502111 80.36423771734434 L 1192.7881348470871 80.25791842573655 L 1192.7509410418336 80.15142567595801 L 1192.7161048056996 80.04477011719491 L 1192.68362962228 79.9379624149143 L 1192.653518739066 79.83101324979734 L 1192.6257751671208 79.72393331667146 L 1192.6004016807783 79.61673332344074 L 1192.5774008173664 79.50942399001515 L 1192.556774876952 79.40201604723862 L 1192.5385259221118 79.29452023581591 L 1192.5226557777264 79.18694730523859 L 1192.509166030797 79.07930801271009 L 1192.4980580302868 78.97161312206994 L 1192.4893328869866 78.86387340271747 L 1192.4829914734037 78.75609962853483 L 1192.479034423674 78.64830257680963 L 1192.4774621334993 78.5404930271572 L 1192.4782747601073 78.43268176044268 L 1192.4814722222359 78.32487955770289 L 1192.4870542001415 78.21709719906826 L 1192.4950201356312 78.10934546268486 L 1192.505369232118 78.00163512363652 L 1192.5181004547007 77.89397695286739 L 1192.533212530268 77.78638171610483 L 1192.5507039476245 77.67886017278285 L 1192.5705729576432 77.57142307496619 L 1192.59281757344 77.4640811662751 L 1192.6174355705714 77.35684518081099 L 1192.6444244872584 77.24972584208304 L 1192.6737816246318 77.14273386193588 L 1192.7055040470023 77.03587993947833 L 1192.739588582154 76.92917476001364 L 1192.7760318216622 76.82262899397078 L 1192.814830121233 76.7162532958376 L 1192.8559796010686 76.61005830309527 L 1192.8994761462557 76.50405463515456 L 1192.9453154071757 76.39825289229391 L 1192.993492799941 76.29266365459947 L 1193.044003506852 76.187297480907 L 1193.0968424768807 76.08216490774608 L 1193.1520044261738 75.97727644828639 L 1193.2094838385824 75.87264259128648 L 1193.2692749662133 75.76827380004487 L 1193.3313718300033 75.66418051135369 L 1193.3957682203177 75.56037313445508 L 1193.4624576975714 75.45686205000021 L 1193.5314335928722 75.3536576090113 L 1193.602689008688 75.2507701318464 L 1193.6762168195366 75.1482099071675 L 1193.7520096726983 75.04598719091162 L 1193.8300599889508 74.9441122052652 L 1193.9103599633274 74.84259513764188 L 1193.992901565898 74.74144613966385 L 1194.0776765425708 74.6406753261466 L 1194.1646764159186 74.54029277408755 L 1194.253892486027 74.4403085216582 L 1194.345315831363 74.34073256720049 L 1194.4389373096685 74.24157486822689 L 1194.5347475588737 74.14284534042467 L 1194.6327369980334 74.04455385666434 L 1194.732895828285 73.94671024601234 L 1194.8352140338295 73.84932429274824 L 1194.9396813829314 73.75240573538618 L 1195.0462874289428 73.65596426570113 L 1195.1550215113482 73.56000952775972 L 1195.2658727568296 73.46455111695575 L 1195.3788300803549 73.36959857905077 L 1195.4938821862859 73.27516140921944 L 1195.611017569508 73.18124905110005 L 1195.7302245165806 73.08787089585014 L 1195.851491106908 72.99503628120743 L 1195.9748052139323 72.90275449055602 L 1196.100154506346 72.81103475199808 L 1196.2275264493235 72.71988623743101 L 1196.3569083057773 72.62931806163034 L 1196.4882871376294 72.53933928133816 L 1196.621649807106 72.44995889435752 L 1196.7569829780514 72.36118583865263 L 1196.8942731172613 72.2730289914551 L 1197.033506495836 72.18549716837617 L 1197.174669190554 72.0985991225252 L 1197.3177470852631 72.01234354363439 L 1197.4627258722933 71.9267390571897 L 1197.6095910538866 71.84179422356848 L 1197.7583279436471 71.7575175371833 L 1197.9089216680102 71.67391742563255 L 1198.0613571677284 71.59100224885773 L 1198.2156191993793 71.50878029830743 L 1198.371692336888 71.42725979610816 L 1198.5295609730708 71.34644889424223 L 1198.6892093211957 71.26635567373248 L 1198.850621416561 71.18698814383421 L 1199.0137811180912 71.10835424123428 L 1199.178672109953 71.03046182925742 L 1199.3452779031838 70.95331869707991 L 1199.5135818373435 70.8769325589507 L 1199.6835670821788 70.80131105341991 L 1199.8552166393072 70.72646174257511 L 1200.0285133439154 70.65239211128501 L 1200.203439866478 70.579109566451 L 1200.379978714488 70.5066214362665 L 1200.5581122342082 70.43493496948412 L 1200.7378226124347 70.3640573346908 L 1200.9190918782797 70.29399561959096 L 1201.1019019049675 70.22475683029771 L 1201.2862344116477 70.1563478906323 L 1201.4720709652233 70.08877564143168 L 1201.6593929821938 70.02204683986446 L 1201.848181730514 69.9561681587552 L 1202.0384183314657 69.8911461859171 L 1202.2300837615478 69.82698742349325 L 1202.4231588543769 69.76369828730645 L 1202.6176243026046 69.70128510621757 L 1202.813460659848 69.6397541214927 L 1203.010648342635 69.57911148617904 L 1203.2091676323612 69.51936326448958 L 1203.408998677263 69.46051543119673 L 1203.610121494403 69.40257387103475 L 1203.8125159716667 69.34554437811137 L 1204.0161618697748 69.28943265532837 L 1204.2210388243077 69.23424431381126 L 1204.4271263477403 69.1799848723482 L 1204.6344038314924 69.12665975683814 L 1204.8428505479878 69.07427429974817 L 1205.052445652729 69.02283373958036 L 1205.26316818638 68.97234322034787 L 1205.474997076863 68.9228077910605 L 1205.6879111414655 68.87423240521996 L 1205.9018890889586 68.82662192032431 L 1206.1169095217258 68.77998109738239 L 1206.332950937903 68.73431460043761 L 1206.5499917335287 68.68962699610162 L 1206.7680102047038 68.64592275309762 L 1206.9869845497635 68.60320624181347 L 1207.2068928714552 68.56148173386472 L 1207.4277131791305 68.52075340166739 L 1207.649423390942 68.48102531802076 L 1207.872001336054 68.44230145570006 L 1208.095424756857 68.4045856870593 L 1208.3196713111952 68.36788178364388 L 1208.5447185746002 68.33219341581358 L 1208.770544042533 68.29752415237542 L 1208.997125132635 68.26387746022687 L 1209.224439186986 68.23125670400908 L 1209.4524634743702 68.19966514577052 L 1209.6811751925486 68.16910594464068 L 1209.9105514705402 68.1395821565142 L 1210.1405693709082 68.11109673374527 L 1210.3712058920544 68.08365252485247 L 1210.6024379705188 68.05725227423379 L 1210.8342424832863 68.03189862189231 L 1211.0665962500987 68.00759410317211 L 1211.2994760357728 67.98434114850484 L 1211.5328585525244 67.96214208316657 L 1211.766720462296 67.94099912704533 L 1212.0010383790918 67.92091439441914 L 1212.2357888713154 67.9018898937445 L 1212.470948464113 67.88392752745563 L 1212.7064936417214 67.86702909177419 L 1212.942400849819 67.85119627652966 L 1213.1786464978818 67.8364306649904 L 1213.4152069615416 67.82273373370522 L 1213.6520585849494 67.81010685235586 L 1213.88917768314 67.79855128361993 L 1214.1265405444015 67.78806818304466 L 1214.364123432645 67.77865859893137 L 1214.6019025897806 67.77032347223066 L 1214.8398542380899 67.76306363644822 L 1215.0779545826067 67.75687981756161 L 1215.3161798134947 67.75177263394752 L 1215.5545061084297 67.74774259632011 L 1215.7929096349808 67.74479010767975 L 1216.0313665529936 67.74291546327285 L 1216.2698530169755 67.74211885056229 L 1216.5083451784785 67.74240034920868 L 1216.7468191884855 67.74375993106239 L 1216.9852511997938 67.74619746016636 L 1217.2236173694012 67.74971269276972 L 1217.4618938608896 67.75430527735213 L 1217.700056846808 67.75997475465897 L 1217.9380825110566 67.76672055774722 L 1218.175947051267 67.7745420120422 L 1218.4136266811838 67.78343833540501 L 1218.6510976330417 67.7934086382107 L 1218.8883361599437 67.80445192343733 L 1219.1253185382348 67.81656708676556 L 1219.3620210698743 67.82975291668915 L 1219.5984200848065 67.84400809463611 L 1219.834491943327 67.85933119510051 L 1220.0702130384468 67.87572068578508 L 1220.3055597982525 67.89317492775442 L 1220.5405086882643 67.91169217559886 L 1220.7750362137892 67.93127057760906 L 1221.0091189222699 67.95190817596112 L 1221.2427334056306 67.97360290691242 L 1221.4758563026178 67.99635260100793 L 1221.7084643011358 68.0201549832972 L 1221.9405341405788 68.04500767356186 L 1222.1720426141565 68.07090818655355 L 1222.4029665712137 68.0978539322426 L 1222.633282919548 68.12584221607686 L 1222.8629686277159 68.15487023925128 L 1223.0920007273382 68.18493509898775 L 1223.3203563153959 68.21603378882533 L 1223.5480125565205 68.24816319892096 L 1223.7749466852772 68.2813201163604 L 1224.0011360084427 68.31550122547955 L 1224.2265579072728 68.35070310819597 L 1224.451189839766 68.38692224435073 L 1224.6750093429155 68.42415501206038 L 1224.897994034958 68.4623976880792 L 1225.12012161761 68.50164644817144 L 1225.3413698782986 68.5418973674938 L 1225.5617166923817 68.5831464209879 L 1225.7811400253615 68.62538948378277 L 1225.999617935088 68.66862233160731 L 1226.2171285739519 68.71284064121278 L 1226.4336501910707 68.75803999080506 L 1226.6491611344632 68.80421586048686 L 1226.8636398532144 68.8513636327097 L 1227.0770648996313 68.89947859273563 L 1227.2894149313872 68.94855592910876 L 1227.5006687136558 68.99859073413636 L 1227.7108051212351 69.04957800437958 L 1227.9198031406593 69.10151264115393 L 1228.1276418723003 69.15438945103898 L 1228.3343005324587 69.20820314639782 L 1228.5397584554403 69.26294834590577 L 1228.7439950956243 69.31861957508848 L 1228.9469900295167 69.37521126686941 L 1229.1487229577933 69.43271776212659 L 1229.3491737073293 69.49113331025838 L 1229.548322233217 69.55045206975865 L 1229.7461486207696 69.6106681088009 L 1229.9426330875133 69.67177540583138 L 1230.1377559851649 69.73376785017133 L 1230.3314978015976 69.79663924262796 L 1230.523839162791 69.86038329611443 L 1230.7147608347695 69.92499363627851 L 1230.9042437255248 69.99046380214003 L 1231.0922688869257 70.05678724673693 L 1231.2788175166127 70.12395733778007 L 1231.4638709598785 70.19196735831628 L 1231.6474107115328 70.2608105074002 L 1231.8294184177535 70.33047990077428 L 1232.0098758779213 70.40096857155726 L 1232.1887650464412 70.47226947094077 L 1232.3660680345452 70.54437546889432 L 1232.5417671120817 70.61727935487819 L 1232.7158447092902 70.69097383856453 L 1232.8882834185554 70.7654515505664 L 1233.0590659961504 70.84070504317464 L 1233.2281753639597 70.91672679110272 L 1233.3955946111873 70.99350919223919 L 1233.5613069960482 71.07104456840791 L 1233.725295947442 71.14932516613591 L 1233.8875450666098 71.22834315742861 L 1234.0480381287755 71.30809064055276 L 1234.2067590847662 71.38855964082649 L 1234.3636920626188 71.46974211141682 L 1234.5188213691663 71.55162993414437 L 1234.672131491607 71.6342149202951 L 1234.8236070990567 71.71748881143918 L 1234.9732330440809 71.80144328025693 L 1235.1209943642098 71.88606993137142 L 1235.2668762834342 71.97136030218806 L 1235.4108642136841 72.05730586374082 L 1235.5529437562864 72.14389802154521 L 1235.693100703405 72.23112811645758 L 1235.8313210394622 72.31898742554114 L 1235.9675909425396 72.40746716293819 L 1236.1018967857603 72.49655848074872 L 1236.2342251386522 72.58625246991521 L 1236.3645627684898 72.67654016111346 L 1236.4928966416192 72.76741252564963 L 1236.6192139247598 72.85886047636295 L 1236.7435019862885 72.95087486853458 L 1236.865748397503 73.04344650080199 L 1236.9859409338637 73.13656611607907 L 1237.1040675762172 73.2302244024819 L 1237.220116511998 73.32441199425989 L 1237.3340761364088 73.41911947273236 L 1237.4459350535824 73.51433736723038 L 1237.5556820777203 73.61005615604385 L 1237.6633062342114 73.70626626737365 L 1237.7687967607299 73.80295808028882 L 1237.872143108311 73.90012192568864 L 1237.973334942406 73.99774808726954 L 1238.0723621439158 74.09582680249675 L 1238.169214810203 74.19434826358044 L 1238.2638832560813 74.29330261845661 L 1238.3563580147852 74.39267997177224 L 1238.446629838916 74.49247038587482 L 1238.5346897013662 74.59266388180609 L 1238.6205287962234 74.69325044029995 L 1238.7041385396492 74.79422000278437 L 1238.7855105707392 74.89556247238725 L 1238.8646367523581 74.99726771494608 L 1238.9415091719536 75.09932556002136 L 1239.0161201423477 75.20172580191361 L 1239.0884622025058 75.304458200684 L 1239.158528118282 75.40751248317825 L 1239.226310883143 75.510878344054 L 1239.291803718869 75.61454544681129 L 1239.355000076231 75.71850342482624 L 1239.4158936356455 75.82274188238767 L 1239.474478307808 75.9272503957367 L 1239.5307482342996 76.03201851410908 L 1239.584697788175 76.13703576078028 L 1239.636321574523 76.24229163411314 L 1239.6856144310088 76.34777560860806 L 1239.7325714283872 76.45347713595547 L 1239.7771878709982 76.55938564609073 L 1239.8194592972343 76.66549054825109 L 1239.859381479988 76.77178123203474 L 1239.8969504270747 76.87824706846187 L 1239.9321623816309 76.98487741103759 L 1239.9650138224902 77.09166159681648 L 1239.995501464536 77.19858894746895 L 1240.0236222590297 77.30564877034905 L 1240.0493733939152 77.41283035956369 L 1240.0727522941002 77.52012299704329 L 1240.0937566217146 77.62751595361348 L 1240.1123842763427 77.73499849006812 L 1240.128633395235 77.84255985824313 L 1240.142502353493 77.95018930209135 L 1240.1539897642322 78.05787605875803 L 1240.1630944787214 78.16560935965728 L 1240.1698155864965 78.27337843154879 L 1240.1741524154527 78.38117249761517 L 1240.1761045319101 78.48898077853964 M 1240.1762255219662 112.82724919310002 L 1240.1750330620625 112.93505973801663 L 1240.1714558015965 113.04285950196861 L 1240.165494098291 113.15063770506937 L 1240.1571485483119 113.25838356958842 L 1240.1464199862066 113.3660863210291 L 1240.1333094848228 113.47373518920602 L 1240.1178183551995 113.58131940932206 L 1240.0999481464369 113.68882822304487 L 1240.079700645541 113.79625087958267 L 1240.0570778772446 113.90357663675931 L 1240.0320821038063 114.01079476208854 L 1240.0047158247824 114.11789453384714 L 1239.9749817767777 114.2248652421472 L 1239.9428829331725 114.33169619000704 L 1239.9084225038243 114.43837669442088 L 1239.8716039347476 114.54489608742719 L 1239.8324309077684 114.65124371717545 L 1239.7909073401565 114.75740894899127 L 1239.7470373842345 114.86338116643998 L 1239.7008254269613 114.96914977238812 L 1239.6522760894939 115.07470419006324 L 1239.601394226726 115.18003386411154 L 1239.5481849268008 115.28512826165338 L 1239.4926535106047 115.38997687333661 L 1239.4348055312328 115.4945692143874 L 1239.3746467734345 115.59889482565882 L 1239.3121832530358 115.70294327467668 L 1239.2474212163368 115.8067041566828 L 1239.1803671394866 115.91016709567542 L 1239.1110277278376 116.01332174544687 L 1239.0394099152732 116.11615779061815 L 1238.9655208635145 116.21866494767042 L 1238.8893679614052 116.3208329659734 L 1238.8109588241725 116.4226516288104 L 1238.7303012926645 116.5241107544 L 1238.647403432567 116.62520019691416 L 1238.5622735335971 116.7259098474929 L 1238.4749201086738 116.82622963525507 L 1238.3853518930666 116.9261495283055 L 1238.2935778435224 117.02565953473814 L 1238.19960713737 117.12474970363529 L 1238.1034491716016 117.22341012606262 L 1238.0051135619333 117.32163093606012 L 1237.9046101418446 117.41940231162862 L 1237.8019489615933 117.51671447571204 L 1237.6971402872123 117.61355769717508 L 1237.5901945994815 117.7099222917763 L 1237.4811225928806 117.80579862313651 L 1237.3699351745192 117.90117710370251 L 1237.2566434630467 117.99604819570571 L 1237.1412587875398 118.09040241211596 L 1237.0237926863697 118.18423031759026 L 1236.9042569060489 118.27752252941625 L 1236.7826634000555 118.37026971845049 L 1236.6590243276391 118.46246261005135 L 1236.5333520526037 118.55409198500652 L 1236.4056591420722 118.64514868045485 L 1236.2759583652294 118.73562359080267 L 1236.1442626920443 118.82550766863436 L 1236.010585291975 118.91479192561702 L 1235.8749395326502 119.00346743339938 L 1235.7373389785323 119.09152532450453 L 1235.5977973895624 119.17895679321676 L 1235.4563287197832 119.26575309646203 L 1235.3129471159434 119.35190555468239 L 1235.167666916084 119.43740555270377 L 1235.0205026481044 119.52224454059764 L 1234.8714690283082 119.6064140345359 L 1234.7205809599334 119.68990561763931 L 1234.567853531661 119.77271094081912 L 1234.4133020161066 119.85482172361203 L 1234.256941868293 119.93622975500818 L 1234.098788724105 120.01692689427227 L 1233.9388583987247 120.09690507175762 L 1233.7771668850514 120.17615628971313 L 1233.613730352102 120.25467262308305 L 1233.4485651433936 120.33244622029946 L 1233.2816877753094 120.40946930406747 L 1233.113114935447 120.48573417214288 L 1232.9428634809497 120.56123319810243 L 1232.7709504368215 120.63595883210644 L 1232.5973929942236 120.70990360165379 L 1232.4222085087551 120.78306011232915 L 1232.2454144987191 120.8554210485424 L 1232.067028643369 120.92697917426023 L 1231.8870687811418 120.9977273337297 L 1231.7055529078737 121.0676584521938 L 1231.5224991750008 121.13676553659899 L 1231.3379258877437 121.2050416762944 L 1231.1518515032776 121.27248004372296 L 1230.9642946288857 121.33907389510412 L 1230.775274020099 121.40481657110826 L 1230.5848085788211 121.46970149752254 L 1230.3929173514373 121.53372218590839 L 1230.1996195269105 121.59687223425034 L 1230.004934434862 121.65914532759616 L 1229.8088815436388 121.72053523868843 L 1229.6114804583667 121.78103582858718 L 1229.4127509189896 121.84064104728385 L 1229.2127127982958 121.89934493430623 L 1229.0113860999309 121.95714161931456 L 1228.8087909563967 122.01402532268847 L 1228.604947627039 122.06999035610504 L 1228.3998764960206 122.12503112310758 L 1228.193598070284 122.17914211966524 L 1227.9861329774997 122.23231793472345 L 1227.777501964004 122.28455325074505 L 1227.5677258927244 122.33584284424194 L 1227.3568257410934 122.38618158629751 L 1227.1448225989504 122.43556444307951 L 1226.9317376664328 122.48398647634343 L 1226.7175922518563 122.53144284392627 L 1226.5024077695841 122.57792880023082 L 1226.286205737885 122.62343969670022 L 1226.0690077767817 122.6679709822827 L 1225.8508356058896 122.71151820388684 L 1225.6317110422442 122.75407700682678 L 1225.411655998119 122.79564313525766 L 1225.1906924788348 122.8362124326013 L 1224.9688425805598 122.87578084196176 L 1224.7461284880987 122.91434440653109 L 1224.5225724726754 122.95189926998495 L 1224.2981968897047 122.9884416768683 L 1224.0730241765584 123.02396797297092 L 1223.84707685032 123.05847460569278 L 1223.620377505534 123.09195812439938 L 1223.3929488119454 123.12441518076675 L 1223.1648135122348 123.15584252911628 L 1222.9359944197413 123.18623702673935 L 1222.706514416184 123.21559563421152 L 1222.476396449372 123.2439154156965 L 1222.24566353091 123.27119353923975 L 1222.0143387338976 123.29742727705164 L 1221.7824451906217 123.32261400578027 L 1221.5500060902436 123.34675120677372 L 1221.3170446764796 123.36983646633203 L 1221.0835842452766 123.39186747594849 L 1220.8496481424836 123.41284203254047 L 1220.6152597615157 123.4327580386698 L 1220.3804425410158 123.45161350275248 L 1220.14521996251 123.46940653925779 L 1219.9096155480604 123.48613536889692 L 1219.6736528579122 123.50179831880087 L 1219.4373554881374 123.51639382268765 L 1219.2007470682763 123.52992042101907 L 1218.9638512589738 123.54237676114657 L 1218.7266917496133 123.5537615974465 L 1218.4892922559482 123.56407379144473 L 1218.2516765177297 123.57331231193044 L 1218.013868296334 123.5814762350593 L 1217.775891372385 123.58856474444579 L 1217.5377695433767 123.59457713124488 L 1217.2995266212934 123.59951279422289 L 1217.061186430229 123.60337123981765 L 1216.822772804004 123.6061520821878 L 1216.5843095837824 123.60785504325145 L 1216.3458206156872 123.60847995271388 L 1216.1073297484168 123.60802674808467 L 1215.868860830859 123.60649547468392 L 1215.6304377097067 123.6038862856377 L 1215.3920842270736 123.60019944186271 L 1215.1538242181093 123.59543531204028 L 1214.915681508616 123.58959437257941 L 1214.6776799126662 123.58267720756919 L 1214.4398432302214 123.57468450872035 L 1214.2021952447515 123.5656170752961 L 1213.964759720857 123.55547581403226 L 1213.7275604018923 123.54426173904648 L 1213.490621007592 123.53197597173691 L 1213.2539652316975 123.51861974067006 L 1213.0176167395898 123.50419438145789 L 1212.7815991659209 123.48870133662433 L 1212.5459361122512 123.47214215546092 L 1212.3106511446902 123.45451849387197 L 1212.075767791538 123.43583211420899 L 1211.8413095409348 123.41608488509436 L 1211.6072998385098 123.39527878123452 L 1211.3737620850386 123.37341588322253 L 1211.1407196341015 123.35049837732997 L 1210.90819578975 123.32652855528833 L 1210.676213804174 123.30150881405986 L 1210.4447968753793 123.2754416555978 L 1210.213968144866 123.24832968659628 L 1209.9837506953143 123.22017561822963 L 1209.7541675482778 123.1909822658812 L 1209.5252416618796 123.16075254886192 L 1209.2969959285176 123.12948949011827 L 1209.0694531725749 123.0971962159301 L 1208.8426361481377 123.06387595559791 L 1208.616567536719 123.02953204111996 L 1208.391269944992 122.99416790685909 L 1208.1667659025281 122.95778708919923 L 1207.9430778595442 122.92039322619186 L 1207.7202281846583 122.88199005719211 L 1207.4982391626522 122.84258142248487 L 1207.277132992243 122.80217126290077 L 1207.0569317838638 122.7607636194221 L 1206.8376575574514 122.71836263277869 L 1206.6193322402462 122.67497254303389 L 1206.401977664598 122.63059768916051 L 1206.1856155657829 122.58524250860694 L 1205.9702675798305 122.53891153685346 L 1205.7559552413602 122.49160940695863 L 1205.5426999814272 122.44334084909602 L 1205.3305231253796 122.39411069008119 L 1205.1194458907264 122.34392385288903 L 1204.9094893850151 122.29278535616142 L 1204.7006746037212 122.24070031370543 L 1204.4930224281488 122.1876739339819 L 1204.2865536233426 122.1337115195846 L 1204.081288836011 122.07881846671 L 1203.8772485924615 122.02300026461768 L 1203.6744532965486 121.96626249508128 L 1203.472923227633 121.90861083183052 L 1203.272678538553 121.85005103998367 L 1203.0737392536116 121.7905889754711 L 1202.8761252665709 121.73023058444971 L 1202.6798563386649 121.66898190270831 L 1202.4849520966231 121.60684905506405 L 1202.291432030707 121.54383825474989 L 1202.0993154927623 121.47995580279337 L 1201.9086216942826 121.41520808738645 L 1201.7193697044886 121.3496015832467 L 1201.5315784484217 121.28314285096988 L 1201.345266705051 121.21583853637382 L 1201.1604531053956 121.14769536983391 L 1200.9771561306616 121.07872016561001 L 1200.7953941103933 121.00891982116505 L 1200.6151852206417 120.93830131647532 L 1200.4365474821454 120.86687171333244 L 1200.2594987585296 120.79463815463721 L 1200.0840567545188 120.72160786368529 L 1199.9102390141672 120.64778814344493 L 1199.7380629191043 120.57318637582662 L 1199.5675456867962 120.49781002094497 L 1199.3987043688235 120.42166661637263 L 1199.2315558491775 120.34476377638664 L 1199.066116842571 120.2671091912069 L 1198.902403892767 120.1887106262272 L 1198.7404333709237 120.10957592123873 L 1198.5802214739583 120.02971298964601 L 1198.4217842229273 119.9491298176757 L 1198.2651374614236 119.8678344635778 L 1198.1102968539926 119.78583505681998 L 1197.9572778845663 119.70313979727459 L 1197.806095854914 119.61975695439867 L 1197.6567658831127 119.53569486640703 L 1197.5093029020352 119.45096193943841 L 1197.3637216578568 119.36556664671491 L 1197.2200367085802 119.27951752769461 L 1197.078262422581 119.19282318721774 L 1196.9384129771695 119.10549229464607 L 1196.8005023571739 119.01753358299611 L 1196.6645443535408 118.92895584806571 L 1196.5305525619578 118.83976794755455 L 1196.398540381492 118.74997880017835 L 1196.2685210132518 118.65959738477704 L 1196.1405074590652 118.56863273941686 L 1196.0145125201814 118.47709396048649 L 1195.890548795989 118.38499020178757 L 1195.7686286827573 118.29233067361923 L 1195.6487643723958 118.19912464185705 L 1195.5309678512358 118.10538142702656 L 1195.4152508988313 118.01111040337108 L 1195.3016250867813 117.91632099791445 L 1195.1901017775717 117.82102268951823 L 1195.0806921234412 117.72522500793383 L 1194.9734070652635 117.62893753284956 L 1194.8682573314552 117.53216989293273 L 1194.7652534369022 117.43493176486666 L 1194.664405681908 117.33723287238314 L 1194.5657241511637 117.23908298529 L 1194.469218712741 117.14049191849415 L 1194.3748990171023 117.04146953102013 L 1194.2827744961394 116.94202572502415 L 1194.192854362227 116.84217044480394 L 1194.1051476073042 116.74191367580433 L 1194.019663001973 116.64126544361865 L 1193.9364090946226 116.54023581298625 L 1193.8553942105748 116.43883488678601 L 1193.77662645125 116.33707280502605 L 1193.7001136933586 116.23495974382973 L 1193.625863588113 116.1325059144181 L 1193.5538835604611 116.02972156208871 L 1193.4841808083465 115.92661696519113 L 1193.416762301986 115.82320243409914 L 1193.351634783174 115.71948831017968 L 1193.2888047646081 115.61548496475869 L 1193.228278529238 115.51120279808407 L 1193.1700621296366 115.40665223828556 L 1193.1141613873951 115.30184374033203 L 1193.0605818925417 115.19678778498594 L 1193.009329002981 115.09149487775527 L 1192.960407843959 114.98597554784298 L 1192.9138233075514 114.88024034709416 L 1192.8695800521723 114.77429984894077 L 1192.827682502111 114.66816464734433 L 1192.7881348470871 114.56184535573654 L 1192.7509410418336 114.455352605958 L 1192.7161048056996 114.3486970471949 L 1192.68362962228 114.24188934491428 L 1192.653518739066 114.13494017979733 L 1192.6257751671208 114.02786024667145 L 1192.6004016807783 113.92066025344073 L 1192.5774008173664 113.81335092001514 L 1192.556774876952 113.7059429772386 L 1192.5385259221118 113.5984471658159 L 1192.5226557777264 113.49087423523858 L 1192.509166030797 113.38323494271008 L 1192.4980580302868 113.27554005206993 L 1192.4893328869866 113.16780033271746 L 1192.4829914734037 113.06002655853482 L 1192.479034423674 112.95222950680962 L 1192.4774621334993 112.84441995715719" stroke-miterlimit="10" stroke-width="2.7769845610000004" stroke-dasharray=""/></g><g><text fill="black" stroke="none" font-family="sans-serif" font-size="11pt" font-style="normal" font-weight="normal" text-decoration="normal" x="1184.948883757677" y="141.136156512" text-anchor="start" dominant-baseline="alphabetic" xml:space="preserve">Database</text></g></g><g><path fill="white" stroke="black" paint-order="fill stroke markers" d=" M 314.2700373055989 199.942888392 L 330.6052406055989 199.942888392 L 330.6052406055989 1304.2026314719997 L 314.2700373055989 1304.2026314719997 L 314.2700373055989 199.942888392" stroke-miterlimit="10" stroke-width="1.3612669416666667" stroke-dasharray=""/><path fill="white" stroke="black" paint-order="fill stroke markers" d=" M 551.7963216793619 245.681457632 L 568.131524979362 245.681457632 L 568.131524979362 1258.4640622319996 L 551.7963216793619 1258.4640622319996 L 551.7963216793619 245.681457632" stroke-miterlimit="10" stroke-width="1.3612669416666667" stroke-dasharray=""/><path fill="white" stroke="black" paint-order="fill stroke markers" d=" M 715.1637468001952 291.420026872 L 731.4989501001953 291.420026872 L 731.4989501001953 428.635734592 L 715.1637468001952 428.635734592 L 715.1637468001952 291.420026872" stroke-miterlimit="10" stroke-width="1.3612669416666667" stroke-dasharray=""/><path fill="white" stroke="black" paint-order="fill stroke markers" d=" M 1208.159227053966 337.158596112 L 1224.4944303539662 337.158596112 L 1224.4944303539662 382.897165352 L 1208.159227053966 382.897165352 L 1208.159227053966 337.158596112" stroke-miterlimit="10" stroke-width="1.3612669416666667" stroke-dasharray=""/><path fill="white" stroke="black" paint-order="fill stroke markers" d=" M 858.5926806776991 716.1353126719998 L 874.9278839776993 716.1353126719998 L 874.9278839776993 886.0214269919999 L 858.5926806776991 886.0214269919999 L 858.5926806776991 716.1353126719998" stroke-miterlimit="10" stroke-width="1.3612669416666667" stroke-dasharray=""/><path fill="white" stroke="black" paint-order="fill stroke markers" d=" M 1208.159227053966 761.8738819119998 L 1224.4944303539662 761.8738819119998 L 1224.4944303539662 823.9476544519998 L 1208.159227053966 823.9476544519998 L 1208.159227053966 761.8738819119998" stroke-miterlimit="10" stroke-width="1.3612669416666667" stroke-dasharray=""/><path fill="white" stroke="black" paint-order="fill stroke markers" d=" M 990.2177662886015 993.8337687719999 L 1006.5529695886016 993.8337687719999 L 1006.5529695886016 1163.7198830919997 L 990.2177662886015 1163.7198830919997 L 990.2177662886015 993.8337687719999" stroke-miterlimit="10" stroke-width="1.3612669416666667" stroke-dasharray=""/><path fill="white" stroke="black" paint-order="fill stroke markers" d=" M 1208.159227053966 1039.5723380119998 L 1224.4944303539662 1039.5723380119998 L 1224.4944303539662 1101.6461105519998 L 1208.159227053966 1101.6461105519998 L 1208.159227053966 1039.5723380119998" stroke-miterlimit="10" stroke-width="1.3612669416666667" stroke-dasharray=""/><g><g><rect fill="white" stroke="none" x="98.13904934256506" y="178.707124102" width="191.50035347046875" height="21.23576429"/></g><text fill="black" stroke="none" font-family="sans-serif" font-size="11pt" font-style="normal" font-weight="normal" text-decoration="normal" x="100.58932983756506" y="193.40880707199997" text-anchor="start" dominant-baseline="alphabetic" xml:space="preserve">Go to Curriculum detail page</text></g><g><path fill="none" stroke="black" paint-order="fill stroke markers" d=" M 73.50841485 199.942888392 L 300.82071992193227 199.942888392" stroke-miterlimit="10" stroke-width="1.3612669416666667" stroke-dasharray=""/><g transform="translate(314.2700373055989,199.942888392) translate(-314.2700373055989,-199.942888392)"><path fill="black" stroke="none" paint-order="stroke fill markers" d=" M 300.65736788893224 193.13655368366665 L 314.2700373055989 199.942888392 L 300.65736788893224 206.74922310033332 Z"/></g></g><g><g><rect fill="white" stroke="none" x="360.12489792531244" y="224.445693342" width="162.15176643433594" height="21.23576429"/></g><text fill="black" stroke="none" font-family="sans-serif" font-size="11pt" font-style="normal" font-weight="normal" text-decoration="normal" x="362.57517842031245" y="239.14737631199998" text-anchor="start" dominant-baseline="alphabetic" xml:space="preserve">GET: /api/curriculum/{id}</text></g><g><path fill="none" stroke="black" paint-order="fill stroke markers" d=" M 330.6052406055989 245.681457632 L 538.3470042956952 245.681457632" stroke-miterlimit="10" stroke-width="1.3612669416666667" stroke-dasharray=""/><g transform="translate(551.7963216793619,245.681457632) translate(-551.7963216793619,-245.681457632)"><path fill="black" stroke="none" paint-order="stroke fill markers" d=" M 538.1836522626952 238.87512292366665 L 551.7963216793619 245.681457632 L 538.1836522626952 252.48779234033333 Z"/></g></g><g><g><rect fill="white" stroke="none" x="618.4207059196809" y="270.184262582" width="46.453859940195315" height="21.23576429"/></g><text fill="black" stroke="none" font-family="sans-serif" font-size="11pt" font-style="normal" font-weight="normal" text-decoration="normal" x="620.8709864146809" y="284.88594555199995" text-anchor="start" dominant-baseline="alphabetic" xml:space="preserve">get(id)</text></g><g><path fill="none" stroke="black" paint-order="fill stroke markers" d=" M 568.131524979362 291.420026872 L 701.7144294165286 291.420026872" stroke-miterlimit="10" stroke-width="1.3612669416666667" stroke-dasharray=""/><g transform="translate(715.1637468001952,291.420026872) translate(-715.1637468001952,-291.420026872)"><path fill="black" stroke="none" paint-order="stroke fill markers" d=" M 701.5510773835285 284.61369216366666 L 715.1637468001952 291.420026872 L 701.5510773835285 298.22636158033333 Z"/></g></g><g><g><rect fill="white" stroke="none" x="930.3065348276862" y="315.922831822" width="79.04510749878906" height="21.23576429"/></g><text fill="black" stroke="none" font-family="sans-serif" font-size="11pt" font-style="normal" font-weight="normal" text-decoration="normal" x="932.7568153226862" y="330.62451479199996" text-anchor="start" dominant-baseline="alphabetic" xml:space="preserve">findById(id)</text></g><g><path fill="none" stroke="black" paint-order="fill stroke markers" d=" M 731.4989501001953 337.158596112 L 1194.7099096702993 337.158596112" stroke-miterlimit="10" stroke-width="1.3612669416666667" stroke-dasharray=""/><g transform="translate(1208.159227053966,337.158596112) translate(-1208.159227053966,-337.158596112)"><path fill="black" stroke="none" paint-order="stroke fill markers" d=" M 1194.5465576372994 330.35226140366666 L 1208.159227053966 337.158596112 L 1194.5465576372994 343.96493082033334 Z"/></g></g><g><g><rect fill="white" stroke="none" x="915.6429682383307" y="361.661401062" width="108.3722406775" height="21.23576429"/></g><text fill="black" stroke="none" font-family="sans-serif" font-size="11pt" font-style="normal" font-weight="normal" text-decoration="normal" x="918.0932487333307" y="376.36308403199996" text-anchor="start" dominant-baseline="alphabetic" xml:space="preserve">Curriculum data</text></g><g><path fill="none" stroke="black" paint-order="fill stroke markers" d=" M 1208.159227053966 382.897165352 L 744.948267483862 382.897165352" stroke-miterlimit="10" stroke-width="1.3612669416666667" stroke-dasharray="6.53408132"/><g transform="translate(731.4989501001953,382.897165352) translate(-731.4989501001953,-382.897165352)"><path fill="black" stroke="none" paint-order="stroke fill markers" d=" M 745.111619516862 376.09083064366666 L 731.4989501001953 382.897165352 L 745.111619516862 389.70350006033334 Z"/></g></g><g><g><rect fill="white" stroke="none" x="587.4615155510286" y="407.399970302" width="108.3722406775" height="21.23576429"/></g><text fill="black" stroke="none" font-family="sans-serif" font-size="11pt" font-style="normal" font-weight="normal" text-decoration="normal" x="589.9117960460286" y="422.10165327199996" text-anchor="start" dominant-baseline="alphabetic" xml:space="preserve">Curriculum data</text></g><g><path fill="none" stroke="black" paint-order="fill stroke markers" d=" M 715.1637468001952 428.635734592 L 581.5808423630286 428.635734592" stroke-miterlimit="10" stroke-width="1.3612669416666667" stroke-dasharray="6.53408132"/><g transform="translate(568.131524979362,428.635734592) translate(-568.131524979362,-428.635734592)"><path fill="black" stroke="none" paint-order="stroke fill markers" d=" M 581.7441943960287 421.82939988366667 L 568.131524979362 428.635734592 L 581.7441943960287 435.44206930033334 Z"/></g></g><g><g><rect fill="white" stroke="none" x="380.9158372563671" y="497.2435884519999" width="120.56988777222656" height="21.23576429"/></g><text fill="red" stroke="none" font-family="sans-serif" font-size="11pt" font-style="normal" font-weight="normal" text-decoration="normal" x="383.36611775136714" y="511.9452714219999" text-anchor="start" dominant-baseline="alphabetic" xml:space="preserve">404 NOT FOUND</text></g><g><path fill="none" stroke="black" paint-order="fill stroke markers" d=" M 551.7963216793619 518.479352742 L 344.05455798926556 518.479352742" stroke-miterlimit="10" stroke-width="1.3612669416666667" stroke-dasharray="6.53408132"/><g transform="translate(330.6052406055989,518.479352742) translate(-330.6052406055989,-518.479352742)"><path fill="black" stroke="none" paint-order="stroke fill markers" d=" M 344.2179100222656 511.6730180336666 L 330.6052406055989 518.479352742 L 344.2179100222656 525.2856874503333 Z"/></g></g><g><g><rect fill="white" stroke="none" x="92.83840542166662" y="542.9821576919999" width="202.10164131226563" height="21.23576429"/></g><text fill="black" stroke="none" font-family="sans-serif" font-size="11pt" font-style="normal" font-weight="normal" text-decoration="normal" x="95.28868591666662" y="557.6838406619999" text-anchor="start" dominant-baseline="alphabetic" xml:space="preserve">Display 404 Not Found screen</text></g><g><path fill="none" stroke="black" paint-order="fill stroke markers" d=" M 314.2700373055989 564.2179219819999 L 86.95773223366666 564.2179219819999" stroke-miterlimit="10" stroke-width="1.3612669416666667" stroke-dasharray="6.53408132"/><g transform="translate(73.50841485,564.2179219819999) translate(-73.50841485,-564.2179219819999)"><path fill="black" stroke="none" paint-order="stroke fill markers" d=" M 87.12108426666666 557.4115872736666 L 73.50841485 564.2179219819999 L 87.12108426666666 571.0242566903332 Z"/></g></g><g><g><rect fill="white" stroke="none" x="349.93523117726556" y="632.8257758419999" width="41.55769599976563" height="21.23576429"/></g><g><rect fill="white" stroke="none" x="349.93523117726556" y="649.1609791419999" width="182.5310999304297" height="21.23576429"/></g><text fill="black" stroke="none" font-family="sans-serif" font-size="11pt" font-style="normal" font-weight="normal" text-decoration="normal" x="352.3855116722656" y="647.5274588119998" text-anchor="start" dominant-baseline="alphabetic" xml:space="preserve">GET: </text><text fill="black" stroke="none" font-family="sans-serif" font-size="11pt" font-style="normal" font-weight="normal" text-decoration="normal" x="352.3855116722656" y="663.8626621119998" text-anchor="start" dominant-baseline="alphabetic" xml:space="preserve">/api/curriculum/{id}/syllabus</text></g><g><path fill="none" stroke="black" paint-order="fill stroke markers" d=" M 330.6052406055989 670.3967434319999 L 538.3470042956952 670.3967434319999" stroke-miterlimit="10" stroke-width="1.3612669416666667" stroke-dasharray=""/><g transform="translate(551.7963216793619,670.3967434319999) translate(-551.7963216793619,-670.3967434319999)"><path fill="black" stroke="none" paint-order="stroke fill markers" d=" M 538.1836522626952 663.5904087236665 L 551.7963216793619 670.3967434319999 L 538.1836522626952 677.2030781403332 Z"/></g></g><g><g><rect fill="white" stroke="none" x="631.888964667515" y="694.8995483819998" width="162.94627632203125" height="21.23576429"/></g><text fill="black" stroke="none" font-family="sans-serif" font-size="11pt" font-style="normal" font-weight="normal" text-decoration="normal" x="634.339245162515" y="709.6012313519998" text-anchor="start" dominant-baseline="alphabetic" xml:space="preserve">getAllByCurriculumId(id)</text></g><g><path fill="none" stroke="black" paint-order="fill stroke markers" d=" M 568.131524979362 716.1353126719998 L 845.1433632940325 716.1353126719998" stroke-miterlimit="10" stroke-width="1.3612669416666667" stroke-dasharray=""/><g transform="translate(858.5926806776991,716.1353126719998) translate(-858.5926806776991,-716.1353126719998)"><path fill="black" stroke="none" paint-order="stroke fill markers" d=" M 844.9800112610325 709.3289779636665 L 858.5926806776991 716.1353126719998 L 844.9800112610325 722.9416473803332 Z"/></g></g><g><g><rect fill="white" stroke="none" x="960.070417354817" y="740.6381176219998" width="162.94627632203125" height="21.23576429"/></g><text fill="black" stroke="none" font-family="sans-serif" font-size="11pt" font-style="normal" font-weight="normal" text-decoration="normal" x="962.520697849817" y="755.3398005919997" text-anchor="start" dominant-baseline="alphabetic" xml:space="preserve">getAllByCurriculumId(id)</text></g><g><path fill="none" stroke="black" paint-order="fill stroke markers" d=" M 874.9278839776993 761.8738819119998 L 1194.7099096702993 761.8738819119998" stroke-miterlimit="10" stroke-width="1.3612669416666667" stroke-dasharray=""/><g transform="translate(1208.159227053966,761.8738819119998) translate(-1208.159227053966,-761.8738819119998)"><path fill="black" stroke="none" paint-order="stroke fill markers" d=" M 1194.5465576372994 755.0675472036664 L 1208.159227053966 761.8738819119998 L 1194.5465576372994 768.6802166203331 Z"/></g></g><g><g><rect fill="white" stroke="none" x="995.9186381800123" y="786.3766868619998" width="86.37509407105469" height="21.23576429"/></g><g><rect fill="white" stroke="none" x="995.9186381800123" y="802.7118901619998" width="91.24983467164063" height="21.23576429"/></g><text fill="black" stroke="none" font-family="sans-serif" font-size="11pt" font-style="normal" font-weight="normal" text-decoration="normal" x="998.3689186750123" y="801.0783698319998" text-anchor="start" dominant-baseline="alphabetic" xml:space="preserve">Syllabus list </text><text fill="black" stroke="none" font-family="sans-serif" font-size="11pt" font-style="normal" font-weight="normal" text-decoration="normal" x="998.3689186750123" y="817.4135731319998" text-anchor="start" dominant-baseline="alphabetic" xml:space="preserve">in Curriculum</text></g><g><path fill="none" stroke="black" paint-order="fill stroke markers" d=" M 1208.159227053966 823.9476544519998 L 888.3772013613659 823.9476544519998" stroke-miterlimit="10" stroke-width="1.3612669416666667" stroke-dasharray="6.53408132"/><g transform="translate(874.9278839776993,823.9476544519998) translate(-874.9278839776993,-823.9476544519998)"><path fill="black" stroke="none" paint-order="stroke fill markers" d=" M 888.5405533943659 817.1413197436665 L 874.9278839776993 823.9476544519998 L 888.5405533943659 830.7539891603332 Z"/></g></g><g><g><rect fill="white" stroke="none" x="667.7371854927103" y="848.4504594019999" width="86.37509407105469" height="21.23576429"/></g><g><rect fill="white" stroke="none" x="667.7371854927103" y="864.7856627019999" width="91.24983467164063" height="21.23576429"/></g><text fill="black" stroke="none" font-family="sans-serif" font-size="11pt" font-style="normal" font-weight="normal" text-decoration="normal" x="670.1874659877103" y="863.1521423719998" text-anchor="start" dominant-baseline="alphabetic" xml:space="preserve">Syllabus list </text><text fill="black" stroke="none" font-family="sans-serif" font-size="11pt" font-style="normal" font-weight="normal" text-decoration="normal" x="670.1874659877103" y="879.4873456719998" text-anchor="start" dominant-baseline="alphabetic" xml:space="preserve">in Curriculum</text></g><g><path fill="none" stroke="black" paint-order="fill stroke markers" d=" M 858.5926806776991 886.0214269919999 L 581.5808423630286 886.0214269919999" stroke-miterlimit="10" stroke-width="1.3612669416666667" stroke-dasharray="6.53408132"/><g transform="translate(568.131524979362,886.0214269919999) translate(-568.131524979362,-886.0214269919999)"><path fill="black" stroke="none" paint-order="stroke fill markers" d=" M 581.7441943960287 879.2150922836665 L 568.131524979362 886.0214269919999 L 581.7441943960287 892.8277617003332 Z"/></g></g><g><g><rect fill="white" stroke="none" x="350.751255957539" y="910.5242319419999" width="41.55769599976563" height="21.23576429"/></g><g><rect fill="white" stroke="none" x="350.751255957539" y="926.8594352419999" width="180.89905036988281" height="21.23576429"/></g><text fill="black" stroke="none" font-family="sans-serif" font-size="11pt" font-style="normal" font-weight="normal" text-decoration="normal" x="353.201536452539" y="925.2259149119999" text-anchor="start" dominant-baseline="alphabetic" xml:space="preserve">GET: </text><text fill="black" stroke="none" font-family="sans-serif" font-size="11pt" font-style="normal" font-weight="normal" text-decoration="normal" x="353.201536452539" y="941.5611182119999" text-anchor="start" dominant-baseline="alphabetic" xml:space="preserve">/api/curriculum/{id}/combos</text></g><g><path fill="none" stroke="black" paint-order="fill stroke markers" d=" M 330.6052406055989 948.0951995319999 L 538.3470042956952 948.0951995319999" stroke-miterlimit="10" stroke-width="1.3612669416666667" stroke-dasharray=""/><g transform="translate(551.7963216793619,948.0951995319999) translate(-551.7963216793619,-948.0951995319999)"><path fill="black" stroke="none" paint-order="stroke fill markers" d=" M 538.1836522626952 941.2888648236666 L 551.7963216793619 948.0951995319999 L 538.1836522626952 954.9015342403333 Z"/></g></g><g><g><rect fill="white" stroke="none" x="697.7015074729661" y="972.5980044819999" width="162.94627632203125" height="21.23576429"/></g><text fill="black" stroke="none" font-family="sans-serif" font-size="11pt" font-style="normal" font-weight="normal" text-decoration="normal" x="700.1517879679661" y="987.2996874519998" text-anchor="start" dominant-baseline="alphabetic" xml:space="preserve">getAllByCurriculumId(id)</text></g><g><path fill="none" stroke="black" paint-order="fill stroke markers" d=" M 568.131524979362 993.8337687719999 L 976.7684489049349 993.8337687719999" stroke-miterlimit="10" stroke-width="1.3612669416666667" stroke-dasharray=""/><g transform="translate(990.2177662886015,993.8337687719999) translate(-990.2177662886015,-993.8337687719999)"><path fill="black" stroke="none" paint-order="stroke fill markers" d=" M 976.6050968719348 987.0274340636665 L 990.2177662886015 993.8337687719999 L 976.6050968719348 1000.6401034803332 Z"/></g></g><g><g><rect fill="white" stroke="none" x="1025.882960160268" y="1018.3365737219998" width="162.94627632203125" height="21.23576429"/></g><text fill="black" stroke="none" font-family="sans-serif" font-size="11pt" font-style="normal" font-weight="normal" text-decoration="normal" x="1028.3332406552681" y="1033.0382566919998" text-anchor="start" dominant-baseline="alphabetic" xml:space="preserve">getAllByCurriculumId(id)</text></g><g><path fill="none" stroke="black" paint-order="fill stroke markers" d=" M 1006.5529695886016 1039.5723380119998 L 1194.7099096702993 1039.5723380119998" stroke-miterlimit="10" stroke-width="1.3612669416666667" stroke-dasharray=""/><g transform="translate(1208.159227053966,1039.5723380119998) translate(-1208.159227053966,-1039.5723380119998)"><path fill="black" stroke="none" paint-order="stroke fill markers" d=" M 1194.5465576372994 1032.7660033036666 L 1208.159227053966 1039.5723380119998 L 1194.5465576372994 1046.378672720333 Z"/></g></g><g><g><rect fill="white" stroke="none" x="1061.7311809854634" y="1064.0751429619997" width="78.22194160523438" height="21.23576429"/></g><g><rect fill="white" stroke="none" x="1061.7311809854634" y="1080.4103462619998" width="91.24983467164063" height="21.23576429"/></g><text fill="black" stroke="none" font-family="sans-serif" font-size="11pt" font-style="normal" font-weight="normal" text-decoration="normal" x="1064.1814614804634" y="1078.7768259319998" text-anchor="start" dominant-baseline="alphabetic" xml:space="preserve">Combo list </text><text fill="black" stroke="none" font-family="sans-serif" font-size="11pt" font-style="normal" font-weight="normal" text-decoration="normal" x="1064.1814614804634" y="1095.112029232" text-anchor="start" dominant-baseline="alphabetic" xml:space="preserve">in Curriculum</text></g><g><path fill="none" stroke="black" paint-order="fill stroke markers" d=" M 1208.159227053966 1101.6461105519998 L 1020.0022869722683 1101.6461105519998" stroke-miterlimit="10" stroke-width="1.3612669416666667" stroke-dasharray="6.53408132"/><g transform="translate(1006.5529695886016,1101.6461105519998) translate(-1006.5529695886016,-1101.6461105519998)"><path fill="black" stroke="none" paint-order="stroke fill markers" d=" M 1020.1656390052683 1094.8397758436665 L 1006.5529695886016 1101.6461105519998 L 1020.1656390052683 1108.452445260333 Z"/></g></g><g><g><rect fill="white" stroke="none" x="733.5497282981614" y="1126.1489155019997" width="78.22194160523438" height="21.23576429"/></g><g><rect fill="white" stroke="none" x="733.5497282981614" y="1142.4841188019998" width="91.24983467164063" height="21.23576429"/></g><text fill="black" stroke="none" font-family="sans-serif" font-size="11pt" font-style="normal" font-weight="normal" text-decoration="normal" x="736.0000087931614" y="1140.8505984719998" text-anchor="start" dominant-baseline="alphabetic" xml:space="preserve">Combo list </text><text fill="black" stroke="none" font-family="sans-serif" font-size="11pt" font-style="normal" font-weight="normal" text-decoration="normal" x="736.0000087931614" y="1157.1858017719999" text-anchor="start" dominant-baseline="alphabetic" xml:space="preserve">in Curriculum</text></g><g><path fill="none" stroke="black" paint-order="fill stroke markers" d=" M 990.2177662886015 1163.7198830919997 L 581.5808423630286 1163.7198830919997" stroke-miterlimit="10" stroke-width="1.3612669416666667" stroke-dasharray="6.53408132"/><g transform="translate(568.131524979362,1163.7198830919997) translate(-568.131524979362,-1163.7198830919997)"><path fill="black" stroke="none" paint-order="stroke fill markers" d=" M 581.7441943960287 1156.9135483836665 L 568.131524979362 1163.7198830919997 L 581.7441943960287 1170.526217800333 Z"/></g></g><g><g><rect fill="white" stroke="none" x="368.6825303716015" y="1188.2226880419996" width="62.760256424570315" height="21.23576429"/></g><g><rect fill="white" stroke="none" x="368.6825303716015" y="1204.5578913419997" width="145.03650154175781" height="21.23576429"/></g><g><rect fill="white" stroke="none" x="368.6825303716015" y="1220.8930946419998" width="87.1982904821875" height="21.23576429"/></g><g><rect fill="white" stroke="none" x="368.6825303716015" y="1237.228297942" width="78.22194160523438" height="21.23576429"/></g><text fill="green" stroke="none" font-family="sans-serif" font-size="11pt" font-style="normal" font-weight="normal" text-decoration="normal" x="371.1328108666015" y="1202.9243710119997" text-anchor="start" dominant-baseline="alphabetic" xml:space="preserve">200 OK: </text><text fill="green" stroke="none" font-family="sans-serif" font-size="11pt" font-style="normal" font-weight="normal" text-decoration="normal" x="371.1328108666015" y="1219.2595743119998" text-anchor="start" dominant-baseline="alphabetic" xml:space="preserve">All data of Curriculum</text><text fill="green" stroke="none" font-family="sans-serif" font-size="11pt" font-style="normal" font-weight="normal" text-decoration="normal" x="371.1328108666015" y="1235.594777612" text-anchor="start" dominant-baseline="alphabetic" xml:space="preserve">Syllabus List</text><text fill="green" stroke="none" font-family="sans-serif" font-size="11pt" font-style="normal" font-weight="normal" text-decoration="normal" x="371.1328108666015" y="1251.929980912" text-anchor="start" dominant-baseline="alphabetic" xml:space="preserve">Combo list </text></g><g><path fill="none" stroke="black" paint-order="fill stroke markers" d=" M 551.7963216793619 1258.4640622319996 L 344.05455798926556 1258.4640622319996" stroke-miterlimit="10" stroke-width="1.3612669416666667" stroke-dasharray="6.53408132"/><g transform="translate(330.6052406055989,1258.4640622319996) translate(-330.6052406055989,-1258.4640622319996)"><path fill="black" stroke="none" paint-order="stroke fill markers" d=" M 344.2179100222656 1251.6577275236664 L 330.6052406055989 1258.4640622319996 L 344.2179100222656 1265.2703969403328 Z"/></g></g><g><g><rect fill="white" stroke="none" x="110.37599544852209" y="1282.9668671819998" width="167.0264612585547" height="21.23576429"/></g><text fill="black" stroke="none" font-family="sans-serif" font-size="11pt" font-style="normal" font-weight="normal" text-decoration="normal" x="112.82627594352209" y="1297.6685501519999" text-anchor="start" dominant-baseline="alphabetic" xml:space="preserve">Display Curriculum detail</text></g><g><path fill="none" stroke="black" paint-order="fill stroke markers" d=" M 314.2700373055989 1304.2026314719997 L 86.95773223366666 1304.2026314719997" stroke-miterlimit="10" stroke-width="1.3612669416666667" stroke-dasharray="6.53408132"/><g transform="translate(73.50841485,1304.2026314719997) translate(-73.50841485,-1304.2026314719997)"><path fill="black" stroke="none" paint-order="stroke fill markers" d=" M 87.12108426666666 1297.3962967636664 L 73.50841485 1304.2026314719997 L 87.12108426666666 1311.008966180333 Z"/></g></g><g><g/><path fill="none" stroke="black" paint-order="fill stroke markers" d=" M 16.335203299999996 453.138539542 L 1273.500040253966 453.138539542 L 1273.500040253966 1328.7054364219996 L 16.335203299999996 1328.7054364219996 L 16.335203299999996 453.138539542 Z" stroke-miterlimit="10" stroke-width="2.3336004714285714" stroke-dasharray=""/><path fill="white" stroke="black" paint-order="fill stroke markers" d=" M 16.335203299999996 453.138539542 L 16.335203299999996 472.740783502 L 62.69440689707031 472.740783502 L 72.49552887707031 462.939661522 L 72.49552887707031 453.138539542 L 16.335203299999996 453.138539542" stroke-miterlimit="10" stroke-width="2.3336004714285714" stroke-dasharray=""/><text fill="black" stroke="none" font-family="sans-serif" font-size="8.8pt" font-style="normal" font-weight="bold" text-decoration="normal" x="32.67040659999999" y="466.206702182" text-anchor="start" dominant-baseline="alphabetic" xml:space="preserve">alt</text><g><rect fill="white" stroke="none" x="86.38045168207032" y="454.445355806" width="136.55357612671875" height="16.988611432000003"/></g><text fill="black" stroke="none" font-family="sans-serif" font-size="8.8pt" font-style="normal" font-weight="bold" text-decoration="normal" x="88.83073217707032" y="466.206702182" text-anchor="start" dominant-baseline="alphabetic" xml:space="preserve">[If Curriculum is empty]</text><g><path fill="none" stroke="black" paint-order="fill stroke markers" d=" M 16.335203299999996 588.7207269319998 L 1273.500040253966 588.7207269319998" stroke-miterlimit="10" stroke-width="2.3336004714285714" stroke-dasharray="4.083800825"/></g><g/><g><rect fill="white" stroke="none" x="86.38045168207032" y="590.0275431959998" width="144.37738288941406" height="16.988611432000003"/></g><text fill="black" stroke="none" font-family="sans-serif" font-size="8.8pt" font-style="normal" font-weight="bold" text-decoration="normal" x="88.83073217707032" y="601.7888895719998" text-anchor="start" dominant-baseline="alphabetic" xml:space="preserve">[If Curriculum is present]</text></g><g/></g></g></svg>