<svg version="1.1" xmlns="http://www.w3.org/2000/svg" xmlns:xlink="http://www.w3.org/1999/xlink" width="1461" height="1877"><desc>title%20Create%20Curriculum%0A%0Aactor%20%23green%3A0.5%20%22Workspace%20Admin%22%20as%20w%0Aboundary%20%22Curriculum%20list%20page%22%20as%20f%0Aparticipant%20%22Search%20Service%22%20as%20ss%0Acontrol%20%22Curriculum%20Controller%22%20as%20gc%0Aparticipant%20%22Workspace%20Service%22%20as%20ws%0Aparticipant%20%22Curriculum%20Service%22%20as%20gs%0Adatabase%20%23blue%3A1%20%22Database%22%20as%20db%0A%0Aw-%3Ef%3AClick%20Create%20Curriculum%20button%0Aactivate%20f%0Aw%3C--f%3ADisplay%20Create%20Curriculum%20popup%0Aw-%3Ef%3AType%20information%20of%20Curriculum%0Af-%3Ef%3AValidate%20input%20data%0Aactivate%20f%0Af--%3Ef%3A%20Validate%20value%0Adeactivate%20f%0Aalt%20If%20the%20input%20data%20is%20wrong%0Aw%3C--f%3AValidate%20Message%0Aend%0Aw-%3Ef%3ASearch%20Specialization%0Af-%3Ess%3AGET%5Cn%2Fapi%2Fsearch%3Fentity%3Dspecialization%5Cn%2B%20%7BparamToSearch%7D%0Aactivate%20ss%0Af%3C--ss%3ASpecialization%20list%0Adeactivate%20ss%0Aalt%20If%20there%20is%20no%20specialization%20match%20with%20condition%0Aw%3C--f%3ANo%20Options%0Aelse%0Aw%3C--f%3A%20Specialization%20options%20list%0Aw-%3Ef%3ASelect%20Specialization%0Aw-%3Ef%3ASelect%20Season%20and%20click%20Save%0Af-%3Egc%3APOST%3A%20%2Fapi%2Fcurriculum%0Aactivate%20gc%0Aalt%20If%20there%20is%20required%20field%20do%20not%20have%20value%0Af%3C--gc%3A%3Ccolor%3A%23red%3E400%20BAD_REQUEST%3A%20Missing%20required%20property%3C%2Fcolor%3E%0Aw%3C--f%3AMessage%20is%20required%0Aelse%20Else%0Agc-%3Ews%3AgetFoundedYear()%0Aactivate%20ws%0Agc%3C--ws%3A%20foundedYear%0Adeactivate%20ws%0Agc-%3Egs%3Agenerate%20Code%5Cngenerate%20Name%0Aactivate%20gs%0Agc%3C--gs%3ACode%20and%20Name%0Adeactivate%20gs%0Agc-%3Egs%3ASet%20Code%5CnSet%20Name%0Aactivate%20gs%0Agc%3C--gs%3A%0Adeactivate%20gs%0A%0Agc-%3Egs%3Asave()%0Aactivate%20gs%0Ags-%3Edb%3ACreate%20Curriculum%0Aactivate%20db%0Ags%3C--db%3ACurriculum%20data%0Adeactivate%20db%0Agc%3C--gs%3ANew%20Curriculum%20data%0Adeactivate%20gs%0Af%3C--gc%3A%3Ccolor%3A%23green%3E201%20OK%3A%20CREATED%3C%2Fcolor%3E%0Adeactivate%20gc%0Aw%3C--f%3A%20Display%20Curriculum%20detail%20page%0Adeactivate%20f%0Aend%0Aend%20f%0A%0A%0A</desc><defs/><g><g/><g/><g/><g/><g/><g/><g/><g/><g/><g/><g/><g/><g/><g/><g/><g/><g/><g/><g/><g/><g/><g/><g/><g/><g/><g/><g/><g/><g/><g/><g/><g/><g/><g/><g/><g/><g/><g/><g/><g><rect fill="white" stroke="none" x="0" y="0" width="1461" height="1877"/></g><g><text fill="black" stroke="none" font-family="sans-serif" font-size="16.5pt" font-style="normal" font-weight="normal" text-decoration="normal" x="641.272035899787" y="24.50280495" text-anchor="start" dominant-baseline="alphabetic" xml:space="preserve">Create Curriculum</text></g><g/><g><path fill="none" stroke="black" paint-order="fill stroke markers" d=" M 89.84361815 129.701514202 L 89.84361815 1877.568267302" stroke-miterlimit="10" stroke-width="1.3612669416666667" stroke-dasharray="12.565541,5.445067766666667"/><path fill="none" stroke="black" paint-order="fill stroke markers" d=" M 357.4915007028646 129.701514202 L 357.4915007028646 1877.568267302" stroke-miterlimit="10" stroke-width="1.3612669416666667" stroke-dasharray="12.565541,5.445067766666667"/><path fill="none" stroke="black" paint-order="fill stroke markers" d=" M 637.0293198320963 129.701514202 L 637.0293198320963 1877.568267302" stroke-miterlimit="10" stroke-width="1.3612669416666667" stroke-dasharray="12.565541,5.445067766666667"/><path fill="none" stroke="black" paint-order="fill stroke markers" d=" M 829.9550511567709 129.701514202 L 829.9550511567709 1877.568267302" stroke-miterlimit="10" stroke-width="1.3612669416666667" stroke-dasharray="12.565541,5.445067766666667"/><path fill="none" stroke="black" paint-order="fill stroke markers" d=" M 1007.4885529377605 129.701514202 L 1007.4885529377605 1877.568267302" stroke-miterlimit="10" stroke-width="1.3612669416666667" stroke-dasharray="12.565541,5.445067766666667"/><path fill="none" stroke="black" paint-order="fill stroke markers" d=" M 1184.1887575672174 129.701514202 L 1184.1887575672174 1877.568267302" stroke-miterlimit="10" stroke-width="1.3612669416666667" stroke-dasharray="12.565541,5.445067766666667"/><path fill="none" stroke="black" paint-order="fill stroke markers" d=" M 1363.0250394995742 129.701514202 L 1363.0250394995742 1877.568267302" stroke-miterlimit="10" stroke-width="1.3612669416666667" stroke-dasharray="12.565541,5.445067766666667"/></g><g><g><path fill="white" stroke="green" paint-order="fill stroke markers" d=" M 99.154684031 60.60360424300001 A 9.311065881 9.311065881 0 1 1 99.15467937546744 60.594293178670846 M 89.84361815 69.91467012400001 L 89.84361815 89.84361815000001 M 78.08227177399999 77.102159576 L 101.604964526 77.102159576 M 89.84361815 89.84361815000001 L 78.08227177399999 108.465749912 M 89.84361815 89.84361815000001 L 101.604964526 108.465749912" stroke-miterlimit="10" stroke-width="1.3884922805000002" stroke-dasharray=""/></g><g><text fill="black" stroke="none" font-family="sans-serif" font-size="11pt" font-style="normal" font-weight="normal" text-decoration="normal" x="30.50219511533203" y="124.80095321200001" text-anchor="start" dominant-baseline="alphabetic" xml:space="preserve">Workspace Admin</text></g><g><path fill="white" stroke="black" paint-order="fill stroke markers" d=" M 389.9168792533646 82.819480731 A 24.2577769005 24.2577769005 0 1 1 389.91686712447716 82.79522295814245 M 326.45461443286456 57.17321154999999 L 326.45461443286456 108.465749912 M 325.0661221523646 82.819480731 L 341.4013254523646 82.819480731" stroke-miterlimit="10" stroke-width="2.7769845610000004" stroke-dasharray=""/></g><g><text fill="black" stroke="none" font-family="sans-serif" font-size="11pt" font-style="normal" font-weight="normal" text-decoration="normal" x="292.72059616184896" y="124.80095321200001" text-anchor="start" dominant-baseline="alphabetic" xml:space="preserve">Curriculum list page</text></g><path fill="none" stroke="none"/><g><path fill="white" stroke="black" paint-order="fill stroke markers" d=" M 569.6027205040377 85.75981732500001 L 704.455919160155 85.75981732500001 L 704.455919160155 129.701514202 L 569.6027205040377 129.701514202 L 569.6027205040377 85.75981732500001 Z" stroke-miterlimit="10" stroke-width="2.613632528" stroke-dasharray=""/></g><g><text fill="black" stroke="none" font-family="sans-serif" font-size="11pt" font-style="normal" font-weight="normal" text-decoration="normal" x="587.3264160845378" y="113.36631090200002" text-anchor="start" dominant-baseline="alphabetic" xml:space="preserve">Search Service</text></g><g><path fill="white" stroke="black" paint-order="fill stroke markers" d=" M 854.2128280572708 82.819480731 A 24.2577769005 24.2577769005 0 1 1 854.2128159283834 82.79522295814245 M 826.6880104967709 58.561703830499994 L 836.4891324767708 50.39410218049999 M 826.6880104967709 58.561703830499994 L 836.4891324767708 66.72930548049999" stroke-miterlimit="10" stroke-width="2.7769845610000004" stroke-dasharray=""/></g><g><text fill="black" stroke="none" font-family="sans-serif" font-size="11pt" font-style="normal" font-weight="normal" text-decoration="normal" x="760.7102772920248" y="124.80095321200001" text-anchor="start" dominant-baseline="alphabetic" xml:space="preserve">Curriculum Controller</text></g><path fill="none" stroke="none"/><g><path fill="white" stroke="black" paint-order="fill stroke markers" d=" M 926.7584486658542 85.75981732500001 L 1088.2186572096666 85.75981732500001 L 1088.2186572096666 129.701514202 L 926.7584486658542 129.701514202 L 926.7584486658542 85.75981732500001 Z" stroke-miterlimit="10" stroke-width="2.613632528" stroke-dasharray=""/></g><g><text fill="black" stroke="none" font-family="sans-serif" font-size="11pt" font-style="normal" font-weight="normal" text-decoration="normal" x="944.4821442463542" y="113.36631090200002" text-anchor="start" dominant-baseline="alphabetic" xml:space="preserve">Workspace Service</text></g><path fill="none" stroke="none"/><g><path fill="white" stroke="black" paint-order="fill stroke markers" d=" M 1104.5538605096667 85.75981732500001 L 1263.8236546247683 85.75981732500001 L 1263.8236546247683 129.701514202 L 1104.5538605096667 129.701514202 L 1104.5538605096667 85.75981732500001 Z" stroke-miterlimit="10" stroke-width="2.613632528" stroke-dasharray=""/></g><g><text fill="black" stroke="none" font-family="sans-serif" font-size="11pt" font-style="normal" font-weight="normal" text-decoration="normal" x="1122.2775560901666" y="113.36631090200002" text-anchor="start" dominant-baseline="alphabetic" xml:space="preserve">Curriculum Service</text></g><g><path fill="white" stroke="blue" paint-order="fill stroke markers" d=" M 1339.1756426815741 97.684515734 L 1339.1756426815741 63.380588804000006 L 1386.8744363175742 63.380588804000006 L 1386.8744363175742 97.684515734" stroke-miterlimit="10" stroke-width="2.7769845610000004" stroke-dasharray=""/><path fill="white" stroke="blue" paint-order="fill stroke markers" d=" M 1386.8744363175742 62.1881189631 L 1386.8732438576706 62.29592950801663 L 1386.8696665972045 62.403729271968594 L 1386.863704893899 62.51150747506936 L 1386.8553593439199 62.619253339588404 L 1386.8446307818147 62.72695609102909 L 1386.8315202804308 62.834604959206004 L 1386.8160291508075 62.94218917932205 L 1386.798158942045 63.04969799304486 L 1386.777911441149 63.15712064958265 L 1386.7552886728527 63.2644464067593 L 1386.7302928994143 63.371664532088516 L 1386.7029266203904 63.47876430384712 L 1386.6731925723857 63.58573501214718 L 1386.6410937287806 63.692565960007016 L 1386.6066332994324 63.79924646442086 L 1386.5698147303556 63.90576585742718 L 1386.5306417033764 64.01211348717543 L 1386.4891181357646 64.11827871899126 L 1386.4452481798426 64.22425093643996 L 1386.3990362225693 64.3300195423881 L 1386.3504868851019 64.43557396006322 L 1386.299605022334 64.54090363411153 L 1386.2463957224088 64.64599803165338 L 1386.1908643062127 64.75084664333659 L 1386.1330163268408 64.85543898438739 L 1386.0728575690425 64.95976459565881 L 1386.0103940486438 65.06381304467668 L 1385.9456320119448 65.16757392668278 L 1385.8785779350947 65.27103686567541 L 1385.8092385234456 65.37419151544687 L 1385.7376207108812 65.47702756061814 L 1385.6637316591225 65.5795347176704 L 1385.5875787570133 65.68170273597339 L 1385.5091696197806 65.7835213988104 L 1385.4285120882726 65.88498052439998 L 1385.345614228175 65.98606996691414 L 1385.2604843292052 66.08677961749288 L 1385.1731309042818 66.18709940525505 L 1385.0835626886746 66.28701929830548 L 1384.9917886391304 66.38652930473813 L 1384.8978179329781 66.48561947363528 L 1384.8016599672096 66.58427989606261 L 1384.7033243575413 66.6825007060601 L 1384.6028209374526 66.7802720816286 L 1384.5001597572013 66.87758424571203 L 1384.3953510828203 66.97442746717506 L 1384.2884053950895 67.07079206177627 L 1384.1793333884887 67.1666683931365 L 1384.0681459701273 67.2620468737025 L 1383.9548542586547 67.35691796570569 L 1383.8394695831478 67.45127218211596 L 1383.7220034819777 67.54510008759026 L 1383.602467701657 67.63839229941624 L 1383.4808741956635 67.73113948845047 L 1383.3572351232472 67.82333238005134 L 1383.2315628482118 67.9149617550065 L 1383.1038699376802 68.00601845045483 L 1382.9741691608374 68.09649336080267 L 1382.8424734876523 68.18637743863435 L 1382.708796087583 68.27566169561702 L 1382.5731503282582 68.36433720339936 L 1382.4355497741403 68.45239509450451 L 1382.2960081851704 68.53982656321674 L 1382.1545395153912 68.62662286646201 L 1382.0111579115514 68.71277532468237 L 1381.865877711692 68.79827532270376 L 1381.7187134437124 68.88311431059763 L 1381.5696798239162 68.9672838045359 L 1381.4187917555414 69.0507753876393 L 1381.266064327269 69.13358071081912 L 1381.1115128117146 69.21569149361203 L 1380.9551526639011 69.29709952500816 L 1380.796999519713 69.37779666427225 L 1380.6370691943328 69.45777484175761 L 1380.4753776806594 69.53702605971311 L 1380.31194114771 69.61554239308303 L 1380.1467759390016 69.69331599029945 L 1379.9798985709174 69.77033907406746 L 1379.811325731055 69.84660394214286 L 1379.6410742765577 69.92210296810242 L 1379.4691612324295 69.99682860210643 L 1379.2956037898316 70.07077337165379 L 1379.1204193043632 70.14392988232913 L 1378.9436252943271 70.21629081854239 L 1378.765239438977 70.28784894426022 L 1378.5852795767498 70.35859710372968 L 1378.4037637034817 70.42852822219379 L 1378.2207099706088 70.49763530659898 L 1378.0361366833517 70.5659114462944 L 1377.8500622988856 70.63334981372294 L 1377.6625054244937 70.69994366510412 L 1377.473484815707 70.76568634110825 L 1377.2830193744292 70.83057126752253 L 1377.0911281470453 70.89459195590838 L 1376.8978303225185 70.95774200425032 L 1376.70314523047 71.02001509759614 L 1376.5070923392468 71.08140500868842 L 1376.3096912539747 71.14190559858717 L 1376.1109617145976 71.20151081728383 L 1375.9109235939038 71.26021470430622 L 1375.7095968955389 71.31801138931453 L 1375.5070017520047 71.37489509268845 L 1375.3031584226471 71.43086012610503 L 1375.0980872916286 71.48590089310757 L 1374.891808865892 71.54001188966522 L 1374.6843437731077 71.59318770472345 L 1374.475712759612 71.64542302074504 L 1374.2659366883324 71.69671261424193 L 1374.0550365367014 71.7470513562975 L 1373.8430333945585 71.79643421307951 L 1373.6299484620408 71.84485624634341 L 1373.4158030474644 71.89231261392625 L 1373.2006185651921 71.93879857023082 L 1372.984416533493 71.9843094667002 L 1372.7672185723898 72.02884075228269 L 1372.5490464014977 72.07238797388683 L 1372.3299218378522 72.11494677682676 L 1372.109866793727 72.15651290525764 L 1371.8889032744428 72.19708220260128 L 1371.6670533761678 72.23665061196175 L 1371.4443392837068 72.27521417653107 L 1371.2207832682834 72.31276903998494 L 1370.9964076853128 72.3493114468683 L 1370.7712349721664 72.38483774297092 L 1370.545287645928 72.41934437569277 L 1370.318588301142 72.45282789439938 L 1370.0911596075534 72.48528495076673 L 1369.8630243078428 72.51671229911628 L 1369.6342052153493 72.54710679673934 L 1369.404725211792 72.5764654042115 L 1369.17460724498 72.60478518569649 L 1368.943874326518 72.63206330923974 L 1368.7125495295056 72.65829704705163 L 1368.4806559862297 72.68348377578025 L 1368.2482168858517 72.70762097677371 L 1368.0152554720876 72.73070623633201 L 1367.7817950408846 72.75273724594847 L 1367.5478589380916 72.77371180254045 L 1367.3134705571238 72.79362780866978 L 1367.0786533366238 72.81248327275246 L 1366.843430758118 72.83027630925778 L 1366.6078263436684 72.84700513889692 L 1366.3718636535202 72.86266808880085 L 1366.1355662837454 72.87726359268764 L 1365.8989578638843 72.89079019101906 L 1365.6620620545818 72.90324653114655 L 1365.4249025452214 72.91463136744649 L 1365.1875030515562 72.9249435614447 L 1364.9498873133377 72.93418208193043 L 1364.712079091942 72.94234600505929 L 1364.4741021679931 72.94943451444577 L 1364.2359803389847 72.95544690124485 L 1363.9977374169014 72.96038256422287 L 1363.7593972258371 72.96424100981763 L 1363.520983599612 72.9670218521878 L 1363.2825203793905 72.96872481325143 L 1363.0440314112952 72.96934972271386 L 1362.8055405440248 72.96889651808466 L 1362.567071626467 72.96736524468392 L 1362.3286485053147 72.96475605563768 L 1362.0902950226816 72.96106921186271 L 1361.8520350137173 72.95630508204027 L 1361.613892304224 72.9504641425794 L 1361.3758907082743 72.94354697756918 L 1361.1380540258294 72.93555427872033 L 1360.9004060403595 72.9264868452961 L 1360.662970516465 72.91634558403224 L 1360.4257711975004 72.90513150904647 L 1360.1888318032 72.89284574173689 L 1359.9521760273055 72.87948951067006 L 1359.7158275351978 72.86506415145789 L 1359.4798099615289 72.84957110662431 L 1359.2441469078592 72.8330119254609 L 1359.0088619402982 72.81538826387197 L 1358.773978587146 72.79670188420899 L 1358.5395203365429 72.77695465509434 L 1358.3055106341178 72.7561485512345 L 1358.0719728806466 72.73428565322251 L 1357.8389304297095 72.71136814732996 L 1357.606406585358 72.68739832528833 L 1357.374424599782 72.66237858405984 L 1357.1430076709873 72.63631142559778 L 1356.912178940474 72.60919945659627 L 1356.6819614909223 72.58104538822961 L 1356.4523783438858 72.55185203588118 L 1356.2234524574876 72.5216223188619 L 1355.9952067241256 72.49035926011825 L 1355.767663968183 72.45806598593009 L 1355.5408469437457 72.4247457255979 L 1355.314778332327 72.39040181111994 L 1355.0894807406 72.35503767685907 L 1354.8649766981362 72.31865685919922 L 1354.6412886551523 72.28126299619186 L 1354.4184389802663 72.24285982719209 L 1354.1964499582602 72.20345119248485 L 1353.975343787851 72.16304103290075 L 1353.7551425794718 72.12163338942209 L 1353.5358683530594 72.07923240277869 L 1353.3175430358542 72.03584231303388 L 1353.100188460206 71.99146745916049 L 1352.883826361391 71.94611227860693 L 1352.6684783754386 71.89978130685344 L 1352.4541660369682 71.85247917695861 L 1352.2409107770352 71.80421061909601 L 1352.0287339209876 71.75498046008119 L 1351.8176566863344 71.70479362288901 L 1351.6077001806232 71.65365512616141 L 1351.3988853993292 71.60157008370541 L 1351.1912332237569 71.54854370398188 L 1350.9847644189506 71.49458128958457 L 1350.779499631619 71.43968823671 L 1350.5754593880695 71.38387003461766 L 1350.3726640921566 71.32713226508127 L 1350.171134023241 71.26948060183051 L 1349.970889334161 71.21092080998365 L 1349.7719500492196 71.15145874547107 L 1349.5743360621789 71.0911003544497 L 1349.378067134273 71.0298516727083 L 1349.1831628922312 70.96771882506403 L 1348.989642826315 70.90470802474988 L 1348.7975262883704 70.84082557279336 L 1348.6068324898906 70.77607785738643 L 1348.4175805000966 70.71047135324669 L 1348.2297892440297 70.64401262096986 L 1348.043477500659 70.5767083063738 L 1347.8586639010036 70.50856513983389 L 1347.6753669262696 70.43958993560999 L 1347.4936049060013 70.36978959116503 L 1347.3133960162497 70.29917108647531 L 1347.1347582777535 70.22774148333244 L 1346.9577095541376 70.1555079246372 L 1346.7822675501268 70.08247763368529 L 1346.6084498097753 70.00865791344492 L 1346.4362737147123 69.9340561458266 L 1346.2657564824042 69.85867979094495 L 1346.0969151644315 69.78253638637263 L 1345.9297666447856 69.70563354638664 L 1345.764327638179 69.62797896120689 L 1345.6006146883751 69.54958039622719 L 1345.4386441665317 69.47044569123871 L 1345.2784322695663 69.39058275964601 L 1345.1199950185353 69.30999958767568 L 1344.9633482570316 69.22870423357777 L 1344.8085076496006 69.14670482681996 L 1344.6554886801744 69.06400956727457 L 1344.504306650522 68.98062672439866 L 1344.3549766787207 68.89656463640702 L 1344.2075136976432 68.8118317094384 L 1344.0619324534648 68.72643641671489 L 1343.9182475041882 68.6403872976946 L 1343.776473218189 68.55369295721772 L 1343.6366237727775 68.46636206464606 L 1343.4987131527819 68.37840335299609 L 1343.3627551491488 68.28982561806569 L 1343.2287633575659 68.20063771755453 L 1343.0967511771 68.11084857017835 L 1342.9667318088598 68.02046715477704 L 1342.8387182546733 67.92950250941684 L 1342.7127233157894 67.83796373048648 L 1342.588759591597 67.74585997178757 L 1342.4668394783653 67.65320044361923 L 1342.3469751680038 67.55999441185705 L 1342.2291786468438 67.46625119702654 L 1342.1134616944394 67.37198017337107 L 1341.9998358823893 67.27719076791445 L 1341.8883125731797 67.18189245951821 L 1341.7789029190492 67.08609477793381 L 1341.6716178608715 66.98980730284956 L 1341.5664681270632 66.89303966293272 L 1341.4634642325102 66.79580153486665 L 1341.362616477516 66.69810264238313 L 1341.2639349467718 66.59995275528999 L 1341.167429508349 66.50136168849414 L 1341.0731098127103 66.40233930102012 L 1340.9809852917474 66.30289549502413 L 1340.8910651578353 66.20304021480393 L 1340.8033584029122 66.1027834458043 L 1340.717873797581 66.00213521361863 L 1340.6346198902306 65.90110558298623 L 1340.5536050061828 65.799704656786 L 1340.474837246858 65.69794257502603 L 1340.3983244889666 65.59582951382973 L 1340.324074383721 65.4933756844181 L 1340.2520943560692 65.3905913320887 L 1340.1823916039546 65.28748673519112 L 1340.114973097594 65.18407220409914 L 1340.049845578782 65.08035808017966 L 1339.9870155602162 64.97635473475869 L 1339.926489324846 64.87207256808405 L 1339.8682729252446 64.76752200828555 L 1339.8123721830032 64.66271351033203 L 1339.7587926881497 64.55765755498592 L 1339.707539798589 64.45236464775525 L 1339.658618639567 64.34684531784296 L 1339.6120341031594 64.24111011709415 L 1339.5677908477803 64.13516961894075 L 1339.525893297719 64.0290344173443 L 1339.4863456426951 63.92271512573653 L 1339.4491518374416 63.81622237595798 L 1339.4143156013076 63.70956681719489 L 1339.381840417888 63.602759114914264 L 1339.351729534674 63.49580994979732 L 1339.3239859627288 63.38873001667144 L 1339.2986124763863 63.28153002344071 L 1339.2756116129744 63.17422069001512 L 1339.25498567256 63.066812747238586 L 1339.2367367177199 62.959316935815885 L 1339.2208665733344 62.85174400523857 L 1339.207376826405 62.74410471271006 L 1339.1962688258948 62.636409822069915 L 1339.1875436825947 62.52867010271744 L 1339.1812022690117 62.4208963285348 L 1339.177245219282 62.313099276809595 L 1339.1756729291073 62.20528972715717 L 1339.1764855557153 62.09747846044265 L 1339.179683017844 61.98967625770286 L 1339.1852649957495 61.88189389906824 L 1339.1932309312392 61.77414216268484 L 1339.203580027726 61.66643182363649 L 1339.2163112503088 61.558773652867366 L 1339.231423325876 61.4511784161048 L 1339.2489147432325 61.34365687278283 L 1339.2687837532512 61.236219774966166 L 1339.291028369048 61.12887786627507 L 1339.3156463661794 61.02164188081096 L 1339.3426352828665 60.91452254208302 L 1339.3719924202398 60.807530561935856 L 1339.4037148426103 60.70067663947832 L 1339.437799377762 60.593971460013606 L 1339.4742426172702 60.487425693970756 L 1339.513040916841 60.381049995837586 L 1339.5541903966766 60.27485500309525 L 1339.5976869418637 60.16885133515453 L 1339.6435262027837 60.06304959229389 L 1339.691703595549 59.95746035459945 L 1339.74221430246 59.852094180906974 L 1339.7950532724888 59.746961607746044 L 1339.8502152217818 59.64207314828636 L 1339.9076946341904 59.537439291286454 L 1339.9674857618213 59.43307050004484 L 1340.0295826256113 59.32897721135367 L 1340.0939790159257 59.22516983445505 L 1340.1606684931794 59.12165875000019 L 1340.2296443884802 59.01845430901127 L 1340.300899804296 58.91556683184637 L 1340.3744276151447 58.81300660716748 L 1340.4502204683063 58.7107838909116 L 1340.5282707845588 58.60890890526517 L 1340.6085707589355 58.507391837641855 L 1340.691112361506 58.406242839663825 L 1340.7758873381788 58.30547202614659 L 1340.8628872115266 58.205089474087515 L 1340.9521032816351 58.105105221658164 L 1341.043526626971 58.00552926720046 L 1341.1371481052765 57.90637156822687 L 1341.2329583544818 57.807642040424646 L 1341.3309477936414 57.709350556664305 L 1341.4311066238931 57.61150694601232 L 1341.5334248294375 57.514120992748204 L 1341.6378921785395 57.417202435386145 L 1341.7444982245509 57.320760965701105 L 1341.8532323069562 57.224806227759686 L 1341.9640835524376 57.12934781695572 L 1342.077040875963 57.03439527905074 L 1342.192092981894 56.93995810921942 L 1342.309228365116 56.84604575110002 L 1342.4284353121886 56.75266759585011 L 1342.549701902516 56.65983298120741 L 1342.6730160095403 56.567551190555996 L 1342.798365301954 56.47583145199805 L 1342.9257372449315 56.384682937430995 L 1343.0551191013853 56.29411476163032 L 1343.1864979332374 56.20413598133814 L 1343.319860602714 56.1147555943575 L 1343.4551937736594 56.02598253865261 L 1343.5924839128693 55.937825691455075 L 1343.731717291444 55.85029386837614 L 1343.872879986162 55.763395822525176 L 1344.0159578808712 55.677140243634355 L 1344.1609366679013 55.591535757189675 L 1344.3078018494946 55.50659092356846 L 1344.4565387392552 55.42231423718327 L 1344.6071324636182 55.33871412563253 L 1344.7595679633364 55.25579894885771 L 1344.9138299949873 55.1735769983074 L 1345.069903132496 55.092056496108135 L 1345.2277717686788 55.01124559424221 L 1345.3874201168037 54.93115237373246 L 1345.548832212169 54.851784843834196 L 1345.7119919136992 54.77315094123426 L 1345.876882905561 54.6952585292574 L 1346.0434886987919 54.61811539707989 L 1346.2117926329515 54.54172925895067 L 1346.3817778777868 54.46610775341989 L 1346.5534274349152 54.391258442575094 L 1346.7267241395234 54.317188811284986 L 1346.901650662086 54.24390626645098 L 1347.078189510096 54.171418136266475 L 1347.2563230298163 54.09973166948409 L 1347.4360334080427 54.028854034690774 L 1347.6173026738877 53.95879231959093 L 1347.8001127005755 53.88955353029769 L 1347.9844452072557 53.82114459063227 L 1348.1702817608314 53.753572341431656 L 1348.3576037778018 53.68684353986444 L 1348.546392526122 53.62096485875517 L 1348.7366291270737 53.55594288591707 L 1348.9282945571558 53.49178412349323 L 1349.121369649985 53.42849498730643 L 1349.3158350982126 53.366081806217544 L 1349.511671455456 53.304550821492676 L 1349.708859138243 53.24390818617902 L 1349.9073784279692 53.18415996448957 L 1350.107209472871 53.12531213119671 L 1350.308332290011 53.067370571034715 L 1350.5107267672747 53.01034107811134 L 1350.7143726653828 52.95422935532834 L 1350.9192496199157 52.89904101381123 L 1351.1253371433484 52.84478157234818 L 1351.3326146271004 52.79145645683812 L 1351.5410613435959 52.73907099974815 L 1351.750656448337 52.687630439580346 L 1351.961378981988 52.637139920347835 L 1352.173207872471 52.58760449106049 L 1352.3861219370735 52.53902910521993 L 1352.6000998845666 52.49141862032429 L 1352.8151203173338 52.444777797382365 L 1353.031161733511 52.399111300437596 L 1353.2482025291367 52.354423696101605 L 1353.4662210003119 52.3107194530976 L 1353.6851953453715 52.26800294181345 L 1353.9051036670633 52.2262784338647 L 1354.1259239747385 52.18555010166736 L 1354.34763418655 52.14582201802072 L 1354.570212131662 52.10709815570004 L 1354.793635552465 52.06938238705927 L 1355.0178821068032 52.032678483643856 L 1355.2429293702082 51.996990115813546 L 1355.468754838141 51.96232085237539 L 1355.695335928243 51.928674160226834 L 1355.922649982594 51.89605340400906 L 1356.1506742699783 51.8644618457705 L 1356.3793859881566 51.833902644640645 L 1356.6087622661482 51.80437885651416 L 1356.8387801665162 51.775893433745246 L 1357.0694166876624 51.74844922485244 L 1357.3006487661269 51.722048974233765 L 1357.5324532788943 51.69669532189228 L 1357.7648070457067 51.672390803172085 L 1357.9976868313809 51.649137848504814 L 1358.2310693481325 51.626938783166544 L 1358.464931257904 51.60579582704531 L 1358.6992491746998 51.58571109441911 L 1358.9339996669235 51.56668659374447 L 1359.169159259721 51.54872422745561 L 1359.4047044373294 51.53182579177417 L 1359.640611645427 51.515992976529645 L 1359.8768572934898 51.50122736499037 L 1360.1134177571496 51.4875304337052 L 1360.3502693805574 51.47490355235584 L 1360.587388478748 51.4633479836199 L 1360.8247513400095 51.45286488304463 L 1361.0623342282531 51.443455298931354 L 1361.3001133853886 51.43512017223063 L 1361.5380650336979 51.4278603364482 L 1361.7761653782147 51.42167651756158 L 1362.0143906091027 51.41656933394751 L 1362.2527169040377 51.41253929632009 L 1362.4911204305888 51.40958680767973 L 1362.7295773486017 51.407712163272826 L 1362.9680638125835 51.40691555056227 L 1363.2065559740865 51.40719704920866 L 1363.4450299840935 51.40855663106237 L 1363.6834619954018 51.41099416016634 L 1363.9218281650092 51.414509392769695 L 1364.1601046564977 51.419101977352106 L 1364.398267642416 51.42477145465894 L 1364.6362933066646 51.431517257747196 L 1364.874157846875 51.43933871204218 L 1365.1118374767918 51.44823503540498 L 1365.3493084286497 51.45820533821068 L 1365.5865469555517 51.4692486234373 L 1365.8235293338428 51.48136378676553 L 1366.0602318654824 51.49454961668913 L 1366.2966308804146 51.50880479463608 L 1366.532702738935 51.524127895100484 L 1366.7684238340548 51.54051738578506 L 1367.0037705938605 51.5579716277544 L 1367.2387194838723 51.57648887559884 L 1367.4732470093973 51.59606727760904 L 1367.7073297178779 51.6167048759611 L 1367.9409442012386 51.6383996069124 L 1368.1740670982258 51.66114930100791 L 1368.4066750967438 51.684951683297186 L 1368.6387449361869 51.70980437356183 L 1368.8702534097645 51.735704886553535 L 1369.1011773668217 51.76265063224257 L 1369.331493715156 51.79063891607683 L 1369.561179423324 51.81966693925126 L 1369.7902115229463 51.849731798987726 L 1370.018567111004 51.88083048882531 L 1370.2462233521285 51.91295989892094 L 1370.4731574808852 51.94611681636038 L 1370.6993468040507 51.980297925479526 L 1370.9247687028808 52.01549980819594 L 1371.149400635374 52.0517189443507 L 1371.3732201385235 52.08895171206036 L 1371.596204830566 52.127194388079175 L 1371.818332413218 52.16644314817141 L 1372.0395806739066 52.20669406749378 L 1372.2599274879897 52.247943120987884 L 1372.4793508209696 52.29018618378274 L 1372.697828730696 52.33341903160728 L 1372.91533936956 52.37763734121275 L 1373.1318609866787 52.422836690805035 L 1373.3473719300712 52.46901256048684 L 1373.5618506488224 52.516160332709674 L 1373.7752756952393 52.564275292735616 L 1373.9876257269952 52.613352629108746 L 1374.1988795092639 52.663387434136325 L 1374.4090159168431 52.71437470437956 L 1374.6180139362673 52.7663093411539 L 1374.8258526679083 52.819186151038956 L 1375.0325113280667 52.8729998463978 L 1375.2379692510483 52.92774504590574 L 1375.4422058912323 52.983416275088445 L 1375.6452008251247 53.040007966869396 L 1375.8469337534013 53.09751446212657 L 1376.0473845029373 53.15593001025836 L 1376.246533028825 53.21524876975863 L 1376.4443594163777 53.27546480880087 L 1376.6408438831213 53.33657210583136 L 1376.8359667807729 53.3985645501713 L 1377.0297085972056 53.461435942627936 L 1377.222049958399 53.52517999611441 L 1377.4129716303776 53.58979033627848 L 1377.6024545211328 53.655260502139996 L 1377.7904796825337 53.721583946736914 L 1377.9770283122207 53.78875403778004 L 1378.1620817554865 53.85676405831625 L 1378.3456215071408 53.92560720740017 L 1378.5276292133615 53.995276600774254 L 1378.7080866735294 54.065765271557225 L 1378.8869758420492 54.13706617094075 L 1379.0642788301532 54.2091721688943 L 1379.2399779076898 54.28207605487816 L 1379.4140555048982 54.35577053856451 L 1379.5864942141634 54.43024825056637 L 1379.7572767917584 54.50550174317461 L 1379.9263861595678 54.581523491102686 L 1380.0938054067954 54.658305892239156 L 1380.2595177916562 54.73584126840789 L 1380.42350674305 54.81412186613588 L 1380.5857558622179 54.89313985742859 L 1380.7462489243835 54.97288734055273 L 1380.9049698803742 55.05335634082646 L 1381.0619028582269 55.1345388114168 L 1381.2170321647743 55.21642663414435 L 1381.370342287215 55.29901162029506 L 1381.5218178946648 55.38228551143916 L 1381.671443839689 55.46623998025691 L 1381.8192051598178 55.55086663137139 L 1381.9650870790422 55.63615700218803 L 1382.1090750092922 55.722102563740805 L 1382.2511545518942 55.80869472154519 L 1382.391311499013 55.89592481645755 L 1382.5295318350702 55.98378412554111 L 1382.6658017381476 56.07226386293816 L 1382.8001075813684 56.1613551807487 L 1382.9324359342602 56.251049169915184 L 1383.0627735640978 56.34133686111345 L 1383.1911074372272 56.4322092256496 L 1383.3174247203679 56.52365717636293 L 1383.4417127818965 56.615671568534566 L 1383.563959193111 56.70824320080196 L 1383.6841517294718 56.80136281607904 L 1383.8022783718252 56.89502110248188 L 1383.918327307606 56.98920869425987 L 1384.0322869320169 57.083916172732344 L 1384.1441458491904 57.17913406723036 L 1384.2538928733284 57.27485285604382 L 1384.3615170298194 57.37106296737362 L 1384.4670075563379 57.467754780288786 L 1384.570353903919 57.56491862568861 L 1384.671545738014 57.662544787269525 L 1384.7705729395238 57.76062350249672 L 1384.867425605811 57.859144963580405 L 1384.9620940516893 57.95809931845658 L 1385.0545688103932 58.05747667177222 L 1385.144840634524 58.15726708587479 L 1385.2329004969743 58.257460581806065 L 1385.3187395918314 58.358047140299924 L 1385.4023493352572 58.459016702784346 L 1385.4837213663473 58.56035917238722 L 1385.5628475479662 58.66206441494605 L 1385.6397199675616 58.764122260021324 L 1385.7143309379558 58.866522501913586 L 1385.7866729981138 58.96925490068398 L 1385.85673891389 59.072309183178234 L 1385.924521678751 59.17567504405398 L 1385.990014514477 59.279342146811274 L 1386.053210871839 59.38330012482622 L 1386.1141044312535 59.48753858238766 L 1386.172689103416 59.59204709573668 L 1386.2289590299076 59.69681521410906 L 1386.282908583783 59.80183246078026 L 1386.334532370131 59.907088334113126 L 1386.3838252266169 60.012572308608036 L 1386.4307822239953 60.11827383595545 L 1386.4753986666062 60.22418234609071 L 1386.5176700928423 60.33028724825106 L 1386.557592275596 60.43657793203471 L 1386.5951612226827 60.54304376846186 L 1386.6303731772389 60.64967411103757 L 1386.6632246180982 60.75645829681646 L 1386.693712260144 60.86338564746893 L 1386.7218330546377 60.97044547034902 L 1386.7475841895232 61.07762705956367 L 1386.7709630897082 61.184919697043256 L 1386.7919674173227 61.29231265361346 L 1386.8105950719507 61.399795190068104 L 1386.826844190843 61.50735655824312 L 1386.840713149101 61.614986002091314 L 1386.8522005598402 61.72267275875801 L 1386.8613052743294 61.830406059657264 L 1386.8680263821045 61.93817513154877 L 1386.8723632110607 62.04596919761514 L 1386.8743153275182 62.15377747853961 M 1386.8744363175742 96.4920458931 L 1386.8732438576706 96.59985643801662 L 1386.8696665972045 96.70765620196859 L 1386.863704893899 96.81543440506935 L 1386.8553593439199 96.9231802695884 L 1386.8446307818147 97.03088302102908 L 1386.8315202804308 97.138531889206 L 1386.8160291508075 97.24611610932205 L 1386.798158942045 97.35362492304485 L 1386.777911441149 97.46104757958265 L 1386.7552886728527 97.5683733367593 L 1386.7302928994143 97.67559146208852 L 1386.7029266203904 97.78269123384712 L 1386.6731925723857 97.88966194214719 L 1386.6410937287806 97.99649289000702 L 1386.6066332994324 98.10317339442086 L 1386.5698147303556 98.20969278742717 L 1386.5306417033764 98.31604041717543 L 1386.4891181357646 98.42220564899125 L 1386.4452481798426 98.52817786643996 L 1386.3990362225693 98.6339464723881 L 1386.3504868851019 98.73950089006323 L 1386.299605022334 98.84483056411152 L 1386.2463957224088 98.94992496165337 L 1386.1908643062127 99.05477357333659 L 1386.1330163268408 99.15936591438738 L 1386.0728575690425 99.2636915256588 L 1386.0103940486438 99.36773997467667 L 1385.9456320119448 99.47150085668278 L 1385.8785779350947 99.5749637956754 L 1385.8092385234456 99.67811844544686 L 1385.7376207108812 99.78095449061813 L 1385.6637316591225 99.8834616476704 L 1385.5875787570133 99.98562966597338 L 1385.5091696197806 100.08744832881038 L 1385.4285120882726 100.18890745439998 L 1385.345614228175 100.28999689691415 L 1385.2604843292052 100.39070654749288 L 1385.1731309042818 100.49102633525506 L 1385.0835626886746 100.59094622830548 L 1384.9917886391304 100.69045623473812 L 1384.8978179329781 100.78954640363527 L 1384.8016599672096 100.8882068260626 L 1384.7033243575413 100.9864276360601 L 1384.6028209374526 101.0841990116286 L 1384.5001597572013 101.18151117571202 L 1384.3953510828203 101.27835439717506 L 1384.2884053950895 101.37471899177628 L 1384.1793333884887 101.4705953231365 L 1384.0681459701273 101.56597380370249 L 1383.9548542586547 101.6608448957057 L 1383.8394695831478 101.75519911211595 L 1383.7220034819777 101.84902701759025 L 1383.602467701657 101.94231922941623 L 1383.4808741956635 102.03506641845047 L 1383.3572351232472 102.12725931005133 L 1383.2315628482118 102.2188886850065 L 1383.1038699376802 102.30994538045483 L 1382.9741691608374 102.40042029080266 L 1382.8424734876523 102.49030436863434 L 1382.708796087583 102.579588625617 L 1382.5731503282582 102.66826413339936 L 1382.4355497741403 102.75632202450451 L 1382.2960081851704 102.84375349321674 L 1382.1545395153912 102.93054979646202 L 1382.0111579115514 103.01670225468237 L 1381.865877711692 103.10220225270375 L 1381.7187134437124 103.18704124059762 L 1381.5696798239162 103.27121073453588 L 1381.4187917555414 103.3547023176393 L 1381.266064327269 103.4375076408191 L 1381.1115128117146 103.51961842361202 L 1380.9551526639011 103.60102645500817 L 1380.796999519713 103.68172359427226 L 1380.6370691943328 103.7617017717576 L 1380.4753776806594 103.84095298971312 L 1380.31194114771 103.91946932308304 L 1380.1467759390016 103.99724292029944 L 1379.9798985709174 104.07426600406745 L 1379.811325731055 104.15053087214287 L 1379.6410742765577 104.22602989810241 L 1379.4691612324295 104.30075553210642 L 1379.2956037898316 104.37470030165377 L 1379.1204193043632 104.44785681232914 L 1378.9436252943271 104.52021774854238 L 1378.765239438977 104.59177587426021 L 1378.5852795767498 104.66252403372968 L 1378.4037637034817 104.73245515219378 L 1378.2207099706088 104.80156223659897 L 1378.0361366833517 104.86983837629438 L 1377.8500622988856 104.93727674372295 L 1377.6625054244937 105.0038705951041 L 1377.473484815707 105.06961327110824 L 1377.2830193744292 105.13449819752252 L 1377.0911281470453 105.19851888590837 L 1376.8978303225185 105.26166893425032 L 1376.70314523047 105.32394202759615 L 1376.5070923392468 105.38533193868841 L 1376.3096912539747 105.44583252858716 L 1376.1109617145976 105.50543774728384 L 1375.9109235939038 105.56414163430621 L 1375.7095968955389 105.62193831931454 L 1375.5070017520047 105.67882202268845 L 1375.3031584226471 105.73478705610502 L 1375.0980872916286 105.78982782310756 L 1374.891808865892 105.84393881966523 L 1374.6843437731077 105.89711463472344 L 1374.475712759612 105.94934995074503 L 1374.2659366883324 106.00063954424192 L 1374.0550365367014 106.0509782862975 L 1373.8430333945585 106.1003611430795 L 1373.6299484620408 106.14878317634341 L 1373.4158030474644 106.19623954392625 L 1373.2006185651921 106.2427255002308 L 1372.984416533493 106.2882363967002 L 1372.7672185723898 106.33276768228268 L 1372.5490464014977 106.37631490388682 L 1372.3299218378522 106.41887370682676 L 1372.109866793727 106.46043983525765 L 1371.8889032744428 106.50100913260128 L 1371.6670533761678 106.54057754196174 L 1371.4443392837068 106.57914110653107 L 1371.2207832682834 106.61669596998493 L 1370.9964076853128 106.65323837686829 L 1370.7712349721664 106.6887646729709 L 1370.545287645928 106.72327130569276 L 1370.318588301142 106.75675482439937 L 1370.0911596075534 106.78921188076673 L 1369.8630243078428 106.82063922911627 L 1369.6342052153493 106.85103372673933 L 1369.404725211792 106.8803923342115 L 1369.17460724498 106.90871211569649 L 1368.943874326518 106.93599023923973 L 1368.7125495295056 106.96222397705162 L 1368.4806559862297 106.98741070578025 L 1368.2482168858517 107.0115479067737 L 1368.0152554720876 107.03463316633201 L 1367.7817950408846 107.05666417594847 L 1367.5478589380916 107.07763873254045 L 1367.3134705571238 107.09755473866979 L 1367.0786533366238 107.11641020275246 L 1366.843430758118 107.13420323925777 L 1366.6078263436684 107.1509320688969 L 1366.3718636535202 107.16659501880085 L 1366.1355662837454 107.18119052268763 L 1365.8989578638843 107.19471712101905 L 1365.6620620545818 107.20717346114655 L 1365.4249025452214 107.21855829744648 L 1365.1875030515562 107.22887049144471 L 1364.9498873133377 107.23810901193042 L 1364.712079091942 107.24627293505928 L 1364.4741021679931 107.25336144444577 L 1364.2359803389847 107.25937383124486 L 1363.9977374169014 107.26430949422287 L 1363.7593972258371 107.26816793981763 L 1363.520983599612 107.27094878218779 L 1363.2825203793905 107.27265174325143 L 1363.0440314112952 107.27327665271386 L 1362.8055405440248 107.27282344808465 L 1362.567071626467 107.27129217468391 L 1362.3286485053147 107.26868298563768 L 1362.0902950226816 107.2649961418627 L 1361.8520350137173 107.26023201204026 L 1361.613892304224 107.2543910725794 L 1361.3758907082743 107.24747390756917 L 1361.1380540258294 107.23948120872033 L 1360.9004060403595 107.23041377529609 L 1360.662970516465 107.22027251403225 L 1360.4257711975004 107.20905843904646 L 1360.1888318032 107.1967726717369 L 1359.9521760273055 107.18341644067004 L 1359.7158275351978 107.16899108145788 L 1359.4798099615289 107.15349803662431 L 1359.2441469078592 107.1369388554609 L 1359.0088619402982 107.11931519387196 L 1358.773978587146 107.10062881420897 L 1358.5395203365429 107.08088158509435 L 1358.3055106341178 107.0600754812345 L 1358.0719728806466 107.03821258322252 L 1357.8389304297095 107.01529507732995 L 1357.606406585358 106.99132525528832 L 1357.374424599782 106.96630551405984 L 1357.1430076709873 106.94023835559778 L 1356.912178940474 106.91312638659626 L 1356.6819614909223 106.88497231822961 L 1356.4523783438858 106.85577896588119 L 1356.2234524574876 106.8255492488619 L 1355.9952067241256 106.79428619011826 L 1355.767663968183 106.76199291593008 L 1355.5408469437457 106.72867265559789 L 1355.314778332327 106.69432874111995 L 1355.0894807406 106.65896460685907 L 1354.8649766981362 106.62258378919921 L 1354.6412886551523 106.58518992619184 L 1354.4184389802663 106.5467867571921 L 1354.1964499582602 106.50737812248485 L 1353.975343787851 106.46696796290075 L 1353.7551425794718 106.42556031942208 L 1353.5358683530594 106.38315933277867 L 1353.3175430358542 106.33976924303387 L 1353.100188460206 106.29539438916049 L 1352.883826361391 106.25003920860692 L 1352.6684783754386 106.20370823685344 L 1352.4541660369682 106.15640610695861 L 1352.2409107770352 106.108137549096 L 1352.0287339209876 106.05890739008117 L 1351.8176566863344 106.00872055288902 L 1351.6077001806232 105.9575820561614 L 1351.3988853993292 105.90549701370541 L 1351.1912332237569 105.85247063398188 L 1350.9847644189506 105.79850821958458 L 1350.779499631619 105.74361516670999 L 1350.5754593880695 105.68779696461766 L 1350.3726640921566 105.63105919508126 L 1350.171134023241 105.5734075318305 L 1349.970889334161 105.51484773998365 L 1349.7719500492196 105.45538567547108 L 1349.5743360621789 105.3950272844497 L 1349.378067134273 105.33377860270829 L 1349.1831628922312 105.27164575506403 L 1348.989642826315 105.20863495474987 L 1348.7975262883704 105.14475250279335 L 1348.6068324898906 105.08000478738643 L 1348.4175805000966 105.01439828324668 L 1348.2297892440297 104.94793955096986 L 1348.043477500659 104.8806352363738 L 1347.8586639010036 104.8124920698339 L 1347.6753669262696 104.74351686560999 L 1347.4936049060013 104.67371652116503 L 1347.3133960162497 104.6030980164753 L 1347.1347582777535 104.53166841333243 L 1346.9577095541376 104.4594348546372 L 1346.7822675501268 104.38640456368528 L 1346.6084498097753 104.31258484344491 L 1346.4362737147123 104.2379830758266 L 1346.2657564824042 104.16260672094495 L 1346.0969151644315 104.08646331637262 L 1345.9297666447856 104.00956047638662 L 1345.764327638179 103.93190589120688 L 1345.6006146883751 103.85350732622719 L 1345.4386441665317 103.77437262123871 L 1345.2784322695663 103.694509689646 L 1345.1199950185353 103.61392651767568 L 1344.9633482570316 103.53263116357778 L 1344.8085076496006 103.45063175681996 L 1344.6554886801744 103.36793649727457 L 1344.504306650522 103.28455365439865 L 1344.3549766787207 103.20049156640701 L 1344.2075136976432 103.1157586394384 L 1344.0619324534648 103.03036334671489 L 1343.9182475041882 102.94431422769459 L 1343.776473218189 102.85761988721772 L 1343.6366237727775 102.77028899464605 L 1343.4987131527819 102.68233028299609 L 1343.3627551491488 102.5937525480657 L 1343.2287633575659 102.50456464755453 L 1343.0967511771 102.41477550017834 L 1342.9667318088598 102.32439408477703 L 1342.8387182546733 102.23342943941684 L 1342.7127233157894 102.14189066048647 L 1342.588759591597 102.04978690178756 L 1342.4668394783653 101.95712737361922 L 1342.3469751680038 101.86392134185704 L 1342.2291786468438 101.77017812702654 L 1342.1134616944394 101.67590710337106 L 1341.9998358823893 101.58111769791444 L 1341.8883125731797 101.48581938951821 L 1341.7789029190492 101.39002170793381 L 1341.6716178608715 101.29373423284954 L 1341.5664681270632 101.19696659293271 L 1341.4634642325102 101.09972846486664 L 1341.362616477516 101.00202957238312 L 1341.2639349467718 100.90387968528998 L 1341.167429508349 100.80528861849413 L 1341.0731098127103 100.70626623102011 L 1340.9809852917474 100.60682242502413 L 1340.8910651578353 100.50696714480392 L 1340.8033584029122 100.40671037580431 L 1340.717873797581 100.30606214361863 L 1340.6346198902306 100.20503251298624 L 1340.5536050061828 100.103631586786 L 1340.474837246858 100.00186950502604 L 1340.3983244889666 99.89975644382972 L 1340.324074383721 99.79730261441809 L 1340.2520943560692 99.69451826208869 L 1340.1823916039546 99.59141366519111 L 1340.114973097594 99.48799913409913 L 1340.049845578782 99.38428501017967 L 1339.9870155602162 99.28028166475868 L 1339.926489324846 99.17599949808405 L 1339.8682729252446 99.07144893828554 L 1339.8123721830032 98.96664044033201 L 1339.7587926881497 98.86158448498593 L 1339.707539798589 98.75629157775525 L 1339.658618639567 98.65077224784297 L 1339.6120341031594 98.54503704709414 L 1339.5677908477803 98.43909654894075 L 1339.525893297719 98.33296134734431 L 1339.4863456426951 98.22664205573652 L 1339.4491518374416 98.12014930595798 L 1339.4143156013076 98.01349374719489 L 1339.381840417888 97.90668604491427 L 1339.351729534674 97.79973687979731 L 1339.3239859627288 97.69265694667143 L 1339.2986124763863 97.58545695344071 L 1339.2756116129744 97.47814762001512 L 1339.25498567256 97.37073967723859 L 1339.2367367177199 97.26324386581588 L 1339.2208665733344 97.15567093523856 L 1339.207376826405 97.04803164271006 L 1339.1962688258948 96.94033675206991 L 1339.1875436825947 96.83259703271744 L 1339.1812022690117 96.7248232585348 L 1339.177245219282 96.6170262068096 L 1339.1756729291073 96.50921665715717" stroke-miterlimit="10" stroke-width="2.7769845610000004" stroke-dasharray=""/></g><g><text fill="black" stroke="none" font-family="sans-serif" font-size="11pt" font-style="normal" font-weight="normal" text-decoration="normal" x="1331.6470945532851" y="124.80095321200001" text-anchor="start" dominant-baseline="alphabetic" xml:space="preserve">Database</text></g></g><g><path fill="white" stroke="black" paint-order="fill stroke markers" d=" M 349.3238990528646 183.607685092 L 365.6591023528646 183.607685092 L 365.6591023528646 1771.3894458520003 L 349.3238990528646 1771.3894458520003 L 349.3238990528646 183.607685092" stroke-miterlimit="10" stroke-width="1.3612669416666667" stroke-dasharray=""/><path fill="white" stroke="black" paint-order="fill stroke markers" d=" M 357.4915007028646 342.059157102 L 373.8267040028646 342.059157102 L 373.8267040028646 387.7977263419999 L 357.4915007028646 387.7977263419999 L 357.4915007028646 342.059157102" stroke-miterlimit="10" stroke-width="1.3612669416666667" stroke-dasharray=""/><path fill="white" stroke="black" paint-order="fill stroke markers" d=" M 628.8617181820963 647.527458812 L 645.1969214820964 647.527458812 L 645.1969214820964 693.2660280519999 L 628.8617181820963 693.2660280519999 L 628.8617181820963 647.527458812" stroke-miterlimit="10" stroke-width="1.3612669416666667" stroke-dasharray=""/><path fill="white" stroke="black" paint-order="fill stroke markers" d=" M 821.7874495067708 1010.1689720719996 L 838.1226528067709 1010.1689720719996 L 838.1226528067709 1725.6508766120003 L 821.7874495067708 1725.6508766120003 L 821.7874495067708 1010.1689720719996" stroke-miterlimit="10" stroke-width="1.3612669416666667" stroke-dasharray=""/><path fill="white" stroke="black" paint-order="fill stroke markers" d=" M 999.3209512877604 1235.594777612 L 1015.6561545877605 1235.594777612 L 1015.6561545877605 1281.333346852 L 999.3209512877604 1281.333346852 L 999.3209512877604 1235.594777612" stroke-miterlimit="10" stroke-width="1.3612669416666667" stroke-dasharray=""/><path fill="white" stroke="black" paint-order="fill stroke markers" d=" M 1176.0211559172174 1343.407119392 L 1192.3563592172175 1343.407119392 L 1192.3563592172175 1389.145688632 L 1176.0211559172174 1389.145688632 L 1176.0211559172174 1343.407119392" stroke-miterlimit="10" stroke-width="1.3612669416666667" stroke-dasharray=""/><path fill="white" stroke="black" paint-order="fill stroke markers" d=" M 1176.0211559172174 1451.219461172 L 1192.3563592172175 1451.219461172 L 1192.3563592172175 1496.958030412 L 1176.0211559172174 1496.958030412 L 1176.0211559172174 1451.219461172" stroke-miterlimit="10" stroke-width="1.3612669416666667" stroke-dasharray=""/><path fill="white" stroke="black" paint-order="fill stroke markers" d=" M 1176.0211559172174 1542.696599652 L 1192.3563592172175 1542.696599652 L 1192.3563592172175 1679.9123073720002 L 1176.0211559172174 1679.9123073720002 L 1176.0211559172174 1542.696599652" stroke-miterlimit="10" stroke-width="1.3612669416666667" stroke-dasharray=""/><path fill="white" stroke="black" paint-order="fill stroke markers" d=" M 1354.8574378495741 1588.435168892 L 1371.1926411495742 1588.435168892 L 1371.1926411495742 1634.1737381320002 L 1354.8574378495741 1634.1737381320002 L 1354.8574378495741 1588.435168892" stroke-miterlimit="10" stroke-width="1.3612669416666667" stroke-dasharray=""/><g><g><rect fill="white" stroke="none" x="117.33036989110026" y="162.371920802" width="204.50677742066406" height="21.23576429"/></g><text fill="black" stroke="none" font-family="sans-serif" font-size="11pt" font-style="normal" font-weight="normal" text-decoration="normal" x="119.78065038610026" y="177.07360377199998" text-anchor="start" dominant-baseline="alphabetic" xml:space="preserve">Click Create Curriculum button</text></g><g><path fill="none" stroke="black" paint-order="fill stroke markers" d=" M 89.84361815 183.607685092 L 335.87458166919794 183.607685092" stroke-miterlimit="10" stroke-width="1.3612669416666667" stroke-dasharray=""/><g transform="translate(349.3238990528646,183.607685092) translate(-349.3238990528646,-183.607685092)"><path fill="black" stroke="none" paint-order="stroke fill markers" d=" M 335.7112296361979 176.80135038366666 L 349.3238990528646 183.607685092 L 335.7112296361979 190.41401980033334 Z"/></g></g><g><g><rect fill="white" stroke="none" x="109.17360872166667" y="208.110490042" width="220.82029975953125" height="21.23576429"/></g><text fill="black" stroke="none" font-family="sans-serif" font-size="11pt" font-style="normal" font-weight="normal" text-decoration="normal" x="111.62388921666667" y="222.812173012" text-anchor="start" dominant-baseline="alphabetic" xml:space="preserve">Display Create Curriculum popup</text></g><g><path fill="none" stroke="black" paint-order="fill stroke markers" d=" M 349.3238990528646 229.346254332 L 103.29293553366666 229.346254332" stroke-miterlimit="10" stroke-width="1.3612669416666667" stroke-dasharray="6.53408132"/><g transform="translate(89.84361815,229.346254332) translate(-89.84361815,-229.346254332)"><path fill="black" stroke="none" paint-order="stroke fill markers" d=" M 103.45628756666666 222.53991962366666 L 89.84361815 229.346254332 L 103.45628756666666 236.15258904033334 Z"/></g></g><g><g><rect fill="white" stroke="none" x="117.3267917050651" y="253.849059282" width="204.51393379273438" height="21.23576429"/></g><text fill="black" stroke="none" font-family="sans-serif" font-size="11pt" font-style="normal" font-weight="normal" text-decoration="normal" x="119.7770722000651" y="268.550742252" text-anchor="start" dominant-baseline="alphabetic" xml:space="preserve">Type information of Curriculum</text></g><g><path fill="none" stroke="black" paint-order="fill stroke markers" d=" M 89.84361815 275.084823572 L 335.87458166919794 275.084823572" stroke-miterlimit="10" stroke-width="1.3612669416666667" stroke-dasharray=""/><g transform="translate(349.3238990528646,275.084823572) translate(-349.3238990528646,-275.084823572)"><path fill="black" stroke="none" paint-order="stroke fill markers" d=" M 335.7112296361979 268.27848886366667 L 349.3238990528646 275.084823572 L 335.7112296361979 281.89115828033334 Z"/></g></g><g><g><rect fill="white" stroke="none" x="393.15669457453123" y="299.587628522" width="125.25842536988281" height="21.23576429"/></g><text fill="black" stroke="none" font-family="sans-serif" font-size="11pt" font-style="normal" font-weight="normal" text-decoration="normal" x="395.60697506953125" y="314.28931149199997" text-anchor="start" dominant-baseline="alphabetic" xml:space="preserve">Validate input data</text></g><g><path fill="none" stroke="black" paint-order="fill stroke markers" d=" M 365.6591023528646 320.82339281199995 L 439.1675172028646 320.82339281199995 L 439.1675172028646 342.059157102 L 387.2760213865312 342.059157102" stroke-miterlimit="10" stroke-width="1.3612669416666667" stroke-dasharray=""/><g transform="translate(373.8267040028646,342.059157102) translate(-373.8267040028646,-342.059157102)"><path fill="black" stroke="none" paint-order="stroke fill markers" d=" M 387.43937341953125 335.25282239366663 L 373.8267040028646 342.059157102 L 387.43937341953125 348.8654918103333 Z"/></g></g><g><g><rect fill="white" stroke="none" x="393.15669457453123" y="366.56196205199996" width="95.90982307496094" height="21.23576429"/></g><text fill="black" stroke="none" font-family="sans-serif" font-size="11pt" font-style="normal" font-weight="normal" text-decoration="normal" x="395.60697506953125" y="381.26364502199993" text-anchor="start" dominant-baseline="alphabetic" xml:space="preserve">Validate value</text></g><g><path fill="none" stroke="black" paint-order="fill stroke markers" d=" M 373.8267040028646 387.7977263419999 L 439.1675172028646 387.7977263419999 L 439.1675172028646 409.03349063199994 L 379.10841973653123 409.03349063199994" stroke-miterlimit="10" stroke-width="1.3612669416666667" stroke-dasharray="6.53408132"/><g transform="translate(365.6591023528646,409.03349063199994) translate(-365.6591023528646,-409.03349063199994)"><path fill="black" stroke="none" paint-order="stroke fill markers" d=" M 379.27177176953126 402.2271559236666 L 365.6591023528646 409.03349063199994 L 379.27177176953126 415.8398253403333 Z"/></g></g><g><g><rect fill="white" stroke="none" x="159.40980714695965" y="477.6413444919999" width="120.34790290894531" height="21.23576429"/></g><text fill="black" stroke="none" font-family="sans-serif" font-size="11pt" font-style="normal" font-weight="normal" text-decoration="normal" x="161.86008764195964" y="492.3430274619999" text-anchor="start" dominant-baseline="alphabetic" xml:space="preserve">Validate Message</text></g><g><path fill="none" stroke="black" paint-order="fill stroke markers" d=" M 349.3238990528646 498.87710878199994 L 103.29293553366666 498.87710878199994" stroke-miterlimit="10" stroke-width="1.3612669416666667" stroke-dasharray="6.53408132"/><g transform="translate(89.84361815,498.87710878199994) translate(-89.84361815,-498.87710878199994)"><path fill="black" stroke="none" paint-order="stroke fill markers" d=" M 103.45628756666666 492.0707740736666 L 89.84361815 498.87710878199994 L 103.45628756666666 505.6834434903333 Z"/></g></g><g><g><rect fill="white" stroke="none" x="146.64318269627606" y="547.8827186819999" width="145.8811518103125" height="21.23576429"/></g><text fill="black" stroke="none" font-family="sans-serif" font-size="11pt" font-style="normal" font-weight="normal" text-decoration="normal" x="149.09346319127604" y="562.5844016519999" text-anchor="start" dominant-baseline="alphabetic" xml:space="preserve">Search Specialization</text></g><g><path fill="none" stroke="black" paint-order="fill stroke markers" d=" M 89.84361815 569.1184829719999 L 335.87458166919794 569.1184829719999" stroke-miterlimit="10" stroke-width="1.3612669416666667" stroke-dasharray=""/><g transform="translate(349.3238990528646,569.1184829719999) translate(-349.3238990528646,-569.1184829719999)"><path fill="black" stroke="none" paint-order="stroke fill markers" d=" M 335.7112296361979 562.3121482636666 L 349.3238990528646 569.1184829719999 L 335.7112296361979 575.9248176803333 Z"/></g></g><g><g><rect fill="white" stroke="none" x="389.0728937495312" y="593.621287922" width="35.03657783570313" height="21.23576429"/></g><g><rect fill="white" stroke="none" x="389.0728937495312" y="609.956491222" width="216.37503303589844" height="21.23576429"/></g><g><rect fill="white" stroke="none" x="389.0728937495312" y="626.291694522" width="130.8132044226172" height="21.23576429"/></g><text fill="black" stroke="none" font-family="sans-serif" font-size="11pt" font-style="normal" font-weight="normal" text-decoration="normal" x="391.5231742445312" y="608.322970892" text-anchor="start" dominant-baseline="alphabetic" xml:space="preserve">GET</text><text fill="black" stroke="none" font-family="sans-serif" font-size="11pt" font-style="normal" font-weight="normal" text-decoration="normal" x="391.5231742445312" y="624.6581741919999" text-anchor="start" dominant-baseline="alphabetic" xml:space="preserve">/api/search?entity=specialization</text><text fill="black" stroke="none" font-family="sans-serif" font-size="11pt" font-style="normal" font-weight="normal" text-decoration="normal" x="391.5231742445312" y="640.9933774919999" text-anchor="start" dominant-baseline="alphabetic" xml:space="preserve">+ {paramToSearch}</text></g><g><path fill="none" stroke="black" paint-order="fill stroke markers" d=" M 365.6591023528646 647.527458812 L 615.4124007984296 647.527458812" stroke-miterlimit="10" stroke-width="1.3612669416666667" stroke-dasharray=""/><g transform="translate(628.8617181820963,647.527458812) translate(-628.8617181820963,-647.527458812)"><path fill="black" stroke="none" paint-order="stroke fill markers" d=" M 615.2490487654296 640.7211241036666 L 628.8617181820963 647.527458812 L 615.2490487654296 654.3337935203333 Z"/></g></g><g><g><rect fill="white" stroke="none" x="438.58611549025386" y="672.0302637619999" width="117.34858955445313" height="21.23576429"/></g><text fill="black" stroke="none" font-family="sans-serif" font-size="11pt" font-style="normal" font-weight="normal" text-decoration="normal" x="441.0363959852539" y="686.7319467319999" text-anchor="start" dominant-baseline="alphabetic" xml:space="preserve">Specialization list</text></g><g><path fill="none" stroke="black" paint-order="fill stroke markers" d=" M 628.8617181820963 693.2660280519999 L 379.10841973653123 693.2660280519999" stroke-miterlimit="10" stroke-width="1.3612669416666667" stroke-dasharray="6.53408132"/><g transform="translate(365.6591023528646,693.2660280519999) translate(-365.6591023528646,-693.2660280519999)"><path fill="black" stroke="none" paint-order="stroke fill markers" d=" M 379.27177176953126 686.4596933436666 L 365.6591023528646 693.2660280519999 L 379.27177176953126 700.0723627603332 Z"/></g></g><g><g><rect fill="white" stroke="none" x="180.46562379735028" y="761.8738819119999" width="78.23626960816406" height="21.23576429"/></g><text fill="black" stroke="none" font-family="sans-serif" font-size="11pt" font-style="normal" font-weight="normal" text-decoration="normal" x="182.91590429235026" y="776.5755648819999" text-anchor="start" dominant-baseline="alphabetic" xml:space="preserve">No Options</text></g><g><path fill="none" stroke="black" paint-order="fill stroke markers" d=" M 349.3238990528646 783.1096462019999 L 103.29293553366666 783.1096462019999" stroke-miterlimit="10" stroke-width="1.3612669416666667" stroke-dasharray="6.53408132"/><g transform="translate(89.84361815,783.1096462019999) translate(-89.84361815,-783.1096462019999)"><path fill="black" stroke="none" paint-order="stroke fill markers" d=" M 103.45628756666666 776.3033114936666 L 89.84361815 783.1096462019999 L 103.45628756666666 789.9159809103332 Z"/></g></g><g><g><rect fill="white" stroke="none" x="135.2366046323112" y="851.7175000619998" width="168.6943079382422" height="21.23576429"/></g><text fill="black" stroke="none" font-family="sans-serif" font-size="11pt" font-style="normal" font-weight="normal" text-decoration="normal" x="137.6868851273112" y="866.4191830319998" text-anchor="start" dominant-baseline="alphabetic" xml:space="preserve">Specialization options list</text></g><g><path fill="none" stroke="black" paint-order="fill stroke markers" d=" M 349.3238990528646 872.9532643519998 L 103.29293553366666 872.9532643519998" stroke-miterlimit="10" stroke-width="1.3612669416666667" stroke-dasharray="6.53408132"/><g transform="translate(89.84361815,872.9532643519998) translate(-89.84361815,-872.9532643519998)"><path fill="black" stroke="none" paint-order="stroke fill markers" d=" M 103.45628756666666 866.1469296436665 L 89.84361815 872.9532643519998 L 103.45628756666666 879.7595990603331 Z"/></g></g><g><g><rect fill="white" stroke="none" x="149.49572175877606" y="897.4560693019997" width="140.1760736853125" height="21.23576429"/></g><text fill="black" stroke="none" font-family="sans-serif" font-size="11pt" font-style="normal" font-weight="normal" text-decoration="normal" x="151.94600225377604" y="912.1577522719997" text-anchor="start" dominant-baseline="alphabetic" xml:space="preserve">Select Specialization</text></g><g><path fill="none" stroke="black" paint-order="fill stroke markers" d=" M 89.84361815 918.6918335919997 L 335.87458166919794 918.6918335919997" stroke-miterlimit="10" stroke-width="1.3612669416666667" stroke-dasharray=""/><g transform="translate(349.3238990528646,918.6918335919997) translate(-349.3238990528646,-918.6918335919997)"><path fill="black" stroke="none" paint-order="stroke fill markers" d=" M 335.7112296361979 911.8854988836664 L 349.3238990528646 918.6918335919997 L 335.7112296361979 925.4981683003331 Z"/></g></g><g><g><rect fill="white" stroke="none" x="120.56588167088542" y="943.1946385419997" width="198.03575386109375" height="21.23576429"/></g><text fill="black" stroke="none" font-family="sans-serif" font-size="11pt" font-style="normal" font-weight="normal" text-decoration="normal" x="123.01616216588542" y="957.8963215119996" text-anchor="start" dominant-baseline="alphabetic" xml:space="preserve">Select Season and click Save</text></g><g><path fill="none" stroke="black" paint-order="fill stroke markers" d=" M 89.84361815 964.4304028319997 L 335.87458166919794 964.4304028319997" stroke-miterlimit="10" stroke-width="1.3612669416666667" stroke-dasharray=""/><g transform="translate(349.3238990528646,964.4304028319997) translate(-349.3238990528646,-964.4304028319997)"><path fill="black" stroke="none" paint-order="stroke fill markers" d=" M 335.7112296361979 957.6240681236663 L 349.3238990528646 964.4304028319997 L 335.7112296361979 971.236737540333 Z"/></g></g><g><g><rect fill="white" stroke="none" x="520.3961414919465" y="988.9332077819996" width="146.6542688757422" height="21.23576429"/></g><text fill="black" stroke="none" font-family="sans-serif" font-size="11pt" font-style="normal" font-weight="normal" text-decoration="normal" x="522.8464219869466" y="1003.6348907519996" text-anchor="start" dominant-baseline="alphabetic" xml:space="preserve">POST: /api/curriculum</text></g><g><path fill="none" stroke="black" paint-order="fill stroke markers" d=" M 365.6591023528646 1010.1689720719996 L 808.3381321231042 1010.1689720719996" stroke-miterlimit="10" stroke-width="1.3612669416666667" stroke-dasharray=""/><g transform="translate(821.7874495067708,1010.1689720719996) translate(-821.7874495067708,-1010.1689720719996)"><path fill="black" stroke="none" paint-order="stroke fill markers" d=" M 808.1747800901042 1003.3626373636663 L 821.7874495067708 1010.1689720719996 L 808.1747800901042 1016.975306780333 Z"/></g></g><g><g><rect fill="white" stroke="none" x="436.4627384768098" y="1078.7768259319998" width="314.5210749060156" height="21.23576429"/></g><text fill="red" stroke="none" font-family="sans-serif" font-size="11pt" font-style="normal" font-weight="normal" text-decoration="normal" x="438.91301897180983" y="1093.478508902" text-anchor="start" dominant-baseline="alphabetic" xml:space="preserve">400 BAD_REQUEST: Missing required property</text></g><g><path fill="none" stroke="black" paint-order="fill stroke markers" d=" M 821.7874495067708 1100.0125902219997 L 379.10841973653123 1100.0125902219997" stroke-miterlimit="10" stroke-width="1.3612669416666667" stroke-dasharray="6.53408132"/><g transform="translate(365.6591023528646,1100.0125902219997) translate(-365.6591023528646,-1100.0125902219997)"><path fill="black" stroke="none" paint-order="stroke fill markers" d=" M 379.27177176953126 1093.2062555136665 L 365.6591023528646 1100.0125902219997 L 379.27177176953126 1106.818924930333 Z"/></g></g><g><g><rect fill="white" stroke="none" x="151.13136476414715" y="1124.515395172" width="136.90478767457031" height="21.23576429"/></g><text fill="black" stroke="none" font-family="sans-serif" font-size="11pt" font-style="normal" font-weight="normal" text-decoration="normal" x="153.58164525914714" y="1139.217078142" text-anchor="start" dominant-baseline="alphabetic" xml:space="preserve">Message is required</text></g><g><path fill="none" stroke="black" paint-order="fill stroke markers" d=" M 349.3238990528646 1145.7511594619998 L 103.29293553366666 1145.7511594619998" stroke-miterlimit="10" stroke-width="1.3612669416666667" stroke-dasharray="6.53408132"/><g transform="translate(89.84361815,1145.7511594619998) translate(-89.84361815,-1145.7511594619998)"><path fill="black" stroke="none" paint-order="stroke fill markers" d=" M 103.45628756666666 1138.9448247536666 L 89.84361815 1145.7511594619998 L 103.45628756666666 1152.557494170333 Z"/></g></g><g><g><rect fill="white" stroke="none" x="857.4526433784375" y="1214.359013322" width="122.53831733765625" height="21.23576429"/></g><text fill="black" stroke="none" font-family="sans-serif" font-size="11pt" font-style="normal" font-weight="normal" text-decoration="normal" x="859.9029238734375" y="1229.060696292" text-anchor="start" dominant-baseline="alphabetic" xml:space="preserve">getFoundedYear()</text></g><g><path fill="none" stroke="black" paint-order="fill stroke markers" d=" M 838.1226528067709 1235.594777612 L 985.8716339040938 1235.594777612" stroke-miterlimit="10" stroke-width="1.3612669416666667" stroke-dasharray=""/><g transform="translate(999.3209512877604,1235.594777612) translate(-999.3209512877604,-1235.594777612)"><path fill="black" stroke="none" paint-order="stroke fill markers" d=" M 985.7082818710937 1228.7884429036667 L 999.3209512877604 1235.594777612 L 985.7082818710937 1242.4011123203331 Z"/></g></g><g><g><rect fill="white" stroke="none" x="874.9651632148633" y="1260.097582562" width="87.51327766480469" height="21.23576429"/></g><text fill="black" stroke="none" font-family="sans-serif" font-size="11pt" font-style="normal" font-weight="normal" text-decoration="normal" x="877.4154437098633" y="1274.7992655320002" text-anchor="start" dominant-baseline="alphabetic" xml:space="preserve">foundedYear</text></g><g><path fill="none" stroke="black" paint-order="fill stroke markers" d=" M 999.3209512877604 1281.333346852 L 851.5719701904376 1281.333346852" stroke-miterlimit="10" stroke-width="1.3612669416666667" stroke-dasharray="6.53408132"/><g transform="translate(838.1226528067709,1281.333346852) translate(-838.1226528067709,-1281.333346852)"><path fill="black" stroke="none" paint-order="stroke fill markers" d=" M 851.7353222234376 1274.5270121436668 L 838.1226528067709 1281.333346852 L 851.7353222234376 1288.1396815603332 Z"/></g></g><g><g><rect fill="white" stroke="none" x="954.0955084495137" y="1305.836151802" width="101.8940912634375" height="21.23576429"/></g><g><rect fill="white" stroke="none" x="954.0955084495137" y="1322.171355102" width="105.95279182496094" height="21.23576429"/></g><text fill="black" stroke="none" font-family="sans-serif" font-size="11pt" font-style="normal" font-weight="normal" text-decoration="normal" x="956.5457889445137" y="1320.537834772" text-anchor="start" dominant-baseline="alphabetic" xml:space="preserve">generate Code</text><text fill="black" stroke="none" font-family="sans-serif" font-size="11pt" font-style="normal" font-weight="normal" text-decoration="normal" x="956.5457889445137" y="1336.873038072" text-anchor="start" dominant-baseline="alphabetic" xml:space="preserve">generate Name</text></g><g><path fill="none" stroke="black" paint-order="fill stroke markers" d=" M 838.1226528067709 1343.407119392 L 1162.5718385335506 1343.407119392" stroke-miterlimit="10" stroke-width="1.3612669416666667" stroke-dasharray=""/><g transform="translate(1176.0211559172174,1343.407119392) translate(-1176.0211559172174,-1343.407119392)"><path fill="black" stroke="none" paint-order="stroke fill markers" d=" M 1162.4084865005507 1336.6007846836667 L 1176.0211559172174 1343.407119392 L 1162.4084865005507 1350.2134541003331 Z"/></g></g><g><g><rect fill="white" stroke="none" x="951.2429617576191" y="1367.909924342" width="111.65788520875" height="21.23576429"/></g><text fill="black" stroke="none" font-family="sans-serif" font-size="11pt" font-style="normal" font-weight="normal" text-decoration="normal" x="953.6932422526191" y="1382.6116073120002" text-anchor="start" dominant-baseline="alphabetic" xml:space="preserve">Code and Name</text></g><g><path fill="none" stroke="black" paint-order="fill stroke markers" d=" M 1176.0211559172174 1389.145688632 L 851.5719701904376 1389.145688632" stroke-miterlimit="10" stroke-width="1.3612669416666667" stroke-dasharray="6.53408132"/><g transform="translate(838.1226528067709,1389.145688632) translate(-838.1226528067709,-1389.145688632)"><path fill="black" stroke="none" paint-order="stroke fill markers" d=" M 851.7353222234376 1382.3393539236667 L 838.1226528067709 1389.145688632 L 851.7353222234376 1395.9520233403332 Z"/></g></g><g><g><rect fill="white" stroke="none" x="972.0303610496113" y="1413.648493582" width="66.02438606324219" height="21.23576429"/></g><g><rect fill="white" stroke="none" x="972.0303610496113" y="1429.983696882" width="70.08308662476563" height="21.23576429"/></g><text fill="black" stroke="none" font-family="sans-serif" font-size="11pt" font-style="normal" font-weight="normal" text-decoration="normal" x="974.4806415446113" y="1428.350176552" text-anchor="start" dominant-baseline="alphabetic" xml:space="preserve">Set Code</text><text fill="black" stroke="none" font-family="sans-serif" font-size="11pt" font-style="normal" font-weight="normal" text-decoration="normal" x="974.4806415446113" y="1444.685379852" text-anchor="start" dominant-baseline="alphabetic" xml:space="preserve">Set Name</text></g><g><path fill="none" stroke="black" paint-order="fill stroke markers" d=" M 838.1226528067709 1451.219461172 L 1162.5718385335506 1451.219461172" stroke-miterlimit="10" stroke-width="1.3612669416666667" stroke-dasharray=""/><g transform="translate(1176.0211559172174,1451.219461172) translate(-1176.0211559172174,-1451.219461172)"><path fill="black" stroke="none" paint-order="stroke fill markers" d=" M 1162.4084865005507 1444.4131264636667 L 1176.0211559172174 1451.219461172 L 1162.4084865005507 1458.0257958803331 Z"/></g></g><g><g><rect fill="white" stroke="none" x="1004.6216238669941" y="1475.722266122" width="4.90056099" height="21.23576429"/></g><text fill="black" stroke="none" font-family="sans-serif" font-size="11pt" font-style="normal" font-weight="normal" text-decoration="normal" x="1007.0719043619941" y="1490.4239490920002" text-anchor="start" dominant-baseline="alphabetic" xml:space="preserve"></text></g><g><path fill="none" stroke="black" paint-order="fill stroke markers" d=" M 1176.0211559172174 1496.958030412 L 851.5719701904376 1496.958030412" stroke-miterlimit="10" stroke-width="1.3612669416666667" stroke-dasharray="6.53408132"/><g transform="translate(838.1226528067709,1496.958030412) translate(-838.1226528067709,-1496.958030412)"><path fill="black" stroke="none" paint-order="stroke fill markers" d=" M 851.7353222234376 1490.1516957036667 L 838.1226528067709 1496.958030412 L 851.7353222234376 1503.7643651203332 Z"/></g></g><g><g><rect fill="white" stroke="none" x="984.2565725974629" y="1521.4608353620001" width="45.6306635290625" height="21.23576429"/></g><text fill="black" stroke="none" font-family="sans-serif" font-size="11pt" font-style="normal" font-weight="normal" text-decoration="normal" x="986.7068530924629" y="1536.1625183320002" text-anchor="start" dominant-baseline="alphabetic" xml:space="preserve">save()</text></g><g><path fill="none" stroke="black" paint-order="fill stroke markers" d=" M 838.1226528067709 1542.696599652 L 1162.5718385335506 1542.696599652" stroke-miterlimit="10" stroke-width="1.3612669416666667" stroke-dasharray=""/><g transform="translate(1176.0211559172174,1542.696599652) translate(-1176.0211559172174,-1542.696599652)"><path fill="black" stroke="none" paint-order="stroke fill markers" d=" M 1162.4084865005507 1535.8902649436668 L 1176.0211559172174 1542.696599652 L 1162.4084865005507 1549.5029343603333 Z"/></g></g><g><g><rect fill="white" stroke="none" x="1211.6863497888842" y="1567.1994046020002" width="123.84109748902344" height="21.23576429"/></g><text fill="black" stroke="none" font-family="sans-serif" font-size="11pt" font-style="normal" font-weight="normal" text-decoration="normal" x="1214.1366302838842" y="1581.9010875720003" text-anchor="start" dominant-baseline="alphabetic" xml:space="preserve">Create Curriculum</text></g><g><path fill="none" stroke="black" paint-order="fill stroke markers" d=" M 1192.3563592172175 1588.435168892 L 1341.4081204659074 1588.435168892" stroke-miterlimit="10" stroke-width="1.3612669416666667" stroke-dasharray=""/><g transform="translate(1354.8574378495741,1588.435168892) translate(-1354.8574378495741,-1588.435168892)"><path fill="black" stroke="none" paint-order="stroke fill markers" d=" M 1341.2447684329074 1581.6288341836669 L 1354.8574378495741 1588.435168892 L 1341.2447684329074 1595.2415036003333 Z"/></g></g><g><g><rect fill="white" stroke="none" x="1219.420778194646" y="1612.9379738420002" width="108.3722406775" height="21.23576429"/></g><text fill="black" stroke="none" font-family="sans-serif" font-size="11pt" font-style="normal" font-weight="normal" text-decoration="normal" x="1221.871058689646" y="1627.6396568120003" text-anchor="start" dominant-baseline="alphabetic" xml:space="preserve">Curriculum data</text></g><g><path fill="none" stroke="black" paint-order="fill stroke markers" d=" M 1354.8574378495741 1634.1737381320002 L 1205.8056766008842 1634.1737381320002" stroke-miterlimit="10" stroke-width="1.3612669416666667" stroke-dasharray="6.53408132"/><g transform="translate(1192.3563592172175,1634.1737381320002) translate(-1192.3563592172175,-1634.1737381320002)"><path fill="black" stroke="none" paint-order="stroke fill markers" d=" M 1205.9690286338841 1627.367403423667 L 1192.3563592172175 1634.1737381320002 L 1205.9690286338841 1640.9800728403334 Z"/></g></g><g><g><rect fill="white" stroke="none" x="936.1857107810566" y="1658.6765430820003" width="141.772387161875" height="21.23576429"/></g><text fill="black" stroke="none" font-family="sans-serif" font-size="11pt" font-style="normal" font-weight="normal" text-decoration="normal" x="938.6359912760566" y="1673.3782260520004" text-anchor="start" dominant-baseline="alphabetic" xml:space="preserve">New Curriculum data</text></g><g><path fill="none" stroke="black" paint-order="fill stroke markers" d=" M 1176.0211559172174 1679.9123073720002 L 851.5719701904376 1679.9123073720002" stroke-miterlimit="10" stroke-width="1.3612669416666667" stroke-dasharray="6.53408132"/><g transform="translate(838.1226528067709,1679.9123073720002) translate(-838.1226528067709,-1679.9123073720002)"><path fill="black" stroke="none" paint-order="stroke fill markers" d=" M 851.7353222234376 1673.105972663667 L 838.1226528067709 1679.9123073720002 L 851.7353222234376 1686.7186420803334 Z"/></g></g><g><g><rect fill="white" stroke="none" x="527.8621143923372" y="1704.4151123220004" width="131.72232307496094" height="21.23576429"/></g><text fill="green" stroke="none" font-family="sans-serif" font-size="11pt" font-style="normal" font-weight="normal" text-decoration="normal" x="530.3123948873372" y="1719.1167952920005" text-anchor="start" dominant-baseline="alphabetic" xml:space="preserve">201 OK: CREATED</text></g><g><path fill="none" stroke="black" paint-order="fill stroke markers" d=" M 821.7874495067708 1725.6508766120003 L 379.10841973653123 1725.6508766120003" stroke-miterlimit="10" stroke-width="1.3612669416666667" stroke-dasharray="6.53408132"/><g transform="translate(365.6591023528646,1725.6508766120003) translate(-365.6591023528646,-1725.6508766120003)"><path fill="black" stroke="none" paint-order="stroke fill markers" d=" M 379.27177176953126 1718.844541903667 L 365.6591023528646 1725.6508766120003 L 379.27177176953126 1732.4572113203335 Z"/></g></g><g><g><rect fill="white" stroke="none" x="117.72765535252604" y="1750.1536815620004" width="203.7122064978125" height="21.23576429"/></g><text fill="black" stroke="none" font-family="sans-serif" font-size="11pt" font-style="normal" font-weight="normal" text-decoration="normal" x="120.17793584752604" y="1764.8553645320005" text-anchor="start" dominant-baseline="alphabetic" xml:space="preserve">Display Curriculum detail page</text></g><g><path fill="none" stroke="black" paint-order="fill stroke markers" d=" M 349.3238990528646 1771.3894458520003 L 103.29293553366666 1771.3894458520003" stroke-miterlimit="10" stroke-width="1.3612669416666667" stroke-dasharray="6.53408132"/><g transform="translate(89.84361815,1771.3894458520003) translate(-89.84361815,-1771.3894458520003)"><path fill="black" stroke="none" paint-order="stroke fill markers" d=" M 103.45628756666666 1764.583111143667 L 89.84361815 1771.3894458520003 L 103.45628756666666 1778.1957805603336 Z"/></g></g><g><g/><path fill="none" stroke="black" paint-order="fill stroke markers" d=" M 32.6704066 433.5362955819999 L 414.6647122528646 433.5362955819999 L 414.6647122528646 523.379913732 L 32.6704066 523.379913732 L 32.6704066 433.5362955819999 Z" stroke-miterlimit="10" stroke-width="2.3336004714285714" stroke-dasharray=""/><path fill="white" stroke="black" paint-order="fill stroke markers" d=" M 32.6704066 433.5362955819999 L 32.6704066 453.13853954199993 L 79.02961019707031 453.13853954199993 L 88.83073217707032 443.3374175619999 L 88.83073217707032 433.5362955819999 L 32.6704066 433.5362955819999" stroke-miterlimit="10" stroke-width="2.3336004714285714" stroke-dasharray=""/><text fill="black" stroke="none" font-family="sans-serif" font-size="8.8pt" font-style="normal" font-weight="bold" text-decoration="normal" x="49.005609899999996" y="446.60445822199995" text-anchor="start" dominant-baseline="alphabetic" xml:space="preserve">alt</text><g><rect fill="white" stroke="none" x="102.71565498207032" y="434.84311184599994" width="151.5138880163672" height="16.988611432000003"/></g><text fill="black" stroke="none" font-family="sans-serif" font-size="8.8pt" font-style="normal" font-weight="bold" text-decoration="normal" x="105.16593547707032" y="446.60445822199995" text-anchor="start" dominant-baseline="alphabetic" xml:space="preserve">[If the input data is wrong]</text></g><g><g/><path fill="none" stroke="black" paint-order="fill stroke markers" d=" M 16.335203300000003 717.768833002 L 1436.5334543495742 717.768833002 L 1436.5334543495742 1820.3950557520002 L 16.335203300000003 1820.3950557520002 L 16.335203300000003 717.768833002 Z" stroke-miterlimit="10" stroke-width="2.3336004714285714" stroke-dasharray=""/><path fill="white" stroke="black" paint-order="fill stroke markers" d=" M 16.335203300000003 717.768833002 L 16.335203300000003 737.371076962 L 62.694406897070316 737.371076962 L 72.49552887707031 727.5699549819999 L 72.49552887707031 717.768833002 L 16.335203300000003 717.768833002" stroke-miterlimit="10" stroke-width="2.3336004714285714" stroke-dasharray=""/><text fill="black" stroke="none" font-family="sans-serif" font-size="8.8pt" font-style="normal" font-weight="bold" text-decoration="normal" x="32.67040660000001" y="730.8369956419999" text-anchor="start" dominant-baseline="alphabetic" xml:space="preserve">alt</text><g><rect fill="white" stroke="none" x="86.38045168207032" y="719.0756492659999" width="283.1841303259375" height="16.988611432000003"/></g><text fill="black" stroke="none" font-family="sans-serif" font-size="8.8pt" font-style="normal" font-weight="bold" text-decoration="normal" x="88.83073217707032" y="730.8369956419999" text-anchor="start" dominant-baseline="alphabetic" xml:space="preserve">[If there is no specialization match with condition]</text><g><path fill="none" stroke="black" paint-order="fill stroke markers" d=" M 16.335203300000003 807.6124511519998 L 1436.5334543495742 807.6124511519998" stroke-miterlimit="10" stroke-width="2.3336004714285714" stroke-dasharray="4.083800825"/></g><g/></g><g/><g><g/><path fill="none" stroke="black" paint-order="fill stroke markers" d=" M 32.6704066 1034.6717770219998 L 1420.198251049574 1034.6717770219998 L 1420.198251049574 1795.8922508020003 L 32.6704066 1795.8922508020003 L 32.6704066 1034.6717770219998 Z" stroke-miterlimit="10" stroke-width="2.3336004714285714" stroke-dasharray=""/><path fill="white" stroke="black" paint-order="fill stroke markers" d=" M 32.6704066 1034.6717770219998 L 32.6704066 1054.2740209819997 L 79.02961019707031 1054.2740209819997 L 88.83073217707032 1044.4728990019998 L 88.83073217707032 1034.6717770219998 L 32.6704066 1034.6717770219998" stroke-miterlimit="10" stroke-width="2.3336004714285714" stroke-dasharray=""/><text fill="black" stroke="none" font-family="sans-serif" font-size="8.8pt" font-style="normal" font-weight="bold" text-decoration="normal" x="49.005609899999996" y="1047.7399396619996" text-anchor="start" dominant-baseline="alphabetic" xml:space="preserve">alt</text><g><rect fill="white" stroke="none" x="102.71565498207032" y="1035.9785932859998" width="244.7581049353125" height="16.988611432000003"/></g><text fill="black" stroke="none" font-family="sans-serif" font-size="8.8pt" font-style="normal" font-weight="bold" text-decoration="normal" x="105.16593547707032" y="1047.7399396619996" text-anchor="start" dominant-baseline="alphabetic" xml:space="preserve">[If there is required field do not have value]</text><g><path fill="none" stroke="black" paint-order="fill stroke markers" d=" M 32.6704066 1170.253964412 L 1420.198251049574 1170.253964412" stroke-miterlimit="10" stroke-width="2.3336004714285714" stroke-dasharray="4.083800825"/></g><g/><g><rect fill="white" stroke="none" x="102.71565498207032" y="1171.560780676" width="36.84300483765625" height="16.988611432000003"/></g><text fill="black" stroke="none" font-family="sans-serif" font-size="8.8pt" font-style="normal" font-weight="bold" text-decoration="normal" x="105.16593547707032" y="1183.3221270519998" text-anchor="start" dominant-baseline="alphabetic" xml:space="preserve">[Else]</text></g><g/></g></g></svg>