<svg version="1.1" xmlns="http://www.w3.org/2000/svg" xmlns:xlink="http://www.w3.org/1999/xlink" width="1095" height="902"><desc>title%20Create%20Normal%20group%0A%0Aactor%20%23green%3A0.5%20%22Workspace%20User%22%20as%20w%0Aboundary%20%22Homepage%22%20as%20f%0Acontrol%20%22Group%20Controller%22%20as%20gc%0Aparticipant%20%22Group%20Service%22%20as%20gs%0Adatabase%20%23blue%3A1%20%22Database%22%20as%20db%0A%0A%0Aw-%3Ef%3AClick%20Create%20Group%20button%0Aactivate%20f%0Aw%3C--f%3ADisplay%20Create%20Group%20popup%0Aw-%3Ef%3AEnter%20name%20of%20group%0A%0Aw-%3Ef%3AClick%20Save%0Af-%3Egc%3APOST%3A%20api%2Fgroup%0Aactivate%20gc%0Aalt%20if%20Name%20do%20not%20have%20value%0Af%3C--gc%3A%3Ccolor%3A%23red%3E400%20BAD_REQUEST%3A%20Missing%20required%20property%3C%2Fcolor%3E%0Aw%3C--f%3AName%20is%20required%0Aelse%0Agc-%3Egs%3Asave()%0Aactivate%20gs%0Ags-%3Edb%3Asave()%0Aactivate%20db%0Ags%3C--db%3ANew%20Group%20data%0Adeactivate%20db%0Agc%3C--gs%3ANew%20Group%20data%0Adeactivate%20gs%0Af%3C--gc%3A%3Ccolor%3A%23green%3E201%20CREATED%3A%20Group%20data%3C%2Fcolor%3E%0Adeactivate%20gc%0Aw%3C--f%3A%20Create%20Group%20Successful%0Adeactivate%20f%0Aend%0A</desc><defs/><g><g/><g/><g/><g/><g/><g/><g/><g/><g/><g/><g/><g/><g/><g/><g/><g/><g/><g/><g><rect fill="white" stroke="none" x="0" y="0" width="1095" height="902"/></g><g><text fill="black" stroke="none" font-family="sans-serif" font-size="16.5pt" font-style="normal" font-weight="normal" text-decoration="normal" x="445.04794496227214" y="24.50280495" text-anchor="start" dominant-baseline="alphabetic" xml:space="preserve">Create Normal group</text></g><g/><g><path fill="none" stroke="black" paint-order="fill stroke markers" d=" M 73.50841485 129.701514202 L 73.50841485 902.3566302919997" stroke-miterlimit="10" stroke-width="1.3612669416666667" stroke-dasharray="12.565541,5.445067766666667"/><path fill="none" stroke="black" paint-order="fill stroke markers" d=" M 311.0346390776692 129.701514202 L 311.0346390776692 902.3566302919997" stroke-miterlimit="10" stroke-width="1.3612669416666667" stroke-dasharray="12.565541,5.445067766666667"/><path fill="none" stroke="black" paint-order="fill stroke markers" d=" M 680.5508984270182 129.701514202 L 680.5508984270182 902.3566302919997" stroke-miterlimit="10" stroke-width="1.3612669416666667" stroke-dasharray="12.565541,5.445067766666667"/><path fill="none" stroke="black" paint-order="fill stroke markers" d=" M 847.1968117070312 129.701514202 L 847.1968117070312 902.3566302919997" stroke-miterlimit="10" stroke-width="1.3612669416666667" stroke-dasharray="12.565541,5.445067766666667"/><path fill="none" stroke="black" paint-order="fill stroke markers" d=" M 1013.8427249870442 129.701514202 L 1013.8427249870442 902.3566302919997" stroke-miterlimit="10" stroke-width="1.3612669416666667" stroke-dasharray="12.565541,5.445067766666667"/></g><g><g><path fill="white" stroke="green" paint-order="fill stroke markers" d=" M 82.819480731 60.60360424300001 A 9.311065881 9.311065881 0 1 1 82.81947607546743 60.594293178670846 M 73.50841485 69.91467012400001 L 73.50841485 89.84361815000001 M 61.747068473999995 77.102159576 L 85.26976122599999 77.102159576 M 73.50841485 89.84361815000001 L 61.747068473999995 108.465749912 M 73.50841485 89.84361815000001 L 85.26976122599999 108.465749912" stroke-miterlimit="10" stroke-width="1.3884922805000002" stroke-dasharray=""/></g><g><text fill="black" stroke="none" font-family="sans-serif" font-size="11pt" font-style="normal" font-weight="normal" text-decoration="normal" x="19.467635736230463" y="124.80095321200001" text-anchor="start" dominant-baseline="alphabetic" xml:space="preserve">Workspace User</text></g><g><path fill="white" stroke="black" paint-order="fill stroke markers" d=" M 343.4600176281692 82.819480731 A 24.2577769005 24.2577769005 0 1 1 343.4600054992818 82.79522295814245 M 279.9977528076692 57.17321154999999 L 279.9977528076692 108.465749912 M 278.6092605271692 82.819480731 L 294.9444638271692 82.819480731" stroke-miterlimit="10" stroke-width="2.7769845610000004" stroke-dasharray=""/></g><g><text fill="black" stroke="none" font-family="sans-serif" font-size="11pt" font-style="normal" font-weight="normal" text-decoration="normal" x="275.17566080618485" y="124.80095321200001" text-anchor="start" dominant-baseline="alphabetic" xml:space="preserve">Homepage</text></g><g><path fill="white" stroke="black" paint-order="fill stroke markers" d=" M 704.8086753275181 82.819480731 A 24.2577769005 24.2577769005 0 1 1 704.8086631986307 82.79522295814245 M 677.2838577670182 58.561703830499994 L 687.0849797470181 50.39410218049999 M 677.2838577670182 58.561703830499994 L 687.0849797470181 66.72930548049999" stroke-miterlimit="10" stroke-width="2.7769845610000004" stroke-dasharray=""/></g><g><text fill="black" stroke="none" font-family="sans-serif" font-size="11pt" font-style="normal" font-weight="normal" text-decoration="normal" x="626.3669537248697" y="124.80095321200001" text-anchor="start" dominant-baseline="alphabetic" xml:space="preserve">Group Controller</text></g><path fill="none" stroke="none"/><g><path fill="white" stroke="black" paint-order="fill stroke markers" d=" M 782.622743812078 85.75981732500001 L 911.7708796019843 85.75981732500001 L 911.7708796019843 129.701514202 L 782.622743812078 129.701514202 L 782.622743812078 85.75981732500001 Z" stroke-miterlimit="10" stroke-width="2.613632528" stroke-dasharray=""/></g><g><text fill="black" stroke="none" font-family="sans-serif" font-size="11pt" font-style="normal" font-weight="normal" text-decoration="normal" x="800.3464393925781" y="113.36631090200002" text-anchor="start" dominant-baseline="alphabetic" xml:space="preserve">Group Service</text></g><g><path fill="white" stroke="blue" paint-order="fill stroke markers" d=" M 989.9933281690443 97.684515734 L 989.9933281690443 63.380588804000006 L 1037.6921218050443 63.380588804000006 L 1037.6921218050443 97.684515734" stroke-miterlimit="10" stroke-width="2.7769845610000004" stroke-dasharray=""/><path fill="white" stroke="blue" paint-order="fill stroke markers" d=" M 1037.6921218050443 62.1881189631 L 1037.6909293451406 62.29592950801663 L 1037.6873520846746 62.403729271968594 L 1037.681390381369 62.51150747506936 L 1037.67304483139 62.619253339588404 L 1037.6623162692847 62.72695609102909 L 1037.6492057679009 62.834604959206004 L 1037.6337146382775 62.94218917932205 L 1037.615844429515 63.04969799304486 L 1037.595596928619 63.15712064958265 L 1037.5729741603227 63.2644464067593 L 1037.5479783868843 63.371664532088516 L 1037.5206121078604 63.47876430384712 L 1037.4908780598557 63.58573501214718 L 1037.4587792162506 63.692565960007016 L 1037.4243187869024 63.79924646442086 L 1037.3875002178256 63.90576585742718 L 1037.3483271908465 64.01211348717543 L 1037.3068036232346 64.11827871899126 L 1037.2629336673126 64.22425093643996 L 1037.2167217100393 64.3300195423881 L 1037.168172372572 64.43557396006322 L 1037.117290509804 64.54090363411153 L 1037.0640812098789 64.64599803165338 L 1037.0085497936827 64.75084664333659 L 1036.9507018143108 64.85543898438739 L 1036.8905430565126 64.95976459565881 L 1036.8280795361138 65.06381304467668 L 1036.7633174994148 65.16757392668278 L 1036.6962634225647 65.27103686567541 L 1036.6269240109157 65.37419151544687 L 1036.5553061983512 65.47702756061814 L 1036.4814171465925 65.5795347176704 L 1036.4052642444833 65.68170273597339 L 1036.3268551072506 65.7835213988104 L 1036.2461975757426 65.88498052439998 L 1036.163299715645 65.98606996691414 L 1036.0781698166752 66.08677961749288 L 1035.9908163917519 66.18709940525505 L 1035.9012481761447 66.28701929830548 L 1035.8094741266004 66.38652930473813 L 1035.7155034204482 66.48561947363528 L 1035.6193454546797 66.58427989606261 L 1035.5210098450113 66.6825007060601 L 1035.4205064249227 66.7802720816286 L 1035.3178452446714 66.87758424571203 L 1035.2130365702903 66.97442746717506 L 1035.1060908825596 67.07079206177627 L 1034.9970188759587 67.1666683931365 L 1034.8858314575973 67.2620468737025 L 1034.7725397461247 67.35691796570569 L 1034.6571550706178 67.45127218211596 L 1034.5396889694478 67.54510008759026 L 1034.420153189127 67.63839229941624 L 1034.2985596831336 67.73113948845047 L 1034.1749206107172 67.82333238005134 L 1034.0492483356818 67.9149617550065 L 1033.9215554251502 68.00601845045483 L 1033.7918546483074 68.09649336080267 L 1033.6601589751224 68.18637743863435 L 1033.5264815750531 68.27566169561702 L 1033.3908358157282 68.36433720339936 L 1033.2532352616104 68.45239509450451 L 1033.1136936726405 68.53982656321674 L 1032.9722250028613 68.62662286646201 L 1032.8288433990215 68.71277532468237 L 1032.683563199162 68.79827532270376 L 1032.5363989311825 68.88311431059763 L 1032.3873653113862 68.9672838045359 L 1032.2364772430114 69.0507753876393 L 1032.0837498147391 69.13358071081912 L 1031.9291982991847 69.21569149361203 L 1031.7728381513712 69.29709952500816 L 1031.614685007183 69.37779666427225 L 1031.4547546818028 69.45777484175761 L 1031.2930631681295 69.53702605971311 L 1031.12962663518 69.61554239308303 L 1030.9644614264716 69.69331599029945 L 1030.7975840583874 69.77033907406746 L 1030.629011218525 69.84660394214286 L 1030.4587597640277 69.92210296810242 L 1030.2868467198996 69.99682860210643 L 1030.1132892773016 70.07077337165379 L 1029.9381047918332 70.14392988232913 L 1029.7613107817972 70.21629081854239 L 1029.582924926447 70.28784894426022 L 1029.4029650642199 70.35859710372968 L 1029.2214491909517 70.42852822219379 L 1029.0383954580789 70.49763530659898 L 1028.8538221708218 70.5659114462944 L 1028.6677477863557 70.63334981372294 L 1028.4801909119637 70.69994366510412 L 1028.291170303177 70.76568634110825 L 1028.1007048618992 70.83057126752253 L 1027.9088136345154 70.89459195590838 L 1027.7155158099886 70.95774200425032 L 1027.52083071794 71.02001509759614 L 1027.3247778267169 71.08140500868842 L 1027.1273767414448 71.14190559858717 L 1026.9286472020676 71.20151081728383 L 1026.7286090813739 71.26021470430622 L 1026.527282383009 71.31801138931453 L 1026.3246872394748 71.37489509268845 L 1026.1208439101172 71.43086012610503 L 1025.9157727790987 71.48590089310757 L 1025.709494353362 71.54001188966522 L 1025.5020292605777 71.59318770472345 L 1025.293398247082 71.64542302074504 L 1025.0836221758025 71.69671261424193 L 1024.8727220241715 71.7470513562975 L 1024.6607188820285 71.79643421307951 L 1024.4476339495109 71.84485624634341 L 1024.2334885349344 71.89231261392625 L 1024.0183040526622 71.93879857023082 L 1023.8021020209629 71.9843094667002 L 1023.5849040598598 72.02884075228269 L 1023.3667318889678 72.07238797388683 L 1023.1476073253223 72.11494677682676 L 1022.9275522811969 72.15651290525764 L 1022.7065887619128 72.19708220260128 L 1022.4847388636379 72.23665061196175 L 1022.2620247711768 72.27521417653107 L 1022.0384687557533 72.31276903998494 L 1021.8140931727829 72.3493114468683 L 1021.5889204596366 72.38483774297092 L 1021.3629731333982 72.41934437569277 L 1021.136273788612 72.45282789439938 L 1020.9088450950236 72.48528495076673 L 1020.6807097953127 72.51671229911628 L 1020.4518907028195 72.54710679673934 L 1020.2224106992621 72.5764654042115 L 1019.9922927324501 72.60478518569649 L 1019.761559813988 72.63206330923974 L 1019.5302350169757 72.65829704705163 L 1019.2983414736998 72.68348377578025 L 1019.0659023733217 72.70762097677371 L 1018.8329409595576 72.73070623633201 L 1018.5994805283547 72.75273724594847 L 1018.3655444255617 72.77371180254045 L 1018.1311560445937 72.79362780866978 L 1017.8963388240937 72.81248327275246 L 1017.6611162455881 72.83027630925778 L 1017.4255118311385 72.84700513889692 L 1017.1895491409902 72.86266808880085 L 1016.9532517712155 72.87726359268764 L 1016.7166433513545 72.89079019101906 L 1016.4797475420519 72.90324653114655 L 1016.2425880326914 72.91463136744649 L 1016.0051885390262 72.9249435614447 L 1015.7675728008078 72.93418208193043 L 1015.5297645794121 72.94234600505929 L 1015.291787655463 72.94943451444577 L 1015.0536658264547 72.95544690124485 L 1014.8154229043715 72.96038256422287 L 1014.5770827133072 72.96424100981763 L 1014.3386690870822 72.9670218521878 L 1014.1002058668604 72.96872481325143 L 1013.8617168987653 72.96934972271386 L 1013.6232260314947 72.96889651808466 L 1013.3847571139369 72.96736524468392 L 1013.1463339927847 72.96475605563768 L 1012.9079805101517 72.96106921186271 L 1012.6697205011873 72.95630508204027 L 1012.431577791694 72.9504641425794 L 1012.1935761957444 72.94354697756918 L 1011.9557395132996 72.93555427872033 L 1011.7180915278296 72.9264868452961 L 1011.4806560039351 72.91634558403224 L 1011.2434566849704 72.90513150904647 L 1011.00651729067 72.89284574173689 L 1010.7698615147757 72.87948951067006 L 1010.5335130226679 72.86506415145789 L 1010.2974954489988 72.84957110662431 L 1010.0618323953292 72.8330119254609 L 1009.8265474277681 72.81538826387197 L 1009.5916640746161 72.79670188420899 L 1009.3572058240128 72.77695465509434 L 1009.123196121588 72.7561485512345 L 1008.8896583681166 72.73428565322251 L 1008.6566159171797 72.71136814732996 L 1008.424092072828 72.68739832528833 L 1008.1921100872521 72.66237858405984 L 1007.9606931584575 72.63631142559778 L 1007.729864427944 72.60919945659627 L 1007.4996469783924 72.58104538822961 L 1007.2700638313559 72.55185203588118 L 1007.0411379449575 72.5216223188619 L 1006.8128922115956 72.49035926011825 L 1006.5853494556529 72.45806598593009 L 1006.3585324312156 72.4247457255979 L 1006.1324638197972 72.39040181111994 L 1005.9071662280702 72.35503767685907 L 1005.6826621856061 72.31865685919922 L 1005.4589741426222 72.28126299619186 L 1005.2361244677363 72.24285982719209 L 1005.0141354457302 72.20345119248485 L 1004.7930292753211 72.16304103290075 L 1004.5728280669417 72.12163338942209 L 1004.3535538405296 72.07923240277869 L 1004.1352285233244 72.03584231303388 L 1003.917873947676 71.99146745916049 L 1003.701511848861 71.94611227860693 L 1003.4861638629086 71.89978130685344 L 1003.2718515244384 71.85247917695861 L 1003.0585962645052 71.80421061909601 L 1002.8464194084578 71.75498046008119 L 1002.6353421738045 71.70479362288901 L 1002.4253856680931 71.65365512616141 L 1002.2165708867992 71.60157008370541 L 1002.0089187112269 71.54854370398188 L 1001.8024499064207 71.49458128958457 L 1001.5971851190891 71.43968823671 L 1001.3931448755396 71.38387003461766 L 1001.1903495796266 71.32713226508127 L 1000.9888195107109 71.26948060183051 L 1000.7885748216312 71.21092080998365 L 1000.5896355366896 71.15145874547107 L 1000.3920215496488 71.0911003544497 L 1000.1957526217429 71.0298516727083 L 1000.0008483797011 70.96771882506403 L 999.8073283137852 70.90470802474988 L 999.6152117758404 70.84082557279336 L 999.4245179773607 70.77607785738643 L 999.2352659875667 70.71047135324669 L 999.0474747314997 70.64401262096986 L 998.8611629881291 70.5767083063738 L 998.6763493884737 70.50856513983389 L 998.4930524137396 70.43958993560999 L 998.3112903934714 70.36978959116503 L 998.1310815037199 70.29917108647531 L 997.9524437652236 70.22774148333244 L 997.7753950416077 70.1555079246372 L 997.5999530375968 70.08247763368529 L 997.4261352972454 70.00865791344492 L 997.2539592021825 69.9340561458266 L 997.0834419698741 69.85867979094495 L 996.9146006519015 69.78253638637263 L 996.7474521322556 69.70563354638664 L 996.5820131256493 69.62797896120689 L 996.418300175845 69.54958039622719 L 996.2563296540018 69.47044569123871 L 996.0961177570365 69.39058275964601 L 995.9376805060053 69.30999958767568 L 995.7810337445015 69.22870423357777 L 995.6261931370707 69.14670482681996 L 995.4731741676444 69.06400956727457 L 995.3219921379921 68.98062672439866 L 995.1726621661908 68.89656463640702 L 995.0251991851133 68.8118317094384 L 994.8796179409347 68.72643641671489 L 994.7359329916583 68.6403872976946 L 994.5941587056591 68.55369295721772 L 994.4543092602477 68.46636206464606 L 994.3163986402519 68.37840335299609 L 994.1804406366189 68.28982561806569 L 994.0464488450358 68.20063771755453 L 993.9144366645701 68.11084857017835 L 993.7844172963297 68.02046715477704 L 993.6564037421432 67.92950250941684 L 993.5304088032593 67.83796373048648 L 993.406445079067 67.74585997178757 L 993.2845249658353 67.65320044361923 L 993.1646606554739 67.55999441185705 L 993.046864134314 67.46625119702654 L 992.9311471819095 67.37198017337107 L 992.8175213698593 67.27719076791445 L 992.7059980606499 67.18189245951821 L 992.5965884065192 67.08609477793381 L 992.4893033483415 66.98980730284956 L 992.3841536145333 66.89303966293272 L 992.2811497199802 66.79580153486665 L 992.1803019649859 66.69810264238313 L 992.0816204342418 66.59995275528999 L 991.9851149958189 66.50136168849414 L 991.8907953001805 66.40233930102012 L 991.7986707792174 66.30289549502413 L 991.7087506453053 66.20304021480393 L 991.6210438903823 66.1027834458043 L 991.535559285051 66.00213521361863 L 991.4523053777008 65.90110558298623 L 991.3712904936527 65.799704656786 L 991.2925227343279 65.69794257502603 L 991.2160099764367 65.59582951382973 L 991.1417598711909 65.4933756844181 L 991.0697798435393 65.3905913320887 L 991.0000770914246 65.28748673519112 L 990.9326585850641 65.18407220409914 L 990.8675310662521 65.08035808017966 L 990.8047010476862 64.97635473475869 L 990.744174812316 64.87207256808405 L 990.6859584127145 64.76752200828555 L 990.6300576704733 64.66271351033203 L 990.5764781756199 64.55765755498592 L 990.525225286059 64.45236464775525 L 990.4763041270372 64.34684531784296 L 990.4297195906294 64.24111011709415 L 990.3854763352505 64.13516961894075 L 990.343578785189 64.0290344173443 L 990.3040311301653 63.92271512573653 L 990.2668373249116 63.81622237595798 L 990.2320010887778 63.70956681719489 L 990.1995259053581 63.602759114914264 L 990.1694150221441 63.49580994979732 L 990.1416714501988 63.38873001667144 L 990.1162979638565 63.28153002344071 L 990.0932971004445 63.17422069001512 L 990.07267116003 63.066812747238586 L 990.0544222051899 62.959316935815885 L 990.0385520608045 62.85174400523857 L 990.025062313875 62.74410471271006 L 990.0139543133647 62.636409822069915 L 990.0052291700647 62.52867010271744 L 989.9988877564817 62.4208963285348 L 989.9949307067521 62.313099276809595 L 989.9933584165774 62.20528972715717 L 989.9941710431854 62.09747846044265 L 989.997368505314 61.98967625770286 L 990.0029504832196 61.88189389906824 L 990.0109164187093 61.77414216268484 L 990.021265515196 61.66643182363649 L 990.0339967377788 61.558773652867366 L 990.0491088133459 61.4511784161048 L 990.0666002307025 61.34365687278283 L 990.0864692407213 61.236219774966166 L 990.108713856518 61.12887786627507 L 990.1333318536495 61.02164188081096 L 990.1603207703364 60.91452254208302 L 990.1896779077098 60.807530561935856 L 990.2214003300803 60.70067663947832 L 990.2554848652322 60.593971460013606 L 990.2919281047402 60.487425693970756 L 990.330726404311 60.381049995837586 L 990.3718758841467 60.27485500309525 L 990.4153724293337 60.16885133515453 L 990.4612116902538 60.06304959229389 L 990.509389083019 59.95746035459945 L 990.5598997899302 59.852094180906974 L 990.6127387599588 59.746961607746044 L 990.667900709252 59.64207314828636 L 990.7253801216606 59.537439291286454 L 990.7851712492914 59.43307050004484 L 990.8472681130812 59.32897721135367 L 990.9116645033957 59.22516983445505 L 990.9783539806496 59.12165875000019 L 991.0473298759504 59.01845430901127 L 991.1185852917662 58.91556683184637 L 991.1921131026148 58.81300660716748 L 991.2679059557764 58.7107838909116 L 991.3459562720288 58.60890890526517 L 991.4262562464056 58.507391837641855 L 991.508797848976 58.406242839663825 L 991.5935728256487 58.30547202614659 L 991.6805726989967 58.205089474087515 L 991.769788769105 58.105105221658164 L 991.8612121144412 58.00552926720046 L 991.9548335927467 57.90637156822687 L 992.0506438419517 57.807642040424646 L 992.1486332811113 57.709350556664305 L 992.2487921113632 57.61150694601232 L 992.3511103169077 57.514120992748204 L 992.4555776660095 57.417202435386145 L 992.562183712021 57.320760965701105 L 992.6709177944263 57.224806227759686 L 992.7817690399075 57.12934781695572 L 992.8947263634329 57.03439527905074 L 993.009778469364 56.93995810921942 L 993.1269138525862 56.84604575110002 L 993.2461207996586 56.75266759585011 L 993.367387389986 56.65983298120741 L 993.4907014970104 56.567551190555996 L 993.6160507894239 56.47583145199805 L 993.7434227324015 56.384682937430995 L 993.8728045888554 56.29411476163032 L 994.0041834207075 56.20413598133814 L 994.1375460901841 56.1147555943575 L 994.2728792611294 56.02598253865261 L 994.4101694003393 55.937825691455075 L 994.5494027789141 55.85029386837614 L 994.690565473632 55.763395822525176 L 994.8336433683411 55.677140243634355 L 994.9786221553712 55.591535757189675 L 995.1254873369645 55.50659092356846 L 995.2742242267252 55.42231423718327 L 995.4248179510881 55.33871412563253 L 995.5772534508066 55.25579894885771 L 995.7315154824573 55.1735769983074 L 995.887588619966 55.092056496108135 L 996.0454572561488 55.01124559424221 L 996.2051056042737 54.93115237373246 L 996.3665176996388 54.851784843834196 L 996.5296774011694 54.77315094123426 L 996.6945683930309 54.6952585292574 L 996.8611741862618 54.61811539707989 L 997.0294781204216 54.54172925895067 L 997.1994633652569 54.46610775341989 L 997.3711129223851 54.391258442575094 L 997.5444096269936 54.317188811284986 L 997.719336149556 54.24390626645098 L 997.8958749975662 54.171418136266475 L 998.0740085172863 54.09973166948409 L 998.2537188955129 54.028854034690774 L 998.4349881613578 53.95879231959093 L 998.6177981880454 53.88955353029769 L 998.8021306947256 53.82114459063227 L 998.9879672483014 53.753572341431656 L 999.175289265272 53.68684353986444 L 999.3640780135919 53.62096485875517 L 999.5543146145437 53.55594288591707 L 999.7459800446259 53.49178412349323 L 999.939055137455 53.42849498730643 L 1000.1335205856826 53.366081806217544 L 1000.3293569429262 53.304550821492676 L 1000.526544625713 53.24390818617902 L 1000.7250639154393 53.18415996448957 L 1000.9248949603412 53.12531213119671 L 1001.126017777481 53.067370571034715 L 1001.3284122547446 53.01034107811134 L 1001.532058152853 52.95422935532834 L 1001.7369351073858 52.89904101381123 L 1001.9430226308184 52.84478157234818 L 1002.1503001145703 52.79145645683812 L 1002.3587468310658 52.73907099974815 L 1002.568341935807 52.687630439580346 L 1002.7790644694579 52.637139920347835 L 1002.990893359941 52.58760449106049 L 1003.2038074245436 52.53902910521993 L 1003.4177853720367 52.49141862032429 L 1003.632805804804 52.444777797382365 L 1003.8488472209812 52.399111300437596 L 1004.0658880166067 52.354423696101605 L 1004.283906487782 52.3107194530976 L 1004.5028808328416 52.26800294181345 L 1004.7227891545333 52.2262784338647 L 1004.9436094622085 52.18555010166736 L 1005.1653196740202 52.14582201802072 L 1005.3878976191321 52.10709815570004 L 1005.6113210399351 52.06938238705927 L 1005.8355675942732 52.032678483643856 L 1006.0606148576782 51.996990115813546 L 1006.2864403256109 51.96232085237539 L 1006.513021415713 51.928674160226834 L 1006.7403354700641 51.89605340400906 L 1006.9683597574482 51.8644618457705 L 1007.1970714756267 51.833902644640645 L 1007.4264477536183 51.80437885651416 L 1007.6564656539864 51.775893433745246 L 1007.8871021751326 51.74844922485244 L 1008.1183342535969 51.722048974233765 L 1008.3501387663642 51.69669532189228 L 1008.5824925331766 51.672390803172085 L 1008.8153723188508 51.649137848504814 L 1009.0487548356024 51.626938783166544 L 1009.2826167453742 51.60579582704531 L 1009.51693466217 51.58571109441911 L 1009.7516851543935 51.56668659374447 L 1009.9868447471911 51.54872422745561 L 1010.2223899247995 51.53182579177417 L 1010.4582971328971 51.515992976529645 L 1010.6945427809599 51.50122736499037 L 1010.9311032446196 51.4875304337052 L 1011.1679548680274 51.47490355235584 L 1011.4050739662181 51.4633479836199 L 1011.6424368274795 51.45286488304463 L 1011.8800197157233 51.443455298931354 L 1012.1177988728585 51.43512017223063 L 1012.3557505211679 51.4278603364482 L 1012.5938508656847 51.42167651756158 L 1012.8320760965728 51.41656933394751 L 1013.0704023915079 51.41253929632009 L 1013.3088059180589 51.40958680767973 L 1013.5472628360717 51.407712163272826 L 1013.7857493000536 51.40691555056227 L 1014.0242414615566 51.40719704920866 L 1014.2627154715634 51.40855663106237 L 1014.5011474828718 51.41099416016634 L 1014.7395136524793 51.414509392769695 L 1014.9777901439676 51.419101977352106 L 1015.2159531298861 51.42477145465894 L 1015.4539787941346 51.431517257747196 L 1015.6918433343451 51.43933871204218 L 1015.9295229642618 51.44823503540498 L 1016.1669939161198 51.45820533821068 L 1016.4042324430218 51.4692486234373 L 1016.6412148213127 51.48136378676553 L 1016.8779173529523 51.49454961668913 L 1017.1143163678846 51.50880479463608 L 1017.3503882264052 51.524127895100484 L 1017.5861093215249 51.54051738578506 L 1017.8214560813306 51.5579716277544 L 1018.0564049713424 51.57648887559884 L 1018.2909324968672 51.59606727760904 L 1018.5250152053479 51.6167048759611 L 1018.7586296887087 51.6383996069124 L 1018.9917525856957 51.66114930100791 L 1019.2243605842139 51.684951683297186 L 1019.4564304236569 51.70980437356183 L 1019.6879388972344 51.735704886553535 L 1019.9188628542919 51.76265063224257 L 1020.1491792026261 51.79063891607683 L 1020.378864910794 51.81966693925126 L 1020.6078970104164 51.849731798987726 L 1020.8362525984741 51.88083048882531 L 1021.0639088395985 51.91295989892094 L 1021.2908429683553 51.94611681636038 L 1021.5170322915206 51.980297925479526 L 1021.7424541903509 52.01549980819594 L 1021.9670861228439 52.0517189443507 L 1022.1909056259935 52.08895171206036 L 1022.4138903180361 52.127194388079175 L 1022.6360179006881 52.16644314817141 L 1022.8572661613766 52.20669406749378 L 1023.0776129754597 52.247943120987884 L 1023.2970363084396 52.29018618378274 L 1023.515514218166 52.33341903160728 L 1023.7330248570299 52.37763734121275 L 1023.9495464741487 52.422836690805035 L 1024.1650574175412 52.46901256048684 L 1024.3795361362925 52.516160332709674 L 1024.5929611827094 52.564275292735616 L 1024.8053112144653 52.613352629108746 L 1025.016564996734 52.663387434136325 L 1025.2267014043132 52.71437470437956 L 1025.4356994237373 52.7663093411539 L 1025.6435381553783 52.819186151038956 L 1025.8501968155367 52.8729998463978 L 1026.0556547385183 52.92774504590574 L 1026.2598913787024 52.983416275088445 L 1026.4628863125947 53.040007966869396 L 1026.6646192408714 53.09751446212657 L 1026.8650699904074 53.15593001025836 L 1027.064218516295 53.21524876975863 L 1027.2620449038477 53.27546480880087 L 1027.4585293705914 53.33657210583136 L 1027.653652268243 53.3985645501713 L 1027.8473940846757 53.461435942627936 L 1028.0397354458692 53.52517999611441 L 1028.2306571178476 53.58979033627848 L 1028.4201400086029 53.655260502139996 L 1028.6081651700038 53.721583946736914 L 1028.7947137996907 53.78875403778004 L 1028.9797672429565 53.85676405831625 L 1029.1633069946108 53.92560720740017 L 1029.3453147008315 53.995276600774254 L 1029.5257721609994 54.065765271557225 L 1029.7046613295192 54.13706617094075 L 1029.8819643176232 54.2091721688943 L 1030.0576633951598 54.28207605487816 L 1030.2317409923683 54.35577053856451 L 1030.4041797016334 54.43024825056637 L 1030.5749622792284 54.50550174317461 L 1030.7440716470378 54.581523491102686 L 1030.9114908942654 54.658305892239156 L 1031.0772032791263 54.73584126840789 L 1031.24119223052 54.81412186613588 L 1031.403441349688 54.89313985742859 L 1031.5639344118536 54.97288734055273 L 1031.7226553678443 55.05335634082646 L 1031.879588345697 55.1345388114168 L 1032.0347176522444 55.21642663414435 L 1032.188027774685 55.29901162029506 L 1032.3395033821348 55.38228551143916 L 1032.489129327159 55.46623998025691 L 1032.6368906472878 55.55086663137139 L 1032.7827725665122 55.63615700218803 L 1032.9267604967622 55.722102563740805 L 1033.0688400393642 55.80869472154519 L 1033.208996986483 55.89592481645755 L 1033.3472173225402 55.98378412554111 L 1033.4834872256176 56.07226386293816 L 1033.6177930688384 56.1613551807487 L 1033.7501214217302 56.251049169915184 L 1033.8804590515679 56.34133686111345 L 1034.0087929246972 56.4322092256496 L 1034.135110207838 56.52365717636293 L 1034.2593982693666 56.615671568534566 L 1034.381644680581 56.70824320080196 L 1034.5018372169418 56.80136281607904 L 1034.6199638592952 56.89502110248188 L 1034.736012795076 56.98920869425987 L 1034.849972419487 57.083916172732344 L 1034.9618313366605 57.17913406723036 L 1035.0715783607984 57.27485285604382 L 1035.1792025172895 57.37106296737362 L 1035.284693043808 57.467754780288786 L 1035.3880393913892 57.56491862568861 L 1035.489231225484 57.662544787269525 L 1035.588258426994 57.76062350249672 L 1035.685111093281 57.859144963580405 L 1035.7797795391593 57.95809931845658 L 1035.8722542978633 58.05747667177222 L 1035.962526121994 58.15726708587479 L 1036.0505859844443 58.257460581806065 L 1036.1364250793015 58.358047140299924 L 1036.2200348227273 58.459016702784346 L 1036.3014068538173 58.56035917238722 L 1036.3805330354362 58.66206441494605 L 1036.4574054550317 58.764122260021324 L 1036.5320164254258 58.866522501913586 L 1036.6043584855838 58.96925490068398 L 1036.67442440136 59.072309183178234 L 1036.742207166221 59.17567504405398 L 1036.807700001947 59.279342146811274 L 1036.870896359309 59.38330012482622 L 1036.9317899187236 59.48753858238766 L 1036.990374590886 59.59204709573668 L 1037.0466445173777 59.69681521410906 L 1037.100594071253 59.80183246078026 L 1037.152217857601 59.907088334113126 L 1037.201510714087 60.012572308608036 L 1037.2484677114653 60.11827383595545 L 1037.2930841540763 60.22418234609071 L 1037.3353555803124 60.33028724825106 L 1037.3752777630662 60.43657793203471 L 1037.4128467101527 60.54304376846186 L 1037.448058664709 60.64967411103757 L 1037.4809101055682 60.75645829681646 L 1037.511397747614 60.86338564746893 L 1037.5395185421078 60.97044547034902 L 1037.5652696769932 61.07762705956367 L 1037.5886485771782 61.184919697043256 L 1037.6096529047927 61.29231265361346 L 1037.6282805594208 61.399795190068104 L 1037.6445296783131 61.50735655824312 L 1037.658398636571 61.614986002091314 L 1037.6698860473102 61.72267275875801 L 1037.6789907617995 61.830406059657264 L 1037.6857118695746 61.93817513154877 L 1037.6900486985307 62.04596919761514 L 1037.6920008149882 62.15377747853961 M 1037.6921218050443 96.4920458931 L 1037.6909293451406 96.59985643801662 L 1037.6873520846746 96.70765620196859 L 1037.681390381369 96.81543440506935 L 1037.67304483139 96.9231802695884 L 1037.6623162692847 97.03088302102908 L 1037.6492057679009 97.138531889206 L 1037.6337146382775 97.24611610932205 L 1037.615844429515 97.35362492304485 L 1037.595596928619 97.46104757958265 L 1037.5729741603227 97.5683733367593 L 1037.5479783868843 97.67559146208852 L 1037.5206121078604 97.78269123384712 L 1037.4908780598557 97.88966194214719 L 1037.4587792162506 97.99649289000702 L 1037.4243187869024 98.10317339442086 L 1037.3875002178256 98.20969278742717 L 1037.3483271908465 98.31604041717543 L 1037.3068036232346 98.42220564899125 L 1037.2629336673126 98.52817786643996 L 1037.2167217100393 98.6339464723881 L 1037.168172372572 98.73950089006323 L 1037.117290509804 98.84483056411152 L 1037.0640812098789 98.94992496165337 L 1037.0085497936827 99.05477357333659 L 1036.9507018143108 99.15936591438738 L 1036.8905430565126 99.2636915256588 L 1036.8280795361138 99.36773997467667 L 1036.7633174994148 99.47150085668278 L 1036.6962634225647 99.5749637956754 L 1036.6269240109157 99.67811844544686 L 1036.5553061983512 99.78095449061813 L 1036.4814171465925 99.8834616476704 L 1036.4052642444833 99.98562966597338 L 1036.3268551072506 100.08744832881038 L 1036.2461975757426 100.18890745439998 L 1036.163299715645 100.28999689691415 L 1036.0781698166752 100.39070654749288 L 1035.9908163917519 100.49102633525506 L 1035.9012481761447 100.59094622830548 L 1035.8094741266004 100.69045623473812 L 1035.7155034204482 100.78954640363527 L 1035.6193454546797 100.8882068260626 L 1035.5210098450113 100.9864276360601 L 1035.4205064249227 101.0841990116286 L 1035.3178452446714 101.18151117571202 L 1035.2130365702903 101.27835439717506 L 1035.1060908825596 101.37471899177628 L 1034.9970188759587 101.4705953231365 L 1034.8858314575973 101.56597380370249 L 1034.7725397461247 101.6608448957057 L 1034.6571550706178 101.75519911211595 L 1034.5396889694478 101.84902701759025 L 1034.420153189127 101.94231922941623 L 1034.2985596831336 102.03506641845047 L 1034.1749206107172 102.12725931005133 L 1034.0492483356818 102.2188886850065 L 1033.9215554251502 102.30994538045483 L 1033.7918546483074 102.40042029080266 L 1033.6601589751224 102.49030436863434 L 1033.5264815750531 102.579588625617 L 1033.3908358157282 102.66826413339936 L 1033.2532352616104 102.75632202450451 L 1033.1136936726405 102.84375349321674 L 1032.9722250028613 102.93054979646202 L 1032.8288433990215 103.01670225468237 L 1032.683563199162 103.10220225270375 L 1032.5363989311825 103.18704124059762 L 1032.3873653113862 103.27121073453588 L 1032.2364772430114 103.3547023176393 L 1032.0837498147391 103.4375076408191 L 1031.9291982991847 103.51961842361202 L 1031.7728381513712 103.60102645500817 L 1031.614685007183 103.68172359427226 L 1031.4547546818028 103.7617017717576 L 1031.2930631681295 103.84095298971312 L 1031.12962663518 103.91946932308304 L 1030.9644614264716 103.99724292029944 L 1030.7975840583874 104.07426600406745 L 1030.629011218525 104.15053087214287 L 1030.4587597640277 104.22602989810241 L 1030.2868467198996 104.30075553210642 L 1030.1132892773016 104.37470030165377 L 1029.9381047918332 104.44785681232914 L 1029.7613107817972 104.52021774854238 L 1029.582924926447 104.59177587426021 L 1029.4029650642199 104.66252403372968 L 1029.2214491909517 104.73245515219378 L 1029.0383954580789 104.80156223659897 L 1028.8538221708218 104.86983837629438 L 1028.6677477863557 104.93727674372295 L 1028.4801909119637 105.0038705951041 L 1028.291170303177 105.06961327110824 L 1028.1007048618992 105.13449819752252 L 1027.9088136345154 105.19851888590837 L 1027.7155158099886 105.26166893425032 L 1027.52083071794 105.32394202759615 L 1027.3247778267169 105.38533193868841 L 1027.1273767414448 105.44583252858716 L 1026.9286472020676 105.50543774728384 L 1026.7286090813739 105.56414163430621 L 1026.527282383009 105.62193831931454 L 1026.3246872394748 105.67882202268845 L 1026.1208439101172 105.73478705610502 L 1025.9157727790987 105.78982782310756 L 1025.709494353362 105.84393881966523 L 1025.5020292605777 105.89711463472344 L 1025.293398247082 105.94934995074503 L 1025.0836221758025 106.00063954424192 L 1024.8727220241715 106.0509782862975 L 1024.6607188820285 106.1003611430795 L 1024.4476339495109 106.14878317634341 L 1024.2334885349344 106.19623954392625 L 1024.0183040526622 106.2427255002308 L 1023.8021020209629 106.2882363967002 L 1023.5849040598598 106.33276768228268 L 1023.3667318889678 106.37631490388682 L 1023.1476073253223 106.41887370682676 L 1022.9275522811969 106.46043983525765 L 1022.7065887619128 106.50100913260128 L 1022.4847388636379 106.54057754196174 L 1022.2620247711768 106.57914110653107 L 1022.0384687557533 106.61669596998493 L 1021.8140931727829 106.65323837686829 L 1021.5889204596366 106.6887646729709 L 1021.3629731333982 106.72327130569276 L 1021.136273788612 106.75675482439937 L 1020.9088450950236 106.78921188076673 L 1020.6807097953127 106.82063922911627 L 1020.4518907028195 106.85103372673933 L 1020.2224106992621 106.8803923342115 L 1019.9922927324501 106.90871211569649 L 1019.761559813988 106.93599023923973 L 1019.5302350169757 106.96222397705162 L 1019.2983414736998 106.98741070578025 L 1019.0659023733217 107.0115479067737 L 1018.8329409595576 107.03463316633201 L 1018.5994805283547 107.05666417594847 L 1018.3655444255617 107.07763873254045 L 1018.1311560445937 107.09755473866979 L 1017.8963388240937 107.11641020275246 L 1017.6611162455881 107.13420323925777 L 1017.4255118311385 107.1509320688969 L 1017.1895491409902 107.16659501880085 L 1016.9532517712155 107.18119052268763 L 1016.7166433513545 107.19471712101905 L 1016.4797475420519 107.20717346114655 L 1016.2425880326914 107.21855829744648 L 1016.0051885390262 107.22887049144471 L 1015.7675728008078 107.23810901193042 L 1015.5297645794121 107.24627293505928 L 1015.291787655463 107.25336144444577 L 1015.0536658264547 107.25937383124486 L 1014.8154229043715 107.26430949422287 L 1014.5770827133072 107.26816793981763 L 1014.3386690870822 107.27094878218779 L 1014.1002058668604 107.27265174325143 L 1013.8617168987653 107.27327665271386 L 1013.6232260314947 107.27282344808465 L 1013.3847571139369 107.27129217468391 L 1013.1463339927847 107.26868298563768 L 1012.9079805101517 107.2649961418627 L 1012.6697205011873 107.26023201204026 L 1012.431577791694 107.2543910725794 L 1012.1935761957444 107.24747390756917 L 1011.9557395132996 107.23948120872033 L 1011.7180915278296 107.23041377529609 L 1011.4806560039351 107.22027251403225 L 1011.2434566849704 107.20905843904646 L 1011.00651729067 107.1967726717369 L 1010.7698615147757 107.18341644067004 L 1010.5335130226679 107.16899108145788 L 1010.2974954489988 107.15349803662431 L 1010.0618323953292 107.1369388554609 L 1009.8265474277681 107.11931519387196 L 1009.5916640746161 107.10062881420897 L 1009.3572058240128 107.08088158509435 L 1009.123196121588 107.0600754812345 L 1008.8896583681166 107.03821258322252 L 1008.6566159171797 107.01529507732995 L 1008.424092072828 106.99132525528832 L 1008.1921100872521 106.96630551405984 L 1007.9606931584575 106.94023835559778 L 1007.729864427944 106.91312638659626 L 1007.4996469783924 106.88497231822961 L 1007.2700638313559 106.85577896588119 L 1007.0411379449575 106.8255492488619 L 1006.8128922115956 106.79428619011826 L 1006.5853494556529 106.76199291593008 L 1006.3585324312156 106.72867265559789 L 1006.1324638197972 106.69432874111995 L 1005.9071662280702 106.65896460685907 L 1005.6826621856061 106.62258378919921 L 1005.4589741426222 106.58518992619184 L 1005.2361244677363 106.5467867571921 L 1005.0141354457302 106.50737812248485 L 1004.7930292753211 106.46696796290075 L 1004.5728280669417 106.42556031942208 L 1004.3535538405296 106.38315933277867 L 1004.1352285233244 106.33976924303387 L 1003.917873947676 106.29539438916049 L 1003.701511848861 106.25003920860692 L 1003.4861638629086 106.20370823685344 L 1003.2718515244384 106.15640610695861 L 1003.0585962645052 106.108137549096 L 1002.8464194084578 106.05890739008117 L 1002.6353421738045 106.00872055288902 L 1002.4253856680931 105.9575820561614 L 1002.2165708867992 105.90549701370541 L 1002.0089187112269 105.85247063398188 L 1001.8024499064207 105.79850821958458 L 1001.5971851190891 105.74361516670999 L 1001.3931448755396 105.68779696461766 L 1001.1903495796266 105.63105919508126 L 1000.9888195107109 105.5734075318305 L 1000.7885748216312 105.51484773998365 L 1000.5896355366896 105.45538567547108 L 1000.3920215496488 105.3950272844497 L 1000.1957526217429 105.33377860270829 L 1000.0008483797011 105.27164575506403 L 999.8073283137852 105.20863495474987 L 999.6152117758404 105.14475250279335 L 999.4245179773607 105.08000478738643 L 999.2352659875667 105.01439828324668 L 999.0474747314997 104.94793955096986 L 998.8611629881291 104.8806352363738 L 998.6763493884737 104.8124920698339 L 998.4930524137396 104.74351686560999 L 998.3112903934714 104.67371652116503 L 998.1310815037199 104.6030980164753 L 997.9524437652236 104.53166841333243 L 997.7753950416077 104.4594348546372 L 997.5999530375968 104.38640456368528 L 997.4261352972454 104.31258484344491 L 997.2539592021825 104.2379830758266 L 997.0834419698741 104.16260672094495 L 996.9146006519015 104.08646331637262 L 996.7474521322556 104.00956047638662 L 996.5820131256493 103.93190589120688 L 996.418300175845 103.85350732622719 L 996.2563296540018 103.77437262123871 L 996.0961177570365 103.694509689646 L 995.9376805060053 103.61392651767568 L 995.7810337445015 103.53263116357778 L 995.6261931370707 103.45063175681996 L 995.4731741676444 103.36793649727457 L 995.3219921379921 103.28455365439865 L 995.1726621661908 103.20049156640701 L 995.0251991851133 103.1157586394384 L 994.8796179409347 103.03036334671489 L 994.7359329916583 102.94431422769459 L 994.5941587056591 102.85761988721772 L 994.4543092602477 102.77028899464605 L 994.3163986402519 102.68233028299609 L 994.1804406366189 102.5937525480657 L 994.0464488450358 102.50456464755453 L 993.9144366645701 102.41477550017834 L 993.7844172963297 102.32439408477703 L 993.6564037421432 102.23342943941684 L 993.5304088032593 102.14189066048647 L 993.406445079067 102.04978690178756 L 993.2845249658353 101.95712737361922 L 993.1646606554739 101.86392134185704 L 993.046864134314 101.77017812702654 L 992.9311471819095 101.67590710337106 L 992.8175213698593 101.58111769791444 L 992.7059980606499 101.48581938951821 L 992.5965884065192 101.39002170793381 L 992.4893033483415 101.29373423284954 L 992.3841536145333 101.19696659293271 L 992.2811497199802 101.09972846486664 L 992.1803019649859 101.00202957238312 L 992.0816204342418 100.90387968528998 L 991.9851149958189 100.80528861849413 L 991.8907953001805 100.70626623102011 L 991.7986707792174 100.60682242502413 L 991.7087506453053 100.50696714480392 L 991.6210438903823 100.40671037580431 L 991.535559285051 100.30606214361863 L 991.4523053777008 100.20503251298624 L 991.3712904936527 100.103631586786 L 991.2925227343279 100.00186950502604 L 991.2160099764367 99.89975644382972 L 991.1417598711909 99.79730261441809 L 991.0697798435393 99.69451826208869 L 991.0000770914246 99.59141366519111 L 990.9326585850641 99.48799913409913 L 990.8675310662521 99.38428501017967 L 990.8047010476862 99.28028166475868 L 990.744174812316 99.17599949808405 L 990.6859584127145 99.07144893828554 L 990.6300576704733 98.96664044033201 L 990.5764781756199 98.86158448498593 L 990.525225286059 98.75629157775525 L 990.4763041270372 98.65077224784297 L 990.4297195906294 98.54503704709414 L 990.3854763352505 98.43909654894075 L 990.343578785189 98.33296134734431 L 990.3040311301653 98.22664205573652 L 990.2668373249116 98.12014930595798 L 990.2320010887778 98.01349374719489 L 990.1995259053581 97.90668604491427 L 990.1694150221441 97.79973687979731 L 990.1416714501988 97.69265694667143 L 990.1162979638565 97.58545695344071 L 990.0932971004445 97.47814762001512 L 990.07267116003 97.37073967723859 L 990.0544222051899 97.26324386581588 L 990.0385520608045 97.15567093523856 L 990.025062313875 97.04803164271006 L 990.0139543133647 96.94033675206991 L 990.0052291700647 96.83259703271744 L 989.9988877564817 96.7248232585348 L 989.9949307067521 96.6170262068096 L 989.9933584165774 96.50921665715717" stroke-miterlimit="10" stroke-width="2.7769845610000004" stroke-dasharray=""/></g><g><text fill="black" stroke="none" font-family="sans-serif" font-size="11pt" font-style="normal" font-weight="normal" text-decoration="normal" x="982.4647800407552" y="124.80095321200001" text-anchor="start" dominant-baseline="alphabetic" xml:space="preserve">Database</text></g></g><g><path fill="white" stroke="black" paint-order="fill stroke markers" d=" M 302.86703742766923 183.607685092 L 319.2022407276692 183.607685092 L 319.2022407276692 820.6806137919997 L 302.86703742766923 820.6806137919997 L 302.86703742766923 183.607685092" stroke-miterlimit="10" stroke-width="1.3612669416666667" stroke-dasharray=""/><path fill="white" stroke="black" paint-order="fill stroke markers" d=" M 672.3832967770181 366.561962052 L 688.7185000770182 366.561962052 L 688.7185000770182 774.9420445519997 L 672.3832967770181 774.9420445519997 L 672.3832967770181 366.561962052" stroke-miterlimit="10" stroke-width="1.3612669416666667" stroke-dasharray=""/><path fill="white" stroke="black" paint-order="fill stroke markers" d=" M 839.0292100570312 591.987767592 L 855.3644133570313 591.987767592 L 855.3644133570313 729.2034753119998 L 839.0292100570312 729.2034753119998 L 839.0292100570312 591.987767592" stroke-miterlimit="10" stroke-width="1.3612669416666667" stroke-dasharray=""/><path fill="white" stroke="black" paint-order="fill stroke markers" d=" M 1005.6751233370442 637.7263368319999 L 1022.0103266370443 637.7263368319999 L 1022.0103266370443 683.4649060719998 L 1005.6751233370442 683.4649060719998 L 1005.6751233370442 637.7263368319999" stroke-miterlimit="10" stroke-width="1.3612669416666667" stroke-dasharray=""/><g><g><rect fill="white" stroke="none" x="100.99516659110022" y="162.371920802" width="174.38511909546875" height="21.23576429"/></g><text fill="black" stroke="none" font-family="sans-serif" font-size="11pt" font-style="normal" font-weight="normal" text-decoration="normal" x="103.44544708610022" y="177.07360377199998" text-anchor="start" dominant-baseline="alphabetic" xml:space="preserve">Click Create Group button</text></g><g><path fill="none" stroke="black" paint-order="fill stroke markers" d=" M 73.50841485 183.607685092 L 289.4177200440026 183.607685092" stroke-miterlimit="10" stroke-width="1.3612669416666667" stroke-dasharray=""/><g transform="translate(302.86703742766923,183.607685092) translate(-302.86703742766923,-183.607685092)"><path fill="black" stroke="none" paint-order="stroke fill markers" d=" M 289.25436801100255 176.80135038366666 L 302.86703742766923 183.607685092 L 289.25436801100255 190.41401980033334 Z"/></g></g><g><g><rect fill="white" stroke="none" x="92.83840542166662" y="208.110490042" width="190.69864143433594" height="21.23576429"/></g><text fill="black" stroke="none" font-family="sans-serif" font-size="11pt" font-style="normal" font-weight="normal" text-decoration="normal" x="95.28868591666662" y="222.812173012" text-anchor="start" dominant-baseline="alphabetic" xml:space="preserve">Display Create Group popup</text></g><g><path fill="none" stroke="black" paint-order="fill stroke markers" d=" M 302.86703742766923 229.346254332 L 86.95773223366666 229.346254332" stroke-miterlimit="10" stroke-width="1.3612669416666667" stroke-dasharray="6.53408132"/><g transform="translate(73.50841485,229.346254332) translate(-73.50841485,-229.346254332)"><path fill="black" stroke="none" paint-order="stroke fill markers" d=" M 87.12108426666666 222.53991962366666 L 73.50841485 229.346254332 L 87.12108426666666 236.15258904033334 Z"/></g></g><g><g><rect fill="white" stroke="none" x="118.91212826102209" y="253.849059282" width="138.551195755625" height="21.23576429"/></g><text fill="black" stroke="none" font-family="sans-serif" font-size="11pt" font-style="normal" font-weight="normal" text-decoration="normal" x="121.36240875602209" y="268.550742252" text-anchor="start" dominant-baseline="alphabetic" xml:space="preserve">Enter name of group</text></g><g><path fill="none" stroke="black" paint-order="fill stroke markers" d=" M 73.50841485 275.084823572 L 289.4177200440026 275.084823572" stroke-miterlimit="10" stroke-width="1.3612669416666667" stroke-dasharray=""/><g transform="translate(302.86703742766923,275.084823572) translate(-302.86703742766923,-275.084823572)"><path fill="black" stroke="none" paint-order="stroke fill markers" d=" M 289.25436801100255 268.27848886366667 L 302.86703742766923 275.084823572 L 289.25436801100255 281.89115828033334 Z"/></g></g><g><g><rect fill="white" stroke="none" x="151.11326961844398" y="299.587628522" width="74.14891304078125" height="21.23576429"/></g><text fill="black" stroke="none" font-family="sans-serif" font-size="11pt" font-style="normal" font-weight="normal" text-decoration="normal" x="153.56355011344397" y="314.28931149199997" text-anchor="start" dominant-baseline="alphabetic" xml:space="preserve">Click Save</text></g><g><path fill="none" stroke="black" paint-order="fill stroke markers" d=" M 73.50841485 320.823392812 L 289.4177200440026 320.823392812" stroke-miterlimit="10" stroke-width="1.3612669416666667" stroke-dasharray=""/><g transform="translate(302.86703742766923,320.823392812) translate(-302.86703742766923,-320.823392812)"><path fill="black" stroke="none" paint-order="stroke fill markers" d=" M 289.25436801100255 314.01705810366667 L 302.86703742766923 320.823392812 L 289.25436801100255 327.62972752033335 Z"/></g></g><g><g><rect fill="white" stroke="none" x="439.5593919438671" y="345.326197762" width="112.46675361695313" height="21.23576429"/></g><text fill="black" stroke="none" font-family="sans-serif" font-size="11pt" font-style="normal" font-weight="normal" text-decoration="normal" x="442.00967243886714" y="360.02788073199997" text-anchor="start" dominant-baseline="alphabetic" xml:space="preserve">POST: api/group</text></g><g><path fill="none" stroke="black" paint-order="fill stroke markers" d=" M 319.2022407276692 366.561962052 L 658.9339793933515 366.561962052" stroke-miterlimit="10" stroke-width="1.3612669416666667" stroke-dasharray=""/><g transform="translate(672.3832967770181,366.561962052) translate(-672.3832967770181,-366.561962052)"><path fill="black" stroke="none" paint-order="stroke fill markers" d=" M 658.7706273603515 359.7556273436667 L 672.3832967770181 366.561962052 L 658.7706273603515 373.36829676033335 Z"/></g></g><g><g><rect fill="white" stroke="none" x="338.5322312993359" y="435.169815912" width="314.5210749060156" height="21.23576429"/></g><text fill="red" stroke="none" font-family="sans-serif" font-size="11pt" font-style="normal" font-weight="normal" text-decoration="normal" x="340.9825117943359" y="449.87149888199997" text-anchor="start" dominant-baseline="alphabetic" xml:space="preserve">400 BAD_REQUEST: Missing required property</text></g><g><path fill="none" stroke="black" paint-order="fill stroke markers" d=" M 672.3832967770181 456.405580202 L 332.6515581113359 456.405580202" stroke-miterlimit="10" stroke-width="1.3612669416666667" stroke-dasharray="6.53408132"/><g transform="translate(319.2022407276692,456.405580202) translate(-319.2022407276692,-456.405580202)"><path fill="black" stroke="none" paint-order="stroke fill markers" d=" M 332.8149101443359 449.5992454936667 L 319.2022407276692 456.405580202 L 332.8149101443359 463.21191491033335 Z"/></g></g><g><g><rect fill="white" stroke="none" x="129.92501430838539" y="480.908385152" width="116.52542366089844" height="21.23576429"/></g><text fill="black" stroke="none" font-family="sans-serif" font-size="11pt" font-style="normal" font-weight="normal" text-decoration="normal" x="132.37529480338537" y="495.610068122" text-anchor="start" dominant-baseline="alphabetic" xml:space="preserve">Name is required</text></g><g><path fill="none" stroke="black" paint-order="fill stroke markers" d=" M 302.86703742766923 502.144149442 L 86.95773223366666 502.144149442" stroke-miterlimit="10" stroke-width="1.3612669416666667" stroke-dasharray="6.53408132"/><g transform="translate(73.50841485,502.144149442) translate(-73.50841485,-502.144149442)"><path fill="black" stroke="none" paint-order="stroke fill markers" d=" M 87.12108426666666 495.3378147336667 L 73.50841485 502.144149442 L 87.12108426666666 508.95048415033335 Z"/></g></g><g><g><rect fill="white" stroke="none" x="741.0585233024934" y="570.7520033019999" width="45.6306635290625" height="21.23576429"/></g><text fill="black" stroke="none" font-family="sans-serif" font-size="11pt" font-style="normal" font-weight="normal" text-decoration="normal" x="743.5088037974934" y="585.4536862719999" text-anchor="start" dominant-baseline="alphabetic" xml:space="preserve">save()</text></g><g><path fill="none" stroke="black" paint-order="fill stroke markers" d=" M 688.7185000770182 591.987767592 L 825.5798926733645 591.987767592" stroke-miterlimit="10" stroke-width="1.3612669416666667" stroke-dasharray=""/><g transform="translate(839.0292100570312,591.987767592) translate(-839.0292100570312,-591.987767592)"><path fill="black" stroke="none" paint-order="stroke fill markers" d=" M 825.4165406403645 585.1814328836666 L 839.0292100570312 591.987767592 L 825.4165406403645 598.7941023003333 Z"/></g></g><g><g><rect fill="white" stroke="none" x="907.7044365825064" y="616.4905725419999" width="45.6306635290625" height="21.23576429"/></g><text fill="black" stroke="none" font-family="sans-serif" font-size="11pt" font-style="normal" font-weight="normal" text-decoration="normal" x="910.1547170775065" y="631.1922555119999" text-anchor="start" dominant-baseline="alphabetic" xml:space="preserve">save()</text></g><g><path fill="none" stroke="black" paint-order="fill stroke markers" d=" M 855.3644133570313 637.7263368319999 L 992.2258059533775 637.7263368319999" stroke-miterlimit="10" stroke-width="1.3612669416666667" stroke-dasharray=""/><g transform="translate(1005.6751233370442,637.7263368319999) translate(-1005.6751233370442,-637.7263368319999)"><path fill="black" stroke="none" paint-order="stroke fill markers" d=" M 992.0624539203775 630.9200021236666 L 1005.6751233370442 637.7263368319999 L 992.0624539203775 644.5326715403332 Z"/></g></g><g><g><rect fill="white" stroke="none" x="874.6944039286979" y="662.2291417819998" width="111.65072883667969" height="21.23576429"/></g><text fill="black" stroke="none" font-family="sans-serif" font-size="11pt" font-style="normal" font-weight="normal" text-decoration="normal" x="877.1446844236979" y="676.9308247519998" text-anchor="start" dominant-baseline="alphabetic" xml:space="preserve">New Group data</text></g><g><path fill="none" stroke="black" paint-order="fill stroke markers" d=" M 1005.6751233370442 683.4649060719998 L 868.8137307406979 683.4649060719998" stroke-miterlimit="10" stroke-width="1.3612669416666667" stroke-dasharray="6.53408132"/><g transform="translate(855.3644133570313,683.4649060719998) translate(-855.3644133570313,-683.4649060719998)"><path fill="black" stroke="none" paint-order="stroke fill markers" d=" M 868.9770827736979 676.6585713636665 L 855.3644133570313 683.4649060719998 L 868.9770827736979 690.2712407803332 Z"/></g></g><g><g><rect fill="white" stroke="none" x="708.0484906486848" y="707.9677110219998" width="111.65072883667969" height="21.23576429"/></g><text fill="black" stroke="none" font-family="sans-serif" font-size="11pt" font-style="normal" font-weight="normal" text-decoration="normal" x="710.4987711436848" y="722.6693939919998" text-anchor="start" dominant-baseline="alphabetic" xml:space="preserve">New Group data</text></g><g><path fill="none" stroke="black" paint-order="fill stroke markers" d=" M 839.0292100570312 729.2034753119998 L 702.1678174606849 729.2034753119998" stroke-miterlimit="10" stroke-width="1.3612669416666667" stroke-dasharray="6.53408132"/><g transform="translate(688.7185000770182,729.2034753119998) translate(-688.7185000770182,-729.2034753119998)"><path fill="black" stroke="none" paint-order="stroke fill markers" d=" M 702.3311694936849 722.3971406036665 L 688.7185000770182 729.2034753119998 L 702.3311694936849 736.0098100203331 Z"/></g></g><g><g><rect fill="white" stroke="none" x="403.8471498174023" y="753.7062802619997" width="183.89123786988281" height="21.23576429"/></g><text fill="green" stroke="none" font-family="sans-serif" font-size="11pt" font-style="normal" font-weight="normal" text-decoration="normal" x="406.2974303124023" y="768.4079632319997" text-anchor="start" dominant-baseline="alphabetic" xml:space="preserve">201 CREATED: Group data</text></g><g><path fill="none" stroke="black" paint-order="fill stroke markers" d=" M 672.3832967770181 774.9420445519997 L 332.6515581113359 774.9420445519997" stroke-miterlimit="10" stroke-width="1.3612669416666667" stroke-dasharray="6.53408132"/><g transform="translate(319.2022407276692,774.9420445519997) translate(-319.2022407276692,-774.9420445519997)"><path fill="black" stroke="none" paint-order="stroke fill markers" d=" M 332.8149101443359 768.1357098436664 L 319.2022407276692 774.9420445519997 L 332.8149101443359 781.7483792603331 Z"/></g></g><g><g><rect fill="white" stroke="none" x="103.84771328299475" y="799.4448495019997" width="168.6800257116797" height="21.23576429"/></g><text fill="black" stroke="none" font-family="sans-serif" font-size="11pt" font-style="normal" font-weight="normal" text-decoration="normal" x="106.29799377799475" y="814.1465324719996" text-anchor="start" dominant-baseline="alphabetic" xml:space="preserve">Create Group Successful</text></g><g><path fill="none" stroke="black" paint-order="fill stroke markers" d=" M 302.86703742766923 820.6806137919997 L 86.95773223366666 820.6806137919997" stroke-miterlimit="10" stroke-width="1.3612669416666667" stroke-dasharray="6.53408132"/><g transform="translate(73.50841485,820.6806137919997) translate(-73.50841485,-820.6806137919997)"><path fill="black" stroke="none" paint-order="stroke fill markers" d=" M 87.12108426666666 813.8742790836664 L 73.50841485 820.6806137919997 L 87.12108426666666 827.486948500333 Z"/></g></g><g><g/><path fill="none" stroke="black" paint-order="fill stroke markers" d=" M 16.335203299999996 391.064767002 L 1071.0159365370441 391.064767002 L 1071.0159365370441 845.1834187419997 L 16.335203299999996 845.1834187419997 L 16.335203299999996 391.064767002 Z" stroke-miterlimit="10" stroke-width="2.3336004714285714" stroke-dasharray=""/><path fill="white" stroke="black" paint-order="fill stroke markers" d=" M 16.335203299999996 391.064767002 L 16.335203299999996 410.667010962 L 62.69440689707031 410.667010962 L 72.49552887707031 400.865888982 L 72.49552887707031 391.064767002 L 16.335203299999996 391.064767002" stroke-miterlimit="10" stroke-width="2.3336004714285714" stroke-dasharray=""/><text fill="black" stroke="none" font-family="sans-serif" font-size="8.8pt" font-style="normal" font-weight="bold" text-decoration="normal" x="32.67040659999999" y="404.132929642" text-anchor="start" dominant-baseline="alphabetic" xml:space="preserve">alt</text><g><rect fill="white" stroke="none" x="86.38045168207032" y="392.371583266" width="157.41902412476563" height="16.988611432000003"/></g><text fill="black" stroke="none" font-family="sans-serif" font-size="8.8pt" font-style="normal" font-weight="bold" text-decoration="normal" x="88.83073217707032" y="404.132929642" text-anchor="start" dominant-baseline="alphabetic" xml:space="preserve">[if Name do not have value]</text><g><path fill="none" stroke="black" paint-order="fill stroke markers" d=" M 16.335203299999996 526.646954392 L 1071.0159365370441 526.646954392" stroke-miterlimit="10" stroke-width="2.3336004714285714" stroke-dasharray="4.083800825"/></g><g/></g><g/></g></g></svg>