<svg version="1.1" xmlns="http://www.w3.org/2000/svg" xmlns:xlink="http://www.w3.org/1999/xlink" width="900" height="698"><desc>title%20Create%20Post%0A%0A%0Aactor%20%23green%3A0.5%20%22Workspace%20User%22%20as%20w%0Aboundary%20%22Application%20Client%22%20as%20f%0Acontrol%20%22Post%20Controller%22%20as%20gc%0Aparticipant%20%22Post%20Service%22%20as%20gs%0A%0Adatabase%20%23blue%3A1%20%22Database%22%20as%20db%0A%0Aw-%3Ef%3AGo%20to%20group's%20newfeed%20page%0Aactivate%20f%0Aw-%3Ef%3AClick%20input%20write%20something%0A%0Aw%3C--f%3ACreate%20post%20popup%0Aw-%3Ef%3AType%20content%20and%20click%20Post%20button%0A%0Af-%3Egc%3APOST%3A%20%2Fapi%2Fpost%0Aactivate%20gc%0A%0Agc-%3Egs%3Asave()%0Aactivate%20gs%0Ags-%3Edb%3Asave()%0Aactivate%20db%0Ags%3C--db%3APost%20value%0Adeactivate%20db%0A%0Agc%3C--gs%3APost%20value%0Adeactivate%20gs%0A%0Af%3C--gc%3A%3Ccolor%3A%23green%3E201%20CREATED%3A%20Post%20value%3C%2Fcolor%3E%0Adeactivate%20gc%0A%0Aw%3C--f%3A%20Display%20group%20news%20feed%20with%20new%20Post%0Adeactivate%20f%0A</desc><defs/><g><g/><g/><g/><g/><g/><g/><g/><g/><g/><g/><g/><g/><g/><g/><g/><g/><g><rect fill="white" stroke="none" x="0" y="0" width="900" height="698"/></g><g><text fill="black" stroke="none" font-family="sans-serif" font-size="16.5pt" font-style="normal" font-weight="normal" text-decoration="normal" x="392.1757011379069" y="24.50280495" text-anchor="start" dominant-baseline="alphabetic" xml:space="preserve">Create Post</text></g><g/><g><path fill="none" stroke="black" paint-order="fill stroke markers" d=" M 62.20838076376953 129.701514202 L 62.20838076376953 698.1665890419999" stroke-miterlimit="10" stroke-width="1.3612669416666667" stroke-dasharray="12.565541,5.445067766666667"/><path fill="none" stroke="black" paint-order="fill stroke markers" d=" M 368.9901286730794 129.701514202 L 368.9901286730794 698.1665890419999" stroke-miterlimit="10" stroke-width="1.3612669416666667" stroke-dasharray="12.565541,5.445067766666667"/><path fill="none" stroke="black" paint-order="fill stroke markers" d=" M 602.9803260107096 129.701514202 L 602.9803260107096 698.1665890419999" stroke-miterlimit="10" stroke-width="1.3612669416666667" stroke-dasharray="12.565541,5.445067766666667"/><path fill="none" stroke="black" paint-order="fill stroke markers" d=" M 731.3298678307617 129.701514202 L 731.3298678307617 698.1665890419999" stroke-miterlimit="10" stroke-width="1.3612669416666667" stroke-dasharray="12.565541,5.445067766666667"/><path fill="none" stroke="black" paint-order="fill stroke markers" d=" M 859.6794096508138 129.701514202 L 859.6794096508138 698.1665890419999" stroke-miterlimit="10" stroke-width="1.3612669416666667" stroke-dasharray="12.565541,5.445067766666667"/></g><g><g><path fill="white" stroke="green" paint-order="fill stroke markers" d=" M 71.51944664476953 60.60360424300001 A 9.311065881 9.311065881 0 1 1 71.51944198923698 60.594293178670846 M 62.20838076376953 69.91467012400001 L 62.20838076376953 89.84361815000001 M 50.447034387769534 77.102159576 L 73.96972713976953 77.102159576 M 62.20838076376953 89.84361815000001 L 50.447034387769534 108.465749912 M 62.20838076376953 89.84361815000001 L 73.96972713976953 108.465749912" stroke-miterlimit="10" stroke-width="1.3884922805000002" stroke-dasharray=""/></g><g><text fill="black" stroke="none" font-family="sans-serif" font-size="11pt" font-style="normal" font-weight="normal" text-decoration="normal" x="8.167601650000002" y="124.80095321200001" text-anchor="start" dominant-baseline="alphabetic" xml:space="preserve">Workspace User</text></g><g><path fill="white" stroke="black" paint-order="fill stroke markers" d=" M 401.4155072235794 82.819480731 A 24.2577769005 24.2577769005 0 1 1 401.415495094692 82.79522295814245 M 337.9532424030794 57.17321154999999 L 337.9532424030794 108.465749912 M 336.5647501225794 82.819480731 L 352.8999534225794 82.819480731" stroke-miterlimit="10" stroke-width="2.7769845610000004" stroke-dasharray=""/></g><g><text fill="black" stroke="none" font-family="sans-serif" font-size="11pt" font-style="normal" font-weight="normal" text-decoration="normal" x="312.3545085558919" y="124.80095321200001" text-anchor="start" dominant-baseline="alphabetic" xml:space="preserve">Application Client</text></g><g><path fill="white" stroke="black" paint-order="fill stroke markers" d=" M 627.2381029112096 82.819480731 A 24.2577769005 24.2577769005 0 1 1 627.2380907823222 82.79522295814245 M 599.7132853507096 58.561703830499994 L 609.5144073307096 50.39410218049999 M 599.7132853507096 58.561703830499994 L 609.5144073307096 66.72930548049999" stroke-miterlimit="10" stroke-width="2.7769845610000004" stroke-dasharray=""/></g><g><text fill="black" stroke="none" font-family="sans-serif" font-size="11pt" font-style="normal" font-weight="normal" text-decoration="normal" x="554.5014670629557" y="124.80095321200001" text-anchor="start" dominant-baseline="alphabetic" xml:space="preserve">Post Controller</text></g><path fill="none" stroke="none"/><g><path fill="white" stroke="black" paint-order="fill stroke markers" d=" M 672.4608856902031 85.75981732500001 L 790.1988499713203 85.75981732500001 L 790.1988499713203 129.701514202 L 672.4608856902031 129.701514202 L 672.4608856902031 85.75981732500001 Z" stroke-miterlimit="10" stroke-width="2.613632528" stroke-dasharray=""/></g><g><text fill="black" stroke="none" font-family="sans-serif" font-size="11pt" font-style="normal" font-weight="normal" text-decoration="normal" x="690.1845812707031" y="113.36631090200002" text-anchor="start" dominant-baseline="alphabetic" xml:space="preserve">Post Service</text></g><g><path fill="white" stroke="blue" paint-order="fill stroke markers" d=" M 835.8300128328138 97.684515734 L 835.8300128328138 63.380588804000006 L 883.5288064688137 63.380588804000006 L 883.5288064688137 97.684515734" stroke-miterlimit="10" stroke-width="2.7769845610000004" stroke-dasharray=""/><path fill="white" stroke="blue" paint-order="fill stroke markers" d=" M 883.5288064688137 62.1881189631 L 883.5276140089101 62.29592950801663 L 883.524036748444 62.403729271968594 L 883.5180750451387 62.51150747506936 L 883.5097294951594 62.619253339588404 L 883.4990009330542 62.72695609102909 L 883.4858904316703 62.834604959206004 L 883.4703993020471 62.94218917932205 L 883.4525290932845 63.04969799304486 L 883.4322815923884 63.15712064958265 L 883.4096588240923 63.2644464067593 L 883.3846630506539 63.371664532088516 L 883.3572967716299 63.47876430384712 L 883.3275627236253 63.58573501214718 L 883.2954638800202 63.692565960007016 L 883.2610034506721 63.79924646442086 L 883.2241848815953 63.90576585742718 L 883.1850118546159 64.01211348717543 L 883.1434882870042 64.11827871899126 L 883.0996183310822 64.22425093643996 L 883.0534063738088 64.3300195423881 L 883.0048570363415 64.43557396006322 L 882.9539751735734 64.54090363411153 L 882.9007658736485 64.64599803165338 L 882.8452344574523 64.75084664333659 L 882.7873864780803 64.85543898438739 L 882.7272277202821 64.95976459565881 L 882.6647641998835 65.06381304467668 L 882.6000021631843 65.16757392668278 L 882.5329480863343 65.27103686567541 L 882.4636086746854 65.37419151544687 L 882.3919908621207 65.47702756061814 L 882.318101810362 65.5795347176704 L 882.241948908253 65.68170273597339 L 882.1635397710202 65.7835213988104 L 882.0828822395121 65.88498052439998 L 881.9999843794146 65.98606996691414 L 881.9148544804448 66.08677961749288 L 881.8275010555213 66.18709940525505 L 881.7379328399142 66.28701929830548 L 881.6461587903701 66.38652930473813 L 881.5521880842177 66.48561947363528 L 881.4560301184491 66.58427989606261 L 881.357694508781 66.6825007060601 L 881.2571910886923 66.7802720816286 L 881.1545299084411 66.87758424571203 L 881.04972123406 66.97442746717506 L 880.9427755463291 67.07079206177627 L 880.8337035397282 67.1666683931365 L 880.7225161213669 67.2620468737025 L 880.6092244098943 67.35691796570569 L 880.4938397343874 67.45127218211596 L 880.3763736332173 67.54510008759026 L 880.2568378528964 67.63839229941624 L 880.1352443469032 67.73113948845047 L 880.0116052744868 67.82333238005134 L 879.8859329994514 67.9149617550065 L 879.7582400889199 68.00601845045483 L 879.6285393120769 68.09649336080267 L 879.496843638892 68.18637743863435 L 879.3631662388227 68.27566169561702 L 879.2275204794978 68.36433720339936 L 879.08991992538 68.45239509450451 L 878.95037833641 68.53982656321674 L 878.8089096666307 68.62662286646201 L 878.6655280627909 68.71277532468237 L 878.5202478629318 68.79827532270376 L 878.3730835949519 68.88311431059763 L 878.2240499751558 68.9672838045359 L 878.0731619067809 69.0507753876393 L 877.9204344785086 69.13358071081912 L 877.7658829629543 69.21569149361203 L 877.6095228151408 69.29709952500816 L 877.4513696709525 69.37779666427225 L 877.2914393455723 69.45777484175761 L 877.1297478318991 69.53702605971311 L 876.9663112989498 69.61554239308303 L 876.8011460902412 69.69331599029945 L 876.6342687221569 69.77033907406746 L 876.4656958822944 69.84660394214286 L 876.2954444277973 69.92210296810242 L 876.1235313836692 69.99682860210643 L 875.9499739410711 70.07077337165379 L 875.7747894556028 70.14392988232913 L 875.5979954455668 70.21629081854239 L 875.4196095902167 70.28784894426022 L 875.2396497279894 70.35859710372968 L 875.0581338547214 70.42852822219379 L 874.8750801218484 70.49763530659898 L 874.6905068345915 70.5659114462944 L 874.5044324501253 70.63334981372294 L 874.3168755757333 70.69994366510412 L 874.1278549669466 70.76568634110825 L 873.9373895256688 70.83057126752253 L 873.7454982982849 70.89459195590838 L 873.5522004737581 70.95774200425032 L 873.3575153817096 71.02001509759614 L 873.1614624904864 71.08140500868842 L 872.9640614052142 71.14190559858717 L 872.7653318658372 71.20151081728383 L 872.5652937451434 71.26021470430622 L 872.3639670467785 71.31801138931453 L 872.1613719032445 71.37489509268845 L 871.9575285738866 71.43086012610503 L 871.7524574428684 71.48590089310757 L 871.5461790171316 71.54001188966522 L 871.3387139243473 71.59318770472345 L 871.1300829108516 71.64542302074504 L 870.9203068395722 71.69671261424193 L 870.7094066879412 71.7470513562975 L 870.4974035457981 71.79643421307951 L 870.2843186132804 71.84485624634341 L 870.0701731987041 71.89231261392625 L 869.8549887164318 71.93879857023082 L 869.6387866847325 71.9843094667002 L 869.4215887236294 72.02884075228269 L 869.2034165527374 72.07238797388683 L 868.9842919890918 72.11494677682676 L 868.7642369449665 72.15651290525764 L 868.5432734256824 72.19708220260128 L 868.3214235274074 72.23665061196175 L 868.0987094349464 72.27521417653107 L 867.8751534195229 72.31276903998494 L 867.6507778365525 72.3493114468683 L 867.4256051234062 72.38483774297092 L 867.1996577971678 72.41934437569277 L 866.9729584523816 72.45282789439938 L 866.7455297587932 72.48528495076673 L 866.5173944590823 72.51671229911628 L 866.288575366589 72.54710679673934 L 866.0590953630317 72.5764654042115 L 865.8289773962197 72.60478518569649 L 865.5982444777576 72.63206330923974 L 865.3669196807452 72.65829704705163 L 865.1350261374694 72.68348377578025 L 864.9025870370913 72.70762097677371 L 864.6696256233272 72.73070623633201 L 864.4361651921242 72.75273724594847 L 864.2022290893312 72.77371180254045 L 863.9678407083633 72.79362780866978 L 863.7330234878633 72.81248327275246 L 863.4978009093577 72.83027630925778 L 863.262196494908 72.84700513889692 L 863.0262338047597 72.86266808880085 L 862.7899364349851 72.87726359268764 L 862.5533280151241 72.89079019101906 L 862.3164322058215 72.90324653114655 L 862.079272696461 72.91463136744649 L 861.8418732027958 72.9249435614447 L 861.6042574645774 72.93418208193043 L 861.3664492431817 72.94234600505929 L 861.1284723192326 72.94943451444577 L 860.8903504902243 72.95544690124485 L 860.6521075681411 72.96038256422287 L 860.4137673770767 72.96424100981763 L 860.1753537508517 72.9670218521878 L 859.93689053063 72.96872481325143 L 859.6984015625349 72.96934972271386 L 859.4599106952643 72.96889651808466 L 859.2214417777064 72.96736524468392 L 858.9830186565542 72.96475605563768 L 858.7446651739212 72.96106921186271 L 858.5064051649568 72.95630508204027 L 858.2682624554636 72.9504641425794 L 858.030260859514 72.94354697756918 L 857.7924241770692 72.93555427872033 L 857.5547761915992 72.9264868452961 L 857.3173406677047 72.91634558403224 L 857.08014134874 72.90513150904647 L 856.8432019544396 72.89284574173689 L 856.6065461785453 72.87948951067006 L 856.3701976864375 72.86506415145789 L 856.1341801127684 72.84957110662431 L 855.8985170590988 72.8330119254609 L 855.6632320915377 72.81538826387197 L 855.4283487383857 72.79670188420899 L 855.1938904877824 72.77695465509434 L 854.9598807853575 72.7561485512345 L 854.7263430318861 72.73428565322251 L 854.4933005809493 72.71136814732996 L 854.2607767365976 72.68739832528833 L 854.0287947510217 72.66237858405984 L 853.7973778222271 72.63631142559778 L 853.5665490917136 72.60919945659627 L 853.336331642162 72.58104538822961 L 853.1067484951254 72.55185203588118 L 852.8778226087271 72.5216223188619 L 852.6495768753651 72.49035926011825 L 852.4220341194225 72.45806598593009 L 852.1952170949852 72.4247457255979 L 851.9691484835668 72.39040181111994 L 851.7438508918398 72.35503767685907 L 851.5193468493757 72.31865685919922 L 851.2956588063918 72.28126299619186 L 851.0728091315059 72.24285982719209 L 850.8508201094998 72.20345119248485 L 850.6297139390907 72.16304103290075 L 850.4095127307113 72.12163338942209 L 850.1902385042991 72.07923240277869 L 849.971913187094 72.03584231303388 L 849.7545586114455 71.99146745916049 L 849.5381965126305 71.94611227860693 L 849.3228485266782 71.89978130685344 L 849.108536188208 71.85247917695861 L 848.8952809282748 71.80421061909601 L 848.6831040722274 71.75498046008119 L 848.472026837574 71.70479362288901 L 848.2620703318627 71.65365512616141 L 848.0532555505688 71.60157008370541 L 847.8456033749965 71.54854370398188 L 847.6391345701903 71.49458128958457 L 847.4338697828587 71.43968823671 L 847.2298295393092 71.38387003461766 L 847.0270342433962 71.32713226508127 L 846.8255041744804 71.26948060183051 L 846.6252594854008 71.21092080998365 L 846.4263202004591 71.15145874547107 L 846.2287062134184 71.0911003544497 L 846.0324372855125 71.0298516727083 L 845.8375330434707 70.96771882506403 L 845.6440129775548 70.90470802474988 L 845.45189643961 70.84082557279336 L 845.2612026411302 70.77607785738643 L 845.0719506513362 70.71047135324669 L 844.8841593952693 70.64401262096986 L 844.6978476518987 70.5767083063738 L 844.5130340522433 70.50856513983389 L 844.3297370775092 70.43958993560999 L 844.147975057241 70.36978959116503 L 843.9677661674895 70.29917108647531 L 843.7891284289932 70.22774148333244 L 843.6120797053773 70.1555079246372 L 843.4366377013664 70.08247763368529 L 843.262819961015 70.00865791344492 L 843.0906438659521 69.9340561458266 L 842.9201266336437 69.85867979094495 L 842.7512853156711 69.78253638637263 L 842.5841367960252 69.70563354638664 L 842.4186977894188 69.62797896120689 L 842.2549848396146 69.54958039622719 L 842.0930143177713 69.47044569123871 L 841.9328024208061 69.39058275964601 L 841.7743651697749 69.30999958767568 L 841.6177184082711 69.22870423357777 L 841.4628778008403 69.14670482681996 L 841.309858831414 69.06400956727457 L 841.1586768017617 68.98062672439866 L 841.0093468299604 68.89656463640702 L 840.8618838488828 68.8118317094384 L 840.7163026047043 68.72643641671489 L 840.5726176554278 68.6403872976946 L 840.4308433694287 68.55369295721772 L 840.2909939240172 68.46636206464606 L 840.1530833040215 68.37840335299609 L 840.0171253003884 68.28982561806569 L 839.8831335088054 68.20063771755453 L 839.7511213283397 68.11084857017835 L 839.6211019600993 68.02046715477704 L 839.4930884059128 67.92950250941684 L 839.3670934670289 67.83796373048648 L 839.2431297428366 67.74585997178757 L 839.1212096296049 67.65320044361923 L 839.0013453192435 67.55999441185705 L 838.8835487980836 67.46625119702654 L 838.7678318456791 67.37198017337107 L 838.6542060336288 67.27719076791445 L 838.5426827244195 67.18189245951821 L 838.4332730702888 67.08609477793381 L 838.3259880121111 66.98980730284956 L 838.2208382783028 66.89303966293272 L 838.1178343837498 66.79580153486665 L 838.0169866287555 66.69810264238313 L 837.9183050980114 66.59995275528999 L 837.8217996595885 66.50136168849414 L 837.72747996395 66.40233930102012 L 837.635355442987 66.30289549502413 L 837.5454353090748 66.20304021480393 L 837.4577285541519 66.1027834458043 L 837.3722439488206 66.00213521361863 L 837.2889900414704 65.90110558298623 L 837.2079751574223 65.799704656786 L 837.1292073980975 65.69794257502603 L 837.0526946402063 65.59582951382973 L 836.9784445349604 65.4933756844181 L 836.9064645073089 65.3905913320887 L 836.8367617551942 65.28748673519112 L 836.7693432488337 65.18407220409914 L 836.7042157300217 65.08035808017966 L 836.6413857114558 64.97635473475869 L 836.5808594760856 64.87207256808405 L 836.5226430764841 64.76752200828555 L 836.4667423342429 64.66271351033203 L 836.4131628393894 64.55765755498592 L 836.3619099498286 64.45236464775525 L 836.3129887908068 64.34684531784296 L 836.2664042543989 64.24111011709415 L 836.22216099902 64.13516961894075 L 836.1802634489586 64.0290344173443 L 836.1407157939349 63.92271512573653 L 836.1035219886812 63.81622237595798 L 836.0686857525474 63.70956681719489 L 836.0362105691277 63.602759114914264 L 836.0060996859137 63.49580994979732 L 835.9783561139684 63.38873001667144 L 835.952982627626 63.28153002344071 L 835.9299817642141 63.17422069001512 L 835.9093558237996 63.066812747238586 L 835.8911068689595 62.959316935815885 L 835.875236724574 62.85174400523857 L 835.8617469776445 62.74410471271006 L 835.8506389771343 62.636409822069915 L 835.8419138338343 62.52867010271744 L 835.8355724202513 62.4208963285348 L 835.8316153705217 62.313099276809595 L 835.830043080347 62.20528972715717 L 835.8308557069549 62.09747846044265 L 835.8340531690835 61.98967625770286 L 835.8396351469892 61.88189389906824 L 835.8476010824788 61.77414216268484 L 835.8579501789656 61.66643182363649 L 835.8706814015484 61.558773652867366 L 835.8857934771155 61.4511784161048 L 835.9032848944721 61.34365687278283 L 835.9231539044908 61.236219774966166 L 835.9453985202875 61.12887786627507 L 835.970016517419 61.02164188081096 L 835.997005434106 60.91452254208302 L 836.0263625714794 60.807530561935856 L 836.0580849938499 60.70067663947832 L 836.0921695290018 60.593971460013606 L 836.1286127685098 60.487425693970756 L 836.1674110680806 60.381049995837586 L 836.2085605479162 60.27485500309525 L 836.2520570931033 60.16885133515453 L 836.2978963540234 60.06304959229389 L 836.3460737467885 59.95746035459945 L 836.3965844536998 59.852094180906974 L 836.4494234237284 59.746961607746044 L 836.5045853730215 59.64207314828636 L 836.5620647854302 59.537439291286454 L 836.6218559130609 59.43307050004484 L 836.6839527768508 59.32897721135367 L 836.7483491671653 59.22516983445505 L 836.8150386444191 59.12165875000019 L 836.8840145397199 59.01845430901127 L 836.9552699555358 58.91556683184637 L 837.0287977663844 58.81300660716748 L 837.104590619546 58.7107838909116 L 837.1826409357984 58.60890890526517 L 837.2629409101752 58.507391837641855 L 837.3454825127455 58.406242839663825 L 837.4302574894183 58.30547202614659 L 837.5172573627663 58.205089474087515 L 837.6064734328746 58.105105221658164 L 837.6978967782107 58.00552926720046 L 837.7915182565163 57.90637156822687 L 837.8873285057213 57.807642040424646 L 837.9853179448809 57.709350556664305 L 838.0854767751327 57.61150694601232 L 838.1877949806773 57.514120992748204 L 838.2922623297791 57.417202435386145 L 838.3988683757906 57.320760965701105 L 838.5076024581958 57.224806227759686 L 838.6184537036771 57.12934781695572 L 838.7314110272025 57.03439527905074 L 838.8464631331336 56.93995810921942 L 838.9635985163558 56.84604575110002 L 839.0828054634281 56.75266759585011 L 839.2040720537556 56.65983298120741 L 839.32738616078 56.567551190555996 L 839.4527354531934 56.47583145199805 L 839.5801073961711 56.384682937430995 L 839.709489252625 56.29411476163032 L 839.840868084477 56.20413598133814 L 839.9742307539536 56.1147555943575 L 840.109563924899 56.02598253865261 L 840.2468540641089 55.937825691455075 L 840.3860874426837 55.85029386837614 L 840.5272501374016 55.763395822525176 L 840.6703280321107 55.677140243634355 L 840.8153068191408 55.591535757189675 L 840.9621720007341 55.50659092356846 L 841.1109088904948 55.42231423718327 L 841.2615026148577 55.33871412563253 L 841.4139381145761 55.25579894885771 L 841.5682001462269 55.1735769983074 L 841.7242732837356 55.092056496108135 L 841.8821419199184 55.01124559424221 L 842.0417902680433 54.93115237373246 L 842.2032023634084 54.851784843834196 L 842.3663620649389 54.77315094123426 L 842.5312530568004 54.6952585292574 L 842.6978588500314 54.61811539707989 L 842.8661627841911 54.54172925895067 L 843.0361480290264 54.46610775341989 L 843.2077975861547 54.391258442575094 L 843.3810942907631 54.317188811284986 L 843.5560208133256 54.24390626645098 L 843.7325596613358 54.171418136266475 L 843.9106931810559 54.09973166948409 L 844.0904035592824 54.028854034690774 L 844.2716728251273 53.95879231959093 L 844.454482851815 53.88955353029769 L 844.6388153584952 53.82114459063227 L 844.824651912071 53.753572341431656 L 845.0119739290416 53.68684353986444 L 845.2007626773615 53.62096485875517 L 845.3909992783133 53.55594288591707 L 845.5826647083954 53.49178412349323 L 845.7757398012245 53.42849498730643 L 845.9702052494522 53.366081806217544 L 846.1660416066958 53.304550821492676 L 846.3632292894825 53.24390818617902 L 846.5617485792088 53.18415996448957 L 846.7615796241108 53.12531213119671 L 846.9627024412506 53.067370571034715 L 847.1650969185142 53.01034107811134 L 847.3687428166226 52.95422935532834 L 847.5736197711553 52.89904101381123 L 847.779707294588 52.84478157234818 L 847.9869847783399 52.79145645683812 L 848.1954314948354 52.73907099974815 L 848.4050265995766 52.687630439580346 L 848.6157491332275 52.637139920347835 L 848.8275780237105 52.58760449106049 L 849.0404920883132 52.53902910521993 L 849.2544700358063 52.49141862032429 L 849.4694904685736 52.444777797382365 L 849.6855318847507 52.399111300437596 L 849.9025726803762 52.354423696101605 L 850.1205911515516 52.3107194530976 L 850.3395654966112 52.26800294181345 L 850.5594738183029 52.2262784338647 L 850.7802941259781 52.18555010166736 L 851.0020043377898 52.14582201802072 L 851.2245822829017 52.10709815570004 L 851.4480057037047 52.06938238705927 L 851.6722522580428 52.032678483643856 L 851.8972995214477 51.996990115813546 L 852.1231249893805 51.96232085237539 L 852.3497060794825 51.928674160226834 L 852.5770201338337 51.89605340400906 L 852.8050444212178 51.8644618457705 L 853.0337561393962 51.833902644640645 L 853.2631324173879 51.80437885651416 L 853.493150317756 51.775893433745246 L 853.7237868389021 51.74844922485244 L 853.9550189173665 51.722048974233765 L 854.1868234301338 51.69669532189228 L 854.4191771969462 51.672390803172085 L 854.6520569826204 51.649137848504814 L 854.885439499372 51.626938783166544 L 855.1193014091438 51.60579582704531 L 855.3536193259396 51.58571109441911 L 855.5883698181631 51.56668659374447 L 855.8235294109606 51.54872422745561 L 856.059074588569 51.53182579177417 L 856.2949817966667 51.515992976529645 L 856.5312274447294 51.50122736499037 L 856.7677879083892 51.4875304337052 L 857.004639531797 51.47490355235584 L 857.2417586299877 51.4633479836199 L 857.4791214912491 51.45286488304463 L 857.7167043794929 51.443455298931354 L 857.9544835366281 51.43512017223063 L 858.1924351849375 51.4278603364482 L 858.4305355294542 51.42167651756158 L 858.6687607603424 51.41656933394751 L 858.9070870552774 51.41253929632009 L 859.1454905818284 51.40958680767973 L 859.3839474998413 51.407712163272826 L 859.6224339638231 51.40691555056227 L 859.8609261253262 51.40719704920866 L 860.099400135333 51.40855663106237 L 860.3378321466414 51.41099416016634 L 860.5761983162489 51.414509392769695 L 860.8144748077372 51.419101977352106 L 861.0526377936557 51.42477145465894 L 861.2906634579042 51.431517257747196 L 861.5285279981147 51.43933871204218 L 861.7662076280313 51.44823503540498 L 862.0036785798894 51.45820533821068 L 862.2409171067914 51.4692486234373 L 862.4778994850823 51.48136378676553 L 862.7146020167219 51.49454961668913 L 862.9510010316542 51.50880479463608 L 863.1870728901748 51.524127895100484 L 863.4227939852944 51.54051738578506 L 863.6581407451001 51.5579716277544 L 863.893089635112 51.57648887559884 L 864.1276171606368 51.59606727760904 L 864.3616998691175 51.6167048759611 L 864.5953143524782 51.6383996069124 L 864.8284372494653 51.66114930100791 L 865.0610452479834 51.684951683297186 L 865.2931150874265 51.70980437356183 L 865.524623561004 51.735704886553535 L 865.7555475180615 51.76265063224257 L 865.9858638663957 51.79063891607683 L 866.2155495745636 51.81966693925126 L 866.444581674186 51.849731798987726 L 866.6729372622436 51.88083048882531 L 866.9005935033681 51.91295989892094 L 867.1275276321248 51.94611681636038 L 867.3537169552902 51.980297925479526 L 867.5791388541205 52.01549980819594 L 867.8037707866134 52.0517189443507 L 868.0275902897631 52.08895171206036 L 868.2505749818057 52.127194388079175 L 868.4727025644577 52.16644314817141 L 868.6939508251462 52.20669406749378 L 868.9142976392293 52.247943120987884 L 869.1337209722092 52.29018618378274 L 869.3521988819356 52.33341903160728 L 869.5697095207995 52.37763734121275 L 869.7862311379183 52.422836690805035 L 870.0017420813107 52.46901256048684 L 870.2162208000619 52.516160332709674 L 870.4296458464789 52.564275292735616 L 870.6419958782349 52.613352629108746 L 870.8532496605036 52.663387434136325 L 871.0633860680828 52.71437470437956 L 871.2723840875068 52.7663093411539 L 871.480222819148 52.819186151038956 L 871.6868814793063 52.8729998463978 L 871.892339402288 52.92774504590574 L 872.096576042472 52.983416275088445 L 872.2995709763643 53.040007966869396 L 872.5013039046408 53.09751446212657 L 872.701754654177 53.15593001025836 L 872.9009031800646 53.21524876975863 L 873.0987295676172 53.27546480880087 L 873.2952140343608 53.33657210583136 L 873.4903369320126 53.3985645501713 L 873.6840787484454 53.461435942627936 L 873.8764201096387 53.52517999611441 L 874.0673417816172 53.58979033627848 L 874.2568246723723 53.655260502139996 L 874.4448498337732 53.721583946736914 L 874.6313984634603 53.78875403778004 L 874.816451906726 53.85676405831625 L 874.9999916583803 53.92560720740017 L 875.181999364601 53.995276600774254 L 875.3624568247691 54.065765271557225 L 875.5413459932889 54.13706617094075 L 875.7186489813927 54.2091721688943 L 875.8943480589295 54.28207605487816 L 876.0684256561378 54.35577053856451 L 876.2408643654031 54.43024825056637 L 876.4116469429981 54.50550174317461 L 876.5807563108074 54.581523491102686 L 876.748175558035 54.658305892239156 L 876.9138879428958 54.73584126840789 L 877.0778768942895 54.81412186613588 L 877.2401260134575 54.89313985742859 L 877.4006190756231 54.97288734055273 L 877.5593400316139 55.05335634082646 L 877.7162730094665 55.1345388114168 L 877.8714023160138 55.21642663414435 L 878.0247124384547 55.29901162029506 L 878.1761880459044 55.38228551143916 L 878.3258139909285 55.46623998025691 L 878.4735753110573 55.55086663137139 L 878.6194572302818 55.63615700218803 L 878.7634451605317 55.722102563740805 L 878.9055247031339 55.80869472154519 L 879.0456816502526 55.89592481645755 L 879.1839019863098 55.98378412554111 L 879.3201718893872 56.07226386293816 L 879.454477732608 56.1613551807487 L 879.5868060854998 56.251049169915184 L 879.7171437153374 56.34133686111345 L 879.8454775884668 56.4322092256496 L 879.9717948716075 56.52365717636293 L 880.0960829331361 56.615671568534566 L 880.2183293443505 56.70824320080196 L 880.3385218807113 56.80136281607904 L 880.4566485230649 56.89502110248188 L 880.5726974588456 56.98920869425987 L 880.6866570832565 57.083916172732344 L 880.7985160004301 57.17913406723036 L 880.908263024568 57.27485285604382 L 881.0158871810592 57.37106296737362 L 881.1213777075776 57.467754780288786 L 881.2247240551586 57.56491862568861 L 881.3259158892536 57.662544787269525 L 881.4249430907635 57.76062350249672 L 881.5217957570504 57.859144963580405 L 881.6164642029288 57.95809931845658 L 881.7089389616327 58.05747667177222 L 881.7992107857635 58.15726708587479 L 881.8872706482139 58.257460581806065 L 881.973109743071 58.358047140299924 L 882.056719486497 58.459016702784346 L 882.1380915175869 58.56035917238722 L 882.2172176992058 58.66206441494605 L 882.2940901188013 58.764122260021324 L 882.3687010891954 58.866522501913586 L 882.4410431493534 58.96925490068398 L 882.5111090651296 59.072309183178234 L 882.5788918299907 59.17567504405398 L 882.6443846657166 59.279342146811274 L 882.7075810230785 59.38330012482622 L 882.7684745824932 59.48753858238766 L 882.8270592546556 59.59204709573668 L 882.8833291811472 59.69681521410906 L 882.9372787350225 59.80183246078026 L 882.9889025213707 59.907088334113126 L 883.0381953778564 60.012572308608036 L 883.085152375235 60.11827383595545 L 883.1297688178458 60.22418234609071 L 883.1720402440819 60.33028724825106 L 883.2119624268357 60.43657793203471 L 883.2495313739224 60.54304376846186 L 883.2847433284784 60.64967411103757 L 883.3175947693378 60.75645829681646 L 883.3480824113836 60.86338564746893 L 883.3762032058773 60.97044547034902 L 883.4019543407627 61.07762705956367 L 883.4253332409479 61.184919697043256 L 883.4463375685622 61.29231265361346 L 883.4649652231905 61.399795190068104 L 883.4812143420827 61.50735655824312 L 883.4950833003406 61.614986002091314 L 883.5065707110799 61.72267275875801 L 883.515675425569 61.830406059657264 L 883.5223965333442 61.93817513154877 L 883.5267333623002 62.04596919761514 L 883.5286854787578 62.15377747853961 M 883.5288064688137 96.4920458931 L 883.5276140089101 96.59985643801662 L 883.524036748444 96.70765620196859 L 883.5180750451387 96.81543440506935 L 883.5097294951594 96.9231802695884 L 883.4990009330542 97.03088302102908 L 883.4858904316703 97.138531889206 L 883.4703993020471 97.24611610932205 L 883.4525290932845 97.35362492304485 L 883.4322815923884 97.46104757958265 L 883.4096588240923 97.5683733367593 L 883.3846630506539 97.67559146208852 L 883.3572967716299 97.78269123384712 L 883.3275627236253 97.88966194214719 L 883.2954638800202 97.99649289000702 L 883.2610034506721 98.10317339442086 L 883.2241848815953 98.20969278742717 L 883.1850118546159 98.31604041717543 L 883.1434882870042 98.42220564899125 L 883.0996183310822 98.52817786643996 L 883.0534063738088 98.6339464723881 L 883.0048570363415 98.73950089006323 L 882.9539751735734 98.84483056411152 L 882.9007658736485 98.94992496165337 L 882.8452344574523 99.05477357333659 L 882.7873864780803 99.15936591438738 L 882.7272277202821 99.2636915256588 L 882.6647641998835 99.36773997467667 L 882.6000021631843 99.47150085668278 L 882.5329480863343 99.5749637956754 L 882.4636086746854 99.67811844544686 L 882.3919908621207 99.78095449061813 L 882.318101810362 99.8834616476704 L 882.241948908253 99.98562966597338 L 882.1635397710202 100.08744832881038 L 882.0828822395121 100.18890745439998 L 881.9999843794146 100.28999689691415 L 881.9148544804448 100.39070654749288 L 881.8275010555213 100.49102633525506 L 881.7379328399142 100.59094622830548 L 881.6461587903701 100.69045623473812 L 881.5521880842177 100.78954640363527 L 881.4560301184491 100.8882068260626 L 881.357694508781 100.9864276360601 L 881.2571910886923 101.0841990116286 L 881.1545299084411 101.18151117571202 L 881.04972123406 101.27835439717506 L 880.9427755463291 101.37471899177628 L 880.8337035397282 101.4705953231365 L 880.7225161213669 101.56597380370249 L 880.6092244098943 101.6608448957057 L 880.4938397343874 101.75519911211595 L 880.3763736332173 101.84902701759025 L 880.2568378528964 101.94231922941623 L 880.1352443469032 102.03506641845047 L 880.0116052744868 102.12725931005133 L 879.8859329994514 102.2188886850065 L 879.7582400889199 102.30994538045483 L 879.6285393120769 102.40042029080266 L 879.496843638892 102.49030436863434 L 879.3631662388227 102.579588625617 L 879.2275204794978 102.66826413339936 L 879.08991992538 102.75632202450451 L 878.95037833641 102.84375349321674 L 878.8089096666307 102.93054979646202 L 878.6655280627909 103.01670225468237 L 878.5202478629318 103.10220225270375 L 878.3730835949519 103.18704124059762 L 878.2240499751558 103.27121073453588 L 878.0731619067809 103.3547023176393 L 877.9204344785086 103.4375076408191 L 877.7658829629543 103.51961842361202 L 877.6095228151408 103.60102645500817 L 877.4513696709525 103.68172359427226 L 877.2914393455723 103.7617017717576 L 877.1297478318991 103.84095298971312 L 876.9663112989498 103.91946932308304 L 876.8011460902412 103.99724292029944 L 876.6342687221569 104.07426600406745 L 876.4656958822944 104.15053087214287 L 876.2954444277973 104.22602989810241 L 876.1235313836692 104.30075553210642 L 875.9499739410711 104.37470030165377 L 875.7747894556028 104.44785681232914 L 875.5979954455668 104.52021774854238 L 875.4196095902167 104.59177587426021 L 875.2396497279894 104.66252403372968 L 875.0581338547214 104.73245515219378 L 874.8750801218484 104.80156223659897 L 874.6905068345915 104.86983837629438 L 874.5044324501253 104.93727674372295 L 874.3168755757333 105.0038705951041 L 874.1278549669466 105.06961327110824 L 873.9373895256688 105.13449819752252 L 873.7454982982849 105.19851888590837 L 873.5522004737581 105.26166893425032 L 873.3575153817096 105.32394202759615 L 873.1614624904864 105.38533193868841 L 872.9640614052142 105.44583252858716 L 872.7653318658372 105.50543774728384 L 872.5652937451434 105.56414163430621 L 872.3639670467785 105.62193831931454 L 872.1613719032445 105.67882202268845 L 871.9575285738866 105.73478705610502 L 871.7524574428684 105.78982782310756 L 871.5461790171316 105.84393881966523 L 871.3387139243473 105.89711463472344 L 871.1300829108516 105.94934995074503 L 870.9203068395722 106.00063954424192 L 870.7094066879412 106.0509782862975 L 870.4974035457981 106.1003611430795 L 870.2843186132804 106.14878317634341 L 870.0701731987041 106.19623954392625 L 869.8549887164318 106.2427255002308 L 869.6387866847325 106.2882363967002 L 869.4215887236294 106.33276768228268 L 869.2034165527374 106.37631490388682 L 868.9842919890918 106.41887370682676 L 868.7642369449665 106.46043983525765 L 868.5432734256824 106.50100913260128 L 868.3214235274074 106.54057754196174 L 868.0987094349464 106.57914110653107 L 867.8751534195229 106.61669596998493 L 867.6507778365525 106.65323837686829 L 867.4256051234062 106.6887646729709 L 867.1996577971678 106.72327130569276 L 866.9729584523816 106.75675482439937 L 866.7455297587932 106.78921188076673 L 866.5173944590823 106.82063922911627 L 866.288575366589 106.85103372673933 L 866.0590953630317 106.8803923342115 L 865.8289773962197 106.90871211569649 L 865.5982444777576 106.93599023923973 L 865.3669196807452 106.96222397705162 L 865.1350261374694 106.98741070578025 L 864.9025870370913 107.0115479067737 L 864.6696256233272 107.03463316633201 L 864.4361651921242 107.05666417594847 L 864.2022290893312 107.07763873254045 L 863.9678407083633 107.09755473866979 L 863.7330234878633 107.11641020275246 L 863.4978009093577 107.13420323925777 L 863.262196494908 107.1509320688969 L 863.0262338047597 107.16659501880085 L 862.7899364349851 107.18119052268763 L 862.5533280151241 107.19471712101905 L 862.3164322058215 107.20717346114655 L 862.079272696461 107.21855829744648 L 861.8418732027958 107.22887049144471 L 861.6042574645774 107.23810901193042 L 861.3664492431817 107.24627293505928 L 861.1284723192326 107.25336144444577 L 860.8903504902243 107.25937383124486 L 860.6521075681411 107.26430949422287 L 860.4137673770767 107.26816793981763 L 860.1753537508517 107.27094878218779 L 859.93689053063 107.27265174325143 L 859.6984015625349 107.27327665271386 L 859.4599106952643 107.27282344808465 L 859.2214417777064 107.27129217468391 L 858.9830186565542 107.26868298563768 L 858.7446651739212 107.2649961418627 L 858.5064051649568 107.26023201204026 L 858.2682624554636 107.2543910725794 L 858.030260859514 107.24747390756917 L 857.7924241770692 107.23948120872033 L 857.5547761915992 107.23041377529609 L 857.3173406677047 107.22027251403225 L 857.08014134874 107.20905843904646 L 856.8432019544396 107.1967726717369 L 856.6065461785453 107.18341644067004 L 856.3701976864375 107.16899108145788 L 856.1341801127684 107.15349803662431 L 855.8985170590988 107.1369388554609 L 855.6632320915377 107.11931519387196 L 855.4283487383857 107.10062881420897 L 855.1938904877824 107.08088158509435 L 854.9598807853575 107.0600754812345 L 854.7263430318861 107.03821258322252 L 854.4933005809493 107.01529507732995 L 854.2607767365976 106.99132525528832 L 854.0287947510217 106.96630551405984 L 853.7973778222271 106.94023835559778 L 853.5665490917136 106.91312638659626 L 853.336331642162 106.88497231822961 L 853.1067484951254 106.85577896588119 L 852.8778226087271 106.8255492488619 L 852.6495768753651 106.79428619011826 L 852.4220341194225 106.76199291593008 L 852.1952170949852 106.72867265559789 L 851.9691484835668 106.69432874111995 L 851.7438508918398 106.65896460685907 L 851.5193468493757 106.62258378919921 L 851.2956588063918 106.58518992619184 L 851.0728091315059 106.5467867571921 L 850.8508201094998 106.50737812248485 L 850.6297139390907 106.46696796290075 L 850.4095127307113 106.42556031942208 L 850.1902385042991 106.38315933277867 L 849.971913187094 106.33976924303387 L 849.7545586114455 106.29539438916049 L 849.5381965126305 106.25003920860692 L 849.3228485266782 106.20370823685344 L 849.108536188208 106.15640610695861 L 848.8952809282748 106.108137549096 L 848.6831040722274 106.05890739008117 L 848.472026837574 106.00872055288902 L 848.2620703318627 105.9575820561614 L 848.0532555505688 105.90549701370541 L 847.8456033749965 105.85247063398188 L 847.6391345701903 105.79850821958458 L 847.4338697828587 105.74361516670999 L 847.2298295393092 105.68779696461766 L 847.0270342433962 105.63105919508126 L 846.8255041744804 105.5734075318305 L 846.6252594854008 105.51484773998365 L 846.4263202004591 105.45538567547108 L 846.2287062134184 105.3950272844497 L 846.0324372855125 105.33377860270829 L 845.8375330434707 105.27164575506403 L 845.6440129775548 105.20863495474987 L 845.45189643961 105.14475250279335 L 845.2612026411302 105.08000478738643 L 845.0719506513362 105.01439828324668 L 844.8841593952693 104.94793955096986 L 844.6978476518987 104.8806352363738 L 844.5130340522433 104.8124920698339 L 844.3297370775092 104.74351686560999 L 844.147975057241 104.67371652116503 L 843.9677661674895 104.6030980164753 L 843.7891284289932 104.53166841333243 L 843.6120797053773 104.4594348546372 L 843.4366377013664 104.38640456368528 L 843.262819961015 104.31258484344491 L 843.0906438659521 104.2379830758266 L 842.9201266336437 104.16260672094495 L 842.7512853156711 104.08646331637262 L 842.5841367960252 104.00956047638662 L 842.4186977894188 103.93190589120688 L 842.2549848396146 103.85350732622719 L 842.0930143177713 103.77437262123871 L 841.9328024208061 103.694509689646 L 841.7743651697749 103.61392651767568 L 841.6177184082711 103.53263116357778 L 841.4628778008403 103.45063175681996 L 841.309858831414 103.36793649727457 L 841.1586768017617 103.28455365439865 L 841.0093468299604 103.20049156640701 L 840.8618838488828 103.1157586394384 L 840.7163026047043 103.03036334671489 L 840.5726176554278 102.94431422769459 L 840.4308433694287 102.85761988721772 L 840.2909939240172 102.77028899464605 L 840.1530833040215 102.68233028299609 L 840.0171253003884 102.5937525480657 L 839.8831335088054 102.50456464755453 L 839.7511213283397 102.41477550017834 L 839.6211019600993 102.32439408477703 L 839.4930884059128 102.23342943941684 L 839.3670934670289 102.14189066048647 L 839.2431297428366 102.04978690178756 L 839.1212096296049 101.95712737361922 L 839.0013453192435 101.86392134185704 L 838.8835487980836 101.77017812702654 L 838.7678318456791 101.67590710337106 L 838.6542060336288 101.58111769791444 L 838.5426827244195 101.48581938951821 L 838.4332730702888 101.39002170793381 L 838.3259880121111 101.29373423284954 L 838.2208382783028 101.19696659293271 L 838.1178343837498 101.09972846486664 L 838.0169866287555 101.00202957238312 L 837.9183050980114 100.90387968528998 L 837.8217996595885 100.80528861849413 L 837.72747996395 100.70626623102011 L 837.635355442987 100.60682242502413 L 837.5454353090748 100.50696714480392 L 837.4577285541519 100.40671037580431 L 837.3722439488206 100.30606214361863 L 837.2889900414704 100.20503251298624 L 837.2079751574223 100.103631586786 L 837.1292073980975 100.00186950502604 L 837.0526946402063 99.89975644382972 L 836.9784445349604 99.79730261441809 L 836.9064645073089 99.69451826208869 L 836.8367617551942 99.59141366519111 L 836.7693432488337 99.48799913409913 L 836.7042157300217 99.38428501017967 L 836.6413857114558 99.28028166475868 L 836.5808594760856 99.17599949808405 L 836.5226430764841 99.07144893828554 L 836.4667423342429 98.96664044033201 L 836.4131628393894 98.86158448498593 L 836.3619099498286 98.75629157775525 L 836.3129887908068 98.65077224784297 L 836.2664042543989 98.54503704709414 L 836.22216099902 98.43909654894075 L 836.1802634489586 98.33296134734431 L 836.1407157939349 98.22664205573652 L 836.1035219886812 98.12014930595798 L 836.0686857525474 98.01349374719489 L 836.0362105691277 97.90668604491427 L 836.0060996859137 97.79973687979731 L 835.9783561139684 97.69265694667143 L 835.952982627626 97.58545695344071 L 835.9299817642141 97.47814762001512 L 835.9093558237996 97.37073967723859 L 835.8911068689595 97.26324386581588 L 835.875236724574 97.15567093523856 L 835.8617469776445 97.04803164271006 L 835.8506389771343 96.94033675206991 L 835.8419138338343 96.83259703271744 L 835.8355724202513 96.7248232585348 L 835.8316153705217 96.6170262068096 L 835.830043080347 96.50921665715717" stroke-miterlimit="10" stroke-width="2.7769845610000004" stroke-dasharray=""/></g><g><text fill="black" stroke="none" font-family="sans-serif" font-size="11pt" font-style="normal" font-weight="normal" text-decoration="normal" x="828.3014647045247" y="124.80095321200001" text-anchor="start" dominant-baseline="alphabetic" xml:space="preserve">Database</text></g></g><g><path fill="white" stroke="black" paint-order="fill stroke markers" d=" M 360.82252702307943 183.607685092 L 377.1577303230794 183.607685092 L 377.1577303230794 640.9933774919999 L 360.82252702307943 640.9933774919999 L 360.82252702307943 183.607685092" stroke-miterlimit="10" stroke-width="1.3612669416666667" stroke-dasharray=""/><path fill="white" stroke="black" paint-order="fill stroke markers" d=" M 594.8127243607096 366.561962052 L 611.1479276607097 366.561962052 L 611.1479276607097 595.254808252 L 594.8127243607096 595.254808252 L 594.8127243607096 366.561962052" stroke-miterlimit="10" stroke-width="1.3612669416666667" stroke-dasharray=""/><path fill="white" stroke="black" paint-order="fill stroke markers" d=" M 723.1622661807617 412.300531292 L 739.4974694807618 412.300531292 L 739.4974694807618 549.516239012 L 723.1622661807617 549.516239012 L 723.1622661807617 412.300531292" stroke-miterlimit="10" stroke-width="1.3612669416666667" stroke-dasharray=""/><path fill="white" stroke="black" paint-order="fill stroke markers" d=" M 851.5118080008137 458.039100532 L 867.8470113008138 458.039100532 L 867.8470113008138 503.777669772 L 851.5118080008137 503.777669772 L 851.5118080008137 458.039100532" stroke-miterlimit="10" stroke-width="1.3612669416666667" stroke-dasharray=""/><g><g><rect fill="white" stroke="none" x="117.19691015379557" y="162.371920802" width="188.63708747925781" height="21.23576429"/></g><text fill="black" stroke="none" font-family="sans-serif" font-size="11pt" font-style="normal" font-weight="normal" text-decoration="normal" x="119.64719064879557" y="177.07360377199998" text-anchor="start" dominant-baseline="alphabetic" xml:space="preserve">Go to group's newfeed page</text></g><g><path fill="none" stroke="black" paint-order="fill stroke markers" d=" M 62.20838076376953 183.607685092 L 347.3732096394128 183.607685092" stroke-miterlimit="10" stroke-width="1.3612669416666667" stroke-dasharray=""/><g transform="translate(360.82252702307943,183.607685092) translate(-360.82252702307943,-183.607685092)"><path fill="black" stroke="none" paint-order="stroke fill markers" d=" M 347.20985760641275 176.80135038366666 L 360.82252702307943 183.607685092 L 347.20985760641275 190.41401980033334 Z"/></g></g><g><g><rect fill="white" stroke="none" x="121.8855393041862" y="208.110490042" width="179.25982917847656" height="21.23576429"/></g><text fill="black" stroke="none" font-family="sans-serif" font-size="11pt" font-style="normal" font-weight="normal" text-decoration="normal" x="124.3358197991862" y="222.812173012" text-anchor="start" dominant-baseline="alphabetic" xml:space="preserve">Click input write something</text></g><g><path fill="none" stroke="black" paint-order="fill stroke markers" d=" M 62.20838076376953 229.346254332 L 347.3732096394128 229.346254332" stroke-miterlimit="10" stroke-width="1.3612669416666667" stroke-dasharray=""/><g transform="translate(360.82252702307943,229.346254332) translate(-360.82252702307943,-229.346254332)"><path fill="black" stroke="none" paint-order="stroke fill markers" d=" M 347.20985760641275 222.53991962366666 L 360.82252702307943 229.346254332 L 347.20985760641275 236.15258904033334 Z"/></g></g><g><g><rect fill="white" stroke="none" x="148.75381017820965" y="253.849059282" width="125.52328743042969" height="21.23576429"/></g><text fill="black" stroke="none" font-family="sans-serif" font-size="11pt" font-style="normal" font-weight="normal" text-decoration="normal" x="151.20409067320963" y="268.550742252" text-anchor="start" dominant-baseline="alphabetic" xml:space="preserve">Create post popup</text></g><g><path fill="none" stroke="black" paint-order="fill stroke markers" d=" M 360.82252702307943 275.084823572 L 75.65769814743621 275.084823572" stroke-miterlimit="10" stroke-width="1.3612669416666667" stroke-dasharray="6.53408132"/><g transform="translate(62.20838076376953,275.084823572) translate(-62.20838076376953,-275.084823572)"><path fill="black" stroke="none" paint-order="stroke fill markers" d=" M 75.8210501804362 268.27848886366667 L 62.20838076376953 275.084823572 L 75.8210501804362 281.89115828033334 Z"/></g></g><g><g><rect fill="white" stroke="none" x="97.41883398192057" y="299.587628522" width="228.19323982300781" height="21.23576429"/></g><text fill="black" stroke="none" font-family="sans-serif" font-size="11pt" font-style="normal" font-weight="normal" text-decoration="normal" x="99.86911447692057" y="314.28931149199997" text-anchor="start" dominant-baseline="alphabetic" xml:space="preserve">Type content and click Post button</text></g><g><path fill="none" stroke="black" paint-order="fill stroke markers" d=" M 62.20838076376953 320.823392812 L 347.3732096394128 320.823392812" stroke-miterlimit="10" stroke-width="1.3612669416666667" stroke-dasharray=""/><g transform="translate(360.82252702307943,320.823392812) translate(-360.82252702307943,-320.823392812)"><path fill="black" stroke="none" paint-order="stroke fill markers" d=" M 347.20985760641275 314.01705810366667 L 360.82252702307943 320.823392812 L 347.20985760641275 327.62972752033335 Z"/></g></g><g><g><rect fill="white" stroke="none" x="432.6079677819531" y="345.326197762" width="106.75451911988281" height="21.23576429"/></g><text fill="black" stroke="none" font-family="sans-serif" font-size="11pt" font-style="normal" font-weight="normal" text-decoration="normal" x="435.0582482769531" y="360.02788073199997" text-anchor="start" dominant-baseline="alphabetic" xml:space="preserve">POST: /api/post</text></g><g><path fill="none" stroke="black" paint-order="fill stroke markers" d=" M 377.1577303230794 366.561962052 L 581.3634069770429 366.561962052" stroke-miterlimit="10" stroke-width="1.3612669416666667" stroke-dasharray=""/><g transform="translate(594.8127243607096,366.561962052) translate(-594.8127243607096,-366.561962052)"><path fill="black" stroke="none" paint-order="stroke fill markers" d=" M 581.2000549440429 359.7556273436667 L 594.8127243607096 366.561962052 L 581.2000549440429 373.36829676033335 Z"/></g></g><g><g><rect fill="white" stroke="none" x="644.3397651562044" y="391.064767002" width="45.6306635290625" height="21.23576429"/></g><text fill="black" stroke="none" font-family="sans-serif" font-size="11pt" font-style="normal" font-weight="normal" text-decoration="normal" x="646.7900456512044" y="405.766449972" text-anchor="start" dominant-baseline="alphabetic" xml:space="preserve">save()</text></g><g><path fill="none" stroke="black" paint-order="fill stroke markers" d=" M 611.1479276607097 412.300531292 L 709.712948797095 412.300531292" stroke-miterlimit="10" stroke-width="1.3612669416666667" stroke-dasharray=""/><g transform="translate(723.1622661807617,412.300531292) translate(-723.1622661807617,-412.300531292)"><path fill="black" stroke="none" paint-order="stroke fill markers" d=" M 709.549596764095 405.4941965836667 L 723.1622661807617 412.300531292 L 709.549596764095 419.10686600033335 Z"/></g></g><g><g><rect fill="white" stroke="none" x="772.6893069762565" y="436.803336242" width="45.6306635290625" height="21.23576429"/></g><text fill="black" stroke="none" font-family="sans-serif" font-size="11pt" font-style="normal" font-weight="normal" text-decoration="normal" x="775.1395874712565" y="451.505019212" text-anchor="start" dominant-baseline="alphabetic" xml:space="preserve">save()</text></g><g><path fill="none" stroke="black" paint-order="fill stroke markers" d=" M 739.4974694807618 458.039100532 L 838.0624906171471 458.039100532" stroke-miterlimit="10" stroke-width="1.3612669416666667" stroke-dasharray=""/><g transform="translate(851.5118080008137,458.039100532) translate(-851.5118080008137,-458.039100532)"><path fill="black" stroke="none" paint-order="stroke fill markers" d=" M 837.8991385841471 451.2327658236667 L 851.5118080008137 458.039100532 L 837.8991385841471 464.84543524033336 Z"/></g></g><g><g><rect fill="white" stroke="none" x="758.8274600524284" y="482.541905482" width="73.35435737671875" height="21.23576429"/></g><text fill="black" stroke="none" font-family="sans-serif" font-size="11pt" font-style="normal" font-weight="normal" text-decoration="normal" x="761.2777405474284" y="497.243588452" text-anchor="start" dominant-baseline="alphabetic" xml:space="preserve">Post value</text></g><g><path fill="none" stroke="black" paint-order="fill stroke markers" d=" M 851.5118080008137 503.777669772 L 752.9467868644284 503.777669772" stroke-miterlimit="10" stroke-width="1.3612669416666667" stroke-dasharray="6.53408132"/><g transform="translate(739.4974694807618,503.777669772) translate(-739.4974694807618,-503.777669772)"><path fill="black" stroke="none" paint-order="stroke fill markers" d=" M 753.1101388974284 496.9713350636667 L 739.4974694807618 503.777669772 L 753.1101388974284 510.58400448033336 Z"/></g></g><g><g><rect fill="white" stroke="none" x="630.4779182323763" y="528.280474722" width="73.35435737671875" height="21.23576429"/></g><text fill="black" stroke="none" font-family="sans-serif" font-size="11pt" font-style="normal" font-weight="normal" text-decoration="normal" x="632.9281987273763" y="542.982157692" text-anchor="start" dominant-baseline="alphabetic" xml:space="preserve">Post value</text></g><g><path fill="none" stroke="black" paint-order="fill stroke markers" d=" M 723.1622661807617 549.516239012 L 624.5972450443763 549.516239012" stroke-miterlimit="10" stroke-width="1.3612669416666667" stroke-dasharray="6.53408132"/><g transform="translate(611.1479276607097,549.516239012) translate(-611.1479276607097,-549.516239012)"><path fill="black" stroke="none" paint-order="stroke fill markers" d=" M 624.7605970773764 542.7099043036667 L 611.1479276607097 549.516239012 L 624.7605970773764 556.3225737203334 Z"/></g></g><g><g><rect fill="white" stroke="none" x="396.4877208947461" y="574.019043962" width="178.99501289429688" height="21.23576429"/></g><text fill="green" stroke="none" font-family="sans-serif" font-size="11pt" font-style="normal" font-weight="normal" text-decoration="normal" x="398.9380013897461" y="588.7207269319999" text-anchor="start" dominant-baseline="alphabetic" xml:space="preserve">201 CREATED: Post value</text></g><g><path fill="none" stroke="black" paint-order="fill stroke markers" d=" M 594.8127243607096 595.254808252 L 390.6070477067461 595.254808252" stroke-miterlimit="10" stroke-width="1.3612669416666667" stroke-dasharray="6.53408132"/><g transform="translate(377.1577303230794,595.254808252) translate(-377.1577303230794,-595.254808252)"><path fill="black" stroke="none" paint-order="stroke fill markers" d=" M 390.7703997397461 588.4484735436666 L 377.1577303230794 595.254808252 L 390.7703997397461 602.0611429603333 Z"/></g></g><g><g><rect fill="white" stroke="none" x="81.5383713354362" y="619.7576132019999" width="259.95416511597654" height="21.23576429"/></g><text fill="black" stroke="none" font-family="sans-serif" font-size="11pt" font-style="normal" font-weight="normal" text-decoration="normal" x="83.9886518304362" y="634.4592961719999" text-anchor="start" dominant-baseline="alphabetic" xml:space="preserve">Display group news feed with new Post</text></g><g><path fill="none" stroke="black" paint-order="fill stroke markers" d=" M 360.82252702307943 640.9933774919999 L 75.65769814743621 640.9933774919999" stroke-miterlimit="10" stroke-width="1.3612669416666667" stroke-dasharray="6.53408132"/><g transform="translate(62.20838076376953,640.9933774919999) translate(-62.20838076376953,-640.9933774919999)"><path fill="black" stroke="none" paint-order="stroke fill markers" d=" M 75.8210501804362 634.1870427836666 L 62.20838076376953 640.9933774919999 L 75.8210501804362 647.7997122003333 Z"/></g></g></g></g></svg>