<svg version="1.1" xmlns="http://www.w3.org/2000/svg" xmlns:xlink="http://www.w3.org/1999/xlink" width="1074" height="1469"><desc>title%20Delete%20Post%0A%0A%0Aactor%20%23green%3A0.5%20%22Workspace%20User%22%20as%20w%0Aboundary%20%22Application%20Client%22%20as%20f%0Acontrol%20%22Post%20Controller%22%20as%20gc%0Aparticipant%20%22Post%20Service%22%20as%20gs%0A%0Adatabase%20%23blue%3A1%20%22Database%22%20as%20db%0A%0Aw-%3Ef%3AChoose%20three-dot%20button%20in%20specific%20post%0Aactivate%20f%0Aw%3C--f%3AShow%20a%20list%20of%20actions%20with%20the%20post%0Aw-%3Ef%3AClick%20Delete%20post%0A%0Aw%3C--f%3ADelete%20post%20confirmation%20popup%0Aw-%3Ef%3AClick%20Delete%20button%0A%0Af-%3Egc%3ADELETE%3A%20%2Fapi%2Fpost%2F%7Bid%7D%0Aactivate%20gc%0Agc-%3Egc%3A%20check%20post's%20owner%0Aactivate%20gc%0Agc%3C--gc%3A%20is%20Post%20owner%0Adeactivate%20gc%0Aalt%20If%20Current%20User%20does%20not%20owner%20of%20the%20post%0Af%3C--gc%3A%3Ccolor%3A%23red%3E403%20FORBIDDEN%3C%2Fcolor%3E%0Aw%3C--f%3ADelete%20fail%0Aelse%20%0A%0Agc-%3Egs%3AisExist(id)%0Aactivate%20gs%0Ags-%3Edb%3AisExist(id)%0Aactivate%20db%0Ags%3C--db%3ABoolean%20value%0Adeactivate%20db%0Agc%3C--gs%3ABoolean%20value%0Adeactivate%20gs%0A%0Aalt%20If%20Post%20does%20not%20exist%0Af%3C--gc%3A%3Ccolor%3A%23red%3E404%20NOT%20FOUND%3A%20not%20found%3C%2Fcolor%3E%0Aw%3C--f%3ADelete%20fail%0Aelse%0A%0Agc-%3Egs%3AdeleteById()%0Aactivate%20gs%0Ags-%3Edb%3AdeleteById()%0Aactivate%20db%0Ags%3C--db%3A%0Adeactivate%20db%0A%0Agc%3C--gs%3A%0Adeactivate%20gs%0A%0Af%3C--gc%3A%3Ccolor%3A%23green%3E200%20OK%3C%2Fcolor%3E%0Adeactivate%20gc%0A%0Aw%3C--f%3A%20Delete%20successfully%0Adeactivate%20f%0Aend%0A%0A%0Aend%0A</desc><defs/><g><g/><g/><g/><g/><g/><g/><g/><g/><g/><g/><g/><g/><g/><g/><g/><g/><g/><g/><g/><g/><g/><g/><g/><g/><g/><g/><g/><g><rect fill="white" stroke="none" x="0" y="0" width="1074" height="1469"/></g><g><text fill="black" stroke="none" font-family="sans-serif" font-size="16.5pt" font-style="normal" font-weight="normal" text-decoration="normal" x="480.2562946157551" y="24.50280495" text-anchor="start" dominant-baseline="alphabetic" xml:space="preserve">Delete Post</text></g><g/><g><path fill="none" stroke="black" paint-order="fill stroke markers" d=" M 89.84361815 129.701514202 L 89.84361815 1469.1881848019998" stroke-miterlimit="10" stroke-width="1.3612669416666667" stroke-dasharray="12.565541,5.445067766666667"/><path fill="none" stroke="black" paint-order="fill stroke markers" d=" M 399.90379318333333 129.701514202 L 399.90379318333333 1469.1881848019998" stroke-miterlimit="10" stroke-width="1.3612669416666667" stroke-dasharray="12.565541,5.445067766666667"/><path fill="none" stroke="black" paint-order="fill stroke markers" d=" M 644.7530298276041 129.701514202 L 644.7530298276041 1469.1881848019998" stroke-miterlimit="10" stroke-width="1.3612669416666667" stroke-dasharray="12.565541,5.445067766666667"/><path fill="none" stroke="black" paint-order="fill stroke markers" d=" M 823.4126613516926 129.701514202 L 823.4126613516926 1469.1881848019998" stroke-miterlimit="10" stroke-width="1.3612669416666667" stroke-dasharray="12.565541,5.445067766666667"/><path fill="none" stroke="black" paint-order="fill stroke markers" d=" M 976.2289084940103 129.701514202 L 976.2289084940103 1469.1881848019998" stroke-miterlimit="10" stroke-width="1.3612669416666667" stroke-dasharray="12.565541,5.445067766666667"/></g><g><g><path fill="white" stroke="green" paint-order="fill stroke markers" d=" M 99.154684031 60.60360424300001 A 9.311065881 9.311065881 0 1 1 99.15467937546744 60.594293178670846 M 89.84361815 69.91467012400001 L 89.84361815 89.84361815000001 M 78.08227177399999 77.102159576 L 101.604964526 77.102159576 M 89.84361815 89.84361815000001 L 78.08227177399999 108.465749912 M 89.84361815 89.84361815000001 L 101.604964526 108.465749912" stroke-miterlimit="10" stroke-width="1.3884922805000002" stroke-dasharray=""/></g><g><text fill="black" stroke="none" font-family="sans-serif" font-size="11pt" font-style="normal" font-weight="normal" text-decoration="normal" x="35.802839036230466" y="124.80095321200001" text-anchor="start" dominant-baseline="alphabetic" xml:space="preserve">Workspace User</text></g><g><path fill="white" stroke="black" paint-order="fill stroke markers" d=" M 432.32917173383333 82.819480731 A 24.2577769005 24.2577769005 0 1 1 432.3291596049459 82.79522295814245 M 368.8669069133333 57.17321154999999 L 368.8669069133333 108.465749912 M 367.47841463283333 82.819480731 L 383.8136179328333 82.819480731" stroke-miterlimit="10" stroke-width="2.7769845610000004" stroke-dasharray=""/></g><g><text fill="black" stroke="none" font-family="sans-serif" font-size="11pt" font-style="normal" font-weight="normal" text-decoration="normal" x="343.26817306614583" y="124.80095321200001" text-anchor="start" dominant-baseline="alphabetic" xml:space="preserve">Application Client</text></g><g><path fill="white" stroke="black" paint-order="fill stroke markers" d=" M 669.0108067281041 82.819480731 A 24.2577769005 24.2577769005 0 1 1 669.0107945992166 82.79522295814245 M 641.4859891676041 58.561703830499994 L 651.287111147604 50.39410218049999 M 641.4859891676041 58.561703830499994 L 651.287111147604 66.72930548049999" stroke-miterlimit="10" stroke-width="2.7769845610000004" stroke-dasharray=""/></g><g><text fill="black" stroke="none" font-family="sans-serif" font-size="11pt" font-style="normal" font-weight="normal" text-decoration="normal" x="596.2741708798502" y="124.80095321200001" text-anchor="start" dominant-baseline="alphabetic" xml:space="preserve">Post Controller</text></g><path fill="none" stroke="none"/><g><path fill="white" stroke="black" paint-order="fill stroke markers" d=" M 764.543679211134 85.75981732500001 L 882.2816434922512 85.75981732500001 L 882.2816434922512 129.701514202 L 764.543679211134 129.701514202 L 764.543679211134 85.75981732500001 Z" stroke-miterlimit="10" stroke-width="2.613632528" stroke-dasharray=""/></g><g><text fill="black" stroke="none" font-family="sans-serif" font-size="11pt" font-style="normal" font-weight="normal" text-decoration="normal" x="782.267374791634" y="113.36631090200002" text-anchor="start" dominant-baseline="alphabetic" xml:space="preserve">Post Service</text></g><g><path fill="white" stroke="blue" paint-order="fill stroke markers" d=" M 952.3795116760103 97.684515734 L 952.3795116760103 63.380588804000006 L 1000.0783053120102 63.380588804000006 L 1000.0783053120102 97.684515734" stroke-miterlimit="10" stroke-width="2.7769845610000004" stroke-dasharray=""/><path fill="white" stroke="blue" paint-order="fill stroke markers" d=" M 1000.0783053120102 62.1881189631 L 1000.0771128521066 62.29592950801663 L 1000.0735355916405 62.403729271968594 L 1000.0675738883352 62.51150747506936 L 1000.0592283383559 62.619253339588404 L 1000.0484997762507 62.72695609102909 L 1000.0353892748668 62.834604959206004 L 1000.0198981452436 62.94218917932205 L 1000.002027936481 63.04969799304486 L 999.9817804355849 63.15712064958265 L 999.9591576672888 63.2644464067593 L 999.9341618938504 63.371664532088516 L 999.9067956148264 63.47876430384712 L 999.8770615668218 63.58573501214718 L 999.8449627232167 63.692565960007016 L 999.8105022938686 63.79924646442086 L 999.7736837247918 63.90576585742718 L 999.7345106978124 64.01211348717543 L 999.6929871302007 64.11827871899126 L 999.6491171742787 64.22425093643996 L 999.6029052170053 64.3300195423881 L 999.554355879538 64.43557396006322 L 999.5034740167699 64.54090363411153 L 999.450264716845 64.64599803165338 L 999.3947333006488 64.75084664333659 L 999.3368853212768 64.85543898438739 L 999.2767265634786 64.95976459565881 L 999.21426304308 65.06381304467668 L 999.1495010063808 65.16757392668278 L 999.0824469295308 65.27103686567541 L 999.0131075178818 65.37419151544687 L 998.9414897053172 65.47702756061814 L 998.8676006535585 65.5795347176704 L 998.7914477514495 65.68170273597339 L 998.7130386142167 65.7835213988104 L 998.6323810827085 65.88498052439998 L 998.5494832226111 65.98606996691414 L 998.4643533236413 66.08677961749288 L 998.3769998987178 66.18709940525505 L 998.2874316831106 66.28701929830548 L 998.1956576335666 66.38652930473813 L 998.1016869274142 66.48561947363528 L 998.0055289616456 66.58427989606261 L 997.9071933519775 66.6825007060601 L 997.8066899318887 66.7802720816286 L 997.7040287516376 66.87758424571203 L 997.5992200772565 66.97442746717506 L 997.4922743895256 67.07079206177627 L 997.3832023829247 67.1666683931365 L 997.2720149645634 67.2620468737025 L 997.1587232530908 67.35691796570569 L 997.0433385775839 67.45127218211596 L 996.9258724764138 67.54510008759026 L 996.8063366960929 67.63839229941624 L 996.6847431900997 67.73113948845047 L 996.5611041176833 67.82333238005134 L 996.4354318426479 67.9149617550065 L 996.3077389321164 68.00601845045483 L 996.1780381552734 68.09649336080267 L 996.0463424820884 68.18637743863435 L 995.9126650820192 68.27566169561702 L 995.7770193226943 68.36433720339936 L 995.6394187685764 68.45239509450451 L 995.4998771796065 68.53982656321674 L 995.3584085098272 68.62662286646201 L 995.2150269059874 68.71277532468237 L 995.0697467061283 68.79827532270376 L 994.9225824381484 68.88311431059763 L 994.7735488183523 68.9672838045359 L 994.6226607499774 69.0507753876393 L 994.4699333217051 69.13358071081912 L 994.3153818061508 69.21569149361203 L 994.1590216583373 69.29709952500816 L 994.000868514149 69.37779666427225 L 993.8409381887687 69.45777484175761 L 993.6792466750956 69.53702605971311 L 993.5158101421463 69.61554239308303 L 993.3506449334377 69.69331599029945 L 993.1837675653534 69.77033907406746 L 993.0151947254909 69.84660394214286 L 992.8449432709938 69.92210296810242 L 992.6730302268656 69.99682860210643 L 992.4994727842676 70.07077337165379 L 992.3242882987993 70.14392988232913 L 992.1474942887633 70.21629081854239 L 991.9691084334132 70.28784894426022 L 991.7891485711859 70.35859710372968 L 991.6076326979179 70.42852822219379 L 991.4245789650449 70.49763530659898 L 991.240005677788 70.5659114462944 L 991.0539312933217 70.63334981372294 L 990.8663744189298 70.69994366510412 L 990.6773538101431 70.76568634110825 L 990.4868883688653 70.83057126752253 L 990.2949971414814 70.89459195590838 L 990.1016993169546 70.95774200425032 L 989.9070142249061 71.02001509759614 L 989.7109613336829 71.08140500868842 L 989.5135602484107 71.14190559858717 L 989.3148307090337 71.20151081728383 L 989.1147925883399 71.26021470430622 L 988.913465889975 71.31801138931453 L 988.710870746441 71.37489509268845 L 988.5070274170831 71.43086012610503 L 988.3019562860649 71.48590089310757 L 988.0956778603281 71.54001188966522 L 987.8882127675438 71.59318770472345 L 987.6795817540481 71.64542302074504 L 987.4698056827687 71.69671261424193 L 987.2589055311377 71.7470513562975 L 987.0469023889946 71.79643421307951 L 986.8338174564769 71.84485624634341 L 986.6196720419006 71.89231261392625 L 986.4044875596283 71.93879857023082 L 986.188285527929 71.9843094667002 L 985.9710875668259 72.02884075228269 L 985.7529153959339 72.07238797388683 L 985.5337908322883 72.11494677682676 L 985.313735788163 72.15651290525764 L 985.0927722688789 72.19708220260128 L 984.8709223706039 72.23665061196175 L 984.6482082781429 72.27521417653107 L 984.4246522627194 72.31276903998494 L 984.200276679749 72.3493114468683 L 983.9751039666027 72.38483774297092 L 983.7491566403643 72.41934437569277 L 983.5224572955781 72.45282789439938 L 983.2950286019897 72.48528495076673 L 983.0668933022788 72.51671229911628 L 982.8380742097855 72.54710679673934 L 982.6085942062282 72.5764654042115 L 982.3784762394162 72.60478518569649 L 982.1477433209541 72.63206330923974 L 981.9164185239417 72.65829704705163 L 981.6845249806659 72.68348377578025 L 981.4520858802878 72.70762097677371 L 981.2191244665237 72.73070623633201 L 980.9856640353207 72.75273724594847 L 980.7517279325277 72.77371180254045 L 980.5173395515598 72.79362780866978 L 980.2825223310598 72.81248327275246 L 980.0472997525542 72.83027630925778 L 979.8116953381045 72.84700513889692 L 979.5757326479562 72.86266808880085 L 979.3394352781816 72.87726359268764 L 979.1028268583206 72.89079019101906 L 978.865931049018 72.90324653114655 L 978.6287715396575 72.91463136744649 L 978.3913720459923 72.9249435614447 L 978.1537563077738 72.93418208193043 L 977.9159480863782 72.94234600505929 L 977.6779711624291 72.94943451444577 L 977.4398493334207 72.95544690124485 L 977.2016064113376 72.96038256422287 L 976.9632662202732 72.96424100981763 L 976.7248525940482 72.9670218521878 L 976.4863893738265 72.96872481325143 L 976.2479004057313 72.96934972271386 L 976.0094095384608 72.96889651808466 L 975.7709406209029 72.96736524468392 L 975.5325174997507 72.96475605563768 L 975.2941640171177 72.96106921186271 L 975.0559040081533 72.95630508204027 L 974.8177612986601 72.9504641425794 L 974.5797597027105 72.94354697756918 L 974.3419230202657 72.93555427872033 L 974.1042750347957 72.9264868452961 L 973.8668395109012 72.91634558403224 L 973.6296401919365 72.90513150904647 L 973.392700797636 72.89284574173689 L 973.1560450217418 72.87948951067006 L 972.9196965296339 72.86506415145789 L 972.6836789559649 72.84957110662431 L 972.4480159022953 72.8330119254609 L 972.2127309347342 72.81538826387197 L 971.9778475815822 72.79670188420899 L 971.7433893309789 72.77695465509434 L 971.509379628554 72.7561485512345 L 971.2758418750826 72.73428565322251 L 971.0427994241458 72.71136814732996 L 970.810275579794 72.68739832528833 L 970.5782935942182 72.66237858405984 L 970.3468766654236 72.63631142559778 L 970.1160479349101 72.60919945659627 L 969.8858304853585 72.58104538822961 L 969.6562473383219 72.55185203588118 L 969.4273214519236 72.5216223188619 L 969.1990757185616 72.49035926011825 L 968.971532962619 72.45806598593009 L 968.7447159381817 72.4247457255979 L 968.5186473267632 72.39040181111994 L 968.2933497350363 72.35503767685907 L 968.0688456925722 72.31865685919922 L 967.8451576495883 72.28126299619186 L 967.6223079747024 72.24285982719209 L 967.4003189526962 72.20345119248485 L 967.1792127822872 72.16304103290075 L 966.9590115739078 72.12163338942209 L 966.7397373474956 72.07923240277869 L 966.5214120302904 72.03584231303388 L 966.304057454642 71.99146745916049 L 966.087695355827 71.94611227860693 L 965.8723473698747 71.89978130685344 L 965.6580350314044 71.85247917695861 L 965.4447797714713 71.80421061909601 L 965.2326029154239 71.75498046008119 L 965.0215256807705 71.70479362288901 L 964.8115691750592 71.65365512616141 L 964.6027543937653 71.60157008370541 L 964.395102218193 71.54854370398188 L 964.1886334133868 71.49458128958457 L 963.9833686260552 71.43968823671 L 963.7793283825057 71.38387003461766 L 963.5765330865927 71.32713226508127 L 963.3750030176769 71.26948060183051 L 963.1747583285972 71.21092080998365 L 962.9758190436556 71.15145874547107 L 962.7782050566149 71.0911003544497 L 962.581936128709 71.0298516727083 L 962.3870318866672 70.96771882506403 L 962.1935118207513 70.90470802474988 L 962.0013952828065 70.84082557279336 L 961.8107014843267 70.77607785738643 L 961.6214494945327 70.71047135324669 L 961.4336582384658 70.64401262096986 L 961.2473464950951 70.5767083063738 L 961.0625328954397 70.50856513983389 L 960.8792359207057 70.43958993560999 L 960.6974739004374 70.36978959116503 L 960.517265010686 70.29917108647531 L 960.3386272721897 70.22774148333244 L 960.1615785485737 70.1555079246372 L 959.9861365445629 70.08247763368529 L 959.8123188042115 70.00865791344492 L 959.6401427091486 69.9340561458266 L 959.4696254768402 69.85867979094495 L 959.3007841588676 69.78253638637263 L 959.1336356392217 69.70563354638664 L 958.9681966326153 69.62797896120689 L 958.8044836828111 69.54958039622719 L 958.6425131609678 69.47044569123871 L 958.4823012640026 69.39058275964601 L 958.3238640129714 69.30999958767568 L 958.1672172514676 69.22870423357777 L 958.0123766440367 69.14670482681996 L 957.8593576746105 69.06400956727457 L 957.7081756449581 68.98062672439866 L 957.5588456731568 68.89656463640702 L 957.4113826920793 68.8118317094384 L 957.2658014479008 68.72643641671489 L 957.1221164986243 68.6403872976946 L 956.9803422126251 68.55369295721772 L 956.8404927672137 68.46636206464606 L 956.702582147218 68.37840335299609 L 956.5666241435849 68.28982561806569 L 956.4326323520019 68.20063771755453 L 956.3006201715361 68.11084857017835 L 956.1706008032958 68.02046715477704 L 956.0425872491093 67.92950250941684 L 955.9165923102254 67.83796373048648 L 955.7926285860331 67.74585997178757 L 955.6707084728014 67.65320044361923 L 955.55084416244 67.55999441185705 L 955.43304764128 67.46625119702654 L 955.3173306888756 67.37198017337107 L 955.2037048768253 67.27719076791445 L 955.092181567616 67.18189245951821 L 954.9827719134853 67.08609477793381 L 954.8754868553076 66.98980730284956 L 954.7703371214993 66.89303966293272 L 954.6673332269463 66.79580153486665 L 954.566485471952 66.69810264238313 L 954.4678039412079 66.59995275528999 L 954.371298502785 66.50136168849414 L 954.2769788071465 66.40233930102012 L 954.1848542861835 66.30289549502413 L 954.0949341522713 66.20304021480393 L 954.0072273973484 66.1027834458043 L 953.9217427920171 66.00213521361863 L 953.8384888846668 65.90110558298623 L 953.7574740006188 65.799704656786 L 953.678706241294 65.69794257502603 L 953.6021934834027 65.59582951382973 L 953.5279433781569 65.4933756844181 L 953.4559633505054 65.3905913320887 L 953.3862605983907 65.28748673519112 L 953.3188420920302 65.18407220409914 L 953.2537145732182 65.08035808017966 L 953.1908845546523 64.97635473475869 L 953.1303583192821 64.87207256808405 L 953.0721419196806 64.76752200828555 L 953.0162411774394 64.66271351033203 L 952.9626616825859 64.55765755498592 L 952.9114087930251 64.45236464775525 L 952.8624876340033 64.34684531784296 L 952.8159030975954 64.24111011709415 L 952.7716598422165 64.13516961894075 L 952.7297622921551 64.0290344173443 L 952.6902146371314 63.92271512573653 L 952.6530208318777 63.81622237595798 L 952.6181845957439 63.70956681719489 L 952.5857094123241 63.602759114914264 L 952.5555985291102 63.49580994979732 L 952.5278549571649 63.38873001667144 L 952.5024814708225 63.28153002344071 L 952.4794806074106 63.17422069001512 L 952.4588546669961 63.066812747238586 L 952.440605712156 62.959316935815885 L 952.4247355677705 62.85174400523857 L 952.411245820841 62.74410471271006 L 952.4001378203308 62.636409822069915 L 952.3914126770308 62.52867010271744 L 952.3850712634478 62.4208963285348 L 952.3811142137182 62.313099276809595 L 952.3795419235435 62.20528972715717 L 952.3803545501514 62.09747846044265 L 952.38355201228 61.98967625770286 L 952.3891339901857 61.88189389906824 L 952.3970999256753 61.77414216268484 L 952.407449022162 61.66643182363649 L 952.4201802447449 61.558773652867366 L 952.435292320312 61.4511784161048 L 952.4527837376686 61.34365687278283 L 952.4726527476873 61.236219774966166 L 952.494897363484 61.12887786627507 L 952.5195153606155 61.02164188081096 L 952.5465042773025 60.91452254208302 L 952.5758614146758 60.807530561935856 L 952.6075838370464 60.70067663947832 L 952.6416683721983 60.593971460013606 L 952.6781116117063 60.487425693970756 L 952.7169099112771 60.381049995837586 L 952.7580593911127 60.27485500309525 L 952.8015559362998 60.16885133515453 L 952.8473951972198 60.06304959229389 L 952.895572589985 59.95746035459945 L 952.9460832968963 59.852094180906974 L 952.9989222669249 59.746961607746044 L 953.054084216218 59.64207314828636 L 953.1115636286266 59.537439291286454 L 953.1713547562574 59.43307050004484 L 953.2334516200473 59.32897721135367 L 953.2978480103618 59.22516983445505 L 953.3645374876156 59.12165875000019 L 953.4335133829164 59.01845430901127 L 953.5047687987322 58.91556683184637 L 953.5782966095809 58.81300660716748 L 953.6540894627425 58.7107838909116 L 953.7321397789949 58.60890890526517 L 953.8124397533717 58.507391837641855 L 953.894981355942 58.406242839663825 L 953.9797563326148 58.30547202614659 L 954.0667562059627 58.205089474087515 L 954.1559722760711 58.105105221658164 L 954.2473956214072 58.00552926720046 L 954.3410170997128 57.90637156822687 L 954.4368273489177 57.807642040424646 L 954.5348167880774 57.709350556664305 L 954.6349756183292 57.61150694601232 L 954.7372938238738 57.514120992748204 L 954.8417611729756 57.417202435386145 L 954.9483672189871 57.320760965701105 L 955.0571013013923 57.224806227759686 L 955.1679525468736 57.12934781695572 L 955.280909870399 57.03439527905074 L 955.3959619763301 56.93995810921942 L 955.5130973595523 56.84604575110002 L 955.6323043066246 56.75266759585011 L 955.753570896952 56.65983298120741 L 955.8768850039764 56.567551190555996 L 956.0022342963899 56.47583145199805 L 956.1296062393676 56.384682937430995 L 956.2589880958215 56.29411476163032 L 956.3903669276735 56.20413598133814 L 956.5237295971501 56.1147555943575 L 956.6590627680955 56.02598253865261 L 956.7963529073054 55.937825691455075 L 956.9355862858802 55.85029386837614 L 957.076748980598 55.763395822525176 L 957.2198268753071 55.677140243634355 L 957.3648056623373 55.591535757189675 L 957.5116708439306 55.50659092356846 L 957.6604077336913 55.42231423718327 L 957.8110014580542 55.33871412563253 L 957.9634369577726 55.25579894885771 L 958.1176989894234 55.1735769983074 L 958.273772126932 55.092056496108135 L 958.4316407631148 55.01124559424221 L 958.5912891112398 54.93115237373246 L 958.7527012066049 54.851784843834196 L 958.9158609081354 54.77315094123426 L 959.0807518999969 54.6952585292574 L 959.2473576932279 54.61811539707989 L 959.4156616273876 54.54172925895067 L 959.5856468722229 54.46610775341989 L 959.7572964293512 54.391258442575094 L 959.9305931339596 54.317188811284986 L 960.1055196565221 54.24390626645098 L 960.2820585045323 54.171418136266475 L 960.4601920242524 54.09973166948409 L 960.6399024024789 54.028854034690774 L 960.8211716683238 53.95879231959093 L 961.0039816950115 53.88955353029769 L 961.1883142016917 53.82114459063227 L 961.3741507552675 53.753572341431656 L 961.5614727722381 53.68684353986444 L 961.750261520558 53.62096485875517 L 961.9404981215098 53.55594288591707 L 962.1321635515919 53.49178412349323 L 962.325238644421 53.42849498730643 L 962.5197040926487 53.366081806217544 L 962.7155404498923 53.304550821492676 L 962.912728132679 53.24390818617902 L 963.1112474224053 53.18415996448957 L 963.3110784673073 53.12531213119671 L 963.5122012844471 53.067370571034715 L 963.7145957617107 53.01034107811134 L 963.918241659819 52.95422935532834 L 964.1231186143518 52.89904101381123 L 964.3292061377845 52.84478157234818 L 964.5364836215364 52.79145645683812 L 964.7449303380318 52.73907099974815 L 964.954525442773 52.687630439580346 L 965.165247976424 52.637139920347835 L 965.377076866907 52.58760449106049 L 965.5899909315096 52.53902910521993 L 965.8039688790028 52.49141862032429 L 966.01898931177 52.444777797382365 L 966.2350307279472 52.399111300437596 L 966.4520715235727 52.354423696101605 L 966.6700899947481 52.3107194530976 L 966.8890643398076 52.26800294181345 L 967.1089726614994 52.2262784338647 L 967.3297929691746 52.18555010166736 L 967.5515031809863 52.14582201802072 L 967.7740811260982 52.10709815570004 L 967.9975045469012 52.06938238705927 L 968.2217511012393 52.032678483643856 L 968.4467983646442 51.996990115813546 L 968.672623832577 51.96232085237539 L 968.899204922679 51.928674160226834 L 969.1265189770302 51.89605340400906 L 969.3545432644142 51.8644618457705 L 969.5832549825927 51.833902644640645 L 969.8126312605843 51.80437885651416 L 970.0426491609525 51.775893433745246 L 970.2732856820986 51.74844922485244 L 970.504517760563 51.722048974233765 L 970.7363222733303 51.69669532189228 L 970.9686760401427 51.672390803172085 L 971.2015558258169 51.649137848504814 L 971.4349383425684 51.626938783166544 L 971.6688002523402 51.60579582704531 L 971.9031181691361 51.58571109441911 L 972.1378686613596 51.56668659374447 L 972.3730282541571 51.54872422745561 L 972.6085734317655 51.53182579177417 L 972.8444806398631 51.515992976529645 L 973.0807262879259 51.50122736499037 L 973.3172867515857 51.4875304337052 L 973.5541383749935 51.47490355235584 L 973.7912574731841 51.4633479836199 L 974.0286203344456 51.45286488304463 L 974.2662032226893 51.443455298931354 L 974.5039823798246 51.43512017223063 L 974.741934028134 51.4278603364482 L 974.9800343726507 51.42167651756158 L 975.2182596035389 51.41656933394751 L 975.4565858984739 51.41253929632009 L 975.6949894250249 51.40958680767973 L 975.9334463430378 51.407712163272826 L 976.1719328070196 51.40691555056227 L 976.4104249685226 51.40719704920866 L 976.6488989785295 51.40855663106237 L 976.8873309898379 51.41099416016634 L 977.1256971594454 51.414509392769695 L 977.3639736509336 51.419101977352106 L 977.6021366368522 51.42477145465894 L 977.8401623011007 51.431517257747196 L 978.0780268413112 51.43933871204218 L 978.3157064712278 51.44823503540498 L 978.5531774230859 51.45820533821068 L 978.7904159499878 51.4692486234373 L 979.0273983282788 51.48136378676553 L 979.2641008599184 51.49454961668913 L 979.5004998748507 51.50880479463608 L 979.7365717333713 51.524127895100484 L 979.9722928284909 51.54051738578506 L 980.2076395882966 51.5579716277544 L 980.4425884783085 51.57648887559884 L 980.6771160038332 51.59606727760904 L 980.911198712314 51.6167048759611 L 981.1448131956747 51.6383996069124 L 981.3779360926618 51.66114930100791 L 981.6105440911799 51.684951683297186 L 981.842613930623 51.70980437356183 L 982.0741224042005 51.735704886553535 L 982.305046361258 51.76265063224257 L 982.5353627095922 51.79063891607683 L 982.7650484177601 51.81966693925126 L 982.9940805173825 51.849731798987726 L 983.2224361054401 51.88083048882531 L 983.4500923465646 51.91295989892094 L 983.6770264753213 51.94611681636038 L 983.9032157984867 51.980297925479526 L 984.128637697317 52.01549980819594 L 984.3532696298099 52.0517189443507 L 984.5770891329596 52.08895171206036 L 984.8000738250022 52.127194388079175 L 985.0222014076542 52.16644314817141 L 985.2434496683427 52.20669406749378 L 985.4637964824258 52.247943120987884 L 985.6832198154057 52.29018618378274 L 985.9016977251321 52.33341903160728 L 986.119208363996 52.37763734121275 L 986.3357299811148 52.422836690805035 L 986.5512409245072 52.46901256048684 L 986.7657196432584 52.516160332709674 L 986.9791446896754 52.564275292735616 L 987.1914947214314 52.613352629108746 L 987.4027485037001 52.663387434136325 L 987.6128849112793 52.71437470437956 L 987.8218829307033 52.7663093411539 L 988.0297216623445 52.819186151038956 L 988.2363803225028 52.8729998463978 L 988.4418382454845 52.92774504590574 L 988.6460748856684 52.983416275088445 L 988.8490698195608 53.040007966869396 L 989.0508027478373 53.09751446212657 L 989.2512534973735 53.15593001025836 L 989.4504020232611 53.21524876975863 L 989.6482284108137 53.27546480880087 L 989.8447128775573 53.33657210583136 L 990.0398357752091 53.3985645501713 L 990.2335775916418 53.461435942627936 L 990.4259189528352 53.52517999611441 L 990.6168406248137 53.58979033627848 L 990.8063235155688 53.655260502139996 L 990.9943486769697 53.721583946736914 L 991.1808973066568 53.78875403778004 L 991.3659507499225 53.85676405831625 L 991.5494905015768 53.92560720740017 L 991.7314982077975 53.995276600774254 L 991.9119556679656 54.065765271557225 L 992.0908448364854 54.13706617094075 L 992.2681478245892 54.2091721688943 L 992.443846902126 54.28207605487816 L 992.6179244993343 54.35577053856451 L 992.7903632085996 54.43024825056637 L 992.9611457861946 54.50550174317461 L 993.1302551540039 54.581523491102686 L 993.2976744012315 54.658305892239156 L 993.4633867860923 54.73584126840789 L 993.627375737486 54.81412186613588 L 993.789624856654 54.89313985742859 L 993.9501179188196 54.97288734055273 L 994.1088388748104 55.05335634082646 L 994.265771852663 55.1345388114168 L 994.4209011592103 55.21642663414435 L 994.5742112816512 55.29901162029506 L 994.7256868891009 55.38228551143916 L 994.875312834125 55.46623998025691 L 995.0230741542538 55.55086663137139 L 995.1689560734783 55.63615700218803 L 995.3129440037281 55.722102563740805 L 995.4550235463304 55.80869472154519 L 995.5951804934491 55.89592481645755 L 995.7334008295063 55.98378412554111 L 995.8696707325837 56.07226386293816 L 996.0039765758045 56.1613551807487 L 996.1363049286963 56.251049169915184 L 996.2666425585339 56.34133686111345 L 996.3949764316633 56.4322092256496 L 996.521293714804 56.52365717636293 L 996.6455817763326 56.615671568534566 L 996.767828187547 56.70824320080196 L 996.8880207239077 56.80136281607904 L 997.0061473662614 56.89502110248188 L 997.1221963020421 56.98920869425987 L 997.236155926453 57.083916172732344 L 997.3480148436266 57.17913406723036 L 997.4577618677645 57.27485285604382 L 997.5653860242556 57.37106296737362 L 997.6708765507741 57.467754780288786 L 997.7742228983551 57.56491862568861 L 997.87541473245 57.662544787269525 L 997.97444193396 57.76062350249672 L 998.0712946002469 57.859144963580405 L 998.1659630461253 57.95809931845658 L 998.2584378048292 58.05747667177222 L 998.34870962896 58.15726708587479 L 998.4367694914104 58.257460581806065 L 998.5226085862674 58.358047140299924 L 998.6062183296934 58.459016702784346 L 998.6875903607834 58.56035917238722 L 998.7667165424023 58.66206441494605 L 998.8435889619977 58.764122260021324 L 998.9181999323919 58.866522501913586 L 998.9905419925499 58.96925490068398 L 999.0606079083261 59.072309183178234 L 999.1283906731871 59.17567504405398 L 999.1938835089131 59.279342146811274 L 999.257079866275 59.38330012482622 L 999.3179734256897 59.48753858238766 L 999.3765580978521 59.59204709573668 L 999.4328280243437 59.69681521410906 L 999.486777578219 59.80183246078026 L 999.5384013645672 59.907088334113126 L 999.5876942210529 60.012572308608036 L 999.6346512184315 60.11827383595545 L 999.6792676610423 60.22418234609071 L 999.7215390872784 60.33028724825106 L 999.7614612700322 60.43657793203471 L 999.7990302171189 60.54304376846186 L 999.8342421716749 60.64967411103757 L 999.8670936125343 60.75645829681646 L 999.8975812545801 60.86338564746893 L 999.9257020490738 60.97044547034902 L 999.9514531839592 61.07762705956367 L 999.9748320841444 61.184919697043256 L 999.9958364117587 61.29231265361346 L 1000.014464066387 61.399795190068104 L 1000.0307131852792 61.50735655824312 L 1000.0445821435371 61.614986002091314 L 1000.0560695542764 61.72267275875801 L 1000.0651742687655 61.830406059657264 L 1000.0718953765407 61.93817513154877 L 1000.0762322054967 62.04596919761514 L 1000.0781843219543 62.15377747853961 M 1000.0783053120102 96.4920458931 L 1000.0771128521066 96.59985643801662 L 1000.0735355916405 96.70765620196859 L 1000.0675738883352 96.81543440506935 L 1000.0592283383559 96.9231802695884 L 1000.0484997762507 97.03088302102908 L 1000.0353892748668 97.138531889206 L 1000.0198981452436 97.24611610932205 L 1000.002027936481 97.35362492304485 L 999.9817804355849 97.46104757958265 L 999.9591576672888 97.5683733367593 L 999.9341618938504 97.67559146208852 L 999.9067956148264 97.78269123384712 L 999.8770615668218 97.88966194214719 L 999.8449627232167 97.99649289000702 L 999.8105022938686 98.10317339442086 L 999.7736837247918 98.20969278742717 L 999.7345106978124 98.31604041717543 L 999.6929871302007 98.42220564899125 L 999.6491171742787 98.52817786643996 L 999.6029052170053 98.6339464723881 L 999.554355879538 98.73950089006323 L 999.5034740167699 98.84483056411152 L 999.450264716845 98.94992496165337 L 999.3947333006488 99.05477357333659 L 999.3368853212768 99.15936591438738 L 999.2767265634786 99.2636915256588 L 999.21426304308 99.36773997467667 L 999.1495010063808 99.47150085668278 L 999.0824469295308 99.5749637956754 L 999.0131075178818 99.67811844544686 L 998.9414897053172 99.78095449061813 L 998.8676006535585 99.8834616476704 L 998.7914477514495 99.98562966597338 L 998.7130386142167 100.08744832881038 L 998.6323810827085 100.18890745439998 L 998.5494832226111 100.28999689691415 L 998.4643533236413 100.39070654749288 L 998.3769998987178 100.49102633525506 L 998.2874316831106 100.59094622830548 L 998.1956576335666 100.69045623473812 L 998.1016869274142 100.78954640363527 L 998.0055289616456 100.8882068260626 L 997.9071933519775 100.9864276360601 L 997.8066899318887 101.0841990116286 L 997.7040287516376 101.18151117571202 L 997.5992200772565 101.27835439717506 L 997.4922743895256 101.37471899177628 L 997.3832023829247 101.4705953231365 L 997.2720149645634 101.56597380370249 L 997.1587232530908 101.6608448957057 L 997.0433385775839 101.75519911211595 L 996.9258724764138 101.84902701759025 L 996.8063366960929 101.94231922941623 L 996.6847431900997 102.03506641845047 L 996.5611041176833 102.12725931005133 L 996.4354318426479 102.2188886850065 L 996.3077389321164 102.30994538045483 L 996.1780381552734 102.40042029080266 L 996.0463424820884 102.49030436863434 L 995.9126650820192 102.579588625617 L 995.7770193226943 102.66826413339936 L 995.6394187685764 102.75632202450451 L 995.4998771796065 102.84375349321674 L 995.3584085098272 102.93054979646202 L 995.2150269059874 103.01670225468237 L 995.0697467061283 103.10220225270375 L 994.9225824381484 103.18704124059762 L 994.7735488183523 103.27121073453588 L 994.6226607499774 103.3547023176393 L 994.4699333217051 103.4375076408191 L 994.3153818061508 103.51961842361202 L 994.1590216583373 103.60102645500817 L 994.000868514149 103.68172359427226 L 993.8409381887687 103.7617017717576 L 993.6792466750956 103.84095298971312 L 993.5158101421463 103.91946932308304 L 993.3506449334377 103.99724292029944 L 993.1837675653534 104.07426600406745 L 993.0151947254909 104.15053087214287 L 992.8449432709938 104.22602989810241 L 992.6730302268656 104.30075553210642 L 992.4994727842676 104.37470030165377 L 992.3242882987993 104.44785681232914 L 992.1474942887633 104.52021774854238 L 991.9691084334132 104.59177587426021 L 991.7891485711859 104.66252403372968 L 991.6076326979179 104.73245515219378 L 991.4245789650449 104.80156223659897 L 991.240005677788 104.86983837629438 L 991.0539312933217 104.93727674372295 L 990.8663744189298 105.0038705951041 L 990.6773538101431 105.06961327110824 L 990.4868883688653 105.13449819752252 L 990.2949971414814 105.19851888590837 L 990.1016993169546 105.26166893425032 L 989.9070142249061 105.32394202759615 L 989.7109613336829 105.38533193868841 L 989.5135602484107 105.44583252858716 L 989.3148307090337 105.50543774728384 L 989.1147925883399 105.56414163430621 L 988.913465889975 105.62193831931454 L 988.710870746441 105.67882202268845 L 988.5070274170831 105.73478705610502 L 988.3019562860649 105.78982782310756 L 988.0956778603281 105.84393881966523 L 987.8882127675438 105.89711463472344 L 987.6795817540481 105.94934995074503 L 987.4698056827687 106.00063954424192 L 987.2589055311377 106.0509782862975 L 987.0469023889946 106.1003611430795 L 986.8338174564769 106.14878317634341 L 986.6196720419006 106.19623954392625 L 986.4044875596283 106.2427255002308 L 986.188285527929 106.2882363967002 L 985.9710875668259 106.33276768228268 L 985.7529153959339 106.37631490388682 L 985.5337908322883 106.41887370682676 L 985.313735788163 106.46043983525765 L 985.0927722688789 106.50100913260128 L 984.8709223706039 106.54057754196174 L 984.6482082781429 106.57914110653107 L 984.4246522627194 106.61669596998493 L 984.200276679749 106.65323837686829 L 983.9751039666027 106.6887646729709 L 983.7491566403643 106.72327130569276 L 983.5224572955781 106.75675482439937 L 983.2950286019897 106.78921188076673 L 983.0668933022788 106.82063922911627 L 982.8380742097855 106.85103372673933 L 982.6085942062282 106.8803923342115 L 982.3784762394162 106.90871211569649 L 982.1477433209541 106.93599023923973 L 981.9164185239417 106.96222397705162 L 981.6845249806659 106.98741070578025 L 981.4520858802878 107.0115479067737 L 981.2191244665237 107.03463316633201 L 980.9856640353207 107.05666417594847 L 980.7517279325277 107.07763873254045 L 980.5173395515598 107.09755473866979 L 980.2825223310598 107.11641020275246 L 980.0472997525542 107.13420323925777 L 979.8116953381045 107.1509320688969 L 979.5757326479562 107.16659501880085 L 979.3394352781816 107.18119052268763 L 979.1028268583206 107.19471712101905 L 978.865931049018 107.20717346114655 L 978.6287715396575 107.21855829744648 L 978.3913720459923 107.22887049144471 L 978.1537563077738 107.23810901193042 L 977.9159480863782 107.24627293505928 L 977.6779711624291 107.25336144444577 L 977.4398493334207 107.25937383124486 L 977.2016064113376 107.26430949422287 L 976.9632662202732 107.26816793981763 L 976.7248525940482 107.27094878218779 L 976.4863893738265 107.27265174325143 L 976.2479004057313 107.27327665271386 L 976.0094095384608 107.27282344808465 L 975.7709406209029 107.27129217468391 L 975.5325174997507 107.26868298563768 L 975.2941640171177 107.2649961418627 L 975.0559040081533 107.26023201204026 L 974.8177612986601 107.2543910725794 L 974.5797597027105 107.24747390756917 L 974.3419230202657 107.23948120872033 L 974.1042750347957 107.23041377529609 L 973.8668395109012 107.22027251403225 L 973.6296401919365 107.20905843904646 L 973.392700797636 107.1967726717369 L 973.1560450217418 107.18341644067004 L 972.9196965296339 107.16899108145788 L 972.6836789559649 107.15349803662431 L 972.4480159022953 107.1369388554609 L 972.2127309347342 107.11931519387196 L 971.9778475815822 107.10062881420897 L 971.7433893309789 107.08088158509435 L 971.509379628554 107.0600754812345 L 971.2758418750826 107.03821258322252 L 971.0427994241458 107.01529507732995 L 970.810275579794 106.99132525528832 L 970.5782935942182 106.96630551405984 L 970.3468766654236 106.94023835559778 L 970.1160479349101 106.91312638659626 L 969.8858304853585 106.88497231822961 L 969.6562473383219 106.85577896588119 L 969.4273214519236 106.8255492488619 L 969.1990757185616 106.79428619011826 L 968.971532962619 106.76199291593008 L 968.7447159381817 106.72867265559789 L 968.5186473267632 106.69432874111995 L 968.2933497350363 106.65896460685907 L 968.0688456925722 106.62258378919921 L 967.8451576495883 106.58518992619184 L 967.6223079747024 106.5467867571921 L 967.4003189526962 106.50737812248485 L 967.1792127822872 106.46696796290075 L 966.9590115739078 106.42556031942208 L 966.7397373474956 106.38315933277867 L 966.5214120302904 106.33976924303387 L 966.304057454642 106.29539438916049 L 966.087695355827 106.25003920860692 L 965.8723473698747 106.20370823685344 L 965.6580350314044 106.15640610695861 L 965.4447797714713 106.108137549096 L 965.2326029154239 106.05890739008117 L 965.0215256807705 106.00872055288902 L 964.8115691750592 105.9575820561614 L 964.6027543937653 105.90549701370541 L 964.395102218193 105.85247063398188 L 964.1886334133868 105.79850821958458 L 963.9833686260552 105.74361516670999 L 963.7793283825057 105.68779696461766 L 963.5765330865927 105.63105919508126 L 963.3750030176769 105.5734075318305 L 963.1747583285972 105.51484773998365 L 962.9758190436556 105.45538567547108 L 962.7782050566149 105.3950272844497 L 962.581936128709 105.33377860270829 L 962.3870318866672 105.27164575506403 L 962.1935118207513 105.20863495474987 L 962.0013952828065 105.14475250279335 L 961.8107014843267 105.08000478738643 L 961.6214494945327 105.01439828324668 L 961.4336582384658 104.94793955096986 L 961.2473464950951 104.8806352363738 L 961.0625328954397 104.8124920698339 L 960.8792359207057 104.74351686560999 L 960.6974739004374 104.67371652116503 L 960.517265010686 104.6030980164753 L 960.3386272721897 104.53166841333243 L 960.1615785485737 104.4594348546372 L 959.9861365445629 104.38640456368528 L 959.8123188042115 104.31258484344491 L 959.6401427091486 104.2379830758266 L 959.4696254768402 104.16260672094495 L 959.3007841588676 104.08646331637262 L 959.1336356392217 104.00956047638662 L 958.9681966326153 103.93190589120688 L 958.8044836828111 103.85350732622719 L 958.6425131609678 103.77437262123871 L 958.4823012640026 103.694509689646 L 958.3238640129714 103.61392651767568 L 958.1672172514676 103.53263116357778 L 958.0123766440367 103.45063175681996 L 957.8593576746105 103.36793649727457 L 957.7081756449581 103.28455365439865 L 957.5588456731568 103.20049156640701 L 957.4113826920793 103.1157586394384 L 957.2658014479008 103.03036334671489 L 957.1221164986243 102.94431422769459 L 956.9803422126251 102.85761988721772 L 956.8404927672137 102.77028899464605 L 956.702582147218 102.68233028299609 L 956.5666241435849 102.5937525480657 L 956.4326323520019 102.50456464755453 L 956.3006201715361 102.41477550017834 L 956.1706008032958 102.32439408477703 L 956.0425872491093 102.23342943941684 L 955.9165923102254 102.14189066048647 L 955.7926285860331 102.04978690178756 L 955.6707084728014 101.95712737361922 L 955.55084416244 101.86392134185704 L 955.43304764128 101.77017812702654 L 955.3173306888756 101.67590710337106 L 955.2037048768253 101.58111769791444 L 955.092181567616 101.48581938951821 L 954.9827719134853 101.39002170793381 L 954.8754868553076 101.29373423284954 L 954.7703371214993 101.19696659293271 L 954.6673332269463 101.09972846486664 L 954.566485471952 101.00202957238312 L 954.4678039412079 100.90387968528998 L 954.371298502785 100.80528861849413 L 954.2769788071465 100.70626623102011 L 954.1848542861835 100.60682242502413 L 954.0949341522713 100.50696714480392 L 954.0072273973484 100.40671037580431 L 953.9217427920171 100.30606214361863 L 953.8384888846668 100.20503251298624 L 953.7574740006188 100.103631586786 L 953.678706241294 100.00186950502604 L 953.6021934834027 99.89975644382972 L 953.5279433781569 99.79730261441809 L 953.4559633505054 99.69451826208869 L 953.3862605983907 99.59141366519111 L 953.3188420920302 99.48799913409913 L 953.2537145732182 99.38428501017967 L 953.1908845546523 99.28028166475868 L 953.1303583192821 99.17599949808405 L 953.0721419196806 99.07144893828554 L 953.0162411774394 98.96664044033201 L 952.9626616825859 98.86158448498593 L 952.9114087930251 98.75629157775525 L 952.8624876340033 98.65077224784297 L 952.8159030975954 98.54503704709414 L 952.7716598422165 98.43909654894075 L 952.7297622921551 98.33296134734431 L 952.6902146371314 98.22664205573652 L 952.6530208318777 98.12014930595798 L 952.6181845957439 98.01349374719489 L 952.5857094123241 97.90668604491427 L 952.5555985291102 97.79973687979731 L 952.5278549571649 97.69265694667143 L 952.5024814708225 97.58545695344071 L 952.4794806074106 97.47814762001512 L 952.4588546669961 97.37073967723859 L 952.440605712156 97.26324386581588 L 952.4247355677705 97.15567093523856 L 952.411245820841 97.04803164271006 L 952.4001378203308 96.94033675206991 L 952.3914126770308 96.83259703271744 L 952.3850712634478 96.7248232585348 L 952.3811142137182 96.6170262068096 L 952.3795419235435 96.50921665715717" stroke-miterlimit="10" stroke-width="2.7769845610000004" stroke-dasharray=""/></g><g><text fill="black" stroke="none" font-family="sans-serif" font-size="11pt" font-style="normal" font-weight="normal" text-decoration="normal" x="944.8509635477212" y="124.80095321200001" text-anchor="start" dominant-baseline="alphabetic" xml:space="preserve">Database</text></g></g><g><path fill="white" stroke="black" paint-order="fill stroke markers" d=" M 391.73619153333334 183.607685092 L 408.07139483333333 183.607685092 L 408.07139483333333 1363.009363352 L 391.73619153333334 1363.009363352 L 391.73619153333334 183.607685092" stroke-miterlimit="10" stroke-width="1.3612669416666667" stroke-dasharray=""/><path fill="white" stroke="black" paint-order="fill stroke markers" d=" M 636.5854281776041 412.300531292 L 652.9206314776042 412.300531292 L 652.9206314776042 1317.270794112 L 636.5854281776041 1317.270794112 L 636.5854281776041 412.300531292" stroke-miterlimit="10" stroke-width="1.3612669416666667" stroke-dasharray=""/><path fill="white" stroke="black" paint-order="fill stroke markers" d=" M 644.7530298276041 479.27486482200004 L 661.0882331276042 479.27486482200004 L 661.0882331276042 525.013434062 L 644.7530298276041 525.013434062 L 644.7530298276041 479.27486482200004" stroke-miterlimit="10" stroke-width="1.3612669416666667" stroke-dasharray=""/><path fill="white" stroke="black" paint-order="fill stroke markers" d=" M 815.2450597016925 771.6750038919998 L 831.5802630016926 771.6750038919998 L 831.5802630016926 908.8907116119997 L 815.2450597016925 908.8907116119997 L 815.2450597016925 771.6750038919998" stroke-miterlimit="10" stroke-width="1.3612669416666667" stroke-dasharray=""/><path fill="white" stroke="black" paint-order="fill stroke markers" d=" M 968.0613068440102 817.4135731319998 L 984.3965101440103 817.4135731319998 L 984.3965101440103 863.1521423719997 L 968.0613068440102 863.1521423719997 L 968.0613068440102 817.4135731319998" stroke-miterlimit="10" stroke-width="1.3612669416666667" stroke-dasharray=""/><path fill="white" stroke="black" paint-order="fill stroke markers" d=" M 815.2450597016925 1134.3165171519997 L 831.5802630016926 1134.3165171519997 L 831.5802630016926 1271.532224872 L 815.2450597016925 1271.532224872 L 815.2450597016925 1134.3165171519997" stroke-miterlimit="10" stroke-width="1.3612669416666667" stroke-dasharray=""/><path fill="white" stroke="black" paint-order="fill stroke markers" d=" M 968.0613068440102 1180.0550863919998 L 984.3965101440103 1180.0550863919998 L 984.3965101440103 1225.7936556319999 L 968.0613068440102 1225.7936556319999 L 968.0613068440102 1180.0550863919998" stroke-miterlimit="10" stroke-width="1.3612669416666667" stroke-dasharray=""/><g><g><rect fill="white" stroke="none" x="109.17360872166667" y="162.371920802" width="263.23259224" height="21.23576429"/></g><text fill="black" stroke="none" font-family="sans-serif" font-size="11pt" font-style="normal" font-weight="normal" text-decoration="normal" x="111.62388921666667" y="177.07360377199998" text-anchor="start" dominant-baseline="alphabetic" xml:space="preserve">Choose three-dot button in specific post</text></g><g><path fill="none" stroke="black" paint-order="fill stroke markers" d=" M 89.84361815 183.607685092 L 378.2868741496667 183.607685092" stroke-miterlimit="10" stroke-width="1.3612669416666667" stroke-dasharray=""/><g transform="translate(391.73619153333334,183.607685092) translate(-391.73619153333334,-183.607685092)"><path fill="black" stroke="none" paint-order="stroke fill markers" d=" M 378.12352211666666 176.80135038366666 L 391.73619153333334 183.607685092 L 378.12352211666666 190.41401980033334 Z"/></g></g><g><g><rect fill="white" stroke="none" x="126.29599946873698" y="208.110490042" width="228.98781074585938" height="21.23576429"/></g><text fill="black" stroke="none" font-family="sans-serif" font-size="11pt" font-style="normal" font-weight="normal" text-decoration="normal" x="128.74627996373698" y="222.812173012" text-anchor="start" dominant-baseline="alphabetic" xml:space="preserve">Show a list of actions with the post</text></g><g><path fill="none" stroke="black" paint-order="fill stroke markers" d=" M 391.73619153333334 229.346254332 L 103.29293553366666 229.346254332" stroke-miterlimit="10" stroke-width="1.3612669416666667" stroke-dasharray="6.53408132"/><g transform="translate(89.84361815,229.346254332) translate(-89.84361815,-229.346254332)"><path fill="black" stroke="none" paint-order="stroke fill markers" d=" M 103.45628756666666 222.53991962366666 L 89.84361815 229.346254332 L 103.45628756666666 236.15258904033334 Z"/></g></g><g><g><rect fill="white" stroke="none" x="183.34322542088543" y="253.849059282" width="114.8933588415625" height="21.23576429"/></g><text fill="black" stroke="none" font-family="sans-serif" font-size="11pt" font-style="normal" font-weight="normal" text-decoration="normal" x="185.79350591588542" y="268.550742252" text-anchor="start" dominant-baseline="alphabetic" xml:space="preserve">Click Delete post</text></g><g><path fill="none" stroke="black" paint-order="fill stroke markers" d=" M 89.84361815 275.084823572 L 378.2868741496667 275.084823572" stroke-miterlimit="10" stroke-width="1.3612669416666667" stroke-dasharray=""/><g transform="translate(391.73619153333334,275.084823572) translate(-391.73619153333334,-275.084823572)"><path fill="black" stroke="none" paint-order="stroke fill markers" d=" M 378.12352211666666 268.27848886366667 L 391.73619153333334 275.084823572 L 378.12352211666666 281.89115828033334 Z"/></g></g><g><g><rect fill="white" stroke="none" x="136.87938875096356" y="299.587628522" width="207.82103218140625" height="21.23576429"/></g><text fill="black" stroke="none" font-family="sans-serif" font-size="11pt" font-style="normal" font-weight="normal" text-decoration="normal" x="139.32966924596354" y="314.28931149199997" text-anchor="start" dominant-baseline="alphabetic" xml:space="preserve">Delete post confirmation popup</text></g><g><path fill="none" stroke="black" paint-order="fill stroke markers" d=" M 391.73619153333334 320.823392812 L 103.29293553366666 320.823392812" stroke-miterlimit="10" stroke-width="1.3612669416666667" stroke-dasharray="6.53408132"/><g transform="translate(89.84361815,320.823392812) translate(-89.84361815,-320.823392812)"><path fill="black" stroke="none" paint-order="stroke fill markers" d=" M 103.45628756666666 314.01705810366667 L 89.84361815 320.823392812 L 103.45628756666666 327.62972752033335 Z"/></g></g><g><g><rect fill="white" stroke="none" x="176.81852907078778" y="345.326197762" width="127.94275154175781" height="21.23576429"/></g><text fill="black" stroke="none" font-family="sans-serif" font-size="11pt" font-style="normal" font-weight="normal" text-decoration="normal" x="179.26880956578776" y="360.02788073199997" text-anchor="start" dominant-baseline="alphabetic" xml:space="preserve">Click Delete button</text></g><g><path fill="none" stroke="black" paint-order="fill stroke markers" d=" M 89.84361815 366.561962052 L 378.2868741496667 366.561962052" stroke-miterlimit="10" stroke-width="1.3612669416666667" stroke-dasharray=""/><g transform="translate(391.73619153333334,366.561962052) translate(-391.73619153333334,-366.561962052)"><path fill="black" stroke="none" paint-order="stroke fill markers" d=" M 378.12352211666666 359.7556273436667 L 391.73619153333334 366.561962052 L 378.12352211666666 373.36829676033335 Z"/></g></g><g><g><rect fill="white" stroke="none" x="446.94328603976555" y="391.064767002" width="150.77025093140625" height="21.23576429"/></g><text fill="black" stroke="none" font-family="sans-serif" font-size="11pt" font-style="normal" font-weight="normal" text-decoration="normal" x="449.39356653476557" y="405.766449972" text-anchor="start" dominant-baseline="alphabetic" xml:space="preserve">DELETE: /api/post/{id}</text></g><g><path fill="none" stroke="black" paint-order="fill stroke markers" d=" M 408.07139483333333 412.300531292 L 623.1361107939374 412.300531292" stroke-miterlimit="10" stroke-width="1.3612669416666667" stroke-dasharray=""/><g transform="translate(636.5854281776041,412.300531292) translate(-636.5854281776041,-412.300531292)"><path fill="black" stroke="none" paint-order="stroke fill markers" d=" M 622.9727587609374 405.4941965836667 L 636.5854281776041 412.300531292 L 622.9727587609374 419.10686600033335 Z"/></g></g><g><g><rect fill="white" stroke="none" x="680.4182236992708" y="436.80333624200006" width="129.10951484742188" height="21.23576429"/></g><text fill="black" stroke="none" font-family="sans-serif" font-size="11pt" font-style="normal" font-weight="normal" text-decoration="normal" x="682.8685041942708" y="451.50501921200004" text-anchor="start" dominant-baseline="alphabetic" xml:space="preserve">check post's owner</text></g><g><path fill="none" stroke="black" paint-order="fill stroke markers" d=" M 652.9206314776042 458.039100532 L 726.429046327604 458.039100532 L 726.429046327604 479.27486482200004 L 674.5375505112708 479.27486482200004" stroke-miterlimit="10" stroke-width="1.3612669416666667" stroke-dasharray=""/><g transform="translate(661.0882331276041,479.27486482200004) translate(-661.0882331276041,-479.27486482200004)"><path fill="black" stroke="none" paint-order="stroke fill markers" d=" M 674.7009025442708 472.4685301136667 L 661.0882331276041 479.27486482200004 L 674.7009025442708 486.0811995303334 Z"/></g></g><g><g><rect fill="white" stroke="none" x="680.4182236992708" y="503.777669772" width="92.89622749390625" height="21.23576429"/></g><text fill="black" stroke="none" font-family="sans-serif" font-size="11pt" font-style="normal" font-weight="normal" text-decoration="normal" x="682.8685041942708" y="518.4793527420001" text-anchor="start" dominant-baseline="alphabetic" xml:space="preserve">is Post owner</text></g><g><path fill="none" stroke="black" paint-order="fill stroke markers" d=" M 661.0882331276041 525.013434062 L 726.429046327604 525.013434062 L 726.429046327604 546.249198352 L 666.3699488612707 546.249198352" stroke-miterlimit="10" stroke-width="1.3612669416666667" stroke-dasharray="6.53408132"/><g transform="translate(652.920631477604,546.249198352) translate(-652.920631477604,-546.249198352)"><path fill="black" stroke="none" paint-order="stroke fill markers" d=" M 666.5333008942707 539.4428636436667 L 652.920631477604 546.249198352 L 666.5333008942707 553.0555330603333 Z"/></g></g><g><g><rect fill="white" stroke="none" x="462.44433889621087" y="614.8570522119999" width="119.76814521851563" height="21.23576429"/></g><text fill="red" stroke="none" font-family="sans-serif" font-size="11pt" font-style="normal" font-weight="normal" text-decoration="normal" x="464.8946193912109" y="629.5587351819999" text-anchor="start" dominant-baseline="alphabetic" xml:space="preserve">403 FORBIDDEN</text></g><g><path fill="none" stroke="black" paint-order="fill stroke markers" d=" M 636.5854281776041 636.0928165019999 L 421.520712217 636.0928165019999" stroke-miterlimit="10" stroke-width="1.3612669416666667" stroke-dasharray="6.53408132"/><g transform="translate(408.07139483333333,636.0928165019999) translate(-408.07139483333333,-636.0928165019999)"><path fill="black" stroke="none" paint-order="stroke fill markers" d=" M 421.68406425 629.2864817936666 L 408.07139483333333 636.0928165019999 L 421.68406425 642.8991512103332 Z"/></g></g><g><g><rect fill="white" stroke="none" x="205.74479097264324" y="660.5956214519998" width="70.09022773804688" height="21.23576429"/></g><text fill="black" stroke="none" font-family="sans-serif" font-size="11pt" font-style="normal" font-weight="normal" text-decoration="normal" x="208.19507146764323" y="675.2973044219998" text-anchor="start" dominant-baseline="alphabetic" xml:space="preserve">Delete fail</text></g><g><path fill="none" stroke="black" paint-order="fill stroke markers" d=" M 391.73619153333334 681.8313857419998 L 103.29293553366666 681.8313857419998" stroke-miterlimit="10" stroke-width="1.3612669416666667" stroke-dasharray="6.53408132"/><g transform="translate(89.84361815,681.8313857419998) translate(-89.84361815,-681.8313857419998)"><path fill="black" stroke="none" paint-order="stroke fill markers" d=" M 103.45628756666666 675.0250510336665 L 89.84361815 681.8313857419998 L 103.45628756666666 688.6377204503332 Z"/></g></g><g><g><rect fill="white" stroke="none" x="699.868099762617" y="750.4392396019998" width="68.4294916540625" height="21.23576429"/></g><text fill="black" stroke="none" font-family="sans-serif" font-size="11pt" font-style="normal" font-weight="normal" text-decoration="normal" x="702.318380257617" y="765.1409225719998" text-anchor="start" dominant-baseline="alphabetic" xml:space="preserve">isExist(id)</text></g><g><path fill="none" stroke="black" paint-order="fill stroke markers" d=" M 652.9206314776042 771.6750038919998 L 801.7957423180259 771.6750038919998" stroke-miterlimit="10" stroke-width="1.3612669416666667" stroke-dasharray=""/><g transform="translate(815.2450597016925,771.6750038919998) translate(-815.2450597016925,-771.6750038919998)"><path fill="black" stroke="none" paint-order="stroke fill markers" d=" M 801.6323902850258 764.8686691836665 L 815.2450597016925 771.6750038919998 L 801.6323902850258 778.4813386003332 Z"/></g></g><g><g><rect fill="white" stroke="none" x="865.6060390958202" y="796.1778088419998" width="68.4294916540625" height="21.23576429"/></g><text fill="black" stroke="none" font-family="sans-serif" font-size="11pt" font-style="normal" font-weight="normal" text-decoration="normal" x="868.0563195908202" y="810.8794918119997" text-anchor="start" dominant-baseline="alphabetic" xml:space="preserve">isExist(id)</text></g><g><path fill="none" stroke="black" paint-order="fill stroke markers" d=" M 831.5802630016926 817.4135731319998 L 954.6119894603436 817.4135731319998" stroke-miterlimit="10" stroke-width="1.3612669416666667" stroke-dasharray=""/><g transform="translate(968.0613068440102,817.4135731319998) translate(-968.0613068440102,-817.4135731319998)"><path fill="black" stroke="none" paint-order="stroke fill markers" d=" M 954.4486374273436 810.6072384236664 L 968.0613068440102 817.4135731319998 L 954.4486374273436 824.2199078403331 Z"/></g></g><g><g><rect fill="white" stroke="none" x="850.9102535733592" y="841.9163780819997" width="97.82106269898438" height="21.23576429"/></g><text fill="black" stroke="none" font-family="sans-serif" font-size="11pt" font-style="normal" font-weight="normal" text-decoration="normal" x="853.3605340683592" y="856.6180610519997" text-anchor="start" dominant-baseline="alphabetic" xml:space="preserve">Boolean value</text></g><g><path fill="none" stroke="black" paint-order="fill stroke markers" d=" M 968.0613068440102 863.1521423719997 L 845.0295803853593 863.1521423719997" stroke-miterlimit="10" stroke-width="1.3612669416666667" stroke-dasharray="6.53408132"/><g transform="translate(831.5802630016926,863.1521423719997) translate(-831.5802630016926,-863.1521423719997)"><path fill="black" stroke="none" paint-order="stroke fill markers" d=" M 845.1929324183593 856.3458076636664 L 831.5802630016926 863.1521423719997 L 845.1929324183593 869.9584770803331 Z"/></g></g><g><g><rect fill="white" stroke="none" x="685.1723142401561" y="887.6549473219997" width="97.82106269898438" height="21.23576429"/></g><text fill="black" stroke="none" font-family="sans-serif" font-size="11pt" font-style="normal" font-weight="normal" text-decoration="normal" x="687.6225947351561" y="902.3566302919996" text-anchor="start" dominant-baseline="alphabetic" xml:space="preserve">Boolean value</text></g><g><path fill="none" stroke="black" paint-order="fill stroke markers" d=" M 815.2450597016925 908.8907116119997 L 666.3699488612708 908.8907116119997" stroke-miterlimit="10" stroke-width="1.3612669416666667" stroke-dasharray="6.53408132"/><g transform="translate(652.9206314776042,908.8907116119997) translate(-652.9206314776042,-908.8907116119997)"><path fill="black" stroke="none" paint-order="stroke fill markers" d=" M 666.5333008942708 902.0843769036663 L 652.9206314776042 908.8907116119997 L 666.5333008942708 915.697046320333 Z"/></g></g><g><g><rect fill="white" stroke="none" x="427.4013854049999" y="977.4985654719997" width="189.8540522009375" height="21.23576429"/></g><text fill="red" stroke="none" font-family="sans-serif" font-size="11pt" font-style="normal" font-weight="normal" text-decoration="normal" x="429.85166589999994" y="992.2002484419996" text-anchor="start" dominant-baseline="alphabetic" xml:space="preserve">404 NOT FOUND: not found</text></g><g><path fill="none" stroke="black" paint-order="fill stroke markers" d=" M 636.5854281776041 998.7343297619997 L 421.520712217 998.7343297619997" stroke-miterlimit="10" stroke-width="1.3612669416666667" stroke-dasharray="6.53408132"/><g transform="translate(408.07139483333333,998.7343297619997) translate(-408.07139483333333,-998.7343297619997)"><path fill="black" stroke="none" paint-order="stroke fill markers" d=" M 421.68406425 991.9279950536663 L 408.07139483333333 998.7343297619997 L 421.68406425 1005.540664470333 Z"/></g></g><g><g><rect fill="white" stroke="none" x="205.74479097264324" y="1023.2371347119996" width="70.09022773804688" height="21.23576429"/></g><text fill="black" stroke="none" font-family="sans-serif" font-size="11pt" font-style="normal" font-weight="normal" text-decoration="normal" x="208.19507146764323" y="1037.9388176819996" text-anchor="start" dominant-baseline="alphabetic" xml:space="preserve">Delete fail</text></g><g><path fill="none" stroke="black" paint-order="fill stroke markers" d=" M 391.73619153333334 1044.4728990019996 L 103.29293553366666 1044.4728990019996" stroke-miterlimit="10" stroke-width="1.3612669416666667" stroke-dasharray="6.53408132"/><g transform="translate(89.84361815,1044.4728990019996) translate(-89.84361815,-1044.4728990019996)"><path fill="black" stroke="none" paint-order="stroke fill markers" d=" M 103.45628756666666 1037.6665642936664 L 89.84361815 1044.4728990019996 L 103.45628756666666 1051.2792337103328 Z"/></g></g><g><g><rect fill="white" stroke="none" x="692.1121869818553" y="1113.0807528619998" width="83.94131721558594" height="21.23576429"/></g><text fill="black" stroke="none" font-family="sans-serif" font-size="11pt" font-style="normal" font-weight="normal" text-decoration="normal" x="694.5624674768553" y="1127.782435832" text-anchor="start" dominant-baseline="alphabetic" xml:space="preserve">deleteById()</text></g><g><path fill="none" stroke="black" paint-order="fill stroke markers" d=" M 652.9206314776042 1134.3165171519997 L 801.7957423180259 1134.3165171519997" stroke-miterlimit="10" stroke-width="1.3612669416666667" stroke-dasharray=""/><g transform="translate(815.2450597016925,1134.3165171519997) translate(-815.2450597016925,-1134.3165171519997)"><path fill="black" stroke="none" paint-order="stroke fill markers" d=" M 801.6323902850258 1127.5101824436665 L 815.2450597016925 1134.3165171519997 L 801.6323902850258 1141.122851860333 Z"/></g></g><g><g><rect fill="white" stroke="none" x="857.8501263150584" y="1158.819322102" width="83.94131721558594" height="21.23576429"/></g><text fill="black" stroke="none" font-family="sans-serif" font-size="11pt" font-style="normal" font-weight="normal" text-decoration="normal" x="860.3004068100585" y="1173.521005072" text-anchor="start" dominant-baseline="alphabetic" xml:space="preserve">deleteById()</text></g><g><path fill="none" stroke="black" paint-order="fill stroke markers" d=" M 831.5802630016926 1180.0550863919998 L 954.6119894603436 1180.0550863919998" stroke-miterlimit="10" stroke-width="1.3612669416666667" stroke-dasharray=""/><g transform="translate(968.0613068440102,1180.0550863919998) translate(-968.0613068440102,-1180.0550863919998)"><path fill="black" stroke="none" paint-order="stroke fill markers" d=" M 954.4486374273436 1173.2487516836666 L 968.0613068440102 1180.0550863919998 L 954.4486374273436 1186.861421100333 Z"/></g></g><g><g><rect fill="white" stroke="none" x="897.3705044278514" y="1204.557891342" width="4.90056099" height="21.23576429"/></g><text fill="black" stroke="none" font-family="sans-serif" font-size="11pt" font-style="normal" font-weight="normal" text-decoration="normal" x="899.8207849228514" y="1219.259574312" text-anchor="start" dominant-baseline="alphabetic" xml:space="preserve"></text></g><g><path fill="none" stroke="black" paint-order="fill stroke markers" d=" M 968.0613068440102 1225.7936556319999 L 845.0295803853593 1225.7936556319999" stroke-miterlimit="10" stroke-width="1.3612669416666667" stroke-dasharray="6.53408132"/><g transform="translate(831.5802630016926,1225.7936556319999) translate(-831.5802630016926,-1225.7936556319999)"><path fill="black" stroke="none" paint-order="stroke fill markers" d=" M 845.1929324183593 1218.9873209236666 L 831.5802630016926 1225.7936556319999 L 845.1929324183593 1232.599990340333 Z"/></g></g><g><g><rect fill="white" stroke="none" x="731.6325650946483" y="1250.296460582" width="4.90056099" height="21.23576429"/></g><text fill="black" stroke="none" font-family="sans-serif" font-size="11pt" font-style="normal" font-weight="normal" text-decoration="normal" x="734.0828455896483" y="1264.998143552" text-anchor="start" dominant-baseline="alphabetic" xml:space="preserve"></text></g><g><path fill="none" stroke="black" paint-order="fill stroke markers" d=" M 815.2450597016925 1271.532224872 L 666.3699488612708 1271.532224872" stroke-miterlimit="10" stroke-width="1.3612669416666667" stroke-dasharray="6.53408132"/><g transform="translate(652.9206314776042,1271.532224872) translate(-652.9206314776042,-1271.532224872)"><path fill="black" stroke="none" paint-order="stroke fill markers" d=" M 666.5333008942708 1264.7258901636667 L 652.9206314776042 1271.532224872 L 666.5333008942708 1278.3385595803331 Z"/></g></g><g><g><rect fill="white" stroke="none" x="495.0212965988476" y="1296.035029822" width="54.61422981324219" height="21.23576429"/></g><text fill="green" stroke="none" font-family="sans-serif" font-size="11pt" font-style="normal" font-weight="normal" text-decoration="normal" x="497.4715770938476" y="1310.7367127920002" text-anchor="start" dominant-baseline="alphabetic" xml:space="preserve">200 OK</text></g><g><path fill="none" stroke="black" paint-order="fill stroke markers" d=" M 636.5854281776041 1317.270794112 L 421.520712217 1317.270794112" stroke-miterlimit="10" stroke-width="1.3612669416666667" stroke-dasharray="6.53408132"/><g transform="translate(408.07139483333333,1317.270794112) translate(-408.07139483333333,-1317.270794112)"><path fill="black" stroke="none" paint-order="stroke fill markers" d=" M 421.68406425 1310.4644594036668 L 408.07139483333333 1317.270794112 L 421.68406425 1324.0771288203332 Z"/></g></g><g><g><rect fill="white" stroke="none" x="175.60164827244793" y="1341.7735990620001" width="130.3765131384375" height="21.23576429"/></g><text fill="black" stroke="none" font-family="sans-serif" font-size="11pt" font-style="normal" font-weight="normal" text-decoration="normal" x="178.05192876744792" y="1356.4752820320002" text-anchor="start" dominant-baseline="alphabetic" xml:space="preserve">Delete successfully</text></g><g><path fill="none" stroke="black" paint-order="fill stroke markers" d=" M 391.73619153333334 1363.009363352 L 103.29293553366666 1363.009363352" stroke-miterlimit="10" stroke-width="1.3612669416666667" stroke-dasharray="6.53408132"/><g transform="translate(89.84361815,1363.009363352) translate(-89.84361815,-1363.009363352)"><path fill="black" stroke="none" paint-order="stroke fill markers" d=" M 103.45628756666666 1356.2030286436668 L 89.84361815 1363.009363352 L 103.45628756666666 1369.8156980603333 Z"/></g></g><g><g/><path fill="none" stroke="black" paint-order="fill stroke markers" d=" M 16.335203300000003 570.7520033019999 L 1049.7373233440103 570.7520033019999 L 1049.7373233440103 1412.014973252 L 16.335203300000003 1412.014973252 L 16.335203300000003 570.7520033019999 Z" stroke-miterlimit="10" stroke-width="2.3336004714285714" stroke-dasharray=""/><path fill="white" stroke="black" paint-order="fill stroke markers" d=" M 16.335203300000003 570.7520033019999 L 16.335203300000003 590.354247262 L 62.694406897070316 590.354247262 L 72.49552887707031 580.5531252819999 L 72.49552887707031 570.7520033019999 L 16.335203300000003 570.7520033019999" stroke-miterlimit="10" stroke-width="2.3336004714285714" stroke-dasharray=""/><text fill="black" stroke="none" font-family="sans-serif" font-size="8.8pt" font-style="normal" font-weight="bold" text-decoration="normal" x="32.67040660000001" y="583.8201659419999" text-anchor="start" dominant-baseline="alphabetic" xml:space="preserve">alt</text><g><rect fill="white" stroke="none" x="86.38045168207032" y="572.0588195659999" width="247.97699226441406" height="16.988611432000003"/></g><text fill="black" stroke="none" font-family="sans-serif" font-size="8.8pt" font-style="normal" font-weight="bold" text-decoration="normal" x="88.83073217707032" y="583.8201659419999" text-anchor="start" dominant-baseline="alphabetic" xml:space="preserve">[If Current User does not owner of the post]</text><g><path fill="none" stroke="black" paint-order="fill stroke markers" d=" M 16.335203300000003 706.3341906919999 L 1049.7373233440103 706.3341906919999" stroke-miterlimit="10" stroke-width="2.3336004714285714" stroke-dasharray="4.083800825"/></g><g/></g><g/><g><g/><path fill="none" stroke="black" paint-order="fill stroke markers" d=" M 32.6704066 933.3935165619997 L 1033.4021200440102 933.3935165619997 L 1033.4021200440102 1387.512168302 L 32.6704066 1387.512168302 L 32.6704066 933.3935165619997 Z" stroke-miterlimit="10" stroke-width="2.3336004714285714" stroke-dasharray=""/><path fill="white" stroke="black" paint-order="fill stroke markers" d=" M 32.6704066 933.3935165619997 L 32.6704066 952.9957605219997 L 79.02961019707031 952.9957605219997 L 88.83073217707032 943.1946385419997 L 88.83073217707032 933.3935165619997 L 32.6704066 933.3935165619997" stroke-miterlimit="10" stroke-width="2.3336004714285714" stroke-dasharray=""/><text fill="black" stroke="none" font-family="sans-serif" font-size="8.8pt" font-style="normal" font-weight="bold" text-decoration="normal" x="49.005609899999996" y="946.4616792019997" text-anchor="start" dominant-baseline="alphabetic" xml:space="preserve">alt</text><g><rect fill="white" stroke="none" x="102.71565498207032" y="934.7003328259997" width="130.68287910523438" height="16.988611432000003"/></g><text fill="black" stroke="none" font-family="sans-serif" font-size="8.8pt" font-style="normal" font-weight="bold" text-decoration="normal" x="105.16593547707032" y="946.4616792019997" text-anchor="start" dominant-baseline="alphabetic" xml:space="preserve">[If Post does not exist]</text><g><path fill="none" stroke="black" paint-order="fill stroke markers" d=" M 32.6704066 1068.9757039519998 L 1033.4021200440102 1068.9757039519998" stroke-miterlimit="10" stroke-width="2.3336004714285714" stroke-dasharray="4.083800825"/></g><g/></g><g/></g></g></svg>