<svg version="1.1" xmlns="http://www.w3.org/2000/svg" xmlns:xlink="http://www.w3.org/1999/xlink" width="993" height="593"><desc>title%20Get%20all%20Joined%20Group%0A%0Aactor%20%23green%3A0.5%20%22Workspace%20User%22%20as%20w%0Aboundary%20%22Homepage%22%20as%20f%0Acontrol%20%22User%20%5CnController%22%20as%20gc%0Aparticipant%20%22Group%20Member%20%5CnService%22%20as%20gs%0A%0Adatabase%20%23blue%3A1%20%22Database%22%20as%20db%0A%0Aw-%3Ef%3AClick%20%20See%20all%E2%80%A6%20button%5Cn%20on%20Social%20Network%20Menu%0Aactivate%20f%0A%0Af-%3Egc%3AGET%3A%20%2Fapi%2Fuser%2F%7Bid%7D%2Fgroups%0Aactivate%20gc%0Agc-%3Egs%3A%20getAllByUserId(id)%0Aactivate%20gs%0Ags-%3Edb%3A%20getAllByUserId(id)%0Aactivate%20db%0Ags%3C--db%3AGroup%20list%0Adeactivate%20db%0Agc%3C--gs%3AGroup%20list%0Adeactivate%20gs%0Aactivate%20gs%0Adeactivate%20gs%0A%0A%0Af%3C--gc%3A%3Ccolor%3A%23green%3E200%20OK%3A%20Joined%20group%20list%3C%2Fcolor%3E%0Adeactivate%20gc%0A%0Aw%3C--f%3A%20Display%20the%20list%20of%20group%20user%20has%20joined%0Adeactivate%20f%0A</desc><defs/><g><g/><g/><g/><g/><g/><g/><g/><g/><g/><g/><g/><g/><g/><g/><g/><g/><g><rect fill="white" stroke="none" x="0" y="0" width="993" height="593"/></g><g><text fill="black" stroke="none" font-family="sans-serif" font-size="16.5pt" font-style="normal" font-weight="normal" text-decoration="normal" x="395.9392433131999" y="24.50280495" text-anchor="start" dominant-baseline="alphabetic" xml:space="preserve">Get all Joined Group</text></g><g/><g><path fill="none" stroke="black" paint-order="fill stroke markers" d=" M 62.20838076376953 146.036717502 L 62.20838076376953 593.621287922" stroke-miterlimit="10" stroke-width="1.3612669416666667" stroke-dasharray="12.565541,5.445067766666667"/><path fill="none" stroke="black" paint-order="fill stroke markers" d=" M 369.81327930784505 146.036717502 L 369.81327930784505 593.621287922" stroke-miterlimit="10" stroke-width="1.3612669416666667" stroke-dasharray="12.565541,5.445067766666667"/><path fill="none" stroke="black" paint-order="fill stroke markers" d=" M 596.7669623632487 146.036717502 L 596.7669623632487 593.621287922" stroke-miterlimit="10" stroke-width="1.3612669416666667" stroke-dasharray="12.565541,5.445067766666667"/><path fill="none" stroke="black" paint-order="fill stroke markers" d=" M 774.7943453698242 146.036717502 L 774.7943453698242 593.621287922" stroke-miterlimit="10" stroke-width="1.3612669416666667" stroke-dasharray="12.565541,5.445067766666667"/><path fill="none" stroke="black" paint-order="fill stroke markers" d=" M 952.8217283763997 146.036717502 L 952.8217283763997 593.621287922" stroke-miterlimit="10" stroke-width="1.3612669416666667" stroke-dasharray="12.565541,5.445067766666667"/></g><g><g><path fill="white" stroke="green" paint-order="fill stroke markers" d=" M 71.51944664476953 76.93880754300004 A 9.311065881 9.311065881 0 1 1 71.51944198923698 76.92949647867087 M 62.20838076376953 86.24987342400003 L 62.20838076376953 106.17882145000003 M 50.447034387769534 93.43736287600004 L 73.96972713976953 93.43736287600004 M 62.20838076376953 106.17882145000003 L 50.447034387769534 124.80095321200002 M 62.20838076376953 106.17882145000003 L 73.96972713976953 124.80095321200002" stroke-miterlimit="10" stroke-width="1.3884922805000002" stroke-dasharray=""/></g><g><text fill="black" stroke="none" font-family="sans-serif" font-size="11pt" font-style="normal" font-weight="normal" text-decoration="normal" x="8.167601650000002" y="141.136156512" text-anchor="start" dominant-baseline="alphabetic" xml:space="preserve">Workspace User</text></g><g><path fill="white" stroke="black" paint-order="fill stroke markers" d=" M 402.23865785834505 99.15468403100002 A 24.2577769005 24.2577769005 0 1 1 402.23864572945763 99.13042625814246 M 338.776393037845 73.50841485000001 L 338.776393037845 124.80095321200002 M 337.38790075734505 99.15468403100002 L 353.72310405734504 99.15468403100002" stroke-miterlimit="10" stroke-width="2.7769845610000004" stroke-dasharray=""/></g><g><text fill="black" stroke="none" font-family="sans-serif" font-size="11pt" font-style="normal" font-weight="normal" text-decoration="normal" x="333.9543010363607" y="141.136156512" text-anchor="start" dominant-baseline="alphabetic" xml:space="preserve">Homepage</text></g><g><path fill="white" stroke="black" paint-order="fill stroke markers" d=" M 621.0247392637486 82.819480731 A 24.2577769005 24.2577769005 0 1 1 621.0247271348612 82.79522295814245 M 593.4999217032487 58.561703830499994 L 603.3010436832486 50.39410218049999 M 593.4999217032487 58.561703830499994 L 603.3010436832486 66.72930548049999" stroke-miterlimit="10" stroke-width="2.7769845610000004" stroke-dasharray=""/></g><g><text fill="black" stroke="none" font-family="sans-serif" font-size="11pt" font-style="normal" font-weight="normal" text-decoration="normal" x="579.2544425268229" y="124.80095321200001" text-anchor="start" dominant-baseline="alphabetic" xml:space="preserve">User </text><text fill="black" stroke="none" font-family="sans-serif" font-size="11pt" font-style="normal" font-weight="normal" text-decoration="normal" x="564.9917472143229" y="141.136156512" text-anchor="start" dominant-baseline="alphabetic" xml:space="preserve">Controller</text></g><path fill="none" stroke="none"/><g><path fill="white" stroke="black" paint-order="fill stroke markers" d=" M 705.7428147063164 85.75981732500003 L 843.845876033332 85.75981732500003 L 843.845876033332 146.03671750200002 L 705.7428147063164 146.03671750200002 L 705.7428147063164 85.75981732500003 Z" stroke-miterlimit="10" stroke-width="2.613632528" stroke-dasharray=""/></g><g><text fill="black" stroke="none" font-family="sans-serif" font-size="11pt" font-style="normal" font-weight="normal" text-decoration="normal" x="723.4665102868164" y="113.366310902" text-anchor="start" dominant-baseline="alphabetic" xml:space="preserve">Group Member </text><text fill="black" stroke="none" font-family="sans-serif" font-size="11pt" font-style="normal" font-weight="normal" text-decoration="normal" x="750.3527026085937" y="129.701514202" text-anchor="start" dominant-baseline="alphabetic" xml:space="preserve">Service</text></g><g><path fill="white" stroke="blue" paint-order="fill stroke markers" d=" M 928.9723315583998 114.01971903400002 L 928.9723315583998 79.71579210400003 L 976.6711251943997 79.71579210400003 L 976.6711251943997 114.01971903400002" stroke-miterlimit="10" stroke-width="2.7769845610000004" stroke-dasharray=""/><path fill="white" stroke="blue" paint-order="fill stroke markers" d=" M 976.6711251943997 78.52332226310003 L 976.669932734496 78.63113280801664 L 976.66635547403 78.73893257196862 L 976.6603937707247 78.84671077506938 L 976.6520482207453 78.95445663958843 L 976.6413196586401 79.06215939102911 L 976.6282091572563 79.16980825920604 L 976.612718027633 79.27739247932207 L 976.5948478188704 79.38490129304488 L 976.5746003179744 79.49232394958268 L 976.5519775496782 79.59964970675932 L 976.5269817762398 79.70686783208855 L 976.4996154972158 79.81396760384715 L 976.4698814492112 79.92093831214721 L 976.4377826056061 80.02776926000705 L 976.403322176258 80.13444976442089 L 976.3665036071812 80.2409691574272 L 976.3273305802019 80.34731678717546 L 976.2858070125901 80.45348201899128 L 976.2419370566681 80.55945423643999 L 976.1957250993947 80.66522284238813 L 976.1471757619274 80.77077726006326 L 976.0962938991594 80.87610693411155 L 976.0430845992345 80.9812013316534 L 975.9875531830382 81.08604994333662 L 975.9297052036662 81.19064228438741 L 975.8695464458681 81.29496789565883 L 975.8070829254694 81.3990163446767 L 975.7423208887702 81.50277722668281 L 975.6752668119202 81.60624016567543 L 975.6059274002713 81.70939481544688 L 975.5343095877066 81.81223086061816 L 975.460420535948 81.91473801767043 L 975.3842676338389 82.0169060359734 L 975.3058584966061 82.11872469881041 L 975.225200965098 82.22018382440001 L 975.1423031050006 82.32127326691418 L 975.0571732060307 82.42198291749291 L 974.9698197811073 82.52230270525509 L 974.8802515655001 82.62222259830551 L 974.7884775159561 82.72173260473815 L 974.6945068098037 82.8208227736353 L 974.5983488440351 82.91948319606263 L 974.500013234367 83.01770400606013 L 974.3995098142782 83.11547538162863 L 974.296848634027 83.21278754571205 L 974.192039959646 83.3096307671751 L 974.0850942719151 83.4059953617763 L 973.9760222653141 83.50187169313652 L 973.8648348469528 83.59725017370252 L 973.7515431354802 83.69212126570572 L 973.6361584599733 83.78647548211597 L 973.5186923588033 83.88030338759027 L 973.3991565784823 83.97359559941626 L 973.2775630724891 84.0663427884505 L 973.1539240000727 84.15853568005136 L 973.0282517250373 84.25016505500653 L 972.9005588145059 84.34122175045486 L 972.7708580376628 84.43169666080269 L 972.6391623644779 84.52158073863437 L 972.5054849644087 84.61086499561704 L 972.3698392050837 84.69954050339939 L 972.2322386509659 84.78759839450454 L 972.092697061996 84.87502986321677 L 971.9512283922166 84.96182616646205 L 971.8078467883769 85.0479786246824 L 971.6625665885177 85.13347862270378 L 971.5154023205379 85.21831761059765 L 971.3663687007418 85.30248710453591 L 971.2154806323668 85.38597868763932 L 971.0627532040945 85.46878401081914 L 970.9082016885402 85.55089479361204 L 970.7518415407268 85.6323028250082 L 970.5936883965385 85.71299996427229 L 970.4337580711582 85.79297814175763 L 970.272066557485 85.87222935971315 L 970.1086300245357 85.95074569308306 L 969.9434648158272 86.02851929029947 L 969.7765874477428 86.10554237406748 L 969.6080146078804 86.1818072421429 L 969.4377631533832 86.25730626810244 L 969.2658501092551 86.33203190210645 L 969.092292666657 86.4059766716538 L 968.9171081811887 86.47913318232916 L 968.7403141711527 86.55149411854241 L 968.5619283158027 86.62305224426024 L 968.3819684535754 86.69380040372971 L 968.2004525803073 86.76373152219381 L 968.0173988474344 86.832838606599 L 967.8328255601774 86.90111474629441 L 967.6467511757112 86.96855311372298 L 967.4591943013193 87.03514696510413 L 967.2701736925326 87.10088964110827 L 967.0797082512547 87.16577456752255 L 966.8878170238709 87.2297952559084 L 966.6945191993441 87.29294530425035 L 966.4998341072956 87.35521839759618 L 966.3037812160724 87.41660830868844 L 966.1063801308002 87.47710889858719 L 965.9076505914231 87.53671411728386 L 965.7076124707294 87.59541800430624 L 965.5062857723644 87.65321468931457 L 965.3036906288304 87.71009839268848 L 965.0998472994726 87.76606342610505 L 964.8947761684543 87.82110419310759 L 964.6884977427176 87.87521518966525 L 964.4810326499332 87.92839100472347 L 964.2724016364375 87.98062632074506 L 964.0626255651581 88.03191591424195 L 963.8517254135271 88.08225465629752 L 963.639722271384 88.13163751307953 L 963.4266373388664 88.18005954634344 L 963.21249192429 88.22751591392628 L 962.9973074420177 88.27400187023083 L 962.7811054103184 88.31951276670023 L 962.5639074492153 88.36404405228271 L 962.3457352783233 88.40759127388685 L 962.1266107146778 88.45015007682679 L 961.9065556705524 88.49171620525767 L 961.6855921512683 88.53228550260131 L 961.4637422529934 88.57185391196177 L 961.2410281605323 88.6104174765311 L 961.0174721451089 88.64797233998496 L 960.7930965621384 88.68451474686832 L 960.5679238489921 88.72004104297093 L 960.3419765227537 88.75454767569279 L 960.1152771779675 88.7880311943994 L 959.8878484843791 88.82048825076676 L 959.6597131846682 88.8519155991163 L 959.430894092175 88.88231009673936 L 959.2014140886176 88.91166870421154 L 958.9712961218056 88.93998848569652 L 958.7405632033435 88.96726660923976 L 958.5092384063312 88.99350034705165 L 958.2773448630553 89.01868707578028 L 958.0449057626772 89.04282427677373 L 957.8119443489131 89.06590953633204 L 957.5784839177102 89.0879405459485 L 957.3445478149172 89.10891510254048 L 957.1101594339492 89.12883110866981 L 956.8753422134492 89.14768657275249 L 956.6401196349436 89.1654796092578 L 956.404515220494 89.18220843889694 L 956.1685525303457 89.19787138880088 L 955.932255160571 89.21246689268766 L 955.69564674071 89.22599349101908 L 955.4587509314074 89.23844983114658 L 955.2215914220469 89.2498346674465 L 954.9841919283817 89.26014686144474 L 954.7465761901633 89.26938538193045 L 954.5087679687676 89.27754930505931 L 954.2707910448186 89.2846378144458 L 954.0326692158102 89.29065020124489 L 953.794426293727 89.2955858642229 L 953.5560861026627 89.29944430981766 L 953.3176724764377 89.30222515218782 L 953.0792092562159 89.30392811325146 L 952.8407202881208 89.30455302271389 L 952.6022294208502 89.30409981808468 L 952.3637605032924 89.30256854468394 L 952.1253373821402 89.29995935563771 L 951.8869838995072 89.29627251186272 L 951.6487238905428 89.29150838204029 L 951.4105811810496 89.28566744257942 L 951.1725795850999 89.2787502775692 L 950.9347429026551 89.27075757872036 L 950.6970949171852 89.26169014529611 L 950.4596593932906 89.25154888403227 L 950.2224600743259 89.24033480904649 L 949.9855206800255 89.22804904173692 L 949.7488649041312 89.21469281067007 L 949.5125164120234 89.2002674514579 L 949.2764988383543 89.18477440662434 L 949.0408357846848 89.16821522546093 L 948.8055508171236 89.15059156387198 L 948.5706674639716 89.131905184209 L 948.3362092133683 89.11215795509437 L 948.1021995109435 89.09135185123453 L 947.8686617574721 89.06948895322255 L 947.6356193065352 89.04657144732998 L 947.4030954621835 89.02260162528835 L 947.1711134766076 88.99758188405987 L 946.939696547813 88.97151472559781 L 946.7088678172995 88.94440275659629 L 946.478650367748 88.91624868822964 L 946.2490672207114 88.88705533588121 L 946.020141334313 88.85682561886193 L 945.7918956009511 88.82556256011829 L 945.5643528450084 88.79326928593011 L 945.3375358205711 88.75994902559792 L 945.1114672091527 88.72560511111998 L 944.8861696174257 88.6902409768591 L 944.6616655749616 88.65386015919924 L 944.4379775319777 88.61646629619187 L 944.2151278570918 88.57806312719212 L 943.9931388350857 88.53865449248488 L 943.7720326646767 88.49824433290078 L 943.5518314562972 88.4568366894221 L 943.3325572298851 88.4144357027787 L 943.1142319126799 88.3710456130339 L 942.8968773370315 88.32667075916052 L 942.6805152382165 88.28131557860695 L 942.4651672522641 88.23498460685347 L 942.2508549137939 88.18768247695864 L 942.0375996538608 88.13941391909603 L 941.8254227978133 88.0901837600812 L 941.61434556316 88.03999692288905 L 941.4043890574486 87.98885842616143 L 941.1955742761547 87.93677338370544 L 940.9879221005824 87.88374700398191 L 940.7814532957763 87.8297845895846 L 940.5761885084446 87.77489153671002 L 940.3721482648951 87.71907333461769 L 940.1693529689821 87.66233556508129 L 939.9678229000664 87.60468390183053 L 939.7675782109867 87.54612410998368 L 939.5686389260451 87.4866620454711 L 939.3710249390043 87.42630365444973 L 939.1747560110985 87.36505497270832 L 938.9798517690566 87.30292212506406 L 938.7863317031407 87.2399113247499 L 938.5942151651959 87.17602887279338 L 938.4035213667162 87.11128115738646 L 938.2142693769222 87.0456746532467 L 938.0264781208552 86.97921592096989 L 937.8401663774846 86.91191160637383 L 937.6553527778292 86.84376843983392 L 937.4720558030951 86.77479323561002 L 937.2902937828269 86.70499289116506 L 937.1100848930754 86.63437438647533 L 936.9314471545791 86.56294478333245 L 936.7543984309632 86.49071122463722 L 936.5789564269523 86.4176809336853 L 936.4051386866009 86.34386121344494 L 936.232962591538 86.26925944582663 L 936.0624453592296 86.19388309094498 L 935.893604041257 86.11773968637264 L 935.7264555216111 86.04083684638665 L 935.5610165150048 85.96318226120691 L 935.3973035652006 85.88478369622722 L 935.2353330433573 85.80564899123874 L 935.075121146392 85.72578605964603 L 934.9166838953608 85.64520288767571 L 934.760037133857 85.5639075335778 L 934.6051965264262 85.48190812681999 L 934.4521775569999 85.3992128672746 L 934.3009955273476 85.31583002439868 L 934.1516655555463 85.23176793640704 L 934.0042025744688 85.14703500943843 L 933.8586213302902 85.06163971671492 L 933.7149363810138 84.97559059769462 L 933.5731620950146 84.88889625721775 L 933.4333126496032 84.80156536464608 L 933.2954020296074 84.71360665299612 L 933.1594440259744 84.62502891806572 L 933.0254522343913 84.53584101755456 L 932.8934400539256 84.44605187017837 L 932.7634206856852 84.35567045477706 L 932.6354071314987 84.26470580941687 L 932.5094121926148 84.1731670304865 L 932.3854484684225 84.08106327178758 L 932.2635283551908 83.98840374361924 L 932.1436640448294 83.89519771185707 L 932.0258675236695 83.80145449702657 L 931.910150571265 83.70718347337109 L 931.7965247592148 83.61239406791447 L 931.6850014500054 83.51709575951824 L 931.5755917958747 83.42129807793384 L 931.468306737697 83.32501060284957 L 931.3631570038888 83.22824296293274 L 931.2601531093358 83.13100483486667 L 931.1593053543414 83.03330594238315 L 931.0606238235973 82.93515605529001 L 930.9641183851744 82.83656498849416 L 930.869798689536 82.73754260102014 L 930.777674168573 82.63809879502416 L 930.6877540346608 82.53824351480395 L 930.6000472797379 82.43798674580434 L 930.5145626744065 82.33733851361866 L 930.4313087670563 82.23630888298626 L 930.3502938830082 82.13490795678602 L 930.2715261236834 82.03314587502607 L 930.1950133657922 81.93103281382975 L 930.1207632605464 81.82857898441812 L 930.0487832328948 81.72579463208872 L 929.9790804807801 81.62269003519114 L 929.9116619744196 81.51927550409916 L 929.8465344556076 81.4155613801797 L 929.7837044370417 81.3115580347587 L 929.7231782016715 81.20727586808408 L 929.66496180207 81.10272530828557 L 929.6090610598288 80.99791681033204 L 929.5554815649754 80.89286085498595 L 929.5042286754145 80.78756794775528 L 929.4553075163927 80.682048617843 L 929.4087229799849 80.57631341709417 L 929.364479724606 80.47037291894078 L 929.3225821745446 80.36423771734434 L 929.2830345195208 80.25791842573655 L 929.2458407142672 80.15142567595801 L 929.2110044781333 80.04477011719491 L 929.1785292947136 79.9379624149143 L 929.1484184114996 79.83101324979734 L 929.1206748395543 79.72393331667146 L 929.095301353212 79.61673332344074 L 929.0723004898 79.50942399001515 L 929.0516745493856 79.40201604723862 L 929.0334255945454 79.29452023581591 L 929.01755545016 79.18694730523859 L 929.0040657032305 79.07930801271009 L 928.9929577027202 78.97161312206994 L 928.9842325594202 78.86387340271747 L 928.9778911458372 78.75609962853483 L 928.9739340961077 78.64830257680963 L 928.9723618059329 78.5404930271572 L 928.9731744325409 78.43268176044268 L 928.9763718946695 78.32487955770289 L 928.9819538725751 78.21709719906826 L 928.9899198080648 78.10934546268486 L 929.0002689045515 78.00163512363652 L 929.0130001271343 77.89397695286739 L 929.0281122027014 77.78638171610483 L 929.045603620058 77.67886017278285 L 929.0654726300768 77.57142307496619 L 929.0877172458735 77.4640811662751 L 929.112335243005 77.35684518081099 L 929.1393241596919 77.24972584208304 L 929.1686812970653 77.14273386193588 L 929.2004037194358 77.03587993947833 L 929.2344882545877 76.92917476001364 L 929.2709314940957 76.82262899397078 L 929.3097297936665 76.7162532958376 L 929.3508792735022 76.61005830309527 L 929.3943758186892 76.50405463515456 L 929.4402150796093 76.39825289229391 L 929.4883924723745 76.29266365459947 L 929.5389031792857 76.187297480907 L 929.5917421493143 76.08216490774608 L 929.6469040986075 75.97727644828639 L 929.7043835110161 75.87264259128648 L 929.7641746386469 75.76827380004487 L 929.8262715024367 75.66418051135369 L 929.8906678927513 75.56037313445508 L 929.9573573700051 75.45686205000021 L 930.0263332653059 75.3536576090113 L 930.0975886811217 75.2507701318464 L 930.1711164919703 75.1482099071675 L 930.2469093451319 75.04598719091162 L 930.3249596613844 74.9441122052652 L 930.4052596357611 74.84259513764188 L 930.4878012383315 74.74144613966385 L 930.5725762150042 74.6406753261466 L 930.6595760883522 74.54029277408755 L 930.7487921584606 74.4403085216582 L 930.8402155037967 74.34073256720049 L 930.9338369821022 74.24157486822689 L 931.0296472313072 74.14284534042467 L 931.1276366704668 74.04455385666434 L 931.2277955007187 73.94671024601234 L 931.3301137062632 73.84932429274824 L 931.434581055365 73.75240573538618 L 931.5411871013765 73.65596426570113 L 931.6499211837818 73.56000952775972 L 931.760772429263 73.46455111695575 L 931.8737297527884 73.36959857905077 L 931.9887818587196 73.27516140921944 L 932.1059172419417 73.18124905110005 L 932.2251241890141 73.08787089585014 L 932.3463907793415 72.99503628120743 L 932.4697048863659 72.90275449055602 L 932.5950541787794 72.81103475199808 L 932.722426121757 72.71988623743101 L 932.8518079782109 72.62931806163034 L 932.983186810063 72.53933928133816 L 933.1165494795396 72.44995889435752 L 933.251882650485 72.36118583865263 L 933.3891727896948 72.2730289914551 L 933.5284061682696 72.18549716837617 L 933.6695688629875 72.0985991225252 L 933.8126467576966 72.01234354363439 L 933.9576255447267 71.9267390571897 L 934.10449072632 71.84179422356848 L 934.2532276160807 71.7575175371833 L 934.4038213404436 71.67391742563255 L 934.5562568401621 71.59100224885773 L 934.7105188718128 71.50878029830743 L 934.8665920093215 71.42725979610816 L 935.0244606455043 71.34644889424223 L 935.1841089936293 71.26635567373248 L 935.3455210889944 71.18698814383421 L 935.5086807905249 71.10835424123428 L 935.6735717823864 71.03046182925742 L 935.8401775756173 70.95331869707991 L 936.0084815097771 70.8769325589507 L 936.1784667546124 70.80131105341991 L 936.3501163117406 70.72646174257511 L 936.5234130163491 70.65239211128501 L 936.6983395389116 70.579109566451 L 936.8748783869218 70.5066214362665 L 937.0530119066418 70.43493496948412 L 937.2327222848684 70.3640573346908 L 937.4139915507133 70.29399561959096 L 937.5968015774009 70.22475683029771 L 937.7811340840811 70.1563478906323 L 937.9669706376569 70.08877564143168 L 938.1542926546275 70.02204683986446 L 938.3430814029474 69.9561681587552 L 938.5333180038992 69.8911461859171 L 938.7249834339814 69.82698742349325 L 938.9180585268105 69.76369828730645 L 939.1125239750381 69.70128510621757 L 939.3083603322817 69.6397541214927 L 939.5055480150685 69.57911148617904 L 939.7040673047948 69.51936326448958 L 939.9038983496968 69.46051543119673 L 940.1050211668365 69.40257387103475 L 940.3074156441002 69.34554437811137 L 940.5110615422085 69.28943265532837 L 940.7159384967413 69.23424431381126 L 940.9220260201739 69.1799848723482 L 941.1293035039258 69.12665975683814 L 941.3377502204213 69.07427429974817 L 941.5473453251625 69.02283373958036 L 941.7580678588134 68.97234322034787 L 941.9698967492965 68.9228077910605 L 942.1828108138991 68.87423240521996 L 942.3967887613923 68.82662192032431 L 942.6118091941595 68.77998109738239 L 942.8278506103367 68.73431460043761 L 943.0448914059622 68.68962699610162 L 943.2629098771375 68.64592275309762 L 943.4818842221971 68.60320624181347 L 943.7017925438888 68.56148173386472 L 943.922612851564 68.52075340166739 L 944.1443230633757 68.48102531802076 L 944.3669010084876 68.44230145570006 L 944.5903244292906 68.4045856870593 L 944.8145709836288 68.36788178364388 L 945.0396182470337 68.33219341581358 L 945.2654437149664 68.29752415237542 L 945.4920248050685 68.26387746022687 L 945.7193388594196 68.23125670400908 L 945.9473631468037 68.19966514577052 L 946.1760748649822 68.16910594464068 L 946.4054511429738 68.1395821565142 L 946.6354690433419 68.11109673374527 L 946.8661055644881 68.08365252485247 L 947.0973376429524 68.05725227423379 L 947.3291421557198 68.03189862189231 L 947.5614959225321 68.00759410317211 L 947.7943757082063 67.98434114850484 L 948.0277582249579 67.96214208316657 L 948.2616201347297 67.94099912704533 L 948.4959380515255 67.92091439441914 L 948.730688543749 67.9018898937445 L 948.9658481365466 67.88392752745563 L 949.201393314155 67.86702909177419 L 949.4373005222526 67.85119627652966 L 949.6735461703154 67.8364306649904 L 949.9101066339751 67.82273373370522 L 950.146958257383 67.81010685235586 L 950.3840773555736 67.79855128361993 L 950.621440216835 67.78806818304466 L 950.8590231050788 67.77865859893137 L 951.096802262214 67.77032347223066 L 951.3347539105234 67.76306363644822 L 951.5728542550402 67.75687981756161 L 951.8110794859283 67.75177263394752 L 952.0494057808634 67.74774259632011 L 952.2878093074144 67.74479010767975 L 952.5262662254272 67.74291546327285 L 952.7647526894091 67.74211885056229 L 953.0032448509121 67.74240034920868 L 953.2417188609189 67.74375993106239 L 953.4801508722273 67.74619746016636 L 953.7185170418348 67.74971269276972 L 953.9567935333231 67.75430527735213 L 954.1949565192416 67.75997475465897 L 954.4329821834901 67.76672055774722 L 954.6708467237006 67.7745420120422 L 954.9085263536173 67.78343833540501 L 955.1459973054754 67.7934086382107 L 955.3832358323773 67.80445192343733 L 955.6202182106682 67.81656708676556 L 955.8569207423078 67.82975291668915 L 956.0933197572401 67.84400809463611 L 956.3293916157608 67.85933119510051 L 956.5651127108804 67.87572068578508 L 956.8004594706861 67.89317492775442 L 957.0354083606979 67.91169217559886 L 957.2699358862227 67.93127057760906 L 957.5040185947034 67.95190817596112 L 957.7376330780642 67.97360290691242 L 957.9707559750512 67.99635260100793 L 958.2033639735694 68.0201549832972 L 958.4354338130124 68.04500767356186 L 958.6669422865899 68.07090818655355 L 958.8978662436474 68.0978539322426 L 959.1281825919816 68.12584221607686 L 959.3578683001496 68.15487023925128 L 959.5869003997719 68.18493509898775 L 959.8152559878296 68.21603378882533 L 960.042912228954 68.24816319892096 L 960.2698463577108 68.2813201163604 L 960.4960356808762 68.31550122547955 L 960.7214575797065 68.35070310819597 L 960.9460895121994 68.38692224435073 L 961.169909015349 68.42415501206038 L 961.3928937073916 68.4623976880792 L 961.6150212900436 68.50164644817144 L 961.8362695507321 68.5418973674938 L 962.0566163648152 68.5831464209879 L 962.2760396977951 68.62538948378277 L 962.4945176075215 68.66862233160731 L 962.7120282463854 68.71284064121278 L 962.9285498635043 68.75803999080506 L 963.1440608068966 68.80421586048686 L 963.3585395256479 68.8513636327097 L 963.5719645720649 68.89947859273563 L 963.7843146038208 68.94855592910876 L 963.9955683860895 68.99859073413636 L 964.2057047936687 69.04957800437958 L 964.4147028130927 69.10151264115393 L 964.622541544734 69.15438945103898 L 964.8292002048922 69.20820314639782 L 965.034658127874 69.26294834590577 L 965.2388947680579 69.31861957508848 L 965.4418897019502 69.37521126686941 L 965.6436226302268 69.43271776212659 L 965.8440733797629 69.49113331025838 L 966.0432219056505 69.55045206975865 L 966.2410482932031 69.6106681088009 L 966.4375327599467 69.67177540583138 L 966.6326556575985 69.73376785017133 L 966.8263974740313 69.79663924262796 L 967.0187388352247 69.86038329611443 L 967.2096605072031 69.92499363627851 L 967.3991433979583 69.99046380214003 L 967.5871685593592 70.05678724673693 L 967.7737171890462 70.12395733778007 L 967.9587706323119 70.19196735831628 L 968.1423103839662 70.2608105074002 L 968.3243180901869 70.33047990077428 L 968.504775550355 70.40096857155726 L 968.6836647188749 70.47226947094077 L 968.8609677069786 70.54437546889432 L 969.0366667845154 70.61727935487819 L 969.2107443817238 70.69097383856453 L 969.3831830909891 70.7654515505664 L 969.553965668584 70.84070504317464 L 969.7230750363933 70.91672679110272 L 969.8904942836209 70.99350919223919 L 970.0562066684818 71.07104456840791 L 970.2201956198754 71.14932516613591 L 970.3824447390434 71.22834315742861 L 970.5429378012091 71.30809064055276 L 970.7016587571999 71.38855964082649 L 970.8585917350524 71.46974211141682 L 971.0137210415998 71.55162993414437 L 971.1670311640406 71.6342149202951 L 971.3185067714903 71.71748881143918 L 971.4681327165144 71.80144328025693 L 971.6158940366432 71.88606993137142 L 971.7617759558677 71.97136030218806 L 971.9057638861176 72.05730586374082 L 972.0478434287198 72.14389802154521 L 972.1880003758386 72.23112811645758 L 972.3262207118958 72.31898742554114 L 972.4624906149731 72.40746716293819 L 972.5967964581939 72.49655848074872 L 972.7291248110857 72.58625246991521 L 972.8594624409234 72.67654016111346 L 972.9877963140527 72.76741252564963 L 973.1141135971934 72.85886047636295 L 973.2384016587221 72.95087486853458 L 973.3606480699365 73.04344650080199 L 973.4808406062972 73.13656611607907 L 973.5989672486509 73.2302244024819 L 973.7150161844315 73.32441199425989 L 973.8289758088424 73.41911947273236 L 973.9408347260161 73.51433736723038 L 974.0505817501539 73.61005615604385 L 974.1582059066451 73.70626626737365 L 974.2636964331635 73.80295808028882 L 974.3670427807446 73.90012192568864 L 974.4682346148395 73.99774808726954 L 974.5672618163494 74.09582680249675 L 974.6641144826364 74.19434826358044 L 974.7587829285147 74.29330261845661 L 974.8512576872187 74.39267997177224 L 974.9415295113495 74.49247038587482 L 975.0295893737998 74.59266388180609 L 975.1154284686569 74.69325044029995 L 975.1990382120829 74.79422000278437 L 975.2804102431728 74.89556247238725 L 975.3595364247917 74.99726771494608 L 975.4364088443872 75.09932556002136 L 975.5110198147813 75.20172580191361 L 975.5833618749393 75.304458200684 L 975.6534277907156 75.40751248317825 L 975.7212105555766 75.510878344054 L 975.7867033913026 75.61454544681129 L 975.8498997486645 75.71850342482624 L 975.9107933080792 75.82274188238767 L 975.9693779802416 75.9272503957367 L 976.0256479067332 76.03201851410908 L 976.0795974606084 76.13703576078028 L 976.1312212469567 76.24229163411314 L 976.1805141034423 76.34777560860806 L 976.2274711008209 76.45347713595547 L 976.2720875434318 76.55938564609073 L 976.3143589696679 76.66549054825109 L 976.3542811524217 76.77178123203474 L 976.3918500995084 76.87824706846187 L 976.4270620540643 76.98487741103759 L 976.4599134949237 77.09166159681648 L 976.4904011369696 77.19858894746895 L 976.5185219314633 77.30564877034905 L 976.5442730663486 77.41283035956369 L 976.5676519665338 77.52012299704329 L 976.5886562941481 77.62751595361348 L 976.6072839487764 77.73499849006812 L 976.6235330676686 77.84255985824313 L 976.6374020259266 77.95018930209135 L 976.6488894366659 78.05787605875803 L 976.657994151155 78.16560935965728 L 976.6647152589302 78.27337843154879 L 976.6690520878861 78.38117249761517 L 976.6710042043437 78.48898077853964 M 976.6711251943997 112.82724919310002 L 976.669932734496 112.93505973801663 L 976.66635547403 113.04285950196861 L 976.6603937707247 113.15063770506937 L 976.6520482207453 113.25838356958842 L 976.6413196586401 113.3660863210291 L 976.6282091572563 113.47373518920602 L 976.612718027633 113.58131940932206 L 976.5948478188704 113.68882822304487 L 976.5746003179744 113.79625087958267 L 976.5519775496782 113.90357663675931 L 976.5269817762398 114.01079476208854 L 976.4996154972158 114.11789453384714 L 976.4698814492112 114.2248652421472 L 976.4377826056061 114.33169619000704 L 976.403322176258 114.43837669442088 L 976.3665036071812 114.54489608742719 L 976.3273305802019 114.65124371717545 L 976.2858070125901 114.75740894899127 L 976.2419370566681 114.86338116643998 L 976.1957250993947 114.96914977238812 L 976.1471757619274 115.07470419006324 L 976.0962938991594 115.18003386411154 L 976.0430845992345 115.28512826165338 L 975.9875531830382 115.38997687333661 L 975.9297052036662 115.4945692143874 L 975.8695464458681 115.59889482565882 L 975.8070829254694 115.70294327467668 L 975.7423208887702 115.8067041566828 L 975.6752668119202 115.91016709567542 L 975.6059274002713 116.01332174544687 L 975.5343095877066 116.11615779061815 L 975.460420535948 116.21866494767042 L 975.3842676338389 116.3208329659734 L 975.3058584966061 116.4226516288104 L 975.225200965098 116.5241107544 L 975.1423031050006 116.62520019691416 L 975.0571732060307 116.7259098474929 L 974.9698197811073 116.82622963525507 L 974.8802515655001 116.9261495283055 L 974.7884775159561 117.02565953473814 L 974.6945068098037 117.12474970363529 L 974.5983488440351 117.22341012606262 L 974.500013234367 117.32163093606012 L 974.3995098142782 117.41940231162862 L 974.296848634027 117.51671447571204 L 974.192039959646 117.61355769717508 L 974.0850942719151 117.7099222917763 L 973.9760222653141 117.80579862313651 L 973.8648348469528 117.90117710370251 L 973.7515431354802 117.99604819570571 L 973.6361584599733 118.09040241211596 L 973.5186923588033 118.18423031759026 L 973.3991565784823 118.27752252941625 L 973.2775630724891 118.37026971845049 L 973.1539240000727 118.46246261005135 L 973.0282517250373 118.55409198500652 L 972.9005588145059 118.64514868045485 L 972.7708580376628 118.73562359080267 L 972.6391623644779 118.82550766863436 L 972.5054849644087 118.91479192561702 L 972.3698392050837 119.00346743339938 L 972.2322386509659 119.09152532450453 L 972.092697061996 119.17895679321676 L 971.9512283922166 119.26575309646203 L 971.8078467883769 119.35190555468239 L 971.6625665885177 119.43740555270377 L 971.5154023205379 119.52224454059764 L 971.3663687007418 119.6064140345359 L 971.2154806323668 119.68990561763931 L 971.0627532040945 119.77271094081912 L 970.9082016885402 119.85482172361203 L 970.7518415407268 119.93622975500818 L 970.5936883965385 120.01692689427227 L 970.4337580711582 120.09690507175762 L 970.272066557485 120.17615628971313 L 970.1086300245357 120.25467262308305 L 969.9434648158272 120.33244622029946 L 969.7765874477428 120.40946930406747 L 969.6080146078804 120.48573417214288 L 969.4377631533832 120.56123319810243 L 969.2658501092551 120.63595883210644 L 969.092292666657 120.70990360165379 L 968.9171081811887 120.78306011232915 L 968.7403141711527 120.8554210485424 L 968.5619283158027 120.92697917426023 L 968.3819684535754 120.9977273337297 L 968.2004525803073 121.0676584521938 L 968.0173988474344 121.13676553659899 L 967.8328255601774 121.2050416762944 L 967.6467511757112 121.27248004372296 L 967.4591943013193 121.33907389510412 L 967.2701736925326 121.40481657110826 L 967.0797082512547 121.46970149752254 L 966.8878170238709 121.53372218590839 L 966.6945191993441 121.59687223425034 L 966.4998341072956 121.65914532759616 L 966.3037812160724 121.72053523868843 L 966.1063801308002 121.78103582858718 L 965.9076505914231 121.84064104728385 L 965.7076124707294 121.89934493430623 L 965.5062857723644 121.95714161931456 L 965.3036906288304 122.01402532268847 L 965.0998472994726 122.06999035610504 L 964.8947761684543 122.12503112310758 L 964.6884977427176 122.17914211966524 L 964.4810326499332 122.23231793472345 L 964.2724016364375 122.28455325074505 L 964.0626255651581 122.33584284424194 L 963.8517254135271 122.38618158629751 L 963.639722271384 122.43556444307951 L 963.4266373388664 122.48398647634343 L 963.21249192429 122.53144284392627 L 962.9973074420177 122.57792880023082 L 962.7811054103184 122.62343969670022 L 962.5639074492153 122.6679709822827 L 962.3457352783233 122.71151820388684 L 962.1266107146778 122.75407700682678 L 961.9065556705524 122.79564313525766 L 961.6855921512683 122.8362124326013 L 961.4637422529934 122.87578084196176 L 961.2410281605323 122.91434440653109 L 961.0174721451089 122.95189926998495 L 960.7930965621384 122.9884416768683 L 960.5679238489921 123.02396797297092 L 960.3419765227537 123.05847460569278 L 960.1152771779675 123.09195812439938 L 959.8878484843791 123.12441518076675 L 959.6597131846682 123.15584252911628 L 959.430894092175 123.18623702673935 L 959.2014140886176 123.21559563421152 L 958.9712961218056 123.2439154156965 L 958.7405632033435 123.27119353923975 L 958.5092384063312 123.29742727705164 L 958.2773448630553 123.32261400578027 L 958.0449057626772 123.34675120677372 L 957.8119443489131 123.36983646633203 L 957.5784839177102 123.39186747594849 L 957.3445478149172 123.41284203254047 L 957.1101594339492 123.4327580386698 L 956.8753422134492 123.45161350275248 L 956.6401196349436 123.46940653925779 L 956.404515220494 123.48613536889692 L 956.1685525303457 123.50179831880087 L 955.932255160571 123.51639382268765 L 955.69564674071 123.52992042101907 L 955.4587509314074 123.54237676114657 L 955.2215914220469 123.5537615974465 L 954.9841919283817 123.56407379144473 L 954.7465761901633 123.57331231193044 L 954.5087679687676 123.5814762350593 L 954.2707910448186 123.58856474444579 L 954.0326692158102 123.59457713124488 L 953.794426293727 123.59951279422289 L 953.5560861026627 123.60337123981765 L 953.3176724764377 123.6061520821878 L 953.0792092562159 123.60785504325145 L 952.8407202881208 123.60847995271388 L 952.6022294208502 123.60802674808467 L 952.3637605032924 123.60649547468392 L 952.1253373821402 123.6038862856377 L 951.8869838995072 123.60019944186271 L 951.6487238905428 123.59543531204028 L 951.4105811810496 123.58959437257941 L 951.1725795850999 123.58267720756919 L 950.9347429026551 123.57468450872035 L 950.6970949171852 123.5656170752961 L 950.4596593932906 123.55547581403226 L 950.2224600743259 123.54426173904648 L 949.9855206800255 123.53197597173691 L 949.7488649041312 123.51861974067006 L 949.5125164120234 123.50419438145789 L 949.2764988383543 123.48870133662433 L 949.0408357846848 123.47214215546092 L 948.8055508171236 123.45451849387197 L 948.5706674639716 123.43583211420899 L 948.3362092133683 123.41608488509436 L 948.1021995109435 123.39527878123452 L 947.8686617574721 123.37341588322253 L 947.6356193065352 123.35049837732997 L 947.4030954621835 123.32652855528833 L 947.1711134766076 123.30150881405986 L 946.939696547813 123.2754416555978 L 946.7088678172995 123.24832968659628 L 946.478650367748 123.22017561822963 L 946.2490672207114 123.1909822658812 L 946.020141334313 123.16075254886192 L 945.7918956009511 123.12948949011827 L 945.5643528450084 123.0971962159301 L 945.3375358205711 123.06387595559791 L 945.1114672091527 123.02953204111996 L 944.8861696174257 122.99416790685909 L 944.6616655749616 122.95778708919923 L 944.4379775319777 122.92039322619186 L 944.2151278570918 122.88199005719211 L 943.9931388350857 122.84258142248487 L 943.7720326646767 122.80217126290077 L 943.5518314562972 122.7607636194221 L 943.3325572298851 122.71836263277869 L 943.1142319126799 122.67497254303389 L 942.8968773370315 122.63059768916051 L 942.6805152382165 122.58524250860694 L 942.4651672522641 122.53891153685346 L 942.2508549137939 122.49160940695863 L 942.0375996538608 122.44334084909602 L 941.8254227978133 122.39411069008119 L 941.61434556316 122.34392385288903 L 941.4043890574486 122.29278535616142 L 941.1955742761547 122.24070031370543 L 940.9879221005824 122.1876739339819 L 940.7814532957763 122.1337115195846 L 940.5761885084446 122.07881846671 L 940.3721482648951 122.02300026461768 L 940.1693529689821 121.96626249508128 L 939.9678229000664 121.90861083183052 L 939.7675782109867 121.85005103998367 L 939.5686389260451 121.7905889754711 L 939.3710249390043 121.73023058444971 L 939.1747560110985 121.66898190270831 L 938.9798517690566 121.60684905506405 L 938.7863317031407 121.54383825474989 L 938.5942151651959 121.47995580279337 L 938.4035213667162 121.41520808738645 L 938.2142693769222 121.3496015832467 L 938.0264781208552 121.28314285096988 L 937.8401663774846 121.21583853637382 L 937.6553527778292 121.14769536983391 L 937.4720558030951 121.07872016561001 L 937.2902937828269 121.00891982116505 L 937.1100848930754 120.93830131647532 L 936.9314471545791 120.86687171333244 L 936.7543984309632 120.79463815463721 L 936.5789564269523 120.72160786368529 L 936.4051386866009 120.64778814344493 L 936.232962591538 120.57318637582662 L 936.0624453592296 120.49781002094497 L 935.893604041257 120.42166661637263 L 935.7264555216111 120.34476377638664 L 935.5610165150048 120.2671091912069 L 935.3973035652006 120.1887106262272 L 935.2353330433573 120.10957592123873 L 935.075121146392 120.02971298964601 L 934.9166838953608 119.9491298176757 L 934.760037133857 119.8678344635778 L 934.6051965264262 119.78583505681998 L 934.4521775569999 119.70313979727459 L 934.3009955273476 119.61975695439867 L 934.1516655555463 119.53569486640703 L 934.0042025744688 119.45096193943841 L 933.8586213302902 119.36556664671491 L 933.7149363810138 119.27951752769461 L 933.5731620950146 119.19282318721774 L 933.4333126496032 119.10549229464607 L 933.2954020296074 119.01753358299611 L 933.1594440259744 118.92895584806571 L 933.0254522343913 118.83976794755455 L 932.8934400539256 118.74997880017835 L 932.7634206856852 118.65959738477704 L 932.6354071314987 118.56863273941686 L 932.5094121926148 118.47709396048649 L 932.3854484684225 118.38499020178757 L 932.2635283551908 118.29233067361923 L 932.1436640448294 118.19912464185705 L 932.0258675236695 118.10538142702656 L 931.910150571265 118.01111040337108 L 931.7965247592148 117.91632099791445 L 931.6850014500054 117.82102268951823 L 931.5755917958747 117.72522500793383 L 931.468306737697 117.62893753284956 L 931.3631570038888 117.53216989293273 L 931.2601531093358 117.43493176486666 L 931.1593053543414 117.33723287238314 L 931.0606238235973 117.23908298529 L 930.9641183851744 117.14049191849415 L 930.869798689536 117.04146953102013 L 930.777674168573 116.94202572502415 L 930.6877540346608 116.84217044480394 L 930.6000472797379 116.74191367580433 L 930.5145626744065 116.64126544361865 L 930.4313087670563 116.54023581298625 L 930.3502938830082 116.43883488678601 L 930.2715261236834 116.33707280502605 L 930.1950133657922 116.23495974382973 L 930.1207632605464 116.1325059144181 L 930.0487832328948 116.02972156208871 L 929.9790804807801 115.92661696519113 L 929.9116619744196 115.82320243409914 L 929.8465344556076 115.71948831017968 L 929.7837044370417 115.61548496475869 L 929.7231782016715 115.51120279808407 L 929.66496180207 115.40665223828556 L 929.6090610598288 115.30184374033203 L 929.5554815649754 115.19678778498594 L 929.5042286754145 115.09149487775527 L 929.4553075163927 114.98597554784298 L 929.4087229799849 114.88024034709416 L 929.364479724606 114.77429984894077 L 929.3225821745446 114.66816464734433 L 929.2830345195208 114.56184535573654 L 929.2458407142672 114.455352605958 L 929.2110044781333 114.3486970471949 L 929.1785292947136 114.24188934491428 L 929.1484184114996 114.13494017979733 L 929.1206748395543 114.02786024667145 L 929.095301353212 113.92066025344073 L 929.0723004898 113.81335092001514 L 929.0516745493856 113.7059429772386 L 929.0334255945454 113.5984471658159 L 929.01755545016 113.49087423523858 L 929.0040657032305 113.38323494271008 L 928.9929577027202 113.27554005206993 L 928.9842325594202 113.16780033271746 L 928.9778911458372 113.06002655853482 L 928.9739340961077 112.95222950680962 L 928.9723618059329 112.84441995715719" stroke-miterlimit="10" stroke-width="2.7769845610000004" stroke-dasharray=""/></g><g><text fill="black" stroke="none" font-family="sans-serif" font-size="11pt" font-style="normal" font-weight="normal" text-decoration="normal" x="921.4437834301107" y="141.136156512" text-anchor="start" dominant-baseline="alphabetic" xml:space="preserve">Database</text></g></g><g><path fill="white" stroke="black" paint-order="fill stroke markers" d=" M 361.64567765784506 216.27809169199998 L 377.98088095784505 216.27809169199998 L 377.98088095784505 536.448076372 L 361.64567765784506 536.448076372 L 361.64567765784506 216.27809169199998" stroke-miterlimit="10" stroke-width="1.3612669416666667" stroke-dasharray=""/><path fill="white" stroke="black" paint-order="fill stroke markers" d=" M 588.5993607132486 262.016660932 L 604.9345640132487 262.016660932 L 604.9345640132487 490.709507132 L 588.5993607132486 490.709507132 L 588.5993607132486 262.016660932" stroke-miterlimit="10" stroke-width="1.3612669416666667" stroke-dasharray=""/><path fill="white" stroke="black" paint-order="fill stroke markers" d=" M 766.6267437198242 307.755230172 L 782.9619470198243 307.755230172 L 782.9619470198243 444.970937892 L 766.6267437198242 444.970937892 L 766.6267437198242 307.755230172" stroke-miterlimit="10" stroke-width="1.3612669416666667" stroke-dasharray=""/><path fill="white" stroke="black" paint-order="fill stroke markers" d=" M 944.6541267263997 353.493799412 L 960.9893300263998 353.493799412 L 960.9893300263998 399.232368652 L 944.6541267263997 399.232368652 L 944.6541267263997 353.493799412" stroke-miterlimit="10" stroke-width="1.3612669416666667" stroke-dasharray=""/><path fill="white" stroke="black" paint-order="fill stroke markers" d=" M 766.6267437198242 444.970937892 L 782.9619470198243 444.970937892 L 782.9619470198243 444.970937892 L 766.6267437198242 444.970937892 L 766.6267437198242 444.970937892" stroke-miterlimit="10" stroke-width="1.3612669416666667" stroke-dasharray=""/><g><g><rect fill="white" stroke="none" x="127.99502874510416" y="178.70712410199997" width="149.12384285035156" height="21.23576429"/></g><g><rect fill="white" stroke="none" x="127.99502874510416" y="195.04232740199996" width="167.86400093140625" height="21.23576429"/></g><text fill="black" stroke="none" font-family="sans-serif" font-size="11pt" font-style="normal" font-weight="normal" text-decoration="normal" x="130.44530924010417" y="193.40880707199995" text-anchor="start" dominant-baseline="alphabetic" xml:space="preserve">Click  See all… button</text><text fill="black" stroke="none" font-family="sans-serif" font-size="11pt" font-style="normal" font-weight="normal" text-decoration="normal" x="130.44530924010417" y="209.74401037199993" text-anchor="start" dominant-baseline="alphabetic" xml:space="preserve"> on Social Network Menu</text></g><g><path fill="none" stroke="black" paint-order="fill stroke markers" d=" M 62.20838076376953 216.27809169199998 L 348.1963602741784 216.27809169199998" stroke-miterlimit="10" stroke-width="1.3612669416666667" stroke-dasharray=""/><g transform="translate(361.64567765784506,216.27809169199998) translate(-361.64567765784506,-216.27809169199998)"><path fill="black" stroke="none" paint-order="stroke fill markers" d=" M 348.0330082411784 209.47175698366664 L 361.64567765784506 216.27809169199998 L 348.0330082411784 223.0844264003333 Z"/></g></g><g><g><rect fill="white" stroke="none" x="397.3108715295117" y="240.780896642" width="171.95849861207031" height="21.23576429"/></g><text fill="black" stroke="none" font-family="sans-serif" font-size="11pt" font-style="normal" font-weight="normal" text-decoration="normal" x="399.7611520245117" y="255.48257961199997" text-anchor="start" dominant-baseline="alphabetic" xml:space="preserve">GET: /api/user/{id}/groups</text></g><g><path fill="none" stroke="black" paint-order="fill stroke markers" d=" M 377.98088095784505 262.016660932 L 575.150043329582 262.016660932" stroke-miterlimit="10" stroke-width="1.3612669416666667" stroke-dasharray=""/><g transform="translate(588.5993607132486,262.016660932) translate(-588.5993607132486,-262.016660932)"><path fill="black" stroke="none" paint-order="stroke fill markers" d=" M 574.986691296582 255.21032622366664 L 588.5993607132486 262.016660932 L 574.986691296582 268.8229956403333 Z"/></g></g><g><g><rect fill="white" stroke="none" x="624.2645545849153" y="286.51946588199996" width="123.03219856324219" height="21.23576429"/></g><text fill="black" stroke="none" font-family="sans-serif" font-size="11pt" font-style="normal" font-weight="normal" text-decoration="normal" x="626.7148350799154" y="301.22114885199994" text-anchor="start" dominant-baseline="alphabetic" xml:space="preserve">getAllByUserId(id)</text></g><g><path fill="none" stroke="black" paint-order="fill stroke markers" d=" M 604.9345640132487 307.755230172 L 753.1774263361575 307.755230172" stroke-miterlimit="10" stroke-width="1.3612669416666667" stroke-dasharray=""/><g transform="translate(766.6267437198242,307.755230172) translate(-766.6267437198242,-307.755230172)"><path fill="black" stroke="none" paint-order="stroke fill markers" d=" M 753.0140743031575 300.94889546366664 L 766.6267437198242 307.755230172 L 753.0140743031575 314.5615648803333 Z"/></g></g><g><g><rect fill="white" stroke="none" x="802.2919375914909" y="332.25803512199997" width="123.03219856324219" height="21.23576429"/></g><text fill="black" stroke="none" font-family="sans-serif" font-size="11pt" font-style="normal" font-weight="normal" text-decoration="normal" x="804.7422180864909" y="346.95971809199995" text-anchor="start" dominant-baseline="alphabetic" xml:space="preserve">getAllByUserId(id)</text></g><g><path fill="none" stroke="black" paint-order="fill stroke markers" d=" M 782.9619470198243 353.493799412 L 931.204809342733 353.493799412" stroke-miterlimit="10" stroke-width="1.3612669416666667" stroke-dasharray=""/><g transform="translate(944.6541267263997,353.493799412) translate(-944.6541267263997,-353.493799412)"><path fill="black" stroke="none" paint-order="stroke fill markers" d=" M 931.041457309733 346.68746470366665 L 944.6541267263997 353.493799412 L 931.041457309733 360.3001341203333 Z"/></g></g><g><g><rect fill="white" stroke="none" x="829.9905536193229" y="377.99660436199997" width="67.63496650757813" height="21.23576429"/></g><text fill="black" stroke="none" font-family="sans-serif" font-size="11pt" font-style="normal" font-weight="normal" text-decoration="normal" x="832.4408341143229" y="392.69828733199995" text-anchor="start" dominant-baseline="alphabetic" xml:space="preserve">Group list</text></g><g><path fill="none" stroke="black" paint-order="fill stroke markers" d=" M 944.6541267263997 399.232368652 L 796.4112644034909 399.232368652" stroke-miterlimit="10" stroke-width="1.3612669416666667" stroke-dasharray="6.53408132"/><g transform="translate(782.9619470198243,399.232368652) translate(-782.9619470198243,-399.232368652)"><path fill="black" stroke="none" paint-order="stroke fill markers" d=" M 796.5746164364909 392.42603394366665 L 782.9619470198243 399.232368652 L 796.5746164364909 406.03870336033333 Z"/></g></g><g><g><rect fill="white" stroke="none" x="651.9631706127474" y="423.735173602" width="67.63496650757813" height="21.23576429"/></g><text fill="black" stroke="none" font-family="sans-serif" font-size="11pt" font-style="normal" font-weight="normal" text-decoration="normal" x="654.4134511077474" y="438.43685657199995" text-anchor="start" dominant-baseline="alphabetic" xml:space="preserve">Group list</text></g><g><path fill="none" stroke="black" paint-order="fill stroke markers" d=" M 766.6267437198242 444.970937892 L 618.3838813969154 444.970937892" stroke-miterlimit="10" stroke-width="1.3612669416666667" stroke-dasharray="6.53408132"/><g transform="translate(604.9345640132487,444.970937892) translate(-604.9345640132487,-444.970937892)"><path fill="black" stroke="none" paint-order="stroke fill markers" d=" M 618.5472334299154 438.16460318366666 L 604.9345640132487 444.970937892 L 618.5472334299154 451.77727260033333 Z"/></g></g><g><g><rect fill="white" stroke="none" x="398.5313534020703" y="469.473742842" width="169.51753486695313" height="21.23576429"/></g><text fill="green" stroke="none" font-family="sans-serif" font-size="11pt" font-style="normal" font-weight="normal" text-decoration="normal" x="400.9816338970703" y="484.17542581199996" text-anchor="start" dominant-baseline="alphabetic" xml:space="preserve">200 OK: Joined group list</text></g><g><path fill="none" stroke="black" paint-order="fill stroke markers" d=" M 588.5993607132486 490.709507132 L 391.4301983415117 490.709507132" stroke-miterlimit="10" stroke-width="1.3612669416666667" stroke-dasharray="6.53408132"/><g transform="translate(377.98088095784505,490.709507132) translate(-377.98088095784505,-490.709507132)"><path fill="black" stroke="none" paint-order="stroke fill markers" d=" M 391.5935503745117 483.90317242366666 L 377.98088095784505 490.709507132 L 391.5935503745117 497.51584184033334 Z"/></g></g><g><g><rect fill="white" stroke="none" x="81.5383713354362" y="515.2123120819999" width="260.77731575074216" height="21.23576429"/></g><text fill="black" stroke="none" font-family="sans-serif" font-size="11pt" font-style="normal" font-weight="normal" text-decoration="normal" x="83.9886518304362" y="529.9139950519999" text-anchor="start" dominant-baseline="alphabetic" xml:space="preserve">Display the list of group user has joined</text></g><g><path fill="none" stroke="black" paint-order="fill stroke markers" d=" M 361.64567765784506 536.448076372 L 75.65769814743621 536.448076372" stroke-miterlimit="10" stroke-width="1.3612669416666667" stroke-dasharray="6.53408132"/><g transform="translate(62.20838076376953,536.448076372) translate(-62.20838076376953,-536.448076372)"><path fill="black" stroke="none" paint-order="stroke fill markers" d=" M 75.8210501804362 529.6417416636666 L 62.20838076376953 536.448076372 L 75.8210501804362 543.2544110803333 Z"/></g></g></g></g></svg>