<svg version="1.1" xmlns="http://www.w3.org/2000/svg" xmlns:xlink="http://www.w3.org/1999/xlink" width="925" height="872"><desc>title%20Get%20Post%20detail%0A%0A%0Aactor%20%23green%3A0.5%20%22Workspace%20User%22%20as%20w%0Aboundary%20%22Application%20Client%22%20as%20f%0Acontrol%20%22Post%20Controller%22%20as%20gc%0Aparticipant%20%22Post%20Service%22%20as%20gs%0A%0Adatabase%20%23blue%3A1%20%22Database%22%20as%20db%0A%0Aw-%3Ef%3AChoose%20three-dot%20button%20in%20specific%20post%0Aactivate%20f%0Aw%3C--f%3AShow%20a%20list%20of%20actions%20with%20the%20post%0Aw-%3Ef%3AClick%20Post%20detail%0A%0A%0Af-%3Egc%3AGet%3A%20%2Fapi%2Fpost%2F%7Bid%7D%0Aactivate%20gc%0Agc-%3Egs%3Aget(id)%0Aactivate%20gs%0Ags-%3Edb%3Aget(id)%0Aactivate%20db%0Ags%3C--db%3APost%20value%0Adeactivate%20db%0A%0Agc%3C--gs%3APost%20value%0Adeactivate%20gs%0A%0Aalt%20If%20Post%20is%20empty%0Af%3C--gc%3A%3Ccolor%3A%23red%3E404%20NOT%20FOUND%3A%20not%20found%3C%2Fcolor%3E%0A%0Aw%3C--f%3A%20Display%20404%20Not%20Found%20screen%0Aelse%20Else%0Af%3C--gc%3A%3Ccolor%3A%23green%3E200%20OK%5CnResponse%20body%3A%20Post%20value%3C%2Fcolor%3E%0Adeactivate%20gc%0A%0Aw%3C--f%3A%20Display%20post%20detail%20page%0Adeactivate%20f%0A%0Aend%0A</desc><defs/><g><g/><g/><g/><g/><g/><g/><g/><g/><g/><g/><g/><g/><g/><g/><g/><g/><g/><g/><g><rect fill="white" stroke="none" x="0" y="0" width="925" height="872"/></g><g><text fill="black" stroke="none" font-family="sans-serif" font-size="16.5pt" font-style="normal" font-weight="normal" text-decoration="normal" x="390.82755686510416" y="24.50280495" text-anchor="start" dominant-baseline="alphabetic" xml:space="preserve">Get Post detail</text></g><g/><g><path fill="none" stroke="black" paint-order="fill stroke markers" d=" M 73.50841485 129.701514202 L 73.50841485 872.9532643519999" stroke-miterlimit="10" stroke-width="1.3612669416666667" stroke-dasharray="12.565541,5.445067766666667"/><path fill="none" stroke="black" paint-order="fill stroke markers" d=" M 383.56858988333335 129.701514202 L 383.56858988333335 872.9532643519999" stroke-miterlimit="10" stroke-width="1.3612669416666667" stroke-dasharray="12.565541,5.445067766666667"/><path fill="none" stroke="black" paint-order="fill stroke markers" d=" M 628.4178265276041 129.701514202 L 628.4178265276041 872.9532643519999" stroke-miterlimit="10" stroke-width="1.3612669416666667" stroke-dasharray="12.565541,5.445067766666667"/><path fill="none" stroke="black" paint-order="fill stroke markers" d=" M 756.7673683476562 129.701514202 L 756.7673683476562 872.9532643519999" stroke-miterlimit="10" stroke-width="1.3612669416666667" stroke-dasharray="12.565541,5.445067766666667"/><path fill="none" stroke="black" paint-order="fill stroke markers" d=" M 885.1169101677083 129.701514202 L 885.1169101677083 872.9532643519999" stroke-miterlimit="10" stroke-width="1.3612669416666667" stroke-dasharray="12.565541,5.445067766666667"/></g><g><g><path fill="white" stroke="green" paint-order="fill stroke markers" d=" M 82.819480731 60.60360424300001 A 9.311065881 9.311065881 0 1 1 82.81947607546743 60.594293178670846 M 73.50841485 69.91467012400001 L 73.50841485 89.84361815000001 M 61.747068473999995 77.102159576 L 85.26976122599999 77.102159576 M 73.50841485 89.84361815000001 L 61.747068473999995 108.465749912 M 73.50841485 89.84361815000001 L 85.26976122599999 108.465749912" stroke-miterlimit="10" stroke-width="1.3884922805000002" stroke-dasharray=""/></g><g><text fill="black" stroke="none" font-family="sans-serif" font-size="11pt" font-style="normal" font-weight="normal" text-decoration="normal" x="19.467635736230463" y="124.80095321200001" text-anchor="start" dominant-baseline="alphabetic" xml:space="preserve">Workspace User</text></g><g><path fill="white" stroke="black" paint-order="fill stroke markers" d=" M 415.99396843383334 82.819480731 A 24.2577769005 24.2577769005 0 1 1 415.9939563049459 82.79522295814245 M 352.5317036133333 57.17321154999999 L 352.5317036133333 108.465749912 M 351.14321133283335 82.819480731 L 367.47841463283333 82.819480731" stroke-miterlimit="10" stroke-width="2.7769845610000004" stroke-dasharray=""/></g><g><text fill="black" stroke="none" font-family="sans-serif" font-size="11pt" font-style="normal" font-weight="normal" text-decoration="normal" x="326.93296976614585" y="124.80095321200001" text-anchor="start" dominant-baseline="alphabetic" xml:space="preserve">Application Client</text></g><g><path fill="white" stroke="black" paint-order="fill stroke markers" d=" M 652.6756034281041 82.819480731 A 24.2577769005 24.2577769005 0 1 1 652.6755912992166 82.79522295814245 M 625.1507858676041 58.561703830499994 L 634.951907847604 50.39410218049999 M 625.1507858676041 58.561703830499994 L 634.951907847604 66.72930548049999" stroke-miterlimit="10" stroke-width="2.7769845610000004" stroke-dasharray=""/></g><g><text fill="black" stroke="none" font-family="sans-serif" font-size="11pt" font-style="normal" font-weight="normal" text-decoration="normal" x="579.9389675798502" y="124.80095321200001" text-anchor="start" dominant-baseline="alphabetic" xml:space="preserve">Post Controller</text></g><path fill="none" stroke="none"/><g><path fill="white" stroke="black" paint-order="fill stroke markers" d=" M 697.8983862070976 85.75981732500001 L 815.6363504882148 85.75981732500001 L 815.6363504882148 129.701514202 L 697.8983862070976 129.701514202 L 697.8983862070976 85.75981732500001 Z" stroke-miterlimit="10" stroke-width="2.613632528" stroke-dasharray=""/></g><g><text fill="black" stroke="none" font-family="sans-serif" font-size="11pt" font-style="normal" font-weight="normal" text-decoration="normal" x="715.6220817875976" y="113.36631090200002" text-anchor="start" dominant-baseline="alphabetic" xml:space="preserve">Post Service</text></g><g><path fill="white" stroke="blue" paint-order="fill stroke markers" d=" M 861.2675133497083 97.684515734 L 861.2675133497083 63.380588804000006 L 908.9663069857082 63.380588804000006 L 908.9663069857082 97.684515734" stroke-miterlimit="10" stroke-width="2.7769845610000004" stroke-dasharray=""/><path fill="white" stroke="blue" paint-order="fill stroke markers" d=" M 908.9663069857082 62.1881189631 L 908.9651145258046 62.29592950801663 L 908.9615372653385 62.403729271968594 L 908.9555755620332 62.51150747506936 L 908.9472300120539 62.619253339588404 L 908.9365014499487 62.72695609102909 L 908.9233909485648 62.834604959206004 L 908.9078998189416 62.94218917932205 L 908.890029610179 63.04969799304486 L 908.8697821092829 63.15712064958265 L 908.8471593409868 63.2644464067593 L 908.8221635675484 63.371664532088516 L 908.7947972885244 63.47876430384712 L 908.7650632405198 63.58573501214718 L 908.7329643969147 63.692565960007016 L 908.6985039675666 63.79924646442086 L 908.6616853984898 63.90576585742718 L 908.6225123715104 64.01211348717543 L 908.5809888038987 64.11827871899126 L 908.5371188479767 64.22425093643996 L 908.4909068907033 64.3300195423881 L 908.442357553236 64.43557396006322 L 908.3914756904679 64.54090363411153 L 908.338266390543 64.64599803165338 L 908.2827349743468 64.75084664333659 L 908.2248869949748 64.85543898438739 L 908.1647282371766 64.95976459565881 L 908.102264716778 65.06381304467668 L 908.0375026800788 65.16757392668278 L 907.9704486032288 65.27103686567541 L 907.9011091915798 65.37419151544687 L 907.8294913790152 65.47702756061814 L 907.7556023272565 65.5795347176704 L 907.6794494251475 65.68170273597339 L 907.6010402879147 65.7835213988104 L 907.5203827564065 65.88498052439998 L 907.4374848963091 65.98606996691414 L 907.3523549973393 66.08677961749288 L 907.2650015724158 66.18709940525505 L 907.1754333568086 66.28701929830548 L 907.0836593072646 66.38652930473813 L 906.9896886011122 66.48561947363528 L 906.8935306353436 66.58427989606261 L 906.7951950256755 66.6825007060601 L 906.6946916055867 66.7802720816286 L 906.5920304253356 66.87758424571203 L 906.4872217509545 66.97442746717506 L 906.3802760632236 67.07079206177627 L 906.2712040566227 67.1666683931365 L 906.1600166382614 67.2620468737025 L 906.0467249267888 67.35691796570569 L 905.9313402512819 67.45127218211596 L 905.8138741501118 67.54510008759026 L 905.6943383697909 67.63839229941624 L 905.5727448637977 67.73113948845047 L 905.4491057913813 67.82333238005134 L 905.3234335163459 67.9149617550065 L 905.1957406058144 68.00601845045483 L 905.0660398289714 68.09649336080267 L 904.9343441557864 68.18637743863435 L 904.8006667557172 68.27566169561702 L 904.6650209963923 68.36433720339936 L 904.5274204422744 68.45239509450451 L 904.3878788533045 68.53982656321674 L 904.2464101835252 68.62662286646201 L 904.1030285796854 68.71277532468237 L 903.9577483798263 68.79827532270376 L 903.8105841118464 68.88311431059763 L 903.6615504920503 68.9672838045359 L 903.5106624236754 69.0507753876393 L 903.3579349954031 69.13358071081912 L 903.2033834798488 69.21569149361203 L 903.0470233320353 69.29709952500816 L 902.888870187847 69.37779666427225 L 902.7289398624667 69.45777484175761 L 902.5672483487936 69.53702605971311 L 902.4038118158443 69.61554239308303 L 902.2386466071357 69.69331599029945 L 902.0717692390514 69.77033907406746 L 901.9031963991889 69.84660394214286 L 901.7329449446918 69.92210296810242 L 901.5610319005636 69.99682860210643 L 901.3874744579656 70.07077337165379 L 901.2122899724973 70.14392988232913 L 901.0354959624613 70.21629081854239 L 900.8571101071112 70.28784894426022 L 900.6771502448839 70.35859710372968 L 900.4956343716159 70.42852822219379 L 900.3125806387429 70.49763530659898 L 900.128007351486 70.5659114462944 L 899.9419329670197 70.63334981372294 L 899.7543760926278 70.69994366510412 L 899.5653554838411 70.76568634110825 L 899.3748900425633 70.83057126752253 L 899.1829988151794 70.89459195590838 L 898.9897009906526 70.95774200425032 L 898.7950158986041 71.02001509759614 L 898.5989630073809 71.08140500868842 L 898.4015619221087 71.14190559858717 L 898.2028323827317 71.20151081728383 L 898.0027942620379 71.26021470430622 L 897.801467563673 71.31801138931453 L 897.598872420139 71.37489509268845 L 897.3950290907811 71.43086012610503 L 897.1899579597629 71.48590089310757 L 896.9836795340261 71.54001188966522 L 896.7762144412418 71.59318770472345 L 896.5675834277461 71.64542302074504 L 896.3578073564667 71.69671261424193 L 896.1469072048357 71.7470513562975 L 895.9349040626926 71.79643421307951 L 895.7218191301749 71.84485624634341 L 895.5076737155986 71.89231261392625 L 895.2924892333263 71.93879857023082 L 895.076287201627 71.9843094667002 L 894.8590892405239 72.02884075228269 L 894.6409170696319 72.07238797388683 L 894.4217925059863 72.11494677682676 L 894.201737461861 72.15651290525764 L 893.9807739425769 72.19708220260128 L 893.7589240443019 72.23665061196175 L 893.5362099518409 72.27521417653107 L 893.3126539364174 72.31276903998494 L 893.088278353447 72.3493114468683 L 892.8631056403007 72.38483774297092 L 892.6371583140623 72.41934437569277 L 892.4104589692761 72.45282789439938 L 892.1830302756877 72.48528495076673 L 891.9548949759768 72.51671229911628 L 891.7260758834835 72.54710679673934 L 891.4965958799262 72.5764654042115 L 891.2664779131142 72.60478518569649 L 891.0357449946521 72.63206330923974 L 890.8044201976397 72.65829704705163 L 890.5725266543639 72.68348377578025 L 890.3400875539858 72.70762097677371 L 890.1071261402217 72.73070623633201 L 889.8736657090187 72.75273724594847 L 889.6397296062257 72.77371180254045 L 889.4053412252578 72.79362780866978 L 889.1705240047578 72.81248327275246 L 888.9353014262522 72.83027630925778 L 888.6996970118025 72.84700513889692 L 888.4637343216542 72.86266808880085 L 888.2274369518796 72.87726359268764 L 887.9908285320186 72.89079019101906 L 887.753932722716 72.90324653114655 L 887.5167732133555 72.91463136744649 L 887.2793737196903 72.9249435614447 L 887.0417579814718 72.93418208193043 L 886.8039497600762 72.94234600505929 L 886.5659728361271 72.94943451444577 L 886.3278510071187 72.95544690124485 L 886.0896080850356 72.96038256422287 L 885.8512678939712 72.96424100981763 L 885.6128542677462 72.9670218521878 L 885.3743910475245 72.96872481325143 L 885.1359020794293 72.96934972271386 L 884.8974112121588 72.96889651808466 L 884.6589422946009 72.96736524468392 L 884.4205191734487 72.96475605563768 L 884.1821656908157 72.96106921186271 L 883.9439056818513 72.95630508204027 L 883.7057629723581 72.9504641425794 L 883.4677613764085 72.94354697756918 L 883.2299246939637 72.93555427872033 L 882.9922767084937 72.9264868452961 L 882.7548411845992 72.91634558403224 L 882.5176418656345 72.90513150904647 L 882.280702471334 72.89284574173689 L 882.0440466954398 72.87948951067006 L 881.8076982033319 72.86506415145789 L 881.5716806296629 72.84957110662431 L 881.3360175759933 72.8330119254609 L 881.1007326084322 72.81538826387197 L 880.8658492552802 72.79670188420899 L 880.6313910046769 72.77695465509434 L 880.397381302252 72.7561485512345 L 880.1638435487806 72.73428565322251 L 879.9308010978438 72.71136814732996 L 879.698277253492 72.68739832528833 L 879.4662952679162 72.66237858405984 L 879.2348783391216 72.63631142559778 L 879.004049608608 72.60919945659627 L 878.7738321590565 72.58104538822961 L 878.5442490120199 72.55185203588118 L 878.3153231256216 72.5216223188619 L 878.0870773922596 72.49035926011825 L 877.859534636317 72.45806598593009 L 877.6327176118797 72.4247457255979 L 877.4066490004612 72.39040181111994 L 877.1813514087343 72.35503767685907 L 876.9568473662702 72.31865685919922 L 876.7331593232863 72.28126299619186 L 876.5103096484004 72.24285982719209 L 876.2883206263942 72.20345119248485 L 876.0672144559852 72.16304103290075 L 875.8470132476058 72.12163338942209 L 875.6277390211936 72.07923240277869 L 875.4094137039884 72.03584231303388 L 875.19205912834 71.99146745916049 L 874.975697029525 71.94611227860693 L 874.7603490435727 71.89978130685344 L 874.5460367051024 71.85247917695861 L 874.3327814451693 71.80421061909601 L 874.1206045891219 71.75498046008119 L 873.9095273544685 71.70479362288901 L 873.6995708487572 71.65365512616141 L 873.4907560674633 71.60157008370541 L 873.283103891891 71.54854370398188 L 873.0766350870848 71.49458128958457 L 872.8713702997532 71.43968823671 L 872.6673300562037 71.38387003461766 L 872.4645347602907 71.32713226508127 L 872.2630046913749 71.26948060183051 L 872.0627600022952 71.21092080998365 L 871.8638207173536 71.15145874547107 L 871.6662067303129 71.0911003544497 L 871.469937802407 71.0298516727083 L 871.2750335603652 70.96771882506403 L 871.0815134944493 70.90470802474988 L 870.8893969565045 70.84082557279336 L 870.6987031580247 70.77607785738643 L 870.5094511682307 70.71047135324669 L 870.3216599121638 70.64401262096986 L 870.1353481687931 70.5767083063738 L 869.9505345691377 70.50856513983389 L 869.7672375944037 70.43958993560999 L 869.5854755741354 70.36978959116503 L 869.405266684384 70.29917108647531 L 869.2266289458877 70.22774148333244 L 869.0495802222717 70.1555079246372 L 868.8741382182609 70.08247763368529 L 868.7003204779095 70.00865791344492 L 868.5281443828466 69.9340561458266 L 868.3576271505382 69.85867979094495 L 868.1887858325656 69.78253638637263 L 868.0216373129197 69.70563354638664 L 867.8561983063133 69.62797896120689 L 867.6924853565091 69.54958039622719 L 867.5305148346658 69.47044569123871 L 867.3703029377006 69.39058275964601 L 867.2118656866694 69.30999958767568 L 867.0552189251656 69.22870423357777 L 866.9003783177347 69.14670482681996 L 866.7473593483085 69.06400956727457 L 866.5961773186561 68.98062672439866 L 866.4468473468548 68.89656463640702 L 866.2993843657773 68.8118317094384 L 866.1538031215988 68.72643641671489 L 866.0101181723223 68.6403872976946 L 865.8683438863231 68.55369295721772 L 865.7284944409117 68.46636206464606 L 865.590583820916 68.37840335299609 L 865.4546258172829 68.28982561806569 L 865.3206340256999 68.20063771755453 L 865.1886218452341 68.11084857017835 L 865.0586024769938 68.02046715477704 L 864.9305889228073 67.92950250941684 L 864.8045939839234 67.83796373048648 L 864.6806302597311 67.74585997178757 L 864.5587101464994 67.65320044361923 L 864.438845836138 67.55999441185705 L 864.321049314978 67.46625119702654 L 864.2053323625736 67.37198017337107 L 864.0917065505233 67.27719076791445 L 863.980183241314 67.18189245951821 L 863.8707735871833 67.08609477793381 L 863.7634885290056 66.98980730284956 L 863.6583387951973 66.89303966293272 L 863.5553349006443 66.79580153486665 L 863.45448714565 66.69810264238313 L 863.3558056149059 66.59995275528999 L 863.259300176483 66.50136168849414 L 863.1649804808445 66.40233930102012 L 863.0728559598815 66.30289549502413 L 862.9829358259693 66.20304021480393 L 862.8952290710464 66.1027834458043 L 862.8097444657151 66.00213521361863 L 862.7264905583648 65.90110558298623 L 862.6454756743168 65.799704656786 L 862.566707914992 65.69794257502603 L 862.4901951571007 65.59582951382973 L 862.4159450518549 65.4933756844181 L 862.3439650242034 65.3905913320887 L 862.2742622720887 65.28748673519112 L 862.2068437657282 65.18407220409914 L 862.1417162469162 65.08035808017966 L 862.0788862283503 64.97635473475869 L 862.0183599929801 64.87207256808405 L 861.9601435933786 64.76752200828555 L 861.9042428511374 64.66271351033203 L 861.8506633562839 64.55765755498592 L 861.7994104667231 64.45236464775525 L 861.7504893077013 64.34684531784296 L 861.7039047712934 64.24111011709415 L 861.6596615159145 64.13516961894075 L 861.6177639658531 64.0290344173443 L 861.5782163108294 63.92271512573653 L 861.5410225055757 63.81622237595798 L 861.5061862694419 63.70956681719489 L 861.4737110860221 63.602759114914264 L 861.4436002028082 63.49580994979732 L 861.4158566308629 63.38873001667144 L 861.3904831445205 63.28153002344071 L 861.3674822811086 63.17422069001512 L 861.3468563406941 63.066812747238586 L 861.328607385854 62.959316935815885 L 861.3127372414685 62.85174400523857 L 861.299247494539 62.74410471271006 L 861.2881394940288 62.636409822069915 L 861.2794143507288 62.52867010271744 L 861.2730729371458 62.4208963285348 L 861.2691158874162 62.313099276809595 L 861.2675435972415 62.20528972715717 L 861.2683562238494 62.09747846044265 L 861.271553685978 61.98967625770286 L 861.2771356638837 61.88189389906824 L 861.2851015993733 61.77414216268484 L 861.29545069586 61.66643182363649 L 861.3081819184429 61.558773652867366 L 861.32329399401 61.4511784161048 L 861.3407854113666 61.34365687278283 L 861.3606544213853 61.236219774966166 L 861.382899037182 61.12887786627507 L 861.4075170343135 61.02164188081096 L 861.4345059510005 60.91452254208302 L 861.4638630883738 60.807530561935856 L 861.4955855107444 60.70067663947832 L 861.5296700458963 60.593971460013606 L 861.5661132854043 60.487425693970756 L 861.6049115849751 60.381049995837586 L 861.6460610648107 60.27485500309525 L 861.6895576099978 60.16885133515453 L 861.7353968709178 60.06304959229389 L 861.783574263683 59.95746035459945 L 861.8340849705943 59.852094180906974 L 861.8869239406229 59.746961607746044 L 861.942085889916 59.64207314828636 L 861.9995653023246 59.537439291286454 L 862.0593564299554 59.43307050004484 L 862.1214532937453 59.32897721135367 L 862.1858496840598 59.22516983445505 L 862.2525391613136 59.12165875000019 L 862.3215150566144 59.01845430901127 L 862.3927704724302 58.91556683184637 L 862.4662982832789 58.81300660716748 L 862.5420911364405 58.7107838909116 L 862.6201414526929 58.60890890526517 L 862.7004414270697 58.507391837641855 L 862.78298302964 58.406242839663825 L 862.8677580063128 58.30547202614659 L 862.9547578796607 58.205089474087515 L 863.0439739497691 58.105105221658164 L 863.1353972951052 58.00552926720046 L 863.2290187734108 57.90637156822687 L 863.3248290226157 57.807642040424646 L 863.4228184617754 57.709350556664305 L 863.5229772920272 57.61150694601232 L 863.6252954975718 57.514120992748204 L 863.7297628466736 57.417202435386145 L 863.8363688926851 57.320760965701105 L 863.9451029750903 57.224806227759686 L 864.0559542205716 57.12934781695572 L 864.168911544097 57.03439527905074 L 864.2839636500281 56.93995810921942 L 864.4010990332503 56.84604575110002 L 864.5203059803226 56.75266759585011 L 864.64157257065 56.65983298120741 L 864.7648866776744 56.567551190555996 L 864.8902359700879 56.47583145199805 L 865.0176079130656 56.384682937430995 L 865.1469897695195 56.29411476163032 L 865.2783686013715 56.20413598133814 L 865.4117312708481 56.1147555943575 L 865.5470644417935 56.02598253865261 L 865.6843545810034 55.937825691455075 L 865.8235879595782 55.85029386837614 L 865.964750654296 55.763395822525176 L 866.1078285490051 55.677140243634355 L 866.2528073360353 55.591535757189675 L 866.3996725176286 55.50659092356846 L 866.5484094073893 55.42231423718327 L 866.6990031317522 55.33871412563253 L 866.8514386314706 55.25579894885771 L 867.0057006631214 55.1735769983074 L 867.16177380063 55.092056496108135 L 867.3196424368128 55.01124559424221 L 867.4792907849378 54.93115237373246 L 867.6407028803029 54.851784843834196 L 867.8038625818334 54.77315094123426 L 867.9687535736949 54.6952585292574 L 868.1353593669259 54.61811539707989 L 868.3036633010856 54.54172925895067 L 868.4736485459209 54.46610775341989 L 868.6452981030492 54.391258442575094 L 868.8185948076576 54.317188811284986 L 868.9935213302201 54.24390626645098 L 869.1700601782303 54.171418136266475 L 869.3481936979504 54.09973166948409 L 869.5279040761769 54.028854034690774 L 869.7091733420218 53.95879231959093 L 869.8919833687095 53.88955353029769 L 870.0763158753897 53.82114459063227 L 870.2621524289655 53.753572341431656 L 870.4494744459361 53.68684353986444 L 870.638263194256 53.62096485875517 L 870.8284997952078 53.55594288591707 L 871.0201652252899 53.49178412349323 L 871.213240318119 53.42849498730643 L 871.4077057663467 53.366081806217544 L 871.6035421235903 53.304550821492676 L 871.800729806377 53.24390818617902 L 871.9992490961033 53.18415996448957 L 872.1990801410053 53.12531213119671 L 872.4002029581451 53.067370571034715 L 872.6025974354087 53.01034107811134 L 872.806243333517 52.95422935532834 L 873.0111202880498 52.89904101381123 L 873.2172078114825 52.84478157234818 L 873.4244852952344 52.79145645683812 L 873.6329320117298 52.73907099974815 L 873.842527116471 52.687630439580346 L 874.053249650122 52.637139920347835 L 874.265078540605 52.58760449106049 L 874.4779926052076 52.53902910521993 L 874.6919705527008 52.49141862032429 L 874.906990985468 52.444777797382365 L 875.1230324016452 52.399111300437596 L 875.3400731972707 52.354423696101605 L 875.5580916684461 52.3107194530976 L 875.7770660135056 52.26800294181345 L 875.9969743351974 52.2262784338647 L 876.2177946428726 52.18555010166736 L 876.4395048546843 52.14582201802072 L 876.6620827997962 52.10709815570004 L 876.8855062205992 52.06938238705927 L 877.1097527749373 52.032678483643856 L 877.3348000383422 51.996990115813546 L 877.560625506275 51.96232085237539 L 877.787206596377 51.928674160226834 L 878.0145206507282 51.89605340400906 L 878.2425449381122 51.8644618457705 L 878.4712566562907 51.833902644640645 L 878.7006329342823 51.80437885651416 L 878.9306508346505 51.775893433745246 L 879.1612873557966 51.74844922485244 L 879.392519434261 51.722048974233765 L 879.6243239470283 51.69669532189228 L 879.8566777138407 51.672390803172085 L 880.0895574995149 51.649137848504814 L 880.3229400162664 51.626938783166544 L 880.5568019260382 51.60579582704531 L 880.7911198428341 51.58571109441911 L 881.0258703350576 51.56668659374447 L 881.2610299278551 51.54872422745561 L 881.4965751054635 51.53182579177417 L 881.7324823135611 51.515992976529645 L 881.9687279616239 51.50122736499037 L 882.2052884252837 51.4875304337052 L 882.4421400486915 51.47490355235584 L 882.6792591468821 51.4633479836199 L 882.9166220081436 51.45286488304463 L 883.1542048963873 51.443455298931354 L 883.3919840535226 51.43512017223063 L 883.629935701832 51.4278603364482 L 883.8680360463487 51.42167651756158 L 884.1062612772369 51.41656933394751 L 884.3445875721719 51.41253929632009 L 884.5829910987229 51.40958680767973 L 884.8214480167358 51.407712163272826 L 885.0599344807176 51.40691555056227 L 885.2984266422206 51.40719704920866 L 885.5369006522275 51.40855663106237 L 885.7753326635359 51.41099416016634 L 886.0136988331434 51.414509392769695 L 886.2519753246316 51.419101977352106 L 886.4901383105502 51.42477145465894 L 886.7281639747987 51.431517257747196 L 886.9660285150092 51.43933871204218 L 887.2037081449258 51.44823503540498 L 887.4411790967839 51.45820533821068 L 887.6784176236858 51.4692486234373 L 887.9154000019768 51.48136378676553 L 888.1521025336164 51.49454961668913 L 888.3885015485487 51.50880479463608 L 888.6245734070693 51.524127895100484 L 888.8602945021889 51.54051738578506 L 889.0956412619946 51.5579716277544 L 889.3305901520065 51.57648887559884 L 889.5651176775312 51.59606727760904 L 889.799200386012 51.6167048759611 L 890.0328148693727 51.6383996069124 L 890.2659377663598 51.66114930100791 L 890.4985457648779 51.684951683297186 L 890.730615604321 51.70980437356183 L 890.9621240778985 51.735704886553535 L 891.193048034956 51.76265063224257 L 891.4233643832902 51.79063891607683 L 891.6530500914581 51.81966693925126 L 891.8820821910805 51.849731798987726 L 892.1104377791381 51.88083048882531 L 892.3380940202626 51.91295989892094 L 892.5650281490193 51.94611681636038 L 892.7912174721847 51.980297925479526 L 893.016639371015 52.01549980819594 L 893.2412713035079 52.0517189443507 L 893.4650908066576 52.08895171206036 L 893.6880754987002 52.127194388079175 L 893.9102030813522 52.16644314817141 L 894.1314513420407 52.20669406749378 L 894.3517981561238 52.247943120987884 L 894.5712214891037 52.29018618378274 L 894.7896993988301 52.33341903160728 L 895.007210037694 52.37763734121275 L 895.2237316548128 52.422836690805035 L 895.4392425982052 52.46901256048684 L 895.6537213169564 52.516160332709674 L 895.8671463633734 52.564275292735616 L 896.0794963951294 52.613352629108746 L 896.2907501773981 52.663387434136325 L 896.5008865849773 52.71437470437956 L 896.7098846044013 52.7663093411539 L 896.9177233360425 52.819186151038956 L 897.1243819962008 52.8729998463978 L 897.3298399191825 52.92774504590574 L 897.5340765593664 52.983416275088445 L 897.7370714932588 53.040007966869396 L 897.9388044215353 53.09751446212657 L 898.1392551710715 53.15593001025836 L 898.3384036969591 53.21524876975863 L 898.5362300845117 53.27546480880087 L 898.7327145512553 53.33657210583136 L 898.9278374489071 53.3985645501713 L 899.1215792653398 53.461435942627936 L 899.3139206265332 53.52517999611441 L 899.5048422985117 53.58979033627848 L 899.6943251892668 53.655260502139996 L 899.8823503506677 53.721583946736914 L 900.0688989803548 53.78875403778004 L 900.2539524236205 53.85676405831625 L 900.4374921752748 53.92560720740017 L 900.6194998814955 53.995276600774254 L 900.7999573416636 54.065765271557225 L 900.9788465101834 54.13706617094075 L 901.1561494982872 54.2091721688943 L 901.331848575824 54.28207605487816 L 901.5059261730323 54.35577053856451 L 901.6783648822976 54.43024825056637 L 901.8491474598926 54.50550174317461 L 902.0182568277019 54.581523491102686 L 902.1856760749295 54.658305892239156 L 902.3513884597903 54.73584126840789 L 902.515377411184 54.81412186613588 L 902.677626530352 54.89313985742859 L 902.8381195925176 54.97288734055273 L 902.9968405485084 55.05335634082646 L 903.153773526361 55.1345388114168 L 903.3089028329083 55.21642663414435 L 903.4622129553492 55.29901162029506 L 903.6136885627989 55.38228551143916 L 903.763314507823 55.46623998025691 L 903.9110758279518 55.55086663137139 L 904.0569577471763 55.63615700218803 L 904.2009456774261 55.722102563740805 L 904.3430252200284 55.80869472154519 L 904.4831821671471 55.89592481645755 L 904.6214025032043 55.98378412554111 L 904.7576724062817 56.07226386293816 L 904.8919782495025 56.1613551807487 L 905.0243066023943 56.251049169915184 L 905.1546442322319 56.34133686111345 L 905.2829781053613 56.4322092256496 L 905.409295388502 56.52365717636293 L 905.5335834500306 56.615671568534566 L 905.655829861245 56.70824320080196 L 905.7760223976057 56.80136281607904 L 905.8941490399594 56.89502110248188 L 906.0101979757401 56.98920869425987 L 906.124157600151 57.083916172732344 L 906.2360165173246 57.17913406723036 L 906.3457635414625 57.27485285604382 L 906.4533876979536 57.37106296737362 L 906.5588782244721 57.467754780288786 L 906.6622245720531 57.56491862568861 L 906.763416406148 57.662544787269525 L 906.862443607658 57.76062350249672 L 906.9592962739449 57.859144963580405 L 907.0539647198233 57.95809931845658 L 907.1464394785272 58.05747667177222 L 907.236711302658 58.15726708587479 L 907.3247711651084 58.257460581806065 L 907.4106102599654 58.358047140299924 L 907.4942200033914 58.459016702784346 L 907.5755920344814 58.56035917238722 L 907.6547182161003 58.66206441494605 L 907.7315906356957 58.764122260021324 L 907.8062016060899 58.866522501913586 L 907.8785436662479 58.96925490068398 L 907.9486095820241 59.072309183178234 L 908.0163923468851 59.17567504405398 L 908.0818851826111 59.279342146811274 L 908.145081539973 59.38330012482622 L 908.2059750993877 59.48753858238766 L 908.2645597715501 59.59204709573668 L 908.3208296980417 59.69681521410906 L 908.374779251917 59.80183246078026 L 908.4264030382652 59.907088334113126 L 908.4756958947509 60.012572308608036 L 908.5226528921295 60.11827383595545 L 908.5672693347403 60.22418234609071 L 908.6095407609764 60.33028724825106 L 908.6494629437302 60.43657793203471 L 908.6870318908169 60.54304376846186 L 908.7222438453729 60.64967411103757 L 908.7550952862323 60.75645829681646 L 908.7855829282781 60.86338564746893 L 908.8137037227718 60.97044547034902 L 908.8394548576572 61.07762705956367 L 908.8628337578424 61.184919697043256 L 908.8838380854567 61.29231265361346 L 908.902465740085 61.399795190068104 L 908.9187148589772 61.50735655824312 L 908.9325838172351 61.614986002091314 L 908.9440712279744 61.72267275875801 L 908.9531759424635 61.830406059657264 L 908.9598970502387 61.93817513154877 L 908.9642338791947 62.04596919761514 L 908.9661859956523 62.15377747853961 M 908.9663069857082 96.4920458931 L 908.9651145258046 96.59985643801662 L 908.9615372653385 96.70765620196859 L 908.9555755620332 96.81543440506935 L 908.9472300120539 96.9231802695884 L 908.9365014499487 97.03088302102908 L 908.9233909485648 97.138531889206 L 908.9078998189416 97.24611610932205 L 908.890029610179 97.35362492304485 L 908.8697821092829 97.46104757958265 L 908.8471593409868 97.5683733367593 L 908.8221635675484 97.67559146208852 L 908.7947972885244 97.78269123384712 L 908.7650632405198 97.88966194214719 L 908.7329643969147 97.99649289000702 L 908.6985039675666 98.10317339442086 L 908.6616853984898 98.20969278742717 L 908.6225123715104 98.31604041717543 L 908.5809888038987 98.42220564899125 L 908.5371188479767 98.52817786643996 L 908.4909068907033 98.6339464723881 L 908.442357553236 98.73950089006323 L 908.3914756904679 98.84483056411152 L 908.338266390543 98.94992496165337 L 908.2827349743468 99.05477357333659 L 908.2248869949748 99.15936591438738 L 908.1647282371766 99.2636915256588 L 908.102264716778 99.36773997467667 L 908.0375026800788 99.47150085668278 L 907.9704486032288 99.5749637956754 L 907.9011091915798 99.67811844544686 L 907.8294913790152 99.78095449061813 L 907.7556023272565 99.8834616476704 L 907.6794494251475 99.98562966597338 L 907.6010402879147 100.08744832881038 L 907.5203827564065 100.18890745439998 L 907.4374848963091 100.28999689691415 L 907.3523549973393 100.39070654749288 L 907.2650015724158 100.49102633525506 L 907.1754333568086 100.59094622830548 L 907.0836593072646 100.69045623473812 L 906.9896886011122 100.78954640363527 L 906.8935306353436 100.8882068260626 L 906.7951950256755 100.9864276360601 L 906.6946916055867 101.0841990116286 L 906.5920304253356 101.18151117571202 L 906.4872217509545 101.27835439717506 L 906.3802760632236 101.37471899177628 L 906.2712040566227 101.4705953231365 L 906.1600166382614 101.56597380370249 L 906.0467249267888 101.6608448957057 L 905.9313402512819 101.75519911211595 L 905.8138741501118 101.84902701759025 L 905.6943383697909 101.94231922941623 L 905.5727448637977 102.03506641845047 L 905.4491057913813 102.12725931005133 L 905.3234335163459 102.2188886850065 L 905.1957406058144 102.30994538045483 L 905.0660398289714 102.40042029080266 L 904.9343441557864 102.49030436863434 L 904.8006667557172 102.579588625617 L 904.6650209963923 102.66826413339936 L 904.5274204422744 102.75632202450451 L 904.3878788533045 102.84375349321674 L 904.2464101835252 102.93054979646202 L 904.1030285796854 103.01670225468237 L 903.9577483798263 103.10220225270375 L 903.8105841118464 103.18704124059762 L 903.6615504920503 103.27121073453588 L 903.5106624236754 103.3547023176393 L 903.3579349954031 103.4375076408191 L 903.2033834798488 103.51961842361202 L 903.0470233320353 103.60102645500817 L 902.888870187847 103.68172359427226 L 902.7289398624667 103.7617017717576 L 902.5672483487936 103.84095298971312 L 902.4038118158443 103.91946932308304 L 902.2386466071357 103.99724292029944 L 902.0717692390514 104.07426600406745 L 901.9031963991889 104.15053087214287 L 901.7329449446918 104.22602989810241 L 901.5610319005636 104.30075553210642 L 901.3874744579656 104.37470030165377 L 901.2122899724973 104.44785681232914 L 901.0354959624613 104.52021774854238 L 900.8571101071112 104.59177587426021 L 900.6771502448839 104.66252403372968 L 900.4956343716159 104.73245515219378 L 900.3125806387429 104.80156223659897 L 900.128007351486 104.86983837629438 L 899.9419329670197 104.93727674372295 L 899.7543760926278 105.0038705951041 L 899.5653554838411 105.06961327110824 L 899.3748900425633 105.13449819752252 L 899.1829988151794 105.19851888590837 L 898.9897009906526 105.26166893425032 L 898.7950158986041 105.32394202759615 L 898.5989630073809 105.38533193868841 L 898.4015619221087 105.44583252858716 L 898.2028323827317 105.50543774728384 L 898.0027942620379 105.56414163430621 L 897.801467563673 105.62193831931454 L 897.598872420139 105.67882202268845 L 897.3950290907811 105.73478705610502 L 897.1899579597629 105.78982782310756 L 896.9836795340261 105.84393881966523 L 896.7762144412418 105.89711463472344 L 896.5675834277461 105.94934995074503 L 896.3578073564667 106.00063954424192 L 896.1469072048357 106.0509782862975 L 895.9349040626926 106.1003611430795 L 895.7218191301749 106.14878317634341 L 895.5076737155986 106.19623954392625 L 895.2924892333263 106.2427255002308 L 895.076287201627 106.2882363967002 L 894.8590892405239 106.33276768228268 L 894.6409170696319 106.37631490388682 L 894.4217925059863 106.41887370682676 L 894.201737461861 106.46043983525765 L 893.9807739425769 106.50100913260128 L 893.7589240443019 106.54057754196174 L 893.5362099518409 106.57914110653107 L 893.3126539364174 106.61669596998493 L 893.088278353447 106.65323837686829 L 892.8631056403007 106.6887646729709 L 892.6371583140623 106.72327130569276 L 892.4104589692761 106.75675482439937 L 892.1830302756877 106.78921188076673 L 891.9548949759768 106.82063922911627 L 891.7260758834835 106.85103372673933 L 891.4965958799262 106.8803923342115 L 891.2664779131142 106.90871211569649 L 891.0357449946521 106.93599023923973 L 890.8044201976397 106.96222397705162 L 890.5725266543639 106.98741070578025 L 890.3400875539858 107.0115479067737 L 890.1071261402217 107.03463316633201 L 889.8736657090187 107.05666417594847 L 889.6397296062257 107.07763873254045 L 889.4053412252578 107.09755473866979 L 889.1705240047578 107.11641020275246 L 888.9353014262522 107.13420323925777 L 888.6996970118025 107.1509320688969 L 888.4637343216542 107.16659501880085 L 888.2274369518796 107.18119052268763 L 887.9908285320186 107.19471712101905 L 887.753932722716 107.20717346114655 L 887.5167732133555 107.21855829744648 L 887.2793737196903 107.22887049144471 L 887.0417579814718 107.23810901193042 L 886.8039497600762 107.24627293505928 L 886.5659728361271 107.25336144444577 L 886.3278510071187 107.25937383124486 L 886.0896080850356 107.26430949422287 L 885.8512678939712 107.26816793981763 L 885.6128542677462 107.27094878218779 L 885.3743910475245 107.27265174325143 L 885.1359020794293 107.27327665271386 L 884.8974112121588 107.27282344808465 L 884.6589422946009 107.27129217468391 L 884.4205191734487 107.26868298563768 L 884.1821656908157 107.2649961418627 L 883.9439056818513 107.26023201204026 L 883.7057629723581 107.2543910725794 L 883.4677613764085 107.24747390756917 L 883.2299246939637 107.23948120872033 L 882.9922767084937 107.23041377529609 L 882.7548411845992 107.22027251403225 L 882.5176418656345 107.20905843904646 L 882.280702471334 107.1967726717369 L 882.0440466954398 107.18341644067004 L 881.8076982033319 107.16899108145788 L 881.5716806296629 107.15349803662431 L 881.3360175759933 107.1369388554609 L 881.1007326084322 107.11931519387196 L 880.8658492552802 107.10062881420897 L 880.6313910046769 107.08088158509435 L 880.397381302252 107.0600754812345 L 880.1638435487806 107.03821258322252 L 879.9308010978438 107.01529507732995 L 879.698277253492 106.99132525528832 L 879.4662952679162 106.96630551405984 L 879.2348783391216 106.94023835559778 L 879.004049608608 106.91312638659626 L 878.7738321590565 106.88497231822961 L 878.5442490120199 106.85577896588119 L 878.3153231256216 106.8255492488619 L 878.0870773922596 106.79428619011826 L 877.859534636317 106.76199291593008 L 877.6327176118797 106.72867265559789 L 877.4066490004612 106.69432874111995 L 877.1813514087343 106.65896460685907 L 876.9568473662702 106.62258378919921 L 876.7331593232863 106.58518992619184 L 876.5103096484004 106.5467867571921 L 876.2883206263942 106.50737812248485 L 876.0672144559852 106.46696796290075 L 875.8470132476058 106.42556031942208 L 875.6277390211936 106.38315933277867 L 875.4094137039884 106.33976924303387 L 875.19205912834 106.29539438916049 L 874.975697029525 106.25003920860692 L 874.7603490435727 106.20370823685344 L 874.5460367051024 106.15640610695861 L 874.3327814451693 106.108137549096 L 874.1206045891219 106.05890739008117 L 873.9095273544685 106.00872055288902 L 873.6995708487572 105.9575820561614 L 873.4907560674633 105.90549701370541 L 873.283103891891 105.85247063398188 L 873.0766350870848 105.79850821958458 L 872.8713702997532 105.74361516670999 L 872.6673300562037 105.68779696461766 L 872.4645347602907 105.63105919508126 L 872.2630046913749 105.5734075318305 L 872.0627600022952 105.51484773998365 L 871.8638207173536 105.45538567547108 L 871.6662067303129 105.3950272844497 L 871.469937802407 105.33377860270829 L 871.2750335603652 105.27164575506403 L 871.0815134944493 105.20863495474987 L 870.8893969565045 105.14475250279335 L 870.6987031580247 105.08000478738643 L 870.5094511682307 105.01439828324668 L 870.3216599121638 104.94793955096986 L 870.1353481687931 104.8806352363738 L 869.9505345691377 104.8124920698339 L 869.7672375944037 104.74351686560999 L 869.5854755741354 104.67371652116503 L 869.405266684384 104.6030980164753 L 869.2266289458877 104.53166841333243 L 869.0495802222717 104.4594348546372 L 868.8741382182609 104.38640456368528 L 868.7003204779095 104.31258484344491 L 868.5281443828466 104.2379830758266 L 868.3576271505382 104.16260672094495 L 868.1887858325656 104.08646331637262 L 868.0216373129197 104.00956047638662 L 867.8561983063133 103.93190589120688 L 867.6924853565091 103.85350732622719 L 867.5305148346658 103.77437262123871 L 867.3703029377006 103.694509689646 L 867.2118656866694 103.61392651767568 L 867.0552189251656 103.53263116357778 L 866.9003783177347 103.45063175681996 L 866.7473593483085 103.36793649727457 L 866.5961773186561 103.28455365439865 L 866.4468473468548 103.20049156640701 L 866.2993843657773 103.1157586394384 L 866.1538031215988 103.03036334671489 L 866.0101181723223 102.94431422769459 L 865.8683438863231 102.85761988721772 L 865.7284944409117 102.77028899464605 L 865.590583820916 102.68233028299609 L 865.4546258172829 102.5937525480657 L 865.3206340256999 102.50456464755453 L 865.1886218452341 102.41477550017834 L 865.0586024769938 102.32439408477703 L 864.9305889228073 102.23342943941684 L 864.8045939839234 102.14189066048647 L 864.6806302597311 102.04978690178756 L 864.5587101464994 101.95712737361922 L 864.438845836138 101.86392134185704 L 864.321049314978 101.77017812702654 L 864.2053323625736 101.67590710337106 L 864.0917065505233 101.58111769791444 L 863.980183241314 101.48581938951821 L 863.8707735871833 101.39002170793381 L 863.7634885290056 101.29373423284954 L 863.6583387951973 101.19696659293271 L 863.5553349006443 101.09972846486664 L 863.45448714565 101.00202957238312 L 863.3558056149059 100.90387968528998 L 863.259300176483 100.80528861849413 L 863.1649804808445 100.70626623102011 L 863.0728559598815 100.60682242502413 L 862.9829358259693 100.50696714480392 L 862.8952290710464 100.40671037580431 L 862.8097444657151 100.30606214361863 L 862.7264905583648 100.20503251298624 L 862.6454756743168 100.103631586786 L 862.566707914992 100.00186950502604 L 862.4901951571007 99.89975644382972 L 862.4159450518549 99.79730261441809 L 862.3439650242034 99.69451826208869 L 862.2742622720887 99.59141366519111 L 862.2068437657282 99.48799913409913 L 862.1417162469162 99.38428501017967 L 862.0788862283503 99.28028166475868 L 862.0183599929801 99.17599949808405 L 861.9601435933786 99.07144893828554 L 861.9042428511374 98.96664044033201 L 861.8506633562839 98.86158448498593 L 861.7994104667231 98.75629157775525 L 861.7504893077013 98.65077224784297 L 861.7039047712934 98.54503704709414 L 861.6596615159145 98.43909654894075 L 861.6177639658531 98.33296134734431 L 861.5782163108294 98.22664205573652 L 861.5410225055757 98.12014930595798 L 861.5061862694419 98.01349374719489 L 861.4737110860221 97.90668604491427 L 861.4436002028082 97.79973687979731 L 861.4158566308629 97.69265694667143 L 861.3904831445205 97.58545695344071 L 861.3674822811086 97.47814762001512 L 861.3468563406941 97.37073967723859 L 861.328607385854 97.26324386581588 L 861.3127372414685 97.15567093523856 L 861.299247494539 97.04803164271006 L 861.2881394940288 96.94033675206991 L 861.2794143507288 96.83259703271744 L 861.2730729371458 96.7248232585348 L 861.2691158874162 96.6170262068096 L 861.2675435972415 96.50921665715717" stroke-miterlimit="10" stroke-width="2.7769845610000004" stroke-dasharray=""/></g><g><text fill="black" stroke="none" font-family="sans-serif" font-size="11pt" font-style="normal" font-weight="normal" text-decoration="normal" x="853.7389652214192" y="124.80095321200001" text-anchor="start" dominant-baseline="alphabetic" xml:space="preserve">Database</text></g></g><g><path fill="white" stroke="black" paint-order="fill stroke markers" d=" M 375.40098823333335 183.607685092 L 391.73619153333334 183.607685092 L 391.73619153333334 791.2772478519998 L 375.40098823333335 791.2772478519998 L 375.40098823333335 183.607685092" stroke-miterlimit="10" stroke-width="1.3612669416666667" stroke-dasharray=""/><path fill="white" stroke="black" paint-order="fill stroke markers" d=" M 620.2502248776041 320.823392812 L 636.5854281776042 320.823392812 L 636.5854281776042 745.5386786119999 L 620.2502248776041 745.5386786119999 L 620.2502248776041 320.823392812" stroke-miterlimit="10" stroke-width="1.3612669416666667" stroke-dasharray=""/><path fill="white" stroke="black" paint-order="fill stroke markers" d=" M 748.5997666976562 366.561962052 L 764.9349699976563 366.561962052 L 764.9349699976563 503.777669772 L 748.5997666976562 503.777669772 L 748.5997666976562 366.561962052" stroke-miterlimit="10" stroke-width="1.3612669416666667" stroke-dasharray=""/><path fill="white" stroke="black" paint-order="fill stroke markers" d=" M 876.9493085177082 412.300531292 L 893.2845118177083 412.300531292 L 893.2845118177083 458.039100532 L 876.9493085177082 458.039100532 L 876.9493085177082 412.300531292" stroke-miterlimit="10" stroke-width="1.3612669416666667" stroke-dasharray=""/><g><g><rect fill="white" stroke="none" x="92.83840542166668" y="162.371920802" width="263.23259224" height="21.23576429"/></g><text fill="black" stroke="none" font-family="sans-serif" font-size="11pt" font-style="normal" font-weight="normal" text-decoration="normal" x="95.28868591666668" y="177.07360377199998" text-anchor="start" dominant-baseline="alphabetic" xml:space="preserve">Choose three-dot button in specific post</text></g><g><path fill="none" stroke="black" paint-order="fill stroke markers" d=" M 73.50841485 183.607685092 L 361.9516708496667 183.607685092" stroke-miterlimit="10" stroke-width="1.3612669416666667" stroke-dasharray=""/><g transform="translate(375.40098823333335,183.607685092) translate(-375.40098823333335,-183.607685092)"><path fill="black" stroke="none" paint-order="stroke fill markers" d=" M 361.7883188166667 176.80135038366666 L 375.40098823333335 183.607685092 L 361.7883188166667 190.41401980033334 Z"/></g></g><g><g><rect fill="white" stroke="none" x="109.96079616873699" y="208.110490042" width="228.98781074585938" height="21.23576429"/></g><text fill="black" stroke="none" font-family="sans-serif" font-size="11pt" font-style="normal" font-weight="normal" text-decoration="normal" x="112.41107666373699" y="222.812173012" text-anchor="start" dominant-baseline="alphabetic" xml:space="preserve">Show a list of actions with the post</text></g><g><path fill="none" stroke="black" paint-order="fill stroke markers" d=" M 375.40098823333335 229.346254332 L 86.95773223366666 229.346254332" stroke-miterlimit="10" stroke-width="1.3612669416666667" stroke-dasharray="6.53408132"/><g transform="translate(73.50841485,229.346254332) translate(-73.50841485,-229.346254332)"><path fill="black" stroke="none" paint-order="stroke fill markers" d=" M 87.12108426666666 222.53991962366666 L 73.50841485 229.346254332 L 87.12108426666666 236.15258904033334 Z"/></g></g><g><g><rect fill="white" stroke="none" x="169.86056881277997" y="253.849059282" width="109.18826545777344" height="21.23576429"/></g><text fill="black" stroke="none" font-family="sans-serif" font-size="11pt" font-style="normal" font-weight="normal" text-decoration="normal" x="172.31084930777996" y="268.550742252" text-anchor="start" dominant-baseline="alphabetic" xml:space="preserve">Click Post detail</text></g><g><path fill="none" stroke="black" paint-order="fill stroke markers" d=" M 73.50841485 275.084823572 L 361.9516708496667 275.084823572" stroke-miterlimit="10" stroke-width="1.3612669416666667" stroke-dasharray=""/><g transform="translate(375.40098823333335,275.084823572) translate(-375.40098823333335,-275.084823572)"><path fill="black" stroke="none" paint-order="stroke fill markers" d=" M 361.7883188166667 268.27848886366667 L 375.40098823333335 275.084823572 L 361.7883188166667 281.89115828033334 Z"/></g></g><g><g><rect fill="white" stroke="none" x="447.30814835255853" y="299.587628522" width="117.37011970582031" height="21.23576429"/></g><text fill="black" stroke="none" font-family="sans-serif" font-size="11pt" font-style="normal" font-weight="normal" text-decoration="normal" x="449.75842884755855" y="314.28931149199997" text-anchor="start" dominant-baseline="alphabetic" xml:space="preserve">Get: /api/post/{id}</text></g><g><path fill="none" stroke="black" paint-order="fill stroke markers" d=" M 391.73619153333334 320.823392812 L 606.8009074939374 320.823392812" stroke-miterlimit="10" stroke-width="1.3612669416666667" stroke-dasharray=""/><g transform="translate(620.2502248776041,320.823392812) translate(-620.2502248776041,-320.823392812)"><path fill="black" stroke="none" paint-order="stroke fill markers" d=" M 606.6375554609374 314.01705810366667 L 620.2502248776041 320.823392812 L 606.6375554609374 327.62972752033335 Z"/></g></g><g><g><rect fill="white" stroke="none" x="669.3656674675325" y="345.326197762" width="46.453859940195315" height="21.23576429"/></g><text fill="black" stroke="none" font-family="sans-serif" font-size="11pt" font-style="normal" font-weight="normal" text-decoration="normal" x="671.8159479625325" y="360.02788073199997" text-anchor="start" dominant-baseline="alphabetic" xml:space="preserve">get(id)</text></g><g><path fill="none" stroke="black" paint-order="fill stroke markers" d=" M 636.5854281776042 366.561962052 L 735.1504493139895 366.561962052" stroke-miterlimit="10" stroke-width="1.3612669416666667" stroke-dasharray=""/><g transform="translate(748.5997666976562,366.561962052) translate(-748.5997666976562,-366.561962052)"><path fill="black" stroke="none" paint-order="stroke fill markers" d=" M 734.9870972809895 359.7556273436667 L 748.5997666976562 366.561962052 L 734.9870972809895 373.36829676033335 Z"/></g></g><g><g><rect fill="white" stroke="none" x="797.7152092875846" y="391.064767002" width="46.453859940195315" height="21.23576429"/></g><text fill="black" stroke="none" font-family="sans-serif" font-size="11pt" font-style="normal" font-weight="normal" text-decoration="normal" x="800.1654897825846" y="405.766449972" text-anchor="start" dominant-baseline="alphabetic" xml:space="preserve">get(id)</text></g><g><path fill="none" stroke="black" paint-order="fill stroke markers" d=" M 764.9349699976563 412.300531292 L 863.4999911340416 412.300531292" stroke-miterlimit="10" stroke-width="1.3612669416666667" stroke-dasharray=""/><g transform="translate(876.9493085177082,412.300531292) translate(-876.9493085177082,-412.300531292)"><path fill="black" stroke="none" paint-order="stroke fill markers" d=" M 863.3366391010416 405.4941965836667 L 876.9493085177082 412.300531292 L 863.3366391010416 419.10686600033335 Z"/></g></g><g><g><rect fill="white" stroke="none" x="784.2649605693229" y="436.803336242" width="73.35435737671875" height="21.23576429"/></g><text fill="black" stroke="none" font-family="sans-serif" font-size="11pt" font-style="normal" font-weight="normal" text-decoration="normal" x="786.7152410643229" y="451.505019212" text-anchor="start" dominant-baseline="alphabetic" xml:space="preserve">Post value</text></g><g><path fill="none" stroke="black" paint-order="fill stroke markers" d=" M 876.9493085177082 458.039100532 L 778.3842873813229 458.039100532" stroke-miterlimit="10" stroke-width="1.3612669416666667" stroke-dasharray="6.53408132"/><g transform="translate(764.9349699976563,458.039100532) translate(-764.9349699976563,-458.039100532)"><path fill="black" stroke="none" paint-order="stroke fill markers" d=" M 778.5476394143229 451.2327658236667 L 764.9349699976563 458.039100532 L 778.5476394143229 464.84543524033336 Z"/></g></g><g><g><rect fill="white" stroke="none" x="655.9154187492708" y="482.541905482" width="73.35435737671875" height="21.23576429"/></g><text fill="black" stroke="none" font-family="sans-serif" font-size="11pt" font-style="normal" font-weight="normal" text-decoration="normal" x="658.3656992442708" y="497.243588452" text-anchor="start" dominant-baseline="alphabetic" xml:space="preserve">Post value</text></g><g><path fill="none" stroke="black" paint-order="fill stroke markers" d=" M 748.5997666976562 503.777669772 L 650.0347455612708 503.777669772" stroke-miterlimit="10" stroke-width="1.3612669416666667" stroke-dasharray="6.53408132"/><g transform="translate(636.5854281776042,503.777669772) translate(-636.5854281776042,-503.777669772)"><path fill="black" stroke="none" paint-order="stroke fill markers" d=" M 650.1980975942708 496.9713350636667 L 636.5854281776042 503.777669772 L 650.1980975942708 510.58400448033336 Z"/></g></g><g><g><rect fill="white" stroke="none" x="411.06618210499994" y="572.385523632" width="189.8540522009375" height="21.23576429"/></g><text fill="red" stroke="none" font-family="sans-serif" font-size="11pt" font-style="normal" font-weight="normal" text-decoration="normal" x="413.51646259999995" y="587.0872066019999" text-anchor="start" dominant-baseline="alphabetic" xml:space="preserve">404 NOT FOUND: not found</text></g><g><path fill="none" stroke="black" paint-order="fill stroke markers" d=" M 620.2502248776041 593.621287922 L 405.185508917 593.621287922" stroke-miterlimit="10" stroke-width="1.3612669416666667" stroke-dasharray="6.53408132"/><g transform="translate(391.73619153333334,593.621287922) translate(-391.73619153333334,-593.621287922)"><path fill="black" stroke="none" paint-order="stroke fill markers" d=" M 405.34886095 586.8149532136666 L 391.73619153333334 593.621287922 L 405.34886095 600.4276226303333 Z"/></g></g><g><g><rect fill="white" stroke="none" x="123.40388088553387" y="618.1240928719999" width="202.10164131226563" height="21.23576429"/></g><text fill="black" stroke="none" font-family="sans-serif" font-size="11pt" font-style="normal" font-weight="normal" text-decoration="normal" x="125.85416138053387" y="632.8257758419999" text-anchor="start" dominant-baseline="alphabetic" xml:space="preserve">Display 404 Not Found screen</text></g><g><path fill="none" stroke="black" paint-order="fill stroke markers" d=" M 375.40098823333335 639.3598571619999 L 86.95773223366666 639.3598571619999" stroke-miterlimit="10" stroke-width="1.3612669416666667" stroke-dasharray="6.53408132"/><g transform="translate(73.50841485,639.3598571619999) translate(-73.50841485,-639.3598571619999)"><path fill="black" stroke="none" paint-order="stroke fill markers" d=" M 87.12108426666666 632.5535224536666 L 73.50841485 639.3598571619999 L 87.12108426666666 646.1661918703333 Z"/></g></g><g><g><rect fill="white" stroke="none" x="414.3053102177929" y="707.9677110219999" width="54.61422981324219" height="21.23576429"/></g><g><rect fill="white" stroke="none" x="414.3053102177929" y="724.3029143219999" width="183.37579597535156" height="21.23576429"/></g><text fill="green" stroke="none" font-family="sans-serif" font-size="11pt" font-style="normal" font-weight="normal" text-decoration="normal" x="416.7555907127929" y="722.6693939919999" text-anchor="start" dominant-baseline="alphabetic" xml:space="preserve">200 OK</text><text fill="green" stroke="none" font-family="sans-serif" font-size="11pt" font-style="normal" font-weight="normal" text-decoration="normal" x="416.7555907127929" y="739.0045972919999" text-anchor="start" dominant-baseline="alphabetic" xml:space="preserve">Response body: Post value</text></g><g><path fill="none" stroke="black" paint-order="fill stroke markers" d=" M 620.2502248776041 745.5386786119999 L 405.185508917 745.5386786119999" stroke-miterlimit="10" stroke-width="1.3612669416666667" stroke-dasharray="6.53408132"/><g transform="translate(391.73619153333334,745.5386786119999) translate(-391.73619153333334,-745.5386786119999)"><path fill="black" stroke="none" paint-order="stroke fill markers" d=" M 405.34886095 738.7323439036666 L 391.73619153333334 745.5386786119999 L 405.34886095 752.3450133203332 Z"/></g></g><g><g><rect fill="white" stroke="none" x="144.17696743338544" y="770.0414835619998" width="160.5554682165625" height="21.23576429"/></g><text fill="black" stroke="none" font-family="sans-serif" font-size="11pt" font-style="normal" font-weight="normal" text-decoration="normal" x="146.62724792838543" y="784.7431665319998" text-anchor="start" dominant-baseline="alphabetic" xml:space="preserve">Display post detail page</text></g><g><path fill="none" stroke="black" paint-order="fill stroke markers" d=" M 375.40098823333335 791.2772478519998 L 86.95773223366666 791.2772478519998" stroke-miterlimit="10" stroke-width="1.3612669416666667" stroke-dasharray="6.53408132"/><g transform="translate(73.50841485,791.2772478519998) translate(-73.50841485,-791.2772478519998)"><path fill="black" stroke="none" paint-order="stroke fill markers" d=" M 87.12108426666666 784.4709131436665 L 73.50841485 791.2772478519998 L 87.12108426666666 798.0835825603332 Z"/></g></g><g><g/><path fill="none" stroke="black" paint-order="fill stroke markers" d=" M 16.335203299999996 528.280474722 L 685.5910380776041 528.280474722 L 685.5910380776041 815.7800528019999 L 16.335203299999996 815.7800528019999 L 16.335203299999996 528.280474722 Z" stroke-miterlimit="10" stroke-width="2.3336004714285714" stroke-dasharray=""/><path fill="white" stroke="black" paint-order="fill stroke markers" d=" M 16.335203299999996 528.280474722 L 16.335203299999996 547.882718682 L 62.69440689707031 547.882718682 L 72.49552887707031 538.081596702 L 72.49552887707031 528.280474722 L 16.335203299999996 528.280474722" stroke-miterlimit="10" stroke-width="2.3336004714285714" stroke-dasharray=""/><text fill="black" stroke="none" font-family="sans-serif" font-size="8.8pt" font-style="normal" font-weight="bold" text-decoration="normal" x="32.67040659999999" y="541.348637362" text-anchor="start" dominant-baseline="alphabetic" xml:space="preserve">alt</text><g><rect fill="white" stroke="none" x="86.38045168207032" y="529.587290986" width="99.40481819214844" height="16.988611432000003"/></g><text fill="black" stroke="none" font-family="sans-serif" font-size="8.8pt" font-style="normal" font-weight="bold" text-decoration="normal" x="88.83073217707032" y="541.348637362" text-anchor="start" dominant-baseline="alphabetic" xml:space="preserve">[If Post is empty]</text><g><path fill="none" stroke="black" paint-order="fill stroke markers" d=" M 16.335203299999996 663.8626621119998 L 685.5910380776041 663.8626621119998" stroke-miterlimit="10" stroke-width="2.3336004714285714" stroke-dasharray="4.083800825"/></g><g/><g><rect fill="white" stroke="none" x="86.38045168207032" y="665.1694783759998" width="36.84300483765625" height="16.988611432000003"/></g><text fill="black" stroke="none" font-family="sans-serif" font-size="8.8pt" font-style="normal" font-weight="bold" text-decoration="normal" x="88.83073217707032" y="676.9308247519998" text-anchor="start" dominant-baseline="alphabetic" xml:space="preserve">[Else]</text></g><g/></g></g></svg>