<svg version="1.1" xmlns="http://www.w3.org/2000/svg" xmlns:xlink="http://www.w3.org/1999/xlink" width="1122" height="948"><desc>title%20Get%20all%20post%20in%20Group%0A%0Aactor%20%23green%3A0.5%20%22Workspace%20User%22%20as%20w%0Aboundary%20%22Group%20newsfeed%22%20as%20f%0Acontrol%20%22Group%20Controller%22%20as%20gc%0Aparticipant%20%22Post%20Service%22%20as%20gs%0Aparticipant%20%22Group%20Service%22%20as%20gs1%0A%0Adatabase%20%23blue%3A1%20%22Database%22%20as%20db%0A%0Aw-%3Ef%3AGo%20to%20group's%20newsfeed%20page%0Aactivate%20f%0A%0Af-%3Egc%3AGET%3A%20%2Fapi%2Fgroup%2F%7Bid%7D%2Fposts%0A%0Aactivate%20gc%0Agc-%3Egs1%3AisExist(id)%0Aactivate%20gs1%0Ags1-%3Edb%3AexistsById(id)%0Aactivate%20db%0Ags1%3C--db%3A%20Boolean%20value%0Adeactivate%20db%0Agc%3C--gs1%3ABoolean%20value%0Adeactivate%20gs1%0A%0A%0Aalt%20If%20GroupID%20does%20not%20exist%0A%0Af%3C--gc%3A%3Ccolor%3A%23red%3E404%20NOT%20FOUND%3C%2Fcolor%3E%0Aw%3C--f%3A%20Display%20404%20Not%20Found%20screen%0A%0Aelse%20Else%0Agc-%3Egs%3A%20getAllPostInGroup(id)%0Aactivate%20gs%0Ags-%3Edb%3A%20getAllPostInGroup(id)%0Aactivate%20db%0Ags%3C--db%3APost%20list%0Adeactivate%20db%0Agc%3C--gs%3APost%20list%0Adeactivate%20gs%0Aactivate%20gs%0Adeactivate%20gs%0A%0A%0Af%3C--gc%3A%3Ccolor%3A%23green%3E200%20OK%3A%20Post%20list%3C%2Fcolor%3E%0Adeactivate%20gc%0A%0Aw%3C--f%3A%20Display%20group's%20newsfeed%0Adeactivate%20f%0Aend</desc><defs/><g><g/><g/><g/><g/><g/><g/><g/><g/><g/><g/><g/><g/><g/><g/><g/><g/><g/><g/><g/><g/><g><rect fill="white" stroke="none" x="0" y="0" width="1122" height="948"/></g><g><text fill="black" stroke="none" font-family="sans-serif" font-size="16.5pt" font-style="normal" font-weight="normal" text-decoration="normal" x="460.5642307486803" y="24.50280495" text-anchor="start" dominant-baseline="alphabetic" xml:space="preserve">Get all post in Group</text></g><g/><g><path fill="none" stroke="black" paint-order="fill stroke markers" d=" M 73.50841485 129.701514202 L 73.50841485 948.0951995319997" stroke-miterlimit="10" stroke-width="1.3612669416666667" stroke-dasharray="12.565541,5.445067766666667"/><path fill="none" stroke="black" paint-order="fill stroke markers" d=" M 322.4376389555989 129.701514202 L 322.4376389555989 948.0951995319997" stroke-miterlimit="10" stroke-width="1.3612669416666667" stroke-dasharray="12.565541,5.445067766666667"/><path fill="none" stroke="black" paint-order="fill stroke markers" d=" M 548.5824536027994 129.701514202 L 548.5824536027994 948.0951995319997" stroke-miterlimit="10" stroke-width="1.3612669416666667" stroke-dasharray="12.565541,5.445067766666667"/><path fill="none" stroke="black" paint-order="fill stroke markers" d=" M 748.6284523320312 129.701514202 L 748.6284523320312 948.0951995319997" stroke-miterlimit="10" stroke-width="1.3612669416666667" stroke-dasharray="12.565541,5.445067766666667"/><path fill="none" stroke="black" paint-order="fill stroke markers" d=" M 888.406705667543 129.701514202 L 888.406705667543 948.0951995319997" stroke-miterlimit="10" stroke-width="1.3612669416666667" stroke-dasharray="12.565541,5.445067766666667"/><path fill="none" stroke="black" paint-order="fill stroke markers" d=" M 1041.2229528098605 129.701514202 L 1041.2229528098605 948.0951995319997" stroke-miterlimit="10" stroke-width="1.3612669416666667" stroke-dasharray="12.565541,5.445067766666667"/></g><g><g><path fill="white" stroke="green" paint-order="fill stroke markers" d=" M 82.819480731 60.60360424300001 A 9.311065881 9.311065881 0 1 1 82.81947607546743 60.594293178670846 M 73.50841485 69.91467012400001 L 73.50841485 89.84361815000001 M 61.747068473999995 77.102159576 L 85.26976122599999 77.102159576 M 73.50841485 89.84361815000001 L 61.747068473999995 108.465749912 M 73.50841485 89.84361815000001 L 85.26976122599999 108.465749912" stroke-miterlimit="10" stroke-width="1.3884922805000002" stroke-dasharray=""/></g><g><text fill="black" stroke="none" font-family="sans-serif" font-size="11pt" font-style="normal" font-weight="normal" text-decoration="normal" x="19.467635736230463" y="124.80095321200001" text-anchor="start" dominant-baseline="alphabetic" xml:space="preserve">Workspace User</text></g><g><path fill="white" stroke="black" paint-order="fill stroke markers" d=" M 354.8630175060989 82.819480731 A 24.2577769005 24.2577769005 0 1 1 354.8630053772115 82.79522295814245 M 291.4007526855989 57.17321154999999 L 291.4007526855989 108.465749912 M 290.0122604050989 82.819480731 L 306.3474637050989 82.819480731" stroke-miterlimit="10" stroke-width="2.7769845610000004" stroke-dasharray=""/></g><g><text fill="black" stroke="none" font-family="sans-serif" font-size="11pt" font-style="normal" font-weight="normal" text-decoration="normal" x="268.6509644560872" y="124.80095321200001" text-anchor="start" dominant-baseline="alphabetic" xml:space="preserve">Group newsfeed</text></g><g><path fill="white" stroke="black" paint-order="fill stroke markers" d=" M 572.8402305032994 82.819480731 A 24.2577769005 24.2577769005 0 1 1 572.840218374412 82.79522295814245 M 545.3154129427994 58.561703830499994 L 555.1165349227994 50.39410218049999 M 545.3154129427994 58.561703830499994 L 555.1165349227994 66.72930548049999" stroke-miterlimit="10" stroke-width="2.7769845610000004" stroke-dasharray=""/></g><g><text fill="black" stroke="none" font-family="sans-serif" font-size="11pt" font-style="normal" font-weight="normal" text-decoration="normal" x="494.398508900651" y="124.80095321200001" text-anchor="start" dominant-baseline="alphabetic" xml:space="preserve">Group Controller</text></g><path fill="none" stroke="none"/><g><path fill="white" stroke="black" paint-order="fill stroke markers" d=" M 689.7594701914726 85.75981732500001 L 807.4974344725898 85.75981732500001 L 807.4974344725898 129.701514202 L 689.7594701914726 129.701514202 L 689.7594701914726 85.75981732500001 Z" stroke-miterlimit="10" stroke-width="2.613632528" stroke-dasharray=""/></g><g><text fill="black" stroke="none" font-family="sans-serif" font-size="11pt" font-style="normal" font-weight="normal" text-decoration="normal" x="707.4831657719726" y="113.36631090200002" text-anchor="start" dominant-baseline="alphabetic" xml:space="preserve">Post Service</text></g><path fill="none" stroke="none"/><g><path fill="white" stroke="black" paint-order="fill stroke markers" d=" M 823.8326377725898 85.75981732500001 L 952.9807735624961 85.75981732500001 L 952.9807735624961 129.701514202 L 823.8326377725898 129.701514202 L 823.8326377725898 85.75981732500001 Z" stroke-miterlimit="10" stroke-width="2.613632528" stroke-dasharray=""/></g><g><text fill="black" stroke="none" font-family="sans-serif" font-size="11pt" font-style="normal" font-weight="normal" text-decoration="normal" x="841.5563333530898" y="113.36631090200002" text-anchor="start" dominant-baseline="alphabetic" xml:space="preserve">Group Service</text></g><g><path fill="white" stroke="blue" paint-order="fill stroke markers" d=" M 1017.3735559918606 97.684515734 L 1017.3735559918606 63.380588804000006 L 1065.0723496278606 63.380588804000006 L 1065.0723496278606 97.684515734" stroke-miterlimit="10" stroke-width="2.7769845610000004" stroke-dasharray=""/><path fill="white" stroke="blue" paint-order="fill stroke markers" d=" M 1065.0723496278606 62.1881189631 L 1065.071157167957 62.29592950801663 L 1065.0675799074909 62.403729271968594 L 1065.0616182041854 62.51150747506936 L 1065.0532726542062 62.619253339588404 L 1065.042544092101 62.72695609102909 L 1065.0294335907172 62.834604959206004 L 1065.0139424610938 62.94218917932205 L 1064.9960722523313 63.04969799304486 L 1064.9758247514353 63.15712064958265 L 1064.953201983139 63.2644464067593 L 1064.9282062097006 63.371664532088516 L 1064.9008399306767 63.47876430384712 L 1064.871105882672 63.58573501214718 L 1064.839007039067 63.692565960007016 L 1064.8045466097187 63.79924646442086 L 1064.767728040642 63.90576585742718 L 1064.7285550136628 64.01211348717543 L 1064.687031446051 64.11827871899126 L 1064.643161490129 64.22425093643996 L 1064.5969495328557 64.3300195423881 L 1064.5484001953882 64.43557396006322 L 1064.4975183326203 64.54090363411153 L 1064.4443090326952 64.64599803165338 L 1064.388777616499 64.75084664333659 L 1064.3309296371272 64.85543898438739 L 1064.270770879329 64.95976459565881 L 1064.2083073589301 65.06381304467668 L 1064.1435453222311 65.16757392668278 L 1064.076491245381 65.27103686567541 L 1064.007151833732 65.37419151544687 L 1063.9355340211675 65.47702756061814 L 1063.8616449694089 65.5795347176704 L 1063.7854920672996 65.68170273597339 L 1063.707082930067 65.7835213988104 L 1063.626425398559 65.88498052439998 L 1063.5435275384614 65.98606996691414 L 1063.4583976394915 66.08677961749288 L 1063.3710442145682 66.18709940525505 L 1063.281475998961 66.28701929830548 L 1063.1897019494168 66.38652930473813 L 1063.0957312432645 66.48561947363528 L 1062.999573277496 66.58427989606261 L 1062.9012376678277 66.6825007060601 L 1062.800734247739 66.7802720816286 L 1062.6980730674877 66.87758424571203 L 1062.5932643931067 66.97442746717506 L 1062.4863187053759 67.07079206177627 L 1062.377246698775 67.1666683931365 L 1062.2660592804136 67.2620468737025 L 1062.152767568941 67.35691796570569 L 1062.0373828934341 67.45127218211596 L 1061.919916792264 67.54510008759026 L 1061.8003810119433 67.63839229941624 L 1061.67878750595 67.73113948845047 L 1061.5551484335335 67.82333238005134 L 1061.4294761584981 67.9149617550065 L 1061.3017832479666 68.00601845045483 L 1061.1720824711238 68.09649336080267 L 1061.0403867979387 68.18637743863435 L 1060.9067093978695 68.27566169561702 L 1060.7710636385445 68.36433720339936 L 1060.6334630844267 68.45239509450451 L 1060.4939214954568 68.53982656321674 L 1060.3524528256776 68.62662286646201 L 1060.2090712218378 68.71277532468237 L 1060.0637910219784 68.79827532270376 L 1059.9166267539988 68.88311431059763 L 1059.7675931342026 68.9672838045359 L 1059.6167050658278 69.0507753876393 L 1059.4639776375554 69.13358071081912 L 1059.309426122001 69.21569149361203 L 1059.1530659741875 69.29709952500816 L 1058.9949128299993 69.37779666427225 L 1058.8349825046191 69.45777484175761 L 1058.6732909909458 69.53702605971311 L 1058.5098544579964 69.61554239308303 L 1058.344689249288 69.69331599029945 L 1058.1778118812038 69.77033907406746 L 1058.0092390413413 69.84660394214286 L 1057.838987586844 69.92210296810242 L 1057.667074542716 69.99682860210643 L 1057.493517100118 70.07077337165379 L 1057.3183326146495 70.14392988232913 L 1057.1415386046135 70.21629081854239 L 1056.9631527492634 70.28784894426022 L 1056.7831928870362 70.35859710372968 L 1056.601677013768 70.42852822219379 L 1056.4186232808952 70.49763530659898 L 1056.234049993638 70.5659114462944 L 1056.047975609172 70.63334981372294 L 1055.86041873478 70.69994366510412 L 1055.6713981259934 70.76568634110825 L 1055.4809326847155 70.83057126752253 L 1055.2890414573317 70.89459195590838 L 1055.095743632805 70.95774200425032 L 1054.9010585407564 71.02001509759614 L 1054.7050056495332 71.08140500868842 L 1054.507604564261 71.14190559858717 L 1054.308875024884 71.20151081728383 L 1054.1088369041902 71.26021470430622 L 1053.9075102058252 71.31801138931453 L 1053.704915062291 71.37489509268845 L 1053.5010717329335 71.43086012610503 L 1053.296000601915 71.48590089310757 L 1053.0897221761784 71.54001188966522 L 1052.882257083394 71.59318770472345 L 1052.6736260698983 71.64542302074504 L 1052.4638499986188 71.69671261424193 L 1052.2529498469878 71.7470513562975 L 1052.0409467048448 71.79643421307951 L 1051.8278617723272 71.84485624634341 L 1051.6137163577507 71.89231261392625 L 1051.3985318754785 71.93879857023082 L 1051.1823298437794 71.9843094667002 L 1050.9651318826761 72.02884075228269 L 1050.746959711784 72.07238797388683 L 1050.5278351481386 72.11494677682676 L 1050.3077801040133 72.15651290525764 L 1050.0868165847291 72.19708220260128 L 1049.8649666864542 72.23665061196175 L 1049.6422525939931 72.27521417653107 L 1049.4186965785698 72.31276903998494 L 1049.1943209955991 72.3493114468683 L 1048.9691482824528 72.38483774297092 L 1048.7432009562144 72.41934437569277 L 1048.5165016114283 72.45282789439938 L 1048.2890729178398 72.48528495076673 L 1048.0609376181292 72.51671229911628 L 1047.8321185256357 72.54710679673934 L 1047.6026385220785 72.5764654042115 L 1047.3725205552664 72.60478518569649 L 1047.1417876368043 72.63206330923974 L 1046.910462839792 72.65829704705163 L 1046.6785692965161 72.68348377578025 L 1046.446130196138 72.70762097677371 L 1046.213168782374 72.73070623633201 L 1045.979708351171 72.75273724594847 L 1045.745772248378 72.77371180254045 L 1045.5113838674101 72.79362780866978 L 1045.2765666469102 72.81248327275246 L 1045.0413440684044 72.83027630925778 L 1044.8057396539548 72.84700513889692 L 1044.5697769638066 72.86266808880085 L 1044.3334795940318 72.87726359268764 L 1044.0968711741707 72.89079019101906 L 1043.8599753648682 72.90324653114655 L 1043.6228158555077 72.91463136744649 L 1043.3854163618425 72.9249435614447 L 1043.147800623624 72.93418208193043 L 1042.9099924022285 72.94234600505929 L 1042.6720154782795 72.94943451444577 L 1042.433893649271 72.95544690124485 L 1042.1956507271877 72.96038256422287 L 1041.9573105361235 72.96424100981763 L 1041.7188969098984 72.9670218521878 L 1041.4804336896768 72.96872481325143 L 1041.2419447215816 72.96934972271386 L 1041.0034538543111 72.96889651808466 L 1040.7649849367533 72.96736524468392 L 1040.526561815601 72.96475605563768 L 1040.288208332968 72.96106921186271 L 1040.0499483240037 72.95630508204027 L 1039.8118056145104 72.9504641425794 L 1039.5738040185606 72.94354697756918 L 1039.3359673361158 72.93555427872033 L 1039.0983193506459 72.9264868452961 L 1038.8608838267514 72.91634558403224 L 1038.6236845077867 72.90513150904647 L 1038.3867451134863 72.89284574173689 L 1038.150089337592 72.87948951067006 L 1037.9137408454842 72.86506415145789 L 1037.6777232718152 72.84957110662431 L 1037.4420602181456 72.8330119254609 L 1037.2067752505845 72.81538826387197 L 1036.9718918974324 72.79670188420899 L 1036.7374336468292 72.77695465509434 L 1036.5034239444042 72.7561485512345 L 1036.269886190933 72.73428565322251 L 1036.036843739996 72.71136814732996 L 1035.8043198956443 72.68739832528833 L 1035.5723379100684 72.66237858405984 L 1035.3409209812737 72.63631142559778 L 1035.1100922507603 72.60919945659627 L 1034.8798748012086 72.58104538822961 L 1034.6502916541722 72.55185203588118 L 1034.421365767774 72.5216223188619 L 1034.193120034412 72.49035926011825 L 1033.9655772784693 72.45806598593009 L 1033.738760254032 72.4247457255979 L 1033.5126916426134 72.39040181111994 L 1033.2873940508864 72.35503767685907 L 1033.0628900084225 72.31865685919922 L 1032.8392019654386 72.28126299619186 L 1032.6163522905526 72.24285982719209 L 1032.3943632685466 72.20345119248485 L 1032.1732570981374 72.16304103290075 L 1031.9530558897582 72.12163338942209 L 1031.7337816633458 72.07923240277869 L 1031.5154563461406 72.03584231303388 L 1031.2981017704924 71.99146745916049 L 1031.0817396716773 71.94611227860693 L 1030.866391685725 71.89978130685344 L 1030.6520793472546 71.85247917695861 L 1030.4388240873216 71.80421061909601 L 1030.226647231274 71.75498046008119 L 1030.0155699966208 71.70479362288901 L 1029.8056134909095 71.65365512616141 L 1029.5967987096155 71.60157008370541 L 1029.3891465340432 71.54854370398188 L 1029.182677729237 71.49458128958457 L 1028.9774129419054 71.43968823671 L 1028.7733726983558 71.38387003461766 L 1028.570577402443 71.32713226508127 L 1028.3690473335273 71.26948060183051 L 1028.1688026444474 71.21092080998365 L 1027.969863359506 71.15145874547107 L 1027.7722493724652 71.0911003544497 L 1027.5759804445593 71.0298516727083 L 1027.3810762025175 70.96771882506403 L 1027.1875561366014 70.90470802474988 L 1026.9954395986567 70.84082557279336 L 1026.804745800177 70.77607785738643 L 1026.615493810383 70.71047135324669 L 1026.427702554316 70.64401262096986 L 1026.2413908109454 70.5767083063738 L 1026.05657721129 70.50856513983389 L 1025.873280236556 70.43958993560999 L 1025.6915182162877 70.36978959116503 L 1025.511309326536 70.29917108647531 L 1025.3326715880398 70.22774148333244 L 1025.155622864424 70.1555079246372 L 1024.9801808604132 70.08247763368529 L 1024.8063631200616 70.00865791344492 L 1024.6341870249987 69.9340561458266 L 1024.4636697926906 69.85867979094495 L 1024.2948284747179 69.78253638637263 L 1024.127679955072 69.70563354638664 L 1023.9622409484656 69.62797896120689 L 1023.7985279986614 69.54958039622719 L 1023.6365574768181 69.47044569123871 L 1023.4763455798528 69.39058275964601 L 1023.3179083288217 69.30999958767568 L 1023.1612615673179 69.22870423357777 L 1023.006420959887 69.14670482681996 L 1022.8534019904607 69.06400956727457 L 1022.7022199608084 68.98062672439866 L 1022.5528899890071 68.89656463640702 L 1022.4054270079296 68.8118317094384 L 1022.2598457637511 68.72643641671489 L 1022.1161608144746 68.6403872976946 L 1021.9743865284754 68.55369295721772 L 1021.834537083064 68.46636206464606 L 1021.6966264630682 68.37840335299609 L 1021.5606684594352 68.28982561806569 L 1021.4266766678521 68.20063771755453 L 1021.2946644873864 68.11084857017835 L 1021.164645119146 68.02046715477704 L 1021.0366315649595 67.92950250941684 L 1020.9106366260756 67.83796373048648 L 1020.7866729018833 67.74585997178757 L 1020.6647527886516 67.65320044361923 L 1020.5448884782902 67.55999441185705 L 1020.4270919571303 67.46625119702654 L 1020.3113750047258 67.37198017337107 L 1020.1977491926756 67.27719076791445 L 1020.0862258834662 67.18189245951821 L 1019.9768162293356 67.08609477793381 L 1019.8695311711579 66.98980730284956 L 1019.7643814373496 66.89303966293272 L 1019.6613775427966 66.79580153486665 L 1019.5605297878022 66.69810264238313 L 1019.4618482570581 66.59995275528999 L 1019.3653428186352 66.50136168849414 L 1019.2710231229968 66.40233930102012 L 1019.1788986020338 66.30289549502413 L 1019.0889784681216 66.20304021480393 L 1019.0012717131987 66.1027834458043 L 1018.9157871078673 66.00213521361863 L 1018.8325332005171 65.90110558298623 L 1018.7515183164691 65.799704656786 L 1018.6727505571442 65.69794257502603 L 1018.596237799253 65.59582951382973 L 1018.5219876940072 65.4933756844181 L 1018.4500076663556 65.3905913320887 L 1018.3803049142409 65.28748673519112 L 1018.3128864078805 65.18407220409914 L 1018.2477588890685 65.08035808017966 L 1018.1849288705025 64.97635473475869 L 1018.1244026351324 64.87207256808405 L 1018.0661862355308 64.76752200828555 L 1018.0102854932896 64.66271351033203 L 1017.9567059984362 64.55765755498592 L 1017.9054531088753 64.45236464775525 L 1017.8565319498535 64.34684531784296 L 1017.8099474134457 64.24111011709415 L 1017.7657041580668 64.13516961894075 L 1017.7238066080054 64.0290344173443 L 1017.6842589529816 63.92271512573653 L 1017.647065147728 63.81622237595798 L 1017.6122289115941 63.70956681719489 L 1017.5797537281744 63.602759114914264 L 1017.5496428449604 63.49580994979732 L 1017.5218992730152 63.38873001667144 L 1017.4965257866728 63.28153002344071 L 1017.4735249232608 63.17422069001512 L 1017.4528989828464 63.066812747238586 L 1017.4346500280062 62.959316935815885 L 1017.4187798836208 62.85174400523857 L 1017.4052901366913 62.74410471271006 L 1017.394182136181 62.636409822069915 L 1017.385456992881 62.52867010271744 L 1017.3791155792981 62.4208963285348 L 1017.3751585295685 62.313099276809595 L 1017.3735862393937 62.20528972715717 L 1017.3743988660017 62.09747846044265 L 1017.3775963281303 61.98967625770286 L 1017.3831783060359 61.88189389906824 L 1017.3911442415256 61.77414216268484 L 1017.4014933380123 61.66643182363649 L 1017.4142245605951 61.558773652867366 L 1017.4293366361622 61.4511784161048 L 1017.4468280535189 61.34365687278283 L 1017.4666970635376 61.236219774966166 L 1017.4889416793343 61.12887786627507 L 1017.5135596764658 61.02164188081096 L 1017.5405485931527 60.91452254208302 L 1017.5699057305261 60.807530561935856 L 1017.6016281528966 60.70067663947832 L 1017.6357126880486 60.593971460013606 L 1017.6721559275566 60.487425693970756 L 1017.7109542271273 60.381049995837586 L 1017.752103706963 60.27485500309525 L 1017.79560025215 60.16885133515453 L 1017.8414395130701 60.06304959229389 L 1017.8896169058353 59.95746035459945 L 1017.9401276127466 59.852094180906974 L 1017.9929665827751 59.746961607746044 L 1018.0481285320683 59.64207314828636 L 1018.1056079444769 59.537439291286454 L 1018.1653990721077 59.43307050004484 L 1018.2274959358975 59.32897721135367 L 1018.2918923262121 59.22516983445505 L 1018.3585818034659 59.12165875000019 L 1018.4275576987667 59.01845430901127 L 1018.4988131145825 58.91556683184637 L 1018.5723409254311 58.81300660716748 L 1018.6481337785928 58.7107838909116 L 1018.7261840948452 58.60890890526517 L 1018.8064840692219 58.507391837641855 L 1018.8890256717923 58.406242839663825 L 1018.973800648465 58.30547202614659 L 1019.060800521813 58.205089474087515 L 1019.1500165919214 58.105105221658164 L 1019.2414399372575 58.00552926720046 L 1019.335061415563 57.90637156822687 L 1019.430871664768 57.807642040424646 L 1019.5288611039276 57.709350556664305 L 1019.6290199341795 57.61150694601232 L 1019.731338139724 57.514120992748204 L 1019.8358054888258 57.417202435386145 L 1019.9424115348373 57.320760965701105 L 1020.0511456172426 57.224806227759686 L 1020.1619968627239 57.12934781695572 L 1020.2749541862493 57.03439527905074 L 1020.3900062921804 56.93995810921942 L 1020.5071416754025 56.84604575110002 L 1020.6263486224749 56.75266759585011 L 1020.7476152128023 56.65983298120741 L 1020.8709293198267 56.567551190555996 L 1020.9962786122402 56.47583145199805 L 1021.1236505552179 56.384682937430995 L 1021.2530324116717 56.29411476163032 L 1021.3844112435238 56.20413598133814 L 1021.5177739130004 56.1147555943575 L 1021.6531070839458 56.02598253865261 L 1021.7903972231557 55.937825691455075 L 1021.9296306017304 55.85029386837614 L 1022.0707932964483 55.763395822525176 L 1022.2138711911574 55.677140243634355 L 1022.3588499781875 55.591535757189675 L 1022.5057151597808 55.50659092356846 L 1022.6544520495415 55.42231423718327 L 1022.8050457739045 55.33871412563253 L 1022.9574812736229 55.25579894885771 L 1023.1117433052736 55.1735769983074 L 1023.2678164427823 55.092056496108135 L 1023.4256850789651 55.01124559424221 L 1023.5853334270901 54.93115237373246 L 1023.7467455224552 54.851784843834196 L 1023.9099052239857 54.77315094123426 L 1024.0747962158473 54.6952585292574 L 1024.2414020090782 54.61811539707989 L 1024.409705943238 54.54172925895067 L 1024.5796911880732 54.46610775341989 L 1024.7513407452016 54.391258442575094 L 1024.9246374498098 54.317188811284986 L 1025.0995639723724 54.24390626645098 L 1025.2761028203824 54.171418136266475 L 1025.4542363401026 54.09973166948409 L 1025.633946718329 54.028854034690774 L 1025.815215984174 53.95879231959093 L 1025.9980260108618 53.88955353029769 L 1026.182358517542 53.82114459063227 L 1026.3681950711177 53.753572341431656 L 1026.5555170880882 53.68684353986444 L 1026.7443058364083 53.62096485875517 L 1026.93454243736 53.55594288591707 L 1027.1262078674422 53.49178412349323 L 1027.3192829602713 53.42849498730643 L 1027.513748408499 53.366081806217544 L 1027.7095847657424 53.304550821492676 L 1027.9067724485294 53.24390818617902 L 1028.1052917382556 53.18415996448957 L 1028.3051227831575 53.12531213119671 L 1028.5062456002975 53.067370571034715 L 1028.708640077561 53.01034107811134 L 1028.9122859756692 52.95422935532834 L 1029.117162930202 52.89904101381123 L 1029.3232504536347 52.84478157234818 L 1029.5305279373868 52.79145645683812 L 1029.7389746538822 52.73907099974815 L 1029.9485697586233 52.687630439580346 L 1030.1592922922744 52.637139920347835 L 1030.3711211827574 52.58760449106049 L 1030.58403524736 52.53902910521993 L 1030.798013194853 52.49141862032429 L 1031.0130336276202 52.444777797382365 L 1031.2290750437974 52.399111300437596 L 1031.446115839423 52.354423696101605 L 1031.6641343105982 52.3107194530976 L 1031.883108655658 52.26800294181345 L 1032.1030169773496 52.2262784338647 L 1032.3238372850249 52.18555010166736 L 1032.5455474968364 52.14582201802072 L 1032.7681254419483 52.10709815570004 L 1032.9915488627514 52.06938238705927 L 1033.2157954170896 52.032678483643856 L 1033.4408426804946 51.996990115813546 L 1033.6666681484273 51.96232085237539 L 1033.8932492385293 51.928674160226834 L 1034.1205632928804 51.89605340400906 L 1034.3485875802646 51.8644618457705 L 1034.577299298443 51.833902644640645 L 1034.8066755764346 51.80437885651416 L 1035.0366934768026 51.775893433745246 L 1035.2673299979488 51.74844922485244 L 1035.4985620764132 51.722048974233765 L 1035.7303665891807 51.69669532189228 L 1035.962720355993 51.672390803172085 L 1036.1956001416672 51.649137848504814 L 1036.4289826584188 51.626938783166544 L 1036.6628445681904 51.60579582704531 L 1036.8971624849862 51.58571109441911 L 1037.1319129772098 51.56668659374447 L 1037.3670725700074 51.54872422745561 L 1037.6026177476158 51.53182579177417 L 1037.8385249557134 51.515992976529645 L 1038.0747706037762 51.50122736499037 L 1038.311331067436 51.4875304337052 L 1038.5481826908438 51.47490355235584 L 1038.7853017890343 51.4633479836199 L 1039.0226646502958 51.45286488304463 L 1039.2602475385395 51.443455298931354 L 1039.498026695675 51.43512017223063 L 1039.7359783439842 51.4278603364482 L 1039.974078688501 51.42167651756158 L 1040.2123039193891 51.41656933394751 L 1040.450630214324 51.41253929632009 L 1040.6890337408752 51.40958680767973 L 1040.927490658888 51.407712163272826 L 1041.16597712287 51.40691555056227 L 1041.404469284373 51.40719704920866 L 1041.6429432943798 51.40855663106237 L 1041.8813753056882 51.41099416016634 L 1042.1197414752955 51.414509392769695 L 1042.358017966784 51.419101977352106 L 1042.5961809527023 51.42477145465894 L 1042.834206616951 51.431517257747196 L 1043.0720711571614 51.43933871204218 L 1043.3097507870782 51.44823503540498 L 1043.547221738936 51.45820533821068 L 1043.784460265838 51.4692486234373 L 1044.0214426441291 51.48136378676553 L 1044.2581451757687 51.49454961668913 L 1044.494544190701 51.50880479463608 L 1044.7306160492215 51.524127895100484 L 1044.9663371443412 51.54051738578506 L 1045.2016839041469 51.5579716277544 L 1045.4366327941586 51.57648887559884 L 1045.6711603196836 51.59606727760904 L 1045.9052430281643 51.6167048759611 L 1046.138857511525 51.6383996069124 L 1046.3719804085122 51.66114930100791 L 1046.6045884070302 51.684951683297186 L 1046.8366582464732 51.70980437356183 L 1047.0681667200508 51.735704886553535 L 1047.299090677108 51.76265063224257 L 1047.5294070254424 51.79063891607683 L 1047.7590927336103 51.81966693925126 L 1047.9881248332326 51.849731798987726 L 1048.2164804212903 51.88083048882531 L 1048.4441366624148 51.91295989892094 L 1048.6710707911716 51.94611681636038 L 1048.897260114337 51.980297925479526 L 1049.1226820131672 52.01549980819594 L 1049.3473139456603 52.0517189443507 L 1049.5711334488099 52.08895171206036 L 1049.7941181408523 52.127194388079175 L 1050.0162457235044 52.16644314817141 L 1050.237493984193 52.20669406749378 L 1050.457840798276 52.247943120987884 L 1050.677264131256 52.29018618378274 L 1050.8957420409824 52.33341903160728 L 1051.1132526798463 52.37763734121275 L 1051.329774296965 52.422836690805035 L 1051.5452852403575 52.46901256048684 L 1051.7597639591088 52.516160332709674 L 1051.9731890055257 52.564275292735616 L 1052.1855390372816 52.613352629108746 L 1052.3967928195502 52.663387434136325 L 1052.6069292271295 52.71437470437956 L 1052.8159272465537 52.7663093411539 L 1053.0237659781947 52.819186151038956 L 1053.230424638353 52.8729998463978 L 1053.4358825613347 52.92774504590574 L 1053.6401192015187 52.983416275088445 L 1053.843114135411 53.040007966869396 L 1054.0448470636877 53.09751446212657 L 1054.2452978132237 53.15593001025836 L 1054.4444463391114 53.21524876975863 L 1054.642272726664 53.27546480880087 L 1054.8387571934077 53.33657210583136 L 1055.0338800910592 53.3985645501713 L 1055.227621907492 53.461435942627936 L 1055.4199632686855 53.52517999611441 L 1055.610884940664 53.58979033627848 L 1055.8003678314192 53.655260502139996 L 1055.98839299282 53.721583946736914 L 1056.174941622507 53.78875403778004 L 1056.3599950657729 53.85676405831625 L 1056.5435348174271 53.92560720740017 L 1056.7255425236478 53.995276600774254 L 1056.9059999838157 54.065765271557225 L 1057.0848891523356 54.13706617094075 L 1057.2621921404395 54.2091721688943 L 1057.4378912179761 54.28207605487816 L 1057.6119688151846 54.35577053856451 L 1057.7844075244498 54.43024825056637 L 1057.9551901020448 54.50550174317461 L 1058.1242994698541 54.581523491102686 L 1058.2917187170817 54.658305892239156 L 1058.4574311019426 54.73584126840789 L 1058.6214200533364 54.81412186613588 L 1058.7836691725042 54.89313985742859 L 1058.9441622346699 54.97288734055273 L 1059.1028831906606 55.05335634082646 L 1059.2598161685132 55.1345388114168 L 1059.4149454750607 55.21642663414435 L 1059.5682555975013 55.29901162029506 L 1059.7197312049511 55.38228551143916 L 1059.8693571499753 55.46623998025691 L 1060.0171184701042 55.55086663137139 L 1060.1630003893285 55.63615700218803 L 1060.3069883195785 55.722102563740805 L 1060.4490678621805 55.80869472154519 L 1060.5892248092994 55.89592481645755 L 1060.7274451453566 55.98378412554111 L 1060.863715048434 56.07226386293816 L 1060.9980208916547 56.1613551807487 L 1061.1303492445466 56.251049169915184 L 1061.2606868743842 56.34133686111345 L 1061.3890207475135 56.4322092256496 L 1061.5153380306542 56.52365717636293 L 1061.6396260921829 56.615671568534566 L 1061.7618725033974 56.70824320080196 L 1061.8820650397581 56.80136281607904 L 1062.0001916821116 56.89502110248188 L 1062.1162406178923 56.98920869425987 L 1062.2302002423032 57.083916172732344 L 1062.3420591594768 57.17913406723036 L 1062.4518061836147 57.27485285604382 L 1062.5594303401058 57.37106296737362 L 1062.6649208666242 57.467754780288786 L 1062.7682672142055 57.56491862568861 L 1062.8694590483003 57.662544787269525 L 1062.9684862498102 57.76062350249672 L 1063.0653389160973 57.859144963580405 L 1063.1600073619757 57.95809931845658 L 1063.2524821206796 58.05747667177222 L 1063.3427539448103 58.15726708587479 L 1063.4308138072606 58.257460581806065 L 1063.5166529021178 58.358047140299924 L 1063.6002626455436 58.459016702784346 L 1063.6816346766336 58.56035917238722 L 1063.7607608582525 58.66206441494605 L 1063.837633277848 58.764122260021324 L 1063.9122442482421 58.866522501913586 L 1063.9845863084001 58.96925490068398 L 1064.0546522241764 59.072309183178234 L 1064.1224349890374 59.17567504405398 L 1064.1879278247634 59.279342146811274 L 1064.2511241821253 59.38330012482622 L 1064.3120177415399 59.48753858238766 L 1064.3706024137023 59.59204709573668 L 1064.426872340194 59.69681521410906 L 1064.4808218940693 59.80183246078026 L 1064.5324456804174 59.907088334113126 L 1064.5817385369032 60.012572308608036 L 1064.6286955342816 60.11827383595545 L 1064.6733119768926 60.22418234609071 L 1064.7155834031287 60.33028724825106 L 1064.7555055858825 60.43657793203471 L 1064.793074532969 60.54304376846186 L 1064.8282864875252 60.64967411103757 L 1064.8611379283846 60.75645829681646 L 1064.8916255704303 60.86338564746893 L 1064.919746364924 60.97044547034902 L 1064.9454974998096 61.07762705956367 L 1064.9688763999945 61.184919697043256 L 1064.989880727609 61.29231265361346 L 1065.008508382237 61.399795190068104 L 1065.0247575011294 61.50735655824312 L 1065.0386264593874 61.614986002091314 L 1065.0501138701266 61.72267275875801 L 1065.0592185846158 61.830406059657264 L 1065.0659396923909 61.93817513154877 L 1065.070276521347 62.04596919761514 L 1065.0722286378045 62.15377747853961 M 1065.0723496278606 96.4920458931 L 1065.071157167957 96.59985643801662 L 1065.0675799074909 96.70765620196859 L 1065.0616182041854 96.81543440506935 L 1065.0532726542062 96.9231802695884 L 1065.042544092101 97.03088302102908 L 1065.0294335907172 97.138531889206 L 1065.0139424610938 97.24611610932205 L 1064.9960722523313 97.35362492304485 L 1064.9758247514353 97.46104757958265 L 1064.953201983139 97.5683733367593 L 1064.9282062097006 97.67559146208852 L 1064.9008399306767 97.78269123384712 L 1064.871105882672 97.88966194214719 L 1064.839007039067 97.99649289000702 L 1064.8045466097187 98.10317339442086 L 1064.767728040642 98.20969278742717 L 1064.7285550136628 98.31604041717543 L 1064.687031446051 98.42220564899125 L 1064.643161490129 98.52817786643996 L 1064.5969495328557 98.6339464723881 L 1064.5484001953882 98.73950089006323 L 1064.4975183326203 98.84483056411152 L 1064.4443090326952 98.94992496165337 L 1064.388777616499 99.05477357333659 L 1064.3309296371272 99.15936591438738 L 1064.270770879329 99.2636915256588 L 1064.2083073589301 99.36773997467667 L 1064.1435453222311 99.47150085668278 L 1064.076491245381 99.5749637956754 L 1064.007151833732 99.67811844544686 L 1063.9355340211675 99.78095449061813 L 1063.8616449694089 99.8834616476704 L 1063.7854920672996 99.98562966597338 L 1063.707082930067 100.08744832881038 L 1063.626425398559 100.18890745439998 L 1063.5435275384614 100.28999689691415 L 1063.4583976394915 100.39070654749288 L 1063.3710442145682 100.49102633525506 L 1063.281475998961 100.59094622830548 L 1063.1897019494168 100.69045623473812 L 1063.0957312432645 100.78954640363527 L 1062.999573277496 100.8882068260626 L 1062.9012376678277 100.9864276360601 L 1062.800734247739 101.0841990116286 L 1062.6980730674877 101.18151117571202 L 1062.5932643931067 101.27835439717506 L 1062.4863187053759 101.37471899177628 L 1062.377246698775 101.4705953231365 L 1062.2660592804136 101.56597380370249 L 1062.152767568941 101.6608448957057 L 1062.0373828934341 101.75519911211595 L 1061.919916792264 101.84902701759025 L 1061.8003810119433 101.94231922941623 L 1061.67878750595 102.03506641845047 L 1061.5551484335335 102.12725931005133 L 1061.4294761584981 102.2188886850065 L 1061.3017832479666 102.30994538045483 L 1061.1720824711238 102.40042029080266 L 1061.0403867979387 102.49030436863434 L 1060.9067093978695 102.579588625617 L 1060.7710636385445 102.66826413339936 L 1060.6334630844267 102.75632202450451 L 1060.4939214954568 102.84375349321674 L 1060.3524528256776 102.93054979646202 L 1060.2090712218378 103.01670225468237 L 1060.0637910219784 103.10220225270375 L 1059.9166267539988 103.18704124059762 L 1059.7675931342026 103.27121073453588 L 1059.6167050658278 103.3547023176393 L 1059.4639776375554 103.4375076408191 L 1059.309426122001 103.51961842361202 L 1059.1530659741875 103.60102645500817 L 1058.9949128299993 103.68172359427226 L 1058.8349825046191 103.7617017717576 L 1058.6732909909458 103.84095298971312 L 1058.5098544579964 103.91946932308304 L 1058.344689249288 103.99724292029944 L 1058.1778118812038 104.07426600406745 L 1058.0092390413413 104.15053087214287 L 1057.838987586844 104.22602989810241 L 1057.667074542716 104.30075553210642 L 1057.493517100118 104.37470030165377 L 1057.3183326146495 104.44785681232914 L 1057.1415386046135 104.52021774854238 L 1056.9631527492634 104.59177587426021 L 1056.7831928870362 104.66252403372968 L 1056.601677013768 104.73245515219378 L 1056.4186232808952 104.80156223659897 L 1056.234049993638 104.86983837629438 L 1056.047975609172 104.93727674372295 L 1055.86041873478 105.0038705951041 L 1055.6713981259934 105.06961327110824 L 1055.4809326847155 105.13449819752252 L 1055.2890414573317 105.19851888590837 L 1055.095743632805 105.26166893425032 L 1054.9010585407564 105.32394202759615 L 1054.7050056495332 105.38533193868841 L 1054.507604564261 105.44583252858716 L 1054.308875024884 105.50543774728384 L 1054.1088369041902 105.56414163430621 L 1053.9075102058252 105.62193831931454 L 1053.704915062291 105.67882202268845 L 1053.5010717329335 105.73478705610502 L 1053.296000601915 105.78982782310756 L 1053.0897221761784 105.84393881966523 L 1052.882257083394 105.89711463472344 L 1052.6736260698983 105.94934995074503 L 1052.4638499986188 106.00063954424192 L 1052.2529498469878 106.0509782862975 L 1052.0409467048448 106.1003611430795 L 1051.8278617723272 106.14878317634341 L 1051.6137163577507 106.19623954392625 L 1051.3985318754785 106.2427255002308 L 1051.1823298437794 106.2882363967002 L 1050.9651318826761 106.33276768228268 L 1050.746959711784 106.37631490388682 L 1050.5278351481386 106.41887370682676 L 1050.3077801040133 106.46043983525765 L 1050.0868165847291 106.50100913260128 L 1049.8649666864542 106.54057754196174 L 1049.6422525939931 106.57914110653107 L 1049.4186965785698 106.61669596998493 L 1049.1943209955991 106.65323837686829 L 1048.9691482824528 106.6887646729709 L 1048.7432009562144 106.72327130569276 L 1048.5165016114283 106.75675482439937 L 1048.2890729178398 106.78921188076673 L 1048.0609376181292 106.82063922911627 L 1047.8321185256357 106.85103372673933 L 1047.6026385220785 106.8803923342115 L 1047.3725205552664 106.90871211569649 L 1047.1417876368043 106.93599023923973 L 1046.910462839792 106.96222397705162 L 1046.6785692965161 106.98741070578025 L 1046.446130196138 107.0115479067737 L 1046.213168782374 107.03463316633201 L 1045.979708351171 107.05666417594847 L 1045.745772248378 107.07763873254045 L 1045.5113838674101 107.09755473866979 L 1045.2765666469102 107.11641020275246 L 1045.0413440684044 107.13420323925777 L 1044.8057396539548 107.1509320688969 L 1044.5697769638066 107.16659501880085 L 1044.3334795940318 107.18119052268763 L 1044.0968711741707 107.19471712101905 L 1043.8599753648682 107.20717346114655 L 1043.6228158555077 107.21855829744648 L 1043.3854163618425 107.22887049144471 L 1043.147800623624 107.23810901193042 L 1042.9099924022285 107.24627293505928 L 1042.6720154782795 107.25336144444577 L 1042.433893649271 107.25937383124486 L 1042.1956507271877 107.26430949422287 L 1041.9573105361235 107.26816793981763 L 1041.7188969098984 107.27094878218779 L 1041.4804336896768 107.27265174325143 L 1041.2419447215816 107.27327665271386 L 1041.0034538543111 107.27282344808465 L 1040.7649849367533 107.27129217468391 L 1040.526561815601 107.26868298563768 L 1040.288208332968 107.2649961418627 L 1040.0499483240037 107.26023201204026 L 1039.8118056145104 107.2543910725794 L 1039.5738040185606 107.24747390756917 L 1039.3359673361158 107.23948120872033 L 1039.0983193506459 107.23041377529609 L 1038.8608838267514 107.22027251403225 L 1038.6236845077867 107.20905843904646 L 1038.3867451134863 107.1967726717369 L 1038.150089337592 107.18341644067004 L 1037.9137408454842 107.16899108145788 L 1037.6777232718152 107.15349803662431 L 1037.4420602181456 107.1369388554609 L 1037.2067752505845 107.11931519387196 L 1036.9718918974324 107.10062881420897 L 1036.7374336468292 107.08088158509435 L 1036.5034239444042 107.0600754812345 L 1036.269886190933 107.03821258322252 L 1036.036843739996 107.01529507732995 L 1035.8043198956443 106.99132525528832 L 1035.5723379100684 106.96630551405984 L 1035.3409209812737 106.94023835559778 L 1035.1100922507603 106.91312638659626 L 1034.8798748012086 106.88497231822961 L 1034.6502916541722 106.85577896588119 L 1034.421365767774 106.8255492488619 L 1034.193120034412 106.79428619011826 L 1033.9655772784693 106.76199291593008 L 1033.738760254032 106.72867265559789 L 1033.5126916426134 106.69432874111995 L 1033.2873940508864 106.65896460685907 L 1033.0628900084225 106.62258378919921 L 1032.8392019654386 106.58518992619184 L 1032.6163522905526 106.5467867571921 L 1032.3943632685466 106.50737812248485 L 1032.1732570981374 106.46696796290075 L 1031.9530558897582 106.42556031942208 L 1031.7337816633458 106.38315933277867 L 1031.5154563461406 106.33976924303387 L 1031.2981017704924 106.29539438916049 L 1031.0817396716773 106.25003920860692 L 1030.866391685725 106.20370823685344 L 1030.6520793472546 106.15640610695861 L 1030.4388240873216 106.108137549096 L 1030.226647231274 106.05890739008117 L 1030.0155699966208 106.00872055288902 L 1029.8056134909095 105.9575820561614 L 1029.5967987096155 105.90549701370541 L 1029.3891465340432 105.85247063398188 L 1029.182677729237 105.79850821958458 L 1028.9774129419054 105.74361516670999 L 1028.7733726983558 105.68779696461766 L 1028.570577402443 105.63105919508126 L 1028.3690473335273 105.5734075318305 L 1028.1688026444474 105.51484773998365 L 1027.969863359506 105.45538567547108 L 1027.7722493724652 105.3950272844497 L 1027.5759804445593 105.33377860270829 L 1027.3810762025175 105.27164575506403 L 1027.1875561366014 105.20863495474987 L 1026.9954395986567 105.14475250279335 L 1026.804745800177 105.08000478738643 L 1026.615493810383 105.01439828324668 L 1026.427702554316 104.94793955096986 L 1026.2413908109454 104.8806352363738 L 1026.05657721129 104.8124920698339 L 1025.873280236556 104.74351686560999 L 1025.6915182162877 104.67371652116503 L 1025.511309326536 104.6030980164753 L 1025.3326715880398 104.53166841333243 L 1025.155622864424 104.4594348546372 L 1024.9801808604132 104.38640456368528 L 1024.8063631200616 104.31258484344491 L 1024.6341870249987 104.2379830758266 L 1024.4636697926906 104.16260672094495 L 1024.2948284747179 104.08646331637262 L 1024.127679955072 104.00956047638662 L 1023.9622409484656 103.93190589120688 L 1023.7985279986614 103.85350732622719 L 1023.6365574768181 103.77437262123871 L 1023.4763455798528 103.694509689646 L 1023.3179083288217 103.61392651767568 L 1023.1612615673179 103.53263116357778 L 1023.006420959887 103.45063175681996 L 1022.8534019904607 103.36793649727457 L 1022.7022199608084 103.28455365439865 L 1022.5528899890071 103.20049156640701 L 1022.4054270079296 103.1157586394384 L 1022.2598457637511 103.03036334671489 L 1022.1161608144746 102.94431422769459 L 1021.9743865284754 102.85761988721772 L 1021.834537083064 102.77028899464605 L 1021.6966264630682 102.68233028299609 L 1021.5606684594352 102.5937525480657 L 1021.4266766678521 102.50456464755453 L 1021.2946644873864 102.41477550017834 L 1021.164645119146 102.32439408477703 L 1021.0366315649595 102.23342943941684 L 1020.9106366260756 102.14189066048647 L 1020.7866729018833 102.04978690178756 L 1020.6647527886516 101.95712737361922 L 1020.5448884782902 101.86392134185704 L 1020.4270919571303 101.77017812702654 L 1020.3113750047258 101.67590710337106 L 1020.1977491926756 101.58111769791444 L 1020.0862258834662 101.48581938951821 L 1019.9768162293356 101.39002170793381 L 1019.8695311711579 101.29373423284954 L 1019.7643814373496 101.19696659293271 L 1019.6613775427966 101.09972846486664 L 1019.5605297878022 101.00202957238312 L 1019.4618482570581 100.90387968528998 L 1019.3653428186352 100.80528861849413 L 1019.2710231229968 100.70626623102011 L 1019.1788986020338 100.60682242502413 L 1019.0889784681216 100.50696714480392 L 1019.0012717131987 100.40671037580431 L 1018.9157871078673 100.30606214361863 L 1018.8325332005171 100.20503251298624 L 1018.7515183164691 100.103631586786 L 1018.6727505571442 100.00186950502604 L 1018.596237799253 99.89975644382972 L 1018.5219876940072 99.79730261441809 L 1018.4500076663556 99.69451826208869 L 1018.3803049142409 99.59141366519111 L 1018.3128864078805 99.48799913409913 L 1018.2477588890685 99.38428501017967 L 1018.1849288705025 99.28028166475868 L 1018.1244026351324 99.17599949808405 L 1018.0661862355308 99.07144893828554 L 1018.0102854932896 98.96664044033201 L 1017.9567059984362 98.86158448498593 L 1017.9054531088753 98.75629157775525 L 1017.8565319498535 98.65077224784297 L 1017.8099474134457 98.54503704709414 L 1017.7657041580668 98.43909654894075 L 1017.7238066080054 98.33296134734431 L 1017.6842589529816 98.22664205573652 L 1017.647065147728 98.12014930595798 L 1017.6122289115941 98.01349374719489 L 1017.5797537281744 97.90668604491427 L 1017.5496428449604 97.79973687979731 L 1017.5218992730152 97.69265694667143 L 1017.4965257866728 97.58545695344071 L 1017.4735249232608 97.47814762001512 L 1017.4528989828464 97.37073967723859 L 1017.4346500280062 97.26324386581588 L 1017.4187798836208 97.15567093523856 L 1017.4052901366913 97.04803164271006 L 1017.394182136181 96.94033675206991 L 1017.385456992881 96.83259703271744 L 1017.3791155792981 96.7248232585348 L 1017.3751585295685 96.6170262068096 L 1017.3735862393937 96.50921665715717" stroke-miterlimit="10" stroke-width="2.7769845610000004" stroke-dasharray=""/></g><g><text fill="black" stroke="none" font-family="sans-serif" font-size="11pt" font-style="normal" font-weight="normal" text-decoration="normal" x="1009.8450078635715" y="124.80095321200001" text-anchor="start" dominant-baseline="alphabetic" xml:space="preserve">Database</text></g></g><g><path fill="white" stroke="black" paint-order="fill stroke markers" d=" M 314.2700373055989 183.607685092 L 330.6052406055989 183.607685092 L 330.6052406055989 866.4191830319996 L 314.2700373055989 866.4191830319996 L 314.2700373055989 183.607685092" stroke-miterlimit="10" stroke-width="1.3612669416666667" stroke-dasharray=""/><path fill="white" stroke="black" paint-order="fill stroke markers" d=" M 540.4148519527994 229.346254332 L 556.7500552527995 229.346254332 L 556.7500552527995 820.6806137919997 L 540.4148519527994 820.6806137919997 L 540.4148519527994 229.346254332" stroke-miterlimit="10" stroke-width="1.3612669416666667" stroke-dasharray=""/><path fill="white" stroke="black" paint-order="fill stroke markers" d=" M 880.2391040175429 275.084823572 L 896.574307317543 275.084823572 L 896.574307317543 412.300531292 L 880.2391040175429 412.300531292 L 880.2391040175429 275.084823572" stroke-miterlimit="10" stroke-width="1.3612669416666667" stroke-dasharray=""/><path fill="white" stroke="black" paint-order="fill stroke markers" d=" M 1033.0553511598605 320.823392812 L 1049.3905544598606 320.823392812 L 1049.3905544598606 366.561962052 L 1033.0553511598605 366.561962052 L 1033.0553511598605 320.823392812" stroke-miterlimit="10" stroke-width="1.3612669416666667" stroke-dasharray=""/><path fill="white" stroke="black" paint-order="fill stroke markers" d=" M 740.4608506820312 637.7263368319999 L 756.7960539820313 637.7263368319999 L 756.7960539820313 774.9420445519997 L 740.4608506820312 774.9420445519997 L 740.4608506820312 637.7263368319999" stroke-miterlimit="10" stroke-width="1.3612669416666667" stroke-dasharray=""/><path fill="white" stroke="black" paint-order="fill stroke markers" d=" M 1033.0553511598605 683.4649060719998 L 1049.3905544598606 683.4649060719998 L 1049.3905544598606 729.2034753119998 L 1033.0553511598605 729.2034753119998 L 1033.0553511598605 683.4649060719998" stroke-miterlimit="10" stroke-width="1.3612669416666667" stroke-dasharray=""/><path fill="white" stroke="black" paint-order="fill stroke markers" d=" M 740.4608506820312 774.9420445519997 L 756.7960539820313 774.9420445519997 L 756.7960539820313 774.9420445519997 L 740.4608506820312 774.9420445519997 L 740.4608506820312 774.9420445519997" stroke-miterlimit="10" stroke-width="1.3612669416666667" stroke-dasharray=""/><g><g><rect fill="white" stroke="none" x="95.90568905203772" y="162.371920802" width="195.96707405152344" height="21.23576429"/></g><text fill="black" stroke="none" font-family="sans-serif" font-size="11pt" font-style="normal" font-weight="normal" text-decoration="normal" x="98.35596954703772" y="177.07360377199998" text-anchor="start" dominant-baseline="alphabetic" xml:space="preserve">Go to group's newsfeed page</text></g><g><path fill="none" stroke="black" paint-order="fill stroke markers" d=" M 73.50841485 183.607685092 L 300.82071992193227 183.607685092" stroke-miterlimit="10" stroke-width="1.3612669416666667" stroke-dasharray=""/><g transform="translate(314.2700373055989,183.607685092) translate(-314.2700373055989,-183.607685092)"><path fill="black" stroke="none" paint-order="stroke fill markers" d=" M 300.65736788893224 176.80135038366666 L 314.2700373055989 183.607685092 L 300.65736788893224 190.41401980033334 Z"/></g></g><g><g><rect fill="white" stroke="none" x="349.93523117726556" y="208.110490042" width="171.1496302038672" height="21.23576429"/></g><text fill="black" stroke="none" font-family="sans-serif" font-size="11pt" font-style="normal" font-weight="normal" text-decoration="normal" x="352.3855116722656" y="222.812173012" text-anchor="start" dominant-baseline="alphabetic" xml:space="preserve">GET: /api/group/{id}/posts</text></g><g><path fill="none" stroke="black" paint-order="fill stroke markers" d=" M 330.6052406055989 229.346254332 L 526.9655345691327 229.346254332" stroke-miterlimit="10" stroke-width="1.3612669416666667" stroke-dasharray=""/><g transform="translate(540.4148519527994,229.346254332) translate(-540.4148519527994,-229.346254332)"><path fill="black" stroke="none" paint-order="stroke fill markers" d=" M 526.8021825361327 222.53991962366666 L 540.4148519527994 229.346254332 L 526.8021825361327 236.15258904033334 Z"/></g></g><g><g><rect fill="white" stroke="none" x="684.27983380814" y="253.849059282" width="68.4294916540625" height="21.23576429"/></g><text fill="black" stroke="none" font-family="sans-serif" font-size="11pt" font-style="normal" font-weight="normal" text-decoration="normal" x="686.73011430314" y="268.550742252" text-anchor="start" dominant-baseline="alphabetic" xml:space="preserve">isExist(id)</text></g><g><path fill="none" stroke="black" paint-order="fill stroke markers" d=" M 556.7500552527995 275.084823572 L 866.7897866338762 275.084823572" stroke-miterlimit="10" stroke-width="1.3612669416666667" stroke-dasharray=""/><g transform="translate(880.2391040175429,275.084823572) translate(-880.2391040175429,-275.084823572)"><path fill="black" stroke="none" paint-order="stroke fill markers" d=" M 866.6264346008762 268.27848886366667 L 880.2391040175429 275.084823572 L 866.6264346008762 281.89115828033334 Z"/></g></g><g><g><rect fill="white" stroke="none" x="918.373887122608" y="299.587628522" width="92.8818842321875" height="21.23576429"/></g><text fill="black" stroke="none" font-family="sans-serif" font-size="11pt" font-style="normal" font-weight="normal" text-decoration="normal" x="920.824167617608" y="314.28931149199997" text-anchor="start" dominant-baseline="alphabetic" xml:space="preserve">existsById(id)</text></g><g><path fill="none" stroke="black" paint-order="fill stroke markers" d=" M 896.574307317543 320.823392812 L 1019.6060337761938 320.823392812" stroke-miterlimit="10" stroke-width="1.3612669416666667" stroke-dasharray=""/><g transform="translate(1033.0553511598605,320.823392812) translate(-1033.0553511598605,-320.823392812)"><path fill="black" stroke="none" paint-order="stroke fill markers" d=" M 1019.4426817431938 314.01705810366667 L 1033.0553511598605 320.823392812 L 1019.4426817431938 327.62972752033335 Z"/></g></g><g><g><rect fill="white" stroke="none" x="915.9042978892096" y="345.326197762" width="97.82106269898438" height="21.23576429"/></g><text fill="black" stroke="none" font-family="sans-serif" font-size="11pt" font-style="normal" font-weight="normal" text-decoration="normal" x="918.3545783842096" y="360.02788073199997" text-anchor="start" dominant-baseline="alphabetic" xml:space="preserve">Boolean value</text></g><g><path fill="none" stroke="black" paint-order="fill stroke markers" d=" M 1033.0553511598605 366.561962052 L 910.0236247012097 366.561962052" stroke-miterlimit="10" stroke-width="1.3612669416666667" stroke-dasharray="6.53408132"/><g transform="translate(896.574307317543,366.561962052) translate(-896.574307317543,-366.561962052)"><path fill="black" stroke="none" paint-order="stroke fill markers" d=" M 910.1869767342097 359.7556273436667 L 896.574307317543 366.561962052 L 910.1869767342097 373.36829676033335 Z"/></g></g><g><g><rect fill="white" stroke="none" x="669.584048285679" y="391.064767002" width="97.82106269898438" height="21.23576429"/></g><text fill="black" stroke="none" font-family="sans-serif" font-size="11pt" font-style="normal" font-weight="normal" text-decoration="normal" x="672.0343287806791" y="405.766449972" text-anchor="start" dominant-baseline="alphabetic" xml:space="preserve">Boolean value</text></g><g><path fill="none" stroke="black" paint-order="fill stroke markers" d=" M 880.2391040175429 412.300531292 L 570.1993726364661 412.300531292" stroke-miterlimit="10" stroke-width="1.3612669416666667" stroke-dasharray="6.53408132"/><g transform="translate(556.7500552527995,412.300531292) translate(-556.7500552527995,-412.300531292)"><path fill="black" stroke="none" paint-order="stroke fill markers" d=" M 570.3627246694662 405.4941965836667 L 556.7500552527995 412.300531292 L 570.3627246694662 419.10686600033335 Z"/></g></g><g><g><rect fill="white" stroke="none" x="375.2251023930859" y="480.908385152" width="120.56988777222656" height="21.23576429"/></g><text fill="red" stroke="none" font-family="sans-serif" font-size="11pt" font-style="normal" font-weight="normal" text-decoration="normal" x="377.6753828880859" y="495.610068122" text-anchor="start" dominant-baseline="alphabetic" xml:space="preserve">404 NOT FOUND</text></g><g><path fill="none" stroke="black" paint-order="fill stroke markers" d=" M 540.4148519527994 502.144149442 L 344.05455798926556 502.144149442" stroke-miterlimit="10" stroke-width="1.3612669416666667" stroke-dasharray="6.53408132"/><g transform="translate(330.6052406055989,502.144149442) translate(-330.6052406055989,-502.144149442)"><path fill="black" stroke="none" paint-order="stroke fill markers" d=" M 344.2179100222656 495.3378147336667 L 330.6052406055989 502.144149442 L 344.2179100222656 508.95048415033335 Z"/></g></g><g><g><rect fill="white" stroke="none" x="92.83840542166662" y="526.646954392" width="202.10164131226563" height="21.23576429"/></g><text fill="black" stroke="none" font-family="sans-serif" font-size="11pt" font-style="normal" font-weight="normal" text-decoration="normal" x="95.28868591666662" y="541.348637362" text-anchor="start" dominant-baseline="alphabetic" xml:space="preserve">Display 404 Not Found screen</text></g><g><path fill="none" stroke="black" paint-order="fill stroke markers" d=" M 314.2700373055989 547.882718682 L 86.95773223366666 547.882718682" stroke-miterlimit="10" stroke-width="1.3612669416666667" stroke-dasharray="6.53408132"/><g transform="translate(73.50841485,547.882718682) translate(-73.50841485,-547.882718682)"><path fill="black" stroke="none" paint-order="stroke fill markers" d=" M 87.12108426666666 541.0763839736667 L 73.50841485 547.882718682 L 87.12108426666666 554.6890533903334 Z"/></g></g><g><g><rect fill="white" stroke="none" x="576.0800458244661" y="616.4905725419999" width="145.05081428589844" height="21.23576429"/></g><text fill="black" stroke="none" font-family="sans-serif" font-size="11pt" font-style="normal" font-weight="normal" text-decoration="normal" x="578.5303263194661" y="631.1922555119999" text-anchor="start" dominant-baseline="alphabetic" xml:space="preserve">getAllPostInGroup(id)</text></g><g><path fill="none" stroke="black" paint-order="fill stroke markers" d=" M 556.7500552527995 637.7263368319999 L 727.0115332983645 637.7263368319999" stroke-miterlimit="10" stroke-width="1.3612669416666667" stroke-dasharray=""/><g transform="translate(740.4608506820312,637.7263368319999) translate(-740.4608506820312,-637.7263368319999)"><path fill="black" stroke="none" paint-order="stroke fill markers" d=" M 726.8481812653645 630.9200021236666 L 740.4608506820312 637.7263368319999 L 726.8481812653645 644.5326715403332 Z"/></g></g><g><g><rect fill="white" stroke="none" x="822.4002954279966" y="662.2291417819998" width="145.05081428589844" height="21.23576429"/></g><text fill="black" stroke="none" font-family="sans-serif" font-size="11pt" font-style="normal" font-weight="normal" text-decoration="normal" x="824.8505759229967" y="676.9308247519998" text-anchor="start" dominant-baseline="alphabetic" xml:space="preserve">getAllPostInGroup(id)</text></g><g><path fill="none" stroke="black" paint-order="fill stroke markers" d=" M 756.7960539820313 683.4649060719998 L 1019.6060337761938 683.4649060719998" stroke-miterlimit="10" stroke-width="1.3612669416666667" stroke-dasharray=""/><g transform="translate(1033.0553511598605,683.4649060719998) translate(-1033.0553511598605,-683.4649060719998)"><path fill="black" stroke="none" paint-order="stroke fill markers" d=" M 1019.4426817431938 676.6585713636665 L 1033.0553511598605 683.4649060719998 L 1019.4426817431938 690.2712407803332 Z"/></g></g><g><g><rect fill="white" stroke="none" x="866.8133050715513" y="707.9677110219998" width="56.224794998789065" height="21.23576429"/></g><text fill="black" stroke="none" font-family="sans-serif" font-size="11pt" font-style="normal" font-weight="normal" text-decoration="normal" x="869.2635855665513" y="722.6693939919998" text-anchor="start" dominant-baseline="alphabetic" xml:space="preserve">Post list</text></g><g><path fill="none" stroke="black" paint-order="fill stroke markers" d=" M 1033.0553511598605 729.2034753119998 L 770.2453713656979 729.2034753119998" stroke-miterlimit="10" stroke-width="1.3612669416666667" stroke-dasharray="6.53408132"/><g transform="translate(756.7960539820313,729.2034753119998) translate(-756.7960539820313,-729.2034753119998)"><path fill="black" stroke="none" paint-order="stroke fill markers" d=" M 770.4087233986979 722.3971406036665 L 756.7960539820313 729.2034753119998 L 770.4087233986979 736.0098100203331 Z"/></g></g><g><g><rect fill="white" stroke="none" x="620.4930554680208" y="753.7062802619997" width="56.224794998789065" height="21.23576429"/></g><text fill="black" stroke="none" font-family="sans-serif" font-size="11pt" font-style="normal" font-weight="normal" text-decoration="normal" x="622.9433359630208" y="768.4079632319997" text-anchor="start" dominant-baseline="alphabetic" xml:space="preserve">Post list</text></g><g><path fill="none" stroke="black" paint-order="fill stroke markers" d=" M 740.4608506820312 774.9420445519997 L 570.1993726364661 774.9420445519997" stroke-miterlimit="10" stroke-width="1.3612669416666667" stroke-dasharray="6.53408132"/><g transform="translate(556.7500552527995,774.9420445519997) translate(-556.7500552527995,-774.9420445519997)"><path fill="black" stroke="none" paint-order="stroke fill markers" d=" M 570.3627246694662 768.1357098436664 L 556.7500552527995 774.9420445519997 L 570.3627246694662 781.7483792603331 Z"/></g></g><g><g><rect fill="white" stroke="none" x="378.46780106251947" y="799.4448495019997" width="114.08449043335938" height="21.23576429"/></g><text fill="green" stroke="none" font-family="sans-serif" font-size="11pt" font-style="normal" font-weight="normal" text-decoration="normal" x="380.9180815575195" y="814.1465324719996" text-anchor="start" dominant-baseline="alphabetic" xml:space="preserve">200 OK: Post list</text></g><g><path fill="none" stroke="black" paint-order="fill stroke markers" d=" M 540.4148519527994 820.6806137919997 L 344.05455798926556 820.6806137919997" stroke-miterlimit="10" stroke-width="1.3612669416666667" stroke-dasharray="6.53408132"/><g transform="translate(330.6052406055989,820.6806137919997) translate(-330.6052406055989,-820.6806137919997)"><path fill="black" stroke="none" paint-order="stroke fill markers" d=" M 344.2179100222656 813.8742790836664 L 330.6052406055989 820.6806137919997 L 344.2179100222656 827.486948500333 Z"/></g></g><g><g><rect fill="white" stroke="none" x="108.14263515799475" y="845.1834187419996" width="171.49318183960938" height="21.23576429"/></g><text fill="black" stroke="none" font-family="sans-serif" font-size="11pt" font-style="normal" font-weight="normal" text-decoration="normal" x="110.59291565299475" y="859.8851017119996" text-anchor="start" dominant-baseline="alphabetic" xml:space="preserve">Display group's newsfeed</text></g><g><path fill="none" stroke="black" paint-order="fill stroke markers" d=" M 314.2700373055989 866.4191830319996 L 86.95773223366666 866.4191830319996" stroke-miterlimit="10" stroke-width="1.3612669416666667" stroke-dasharray="6.53408132"/><g transform="translate(73.50841485,866.4191830319996) translate(-73.50841485,-866.4191830319996)"><path fill="black" stroke="none" paint-order="stroke fill markers" d=" M 87.12108426666666 859.6128483236663 L 73.50841485 866.4191830319996 L 87.12108426666666 873.225517740333 Z"/></g></g><g><g/><path fill="none" stroke="black" paint-order="fill stroke markers" d=" M 16.335203299999996 436.803336242 L 1098.3961643598604 436.803336242 L 1098.3961643598604 890.9219879819997 L 16.335203299999996 890.9219879819997 L 16.335203299999996 436.803336242 Z" stroke-miterlimit="10" stroke-width="2.3336004714285714" stroke-dasharray=""/><path fill="white" stroke="black" paint-order="fill stroke markers" d=" M 16.335203299999996 436.803336242 L 16.335203299999996 456.405580202 L 62.69440689707031 456.405580202 L 72.49552887707031 446.604458222 L 72.49552887707031 436.803336242 L 16.335203299999996 436.803336242" stroke-miterlimit="10" stroke-width="2.3336004714285714" stroke-dasharray=""/><text fill="black" stroke="none" font-family="sans-serif" font-size="8.8pt" font-style="normal" font-weight="bold" text-decoration="normal" x="32.67040659999999" y="449.871498882" text-anchor="start" dominant-baseline="alphabetic" xml:space="preserve">alt</text><g><rect fill="white" stroke="none" x="86.38045168207032" y="438.110152506" width="152.17830146851563" height="16.988611432000003"/></g><text fill="black" stroke="none" font-family="sans-serif" font-size="8.8pt" font-style="normal" font-weight="bold" text-decoration="normal" x="88.83073217707032" y="449.871498882" text-anchor="start" dominant-baseline="alphabetic" xml:space="preserve">[If GroupID does not exist]</text><g><path fill="none" stroke="black" paint-order="fill stroke markers" d=" M 16.335203299999996 572.385523632 L 1098.3961643598604 572.385523632" stroke-miterlimit="10" stroke-width="2.3336004714285714" stroke-dasharray="4.083800825"/></g><g/><g><rect fill="white" stroke="none" x="86.38045168207032" y="573.6923398959999" width="36.84300483765625" height="16.988611432000003"/></g><text fill="black" stroke="none" font-family="sans-serif" font-size="8.8pt" font-style="normal" font-weight="bold" text-decoration="normal" x="88.83073217707032" y="585.4536862719999" text-anchor="start" dominant-baseline="alphabetic" xml:space="preserve">[Else]</text></g><g/></g></g></svg>