<svg version="1.1" xmlns="http://www.w3.org/2000/svg" xmlns:xlink="http://www.w3.org/1999/xlink" width="1235" height="964"><desc>title%20Get%20all%20member%20in%20Group%0A%0A%0Aactor%20%23green%3A0.5%20%22Workspace%20User%22%20as%20w%0Aboundary%20%22Joined%20group%20page%22%20as%20f%0Acontrol%20%22Group%20Controller%22%20as%20gc%0Aparticipant%20%22Group%20Member%20Service%22%20as%20gs%0Aparticipant%20%22Group%20Service%22%20as%20gs1%0A%0Adatabase%20%23blue%3A1%20%22Database%22%20as%20db%0A%0Aw-%3Ef%3ASelect%20tab%20Members%20in%20specific%20group%0Aactivate%20f%0A%0Af-%3Egc%3AGET%3A%20%2Fapi%2Fgroup%2F%7Bid%7D%2Fmembers%0Aactivate%20gc%0Agc-%3Egs1%3A%20isExist(id)%0Aactivate%20gs1%0Ags1-%3Edb%3A%20isExist(id)%0Aactivate%20db%0Ags1%3C--db%3ABoolean%20value%0Adeactivate%20db%0Agc%3C--gs1%3ABoolean%20value%0Adeactivate%20gs1%0A%0Aalt%20If%20Group%20does%20not%20exist%0Af%3C--gc%3A%3Ccolor%3A%23red%3E404%20NOT%20FOUND%3C%2Fcolor%3E%0A%0Aw%3C--f%3A%20Display%20404%20Not%20Found%20screen%0Aelse%20Else%0Agc-%3Egs%3A%20getAllUsersInGroup(id)%0Aactivate%20gs%0Ags-%3Edb%3A%20getAllUsersInGroup(id)%0Aactivate%20db%0Ags%3C--db%3AMember%20list%0Adeactivate%20db%0A%0Agc%3C--gs%3AMember%20list%0Adeactivate%20gs%0Aactivate%20gs%0Adeactivate%20gs%0A%0A%0Af%3C--gc%3A%3Ccolor%3A%23green%3E200%20OK%5CnResponse%20body%3A%20Member%20list%3C%2Fcolor%3E%0Adeactivate%20gc%0A%0Aw%3C--f%3A%20Display%20group's%20member%20list%0Adeactivate%20f%0A%0Aend%0A</desc><defs/><g><g/><g/><g/><g/><g/><g/><g/><g/><g/><g/><g/><g/><g/><g/><g/><g/><g/><g/><g/><g/><g/><g><rect fill="white" stroke="none" x="0" y="0" width="1235" height="964"/></g><g><text fill="black" stroke="none" font-family="sans-serif" font-size="16.5pt" font-style="normal" font-weight="normal" text-decoration="normal" x="497.41284830239124" y="24.50280495" text-anchor="start" dominant-baseline="alphabetic" xml:space="preserve">Get all member in Group</text></g><g/><g><path fill="none" stroke="black" paint-order="fill stroke markers" d=" M 73.50841485 129.701514202 L 73.50841485 964.4304028319998" stroke-miterlimit="10" stroke-width="1.3612669416666667" stroke-dasharray="12.565541,5.445067766666667"/><path fill="none" stroke="black" paint-order="fill stroke markers" d=" M 365.60867472220053 129.701514202 L 365.60867472220053 964.4304028319998" stroke-miterlimit="10" stroke-width="1.3612669416666667" stroke-dasharray="12.565541,5.445067766666667"/><path fill="none" stroke="black" paint-order="fill stroke markers" d=" M 617.8093212785807 129.701514202 L 617.8093212785807 964.4304028319998" stroke-miterlimit="10" stroke-width="1.3612669416666667" stroke-dasharray="12.565541,5.445067766666667"/><path fill="none" stroke="black" paint-order="fill stroke markers" d=" M 826.8030586552734 129.701514202 L 826.8030586552734 964.4304028319998" stroke-miterlimit="10" stroke-width="1.3612669416666667" stroke-dasharray="12.565541,5.445067766666667"/><path fill="none" stroke="black" paint-order="fill stroke markers" d=" M 1001.2055032749648 129.701514202 L 1001.2055032749648 964.4304028319998" stroke-miterlimit="10" stroke-width="1.3612669416666667" stroke-dasharray="12.565541,5.445067766666667"/><path fill="none" stroke="black" paint-order="fill stroke markers" d=" M 1154.0217504172824 129.701514202 L 1154.0217504172824 964.4304028319998" stroke-miterlimit="10" stroke-width="1.3612669416666667" stroke-dasharray="12.565541,5.445067766666667"/></g><g><g><path fill="white" stroke="green" paint-order="fill stroke markers" d=" M 82.819480731 60.60360424300001 A 9.311065881 9.311065881 0 1 1 82.81947607546743 60.594293178670846 M 73.50841485 69.91467012400001 L 73.50841485 89.84361815000001 M 61.747068473999995 77.102159576 L 85.26976122599999 77.102159576 M 73.50841485 89.84361815000001 L 61.747068473999995 108.465749912 M 73.50841485 89.84361815000001 L 85.26976122599999 108.465749912" stroke-miterlimit="10" stroke-width="1.3884922805000002" stroke-dasharray=""/></g><g><text fill="black" stroke="none" font-family="sans-serif" font-size="11pt" font-style="normal" font-weight="normal" text-decoration="normal" x="19.467635736230463" y="124.80095321200001" text-anchor="start" dominant-baseline="alphabetic" xml:space="preserve">Workspace User</text></g><g><path fill="white" stroke="black" paint-order="fill stroke markers" d=" M 398.03405327270053 82.819480731 A 24.2577769005 24.2577769005 0 1 1 398.0340411438131 82.79522295814245 M 334.5717884522005 57.17321154999999 L 334.5717884522005 108.465749912 M 333.18329617170053 82.819480731 L 349.5184994717005 82.819480731" stroke-miterlimit="10" stroke-width="2.7769845610000004" stroke-dasharray=""/></g><g><text fill="black" stroke="none" font-family="sans-serif" font-size="11pt" font-style="normal" font-weight="normal" text-decoration="normal" x="304.88214273977866" y="124.80095321200001" text-anchor="start" dominant-baseline="alphabetic" xml:space="preserve">Joined group page</text></g><g><path fill="white" stroke="black" paint-order="fill stroke markers" d=" M 642.0670981790806 82.819480731 A 24.2577769005 24.2577769005 0 1 1 642.0670860501932 82.79522295814245 M 614.5422806185807 58.561703830499994 L 624.3434025985806 50.39410218049999 M 614.5422806185807 58.561703830499994 L 624.3434025985806 66.72930548049999" stroke-miterlimit="10" stroke-width="2.7769845610000004" stroke-dasharray=""/></g><g><text fill="black" stroke="none" font-family="sans-serif" font-size="11pt" font-style="normal" font-weight="normal" text-decoration="normal" x="563.6253765764322" y="124.80095321200001" text-anchor="start" dominant-baseline="alphabetic" xml:space="preserve">Group Controller</text></g><path fill="none" stroke="none"/><g><path fill="white" stroke="black" paint-order="fill stroke markers" d=" M 733.3098852305351 85.75981732500001 L 920.2962320800117 85.75981732500001 L 920.2962320800117 129.701514202 L 733.3098852305351 129.701514202 L 733.3098852305351 85.75981732500001 Z" stroke-miterlimit="10" stroke-width="2.613632528" stroke-dasharray=""/></g><g><text fill="black" stroke="none" font-family="sans-serif" font-size="11pt" font-style="normal" font-weight="normal" text-decoration="normal" x="751.0335808110351" y="113.36631090200002" text-anchor="start" dominant-baseline="alphabetic" xml:space="preserve">Group Member Service</text></g><path fill="none" stroke="none"/><g><path fill="white" stroke="black" paint-order="fill stroke markers" d=" M 936.6314353800117 85.75981732500001 L 1065.779571169918 85.75981732500001 L 1065.779571169918 129.701514202 L 936.6314353800117 129.701514202 L 936.6314353800117 85.75981732500001 Z" stroke-miterlimit="10" stroke-width="2.613632528" stroke-dasharray=""/></g><g><text fill="black" stroke="none" font-family="sans-serif" font-size="11pt" font-style="normal" font-weight="normal" text-decoration="normal" x="954.3551309605117" y="113.36631090200002" text-anchor="start" dominant-baseline="alphabetic" xml:space="preserve">Group Service</text></g><g><path fill="white" stroke="blue" paint-order="fill stroke markers" d=" M 1130.1723535992824 97.684515734 L 1130.1723535992824 63.380588804000006 L 1177.8711472352825 63.380588804000006 L 1177.8711472352825 97.684515734" stroke-miterlimit="10" stroke-width="2.7769845610000004" stroke-dasharray=""/><path fill="white" stroke="blue" paint-order="fill stroke markers" d=" M 1177.8711472352825 62.1881189631 L 1177.8699547753788 62.29592950801663 L 1177.8663775149128 62.403729271968594 L 1177.8604158116073 62.51150747506936 L 1177.8520702616281 62.619253339588404 L 1177.841341699523 62.72695609102909 L 1177.828231198139 62.834604959206004 L 1177.8127400685157 62.94218917932205 L 1177.7948698597531 63.04969799304486 L 1177.7746223588572 63.15712064958265 L 1177.751999590561 63.2644464067593 L 1177.7270038171225 63.371664532088516 L 1177.6996375380986 63.47876430384712 L 1177.669903490094 63.58573501214718 L 1177.6378046464888 63.692565960007016 L 1177.6033442171406 63.79924646442086 L 1177.5665256480638 63.90576585742718 L 1177.5273526210847 64.01211348717543 L 1177.4858290534728 64.11827871899126 L 1177.4419590975508 64.22425093643996 L 1177.3957471402775 64.3300195423881 L 1177.3471978028101 64.43557396006322 L 1177.2963159400422 64.54090363411153 L 1177.243106640117 64.64599803165338 L 1177.187575223921 64.75084664333659 L 1177.129727244549 64.85543898438739 L 1177.0695684867508 64.95976459565881 L 1177.007104966352 65.06381304467668 L 1176.942342929653 65.16757392668278 L 1176.875288852803 65.27103686567541 L 1176.8059494411539 65.37419151544687 L 1176.7343316285894 65.47702756061814 L 1176.6604425768307 65.5795347176704 L 1176.5842896747215 65.68170273597339 L 1176.5058805374888 65.7835213988104 L 1176.4252230059808 65.88498052439998 L 1176.3423251458833 65.98606996691414 L 1176.2571952469134 66.08677961749288 L 1176.16984182199 66.18709940525505 L 1176.080273606383 66.28701929830548 L 1175.9884995568386 66.38652930473813 L 1175.8945288506864 66.48561947363528 L 1175.7983708849179 66.58427989606261 L 1175.7000352752495 66.6825007060601 L 1175.5995318551609 66.7802720816286 L 1175.4968706749096 66.87758424571203 L 1175.3920620005285 66.97442746717506 L 1175.2851163127978 67.07079206177627 L 1175.176044306197 67.1666683931365 L 1175.0648568878355 67.2620468737025 L 1174.951565176363 67.35691796570569 L 1174.836180500856 67.45127218211596 L 1174.718714399686 67.54510008759026 L 1174.5991786193651 67.63839229941624 L 1174.4775851133718 67.73113948845047 L 1174.3539460409554 67.82333238005134 L 1174.22827376592 67.9149617550065 L 1174.1005808553884 68.00601845045483 L 1173.9708800785456 68.09649336080267 L 1173.8391844053606 68.18637743863435 L 1173.7055070052913 68.27566169561702 L 1173.5698612459664 68.36433720339936 L 1173.4322606918486 68.45239509450451 L 1173.2927191028787 68.53982656321674 L 1173.1512504330994 68.62662286646201 L 1173.0078688292597 68.71277532468237 L 1172.8625886294003 68.79827532270376 L 1172.7154243614207 68.88311431059763 L 1172.5663907416244 68.9672838045359 L 1172.4155026732496 69.0507753876393 L 1172.2627752449773 69.13358071081912 L 1172.108223729423 69.21569149361203 L 1171.9518635816094 69.29709952500816 L 1171.7937104374212 69.37779666427225 L 1171.633780112041 69.45777484175761 L 1171.4720885983677 69.53702605971311 L 1171.3086520654183 69.61554239308303 L 1171.1434868567098 69.69331599029945 L 1170.9766094886256 69.77033907406746 L 1170.8080366487632 69.84660394214286 L 1170.637785194266 69.92210296810242 L 1170.4658721501378 69.99682860210643 L 1170.2923147075398 70.07077337165379 L 1170.1171302220714 70.14392988232913 L 1169.9403362120354 70.21629081854239 L 1169.7619503566852 70.28784894426022 L 1169.581990494458 70.35859710372968 L 1169.40047462119 70.42852822219379 L 1169.217420888317 70.49763530659898 L 1169.03284760106 70.5659114462944 L 1168.8467732165939 70.63334981372294 L 1168.659216342202 70.69994366510412 L 1168.4701957334153 70.76568634110825 L 1168.2797302921374 70.83057126752253 L 1168.0878390647536 70.89459195590838 L 1167.8945412402268 70.95774200425032 L 1167.6998561481782 71.02001509759614 L 1167.503803256955 71.08140500868842 L 1167.306402171683 71.14190559858717 L 1167.1076726323058 71.20151081728383 L 1166.907634511612 71.26021470430622 L 1166.7063078132471 71.31801138931453 L 1166.503712669713 71.37489509268845 L 1166.2998693403554 71.43086012610503 L 1166.094798209337 71.48590089310757 L 1165.8885197836003 71.54001188966522 L 1165.681054690816 71.59318770472345 L 1165.4724236773202 71.64542302074504 L 1165.2626476060407 71.69671261424193 L 1165.0517474544097 71.7470513562975 L 1164.8397443122667 71.79643421307951 L 1164.626659379749 71.84485624634341 L 1164.4125139651726 71.89231261392625 L 1164.1973294829004 71.93879857023082 L 1163.9811274512012 71.9843094667002 L 1163.763929490098 72.02884075228269 L 1163.545757319206 72.07238797388683 L 1163.3266327555605 72.11494677682676 L 1163.1065777114352 72.15651290525764 L 1162.885614192151 72.19708220260128 L 1162.663764293876 72.23665061196175 L 1162.441050201415 72.27521417653107 L 1162.2174941859917 72.31276903998494 L 1161.993118603021 72.3493114468683 L 1161.7679458898747 72.38483774297092 L 1161.5419985636363 72.41934437569277 L 1161.3152992188502 72.45282789439938 L 1161.0878705252617 72.48528495076673 L 1160.859735225551 72.51671229911628 L 1160.6309161330576 72.54710679673934 L 1160.4014361295003 72.5764654042115 L 1160.1713181626883 72.60478518569649 L 1159.9405852442262 72.63206330923974 L 1159.7092604472139 72.65829704705163 L 1159.477366903938 72.68348377578025 L 1159.24492780356 72.70762097677371 L 1159.0119663897958 72.73070623633201 L 1158.7785059585929 72.75273724594847 L 1158.5445698557999 72.77371180254045 L 1158.310181474832 72.79362780866978 L 1158.075364254332 72.81248327275246 L 1157.8401416758263 72.83027630925778 L 1157.6045372613767 72.84700513889692 L 1157.3685745712285 72.86266808880085 L 1157.1322772014537 72.87726359268764 L 1156.8956687815926 72.89079019101906 L 1156.65877297229 72.90324653114655 L 1156.4216134629296 72.91463136744649 L 1156.1842139692644 72.9249435614447 L 1155.946598231046 72.93418208193043 L 1155.7087900096503 72.94234600505929 L 1155.4708130857014 72.94943451444577 L 1155.232691256693 72.95544690124485 L 1154.9944483346096 72.96038256422287 L 1154.7561081435454 72.96424100981763 L 1154.5176945173203 72.9670218521878 L 1154.2792312970987 72.96872481325143 L 1154.0407423290035 72.96934972271386 L 1153.802251461733 72.96889651808466 L 1153.5637825441752 72.96736524468392 L 1153.325359423023 72.96475605563768 L 1153.0870059403899 72.96106921186271 L 1152.8487459314256 72.95630508204027 L 1152.6106032219323 72.9504641425794 L 1152.3726016259825 72.94354697756918 L 1152.1347649435377 72.93555427872033 L 1151.8971169580677 72.9264868452961 L 1151.6596814341733 72.91634558403224 L 1151.4224821152086 72.90513150904647 L 1151.1855427209082 72.89284574173689 L 1150.9488869450138 72.87948951067006 L 1150.712538452906 72.86506415145789 L 1150.4765208792371 72.84957110662431 L 1150.2408578255674 72.8330119254609 L 1150.0055728580064 72.81538826387197 L 1149.7706895048543 72.79670188420899 L 1149.536231254251 72.77695465509434 L 1149.302221551826 72.7561485512345 L 1149.0686837983549 72.73428565322251 L 1148.8356413474178 72.71136814732996 L 1148.6031175030662 72.68739832528833 L 1148.3711355174903 72.66237858405984 L 1148.1397185886956 72.63631142559778 L 1147.9088898581822 72.60919945659627 L 1147.6786724086305 72.58104538822961 L 1147.449089261594 72.55185203588118 L 1147.2201633751959 72.5216223188619 L 1146.9919176418339 72.49035926011825 L 1146.7643748858911 72.45806598593009 L 1146.537557861454 72.4247457255979 L 1146.3114892500353 72.39040181111994 L 1146.0861916583083 72.35503767685907 L 1145.8616876158444 72.31865685919922 L 1145.6379995728605 72.28126299619186 L 1145.4151498979745 72.24285982719209 L 1145.1931608759685 72.20345119248485 L 1144.9720547055592 72.16304103290075 L 1144.75185349718 72.12163338942209 L 1144.5325792707677 72.07923240277869 L 1144.3142539535625 72.03584231303388 L 1144.0968993779143 71.99146745916049 L 1143.8805372790991 71.94611227860693 L 1143.6651892931468 71.89978130685344 L 1143.4508769546765 71.85247917695861 L 1143.2376216947434 71.80421061909601 L 1143.0254448386959 71.75498046008119 L 1142.8143676040427 71.70479362288901 L 1142.6044110983314 71.65365512616141 L 1142.3955963170374 71.60157008370541 L 1142.187944141465 71.54854370398188 L 1141.9814753366588 71.49458128958457 L 1141.7762105493273 71.43968823671 L 1141.5721703057777 71.38387003461766 L 1141.3693750098648 71.32713226508127 L 1141.1678449409492 71.26948060183051 L 1140.9676002518693 71.21092080998365 L 1140.7686609669279 71.15145874547107 L 1140.5710469798871 71.0911003544497 L 1140.3747780519811 71.0298516727083 L 1140.1798738099394 70.96771882506403 L 1139.9863537440233 70.90470802474988 L 1139.7942372060786 70.84082557279336 L 1139.6035434075989 70.77607785738643 L 1139.4142914178049 70.71047135324669 L 1139.226500161738 70.64401262096986 L 1139.0401884183673 70.5767083063738 L 1138.8553748187119 70.50856513983389 L 1138.6720778439778 70.43958993560999 L 1138.4903158237096 70.36978959116503 L 1138.310106933958 70.29917108647531 L 1138.1314691954617 70.22774148333244 L 1137.9544204718459 70.1555079246372 L 1137.778978467835 70.08247763368529 L 1137.6051607274835 70.00865791344492 L 1137.4329846324206 69.9340561458266 L 1137.2624674001124 69.85867979094495 L 1137.0936260821397 69.78253638637263 L 1136.9264775624938 69.70563354638664 L 1136.7610385558874 69.62797896120689 L 1136.5973256060834 69.54958039622719 L 1136.43535508424 69.47044569123871 L 1136.2751431872746 69.39058275964601 L 1136.1167059362435 69.30999958767568 L 1135.9600591747399 69.22870423357777 L 1135.8052185673089 69.14670482681996 L 1135.6521995978826 69.06400956727457 L 1135.5010175682303 68.98062672439866 L 1135.351687596429 68.89656463640702 L 1135.2042246153514 68.8118317094384 L 1135.058643371173 68.72643641671489 L 1134.9149584218965 68.6403872976946 L 1134.7731841358973 68.55369295721772 L 1134.6333346904858 68.46636206464606 L 1134.4954240704901 68.37840335299609 L 1134.359466066857 68.28982561806569 L 1134.225474275274 68.20063771755453 L 1134.0934620948083 68.11084857017835 L 1133.963442726568 68.02046715477704 L 1133.8354291723815 67.92950250941684 L 1133.7094342334976 67.83796373048648 L 1133.5854705093052 67.74585997178757 L 1133.4635503960735 67.65320044361923 L 1133.343686085712 67.55999441185705 L 1133.225889564552 67.46625119702654 L 1133.1101726121476 67.37198017337107 L 1132.9965468000976 67.27719076791445 L 1132.885023490888 67.18189245951821 L 1132.7756138367574 67.08609477793381 L 1132.6683287785797 66.98980730284956 L 1132.5631790447715 66.89303966293272 L 1132.4601751502184 66.79580153486665 L 1132.3593273952242 66.69810264238313 L 1132.26064586448 66.59995275528999 L 1132.1641404260572 66.50136168849414 L 1132.0698207304185 66.40233930102012 L 1131.9776962094556 66.30289549502413 L 1131.8877760755436 66.20304021480393 L 1131.8000693206204 66.1027834458043 L 1131.7145847152892 66.00213521361863 L 1131.6313308079389 65.90110558298623 L 1131.550315923891 65.799704656786 L 1131.4715481645662 65.69794257502603 L 1131.3950354066749 65.59582951382973 L 1131.3207853014292 65.4933756844181 L 1131.2488052737774 65.3905913320887 L 1131.1791025216628 65.28748673519112 L 1131.1116840153022 65.18407220409914 L 1131.0465564964902 65.08035808017966 L 1130.9837264779244 64.97635473475869 L 1130.9232002425542 64.87207256808405 L 1130.8649838429528 64.76752200828555 L 1130.8090831007114 64.66271351033203 L 1130.755503605858 64.55765755498592 L 1130.7042507162973 64.45236464775525 L 1130.6553295572753 64.34684531784296 L 1130.6087450208677 64.24111011709415 L 1130.5645017654886 64.13516961894075 L 1130.5226042154272 64.0290344173443 L 1130.4830565604034 63.92271512573653 L 1130.4458627551498 63.81622237595798 L 1130.4110265190159 63.70956681719489 L 1130.3785513355963 63.602759114914264 L 1130.3484404523822 63.49580994979732 L 1130.320696880437 63.38873001667144 L 1130.2953233940946 63.28153002344071 L 1130.2723225306827 63.17422069001512 L 1130.2516965902682 63.066812747238586 L 1130.233447635428 62.959316935815885 L 1130.2175774910427 62.85174400523857 L 1130.2040877441132 62.74410471271006 L 1130.192979743603 62.636409822069915 L 1130.184254600303 62.52867010271744 L 1130.17791318672 62.4208963285348 L 1130.1739561369902 62.313099276809595 L 1130.1723838468156 62.20528972715717 L 1130.1731964734236 62.09747846044265 L 1130.1763939355521 61.98967625770286 L 1130.1819759134578 61.88189389906824 L 1130.1899418489475 61.77414216268484 L 1130.2002909454343 61.66643182363649 L 1130.213022168017 61.558773652867366 L 1130.2281342435842 61.4511784161048 L 1130.2456256609407 61.34365687278283 L 1130.2654946709595 61.236219774966166 L 1130.2877392867563 61.12887786627507 L 1130.3123572838876 61.02164188081096 L 1130.3393462005747 60.91452254208302 L 1130.368703337948 60.807530561935856 L 1130.4004257603185 60.70067663947832 L 1130.4345102954703 60.593971460013606 L 1130.4709535349784 60.487425693970756 L 1130.5097518345492 60.381049995837586 L 1130.5509013143849 60.27485500309525 L 1130.594397859572 60.16885133515453 L 1130.640237120492 60.06304959229389 L 1130.6884145132572 59.95746035459945 L 1130.7389252201683 59.852094180906974 L 1130.791764190197 59.746961607746044 L 1130.84692613949 59.64207314828636 L 1130.9044055518987 59.537439291286454 L 1130.9641966795296 59.43307050004484 L 1131.0262935433195 59.32897721135367 L 1131.090689933634 59.22516983445505 L 1131.1573794108876 59.12165875000019 L 1131.2263553061885 59.01845430901127 L 1131.2976107220043 58.91556683184637 L 1131.371138532853 58.81300660716748 L 1131.4469313860145 58.7107838909116 L 1131.524981702267 58.60890890526517 L 1131.6052816766437 58.507391837641855 L 1131.6878232792142 58.406242839663825 L 1131.772598255887 58.30547202614659 L 1131.8595981292349 58.205089474087515 L 1131.9488141993434 58.105105221658164 L 1132.0402375446793 58.00552926720046 L 1132.1338590229848 57.90637156822687 L 1132.22966927219 57.807642040424646 L 1132.3276587113496 57.709350556664305 L 1132.4278175416014 57.61150694601232 L 1132.5301357471458 57.514120992748204 L 1132.6346030962477 57.417202435386145 L 1132.741209142259 57.320760965701105 L 1132.8499432246645 57.224806227759686 L 1132.9607944701459 57.12934781695572 L 1133.0737517936711 57.03439527905074 L 1133.1888038996021 56.93995810921942 L 1133.3059392828243 56.84604575110002 L 1133.4251462298969 56.75266759585011 L 1133.5464128202243 56.65983298120741 L 1133.6697269272486 56.567551190555996 L 1133.7950762196622 56.47583145199805 L 1133.9224481626397 56.384682937430995 L 1134.0518300190936 56.29411476163032 L 1134.1832088509457 56.20413598133814 L 1134.3165715204223 56.1147555943575 L 1134.4519046913676 56.02598253865261 L 1134.5891948305775 55.937825691455075 L 1134.7284282091523 55.85029386837614 L 1134.8695909038702 55.763395822525176 L 1135.0126687985794 55.677140243634355 L 1135.1576475856095 55.591535757189675 L 1135.3045127672028 55.50659092356846 L 1135.4532496569634 55.42231423718327 L 1135.6038433813264 55.33871412563253 L 1135.7562788810446 55.25579894885771 L 1135.9105409126955 55.1735769983074 L 1136.0666140502042 55.092056496108135 L 1136.224482686387 55.01124559424221 L 1136.384131034512 54.93115237373246 L 1136.5455431298772 54.851784843834196 L 1136.7087028314074 54.77315094123426 L 1136.8735938232692 54.6952585292574 L 1137.0401996165 54.61811539707989 L 1137.2085035506598 54.54172925895067 L 1137.378488795495 54.46610775341989 L 1137.5501383526234 54.391258442575094 L 1137.7234350572317 54.317188811284986 L 1137.8983615797943 54.24390626645098 L 1138.0749004278043 54.171418136266475 L 1138.2530339475245 54.09973166948409 L 1138.432744325751 54.028854034690774 L 1138.614013591596 53.95879231959093 L 1138.7968236182837 53.88955353029769 L 1138.981156124964 53.82114459063227 L 1139.1669926785396 53.753572341431656 L 1139.35431469551 53.68684353986444 L 1139.5431034438302 53.62096485875517 L 1139.733340044782 53.55594288591707 L 1139.925005474864 53.49178412349323 L 1140.1180805676931 53.42849498730643 L 1140.3125460159208 53.366081806217544 L 1140.5083823731643 53.304550821492676 L 1140.7055700559513 53.24390818617902 L 1140.9040893456774 53.18415996448957 L 1141.1039203905793 53.12531213119671 L 1141.3050432077193 53.067370571034715 L 1141.507437684983 53.01034107811134 L 1141.711083583091 52.95422935532834 L 1141.915960537624 52.89904101381123 L 1142.1220480610566 52.84478157234818 L 1142.3293255448086 52.79145645683812 L 1142.537772261304 52.73907099974815 L 1142.7473673660452 52.687630439580346 L 1142.9580898996962 52.637139920347835 L 1143.1699187901793 52.58760449106049 L 1143.3828328547818 52.53902910521993 L 1143.5968108022748 52.49141862032429 L 1143.811831235042 52.444777797382365 L 1144.0278726512192 52.399111300437596 L 1144.244913446845 52.354423696101605 L 1144.46293191802 52.3107194530976 L 1144.6819062630798 52.26800294181345 L 1144.9018145847715 52.2262784338647 L 1145.1226348924467 52.18555010166736 L 1145.3443451042583 52.14582201802072 L 1145.5669230493702 52.10709815570004 L 1145.7903464701733 52.06938238705927 L 1146.0145930245114 52.032678483643856 L 1146.2396402879165 51.996990115813546 L 1146.4654657558492 51.96232085237539 L 1146.6920468459512 51.928674160226834 L 1146.9193609003023 51.89605340400906 L 1147.1473851876865 51.8644618457705 L 1147.3760969058649 51.833902644640645 L 1147.6054731838565 51.80437885651416 L 1147.8354910842245 51.775893433745246 L 1148.0661276053706 51.74844922485244 L 1148.297359683835 51.722048974233765 L 1148.5291641966026 51.69669532189228 L 1148.761517963415 51.672390803172085 L 1148.994397749089 51.649137848504814 L 1149.2277802658407 51.626938783166544 L 1149.4616421756123 51.60579582704531 L 1149.695960092408 51.58571109441911 L 1149.9307105846317 51.56668659374447 L 1150.1658701774293 51.54872422745561 L 1150.4014153550377 51.53182579177417 L 1150.6373225631353 51.515992976529645 L 1150.873568211198 51.50122736499037 L 1151.1101286748578 51.4875304337052 L 1151.3469802982656 51.47490355235584 L 1151.5840993964562 51.4633479836199 L 1151.8214622577177 51.45286488304463 L 1152.0590451459614 51.443455298931354 L 1152.2968243030969 51.43512017223063 L 1152.5347759514061 51.4278603364482 L 1152.772876295923 51.42167651756158 L 1153.011101526811 51.41656933394751 L 1153.249427821746 51.41253929632009 L 1153.487831348297 51.40958680767973 L 1153.72628826631 51.407712163272826 L 1153.9647747302918 51.40691555056227 L 1154.2032668917948 51.40719704920866 L 1154.4417409018017 51.40855663106237 L 1154.68017291311 51.41099416016634 L 1154.9185390827174 51.414509392769695 L 1155.156815574206 51.419101977352106 L 1155.3949785601242 51.42477145465894 L 1155.6330042243728 51.431517257747196 L 1155.8708687645833 51.43933871204218 L 1156.1085483945 51.44823503540498 L 1156.346019346358 51.45820533821068 L 1156.58325787326 51.4692486234373 L 1156.820240251551 51.48136378676553 L 1157.0569427831906 51.49454961668913 L 1157.2933417981228 51.50880479463608 L 1157.5294136566433 51.524127895100484 L 1157.765134751763 51.54051738578506 L 1158.0004815115688 51.5579716277544 L 1158.2354304015805 51.57648887559884 L 1158.4699579271055 51.59606727760904 L 1158.7040406355861 51.6167048759611 L 1158.9376551189469 51.6383996069124 L 1159.170778015934 51.66114930100791 L 1159.403386014452 51.684951683297186 L 1159.635455853895 51.70980437356183 L 1159.8669643274727 51.735704886553535 L 1160.09788828453 51.76265063224257 L 1160.3282046328643 51.79063891607683 L 1160.5578903410321 51.81966693925126 L 1160.7869224406545 51.849731798987726 L 1161.0152780287121 51.88083048882531 L 1161.2429342698367 51.91295989892094 L 1161.4698683985935 51.94611681636038 L 1161.696057721759 51.980297925479526 L 1161.921479620589 52.01549980819594 L 1162.1461115530822 52.0517189443507 L 1162.3699310562317 52.08895171206036 L 1162.5929157482742 52.127194388079175 L 1162.8150433309263 52.16644314817141 L 1163.0362915916148 52.20669406749378 L 1163.256638405698 52.247943120987884 L 1163.4760617386778 52.29018618378274 L 1163.6945396484043 52.33341903160728 L 1163.9120502872681 52.37763734121275 L 1164.128571904387 52.422836690805035 L 1164.3440828477794 52.46901256048684 L 1164.5585615665307 52.516160332709674 L 1164.7719866129476 52.564275292735616 L 1164.9843366447035 52.613352629108746 L 1165.195590426972 52.663387434136325 L 1165.4057268345514 52.71437470437956 L 1165.6147248539755 52.7663093411539 L 1165.8225635856165 52.819186151038956 L 1166.029222245775 52.8729998463978 L 1166.2346801687565 52.92774504590574 L 1166.4389168089406 52.983416275088445 L 1166.641911742833 53.040007966869396 L 1166.8436446711096 53.09751446212657 L 1167.0440954206456 53.15593001025836 L 1167.2432439465333 53.21524876975863 L 1167.441070334086 53.27546480880087 L 1167.6375548008295 53.33657210583136 L 1167.8326776984811 53.3985645501713 L 1168.0264195149139 53.461435942627936 L 1168.2187608761074 53.52517999611441 L 1168.4096825480858 53.58979033627848 L 1168.599165438841 53.655260502139996 L 1168.787190600242 53.721583946736914 L 1168.973739229929 53.78875403778004 L 1169.1587926731947 53.85676405831625 L 1169.342332424849 53.92560720740017 L 1169.5243401310697 53.995276600774254 L 1169.7047975912376 54.065765271557225 L 1169.8836867597574 54.13706617094075 L 1170.0609897478614 54.2091721688943 L 1170.236688825398 54.28207605487816 L 1170.4107664226065 54.35577053856451 L 1170.5832051318716 54.43024825056637 L 1170.7539877094666 54.50550174317461 L 1170.923097077276 54.581523491102686 L 1171.0905163245036 54.658305892239156 L 1171.2562287093644 54.73584126840789 L 1171.4202176607582 54.81412186613588 L 1171.582466779926 54.89313985742859 L 1171.7429598420918 54.97288734055273 L 1171.9016807980825 55.05335634082646 L 1172.058613775935 55.1345388114168 L 1172.2137430824826 55.21642663414435 L 1172.3670532049232 55.29901162029506 L 1172.518528812373 55.38228551143916 L 1172.6681547573971 55.46623998025691 L 1172.815916077526 55.55086663137139 L 1172.9617979967504 55.63615700218803 L 1173.1057859270004 55.722102563740805 L 1173.2478654696024 55.80869472154519 L 1173.3880224167212 55.89592481645755 L 1173.5262427527784 55.98378412554111 L 1173.6625126558558 56.07226386293816 L 1173.7968184990766 56.1613551807487 L 1173.9291468519684 56.251049169915184 L 1174.059484481806 56.34133686111345 L 1174.1878183549354 56.4322092256496 L 1174.314135638076 56.52365717636293 L 1174.4384236996048 56.615671568534566 L 1174.5606701108193 56.70824320080196 L 1174.68086264718 56.80136281607904 L 1174.7989892895334 56.89502110248188 L 1174.9150382253142 56.98920869425987 L 1175.028997849725 57.083916172732344 L 1175.1408567668987 57.17913406723036 L 1175.2506037910366 57.27485285604382 L 1175.3582279475277 57.37106296737362 L 1175.4637184740461 57.467754780288786 L 1175.5670648216274 57.56491862568861 L 1175.6682566557222 57.662544787269525 L 1175.767283857232 57.76062350249672 L 1175.8641365235192 57.859144963580405 L 1175.9588049693975 57.95809931845658 L 1176.0512797281015 58.05747667177222 L 1176.1415515522322 58.15726708587479 L 1176.2296114146825 58.257460581806065 L 1176.3154505095397 58.358047140299924 L 1176.3990602529655 58.459016702784346 L 1176.4804322840555 58.56035917238722 L 1176.5595584656744 58.66206441494605 L 1176.6364308852699 58.764122260021324 L 1176.711041855664 58.866522501913586 L 1176.783383915822 58.96925490068398 L 1176.8534498315983 59.072309183178234 L 1176.9212325964593 59.17567504405398 L 1176.9867254321853 59.279342146811274 L 1177.0499217895472 59.38330012482622 L 1177.1108153489618 59.48753858238766 L 1177.1694000211241 59.59204709573668 L 1177.2256699476159 59.69681521410906 L 1177.2796195014912 59.80183246078026 L 1177.3312432878392 59.907088334113126 L 1177.380536144325 60.012572308608036 L 1177.4274931417035 60.11827383595545 L 1177.4721095843145 60.22418234609071 L 1177.5143810105506 60.33028724825106 L 1177.5543031933043 60.43657793203471 L 1177.591872140391 60.54304376846186 L 1177.6270840949471 60.64967411103757 L 1177.6599355358064 60.75645829681646 L 1177.6904231778522 60.86338564746893 L 1177.718543972346 60.97044547034902 L 1177.7442951072314 61.07762705956367 L 1177.7676740074164 61.184919697043256 L 1177.788678335031 61.29231265361346 L 1177.807305989659 61.399795190068104 L 1177.8235551085513 61.50735655824312 L 1177.8374240668093 61.614986002091314 L 1177.8489114775484 61.72267275875801 L 1177.8580161920377 61.830406059657264 L 1177.8647372998128 61.93817513154877 L 1177.869074128769 62.04596919761514 L 1177.8710262452264 62.15377747853961 M 1177.8711472352825 96.4920458931 L 1177.8699547753788 96.59985643801662 L 1177.8663775149128 96.70765620196859 L 1177.8604158116073 96.81543440506935 L 1177.8520702616281 96.9231802695884 L 1177.841341699523 97.03088302102908 L 1177.828231198139 97.138531889206 L 1177.8127400685157 97.24611610932205 L 1177.7948698597531 97.35362492304485 L 1177.7746223588572 97.46104757958265 L 1177.751999590561 97.5683733367593 L 1177.7270038171225 97.67559146208852 L 1177.6996375380986 97.78269123384712 L 1177.669903490094 97.88966194214719 L 1177.6378046464888 97.99649289000702 L 1177.6033442171406 98.10317339442086 L 1177.5665256480638 98.20969278742717 L 1177.5273526210847 98.31604041717543 L 1177.4858290534728 98.42220564899125 L 1177.4419590975508 98.52817786643996 L 1177.3957471402775 98.6339464723881 L 1177.3471978028101 98.73950089006323 L 1177.2963159400422 98.84483056411152 L 1177.243106640117 98.94992496165337 L 1177.187575223921 99.05477357333659 L 1177.129727244549 99.15936591438738 L 1177.0695684867508 99.2636915256588 L 1177.007104966352 99.36773997467667 L 1176.942342929653 99.47150085668278 L 1176.875288852803 99.5749637956754 L 1176.8059494411539 99.67811844544686 L 1176.7343316285894 99.78095449061813 L 1176.6604425768307 99.8834616476704 L 1176.5842896747215 99.98562966597338 L 1176.5058805374888 100.08744832881038 L 1176.4252230059808 100.18890745439998 L 1176.3423251458833 100.28999689691415 L 1176.2571952469134 100.39070654749288 L 1176.16984182199 100.49102633525506 L 1176.080273606383 100.59094622830548 L 1175.9884995568386 100.69045623473812 L 1175.8945288506864 100.78954640363527 L 1175.7983708849179 100.8882068260626 L 1175.7000352752495 100.9864276360601 L 1175.5995318551609 101.0841990116286 L 1175.4968706749096 101.18151117571202 L 1175.3920620005285 101.27835439717506 L 1175.2851163127978 101.37471899177628 L 1175.176044306197 101.4705953231365 L 1175.0648568878355 101.56597380370249 L 1174.951565176363 101.6608448957057 L 1174.836180500856 101.75519911211595 L 1174.718714399686 101.84902701759025 L 1174.5991786193651 101.94231922941623 L 1174.4775851133718 102.03506641845047 L 1174.3539460409554 102.12725931005133 L 1174.22827376592 102.2188886850065 L 1174.1005808553884 102.30994538045483 L 1173.9708800785456 102.40042029080266 L 1173.8391844053606 102.49030436863434 L 1173.7055070052913 102.579588625617 L 1173.5698612459664 102.66826413339936 L 1173.4322606918486 102.75632202450451 L 1173.2927191028787 102.84375349321674 L 1173.1512504330994 102.93054979646202 L 1173.0078688292597 103.01670225468237 L 1172.8625886294003 103.10220225270375 L 1172.7154243614207 103.18704124059762 L 1172.5663907416244 103.27121073453588 L 1172.4155026732496 103.3547023176393 L 1172.2627752449773 103.4375076408191 L 1172.108223729423 103.51961842361202 L 1171.9518635816094 103.60102645500817 L 1171.7937104374212 103.68172359427226 L 1171.633780112041 103.7617017717576 L 1171.4720885983677 103.84095298971312 L 1171.3086520654183 103.91946932308304 L 1171.1434868567098 103.99724292029944 L 1170.9766094886256 104.07426600406745 L 1170.8080366487632 104.15053087214287 L 1170.637785194266 104.22602989810241 L 1170.4658721501378 104.30075553210642 L 1170.2923147075398 104.37470030165377 L 1170.1171302220714 104.44785681232914 L 1169.9403362120354 104.52021774854238 L 1169.7619503566852 104.59177587426021 L 1169.581990494458 104.66252403372968 L 1169.40047462119 104.73245515219378 L 1169.217420888317 104.80156223659897 L 1169.03284760106 104.86983837629438 L 1168.8467732165939 104.93727674372295 L 1168.659216342202 105.0038705951041 L 1168.4701957334153 105.06961327110824 L 1168.2797302921374 105.13449819752252 L 1168.0878390647536 105.19851888590837 L 1167.8945412402268 105.26166893425032 L 1167.6998561481782 105.32394202759615 L 1167.503803256955 105.38533193868841 L 1167.306402171683 105.44583252858716 L 1167.1076726323058 105.50543774728384 L 1166.907634511612 105.56414163430621 L 1166.7063078132471 105.62193831931454 L 1166.503712669713 105.67882202268845 L 1166.2998693403554 105.73478705610502 L 1166.094798209337 105.78982782310756 L 1165.8885197836003 105.84393881966523 L 1165.681054690816 105.89711463472344 L 1165.4724236773202 105.94934995074503 L 1165.2626476060407 106.00063954424192 L 1165.0517474544097 106.0509782862975 L 1164.8397443122667 106.1003611430795 L 1164.626659379749 106.14878317634341 L 1164.4125139651726 106.19623954392625 L 1164.1973294829004 106.2427255002308 L 1163.9811274512012 106.2882363967002 L 1163.763929490098 106.33276768228268 L 1163.545757319206 106.37631490388682 L 1163.3266327555605 106.41887370682676 L 1163.1065777114352 106.46043983525765 L 1162.885614192151 106.50100913260128 L 1162.663764293876 106.54057754196174 L 1162.441050201415 106.57914110653107 L 1162.2174941859917 106.61669596998493 L 1161.993118603021 106.65323837686829 L 1161.7679458898747 106.6887646729709 L 1161.5419985636363 106.72327130569276 L 1161.3152992188502 106.75675482439937 L 1161.0878705252617 106.78921188076673 L 1160.859735225551 106.82063922911627 L 1160.6309161330576 106.85103372673933 L 1160.4014361295003 106.8803923342115 L 1160.1713181626883 106.90871211569649 L 1159.9405852442262 106.93599023923973 L 1159.7092604472139 106.96222397705162 L 1159.477366903938 106.98741070578025 L 1159.24492780356 107.0115479067737 L 1159.0119663897958 107.03463316633201 L 1158.7785059585929 107.05666417594847 L 1158.5445698557999 107.07763873254045 L 1158.310181474832 107.09755473866979 L 1158.075364254332 107.11641020275246 L 1157.8401416758263 107.13420323925777 L 1157.6045372613767 107.1509320688969 L 1157.3685745712285 107.16659501880085 L 1157.1322772014537 107.18119052268763 L 1156.8956687815926 107.19471712101905 L 1156.65877297229 107.20717346114655 L 1156.4216134629296 107.21855829744648 L 1156.1842139692644 107.22887049144471 L 1155.946598231046 107.23810901193042 L 1155.7087900096503 107.24627293505928 L 1155.4708130857014 107.25336144444577 L 1155.232691256693 107.25937383124486 L 1154.9944483346096 107.26430949422287 L 1154.7561081435454 107.26816793981763 L 1154.5176945173203 107.27094878218779 L 1154.2792312970987 107.27265174325143 L 1154.0407423290035 107.27327665271386 L 1153.802251461733 107.27282344808465 L 1153.5637825441752 107.27129217468391 L 1153.325359423023 107.26868298563768 L 1153.0870059403899 107.2649961418627 L 1152.8487459314256 107.26023201204026 L 1152.6106032219323 107.2543910725794 L 1152.3726016259825 107.24747390756917 L 1152.1347649435377 107.23948120872033 L 1151.8971169580677 107.23041377529609 L 1151.6596814341733 107.22027251403225 L 1151.4224821152086 107.20905843904646 L 1151.1855427209082 107.1967726717369 L 1150.9488869450138 107.18341644067004 L 1150.712538452906 107.16899108145788 L 1150.4765208792371 107.15349803662431 L 1150.2408578255674 107.1369388554609 L 1150.0055728580064 107.11931519387196 L 1149.7706895048543 107.10062881420897 L 1149.536231254251 107.08088158509435 L 1149.302221551826 107.0600754812345 L 1149.0686837983549 107.03821258322252 L 1148.8356413474178 107.01529507732995 L 1148.6031175030662 106.99132525528832 L 1148.3711355174903 106.96630551405984 L 1148.1397185886956 106.94023835559778 L 1147.9088898581822 106.91312638659626 L 1147.6786724086305 106.88497231822961 L 1147.449089261594 106.85577896588119 L 1147.2201633751959 106.8255492488619 L 1146.9919176418339 106.79428619011826 L 1146.7643748858911 106.76199291593008 L 1146.537557861454 106.72867265559789 L 1146.3114892500353 106.69432874111995 L 1146.0861916583083 106.65896460685907 L 1145.8616876158444 106.62258378919921 L 1145.6379995728605 106.58518992619184 L 1145.4151498979745 106.5467867571921 L 1145.1931608759685 106.50737812248485 L 1144.9720547055592 106.46696796290075 L 1144.75185349718 106.42556031942208 L 1144.5325792707677 106.38315933277867 L 1144.3142539535625 106.33976924303387 L 1144.0968993779143 106.29539438916049 L 1143.8805372790991 106.25003920860692 L 1143.6651892931468 106.20370823685344 L 1143.4508769546765 106.15640610695861 L 1143.2376216947434 106.108137549096 L 1143.0254448386959 106.05890739008117 L 1142.8143676040427 106.00872055288902 L 1142.6044110983314 105.9575820561614 L 1142.3955963170374 105.90549701370541 L 1142.187944141465 105.85247063398188 L 1141.9814753366588 105.79850821958458 L 1141.7762105493273 105.74361516670999 L 1141.5721703057777 105.68779696461766 L 1141.3693750098648 105.63105919508126 L 1141.1678449409492 105.5734075318305 L 1140.9676002518693 105.51484773998365 L 1140.7686609669279 105.45538567547108 L 1140.5710469798871 105.3950272844497 L 1140.3747780519811 105.33377860270829 L 1140.1798738099394 105.27164575506403 L 1139.9863537440233 105.20863495474987 L 1139.7942372060786 105.14475250279335 L 1139.6035434075989 105.08000478738643 L 1139.4142914178049 105.01439828324668 L 1139.226500161738 104.94793955096986 L 1139.0401884183673 104.8806352363738 L 1138.8553748187119 104.8124920698339 L 1138.6720778439778 104.74351686560999 L 1138.4903158237096 104.67371652116503 L 1138.310106933958 104.6030980164753 L 1138.1314691954617 104.53166841333243 L 1137.9544204718459 104.4594348546372 L 1137.778978467835 104.38640456368528 L 1137.6051607274835 104.31258484344491 L 1137.4329846324206 104.2379830758266 L 1137.2624674001124 104.16260672094495 L 1137.0936260821397 104.08646331637262 L 1136.9264775624938 104.00956047638662 L 1136.7610385558874 103.93190589120688 L 1136.5973256060834 103.85350732622719 L 1136.43535508424 103.77437262123871 L 1136.2751431872746 103.694509689646 L 1136.1167059362435 103.61392651767568 L 1135.9600591747399 103.53263116357778 L 1135.8052185673089 103.45063175681996 L 1135.6521995978826 103.36793649727457 L 1135.5010175682303 103.28455365439865 L 1135.351687596429 103.20049156640701 L 1135.2042246153514 103.1157586394384 L 1135.058643371173 103.03036334671489 L 1134.9149584218965 102.94431422769459 L 1134.7731841358973 102.85761988721772 L 1134.6333346904858 102.77028899464605 L 1134.4954240704901 102.68233028299609 L 1134.359466066857 102.5937525480657 L 1134.225474275274 102.50456464755453 L 1134.0934620948083 102.41477550017834 L 1133.963442726568 102.32439408477703 L 1133.8354291723815 102.23342943941684 L 1133.7094342334976 102.14189066048647 L 1133.5854705093052 102.04978690178756 L 1133.4635503960735 101.95712737361922 L 1133.343686085712 101.86392134185704 L 1133.225889564552 101.77017812702654 L 1133.1101726121476 101.67590710337106 L 1132.9965468000976 101.58111769791444 L 1132.885023490888 101.48581938951821 L 1132.7756138367574 101.39002170793381 L 1132.6683287785797 101.29373423284954 L 1132.5631790447715 101.19696659293271 L 1132.4601751502184 101.09972846486664 L 1132.3593273952242 101.00202957238312 L 1132.26064586448 100.90387968528998 L 1132.1641404260572 100.80528861849413 L 1132.0698207304185 100.70626623102011 L 1131.9776962094556 100.60682242502413 L 1131.8877760755436 100.50696714480392 L 1131.8000693206204 100.40671037580431 L 1131.7145847152892 100.30606214361863 L 1131.6313308079389 100.20503251298624 L 1131.550315923891 100.103631586786 L 1131.4715481645662 100.00186950502604 L 1131.3950354066749 99.89975644382972 L 1131.3207853014292 99.79730261441809 L 1131.2488052737774 99.69451826208869 L 1131.1791025216628 99.59141366519111 L 1131.1116840153022 99.48799913409913 L 1131.0465564964902 99.38428501017967 L 1130.9837264779244 99.28028166475868 L 1130.9232002425542 99.17599949808405 L 1130.8649838429528 99.07144893828554 L 1130.8090831007114 98.96664044033201 L 1130.755503605858 98.86158448498593 L 1130.7042507162973 98.75629157775525 L 1130.6553295572753 98.65077224784297 L 1130.6087450208677 98.54503704709414 L 1130.5645017654886 98.43909654894075 L 1130.5226042154272 98.33296134734431 L 1130.4830565604034 98.22664205573652 L 1130.4458627551498 98.12014930595798 L 1130.4110265190159 98.01349374719489 L 1130.3785513355963 97.90668604491427 L 1130.3484404523822 97.79973687979731 L 1130.320696880437 97.69265694667143 L 1130.2953233940946 97.58545695344071 L 1130.2723225306827 97.47814762001512 L 1130.2516965902682 97.37073967723859 L 1130.233447635428 97.26324386581588 L 1130.2175774910427 97.15567093523856 L 1130.2040877441132 97.04803164271006 L 1130.192979743603 96.94033675206991 L 1130.184254600303 96.83259703271744 L 1130.17791318672 96.7248232585348 L 1130.1739561369902 96.6170262068096 L 1130.1723838468156 96.50921665715717" stroke-miterlimit="10" stroke-width="2.7769845610000004" stroke-dasharray=""/></g><g><text fill="black" stroke="none" font-family="sans-serif" font-size="11pt" font-style="normal" font-weight="normal" text-decoration="normal" x="1122.6438054709934" y="124.80095321200001" text-anchor="start" dominant-baseline="alphabetic" xml:space="preserve">Database</text></g></g><g><path fill="white" stroke="black" paint-order="fill stroke markers" d=" M 357.44107307220054 183.607685092 L 373.7762763722005 183.607685092 L 373.7762763722005 882.7543863319997 L 357.44107307220054 882.7543863319997 L 357.44107307220054 183.607685092" stroke-miterlimit="10" stroke-width="1.3612669416666667" stroke-dasharray=""/><path fill="white" stroke="black" paint-order="fill stroke markers" d=" M 609.6417196285806 229.346254332 L 625.9769229285807 229.346254332 L 625.9769229285807 837.0158170919998 L 609.6417196285806 837.0158170919998 L 609.6417196285806 229.346254332" stroke-miterlimit="10" stroke-width="1.3612669416666667" stroke-dasharray=""/><path fill="white" stroke="black" paint-order="fill stroke markers" d=" M 993.0379016249648 275.084823572 L 1009.3731049249649 275.084823572 L 1009.3731049249649 412.300531292 L 993.0379016249648 412.300531292 L 993.0379016249648 275.084823572" stroke-miterlimit="10" stroke-width="1.3612669416666667" stroke-dasharray=""/><path fill="white" stroke="black" paint-order="fill stroke markers" d=" M 1145.8541487672824 320.823392812 L 1162.1893520672825 320.823392812 L 1162.1893520672825 366.561962052 L 1145.8541487672824 366.561962052 L 1145.8541487672824 320.823392812" stroke-miterlimit="10" stroke-width="1.3612669416666667" stroke-dasharray=""/><path fill="white" stroke="black" paint-order="fill stroke markers" d=" M 818.6354570052733 637.7263368319999 L 834.9706603052734 637.7263368319999 L 834.9706603052734 774.9420445519997 L 818.6354570052733 774.9420445519997 L 818.6354570052733 637.7263368319999" stroke-miterlimit="10" stroke-width="1.3612669416666667" stroke-dasharray=""/><path fill="white" stroke="black" paint-order="fill stroke markers" d=" M 1145.8541487672824 683.4649060719998 L 1162.1893520672825 683.4649060719998 L 1162.1893520672825 729.2034753119998 L 1145.8541487672824 729.2034753119998 L 1145.8541487672824 683.4649060719998" stroke-miterlimit="10" stroke-width="1.3612669416666667" stroke-dasharray=""/><path fill="white" stroke="black" paint-order="fill stroke markers" d=" M 818.6354570052733 774.9420445519997 L 834.9706603052734 774.9420445519997 L 834.9706603052734 774.9420445519997 L 818.6354570052733 774.9420445519997 L 818.6354570052733 774.9420445519997" stroke-miterlimit="10" stroke-width="1.3612669416666667" stroke-dasharray=""/><g><g><rect fill="white" stroke="none" x="92.83840542166668" y="162.371920802" width="245.2726770788672" height="21.23576429"/></g><text fill="black" stroke="none" font-family="sans-serif" font-size="11pt" font-style="normal" font-weight="normal" text-decoration="normal" x="95.28868591666668" y="177.07360377199998" text-anchor="start" dominant-baseline="alphabetic" xml:space="preserve">Select tab Members in specific group</text></g><g><path fill="none" stroke="black" paint-order="fill stroke markers" d=" M 73.50841485 183.607685092 L 343.9917556885339 183.607685092" stroke-miterlimit="10" stroke-width="1.3612669416666667" stroke-dasharray=""/><g transform="translate(357.44107307220054,183.607685092) translate(-357.44107307220054,-183.607685092)"><path fill="black" stroke="none" paint-order="stroke fill markers" d=" M 343.82840365553386 176.80135038366666 L 357.44107307220054 183.607685092 L 343.82840365553386 190.41401980033334 Z"/></g></g><g><g><rect fill="white" stroke="none" x="393.1062669438671" y="208.110490042" width="197.20546211304688" height="21.23576429"/></g><text fill="black" stroke="none" font-family="sans-serif" font-size="11pt" font-style="normal" font-weight="normal" text-decoration="normal" x="395.55654743886714" y="222.812173012" text-anchor="start" dominant-baseline="alphabetic" xml:space="preserve">GET: /api/group/{id}/members</text></g><g><path fill="none" stroke="black" paint-order="fill stroke markers" d=" M 373.7762763722005 229.346254332 L 596.192402244914 229.346254332" stroke-miterlimit="10" stroke-width="1.3612669416666667" stroke-dasharray=""/><g transform="translate(609.6417196285806,229.346254332) translate(-609.6417196285806,-229.346254332)"><path fill="black" stroke="none" paint-order="stroke fill markers" d=" M 596.029050211914 222.53991962366666 L 609.6417196285806 229.346254332 L 596.029050211914 236.15258904033334 Z"/></g></g><g><g><rect fill="white" stroke="none" x="775.2926664497415" y="253.849059282" width="68.4294916540625" height="21.23576429"/></g><text fill="black" stroke="none" font-family="sans-serif" font-size="11pt" font-style="normal" font-weight="normal" text-decoration="normal" x="777.7429469447416" y="268.550742252" text-anchor="start" dominant-baseline="alphabetic" xml:space="preserve">isExist(id)</text></g><g><path fill="none" stroke="black" paint-order="fill stroke markers" d=" M 625.9769229285807 275.084823572 L 979.5885842412981 275.084823572" stroke-miterlimit="10" stroke-width="1.3612669416666667" stroke-dasharray=""/><g transform="translate(993.0379016249648,275.084823572) translate(-993.0379016249648,-275.084823572)"><path fill="black" stroke="none" paint-order="stroke fill markers" d=" M 979.4252322082981 268.27848886366667 L 993.0379016249648 275.084823572 L 979.4252322082981 281.89115828033334 Z"/></g></g><g><g><rect fill="white" stroke="none" x="1043.3988810190924" y="299.587628522" width="68.4294916540625" height="21.23576429"/></g><text fill="black" stroke="none" font-family="sans-serif" font-size="11pt" font-style="normal" font-weight="normal" text-decoration="normal" x="1045.8491615140924" y="314.28931149199997" text-anchor="start" dominant-baseline="alphabetic" xml:space="preserve">isExist(id)</text></g><g><path fill="none" stroke="black" paint-order="fill stroke markers" d=" M 1009.3731049249649 320.823392812 L 1132.4048313836156 320.823392812" stroke-miterlimit="10" stroke-width="1.3612669416666667" stroke-dasharray=""/><g transform="translate(1145.8541487672824,320.823392812) translate(-1145.8541487672824,-320.823392812)"><path fill="black" stroke="none" paint-order="stroke fill markers" d=" M 1132.2414793506157 314.01705810366667 L 1145.8541487672824 320.823392812 L 1132.2414793506157 327.62972752033335 Z"/></g></g><g><g><rect fill="white" stroke="none" x="1028.7030954966315" y="345.326197762" width="97.82106269898438" height="21.23576429"/></g><text fill="black" stroke="none" font-family="sans-serif" font-size="11pt" font-style="normal" font-weight="normal" text-decoration="normal" x="1031.1533759916315" y="360.02788073199997" text-anchor="start" dominant-baseline="alphabetic" xml:space="preserve">Boolean value</text></g><g><path fill="none" stroke="black" paint-order="fill stroke markers" d=" M 1145.8541487672824 366.561962052 L 1022.8224223086315 366.561962052" stroke-miterlimit="10" stroke-width="1.3612669416666667" stroke-dasharray="6.53408132"/><g transform="translate(1009.3731049249649,366.561962052) translate(-1009.3731049249649,-366.561962052)"><path fill="black" stroke="none" paint-order="stroke fill markers" d=" M 1022.9857743416316 359.7556273436667 L 1009.3731049249649 366.561962052 L 1022.9857743416316 373.36829676033335 Z"/></g></g><g><g><rect fill="white" stroke="none" x="760.5968809272806" y="391.064767002" width="97.82106269898438" height="21.23576429"/></g><text fill="black" stroke="none" font-family="sans-serif" font-size="11pt" font-style="normal" font-weight="normal" text-decoration="normal" x="763.0471614222806" y="405.766449972" text-anchor="start" dominant-baseline="alphabetic" xml:space="preserve">Boolean value</text></g><g><path fill="none" stroke="black" paint-order="fill stroke markers" d=" M 993.0379016249648 412.300531292 L 639.4262403122474 412.300531292" stroke-miterlimit="10" stroke-width="1.3612669416666667" stroke-dasharray="6.53408132"/><g transform="translate(625.9769229285807,412.300531292) translate(-625.9769229285807,-412.300531292)"><path fill="black" stroke="none" paint-order="stroke fill markers" d=" M 639.5895923452474 405.4941965836667 L 625.9769229285807 412.300531292 L 639.5895923452474 419.10686600033335 Z"/></g></g><g><g><rect fill="white" stroke="none" x="431.4240541142773" y="480.908385152" width="120.56988777222656" height="21.23576429"/></g><text fill="red" stroke="none" font-family="sans-serif" font-size="11pt" font-style="normal" font-weight="normal" text-decoration="normal" x="433.8743346092773" y="495.610068122" text-anchor="start" dominant-baseline="alphabetic" xml:space="preserve">404 NOT FOUND</text></g><g><path fill="none" stroke="black" paint-order="fill stroke markers" d=" M 609.6417196285806 502.144149442 L 387.2255937558672 502.144149442" stroke-miterlimit="10" stroke-width="1.3612669416666667" stroke-dasharray="6.53408132"/><g transform="translate(373.7762763722005,502.144149442) translate(-373.7762763722005,-502.144149442)"><path fill="black" stroke="none" paint-order="stroke fill markers" d=" M 387.3889457888672 495.3378147336667 L 373.7762763722005 502.144149442 L 387.3889457888672 508.95048415033335 Z"/></g></g><g><g><rect fill="white" stroke="none" x="114.42392330496746" y="526.646954392" width="202.10164131226563" height="21.23576429"/></g><text fill="black" stroke="none" font-family="sans-serif" font-size="11pt" font-style="normal" font-weight="normal" text-decoration="normal" x="116.87420379996746" y="541.348637362" text-anchor="start" dominant-baseline="alphabetic" xml:space="preserve">Display 404 Not Found screen</text></g><g><path fill="none" stroke="black" paint-order="fill stroke markers" d=" M 357.44107307220054 547.882718682 L 86.95773223366666 547.882718682" stroke-miterlimit="10" stroke-width="1.3612669416666667" stroke-dasharray="6.53408132"/><g transform="translate(73.50841485,547.882718682) translate(-73.50841485,-547.882718682)"><path fill="black" stroke="none" paint-order="stroke fill markers" d=" M 87.12108426666666 541.0763839736667 L 73.50841485 547.882718682 L 87.12108426666666 554.6890533903334 Z"/></g></g><g><g><rect fill="white" stroke="none" x="645.3069135002473" y="616.4905725419999" width="153.99855293335938" height="21.23576429"/></g><text fill="black" stroke="none" font-family="sans-serif" font-size="11pt" font-style="normal" font-weight="normal" text-decoration="normal" x="647.7571939952473" y="631.1922555119999" text-anchor="start" dominant-baseline="alphabetic" xml:space="preserve">getAllUsersInGroup(id)</text></g><g><path fill="none" stroke="black" paint-order="fill stroke markers" d=" M 625.9769229285807 637.7263368319999 L 805.1861396216067 637.7263368319999" stroke-miterlimit="10" stroke-width="1.3612669416666667" stroke-dasharray=""/><g transform="translate(818.6354570052733,637.7263368319999) translate(-818.6354570052733,-637.7263368319999)"><path fill="black" stroke="none" paint-order="stroke fill markers" d=" M 805.0227875886067 630.9200021236666 L 818.6354570052733 637.7263368319999 L 805.0227875886067 644.5326715403332 Z"/></g></g><g><g><rect fill="white" stroke="none" x="913.4131280695982" y="662.2291417819998" width="153.99855293335938" height="21.23576429"/></g><text fill="black" stroke="none" font-family="sans-serif" font-size="11pt" font-style="normal" font-weight="normal" text-decoration="normal" x="915.8634085645982" y="676.9308247519998" text-anchor="start" dominant-baseline="alphabetic" xml:space="preserve">getAllUsersInGroup(id)</text></g><g><path fill="none" stroke="black" paint-order="fill stroke markers" d=" M 834.9706603052734 683.4649060719998 L 1132.4048313836156 683.4649060719998" stroke-miterlimit="10" stroke-width="1.3612669416666667" stroke-dasharray=""/><g transform="translate(1145.8541487672824,683.4649060719998) translate(-1145.8541487672824,-683.4649060719998)"><path fill="black" stroke="none" paint-order="stroke fill markers" d=" M 1132.2414793506157 676.6585713636665 L 1145.8541487672824 683.4649060719998 L 1132.2414793506157 690.2712407803332 Z"/></g></g><g><g><rect fill="white" stroke="none" x="950.0845453059263" y="707.9677110219998" width="80.65571846070313" height="21.23576429"/></g><text fill="black" stroke="none" font-family="sans-serif" font-size="11pt" font-style="normal" font-weight="normal" text-decoration="normal" x="952.5348258009263" y="722.6693939919998" text-anchor="start" dominant-baseline="alphabetic" xml:space="preserve">Member list</text></g><g><path fill="none" stroke="black" paint-order="fill stroke markers" d=" M 1145.8541487672824 729.2034753119998 L 848.4199776889401 729.2034753119998" stroke-miterlimit="10" stroke-width="1.3612669416666667" stroke-dasharray="6.53408132"/><g transform="translate(834.9706603052734,729.2034753119998) translate(-834.9706603052734,-729.2034753119998)"><path fill="black" stroke="none" paint-order="stroke fill markers" d=" M 848.5833297219401 722.3971406036665 L 834.9706603052734 729.2034753119998 L 848.5833297219401 736.0098100203331 Z"/></g></g><g><g><rect fill="white" stroke="none" x="681.9783307365755" y="753.7062802619997" width="80.65571846070313" height="21.23576429"/></g><text fill="black" stroke="none" font-family="sans-serif" font-size="11pt" font-style="normal" font-weight="normal" text-decoration="normal" x="684.4286112315755" y="768.4079632319997" text-anchor="start" dominant-baseline="alphabetic" xml:space="preserve">Member list</text></g><g><path fill="none" stroke="black" paint-order="fill stroke markers" d=" M 818.6354570052733 774.9420445519997 L 639.4262403122474 774.9420445519997" stroke-miterlimit="10" stroke-width="1.3612669416666667" stroke-dasharray="6.53408132"/><g transform="translate(625.9769229285807,774.9420445519997) translate(-625.9769229285807,-774.9420445519997)"><path fill="black" stroke="none" paint-order="stroke fill markers" d=" M 639.5895923452474 768.1357098436664 L 625.9769229285807 774.9420445519997 L 639.5895923452474 781.7483792603331 Z"/></g></g><g><g><rect fill="white" stroke="none" x="396.3704194707226" y="799.4448495019998" width="54.61422981324219" height="21.23576429"/></g><g><rect fill="white" stroke="none" x="396.3704194707226" y="815.7800528019998" width="190.67715705933594" height="21.23576429"/></g><text fill="green" stroke="none" font-family="sans-serif" font-size="11pt" font-style="normal" font-weight="normal" text-decoration="normal" x="398.8206999657226" y="814.1465324719998" text-anchor="start" dominant-baseline="alphabetic" xml:space="preserve">200 OK</text><text fill="green" stroke="none" font-family="sans-serif" font-size="11pt" font-style="normal" font-weight="normal" text-decoration="normal" x="398.8206999657226" y="830.4817357719998" text-anchor="start" dominant-baseline="alphabetic" xml:space="preserve">Response body: Member list</text></g><g><path fill="none" stroke="black" paint-order="fill stroke markers" d=" M 609.6417196285806 837.0158170919998 L 387.2255937558672 837.0158170919998" stroke-miterlimit="10" stroke-width="1.3612669416666667" stroke-dasharray="6.53408132"/><g transform="translate(373.7762763722005,837.0158170919998) translate(-373.7762763722005,-837.0158170919998)"><path fill="black" stroke="none" paint-order="stroke fill markers" d=" M 387.3889457888672 830.2094823836665 L 373.7762763722005 837.0158170919998 L 387.3889457888672 843.8221518003331 Z"/></g></g><g><g><rect fill="white" stroke="none" x="123.22851925223308" y="861.5186220419997" width="184.49244941773438" height="21.23576429"/></g><text fill="black" stroke="none" font-family="sans-serif" font-size="11pt" font-style="normal" font-weight="normal" text-decoration="normal" x="125.67879974723309" y="876.2203050119997" text-anchor="start" dominant-baseline="alphabetic" xml:space="preserve">Display group's member list</text></g><g><path fill="none" stroke="black" paint-order="fill stroke markers" d=" M 357.44107307220054 882.7543863319997 L 86.95773223366666 882.7543863319997" stroke-miterlimit="10" stroke-width="1.3612669416666667" stroke-dasharray="6.53408132"/><g transform="translate(73.50841485,882.7543863319997) translate(-73.50841485,-882.7543863319997)"><path fill="black" stroke="none" paint-order="stroke fill markers" d=" M 87.12108426666666 875.9480516236664 L 73.50841485 882.7543863319997 L 87.12108426666666 889.5607210403331 Z"/></g></g><g><g/><path fill="none" stroke="black" paint-order="fill stroke markers" d=" M 16.335203299999996 436.803336242 L 1211.1949619672823 436.803336242 L 1211.1949619672823 907.2571912819998 L 16.335203299999996 907.2571912819998 L 16.335203299999996 436.803336242 Z" stroke-miterlimit="10" stroke-width="2.3336004714285714" stroke-dasharray=""/><path fill="white" stroke="black" paint-order="fill stroke markers" d=" M 16.335203299999996 436.803336242 L 16.335203299999996 456.405580202 L 62.69440689707031 456.405580202 L 72.49552887707031 446.604458222 L 72.49552887707031 436.803336242 L 16.335203299999996 436.803336242" stroke-miterlimit="10" stroke-width="2.3336004714285714" stroke-dasharray=""/><text fill="black" stroke="none" font-family="sans-serif" font-size="8.8pt" font-style="normal" font-weight="bold" text-decoration="normal" x="32.67040659999999" y="449.871498882" text-anchor="start" dominant-baseline="alphabetic" xml:space="preserve">alt</text><g><rect fill="white" stroke="none" x="86.38045168207032" y="438.110152506" width="140.44832099976563" height="16.988611432000003"/></g><text fill="black" stroke="none" font-family="sans-serif" font-size="8.8pt" font-style="normal" font-weight="bold" text-decoration="normal" x="88.83073217707032" y="449.871498882" text-anchor="start" dominant-baseline="alphabetic" xml:space="preserve">[If Group does not exist]</text><g><path fill="none" stroke="black" paint-order="fill stroke markers" d=" M 16.335203299999996 572.385523632 L 1211.1949619672823 572.385523632" stroke-miterlimit="10" stroke-width="2.3336004714285714" stroke-dasharray="4.083800825"/></g><g/><g><rect fill="white" stroke="none" x="86.38045168207032" y="573.6923398959999" width="36.84300483765625" height="16.988611432000003"/></g><text fill="black" stroke="none" font-family="sans-serif" font-size="8.8pt" font-style="normal" font-weight="bold" text-decoration="normal" x="88.83073217707032" y="585.4536862719999" text-anchor="start" dominant-baseline="alphabetic" xml:space="preserve">[Else]</text></g><g/></g></g></svg>