<svg version="1.1" xmlns="http://www.w3.org/2000/svg" xmlns:xlink="http://www.w3.org/1999/xlink" width="1037" height="856"><desc>title%20Get%20Curriculum%20detail%20of%20Group%0A%0Aactor%20%23green%3A0.5%20%22Workspace%20User%22%20as%20w%0Aboundary%20%22Group%20page%22%20as%20f%0Acontrol%20%22Curriculum%20Controller%22%20as%20gc%0Aparticipant%20%22Curriculum%20Service%22%20as%20gs%0A%0Adatabase%20%23blue%3A1%20%22Database%22%20as%20db%0A%0Aw-%3Ef%3AGo%20to%20group's%20newfeed%20page%0Aactivate%20f%0Aw%3C--f%3A%20Group%20page%0Aw-%3Ef%3AGo%20to%20group's%20Curriculum%20tab%0Af-%3Egc%3AGET%3A%20%2Fapi%2Fcurriculum%2F%7Bid%7D%0Aactivate%20gc%0Agc-%3Egs%3A%20get(id)%0Aactivate%20gs%0Ags-%3Edb%3A%20get(id)%0Aactivate%20db%0Ags%3C--db%3AOptional%20Curriculum%20value%0Adeactivate%20db%0Agc%3C--gs%3AOptional%20Curriculum%20value%0Adeactivate%20gs%0Aalt%20If%20optional%20value%20is%20empty%0Af%3C--gc%3A%3Ccolor%3A%23red%3E404%20NOT%20FOUND%3C%2Fcolor%3E%0Aw%3C--f%3A%20Display%20404%20page%0A%0Aelse%20Else%0Af%3C--gc%3A%3Ccolor%3A%23green%3E200%20OK%3A%20Curriculum%20value%3C%2Fcolor%3E%0Adeactivate%20gc%0Aw%3C--f%3A%20Display%20group's%20curriculum%0Aend%0A%0Adeactivate%20f%0A</desc><defs/><g><g/><g/><g/><g/><g/><g/><g/><g/><g/><g/><g/><g/><g/><g/><g/><g/><g/><g><rect fill="white" stroke="none" x="0" y="0" width="1037" height="856"/></g><g><text fill="black" stroke="none" font-family="sans-serif" font-size="16.5pt" font-style="normal" font-weight="normal" text-decoration="normal" x="369.7652094529948" y="24.50280495" text-anchor="start" dominant-baseline="alphabetic" xml:space="preserve">Get Curriculum detail of Group</text></g><g/><g><path fill="none" stroke="black" paint-order="fill stroke markers" d=" M 73.50841485 129.701514202 L 73.50841485 856.6180610519998" stroke-miterlimit="10" stroke-width="1.3612669416666667" stroke-dasharray="12.565541,5.445067766666667"/><path fill="none" stroke="black" paint-order="fill stroke markers" d=" M 312.17993326712235 129.701514202 L 312.17993326712235 856.6180610519998" stroke-miterlimit="10" stroke-width="1.3612669416666667" stroke-dasharray="12.565541,5.445067766666667"/><path fill="none" stroke="black" paint-order="fill stroke markers" d=" M 539.9210003557291 129.701514202 L 539.9210003557291 856.6180610519998" stroke-miterlimit="10" stroke-width="1.3612669416666667" stroke-dasharray="12.565541,5.445067766666667"/><path fill="none" stroke="black" paint-order="fill stroke markers" d=" M 768.4780922246093 129.701514202 L 768.4780922246093 856.6180610519998" stroke-miterlimit="10" stroke-width="1.3612669416666667" stroke-dasharray="12.565541,5.445067766666667"/><path fill="none" stroke="black" paint-order="fill stroke markers" d=" M 997.0351840934895 129.701514202 L 997.0351840934895 856.6180610519998" stroke-miterlimit="10" stroke-width="1.3612669416666667" stroke-dasharray="12.565541,5.445067766666667"/></g><g><g><path fill="white" stroke="green" paint-order="fill stroke markers" d=" M 82.819480731 60.60360424300001 A 9.311065881 9.311065881 0 1 1 82.81947607546743 60.594293178670846 M 73.50841485 69.91467012400001 L 73.50841485 89.84361815000001 M 61.747068473999995 77.102159576 L 85.26976122599999 77.102159576 M 73.50841485 89.84361815000001 L 61.747068473999995 108.465749912 M 73.50841485 89.84361815000001 L 85.26976122599999 108.465749912" stroke-miterlimit="10" stroke-width="1.3884922805000002" stroke-dasharray=""/></g><g><text fill="black" stroke="none" font-family="sans-serif" font-size="11pt" font-style="normal" font-weight="normal" text-decoration="normal" x="19.467635736230463" y="124.80095321200001" text-anchor="start" dominant-baseline="alphabetic" xml:space="preserve">Workspace User</text></g><g><path fill="white" stroke="black" paint-order="fill stroke markers" d=" M 344.60531181762235 82.819480731 A 24.2577769005 24.2577769005 0 1 1 344.60529968873493 82.79522295814245 M 281.1430469971223 57.17321154999999 L 281.1430469971223 108.465749912 M 279.75455471662235 82.819480731 L 296.08975801662234 82.819480731" stroke-miterlimit="10" stroke-width="2.7769845610000004" stroke-dasharray=""/></g><g><text fill="black" stroke="none" font-family="sans-serif" font-size="11pt" font-style="normal" font-weight="normal" text-decoration="normal" x="273.4648377471028" y="124.80095321200001" text-anchor="start" dominant-baseline="alphabetic" xml:space="preserve">Group page</text></g><g><path fill="white" stroke="black" paint-order="fill stroke markers" d=" M 564.1787772562291 82.819480731 A 24.2577769005 24.2577769005 0 1 1 564.1787651273416 82.79522295814245 M 536.6539596957291 58.561703830499994 L 546.455081675729 50.39410218049999 M 536.6539596957291 58.561703830499994 L 546.455081675729 66.72930548049999" stroke-miterlimit="10" stroke-width="2.7769845610000004" stroke-dasharray=""/></g><g><text fill="black" stroke="none" font-family="sans-serif" font-size="11pt" font-style="normal" font-weight="normal" text-decoration="normal" x="470.676226490983" y="124.80095321200001" text-anchor="start" dominant-baseline="alphabetic" xml:space="preserve">Curriculum Controller</text></g><path fill="none" stroke="none"/><g><path fill="white" stroke="black" paint-order="fill stroke markers" d=" M 688.8431951670585 85.75981732500001 L 848.1129892821601 85.75981732500001 L 848.1129892821601 129.701514202 L 688.8431951670585 129.701514202 L 688.8431951670585 85.75981732500001 Z" stroke-miterlimit="10" stroke-width="2.613632528" stroke-dasharray=""/></g><g><text fill="black" stroke="none" font-family="sans-serif" font-size="11pt" font-style="normal" font-weight="normal" text-decoration="normal" x="706.5668907475585" y="113.36631090200002" text-anchor="start" dominant-baseline="alphabetic" xml:space="preserve">Curriculum Service</text></g><g><path fill="white" stroke="blue" paint-order="fill stroke markers" d=" M 973.1857872754896 97.684515734 L 973.1857872754896 63.380588804000006 L 1020.8845809114895 63.380588804000006 L 1020.8845809114895 97.684515734" stroke-miterlimit="10" stroke-width="2.7769845610000004" stroke-dasharray=""/><path fill="white" stroke="blue" paint-order="fill stroke markers" d=" M 1020.8845809114895 62.1881189631 L 1020.8833884515858 62.29592950801663 L 1020.8798111911198 62.403729271968594 L 1020.8738494878145 62.51150747506936 L 1020.8655039378351 62.619253339588404 L 1020.8547753757299 62.72695609102909 L 1020.8416648743461 62.834604959206004 L 1020.8261737447228 62.94218917932205 L 1020.8083035359602 63.04969799304486 L 1020.7880560350642 63.15712064958265 L 1020.765433266768 63.2644464067593 L 1020.7404374933296 63.371664532088516 L 1020.7130712143056 63.47876430384712 L 1020.683337166301 63.58573501214718 L 1020.6512383226959 63.692565960007016 L 1020.6167778933478 63.79924646442086 L 1020.579959324271 63.90576585742718 L 1020.5407862972917 64.01211348717543 L 1020.4992627296799 64.11827871899126 L 1020.4553927737579 64.22425093643996 L 1020.4091808164845 64.3300195423881 L 1020.3606314790172 64.43557396006322 L 1020.3097496162492 64.54090363411153 L 1020.2565403163243 64.64599803165338 L 1020.201008900128 64.75084664333659 L 1020.143160920756 64.85543898438739 L 1020.0830021629579 64.95976459565881 L 1020.0205386425592 65.06381304467668 L 1019.95577660586 65.16757392668278 L 1019.88872252901 65.27103686567541 L 1019.8193831173611 65.37419151544687 L 1019.7477653047964 65.47702756061814 L 1019.6738762530377 65.5795347176704 L 1019.5977233509287 65.68170273597339 L 1019.5193142136959 65.7835213988104 L 1019.4386566821878 65.88498052439998 L 1019.3557588220904 65.98606996691414 L 1019.2706289231205 66.08677961749288 L 1019.1832754981971 66.18709940525505 L 1019.0937072825899 66.28701929830548 L 1019.0019332330459 66.38652930473813 L 1018.9079625268935 66.48561947363528 L 1018.8118045611249 66.58427989606261 L 1018.7134689514568 66.6825007060601 L 1018.612965531368 66.7802720816286 L 1018.5103043511168 66.87758424571203 L 1018.4054956767358 66.97442746717506 L 1018.2985499890049 67.07079206177627 L 1018.1894779824039 67.1666683931365 L 1018.0782905640426 67.2620468737025 L 1017.96499885257 67.35691796570569 L 1017.8496141770631 67.45127218211596 L 1017.7321480758931 67.54510008759026 L 1017.6126122955721 67.63839229941624 L 1017.4910187895789 67.73113948845047 L 1017.3673797171625 67.82333238005134 L 1017.2417074421271 67.9149617550065 L 1017.1140145315957 68.00601845045483 L 1016.9843137547526 68.09649336080267 L 1016.8526180815677 68.18637743863435 L 1016.7189406814985 68.27566169561702 L 1016.5832949221735 68.36433720339936 L 1016.4456943680557 68.45239509450451 L 1016.3061527790858 68.53982656321674 L 1016.1646841093064 68.62662286646201 L 1016.0213025054667 68.71277532468237 L 1015.8760223056075 68.79827532270376 L 1015.7288580376277 68.88311431059763 L 1015.5798244178316 68.9672838045359 L 1015.4289363494566 69.0507753876393 L 1015.2762089211843 69.13358071081912 L 1015.12165740563 69.21569149361203 L 1014.9652972578166 69.29709952500816 L 1014.8071441136283 69.37779666427225 L 1014.647213788248 69.45777484175761 L 1014.4855222745748 69.53702605971311 L 1014.3220857416255 69.61554239308303 L 1014.156920532917 69.69331599029945 L 1013.9900431648326 69.77033907406746 L 1013.8214703249702 69.84660394214286 L 1013.651218870473 69.92210296810242 L 1013.4793058263449 69.99682860210643 L 1013.3057483837468 70.07077337165379 L 1013.1305638982785 70.14392988232913 L 1012.9537698882425 70.21629081854239 L 1012.7753840328925 70.28784894426022 L 1012.5954241706652 70.35859710372968 L 1012.4139082973971 70.42852822219379 L 1012.2308545645242 70.49763530659898 L 1012.0462812772672 70.5659114462944 L 1011.860206892801 70.63334981372294 L 1011.6726500184091 70.69994366510412 L 1011.4836294096224 70.76568634110825 L 1011.2931639683445 70.83057126752253 L 1011.1012727409607 70.89459195590838 L 1010.9079749164339 70.95774200425032 L 1010.7132898243854 71.02001509759614 L 1010.5172369331622 71.08140500868842 L 1010.31983584789 71.14190559858717 L 1010.1211063085129 71.20151081728383 L 1009.9210681878192 71.26021470430622 L 1009.7197414894542 71.31801138931453 L 1009.5171463459202 71.37489509268845 L 1009.3133030165624 71.43086012610503 L 1009.1082318855441 71.48590089310757 L 1008.9019534598074 71.54001188966522 L 1008.694488367023 71.59318770472345 L 1008.4858573535273 71.64542302074504 L 1008.2760812822479 71.69671261424193 L 1008.0651811306169 71.7470513562975 L 1007.8531779884738 71.79643421307951 L 1007.6400930559562 71.84485624634341 L 1007.4259476413798 71.89231261392625 L 1007.2107631591075 71.93879857023082 L 1006.9945611274082 71.9843094667002 L 1006.7773631663051 72.02884075228269 L 1006.5591909954131 72.07238797388683 L 1006.3400664317676 72.11494677682676 L 1006.1200113876422 72.15651290525764 L 1005.8990478683581 72.19708220260128 L 1005.6771979700832 72.23665061196175 L 1005.4544838776221 72.27521417653107 L 1005.2309278621987 72.31276903998494 L 1005.0065522792282 72.3493114468683 L 1004.7813795660819 72.38483774297092 L 1004.5554322398435 72.41934437569277 L 1004.3287328950573 72.45282789439938 L 1004.1013042014689 72.48528495076673 L 1003.873168901758 72.51671229911628 L 1003.6443498092648 72.54710679673934 L 1003.4148698057074 72.5764654042115 L 1003.1847518388954 72.60478518569649 L 1002.9540189204333 72.63206330923974 L 1002.722694123421 72.65829704705163 L 1002.4908005801451 72.68348377578025 L 1002.258361479767 72.70762097677371 L 1002.0254000660029 72.73070623633201 L 1001.7919396348 72.75273724594847 L 1001.558003532007 72.77371180254045 L 1001.323615151039 72.79362780866978 L 1001.088797930539 72.81248327275246 L 1000.8535753520334 72.83027630925778 L 1000.6179709375838 72.84700513889692 L 1000.3820082474355 72.86266808880085 L 1000.1457108776608 72.87726359268764 L 999.9091024577998 72.89079019101906 L 999.6722066484972 72.90324653114655 L 999.4350471391367 72.91463136744649 L 999.1976476454715 72.9249435614447 L 998.9600319072531 72.93418208193043 L 998.7222236858574 72.94234600505929 L 998.4842467619084 72.94943451444577 L 998.2461249329 72.95544690124485 L 998.0078820108168 72.96038256422287 L 997.7695418197525 72.96424100981763 L 997.5311281935275 72.9670218521878 L 997.2926649733057 72.96872481325143 L 997.0541760052106 72.96934972271386 L 996.81568513794 72.96889651808466 L 996.5772162203822 72.96736524468392 L 996.33879309923 72.96475605563768 L 996.100439616597 72.96106921186271 L 995.8621796076326 72.95630508204027 L 995.6240368981394 72.9504641425794 L 995.3860353021897 72.94354697756918 L 995.1481986197449 72.93555427872033 L 994.910550634275 72.9264868452961 L 994.6731151103804 72.91634558403224 L 994.4359157914157 72.90513150904647 L 994.1989763971153 72.89284574173689 L 993.962320621221 72.87948951067006 L 993.7259721291132 72.86506415145789 L 993.4899545554441 72.84957110662431 L 993.2542915017746 72.8330119254609 L 993.0190065342134 72.81538826387197 L 992.7841231810614 72.79670188420899 L 992.5496649304581 72.77695465509434 L 992.3156552280333 72.7561485512345 L 992.0821174745619 72.73428565322251 L 991.849075023625 72.71136814732996 L 991.6165511792733 72.68739832528833 L 991.3845691936974 72.66237858405984 L 991.1531522649028 72.63631142559778 L 990.9223235343893 72.60919945659627 L 990.6921060848377 72.58104538822961 L 990.4625229378012 72.55185203588118 L 990.2335970514029 72.5216223188619 L 990.0053513180409 72.49035926011825 L 989.7778085620982 72.45806598593009 L 989.5509915376609 72.4247457255979 L 989.3249229262425 72.39040181111994 L 989.0996253345155 72.35503767685907 L 988.8751212920514 72.31865685919922 L 988.6514332490675 72.28126299619186 L 988.4285835741816 72.24285982719209 L 988.2065945521755 72.20345119248485 L 987.9854883817665 72.16304103290075 L 987.765287173387 72.12163338942209 L 987.5460129469749 72.07923240277869 L 987.3276876297697 72.03584231303388 L 987.1103330541213 71.99146745916049 L 986.8939709553063 71.94611227860693 L 986.6786229693539 71.89978130685344 L 986.4643106308837 71.85247917695861 L 986.2510553709506 71.80421061909601 L 986.0388785149031 71.75498046008119 L 985.8278012802498 71.70479362288901 L 985.6178447745384 71.65365512616141 L 985.4090299932445 71.60157008370541 L 985.2013778176722 71.54854370398188 L 984.9949090128661 71.49458128958457 L 984.7896442255344 71.43968823671 L 984.585603981985 71.38387003461766 L 984.3828086860719 71.32713226508127 L 984.1812786171562 71.26948060183051 L 983.9810339280765 71.21092080998365 L 983.7820946431349 71.15145874547107 L 983.5844806560941 71.0911003544497 L 983.3882117281883 71.0298516727083 L 983.1933074861464 70.96771882506403 L 982.9997874202305 70.90470802474988 L 982.8076708822857 70.84082557279336 L 982.616977083806 70.77607785738643 L 982.427725094012 70.71047135324669 L 982.239933837945 70.64401262096986 L 982.0536220945744 70.5767083063738 L 981.868808494919 70.50856513983389 L 981.685511520185 70.43958993560999 L 981.5037494999167 70.36978959116503 L 981.3235406101652 70.29917108647531 L 981.1449028716689 70.22774148333244 L 980.967854148053 70.1555079246372 L 980.7924121440421 70.08247763368529 L 980.6185944036907 70.00865791344492 L 980.4464183086278 69.9340561458266 L 980.2759010763194 69.85867979094495 L 980.1070597583468 69.78253638637263 L 979.9399112387009 69.70563354638664 L 979.7744722320946 69.62797896120689 L 979.6107592822904 69.54958039622719 L 979.4487887604471 69.47044569123871 L 979.2885768634818 69.39058275964601 L 979.1301396124506 69.30999958767568 L 978.9734928509469 69.22870423357777 L 978.818652243516 69.14670482681996 L 978.6656332740897 69.06400956727457 L 978.5144512444374 68.98062672439866 L 978.3651212726361 68.89656463640702 L 978.2176582915586 68.8118317094384 L 978.07207704738 68.72643641671489 L 977.9283920981036 68.6403872976946 L 977.7866178121044 68.55369295721772 L 977.646768366693 68.46636206464606 L 977.5088577466972 68.37840335299609 L 977.3728997430642 68.28982561806569 L 977.2389079514811 68.20063771755453 L 977.1068957710154 68.11084857017835 L 976.976876402775 68.02046715477704 L 976.8488628485885 67.92950250941684 L 976.7228679097046 67.83796373048648 L 976.5989041855123 67.74585997178757 L 976.4769840722806 67.65320044361923 L 976.3571197619192 67.55999441185705 L 976.2393232407593 67.46625119702654 L 976.1236062883548 67.37198017337107 L 976.0099804763046 67.27719076791445 L 975.8984571670952 67.18189245951821 L 975.7890475129645 67.08609477793381 L 975.6817624547868 66.98980730284956 L 975.5766127209786 66.89303966293272 L 975.4736088264256 66.79580153486665 L 975.3727610714312 66.69810264238313 L 975.2740795406871 66.59995275528999 L 975.1775741022642 66.50136168849414 L 975.0832544066258 66.40233930102012 L 974.9911298856628 66.30289549502413 L 974.9012097517506 66.20304021480393 L 974.8135029968277 66.1027834458043 L 974.7280183914963 66.00213521361863 L 974.6447644841461 65.90110558298623 L 974.563749600098 65.799704656786 L 974.4849818407732 65.69794257502603 L 974.408469082882 65.59582951382973 L 974.3342189776362 65.4933756844181 L 974.2622389499846 65.3905913320887 L 974.1925361978699 65.28748673519112 L 974.1251176915094 65.18407220409914 L 974.0599901726974 65.08035808017966 L 973.9971601541315 64.97635473475869 L 973.9366339187613 64.87207256808405 L 973.8784175191598 64.76752200828555 L 973.8225167769186 64.66271351033203 L 973.7689372820652 64.55765755498592 L 973.7176843925043 64.45236464775525 L 973.6687632334825 64.34684531784296 L 973.6221786970747 64.24111011709415 L 973.5779354416958 64.13516961894075 L 973.5360378916344 64.0290344173443 L 973.4964902366106 63.92271512573653 L 973.459296431357 63.81622237595798 L 973.4244601952231 63.70956681719489 L 973.3919850118034 63.602759114914264 L 973.3618741285894 63.49580994979732 L 973.3341305566441 63.38873001667144 L 973.3087570703018 63.28153002344071 L 973.2857562068898 63.17422069001512 L 973.2651302664754 63.066812747238586 L 973.2468813116352 62.959316935815885 L 973.2310111672498 62.85174400523857 L 973.2175214203203 62.74410471271006 L 973.20641341981 62.636409822069915 L 973.19768827651 62.52867010271744 L 973.191346862927 62.4208963285348 L 973.1873898131975 62.313099276809595 L 973.1858175230227 62.20528972715717 L 973.1866301496307 62.09747846044265 L 973.1898276117593 61.98967625770286 L 973.1954095896649 61.88189389906824 L 973.2033755251546 61.77414216268484 L 973.2137246216413 61.66643182363649 L 973.2264558442241 61.558773652867366 L 973.2415679197912 61.4511784161048 L 973.2590593371478 61.34365687278283 L 973.2789283471666 61.236219774966166 L 973.3011729629633 61.12887786627507 L 973.3257909600948 61.02164188081096 L 973.3527798767817 60.91452254208302 L 973.3821370141551 60.807530561935856 L 973.4138594365256 60.70067663947832 L 973.4479439716775 60.593971460013606 L 973.4843872111855 60.487425693970756 L 973.5231855107563 60.381049995837586 L 973.564334990592 60.27485500309525 L 973.607831535779 60.16885133515453 L 973.6536707966991 60.06304959229389 L 973.7018481894643 59.95746035459945 L 973.7523588963755 59.852094180906974 L 973.8051978664041 59.746961607746044 L 973.8603598156973 59.64207314828636 L 973.9178392281059 59.537439291286454 L 973.9776303557367 59.43307050004484 L 974.0397272195265 59.32897721135367 L 974.104123609841 59.22516983445505 L 974.1708130870949 59.12165875000019 L 974.2397889823957 59.01845430901127 L 974.3110443982115 58.91556683184637 L 974.3845722090601 58.81300660716748 L 974.4603650622217 58.7107838909116 L 974.5384153784742 58.60890890526517 L 974.6187153528509 58.507391837641855 L 974.7012569554213 58.406242839663825 L 974.786031932094 58.30547202614659 L 974.873031805442 58.205089474087515 L 974.9622478755504 58.105105221658164 L 975.0536712208865 58.00552926720046 L 975.147292699192 57.90637156822687 L 975.243102948397 57.807642040424646 L 975.3410923875566 57.709350556664305 L 975.4412512178085 57.61150694601232 L 975.543569423353 57.514120992748204 L 975.6480367724548 57.417202435386145 L 975.7546428184663 57.320760965701105 L 975.8633769008716 57.224806227759686 L 975.9742281463529 57.12934781695572 L 976.0871854698782 57.03439527905074 L 976.2022375758094 56.93995810921942 L 976.3193729590315 56.84604575110002 L 976.4385799061039 56.75266759585011 L 976.5598464964313 56.65983298120741 L 976.6831606034557 56.567551190555996 L 976.8085098958692 56.47583145199805 L 976.9358818388469 56.384682937430995 L 977.0652636953007 56.29411476163032 L 977.1966425271528 56.20413598133814 L 977.3300051966294 56.1147555943575 L 977.4653383675748 56.02598253865261 L 977.6026285067846 55.937825691455075 L 977.7418618853594 55.85029386837614 L 977.8830245800773 55.763395822525176 L 978.0261024747864 55.677140243634355 L 978.1710812618165 55.591535757189675 L 978.3179464434098 55.50659092356846 L 978.4666833331705 55.42231423718327 L 978.6172770575334 55.33871412563253 L 978.7697125572519 55.25579894885771 L 978.9239745889026 55.1735769983074 L 979.0800477264113 55.092056496108135 L 979.2379163625941 55.01124559424221 L 979.397564710719 54.93115237373246 L 979.5589768060842 54.851784843834196 L 979.7221365076147 54.77315094123426 L 979.8870274994762 54.6952585292574 L 980.0536332927071 54.61811539707989 L 980.2219372268669 54.54172925895067 L 980.3919224717022 54.46610775341989 L 980.5635720288304 54.391258442575094 L 980.7368687334389 54.317188811284986 L 980.9117952560014 54.24390626645098 L 981.0883341040116 54.171418136266475 L 981.2664676237316 54.09973166948409 L 981.4461780019582 54.028854034690774 L 981.6274472678031 53.95879231959093 L 981.8102572944907 53.88955353029769 L 981.994589801171 53.82114459063227 L 982.1804263547467 53.753572341431656 L 982.3677483717173 53.68684353986444 L 982.5565371200372 53.62096485875517 L 982.746773720989 53.55594288591707 L 982.9384391510712 53.49178412349323 L 983.1315142439003 53.42849498730643 L 983.3259796921279 53.366081806217544 L 983.5218160493715 53.304550821492676 L 983.7190037321583 53.24390818617902 L 983.9175230218846 53.18415996448957 L 984.1173540667866 53.12531213119671 L 984.3184768839263 53.067370571034715 L 984.52087136119 53.01034107811134 L 984.7245172592983 52.95422935532834 L 984.9293942138311 52.89904101381123 L 985.1354817372637 52.84478157234818 L 985.3427592210156 52.79145645683812 L 985.5512059375111 52.73907099974815 L 985.7608010422523 52.687630439580346 L 985.9715235759032 52.637139920347835 L 986.1833524663863 52.58760449106049 L 986.3962665309889 52.53902910521993 L 986.6102444784821 52.49141862032429 L 986.8252649112493 52.444777797382365 L 987.0413063274265 52.399111300437596 L 987.258347123052 52.354423696101605 L 987.4763655942273 52.3107194530976 L 987.6953399392869 52.26800294181345 L 987.9152482609786 52.2262784338647 L 988.1360685686539 52.18555010166736 L 988.3577787804655 52.14582201802072 L 988.5803567255774 52.10709815570004 L 988.8037801463804 52.06938238705927 L 989.0280267007186 52.032678483643856 L 989.2530739641235 51.996990115813546 L 989.4788994320562 51.96232085237539 L 989.7054805221583 51.928674160226834 L 989.9327945765094 51.89605340400906 L 990.1608188638935 51.8644618457705 L 990.389530582072 51.833902644640645 L 990.6189068600636 51.80437885651416 L 990.8489247604317 51.775893433745246 L 991.0795612815779 51.74844922485244 L 991.3107933600422 51.722048974233765 L 991.5425978728096 51.69669532189228 L 991.7749516396219 51.672390803172085 L 992.0078314252961 51.649137848504814 L 992.2412139420477 51.626938783166544 L 992.4750758518195 51.60579582704531 L 992.7093937686153 51.58571109441911 L 992.9441442608388 51.56668659374447 L 993.1793038536364 51.54872422745561 L 993.4148490312448 51.53182579177417 L 993.6507562393424 51.515992976529645 L 993.8870018874052 51.50122736499037 L 994.123562351065 51.4875304337052 L 994.3604139744727 51.47490355235584 L 994.5975330726634 51.4633479836199 L 994.8348959339248 51.45286488304463 L 995.0724788221686 51.443455298931354 L 995.3102579793039 51.43512017223063 L 995.5482096276132 51.4278603364482 L 995.78630997213 51.42167651756158 L 996.0245352030181 51.41656933394751 L 996.2628614979532 51.41253929632009 L 996.5012650245042 51.40958680767973 L 996.739721942517 51.407712163272826 L 996.9782084064989 51.40691555056227 L 997.2167005680019 51.40719704920866 L 997.4551745780087 51.40855663106237 L 997.6936065893171 51.41099416016634 L 997.9319727589246 51.414509392769695 L 998.1702492504129 51.419101977352106 L 998.4084122363314 51.42477145465894 L 998.6464379005799 51.431517257747196 L 998.8843024407904 51.43933871204218 L 999.1219820707071 51.44823503540498 L 999.3594530225652 51.45820533821068 L 999.5966915494671 51.4692486234373 L 999.833673927758 51.48136378676553 L 1000.0703764593976 51.49454961668913 L 1000.3067754743299 51.50880479463608 L 1000.5428473328506 51.524127895100484 L 1000.7785684279702 51.54051738578506 L 1001.0139151877759 51.5579716277544 L 1001.2488640777877 51.57648887559884 L 1001.4833916033125 51.59606727760904 L 1001.7174743117932 51.6167048759611 L 1001.951088795154 51.6383996069124 L 1002.184211692141 51.66114930100791 L 1002.4168196906592 51.684951683297186 L 1002.6488895301022 51.70980437356183 L 1002.8803980036797 51.735704886553535 L 1003.1113219607372 51.76265063224257 L 1003.3416383090714 51.79063891607683 L 1003.5713240172394 51.81966693925126 L 1003.8003561168617 51.849731798987726 L 1004.0287117049194 51.88083048882531 L 1004.2563679460438 51.91295989892094 L 1004.4833020748006 51.94611681636038 L 1004.709491397966 51.980297925479526 L 1004.9349132967963 52.01549980819594 L 1005.1595452292892 52.0517189443507 L 1005.3833647324388 52.08895171206036 L 1005.6063494244814 52.127194388079175 L 1005.8284770071334 52.16644314817141 L 1006.0497252678219 52.20669406749378 L 1006.270072081905 52.247943120987884 L 1006.4894954148849 52.29018618378274 L 1006.7079733246113 52.33341903160728 L 1006.9254839634752 52.37763734121275 L 1007.1420055805941 52.422836690805035 L 1007.3575165239864 52.46901256048684 L 1007.5719952427377 52.516160332709674 L 1007.7854202891547 52.564275292735616 L 1007.9977703209106 52.613352629108746 L 1008.2090241031793 52.663387434136325 L 1008.4191605107585 52.71437470437956 L 1008.6281585301825 52.7663093411539 L 1008.8359972618238 52.819186151038956 L 1009.042655921982 52.8729998463978 L 1009.2481138449638 52.92774504590574 L 1009.4523504851477 52.983416275088445 L 1009.65534541904 53.040007966869396 L 1009.8570783473166 53.09751446212657 L 1010.0575290968527 53.15593001025836 L 1010.2566776227403 53.21524876975863 L 1010.4545040102929 53.27546480880087 L 1010.6509884770365 53.33657210583136 L 1010.8461113746883 53.3985645501713 L 1011.0398531911211 53.461435942627936 L 1011.2321945523145 53.52517999611441 L 1011.4231162242929 53.58979033627848 L 1011.612599115048 53.655260502139996 L 1011.800624276449 53.721583946736914 L 1011.987172906136 53.78875403778004 L 1012.1722263494017 53.85676405831625 L 1012.355766101056 53.92560720740017 L 1012.5377738072767 53.995276600774254 L 1012.7182312674448 54.065765271557225 L 1012.8971204359647 54.13706617094075 L 1013.0744234240684 54.2091721688943 L 1013.2501225016052 54.28207605487816 L 1013.4242000988136 54.35577053856451 L 1013.5966388080789 54.43024825056637 L 1013.7674213856739 54.50550174317461 L 1013.9365307534831 54.581523491102686 L 1014.1039500007107 54.658305892239156 L 1014.2696623855716 54.73584126840789 L 1014.4336513369652 54.81412186613588 L 1014.5959004561332 54.89313985742859 L 1014.7563935182989 54.97288734055273 L 1014.9151144742897 55.05335634082646 L 1015.0720474521422 55.1345388114168 L 1015.2271767586896 55.21642663414435 L 1015.3804868811304 55.29901162029506 L 1015.5319624885801 55.38228551143916 L 1015.6815884336042 55.46623998025691 L 1015.829349753733 55.55086663137139 L 1015.9752316729575 55.63615700218803 L 1016.1192196032074 55.722102563740805 L 1016.2612991458096 55.80869472154519 L 1016.4014560929284 55.89592481645755 L 1016.5396764289856 55.98378412554111 L 1016.675946332063 56.07226386293816 L 1016.8102521752837 56.1613551807487 L 1016.9425805281755 56.251049169915184 L 1017.0729181580132 56.34133686111345 L 1017.2012520311425 56.4322092256496 L 1017.3275693142832 56.52365717636293 L 1017.4518573758119 56.615671568534566 L 1017.5741037870263 56.70824320080196 L 1017.694296323387 56.80136281607904 L 1017.8124229657407 56.89502110248188 L 1017.9284719015213 56.98920869425987 L 1018.0424315259322 57.083916172732344 L 1018.1542904431059 57.17913406723036 L 1018.2640374672437 57.27485285604382 L 1018.3716616237349 57.37106296737362 L 1018.4771521502533 57.467754780288786 L 1018.5804984978344 57.56491862568861 L 1018.6816903319293 57.662544787269525 L 1018.7807175334392 57.76062350249672 L 1018.8775701997262 57.859144963580405 L 1018.9722386456045 57.95809931845658 L 1019.0647134043085 58.05747667177222 L 1019.1549852284393 58.15726708587479 L 1019.2430450908896 58.257460581806065 L 1019.3288841857467 58.358047140299924 L 1019.4124939291727 58.459016702784346 L 1019.4938659602626 58.56035917238722 L 1019.5729921418815 58.66206441494605 L 1019.649864561477 58.764122260021324 L 1019.7244755318711 58.866522501913586 L 1019.7968175920291 58.96925490068398 L 1019.8668835078054 59.072309183178234 L 1019.9346662726664 59.17567504405398 L 1020.0001591083924 59.279342146811274 L 1020.0633554657543 59.38330012482622 L 1020.124249025169 59.48753858238766 L 1020.1828336973314 59.59204709573668 L 1020.239103623823 59.69681521410906 L 1020.2930531776982 59.80183246078026 L 1020.3446769640465 59.907088334113126 L 1020.3939698205321 60.012572308608036 L 1020.4409268179107 60.11827383595545 L 1020.4855432605216 60.22418234609071 L 1020.5278146867577 60.33028724825106 L 1020.5677368695115 60.43657793203471 L 1020.6053058165982 60.54304376846186 L 1020.6405177711541 60.64967411103757 L 1020.6733692120135 60.75645829681646 L 1020.7038568540594 60.86338564746893 L 1020.7319776485531 60.97044547034902 L 1020.7577287834384 61.07762705956367 L 1020.7811076836236 61.184919697043256 L 1020.8021120112379 61.29231265361346 L 1020.8207396658662 61.399795190068104 L 1020.8369887847584 61.50735655824312 L 1020.8508577430164 61.614986002091314 L 1020.8623451537557 61.72267275875801 L 1020.8714498682448 61.830406059657264 L 1020.87817097602 61.93817513154877 L 1020.882507804976 62.04596919761514 L 1020.8844599214335 62.15377747853961 M 1020.8845809114895 96.4920458931 L 1020.8833884515858 96.59985643801662 L 1020.8798111911198 96.70765620196859 L 1020.8738494878145 96.81543440506935 L 1020.8655039378351 96.9231802695884 L 1020.8547753757299 97.03088302102908 L 1020.8416648743461 97.138531889206 L 1020.8261737447228 97.24611610932205 L 1020.8083035359602 97.35362492304485 L 1020.7880560350642 97.46104757958265 L 1020.765433266768 97.5683733367593 L 1020.7404374933296 97.67559146208852 L 1020.7130712143056 97.78269123384712 L 1020.683337166301 97.88966194214719 L 1020.6512383226959 97.99649289000702 L 1020.6167778933478 98.10317339442086 L 1020.579959324271 98.20969278742717 L 1020.5407862972917 98.31604041717543 L 1020.4992627296799 98.42220564899125 L 1020.4553927737579 98.52817786643996 L 1020.4091808164845 98.6339464723881 L 1020.3606314790172 98.73950089006323 L 1020.3097496162492 98.84483056411152 L 1020.2565403163243 98.94992496165337 L 1020.201008900128 99.05477357333659 L 1020.143160920756 99.15936591438738 L 1020.0830021629579 99.2636915256588 L 1020.0205386425592 99.36773997467667 L 1019.95577660586 99.47150085668278 L 1019.88872252901 99.5749637956754 L 1019.8193831173611 99.67811844544686 L 1019.7477653047964 99.78095449061813 L 1019.6738762530377 99.8834616476704 L 1019.5977233509287 99.98562966597338 L 1019.5193142136959 100.08744832881038 L 1019.4386566821878 100.18890745439998 L 1019.3557588220904 100.28999689691415 L 1019.2706289231205 100.39070654749288 L 1019.1832754981971 100.49102633525506 L 1019.0937072825899 100.59094622830548 L 1019.0019332330459 100.69045623473812 L 1018.9079625268935 100.78954640363527 L 1018.8118045611249 100.8882068260626 L 1018.7134689514568 100.9864276360601 L 1018.612965531368 101.0841990116286 L 1018.5103043511168 101.18151117571202 L 1018.4054956767358 101.27835439717506 L 1018.2985499890049 101.37471899177628 L 1018.1894779824039 101.4705953231365 L 1018.0782905640426 101.56597380370249 L 1017.96499885257 101.6608448957057 L 1017.8496141770631 101.75519911211595 L 1017.7321480758931 101.84902701759025 L 1017.6126122955721 101.94231922941623 L 1017.4910187895789 102.03506641845047 L 1017.3673797171625 102.12725931005133 L 1017.2417074421271 102.2188886850065 L 1017.1140145315957 102.30994538045483 L 1016.9843137547526 102.40042029080266 L 1016.8526180815677 102.49030436863434 L 1016.7189406814985 102.579588625617 L 1016.5832949221735 102.66826413339936 L 1016.4456943680557 102.75632202450451 L 1016.3061527790858 102.84375349321674 L 1016.1646841093064 102.93054979646202 L 1016.0213025054667 103.01670225468237 L 1015.8760223056075 103.10220225270375 L 1015.7288580376277 103.18704124059762 L 1015.5798244178316 103.27121073453588 L 1015.4289363494566 103.3547023176393 L 1015.2762089211843 103.4375076408191 L 1015.12165740563 103.51961842361202 L 1014.9652972578166 103.60102645500817 L 1014.8071441136283 103.68172359427226 L 1014.647213788248 103.7617017717576 L 1014.4855222745748 103.84095298971312 L 1014.3220857416255 103.91946932308304 L 1014.156920532917 103.99724292029944 L 1013.9900431648326 104.07426600406745 L 1013.8214703249702 104.15053087214287 L 1013.651218870473 104.22602989810241 L 1013.4793058263449 104.30075553210642 L 1013.3057483837468 104.37470030165377 L 1013.1305638982785 104.44785681232914 L 1012.9537698882425 104.52021774854238 L 1012.7753840328925 104.59177587426021 L 1012.5954241706652 104.66252403372968 L 1012.4139082973971 104.73245515219378 L 1012.2308545645242 104.80156223659897 L 1012.0462812772672 104.86983837629438 L 1011.860206892801 104.93727674372295 L 1011.6726500184091 105.0038705951041 L 1011.4836294096224 105.06961327110824 L 1011.2931639683445 105.13449819752252 L 1011.1012727409607 105.19851888590837 L 1010.9079749164339 105.26166893425032 L 1010.7132898243854 105.32394202759615 L 1010.5172369331622 105.38533193868841 L 1010.31983584789 105.44583252858716 L 1010.1211063085129 105.50543774728384 L 1009.9210681878192 105.56414163430621 L 1009.7197414894542 105.62193831931454 L 1009.5171463459202 105.67882202268845 L 1009.3133030165624 105.73478705610502 L 1009.1082318855441 105.78982782310756 L 1008.9019534598074 105.84393881966523 L 1008.694488367023 105.89711463472344 L 1008.4858573535273 105.94934995074503 L 1008.2760812822479 106.00063954424192 L 1008.0651811306169 106.0509782862975 L 1007.8531779884738 106.1003611430795 L 1007.6400930559562 106.14878317634341 L 1007.4259476413798 106.19623954392625 L 1007.2107631591075 106.2427255002308 L 1006.9945611274082 106.2882363967002 L 1006.7773631663051 106.33276768228268 L 1006.5591909954131 106.37631490388682 L 1006.3400664317676 106.41887370682676 L 1006.1200113876422 106.46043983525765 L 1005.8990478683581 106.50100913260128 L 1005.6771979700832 106.54057754196174 L 1005.4544838776221 106.57914110653107 L 1005.2309278621987 106.61669596998493 L 1005.0065522792282 106.65323837686829 L 1004.7813795660819 106.6887646729709 L 1004.5554322398435 106.72327130569276 L 1004.3287328950573 106.75675482439937 L 1004.1013042014689 106.78921188076673 L 1003.873168901758 106.82063922911627 L 1003.6443498092648 106.85103372673933 L 1003.4148698057074 106.8803923342115 L 1003.1847518388954 106.90871211569649 L 1002.9540189204333 106.93599023923973 L 1002.722694123421 106.96222397705162 L 1002.4908005801451 106.98741070578025 L 1002.258361479767 107.0115479067737 L 1002.0254000660029 107.03463316633201 L 1001.7919396348 107.05666417594847 L 1001.558003532007 107.07763873254045 L 1001.323615151039 107.09755473866979 L 1001.088797930539 107.11641020275246 L 1000.8535753520334 107.13420323925777 L 1000.6179709375838 107.1509320688969 L 1000.3820082474355 107.16659501880085 L 1000.1457108776608 107.18119052268763 L 999.9091024577998 107.19471712101905 L 999.6722066484972 107.20717346114655 L 999.4350471391367 107.21855829744648 L 999.1976476454715 107.22887049144471 L 998.9600319072531 107.23810901193042 L 998.7222236858574 107.24627293505928 L 998.4842467619084 107.25336144444577 L 998.2461249329 107.25937383124486 L 998.0078820108168 107.26430949422287 L 997.7695418197525 107.26816793981763 L 997.5311281935275 107.27094878218779 L 997.2926649733057 107.27265174325143 L 997.0541760052106 107.27327665271386 L 996.81568513794 107.27282344808465 L 996.5772162203822 107.27129217468391 L 996.33879309923 107.26868298563768 L 996.100439616597 107.2649961418627 L 995.8621796076326 107.26023201204026 L 995.6240368981394 107.2543910725794 L 995.3860353021897 107.24747390756917 L 995.1481986197449 107.23948120872033 L 994.910550634275 107.23041377529609 L 994.6731151103804 107.22027251403225 L 994.4359157914157 107.20905843904646 L 994.1989763971153 107.1967726717369 L 993.962320621221 107.18341644067004 L 993.7259721291132 107.16899108145788 L 993.4899545554441 107.15349803662431 L 993.2542915017746 107.1369388554609 L 993.0190065342134 107.11931519387196 L 992.7841231810614 107.10062881420897 L 992.5496649304581 107.08088158509435 L 992.3156552280333 107.0600754812345 L 992.0821174745619 107.03821258322252 L 991.849075023625 107.01529507732995 L 991.6165511792733 106.99132525528832 L 991.3845691936974 106.96630551405984 L 991.1531522649028 106.94023835559778 L 990.9223235343893 106.91312638659626 L 990.6921060848377 106.88497231822961 L 990.4625229378012 106.85577896588119 L 990.2335970514029 106.8255492488619 L 990.0053513180409 106.79428619011826 L 989.7778085620982 106.76199291593008 L 989.5509915376609 106.72867265559789 L 989.3249229262425 106.69432874111995 L 989.0996253345155 106.65896460685907 L 988.8751212920514 106.62258378919921 L 988.6514332490675 106.58518992619184 L 988.4285835741816 106.5467867571921 L 988.2065945521755 106.50737812248485 L 987.9854883817665 106.46696796290075 L 987.765287173387 106.42556031942208 L 987.5460129469749 106.38315933277867 L 987.3276876297697 106.33976924303387 L 987.1103330541213 106.29539438916049 L 986.8939709553063 106.25003920860692 L 986.6786229693539 106.20370823685344 L 986.4643106308837 106.15640610695861 L 986.2510553709506 106.108137549096 L 986.0388785149031 106.05890739008117 L 985.8278012802498 106.00872055288902 L 985.6178447745384 105.9575820561614 L 985.4090299932445 105.90549701370541 L 985.2013778176722 105.85247063398188 L 984.9949090128661 105.79850821958458 L 984.7896442255344 105.74361516670999 L 984.585603981985 105.68779696461766 L 984.3828086860719 105.63105919508126 L 984.1812786171562 105.5734075318305 L 983.9810339280765 105.51484773998365 L 983.7820946431349 105.45538567547108 L 983.5844806560941 105.3950272844497 L 983.3882117281883 105.33377860270829 L 983.1933074861464 105.27164575506403 L 982.9997874202305 105.20863495474987 L 982.8076708822857 105.14475250279335 L 982.616977083806 105.08000478738643 L 982.427725094012 105.01439828324668 L 982.239933837945 104.94793955096986 L 982.0536220945744 104.8806352363738 L 981.868808494919 104.8124920698339 L 981.685511520185 104.74351686560999 L 981.5037494999167 104.67371652116503 L 981.3235406101652 104.6030980164753 L 981.1449028716689 104.53166841333243 L 980.967854148053 104.4594348546372 L 980.7924121440421 104.38640456368528 L 980.6185944036907 104.31258484344491 L 980.4464183086278 104.2379830758266 L 980.2759010763194 104.16260672094495 L 980.1070597583468 104.08646331637262 L 979.9399112387009 104.00956047638662 L 979.7744722320946 103.93190589120688 L 979.6107592822904 103.85350732622719 L 979.4487887604471 103.77437262123871 L 979.2885768634818 103.694509689646 L 979.1301396124506 103.61392651767568 L 978.9734928509469 103.53263116357778 L 978.818652243516 103.45063175681996 L 978.6656332740897 103.36793649727457 L 978.5144512444374 103.28455365439865 L 978.3651212726361 103.20049156640701 L 978.2176582915586 103.1157586394384 L 978.07207704738 103.03036334671489 L 977.9283920981036 102.94431422769459 L 977.7866178121044 102.85761988721772 L 977.646768366693 102.77028899464605 L 977.5088577466972 102.68233028299609 L 977.3728997430642 102.5937525480657 L 977.2389079514811 102.50456464755453 L 977.1068957710154 102.41477550017834 L 976.976876402775 102.32439408477703 L 976.8488628485885 102.23342943941684 L 976.7228679097046 102.14189066048647 L 976.5989041855123 102.04978690178756 L 976.4769840722806 101.95712737361922 L 976.3571197619192 101.86392134185704 L 976.2393232407593 101.77017812702654 L 976.1236062883548 101.67590710337106 L 976.0099804763046 101.58111769791444 L 975.8984571670952 101.48581938951821 L 975.7890475129645 101.39002170793381 L 975.6817624547868 101.29373423284954 L 975.5766127209786 101.19696659293271 L 975.4736088264256 101.09972846486664 L 975.3727610714312 101.00202957238312 L 975.2740795406871 100.90387968528998 L 975.1775741022642 100.80528861849413 L 975.0832544066258 100.70626623102011 L 974.9911298856628 100.60682242502413 L 974.9012097517506 100.50696714480392 L 974.8135029968277 100.40671037580431 L 974.7280183914963 100.30606214361863 L 974.6447644841461 100.20503251298624 L 974.563749600098 100.103631586786 L 974.4849818407732 100.00186950502604 L 974.408469082882 99.89975644382972 L 974.3342189776362 99.79730261441809 L 974.2622389499846 99.69451826208869 L 974.1925361978699 99.59141366519111 L 974.1251176915094 99.48799913409913 L 974.0599901726974 99.38428501017967 L 973.9971601541315 99.28028166475868 L 973.9366339187613 99.17599949808405 L 973.8784175191598 99.07144893828554 L 973.8225167769186 98.96664044033201 L 973.7689372820652 98.86158448498593 L 973.7176843925043 98.75629157775525 L 973.6687632334825 98.65077224784297 L 973.6221786970747 98.54503704709414 L 973.5779354416958 98.43909654894075 L 973.5360378916344 98.33296134734431 L 973.4964902366106 98.22664205573652 L 973.459296431357 98.12014930595798 L 973.4244601952231 98.01349374719489 L 973.3919850118034 97.90668604491427 L 973.3618741285894 97.79973687979731 L 973.3341305566441 97.69265694667143 L 973.3087570703018 97.58545695344071 L 973.2857562068898 97.47814762001512 L 973.2651302664754 97.37073967723859 L 973.2468813116352 97.26324386581588 L 973.2310111672498 97.15567093523856 L 973.2175214203203 97.04803164271006 L 973.20641341981 96.94033675206991 L 973.19768827651 96.83259703271744 L 973.191346862927 96.7248232585348 L 973.1873898131975 96.6170262068096 L 973.1858175230227 96.50921665715717" stroke-miterlimit="10" stroke-width="2.7769845610000004" stroke-dasharray=""/></g><g><text fill="black" stroke="none" font-family="sans-serif" font-size="11pt" font-style="normal" font-weight="normal" text-decoration="normal" x="965.6572391472005" y="124.80095321200001" text-anchor="start" dominant-baseline="alphabetic" xml:space="preserve">Database</text></g></g><g><path fill="white" stroke="black" paint-order="fill stroke markers" d=" M 304.01233161712236 183.607685092 L 320.34753491712235 183.607685092 L 320.34753491712235 799.4448495019998 L 304.01233161712236 799.4448495019998 L 304.01233161712236 183.607685092" stroke-miterlimit="10" stroke-width="1.3612669416666667" stroke-dasharray=""/><path fill="white" stroke="black" paint-order="fill stroke markers" d=" M 531.7533987057291 320.823392812 L 548.0886020057292 320.823392812 L 548.0886020057292 729.2034753119998 L 531.7533987057291 729.2034753119998 L 531.7533987057291 320.823392812" stroke-miterlimit="10" stroke-width="1.3612669416666667" stroke-dasharray=""/><path fill="white" stroke="black" paint-order="fill stroke markers" d=" M 760.3104905746093 366.561962052 L 776.6456938746094 366.561962052 L 776.6456938746094 503.777669772 L 760.3104905746093 503.777669772 L 760.3104905746093 366.561962052" stroke-miterlimit="10" stroke-width="1.3612669416666667" stroke-dasharray=""/><path fill="white" stroke="black" paint-order="fill stroke markers" d=" M 988.8675824434895 412.300531292 L 1005.2027857434896 412.300531292 L 1005.2027857434896 458.039100532 L 988.8675824434895 458.039100532 L 988.8675824434895 412.300531292" stroke-miterlimit="10" stroke-width="1.3612669416666667" stroke-dasharray=""/><g><g><rect fill="white" stroke="none" x="94.44182949393225" y="162.371920802" width="188.63708747925781" height="21.23576429"/></g><text fill="black" stroke="none" font-family="sans-serif" font-size="11pt" font-style="normal" font-weight="normal" text-decoration="normal" x="96.89210998893225" y="177.07360377199998" text-anchor="start" dominant-baseline="alphabetic" xml:space="preserve">Go to group's newfeed page</text></g><g><path fill="none" stroke="black" paint-order="fill stroke markers" d=" M 73.50841485 183.607685092 L 290.5630142334557 183.607685092" stroke-miterlimit="10" stroke-width="1.3612669416666667" stroke-dasharray=""/><g transform="translate(304.01233161712236,183.607685092) translate(-304.01233161712236,-183.607685092)"><path fill="black" stroke="none" paint-order="stroke fill markers" d=" M 290.3996622004557 176.80135038366666 L 304.01233161712236 183.607685092 L 290.3996622004557 190.41401980033334 Z"/></g></g><g><g><rect fill="white" stroke="none" x="147.59499721854164" y="208.110490042" width="82.33075203003906" height="21.23576429"/></g><text fill="black" stroke="none" font-family="sans-serif" font-size="11pt" font-style="normal" font-weight="normal" text-decoration="normal" x="150.04527771354162" y="222.812173012" text-anchor="start" dominant-baseline="alphabetic" xml:space="preserve">Group page</text></g><g><path fill="none" stroke="black" paint-order="fill stroke markers" d=" M 304.01233161712236 229.346254332 L 86.95773223366666 229.346254332" stroke-miterlimit="10" stroke-width="1.3612669416666667" stroke-dasharray="6.53408132"/><g transform="translate(73.50841485,229.346254332) translate(-73.50841485,-229.346254332)"><path fill="black" stroke="none" paint-order="stroke fill markers" d=" M 87.12108426666666 222.53991962366666 L 73.50841485 229.346254332 L 87.12108426666666 236.15258904033334 Z"/></g></g><g><g><rect fill="white" stroke="none" x="92.83840542166662" y="253.849059282" width="191.84393562378906" height="21.23576429"/></g><text fill="black" stroke="none" font-family="sans-serif" font-size="11pt" font-style="normal" font-weight="normal" text-decoration="normal" x="95.28868591666662" y="268.550742252" text-anchor="start" dominant-baseline="alphabetic" xml:space="preserve">Go to group's Curriculum tab</text></g><g><path fill="none" stroke="black" paint-order="fill stroke markers" d=" M 73.50841485 275.084823572 L 290.5630142334557 275.084823572" stroke-miterlimit="10" stroke-width="1.3612669416666667" stroke-dasharray=""/><g transform="translate(304.01233161712236,275.084823572) translate(-304.01233161712236,-275.084823572)"><path fill="black" stroke="none" paint-order="stroke fill markers" d=" M 290.3996622004557 268.27848886366667 L 304.01233161712236 275.084823572 L 290.3996622004557 281.89115828033334 Z"/></g></g><g><g><rect fill="white" stroke="none" x="344.97458359425775" y="299.587628522" width="162.15176643433594" height="21.23576429"/></g><text fill="black" stroke="none" font-family="sans-serif" font-size="11pt" font-style="normal" font-weight="normal" text-decoration="normal" x="347.42486408925777" y="314.28931149199997" text-anchor="start" dominant-baseline="alphabetic" xml:space="preserve">GET: /api/curriculum/{id}</text></g><g><path fill="none" stroke="black" paint-order="fill stroke markers" d=" M 320.34753491712235 320.823392812 L 518.3040813220624 320.823392812" stroke-miterlimit="10" stroke-width="1.3612669416666667" stroke-dasharray=""/><g transform="translate(531.7533987057291,320.823392812) translate(-531.7533987057291,-320.823392812)"><path fill="black" stroke="none" paint-order="stroke fill markers" d=" M 518.1407292890624 314.01705810366667 L 531.7533987057291 320.823392812 L 518.1407292890624 327.62972752033335 Z"/></g></g><g><g><rect fill="white" stroke="none" x="630.9726163200716" y="345.326197762" width="46.453859940195315" height="21.23576429"/></g><text fill="black" stroke="none" font-family="sans-serif" font-size="11pt" font-style="normal" font-weight="normal" text-decoration="normal" x="633.4228968150716" y="360.02788073199997" text-anchor="start" dominant-baseline="alphabetic" xml:space="preserve">get(id)</text></g><g><path fill="none" stroke="black" paint-order="fill stroke markers" d=" M 548.0886020057292 366.561962052 L 746.8611731909426 366.561962052" stroke-miterlimit="10" stroke-width="1.3612669416666667" stroke-dasharray=""/><g transform="translate(760.3104905746093,366.561962052) translate(-760.3104905746093,-366.561962052)"><path fill="black" stroke="none" paint-order="stroke fill markers" d=" M 746.6978211579426 359.7556273436667 L 760.3104905746093 366.561962052 L 746.6978211579426 373.36829676033335 Z"/></g></g><g><g><rect fill="white" stroke="none" x="859.5297081889518" y="391.064767002" width="46.453859940195315" height="21.23576429"/></g><text fill="black" stroke="none" font-family="sans-serif" font-size="11pt" font-style="normal" font-weight="normal" text-decoration="normal" x="861.9799886839518" y="405.766449972" text-anchor="start" dominant-baseline="alphabetic" xml:space="preserve">get(id)</text></g><g><path fill="none" stroke="black" paint-order="fill stroke markers" d=" M 776.6456938746094 412.300531292 L 975.4182650598228 412.300531292" stroke-miterlimit="10" stroke-width="1.3612669416666667" stroke-dasharray=""/><g transform="translate(988.8675824434895,412.300531292) translate(-988.8675824434895,-412.300531292)"><path fill="black" stroke="none" paint-order="stroke fill markers" d=" M 975.2549130268228 405.4941965836667 L 988.8675824434895 412.300531292 L 975.2549130268228 419.10686600033335 Z"/></g></g><g><g><rect fill="white" stroke="none" x="795.975684446276" y="436.803336242" width="173.56190742554688" height="21.23576429"/></g><text fill="black" stroke="none" font-family="sans-serif" font-size="11pt" font-style="normal" font-weight="normal" text-decoration="normal" x="798.425964941276" y="451.505019212" text-anchor="start" dominant-baseline="alphabetic" xml:space="preserve">Optional Curriculum value</text></g><g><path fill="none" stroke="black" paint-order="fill stroke markers" d=" M 988.8675824434895 458.039100532 L 790.095011258276 458.039100532" stroke-miterlimit="10" stroke-width="1.3612669416666667" stroke-dasharray="6.53408132"/><g transform="translate(776.6456938746094,458.039100532) translate(-776.6456938746094,-458.039100532)"><path fill="black" stroke="none" paint-order="stroke fill markers" d=" M 790.258363291276 451.2327658236667 L 776.6456938746094 458.039100532 L 790.258363291276 464.84543524033336 Z"/></g></g><g><g><rect fill="white" stroke="none" x="567.4185925773958" y="482.541905482" width="173.56190742554688" height="21.23576429"/></g><text fill="black" stroke="none" font-family="sans-serif" font-size="11pt" font-style="normal" font-weight="normal" text-decoration="normal" x="569.8688730723958" y="497.243588452" text-anchor="start" dominant-baseline="alphabetic" xml:space="preserve">Optional Curriculum value</text></g><g><path fill="none" stroke="black" paint-order="fill stroke markers" d=" M 760.3104905746093 503.777669772 L 561.5379193893958 503.777669772" stroke-miterlimit="10" stroke-width="1.3612669416666667" stroke-dasharray="6.53408132"/><g transform="translate(548.0886020057292,503.777669772) translate(-548.0886020057292,-503.777669772)"><path fill="black" stroke="none" paint-order="stroke fill markers" d=" M 561.7012714223958 496.9713350636667 L 548.0886020057292 503.777669772 L 561.7012714223958 510.58400448033336 Z"/></g></g><g><g><rect fill="white" stroke="none" x="365.76552292531244" y="572.385523632" width="120.56988777222656" height="21.23576429"/></g><text fill="red" stroke="none" font-family="sans-serif" font-size="11pt" font-style="normal" font-weight="normal" text-decoration="normal" x="368.21580342031245" y="587.0872066019999" text-anchor="start" dominant-baseline="alphabetic" xml:space="preserve">404 NOT FOUND</text></g><g><path fill="none" stroke="black" paint-order="fill stroke markers" d=" M 531.7533987057291 593.621287922 L 333.796852300789 593.621287922" stroke-miterlimit="10" stroke-width="1.3612669416666667" stroke-dasharray="6.53408132"/><g transform="translate(320.34753491712235,593.621287922) translate(-320.34753491712235,-593.621287922)"><path fill="black" stroke="none" paint-order="stroke fill markers" d=" M 333.960204333789 586.8149532136666 L 320.34753491712235 593.621287922 L 333.960204333789 600.4276226303333 Z"/></g></g><g><g><rect fill="white" stroke="none" x="129.66730861990882" y="618.1240928719999" width="118.18612922730469" height="21.23576429"/></g><text fill="black" stroke="none" font-family="sans-serif" font-size="11pt" font-style="normal" font-weight="normal" text-decoration="normal" x="132.1175891149088" y="632.8257758419999" text-anchor="start" dominant-baseline="alphabetic" xml:space="preserve">Display 404 page</text></g><g><path fill="none" stroke="black" paint-order="fill stroke markers" d=" M 304.01233161712236 639.3598571619999 L 86.95773223366666 639.3598571619999" stroke-miterlimit="10" stroke-width="1.3612669416666667" stroke-dasharray="6.53408132"/><g transform="translate(73.50841485,639.3598571619999) translate(-73.50841485,-639.3598571619999)"><path fill="black" stroke="none" paint-order="stroke fill markers" d=" M 87.12108426666666 632.5535224536666 L 73.50841485 639.3598571619999 L 87.12108426666666 646.1661918703333 Z"/></g></g><g><g><rect fill="white" stroke="none" x="339.677525488789" y="707.9677110219998" width="172.74588264527344" height="21.23576429"/></g><text fill="green" stroke="none" font-family="sans-serif" font-size="11pt" font-style="normal" font-weight="normal" text-decoration="normal" x="342.127805983789" y="722.6693939919998" text-anchor="start" dominant-baseline="alphabetic" xml:space="preserve">200 OK: Curriculum value</text></g><g><path fill="none" stroke="black" paint-order="fill stroke markers" d=" M 531.7533987057291 729.2034753119998 L 333.796852300789 729.2034753119998" stroke-miterlimit="10" stroke-width="1.3612669416666667" stroke-dasharray="6.53408132"/><g transform="translate(320.34753491712235,729.2034753119998) translate(-320.34753491712235,-729.2034753119998)"><path fill="black" stroke="none" paint-order="stroke fill markers" d=" M 333.960204333789 722.3971406036665 L 320.34753491712235 729.2034753119998 L 333.960204333789 736.0098100203331 Z"/></g></g><g><g><rect fill="white" stroke="none" x="100.58716945975256" y="753.7062802619997" width="176.3464075476172" height="21.23576429"/></g><text fill="black" stroke="none" font-family="sans-serif" font-size="11pt" font-style="normal" font-weight="normal" text-decoration="normal" x="103.03744995475256" y="768.4079632319997" text-anchor="start" dominant-baseline="alphabetic" xml:space="preserve">Display group's curriculum</text></g><g><path fill="none" stroke="black" paint-order="fill stroke markers" d=" M 304.01233161712236 774.9420445519997 L 86.95773223366666 774.9420445519997" stroke-miterlimit="10" stroke-width="1.3612669416666667" stroke-dasharray="6.53408132"/><g transform="translate(73.50841485,774.9420445519997) translate(-73.50841485,-774.9420445519997)"><path fill="black" stroke="none" paint-order="stroke fill markers" d=" M 87.12108426666666 768.1357098436664 L 73.50841485 774.9420445519997 L 87.12108426666666 781.7483792603331 Z"/></g></g><g><g/><path fill="none" stroke="black" paint-order="fill stroke markers" d=" M 16.335203299999996 528.280474722 L 597.0942119057291 528.280474722 L 597.0942119057291 799.4448495019998 L 16.335203299999996 799.4448495019998 L 16.335203299999996 528.280474722 Z" stroke-miterlimit="10" stroke-width="2.3336004714285714" stroke-dasharray=""/><path fill="white" stroke="black" paint-order="fill stroke markers" d=" M 16.335203299999996 528.280474722 L 16.335203299999996 547.882718682 L 62.69440689707031 547.882718682 L 72.49552887707031 538.081596702 L 72.49552887707031 528.280474722 L 16.335203299999996 528.280474722" stroke-miterlimit="10" stroke-width="2.3336004714285714" stroke-dasharray=""/><text fill="black" stroke="none" font-family="sans-serif" font-size="8.8pt" font-style="normal" font-weight="bold" text-decoration="normal" x="32.67040659999999" y="541.348637362" text-anchor="start" dominant-baseline="alphabetic" xml:space="preserve">alt</text><g><rect fill="white" stroke="none" x="86.38045168207032" y="529.587290986" width="152.84842170777344" height="16.988611432000003"/></g><text fill="black" stroke="none" font-family="sans-serif" font-size="8.8pt" font-style="normal" font-weight="bold" text-decoration="normal" x="88.83073217707032" y="541.348637362" text-anchor="start" dominant-baseline="alphabetic" xml:space="preserve">[If optional value is empty]</text><g><path fill="none" stroke="black" paint-order="fill stroke markers" d=" M 16.335203299999996 663.8626621119998 L 597.0942119057291 663.8626621119998" stroke-miterlimit="10" stroke-width="2.3336004714285714" stroke-dasharray="4.083800825"/></g><g/><g><rect fill="white" stroke="none" x="86.38045168207032" y="665.1694783759998" width="36.84300483765625" height="16.988611432000003"/></g><text fill="black" stroke="none" font-family="sans-serif" font-size="8.8pt" font-style="normal" font-weight="bold" text-decoration="normal" x="88.83073217707032" y="676.9308247519998" text-anchor="start" dominant-baseline="alphabetic" xml:space="preserve">[Else]</text></g><g/></g></g></svg>