<svg version="1.1" xmlns="http://www.w3.org/2000/svg" xmlns:xlink="http://www.w3.org/1999/xlink" width="988" height="856"><desc>title%20Get%20Syllabus%20detail%20of%20Group%0A%0Aactor%20%23green%3A0.5%20%22Workspace%20User%22%20as%20w%0Aboundary%20%22Group%20page%22%20as%20f%0Acontrol%20%22Syllabus%20Controller%22%20as%20gc%0Aparticipant%20%22Syllabus%20Service%22%20as%20gs%0A%0Adatabase%20%23blue%3A1%20%22Database%22%20as%20db%0A%0Aw-%3Ef%3AGo%20to%20group's%20newfeed%20page%0Aactivate%20f%0Aw%3C--f%3A%20Group%20page%0Aw-%3Ef%3AGo%20to%20group's%20Syllabus%20tab%0Af-%3Egc%3AGET%3A%20%2Fapi%2Fsyllabus%2F%7Bid%7D%0Aactivate%20gc%0Agc-%3Egs%3A%20get(id)%0Aactivate%20gs%0Ags-%3Edb%3A%20get(id)%0Aactivate%20db%0Ags%3C--db%3AOptional%20Syllabus%20value%0Adeactivate%20db%0Agc%3C--gs%3AOptional%20Syllabus%20value%0Adeactivate%20gs%0Aactivate%20gs%0Adeactivate%20gs%0Aalt%20If%20optional%20value%20is%20empty%0Af%3C--gc%3A%3Ccolor%3A%23red%3E404%20NOT%20FOUND%3C%2Fcolor%3E%0Aw%3C--f%3A%20Display%20404%20page%0A%0Aelse%20Else%0A%0Af%3C--gc%3A%3Ccolor%3A%23green%3E200%20OK%3A%20Syllabus%20value%3C%2Fcolor%3E%0Adeactivate%20gc%0A%0Aw%3C--f%3A%20Display%20group's%20syllabus%0Adeactivate%20f%0Aend</desc><defs/><g><g/><g/><g/><g/><g/><g/><g/><g/><g/><g/><g/><g/><g/><g/><g/><g/><g/><g><rect fill="white" stroke="none" x="0" y="0" width="988" height="856"/></g><g><text fill="black" stroke="none" font-family="sans-serif" font-size="16.5pt" font-style="normal" font-weight="normal" text-decoration="normal" x="356.57616068590494" y="24.50280495" text-anchor="start" dominant-baseline="alphabetic" xml:space="preserve">Get Syllabus detail of Group</text></g><g/><g><path fill="none" stroke="black" paint-order="fill stroke markers" d=" M 73.50841485 129.701514202 L 73.50841485 856.6180610519998" stroke-miterlimit="10" stroke-width="1.3612669416666667" stroke-dasharray="12.565541,5.445067766666667"/><path fill="none" stroke="black" paint-order="fill stroke markers" d=" M 308.9730851225911 129.701514202 L 308.9730851225911 856.6180610519998" stroke-miterlimit="10" stroke-width="1.3612669416666667" stroke-dasharray="12.565541,5.445067766666667"/><path fill="none" stroke="black" paint-order="fill stroke markers" d=" M 521.2596081438151 129.701514202 L 521.2596081438151 856.6180610519998" stroke-miterlimit="10" stroke-width="1.3612669416666667" stroke-dasharray="12.565541,5.445067766666667"/><path fill="none" stroke="black" paint-order="fill stroke markers" d=" M 734.3621559453125 129.701514202 L 734.3621559453125 856.6180610519998" stroke-miterlimit="10" stroke-width="1.3612669416666667" stroke-dasharray="12.565541,5.445067766666667"/><path fill="none" stroke="black" paint-order="fill stroke markers" d=" M 947.4647037468098 129.701514202 L 947.4647037468098 856.6180610519998" stroke-miterlimit="10" stroke-width="1.3612669416666667" stroke-dasharray="12.565541,5.445067766666667"/></g><g><g><path fill="white" stroke="green" paint-order="fill stroke markers" d=" M 82.819480731 60.60360424300001 A 9.311065881 9.311065881 0 1 1 82.81947607546743 60.594293178670846 M 73.50841485 69.91467012400001 L 73.50841485 89.84361815000001 M 61.747068473999995 77.102159576 L 85.26976122599999 77.102159576 M 73.50841485 89.84361815000001 L 61.747068473999995 108.465749912 M 73.50841485 89.84361815000001 L 85.26976122599999 108.465749912" stroke-miterlimit="10" stroke-width="1.3884922805000002" stroke-dasharray=""/></g><g><text fill="black" stroke="none" font-family="sans-serif" font-size="11pt" font-style="normal" font-weight="normal" text-decoration="normal" x="19.467635736230463" y="124.80095321200001" text-anchor="start" dominant-baseline="alphabetic" xml:space="preserve">Workspace User</text></g><g><path fill="white" stroke="black" paint-order="fill stroke markers" d=" M 341.3984636730911 82.819480731 A 24.2577769005 24.2577769005 0 1 1 341.3984515442037 82.79522295814245 M 277.9361988525911 57.17321154999999 L 277.9361988525911 108.465749912 M 276.5477065720911 82.819480731 L 292.8829098720911 82.819480731" stroke-miterlimit="10" stroke-width="2.7769845610000004" stroke-dasharray=""/></g><g><text fill="black" stroke="none" font-family="sans-serif" font-size="11pt" font-style="normal" font-weight="normal" text-decoration="normal" x="270.25798960257157" y="124.80095321200001" text-anchor="start" dominant-baseline="alphabetic" xml:space="preserve">Group page</text></g><g><path fill="white" stroke="black" paint-order="fill stroke markers" d=" M 545.517385044315 82.819480731 A 24.2577769005 24.2577769005 0 1 1 545.5173729154276 82.79522295814245 M 517.992567483815 58.561703830499994 L 527.793689463815 50.39410218049999 M 517.992567483815 58.561703830499994 L 527.793689463815 66.72930548049999" stroke-miterlimit="10" stroke-width="2.7769845610000004" stroke-dasharray=""/></g><g><text fill="black" stroke="none" font-family="sans-serif" font-size="11pt" font-style="normal" font-weight="normal" text-decoration="normal" x="459.74210631276037" y="124.80095321200001" text-anchor="start" dominant-baseline="alphabetic" xml:space="preserve">Syllabus Controller</text></g><path fill="none" stroke="none"/><g><path fill="white" stroke="black" paint-order="fill stroke markers" d=" M 662.454530921453 85.75981732500001 L 806.2697809691718 85.75981732500001 L 806.2697809691718 129.701514202 L 662.454530921453 129.701514202 L 662.454530921453 85.75981732500001 Z" stroke-miterlimit="10" stroke-width="2.613632528" stroke-dasharray=""/></g><g><text fill="black" stroke="none" font-family="sans-serif" font-size="11pt" font-style="normal" font-weight="normal" text-decoration="normal" x="680.1782265019531" y="113.36631090200002" text-anchor="start" dominant-baseline="alphabetic" xml:space="preserve">Syllabus Service</text></g><g><path fill="white" stroke="blue" paint-order="fill stroke markers" d=" M 923.6153069288099 97.684515734 L 923.6153069288099 63.380588804000006 L 971.3141005648098 63.380588804000006 L 971.3141005648098 97.684515734" stroke-miterlimit="10" stroke-width="2.7769845610000004" stroke-dasharray=""/><path fill="white" stroke="blue" paint-order="fill stroke markers" d=" M 971.3141005648098 62.1881189631 L 971.3129081049061 62.29592950801663 L 971.3093308444401 62.403729271968594 L 971.3033691411348 62.51150747506936 L 971.2950235911554 62.619253339588404 L 971.2842950290502 62.72695609102909 L 971.2711845276664 62.834604959206004 L 971.2556933980431 62.94218917932205 L 971.2378231892806 63.04969799304486 L 971.2175756883845 63.15712064958265 L 971.1949529200883 63.2644464067593 L 971.16995714665 63.371664532088516 L 971.1425908676259 63.47876430384712 L 971.1128568196214 63.58573501214718 L 971.0807579760162 63.692565960007016 L 971.0462975466681 63.79924646442086 L 971.0094789775914 63.90576585742718 L 970.970305950612 64.01211348717543 L 970.9287823830002 64.11827871899126 L 970.8849124270782 64.22425093643996 L 970.8387004698048 64.3300195423881 L 970.7901511323375 64.43557396006322 L 970.7392692695695 64.54090363411153 L 970.6860599696446 64.64599803165338 L 970.6305285534484 64.75084664333659 L 970.5726805740763 64.85543898438739 L 970.5125218162782 64.95976459565881 L 970.4500582958796 65.06381304467668 L 970.3852962591803 65.16757392668278 L 970.3182421823303 65.27103686567541 L 970.2489027706814 65.37419151544687 L 970.1772849581167 65.47702756061814 L 970.1033959063581 65.5795347176704 L 970.027243004249 65.68170273597339 L 969.9488338670162 65.7835213988104 L 969.8681763355081 65.88498052439998 L 969.7852784754107 65.98606996691414 L 969.7001485764408 66.08677961749288 L 969.6127951515174 66.18709940525505 L 969.5232269359102 66.28701929830548 L 969.4314528863662 66.38652930473813 L 969.3374821802138 66.48561947363528 L 969.2413242144452 66.58427989606261 L 969.1429886047771 66.6825007060601 L 969.0424851846883 66.7802720816286 L 968.9398240044371 66.87758424571203 L 968.8350153300561 66.97442746717506 L 968.7280696423252 67.07079206177627 L 968.6189976357242 67.1666683931365 L 968.5078102173629 67.2620468737025 L 968.3945185058903 67.35691796570569 L 968.2791338303834 67.45127218211596 L 968.1616677292134 67.54510008759026 L 968.0421319488925 67.63839229941624 L 967.9205384428992 67.73113948845047 L 967.7968993704828 67.82333238005134 L 967.6712270954474 67.9149617550065 L 967.543534184916 68.00601845045483 L 967.413833408073 68.09649336080267 L 967.282137734888 68.18637743863435 L 967.1484603348188 68.27566169561702 L 967.0128145754938 68.36433720339936 L 966.875214021376 68.45239509450451 L 966.7356724324061 68.53982656321674 L 966.5942037626268 68.62662286646201 L 966.450822158787 68.71277532468237 L 966.3055419589278 68.79827532270376 L 966.158377690948 68.88311431059763 L 966.0093440711519 68.9672838045359 L 965.858456002777 69.0507753876393 L 965.7057285745046 69.13358071081912 L 965.5511770589503 69.21569149361203 L 965.3948169111369 69.29709952500816 L 965.2366637669486 69.37779666427225 L 965.0767334415683 69.45777484175761 L 964.9150419278951 69.53702605971311 L 964.7516053949458 69.61554239308303 L 964.5864401862373 69.69331599029945 L 964.4195628181529 69.77033907406746 L 964.2509899782905 69.84660394214286 L 964.0807385237933 69.92210296810242 L 963.9088254796652 69.99682860210643 L 963.7352680370672 70.07077337165379 L 963.5600835515988 70.14392988232913 L 963.3832895415628 70.21629081854239 L 963.2049036862128 70.28784894426022 L 963.0249438239855 70.35859710372968 L 962.8434279507175 70.42852822219379 L 962.6603742178445 70.49763530659898 L 962.4758009305875 70.5659114462944 L 962.2897265461213 70.63334981372294 L 962.1021696717294 70.69994366510412 L 961.9131490629427 70.76568634110825 L 961.7226836216648 70.83057126752253 L 961.530792394281 70.89459195590838 L 961.3374945697542 70.95774200425032 L 961.1428094777057 71.02001509759614 L 960.9467565864825 71.08140500868842 L 960.7493555012103 71.14190559858717 L 960.5506259618332 71.20151081728383 L 960.3505878411395 71.26021470430622 L 960.1492611427745 71.31801138931453 L 959.9466659992405 71.37489509268845 L 959.7428226698827 71.43086012610503 L 959.5377515388644 71.48590089310757 L 959.3314731131277 71.54001188966522 L 959.1240080203434 71.59318770472345 L 958.9153770068476 71.64542302074504 L 958.7056009355682 71.69671261424193 L 958.4947007839372 71.7470513562975 L 958.2826976417941 71.79643421307951 L 958.0696127092765 71.84485624634341 L 957.8554672947001 71.89231261392625 L 957.6402828124278 71.93879857023082 L 957.4240807807286 71.9843094667002 L 957.2068828196254 72.02884075228269 L 956.9887106487334 72.07238797388683 L 956.7695860850879 72.11494677682676 L 956.5495310409625 72.15651290525764 L 956.3285675216785 72.19708220260128 L 956.1067176234035 72.23665061196175 L 955.8840035309424 72.27521417653107 L 955.660447515519 72.31276903998494 L 955.4360719325485 72.3493114468683 L 955.2108992194022 72.38483774297092 L 954.9849518931638 72.41934437569277 L 954.7582525483776 72.45282789439938 L 954.5308238547892 72.48528495076673 L 954.3026885550784 72.51671229911628 L 954.0738694625851 72.54710679673934 L 953.8443894590278 72.5764654042115 L 953.6142714922157 72.60478518569649 L 953.3835385737536 72.63206330923974 L 953.1522137767413 72.65829704705163 L 952.9203202334654 72.68348377578025 L 952.6878811330873 72.70762097677371 L 952.4549197193232 72.73070623633201 L 952.2214592881203 72.75273724594847 L 951.9875231853273 72.77371180254045 L 951.7531348043593 72.79362780866978 L 951.5183175838594 72.81248327275246 L 951.2830950053537 72.83027630925778 L 951.0474905909041 72.84700513889692 L 950.8115279007558 72.86266808880085 L 950.5752305309811 72.87726359268764 L 950.3386221111201 72.89079019101906 L 950.1017263018175 72.90324653114655 L 949.864566792457 72.91463136744649 L 949.6271672987918 72.9249435614447 L 949.3895515605734 72.93418208193043 L 949.1517433391778 72.94234600505929 L 948.9137664152287 72.94943451444577 L 948.6756445862203 72.95544690124485 L 948.4374016641372 72.96038256422287 L 948.1990614730728 72.96424100981763 L 947.9606478468478 72.9670218521878 L 947.722184626626 72.96872481325143 L 947.4836956585309 72.96934972271386 L 947.2452047912603 72.96889651808466 L 947.0067358737025 72.96736524468392 L 946.7683127525503 72.96475605563768 L 946.5299592699173 72.96106921186271 L 946.2916992609529 72.95630508204027 L 946.0535565514597 72.9504641425794 L 945.81555495551 72.94354697756918 L 945.5777182730652 72.93555427872033 L 945.3400702875953 72.9264868452961 L 945.1026347637007 72.91634558403224 L 944.865435444736 72.90513150904647 L 944.6284960504356 72.89284574173689 L 944.3918402745413 72.87948951067006 L 944.1554917824335 72.86506415145789 L 943.9194742087644 72.84957110662431 L 943.6838111550949 72.8330119254609 L 943.4485261875337 72.81538826387197 L 943.2136428343817 72.79670188420899 L 942.9791845837784 72.77695465509434 L 942.7451748813536 72.7561485512345 L 942.5116371278822 72.73428565322251 L 942.2785946769453 72.71136814732996 L 942.0460708325936 72.68739832528833 L 941.8140888470177 72.66237858405984 L 941.5826719182231 72.63631142559778 L 941.3518431877096 72.60919945659627 L 941.1216257381581 72.58104538822961 L 940.8920425911215 72.55185203588118 L 940.6631167047232 72.5216223188619 L 940.4348709713612 72.49035926011825 L 940.2073282154186 72.45806598593009 L 939.9805111909812 72.4247457255979 L 939.7544425795628 72.39040181111994 L 939.5291449878358 72.35503767685907 L 939.3046409453717 72.31865685919922 L 939.0809529023878 72.28126299619186 L 938.8581032275019 72.24285982719209 L 938.6361142054958 72.20345119248485 L 938.4150080350868 72.16304103290075 L 938.1948068267073 72.12163338942209 L 937.9755326002952 72.07923240277869 L 937.75720728309 72.03584231303388 L 937.5398527074416 71.99146745916049 L 937.3234906086266 71.94611227860693 L 937.1081426226742 71.89978130685344 L 936.893830284204 71.85247917695861 L 936.6805750242709 71.80421061909601 L 936.4683981682234 71.75498046008119 L 936.2573209335701 71.70479362288901 L 936.0473644278587 71.65365512616141 L 935.8385496465648 71.60157008370541 L 935.6308974709925 71.54854370398188 L 935.4244286661864 71.49458128958457 L 935.2191638788547 71.43968823671 L 935.0151236353053 71.38387003461766 L 934.8123283393923 71.32713226508127 L 934.6107982704765 71.26948060183051 L 934.4105535813968 71.21092080998365 L 934.2116142964552 71.15145874547107 L 934.0140003094144 71.0911003544497 L 933.8177313815086 71.0298516727083 L 933.6228271394667 70.96771882506403 L 933.4293070735508 70.90470802474988 L 933.237190535606 70.84082557279336 L 933.0464967371263 70.77607785738643 L 932.8572447473323 70.71047135324669 L 932.6694534912654 70.64401262096986 L 932.4831417478947 70.5767083063738 L 932.2983281482393 70.50856513983389 L 932.1150311735053 70.43958993560999 L 931.933269153237 70.36978959116503 L 931.7530602634855 70.29917108647531 L 931.5744225249892 70.22774148333244 L 931.3973738013733 70.1555079246372 L 931.2219317973625 70.08247763368529 L 931.048114057011 70.00865791344492 L 930.8759379619481 69.9340561458266 L 930.7054207296397 69.85867979094495 L 930.5365794116672 69.78253638637263 L 930.3694308920212 69.70563354638664 L 930.2039918854149 69.62797896120689 L 930.0402789356107 69.54958039622719 L 929.8783084137674 69.47044569123871 L 929.7180965168021 69.39058275964601 L 929.559659265771 69.30999958767568 L 929.4030125042672 69.22870423357777 L 929.2481718968363 69.14670482681996 L 929.09515292741 69.06400956727457 L 928.9439708977577 68.98062672439866 L 928.7946409259564 68.89656463640702 L 928.6471779448789 68.8118317094384 L 928.5015967007004 68.72643641671489 L 928.3579117514239 68.6403872976946 L 928.2161374654247 68.55369295721772 L 928.0762880200133 68.46636206464606 L 927.9383774000175 68.37840335299609 L 927.8024193963845 68.28982561806569 L 927.6684276048014 68.20063771755453 L 927.5364154243357 68.11084857017835 L 927.4063960560953 68.02046715477704 L 927.2783825019088 67.92950250941684 L 927.152387563025 67.83796373048648 L 927.0284238388326 67.74585997178757 L 926.9065037256009 67.65320044361923 L 926.7866394152395 67.55999441185705 L 926.6688428940796 67.46625119702654 L 926.5531259416751 67.37198017337107 L 926.4395001296249 67.27719076791445 L 926.3279768204155 67.18189245951821 L 926.2185671662849 67.08609477793381 L 926.1112821081072 66.98980730284956 L 926.0061323742989 66.89303966293272 L 925.9031284797459 66.79580153486665 L 925.8022807247515 66.69810264238313 L 925.7035991940074 66.59995275528999 L 925.6070937555845 66.50136168849414 L 925.5127740599461 66.40233930102012 L 925.4206495389831 66.30289549502413 L 925.3307294050709 66.20304021480393 L 925.243022650148 66.1027834458043 L 925.1575380448166 66.00213521361863 L 925.0742841374664 65.90110558298623 L 924.9932692534184 65.799704656786 L 924.9145014940935 65.69794257502603 L 924.8379887362023 65.59582951382973 L 924.7637386309565 65.4933756844181 L 924.691758603305 65.3905913320887 L 924.6220558511902 65.28748673519112 L 924.5546373448298 65.18407220409914 L 924.4895098260178 65.08035808017966 L 924.4266798074518 64.97635473475869 L 924.3661535720817 64.87207256808405 L 924.3079371724801 64.76752200828555 L 924.252036430239 64.66271351033203 L 924.1984569353855 64.55765755498592 L 924.1472040458247 64.45236464775525 L 924.0982828868028 64.34684531784296 L 924.051698350395 64.24111011709415 L 924.0074550950161 64.13516961894075 L 923.9655575449547 64.0290344173443 L 923.9260098899309 63.92271512573653 L 923.8888160846773 63.81622237595798 L 923.8539798485434 63.70956681719489 L 923.8215046651237 63.602759114914264 L 923.7913937819097 63.49580994979732 L 923.7636502099645 63.38873001667144 L 923.7382767236221 63.28153002344071 L 923.7152758602101 63.17422069001512 L 923.6946499197957 63.066812747238586 L 923.6764009649555 62.959316935815885 L 923.6605308205701 62.85174400523857 L 923.6470410736406 62.74410471271006 L 923.6359330731303 62.636409822069915 L 923.6272079298303 62.52867010271744 L 923.6208665162474 62.4208963285348 L 923.6169094665178 62.313099276809595 L 923.615337176343 62.20528972715717 L 923.616149802951 62.09747846044265 L 923.6193472650796 61.98967625770286 L 923.6249292429852 61.88189389906824 L 923.6328951784749 61.77414216268484 L 923.6432442749616 61.66643182363649 L 923.6559754975444 61.558773652867366 L 923.6710875731115 61.4511784161048 L 923.6885789904682 61.34365687278283 L 923.7084480004869 61.236219774966166 L 923.7306926162836 61.12887786627507 L 923.7553106134151 61.02164188081096 L 923.782299530102 60.91452254208302 L 923.8116566674754 60.807530561935856 L 923.8433790898459 60.70067663947832 L 923.8774636249979 60.593971460013606 L 923.9139068645059 60.487425693970756 L 923.9527051640766 60.381049995837586 L 923.9938546439123 60.27485500309525 L 924.0373511890994 60.16885133515453 L 924.0831904500194 60.06304959229389 L 924.1313678427846 59.95746035459945 L 924.1818785496959 59.852094180906974 L 924.2347175197244 59.746961607746044 L 924.2898794690176 59.64207314828636 L 924.3473588814262 59.537439291286454 L 924.407150009057 59.43307050004484 L 924.4692468728468 59.32897721135367 L 924.5336432631614 59.22516983445505 L 924.6003327404152 59.12165875000019 L 924.669308635716 59.01845430901127 L 924.7405640515318 58.91556683184637 L 924.8140918623805 58.81300660716748 L 924.889884715542 58.7107838909116 L 924.9679350317945 58.60890890526517 L 925.0482350061712 58.507391837641855 L 925.1307766087416 58.406242839663825 L 925.2155515854143 58.30547202614659 L 925.3025514587623 58.205089474087515 L 925.3917675288707 58.105105221658164 L 925.4831908742068 58.00552926720046 L 925.5768123525123 57.90637156822687 L 925.6726226017173 57.807642040424646 L 925.7706120408769 57.709350556664305 L 925.8707708711288 57.61150694601232 L 925.9730890766733 57.514120992748204 L 926.0775564257751 57.417202435386145 L 926.1841624717866 57.320760965701105 L 926.2928965541919 57.224806227759686 L 926.4037477996732 57.12934781695572 L 926.5167051231986 57.03439527905074 L 926.6317572291297 56.93995810921942 L 926.7488926123518 56.84604575110002 L 926.8680995594242 56.75266759585011 L 926.9893661497516 56.65983298120741 L 927.112680256776 56.567551190555996 L 927.2380295491895 56.47583145199805 L 927.3654014921672 56.384682937430995 L 927.494783348621 56.29411476163032 L 927.6261621804731 56.20413598133814 L 927.7595248499497 56.1147555943575 L 927.8948580208951 56.02598253865261 L 928.032148160105 55.937825691455075 L 928.1713815386797 55.85029386837614 L 928.3125442333976 55.763395822525176 L 928.4556221281067 55.677140243634355 L 928.6006009151369 55.591535757189675 L 928.7474660967301 55.50659092356846 L 928.8962029864908 55.42231423718327 L 929.0467967108538 55.33871412563253 L 929.1992322105722 55.25579894885771 L 929.353494242223 55.1735769983074 L 929.5095673797316 55.092056496108135 L 929.6674360159144 55.01124559424221 L 929.8270843640394 54.93115237373246 L 929.9884964594045 54.851784843834196 L 930.151656160935 54.77315094123426 L 930.3165471527965 54.6952585292574 L 930.4831529460274 54.61811539707989 L 930.6514568801872 54.54172925895067 L 930.8214421250225 54.46610775341989 L 930.9930916821507 54.391258442575094 L 931.1663883867592 54.317188811284986 L 931.3413149093217 54.24390626645098 L 931.5178537573319 54.171418136266475 L 931.6959872770519 54.09973166948409 L 931.8756976552785 54.028854034690774 L 932.0569669211234 53.95879231959093 L 932.239776947811 53.88955353029769 L 932.4241094544913 53.82114459063227 L 932.609946008067 53.753572341431656 L 932.7972680250376 53.68684353986444 L 932.9860567733575 53.62096485875517 L 933.1762933743094 53.55594288591707 L 933.3679588043915 53.49178412349323 L 933.5610338972206 53.42849498730643 L 933.7554993454482 53.366081806217544 L 933.9513357026918 53.304550821492676 L 934.1485233854786 53.24390818617902 L 934.3470426752049 53.18415996448957 L 934.5468737201069 53.12531213119671 L 934.7479965372466 53.067370571034715 L 934.9503910145103 53.01034107811134 L 935.1540369126186 52.95422935532834 L 935.3589138671514 52.89904101381123 L 935.565001390584 52.84478157234818 L 935.7722788743359 52.79145645683812 L 935.9807255908314 52.73907099974815 L 936.1903206955726 52.687630439580346 L 936.4010432292235 52.637139920347835 L 936.6128721197066 52.58760449106049 L 936.8257861843092 52.53902910521993 L 937.0397641318024 52.49141862032429 L 937.2547845645696 52.444777797382365 L 937.4708259807468 52.399111300437596 L 937.6878667763723 52.354423696101605 L 937.9058852475476 52.3107194530976 L 938.1248595926072 52.26800294181345 L 938.3447679142989 52.2262784338647 L 938.5655882219742 52.18555010166736 L 938.7872984337858 52.14582201802072 L 939.0098763788977 52.10709815570004 L 939.2332997997007 52.06938238705927 L 939.4575463540389 52.032678483643856 L 939.6825936174438 51.996990115813546 L 939.9084190853765 51.96232085237539 L 940.1350001754786 51.928674160226834 L 940.3623142298297 51.89605340400906 L 940.5903385172138 51.8644618457705 L 940.8190502353923 51.833902644640645 L 941.0484265133839 51.80437885651416 L 941.278444413752 51.775893433745246 L 941.5090809348982 51.74844922485244 L 941.7403130133625 51.722048974233765 L 941.9721175261299 51.69669532189228 L 942.2044712929422 51.672390803172085 L 942.4373510786164 51.649137848504814 L 942.670733595368 51.626938783166544 L 942.9045955051398 51.60579582704531 L 943.1389134219356 51.58571109441911 L 943.3736639141591 51.56668659374447 L 943.6088235069567 51.54872422745561 L 943.8443686845651 51.53182579177417 L 944.0802758926627 51.515992976529645 L 944.3165215407255 51.50122736499037 L 944.5530820043853 51.4875304337052 L 944.7899336277931 51.47490355235584 L 945.0270527259837 51.4633479836199 L 945.2644155872451 51.45286488304463 L 945.5019984754889 51.443455298931354 L 945.7397776326242 51.43512017223063 L 945.9777292809335 51.4278603364482 L 946.2158296254503 51.42167651756158 L 946.4540548563384 51.41656933394751 L 946.6923811512735 51.41253929632009 L 946.9307846778245 51.40958680767973 L 947.1692415958373 51.407712163272826 L 947.4077280598192 51.40691555056227 L 947.6462202213222 51.40719704920866 L 947.884694231329 51.40855663106237 L 948.1231262426375 51.41099416016634 L 948.361492412245 51.414509392769695 L 948.5997689037332 51.419101977352106 L 948.8379318896517 51.42477145465894 L 949.0759575539003 51.431517257747196 L 949.3138220941107 51.43933871204218 L 949.5515017240274 51.44823503540498 L 949.7889726758855 51.45820533821068 L 950.0262112027874 51.4692486234373 L 950.2631935810783 51.48136378676553 L 950.4998961127179 51.49454961668913 L 950.7362951276502 51.50880479463608 L 950.9723669861709 51.524127895100484 L 951.2080880812905 51.54051738578506 L 951.4434348410962 51.5579716277544 L 951.678383731108 51.57648887559884 L 951.9129112566328 51.59606727760904 L 952.1469939651136 51.6167048759611 L 952.3806084484743 51.6383996069124 L 952.6137313454614 51.66114930100791 L 952.8463393439795 51.684951683297186 L 953.0784091834225 51.70980437356183 L 953.309917657 51.735704886553535 L 953.5408416140575 51.76265063224257 L 953.7711579623917 51.79063891607683 L 954.0008436705597 51.81966693925126 L 954.229875770182 51.849731798987726 L 954.4582313582397 51.88083048882531 L 954.6858875993642 51.91295989892094 L 954.9128217281209 51.94611681636038 L 955.1390110512863 51.980297925479526 L 955.3644329501166 52.01549980819594 L 955.5890648826095 52.0517189443507 L 955.8128843857592 52.08895171206036 L 956.0358690778017 52.127194388079175 L 956.2579966604537 52.16644314817141 L 956.4792449211423 52.20669406749378 L 956.6995917352253 52.247943120987884 L 956.9190150682052 52.29018618378274 L 957.1374929779316 52.33341903160728 L 957.3550036167956 52.37763734121275 L 957.5715252339144 52.422836690805035 L 957.7870361773067 52.46901256048684 L 958.001514896058 52.516160332709674 L 958.214939942475 52.564275292735616 L 958.4272899742309 52.613352629108746 L 958.6385437564996 52.663387434136325 L 958.8486801640788 52.71437470437956 L 959.0576781835028 52.7663093411539 L 959.2655169151441 52.819186151038956 L 959.4721755753023 52.8729998463978 L 959.6776334982841 52.92774504590574 L 959.881870138468 52.983416275088445 L 960.0848650723603 53.040007966869396 L 960.2865980006369 53.09751446212657 L 960.487048750173 53.15593001025836 L 960.6861972760606 53.21524876975863 L 960.8840236636132 53.27546480880087 L 961.0805081303569 53.33657210583136 L 961.2756310280087 53.3985645501713 L 961.4693728444414 53.461435942627936 L 961.6617142056348 53.52517999611441 L 961.8526358776132 53.58979033627848 L 962.0421187683684 53.655260502139996 L 962.2301439297693 53.721583946736914 L 962.4166925594564 53.78875403778004 L 962.601746002722 53.85676405831625 L 962.7852857543763 53.92560720740017 L 962.967293460597 53.995276600774254 L 963.1477509207651 54.065765271557225 L 963.326640089285 54.13706617094075 L 963.5039430773887 54.2091721688943 L 963.6796421549255 54.28207605487816 L 963.8537197521339 54.35577053856451 L 964.0261584613992 54.43024825056637 L 964.1969410389942 54.50550174317461 L 964.3660504068034 54.581523491102686 L 964.533469654031 54.658305892239156 L 964.6991820388919 54.73584126840789 L 964.8631709902855 54.81412186613588 L 965.0254201094535 54.89313985742859 L 965.1859131716192 54.97288734055273 L 965.34463412761 55.05335634082646 L 965.5015671054625 55.1345388114168 L 965.6566964120099 55.21642663414435 L 965.8100065344507 55.29901162029506 L 965.9614821419004 55.38228551143916 L 966.1111080869246 55.46623998025691 L 966.2588694070533 55.55086663137139 L 966.4047513262778 55.63615700218803 L 966.5487392565277 55.722102563740805 L 966.6908187991299 55.80869472154519 L 966.8309757462487 55.89592481645755 L 966.9691960823059 55.98378412554111 L 967.1054659853833 56.07226386293816 L 967.239771828604 56.1613551807487 L 967.3721001814959 56.251049169915184 L 967.5024378113335 56.34133686111345 L 967.6307716844628 56.4322092256496 L 967.7570889676035 56.52365717636293 L 967.8813770291322 56.615671568534566 L 968.0036234403466 56.70824320080196 L 968.1238159767073 56.80136281607904 L 968.241942619061 56.89502110248188 L 968.3579915548416 56.98920869425987 L 968.4719511792525 57.083916172732344 L 968.5838100964262 57.17913406723036 L 968.693557120564 57.27485285604382 L 968.8011812770552 57.37106296737362 L 968.9066718035737 57.467754780288786 L 969.0100181511547 57.56491862568861 L 969.1112099852496 57.662544787269525 L 969.2102371867595 57.76062350249672 L 969.3070898530465 57.859144963580405 L 969.4017582989248 57.95809931845658 L 969.4942330576288 58.05747667177222 L 969.5845048817596 58.15726708587479 L 969.6725647442099 58.257460581806065 L 969.758403839067 58.358047140299924 L 969.842013582493 58.459016702784346 L 969.9233856135829 58.56035917238722 L 970.0025117952018 58.66206441494605 L 970.0793842147973 58.764122260021324 L 970.1539951851914 58.866522501913586 L 970.2263372453494 58.96925490068398 L 970.2964031611257 59.072309183178234 L 970.3641859259867 59.17567504405398 L 970.4296787617127 59.279342146811274 L 970.4928751190746 59.38330012482622 L 970.5537686784893 59.48753858238766 L 970.6123533506517 59.59204709573668 L 970.6686232771433 59.69681521410906 L 970.7225728310185 59.80183246078026 L 970.7741966173668 59.907088334113126 L 970.8234894738524 60.012572308608036 L 970.870446471231 60.11827383595545 L 970.9150629138419 60.22418234609071 L 970.957334340078 60.33028724825106 L 970.9972565228318 60.43657793203471 L 971.0348254699185 60.54304376846186 L 971.0700374244744 60.64967411103757 L 971.1028888653339 60.75645829681646 L 971.1333765073797 60.86338564746893 L 971.1614973018734 60.97044547034902 L 971.1872484367588 61.07762705956367 L 971.210627336944 61.184919697043256 L 971.2316316645582 61.29231265361346 L 971.2502593191865 61.399795190068104 L 971.2665084380787 61.50735655824312 L 971.2803773963367 61.614986002091314 L 971.291864807076 61.72267275875801 L 971.3009695215651 61.830406059657264 L 971.3076906293403 61.93817513154877 L 971.3120274582963 62.04596919761514 L 971.3139795747538 62.15377747853961 M 971.3141005648098 96.4920458931 L 971.3129081049061 96.59985643801662 L 971.3093308444401 96.70765620196859 L 971.3033691411348 96.81543440506935 L 971.2950235911554 96.9231802695884 L 971.2842950290502 97.03088302102908 L 971.2711845276664 97.138531889206 L 971.2556933980431 97.24611610932205 L 971.2378231892806 97.35362492304485 L 971.2175756883845 97.46104757958265 L 971.1949529200883 97.5683733367593 L 971.16995714665 97.67559146208852 L 971.1425908676259 97.78269123384712 L 971.1128568196214 97.88966194214719 L 971.0807579760162 97.99649289000702 L 971.0462975466681 98.10317339442086 L 971.0094789775914 98.20969278742717 L 970.970305950612 98.31604041717543 L 970.9287823830002 98.42220564899125 L 970.8849124270782 98.52817786643996 L 970.8387004698048 98.6339464723881 L 970.7901511323375 98.73950089006323 L 970.7392692695695 98.84483056411152 L 970.6860599696446 98.94992496165337 L 970.6305285534484 99.05477357333659 L 970.5726805740763 99.15936591438738 L 970.5125218162782 99.2636915256588 L 970.4500582958796 99.36773997467667 L 970.3852962591803 99.47150085668278 L 970.3182421823303 99.5749637956754 L 970.2489027706814 99.67811844544686 L 970.1772849581167 99.78095449061813 L 970.1033959063581 99.8834616476704 L 970.027243004249 99.98562966597338 L 969.9488338670162 100.08744832881038 L 969.8681763355081 100.18890745439998 L 969.7852784754107 100.28999689691415 L 969.7001485764408 100.39070654749288 L 969.6127951515174 100.49102633525506 L 969.5232269359102 100.59094622830548 L 969.4314528863662 100.69045623473812 L 969.3374821802138 100.78954640363527 L 969.2413242144452 100.8882068260626 L 969.1429886047771 100.9864276360601 L 969.0424851846883 101.0841990116286 L 968.9398240044371 101.18151117571202 L 968.8350153300561 101.27835439717506 L 968.7280696423252 101.37471899177628 L 968.6189976357242 101.4705953231365 L 968.5078102173629 101.56597380370249 L 968.3945185058903 101.6608448957057 L 968.2791338303834 101.75519911211595 L 968.1616677292134 101.84902701759025 L 968.0421319488925 101.94231922941623 L 967.9205384428992 102.03506641845047 L 967.7968993704828 102.12725931005133 L 967.6712270954474 102.2188886850065 L 967.543534184916 102.30994538045483 L 967.413833408073 102.40042029080266 L 967.282137734888 102.49030436863434 L 967.1484603348188 102.579588625617 L 967.0128145754938 102.66826413339936 L 966.875214021376 102.75632202450451 L 966.7356724324061 102.84375349321674 L 966.5942037626268 102.93054979646202 L 966.450822158787 103.01670225468237 L 966.3055419589278 103.10220225270375 L 966.158377690948 103.18704124059762 L 966.0093440711519 103.27121073453588 L 965.858456002777 103.3547023176393 L 965.7057285745046 103.4375076408191 L 965.5511770589503 103.51961842361202 L 965.3948169111369 103.60102645500817 L 965.2366637669486 103.68172359427226 L 965.0767334415683 103.7617017717576 L 964.9150419278951 103.84095298971312 L 964.7516053949458 103.91946932308304 L 964.5864401862373 103.99724292029944 L 964.4195628181529 104.07426600406745 L 964.2509899782905 104.15053087214287 L 964.0807385237933 104.22602989810241 L 963.9088254796652 104.30075553210642 L 963.7352680370672 104.37470030165377 L 963.5600835515988 104.44785681232914 L 963.3832895415628 104.52021774854238 L 963.2049036862128 104.59177587426021 L 963.0249438239855 104.66252403372968 L 962.8434279507175 104.73245515219378 L 962.6603742178445 104.80156223659897 L 962.4758009305875 104.86983837629438 L 962.2897265461213 104.93727674372295 L 962.1021696717294 105.0038705951041 L 961.9131490629427 105.06961327110824 L 961.7226836216648 105.13449819752252 L 961.530792394281 105.19851888590837 L 961.3374945697542 105.26166893425032 L 961.1428094777057 105.32394202759615 L 960.9467565864825 105.38533193868841 L 960.7493555012103 105.44583252858716 L 960.5506259618332 105.50543774728384 L 960.3505878411395 105.56414163430621 L 960.1492611427745 105.62193831931454 L 959.9466659992405 105.67882202268845 L 959.7428226698827 105.73478705610502 L 959.5377515388644 105.78982782310756 L 959.3314731131277 105.84393881966523 L 959.1240080203434 105.89711463472344 L 958.9153770068476 105.94934995074503 L 958.7056009355682 106.00063954424192 L 958.4947007839372 106.0509782862975 L 958.2826976417941 106.1003611430795 L 958.0696127092765 106.14878317634341 L 957.8554672947001 106.19623954392625 L 957.6402828124278 106.2427255002308 L 957.4240807807286 106.2882363967002 L 957.2068828196254 106.33276768228268 L 956.9887106487334 106.37631490388682 L 956.7695860850879 106.41887370682676 L 956.5495310409625 106.46043983525765 L 956.3285675216785 106.50100913260128 L 956.1067176234035 106.54057754196174 L 955.8840035309424 106.57914110653107 L 955.660447515519 106.61669596998493 L 955.4360719325485 106.65323837686829 L 955.2108992194022 106.6887646729709 L 954.9849518931638 106.72327130569276 L 954.7582525483776 106.75675482439937 L 954.5308238547892 106.78921188076673 L 954.3026885550784 106.82063922911627 L 954.0738694625851 106.85103372673933 L 953.8443894590278 106.8803923342115 L 953.6142714922157 106.90871211569649 L 953.3835385737536 106.93599023923973 L 953.1522137767413 106.96222397705162 L 952.9203202334654 106.98741070578025 L 952.6878811330873 107.0115479067737 L 952.4549197193232 107.03463316633201 L 952.2214592881203 107.05666417594847 L 951.9875231853273 107.07763873254045 L 951.7531348043593 107.09755473866979 L 951.5183175838594 107.11641020275246 L 951.2830950053537 107.13420323925777 L 951.0474905909041 107.1509320688969 L 950.8115279007558 107.16659501880085 L 950.5752305309811 107.18119052268763 L 950.3386221111201 107.19471712101905 L 950.1017263018175 107.20717346114655 L 949.864566792457 107.21855829744648 L 949.6271672987918 107.22887049144471 L 949.3895515605734 107.23810901193042 L 949.1517433391778 107.24627293505928 L 948.9137664152287 107.25336144444577 L 948.6756445862203 107.25937383124486 L 948.4374016641372 107.26430949422287 L 948.1990614730728 107.26816793981763 L 947.9606478468478 107.27094878218779 L 947.722184626626 107.27265174325143 L 947.4836956585309 107.27327665271386 L 947.2452047912603 107.27282344808465 L 947.0067358737025 107.27129217468391 L 946.7683127525503 107.26868298563768 L 946.5299592699173 107.2649961418627 L 946.2916992609529 107.26023201204026 L 946.0535565514597 107.2543910725794 L 945.81555495551 107.24747390756917 L 945.5777182730652 107.23948120872033 L 945.3400702875953 107.23041377529609 L 945.1026347637007 107.22027251403225 L 944.865435444736 107.20905843904646 L 944.6284960504356 107.1967726717369 L 944.3918402745413 107.18341644067004 L 944.1554917824335 107.16899108145788 L 943.9194742087644 107.15349803662431 L 943.6838111550949 107.1369388554609 L 943.4485261875337 107.11931519387196 L 943.2136428343817 107.10062881420897 L 942.9791845837784 107.08088158509435 L 942.7451748813536 107.0600754812345 L 942.5116371278822 107.03821258322252 L 942.2785946769453 107.01529507732995 L 942.0460708325936 106.99132525528832 L 941.8140888470177 106.96630551405984 L 941.5826719182231 106.94023835559778 L 941.3518431877096 106.91312638659626 L 941.1216257381581 106.88497231822961 L 940.8920425911215 106.85577896588119 L 940.6631167047232 106.8255492488619 L 940.4348709713612 106.79428619011826 L 940.2073282154186 106.76199291593008 L 939.9805111909812 106.72867265559789 L 939.7544425795628 106.69432874111995 L 939.5291449878358 106.65896460685907 L 939.3046409453717 106.62258378919921 L 939.0809529023878 106.58518992619184 L 938.8581032275019 106.5467867571921 L 938.6361142054958 106.50737812248485 L 938.4150080350868 106.46696796290075 L 938.1948068267073 106.42556031942208 L 937.9755326002952 106.38315933277867 L 937.75720728309 106.33976924303387 L 937.5398527074416 106.29539438916049 L 937.3234906086266 106.25003920860692 L 937.1081426226742 106.20370823685344 L 936.893830284204 106.15640610695861 L 936.6805750242709 106.108137549096 L 936.4683981682234 106.05890739008117 L 936.2573209335701 106.00872055288902 L 936.0473644278587 105.9575820561614 L 935.8385496465648 105.90549701370541 L 935.6308974709925 105.85247063398188 L 935.4244286661864 105.79850821958458 L 935.2191638788547 105.74361516670999 L 935.0151236353053 105.68779696461766 L 934.8123283393923 105.63105919508126 L 934.6107982704765 105.5734075318305 L 934.4105535813968 105.51484773998365 L 934.2116142964552 105.45538567547108 L 934.0140003094144 105.3950272844497 L 933.8177313815086 105.33377860270829 L 933.6228271394667 105.27164575506403 L 933.4293070735508 105.20863495474987 L 933.237190535606 105.14475250279335 L 933.0464967371263 105.08000478738643 L 932.8572447473323 105.01439828324668 L 932.6694534912654 104.94793955096986 L 932.4831417478947 104.8806352363738 L 932.2983281482393 104.8124920698339 L 932.1150311735053 104.74351686560999 L 931.933269153237 104.67371652116503 L 931.7530602634855 104.6030980164753 L 931.5744225249892 104.53166841333243 L 931.3973738013733 104.4594348546372 L 931.2219317973625 104.38640456368528 L 931.048114057011 104.31258484344491 L 930.8759379619481 104.2379830758266 L 930.7054207296397 104.16260672094495 L 930.5365794116672 104.08646331637262 L 930.3694308920212 104.00956047638662 L 930.2039918854149 103.93190589120688 L 930.0402789356107 103.85350732622719 L 929.8783084137674 103.77437262123871 L 929.7180965168021 103.694509689646 L 929.559659265771 103.61392651767568 L 929.4030125042672 103.53263116357778 L 929.2481718968363 103.45063175681996 L 929.09515292741 103.36793649727457 L 928.9439708977577 103.28455365439865 L 928.7946409259564 103.20049156640701 L 928.6471779448789 103.1157586394384 L 928.5015967007004 103.03036334671489 L 928.3579117514239 102.94431422769459 L 928.2161374654247 102.85761988721772 L 928.0762880200133 102.77028899464605 L 927.9383774000175 102.68233028299609 L 927.8024193963845 102.5937525480657 L 927.6684276048014 102.50456464755453 L 927.5364154243357 102.41477550017834 L 927.4063960560953 102.32439408477703 L 927.2783825019088 102.23342943941684 L 927.152387563025 102.14189066048647 L 927.0284238388326 102.04978690178756 L 926.9065037256009 101.95712737361922 L 926.7866394152395 101.86392134185704 L 926.6688428940796 101.77017812702654 L 926.5531259416751 101.67590710337106 L 926.4395001296249 101.58111769791444 L 926.3279768204155 101.48581938951821 L 926.2185671662849 101.39002170793381 L 926.1112821081072 101.29373423284954 L 926.0061323742989 101.19696659293271 L 925.9031284797459 101.09972846486664 L 925.8022807247515 101.00202957238312 L 925.7035991940074 100.90387968528998 L 925.6070937555845 100.80528861849413 L 925.5127740599461 100.70626623102011 L 925.4206495389831 100.60682242502413 L 925.3307294050709 100.50696714480392 L 925.243022650148 100.40671037580431 L 925.1575380448166 100.30606214361863 L 925.0742841374664 100.20503251298624 L 924.9932692534184 100.103631586786 L 924.9145014940935 100.00186950502604 L 924.8379887362023 99.89975644382972 L 924.7637386309565 99.79730261441809 L 924.691758603305 99.69451826208869 L 924.6220558511902 99.59141366519111 L 924.5546373448298 99.48799913409913 L 924.4895098260178 99.38428501017967 L 924.4266798074518 99.28028166475868 L 924.3661535720817 99.17599949808405 L 924.3079371724801 99.07144893828554 L 924.252036430239 98.96664044033201 L 924.1984569353855 98.86158448498593 L 924.1472040458247 98.75629157775525 L 924.0982828868028 98.65077224784297 L 924.051698350395 98.54503704709414 L 924.0074550950161 98.43909654894075 L 923.9655575449547 98.33296134734431 L 923.9260098899309 98.22664205573652 L 923.8888160846773 98.12014930595798 L 923.8539798485434 98.01349374719489 L 923.8215046651237 97.90668604491427 L 923.7913937819097 97.79973687979731 L 923.7636502099645 97.69265694667143 L 923.7382767236221 97.58545695344071 L 923.7152758602101 97.47814762001512 L 923.6946499197957 97.37073967723859 L 923.6764009649555 97.26324386581588 L 923.6605308205701 97.15567093523856 L 923.6470410736406 97.04803164271006 L 923.6359330731303 96.94033675206991 L 923.6272079298303 96.83259703271744 L 923.6208665162474 96.7248232585348 L 923.6169094665178 96.6170262068096 L 923.615337176343 96.50921665715717" stroke-miterlimit="10" stroke-width="2.7769845610000004" stroke-dasharray=""/></g><g><text fill="black" stroke="none" font-family="sans-serif" font-size="11pt" font-style="normal" font-weight="normal" text-decoration="normal" x="916.0867588005208" y="124.80095321200001" text-anchor="start" dominant-baseline="alphabetic" xml:space="preserve">Database</text></g></g><g><path fill="white" stroke="black" paint-order="fill stroke markers" d=" M 300.8054834725911 183.607685092 L 317.1406867725911 183.607685092 L 317.1406867725911 774.9420445519997 L 300.8054834725911 774.9420445519997 L 300.8054834725911 183.607685092" stroke-miterlimit="10" stroke-width="1.3612669416666667" stroke-dasharray=""/><path fill="white" stroke="black" paint-order="fill stroke markers" d=" M 513.092006493815 320.823392812 L 529.4272097938151 320.823392812 L 529.4272097938151 729.2034753119998 L 513.092006493815 729.2034753119998 L 513.092006493815 320.823392812" stroke-miterlimit="10" stroke-width="1.3612669416666667" stroke-dasharray=""/><path fill="white" stroke="black" paint-order="fill stroke markers" d=" M 726.1945542953124 366.561962052 L 742.5297575953125 366.561962052 L 742.5297575953125 503.777669772 L 726.1945542953124 503.777669772 L 726.1945542953124 366.561962052" stroke-miterlimit="10" stroke-width="1.3612669416666667" stroke-dasharray=""/><path fill="white" stroke="black" paint-order="fill stroke markers" d=" M 939.2971020968098 412.300531292 L 955.6323053968099 412.300531292 L 955.6323053968099 458.039100532 L 939.2971020968098 458.039100532 L 939.2971020968098 412.300531292" stroke-miterlimit="10" stroke-width="1.3612669416666667" stroke-dasharray=""/><path fill="white" stroke="black" paint-order="fill stroke markers" d=" M 726.1945542953124 503.777669772 L 742.5297575953125 503.777669772 L 742.5297575953125 503.777669772 L 726.1945542953124 503.777669772 L 726.1945542953124 503.777669772" stroke-miterlimit="10" stroke-width="1.3612669416666667" stroke-dasharray=""/><g><g><rect fill="white" stroke="none" x="92.83840542166662" y="162.371920802" width="188.63708747925781" height="21.23576429"/></g><text fill="black" stroke="none" font-family="sans-serif" font-size="11pt" font-style="normal" font-weight="normal" text-decoration="normal" x="95.28868591666662" y="177.07360377199998" text-anchor="start" dominant-baseline="alphabetic" xml:space="preserve">Go to group's newfeed page</text></g><g><path fill="none" stroke="black" paint-order="fill stroke markers" d=" M 73.50841485 183.607685092 L 287.35616608892445 183.607685092" stroke-miterlimit="10" stroke-width="1.3612669416666667" stroke-dasharray=""/><g transform="translate(300.8054834725911,183.607685092) translate(-300.8054834725911,-183.607685092)"><path fill="black" stroke="none" paint-order="stroke fill markers" d=" M 287.19281405592443 176.80135038366666 L 300.8054834725911 183.607685092 L 287.19281405592443 190.41401980033334 Z"/></g></g><g><g><rect fill="white" stroke="none" x="145.991573146276" y="208.110490042" width="82.33075203003906" height="21.23576429"/></g><text fill="black" stroke="none" font-family="sans-serif" font-size="11pt" font-style="normal" font-weight="normal" text-decoration="normal" x="148.441853641276" y="222.812173012" text-anchor="start" dominant-baseline="alphabetic" xml:space="preserve">Group page</text></g><g><path fill="none" stroke="black" paint-order="fill stroke markers" d=" M 300.8054834725911 229.346254332 L 86.95773223366666 229.346254332" stroke-miterlimit="10" stroke-width="1.3612669416666667" stroke-dasharray="6.53408132"/><g transform="translate(73.50841485,229.346254332) translate(-73.50841485,-229.346254332)"><path fill="black" stroke="none" paint-order="stroke fill markers" d=" M 87.12108426666666 222.53991962366666 L 73.50841485 229.346254332 L 87.12108426666666 236.15258904033334 Z"/></g></g><g><g><rect fill="white" stroke="none" x="98.9622533830924" y="253.849059282" width="176.38939155640625" height="21.23576429"/></g><text fill="black" stroke="none" font-family="sans-serif" font-size="11pt" font-style="normal" font-weight="normal" text-decoration="normal" x="101.4125338780924" y="268.550742252" text-anchor="start" dominant-baseline="alphabetic" xml:space="preserve">Go to group's Syllabus tab</text></g><g><path fill="none" stroke="black" paint-order="fill stroke markers" d=" M 73.50841485 275.084823572 L 287.35616608892445 275.084823572" stroke-miterlimit="10" stroke-width="1.3612669416666667" stroke-dasharray=""/><g transform="translate(300.8054834725911,275.084823572) translate(-300.8054834725911,-275.084823572)"><path fill="black" stroke="none" paint-order="stroke fill markers" d=" M 287.19281405592443 268.27848886366667 L 300.8054834725911 275.084823572 L 287.19281405592443 281.89115828033334 Z"/></g></g><g><g><rect fill="white" stroke="none" x="341.3632936162304" y="299.587628522" width="147.50610603394531" height="21.23576429"/></g><text fill="black" stroke="none" font-family="sans-serif" font-size="11pt" font-style="normal" font-weight="normal" text-decoration="normal" x="343.8135741112304" y="314.28931149199997" text-anchor="start" dominant-baseline="alphabetic" xml:space="preserve">GET: /api/syllabus/{id}</text></g><g><path fill="none" stroke="black" paint-order="fill stroke markers" d=" M 317.1406867725911 320.823392812 L 499.64268911014835 320.823392812" stroke-miterlimit="10" stroke-width="1.3612669416666667" stroke-dasharray=""/><g transform="translate(513.092006493815,320.823392812) translate(-513.092006493815,-320.823392812)"><path fill="black" stroke="none" paint-order="stroke fill markers" d=" M 499.47933707714833 314.01705810366667 L 513.092006493815 320.823392812 L 499.47933707714833 327.62972752033335 Z"/></g></g><g><g><rect fill="white" stroke="none" x="604.5839520744661" y="345.326197762" width="46.453859940195315" height="21.23576429"/></g><text fill="black" stroke="none" font-family="sans-serif" font-size="11pt" font-style="normal" font-weight="normal" text-decoration="normal" x="607.0342325694661" y="360.02788073199997" text-anchor="start" dominant-baseline="alphabetic" xml:space="preserve">get(id)</text></g><g><path fill="none" stroke="black" paint-order="fill stroke markers" d=" M 529.4272097938151 366.561962052 L 712.7452369116457 366.561962052" stroke-miterlimit="10" stroke-width="1.3612669416666667" stroke-dasharray=""/><g transform="translate(726.1945542953124,366.561962052) translate(-726.1945542953124,-366.561962052)"><path fill="black" stroke="none" paint-order="stroke fill markers" d=" M 712.5818848786457 359.7556273436667 L 726.1945542953124 366.561962052 L 712.5818848786457 373.36829676033335 Z"/></g></g><g><g><rect fill="white" stroke="none" x="817.6864998759635" y="391.064767002" width="46.453859940195315" height="21.23576429"/></g><text fill="black" stroke="none" font-family="sans-serif" font-size="11pt" font-style="normal" font-weight="normal" text-decoration="normal" x="820.1367803709635" y="405.766449972" text-anchor="start" dominant-baseline="alphabetic" xml:space="preserve">get(id)</text></g><g><path fill="none" stroke="black" paint-order="fill stroke markers" d=" M 742.5297575953125 412.300531292 L 925.8477847131431 412.300531292" stroke-miterlimit="10" stroke-width="1.3612669416666667" stroke-dasharray=""/><g transform="translate(939.2971020968098,412.300531292) translate(-939.2971020968098,-412.300531292)"><path fill="black" stroke="none" paint-order="stroke fill markers" d=" M 925.6844326801431 405.4941965836667 L 939.2971020968098 412.300531292 L 925.6844326801431 419.10686600033335 Z"/></g></g><g><g><rect fill="white" stroke="none" x="761.8597481669791" y="436.803336242" width="158.10736335816406" height="21.23576429"/></g><text fill="black" stroke="none" font-family="sans-serif" font-size="11pt" font-style="normal" font-weight="normal" text-decoration="normal" x="764.3100286619791" y="451.505019212" text-anchor="start" dominant-baseline="alphabetic" xml:space="preserve">Optional Syllabus value</text></g><g><path fill="none" stroke="black" paint-order="fill stroke markers" d=" M 939.2971020968098 458.039100532 L 755.9790749789792 458.039100532" stroke-miterlimit="10" stroke-width="1.3612669416666667" stroke-dasharray="6.53408132"/><g transform="translate(742.5297575953125,458.039100532) translate(-742.5297575953125,-458.039100532)"><path fill="black" stroke="none" paint-order="stroke fill markers" d=" M 756.1424270119792 451.2327658236667 L 742.5297575953125 458.039100532 L 756.1424270119792 464.84543524033336 Z"/></g></g><g><g><rect fill="white" stroke="none" x="548.7572003654817" y="482.541905482" width="158.10736335816406" height="21.23576429"/></g><text fill="black" stroke="none" font-family="sans-serif" font-size="11pt" font-style="normal" font-weight="normal" text-decoration="normal" x="551.2074808604817" y="497.243588452" text-anchor="start" dominant-baseline="alphabetic" xml:space="preserve">Optional Syllabus value</text></g><g><path fill="none" stroke="black" paint-order="fill stroke markers" d=" M 726.1945542953124 503.777669772 L 542.8765271774818 503.777669772" stroke-miterlimit="10" stroke-width="1.3612669416666667" stroke-dasharray="6.53408132"/><g transform="translate(529.4272097938151,503.777669772) translate(-529.4272097938151,-503.777669772)"><path fill="black" stroke="none" paint-order="stroke fill markers" d=" M 543.0398792104818 496.9713350636667 L 529.4272097938151 503.777669772 L 543.0398792104818 510.58400448033336 Z"/></g></g><g><g><rect fill="white" stroke="none" x="354.8314027470898" y="572.385523632" width="120.56988777222656" height="21.23576429"/></g><text fill="red" stroke="none" font-family="sans-serif" font-size="11pt" font-style="normal" font-weight="normal" text-decoration="normal" x="357.2816832420898" y="587.0872066019999" text-anchor="start" dominant-baseline="alphabetic" xml:space="preserve">404 NOT FOUND</text></g><g><path fill="none" stroke="black" paint-order="fill stroke markers" d=" M 513.092006493815 593.621287922 L 330.59000415625775 593.621287922" stroke-miterlimit="10" stroke-width="1.3612669416666667" stroke-dasharray="6.53408132"/><g transform="translate(317.1406867725911,593.621287922) translate(-317.1406867725911,-593.621287922)"><path fill="black" stroke="none" paint-order="stroke fill markers" d=" M 330.7533561892578 586.8149532136666 L 317.1406867725911 593.621287922 L 330.7533561892578 600.4276226303333 Z"/></g></g><g><g><rect fill="white" stroke="none" x="128.0638845476432" y="618.1240928719999" width="118.18612922730469" height="21.23576429"/></g><text fill="black" stroke="none" font-family="sans-serif" font-size="11pt" font-style="normal" font-weight="normal" text-decoration="normal" x="130.51416504264319" y="632.8257758419999" text-anchor="start" dominant-baseline="alphabetic" xml:space="preserve">Display 404 page</text></g><g><path fill="none" stroke="black" paint-order="fill stroke markers" d=" M 300.8054834725911 639.3598571619999 L 86.95773223366666 639.3598571619999" stroke-miterlimit="10" stroke-width="1.3612669416666667" stroke-dasharray="6.53408132"/><g transform="translate(73.50841485,639.3598571619999) translate(-73.50841485,-639.3598571619999)"><path fill="black" stroke="none" paint-order="stroke fill markers" d=" M 87.12108426666666 632.5535224536666 L 73.50841485 639.3598571619999 L 87.12108426666666 646.1661918703333 Z"/></g></g><g><g><rect fill="white" stroke="none" x="336.47067734425775" y="707.9677110219998" width="157.29133857789063" height="21.23576429"/></g><text fill="green" stroke="none" font-family="sans-serif" font-size="11pt" font-style="normal" font-weight="normal" text-decoration="normal" x="338.92095783925777" y="722.6693939919998" text-anchor="start" dominant-baseline="alphabetic" xml:space="preserve">200 OK: Syllabus value</text></g><g><path fill="none" stroke="black" paint-order="fill stroke markers" d=" M 513.092006493815 729.2034753119998 L 330.59000415625775 729.2034753119998" stroke-miterlimit="10" stroke-width="1.3612669416666667" stroke-dasharray="6.53408132"/><g transform="translate(317.1406867725911,729.2034753119998) translate(-317.1406867725911,-729.2034753119998)"><path fill="black" stroke="none" paint-order="stroke fill markers" d=" M 330.7533561892578 722.3971406036665 L 317.1406867725911 729.2034753119998 L 330.7533561892578 736.0098100203331 Z"/></g></g><g><g><rect fill="white" stroke="none" x="106.30657558768225" y="753.7062802619997" width="161.70074714722656" height="21.23576429"/></g><text fill="black" stroke="none" font-family="sans-serif" font-size="11pt" font-style="normal" font-weight="normal" text-decoration="normal" x="108.75685608268225" y="768.4079632319997" text-anchor="start" dominant-baseline="alphabetic" xml:space="preserve">Display group's syllabus</text></g><g><path fill="none" stroke="black" paint-order="fill stroke markers" d=" M 300.8054834725911 774.9420445519997 L 86.95773223366666 774.9420445519997" stroke-miterlimit="10" stroke-width="1.3612669416666667" stroke-dasharray="6.53408132"/><g transform="translate(73.50841485,774.9420445519997) translate(-73.50841485,-774.9420445519997)"><path fill="black" stroke="none" paint-order="stroke fill markers" d=" M 87.12108426666666 768.1357098436664 L 73.50841485 774.9420445519997 L 87.12108426666666 781.7483792603331 Z"/></g></g><g><g/><path fill="none" stroke="black" paint-order="fill stroke markers" d=" M 16.335203299999996 528.280474722 L 578.4328196938151 528.280474722 L 578.4328196938151 799.4448495019998 L 16.335203299999996 799.4448495019998 L 16.335203299999996 528.280474722 Z" stroke-miterlimit="10" stroke-width="2.3336004714285714" stroke-dasharray=""/><path fill="white" stroke="black" paint-order="fill stroke markers" d=" M 16.335203299999996 528.280474722 L 16.335203299999996 547.882718682 L 62.69440689707031 547.882718682 L 72.49552887707031 538.081596702 L 72.49552887707031 528.280474722 L 16.335203299999996 528.280474722" stroke-miterlimit="10" stroke-width="2.3336004714285714" stroke-dasharray=""/><text fill="black" stroke="none" font-family="sans-serif" font-size="8.8pt" font-style="normal" font-weight="bold" text-decoration="normal" x="32.67040659999999" y="541.348637362" text-anchor="start" dominant-baseline="alphabetic" xml:space="preserve">alt</text><g><rect fill="white" stroke="none" x="86.38045168207032" y="529.587290986" width="152.84842170777344" height="16.988611432000003"/></g><text fill="black" stroke="none" font-family="sans-serif" font-size="8.8pt" font-style="normal" font-weight="bold" text-decoration="normal" x="88.83073217707032" y="541.348637362" text-anchor="start" dominant-baseline="alphabetic" xml:space="preserve">[If optional value is empty]</text><g><path fill="none" stroke="black" paint-order="fill stroke markers" d=" M 16.335203299999996 663.8626621119998 L 578.4328196938151 663.8626621119998" stroke-miterlimit="10" stroke-width="2.3336004714285714" stroke-dasharray="4.083800825"/></g><g/><g><rect fill="white" stroke="none" x="86.38045168207032" y="665.1694783759998" width="36.84300483765625" height="16.988611432000003"/></g><text fill="black" stroke="none" font-family="sans-serif" font-size="8.8pt" font-style="normal" font-weight="bold" text-decoration="normal" x="88.83073217707032" y="676.9308247519998" text-anchor="start" dominant-baseline="alphabetic" xml:space="preserve">[Else]</text></g><g/></g></g></svg>