<svg version="1.1" xmlns="http://www.w3.org/2000/svg" xmlns:xlink="http://www.w3.org/1999/xlink" width="1141" height="1302"><desc>title%20Update%20comment%20in%20Post%0A%0Aactor%20%23green%3A0.5%20%22Workspace%20User%22%20as%20w%0Aboundary%20%22Application%20Client%22%20as%20f%0Acontrol%20%22Comment%20Controller%22%20as%20gc%0Aparticipant%20%22Comment%20Service%22%20as%20gs%0A%0Adatabase%20%23blue%3A1%20%22Database%22%20as%20db%0A%0Aw-%3Ef%3AUpdate%20comment%20in%20specific%20post%0Aactivate%20f%0A%0Af-%3Egc%3APUT%3A%20%2Fapi%2Fcomment%2F%7Bid%7D%0Aactivate%20gc%0Agc-%3Egc%3A%20check%20comment's%20owner%0Aactivate%20gc%0Agc%3C--gc%3A%20is%20comment%20owner%0Adeactivate%20gc%0Aalt%20If%20Current%20User%20does%20not%20owner%20of%20the%20comment%0Af%3C--gc%3A%3Ccolor%3A%23red%3E403%20FORBIDDEN%3C%2Fcolor%3E%0Aw%3C--f%3AUpdate%20fail%0Aelse%20%0A%0Agc-%3Egs%3A%20isExist(id)%0Aactivate%20gs%0Ags-%3Edb%3A%20isExist(id)%0Aactivate%20db%0Ags%3C--db%3ABoolean%20value%0Adeactivate%20db%0Agc%3C--gs%3ABoolean%20value%0Adeactivate%20gs%0A%0Aalt%20If%20Comment%20does%20not%20exist%0Af%3C--gc%3A%3Ccolor%3A%23red%3E404%20NOT%20FOUND%3A%20not%20found%3C%2Fcolor%3E%0Aw%3C--f%3AMessage%20cannot%20update%20comment%20in%20post%0Aelse%20%0Agc-%3Egs%3A%20save(id)%0Aactivate%20gs%0Ags-%3Edb%3A%20save(id)%0Aactivate%20db%0Ags%3C--db%3AComment%20data%0Adeactivate%20db%0Agc%3C--gs%3AComment%20data%0Adeactivate%20gs%0Aactivate%20gs%0Adeactivate%20gs%0A%0A%0Af%3C--gc%3A%3Ccolor%3A%23green%3E200%20OK%5CnResponse%20body%3A%20Comment%20data%3C%2Fcolor%3E%0Adeactivate%20gc%0A%0Aw%3C--f%3A%20Display%20post%20with%20updated%20comment%0Adeactivate%20f%0Aend%20%0A%0Aend%0A</desc><defs/><g><g/><g/><g/><g/><g/><g/><g/><g/><g/><g/><g/><g/><g/><g/><g/><g/><g/><g/><g/><g/><g/><g/><g/><g/><g><rect fill="white" stroke="none" x="0" y="0" width="1141" height="1302"/></g><g><text fill="black" stroke="none" font-family="sans-serif" font-size="16.5pt" font-style="normal" font-weight="normal" text-decoration="normal" x="450.0734332876302" y="24.50280495" text-anchor="start" dominant-baseline="alphabetic" xml:space="preserve">Update comment in Post</text></g><g/><g><path fill="none" stroke="black" paint-order="fill stroke markers" d=" M 89.84361815 129.701514202 L 89.84361815 1302.5691111419994" stroke-miterlimit="10" stroke-width="1.3612669416666667" stroke-dasharray="12.565541,5.445067766666667"/><path fill="none" stroke="black" paint-order="fill stroke markers" d=" M 409.6819303903646 129.701514202 L 409.6819303903646 1302.5691111419994" stroke-miterlimit="10" stroke-width="1.3612669416666667" stroke-dasharray="12.565541,5.445067766666667"/><path fill="none" stroke="black" paint-order="fill stroke markers" d=" M 675.7479944272136 129.701514202 L 675.7479944272136 1302.5691111419994" stroke-miterlimit="10" stroke-width="1.3612669416666667" stroke-dasharray="12.565541,5.445067766666667"/><path fill="none" stroke="black" paint-order="fill stroke markers" d=" M 886.9845760245444 129.701514202 L 886.9845760245444 1302.5691111419994" stroke-miterlimit="10" stroke-width="1.3612669416666667" stroke-dasharray="12.565541,5.445067766666667"/><path fill="none" stroke="black" paint-order="fill stroke markers" d=" M 1043.0292014627605 129.701514202 L 1043.0292014627605 1302.5691111419994" stroke-miterlimit="10" stroke-width="1.3612669416666667" stroke-dasharray="12.565541,5.445067766666667"/></g><g><g><path fill="white" stroke="green" paint-order="fill stroke markers" d=" M 99.154684031 60.60360424300001 A 9.311065881 9.311065881 0 1 1 99.15467937546744 60.594293178670846 M 89.84361815 69.91467012400001 L 89.84361815 89.84361815000001 M 78.08227177399999 77.102159576 L 101.604964526 77.102159576 M 89.84361815 89.84361815000001 L 78.08227177399999 108.465749912 M 89.84361815 89.84361815000001 L 101.604964526 108.465749912" stroke-miterlimit="10" stroke-width="1.3884922805000002" stroke-dasharray=""/></g><g><text fill="black" stroke="none" font-family="sans-serif" font-size="11pt" font-style="normal" font-weight="normal" text-decoration="normal" x="35.802839036230466" y="124.80095321200001" text-anchor="start" dominant-baseline="alphabetic" xml:space="preserve">Workspace User</text></g><g><path fill="white" stroke="black" paint-order="fill stroke markers" d=" M 442.1073089408646 82.819480731 A 24.2577769005 24.2577769005 0 1 1 442.10729681197716 82.79522295814245 M 378.64504412036456 57.17321154999999 L 378.64504412036456 108.465749912 M 377.2565518398646 82.819480731 L 393.5917551398646 82.819480731" stroke-miterlimit="10" stroke-width="2.7769845610000004" stroke-dasharray=""/></g><g><text fill="black" stroke="none" font-family="sans-serif" font-size="11pt" font-style="normal" font-weight="normal" text-decoration="normal" x="353.0463102731771" y="124.80095321200001" text-anchor="start" dominant-baseline="alphabetic" xml:space="preserve">Application Client</text></g><g><path fill="white" stroke="black" paint-order="fill stroke markers" d=" M 700.0057713277135 82.819480731 A 24.2577769005 24.2577769005 0 1 1 700.0057591988261 82.79522295814245 M 672.4809537672136 58.561703830499994 L 682.2820757472135 50.39410218049999 M 672.4809537672136 58.561703830499994 L 682.2820757472135 66.72930548049999" stroke-miterlimit="10" stroke-width="2.7769845610000004" stroke-dasharray=""/></g><g><text fill="black" stroke="none" font-family="sans-serif" font-size="11pt" font-style="normal" font-weight="normal" text-decoration="normal" x="610.1646204037761" y="124.80095321200001" text-anchor="start" dominant-baseline="alphabetic" xml:space="preserve">Comment Controller</text></g><path fill="none" stroke="none"/><g><path fill="white" stroke="black" paint-order="fill stroke markers" d=" M 811.0110788083022 85.75981732500001 L 962.9580732407866 85.75981732500001 L 962.9580732407866 129.701514202 L 811.0110788083022 129.701514202 L 811.0110788083022 85.75981732500001 Z" stroke-miterlimit="10" stroke-width="2.613632528" stroke-dasharray=""/></g><g><text fill="black" stroke="none" font-family="sans-serif" font-size="11pt" font-style="normal" font-weight="normal" text-decoration="normal" x="828.7347743888022" y="113.36631090200002" text-anchor="start" dominant-baseline="alphabetic" xml:space="preserve">Comment Service</text></g><g><path fill="white" stroke="blue" paint-order="fill stroke markers" d=" M 1019.1798046447606 97.684515734 L 1019.1798046447606 63.380588804000006 L 1066.8785982807606 63.380588804000006 L 1066.8785982807606 97.684515734" stroke-miterlimit="10" stroke-width="2.7769845610000004" stroke-dasharray=""/><path fill="white" stroke="blue" paint-order="fill stroke markers" d=" M 1066.8785982807606 62.1881189631 L 1066.877405820857 62.29592950801663 L 1066.8738285603908 62.403729271968594 L 1066.8678668570853 62.51150747506936 L 1066.8595213071062 62.619253339588404 L 1066.848792745001 62.72695609102909 L 1066.8356822436172 62.834604959206004 L 1066.8201911139938 62.94218917932205 L 1066.8023209052312 63.04969799304486 L 1066.7820734043353 63.15712064958265 L 1066.759450636039 63.2644464067593 L 1066.7344548626006 63.371664532088516 L 1066.7070885835767 63.47876430384712 L 1066.677354535572 63.58573501214718 L 1066.645255691967 63.692565960007016 L 1066.6107952626187 63.79924646442086 L 1066.573976693542 63.90576585742718 L 1066.5348036665628 64.01211348717543 L 1066.493280098951 64.11827871899126 L 1066.449410143029 64.22425093643996 L 1066.4031981857556 64.3300195423881 L 1066.3546488482882 64.43557396006322 L 1066.3037669855203 64.54090363411153 L 1066.2505576855951 64.64599803165338 L 1066.195026269399 64.75084664333659 L 1066.1371782900271 64.85543898438739 L 1066.0770195322289 64.95976459565881 L 1066.01455601183 65.06381304467668 L 1065.9497939751311 65.16757392668278 L 1065.882739898281 65.27103686567541 L 1065.813400486632 65.37419151544687 L 1065.7417826740675 65.47702756061814 L 1065.6678936223088 65.5795347176704 L 1065.5917407201996 65.68170273597339 L 1065.5133315829669 65.7835213988104 L 1065.432674051459 65.88498052439998 L 1065.3497761913613 65.98606996691414 L 1065.2646462923915 66.08677961749288 L 1065.1772928674682 66.18709940525505 L 1065.087724651861 66.28701929830548 L 1064.9959506023167 66.38652930473813 L 1064.9019798961644 66.48561947363528 L 1064.805821930396 66.58427989606261 L 1064.7074863207276 66.6825007060601 L 1064.606982900639 66.7802720816286 L 1064.5043217203877 66.87758424571203 L 1064.3995130460066 66.97442746717506 L 1064.2925673582758 67.07079206177627 L 1064.183495351675 67.1666683931365 L 1064.0723079333136 67.2620468737025 L 1063.959016221841 67.35691796570569 L 1063.843631546334 67.45127218211596 L 1063.726165445164 67.54510008759026 L 1063.6066296648432 67.63839229941624 L 1063.4850361588499 67.73113948845047 L 1063.3613970864335 67.82333238005134 L 1063.235724811398 67.9149617550065 L 1063.1080319008665 68.00601845045483 L 1062.9783311240237 68.09649336080267 L 1062.8466354508387 68.18637743863435 L 1062.7129580507694 68.27566169561702 L 1062.5773122914445 68.36433720339936 L 1062.4397117373267 68.45239509450451 L 1062.3001701483568 68.53982656321674 L 1062.1587014785775 68.62662286646201 L 1062.0153198747378 68.71277532468237 L 1061.8700396748784 68.79827532270376 L 1061.7228754068988 68.88311431059763 L 1061.5738417871025 68.9672838045359 L 1061.4229537187277 69.0507753876393 L 1061.2702262904554 69.13358071081912 L 1061.115674774901 69.21569149361203 L 1060.9593146270875 69.29709952500816 L 1060.8011614828993 69.37779666427225 L 1060.641231157519 69.45777484175761 L 1060.4795396438458 69.53702605971311 L 1060.3161031108964 69.61554239308303 L 1060.150937902188 69.69331599029945 L 1059.9840605341037 69.77033907406746 L 1059.8154876942413 69.84660394214286 L 1059.645236239744 69.92210296810242 L 1059.4733231956159 69.99682860210643 L 1059.299765753018 70.07077337165379 L 1059.1245812675495 70.14392988232913 L 1058.9477872575135 70.21629081854239 L 1058.7694014021633 70.28784894426022 L 1058.5894415399362 70.35859710372968 L 1058.407925666668 70.42852822219379 L 1058.2248719337952 70.49763530659898 L 1058.040298646538 70.5659114462944 L 1057.854224262072 70.63334981372294 L 1057.66666738768 70.69994366510412 L 1057.4776467788934 70.76568634110825 L 1057.2871813376155 70.83057126752253 L 1057.0952901102316 70.89459195590838 L 1056.9019922857049 70.95774200425032 L 1056.7073071936563 71.02001509759614 L 1056.5112543024331 71.08140500868842 L 1056.313853217161 71.14190559858717 L 1056.115123677784 71.20151081728383 L 1055.9150855570902 71.26021470430622 L 1055.7137588587252 71.31801138931453 L 1055.511163715191 71.37489509268845 L 1055.3073203858335 71.43086012610503 L 1055.102249254815 71.48590089310757 L 1054.8959708290784 71.54001188966522 L 1054.688505736294 71.59318770472345 L 1054.4798747227983 71.64542302074504 L 1054.2700986515188 71.69671261424193 L 1054.0591984998878 71.7470513562975 L 1053.8471953577448 71.79643421307951 L 1053.6341104252272 71.84485624634341 L 1053.4199650106507 71.89231261392625 L 1053.2047805283785 71.93879857023082 L 1052.9885784966793 71.9843094667002 L 1052.771380535576 72.02884075228269 L 1052.553208364684 72.07238797388683 L 1052.3340838010386 72.11494677682676 L 1052.1140287569133 72.15651290525764 L 1051.8930652376291 72.19708220260128 L 1051.6712153393541 72.23665061196175 L 1051.448501246893 72.27521417653107 L 1051.2249452314697 72.31276903998494 L 1051.000569648499 72.3493114468683 L 1050.7753969353528 72.38483774297092 L 1050.5494496091144 72.41934437569277 L 1050.3227502643283 72.45282789439938 L 1050.0953215707398 72.48528495076673 L 1049.8671862710291 72.51671229911628 L 1049.6383671785356 72.54710679673934 L 1049.4088871749784 72.5764654042115 L 1049.1787692081664 72.60478518569649 L 1048.9480362897043 72.63206330923974 L 1048.716711492692 72.65829704705163 L 1048.484817949416 72.68348377578025 L 1048.252378849038 72.70762097677371 L 1048.019417435274 72.73070623633201 L 1047.785957004071 72.75273724594847 L 1047.552020901278 72.77371180254045 L 1047.31763252031 72.79362780866978 L 1047.0828152998101 72.81248327275246 L 1046.8475927213044 72.83027630925778 L 1046.6119883068548 72.84700513889692 L 1046.3760256167066 72.86266808880085 L 1046.1397282469318 72.87726359268764 L 1045.9031198270707 72.89079019101906 L 1045.6662240177682 72.90324653114655 L 1045.4290645084077 72.91463136744649 L 1045.1916650147425 72.9249435614447 L 1044.954049276524 72.93418208193043 L 1044.7162410551284 72.94234600505929 L 1044.4782641311795 72.94943451444577 L 1044.240142302171 72.95544690124485 L 1044.0018993800877 72.96038256422287 L 1043.7635591890235 72.96424100981763 L 1043.5251455627983 72.9670218521878 L 1043.2866823425768 72.96872481325143 L 1043.0481933744816 72.96934972271386 L 1042.8097025072111 72.96889651808466 L 1042.5712335896533 72.96736524468392 L 1042.332810468501 72.96475605563768 L 1042.094456985868 72.96106921186271 L 1041.8561969769037 72.95630508204027 L 1041.6180542674103 72.9504641425794 L 1041.3800526714606 72.94354697756918 L 1041.1422159890158 72.93555427872033 L 1040.9045680035458 72.9264868452961 L 1040.6671324796514 72.91634558403224 L 1040.4299331606867 72.90513150904647 L 1040.1929937663863 72.89284574173689 L 1039.9563379904919 72.87948951067006 L 1039.7199894983842 72.86506415145789 L 1039.4839719247152 72.84957110662431 L 1039.2483088710455 72.8330119254609 L 1039.0130239034845 72.81538826387197 L 1038.7781405503324 72.79670188420899 L 1038.5436822997292 72.77695465509434 L 1038.3096725973041 72.7561485512345 L 1038.076134843833 72.73428565322251 L 1037.8430923928959 72.71136814732996 L 1037.6105685485443 72.68739832528833 L 1037.3785865629684 72.66237858405984 L 1037.1471696341737 72.63631142559778 L 1036.9163409036603 72.60919945659627 L 1036.6861234541086 72.58104538822961 L 1036.4565403070721 72.55185203588118 L 1036.227614420674 72.5216223188619 L 1035.999368687312 72.49035926011825 L 1035.7718259313692 72.45806598593009 L 1035.545008906932 72.4247457255979 L 1035.3189402955134 72.39040181111994 L 1035.0936427037864 72.35503767685907 L 1034.8691386613225 72.31865685919922 L 1034.6454506183386 72.28126299619186 L 1034.4226009434526 72.24285982719209 L 1034.2006119214466 72.20345119248485 L 1033.9795057510373 72.16304103290075 L 1033.7593045426581 72.12163338942209 L 1033.5400303162457 72.07923240277869 L 1033.3217049990405 72.03584231303388 L 1033.1043504233924 71.99146745916049 L 1032.8879883245772 71.94611227860693 L 1032.672640338625 71.89978130685344 L 1032.4583280001546 71.85247917695861 L 1032.2450727402215 71.80421061909601 L 1032.032895884174 71.75498046008119 L 1031.8218186495208 71.70479362288901 L 1031.6118621438095 71.65365512616141 L 1031.4030473625155 71.60157008370541 L 1031.1953951869432 71.54854370398188 L 1030.988926382137 71.49458128958457 L 1030.7836615948054 71.43968823671 L 1030.5796213512558 71.38387003461766 L 1030.376826055343 71.32713226508127 L 1030.1752959864273 71.26948060183051 L 1029.9750512973474 71.21092080998365 L 1029.776112012406 71.15145874547107 L 1029.5784980253652 71.0911003544497 L 1029.3822290974592 71.0298516727083 L 1029.1873248554175 70.96771882506403 L 1028.9938047895014 70.90470802474988 L 1028.8016882515567 70.84082557279336 L 1028.610994453077 70.77607785738643 L 1028.421742463283 70.71047135324669 L 1028.233951207216 70.64401262096986 L 1028.0476394638454 70.5767083063738 L 1027.86282586419 70.50856513983389 L 1027.679528889456 70.43958993560999 L 1027.4977668691877 70.36978959116503 L 1027.317557979436 70.29917108647531 L 1027.1389202409398 70.22774148333244 L 1026.961871517324 70.1555079246372 L 1026.7864295133131 70.08247763368529 L 1026.6126117729616 70.00865791344492 L 1026.4404356778987 69.9340561458266 L 1026.2699184455905 69.85867979094495 L 1026.1010771276178 69.78253638637263 L 1025.933928607972 69.70563354638664 L 1025.7684896013654 69.62797896120689 L 1025.6047766515615 69.54958039622719 L 1025.442806129718 69.47044569123871 L 1025.2825942327527 69.39058275964601 L 1025.1241569817216 69.30999958767568 L 1024.967510220218 69.22870423357777 L 1024.812669612787 69.14670482681996 L 1024.6596506433607 69.06400956727457 L 1024.5084686137084 68.98062672439866 L 1024.359138641907 68.89656463640702 L 1024.2116756608295 68.8118317094384 L 1024.0660944166511 68.72643641671489 L 1023.9224094673746 68.6403872976946 L 1023.7806351813754 68.55369295721772 L 1023.640785735964 68.46636206464606 L 1023.5028751159682 68.37840335299609 L 1023.3669171123352 68.28982561806569 L 1023.2329253207521 68.20063771755453 L 1023.1009131402864 68.11084857017835 L 1022.970893772046 68.02046715477704 L 1022.8428802178595 67.92950250941684 L 1022.7168852789756 67.83796373048648 L 1022.5929215547833 67.74585997178757 L 1022.4710014415516 67.65320044361923 L 1022.3511371311902 67.55999441185705 L 1022.2333406100303 67.46625119702654 L 1022.1176236576258 67.37198017337107 L 1022.0039978455756 67.27719076791445 L 1021.8924745363662 67.18189245951821 L 1021.7830648822355 67.08609477793381 L 1021.6757798240578 66.98980730284956 L 1021.5706300902496 66.89303966293272 L 1021.4676261956965 66.79580153486665 L 1021.3667784407022 66.69810264238313 L 1021.2680969099581 66.59995275528999 L 1021.1715914715352 66.50136168849414 L 1021.0772717758967 66.40233930102012 L 1020.9851472549337 66.30289549502413 L 1020.8952271210215 66.20304021480393 L 1020.8075203660986 66.1027834458043 L 1020.7220357607673 66.00213521361863 L 1020.6387818534171 65.90110558298623 L 1020.557766969369 65.799704656786 L 1020.4789992100442 65.69794257502603 L 1020.402486452153 65.59582951382973 L 1020.3282363469071 65.4933756844181 L 1020.2562563192556 65.3905913320887 L 1020.1865535671409 65.28748673519112 L 1020.1191350607804 65.18407220409914 L 1020.0540075419684 65.08035808017966 L 1019.9911775234025 64.97635473475869 L 1019.9306512880323 64.87207256808405 L 1019.8724348884308 64.76752200828555 L 1019.8165341461896 64.66271351033203 L 1019.7629546513361 64.55765755498592 L 1019.7117017617753 64.45236464775525 L 1019.6627806027535 64.34684531784296 L 1019.6161960663457 64.24111011709415 L 1019.5719528109668 64.13516961894075 L 1019.5300552609053 64.0290344173443 L 1019.4905076058816 63.92271512573653 L 1019.4533138006279 63.81622237595798 L 1019.4184775644941 63.70956681719489 L 1019.3860023810744 63.602759114914264 L 1019.3558914978604 63.49580994979732 L 1019.3281479259151 63.38873001667144 L 1019.3027744395728 63.28153002344071 L 1019.2797735761608 63.17422069001512 L 1019.2591476357463 63.066812747238586 L 1019.2408986809062 62.959316935815885 L 1019.2250285365208 62.85174400523857 L 1019.2115387895913 62.74410471271006 L 1019.200430789081 62.636409822069915 L 1019.191705645781 62.52867010271744 L 1019.185364232198 62.4208963285348 L 1019.1814071824684 62.313099276809595 L 1019.1798348922937 62.20528972715717 L 1019.1806475189017 62.09747846044265 L 1019.1838449810302 61.98967625770286 L 1019.1894269589359 61.88189389906824 L 1019.1973928944255 61.77414216268484 L 1019.2077419909123 61.66643182363649 L 1019.2204732134951 61.558773652867366 L 1019.2355852890622 61.4511784161048 L 1019.2530767064188 61.34365687278283 L 1019.2729457164376 61.236219774966166 L 1019.2951903322343 61.12887786627507 L 1019.3198083293657 61.02164188081096 L 1019.3467972460527 60.91452254208302 L 1019.3761543834261 60.807530561935856 L 1019.4078768057966 60.70067663947832 L 1019.4419613409485 60.593971460013606 L 1019.4784045804565 60.487425693970756 L 1019.5172028800273 60.381049995837586 L 1019.558352359863 60.27485500309525 L 1019.60184890505 60.16885133515453 L 1019.6476881659701 60.06304959229389 L 1019.6958655587352 59.95746035459945 L 1019.7463762656465 59.852094180906974 L 1019.7992152356751 59.746961607746044 L 1019.8543771849683 59.64207314828636 L 1019.9118565973769 59.537439291286454 L 1019.9716477250076 59.43307050004484 L 1020.0337445887975 59.32897721135367 L 1020.098140979112 59.22516983445505 L 1020.1648304563658 59.12165875000019 L 1020.2338063516667 59.01845430901127 L 1020.3050617674825 58.91556683184637 L 1020.3785895783311 58.81300660716748 L 1020.4543824314927 58.7107838909116 L 1020.5324327477451 58.60890890526517 L 1020.6127327221219 58.507391837641855 L 1020.6952743246923 58.406242839663825 L 1020.780049301365 58.30547202614659 L 1020.867049174713 58.205089474087515 L 1020.9562652448213 58.105105221658164 L 1021.0476885901575 58.00552926720046 L 1021.141310068463 57.90637156822687 L 1021.237120317668 57.807642040424646 L 1021.3351097568276 57.709350556664305 L 1021.4352685870795 57.61150694601232 L 1021.537586792624 57.514120992748204 L 1021.6420541417258 57.417202435386145 L 1021.7486601877373 57.320760965701105 L 1021.8573942701425 57.224806227759686 L 1021.9682455156238 57.12934781695572 L 1022.0812028391492 57.03439527905074 L 1022.1962549450803 56.93995810921942 L 1022.3133903283025 56.84604575110002 L 1022.4325972753749 56.75266759585011 L 1022.5538638657023 56.65983298120741 L 1022.6771779727267 56.567551190555996 L 1022.8025272651402 56.47583145199805 L 1022.9298992081178 56.384682937430995 L 1023.0592810645717 56.29411476163032 L 1023.1906598964238 56.20413598133814 L 1023.3240225659003 56.1147555943575 L 1023.4593557368457 56.02598253865261 L 1023.5966458760556 55.937825691455075 L 1023.7358792546304 55.85029386837614 L 1023.8770419493483 55.763395822525176 L 1024.0201198440575 55.677140243634355 L 1024.1650986310876 55.591535757189675 L 1024.311963812681 55.50659092356846 L 1024.4607007024415 55.42231423718327 L 1024.6112944268045 55.33871412563253 L 1024.7637299265227 55.25579894885771 L 1024.9179919581736 55.1735769983074 L 1025.0740650956823 55.092056496108135 L 1025.2319337318652 55.01124559424221 L 1025.39158207999 54.93115237373246 L 1025.5529941753553 54.851784843834196 L 1025.7161538768855 54.77315094123426 L 1025.8810448687473 54.6952585292574 L 1026.0476506619782 54.61811539707989 L 1026.2159545961379 54.54172925895067 L 1026.3859398409732 54.46610775341989 L 1026.5575893981015 54.391258442575094 L 1026.7308861027097 54.317188811284986 L 1026.9058126252723 54.24390626645098 L 1027.0823514732824 54.171418136266475 L 1027.2604849930026 54.09973166948409 L 1027.440195371229 54.028854034690774 L 1027.621464637074 53.95879231959093 L 1027.8042746637618 53.88955353029769 L 1027.988607170442 53.82114459063227 L 1028.1744437240177 53.753572341431656 L 1028.3617657409882 53.68684353986444 L 1028.5505544893083 53.62096485875517 L 1028.74079109026 53.55594288591707 L 1028.9324565203422 53.49178412349323 L 1029.1255316131712 53.42849498730643 L 1029.319997061399 53.366081806217544 L 1029.5158334186424 53.304550821492676 L 1029.7130211014294 53.24390818617902 L 1029.9115403911555 53.18415996448957 L 1030.1113714360574 53.12531213119671 L 1030.3124942531974 53.067370571034715 L 1030.514888730461 53.01034107811134 L 1030.7185346285692 52.95422935532834 L 1030.923411583102 52.89904101381123 L 1031.1294991065347 52.84478157234818 L 1031.3367765902867 52.79145645683812 L 1031.5452233067822 52.73907099974815 L 1031.7548184115233 52.687630439580346 L 1031.9655409451743 52.637139920347835 L 1032.1773698356574 52.58760449106049 L 1032.3902839002599 52.53902910521993 L 1032.604261847753 52.49141862032429 L 1032.8192822805202 52.444777797382365 L 1033.0353236966973 52.399111300437596 L 1033.252364492323 52.354423696101605 L 1033.4703829634982 52.3107194530976 L 1033.6893573085579 52.26800294181345 L 1033.9092656302496 52.2262784338647 L 1034.1300859379248 52.18555010166736 L 1034.3517961497364 52.14582201802072 L 1034.5743740948483 52.10709815570004 L 1034.7977975156514 52.06938238705927 L 1035.0220440699895 52.032678483643856 L 1035.2470913333946 51.996990115813546 L 1035.4729168013273 51.96232085237539 L 1035.6994978914292 51.928674160226834 L 1035.9268119457804 51.89605340400906 L 1036.1548362331646 51.8644618457705 L 1036.383547951343 51.833902644640645 L 1036.6129242293346 51.80437885651416 L 1036.8429421297026 51.775893433745246 L 1037.0735786508487 51.74844922485244 L 1037.3048107293132 51.722048974233765 L 1037.5366152420806 51.69669532189228 L 1037.768969008893 51.672390803172085 L 1038.0018487945672 51.649137848504814 L 1038.2352313113188 51.626938783166544 L 1038.4690932210904 51.60579582704531 L 1038.7034111378862 51.58571109441911 L 1038.9381616301098 51.56668659374447 L 1039.1733212229074 51.54872422745561 L 1039.4088664005158 51.53182579177417 L 1039.6447736086134 51.515992976529645 L 1039.8810192566762 51.50122736499037 L 1040.117579720336 51.4875304337052 L 1040.3544313437437 51.47490355235584 L 1040.5915504419343 51.4633479836199 L 1040.8289133031958 51.45286488304463 L 1041.0664961914395 51.443455298931354 L 1041.304275348575 51.43512017223063 L 1041.5422269968842 51.4278603364482 L 1041.780327341401 51.42167651756158 L 1042.018552572289 51.41656933394751 L 1042.256878867224 51.41253929632009 L 1042.4952823937751 51.40958680767973 L 1042.733739311788 51.407712163272826 L 1042.9722257757699 51.40691555056227 L 1043.2107179372729 51.40719704920866 L 1043.4491919472798 51.40855663106237 L 1043.6876239585881 51.41099416016634 L 1043.9259901281955 51.414509392769695 L 1044.164266619684 51.419101977352106 L 1044.4024296056023 51.42477145465894 L 1044.640455269851 51.431517257747196 L 1044.8783198100614 51.43933871204218 L 1045.1159994399782 51.44823503540498 L 1045.353470391836 51.45820533821068 L 1045.590708918738 51.4692486234373 L 1045.827691297029 51.48136378676553 L 1046.0643938286687 51.49454961668913 L 1046.300792843601 51.50880479463608 L 1046.5368647021214 51.524127895100484 L 1046.7725857972412 51.54051738578506 L 1047.0079325570468 51.5579716277544 L 1047.2428814470586 51.57648887559884 L 1047.4774089725836 51.59606727760904 L 1047.7114916810642 51.6167048759611 L 1047.945106164425 51.6383996069124 L 1048.1782290614121 51.66114930100791 L 1048.4108370599301 51.684951683297186 L 1048.6429068993732 51.70980437356183 L 1048.8744153729508 51.735704886553535 L 1049.105339330008 51.76265063224257 L 1049.3356556783424 51.79063891607683 L 1049.5653413865102 51.81966693925126 L 1049.7943734861326 51.849731798987726 L 1050.0227290741902 51.88083048882531 L 1050.2503853153148 51.91295989892094 L 1050.4773194440716 51.94611681636038 L 1050.703508767237 51.980297925479526 L 1050.9289306660671 52.01549980819594 L 1051.1535625985603 52.0517189443507 L 1051.3773821017098 52.08895171206036 L 1051.6003667937523 52.127194388079175 L 1051.8224943764044 52.16644314817141 L 1052.043742637093 52.20669406749378 L 1052.264089451176 52.247943120987884 L 1052.483512784156 52.29018618378274 L 1052.7019906938824 52.33341903160728 L 1052.9195013327462 52.37763734121275 L 1053.136022949865 52.422836690805035 L 1053.3515338932575 52.46901256048684 L 1053.5660126120088 52.516160332709674 L 1053.7794376584256 52.564275292735616 L 1053.9917876901816 52.613352629108746 L 1054.2030414724502 52.663387434136325 L 1054.4131778800295 52.71437470437956 L 1054.6221758994536 52.7663093411539 L 1054.8300146310946 52.819186151038956 L 1055.036673291253 52.8729998463978 L 1055.2421312142346 52.92774504590574 L 1055.4463678544187 52.983416275088445 L 1055.649362788311 53.040007966869396 L 1055.8510957165877 53.09751446212657 L 1056.0515464661237 53.15593001025836 L 1056.2506949920114 53.21524876975863 L 1056.448521379564 53.27546480880087 L 1056.6450058463076 53.33657210583136 L 1056.8401287439592 53.3985645501713 L 1057.033870560392 53.461435942627936 L 1057.2262119215854 53.52517999611441 L 1057.417133593564 53.58979033627848 L 1057.6066164843191 53.655260502139996 L 1057.79464164572 53.721583946736914 L 1057.981190275407 53.78875403778004 L 1058.1662437186728 53.85676405831625 L 1058.349783470327 53.92560720740017 L 1058.5317911765478 53.995276600774254 L 1058.7122486367157 54.065765271557225 L 1058.8911378052355 54.13706617094075 L 1059.0684407933395 54.2091721688943 L 1059.244139870876 54.28207605487816 L 1059.4182174680845 54.35577053856451 L 1059.5906561773497 54.43024825056637 L 1059.7614387549447 54.50550174317461 L 1059.930548122754 54.581523491102686 L 1060.0979673699817 54.658305892239156 L 1060.2636797548425 54.73584126840789 L 1060.4276687062363 54.81412186613588 L 1060.5899178254042 54.89313985742859 L 1060.7504108875698 54.97288734055273 L 1060.9091318435605 55.05335634082646 L 1061.0660648214132 55.1345388114168 L 1061.2211941279606 55.21642663414435 L 1061.3745042504013 55.29901162029506 L 1061.525979857851 55.38228551143916 L 1061.6756058028752 55.46623998025691 L 1061.8233671230041 55.55086663137139 L 1061.9692490422285 55.63615700218803 L 1062.1132369724785 55.722102563740805 L 1062.2553165150807 55.80869472154519 L 1062.3954734621993 55.89592481645755 L 1062.5336937982565 55.98378412554111 L 1062.669963701334 56.07226386293816 L 1062.8042695445547 56.1613551807487 L 1062.9365978974465 56.251049169915184 L 1063.0669355272842 56.34133686111345 L 1063.1952694004135 56.4322092256496 L 1063.3215866835542 56.52365717636293 L 1063.4458747450828 56.615671568534566 L 1063.5681211562974 56.70824320080196 L 1063.688313692658 56.80136281607904 L 1063.8064403350115 56.89502110248188 L 1063.9224892707923 56.98920869425987 L 1064.0364488952032 57.083916172732344 L 1064.1483078123767 57.17913406723036 L 1064.2580548365147 57.27485285604382 L 1064.3656789930058 57.37106296737362 L 1064.4711695195242 57.467754780288786 L 1064.5745158671054 57.56491862568861 L 1064.6757077012003 57.662544787269525 L 1064.7747349027102 57.76062350249672 L 1064.8715875689973 57.859144963580405 L 1064.9662560148756 57.95809931845658 L 1065.0587307735796 58.05747667177222 L 1065.1490025977103 58.15726708587479 L 1065.2370624601606 58.257460581806065 L 1065.3229015550178 58.358047140299924 L 1065.4065112984435 58.459016702784346 L 1065.4878833295336 58.56035917238722 L 1065.5670095111525 58.66206441494605 L 1065.643881930748 58.764122260021324 L 1065.718492901142 58.866522501913586 L 1065.7908349613 58.96925490068398 L 1065.8609008770763 59.072309183178234 L 1065.9286836419374 59.17567504405398 L 1065.9941764776634 59.279342146811274 L 1066.0573728350253 59.38330012482622 L 1066.1182663944398 59.48753858238766 L 1066.1768510666025 59.59204709573668 L 1066.233120993094 59.69681521410906 L 1066.2870705469693 59.80183246078026 L 1066.3386943333173 59.907088334113126 L 1066.3879871898032 60.012572308608036 L 1066.4349441871816 60.11827383595545 L 1066.4795606297926 60.22418234609071 L 1066.5218320560286 60.33028724825106 L 1066.5617542387824 60.43657793203471 L 1066.599323185869 60.54304376846186 L 1066.6345351404252 60.64967411103757 L 1066.6673865812845 60.75645829681646 L 1066.6978742233302 60.86338564746893 L 1066.725995017824 60.97044547034902 L 1066.7517461527095 61.07762705956367 L 1066.7751250528945 61.184919697043256 L 1066.796129380509 61.29231265361346 L 1066.814757035137 61.399795190068104 L 1066.8310061540294 61.50735655824312 L 1066.8448751122874 61.614986002091314 L 1066.8563625230265 61.72267275875801 L 1066.8654672375158 61.830406059657264 L 1066.8721883452909 61.93817513154877 L 1066.876525174247 62.04596919761514 L 1066.8784772907045 62.15377747853961 M 1066.8785982807606 96.4920458931 L 1066.877405820857 96.59985643801662 L 1066.8738285603908 96.70765620196859 L 1066.8678668570853 96.81543440506935 L 1066.8595213071062 96.9231802695884 L 1066.848792745001 97.03088302102908 L 1066.8356822436172 97.138531889206 L 1066.8201911139938 97.24611610932205 L 1066.8023209052312 97.35362492304485 L 1066.7820734043353 97.46104757958265 L 1066.759450636039 97.5683733367593 L 1066.7344548626006 97.67559146208852 L 1066.7070885835767 97.78269123384712 L 1066.677354535572 97.88966194214719 L 1066.645255691967 97.99649289000702 L 1066.6107952626187 98.10317339442086 L 1066.573976693542 98.20969278742717 L 1066.5348036665628 98.31604041717543 L 1066.493280098951 98.42220564899125 L 1066.449410143029 98.52817786643996 L 1066.4031981857556 98.6339464723881 L 1066.3546488482882 98.73950089006323 L 1066.3037669855203 98.84483056411152 L 1066.2505576855951 98.94992496165337 L 1066.195026269399 99.05477357333659 L 1066.1371782900271 99.15936591438738 L 1066.0770195322289 99.2636915256588 L 1066.01455601183 99.36773997467667 L 1065.9497939751311 99.47150085668278 L 1065.882739898281 99.5749637956754 L 1065.813400486632 99.67811844544686 L 1065.7417826740675 99.78095449061813 L 1065.6678936223088 99.8834616476704 L 1065.5917407201996 99.98562966597338 L 1065.5133315829669 100.08744832881038 L 1065.432674051459 100.18890745439998 L 1065.3497761913613 100.28999689691415 L 1065.2646462923915 100.39070654749288 L 1065.1772928674682 100.49102633525506 L 1065.087724651861 100.59094622830548 L 1064.9959506023167 100.69045623473812 L 1064.9019798961644 100.78954640363527 L 1064.805821930396 100.8882068260626 L 1064.7074863207276 100.9864276360601 L 1064.606982900639 101.0841990116286 L 1064.5043217203877 101.18151117571202 L 1064.3995130460066 101.27835439717506 L 1064.2925673582758 101.37471899177628 L 1064.183495351675 101.4705953231365 L 1064.0723079333136 101.56597380370249 L 1063.959016221841 101.6608448957057 L 1063.843631546334 101.75519911211595 L 1063.726165445164 101.84902701759025 L 1063.6066296648432 101.94231922941623 L 1063.4850361588499 102.03506641845047 L 1063.3613970864335 102.12725931005133 L 1063.235724811398 102.2188886850065 L 1063.1080319008665 102.30994538045483 L 1062.9783311240237 102.40042029080266 L 1062.8466354508387 102.49030436863434 L 1062.7129580507694 102.579588625617 L 1062.5773122914445 102.66826413339936 L 1062.4397117373267 102.75632202450451 L 1062.3001701483568 102.84375349321674 L 1062.1587014785775 102.93054979646202 L 1062.0153198747378 103.01670225468237 L 1061.8700396748784 103.10220225270375 L 1061.7228754068988 103.18704124059762 L 1061.5738417871025 103.27121073453588 L 1061.4229537187277 103.3547023176393 L 1061.2702262904554 103.4375076408191 L 1061.115674774901 103.51961842361202 L 1060.9593146270875 103.60102645500817 L 1060.8011614828993 103.68172359427226 L 1060.641231157519 103.7617017717576 L 1060.4795396438458 103.84095298971312 L 1060.3161031108964 103.91946932308304 L 1060.150937902188 103.99724292029944 L 1059.9840605341037 104.07426600406745 L 1059.8154876942413 104.15053087214287 L 1059.645236239744 104.22602989810241 L 1059.4733231956159 104.30075553210642 L 1059.299765753018 104.37470030165377 L 1059.1245812675495 104.44785681232914 L 1058.9477872575135 104.52021774854238 L 1058.7694014021633 104.59177587426021 L 1058.5894415399362 104.66252403372968 L 1058.407925666668 104.73245515219378 L 1058.2248719337952 104.80156223659897 L 1058.040298646538 104.86983837629438 L 1057.854224262072 104.93727674372295 L 1057.66666738768 105.0038705951041 L 1057.4776467788934 105.06961327110824 L 1057.2871813376155 105.13449819752252 L 1057.0952901102316 105.19851888590837 L 1056.9019922857049 105.26166893425032 L 1056.7073071936563 105.32394202759615 L 1056.5112543024331 105.38533193868841 L 1056.313853217161 105.44583252858716 L 1056.115123677784 105.50543774728384 L 1055.9150855570902 105.56414163430621 L 1055.7137588587252 105.62193831931454 L 1055.511163715191 105.67882202268845 L 1055.3073203858335 105.73478705610502 L 1055.102249254815 105.78982782310756 L 1054.8959708290784 105.84393881966523 L 1054.688505736294 105.89711463472344 L 1054.4798747227983 105.94934995074503 L 1054.2700986515188 106.00063954424192 L 1054.0591984998878 106.0509782862975 L 1053.8471953577448 106.1003611430795 L 1053.6341104252272 106.14878317634341 L 1053.4199650106507 106.19623954392625 L 1053.2047805283785 106.2427255002308 L 1052.9885784966793 106.2882363967002 L 1052.771380535576 106.33276768228268 L 1052.553208364684 106.37631490388682 L 1052.3340838010386 106.41887370682676 L 1052.1140287569133 106.46043983525765 L 1051.8930652376291 106.50100913260128 L 1051.6712153393541 106.54057754196174 L 1051.448501246893 106.57914110653107 L 1051.2249452314697 106.61669596998493 L 1051.000569648499 106.65323837686829 L 1050.7753969353528 106.6887646729709 L 1050.5494496091144 106.72327130569276 L 1050.3227502643283 106.75675482439937 L 1050.0953215707398 106.78921188076673 L 1049.8671862710291 106.82063922911627 L 1049.6383671785356 106.85103372673933 L 1049.4088871749784 106.8803923342115 L 1049.1787692081664 106.90871211569649 L 1048.9480362897043 106.93599023923973 L 1048.716711492692 106.96222397705162 L 1048.484817949416 106.98741070578025 L 1048.252378849038 107.0115479067737 L 1048.019417435274 107.03463316633201 L 1047.785957004071 107.05666417594847 L 1047.552020901278 107.07763873254045 L 1047.31763252031 107.09755473866979 L 1047.0828152998101 107.11641020275246 L 1046.8475927213044 107.13420323925777 L 1046.6119883068548 107.1509320688969 L 1046.3760256167066 107.16659501880085 L 1046.1397282469318 107.18119052268763 L 1045.9031198270707 107.19471712101905 L 1045.6662240177682 107.20717346114655 L 1045.4290645084077 107.21855829744648 L 1045.1916650147425 107.22887049144471 L 1044.954049276524 107.23810901193042 L 1044.7162410551284 107.24627293505928 L 1044.4782641311795 107.25336144444577 L 1044.240142302171 107.25937383124486 L 1044.0018993800877 107.26430949422287 L 1043.7635591890235 107.26816793981763 L 1043.5251455627983 107.27094878218779 L 1043.2866823425768 107.27265174325143 L 1043.0481933744816 107.27327665271386 L 1042.8097025072111 107.27282344808465 L 1042.5712335896533 107.27129217468391 L 1042.332810468501 107.26868298563768 L 1042.094456985868 107.2649961418627 L 1041.8561969769037 107.26023201204026 L 1041.6180542674103 107.2543910725794 L 1041.3800526714606 107.24747390756917 L 1041.1422159890158 107.23948120872033 L 1040.9045680035458 107.23041377529609 L 1040.6671324796514 107.22027251403225 L 1040.4299331606867 107.20905843904646 L 1040.1929937663863 107.1967726717369 L 1039.9563379904919 107.18341644067004 L 1039.7199894983842 107.16899108145788 L 1039.4839719247152 107.15349803662431 L 1039.2483088710455 107.1369388554609 L 1039.0130239034845 107.11931519387196 L 1038.7781405503324 107.10062881420897 L 1038.5436822997292 107.08088158509435 L 1038.3096725973041 107.0600754812345 L 1038.076134843833 107.03821258322252 L 1037.8430923928959 107.01529507732995 L 1037.6105685485443 106.99132525528832 L 1037.3785865629684 106.96630551405984 L 1037.1471696341737 106.94023835559778 L 1036.9163409036603 106.91312638659626 L 1036.6861234541086 106.88497231822961 L 1036.4565403070721 106.85577896588119 L 1036.227614420674 106.8255492488619 L 1035.999368687312 106.79428619011826 L 1035.7718259313692 106.76199291593008 L 1035.545008906932 106.72867265559789 L 1035.3189402955134 106.69432874111995 L 1035.0936427037864 106.65896460685907 L 1034.8691386613225 106.62258378919921 L 1034.6454506183386 106.58518992619184 L 1034.4226009434526 106.5467867571921 L 1034.2006119214466 106.50737812248485 L 1033.9795057510373 106.46696796290075 L 1033.7593045426581 106.42556031942208 L 1033.5400303162457 106.38315933277867 L 1033.3217049990405 106.33976924303387 L 1033.1043504233924 106.29539438916049 L 1032.8879883245772 106.25003920860692 L 1032.672640338625 106.20370823685344 L 1032.4583280001546 106.15640610695861 L 1032.2450727402215 106.108137549096 L 1032.032895884174 106.05890739008117 L 1031.8218186495208 106.00872055288902 L 1031.6118621438095 105.9575820561614 L 1031.4030473625155 105.90549701370541 L 1031.1953951869432 105.85247063398188 L 1030.988926382137 105.79850821958458 L 1030.7836615948054 105.74361516670999 L 1030.5796213512558 105.68779696461766 L 1030.376826055343 105.63105919508126 L 1030.1752959864273 105.5734075318305 L 1029.9750512973474 105.51484773998365 L 1029.776112012406 105.45538567547108 L 1029.5784980253652 105.3950272844497 L 1029.3822290974592 105.33377860270829 L 1029.1873248554175 105.27164575506403 L 1028.9938047895014 105.20863495474987 L 1028.8016882515567 105.14475250279335 L 1028.610994453077 105.08000478738643 L 1028.421742463283 105.01439828324668 L 1028.233951207216 104.94793955096986 L 1028.0476394638454 104.8806352363738 L 1027.86282586419 104.8124920698339 L 1027.679528889456 104.74351686560999 L 1027.4977668691877 104.67371652116503 L 1027.317557979436 104.6030980164753 L 1027.1389202409398 104.53166841333243 L 1026.961871517324 104.4594348546372 L 1026.7864295133131 104.38640456368528 L 1026.6126117729616 104.31258484344491 L 1026.4404356778987 104.2379830758266 L 1026.2699184455905 104.16260672094495 L 1026.1010771276178 104.08646331637262 L 1025.933928607972 104.00956047638662 L 1025.7684896013654 103.93190589120688 L 1025.6047766515615 103.85350732622719 L 1025.442806129718 103.77437262123871 L 1025.2825942327527 103.694509689646 L 1025.1241569817216 103.61392651767568 L 1024.967510220218 103.53263116357778 L 1024.812669612787 103.45063175681996 L 1024.6596506433607 103.36793649727457 L 1024.5084686137084 103.28455365439865 L 1024.359138641907 103.20049156640701 L 1024.2116756608295 103.1157586394384 L 1024.0660944166511 103.03036334671489 L 1023.9224094673746 102.94431422769459 L 1023.7806351813754 102.85761988721772 L 1023.640785735964 102.77028899464605 L 1023.5028751159682 102.68233028299609 L 1023.3669171123352 102.5937525480657 L 1023.2329253207521 102.50456464755453 L 1023.1009131402864 102.41477550017834 L 1022.970893772046 102.32439408477703 L 1022.8428802178595 102.23342943941684 L 1022.7168852789756 102.14189066048647 L 1022.5929215547833 102.04978690178756 L 1022.4710014415516 101.95712737361922 L 1022.3511371311902 101.86392134185704 L 1022.2333406100303 101.77017812702654 L 1022.1176236576258 101.67590710337106 L 1022.0039978455756 101.58111769791444 L 1021.8924745363662 101.48581938951821 L 1021.7830648822355 101.39002170793381 L 1021.6757798240578 101.29373423284954 L 1021.5706300902496 101.19696659293271 L 1021.4676261956965 101.09972846486664 L 1021.3667784407022 101.00202957238312 L 1021.2680969099581 100.90387968528998 L 1021.1715914715352 100.80528861849413 L 1021.0772717758967 100.70626623102011 L 1020.9851472549337 100.60682242502413 L 1020.8952271210215 100.50696714480392 L 1020.8075203660986 100.40671037580431 L 1020.7220357607673 100.30606214361863 L 1020.6387818534171 100.20503251298624 L 1020.557766969369 100.103631586786 L 1020.4789992100442 100.00186950502604 L 1020.402486452153 99.89975644382972 L 1020.3282363469071 99.79730261441809 L 1020.2562563192556 99.69451826208869 L 1020.1865535671409 99.59141366519111 L 1020.1191350607804 99.48799913409913 L 1020.0540075419684 99.38428501017967 L 1019.9911775234025 99.28028166475868 L 1019.9306512880323 99.17599949808405 L 1019.8724348884308 99.07144893828554 L 1019.8165341461896 98.96664044033201 L 1019.7629546513361 98.86158448498593 L 1019.7117017617753 98.75629157775525 L 1019.6627806027535 98.65077224784297 L 1019.6161960663457 98.54503704709414 L 1019.5719528109668 98.43909654894075 L 1019.5300552609053 98.33296134734431 L 1019.4905076058816 98.22664205573652 L 1019.4533138006279 98.12014930595798 L 1019.4184775644941 98.01349374719489 L 1019.3860023810744 97.90668604491427 L 1019.3558914978604 97.79973687979731 L 1019.3281479259151 97.69265694667143 L 1019.3027744395728 97.58545695344071 L 1019.2797735761608 97.47814762001512 L 1019.2591476357463 97.37073967723859 L 1019.2408986809062 97.26324386581588 L 1019.2250285365208 97.15567093523856 L 1019.2115387895913 97.04803164271006 L 1019.200430789081 96.94033675206991 L 1019.191705645781 96.83259703271744 L 1019.185364232198 96.7248232585348 L 1019.1814071824684 96.6170262068096 L 1019.1798348922937 96.50921665715717" stroke-miterlimit="10" stroke-width="2.7769845610000004" stroke-dasharray=""/></g><g><text fill="black" stroke="none" font-family="sans-serif" font-size="11pt" font-style="normal" font-weight="normal" text-decoration="normal" x="1011.6512565164714" y="124.80095321200001" text-anchor="start" dominant-baseline="alphabetic" xml:space="preserve">Database</text></g></g><g><path fill="white" stroke="black" paint-order="fill stroke markers" d=" M 401.5143287403646 183.607685092 L 417.8495320403646 183.607685092 L 417.8495320403646 1196.3902896919997 L 401.5143287403646 1196.3902896919997 L 401.5143287403646 183.607685092" stroke-miterlimit="10" stroke-width="1.3612669416666667" stroke-dasharray=""/><path fill="white" stroke="black" paint-order="fill stroke markers" d=" M 667.5803927772135 229.346254332 L 683.9155960772136 229.346254332 L 683.9155960772136 1150.6517204519996 L 667.5803927772135 1150.6517204519996 L 667.5803927772135 229.346254332" stroke-miterlimit="10" stroke-width="1.3612669416666667" stroke-dasharray=""/><path fill="white" stroke="black" paint-order="fill stroke markers" d=" M 675.7479944272136 296.320587862 L 692.0831977272137 296.320587862 L 692.0831977272137 342.059157102 L 675.7479944272136 342.059157102 L 675.7479944272136 296.320587862" stroke-miterlimit="10" stroke-width="1.3612669416666667" stroke-dasharray=""/><path fill="white" stroke="black" paint-order="fill stroke markers" d=" M 878.8169743745443 588.7207269319999 L 895.1521776745444 588.7207269319999 L 895.1521776745444 725.9364346519998 L 878.8169743745443 725.9364346519998 L 878.8169743745443 588.7207269319999" stroke-miterlimit="10" stroke-width="1.3612669416666667" stroke-dasharray=""/><path fill="white" stroke="black" paint-order="fill stroke markers" d=" M 1034.8615998127605 634.4592961719999 L 1051.1968031127606 634.4592961719999 L 1051.1968031127606 680.1978654119998 L 1034.8615998127605 680.1978654119998 L 1034.8615998127605 634.4592961719999" stroke-miterlimit="10" stroke-width="1.3612669416666667" stroke-dasharray=""/><path fill="white" stroke="black" paint-order="fill stroke markers" d=" M 878.8169743745443 951.3622401919996 L 895.1521776745444 951.3622401919996 L 895.1521776745444 1088.5779479119997 L 878.8169743745443 1088.5779479119997 L 878.8169743745443 951.3622401919996" stroke-miterlimit="10" stroke-width="1.3612669416666667" stroke-dasharray=""/><path fill="white" stroke="black" paint-order="fill stroke markers" d=" M 1034.8615998127605 997.1008094319996 L 1051.1968031127606 997.1008094319996 L 1051.1968031127606 1042.8393786719996 L 1034.8615998127605 1042.8393786719996 L 1034.8615998127605 997.1008094319996" stroke-miterlimit="10" stroke-width="1.3612669416666667" stroke-dasharray=""/><path fill="white" stroke="black" paint-order="fill stroke markers" d=" M 878.8169743745443 1088.5779479119997 L 895.1521776745444 1088.5779479119997 L 895.1521776745444 1088.5779479119997 L 878.8169743745443 1088.5779479119997 L 878.8169743745443 1088.5779479119997" stroke-miterlimit="10" stroke-width="1.3612669416666667" stroke-dasharray=""/><g><g><rect fill="white" stroke="none" x="137.30174440281903" y="162.371920802" width="216.75445808472656" height="21.23576429"/></g><text fill="black" stroke="none" font-family="sans-serif" font-size="11pt" font-style="normal" font-weight="normal" text-decoration="normal" x="139.752024897819" y="177.07360377199998" text-anchor="start" dominant-baseline="alphabetic" xml:space="preserve">Update comment in specific post</text></g><g><path fill="none" stroke="black" paint-order="fill stroke markers" d=" M 89.84361815 183.607685092 L 388.06501135669794 183.607685092" stroke-miterlimit="10" stroke-width="1.3612669416666667" stroke-dasharray=""/><g transform="translate(401.5143287403646,183.607685092) translate(-401.5143287403646,-183.607685092)"><path fill="black" stroke="none" paint-order="stroke fill markers" d=" M 387.9016593236979 176.80135038366666 L 401.5143287403646 183.607685092 L 387.9016593236979 190.41401980033334 Z"/></g></g><g><g><rect fill="white" stroke="none" x="465.70849905246087" y="208.110490042" width="154.01292671265625" height="21.23576429"/></g><text fill="black" stroke="none" font-family="sans-serif" font-size="11pt" font-style="normal" font-weight="normal" text-decoration="normal" x="468.1587795474609" y="222.812173012" text-anchor="start" dominant-baseline="alphabetic" xml:space="preserve">PUT: /api/comment/{id}</text></g><g><path fill="none" stroke="black" paint-order="fill stroke markers" d=" M 417.8495320403646 229.346254332 L 654.1310753935469 229.346254332" stroke-miterlimit="10" stroke-width="1.3612669416666667" stroke-dasharray=""/><g transform="translate(667.5803927772135,229.346254332) translate(-667.5803927772135,-229.346254332)"><path fill="black" stroke="none" paint-order="stroke fill markers" d=" M 653.9677233605469 222.53991962366666 L 667.5803927772135 229.346254332 L 653.9677233605469 236.15258904033334 Z"/></g></g><g><g><rect fill="white" stroke="none" x="711.4131882988803" y="253.84905928200004" width="161.68646492066406" height="21.23576429"/></g><text fill="black" stroke="none" font-family="sans-serif" font-size="11pt" font-style="normal" font-weight="normal" text-decoration="normal" x="713.8634687938803" y="268.550742252" text-anchor="start" dominant-baseline="alphabetic" xml:space="preserve">check comment's owner</text></g><g><path fill="none" stroke="black" paint-order="fill stroke markers" d=" M 683.9155960772136 275.084823572 L 757.4240109272135 275.084823572 L 757.4240109272135 296.320587862 L 705.5325151108802 296.320587862" stroke-miterlimit="10" stroke-width="1.3612669416666667" stroke-dasharray=""/><g transform="translate(692.0831977272136,296.320587862) translate(-692.0831977272136,-296.320587862)"><path fill="black" stroke="none" paint-order="stroke fill markers" d=" M 705.6958671438803 289.5142531536667 L 692.0831977272136 296.320587862 L 705.6958671438803 303.12692257033336 Z"/></g></g><g><g><rect fill="white" stroke="none" x="711.4131882988803" y="320.823392812" width="123.84826911988281" height="21.23576429"/></g><text fill="black" stroke="none" font-family="sans-serif" font-size="11pt" font-style="normal" font-weight="normal" text-decoration="normal" x="713.8634687938803" y="335.525075782" text-anchor="start" dominant-baseline="alphabetic" xml:space="preserve">is comment owner</text></g><g><path fill="none" stroke="black" paint-order="fill stroke markers" d=" M 692.0831977272136 342.059157102 L 757.4240109272135 342.059157102 L 757.4240109272135 363.294921392 L 697.3649134608802 363.294921392" stroke-miterlimit="10" stroke-width="1.3612669416666667" stroke-dasharray="6.53408132"/><g transform="translate(683.9155960772135,363.294921392) translate(-683.9155960772135,-363.294921392)"><path fill="black" stroke="none" paint-order="stroke fill markers" d=" M 697.5282654938802 356.48858668366665 L 683.9155960772135 363.294921392 L 697.5282654938802 370.10125610033333 Z"/></g></g><g><g><rect fill="white" stroke="none" x="482.8308897995312" y="431.90277525199997" width="119.76814521851563" height="21.23576429"/></g><text fill="red" stroke="none" font-family="sans-serif" font-size="11pt" font-style="normal" font-weight="normal" text-decoration="normal" x="485.2811702945312" y="446.60445822199995" text-anchor="start" dominant-baseline="alphabetic" xml:space="preserve">403 FORBIDDEN</text></g><g><path fill="none" stroke="black" paint-order="fill stroke markers" d=" M 667.5803927772135 453.138539542 L 431.29884942403123 453.138539542" stroke-miterlimit="10" stroke-width="1.3612669416666667" stroke-dasharray="6.53408132"/><g transform="translate(417.8495320403646,453.138539542) translate(-417.8495320403646,-453.138539542)"><path fill="black" stroke="none" paint-order="stroke fill markers" d=" M 431.46220145703126 446.33220483366665 L 417.8495320403646 453.138539542 L 431.46220145703126 459.9448742503333 Z"/></g></g><g><g><rect fill="white" stroke="none" x="208.18575471776043" y="477.641344492" width="74.98643745484375" height="21.23576429"/></g><text fill="black" stroke="none" font-family="sans-serif" font-size="11pt" font-style="normal" font-weight="normal" text-decoration="normal" x="210.63603521276042" y="492.34302746199995" text-anchor="start" dominant-baseline="alphabetic" xml:space="preserve">Update fail</text></g><g><path fill="none" stroke="black" paint-order="fill stroke markers" d=" M 401.5143287403646 498.877108782 L 103.29293553366666 498.877108782" stroke-miterlimit="10" stroke-width="1.3612669416666667" stroke-dasharray="6.53408132"/><g transform="translate(89.84361815,498.877108782) translate(-89.84361815,-498.877108782)"><path fill="black" stroke="none" paint-order="stroke fill markers" d=" M 103.45628756666666 492.07077407366666 L 89.84361815 498.877108782 L 103.45628756666666 505.68344349033333 Z"/></g></g><g><g><rect fill="white" stroke="none" x="747.1515393988477" y="567.4849626419999" width="68.4294916540625" height="21.23576429"/></g><text fill="black" stroke="none" font-family="sans-serif" font-size="11pt" font-style="normal" font-weight="normal" text-decoration="normal" x="749.6018198938477" y="582.1866456119999" text-anchor="start" dominant-baseline="alphabetic" xml:space="preserve">isExist(id)</text></g><g><path fill="none" stroke="black" paint-order="fill stroke markers" d=" M 683.9155960772136 588.7207269319999 L 865.3676569908777 588.7207269319999" stroke-miterlimit="10" stroke-width="1.3612669416666667" stroke-dasharray=""/><g transform="translate(878.8169743745443,588.7207269319999) translate(-878.8169743745443,-588.7207269319999)"><path fill="black" stroke="none" paint-order="stroke fill markers" d=" M 865.2043049578776 581.9143922236666 L 878.8169743745443 588.7207269319999 L 865.2043049578776 595.5270616403333 Z"/></g></g><g><g><rect fill="white" stroke="none" x="930.7921429166212" y="613.2235318819999" width="68.4294916540625" height="21.23576429"/></g><text fill="black" stroke="none" font-family="sans-serif" font-size="11pt" font-style="normal" font-weight="normal" text-decoration="normal" x="933.2424234116212" y="627.9252148519998" text-anchor="start" dominant-baseline="alphabetic" xml:space="preserve">isExist(id)</text></g><g><path fill="none" stroke="black" paint-order="fill stroke markers" d=" M 895.1521776745444 634.4592961719999 L 1021.4122824290938 634.4592961719999" stroke-miterlimit="10" stroke-width="1.3612669416666667" stroke-dasharray=""/><g transform="translate(1034.8615998127605,634.4592961719999) translate(-1034.8615998127605,-634.4592961719999)"><path fill="black" stroke="none" paint-order="stroke fill markers" d=" M 1021.2489303960938 627.6529614636665 L 1034.8615998127605 634.4592961719999 L 1021.2489303960938 641.2656308803332 Z"/></g></g><g><g><rect fill="white" stroke="none" x="916.0963573941602" y="658.9621011219998" width="97.82106269898438" height="21.23576429"/></g><text fill="black" stroke="none" font-family="sans-serif" font-size="11pt" font-style="normal" font-weight="normal" text-decoration="normal" x="918.5466378891603" y="673.6637840919998" text-anchor="start" dominant-baseline="alphabetic" xml:space="preserve">Boolean value</text></g><g><path fill="none" stroke="black" paint-order="fill stroke markers" d=" M 1034.8615998127605 680.1978654119998 L 908.6014950582111 680.1978654119998" stroke-miterlimit="10" stroke-width="1.3612669416666667" stroke-dasharray="6.53408132"/><g transform="translate(895.1521776745444,680.1978654119998) translate(-895.1521776745444,-680.1978654119998)"><path fill="black" stroke="none" paint-order="stroke fill markers" d=" M 908.7648470912111 673.3915307036665 L 895.1521776745444 680.1978654119998 L 908.7648470912111 687.0042001203332 Z"/></g></g><g><g><rect fill="white" stroke="none" x="732.4557538763868" y="704.7006703619998" width="97.82106269898438" height="21.23576429"/></g><text fill="black" stroke="none" font-family="sans-serif" font-size="11pt" font-style="normal" font-weight="normal" text-decoration="normal" x="734.9060343713868" y="719.4023533319997" text-anchor="start" dominant-baseline="alphabetic" xml:space="preserve">Boolean value</text></g><g><path fill="none" stroke="black" paint-order="fill stroke markers" d=" M 878.8169743745443 725.9364346519998 L 697.3649134608803 725.9364346519998" stroke-miterlimit="10" stroke-width="1.3612669416666667" stroke-dasharray="6.53408132"/><g transform="translate(683.9155960772136,725.9364346519998) translate(-683.9155960772136,-725.9364346519998)"><path fill="black" stroke="none" paint-order="stroke fill markers" d=" M 697.5282654938803 719.1300999436664 L 683.9155960772136 725.9364346519998 L 697.5282654938803 732.7427693603331 Z"/></g></g><g><g><rect fill="white" stroke="none" x="447.78793630832024" y="794.5442885119996" width="189.8540522009375" height="21.23576429"/></g><text fill="red" stroke="none" font-family="sans-serif" font-size="11pt" font-style="normal" font-weight="normal" text-decoration="normal" x="450.23821680332026" y="809.2459714819996" text-anchor="start" dominant-baseline="alphabetic" xml:space="preserve">404 NOT FOUND: not found</text></g><g><path fill="none" stroke="black" paint-order="fill stroke markers" d=" M 667.5803927772135 815.7800528019997 L 431.29884942403123 815.7800528019997" stroke-miterlimit="10" stroke-width="1.3612669416666667" stroke-dasharray="6.53408132"/><g transform="translate(417.8495320403646,815.7800528019997) translate(-417.8495320403646,-815.7800528019997)"><path fill="black" stroke="none" paint-order="stroke fill markers" d=" M 431.46220145703126 808.9737180936663 L 417.8495320403646 815.7800528019997 L 431.46220145703126 822.586387510333 Z"/></g></g><g><g><rect fill="white" stroke="none" x="109.17360872166667" y="840.2828577519996" width="273.0107294470312" height="21.23576429"/></g><text fill="black" stroke="none" font-family="sans-serif" font-size="11pt" font-style="normal" font-weight="normal" text-decoration="normal" x="111.62388921666667" y="854.9845407219996" text-anchor="start" dominant-baseline="alphabetic" xml:space="preserve">Message cannot update comment in post</text></g><g><path fill="none" stroke="black" paint-order="fill stroke markers" d=" M 401.5143287403646 861.5186220419996 L 103.29293553366666 861.5186220419996" stroke-miterlimit="10" stroke-width="1.3612669416666667" stroke-dasharray="6.53408132"/><g transform="translate(89.84361815,861.5186220419996) translate(-89.84361815,-861.5186220419996)"><path fill="black" stroke="none" paint-order="stroke fill markers" d=" M 103.45628756666666 854.7122873336663 L 89.84361815 861.5186220419996 L 103.45628756666666 868.324956750333 Z"/></g></g><g><g><rect fill="white" stroke="none" x="752.8458753363477" y="930.1264759019996" width="57.0408197790625" height="21.23576429"/></g><text fill="black" stroke="none" font-family="sans-serif" font-size="11pt" font-style="normal" font-weight="normal" text-decoration="normal" x="755.2961558313477" y="944.8281588719996" text-anchor="start" dominant-baseline="alphabetic" xml:space="preserve">save(id)</text></g><g><path fill="none" stroke="black" paint-order="fill stroke markers" d=" M 683.9155960772136 951.3622401919996 L 865.3676569908777 951.3622401919996" stroke-miterlimit="10" stroke-width="1.3612669416666667" stroke-dasharray=""/><g transform="translate(878.8169743745443,951.3622401919996) translate(-878.8169743745443,-951.3622401919996)"><path fill="black" stroke="none" paint-order="stroke fill markers" d=" M 865.2043049578776 944.5559054836663 L 878.8169743745443 951.3622401919996 L 865.2043049578776 958.1685749003329 Z"/></g></g><g><g><rect fill="white" stroke="none" x="936.4864788541212" y="975.8650451419995" width="57.0408197790625" height="21.23576429"/></g><text fill="black" stroke="none" font-family="sans-serif" font-size="11pt" font-style="normal" font-weight="normal" text-decoration="normal" x="938.9367593491212" y="990.5667281119995" text-anchor="start" dominant-baseline="alphabetic" xml:space="preserve">save(id)</text></g><g><path fill="none" stroke="black" paint-order="fill stroke markers" d=" M 895.1521776745444 997.1008094319996 L 1021.4122824290938 997.1008094319996" stroke-miterlimit="10" stroke-width="1.3612669416666667" stroke-dasharray=""/><g transform="translate(1034.8615998127605,997.1008094319996) translate(-1034.8615998127605,-997.1008094319996)"><path fill="black" stroke="none" paint-order="stroke fill markers" d=" M 1021.2489303960938 990.2944747236662 L 1034.8615998127605 997.1008094319996 L 1021.2489303960938 1003.9071441403329 Z"/></g></g><g><g><rect fill="white" stroke="none" x="914.482168246211" y="1021.6036143819996" width="101.04944099488281" height="21.23576429"/></g><text fill="black" stroke="none" font-family="sans-serif" font-size="11pt" font-style="normal" font-weight="normal" text-decoration="normal" x="916.932448741211" y="1036.3052973519996" text-anchor="start" dominant-baseline="alphabetic" xml:space="preserve">Comment data</text></g><g><path fill="none" stroke="black" paint-order="fill stroke markers" d=" M 1034.8615998127605 1042.8393786719996 L 908.6014950582111 1042.8393786719996" stroke-miterlimit="10" stroke-width="1.3612669416666667" stroke-dasharray="6.53408132"/><g transform="translate(895.1521776745444,1042.8393786719996) translate(-895.1521776745444,-1042.8393786719996)"><path fill="black" stroke="none" paint-order="stroke fill markers" d=" M 908.7648470912111 1036.0330439636664 L 895.1521776745444 1042.8393786719996 L 908.7648470912111 1049.6457133803328 Z"/></g></g><g><g><rect fill="white" stroke="none" x="730.8415647284376" y="1067.3421836219998" width="101.04944099488281" height="21.23576429"/></g><text fill="black" stroke="none" font-family="sans-serif" font-size="11pt" font-style="normal" font-weight="normal" text-decoration="normal" x="733.2918452234376" y="1082.0438665919999" text-anchor="start" dominant-baseline="alphabetic" xml:space="preserve">Comment data</text></g><g><path fill="none" stroke="black" paint-order="fill stroke markers" d=" M 878.8169743745443 1088.5779479119997 L 697.3649134608803 1088.5779479119997" stroke-miterlimit="10" stroke-width="1.3612669416666667" stroke-dasharray="6.53408132"/><g transform="translate(683.9155960772136,1088.5779479119997) translate(-683.9155960772136,-1088.5779479119997)"><path fill="black" stroke="none" paint-order="stroke fill markers" d=" M 697.5282654938803 1081.7716132036664 L 683.9155960772136 1088.5779479119997 L 697.5282654938803 1095.384282620333 Z"/></g></g><g><g><rect fill="white" stroke="none" x="437.1795226120312" y="1113.0807528619996" width="54.61422981324219" height="21.23576429"/></g><g><rect fill="white" stroke="none" x="437.1795226120312" y="1129.4159561619997" width="211.07087959351563" height="21.23576429"/></g><text fill="green" stroke="none" font-family="sans-serif" font-size="11pt" font-style="normal" font-weight="normal" text-decoration="normal" x="439.6298031070312" y="1127.7824358319997" text-anchor="start" dominant-baseline="alphabetic" xml:space="preserve">200 OK</text><text fill="green" stroke="none" font-family="sans-serif" font-size="11pt" font-style="normal" font-weight="normal" text-decoration="normal" x="439.6298031070312" y="1144.1176391319998" text-anchor="start" dominant-baseline="alphabetic" xml:space="preserve">Response body: Comment data</text></g><g><path fill="none" stroke="black" paint-order="fill stroke markers" d=" M 667.5803927772135 1150.6517204519996 L 431.29884942403123 1150.6517204519996" stroke-miterlimit="10" stroke-width="1.3612669416666667" stroke-dasharray="6.53408132"/><g transform="translate(417.8495320403646,1150.6517204519996) translate(-417.8495320403646,-1150.6517204519996)"><path fill="black" stroke="none" paint-order="stroke fill markers" d=" M 431.46220145703126 1143.8453857436664 L 417.8495320403646 1150.6517204519996 L 431.46220145703126 1157.4580551603328 Z"/></g></g><g><g><rect fill="white" stroke="none" x="127.52006715672526" y="1175.1545254019998" width="236.31781257691406" height="21.23576429"/></g><text fill="black" stroke="none" font-family="sans-serif" font-size="11pt" font-style="normal" font-weight="normal" text-decoration="normal" x="129.97034765172526" y="1189.8562083719999" text-anchor="start" dominant-baseline="alphabetic" xml:space="preserve">Display post with updated comment</text></g><g><path fill="none" stroke="black" paint-order="fill stroke markers" d=" M 401.5143287403646 1196.3902896919997 L 103.29293553366666 1196.3902896919997" stroke-miterlimit="10" stroke-width="1.3612669416666667" stroke-dasharray="6.53408132"/><g transform="translate(89.84361815,1196.3902896919997) translate(-89.84361815,-1196.3902896919997)"><path fill="black" stroke="none" paint-order="stroke fill markers" d=" M 103.45628756666666 1189.5839549836664 L 89.84361815 1196.3902896919997 L 103.45628756666666 1203.196624400333 Z"/></g></g><g><g/><path fill="none" stroke="black" paint-order="fill stroke markers" d=" M 16.335203300000003 387.797726342 L 1116.5376163127605 387.797726342 L 1116.5376163127605 1245.3958995919995 L 16.335203300000003 1245.3958995919995 L 16.335203300000003 387.797726342 Z" stroke-miterlimit="10" stroke-width="2.3336004714285714" stroke-dasharray=""/><path fill="white" stroke="black" paint-order="fill stroke markers" d=" M 16.335203300000003 387.797726342 L 16.335203300000003 407.399970302 L 62.694406897070316 407.399970302 L 72.49552887707031 397.598848322 L 72.49552887707031 387.797726342 L 16.335203300000003 387.797726342" stroke-miterlimit="10" stroke-width="2.3336004714285714" stroke-dasharray=""/><text fill="black" stroke="none" font-family="sans-serif" font-size="8.8pt" font-style="normal" font-weight="bold" text-decoration="normal" x="32.67040660000001" y="400.865888982" text-anchor="start" dominant-baseline="alphabetic" xml:space="preserve">alt</text><g><rect fill="white" stroke="none" x="86.38045168207032" y="389.104542606" width="275.3603388220312" height="16.988611432000003"/></g><text fill="black" stroke="none" font-family="sans-serif" font-size="8.8pt" font-style="normal" font-weight="bold" text-decoration="normal" x="88.83073217707032" y="400.865888982" text-anchor="start" dominant-baseline="alphabetic" xml:space="preserve">[If Current User does not owner of the comment]</text><g><path fill="none" stroke="black" paint-order="fill stroke markers" d=" M 16.335203300000003 523.379913732 L 1116.5376163127605 523.379913732" stroke-miterlimit="10" stroke-width="2.3336004714285714" stroke-dasharray="4.083800825"/></g><g/></g><g/><g><g/><path fill="none" stroke="black" paint-order="fill stroke markers" d=" M 32.6704066 750.4392396019997 L 1100.2024130127604 750.4392396019997 L 1100.2024130127604 1220.8930946419996 L 32.6704066 1220.8930946419996 L 32.6704066 750.4392396019997 Z" stroke-miterlimit="10" stroke-width="2.3336004714285714" stroke-dasharray=""/><path fill="white" stroke="black" paint-order="fill stroke markers" d=" M 32.6704066 750.4392396019997 L 32.6704066 770.0414835619997 L 79.02961019707031 770.0414835619997 L 88.83073217707032 760.2403615819997 L 88.83073217707032 750.4392396019997 L 32.6704066 750.4392396019997" stroke-miterlimit="10" stroke-width="2.3336004714285714" stroke-dasharray=""/><text fill="black" stroke="none" font-family="sans-serif" font-size="8.8pt" font-style="normal" font-weight="bold" text-decoration="normal" x="49.005609899999996" y="763.5074022419997" text-anchor="start" dominant-baseline="alphabetic" xml:space="preserve">alt</text><g><rect fill="white" stroke="none" x="102.71565498207032" y="751.7460558659997" width="159.35492195191406" height="16.988611432000003"/></g><text fill="black" stroke="none" font-family="sans-serif" font-size="8.8pt" font-style="normal" font-weight="bold" text-decoration="normal" x="105.16593547707032" y="763.5074022419997" text-anchor="start" dominant-baseline="alphabetic" xml:space="preserve">[If Comment does not exist]</text><g><path fill="none" stroke="black" paint-order="fill stroke markers" d=" M 32.6704066 886.0214269919996 L 1100.2024130127604 886.0214269919996" stroke-miterlimit="10" stroke-width="2.3336004714285714" stroke-dasharray="4.083800825"/></g><g/></g><g/></g></g></svg>