<svg version="1.1" xmlns="http://www.w3.org/2000/svg" xmlns:xlink="http://www.w3.org/1999/xlink" width="1049" height="1163"><desc>title%20Deactive%20Entity%0A%0Aactor%20%23green%3A0.5%20%22User%22%20as%20w%0Aboundary%20%22Client%22%20as%20f%0Acontrol%20%22Entity%20Controller%22%20as%20gc%0Aparticipant%20%22Entity%20Service%22%20as%20gs%0Adatabase%20%23blue%3A1%20%22Database%22%20as%20db%0A%0Aw-%3Ef%3AGo%20to%20Entity%20list%20page%0Aactivate%20f%0Aw-%3Ef%3AClick%20Delete%20button%0Aw%3C--f%3ADisplay%20Delete%20Entity%20%5Cnconfirmation%20popup%0Aw-%3Ef%3AClick%20Deactive%20button%0Af-%3Egc%3ADELETE%3A%20%2Fapi%2F%7Bentity%7D%2F%7Bid%7D%0Aactivate%20gc%0Agc-%3Egs%3AisExist(id)%0Aactivate%20gs%0Ags-%3Edb%3AexistsById(id)%0Aactivate%20db%0Ags%3C--db%3A%20Boolean%20value%0Adeactivate%20db%0Agc%3C--gs%3ABoolean%20value%0Adeactivate%20gs%0Aalt%20If%20Entity%20is%20not%20exist%0Af%3C--gc%3A%3Ccolor%3A%23red%3E404%20NOT%20FOUND%3C%2Fcolor%3E%0Aw%3C--f%3A%20Message%20Delete%20fail%0Aelse%0Agc-%3Egs%3Ainactivate(id)%0Aactivate%20gs%0Ags-%3Edb%3AupdateIsActive(id%2C%20false)%0Aactivate%20db%0Ags%3C--db%3A%0Adeactivate%20db%0Agc%3C--gs%3A%0Adeactivate%20gs%0Af%3C--gc%3A%3Ccolor%3A%23green%3E200%20OK%5CnResponse%20body%3A%20Entity%20data%20%3C%2Fcolor%3E%0Adeactivate%20gc%0Aw%3C--f%3A%20Message%20Delete%20Entity%20successfully%0Aw%3C--f%3A%20Display%20Entity%20list%20page%0Adeactivate%20f%0Aend%0A%0A%0A</desc><defs/><g><g/><g/><g/><g/><g/><g/><g/><g/><g/><g/><g/><g/><g/><g/><g/><g/><g/><g/><g/><g/><g/><g/><g/><g/><g/><g><rect fill="white" stroke="none" x="0" y="0" width="1049" height="1163"/></g><g><text fill="black" stroke="none" font-family="sans-serif" font-size="16.5pt" font-style="normal" font-weight="normal" text-decoration="normal" x="451.18866914440105" y="24.50280495" text-anchor="start" dominant-baseline="alphabetic" xml:space="preserve">Deactive Entity</text></g><g/><g><path fill="none" stroke="black" paint-order="fill stroke markers" d=" M 73.50841485 129.701514202 L 73.50841485 1163.7198830919995" stroke-miterlimit="10" stroke-width="1.3612669416666667" stroke-dasharray="12.565541,5.445067766666667"/><path fill="none" stroke="black" paint-order="fill stroke markers" d=" M 355.00738688040366 129.701514202 L 355.00738688040366 1163.7198830919995" stroke-miterlimit="10" stroke-width="1.3612669416666667" stroke-dasharray="12.565541,5.445067766666667"/><path fill="none" stroke="black" paint-order="fill stroke markers" d=" M 598.2674206438151 129.701514202 L 598.2674206438151 1163.7198830919995" stroke-miterlimit="10" stroke-width="1.3612669416666667" stroke-dasharray="12.565541,5.445067766666667"/><path fill="none" stroke="black" paint-order="fill stroke markers" d=" M 751.0836677861328 129.701514202 L 751.0836677861328 1163.7198830919995" stroke-miterlimit="10" stroke-width="1.3612669416666667" stroke-dasharray="12.565541,5.445067766666667"/><path fill="none" stroke="black" paint-order="fill stroke markers" d=" M 967.428860851302 129.701514202 L 967.428860851302 1163.7198830919995" stroke-miterlimit="10" stroke-width="1.3612669416666667" stroke-dasharray="12.565541,5.445067766666667"/></g><g><g><path fill="white" stroke="green" paint-order="fill stroke markers" d=" M 82.819480731 60.60360424300001 A 9.311065881 9.311065881 0 1 1 82.81947607546743 60.594293178670846 M 73.50841485 69.91467012400001 L 73.50841485 89.84361815000001 M 61.747068473999995 77.102159576 L 85.26976122599999 77.102159576 M 73.50841485 89.84361815000001 L 61.747068473999995 108.465749912 M 73.50841485 89.84361815000001 L 85.26976122599999 108.465749912" stroke-miterlimit="10" stroke-width="1.3884922805000002" stroke-dasharray=""/></g><g><text fill="black" stroke="none" font-family="sans-serif" font-size="11pt" font-style="normal" font-weight="normal" text-decoration="normal" x="58.032401666406244" y="124.80095321200001" text-anchor="start" dominant-baseline="alphabetic" xml:space="preserve">User</text></g><g><path fill="white" stroke="black" paint-order="fill stroke markers" d=" M 387.43276543090366 82.819480731 A 24.2577769005 24.2577769005 0 1 1 387.43275330201624 82.79522295814245 M 323.97050061040363 57.17321154999999 L 323.97050061040363 108.465749912 M 322.58200832990366 82.819480731 L 338.91721162990365 82.819480731" stroke-miterlimit="10" stroke-width="2.7769845610000004" stroke-dasharray=""/></g><g><text fill="black" stroke="none" font-family="sans-serif" font-size="11pt" font-style="normal" font-weight="normal" text-decoration="normal" x="336.2672364287435" y="124.80095321200001" text-anchor="start" dominant-baseline="alphabetic" xml:space="preserve">Client</text></g><g><path fill="white" stroke="black" paint-order="fill stroke markers" d=" M 622.525197544315 82.819480731 A 24.2577769005 24.2577769005 0 1 1 622.5251854154276 82.79522295814245 M 595.000379983815 58.561703830499994 L 604.801501963815 50.39410218049999 M 595.000379983815 58.561703830499994 L 604.801501963815 66.72930548049999" stroke-miterlimit="10" stroke-width="2.7769845610000004" stroke-dasharray=""/></g><g><text fill="black" stroke="none" font-family="sans-serif" font-size="11pt" font-style="normal" font-weight="normal" text-decoration="normal" x="546.1235684099283" y="124.80095321200001" text-anchor="start" dominant-baseline="alphabetic" xml:space="preserve">Entity Controller</text></g><path fill="none" stroke="none"/><g><path fill="white" stroke="black" paint-order="fill stroke markers" d=" M 688.5496923594413 85.75981732500001 L 813.6176432128242 85.75981732500001 L 813.6176432128242 129.701514202 L 688.5496923594413 129.701514202 L 688.5496923594413 85.75981732500001 Z" stroke-miterlimit="10" stroke-width="2.613632528" stroke-dasharray=""/></g><g><text fill="black" stroke="none" font-family="sans-serif" font-size="11pt" font-style="normal" font-weight="normal" text-decoration="normal" x="706.2733879399414" y="113.36631090200002" text-anchor="start" dominant-baseline="alphabetic" xml:space="preserve">Entity Service</text></g><g><path fill="white" stroke="blue" paint-order="fill stroke markers" d=" M 943.5794640333021 97.684515734 L 943.5794640333021 63.380588804000006 L 991.278257669302 63.380588804000006 L 991.278257669302 97.684515734" stroke-miterlimit="10" stroke-width="2.7769845610000004" stroke-dasharray=""/><path fill="white" stroke="blue" paint-order="fill stroke markers" d=" M 991.278257669302 62.1881189631 L 991.2770652093983 62.29592950801663 L 991.2734879489323 62.403729271968594 L 991.267526245627 62.51150747506936 L 991.2591806956476 62.619253339588404 L 991.2484521335424 62.72695609102909 L 991.2353416321586 62.834604959206004 L 991.2198505025353 62.94218917932205 L 991.2019802937727 63.04969799304486 L 991.1817327928767 63.15712064958265 L 991.1591100245805 63.2644464067593 L 991.1341142511421 63.371664532088516 L 991.1067479721181 63.47876430384712 L 991.0770139241135 63.58573501214718 L 991.0449150805084 63.692565960007016 L 991.0104546511603 63.79924646442086 L 990.9736360820835 63.90576585742718 L 990.9344630551042 64.01211348717543 L 990.8929394874924 64.11827871899126 L 990.8490695315704 64.22425093643996 L 990.802857574297 64.3300195423881 L 990.7543082368297 64.43557396006322 L 990.7034263740617 64.54090363411153 L 990.6502170741368 64.64599803165338 L 990.5946856579405 64.75084664333659 L 990.5368376785685 64.85543898438739 L 990.4766789207704 64.95976459565881 L 990.4142154003717 65.06381304467668 L 990.3494533636725 65.16757392668278 L 990.2823992868225 65.27103686567541 L 990.2130598751736 65.37419151544687 L 990.1414420626089 65.47702756061814 L 990.0675530108502 65.5795347176704 L 989.9914001087412 65.68170273597339 L 989.9129909715084 65.7835213988104 L 989.8323334400003 65.88498052439998 L 989.7494355799029 65.98606996691414 L 989.664305680933 66.08677961749288 L 989.5769522560096 66.18709940525505 L 989.4873840404024 66.28701929830548 L 989.3956099908584 66.38652930473813 L 989.301639284706 66.48561947363528 L 989.2054813189374 66.58427989606261 L 989.1071457092693 66.6825007060601 L 989.0066422891805 66.7802720816286 L 988.9039811089293 66.87758424571203 L 988.7991724345483 66.97442746717506 L 988.6922267468174 67.07079206177627 L 988.5831547402164 67.1666683931365 L 988.4719673218551 67.2620468737025 L 988.3586756103825 67.35691796570569 L 988.2432909348756 67.45127218211596 L 988.1258248337056 67.54510008759026 L 988.0062890533846 67.63839229941624 L 987.8846955473914 67.73113948845047 L 987.761056474975 67.82333238005134 L 987.6353841999396 67.9149617550065 L 987.5076912894082 68.00601845045483 L 987.3779905125651 68.09649336080267 L 987.2462948393802 68.18637743863435 L 987.112617439311 68.27566169561702 L 986.976971679986 68.36433720339936 L 986.8393711258682 68.45239509450451 L 986.6998295368983 68.53982656321674 L 986.558360867119 68.62662286646201 L 986.4149792632792 68.71277532468237 L 986.26969906342 68.79827532270376 L 986.1225347954402 68.88311431059763 L 985.9735011756441 68.9672838045359 L 985.8226131072691 69.0507753876393 L 985.6698856789968 69.13358071081912 L 985.5153341634425 69.21569149361203 L 985.3589740156291 69.29709952500816 L 985.2008208714408 69.37779666427225 L 985.0408905460605 69.45777484175761 L 984.8791990323873 69.53702605971311 L 984.715762499438 69.61554239308303 L 984.5505972907295 69.69331599029945 L 984.3837199226451 69.77033907406746 L 984.2151470827827 69.84660394214286 L 984.0448956282855 69.92210296810242 L 983.8729825841574 69.99682860210643 L 983.6994251415593 70.07077337165379 L 983.524240656091 70.14392988232913 L 983.347446646055 70.21629081854239 L 983.169060790705 70.28784894426022 L 982.9891009284777 70.35859710372968 L 982.8075850552096 70.42852822219379 L 982.6245313223367 70.49763530659898 L 982.4399580350797 70.5659114462944 L 982.2538836506135 70.63334981372294 L 982.0663267762216 70.69994366510412 L 981.8773061674349 70.76568634110825 L 981.686840726157 70.83057126752253 L 981.4949494987732 70.89459195590838 L 981.3016516742464 70.95774200425032 L 981.1069665821979 71.02001509759614 L 980.9109136909747 71.08140500868842 L 980.7135126057025 71.14190559858717 L 980.5147830663254 71.20151081728383 L 980.3147449456317 71.26021470430622 L 980.1134182472667 71.31801138931453 L 979.9108231037327 71.37489509268845 L 979.7069797743749 71.43086012610503 L 979.5019086433566 71.48590089310757 L 979.2956302176199 71.54001188966522 L 979.0881651248355 71.59318770472345 L 978.8795341113398 71.64542302074504 L 978.6697580400604 71.69671261424193 L 978.4588578884294 71.7470513562975 L 978.2468547462863 71.79643421307951 L 978.0337698137687 71.84485624634341 L 977.8196243991923 71.89231261392625 L 977.60443991692 71.93879857023082 L 977.3882378852207 71.9843094667002 L 977.1710399241176 72.02884075228269 L 976.9528677532256 72.07238797388683 L 976.7337431895801 72.11494677682676 L 976.5136881454547 72.15651290525764 L 976.2927246261706 72.19708220260128 L 976.0708747278957 72.23665061196175 L 975.8481606354346 72.27521417653107 L 975.6246046200112 72.31276903998494 L 975.4002290370407 72.3493114468683 L 975.1750563238944 72.38483774297092 L 974.949108997656 72.41934437569277 L 974.7224096528698 72.45282789439938 L 974.4949809592814 72.48528495076673 L 974.2668456595705 72.51671229911628 L 974.0380265670773 72.54710679673934 L 973.8085465635199 72.5764654042115 L 973.5784285967079 72.60478518569649 L 973.3476956782458 72.63206330923974 L 973.1163708812335 72.65829704705163 L 972.8844773379576 72.68348377578025 L 972.6520382375795 72.70762097677371 L 972.4190768238154 72.73070623633201 L 972.1856163926125 72.75273724594847 L 971.9516802898195 72.77371180254045 L 971.7172919088515 72.79362780866978 L 971.4824746883515 72.81248327275246 L 971.2472521098459 72.83027630925778 L 971.0116476953963 72.84700513889692 L 970.775685005248 72.86266808880085 L 970.5393876354733 72.87726359268764 L 970.3027792156123 72.89079019101906 L 970.0658834063097 72.90324653114655 L 969.8287238969492 72.91463136744649 L 969.591324403284 72.9249435614447 L 969.3537086650656 72.93418208193043 L 969.11590044367 72.94234600505929 L 968.8779235197209 72.94943451444577 L 968.6398016907125 72.95544690124485 L 968.4015587686293 72.96038256422287 L 968.163218577565 72.96424100981763 L 967.92480495134 72.9670218521878 L 967.6863417311182 72.96872481325143 L 967.4478527630231 72.96934972271386 L 967.2093618957525 72.96889651808466 L 966.9708929781947 72.96736524468392 L 966.7324698570425 72.96475605563768 L 966.4941163744095 72.96106921186271 L 966.2558563654451 72.95630508204027 L 966.0177136559519 72.9504641425794 L 965.7797120600022 72.94354697756918 L 965.5418753775574 72.93555427872033 L 965.3042273920875 72.9264868452961 L 965.0667918681929 72.91634558403224 L 964.8295925492282 72.90513150904647 L 964.5926531549278 72.89284574173689 L 964.3559973790335 72.87948951067006 L 964.1196488869257 72.86506415145789 L 963.8836313132566 72.84957110662431 L 963.6479682595871 72.8330119254609 L 963.4126832920259 72.81538826387197 L 963.1777999388739 72.79670188420899 L 962.9433416882706 72.77695465509434 L 962.7093319858458 72.7561485512345 L 962.4757942323744 72.73428565322251 L 962.2427517814375 72.71136814732996 L 962.0102279370858 72.68739832528833 L 961.7782459515099 72.66237858405984 L 961.5468290227153 72.63631142559778 L 961.3160002922018 72.60919945659627 L 961.0857828426502 72.58104538822961 L 960.8561996956137 72.55185203588118 L 960.6272738092154 72.5216223188619 L 960.3990280758534 72.49035926011825 L 960.1714853199107 72.45806598593009 L 959.9446682954734 72.4247457255979 L 959.718599684055 72.39040181111994 L 959.493302092328 72.35503767685907 L 959.2687980498639 72.31865685919922 L 959.04511000688 72.28126299619186 L 958.8222603319941 72.24285982719209 L 958.600271309988 72.20345119248485 L 958.379165139579 72.16304103290075 L 958.1589639311995 72.12163338942209 L 957.9396897047874 72.07923240277869 L 957.7213643875822 72.03584231303388 L 957.5040098119338 71.99146745916049 L 957.2876477131188 71.94611227860693 L 957.0722997271664 71.89978130685344 L 956.8579873886962 71.85247917695861 L 956.644732128763 71.80421061909601 L 956.4325552727156 71.75498046008119 L 956.2214780380623 71.70479362288901 L 956.0115215323509 71.65365512616141 L 955.802706751057 71.60157008370541 L 955.5950545754847 71.54854370398188 L 955.3885857706786 71.49458128958457 L 955.1833209833469 71.43968823671 L 954.9792807397974 71.38387003461766 L 954.7764854438844 71.32713226508127 L 954.5749553749687 71.26948060183051 L 954.374710685889 71.21092080998365 L 954.1757714009474 71.15145874547107 L 953.9781574139066 71.0911003544497 L 953.7818884860008 71.0298516727083 L 953.5869842439589 70.96771882506403 L 953.393464178043 70.90470802474988 L 953.2013476400982 70.84082557279336 L 953.0106538416185 70.77607785738643 L 952.8214018518245 70.71047135324669 L 952.6336105957575 70.64401262096986 L 952.4472988523869 70.5767083063738 L 952.2624852527315 70.50856513983389 L 952.0791882779974 70.43958993560999 L 951.8974262577292 70.36978959116503 L 951.7172173679777 70.29917108647531 L 951.5385796294814 70.22774148333244 L 951.3615309058655 70.1555079246372 L 951.1860889018546 70.08247763368529 L 951.0122711615032 70.00865791344492 L 950.8400950664403 69.9340561458266 L 950.6695778341319 69.85867979094495 L 950.5007365161593 69.78253638637263 L 950.3335879965134 69.70563354638664 L 950.1681489899071 69.62797896120689 L 950.0044360401029 69.54958039622719 L 949.8424655182596 69.47044569123871 L 949.6822536212943 69.39058275964601 L 949.5238163702631 69.30999958767568 L 949.3671696087594 69.22870423357777 L 949.2123290013285 69.14670482681996 L 949.0593100319022 69.06400956727457 L 948.9081280022499 68.98062672439866 L 948.7587980304486 68.89656463640702 L 948.6113350493711 68.8118317094384 L 948.4657538051925 68.72643641671489 L 948.3220688559161 68.6403872976946 L 948.1802945699169 68.55369295721772 L 948.0404451245055 68.46636206464606 L 947.9025345045097 68.37840335299609 L 947.7665765008767 68.28982561806569 L 947.6325847092936 68.20063771755453 L 947.5005725288279 68.11084857017835 L 947.3705531605875 68.02046715477704 L 947.242539606401 67.92950250941684 L 947.1165446675171 67.83796373048648 L 946.9925809433248 67.74585997178757 L 946.8706608300931 67.65320044361923 L 946.7507965197317 67.55999441185705 L 946.6329999985718 67.46625119702654 L 946.5172830461673 67.37198017337107 L 946.4036572341171 67.27719076791445 L 946.2921339249077 67.18189245951821 L 946.182724270777 67.08609477793381 L 946.0754392125993 66.98980730284956 L 945.9702894787911 66.89303966293272 L 945.8672855842381 66.79580153486665 L 945.7664378292437 66.69810264238313 L 945.6677562984996 66.59995275528999 L 945.5712508600767 66.50136168849414 L 945.4769311644383 66.40233930102012 L 945.3848066434753 66.30289549502413 L 945.2948865095631 66.20304021480393 L 945.2071797546402 66.1027834458043 L 945.1216951493088 66.00213521361863 L 945.0384412419586 65.90110558298623 L 944.9574263579105 65.799704656786 L 944.8786585985857 65.69794257502603 L 944.8021458406945 65.59582951382973 L 944.7278957354487 65.4933756844181 L 944.6559157077971 65.3905913320887 L 944.5862129556824 65.28748673519112 L 944.518794449322 65.18407220409914 L 944.4536669305099 65.08035808017966 L 944.390836911944 64.97635473475869 L 944.3303106765738 64.87207256808405 L 944.2720942769723 64.76752200828555 L 944.2161935347311 64.66271351033203 L 944.1626140398777 64.55765755498592 L 944.1113611503168 64.45236464775525 L 944.062439991295 64.34684531784296 L 944.0158554548872 64.24111011709415 L 943.9716121995083 64.13516961894075 L 943.9297146494469 64.0290344173443 L 943.8901669944231 63.92271512573653 L 943.8529731891695 63.81622237595798 L 943.8181369530356 63.70956681719489 L 943.7856617696159 63.602759114914264 L 943.7555508864019 63.49580994979732 L 943.7278073144566 63.38873001667144 L 943.7024338281143 63.28153002344071 L 943.6794329647023 63.17422069001512 L 943.6588070242879 63.066812747238586 L 943.6405580694477 62.959316935815885 L 943.6246879250623 62.85174400523857 L 943.6111981781328 62.74410471271006 L 943.6000901776225 62.636409822069915 L 943.5913650343225 62.52867010271744 L 943.5850236207395 62.4208963285348 L 943.58106657101 62.313099276809595 L 943.5794942808352 62.20528972715717 L 943.5803069074432 62.09747846044265 L 943.5835043695718 61.98967625770286 L 943.5890863474774 61.88189389906824 L 943.5970522829671 61.77414216268484 L 943.6074013794538 61.66643182363649 L 943.6201326020366 61.558773652867366 L 943.6352446776037 61.4511784161048 L 943.6527360949603 61.34365687278283 L 943.6726051049791 61.236219774966166 L 943.6948497207758 61.12887786627507 L 943.7194677179073 61.02164188081096 L 943.7464566345942 60.91452254208302 L 943.7758137719676 60.807530561935856 L 943.8075361943381 60.70067663947832 L 943.84162072949 60.593971460013606 L 943.878063968998 60.487425693970756 L 943.9168622685688 60.381049995837586 L 943.9580117484045 60.27485500309525 L 944.0015082935915 60.16885133515453 L 944.0473475545116 60.06304959229389 L 944.0955249472768 59.95746035459945 L 944.146035654188 59.852094180906974 L 944.1988746242166 59.746961607746044 L 944.2540365735098 59.64207314828636 L 944.3115159859184 59.537439291286454 L 944.3713071135492 59.43307050004484 L 944.433403977339 59.32897721135367 L 944.4978003676536 59.22516983445505 L 944.5644898449074 59.12165875000019 L 944.6334657402082 59.01845430901127 L 944.704721156024 58.91556683184637 L 944.7782489668726 58.81300660716748 L 944.8540418200342 58.7107838909116 L 944.9320921362867 58.60890890526517 L 945.0123921106634 58.507391837641855 L 945.0949337132338 58.406242839663825 L 945.1797086899065 58.30547202614659 L 945.2667085632545 58.205089474087515 L 945.3559246333629 58.105105221658164 L 945.447347978699 58.00552926720046 L 945.5409694570045 57.90637156822687 L 945.6367797062095 57.807642040424646 L 945.7347691453691 57.709350556664305 L 945.834927975621 57.61150694601232 L 945.9372461811655 57.514120992748204 L 946.0417135302673 57.417202435386145 L 946.1483195762788 57.320760965701105 L 946.2570536586841 57.224806227759686 L 946.3679049041654 57.12934781695572 L 946.4808622276907 57.03439527905074 L 946.5959143336219 56.93995810921942 L 946.713049716844 56.84604575110002 L 946.8322566639164 56.75266759585011 L 946.9535232542438 56.65983298120741 L 947.0768373612682 56.567551190555996 L 947.2021866536817 56.47583145199805 L 947.3295585966594 56.384682937430995 L 947.4589404531132 56.29411476163032 L 947.5903192849653 56.20413598133814 L 947.7236819544419 56.1147555943575 L 947.8590151253873 56.02598253865261 L 947.9963052645971 55.937825691455075 L 948.1355386431719 55.85029386837614 L 948.2767013378898 55.763395822525176 L 948.4197792325989 55.677140243634355 L 948.564758019629 55.591535757189675 L 948.7116232012223 55.50659092356846 L 948.860360090983 55.42231423718327 L 949.0109538153459 55.33871412563253 L 949.1633893150644 55.25579894885771 L 949.3176513467151 55.1735769983074 L 949.4737244842238 55.092056496108135 L 949.6315931204066 55.01124559424221 L 949.7912414685316 54.93115237373246 L 949.9526535638967 54.851784843834196 L 950.1158132654272 54.77315094123426 L 950.2807042572887 54.6952585292574 L 950.4473100505196 54.61811539707989 L 950.6156139846794 54.54172925895067 L 950.7855992295147 54.46610775341989 L 950.9572487866429 54.391258442575094 L 951.1305454912514 54.317188811284986 L 951.3054720138139 54.24390626645098 L 951.482010861824 54.171418136266475 L 951.6601443815441 54.09973166948409 L 951.8398547597707 54.028854034690774 L 952.0211240256156 53.95879231959093 L 952.2039340523032 53.88955353029769 L 952.3882665589834 53.82114459063227 L 952.5741031125592 53.753572341431656 L 952.7614251295298 53.68684353986444 L 952.9502138778497 53.62096485875517 L 953.1404504788015 53.55594288591707 L 953.3321159088837 53.49178412349323 L 953.5251910017128 53.42849498730643 L 953.7196564499404 53.366081806217544 L 953.915492807184 53.304550821492676 L 954.1126804899708 53.24390818617902 L 954.3111997796971 53.18415996448957 L 954.5110308245991 53.12531213119671 L 954.7121536417388 53.067370571034715 L 954.9145481190025 53.01034107811134 L 955.1181940171108 52.95422935532834 L 955.3230709716436 52.89904101381123 L 955.5291584950762 52.84478157234818 L 955.7364359788281 52.79145645683812 L 955.9448826953236 52.73907099974815 L 956.1544778000648 52.687630439580346 L 956.3652003337157 52.637139920347835 L 956.5770292241988 52.58760449106049 L 956.7899432888014 52.53902910521993 L 957.0039212362946 52.49141862032429 L 957.2189416690618 52.444777797382365 L 957.434983085239 52.399111300437596 L 957.6520238808645 52.354423696101605 L 957.8700423520398 52.3107194530976 L 958.0890166970994 52.26800294181345 L 958.3089250187911 52.2262784338647 L 958.5297453264664 52.18555010166736 L 958.751455538278 52.14582201802072 L 958.9740334833899 52.10709815570004 L 959.1974569041929 52.06938238705927 L 959.421703458531 52.032678483643856 L 959.646750721936 51.996990115813546 L 959.8725761898687 51.96232085237539 L 960.0991572799708 51.928674160226834 L 960.3264713343219 51.89605340400906 L 960.554495621706 51.8644618457705 L 960.7832073398845 51.833902644640645 L 961.0125836178761 51.80437885651416 L 961.2426015182442 51.775893433745246 L 961.4732380393904 51.74844922485244 L 961.7044701178547 51.722048974233765 L 961.936274630622 51.69669532189228 L 962.1686283974344 51.672390803172085 L 962.4015081831086 51.649137848504814 L 962.6348906998602 51.626938783166544 L 962.868752609632 51.60579582704531 L 963.1030705264278 51.58571109441911 L 963.3378210186513 51.56668659374447 L 963.5729806114489 51.54872422745561 L 963.8085257890573 51.53182579177417 L 964.0444329971549 51.515992976529645 L 964.2806786452177 51.50122736499037 L 964.5172391088774 51.4875304337052 L 964.7540907322852 51.47490355235584 L 964.9912098304759 51.4633479836199 L 965.2285726917373 51.45286488304463 L 965.4661555799811 51.443455298931354 L 965.7039347371164 51.43512017223063 L 965.9418863854257 51.4278603364482 L 966.1799867299425 51.42167651756158 L 966.4182119608306 51.41656933394751 L 966.6565382557657 51.41253929632009 L 966.8949417823167 51.40958680767973 L 967.1333987003295 51.407712163272826 L 967.3718851643114 51.40691555056227 L 967.6103773258144 51.40719704920866 L 967.8488513358212 51.40855663106237 L 968.0872833471296 51.41099416016634 L 968.3256495167371 51.414509392769695 L 968.5639260082254 51.419101977352106 L 968.8020889941439 51.42477145465894 L 969.0401146583924 51.431517257747196 L 969.2779791986029 51.43933871204218 L 969.5156588285196 51.44823503540498 L 969.7531297803777 51.45820533821068 L 969.9903683072796 51.4692486234373 L 970.2273506855705 51.48136378676553 L 970.4640532172101 51.49454961668913 L 970.7004522321424 51.50880479463608 L 970.936524090663 51.524127895100484 L 971.1722451857827 51.54051738578506 L 971.4075919455884 51.5579716277544 L 971.6425408356002 51.57648887559884 L 971.877068361125 51.59606727760904 L 972.1111510696057 51.6167048759611 L 972.3447655529665 51.6383996069124 L 972.5778884499535 51.66114930100791 L 972.8104964484717 51.684951683297186 L 973.0425662879147 51.70980437356183 L 973.2740747614922 51.735704886553535 L 973.5049987185497 51.76265063224257 L 973.7353150668839 51.79063891607683 L 973.9650007750519 51.81966693925126 L 974.1940328746742 51.849731798987726 L 974.4223884627319 51.88083048882531 L 974.6500447038563 51.91295989892094 L 974.8769788326131 51.94611681636038 L 975.1031681557785 51.980297925479526 L 975.3285900546088 52.01549980819594 L 975.5532219871017 52.0517189443507 L 975.7770414902513 52.08895171206036 L 976.0000261822939 52.127194388079175 L 976.2221537649459 52.16644314817141 L 976.4434020256344 52.20669406749378 L 976.6637488397175 52.247943120987884 L 976.8831721726974 52.29018618378274 L 977.1016500824238 52.33341903160728 L 977.3191607212877 52.37763734121275 L 977.5356823384066 52.422836690805035 L 977.7511932817989 52.46901256048684 L 977.9656720005502 52.516160332709674 L 978.1790970469672 52.564275292735616 L 978.3914470787231 52.613352629108746 L 978.6027008609918 52.663387434136325 L 978.812837268571 52.71437470437956 L 979.021835287995 52.7663093411539 L 979.2296740196363 52.819186151038956 L 979.4363326797945 52.8729998463978 L 979.6417906027763 52.92774504590574 L 979.8460272429602 52.983416275088445 L 980.0490221768525 53.040007966869396 L 980.2507551051291 53.09751446212657 L 980.4512058546652 53.15593001025836 L 980.6503543805528 53.21524876975863 L 980.8481807681054 53.27546480880087 L 981.044665234849 53.33657210583136 L 981.2397881325008 53.3985645501713 L 981.4335299489336 53.461435942627936 L 981.625871310127 53.52517999611441 L 981.8167929821054 53.58979033627848 L 982.0062758728606 53.655260502139996 L 982.1943010342615 53.721583946736914 L 982.3808496639485 53.78875403778004 L 982.5659031072142 53.85676405831625 L 982.7494428588685 53.92560720740017 L 982.9314505650892 53.995276600774254 L 983.1119080252573 54.065765271557225 L 983.2907971937772 54.13706617094075 L 983.4681001818809 54.2091721688943 L 983.6437992594177 54.28207605487816 L 983.8178768566261 54.35577053856451 L 983.9903155658914 54.43024825056637 L 984.1610981434864 54.50550174317461 L 984.3302075112956 54.581523491102686 L 984.4976267585232 54.658305892239156 L 984.6633391433841 54.73584126840789 L 984.8273280947777 54.81412186613588 L 984.9895772139457 54.89313985742859 L 985.1500702761114 54.97288734055273 L 985.3087912321022 55.05335634082646 L 985.4657242099547 55.1345388114168 L 985.620853516502 55.21642663414435 L 985.7741636389429 55.29901162029506 L 985.9256392463926 55.38228551143916 L 986.0752651914167 55.46623998025691 L 986.2230265115455 55.55086663137139 L 986.36890843077 55.63615700218803 L 986.5128963610199 55.722102563740805 L 986.6549759036221 55.80869472154519 L 986.7951328507409 55.89592481645755 L 986.9333531867981 55.98378412554111 L 987.0696230898754 56.07226386293816 L 987.2039289330962 56.1613551807487 L 987.336257285988 56.251049169915184 L 987.4665949158257 56.34133686111345 L 987.594928788955 56.4322092256496 L 987.7212460720957 56.52365717636293 L 987.8455341336244 56.615671568534566 L 987.9677805448388 56.70824320080196 L 988.0879730811995 56.80136281607904 L 988.2060997235532 56.89502110248188 L 988.3221486593338 56.98920869425987 L 988.4361082837447 57.083916172732344 L 988.5479672009184 57.17913406723036 L 988.6577142250562 57.27485285604382 L 988.7653383815474 57.37106296737362 L 988.8708289080658 57.467754780288786 L 988.9741752556469 57.56491862568861 L 989.0753670897418 57.662544787269525 L 989.1743942912517 57.76062350249672 L 989.2712469575387 57.859144963580405 L 989.365915403417 57.95809931845658 L 989.458390162121 58.05747667177222 L 989.5486619862518 58.15726708587479 L 989.6367218487021 58.257460581806065 L 989.7225609435592 58.358047140299924 L 989.8061706869852 58.459016702784346 L 989.8875427180751 58.56035917238722 L 989.966668899694 58.66206441494605 L 990.0435413192895 58.764122260021324 L 990.1181522896836 58.866522501913586 L 990.1904943498416 58.96925490068398 L 990.2605602656179 59.072309183178234 L 990.3283430304789 59.17567504405398 L 990.3938358662049 59.279342146811274 L 990.4570322235668 59.38330012482622 L 990.5179257829815 59.48753858238766 L 990.5765104551439 59.59204709573668 L 990.6327803816355 59.69681521410906 L 990.6867299355107 59.80183246078026 L 990.738353721859 59.907088334113126 L 990.7876465783446 60.012572308608036 L 990.8346035757232 60.11827383595545 L 990.8792200183341 60.22418234609071 L 990.9214914445702 60.33028724825106 L 990.961413627324 60.43657793203471 L 990.9989825744107 60.54304376846186 L 991.0341945289666 60.64967411103757 L 991.067045969826 60.75645829681646 L 991.0975336118719 60.86338564746893 L 991.1256544063656 60.97044547034902 L 991.1514055412509 61.07762705956367 L 991.1747844414361 61.184919697043256 L 991.1957887690504 61.29231265361346 L 991.2144164236787 61.399795190068104 L 991.2306655425709 61.50735655824312 L 991.2445345008289 61.614986002091314 L 991.2560219115682 61.72267275875801 L 991.2651266260573 61.830406059657264 L 991.2718477338325 61.93817513154877 L 991.2761845627884 62.04596919761514 L 991.278136679246 62.15377747853961 M 991.278257669302 96.4920458931 L 991.2770652093983 96.59985643801662 L 991.2734879489323 96.70765620196859 L 991.267526245627 96.81543440506935 L 991.2591806956476 96.9231802695884 L 991.2484521335424 97.03088302102908 L 991.2353416321586 97.138531889206 L 991.2198505025353 97.24611610932205 L 991.2019802937727 97.35362492304485 L 991.1817327928767 97.46104757958265 L 991.1591100245805 97.5683733367593 L 991.1341142511421 97.67559146208852 L 991.1067479721181 97.78269123384712 L 991.0770139241135 97.88966194214719 L 991.0449150805084 97.99649289000702 L 991.0104546511603 98.10317339442086 L 990.9736360820835 98.20969278742717 L 990.9344630551042 98.31604041717543 L 990.8929394874924 98.42220564899125 L 990.8490695315704 98.52817786643996 L 990.802857574297 98.6339464723881 L 990.7543082368297 98.73950089006323 L 990.7034263740617 98.84483056411152 L 990.6502170741368 98.94992496165337 L 990.5946856579405 99.05477357333659 L 990.5368376785685 99.15936591438738 L 990.4766789207704 99.2636915256588 L 990.4142154003717 99.36773997467667 L 990.3494533636725 99.47150085668278 L 990.2823992868225 99.5749637956754 L 990.2130598751736 99.67811844544686 L 990.1414420626089 99.78095449061813 L 990.0675530108502 99.8834616476704 L 989.9914001087412 99.98562966597338 L 989.9129909715084 100.08744832881038 L 989.8323334400003 100.18890745439998 L 989.7494355799029 100.28999689691415 L 989.664305680933 100.39070654749288 L 989.5769522560096 100.49102633525506 L 989.4873840404024 100.59094622830548 L 989.3956099908584 100.69045623473812 L 989.301639284706 100.78954640363527 L 989.2054813189374 100.8882068260626 L 989.1071457092693 100.9864276360601 L 989.0066422891805 101.0841990116286 L 988.9039811089293 101.18151117571202 L 988.7991724345483 101.27835439717506 L 988.6922267468174 101.37471899177628 L 988.5831547402164 101.4705953231365 L 988.4719673218551 101.56597380370249 L 988.3586756103825 101.6608448957057 L 988.2432909348756 101.75519911211595 L 988.1258248337056 101.84902701759025 L 988.0062890533846 101.94231922941623 L 987.8846955473914 102.03506641845047 L 987.761056474975 102.12725931005133 L 987.6353841999396 102.2188886850065 L 987.5076912894082 102.30994538045483 L 987.3779905125651 102.40042029080266 L 987.2462948393802 102.49030436863434 L 987.112617439311 102.579588625617 L 986.976971679986 102.66826413339936 L 986.8393711258682 102.75632202450451 L 986.6998295368983 102.84375349321674 L 986.558360867119 102.93054979646202 L 986.4149792632792 103.01670225468237 L 986.26969906342 103.10220225270375 L 986.1225347954402 103.18704124059762 L 985.9735011756441 103.27121073453588 L 985.8226131072691 103.3547023176393 L 985.6698856789968 103.4375076408191 L 985.5153341634425 103.51961842361202 L 985.3589740156291 103.60102645500817 L 985.2008208714408 103.68172359427226 L 985.0408905460605 103.7617017717576 L 984.8791990323873 103.84095298971312 L 984.715762499438 103.91946932308304 L 984.5505972907295 103.99724292029944 L 984.3837199226451 104.07426600406745 L 984.2151470827827 104.15053087214287 L 984.0448956282855 104.22602989810241 L 983.8729825841574 104.30075553210642 L 983.6994251415593 104.37470030165377 L 983.524240656091 104.44785681232914 L 983.347446646055 104.52021774854238 L 983.169060790705 104.59177587426021 L 982.9891009284777 104.66252403372968 L 982.8075850552096 104.73245515219378 L 982.6245313223367 104.80156223659897 L 982.4399580350797 104.86983837629438 L 982.2538836506135 104.93727674372295 L 982.0663267762216 105.0038705951041 L 981.8773061674349 105.06961327110824 L 981.686840726157 105.13449819752252 L 981.4949494987732 105.19851888590837 L 981.3016516742464 105.26166893425032 L 981.1069665821979 105.32394202759615 L 980.9109136909747 105.38533193868841 L 980.7135126057025 105.44583252858716 L 980.5147830663254 105.50543774728384 L 980.3147449456317 105.56414163430621 L 980.1134182472667 105.62193831931454 L 979.9108231037327 105.67882202268845 L 979.7069797743749 105.73478705610502 L 979.5019086433566 105.78982782310756 L 979.2956302176199 105.84393881966523 L 979.0881651248355 105.89711463472344 L 978.8795341113398 105.94934995074503 L 978.6697580400604 106.00063954424192 L 978.4588578884294 106.0509782862975 L 978.2468547462863 106.1003611430795 L 978.0337698137687 106.14878317634341 L 977.8196243991923 106.19623954392625 L 977.60443991692 106.2427255002308 L 977.3882378852207 106.2882363967002 L 977.1710399241176 106.33276768228268 L 976.9528677532256 106.37631490388682 L 976.7337431895801 106.41887370682676 L 976.5136881454547 106.46043983525765 L 976.2927246261706 106.50100913260128 L 976.0708747278957 106.54057754196174 L 975.8481606354346 106.57914110653107 L 975.6246046200112 106.61669596998493 L 975.4002290370407 106.65323837686829 L 975.1750563238944 106.6887646729709 L 974.949108997656 106.72327130569276 L 974.7224096528698 106.75675482439937 L 974.4949809592814 106.78921188076673 L 974.2668456595705 106.82063922911627 L 974.0380265670773 106.85103372673933 L 973.8085465635199 106.8803923342115 L 973.5784285967079 106.90871211569649 L 973.3476956782458 106.93599023923973 L 973.1163708812335 106.96222397705162 L 972.8844773379576 106.98741070578025 L 972.6520382375795 107.0115479067737 L 972.4190768238154 107.03463316633201 L 972.1856163926125 107.05666417594847 L 971.9516802898195 107.07763873254045 L 971.7172919088515 107.09755473866979 L 971.4824746883515 107.11641020275246 L 971.2472521098459 107.13420323925777 L 971.0116476953963 107.1509320688969 L 970.775685005248 107.16659501880085 L 970.5393876354733 107.18119052268763 L 970.3027792156123 107.19471712101905 L 970.0658834063097 107.20717346114655 L 969.8287238969492 107.21855829744648 L 969.591324403284 107.22887049144471 L 969.3537086650656 107.23810901193042 L 969.11590044367 107.24627293505928 L 968.8779235197209 107.25336144444577 L 968.6398016907125 107.25937383124486 L 968.4015587686293 107.26430949422287 L 968.163218577565 107.26816793981763 L 967.92480495134 107.27094878218779 L 967.6863417311182 107.27265174325143 L 967.4478527630231 107.27327665271386 L 967.2093618957525 107.27282344808465 L 966.9708929781947 107.27129217468391 L 966.7324698570425 107.26868298563768 L 966.4941163744095 107.2649961418627 L 966.2558563654451 107.26023201204026 L 966.0177136559519 107.2543910725794 L 965.7797120600022 107.24747390756917 L 965.5418753775574 107.23948120872033 L 965.3042273920875 107.23041377529609 L 965.0667918681929 107.22027251403225 L 964.8295925492282 107.20905843904646 L 964.5926531549278 107.1967726717369 L 964.3559973790335 107.18341644067004 L 964.1196488869257 107.16899108145788 L 963.8836313132566 107.15349803662431 L 963.6479682595871 107.1369388554609 L 963.4126832920259 107.11931519387196 L 963.1777999388739 107.10062881420897 L 962.9433416882706 107.08088158509435 L 962.7093319858458 107.0600754812345 L 962.4757942323744 107.03821258322252 L 962.2427517814375 107.01529507732995 L 962.0102279370858 106.99132525528832 L 961.7782459515099 106.96630551405984 L 961.5468290227153 106.94023835559778 L 961.3160002922018 106.91312638659626 L 961.0857828426502 106.88497231822961 L 960.8561996956137 106.85577896588119 L 960.6272738092154 106.8255492488619 L 960.3990280758534 106.79428619011826 L 960.1714853199107 106.76199291593008 L 959.9446682954734 106.72867265559789 L 959.718599684055 106.69432874111995 L 959.493302092328 106.65896460685907 L 959.2687980498639 106.62258378919921 L 959.04511000688 106.58518992619184 L 958.8222603319941 106.5467867571921 L 958.600271309988 106.50737812248485 L 958.379165139579 106.46696796290075 L 958.1589639311995 106.42556031942208 L 957.9396897047874 106.38315933277867 L 957.7213643875822 106.33976924303387 L 957.5040098119338 106.29539438916049 L 957.2876477131188 106.25003920860692 L 957.0722997271664 106.20370823685344 L 956.8579873886962 106.15640610695861 L 956.644732128763 106.108137549096 L 956.4325552727156 106.05890739008117 L 956.2214780380623 106.00872055288902 L 956.0115215323509 105.9575820561614 L 955.802706751057 105.90549701370541 L 955.5950545754847 105.85247063398188 L 955.3885857706786 105.79850821958458 L 955.1833209833469 105.74361516670999 L 954.9792807397974 105.68779696461766 L 954.7764854438844 105.63105919508126 L 954.5749553749687 105.5734075318305 L 954.374710685889 105.51484773998365 L 954.1757714009474 105.45538567547108 L 953.9781574139066 105.3950272844497 L 953.7818884860008 105.33377860270829 L 953.5869842439589 105.27164575506403 L 953.393464178043 105.20863495474987 L 953.2013476400982 105.14475250279335 L 953.0106538416185 105.08000478738643 L 952.8214018518245 105.01439828324668 L 952.6336105957575 104.94793955096986 L 952.4472988523869 104.8806352363738 L 952.2624852527315 104.8124920698339 L 952.0791882779974 104.74351686560999 L 951.8974262577292 104.67371652116503 L 951.7172173679777 104.6030980164753 L 951.5385796294814 104.53166841333243 L 951.3615309058655 104.4594348546372 L 951.1860889018546 104.38640456368528 L 951.0122711615032 104.31258484344491 L 950.8400950664403 104.2379830758266 L 950.6695778341319 104.16260672094495 L 950.5007365161593 104.08646331637262 L 950.3335879965134 104.00956047638662 L 950.1681489899071 103.93190589120688 L 950.0044360401029 103.85350732622719 L 949.8424655182596 103.77437262123871 L 949.6822536212943 103.694509689646 L 949.5238163702631 103.61392651767568 L 949.3671696087594 103.53263116357778 L 949.2123290013285 103.45063175681996 L 949.0593100319022 103.36793649727457 L 948.9081280022499 103.28455365439865 L 948.7587980304486 103.20049156640701 L 948.6113350493711 103.1157586394384 L 948.4657538051925 103.03036334671489 L 948.3220688559161 102.94431422769459 L 948.1802945699169 102.85761988721772 L 948.0404451245055 102.77028899464605 L 947.9025345045097 102.68233028299609 L 947.7665765008767 102.5937525480657 L 947.6325847092936 102.50456464755453 L 947.5005725288279 102.41477550017834 L 947.3705531605875 102.32439408477703 L 947.242539606401 102.23342943941684 L 947.1165446675171 102.14189066048647 L 946.9925809433248 102.04978690178756 L 946.8706608300931 101.95712737361922 L 946.7507965197317 101.86392134185704 L 946.6329999985718 101.77017812702654 L 946.5172830461673 101.67590710337106 L 946.4036572341171 101.58111769791444 L 946.2921339249077 101.48581938951821 L 946.182724270777 101.39002170793381 L 946.0754392125993 101.29373423284954 L 945.9702894787911 101.19696659293271 L 945.8672855842381 101.09972846486664 L 945.7664378292437 101.00202957238312 L 945.6677562984996 100.90387968528998 L 945.5712508600767 100.80528861849413 L 945.4769311644383 100.70626623102011 L 945.3848066434753 100.60682242502413 L 945.2948865095631 100.50696714480392 L 945.2071797546402 100.40671037580431 L 945.1216951493088 100.30606214361863 L 945.0384412419586 100.20503251298624 L 944.9574263579105 100.103631586786 L 944.8786585985857 100.00186950502604 L 944.8021458406945 99.89975644382972 L 944.7278957354487 99.79730261441809 L 944.6559157077971 99.69451826208869 L 944.5862129556824 99.59141366519111 L 944.518794449322 99.48799913409913 L 944.4536669305099 99.38428501017967 L 944.390836911944 99.28028166475868 L 944.3303106765738 99.17599949808405 L 944.2720942769723 99.07144893828554 L 944.2161935347311 98.96664044033201 L 944.1626140398777 98.86158448498593 L 944.1113611503168 98.75629157775525 L 944.062439991295 98.65077224784297 L 944.0158554548872 98.54503704709414 L 943.9716121995083 98.43909654894075 L 943.9297146494469 98.33296134734431 L 943.8901669944231 98.22664205573652 L 943.8529731891695 98.12014930595798 L 943.8181369530356 98.01349374719489 L 943.7856617696159 97.90668604491427 L 943.7555508864019 97.79973687979731 L 943.7278073144566 97.69265694667143 L 943.7024338281143 97.58545695344071 L 943.6794329647023 97.47814762001512 L 943.6588070242879 97.37073967723859 L 943.6405580694477 97.26324386581588 L 943.6246879250623 97.15567093523856 L 943.6111981781328 97.04803164271006 L 943.6000901776225 96.94033675206991 L 943.5913650343225 96.83259703271744 L 943.5850236207395 96.7248232585348 L 943.58106657101 96.6170262068096 L 943.5794942808352 96.50921665715717" stroke-miterlimit="10" stroke-width="2.7769845610000004" stroke-dasharray=""/></g><g><text fill="black" stroke="none" font-family="sans-serif" font-size="11pt" font-style="normal" font-weight="normal" text-decoration="normal" x="936.050915905013" y="124.80095321200001" text-anchor="start" dominant-baseline="alphabetic" xml:space="preserve">Database</text></g></g><g><path fill="white" stroke="black" paint-order="fill stroke markers" d=" M 346.83978523040366 183.607685092 L 363.17498853040365 183.607685092 L 363.17498853040365 1082.0438665919996 L 346.83978523040366 1082.0438665919996 L 346.83978523040366 183.607685092" stroke-miterlimit="10" stroke-width="1.3612669416666667" stroke-dasharray=""/><path fill="white" stroke="black" paint-order="fill stroke markers" d=" M 590.099818993815 382.897165352 L 606.4350222938151 382.897165352 L 606.4350222938151 990.5667281119996 L 590.099818993815 990.5667281119996 L 590.099818993815 382.897165352" stroke-miterlimit="10" stroke-width="1.3612669416666667" stroke-dasharray=""/><path fill="white" stroke="black" paint-order="fill stroke markers" d=" M 742.9160661361327 428.635734592 L 759.2512694361328 428.635734592 L 759.2512694361328 565.8514423119999 L 742.9160661361327 565.8514423119999 L 742.9160661361327 428.635734592" stroke-miterlimit="10" stroke-width="1.3612669416666667" stroke-dasharray=""/><path fill="white" stroke="black" paint-order="fill stroke markers" d=" M 959.261259201302 474.374303832 L 975.5964625013021 474.374303832 L 975.5964625013021 520.112873072 L 959.261259201302 520.112873072 L 959.261259201302 474.374303832" stroke-miterlimit="10" stroke-width="1.3612669416666667" stroke-dasharray=""/><path fill="white" stroke="black" paint-order="fill stroke markers" d=" M 742.9160661361327 791.2772478519997 L 759.2512694361328 791.2772478519997 L 759.2512694361328 928.4929555719996 L 742.9160661361327 928.4929555719996 L 742.9160661361327 791.2772478519997" stroke-miterlimit="10" stroke-width="1.3612669416666667" stroke-dasharray=""/><path fill="white" stroke="black" paint-order="fill stroke markers" d=" M 959.261259201302 837.0158170919997 L 975.5964625013021 837.0158170919997 L 975.5964625013021 882.7543863319996 L 959.261259201302 882.7543863319996 L 959.261259201302 837.0158170919997" stroke-miterlimit="10" stroke-width="1.3612669416666667" stroke-dasharray=""/><g><g><rect fill="white" stroke="none" x="140.0896261247917" y="162.371920802" width="140.16894783082031" height="21.23576429"/></g><text fill="black" stroke="none" font-family="sans-serif" font-size="11pt" font-style="normal" font-weight="normal" text-decoration="normal" x="142.53990661979168" y="177.07360377199998" text-anchor="start" dominant-baseline="alphabetic" xml:space="preserve">Go to Entity list page</text></g><g><path fill="none" stroke="black" paint-order="fill stroke markers" d=" M 73.50841485 183.607685092 L 333.390467846737 183.607685092" stroke-miterlimit="10" stroke-width="1.3612669416666667" stroke-dasharray=""/><g transform="translate(346.83978523040366,183.607685092) translate(-346.83978523040366,-183.607685092)"><path fill="black" stroke="none" paint-order="stroke fill markers" d=" M 333.227115813737 176.80135038366666 L 346.83978523040366 183.607685092 L 333.227115813737 190.41401980033334 Z"/></g></g><g><g><rect fill="white" stroke="none" x="146.20272426932294" y="208.110490042" width="127.94275154175781" height="21.23576429"/></g><text fill="black" stroke="none" font-family="sans-serif" font-size="11pt" font-style="normal" font-weight="normal" text-decoration="normal" x="148.65300476432293" y="222.812173012" text-anchor="start" dominant-baseline="alphabetic" xml:space="preserve">Click Delete button</text></g><g><path fill="none" stroke="black" paint-order="fill stroke markers" d=" M 73.50841485 229.346254332 L 333.390467846737 229.346254332" stroke-miterlimit="10" stroke-width="1.3612669416666667" stroke-dasharray=""/><g transform="translate(346.83978523040366,229.346254332) translate(-346.83978523040366,-229.346254332)"><path fill="black" stroke="none" paint-order="stroke fill markers" d=" M 333.227115813737 222.53991962366666 L 346.83978523040366 229.346254332 L 333.227115813737 236.15258904033334 Z"/></g></g><g><g><rect fill="white" stroke="none" x="138.0602834734245" y="253.84905928199998" width="144.2276331335547" height="21.23576429"/></g><g><rect fill="white" stroke="none" x="138.0602834734245" y="270.184262582" width="129.58912910523438" height="21.23576429"/></g><text fill="black" stroke="none" font-family="sans-serif" font-size="11pt" font-style="normal" font-weight="normal" text-decoration="normal" x="140.5105639684245" y="268.55074225199996" text-anchor="start" dominant-baseline="alphabetic" xml:space="preserve">Display Delete Entity </text><text fill="black" stroke="none" font-family="sans-serif" font-size="11pt" font-style="normal" font-weight="normal" text-decoration="normal" x="140.5105639684245" y="284.88594555199995" text-anchor="start" dominant-baseline="alphabetic" xml:space="preserve">confirmation popup</text></g><g><path fill="none" stroke="black" paint-order="fill stroke markers" d=" M 346.83978523040366 291.420026872 L 86.95773223366666 291.420026872" stroke-miterlimit="10" stroke-width="1.3612669416666667" stroke-dasharray="6.53408132"/><g transform="translate(73.50841485,291.420026872) translate(-73.50841485,-291.420026872)"><path fill="black" stroke="none" paint-order="stroke fill markers" d=" M 87.12108426666666 284.61369216366666 L 73.50841485 291.420026872 L 87.12108426666666 298.22636158033333 Z"/></g></g><g><g><rect fill="white" stroke="none" x="138.87273769705732" y="315.922831822" width="142.60272468628906" height="21.23576429"/></g><text fill="black" stroke="none" font-family="sans-serif" font-size="11pt" font-style="normal" font-weight="normal" text-decoration="normal" x="141.3230181920573" y="330.62451479199996" text-anchor="start" dominant-baseline="alphabetic" xml:space="preserve">Click Deactive button</text></g><g><path fill="none" stroke="black" paint-order="fill stroke markers" d=" M 73.50841485 337.158596112 L 333.390467846737 337.158596112" stroke-miterlimit="10" stroke-width="1.3612669416666667" stroke-dasharray=""/><g transform="translate(346.83978523040366,337.158596112) translate(-346.83978523040366,-337.158596112)"><path fill="black" stroke="none" paint-order="stroke fill markers" d=" M 333.227115813737 330.35226140366666 L 346.83978523040366 337.158596112 L 333.227115813737 343.96493082033334 Z"/></g></g><g><g><rect fill="white" stroke="none" x="392.6910752934765" y="361.661401062" width="167.89265693726563" height="21.23576429"/></g><text fill="black" stroke="none" font-family="sans-serif" font-size="11pt" font-style="normal" font-weight="normal" text-decoration="normal" x="395.1413557884765" y="376.36308403199996" text-anchor="start" dominant-baseline="alphabetic" xml:space="preserve">DELETE: /api/{entity}/{id}</text></g><g><path fill="none" stroke="black" paint-order="fill stroke markers" d=" M 363.17498853040365 382.897165352 L 576.6505016101484 382.897165352" stroke-miterlimit="10" stroke-width="1.3612669416666667" stroke-dasharray=""/><g transform="translate(590.099818993815,382.897165352) translate(-590.099818993815,-382.897165352)"><path fill="black" stroke="none" paint-order="stroke fill markers" d=" M 576.4871495771483 376.09083064366666 L 590.099818993815 382.897165352 L 576.4871495771483 389.70350006033334 Z"/></g></g><g><g><rect fill="white" stroke="none" x="640.4607983879426" y="407.399970302" width="68.4294916540625" height="21.23576429"/></g><text fill="black" stroke="none" font-family="sans-serif" font-size="11pt" font-style="normal" font-weight="normal" text-decoration="normal" x="642.9110788829427" y="422.10165327199996" text-anchor="start" dominant-baseline="alphabetic" xml:space="preserve">isExist(id)</text></g><g><path fill="none" stroke="black" paint-order="fill stroke markers" d=" M 606.4350222938151 428.635734592 L 729.4667487524661 428.635734592" stroke-miterlimit="10" stroke-width="1.3612669416666667" stroke-dasharray=""/><g transform="translate(742.9160661361327,428.635734592) translate(-742.9160661361327,-428.635734592)"><path fill="black" stroke="none" paint-order="stroke fill markers" d=" M 729.303396719466 421.82939988366667 L 742.9160661361327 428.635734592 L 729.303396719466 435.44206930033334 Z"/></g></g><g><g><rect fill="white" stroke="none" x="812.8153222026236" y="453.138539542" width="92.8818842321875" height="21.23576429"/></g><text fill="black" stroke="none" font-family="sans-serif" font-size="11pt" font-style="normal" font-weight="normal" text-decoration="normal" x="815.2656026976236" y="467.84022251199997" text-anchor="start" dominant-baseline="alphabetic" xml:space="preserve">existsById(id)</text></g><g><path fill="none" stroke="black" paint-order="fill stroke markers" d=" M 759.2512694361328 474.374303832 L 945.8119418176353 474.374303832" stroke-miterlimit="10" stroke-width="1.3612669416666667" stroke-dasharray=""/><g transform="translate(959.261259201302,474.374303832) translate(-959.261259201302,-474.374303832)"><path fill="black" stroke="none" paint-order="stroke fill markers" d=" M 945.6485897846353 467.56796912366667 L 959.261259201302 474.374303832 L 945.6485897846353 481.18063854033335 Z"/></g></g><g><g><rect fill="white" stroke="none" x="810.3457329692252" y="498.87710878199994" width="97.82106269898438" height="21.23576429"/></g><text fill="black" stroke="none" font-family="sans-serif" font-size="11pt" font-style="normal" font-weight="normal" text-decoration="normal" x="812.7960134642252" y="513.5787917519999" text-anchor="start" dominant-baseline="alphabetic" xml:space="preserve">Boolean value</text></g><g><path fill="none" stroke="black" paint-order="fill stroke markers" d=" M 959.261259201302 520.112873072 L 772.7005868197995 520.112873072" stroke-miterlimit="10" stroke-width="1.3612669416666667" stroke-dasharray="6.53408132"/><g transform="translate(759.2512694361328,520.112873072) translate(-759.2512694361328,-520.112873072)"><path fill="black" stroke="none" paint-order="stroke fill markers" d=" M 772.8639388527995 513.3065383636666 L 759.2512694361328 520.112873072 L 772.8639388527995 526.9192077803333 Z"/></g></g><g><g><rect fill="white" stroke="none" x="625.7650128654817" y="544.6156780219999" width="97.82106269898438" height="21.23576429"/></g><text fill="black" stroke="none" font-family="sans-serif" font-size="11pt" font-style="normal" font-weight="normal" text-decoration="normal" x="628.2152933604817" y="559.3173609919999" text-anchor="start" dominant-baseline="alphabetic" xml:space="preserve">Boolean value</text></g><g><path fill="none" stroke="black" paint-order="fill stroke markers" d=" M 742.9160661361327 565.8514423119999 L 619.8843396774818 565.8514423119999" stroke-miterlimit="10" stroke-width="1.3612669416666667" stroke-dasharray="6.53408132"/><g transform="translate(606.4350222938151,565.8514423119999) translate(-606.4350222938151,-565.8514423119999)"><path fill="black" stroke="none" paint-order="stroke fill markers" d=" M 620.0476917104818 559.0451076036666 L 606.4350222938151 565.8514423119999 L 620.0476917104818 572.6577770203332 Z"/></g></g><g><g><rect fill="white" stroke="none" x="416.35245987599603" y="634.4592961719998" width="120.56988777222656" height="21.23576429"/></g><text fill="red" stroke="none" font-family="sans-serif" font-size="11pt" font-style="normal" font-weight="normal" text-decoration="normal" x="418.80274037099605" y="649.1609791419997" text-anchor="start" dominant-baseline="alphabetic" xml:space="preserve">404 NOT FOUND</text></g><g><path fill="none" stroke="black" paint-order="fill stroke markers" d=" M 590.099818993815 655.6950604619998 L 376.6243059140703 655.6950604619998" stroke-miterlimit="10" stroke-width="1.3612669416666667" stroke-dasharray="6.53408132"/><g transform="translate(363.17498853040365,655.6950604619998) translate(-363.17498853040365,-655.6950604619998)"><path fill="black" stroke="none" paint-order="stroke fill markers" d=" M 376.78765794707033 648.8887257536664 L 363.17498853040365 655.6950604619998 L 376.78765794707033 662.5013951703331 Z"/></g></g><g><g><rect fill="white" stroke="none" x="143.35018520682294" y="680.1978654119997" width="133.64782966675781" height="21.23576429"/></g><text fill="black" stroke="none" font-family="sans-serif" font-size="11pt" font-style="normal" font-weight="normal" text-decoration="normal" x="145.80046570182293" y="694.8995483819997" text-anchor="start" dominant-baseline="alphabetic" xml:space="preserve">Message Delete fail</text></g><g><path fill="none" stroke="black" paint-order="fill stroke markers" d=" M 346.83978523040366 701.4336297019997 L 86.95773223366666 701.4336297019997" stroke-miterlimit="10" stroke-width="1.3612669416666667" stroke-dasharray="6.53408132"/><g transform="translate(73.50841485,701.4336297019997) translate(-73.50841485,-701.4336297019997)"><path fill="black" stroke="none" paint-order="stroke fill markers" d=" M 87.12108426666666 694.6272949936664 L 73.50841485 701.4336297019997 L 87.12108426666666 708.2399644103331 Z"/></g></g><g><g><rect fill="white" stroke="none" x="630.6719647697786" y="770.0414835619997" width="88.00715889039063" height="21.23576429"/></g><text fill="black" stroke="none" font-family="sans-serif" font-size="11pt" font-style="normal" font-weight="normal" text-decoration="normal" x="633.1222452647786" y="784.7431665319997" text-anchor="start" dominant-baseline="alphabetic" xml:space="preserve">inactivate(id)</text></g><g><path fill="none" stroke="black" paint-order="fill stroke markers" d=" M 606.4350222938151 791.2772478519997 L 729.4667487524661 791.2772478519997" stroke-miterlimit="10" stroke-width="1.3612669416666667" stroke-dasharray=""/><g transform="translate(742.9160661361327,791.2772478519997) translate(-742.9160661361327,-791.2772478519997)"><path fill="black" stroke="none" paint-order="stroke fill markers" d=" M 729.303396719466 784.4709131436664 L 742.9160661361327 791.2772478519997 L 729.303396719466 798.0835825603331 Z"/></g></g><g><g><rect fill="white" stroke="none" x="778.5812600077994" y="815.7800528019997" width="161.35000862183594" height="21.23576429"/></g><text fill="black" stroke="none" font-family="sans-serif" font-size="11pt" font-style="normal" font-weight="normal" text-decoration="normal" x="781.0315405027994" y="830.4817357719996" text-anchor="start" dominant-baseline="alphabetic" xml:space="preserve">updateIsActive(id, false)</text></g><g><path fill="none" stroke="black" paint-order="fill stroke markers" d=" M 759.2512694361328 837.0158170919997 L 945.8119418176353 837.0158170919997" stroke-miterlimit="10" stroke-width="1.3612669416666667" stroke-dasharray=""/><g transform="translate(959.261259201302,837.0158170919997) translate(-959.261259201302,-837.0158170919997)"><path fill="black" stroke="none" paint-order="stroke fill markers" d=" M 945.6485897846353 830.2094823836663 L 959.261259201302 837.0158170919997 L 945.6485897846353 843.822151800333 Z"/></g></g><g><g><rect fill="white" stroke="none" x="856.8059838237174" y="861.5186220419996" width="4.90056099" height="21.23576429"/></g><text fill="black" stroke="none" font-family="sans-serif" font-size="11pt" font-style="normal" font-weight="normal" text-decoration="normal" x="859.2562643187174" y="876.2203050119996" text-anchor="start" dominant-baseline="alphabetic" xml:space="preserve"></text></g><g><path fill="none" stroke="black" paint-order="fill stroke markers" d=" M 959.261259201302 882.7543863319996 L 772.7005868197995 882.7543863319996" stroke-miterlimit="10" stroke-width="1.3612669416666667" stroke-dasharray="6.53408132"/><g transform="translate(759.2512694361328,882.7543863319996) translate(-759.2512694361328,-882.7543863319996)"><path fill="black" stroke="none" paint-order="stroke fill markers" d=" M 772.8639388527995 875.9480516236663 L 759.2512694361328 882.7543863319996 L 772.8639388527995 889.560721040333 Z"/></g></g><g><g><rect fill="white" stroke="none" x="672.2252637199739" y="907.2571912819996" width="4.90056099" height="21.23576429"/></g><text fill="black" stroke="none" font-family="sans-serif" font-size="11pt" font-style="normal" font-weight="normal" text-decoration="normal" x="674.6755442149739" y="921.9588742519995" text-anchor="start" dominant-baseline="alphabetic" xml:space="preserve"></text></g><g><path fill="none" stroke="black" paint-order="fill stroke markers" d=" M 742.9160661361327 928.4929555719996 L 619.8843396774818 928.4929555719996" stroke-miterlimit="10" stroke-width="1.3612669416666667" stroke-dasharray="6.53408132"/><g transform="translate(606.4350222938151,928.4929555719996) translate(-606.4350222938151,-928.4929555719996)"><path fill="black" stroke="none" paint-order="stroke fill markers" d=" M 620.0476917104818 921.6866208636662 L 606.4350222938151 928.4929555719996 L 620.0476917104818 935.2992902803329 Z"/></g></g><g><g><rect fill="white" stroke="none" x="382.50497910207025" y="952.9957605219996" width="54.61422981324219" height="21.23576429"/></g><g><rect fill="white" stroke="none" x="382.50497910207025" y="969.3309638219996" width="188.26484932007813" height="21.23576429"/></g><text fill="green" stroke="none" font-family="sans-serif" font-size="11pt" font-style="normal" font-weight="normal" text-decoration="normal" x="384.95525959707027" y="967.6974434919996" text-anchor="start" dominant-baseline="alphabetic" xml:space="preserve">200 OK</text><text fill="green" stroke="none" font-family="sans-serif" font-size="11pt" font-style="normal" font-weight="normal" text-decoration="normal" x="384.95525959707027" y="984.0326467919996" text-anchor="start" dominant-baseline="alphabetic" xml:space="preserve">Response body: Entity data </text></g><g><path fill="none" stroke="black" paint-order="fill stroke markers" d=" M 590.099818993815 990.5667281119996 L 376.6243059140703 990.5667281119996" stroke-miterlimit="10" stroke-width="1.3612669416666667" stroke-dasharray="6.53408132"/><g transform="translate(363.17498853040365,990.5667281119996) translate(-363.17498853040365,-990.5667281119996)"><path fill="black" stroke="none" paint-order="stroke fill markers" d=" M 376.78765794707033 983.7603934036663 L 363.17498853040365 990.5667281119996 L 376.78765794707033 997.373062820333 Z"/></g></g><g><g><rect fill="white" stroke="none" x="92.83840542166668" y="1015.0695330619996" width="234.67138923707031" height="21.23576429"/></g><text fill="black" stroke="none" font-family="sans-serif" font-size="11pt" font-style="normal" font-weight="normal" text-decoration="normal" x="95.28868591666668" y="1029.7712160319995" text-anchor="start" dominant-baseline="alphabetic" xml:space="preserve">Message Delete Entity successfully</text></g><g><path fill="none" stroke="black" paint-order="fill stroke markers" d=" M 346.83978523040366 1036.3052973519996 L 86.95773223366666 1036.3052973519996" stroke-miterlimit="10" stroke-width="1.3612669416666667" stroke-dasharray="6.53408132"/><g transform="translate(73.50841485,1036.3052973519996) translate(-73.50841485,-1036.3052973519996)"><path fill="black" stroke="none" paint-order="stroke fill markers" d=" M 87.12108426666666 1029.4989626436663 L 73.50841485 1036.3052973519996 L 87.12108426666666 1043.1116320603328 Z"/></g></g><g><g><rect fill="white" stroke="none" x="133.98369961111982" y="1060.8081023019997" width="152.38080085816406" height="21.23576429"/></g><text fill="black" stroke="none" font-family="sans-serif" font-size="11pt" font-style="normal" font-weight="normal" text-decoration="normal" x="136.4339801061198" y="1075.5097852719998" text-anchor="start" dominant-baseline="alphabetic" xml:space="preserve">Display Entity list page</text></g><g><path fill="none" stroke="black" paint-order="fill stroke markers" d=" M 346.83978523040366 1082.0438665919996 L 86.95773223366666 1082.0438665919996" stroke-miterlimit="10" stroke-width="1.3612669416666667" stroke-dasharray="6.53408132"/><g transform="translate(73.50841485,1082.0438665919996) translate(-73.50841485,-1082.0438665919996)"><path fill="black" stroke="none" paint-order="stroke fill markers" d=" M 87.12108426666666 1075.2375318836664 L 73.50841485 1082.0438665919996 L 87.12108426666666 1088.8502013003329 Z"/></g></g><g><g/><path fill="none" stroke="black" paint-order="fill stroke markers" d=" M 16.335203299999996 590.3542472619998 L 1024.602072401302 590.3542472619998 L 1024.602072401302 1106.5466715419996 L 16.335203299999996 1106.5466715419996 L 16.335203299999996 590.3542472619998 Z" stroke-miterlimit="10" stroke-width="2.3336004714285714" stroke-dasharray=""/><path fill="white" stroke="black" paint-order="fill stroke markers" d=" M 16.335203299999996 590.3542472619998 L 16.335203299999996 609.9564912219998 L 62.69440689707031 609.9564912219998 L 72.49552887707031 600.1553692419998 L 72.49552887707031 590.3542472619998 L 16.335203299999996 590.3542472619998" stroke-miterlimit="10" stroke-width="2.3336004714285714" stroke-dasharray=""/><text fill="black" stroke="none" font-family="sans-serif" font-size="8.8pt" font-style="normal" font-weight="bold" text-decoration="normal" x="32.67040659999999" y="603.4224099019998" text-anchor="start" dominant-baseline="alphabetic" xml:space="preserve">alt</text><g><rect fill="white" stroke="none" x="86.38045168207032" y="591.6610635259998" width="120.25300849976563" height="16.988611432000003"/></g><text fill="black" stroke="none" font-family="sans-serif" font-size="8.8pt" font-style="normal" font-weight="bold" text-decoration="normal" x="88.83073217707032" y="603.4224099019998" text-anchor="start" dominant-baseline="alphabetic" xml:space="preserve">[If Entity is not exist]</text><g><path fill="none" stroke="black" paint-order="fill stroke markers" d=" M 16.335203299999996 725.9364346519998 L 1024.602072401302 725.9364346519998" stroke-miterlimit="10" stroke-width="2.3336004714285714" stroke-dasharray="4.083800825"/></g><g/></g><g/></g></g></svg>