<svg version="1.1" xmlns="http://www.w3.org/2000/svg" xmlns:xlink="http://www.w3.org/1999/xlink" width="996" height="1212"><desc>title%20Create%20Entity%0A%0Aactor%20%23green%3A0.5%20%22User%22%20as%20w%0Aboundary%20%22Client%22%20as%20f%0Acontrol%20%22Entity%20Controller%22%20as%20gc%0Aparticipant%20%22Entity%20Service%22%20as%20gs%0Adatabase%20%23blue%3A1%20%22Database%22%20as%20db%0A%0Aw-%3Ef%3AGo%20to%20Entity%20list%20page%0Aactivate%20f%0Aw-%3Ef%3AClick%20Create%20Entity%20button%0Aw%3C--f%3ADisplay%20Create%20Entity%20popup%0Aw-%3Ef%3AType%20information%20of%20Entity%0Af-%3Ef%3AValidate%20input%20data%0Aactivate%20f%0Af--%3Ef%3A%20Validate%20value%0Adeactivate%20f%0Aalt%20If%20the%20input%20data%20is%20wrong%0Aw%3C--f%3AValidate%20Message%0Aend%0Aw-%3Ef%3A%20Click%20button%20Save%0Af-%3Egc%3APOST%3A%20%2Fapi%2F%7Bentity%7D%0Aactivate%20gc%0Aalt%20If%20there%20is%20required%20field%20do%20not%20have%20value%0Af%3C--gc%3A%3Ccolor%3A%23red%3E400%20BAD_REQUEST%3A%20%5CnMissing%20required%20property%3C%2Fcolor%3E%0Aw%3C--f%3AMessage%20is%20required%0Aelse%0Agc-%3Egs%3Asave()%0Aactivate%20gs%0Ags-%3Edb%3ACreate%20Entity%0Aactivate%20db%0Ags%3C--db%3AEntity%20data%0Adeactivate%20db%0Agc%3C--gs%3ANew%20Entity%20data%0Adeactivate%20gs%0Af%3C--gc%3A%3Ccolor%3A%23green%3E201%20OK%3A%20CREATED%3C%2Fcolor%3E%0Adeactivate%20gc%0Aw%3C--f%3A%20Display%20Entity%20list%20table%20with%20new%20Entity%0Adeactivate%20f%0Aend</desc><defs/><g><g/><g/><g/><g/><g/><g/><g/><g/><g/><g/><g/><g/><g/><g/><g/><g/><g/><g/><g/><g/><g/><g/><g/><g><rect fill="white" stroke="none" x="0" y="0" width="996" height="1212"/></g><g><text fill="black" stroke="none" font-family="sans-serif" font-size="16.5pt" font-style="normal" font-weight="normal" text-decoration="normal" x="434.45912310660805" y="24.50280495" text-anchor="start" dominant-baseline="alphabetic" xml:space="preserve">Create Entity</text></g><g/><g><path fill="none" stroke="black" paint-order="fill stroke markers" d=" M 73.50841485 129.701514202 L 73.50841485 1212.7254929919998" stroke-miterlimit="10" stroke-width="1.3612669416666667" stroke-dasharray="12.565541,5.445067766666667"/><path fill="none" stroke="black" paint-order="fill stroke markers" d=" M 373.74038858938803 129.701514202 L 373.74038858938803 1212.7254929919998" stroke-miterlimit="10" stroke-width="1.3612669416666667" stroke-dasharray="12.565541,5.445067766666667"/><path fill="none" stroke="black" paint-order="fill stroke markers" d=" M 607.2080783240885 129.701514202 L 607.2080783240885 1212.7254929919998" stroke-miterlimit="10" stroke-width="1.3612669416666667" stroke-dasharray="12.565541,5.445067766666667"/><path fill="none" stroke="black" paint-order="fill stroke markers" d=" M 769.7738066675781 129.701514202 L 769.7738066675781 1212.7254929919998" stroke-miterlimit="10" stroke-width="1.3612669416666667" stroke-dasharray="12.565541,5.445067766666667"/><path fill="none" stroke="black" paint-order="fill stroke markers" d=" M 914.4082453382161 129.701514202 L 914.4082453382161 1212.7254929919998" stroke-miterlimit="10" stroke-width="1.3612669416666667" stroke-dasharray="12.565541,5.445067766666667"/></g><g><g><path fill="white" stroke="green" paint-order="fill stroke markers" d=" M 82.819480731 60.60360424300001 A 9.311065881 9.311065881 0 1 1 82.81947607546743 60.594293178670846 M 73.50841485 69.91467012400001 L 73.50841485 89.84361815000001 M 61.747068473999995 77.102159576 L 85.26976122599999 77.102159576 M 73.50841485 89.84361815000001 L 61.747068473999995 108.465749912 M 73.50841485 89.84361815000001 L 85.26976122599999 108.465749912" stroke-miterlimit="10" stroke-width="1.3884922805000002" stroke-dasharray=""/></g><g><text fill="black" stroke="none" font-family="sans-serif" font-size="11pt" font-style="normal" font-weight="normal" text-decoration="normal" x="58.032401666406244" y="124.80095321200001" text-anchor="start" dominant-baseline="alphabetic" xml:space="preserve">User</text></g><g><path fill="white" stroke="black" paint-order="fill stroke markers" d=" M 406.16576713988803 82.819480731 A 24.2577769005 24.2577769005 0 1 1 406.1657550110006 82.79522295814245 M 342.703502319388 57.17321154999999 L 342.703502319388 108.465749912 M 341.31501003888803 82.819480731 L 357.650213338888 82.819480731" stroke-miterlimit="10" stroke-width="2.7769845610000004" stroke-dasharray=""/></g><g><text fill="black" stroke="none" font-family="sans-serif" font-size="11pt" font-style="normal" font-weight="normal" text-decoration="normal" x="355.0002381377279" y="124.80095321200001" text-anchor="start" dominant-baseline="alphabetic" xml:space="preserve">Client</text></g><g><path fill="white" stroke="black" paint-order="fill stroke markers" d=" M 631.4658552245885 82.819480731 A 24.2577769005 24.2577769005 0 1 1 631.4658430957011 82.79522295814245 M 603.9410376640885 58.561703830499994 L 613.7421596440885 50.39410218049999 M 603.9410376640885 58.561703830499994 L 613.7421596440885 66.72930548049999" stroke-miterlimit="10" stroke-width="2.7769845610000004" stroke-dasharray=""/></g><g><text fill="black" stroke="none" font-family="sans-serif" font-size="11pt" font-style="normal" font-weight="normal" text-decoration="normal" x="555.0642260902018" y="124.80095321200001" text-anchor="start" dominant-baseline="alphabetic" xml:space="preserve">Entity Controller</text></g><path fill="none" stroke="none"/><g><path fill="white" stroke="black" paint-order="fill stroke markers" d=" M 707.2398312408867 85.75981732500001 L 832.3077820942696 85.75981732500001 L 832.3077820942696 129.701514202 L 707.2398312408867 129.701514202 L 707.2398312408867 85.75981732500001 Z" stroke-miterlimit="10" stroke-width="2.613632528" stroke-dasharray=""/></g><g><text fill="black" stroke="none" font-family="sans-serif" font-size="11pt" font-style="normal" font-weight="normal" text-decoration="normal" x="724.9635268213867" y="113.36631090200002" text-anchor="start" dominant-baseline="alphabetic" xml:space="preserve">Entity Service</text></g><g><path fill="white" stroke="blue" paint-order="fill stroke markers" d=" M 890.5588485202162 97.684515734 L 890.5588485202162 63.380588804000006 L 938.2576421562161 63.380588804000006 L 938.2576421562161 97.684515734" stroke-miterlimit="10" stroke-width="2.7769845610000004" stroke-dasharray=""/><path fill="white" stroke="blue" paint-order="fill stroke markers" d=" M 938.2576421562161 62.1881189631 L 938.2564496963124 62.29592950801663 L 938.2528724358464 62.403729271968594 L 938.2469107325411 62.51150747506936 L 938.2385651825617 62.619253339588404 L 938.2278366204565 62.72695609102909 L 938.2147261190727 62.834604959206004 L 938.1992349894495 62.94218917932205 L 938.1813647806869 63.04969799304486 L 938.1611172797908 63.15712064958265 L 938.1384945114946 63.2644464067593 L 938.1134987380563 63.371664532088516 L 938.0861324590322 63.47876430384712 L 938.0563984110277 63.58573501214718 L 938.0242995674225 63.692565960007016 L 937.9898391380744 63.79924646442086 L 937.9530205689977 63.90576585742718 L 937.9138475420183 64.01211348717543 L 937.8723239744065 64.11827871899126 L 937.8284540184845 64.22425093643996 L 937.7822420612112 64.3300195423881 L 937.7336927237438 64.43557396006322 L 937.6828108609758 64.54090363411153 L 937.6296015610509 64.64599803165338 L 937.5740701448547 64.75084664333659 L 937.5162221654826 64.85543898438739 L 937.4560634076845 64.95976459565881 L 937.3935998872859 65.06381304467668 L 937.3288378505866 65.16757392668278 L 937.2617837737366 65.27103686567541 L 937.1924443620877 65.37419151544687 L 937.120826549523 65.47702756061814 L 937.0469374977644 65.5795347176704 L 936.9707845956553 65.68170273597339 L 936.8923754584225 65.7835213988104 L 936.8117179269144 65.88498052439998 L 936.728820066817 65.98606996691414 L 936.6436901678471 66.08677961749288 L 936.5563367429237 66.18709940525505 L 936.4667685273165 66.28701929830548 L 936.3749944777725 66.38652930473813 L 936.2810237716201 66.48561947363528 L 936.1848658058515 66.58427989606261 L 936.0865301961834 66.6825007060601 L 935.9860267760946 66.7802720816286 L 935.8833655958434 66.87758424571203 L 935.7785569214624 66.97442746717506 L 935.6716112337315 67.07079206177627 L 935.5625392271305 67.1666683931365 L 935.4513518087692 67.2620468737025 L 935.3380600972966 67.35691796570569 L 935.2226754217897 67.45127218211596 L 935.1052093206197 67.54510008759026 L 934.9856735402988 67.63839229941624 L 934.8640800343055 67.73113948845047 L 934.7404409618891 67.82333238005134 L 934.6147686868537 67.9149617550065 L 934.4870757763223 68.00601845045483 L 934.3573749994792 68.09649336080267 L 934.2256793262943 68.18637743863435 L 934.0920019262251 68.27566169561702 L 933.9563561669002 68.36433720339936 L 933.8187556127823 68.45239509450451 L 933.6792140238124 68.53982656321674 L 933.5377453540331 68.62662286646201 L 933.3943637501933 68.71277532468237 L 933.2490835503341 68.79827532270376 L 933.1019192823543 68.88311431059763 L 932.9528856625582 68.9672838045359 L 932.8019975941833 69.0507753876393 L 932.6492701659109 69.13358071081912 L 932.4947186503566 69.21569149361203 L 932.3383585025432 69.29709952500816 L 932.1802053583549 69.37779666427225 L 932.0202750329746 69.45777484175761 L 931.8585835193014 69.53702605971311 L 931.6951469863521 69.61554239308303 L 931.5299817776436 69.69331599029945 L 931.3631044095592 69.77033907406746 L 931.1945315696968 69.84660394214286 L 931.0242801151996 69.92210296810242 L 930.8523670710715 69.99682860210643 L 930.6788096284735 70.07077337165379 L 930.5036251430051 70.14392988232913 L 930.3268311329691 70.21629081854239 L 930.1484452776191 70.28784894426022 L 929.9684854153918 70.35859710372968 L 929.7869695421238 70.42852822219379 L 929.6039158092508 70.49763530659898 L 929.4193425219938 70.5659114462944 L 929.2332681375276 70.63334981372294 L 929.0457112631357 70.69994366510412 L 928.856690654349 70.76568634110825 L 928.6662252130711 70.83057126752253 L 928.4743339856873 70.89459195590838 L 928.2810361611605 70.95774200425032 L 928.086351069112 71.02001509759614 L 927.8902981778888 71.08140500868842 L 927.6928970926166 71.14190559858717 L 927.4941675532395 71.20151081728383 L 927.2941294325458 71.26021470430622 L 927.0928027341809 71.31801138931453 L 926.8902075906468 71.37489509268845 L 926.686364261289 71.43086012610503 L 926.4812931302707 71.48590089310757 L 926.275014704534 71.54001188966522 L 926.0675496117497 71.59318770472345 L 925.8589185982539 71.64542302074504 L 925.6491425269745 71.69671261424193 L 925.4382423753435 71.7470513562975 L 925.2262392332004 71.79643421307951 L 925.0131543006828 71.84485624634341 L 924.7990088861064 71.89231261392625 L 924.5838244038341 71.93879857023082 L 924.3676223721349 71.9843094667002 L 924.1504244110317 72.02884075228269 L 923.9322522401397 72.07238797388683 L 923.7131276764942 72.11494677682676 L 923.4930726323688 72.15651290525764 L 923.2721091130848 72.19708220260128 L 923.0502592148098 72.23665061196175 L 922.8275451223487 72.27521417653107 L 922.6039891069253 72.31276903998494 L 922.3796135239548 72.3493114468683 L 922.1544408108085 72.38483774297092 L 921.9284934845701 72.41934437569277 L 921.7017941397839 72.45282789439938 L 921.4743654461955 72.48528495076673 L 921.2462301464847 72.51671229911628 L 921.0174110539914 72.54710679673934 L 920.787931050434 72.5764654042115 L 920.557813083622 72.60478518569649 L 920.3270801651599 72.63206330923974 L 920.0957553681476 72.65829704705163 L 919.8638618248717 72.68348377578025 L 919.6314227244936 72.70762097677371 L 919.3984613107295 72.73070623633201 L 919.1650008795266 72.75273724594847 L 918.9310647767336 72.77371180254045 L 918.6966763957656 72.79362780866978 L 918.4618591752657 72.81248327275246 L 918.22663659676 72.83027630925778 L 917.9910321823104 72.84700513889692 L 917.7550694921621 72.86266808880085 L 917.5187721223874 72.87726359268764 L 917.2821637025264 72.89079019101906 L 917.0452678932238 72.90324653114655 L 916.8081083838633 72.91463136744649 L 916.5707088901981 72.9249435614447 L 916.3330931519797 72.93418208193043 L 916.0952849305841 72.94234600505929 L 915.857308006635 72.94943451444577 L 915.6191861776266 72.95544690124485 L 915.3809432555435 72.96038256422287 L 915.1426030644791 72.96424100981763 L 914.9041894382541 72.9670218521878 L 914.6657262180323 72.96872481325143 L 914.4272372499372 72.96934972271386 L 914.1887463826666 72.96889651808466 L 913.9502774651088 72.96736524468392 L 913.7118543439566 72.96475605563768 L 913.4735008613236 72.96106921186271 L 913.2352408523592 72.95630508204027 L 912.997098142866 72.9504641425794 L 912.7590965469163 72.94354697756918 L 912.5212598644715 72.93555427872033 L 912.2836118790016 72.9264868452961 L 912.046176355107 72.91634558403224 L 911.8089770361423 72.90513150904647 L 911.5720376418419 72.89284574173689 L 911.3353818659476 72.87948951067006 L 911.0990333738398 72.86506415145789 L 910.8630158001707 72.84957110662431 L 910.6273527465012 72.8330119254609 L 910.39206777894 72.81538826387197 L 910.157184425788 72.79670188420899 L 909.9227261751847 72.77695465509434 L 909.6887164727599 72.7561485512345 L 909.4551787192885 72.73428565322251 L 909.2221362683516 72.71136814732996 L 908.9896124239999 72.68739832528833 L 908.757630438424 72.66237858405984 L 908.5262135096294 72.63631142559778 L 908.2953847791159 72.60919945659627 L 908.0651673295644 72.58104538822961 L 907.8355841825278 72.55185203588118 L 907.6066582961295 72.5216223188619 L 907.3784125627675 72.49035926011825 L 907.1508698068249 72.45806598593009 L 906.9240527823875 72.4247457255979 L 906.6979841709691 72.39040181111994 L 906.4726865792421 72.35503767685907 L 906.248182536778 72.31865685919922 L 906.0244944937941 72.28126299619186 L 905.8016448189082 72.24285982719209 L 905.5796557969021 72.20345119248485 L 905.3585496264931 72.16304103290075 L 905.1383484181137 72.12163338942209 L 904.9190741917015 72.07923240277869 L 904.7007488744963 72.03584231303388 L 904.4833942988479 71.99146745916049 L 904.2670322000329 71.94611227860693 L 904.0516842140805 71.89978130685344 L 903.8373718756103 71.85247917695861 L 903.6241166156772 71.80421061909601 L 903.4119397596297 71.75498046008119 L 903.2008625249764 71.70479362288901 L 902.990906019265 71.65365512616141 L 902.7820912379711 71.60157008370541 L 902.5744390623988 71.54854370398188 L 902.3679702575927 71.49458128958457 L 902.162705470261 71.43968823671 L 901.9586652267116 71.38387003461766 L 901.7558699307986 71.32713226508127 L 901.5543398618828 71.26948060183051 L 901.3540951728031 71.21092080998365 L 901.1551558878615 71.15145874547107 L 900.9575419008207 71.0911003544497 L 900.7612729729149 71.0298516727083 L 900.566368730873 70.96771882506403 L 900.3728486649571 70.90470802474988 L 900.1807321270123 70.84082557279336 L 899.9900383285326 70.77607785738643 L 899.8007863387386 70.71047135324669 L 899.6129950826717 70.64401262096986 L 899.426683339301 70.5767083063738 L 899.2418697396456 70.50856513983389 L 899.0585727649116 70.43958993560999 L 898.8768107446433 70.36978959116503 L 898.6966018548918 70.29917108647531 L 898.5179641163955 70.22774148333244 L 898.3409153927796 70.1555079246372 L 898.1654733887688 70.08247763368529 L 897.9916556484173 70.00865791344492 L 897.8194795533544 69.9340561458266 L 897.648962321046 69.85867979094495 L 897.4801210030735 69.78253638637263 L 897.3129724834275 69.70563354638664 L 897.1475334768212 69.62797896120689 L 896.983820527017 69.54958039622719 L 896.8218500051737 69.47044569123871 L 896.6616381082084 69.39058275964601 L 896.5032008571773 69.30999958767568 L 896.3465540956735 69.22870423357777 L 896.1917134882426 69.14670482681996 L 896.0386945188163 69.06400956727457 L 895.887512489164 68.98062672439866 L 895.7381825173627 68.89656463640702 L 895.5907195362852 68.8118317094384 L 895.4451382921067 68.72643641671489 L 895.3014533428302 68.6403872976946 L 895.159679056831 68.55369295721772 L 895.0198296114196 68.46636206464606 L 894.8819189914238 68.37840335299609 L 894.7459609877908 68.28982561806569 L 894.6119691962077 68.20063771755453 L 894.479957015742 68.11084857017835 L 894.3499376475016 68.02046715477704 L 894.2219240933151 67.92950250941684 L 894.0959291544312 67.83796373048648 L 893.9719654302389 67.74585997178757 L 893.8500453170072 67.65320044361923 L 893.7301810066458 67.55999441185705 L 893.6123844854859 67.46625119702654 L 893.4966675330814 67.37198017337107 L 893.3830417210312 67.27719076791445 L 893.2715184118218 67.18189245951821 L 893.1621087576912 67.08609477793381 L 893.0548236995135 66.98980730284956 L 892.9496739657052 66.89303966293272 L 892.8466700711522 66.79580153486665 L 892.7458223161578 66.69810264238313 L 892.6471407854137 66.59995275528999 L 892.5506353469908 66.50136168849414 L 892.4563156513524 66.40233930102012 L 892.3641911303894 66.30289549502413 L 892.2742709964772 66.20304021480393 L 892.1865642415543 66.1027834458043 L 892.101079636223 66.00213521361863 L 892.0178257288727 65.90110558298623 L 891.9368108448247 65.799704656786 L 891.8580430854998 65.69794257502603 L 891.7815303276086 65.59582951382973 L 891.7072802223628 65.4933756844181 L 891.6353001947112 65.3905913320887 L 891.5655974425965 65.28748673519112 L 891.4981789362361 65.18407220409914 L 891.433051417424 65.08035808017966 L 891.3702213988581 64.97635473475869 L 891.309695163488 64.87207256808405 L 891.2514787638864 64.76752200828555 L 891.1955780216452 64.66271351033203 L 891.1419985267918 64.55765755498592 L 891.090745637231 64.45236464775525 L 891.0418244782092 64.34684531784296 L 890.9952399418013 64.24111011709415 L 890.9509966864224 64.13516961894075 L 890.909099136361 64.0290344173443 L 890.8695514813372 63.92271512573653 L 890.8323576760836 63.81622237595798 L 890.7975214399497 63.70956681719489 L 890.76504625653 63.602759114914264 L 890.734935373316 63.49580994979732 L 890.7071918013708 63.38873001667144 L 890.6818183150284 63.28153002344071 L 890.6588174516164 63.17422069001512 L 890.638191511202 63.066812747238586 L 890.6199425563618 62.959316935815885 L 890.6040724119764 62.85174400523857 L 890.5905826650469 62.74410471271006 L 890.5794746645366 62.636409822069915 L 890.5707495212366 62.52867010271744 L 890.5644081076537 62.4208963285348 L 890.5604510579241 62.313099276809595 L 890.5588787677493 62.20528972715717 L 890.5596913943573 62.09747846044265 L 890.5628888564859 61.98967625770286 L 890.5684708343915 61.88189389906824 L 890.5764367698812 61.77414216268484 L 890.5867858663679 61.66643182363649 L 890.5995170889507 61.558773652867366 L 890.6146291645179 61.4511784161048 L 890.6321205818745 61.34365687278283 L 890.6519895918932 61.236219774966166 L 890.6742342076899 61.12887786627507 L 890.6988522048214 61.02164188081096 L 890.7258411215083 60.91452254208302 L 890.7551982588817 60.807530561935856 L 890.7869206812522 60.70067663947832 L 890.8210052164042 60.593971460013606 L 890.8574484559122 60.487425693970756 L 890.8962467554829 60.381049995837586 L 890.9373962353186 60.27485500309525 L 890.9808927805057 60.16885133515453 L 891.0267320414257 60.06304959229389 L 891.0749094341909 59.95746035459945 L 891.1254201411022 59.852094180906974 L 891.1782591111307 59.746961607746044 L 891.2334210604239 59.64207314828636 L 891.2909004728325 59.537439291286454 L 891.3506916004633 59.43307050004484 L 891.4127884642531 59.32897721135367 L 891.4771848545677 59.22516983445505 L 891.5438743318215 59.12165875000019 L 891.6128502271223 59.01845430901127 L 891.6841056429381 58.91556683184637 L 891.7576334537868 58.81300660716748 L 891.8334263069484 58.7107838909116 L 891.9114766232008 58.60890890526517 L 891.9917765975775 58.507391837641855 L 892.0743182001479 58.406242839663825 L 892.1590931768206 58.30547202614659 L 892.2460930501686 58.205089474087515 L 892.335309120277 58.105105221658164 L 892.4267324656131 58.00552926720046 L 892.5203539439186 57.90637156822687 L 892.6161641931236 57.807642040424646 L 892.7141536322832 57.709350556664305 L 892.8143124625351 57.61150694601232 L 892.9166306680796 57.514120992748204 L 893.0210980171814 57.417202435386145 L 893.1277040631929 57.320760965701105 L 893.2364381455982 57.224806227759686 L 893.3472893910795 57.12934781695572 L 893.4602467146049 57.03439527905074 L 893.575298820536 56.93995810921942 L 893.6924342037581 56.84604575110002 L 893.8116411508305 56.75266759585011 L 893.9329077411579 56.65983298120741 L 894.0562218481823 56.567551190555996 L 894.1815711405958 56.47583145199805 L 894.3089430835735 56.384682937430995 L 894.4383249400273 56.29411476163032 L 894.5697037718794 56.20413598133814 L 894.703066441356 56.1147555943575 L 894.8383996123014 56.02598253865261 L 894.9756897515113 55.937825691455075 L 895.114923130086 55.85029386837614 L 895.2560858248039 55.763395822525176 L 895.399163719513 55.677140243634355 L 895.5441425065432 55.591535757189675 L 895.6910076881364 55.50659092356846 L 895.8397445778971 55.42231423718327 L 895.99033830226 55.33871412563253 L 896.1427738019785 55.25579894885771 L 896.2970358336293 55.1735769983074 L 896.4531089711379 55.092056496108135 L 896.6109776073207 55.01124559424221 L 896.7706259554457 54.93115237373246 L 896.9320380508108 54.851784843834196 L 897.0951977523413 54.77315094123426 L 897.2600887442028 54.6952585292574 L 897.4266945374337 54.61811539707989 L 897.5949984715935 54.54172925895067 L 897.7649837164288 54.46610775341989 L 897.936633273557 54.391258442575094 L 898.1099299781655 54.317188811284986 L 898.284856500728 54.24390626645098 L 898.4613953487382 54.171418136266475 L 898.6395288684582 54.09973166948409 L 898.8192392466848 54.028854034690774 L 899.0005085125297 53.95879231959093 L 899.1833185392173 53.88955353029769 L 899.3676510458976 53.82114459063227 L 899.5534875994733 53.753572341431656 L 899.7408096164439 53.68684353986444 L 899.9295983647638 53.62096485875517 L 900.1198349657157 53.55594288591707 L 900.3115003957978 53.49178412349323 L 900.5045754886269 53.42849498730643 L 900.6990409368545 53.366081806217544 L 900.8948772940981 53.304550821492676 L 901.0920649768849 53.24390818617902 L 901.2905842666112 53.18415996448957 L 901.4904153115132 53.12531213119671 L 901.691538128653 53.067370571034715 L 901.8939326059166 53.01034107811134 L 902.0975785040249 52.95422935532834 L 902.3024554585577 52.89904101381123 L 902.5085429819903 52.84478157234818 L 902.7158204657422 52.79145645683812 L 902.9242671822377 52.73907099974815 L 903.1338622869789 52.687630439580346 L 903.3445848206298 52.637139920347835 L 903.5564137111129 52.58760449106049 L 903.7693277757155 52.53902910521993 L 903.9833057232087 52.49141862032429 L 904.1983261559759 52.444777797382365 L 904.4143675721531 52.399111300437596 L 904.6314083677786 52.354423696101605 L 904.849426838954 52.3107194530976 L 905.0684011840135 52.26800294181345 L 905.2883095057052 52.2262784338647 L 905.5091298133805 52.18555010166736 L 905.7308400251922 52.14582201802072 L 905.953417970304 52.10709815570004 L 906.176841391107 52.06938238705927 L 906.4010879454452 52.032678483643856 L 906.6261352088501 51.996990115813546 L 906.8519606767828 51.96232085237539 L 907.0785417668849 51.928674160226834 L 907.305855821236 51.89605340400906 L 907.5338801086201 51.8644618457705 L 907.7625918267986 51.833902644640645 L 907.9919681047902 51.80437885651416 L 908.2219860051583 51.775893433745246 L 908.4526225263045 51.74844922485244 L 908.6838546047688 51.722048974233765 L 908.9156591175362 51.69669532189228 L 909.1480128843485 51.672390803172085 L 909.3808926700227 51.649137848504814 L 909.6142751867743 51.626938783166544 L 909.8481370965461 51.60579582704531 L 910.0824550133419 51.58571109441911 L 910.3172055055654 51.56668659374447 L 910.552365098363 51.54872422745561 L 910.7879102759714 51.53182579177417 L 911.023817484069 51.515992976529645 L 911.2600631321318 51.50122736499037 L 911.4966235957916 51.4875304337052 L 911.7334752191994 51.47490355235584 L 911.97059431739 51.4633479836199 L 912.2079571786514 51.45286488304463 L 912.4455400668952 51.443455298931354 L 912.6833192240305 51.43512017223063 L 912.9212708723398 51.4278603364482 L 913.1593712168566 51.42167651756158 L 913.3975964477447 51.41656933394751 L 913.6359227426798 51.41253929632009 L 913.8743262692308 51.40958680767973 L 914.1127831872436 51.407712163272826 L 914.3512696512255 51.40691555056227 L 914.5897618127285 51.40719704920866 L 914.8282358227353 51.40855663106237 L 915.0666678340438 51.41099416016634 L 915.3050340036513 51.414509392769695 L 915.5433104951395 51.419101977352106 L 915.781473481058 51.42477145465894 L 916.0194991453066 51.431517257747196 L 916.257363685517 51.43933871204218 L 916.4950433154337 51.44823503540498 L 916.7325142672918 51.45820533821068 L 916.9697527941937 51.4692486234373 L 917.2067351724846 51.48136378676553 L 917.4434377041242 51.49454961668913 L 917.6798367190565 51.50880479463608 L 917.9159085775772 51.524127895100484 L 918.1516296726968 51.54051738578506 L 918.3869764325025 51.5579716277544 L 918.6219253225144 51.57648887559884 L 918.8564528480391 51.59606727760904 L 919.0905355565199 51.6167048759611 L 919.3241500398806 51.6383996069124 L 919.5572729368677 51.66114930100791 L 919.7898809353858 51.684951683297186 L 920.0219507748288 51.70980437356183 L 920.2534592484063 51.735704886553535 L 920.4843832054638 51.76265063224257 L 920.714699553798 51.79063891607683 L 920.944385261966 51.81966693925126 L 921.1734173615883 51.849731798987726 L 921.401772949646 51.88083048882531 L 921.6294291907705 51.91295989892094 L 921.8563633195272 51.94611681636038 L 922.0825526426926 51.980297925479526 L 922.3079745415229 52.01549980819594 L 922.5326064740158 52.0517189443507 L 922.7564259771655 52.08895171206036 L 922.979410669208 52.127194388079175 L 923.20153825186 52.16644314817141 L 923.4227865125486 52.20669406749378 L 923.6431333266316 52.247943120987884 L 923.8625566596115 52.29018618378274 L 924.0810345693379 52.33341903160728 L 924.2985452082019 52.37763734121275 L 924.5150668253207 52.422836690805035 L 924.730577768713 52.46901256048684 L 924.9450564874643 52.516160332709674 L 925.1584815338813 52.564275292735616 L 925.3708315656372 52.613352629108746 L 925.582085347906 52.663387434136325 L 925.7922217554851 52.71437470437956 L 926.0012197749091 52.7663093411539 L 926.2090585065504 52.819186151038956 L 926.4157171667086 52.8729998463978 L 926.6211750896904 52.92774504590574 L 926.8254117298743 52.983416275088445 L 927.0284066637666 53.040007966869396 L 927.2301395920432 53.09751446212657 L 927.4305903415793 53.15593001025836 L 927.6297388674669 53.21524876975863 L 927.8275652550195 53.27546480880087 L 928.0240497217632 53.33657210583136 L 928.219172619415 53.3985645501713 L 928.4129144358477 53.461435942627936 L 928.6052557970411 53.52517999611441 L 928.7961774690195 53.58979033627848 L 928.9856603597747 53.655260502139996 L 929.1736855211756 53.721583946736914 L 929.3602341508627 53.78875403778004 L 929.5452875941284 53.85676405831625 L 929.7288273457826 53.92560720740017 L 929.9108350520033 53.995276600774254 L 930.0912925121714 54.065765271557225 L 930.2701816806913 54.13706617094075 L 930.447484668795 54.2091721688943 L 930.6231837463318 54.28207605487816 L 930.7972613435402 54.35577053856451 L 930.9697000528055 54.43024825056637 L 931.1404826304005 54.50550174317461 L 931.3095919982097 54.581523491102686 L 931.4770112454373 54.658305892239156 L 931.6427236302982 54.73584126840789 L 931.8067125816918 54.81412186613588 L 931.9689617008598 54.89313985742859 L 932.1294547630255 54.97288734055273 L 932.2881757190163 55.05335634082646 L 932.4451086968688 55.1345388114168 L 932.6002380034162 55.21642663414435 L 932.753548125857 55.29901162029506 L 932.9050237333067 55.38228551143916 L 933.0546496783309 55.46623998025691 L 933.2024109984596 55.55086663137139 L 933.3482929176841 55.63615700218803 L 933.492280847934 55.722102563740805 L 933.6343603905362 55.80869472154519 L 933.774517337655 55.89592481645755 L 933.9127376737122 55.98378412554111 L 934.0490075767896 56.07226386293816 L 934.1833134200103 56.1613551807487 L 934.3156417729022 56.251049169915184 L 934.4459794027398 56.34133686111345 L 934.5743132758691 56.4322092256496 L 934.7006305590098 56.52365717636293 L 934.8249186205385 56.615671568534566 L 934.9471650317529 56.70824320080196 L 935.0673575681136 56.80136281607904 L 935.1854842104673 56.89502110248188 L 935.301533146248 56.98920869425987 L 935.4154927706588 57.083916172732344 L 935.5273516878325 57.17913406723036 L 935.6370987119703 57.27485285604382 L 935.7447228684615 57.37106296737362 L 935.85021339498 57.467754780288786 L 935.953559742561 57.56491862568861 L 936.0547515766559 57.662544787269525 L 936.1537787781658 57.76062350249672 L 936.2506314444528 57.859144963580405 L 936.3452998903311 57.95809931845658 L 936.4377746490351 58.05747667177222 L 936.5280464731659 58.15726708587479 L 936.6161063356162 58.257460581806065 L 936.7019454304733 58.358047140299924 L 936.7855551738993 58.459016702784346 L 936.8669272049892 58.56035917238722 L 936.9460533866081 58.66206441494605 L 937.0229258062036 58.764122260021324 L 937.0975367765977 58.866522501913586 L 937.1698788367557 58.96925490068398 L 937.239944752532 59.072309183178234 L 937.307727517393 59.17567504405398 L 937.373220353119 59.279342146811274 L 937.4364167104809 59.38330012482622 L 937.4973102698956 59.48753858238766 L 937.555894942058 59.59204709573668 L 937.6121648685496 59.69681521410906 L 937.6661144224248 59.80183246078026 L 937.7177382087731 59.907088334113126 L 937.7670310652587 60.012572308608036 L 937.8139880626373 60.11827383595545 L 937.8586045052482 60.22418234609071 L 937.9008759314843 60.33028724825106 L 937.9407981142381 60.43657793203471 L 937.9783670613248 60.54304376846186 L 938.0135790158807 60.64967411103757 L 938.0464304567402 60.75645829681646 L 938.076918098786 60.86338564746893 L 938.1050388932797 60.97044547034902 L 938.130790028165 61.07762705956367 L 938.1541689283503 61.184919697043256 L 938.1751732559645 61.29231265361346 L 938.1938009105928 61.399795190068104 L 938.210050029485 61.50735655824312 L 938.223918987743 61.614986002091314 L 938.2354063984823 61.72267275875801 L 938.2445111129714 61.830406059657264 L 938.2512322207466 61.93817513154877 L 938.2555690497026 62.04596919761514 L 938.2575211661601 62.15377747853961 M 938.2576421562161 96.4920458931 L 938.2564496963124 96.59985643801662 L 938.2528724358464 96.70765620196859 L 938.2469107325411 96.81543440506935 L 938.2385651825617 96.9231802695884 L 938.2278366204565 97.03088302102908 L 938.2147261190727 97.138531889206 L 938.1992349894495 97.24611610932205 L 938.1813647806869 97.35362492304485 L 938.1611172797908 97.46104757958265 L 938.1384945114946 97.5683733367593 L 938.1134987380563 97.67559146208852 L 938.0861324590322 97.78269123384712 L 938.0563984110277 97.88966194214719 L 938.0242995674225 97.99649289000702 L 937.9898391380744 98.10317339442086 L 937.9530205689977 98.20969278742717 L 937.9138475420183 98.31604041717543 L 937.8723239744065 98.42220564899125 L 937.8284540184845 98.52817786643996 L 937.7822420612112 98.6339464723881 L 937.7336927237438 98.73950089006323 L 937.6828108609758 98.84483056411152 L 937.6296015610509 98.94992496165337 L 937.5740701448547 99.05477357333659 L 937.5162221654826 99.15936591438738 L 937.4560634076845 99.2636915256588 L 937.3935998872859 99.36773997467667 L 937.3288378505866 99.47150085668278 L 937.2617837737366 99.5749637956754 L 937.1924443620877 99.67811844544686 L 937.120826549523 99.78095449061813 L 937.0469374977644 99.8834616476704 L 936.9707845956553 99.98562966597338 L 936.8923754584225 100.08744832881038 L 936.8117179269144 100.18890745439998 L 936.728820066817 100.28999689691415 L 936.6436901678471 100.39070654749288 L 936.5563367429237 100.49102633525506 L 936.4667685273165 100.59094622830548 L 936.3749944777725 100.69045623473812 L 936.2810237716201 100.78954640363527 L 936.1848658058515 100.8882068260626 L 936.0865301961834 100.9864276360601 L 935.9860267760946 101.0841990116286 L 935.8833655958434 101.18151117571202 L 935.7785569214624 101.27835439717506 L 935.6716112337315 101.37471899177628 L 935.5625392271305 101.4705953231365 L 935.4513518087692 101.56597380370249 L 935.3380600972966 101.6608448957057 L 935.2226754217897 101.75519911211595 L 935.1052093206197 101.84902701759025 L 934.9856735402988 101.94231922941623 L 934.8640800343055 102.03506641845047 L 934.7404409618891 102.12725931005133 L 934.6147686868537 102.2188886850065 L 934.4870757763223 102.30994538045483 L 934.3573749994792 102.40042029080266 L 934.2256793262943 102.49030436863434 L 934.0920019262251 102.579588625617 L 933.9563561669002 102.66826413339936 L 933.8187556127823 102.75632202450451 L 933.6792140238124 102.84375349321674 L 933.5377453540331 102.93054979646202 L 933.3943637501933 103.01670225468237 L 933.2490835503341 103.10220225270375 L 933.1019192823543 103.18704124059762 L 932.9528856625582 103.27121073453588 L 932.8019975941833 103.3547023176393 L 932.6492701659109 103.4375076408191 L 932.4947186503566 103.51961842361202 L 932.3383585025432 103.60102645500817 L 932.1802053583549 103.68172359427226 L 932.0202750329746 103.7617017717576 L 931.8585835193014 103.84095298971312 L 931.6951469863521 103.91946932308304 L 931.5299817776436 103.99724292029944 L 931.3631044095592 104.07426600406745 L 931.1945315696968 104.15053087214287 L 931.0242801151996 104.22602989810241 L 930.8523670710715 104.30075553210642 L 930.6788096284735 104.37470030165377 L 930.5036251430051 104.44785681232914 L 930.3268311329691 104.52021774854238 L 930.1484452776191 104.59177587426021 L 929.9684854153918 104.66252403372968 L 929.7869695421238 104.73245515219378 L 929.6039158092508 104.80156223659897 L 929.4193425219938 104.86983837629438 L 929.2332681375276 104.93727674372295 L 929.0457112631357 105.0038705951041 L 928.856690654349 105.06961327110824 L 928.6662252130711 105.13449819752252 L 928.4743339856873 105.19851888590837 L 928.2810361611605 105.26166893425032 L 928.086351069112 105.32394202759615 L 927.8902981778888 105.38533193868841 L 927.6928970926166 105.44583252858716 L 927.4941675532395 105.50543774728384 L 927.2941294325458 105.56414163430621 L 927.0928027341809 105.62193831931454 L 926.8902075906468 105.67882202268845 L 926.686364261289 105.73478705610502 L 926.4812931302707 105.78982782310756 L 926.275014704534 105.84393881966523 L 926.0675496117497 105.89711463472344 L 925.8589185982539 105.94934995074503 L 925.6491425269745 106.00063954424192 L 925.4382423753435 106.0509782862975 L 925.2262392332004 106.1003611430795 L 925.0131543006828 106.14878317634341 L 924.7990088861064 106.19623954392625 L 924.5838244038341 106.2427255002308 L 924.3676223721349 106.2882363967002 L 924.1504244110317 106.33276768228268 L 923.9322522401397 106.37631490388682 L 923.7131276764942 106.41887370682676 L 923.4930726323688 106.46043983525765 L 923.2721091130848 106.50100913260128 L 923.0502592148098 106.54057754196174 L 922.8275451223487 106.57914110653107 L 922.6039891069253 106.61669596998493 L 922.3796135239548 106.65323837686829 L 922.1544408108085 106.6887646729709 L 921.9284934845701 106.72327130569276 L 921.7017941397839 106.75675482439937 L 921.4743654461955 106.78921188076673 L 921.2462301464847 106.82063922911627 L 921.0174110539914 106.85103372673933 L 920.787931050434 106.8803923342115 L 920.557813083622 106.90871211569649 L 920.3270801651599 106.93599023923973 L 920.0957553681476 106.96222397705162 L 919.8638618248717 106.98741070578025 L 919.6314227244936 107.0115479067737 L 919.3984613107295 107.03463316633201 L 919.1650008795266 107.05666417594847 L 918.9310647767336 107.07763873254045 L 918.6966763957656 107.09755473866979 L 918.4618591752657 107.11641020275246 L 918.22663659676 107.13420323925777 L 917.9910321823104 107.1509320688969 L 917.7550694921621 107.16659501880085 L 917.5187721223874 107.18119052268763 L 917.2821637025264 107.19471712101905 L 917.0452678932238 107.20717346114655 L 916.8081083838633 107.21855829744648 L 916.5707088901981 107.22887049144471 L 916.3330931519797 107.23810901193042 L 916.0952849305841 107.24627293505928 L 915.857308006635 107.25336144444577 L 915.6191861776266 107.25937383124486 L 915.3809432555435 107.26430949422287 L 915.1426030644791 107.26816793981763 L 914.9041894382541 107.27094878218779 L 914.6657262180323 107.27265174325143 L 914.4272372499372 107.27327665271386 L 914.1887463826666 107.27282344808465 L 913.9502774651088 107.27129217468391 L 913.7118543439566 107.26868298563768 L 913.4735008613236 107.2649961418627 L 913.2352408523592 107.26023201204026 L 912.997098142866 107.2543910725794 L 912.7590965469163 107.24747390756917 L 912.5212598644715 107.23948120872033 L 912.2836118790016 107.23041377529609 L 912.046176355107 107.22027251403225 L 911.8089770361423 107.20905843904646 L 911.5720376418419 107.1967726717369 L 911.3353818659476 107.18341644067004 L 911.0990333738398 107.16899108145788 L 910.8630158001707 107.15349803662431 L 910.6273527465012 107.1369388554609 L 910.39206777894 107.11931519387196 L 910.157184425788 107.10062881420897 L 909.9227261751847 107.08088158509435 L 909.6887164727599 107.0600754812345 L 909.4551787192885 107.03821258322252 L 909.2221362683516 107.01529507732995 L 908.9896124239999 106.99132525528832 L 908.757630438424 106.96630551405984 L 908.5262135096294 106.94023835559778 L 908.2953847791159 106.91312638659626 L 908.0651673295644 106.88497231822961 L 907.8355841825278 106.85577896588119 L 907.6066582961295 106.8255492488619 L 907.3784125627675 106.79428619011826 L 907.1508698068249 106.76199291593008 L 906.9240527823875 106.72867265559789 L 906.6979841709691 106.69432874111995 L 906.4726865792421 106.65896460685907 L 906.248182536778 106.62258378919921 L 906.0244944937941 106.58518992619184 L 905.8016448189082 106.5467867571921 L 905.5796557969021 106.50737812248485 L 905.3585496264931 106.46696796290075 L 905.1383484181137 106.42556031942208 L 904.9190741917015 106.38315933277867 L 904.7007488744963 106.33976924303387 L 904.4833942988479 106.29539438916049 L 904.2670322000329 106.25003920860692 L 904.0516842140805 106.20370823685344 L 903.8373718756103 106.15640610695861 L 903.6241166156772 106.108137549096 L 903.4119397596297 106.05890739008117 L 903.2008625249764 106.00872055288902 L 902.990906019265 105.9575820561614 L 902.7820912379711 105.90549701370541 L 902.5744390623988 105.85247063398188 L 902.3679702575927 105.79850821958458 L 902.162705470261 105.74361516670999 L 901.9586652267116 105.68779696461766 L 901.7558699307986 105.63105919508126 L 901.5543398618828 105.5734075318305 L 901.3540951728031 105.51484773998365 L 901.1551558878615 105.45538567547108 L 900.9575419008207 105.3950272844497 L 900.7612729729149 105.33377860270829 L 900.566368730873 105.27164575506403 L 900.3728486649571 105.20863495474987 L 900.1807321270123 105.14475250279335 L 899.9900383285326 105.08000478738643 L 899.8007863387386 105.01439828324668 L 899.6129950826717 104.94793955096986 L 899.426683339301 104.8806352363738 L 899.2418697396456 104.8124920698339 L 899.0585727649116 104.74351686560999 L 898.8768107446433 104.67371652116503 L 898.6966018548918 104.6030980164753 L 898.5179641163955 104.53166841333243 L 898.3409153927796 104.4594348546372 L 898.1654733887688 104.38640456368528 L 897.9916556484173 104.31258484344491 L 897.8194795533544 104.2379830758266 L 897.648962321046 104.16260672094495 L 897.4801210030735 104.08646331637262 L 897.3129724834275 104.00956047638662 L 897.1475334768212 103.93190589120688 L 896.983820527017 103.85350732622719 L 896.8218500051737 103.77437262123871 L 896.6616381082084 103.694509689646 L 896.5032008571773 103.61392651767568 L 896.3465540956735 103.53263116357778 L 896.1917134882426 103.45063175681996 L 896.0386945188163 103.36793649727457 L 895.887512489164 103.28455365439865 L 895.7381825173627 103.20049156640701 L 895.5907195362852 103.1157586394384 L 895.4451382921067 103.03036334671489 L 895.3014533428302 102.94431422769459 L 895.159679056831 102.85761988721772 L 895.0198296114196 102.77028899464605 L 894.8819189914238 102.68233028299609 L 894.7459609877908 102.5937525480657 L 894.6119691962077 102.50456464755453 L 894.479957015742 102.41477550017834 L 894.3499376475016 102.32439408477703 L 894.2219240933151 102.23342943941684 L 894.0959291544312 102.14189066048647 L 893.9719654302389 102.04978690178756 L 893.8500453170072 101.95712737361922 L 893.7301810066458 101.86392134185704 L 893.6123844854859 101.77017812702654 L 893.4966675330814 101.67590710337106 L 893.3830417210312 101.58111769791444 L 893.2715184118218 101.48581938951821 L 893.1621087576912 101.39002170793381 L 893.0548236995135 101.29373423284954 L 892.9496739657052 101.19696659293271 L 892.8466700711522 101.09972846486664 L 892.7458223161578 101.00202957238312 L 892.6471407854137 100.90387968528998 L 892.5506353469908 100.80528861849413 L 892.4563156513524 100.70626623102011 L 892.3641911303894 100.60682242502413 L 892.2742709964772 100.50696714480392 L 892.1865642415543 100.40671037580431 L 892.101079636223 100.30606214361863 L 892.0178257288727 100.20503251298624 L 891.9368108448247 100.103631586786 L 891.8580430854998 100.00186950502604 L 891.7815303276086 99.89975644382972 L 891.7072802223628 99.79730261441809 L 891.6353001947112 99.69451826208869 L 891.5655974425965 99.59141366519111 L 891.4981789362361 99.48799913409913 L 891.433051417424 99.38428501017967 L 891.3702213988581 99.28028166475868 L 891.309695163488 99.17599949808405 L 891.2514787638864 99.07144893828554 L 891.1955780216452 98.96664044033201 L 891.1419985267918 98.86158448498593 L 891.090745637231 98.75629157775525 L 891.0418244782092 98.65077224784297 L 890.9952399418013 98.54503704709414 L 890.9509966864224 98.43909654894075 L 890.909099136361 98.33296134734431 L 890.8695514813372 98.22664205573652 L 890.8323576760836 98.12014930595798 L 890.7975214399497 98.01349374719489 L 890.76504625653 97.90668604491427 L 890.734935373316 97.79973687979731 L 890.7071918013708 97.69265694667143 L 890.6818183150284 97.58545695344071 L 890.6588174516164 97.47814762001512 L 890.638191511202 97.37073967723859 L 890.6199425563618 97.26324386581588 L 890.6040724119764 97.15567093523856 L 890.5905826650469 97.04803164271006 L 890.5794746645366 96.94033675206991 L 890.5707495212366 96.83259703271744 L 890.5644081076537 96.7248232585348 L 890.5604510579241 96.6170262068096 L 890.5588787677493 96.50921665715717" stroke-miterlimit="10" stroke-width="2.7769845610000004" stroke-dasharray=""/></g><g><text fill="black" stroke="none" font-family="sans-serif" font-size="11pt" font-style="normal" font-weight="normal" text-decoration="normal" x="883.0303003919271" y="124.80095321200001" text-anchor="start" dominant-baseline="alphabetic" xml:space="preserve">Database</text></g></g><g><path fill="white" stroke="black" paint-order="fill stroke markers" d=" M 365.57278693938804 183.607685092 L 381.907990239388 183.607685092 L 381.907990239388 1131.049476492 L 365.57278693938804 1131.049476492 L 365.57278693938804 183.607685092" stroke-miterlimit="10" stroke-width="1.3612669416666667" stroke-dasharray=""/><path fill="white" stroke="black" paint-order="fill stroke markers" d=" M 373.74038858938803 387.79772634200003 L 390.075591889388 387.79772634200003 L 390.075591889388 433.536295582 L 373.74038858938803 433.536295582 L 373.74038858938803 387.79772634200003" stroke-miterlimit="10" stroke-width="1.3612669416666667" stroke-dasharray=""/><path fill="white" stroke="black" paint-order="fill stroke markers" d=" M 599.0404766740885 660.5956214519999 L 615.3756799740886 660.5956214519999 L 615.3756799740886 1085.3109072519999 L 599.0404766740885 1085.3109072519999 L 599.0404766740885 660.5956214519999" stroke-miterlimit="10" stroke-width="1.3612669416666667" stroke-dasharray=""/><path fill="white" stroke="black" paint-order="fill stroke markers" d=" M 761.6062050175781 902.356630292 L 777.9414083175782 902.356630292 L 777.9414083175782 1039.5723380119998 L 761.6062050175781 1039.5723380119998 L 761.6062050175781 902.356630292" stroke-miterlimit="10" stroke-width="1.3612669416666667" stroke-dasharray=""/><path fill="white" stroke="black" paint-order="fill stroke markers" d=" M 906.2406436882161 948.0951995319999 L 922.5758469882162 948.0951995319999 L 922.5758469882162 993.8337687719999 L 906.2406436882161 993.8337687719999 L 906.2406436882161 948.0951995319999" stroke-miterlimit="10" stroke-width="1.3612669416666667" stroke-dasharray=""/><g><g><rect fill="white" stroke="none" x="149.45612697928388" y="162.371920802" width="140.16894783082031" height="21.23576429"/></g><text fill="black" stroke="none" font-family="sans-serif" font-size="11pt" font-style="normal" font-weight="normal" text-decoration="normal" x="151.90640747428387" y="177.07360377199998" text-anchor="start" dominant-baseline="alphabetic" xml:space="preserve">Go to Entity list page</text></g><g><path fill="none" stroke="black" paint-order="fill stroke markers" d=" M 73.50841485 183.607685092 L 352.1234695557214 183.607685092" stroke-miterlimit="10" stroke-width="1.3612669416666667" stroke-dasharray=""/><g transform="translate(365.57278693938804,183.607685092) translate(-365.57278693938804,-183.607685092)"><path fill="black" stroke="none" paint-order="stroke fill markers" d=" M 351.96011752272136 176.80135038366666 L 365.57278693938804 183.607685092 L 351.96011752272136 190.41401980033334 Z"/></g></g><g><g><rect fill="white" stroke="none" x="134.38813381522138" y="208.110490042" width="170.30493415894531" height="21.23576429"/></g><text fill="black" stroke="none" font-family="sans-serif" font-size="11pt" font-style="normal" font-weight="normal" text-decoration="normal" x="136.83841431022137" y="222.812173012" text-anchor="start" dominant-baseline="alphabetic" xml:space="preserve">Click Create Entity button</text></g><g><path fill="none" stroke="black" paint-order="fill stroke markers" d=" M 73.50841485 229.346254332 L 352.1234695557214 229.346254332" stroke-miterlimit="10" stroke-width="1.3612669416666667" stroke-dasharray=""/><g transform="translate(365.57278693938804,229.346254332) translate(-365.57278693938804,-229.346254332)"><path fill="black" stroke="none" paint-order="stroke fill markers" d=" M 351.96011752272136 222.53991962366666 L 365.57278693938804 229.346254332 L 351.96011752272136 236.15258904033334 Z"/></g></g><g><g><rect fill="white" stroke="none" x="126.23137264578777" y="253.849059282" width="186.6184564978125" height="21.23576429"/></g><text fill="black" stroke="none" font-family="sans-serif" font-size="11pt" font-style="normal" font-weight="normal" text-decoration="normal" x="128.68165314078777" y="268.550742252" text-anchor="start" dominant-baseline="alphabetic" xml:space="preserve">Display Create Entity popup</text></g><g><path fill="none" stroke="black" paint-order="fill stroke markers" d=" M 365.57278693938804 275.084823572 L 86.95773223366666 275.084823572" stroke-miterlimit="10" stroke-width="1.3612669416666667" stroke-dasharray="6.53408132"/><g transform="translate(73.50841485,275.084823572) translate(-73.50841485,-275.084823572)"><path fill="black" stroke="none" paint-order="stroke fill markers" d=" M 87.12108426666666 268.27848886366667 L 73.50841485 275.084823572 L 87.12108426666666 281.89115828033334 Z"/></g></g><g><g><rect fill="white" stroke="none" x="134.38455562918622" y="299.587628522" width="170.31209053101563" height="21.23576429"/></g><text fill="black" stroke="none" font-family="sans-serif" font-size="11pt" font-style="normal" font-weight="normal" text-decoration="normal" x="136.8348361241862" y="314.28931149199997" text-anchor="start" dominant-baseline="alphabetic" xml:space="preserve">Type information of Entity</text></g><g><path fill="none" stroke="black" paint-order="fill stroke markers" d=" M 73.50841485 320.823392812 L 352.1234695557214 320.823392812" stroke-miterlimit="10" stroke-width="1.3612669416666667" stroke-dasharray=""/><g transform="translate(365.57278693938804,320.823392812) translate(-365.57278693938804,-320.823392812)"><path fill="black" stroke="none" paint-order="stroke fill markers" d=" M 351.96011752272136 314.01705810366667 L 365.57278693938804 320.823392812 L 351.96011752272136 327.62972752033335 Z"/></g></g><g><g><rect fill="white" stroke="none" x="409.4055824610547" y="345.32619776200005" width="125.25842536988281" height="21.23576429"/></g><text fill="black" stroke="none" font-family="sans-serif" font-size="11pt" font-style="normal" font-weight="normal" text-decoration="normal" x="411.8558629560547" y="360.027880732" text-anchor="start" dominant-baseline="alphabetic" xml:space="preserve">Validate input data</text></g><g><path fill="none" stroke="black" paint-order="fill stroke markers" d=" M 381.907990239388 366.561962052 L 455.41640508938804 366.561962052 L 455.41640508938804 387.79772634200003 L 403.5249092730547 387.79772634200003" stroke-miterlimit="10" stroke-width="1.3612669416666667" stroke-dasharray=""/><g transform="translate(390.075591889388,387.79772634200003) translate(-390.075591889388,-387.79772634200003)"><path fill="black" stroke="none" paint-order="stroke fill markers" d=" M 403.6882613060547 380.9913916336667 L 390.075591889388 387.79772634200003 L 403.6882613060547 394.60406105033337 Z"/></g></g><g><g><rect fill="white" stroke="none" x="409.4055824610547" y="412.300531292" width="95.90982307496094" height="21.23576429"/></g><text fill="black" stroke="none" font-family="sans-serif" font-size="11pt" font-style="normal" font-weight="normal" text-decoration="normal" x="411.8558629560547" y="427.002214262" text-anchor="start" dominant-baseline="alphabetic" xml:space="preserve">Validate value</text></g><g><path fill="none" stroke="black" paint-order="fill stroke markers" d=" M 390.075591889388 433.536295582 L 455.41640508938804 433.536295582 L 455.41640508938804 454.772059872 L 395.3573076230547 454.772059872" stroke-miterlimit="10" stroke-width="1.3612669416666667" stroke-dasharray="6.53408132"/><g transform="translate(381.907990239388,454.772059872) translate(-381.907990239388,-454.772059872)"><path fill="black" stroke="none" paint-order="stroke fill markers" d=" M 395.5206596560547 447.96572516366666 L 381.907990239388 454.772059872 L 395.5206596560547 461.57839458033334 Z"/></g></g><g><g><rect fill="white" stroke="none" x="159.36664944022138" y="523.379913732" width="120.34790290894531" height="21.23576429"/></g><text fill="black" stroke="none" font-family="sans-serif" font-size="11pt" font-style="normal" font-weight="normal" text-decoration="normal" x="161.81692993522137" y="538.081596702" text-anchor="start" dominant-baseline="alphabetic" xml:space="preserve">Validate Message</text></g><g><path fill="none" stroke="black" paint-order="fill stroke markers" d=" M 365.57278693938804 544.615678022 L 86.95773223366666 544.615678022" stroke-miterlimit="10" stroke-width="1.3612669416666667" stroke-dasharray="6.53408132"/><g transform="translate(73.50841485,544.615678022) translate(-73.50841485,-544.615678022)"><path fill="black" stroke="none" paint-order="stroke fill markers" d=" M 87.12108426666666 537.8093433136667 L 73.50841485 544.615678022 L 87.12108426666666 551.4220127303333 Z"/></g></g><g><g><rect fill="white" stroke="none" x="160.05025844901044" y="593.621287922" width="118.98068489136719" height="21.23576429"/></g><text fill="black" stroke="none" font-family="sans-serif" font-size="11pt" font-style="normal" font-weight="normal" text-decoration="normal" x="162.50053894401043" y="608.322970892" text-anchor="start" dominant-baseline="alphabetic" xml:space="preserve">Click button Save</text></g><g><path fill="none" stroke="black" paint-order="fill stroke markers" d=" M 73.50841485 614.857052212 L 352.1234695557214 614.857052212" stroke-miterlimit="10" stroke-width="1.3612669416666667" stroke-dasharray=""/><g transform="translate(365.57278693938804,614.857052212) translate(-365.57278693938804,-614.857052212)"><path fill="black" stroke="none" paint-order="stroke fill markers" d=" M 351.96011752272136 608.0507175036666 L 365.57278693938804 614.857052212 L 351.96011752272136 621.6633869203333 Z"/></g></g><g><g><rect fill="white" stroke="none" x="428.53577089386715" y="639.3598571619999" width="123.87692512574219" height="21.23576429"/></g><text fill="black" stroke="none" font-family="sans-serif" font-size="11pt" font-style="normal" font-weight="normal" text-decoration="normal" x="430.98605138886717" y="654.0615401319999" text-anchor="start" dominant-baseline="alphabetic" xml:space="preserve">POST: /api/{entity}</text></g><g><path fill="none" stroke="black" paint-order="fill stroke markers" d=" M 381.907990239388 660.5956214519999 L 585.5911592904218 660.5956214519999" stroke-miterlimit="10" stroke-width="1.3612669416666667" stroke-dasharray=""/><g transform="translate(599.0404766740885,660.5956214519999) translate(-599.0404766740885,-660.5956214519999)"><path fill="black" stroke="none" paint-order="stroke fill markers" d=" M 585.4278072574218 653.7892867436666 L 599.0404766740885 660.5956214519999 L 585.4278072574218 667.4019561603333 Z"/></g></g><g><g><rect fill="white" stroke="none" x="405.32178163605465" y="729.203475312" width="149.11673225464844" height="21.23576429"/></g><g><rect fill="white" stroke="none" x="405.32178163605465" y="745.538678612" width="170.3049036413672" height="21.23576429"/></g><text fill="red" stroke="none" font-family="sans-serif" font-size="11pt" font-style="normal" font-weight="normal" text-decoration="normal" x="407.77206213105467" y="743.905158282" text-anchor="start" dominant-baseline="alphabetic" xml:space="preserve">400 BAD_REQUEST: </text><text fill="red" stroke="none" font-family="sans-serif" font-size="11pt" font-style="normal" font-weight="normal" text-decoration="normal" x="407.77206213105467" y="760.240361582" text-anchor="start" dominant-baseline="alphabetic" xml:space="preserve">Missing required property</text></g><g><path fill="none" stroke="black" paint-order="fill stroke markers" d=" M 599.0404766740885 766.774442902 L 395.3573076230547 766.774442902" stroke-miterlimit="10" stroke-width="1.3612669416666667" stroke-dasharray="6.53408132"/><g transform="translate(381.907990239388,766.774442902) translate(-381.907990239388,-766.774442902)"><path fill="black" stroke="none" paint-order="stroke fill markers" d=" M 395.5206596560547 759.9681081936667 L 381.907990239388 766.774442902 L 395.5206596560547 773.5807776103334 Z"/></g></g><g><g><rect fill="white" stroke="none" x="151.08820705740888" y="791.277247852" width="136.90478767457031" height="21.23576429"/></g><text fill="black" stroke="none" font-family="sans-serif" font-size="11pt" font-style="normal" font-weight="normal" text-decoration="normal" x="153.53848755240887" y="805.9789308219999" text-anchor="start" dominant-baseline="alphabetic" xml:space="preserve">Message is required</text></g><g><path fill="none" stroke="black" paint-order="fill stroke markers" d=" M 365.57278693938804 812.513012142 L 86.95773223366666 812.513012142" stroke-miterlimit="10" stroke-width="1.3612669416666667" stroke-dasharray="6.53408132"/><g transform="translate(73.50841485,812.513012142) translate(-73.50841485,-812.513012142)"><path fill="black" stroke="none" paint-order="stroke fill markers" d=" M 87.12108426666666 805.7066774336666 L 73.50841485 812.513012142 L 87.12108426666666 819.3193468503333 Z"/></g></g><g><g><rect fill="white" stroke="none" x="665.6756107313021" y="881.120866002" width="45.6306635290625" height="21.23576429"/></g><text fill="black" stroke="none" font-family="sans-serif" font-size="11pt" font-style="normal" font-weight="normal" text-decoration="normal" x="668.1258912263021" y="895.8225489719999" text-anchor="start" dominant-baseline="alphabetic" xml:space="preserve">save()</text></g><g><path fill="none" stroke="black" paint-order="fill stroke markers" d=" M 615.3756799740886 902.356630292 L 748.1568876339114 902.356630292" stroke-miterlimit="10" stroke-width="1.3612669416666667" stroke-dasharray=""/><g transform="translate(761.6062050175781,902.356630292) translate(-761.6062050175781,-902.356630292)"><path fill="black" stroke="none" paint-order="stroke fill markers" d=" M 747.9935356009114 895.5502955836666 L 761.6062050175781 902.356630292 L 747.9935356009114 909.1629650003333 Z"/></g></g><g><g><rect fill="white" stroke="none" x="797.2713988892448" y="926.8594352419999" width="89.63925422730469" height="21.23576429"/></g><text fill="black" stroke="none" font-family="sans-serif" font-size="11pt" font-style="normal" font-weight="normal" text-decoration="normal" x="799.7216793842448" y="941.5611182119999" text-anchor="start" dominant-baseline="alphabetic" xml:space="preserve">Create Entity</text></g><g><path fill="none" stroke="black" paint-order="fill stroke markers" d=" M 777.9414083175782 948.0951995319999 L 892.7913263045494 948.0951995319999" stroke-miterlimit="10" stroke-width="1.3612669416666667" stroke-dasharray=""/><g transform="translate(906.2406436882161,948.0951995319999) translate(-906.2406436882161,-948.0951995319999)"><path fill="black" stroke="none" paint-order="stroke fill markers" d=" M 892.6279742715494 941.2888648236666 L 906.2406436882161 948.0951995319999 L 892.6279742715494 954.9015342403333 Z"/></g></g><g><g><rect fill="white" stroke="none" x="805.0058272950065" y="972.5980044819999" width="74.17039741578125" height="21.23576429"/></g><text fill="black" stroke="none" font-family="sans-serif" font-size="11pt" font-style="normal" font-weight="normal" text-decoration="normal" x="807.4561077900065" y="987.2996874519998" text-anchor="start" dominant-baseline="alphabetic" xml:space="preserve">Entity data</text></g><g><path fill="none" stroke="black" paint-order="fill stroke markers" d=" M 906.2406436882161 993.8337687719999 L 791.3907257012448 993.8337687719999" stroke-miterlimit="10" stroke-width="1.3612669416666667" stroke-dasharray="6.53408132"/><g transform="translate(777.9414083175782,993.8337687719999) translate(-777.9414083175782,-993.8337687719999)"><path fill="black" stroke="none" paint-order="stroke fill markers" d=" M 791.5540777342449 987.0274340636665 L 777.9414083175782 993.8337687719999 L 791.5540777342449 1000.6401034803332 Z"/></g></g><g><g><rect fill="white" stroke="none" x="634.7056705457552" y="1018.3365737219998" width="107.57054390015625" height="21.23576429"/></g><text fill="black" stroke="none" font-family="sans-serif" font-size="11pt" font-style="normal" font-weight="normal" text-decoration="normal" x="637.1559510407552" y="1033.0382566919998" text-anchor="start" dominant-baseline="alphabetic" xml:space="preserve">New Entity data</text></g><g><path fill="none" stroke="black" paint-order="fill stroke markers" d=" M 761.6062050175781 1039.5723380119998 L 628.8249973577553 1039.5723380119998" stroke-miterlimit="10" stroke-width="1.3612669416666667" stroke-dasharray="6.53408132"/><g transform="translate(615.3756799740886,1039.5723380119998) translate(-615.3756799740886,-1039.5723380119998)"><path fill="black" stroke="none" paint-order="stroke fill markers" d=" M 628.9883493907553 1032.7660033036666 L 615.3756799740886 1039.5723380119998 L 628.9883493907553 1046.378672720333 Z"/></g></g><g><g><rect fill="white" stroke="none" x="424.6130719192578" y="1064.075142962" width="131.72232307496094" height="21.23576429"/></g><text fill="green" stroke="none" font-family="sans-serif" font-size="11pt" font-style="normal" font-weight="normal" text-decoration="normal" x="427.0633524142578" y="1078.776825932" text-anchor="start" dominant-baseline="alphabetic" xml:space="preserve">201 OK: CREATED</text></g><g><path fill="none" stroke="black" paint-order="fill stroke markers" d=" M 599.0404766740885 1085.3109072519999 L 395.3573076230547 1085.3109072519999" stroke-miterlimit="10" stroke-width="1.3612669416666667" stroke-dasharray="6.53408132"/><g transform="translate(381.907990239388,1085.3109072519999) translate(-381.907990239388,-1085.3109072519999)"><path fill="black" stroke="none" paint-order="stroke fill markers" d=" M 395.5206596560547 1078.5045725436667 L 381.907990239388 1085.3109072519999 L 395.5206596560547 1092.117241960333 Z"/></g></g><g><g><rect fill="white" stroke="none" x="92.83840542166668" y="1109.813712202" width="253.4043909460547" height="21.23576429"/></g><text fill="black" stroke="none" font-family="sans-serif" font-size="11pt" font-style="normal" font-weight="normal" text-decoration="normal" x="95.28868591666668" y="1124.5153951720001" text-anchor="start" dominant-baseline="alphabetic" xml:space="preserve">Display Entity list table with new Entity</text></g><g><path fill="none" stroke="black" paint-order="fill stroke markers" d=" M 365.57278693938804 1131.049476492 L 86.95773223366666 1131.049476492" stroke-miterlimit="10" stroke-width="1.3612669416666667" stroke-dasharray="6.53408132"/><g transform="translate(73.50841485,1131.049476492) translate(-73.50841485,-1131.049476492)"><path fill="black" stroke="none" paint-order="stroke fill markers" d=" M 87.12108426666666 1124.2431417836667 L 73.50841485 1131.049476492 L 87.12108426666666 1137.8558112003332 Z"/></g></g><g><g/><path fill="none" stroke="black" paint-order="fill stroke markers" d=" M 16.335203299999996 479.274864822 L 430.91360013938805 479.274864822 L 430.91360013938805 569.118482972 L 16.335203299999996 569.118482972 L 16.335203299999996 479.274864822 Z" stroke-miterlimit="10" stroke-width="2.3336004714285714" stroke-dasharray=""/><path fill="white" stroke="black" paint-order="fill stroke markers" d=" M 16.335203299999996 479.274864822 L 16.335203299999996 498.877108782 L 62.69440689707031 498.877108782 L 72.49552887707031 489.075986802 L 72.49552887707031 479.274864822 L 16.335203299999996 479.274864822" stroke-miterlimit="10" stroke-width="2.3336004714285714" stroke-dasharray=""/><text fill="black" stroke="none" font-family="sans-serif" font-size="8.8pt" font-style="normal" font-weight="bold" text-decoration="normal" x="32.67040659999999" y="492.343027462" text-anchor="start" dominant-baseline="alphabetic" xml:space="preserve">alt</text><g><rect fill="white" stroke="none" x="86.38045168207032" y="480.581681086" width="151.5138880163672" height="16.988611432000003"/></g><text fill="black" stroke="none" font-family="sans-serif" font-size="8.8pt" font-style="normal" font-weight="bold" text-decoration="normal" x="88.83073217707032" y="492.343027462" text-anchor="start" dominant-baseline="alphabetic" xml:space="preserve">[If the input data is wrong]</text></g><g><g/><path fill="none" stroke="black" paint-order="fill stroke markers" d=" M 16.335203299999996 685.098426402 L 971.5814568882162 685.098426402 L 971.5814568882162 1155.5522814419999 L 16.335203299999996 1155.5522814419999 L 16.335203299999996 685.098426402 Z" stroke-miterlimit="10" stroke-width="2.3336004714285714" stroke-dasharray=""/><path fill="white" stroke="black" paint-order="fill stroke markers" d=" M 16.335203299999996 685.098426402 L 16.335203299999996 704.700670362 L 62.69440689707031 704.700670362 L 72.49552887707031 694.8995483819999 L 72.49552887707031 685.098426402 L 16.335203299999996 685.098426402" stroke-miterlimit="10" stroke-width="2.3336004714285714" stroke-dasharray=""/><text fill="black" stroke="none" font-family="sans-serif" font-size="8.8pt" font-style="normal" font-weight="bold" text-decoration="normal" x="32.67040659999999" y="698.1665890419999" text-anchor="start" dominant-baseline="alphabetic" xml:space="preserve">alt</text><g><rect fill="white" stroke="none" x="86.38045168207032" y="686.4052426659999" width="244.7581049353125" height="16.988611432000003"/></g><text fill="black" stroke="none" font-family="sans-serif" font-size="8.8pt" font-style="normal" font-weight="bold" text-decoration="normal" x="88.83073217707032" y="698.1665890419999" text-anchor="start" dominant-baseline="alphabetic" xml:space="preserve">[If there is required field do not have value]</text><g><path fill="none" stroke="black" paint-order="fill stroke markers" d=" M 16.335203299999996 837.015817092 L 971.5814568882162 837.015817092" stroke-miterlimit="10" stroke-width="2.3336004714285714" stroke-dasharray="4.083800825"/></g><g/></g><g/></g></g></svg>