<svg version="1.1" xmlns="http://www.w3.org/2000/svg" xmlns:xlink="http://www.w3.org/1999/xlink" width="871" height="827"><desc>title%20Get%20Entity%20Detail%0A%0A%0Aactor%20%23green%3A0.5%20%22User%22%20as%20w%0Aboundary%20%22Client%22%20as%20f%0Acontrol%20%22Entity%20Controller%22%20as%20gc%0Aparticipant%20%22Entity%20Service%22%20as%20gs%0Adatabase%20%23blue%3A1%20%22Database%22%20as%20db%0A%0Aw-%3Ef%3AGo%20to%20Entity%20list%20page%0Aactivate%20f%0Aw-%3Ef%3AClick%20on%20Name%20of%20Entity%0Af-%3Egc%3AGET%3A%20%2Fapi%2F%7Bentity%7D%2F%7Bid%7D%0Aactivate%20gc%0Agc-%3Egs%3Aget(id)%0Aactivate%20gs%0Ags-%3Edb%3AfindById(id)%0Aactivate%20db%0Ags%3C--db%3AEntity%20data%0Adeactivate%20db%0Agc%3C--gs%3AEntity%20data%0Adeactivate%20gs%0Aalt%20If%20no%20Entity%20matches%20id%0Af%3C--gc%3A%3Ccolor%3A%23red%3E404%20NOT%20FOUND%3C%2Fcolor%3E%0A%0Aw%3C--f%3ADisplay%20404%20Not%20Found%20screen%0Aelse%20Else%0Af%3C--gc%3A%3Ccolor%3A%23green%3E200%20OK%5CnResponse%20body%3A%20Entity%20data%20%3C%2Fcolor%3E%0Adeactivate%20gc%0A%0Aw%3C--f%3A%20Display%20Entity%20detail%0Adeactivate%20f%0Aend</desc><defs/><g><g/><g/><g/><g/><g/><g/><g/><g/><g/><g/><g/><g/><g/><g/><g/><g/><g/><g><rect fill="white" stroke="none" x="0" y="0" width="871" height="827"/></g><g><text fill="black" stroke="none" font-family="sans-serif" font-size="16.5pt" font-style="normal" font-weight="normal" text-decoration="normal" x="356.31842771710546" y="24.50280495" text-anchor="start" dominant-baseline="alphabetic" xml:space="preserve">Get Entity Detail</text></g><g/><g><path fill="none" stroke="black" paint-order="fill stroke markers" d=" M 73.50841485 129.701514202 L 73.50841485 827.2146951120001" stroke-miterlimit="10" stroke-width="1.3612669416666667" stroke-dasharray="12.565541,5.445067766666667"/><path fill="none" stroke="black" paint-order="fill stroke markers" d=" M 322.4376389555989 129.701514202 L 322.4376389555989 827.2146951120001" stroke-miterlimit="10" stroke-width="1.3612669416666667" stroke-dasharray="12.565541,5.445067766666667"/><path fill="none" stroke="black" paint-order="fill stroke markers" d=" M 565.6976727190104 129.701514202 L 565.6976727190104 827.2146951120001" stroke-miterlimit="10" stroke-width="1.3612669416666667" stroke-dasharray="12.565541,5.445067766666667"/><path fill="none" stroke="black" paint-order="fill stroke markers" d=" M 696.7107036795885 129.701514202 L 696.7107036795885 827.2146951120001" stroke-miterlimit="10" stroke-width="1.3612669416666667" stroke-dasharray="12.565541,5.445067766666667"/><path fill="none" stroke="black" paint-order="fill stroke markers" d=" M 830.7509956217109 129.701514202 L 830.7509956217109 827.2146951120001" stroke-miterlimit="10" stroke-width="1.3612669416666667" stroke-dasharray="12.565541,5.445067766666667"/></g><g><g><path fill="white" stroke="green" paint-order="fill stroke markers" d=" M 82.819480731 60.60360424300001 A 9.311065881 9.311065881 0 1 1 82.81947607546743 60.594293178670846 M 73.50841485 69.91467012400001 L 73.50841485 89.84361815000001 M 61.747068473999995 77.102159576 L 85.26976122599999 77.102159576 M 73.50841485 89.84361815000001 L 61.747068473999995 108.465749912 M 73.50841485 89.84361815000001 L 85.26976122599999 108.465749912" stroke-miterlimit="10" stroke-width="1.3884922805000002" stroke-dasharray=""/></g><g><text fill="black" stroke="none" font-family="sans-serif" font-size="11pt" font-style="normal" font-weight="normal" text-decoration="normal" x="58.032401666406244" y="124.80095321200001" text-anchor="start" dominant-baseline="alphabetic" xml:space="preserve">User</text></g><g><path fill="white" stroke="black" paint-order="fill stroke markers" d=" M 354.8630175060989 82.819480731 A 24.2577769005 24.2577769005 0 1 1 354.8630053772115 82.79522295814245 M 291.4007526855989 57.17321154999999 L 291.4007526855989 108.465749912 M 290.0122604050989 82.819480731 L 306.3474637050989 82.819480731" stroke-miterlimit="10" stroke-width="2.7769845610000004" stroke-dasharray=""/></g><g><text fill="black" stroke="none" font-family="sans-serif" font-size="11pt" font-style="normal" font-weight="normal" text-decoration="normal" x="303.69748850393876" y="124.80095321200001" text-anchor="start" dominant-baseline="alphabetic" xml:space="preserve">Client</text></g><g><path fill="white" stroke="black" paint-order="fill stroke markers" d=" M 589.9554496195103 82.819480731 A 24.2577769005 24.2577769005 0 1 1 589.9554374906229 82.79522295814245 M 562.4306320590103 58.561703830499994 L 572.2317540390103 50.39410218049999 M 562.4306320590103 58.561703830499994 L 572.2317540390103 66.72930548049999" stroke-miterlimit="10" stroke-width="2.7769845610000004" stroke-dasharray=""/></g><g><text fill="black" stroke="none" font-family="sans-serif" font-size="11pt" font-style="normal" font-weight="normal" text-decoration="normal" x="513.5538204851237" y="124.80095321200001" text-anchor="start" dominant-baseline="alphabetic" xml:space="preserve">Entity Controller</text></g><path fill="none" stroke="none"/><g><path fill="white" stroke="black" paint-order="fill stroke markers" d=" M 634.1767282528971 85.75981732500001 L 759.2446791062799 85.75981732500001 L 759.2446791062799 129.701514202 L 634.1767282528971 129.701514202 L 634.1767282528971 85.75981732500001 Z" stroke-miterlimit="10" stroke-width="2.613632528" stroke-dasharray=""/></g><g><text fill="black" stroke="none" font-family="sans-serif" font-size="11pt" font-style="normal" font-weight="normal" text-decoration="normal" x="651.9004238333971" y="113.36631090200002" text-anchor="start" dominant-baseline="alphabetic" xml:space="preserve">Entity Service</text></g><g><path fill="white" stroke="blue" paint-order="fill stroke markers" d=" M 806.901598803711 97.684515734 L 806.901598803711 63.380588804000006 L 854.6003924397108 63.380588804000006 L 854.6003924397108 97.684515734" stroke-miterlimit="10" stroke-width="2.7769845610000004" stroke-dasharray=""/><path fill="white" stroke="blue" paint-order="fill stroke markers" d=" M 854.6003924397108 62.1881189631 L 854.5991999798072 62.29592950801663 L 854.5956227193411 62.403729271968594 L 854.5896610160358 62.51150747506936 L 854.5813154660565 62.619253339588404 L 854.5705869039513 62.72695609102909 L 854.5574764025674 62.834604959206004 L 854.5419852729442 62.94218917932205 L 854.5241150641816 63.04969799304486 L 854.5038675632856 63.15712064958265 L 854.4812447949894 63.2644464067593 L 854.456249021551 63.371664532088516 L 854.428882742527 63.47876430384712 L 854.3991486945224 63.58573501214718 L 854.3670498509173 63.692565960007016 L 854.3325894215692 63.79924646442086 L 854.2957708524924 63.90576585742718 L 854.256597825513 64.01211348717543 L 854.2150742579013 64.11827871899126 L 854.1712043019793 64.22425093643996 L 854.1249923447059 64.3300195423881 L 854.0764430072386 64.43557396006322 L 854.0255611444705 64.54090363411153 L 853.9723518445456 64.64599803165338 L 853.9168204283494 64.75084664333659 L 853.8589724489774 64.85543898438739 L 853.7988136911792 64.95976459565881 L 853.7363501707806 65.06381304467668 L 853.6715881340814 65.16757392668278 L 853.6045340572314 65.27103686567541 L 853.5351946455825 65.37419151544687 L 853.4635768330178 65.47702756061814 L 853.3896877812591 65.5795347176704 L 853.3135348791501 65.68170273597339 L 853.2351257419173 65.7835213988104 L 853.1544682104092 65.88498052439998 L 853.0715703503117 65.98606996691414 L 852.9864404513419 66.08677961749288 L 852.8990870264184 66.18709940525505 L 852.8095188108113 66.28701929830548 L 852.7177447612672 66.38652930473813 L 852.6237740551148 66.48561947363528 L 852.5276160893462 66.58427989606261 L 852.4292804796781 66.6825007060601 L 852.3287770595894 66.7802720816286 L 852.2261158793382 66.87758424571203 L 852.1213072049571 66.97442746717506 L 852.0143615172262 67.07079206177627 L 851.9052895106253 67.1666683931365 L 851.794102092264 67.2620468737025 L 851.6808103807914 67.35691796570569 L 851.5654257052845 67.45127218211596 L 851.4479596041144 67.54510008759026 L 851.3284238237935 67.63839229941624 L 851.2068303178003 67.73113948845047 L 851.0831912453839 67.82333238005134 L 850.9575189703485 67.9149617550065 L 850.829826059817 68.00601845045483 L 850.700125282974 68.09649336080267 L 850.5684296097891 68.18637743863435 L 850.4347522097198 68.27566169561702 L 850.2991064503949 68.36433720339936 L 850.161505896277 68.45239509450451 L 850.0219643073071 68.53982656321674 L 849.8804956375278 68.62662286646201 L 849.737114033688 68.71277532468237 L 849.5918338338289 68.79827532270376 L 849.444669565849 68.88311431059763 L 849.2956359460529 68.9672838045359 L 849.144747877678 69.0507753876393 L 848.9920204494057 69.13358071081912 L 848.8374689338514 69.21569149361203 L 848.681108786038 69.29709952500816 L 848.5229556418496 69.37779666427225 L 848.3630253164694 69.45777484175761 L 848.2013338027962 69.53702605971311 L 848.0378972698469 69.61554239308303 L 847.8727320611383 69.69331599029945 L 847.705854693054 69.77033907406746 L 847.5372818531915 69.84660394214286 L 847.3670303986944 69.92210296810242 L 847.1951173545663 69.99682860210643 L 847.0215599119682 70.07077337165379 L 846.8463754264999 70.14392988232913 L 846.6695814164639 70.21629081854239 L 846.4911955611138 70.28784894426022 L 846.3112356988865 70.35859710372968 L 846.1297198256185 70.42852822219379 L 845.9466660927455 70.49763530659898 L 845.7620928054886 70.5659114462944 L 845.5760184210224 70.63334981372294 L 845.3884615466304 70.69994366510412 L 845.1994409378437 70.76568634110825 L 845.0089754965659 70.83057126752253 L 844.817084269182 70.89459195590838 L 844.6237864446553 70.95774200425032 L 844.4291013526067 71.02001509759614 L 844.2330484613835 71.08140500868842 L 844.0356473761113 71.14190559858717 L 843.8369178367343 71.20151081728383 L 843.6368797160405 71.26021470430622 L 843.4355530176756 71.31801138931453 L 843.2329578741416 71.37489509268845 L 843.0291145447837 71.43086012610503 L 842.8240434137655 71.48590089310757 L 842.6177649880287 71.54001188966522 L 842.4102998952444 71.59318770472345 L 842.2016688817487 71.64542302074504 L 841.9918928104693 71.69671261424193 L 841.7809926588383 71.7470513562975 L 841.5689895166952 71.79643421307951 L 841.3559045841776 71.84485624634341 L 841.1417591696012 71.89231261392625 L 840.9265746873289 71.93879857023082 L 840.7103726556296 71.9843094667002 L 840.4931746945265 72.02884075228269 L 840.2750025236345 72.07238797388683 L 840.055877959989 72.11494677682676 L 839.8358229158636 72.15651290525764 L 839.6148593965795 72.19708220260128 L 839.3930094983045 72.23665061196175 L 839.1702954058435 72.27521417653107 L 838.94673939042 72.31276903998494 L 838.7223638074496 72.3493114468683 L 838.4971910943033 72.38483774297092 L 838.2712437680649 72.41934437569277 L 838.0445444232787 72.45282789439938 L 837.8171157296903 72.48528495076673 L 837.5889804299794 72.51671229911628 L 837.3601613374861 72.54710679673934 L 837.1306813339288 72.5764654042115 L 836.9005633671168 72.60478518569649 L 836.6698304486547 72.63206330923974 L 836.4385056516423 72.65829704705163 L 836.2066121083665 72.68348377578025 L 835.9741730079884 72.70762097677371 L 835.7412115942243 72.73070623633201 L 835.5077511630213 72.75273724594847 L 835.2738150602283 72.77371180254045 L 835.0394266792604 72.79362780866978 L 834.8046094587604 72.81248327275246 L 834.5693868802548 72.83027630925778 L 834.3337824658051 72.84700513889692 L 834.0978197756568 72.86266808880085 L 833.8615224058822 72.87726359268764 L 833.6249139860212 72.89079019101906 L 833.3880181767186 72.90324653114655 L 833.1508586673581 72.91463136744649 L 832.9134591736929 72.9249435614447 L 832.6758434354745 72.93418208193043 L 832.4380352140788 72.94234600505929 L 832.2000582901297 72.94943451444577 L 831.9619364611214 72.95544690124485 L 831.7236935390382 72.96038256422287 L 831.4853533479738 72.96424100981763 L 831.2469397217488 72.9670218521878 L 831.0084765015271 72.96872481325143 L 830.769987533432 72.96934972271386 L 830.5314966661614 72.96889651808466 L 830.2930277486035 72.96736524468392 L 830.0546046274513 72.96475605563768 L 829.8162511448184 72.96106921186271 L 829.577991135854 72.95630508204027 L 829.3398484263607 72.9504641425794 L 829.1018468304111 72.94354697756918 L 828.8640101479663 72.93555427872033 L 828.6263621624963 72.9264868452961 L 828.3889266386018 72.91634558403224 L 828.1517273196371 72.90513150904647 L 827.9147879253367 72.89284574173689 L 827.6781321494424 72.87948951067006 L 827.4417836573346 72.86506415145789 L 827.2057660836655 72.84957110662431 L 826.9701030299959 72.8330119254609 L 826.7348180624348 72.81538826387197 L 826.4999347092828 72.79670188420899 L 826.2654764586795 72.77695465509434 L 826.0314667562546 72.7561485512345 L 825.7979290027832 72.73428565322251 L 825.5648865518464 72.71136814732996 L 825.3323627074947 72.68739832528833 L 825.1003807219188 72.66237858405984 L 824.8689637931242 72.63631142559778 L 824.6381350626107 72.60919945659627 L 824.4079176130591 72.58104538822961 L 824.1783344660225 72.55185203588118 L 823.9494085796242 72.5216223188619 L 823.7211628462622 72.49035926011825 L 823.4936200903196 72.45806598593009 L 823.2668030658823 72.4247457255979 L 823.0407344544639 72.39040181111994 L 822.8154368627369 72.35503767685907 L 822.5909328202728 72.31865685919922 L 822.3672447772889 72.28126299619186 L 822.144395102403 72.24285982719209 L 821.9224060803969 72.20345119248485 L 821.7012999099878 72.16304103290075 L 821.4810987016084 72.12163338942209 L 821.2618244751962 72.07923240277869 L 821.043499157991 72.03584231303388 L 820.8261445823426 71.99146745916049 L 820.6097824835276 71.94611227860693 L 820.3944344975753 71.89978130685344 L 820.180122159105 71.85247917695861 L 819.9668668991719 71.80421061909601 L 819.7546900431245 71.75498046008119 L 819.5436128084712 71.70479362288901 L 819.3336563027598 71.65365512616141 L 819.1248415214659 71.60157008370541 L 818.9171893458936 71.54854370398188 L 818.7107205410874 71.49458128958457 L 818.5054557537558 71.43968823671 L 818.3014155102063 71.38387003461766 L 818.0986202142933 71.32713226508127 L 817.8970901453775 71.26948060183051 L 817.6968454562979 71.21092080998365 L 817.4979061713562 71.15145874547107 L 817.3002921843155 71.0911003544497 L 817.1040232564096 71.0298516727083 L 816.9091190143678 70.96771882506403 L 816.7155989484519 70.90470802474988 L 816.5234824105071 70.84082557279336 L 816.3327886120273 70.77607785738643 L 816.1435366222333 70.71047135324669 L 815.9557453661664 70.64401262096986 L 815.7694336227958 70.5767083063738 L 815.5846200231404 70.50856513983389 L 815.4013230484063 70.43958993560999 L 815.2195610281381 70.36978959116503 L 815.0393521383866 70.29917108647531 L 814.8607143998903 70.22774148333244 L 814.6836656762744 70.1555079246372 L 814.5082236722635 70.08247763368529 L 814.3344059319121 70.00865791344492 L 814.1622298368492 69.9340561458266 L 813.9917126045408 69.85867979094495 L 813.8228712865682 69.78253638637263 L 813.6557227669223 69.70563354638664 L 813.490283760316 69.62797896120689 L 813.3265708105117 69.54958039622719 L 813.1646002886685 69.47044569123871 L 813.0043883917032 69.39058275964601 L 812.845951140672 69.30999958767568 L 812.6893043791682 69.22870423357777 L 812.5344637717374 69.14670482681996 L 812.3814448023111 69.06400956727457 L 812.2302627726588 68.98062672439866 L 812.0809328008575 68.89656463640702 L 811.9334698197799 68.8118317094384 L 811.7878885756014 68.72643641671489 L 811.644203626325 68.6403872976946 L 811.5024293403258 68.55369295721772 L 811.3625798949143 68.46636206464606 L 811.2246692749186 68.37840335299609 L 811.0887112712855 68.28982561806569 L 810.9547194797025 68.20063771755453 L 810.8227072992368 68.11084857017835 L 810.6926879309964 68.02046715477704 L 810.5646743768099 67.92950250941684 L 810.438679437926 67.83796373048648 L 810.3147157137337 67.74585997178757 L 810.192795600502 67.65320044361923 L 810.0729312901406 67.55999441185705 L 809.9551347689807 67.46625119702654 L 809.8394178165762 67.37198017337107 L 809.7257920045259 67.27719076791445 L 809.6142686953166 67.18189245951821 L 809.5048590411859 67.08609477793381 L 809.3975739830082 66.98980730284956 L 809.2924242491999 66.89303966293272 L 809.1894203546469 66.79580153486665 L 809.0885725996526 66.69810264238313 L 808.9898910689085 66.59995275528999 L 808.8933856304856 66.50136168849414 L 808.7990659348471 66.40233930102012 L 808.7069414138841 66.30289549502413 L 808.6170212799719 66.20304021480393 L 808.529314525049 66.1027834458043 L 808.4438299197177 66.00213521361863 L 808.3605760123675 65.90110558298623 L 808.2795611283194 65.799704656786 L 808.2007933689946 65.69794257502603 L 808.1242806111034 65.59582951382973 L 808.0500305058575 65.4933756844181 L 807.978050478206 65.3905913320887 L 807.9083477260913 65.28748673519112 L 807.8409292197308 65.18407220409914 L 807.7758017009188 65.08035808017966 L 807.7129716823529 64.97635473475869 L 807.6524454469827 64.87207256808405 L 807.5942290473812 64.76752200828555 L 807.53832830514 64.66271351033203 L 807.4847488102865 64.55765755498592 L 807.4334959207257 64.45236464775525 L 807.3845747617039 64.34684531784296 L 807.337990225296 64.24111011709415 L 807.2937469699172 64.13516961894075 L 807.2518494198557 64.0290344173443 L 807.212301764832 63.92271512573653 L 807.1751079595783 63.81622237595798 L 807.1402717234445 63.70956681719489 L 807.1077965400248 63.602759114914264 L 807.0776856568108 63.49580994979732 L 807.0499420848655 63.38873001667144 L 807.0245685985232 63.28153002344071 L 807.0015677351112 63.17422069001512 L 806.9809417946967 63.066812747238586 L 806.9626928398566 62.959316935815885 L 806.9468226954712 62.85174400523857 L 806.9333329485416 62.74410471271006 L 806.9222249480314 62.636409822069915 L 806.9134998047314 62.52867010271744 L 806.9071583911484 62.4208963285348 L 806.9032013414188 62.313099276809595 L 806.9016290512441 62.20528972715717 L 806.902441677852 62.09747846044265 L 806.9056391399806 61.98967625770286 L 806.9112211178863 61.88189389906824 L 806.9191870533759 61.77414216268484 L 806.9295361498627 61.66643182363649 L 806.9422673724455 61.558773652867366 L 806.9573794480126 61.4511784161048 L 806.9748708653692 61.34365687278283 L 806.994739875388 61.236219774966166 L 807.0169844911846 61.12887786627507 L 807.0416024883161 61.02164188081096 L 807.0685914050031 60.91452254208302 L 807.0979485423765 60.807530561935856 L 807.129670964747 60.70067663947832 L 807.1637554998989 60.593971460013606 L 807.2001987394069 60.487425693970756 L 807.2389970389777 60.381049995837586 L 807.2801465188134 60.27485500309525 L 807.3236430640004 60.16885133515453 L 807.3694823249205 60.06304959229389 L 807.4176597176856 59.95746035459945 L 807.4681704245969 59.852094180906974 L 807.5210093946255 59.746961607746044 L 807.5761713439186 59.64207314828636 L 807.6336507563273 59.537439291286454 L 807.693441883958 59.43307050004484 L 807.7555387477479 59.32897721135367 L 807.8199351380624 59.22516983445505 L 807.8866246153162 59.12165875000019 L 807.955600510617 59.01845430901127 L 808.0268559264329 58.91556683184637 L 808.1003837372815 58.81300660716748 L 808.1761765904431 58.7107838909116 L 808.2542269066955 58.60890890526517 L 808.3345268810723 58.507391837641855 L 808.4170684836427 58.406242839663825 L 808.5018434603154 58.30547202614659 L 808.5888433336634 58.205089474087515 L 808.6780594037717 58.105105221658164 L 808.7694827491079 58.00552926720046 L 808.8631042274134 57.90637156822687 L 808.9589144766184 57.807642040424646 L 809.056903915778 57.709350556664305 L 809.1570627460299 57.61150694601232 L 809.2593809515744 57.514120992748204 L 809.3638483006762 57.417202435386145 L 809.4704543466877 57.320760965701105 L 809.5791884290929 57.224806227759686 L 809.6900396745742 57.12934781695572 L 809.8029969980996 57.03439527905074 L 809.9180491040307 56.93995810921942 L 810.0351844872529 56.84604575110002 L 810.1543914343252 56.75266759585011 L 810.2756580246527 56.65983298120741 L 810.398972131677 56.567551190555996 L 810.5243214240905 56.47583145199805 L 810.6516933670682 56.384682937430995 L 810.7810752235221 56.29411476163032 L 810.9124540553742 56.20413598133814 L 811.0458167248507 56.1147555943575 L 811.1811498957961 56.02598253865261 L 811.318440035006 55.937825691455075 L 811.4576734135808 55.85029386837614 L 811.5988361082987 55.763395822525176 L 811.7419140030078 55.677140243634355 L 811.8868927900379 55.591535757189675 L 812.0337579716312 55.50659092356846 L 812.1824948613919 55.42231423718327 L 812.3330885857548 55.33871412563253 L 812.4855240854732 55.25579894885771 L 812.639786117124 55.1735769983074 L 812.7958592546327 55.092056496108135 L 812.9537278908155 55.01124559424221 L 813.1133762389404 54.93115237373246 L 813.2747883343055 54.851784843834196 L 813.437948035836 54.77315094123426 L 813.6028390276975 54.6952585292574 L 813.7694448209285 54.61811539707989 L 813.9377487550883 54.54172925895067 L 814.1077339999235 54.46610775341989 L 814.2793835570518 54.391258442575094 L 814.4526802616602 54.317188811284986 L 814.6276067842227 54.24390626645098 L 814.8041456322329 54.171418136266475 L 814.982279151953 54.09973166948409 L 815.1619895301795 54.028854034690774 L 815.3432587960244 53.95879231959093 L 815.5260688227121 53.88955353029769 L 815.7104013293923 53.82114459063227 L 815.8962378829681 53.753572341431656 L 816.0835598999387 53.68684353986444 L 816.2723486482586 53.62096485875517 L 816.4625852492104 53.55594288591707 L 816.6542506792925 53.49178412349323 L 816.8473257721216 53.42849498730643 L 817.0417912203493 53.366081806217544 L 817.2376275775929 53.304550821492676 L 817.4348152603797 53.24390818617902 L 817.6333345501059 53.18415996448957 L 817.8331655950079 53.12531213119671 L 818.0342884121477 53.067370571034715 L 818.2366828894113 53.01034107811134 L 818.4403287875197 52.95422935532834 L 818.6452057420524 52.89904101381123 L 818.8512932654851 52.84478157234818 L 819.058570749237 52.79145645683812 L 819.2670174657325 52.73907099974815 L 819.4766125704737 52.687630439580346 L 819.6873351041246 52.637139920347835 L 819.8991639946076 52.58760449106049 L 820.1120780592103 52.53902910521993 L 820.3260560067034 52.49141862032429 L 820.5410764394707 52.444777797382365 L 820.7571178556478 52.399111300437596 L 820.9741586512733 52.354423696101605 L 821.1921771224487 52.3107194530976 L 821.4111514675083 52.26800294181345 L 821.6310597892 52.2262784338647 L 821.8518800968752 52.18555010166736 L 822.0735903086869 52.14582201802072 L 822.2961682537988 52.10709815570004 L 822.5195916746018 52.06938238705927 L 822.7438382289399 52.032678483643856 L 822.9688854923448 51.996990115813546 L 823.1947109602776 51.96232085237539 L 823.4212920503796 51.928674160226834 L 823.6486061047308 51.89605340400906 L 823.8766303921149 51.8644618457705 L 824.1053421102933 51.833902644640645 L 824.334718388285 51.80437885651416 L 824.5647362886531 51.775893433745246 L 824.7953728097992 51.74844922485244 L 825.0266048882636 51.722048974233765 L 825.2584094010309 51.69669532189228 L 825.4907631678433 51.672390803172085 L 825.7236429535175 51.649137848504814 L 825.9570254702691 51.626938783166544 L 826.1908873800409 51.60579582704531 L 826.4252052968367 51.58571109441911 L 826.6599557890602 51.56668659374447 L 826.8951153818577 51.54872422745561 L 827.1306605594662 51.53182579177417 L 827.3665677675638 51.515992976529645 L 827.6028134156265 51.50122736499037 L 827.8393738792863 51.4875304337052 L 828.0762255026941 51.47490355235584 L 828.3133446008848 51.4633479836199 L 828.5507074621462 51.45286488304463 L 828.78829035039 51.443455298931354 L 829.0260695075252 51.43512017223063 L 829.2640211558346 51.4278603364482 L 829.5021215003513 51.42167651756158 L 829.7403467312395 51.41656933394751 L 829.9786730261745 51.41253929632009 L 830.2170765527255 51.40958680767973 L 830.4555334707384 51.407712163272826 L 830.6940199347202 51.40691555056227 L 830.9325120962233 51.40719704920866 L 831.1709861062301 51.40855663106237 L 831.4094181175385 51.41099416016634 L 831.647784287146 51.414509392769695 L 831.8860607786343 51.419101977352106 L 832.1242237645528 51.42477145465894 L 832.3622494288013 51.431517257747196 L 832.6001139690118 51.43933871204218 L 832.8377935989284 51.44823503540498 L 833.0752645507865 51.45820533821068 L 833.3125030776885 51.4692486234373 L 833.5494854559794 51.48136378676553 L 833.786187987619 51.49454961668913 L 834.0225870025513 51.50880479463608 L 834.2586588610719 51.524127895100484 L 834.4943799561916 51.54051738578506 L 834.7297267159972 51.5579716277544 L 834.9646756060091 51.57648887559884 L 835.1992031315339 51.59606727760904 L 835.4332858400146 51.6167048759611 L 835.6669003233753 51.6383996069124 L 835.9000232203624 51.66114930100791 L 836.1326312188805 51.684951683297186 L 836.3647010583236 51.70980437356183 L 836.5962095319011 51.735704886553535 L 836.8271334889586 51.76265063224257 L 837.0574498372928 51.79063891607683 L 837.2871355454607 51.81966693925126 L 837.5161676450831 51.849731798987726 L 837.7445232331407 51.88083048882531 L 837.9721794742652 51.91295989892094 L 838.1991136030219 51.94611681636038 L 838.4253029261873 51.980297925479526 L 838.6507248250176 52.01549980819594 L 838.8753567575105 52.0517189443507 L 839.0991762606602 52.08895171206036 L 839.3221609527028 52.127194388079175 L 839.5442885353548 52.16644314817141 L 839.7655367960433 52.20669406749378 L 839.9858836101264 52.247943120987884 L 840.2053069431063 52.29018618378274 L 840.4237848528327 52.33341903160728 L 840.6412954916966 52.37763734121275 L 840.8578171088154 52.422836690805035 L 841.0733280522078 52.46901256048684 L 841.287806770959 52.516160332709674 L 841.501231817376 52.564275292735616 L 841.713581849132 52.613352629108746 L 841.9248356314007 52.663387434136325 L 842.1349720389799 52.71437470437956 L 842.3439700584039 52.7663093411539 L 842.5518087900451 52.819186151038956 L 842.7584674502034 52.8729998463978 L 842.9639253731851 52.92774504590574 L 843.168162013369 52.983416275088445 L 843.3711569472614 53.040007966869396 L 843.572889875538 53.09751446212657 L 843.7733406250741 53.15593001025836 L 843.9724891509617 53.21524876975863 L 844.1703155385143 53.27546480880087 L 844.3668000052579 53.33657210583136 L 844.5619229029097 53.3985645501713 L 844.7556647193425 53.461435942627936 L 844.9480060805358 53.52517999611441 L 845.1389277525143 53.58979033627848 L 845.3284106432694 53.655260502139996 L 845.5164358046703 53.721583946736914 L 845.7029844343574 53.78875403778004 L 845.8880378776231 53.85676405831625 L 846.0715776292774 53.92560720740017 L 846.2535853354981 53.995276600774254 L 846.4340427956662 54.065765271557225 L 846.612931964186 54.13706617094075 L 846.7902349522898 54.2091721688943 L 846.9659340298266 54.28207605487816 L 847.1400116270349 54.35577053856451 L 847.3124503363002 54.43024825056637 L 847.4832329138952 54.50550174317461 L 847.6523422817045 54.581523491102686 L 847.8197615289321 54.658305892239156 L 847.9854739137929 54.73584126840789 L 848.1494628651866 54.81412186613588 L 848.3117119843546 54.89313985742859 L 848.4722050465202 54.97288734055273 L 848.630926002511 55.05335634082646 L 848.7878589803636 55.1345388114168 L 848.9429882869109 55.21642663414435 L 849.0962984093518 55.29901162029506 L 849.2477740168015 55.38228551143916 L 849.3973999618256 55.46623998025691 L 849.5451612819544 55.55086663137139 L 849.6910432011789 55.63615700218803 L 849.8350311314288 55.722102563740805 L 849.977110674031 55.80869472154519 L 850.1172676211497 55.89592481645755 L 850.2554879572069 55.98378412554111 L 850.3917578602843 56.07226386293816 L 850.5260637035051 56.1613551807487 L 850.6583920563969 56.251049169915184 L 850.7887296862345 56.34133686111345 L 850.9170635593639 56.4322092256496 L 851.0433808425046 56.52365717636293 L 851.1676689040332 56.615671568534566 L 851.2899153152476 56.70824320080196 L 851.4101078516084 56.80136281607904 L 851.528234493962 56.89502110248188 L 851.6442834297427 56.98920869425987 L 851.7582430541536 57.083916172732344 L 851.8701019713272 57.17913406723036 L 851.9798489954651 57.27485285604382 L 852.0874731519563 57.37106296737362 L 852.1929636784747 57.467754780288786 L 852.2963100260557 57.56491862568861 L 852.3975018601507 57.662544787269525 L 852.4965290616606 57.76062350249672 L 852.5933817279475 57.859144963580405 L 852.6880501738259 57.95809931845658 L 852.7805249325298 58.05747667177222 L 852.8707967566606 58.15726708587479 L 852.958856619111 58.257460581806065 L 853.044695713968 58.358047140299924 L 853.128305457394 58.459016702784346 L 853.209677488484 58.56035917238722 L 853.2888036701029 58.66206441494605 L 853.3656760896984 58.764122260021324 L 853.4402870600925 58.866522501913586 L 853.5126291202505 58.96925490068398 L 853.5826950360267 59.072309183178234 L 853.6504778008878 59.17567504405398 L 853.7159706366137 59.279342146811274 L 853.7791669939757 59.38330012482622 L 853.8400605533903 59.48753858238766 L 853.8986452255527 59.59204709573668 L 853.9549151520444 59.69681521410906 L 854.0088647059196 59.80183246078026 L 854.0604884922678 59.907088334113126 L 854.1097813487535 60.012572308608036 L 854.1567383461321 60.11827383595545 L 854.201354788743 60.22418234609071 L 854.243626214979 60.33028724825106 L 854.2835483977328 60.43657793203471 L 854.3211173448195 60.54304376846186 L 854.3563292993755 60.64967411103757 L 854.3891807402349 60.75645829681646 L 854.4196683822807 60.86338564746893 L 854.4477891767744 60.97044547034902 L 854.4735403116598 61.07762705956367 L 854.496919211845 61.184919697043256 L 854.5179235394593 61.29231265361346 L 854.5365511940876 61.399795190068104 L 854.5528003129798 61.50735655824312 L 854.5666692712377 61.614986002091314 L 854.578156681977 61.72267275875801 L 854.5872613964661 61.830406059657264 L 854.5939825042414 61.93817513154877 L 854.5983193331973 62.04596919761514 L 854.6002714496549 62.15377747853961 M 854.6003924397108 96.4920458931 L 854.5991999798072 96.59985643801662 L 854.5956227193411 96.70765620196859 L 854.5896610160358 96.81543440506935 L 854.5813154660565 96.9231802695884 L 854.5705869039513 97.03088302102908 L 854.5574764025674 97.138531889206 L 854.5419852729442 97.24611610932205 L 854.5241150641816 97.35362492304485 L 854.5038675632856 97.46104757958265 L 854.4812447949894 97.5683733367593 L 854.456249021551 97.67559146208852 L 854.428882742527 97.78269123384712 L 854.3991486945224 97.88966194214719 L 854.3670498509173 97.99649289000702 L 854.3325894215692 98.10317339442086 L 854.2957708524924 98.20969278742717 L 854.256597825513 98.31604041717543 L 854.2150742579013 98.42220564899125 L 854.1712043019793 98.52817786643996 L 854.1249923447059 98.6339464723881 L 854.0764430072386 98.73950089006323 L 854.0255611444705 98.84483056411152 L 853.9723518445456 98.94992496165337 L 853.9168204283494 99.05477357333659 L 853.8589724489774 99.15936591438738 L 853.7988136911792 99.2636915256588 L 853.7363501707806 99.36773997467667 L 853.6715881340814 99.47150085668278 L 853.6045340572314 99.5749637956754 L 853.5351946455825 99.67811844544686 L 853.4635768330178 99.78095449061813 L 853.3896877812591 99.8834616476704 L 853.3135348791501 99.98562966597338 L 853.2351257419173 100.08744832881038 L 853.1544682104092 100.18890745439998 L 853.0715703503117 100.28999689691415 L 852.9864404513419 100.39070654749288 L 852.8990870264184 100.49102633525506 L 852.8095188108113 100.59094622830548 L 852.7177447612672 100.69045623473812 L 852.6237740551148 100.78954640363527 L 852.5276160893462 100.8882068260626 L 852.4292804796781 100.9864276360601 L 852.3287770595894 101.0841990116286 L 852.2261158793382 101.18151117571202 L 852.1213072049571 101.27835439717506 L 852.0143615172262 101.37471899177628 L 851.9052895106253 101.4705953231365 L 851.794102092264 101.56597380370249 L 851.6808103807914 101.6608448957057 L 851.5654257052845 101.75519911211595 L 851.4479596041144 101.84902701759025 L 851.3284238237935 101.94231922941623 L 851.2068303178003 102.03506641845047 L 851.0831912453839 102.12725931005133 L 850.9575189703485 102.2188886850065 L 850.829826059817 102.30994538045483 L 850.700125282974 102.40042029080266 L 850.5684296097891 102.49030436863434 L 850.4347522097198 102.579588625617 L 850.2991064503949 102.66826413339936 L 850.161505896277 102.75632202450451 L 850.0219643073071 102.84375349321674 L 849.8804956375278 102.93054979646202 L 849.737114033688 103.01670225468237 L 849.5918338338289 103.10220225270375 L 849.444669565849 103.18704124059762 L 849.2956359460529 103.27121073453588 L 849.144747877678 103.3547023176393 L 848.9920204494057 103.4375076408191 L 848.8374689338514 103.51961842361202 L 848.681108786038 103.60102645500817 L 848.5229556418496 103.68172359427226 L 848.3630253164694 103.7617017717576 L 848.2013338027962 103.84095298971312 L 848.0378972698469 103.91946932308304 L 847.8727320611383 103.99724292029944 L 847.705854693054 104.07426600406745 L 847.5372818531915 104.15053087214287 L 847.3670303986944 104.22602989810241 L 847.1951173545663 104.30075553210642 L 847.0215599119682 104.37470030165377 L 846.8463754264999 104.44785681232914 L 846.6695814164639 104.52021774854238 L 846.4911955611138 104.59177587426021 L 846.3112356988865 104.66252403372968 L 846.1297198256185 104.73245515219378 L 845.9466660927455 104.80156223659897 L 845.7620928054886 104.86983837629438 L 845.5760184210224 104.93727674372295 L 845.3884615466304 105.0038705951041 L 845.1994409378437 105.06961327110824 L 845.0089754965659 105.13449819752252 L 844.817084269182 105.19851888590837 L 844.6237864446553 105.26166893425032 L 844.4291013526067 105.32394202759615 L 844.2330484613835 105.38533193868841 L 844.0356473761113 105.44583252858716 L 843.8369178367343 105.50543774728384 L 843.6368797160405 105.56414163430621 L 843.4355530176756 105.62193831931454 L 843.2329578741416 105.67882202268845 L 843.0291145447837 105.73478705610502 L 842.8240434137655 105.78982782310756 L 842.6177649880287 105.84393881966523 L 842.4102998952444 105.89711463472344 L 842.2016688817487 105.94934995074503 L 841.9918928104693 106.00063954424192 L 841.7809926588383 106.0509782862975 L 841.5689895166952 106.1003611430795 L 841.3559045841776 106.14878317634341 L 841.1417591696012 106.19623954392625 L 840.9265746873289 106.2427255002308 L 840.7103726556296 106.2882363967002 L 840.4931746945265 106.33276768228268 L 840.2750025236345 106.37631490388682 L 840.055877959989 106.41887370682676 L 839.8358229158636 106.46043983525765 L 839.6148593965795 106.50100913260128 L 839.3930094983045 106.54057754196174 L 839.1702954058435 106.57914110653107 L 838.94673939042 106.61669596998493 L 838.7223638074496 106.65323837686829 L 838.4971910943033 106.6887646729709 L 838.2712437680649 106.72327130569276 L 838.0445444232787 106.75675482439937 L 837.8171157296903 106.78921188076673 L 837.5889804299794 106.82063922911627 L 837.3601613374861 106.85103372673933 L 837.1306813339288 106.8803923342115 L 836.9005633671168 106.90871211569649 L 836.6698304486547 106.93599023923973 L 836.4385056516423 106.96222397705162 L 836.2066121083665 106.98741070578025 L 835.9741730079884 107.0115479067737 L 835.7412115942243 107.03463316633201 L 835.5077511630213 107.05666417594847 L 835.2738150602283 107.07763873254045 L 835.0394266792604 107.09755473866979 L 834.8046094587604 107.11641020275246 L 834.5693868802548 107.13420323925777 L 834.3337824658051 107.1509320688969 L 834.0978197756568 107.16659501880085 L 833.8615224058822 107.18119052268763 L 833.6249139860212 107.19471712101905 L 833.3880181767186 107.20717346114655 L 833.1508586673581 107.21855829744648 L 832.9134591736929 107.22887049144471 L 832.6758434354745 107.23810901193042 L 832.4380352140788 107.24627293505928 L 832.2000582901297 107.25336144444577 L 831.9619364611214 107.25937383124486 L 831.7236935390382 107.26430949422287 L 831.4853533479738 107.26816793981763 L 831.2469397217488 107.27094878218779 L 831.0084765015271 107.27265174325143 L 830.769987533432 107.27327665271386 L 830.5314966661614 107.27282344808465 L 830.2930277486035 107.27129217468391 L 830.0546046274513 107.26868298563768 L 829.8162511448184 107.2649961418627 L 829.577991135854 107.26023201204026 L 829.3398484263607 107.2543910725794 L 829.1018468304111 107.24747390756917 L 828.8640101479663 107.23948120872033 L 828.6263621624963 107.23041377529609 L 828.3889266386018 107.22027251403225 L 828.1517273196371 107.20905843904646 L 827.9147879253367 107.1967726717369 L 827.6781321494424 107.18341644067004 L 827.4417836573346 107.16899108145788 L 827.2057660836655 107.15349803662431 L 826.9701030299959 107.1369388554609 L 826.7348180624348 107.11931519387196 L 826.4999347092828 107.10062881420897 L 826.2654764586795 107.08088158509435 L 826.0314667562546 107.0600754812345 L 825.7979290027832 107.03821258322252 L 825.5648865518464 107.01529507732995 L 825.3323627074947 106.99132525528832 L 825.1003807219188 106.96630551405984 L 824.8689637931242 106.94023835559778 L 824.6381350626107 106.91312638659626 L 824.4079176130591 106.88497231822961 L 824.1783344660225 106.85577896588119 L 823.9494085796242 106.8255492488619 L 823.7211628462622 106.79428619011826 L 823.4936200903196 106.76199291593008 L 823.2668030658823 106.72867265559789 L 823.0407344544639 106.69432874111995 L 822.8154368627369 106.65896460685907 L 822.5909328202728 106.62258378919921 L 822.3672447772889 106.58518992619184 L 822.144395102403 106.5467867571921 L 821.9224060803969 106.50737812248485 L 821.7012999099878 106.46696796290075 L 821.4810987016084 106.42556031942208 L 821.2618244751962 106.38315933277867 L 821.043499157991 106.33976924303387 L 820.8261445823426 106.29539438916049 L 820.6097824835276 106.25003920860692 L 820.3944344975753 106.20370823685344 L 820.180122159105 106.15640610695861 L 819.9668668991719 106.108137549096 L 819.7546900431245 106.05890739008117 L 819.5436128084712 106.00872055288902 L 819.3336563027598 105.9575820561614 L 819.1248415214659 105.90549701370541 L 818.9171893458936 105.85247063398188 L 818.7107205410874 105.79850821958458 L 818.5054557537558 105.74361516670999 L 818.3014155102063 105.68779696461766 L 818.0986202142933 105.63105919508126 L 817.8970901453775 105.5734075318305 L 817.6968454562979 105.51484773998365 L 817.4979061713562 105.45538567547108 L 817.3002921843155 105.3950272844497 L 817.1040232564096 105.33377860270829 L 816.9091190143678 105.27164575506403 L 816.7155989484519 105.20863495474987 L 816.5234824105071 105.14475250279335 L 816.3327886120273 105.08000478738643 L 816.1435366222333 105.01439828324668 L 815.9557453661664 104.94793955096986 L 815.7694336227958 104.8806352363738 L 815.5846200231404 104.8124920698339 L 815.4013230484063 104.74351686560999 L 815.2195610281381 104.67371652116503 L 815.0393521383866 104.6030980164753 L 814.8607143998903 104.53166841333243 L 814.6836656762744 104.4594348546372 L 814.5082236722635 104.38640456368528 L 814.3344059319121 104.31258484344491 L 814.1622298368492 104.2379830758266 L 813.9917126045408 104.16260672094495 L 813.8228712865682 104.08646331637262 L 813.6557227669223 104.00956047638662 L 813.490283760316 103.93190589120688 L 813.3265708105117 103.85350732622719 L 813.1646002886685 103.77437262123871 L 813.0043883917032 103.694509689646 L 812.845951140672 103.61392651767568 L 812.6893043791682 103.53263116357778 L 812.5344637717374 103.45063175681996 L 812.3814448023111 103.36793649727457 L 812.2302627726588 103.28455365439865 L 812.0809328008575 103.20049156640701 L 811.9334698197799 103.1157586394384 L 811.7878885756014 103.03036334671489 L 811.644203626325 102.94431422769459 L 811.5024293403258 102.85761988721772 L 811.3625798949143 102.77028899464605 L 811.2246692749186 102.68233028299609 L 811.0887112712855 102.5937525480657 L 810.9547194797025 102.50456464755453 L 810.8227072992368 102.41477550017834 L 810.6926879309964 102.32439408477703 L 810.5646743768099 102.23342943941684 L 810.438679437926 102.14189066048647 L 810.3147157137337 102.04978690178756 L 810.192795600502 101.95712737361922 L 810.0729312901406 101.86392134185704 L 809.9551347689807 101.77017812702654 L 809.8394178165762 101.67590710337106 L 809.7257920045259 101.58111769791444 L 809.6142686953166 101.48581938951821 L 809.5048590411859 101.39002170793381 L 809.3975739830082 101.29373423284954 L 809.2924242491999 101.19696659293271 L 809.1894203546469 101.09972846486664 L 809.0885725996526 101.00202957238312 L 808.9898910689085 100.90387968528998 L 808.8933856304856 100.80528861849413 L 808.7990659348471 100.70626623102011 L 808.7069414138841 100.60682242502413 L 808.6170212799719 100.50696714480392 L 808.529314525049 100.40671037580431 L 808.4438299197177 100.30606214361863 L 808.3605760123675 100.20503251298624 L 808.2795611283194 100.103631586786 L 808.2007933689946 100.00186950502604 L 808.1242806111034 99.89975644382972 L 808.0500305058575 99.79730261441809 L 807.978050478206 99.69451826208869 L 807.9083477260913 99.59141366519111 L 807.8409292197308 99.48799913409913 L 807.7758017009188 99.38428501017967 L 807.7129716823529 99.28028166475868 L 807.6524454469827 99.17599949808405 L 807.5942290473812 99.07144893828554 L 807.53832830514 98.96664044033201 L 807.4847488102865 98.86158448498593 L 807.4334959207257 98.75629157775525 L 807.3845747617039 98.65077224784297 L 807.337990225296 98.54503704709414 L 807.2937469699172 98.43909654894075 L 807.2518494198557 98.33296134734431 L 807.212301764832 98.22664205573652 L 807.1751079595783 98.12014930595798 L 807.1402717234445 98.01349374719489 L 807.1077965400248 97.90668604491427 L 807.0776856568108 97.79973687979731 L 807.0499420848655 97.69265694667143 L 807.0245685985232 97.58545695344071 L 807.0015677351112 97.47814762001512 L 806.9809417946967 97.37073967723859 L 806.9626928398566 97.26324386581588 L 806.9468226954712 97.15567093523856 L 806.9333329485416 97.04803164271006 L 806.9222249480314 96.94033675206991 L 806.9134998047314 96.83259703271744 L 806.9071583911484 96.7248232585348 L 806.9032013414188 96.6170262068096 L 806.9016290512441 96.50921665715717" stroke-miterlimit="10" stroke-width="2.7769845610000004" stroke-dasharray=""/></g><g><text fill="black" stroke="none" font-family="sans-serif" font-size="11pt" font-style="normal" font-weight="normal" text-decoration="normal" x="799.3730506754218" y="124.80095321200001" text-anchor="start" dominant-baseline="alphabetic" xml:space="preserve">Database</text></g></g><g><path fill="white" stroke="black" paint-order="fill stroke markers" d=" M 314.2700373055989 183.607685092 L 330.6052406055989 183.607685092 L 330.6052406055989 745.538678612 L 314.2700373055989 745.538678612 L 314.2700373055989 183.607685092" stroke-miterlimit="10" stroke-width="1.3612669416666667" stroke-dasharray=""/><path fill="white" stroke="black" paint-order="fill stroke markers" d=" M 557.5300710690103 275.084823572 L 573.8652743690104 275.084823572 L 573.8652743690104 699.8001093720001 L 557.5300710690103 699.8001093720001 L 557.5300710690103 275.084823572" stroke-miterlimit="10" stroke-width="1.3612669416666667" stroke-dasharray=""/><path fill="white" stroke="black" paint-order="fill stroke markers" d=" M 688.5431020295885 320.823392812 L 704.8783053295886 320.823392812 L 704.8783053295886 458.039100532 L 688.5431020295885 458.039100532 L 688.5431020295885 320.823392812" stroke-miterlimit="10" stroke-width="1.3612669416666667" stroke-dasharray=""/><path fill="white" stroke="black" paint-order="fill stroke markers" d=" M 822.5833939717108 366.561962052 L 838.918597271711 366.561962052 L 838.918597271711 412.300531292 L 822.5833939717108 412.300531292 L 822.5833939717108 366.561962052" stroke-miterlimit="10" stroke-width="1.3612669416666667" stroke-dasharray=""/><g><g><rect fill="white" stroke="none" x="123.80475216238928" y="162.371920802" width="140.16894783082031" height="21.23576429"/></g><text fill="black" stroke="none" font-family="sans-serif" font-size="11pt" font-style="normal" font-weight="normal" text-decoration="normal" x="126.25503265738928" y="177.07360377199998" text-anchor="start" dominant-baseline="alphabetic" xml:space="preserve">Go to Entity list page</text></g><g><path fill="none" stroke="black" paint-order="fill stroke markers" d=" M 73.50841485 183.607685092 L 300.82071992193227 183.607685092" stroke-miterlimit="10" stroke-width="1.3612669416666667" stroke-dasharray=""/><g transform="translate(314.2700373055989,183.607685092) translate(-314.2700373055989,-183.607685092)"><path fill="black" stroke="none" paint-order="stroke fill markers" d=" M 300.65736788893224 176.80135038366666 L 314.2700373055989 183.607685092 L 300.65736788893224 190.41401980033334 Z"/></g></g><g><g><rect fill="white" stroke="none" x="115.2614477190299" y="208.110490042" width="157.25555671753906" height="21.23576429"/></g><text fill="black" stroke="none" font-family="sans-serif" font-size="11pt" font-style="normal" font-weight="normal" text-decoration="normal" x="117.7117282140299" y="222.812173012" text-anchor="start" dominant-baseline="alphabetic" xml:space="preserve">Click on Name of Entity</text></g><g><path fill="none" stroke="black" paint-order="fill stroke markers" d=" M 73.50841485 229.346254332 L 300.82071992193227 229.346254332" stroke-miterlimit="10" stroke-width="1.3612669416666667" stroke-dasharray=""/><g transform="translate(314.2700373055989,229.346254332) translate(-314.2700373055989,-229.346254332)"><path fill="black" stroke="none" paint-order="stroke fill markers" d=" M 300.65736788893224 222.53991962366666 L 314.2700373055989 229.346254332 L 300.65736788893224 236.15258904033334 Z"/></g></g><g><g><rect fill="white" stroke="none" x="374.38044449513666" y="253.849059282" width="139.37442268433594" height="21.23576429"/></g><text fill="black" stroke="none" font-family="sans-serif" font-size="11pt" font-style="normal" font-weight="normal" text-decoration="normal" x="376.8307249901367" y="268.550742252" text-anchor="start" dominant-baseline="alphabetic" xml:space="preserve">GET: /api/{entity}/{id}</text></g><g><path fill="none" stroke="black" paint-order="fill stroke markers" d=" M 330.6052406055989 275.084823572 L 544.0807536853437 275.084823572" stroke-miterlimit="10" stroke-width="1.3612669416666667" stroke-dasharray=""/><g transform="translate(557.5300710690103,275.084823572) translate(-557.5300710690103,-275.084823572)"><path fill="black" stroke="none" paint-order="stroke fill markers" d=" M 543.9174016523436 268.27848886366667 L 557.5300710690103 275.084823572 L 543.9174016523436 281.89115828033334 Z"/></g></g><g><g><rect fill="white" stroke="none" x="607.9772582292018" y="299.587628522" width="46.453859940195315" height="21.23576429"/></g><text fill="black" stroke="none" font-family="sans-serif" font-size="11pt" font-style="normal" font-weight="normal" text-decoration="normal" x="610.4275387242018" y="314.28931149199997" text-anchor="start" dominant-baseline="alphabetic" xml:space="preserve">get(id)</text></g><g><path fill="none" stroke="black" paint-order="fill stroke markers" d=" M 573.8652743690104 320.823392812 L 675.0937846459218 320.823392812" stroke-miterlimit="10" stroke-width="1.3612669416666667" stroke-dasharray=""/><g transform="translate(688.5431020295885,320.823392812) translate(-688.5431020295885,-320.823392812)"><path fill="black" stroke="none" paint-order="stroke fill markers" d=" M 674.9304326129218 314.01705810366667 L 688.5431020295885 320.823392812 L 674.9304326129218 327.62972752033335 Z"/></g></g><g><g><rect fill="white" stroke="none" x="724.2082959012552" y="345.326197762" width="79.04510749878906" height="21.23576429"/></g><text fill="black" stroke="none" font-family="sans-serif" font-size="11pt" font-style="normal" font-weight="normal" text-decoration="normal" x="726.6585763962552" y="360.02788073199997" text-anchor="start" dominant-baseline="alphabetic" xml:space="preserve">findById(id)</text></g><g><path fill="none" stroke="black" paint-order="fill stroke markers" d=" M 704.8783053295886 366.561962052 L 809.1340765880442 366.561962052" stroke-miterlimit="10" stroke-width="1.3612669416666667" stroke-dasharray=""/><g transform="translate(822.5833939717108,366.561962052) translate(-822.5833939717108,-366.561962052)"><path fill="black" stroke="none" paint-order="stroke fill markers" d=" M 808.9707245550442 359.7556273436667 L 822.5833939717108 366.561962052 L 808.9707245550442 373.36829676033335 Z"/></g></g><g><g><rect fill="white" stroke="none" x="726.6456509427591" y="391.064767002" width="74.17039741578125" height="21.23576429"/></g><text fill="black" stroke="none" font-family="sans-serif" font-size="11pt" font-style="normal" font-weight="normal" text-decoration="normal" x="729.0959314377591" y="405.766449972" text-anchor="start" dominant-baseline="alphabetic" xml:space="preserve">Entity data</text></g><g><path fill="none" stroke="black" paint-order="fill stroke markers" d=" M 822.5833939717108 412.300531292 L 718.3276227132552 412.300531292" stroke-miterlimit="10" stroke-width="1.3612669416666667" stroke-dasharray="6.53408132"/><g transform="translate(704.8783053295886,412.300531292) translate(-704.8783053295886,-412.300531292)"><path fill="black" stroke="none" paint-order="stroke fill markers" d=" M 718.4909747462552 405.4941965836667 L 704.8783053295886 412.300531292 L 718.4909747462552 419.10686600033335 Z"/></g></g><g><g><rect fill="white" stroke="none" x="594.1189894914088" y="436.803336242" width="74.17039741578125" height="21.23576429"/></g><text fill="black" stroke="none" font-family="sans-serif" font-size="11pt" font-style="normal" font-weight="normal" text-decoration="normal" x="596.5692699864088" y="451.505019212" text-anchor="start" dominant-baseline="alphabetic" xml:space="preserve">Entity data</text></g><g><path fill="none" stroke="black" paint-order="fill stroke markers" d=" M 688.5431020295885 458.039100532 L 587.3145917526771 458.039100532" stroke-miterlimit="10" stroke-width="1.3612669416666667" stroke-dasharray="6.53408132"/><g transform="translate(573.8652743690104,458.039100532) translate(-573.8652743690104,-458.039100532)"><path fill="black" stroke="none" paint-order="stroke fill markers" d=" M 587.4779437856771 451.2327658236667 L 573.8652743690104 458.039100532 L 587.4779437856771 464.84543524033336 Z"/></g></g><g><g><rect fill="white" stroke="none" x="383.78271195119135" y="526.646954392" width="120.56988777222656" height="21.23576429"/></g><text fill="red" stroke="none" font-family="sans-serif" font-size="11pt" font-style="normal" font-weight="normal" text-decoration="normal" x="386.23299244619136" y="541.348637362" text-anchor="start" dominant-baseline="alphabetic" xml:space="preserve">404 NOT FOUND</text></g><g><path fill="none" stroke="black" paint-order="fill stroke markers" d=" M 557.5300710690103 547.882718682 L 344.05455798926556 547.882718682" stroke-miterlimit="10" stroke-width="1.3612669416666667" stroke-dasharray="6.53408132"/><g transform="translate(330.6052406055989,547.882718682) translate(-330.6052406055989,-547.882718682)"><path fill="black" stroke="none" paint-order="stroke fill markers" d=" M 344.2179100222656 541.0763839736667 L 330.6052406055989 547.882718682 L 344.2179100222656 554.6890533903334 Z"/></g></g><g><g><rect fill="white" stroke="none" x="92.83840542166662" y="572.385523632" width="202.10164131226563" height="21.23576429"/></g><text fill="black" stroke="none" font-family="sans-serif" font-size="11pt" font-style="normal" font-weight="normal" text-decoration="normal" x="95.28868591666662" y="587.0872066019999" text-anchor="start" dominant-baseline="alphabetic" xml:space="preserve">Display 404 Not Found screen</text></g><g><path fill="none" stroke="black" paint-order="fill stroke markers" d=" M 314.2700373055989 593.621287922 L 86.95773223366666 593.621287922" stroke-miterlimit="10" stroke-width="1.3612669416666667" stroke-dasharray="6.53408132"/><g transform="translate(73.50841485,593.621287922) translate(-73.50841485,-593.621287922)"><path fill="black" stroke="none" paint-order="stroke fill markers" d=" M 87.12108426666666 586.8149532136666 L 73.50841485 593.621287922 L 87.12108426666666 600.4276226303333 Z"/></g></g><g><g><rect fill="white" stroke="none" x="349.93523117726556" y="662.229141782" width="54.61422981324219" height="21.23576429"/></g><g><rect fill="white" stroke="none" x="349.93523117726556" y="678.564345082" width="188.26484932007813" height="21.23576429"/></g><text fill="green" stroke="none" font-family="sans-serif" font-size="11pt" font-style="normal" font-weight="normal" text-decoration="normal" x="352.3855116722656" y="676.930824752" text-anchor="start" dominant-baseline="alphabetic" xml:space="preserve">200 OK</text><text fill="green" stroke="none" font-family="sans-serif" font-size="11pt" font-style="normal" font-weight="normal" text-decoration="normal" x="352.3855116722656" y="693.266028052" text-anchor="start" dominant-baseline="alphabetic" xml:space="preserve">Response body: Entity data </text></g><g><path fill="none" stroke="black" paint-order="fill stroke markers" d=" M 557.5300710690103 699.8001093720001 L 344.05455798926556 699.8001093720001" stroke-miterlimit="10" stroke-width="1.3612669416666667" stroke-dasharray="6.53408132"/><g transform="translate(330.6052406055989,699.8001093720001) translate(-330.6052406055989,-699.8001093720001)"><path fill="black" stroke="none" paint-order="stroke fill markers" d=" M 344.2179100222656 692.9937746636667 L 330.6052406055989 699.8001093720001 L 344.2179100222656 706.6064440803334 Z"/></g></g><g><g><rect fill="white" stroke="none" x="127.47691707938147" y="724.302914322" width="132.82461799683594" height="21.23576429"/></g><text fill="black" stroke="none" font-family="sans-serif" font-size="11pt" font-style="normal" font-weight="normal" text-decoration="normal" x="129.92719757438147" y="739.004597292" text-anchor="start" dominant-baseline="alphabetic" xml:space="preserve">Display Entity detail</text></g><g><path fill="none" stroke="black" paint-order="fill stroke markers" d=" M 314.2700373055989 745.538678612 L 86.95773223366666 745.538678612" stroke-miterlimit="10" stroke-width="1.3612669416666667" stroke-dasharray="6.53408132"/><g transform="translate(73.50841485,745.538678612) translate(-73.50841485,-745.538678612)"><path fill="black" stroke="none" paint-order="stroke fill markers" d=" M 87.12108426666666 738.7323439036667 L 73.50841485 745.538678612 L 87.12108426666666 752.3450133203334 Z"/></g></g><g><g/><path fill="none" stroke="black" paint-order="fill stroke markers" d=" M 16.335203299999996 482.541905482 L 622.8708842690104 482.541905482 L 622.8708842690104 770.041483562 L 16.335203299999996 770.041483562 L 16.335203299999996 482.541905482 Z" stroke-miterlimit="10" stroke-width="2.3336004714285714" stroke-dasharray=""/><path fill="white" stroke="black" paint-order="fill stroke markers" d=" M 16.335203299999996 482.541905482 L 16.335203299999996 502.144149442 L 62.69440689707031 502.144149442 L 72.49552887707031 492.343027462 L 72.49552887707031 482.541905482 L 16.335203299999996 482.541905482" stroke-miterlimit="10" stroke-width="2.3336004714285714" stroke-dasharray=""/><text fill="black" stroke="none" font-family="sans-serif" font-size="8.8pt" font-style="normal" font-weight="bold" text-decoration="normal" x="32.67040659999999" y="495.61006812200003" text-anchor="start" dominant-baseline="alphabetic" xml:space="preserve">alt</text><g><rect fill="white" stroke="none" x="86.38045168207032" y="483.848721746" width="137.84800972046875" height="16.988611432000003"/></g><text fill="black" stroke="none" font-family="sans-serif" font-size="8.8pt" font-style="normal" font-weight="bold" text-decoration="normal" x="88.83073217707032" y="495.61006812200003" text-anchor="start" dominant-baseline="alphabetic" xml:space="preserve">[If no Entity matches id]</text><g><path fill="none" stroke="black" paint-order="fill stroke markers" d=" M 16.335203299999996 618.124092872 L 622.8708842690104 618.124092872" stroke-miterlimit="10" stroke-width="2.3336004714285714" stroke-dasharray="4.083800825"/></g><g/><g><rect fill="white" stroke="none" x="86.38045168207032" y="619.430909136" width="36.84300483765625" height="16.988611432000003"/></g><text fill="black" stroke="none" font-family="sans-serif" font-size="8.8pt" font-style="normal" font-weight="bold" text-decoration="normal" x="88.83073217707032" y="631.192255512" text-anchor="start" dominant-baseline="alphabetic" xml:space="preserve">[Else]</text></g><g/></g></g></svg>