<svg version="1.1" xmlns="http://www.w3.org/2000/svg" xmlns:xlink="http://www.w3.org/1999/xlink" width="846" height="577"><desc>%20title%20Get%20all%20Entity%20in%20list%20page%0A%0Aactor%20%23green%3A0.5%20%22User%22%20as%20w%0Aboundary%20%22Client%22%20as%20f%0Acontrol%20%22Entity%20Controller%22%20as%20gc%0Aparticipant%20%22Entity%20Service%22%20as%20gs%0Adatabase%20%23blue%3A1%20%22Database%22%20as%20db%0A%0Aw-%3Ef%3AGo%20to%20Entity%20List%20page%0Aactivate%20f%0Af-%3Egc%3A%20GET%3A%20api%2F%7BentityName%7D%0Aactivate%20gc%0Agc-%3Egs%3A%20getAllActive()%0Aactivate%20gs%0Ags-%3Edb%3A%20findAllByActiveIsTrue()%0Aactivate%20db%0Ags%3C--db%3A%20Entity%20list%0Adeactivate%20db%0Agc%3C--gs%3A%20Entity%20list%0Adeactivate%20gs%0Af%3C--gc%3A%20%3Ccolor%3A%23green%3E200%20OK%5CnResponse%20body%3A%20Entity%20list%3C%2Fcolor%3E%0Adeactivate%20gc%0Aw%3C--f%3A%20Display%20Entity%20list%20page%0Adeactivate%20f%0A</desc><defs/><g><g/><g/><g/><g/><g/><g/><g/><g/><g/><g/><g/><g/><g/><g/><g><rect fill="white" stroke="none" x="0" y="0" width="846" height="577"/></g><g><text fill="black" stroke="none" font-family="sans-serif" font-size="16.5pt" font-style="normal" font-weight="normal" text-decoration="normal" x="305.0635299648112" y="24.50280495" text-anchor="start" dominant-baseline="alphabetic" xml:space="preserve">Get all Entity in list page</text></g><g/><g><path fill="none" stroke="black" paint-order="fill stroke markers" d=" M 23.64361483359375 129.701514202 L 23.64361483359375 577.286084622" stroke-miterlimit="10" stroke-width="1.3612669416666667" stroke-dasharray="12.565541,5.445067766666667"/><path fill="none" stroke="black" paint-order="fill stroke markers" d=" M 222.85199848509112 129.701514202 L 222.85199848509112 577.286084622" stroke-miterlimit="10" stroke-width="1.3612669416666667" stroke-dasharray="12.565541,5.445067766666667"/><path fill="none" stroke="black" paint-order="fill stroke markers" d=" M 451.4234030981119 129.701514202 L 451.4234030981119 577.286084622" stroke-miterlimit="10" stroke-width="1.3612669416666667" stroke-dasharray="12.565541,5.445067766666667"/><path fill="none" stroke="black" paint-order="fill stroke markers" d=" M 597.6755633263672 129.701514202 L 597.6755633263672 577.286084622" stroke-miterlimit="10" stroke-width="1.3612669416666667" stroke-dasharray="12.565541,5.445067766666667"/><path fill="none" stroke="black" paint-order="fill stroke markers" d=" M 805.2949110546224 129.701514202 L 805.2949110546224 577.286084622" stroke-miterlimit="10" stroke-width="1.3612669416666667" stroke-dasharray="12.565541,5.445067766666667"/></g><g><g><path fill="white" stroke="green" paint-order="fill stroke markers" d=" M 32.95468071459375 60.60360424300001 A 9.311065881 9.311065881 0 1 1 32.9546760590612 60.594293178670846 M 23.64361483359375 69.91467012400001 L 23.64361483359375 89.84361815000001 M 11.882268457593753 77.102159576 L 35.40496120959375 77.102159576 M 23.64361483359375 89.84361815000001 L 11.882268457593753 108.465749912 M 23.64361483359375 89.84361815000001 L 35.40496120959375 108.465749912" stroke-miterlimit="10" stroke-width="1.3884922805000002" stroke-dasharray=""/></g><g><text fill="black" stroke="none" font-family="sans-serif" font-size="11pt" font-style="normal" font-weight="normal" text-decoration="normal" x="8.167601650000002" y="124.80095321200001" text-anchor="start" dominant-baseline="alphabetic" xml:space="preserve">User</text></g><g><path fill="white" stroke="black" paint-order="fill stroke markers" d=" M 255.27737703559112 82.819480731 A 24.2577769005 24.2577769005 0 1 1 255.27736490670367 82.79522295814245 M 191.81511221509112 57.17321154999999 L 191.81511221509112 108.465749912 M 190.42661993459112 82.819480731 L 206.7618232345911 82.819480731" stroke-miterlimit="10" stroke-width="2.7769845610000004" stroke-dasharray=""/></g><g><text fill="black" stroke="none" font-family="sans-serif" font-size="11pt" font-style="normal" font-weight="normal" text-decoration="normal" x="204.11184803343096" y="124.80095321200001" text-anchor="start" dominant-baseline="alphabetic" xml:space="preserve">Client</text></g><g><path fill="white" stroke="black" paint-order="fill stroke markers" d=" M 475.6811799986119 82.819480731 A 24.2577769005 24.2577769005 0 1 1 475.6811678697245 82.79522295814245 M 448.1563624381119 58.561703830499994 L 457.9574844181119 50.39410218049999 M 448.1563624381119 58.561703830499994 L 457.9574844181119 66.72930548049999" stroke-miterlimit="10" stroke-width="2.7769845610000004" stroke-dasharray=""/></g><g><text fill="black" stroke="none" font-family="sans-serif" font-size="11pt" font-style="normal" font-weight="normal" text-decoration="normal" x="399.2795508642252" y="124.80095321200001" text-anchor="start" dominant-baseline="alphabetic" xml:space="preserve">Entity Controller</text></g><path fill="none" stroke="none"/><g><path fill="white" stroke="black" paint-order="fill stroke markers" d=" M 535.1415878996758 85.75981732500001 L 660.2095387530586 85.75981732500001 L 660.2095387530586 129.701514202 L 535.1415878996758 129.701514202 L 535.1415878996758 85.75981732500001 Z" stroke-miterlimit="10" stroke-width="2.613632528" stroke-dasharray=""/></g><g><text fill="black" stroke="none" font-family="sans-serif" font-size="11pt" font-style="normal" font-weight="normal" text-decoration="normal" x="552.8652834801758" y="113.36631090200002" text-anchor="start" dominant-baseline="alphabetic" xml:space="preserve">Entity Service</text></g><g><path fill="white" stroke="blue" paint-order="fill stroke markers" d=" M 781.4455142366224 97.684515734 L 781.4455142366224 63.380588804000006 L 829.1443078726223 63.380588804000006 L 829.1443078726223 97.684515734" stroke-miterlimit="10" stroke-width="2.7769845610000004" stroke-dasharray=""/><path fill="white" stroke="blue" paint-order="fill stroke markers" d=" M 829.1443078726223 62.1881189631 L 829.1431154127187 62.29592950801663 L 829.1395381522526 62.403729271968594 L 829.1335764489473 62.51150747506936 L 829.125230898968 62.619253339588404 L 829.1145023368628 62.72695609102909 L 829.1013918354789 62.834604959206004 L 829.0859007058557 62.94218917932205 L 829.0680304970931 63.04969799304486 L 829.047782996197 63.15712064958265 L 829.0251602279009 63.2644464067593 L 829.0001644544625 63.371664532088516 L 828.9727981754385 63.47876430384712 L 828.9430641274339 63.58573501214718 L 828.9109652838288 63.692565960007016 L 828.8765048544807 63.79924646442086 L 828.8396862854039 63.90576585742718 L 828.8005132584245 64.01211348717543 L 828.7589896908128 64.11827871899126 L 828.7151197348908 64.22425093643996 L 828.6689077776174 64.3300195423881 L 828.6203584401501 64.43557396006322 L 828.569476577382 64.54090363411153 L 828.5162672774571 64.64599803165338 L 828.4607358612609 64.75084664333659 L 828.4028878818889 64.85543898438739 L 828.3427291240907 64.95976459565881 L 828.2802656036921 65.06381304467668 L 828.2155035669929 65.16757392668278 L 828.1484494901429 65.27103686567541 L 828.079110078494 65.37419151544687 L 828.0074922659293 65.47702756061814 L 827.9336032141706 65.5795347176704 L 827.8574503120616 65.68170273597339 L 827.7790411748288 65.7835213988104 L 827.6983836433207 65.88498052439998 L 827.6154857832232 65.98606996691414 L 827.5303558842534 66.08677961749288 L 827.4430024593299 66.18709940525505 L 827.3534342437227 66.28701929830548 L 827.2616601941787 66.38652930473813 L 827.1676894880263 66.48561947363528 L 827.0715315222577 66.58427989606261 L 826.9731959125896 66.6825007060601 L 826.8726924925008 66.7802720816286 L 826.7700313122497 66.87758424571203 L 826.6652226378686 66.97442746717506 L 826.5582769501377 67.07079206177627 L 826.4492049435368 67.1666683931365 L 826.3380175251755 67.2620468737025 L 826.2247258137029 67.35691796570569 L 826.109341138196 67.45127218211596 L 825.9918750370259 67.54510008759026 L 825.872339256705 67.63839229941624 L 825.7507457507118 67.73113948845047 L 825.6271066782954 67.82333238005134 L 825.50143440326 67.9149617550065 L 825.3737414927285 68.00601845045483 L 825.2440407158855 68.09649336080267 L 825.1123450427006 68.18637743863435 L 824.9786676426313 68.27566169561702 L 824.8430218833064 68.36433720339936 L 824.7054213291885 68.45239509450451 L 824.5658797402186 68.53982656321674 L 824.4244110704393 68.62662286646201 L 824.2810294665995 68.71277532468237 L 824.1357492667404 68.79827532270376 L 823.9885849987605 68.88311431059763 L 823.8395513789644 68.9672838045359 L 823.6886633105895 69.0507753876393 L 823.5359358823172 69.13358071081912 L 823.3813843667629 69.21569149361203 L 823.2250242189494 69.29709952500816 L 823.0668710747611 69.37779666427225 L 822.9069407493809 69.45777484175761 L 822.7452492357077 69.53702605971311 L 822.5818127027584 69.61554239308303 L 822.4166474940498 69.69331599029945 L 822.2497701259655 69.77033907406746 L 822.081197286103 69.84660394214286 L 821.9109458316059 69.92210296810242 L 821.7390327874778 69.99682860210643 L 821.5654753448797 70.07077337165379 L 821.3902908594114 70.14392988232913 L 821.2134968493754 70.21629081854239 L 821.0351109940253 70.28784894426022 L 820.855151131798 70.35859710372968 L 820.67363525853 70.42852822219379 L 820.490581525657 70.49763530659898 L 820.3060082384001 70.5659114462944 L 820.1199338539338 70.63334981372294 L 819.9323769795419 70.69994366510412 L 819.7433563707552 70.76568634110825 L 819.5528909294774 70.83057126752253 L 819.3609997020935 70.89459195590838 L 819.1677018775667 70.95774200425032 L 818.9730167855182 71.02001509759614 L 818.776963894295 71.08140500868842 L 818.5795628090228 71.14190559858717 L 818.3808332696458 71.20151081728383 L 818.180795148952 71.26021470430622 L 817.9794684505871 71.31801138931453 L 817.776873307053 71.37489509268845 L 817.5730299776952 71.43086012610503 L 817.367958846677 71.48590089310757 L 817.1616804209402 71.54001188966522 L 816.9542153281559 71.59318770472345 L 816.7455843146602 71.64542302074504 L 816.5358082433808 71.69671261424193 L 816.3249080917498 71.7470513562975 L 816.1129049496067 71.79643421307951 L 815.899820017089 71.84485624634341 L 815.6856746025127 71.89231261392625 L 815.4704901202404 71.93879857023082 L 815.2542880885411 71.9843094667002 L 815.037090127438 72.02884075228269 L 814.818917956546 72.07238797388683 L 814.5997933929004 72.11494677682676 L 814.379738348775 72.15651290525764 L 814.158774829491 72.19708220260128 L 813.936924931216 72.23665061196175 L 813.714210838755 72.27521417653107 L 813.4906548233315 72.31276903998494 L 813.2662792403611 72.3493114468683 L 813.0411065272148 72.38483774297092 L 812.8151592009764 72.41934437569277 L 812.5884598561902 72.45282789439938 L 812.3610311626018 72.48528495076673 L 812.1328958628909 72.51671229911628 L 811.9040767703976 72.54710679673934 L 811.6745967668403 72.5764654042115 L 811.4444788000283 72.60478518569649 L 811.2137458815662 72.63206330923974 L 810.9824210845538 72.65829704705163 L 810.750527541278 72.68348377578025 L 810.5180884408999 72.70762097677371 L 810.2851270271358 72.73070623633201 L 810.0516665959328 72.75273724594847 L 809.8177304931398 72.77371180254045 L 809.5833421121719 72.79362780866978 L 809.3485248916719 72.81248327275246 L 809.1133023131663 72.83027630925778 L 808.8776978987166 72.84700513889692 L 808.6417352085683 72.86266808880085 L 808.4054378387937 72.87726359268764 L 808.1688294189327 72.89079019101906 L 807.93193360963 72.90324653114655 L 807.6947741002696 72.91463136744649 L 807.4573746066044 72.9249435614447 L 807.219758868386 72.93418208193043 L 806.9819506469903 72.94234600505929 L 806.7439737230412 72.94943451444577 L 806.5058518940328 72.95544690124485 L 806.2676089719497 72.96038256422287 L 806.0292687808853 72.96424100981763 L 805.7908551546603 72.9670218521878 L 805.5523919344386 72.96872481325143 L 805.3139029663434 72.96934972271386 L 805.0754120990729 72.96889651808466 L 804.836943181515 72.96736524468392 L 804.5985200603628 72.96475605563768 L 804.3601665777298 72.96106921186271 L 804.1219065687654 72.95630508204027 L 803.8837638592722 72.9504641425794 L 803.6457622633226 72.94354697756918 L 803.4079255808778 72.93555427872033 L 803.1702775954078 72.9264868452961 L 802.9328420715133 72.91634558403224 L 802.6956427525486 72.90513150904647 L 802.4587033582482 72.89284574173689 L 802.2220475823539 72.87948951067006 L 801.985699090246 72.86506415145789 L 801.749681516577 72.84957110662431 L 801.5140184629074 72.8330119254609 L 801.2787334953463 72.81538826387197 L 801.0438501421943 72.79670188420899 L 800.809391891591 72.77695465509434 L 800.5753821891661 72.7561485512345 L 800.3418444356947 72.73428565322251 L 800.1088019847579 72.71136814732996 L 799.8762781404062 72.68739832528833 L 799.6442961548303 72.66237858405984 L 799.4128792260357 72.63631142559778 L 799.1820504955222 72.60919945659627 L 798.9518330459706 72.58104538822961 L 798.722249898934 72.55185203588118 L 798.4933240125357 72.5216223188619 L 798.2650782791737 72.49035926011825 L 798.0375355232311 72.45806598593009 L 797.8107184987938 72.4247457255979 L 797.5846498873753 72.39040181111994 L 797.3593522956484 72.35503767685907 L 797.1348482531843 72.31865685919922 L 796.9111602102004 72.28126299619186 L 796.6883105353145 72.24285982719209 L 796.4663215133083 72.20345119248485 L 796.2452153428993 72.16304103290075 L 796.0250141345199 72.12163338942209 L 795.8057399081077 72.07923240277869 L 795.5874145909025 72.03584231303388 L 795.3700600152541 71.99146745916049 L 795.1536979164391 71.94611227860693 L 794.9383499304868 71.89978130685344 L 794.7240375920165 71.85247917695861 L 794.5107823320834 71.80421061909601 L 794.298605476036 71.75498046008119 L 794.0875282413826 71.70479362288901 L 793.8775717356713 71.65365512616141 L 793.6687569543774 71.60157008370541 L 793.4611047788051 71.54854370398188 L 793.2546359739989 71.49458128958457 L 793.0493711866673 71.43968823671 L 792.8453309431178 71.38387003461766 L 792.6425356472048 71.32713226508127 L 792.441005578289 71.26948060183051 L 792.2407608892094 71.21092080998365 L 792.0418216042677 71.15145874547107 L 791.844207617227 71.0911003544497 L 791.6479386893211 71.0298516727083 L 791.4530344472793 70.96771882506403 L 791.2595143813634 70.90470802474988 L 791.0673978434186 70.84082557279336 L 790.8767040449388 70.77607785738643 L 790.6874520551448 70.71047135324669 L 790.4996607990779 70.64401262096986 L 790.3133490557072 70.5767083063738 L 790.1285354560518 70.50856513983389 L 789.9452384813178 70.43958993560999 L 789.7634764610495 70.36978959116503 L 789.583267571298 70.29917108647531 L 789.4046298328018 70.22774148333244 L 789.2275811091858 70.1555079246372 L 789.052139105175 70.08247763368529 L 788.8783213648236 70.00865791344492 L 788.7061452697607 69.9340561458266 L 788.5356280374523 69.85867979094495 L 788.3667867194797 69.78253638637263 L 788.1996381998338 69.70563354638664 L 788.0341991932274 69.62797896120689 L 787.8704862434232 69.54958039622719 L 787.7085157215799 69.47044569123871 L 787.5483038246147 69.39058275964601 L 787.3898665735835 69.30999958767568 L 787.2332198120797 69.22870423357777 L 787.0783792046489 69.14670482681996 L 786.9253602352226 69.06400956727457 L 786.7741782055703 68.98062672439866 L 786.624848233769 68.89656463640702 L 786.4773852526914 68.8118317094384 L 786.3318040085129 68.72643641671489 L 786.1881190592364 68.6403872976946 L 786.0463447732373 68.55369295721772 L 785.9064953278258 68.46636206464606 L 785.7685847078301 68.37840335299609 L 785.632626704197 68.28982561806569 L 785.498634912614 68.20063771755453 L 785.3666227321482 68.11084857017835 L 785.2366033639079 68.02046715477704 L 785.1085898097214 67.92950250941684 L 784.9825948708375 67.83796373048648 L 784.8586311466452 67.74585997178757 L 784.7367110334135 67.65320044361923 L 784.616846723052 67.55999441185705 L 784.4990502018921 67.46625119702654 L 784.3833332494877 67.37198017337107 L 784.2697074374374 67.27719076791445 L 784.1581841282281 67.18189245951821 L 784.0487744740974 67.08609477793381 L 783.9414894159197 66.98980730284956 L 783.8363396821114 66.89303966293272 L 783.7333357875584 66.79580153486665 L 783.6324880325641 66.69810264238313 L 783.53380650182 66.59995275528999 L 783.4373010633971 66.50136168849414 L 783.3429813677586 66.40233930102012 L 783.2508568467956 66.30289549502413 L 783.1609367128834 66.20304021480393 L 783.0732299579605 66.1027834458043 L 782.9877453526292 66.00213521361863 L 782.904491445279 65.90110558298623 L 782.8234765612309 65.799704656786 L 782.7447088019061 65.69794257502603 L 782.6681960440148 65.59582951382973 L 782.593945938769 65.4933756844181 L 782.5219659111175 65.3905913320887 L 782.4522631590028 65.28748673519112 L 782.3848446526423 65.18407220409914 L 782.3197171338303 65.08035808017966 L 782.2568871152644 64.97635473475869 L 782.1963608798942 64.87207256808405 L 782.1381444802927 64.76752200828555 L 782.0822437380515 64.66271351033203 L 782.028664243198 64.55765755498592 L 781.9774113536372 64.45236464775525 L 781.9284901946154 64.34684531784296 L 781.8819056582075 64.24111011709415 L 781.8376624028286 64.13516961894075 L 781.7957648527672 64.0290344173443 L 781.7562171977435 63.92271512573653 L 781.7190233924898 63.81622237595798 L 781.684187156356 63.70956681719489 L 781.6517119729363 63.602759114914264 L 781.6216010897223 63.49580994979732 L 781.593857517777 63.38873001667144 L 781.5684840314347 63.28153002344071 L 781.5454831680227 63.17422069001512 L 781.5248572276082 63.066812747238586 L 781.5066082727681 62.959316935815885 L 781.4907381283826 62.85174400523857 L 781.4772483814531 62.74410471271006 L 781.4661403809429 62.636409822069915 L 781.4574152376429 62.52867010271744 L 781.4510738240599 62.4208963285348 L 781.4471167743303 62.313099276809595 L 781.4455444841556 62.20528972715717 L 781.4463571107635 62.09747846044265 L 781.4495545728921 61.98967625770286 L 781.4551365507978 61.88189389906824 L 781.4631024862874 61.77414216268484 L 781.4734515827741 61.66643182363649 L 781.486182805357 61.558773652867366 L 781.5012948809241 61.4511784161048 L 781.5187862982807 61.34365687278283 L 781.5386553082994 61.236219774966166 L 781.5608999240961 61.12887786627507 L 781.5855179212276 61.02164188081096 L 781.6125068379146 60.91452254208302 L 781.641863975288 60.807530561935856 L 781.6735863976585 60.70067663947832 L 781.7076709328104 60.593971460013606 L 781.7441141723184 60.487425693970756 L 781.7829124718892 60.381049995837586 L 781.8240619517248 60.27485500309525 L 781.8675584969119 60.16885133515453 L 781.913397757832 60.06304959229389 L 781.9615751505971 59.95746035459945 L 782.0120858575084 59.852094180906974 L 782.064924827537 59.746961607746044 L 782.1200867768301 59.64207314828636 L 782.1775661892387 59.537439291286454 L 782.2373573168695 59.43307050004484 L 782.2994541806594 59.32897721135367 L 782.3638505709739 59.22516983445505 L 782.4305400482277 59.12165875000019 L 782.4995159435285 59.01845430901127 L 782.5707713593443 58.91556683184637 L 782.644299170193 58.81300660716748 L 782.7200920233546 58.7107838909116 L 782.798142339607 58.60890890526517 L 782.8784423139838 58.507391837641855 L 782.9609839165541 58.406242839663825 L 783.0457588932269 58.30547202614659 L 783.1327587665749 58.205089474087515 L 783.2219748366832 58.105105221658164 L 783.3133981820193 58.00552926720046 L 783.4070196603249 57.90637156822687 L 783.5028299095299 57.807642040424646 L 783.6008193486895 57.709350556664305 L 783.7009781789413 57.61150694601232 L 783.8032963844859 57.514120992748204 L 783.9077637335877 57.417202435386145 L 784.0143697795992 57.320760965701105 L 784.1231038620044 57.224806227759686 L 784.2339551074857 57.12934781695572 L 784.3469124310111 57.03439527905074 L 784.4619645369422 56.93995810921942 L 784.5790999201644 56.84604575110002 L 784.6983068672367 56.75266759585011 L 784.8195734575642 56.65983298120741 L 784.9428875645885 56.567551190555996 L 785.068236857002 56.47583145199805 L 785.1956087999797 56.384682937430995 L 785.3249906564336 56.29411476163032 L 785.4563694882856 56.20413598133814 L 785.5897321577622 56.1147555943575 L 785.7250653287076 56.02598253865261 L 785.8623554679175 55.937825691455075 L 786.0015888464923 55.85029386837614 L 786.1427515412101 55.763395822525176 L 786.2858294359193 55.677140243634355 L 786.4308082229494 55.591535757189675 L 786.5776734045427 55.50659092356846 L 786.7264102943034 55.42231423718327 L 786.8770040186663 55.33871412563253 L 787.0294395183847 55.25579894885771 L 787.1837015500355 55.1735769983074 L 787.3397746875441 55.092056496108135 L 787.497643323727 55.01124559424221 L 787.6572916718519 54.93115237373246 L 787.818703767217 54.851784843834196 L 787.9818634687475 54.77315094123426 L 788.146754460609 54.6952585292574 L 788.31336025384 54.61811539707989 L 788.4816641879997 54.54172925895067 L 788.651649432835 54.46610775341989 L 788.8232989899633 54.391258442575094 L 788.9965956945717 54.317188811284986 L 789.1715222171342 54.24390626645098 L 789.3480610651444 54.171418136266475 L 789.5261945848645 54.09973166948409 L 789.705904963091 54.028854034690774 L 789.8871742289359 53.95879231959093 L 790.0699842556236 53.88955353029769 L 790.2543167623038 53.82114459063227 L 790.4401533158796 53.753572341431656 L 790.6274753328502 53.68684353986444 L 790.8162640811701 53.62096485875517 L 791.0065006821219 53.55594288591707 L 791.198166112204 53.49178412349323 L 791.3912412050331 53.42849498730643 L 791.5857066532608 53.366081806217544 L 791.7815430105044 53.304550821492676 L 791.9787306932911 53.24390818617902 L 792.1772499830174 53.18415996448957 L 792.3770810279194 53.12531213119671 L 792.5782038450592 53.067370571034715 L 792.7805983223228 53.01034107811134 L 792.9842442204312 52.95422935532834 L 793.1891211749639 52.89904101381123 L 793.3952086983966 52.84478157234818 L 793.6024861821485 52.79145645683812 L 793.810932898644 52.73907099974815 L 794.0205280033852 52.687630439580346 L 794.2312505370361 52.637139920347835 L 794.4430794275191 52.58760449106049 L 794.6559934921218 52.53902910521993 L 794.8699714396149 52.49141862032429 L 795.0849918723821 52.444777797382365 L 795.3010332885593 52.399111300437596 L 795.5180740841848 52.354423696101605 L 795.7360925553602 52.3107194530976 L 795.9550669004198 52.26800294181345 L 796.1749752221115 52.2262784338647 L 796.3957955297867 52.18555010166736 L 796.6175057415984 52.14582201802072 L 796.8400836867103 52.10709815570004 L 797.0635071075133 52.06938238705927 L 797.2877536618514 52.032678483643856 L 797.5128009252563 51.996990115813546 L 797.7386263931891 51.96232085237539 L 797.9652074832911 51.928674160226834 L 798.1925215376423 51.89605340400906 L 798.4205458250264 51.8644618457705 L 798.6492575432048 51.833902644640645 L 798.8786338211964 51.80437885651416 L 799.1086517215646 51.775893433745246 L 799.3392882427107 51.74844922485244 L 799.5705203211751 51.722048974233765 L 799.8023248339424 51.69669532189228 L 800.0346786007548 51.672390803172085 L 800.267558386429 51.649137848504814 L 800.5009409031805 51.626938783166544 L 800.7348028129524 51.60579582704531 L 800.9691207297482 51.58571109441911 L 801.2038712219717 51.56668659374447 L 801.4390308147692 51.54872422745561 L 801.6745759923776 51.53182579177417 L 801.9104832004753 51.515992976529645 L 802.146728848538 51.50122736499037 L 802.3832893121978 51.4875304337052 L 802.6201409356056 51.47490355235584 L 802.8572600337963 51.4633479836199 L 803.0946228950577 51.45286488304463 L 803.3322057833014 51.443455298931354 L 803.5699849404367 51.43512017223063 L 803.8079365887461 51.4278603364482 L 804.0460369332628 51.42167651756158 L 804.284262164151 51.41656933394751 L 804.522588459086 51.41253929632009 L 804.760991985637 51.40958680767973 L 804.9994489036499 51.407712163272826 L 805.2379353676317 51.40691555056227 L 805.4764275291348 51.40719704920866 L 805.7149015391416 51.40855663106237 L 805.95333355045 51.41099416016634 L 806.1916997200575 51.414509392769695 L 806.4299762115457 51.419101977352106 L 806.6681391974643 51.42477145465894 L 806.9061648617128 51.431517257747196 L 807.1440294019233 51.43933871204218 L 807.3817090318399 51.44823503540498 L 807.619179983698 51.45820533821068 L 807.8564185106 51.4692486234373 L 808.0934008888909 51.48136378676553 L 808.3301034205305 51.49454961668913 L 808.5665024354628 51.50880479463608 L 808.8025742939834 51.524127895100484 L 809.038295389103 51.54051738578506 L 809.2736421489087 51.5579716277544 L 809.5085910389206 51.57648887559884 L 809.7431185644454 51.59606727760904 L 809.9772012729261 51.6167048759611 L 810.2108157562868 51.6383996069124 L 810.4439386532739 51.66114930100791 L 810.676546651792 51.684951683297186 L 810.9086164912351 51.70980437356183 L 811.1401249648126 51.735704886553535 L 811.37104892187 51.76265063224257 L 811.6013652702043 51.79063891607683 L 811.8310509783722 51.81966693925126 L 812.0600830779946 51.849731798987726 L 812.2884386660522 51.88083048882531 L 812.5160949071767 51.91295989892094 L 812.7430290359334 51.94611681636038 L 812.9692183590988 51.980297925479526 L 813.1946402579291 52.01549980819594 L 813.419272190422 52.0517189443507 L 813.6430916935717 52.08895171206036 L 813.8660763856143 52.127194388079175 L 814.0882039682663 52.16644314817141 L 814.3094522289548 52.20669406749378 L 814.5297990430379 52.247943120987884 L 814.7492223760178 52.29018618378274 L 814.9677002857442 52.33341903160728 L 815.1852109246081 52.37763734121275 L 815.4017325417269 52.422836690805035 L 815.6172434851193 52.46901256048684 L 815.8317222038705 52.516160332709674 L 816.0451472502875 52.564275292735616 L 816.2574972820435 52.613352629108746 L 816.4687510643122 52.663387434136325 L 816.6788874718914 52.71437470437956 L 816.8878854913154 52.7663093411539 L 817.0957242229566 52.819186151038956 L 817.3023828831149 52.8729998463978 L 817.5078408060966 52.92774504590574 L 817.7120774462805 52.983416275088445 L 817.9150723801729 53.040007966869396 L 818.1168053084494 53.09751446212657 L 818.3172560579856 53.15593001025836 L 818.5164045838732 53.21524876975863 L 818.7142309714258 53.27546480880087 L 818.9107154381694 53.33657210583136 L 819.1058383358212 53.3985645501713 L 819.299580152254 53.461435942627936 L 819.4919215134473 53.52517999611441 L 819.6828431854258 53.58979033627848 L 819.8723260761809 53.655260502139996 L 820.0603512375818 53.721583946736914 L 820.2468998672689 53.78875403778004 L 820.4319533105346 53.85676405831625 L 820.6154930621889 53.92560720740017 L 820.7975007684096 53.995276600774254 L 820.9779582285777 54.065765271557225 L 821.1568473970975 54.13706617094075 L 821.3341503852013 54.2091721688943 L 821.5098494627381 54.28207605487816 L 821.6839270599464 54.35577053856451 L 821.8563657692117 54.43024825056637 L 822.0271483468067 54.50550174317461 L 822.196257714616 54.581523491102686 L 822.3636769618436 54.658305892239156 L 822.5293893467044 54.73584126840789 L 822.6933782980981 54.81412186613588 L 822.8556274172661 54.89313985742859 L 823.0161204794317 54.97288734055273 L 823.1748414354225 55.05335634082646 L 823.3317744132751 55.1345388114168 L 823.4869037198224 55.21642663414435 L 823.6402138422633 55.29901162029506 L 823.791689449713 55.38228551143916 L 823.9413153947371 55.46623998025691 L 824.0890767148659 55.55086663137139 L 824.2349586340904 55.63615700218803 L 824.3789465643403 55.722102563740805 L 824.5210261069425 55.80869472154519 L 824.6611830540612 55.89592481645755 L 824.7994033901184 55.98378412554111 L 824.9356732931958 56.07226386293816 L 825.0699791364166 56.1613551807487 L 825.2023074893084 56.251049169915184 L 825.332645119146 56.34133686111345 L 825.4609789922754 56.4322092256496 L 825.5872962754161 56.52365717636293 L 825.7115843369447 56.615671568534566 L 825.8338307481591 56.70824320080196 L 825.9540232845198 56.80136281607904 L 826.0721499268735 56.89502110248188 L 826.1881988626542 56.98920869425987 L 826.3021584870651 57.083916172732344 L 826.4140174042387 57.17913406723036 L 826.5237644283766 57.27485285604382 L 826.6313885848678 57.37106296737362 L 826.7368791113862 57.467754780288786 L 826.8402254589672 57.56491862568861 L 826.9414172930622 57.662544787269525 L 827.0404444945721 57.76062350249672 L 827.137297160859 57.859144963580405 L 827.2319656067374 57.95809931845658 L 827.3244403654413 58.05747667177222 L 827.4147121895721 58.15726708587479 L 827.5027720520225 58.257460581806065 L 827.5886111468795 58.358047140299924 L 827.6722208903055 58.459016702784346 L 827.7535929213955 58.56035917238722 L 827.8327191030144 58.66206441494605 L 827.9095915226098 58.764122260021324 L 827.984202493004 58.866522501913586 L 828.056544553162 58.96925490068398 L 828.1266104689382 59.072309183178234 L 828.1943932337992 59.17567504405398 L 828.2598860695252 59.279342146811274 L 828.3230824268871 59.38330012482622 L 828.3839759863018 59.48753858238766 L 828.4425606584642 59.59204709573668 L 828.4988305849558 59.69681521410906 L 828.552780138831 59.80183246078026 L 828.6044039251793 59.907088334113126 L 828.653696781665 60.012572308608036 L 828.7006537790436 60.11827383595545 L 828.7452702216544 60.22418234609071 L 828.7875416478905 60.33028724825106 L 828.8274638306443 60.43657793203471 L 828.865032777731 60.54304376846186 L 828.900244732287 60.64967411103757 L 828.9330961731464 60.75645829681646 L 828.9635838151922 60.86338564746893 L 828.9917046096859 60.97044547034902 L 829.0174557445713 61.07762705956367 L 829.0408346447565 61.184919697043256 L 829.0618389723708 61.29231265361346 L 829.080466626999 61.399795190068104 L 829.0967157458913 61.50735655824312 L 829.1105847041492 61.614986002091314 L 829.1220721148885 61.72267275875801 L 829.1311768293776 61.830406059657264 L 829.1378979371528 61.93817513154877 L 829.1422347661088 62.04596919761514 L 829.1441868825664 62.15377747853961 M 829.1443078726223 96.4920458931 L 829.1431154127187 96.59985643801662 L 829.1395381522526 96.70765620196859 L 829.1335764489473 96.81543440506935 L 829.125230898968 96.9231802695884 L 829.1145023368628 97.03088302102908 L 829.1013918354789 97.138531889206 L 829.0859007058557 97.24611610932205 L 829.0680304970931 97.35362492304485 L 829.047782996197 97.46104757958265 L 829.0251602279009 97.5683733367593 L 829.0001644544625 97.67559146208852 L 828.9727981754385 97.78269123384712 L 828.9430641274339 97.88966194214719 L 828.9109652838288 97.99649289000702 L 828.8765048544807 98.10317339442086 L 828.8396862854039 98.20969278742717 L 828.8005132584245 98.31604041717543 L 828.7589896908128 98.42220564899125 L 828.7151197348908 98.52817786643996 L 828.6689077776174 98.6339464723881 L 828.6203584401501 98.73950089006323 L 828.569476577382 98.84483056411152 L 828.5162672774571 98.94992496165337 L 828.4607358612609 99.05477357333659 L 828.4028878818889 99.15936591438738 L 828.3427291240907 99.2636915256588 L 828.2802656036921 99.36773997467667 L 828.2155035669929 99.47150085668278 L 828.1484494901429 99.5749637956754 L 828.079110078494 99.67811844544686 L 828.0074922659293 99.78095449061813 L 827.9336032141706 99.8834616476704 L 827.8574503120616 99.98562966597338 L 827.7790411748288 100.08744832881038 L 827.6983836433207 100.18890745439998 L 827.6154857832232 100.28999689691415 L 827.5303558842534 100.39070654749288 L 827.4430024593299 100.49102633525506 L 827.3534342437227 100.59094622830548 L 827.2616601941787 100.69045623473812 L 827.1676894880263 100.78954640363527 L 827.0715315222577 100.8882068260626 L 826.9731959125896 100.9864276360601 L 826.8726924925008 101.0841990116286 L 826.7700313122497 101.18151117571202 L 826.6652226378686 101.27835439717506 L 826.5582769501377 101.37471899177628 L 826.4492049435368 101.4705953231365 L 826.3380175251755 101.56597380370249 L 826.2247258137029 101.6608448957057 L 826.109341138196 101.75519911211595 L 825.9918750370259 101.84902701759025 L 825.872339256705 101.94231922941623 L 825.7507457507118 102.03506641845047 L 825.6271066782954 102.12725931005133 L 825.50143440326 102.2188886850065 L 825.3737414927285 102.30994538045483 L 825.2440407158855 102.40042029080266 L 825.1123450427006 102.49030436863434 L 824.9786676426313 102.579588625617 L 824.8430218833064 102.66826413339936 L 824.7054213291885 102.75632202450451 L 824.5658797402186 102.84375349321674 L 824.4244110704393 102.93054979646202 L 824.2810294665995 103.01670225468237 L 824.1357492667404 103.10220225270375 L 823.9885849987605 103.18704124059762 L 823.8395513789644 103.27121073453588 L 823.6886633105895 103.3547023176393 L 823.5359358823172 103.4375076408191 L 823.3813843667629 103.51961842361202 L 823.2250242189494 103.60102645500817 L 823.0668710747611 103.68172359427226 L 822.9069407493809 103.7617017717576 L 822.7452492357077 103.84095298971312 L 822.5818127027584 103.91946932308304 L 822.4166474940498 103.99724292029944 L 822.2497701259655 104.07426600406745 L 822.081197286103 104.15053087214287 L 821.9109458316059 104.22602989810241 L 821.7390327874778 104.30075553210642 L 821.5654753448797 104.37470030165377 L 821.3902908594114 104.44785681232914 L 821.2134968493754 104.52021774854238 L 821.0351109940253 104.59177587426021 L 820.855151131798 104.66252403372968 L 820.67363525853 104.73245515219378 L 820.490581525657 104.80156223659897 L 820.3060082384001 104.86983837629438 L 820.1199338539338 104.93727674372295 L 819.9323769795419 105.0038705951041 L 819.7433563707552 105.06961327110824 L 819.5528909294774 105.13449819752252 L 819.3609997020935 105.19851888590837 L 819.1677018775667 105.26166893425032 L 818.9730167855182 105.32394202759615 L 818.776963894295 105.38533193868841 L 818.5795628090228 105.44583252858716 L 818.3808332696458 105.50543774728384 L 818.180795148952 105.56414163430621 L 817.9794684505871 105.62193831931454 L 817.776873307053 105.67882202268845 L 817.5730299776952 105.73478705610502 L 817.367958846677 105.78982782310756 L 817.1616804209402 105.84393881966523 L 816.9542153281559 105.89711463472344 L 816.7455843146602 105.94934995074503 L 816.5358082433808 106.00063954424192 L 816.3249080917498 106.0509782862975 L 816.1129049496067 106.1003611430795 L 815.899820017089 106.14878317634341 L 815.6856746025127 106.19623954392625 L 815.4704901202404 106.2427255002308 L 815.2542880885411 106.2882363967002 L 815.037090127438 106.33276768228268 L 814.818917956546 106.37631490388682 L 814.5997933929004 106.41887370682676 L 814.379738348775 106.46043983525765 L 814.158774829491 106.50100913260128 L 813.936924931216 106.54057754196174 L 813.714210838755 106.57914110653107 L 813.4906548233315 106.61669596998493 L 813.2662792403611 106.65323837686829 L 813.0411065272148 106.6887646729709 L 812.8151592009764 106.72327130569276 L 812.5884598561902 106.75675482439937 L 812.3610311626018 106.78921188076673 L 812.1328958628909 106.82063922911627 L 811.9040767703976 106.85103372673933 L 811.6745967668403 106.8803923342115 L 811.4444788000283 106.90871211569649 L 811.2137458815662 106.93599023923973 L 810.9824210845538 106.96222397705162 L 810.750527541278 106.98741070578025 L 810.5180884408999 107.0115479067737 L 810.2851270271358 107.03463316633201 L 810.0516665959328 107.05666417594847 L 809.8177304931398 107.07763873254045 L 809.5833421121719 107.09755473866979 L 809.3485248916719 107.11641020275246 L 809.1133023131663 107.13420323925777 L 808.8776978987166 107.1509320688969 L 808.6417352085683 107.16659501880085 L 808.4054378387937 107.18119052268763 L 808.1688294189327 107.19471712101905 L 807.93193360963 107.20717346114655 L 807.6947741002696 107.21855829744648 L 807.4573746066044 107.22887049144471 L 807.219758868386 107.23810901193042 L 806.9819506469903 107.24627293505928 L 806.7439737230412 107.25336144444577 L 806.5058518940328 107.25937383124486 L 806.2676089719497 107.26430949422287 L 806.0292687808853 107.26816793981763 L 805.7908551546603 107.27094878218779 L 805.5523919344386 107.27265174325143 L 805.3139029663434 107.27327665271386 L 805.0754120990729 107.27282344808465 L 804.836943181515 107.27129217468391 L 804.5985200603628 107.26868298563768 L 804.3601665777298 107.2649961418627 L 804.1219065687654 107.26023201204026 L 803.8837638592722 107.2543910725794 L 803.6457622633226 107.24747390756917 L 803.4079255808778 107.23948120872033 L 803.1702775954078 107.23041377529609 L 802.9328420715133 107.22027251403225 L 802.6956427525486 107.20905843904646 L 802.4587033582482 107.1967726717369 L 802.2220475823539 107.18341644067004 L 801.985699090246 107.16899108145788 L 801.749681516577 107.15349803662431 L 801.5140184629074 107.1369388554609 L 801.2787334953463 107.11931519387196 L 801.0438501421943 107.10062881420897 L 800.809391891591 107.08088158509435 L 800.5753821891661 107.0600754812345 L 800.3418444356947 107.03821258322252 L 800.1088019847579 107.01529507732995 L 799.8762781404062 106.99132525528832 L 799.6442961548303 106.96630551405984 L 799.4128792260357 106.94023835559778 L 799.1820504955222 106.91312638659626 L 798.9518330459706 106.88497231822961 L 798.722249898934 106.85577896588119 L 798.4933240125357 106.8255492488619 L 798.2650782791737 106.79428619011826 L 798.0375355232311 106.76199291593008 L 797.8107184987938 106.72867265559789 L 797.5846498873753 106.69432874111995 L 797.3593522956484 106.65896460685907 L 797.1348482531843 106.62258378919921 L 796.9111602102004 106.58518992619184 L 796.6883105353145 106.5467867571921 L 796.4663215133083 106.50737812248485 L 796.2452153428993 106.46696796290075 L 796.0250141345199 106.42556031942208 L 795.8057399081077 106.38315933277867 L 795.5874145909025 106.33976924303387 L 795.3700600152541 106.29539438916049 L 795.1536979164391 106.25003920860692 L 794.9383499304868 106.20370823685344 L 794.7240375920165 106.15640610695861 L 794.5107823320834 106.108137549096 L 794.298605476036 106.05890739008117 L 794.0875282413826 106.00872055288902 L 793.8775717356713 105.9575820561614 L 793.6687569543774 105.90549701370541 L 793.4611047788051 105.85247063398188 L 793.2546359739989 105.79850821958458 L 793.0493711866673 105.74361516670999 L 792.8453309431178 105.68779696461766 L 792.6425356472048 105.63105919508126 L 792.441005578289 105.5734075318305 L 792.2407608892094 105.51484773998365 L 792.0418216042677 105.45538567547108 L 791.844207617227 105.3950272844497 L 791.6479386893211 105.33377860270829 L 791.4530344472793 105.27164575506403 L 791.2595143813634 105.20863495474987 L 791.0673978434186 105.14475250279335 L 790.8767040449388 105.08000478738643 L 790.6874520551448 105.01439828324668 L 790.4996607990779 104.94793955096986 L 790.3133490557072 104.8806352363738 L 790.1285354560518 104.8124920698339 L 789.9452384813178 104.74351686560999 L 789.7634764610495 104.67371652116503 L 789.583267571298 104.6030980164753 L 789.4046298328018 104.53166841333243 L 789.2275811091858 104.4594348546372 L 789.052139105175 104.38640456368528 L 788.8783213648236 104.31258484344491 L 788.7061452697607 104.2379830758266 L 788.5356280374523 104.16260672094495 L 788.3667867194797 104.08646331637262 L 788.1996381998338 104.00956047638662 L 788.0341991932274 103.93190589120688 L 787.8704862434232 103.85350732622719 L 787.7085157215799 103.77437262123871 L 787.5483038246147 103.694509689646 L 787.3898665735835 103.61392651767568 L 787.2332198120797 103.53263116357778 L 787.0783792046489 103.45063175681996 L 786.9253602352226 103.36793649727457 L 786.7741782055703 103.28455365439865 L 786.624848233769 103.20049156640701 L 786.4773852526914 103.1157586394384 L 786.3318040085129 103.03036334671489 L 786.1881190592364 102.94431422769459 L 786.0463447732373 102.85761988721772 L 785.9064953278258 102.77028899464605 L 785.7685847078301 102.68233028299609 L 785.632626704197 102.5937525480657 L 785.498634912614 102.50456464755453 L 785.3666227321482 102.41477550017834 L 785.2366033639079 102.32439408477703 L 785.1085898097214 102.23342943941684 L 784.9825948708375 102.14189066048647 L 784.8586311466452 102.04978690178756 L 784.7367110334135 101.95712737361922 L 784.616846723052 101.86392134185704 L 784.4990502018921 101.77017812702654 L 784.3833332494877 101.67590710337106 L 784.2697074374374 101.58111769791444 L 784.1581841282281 101.48581938951821 L 784.0487744740974 101.39002170793381 L 783.9414894159197 101.29373423284954 L 783.8363396821114 101.19696659293271 L 783.7333357875584 101.09972846486664 L 783.6324880325641 101.00202957238312 L 783.53380650182 100.90387968528998 L 783.4373010633971 100.80528861849413 L 783.3429813677586 100.70626623102011 L 783.2508568467956 100.60682242502413 L 783.1609367128834 100.50696714480392 L 783.0732299579605 100.40671037580431 L 782.9877453526292 100.30606214361863 L 782.904491445279 100.20503251298624 L 782.8234765612309 100.103631586786 L 782.7447088019061 100.00186950502604 L 782.6681960440148 99.89975644382972 L 782.593945938769 99.79730261441809 L 782.5219659111175 99.69451826208869 L 782.4522631590028 99.59141366519111 L 782.3848446526423 99.48799913409913 L 782.3197171338303 99.38428501017967 L 782.2568871152644 99.28028166475868 L 782.1963608798942 99.17599949808405 L 782.1381444802927 99.07144893828554 L 782.0822437380515 98.96664044033201 L 782.028664243198 98.86158448498593 L 781.9774113536372 98.75629157775525 L 781.9284901946154 98.65077224784297 L 781.8819056582075 98.54503704709414 L 781.8376624028286 98.43909654894075 L 781.7957648527672 98.33296134734431 L 781.7562171977435 98.22664205573652 L 781.7190233924898 98.12014930595798 L 781.684187156356 98.01349374719489 L 781.6517119729363 97.90668604491427 L 781.6216010897223 97.79973687979731 L 781.593857517777 97.69265694667143 L 781.5684840314347 97.58545695344071 L 781.5454831680227 97.47814762001512 L 781.5248572276082 97.37073967723859 L 781.5066082727681 97.26324386581588 L 781.4907381283826 97.15567093523856 L 781.4772483814531 97.04803164271006 L 781.4661403809429 96.94033675206991 L 781.4574152376429 96.83259703271744 L 781.4510738240599 96.7248232585348 L 781.4471167743303 96.6170262068096 L 781.4455444841556 96.50921665715717" stroke-miterlimit="10" stroke-width="2.7769845610000004" stroke-dasharray=""/></g><g><text fill="black" stroke="none" font-family="sans-serif" font-size="11pt" font-style="normal" font-weight="normal" text-decoration="normal" x="773.9169661083333" y="124.80095321200001" text-anchor="start" dominant-baseline="alphabetic" xml:space="preserve">Database</text></g></g><g><path fill="white" stroke="black" paint-order="fill stroke markers" d=" M 214.68439683509112 183.607685092 L 231.0196001350911 183.607685092 L 231.0196001350911 520.112873072 L 214.68439683509112 520.112873072 L 214.68439683509112 183.607685092" stroke-miterlimit="10" stroke-width="1.3612669416666667" stroke-dasharray=""/><path fill="white" stroke="black" paint-order="fill stroke markers" d=" M 443.2558014481119 229.346254332 L 459.5910047481119 229.346254332 L 459.5910047481119 474.374303832 L 443.2558014481119 474.374303832 L 443.2558014481119 229.346254332" stroke-miterlimit="10" stroke-width="1.3612669416666667" stroke-dasharray=""/><path fill="white" stroke="black" paint-order="fill stroke markers" d=" M 589.5079616763671 275.084823572 L 605.8431649763672 275.084823572 L 605.8431649763672 412.300531292 L 589.5079616763671 412.300531292 L 589.5079616763671 275.084823572" stroke-miterlimit="10" stroke-width="1.3612669416666667" stroke-dasharray=""/><path fill="white" stroke="black" paint-order="fill stroke markers" d=" M 797.1273094046223 320.823392812 L 813.4625127046224 320.823392812 L 813.4625127046224 366.561962052 L 797.1273094046223 366.561962052 L 797.1273094046223 320.823392812" stroke-miterlimit="10" stroke-width="1.3612669416666667" stroke-dasharray=""/><g><g><rect fill="white" stroke="none" x="46.63142706053385" y="162.371920802" width="145.0651575476172" height="21.23576429"/></g><text fill="black" stroke="none" font-family="sans-serif" font-size="11pt" font-style="normal" font-weight="normal" text-decoration="normal" x="49.08170755553385" y="177.07360377199998" text-anchor="start" dominant-baseline="alphabetic" xml:space="preserve">Go to Entity List page</text></g><g><path fill="none" stroke="black" paint-order="fill stroke markers" d=" M 23.64361483359375 183.607685092 L 201.23507945142444 183.607685092" stroke-miterlimit="10" stroke-width="1.3612669416666667" stroke-dasharray=""/><g transform="translate(214.68439683509112,183.607685092) translate(-214.68439683509112,-183.607685092)"><path fill="black" stroke="none" paint-order="stroke fill markers" d=" M 201.07172741842444 176.80135038366666 L 214.68439683509112 183.607685092 L 201.07172741842444 190.41401980033334 Z"/></g></g><g><g><rect fill="white" stroke="none" x="262.57217829220696" y="208.110490042" width="149.13104499878906" height="21.23576429"/></g><text fill="black" stroke="none" font-family="sans-serif" font-size="11pt" font-style="normal" font-weight="normal" text-decoration="normal" x="265.022458787207" y="222.812173012" text-anchor="start" dominant-baseline="alphabetic" xml:space="preserve">GET: api/{entityName}</text></g><g><path fill="none" stroke="black" paint-order="fill stroke markers" d=" M 231.0196001350911 229.346254332 L 429.80648406444527 229.346254332" stroke-miterlimit="10" stroke-width="1.3612669416666667" stroke-dasharray=""/><g transform="translate(443.2558014481119,229.346254332) translate(-443.2558014481119,-229.346254332)"><path fill="black" stroke="none" paint-order="stroke fill markers" d=" M 429.64313203144525 222.53991962366666 L 443.2558014481119 229.346254332 L 429.64313203144525 236.15258904033334 Z"/></g></g><g><g><rect fill="white" stroke="none" x="478.9209953197785" y="253.849059282" width="91.25697578492188" height="21.23576429"/></g><text fill="black" stroke="none" font-family="sans-serif" font-size="11pt" font-style="normal" font-weight="normal" text-decoration="normal" x="481.3712758147785" y="268.550742252" text-anchor="start" dominant-baseline="alphabetic" xml:space="preserve">getAllActive()</text></g><g><path fill="none" stroke="black" paint-order="fill stroke markers" d=" M 459.5910047481119 275.084823572 L 576.0586442927005 275.084823572" stroke-miterlimit="10" stroke-width="1.3612669416666667" stroke-dasharray=""/><g transform="translate(589.5079616763671,275.084823572) translate(-589.5079616763671,-275.084823572)"><path fill="black" stroke="none" paint-order="stroke fill markers" d=" M 575.8952922597005 268.27848886366667 L 589.5079616763671 275.084823572 L 575.8952922597005 281.89115828033334 Z"/></g></g><g><g><rect fill="white" stroke="none" x="625.1731555480338" y="299.587628522" width="152.62416328492188" height="21.23576429"/></g><text fill="black" stroke="none" font-family="sans-serif" font-size="11pt" font-style="normal" font-weight="normal" text-decoration="normal" x="627.6234360430338" y="314.28931149199997" text-anchor="start" dominant-baseline="alphabetic" xml:space="preserve">findAllByActiveIsTrue()</text></g><g><path fill="none" stroke="black" paint-order="fill stroke markers" d=" M 605.8431649763672 320.823392812 L 783.6779920209557 320.823392812" stroke-miterlimit="10" stroke-width="1.3612669416666667" stroke-dasharray=""/><g transform="translate(797.1273094046223,320.823392812) translate(-797.1273094046223,-320.823392812)"><path fill="black" stroke="none" paint-order="stroke fill markers" d=" M 783.5146399879557 314.01705810366667 L 797.1273094046223 320.823392812 L 783.5146399879557 327.62972752033335 Z"/></g></g><g><g><rect fill="white" stroke="none" x="669.7078464049674" y="345.326197762" width="63.55478157105469" height="21.23576429"/></g><text fill="black" stroke="none" font-family="sans-serif" font-size="11pt" font-style="normal" font-weight="normal" text-decoration="normal" x="672.1581268999674" y="360.02788073199997" text-anchor="start" dominant-baseline="alphabetic" xml:space="preserve">Entity list</text></g><g><path fill="none" stroke="black" paint-order="fill stroke markers" d=" M 797.1273094046223 366.561962052 L 619.2924823600339 366.561962052" stroke-miterlimit="10" stroke-width="1.3612669416666667" stroke-dasharray="6.53408132"/><g transform="translate(605.8431649763672,366.561962052) translate(-605.8431649763672,-366.561962052)"><path fill="black" stroke="none" paint-order="stroke fill markers" d=" M 619.4558343930339 359.7556273436667 L 605.8431649763672 366.561962052 L 619.4558343930339 373.36829676033335 Z"/></g></g><g><g><rect fill="white" stroke="none" x="492.7720924267121" y="391.064767002" width="63.55478157105469" height="21.23576429"/></g><text fill="black" stroke="none" font-family="sans-serif" font-size="11pt" font-style="normal" font-weight="normal" text-decoration="normal" x="495.2223729217121" y="405.766449972" text-anchor="start" dominant-baseline="alphabetic" xml:space="preserve">Entity list</text></g><g><path fill="none" stroke="black" paint-order="fill stroke markers" d=" M 589.5079616763671 412.300531292 L 473.04032213177857 412.300531292" stroke-miterlimit="10" stroke-width="1.3612669416666667" stroke-dasharray="6.53408132"/><g transform="translate(459.5910047481119,412.300531292) translate(-459.5910047481119,-412.300531292)"><path fill="black" stroke="none" paint-order="stroke fill markers" d=" M 473.2036741647786 405.4941965836667 L 459.5910047481119 412.300531292 L 473.2036741647786 419.10686600033335 Z"/></g></g><g><g><rect fill="white" stroke="none" x="250.34959070675777" y="436.803336242" width="54.61422981324219" height="21.23576429"/></g><g><rect fill="white" stroke="none" x="250.34959070675777" y="453.138539542" width="173.5762201696875" height="21.23576429"/></g><text fill="green" stroke="none" font-family="sans-serif" font-size="11pt" font-style="normal" font-weight="normal" text-decoration="normal" x="252.79987120175775" y="451.505019212" text-anchor="start" dominant-baseline="alphabetic" xml:space="preserve">200 OK</text><text fill="green" stroke="none" font-family="sans-serif" font-size="11pt" font-style="normal" font-weight="normal" text-decoration="normal" x="252.79987120175775" y="467.84022251199997" text-anchor="start" dominant-baseline="alphabetic" xml:space="preserve">Response body: Entity list</text></g><g><path fill="none" stroke="black" paint-order="fill stroke markers" d=" M 443.2558014481119 474.374303832 L 244.4689175187578 474.374303832" stroke-miterlimit="10" stroke-width="1.3612669416666667" stroke-dasharray="6.53408132"/><g transform="translate(231.0196001350911,474.374303832) translate(-231.0196001350911,-474.374303832)"><path fill="black" stroke="none" paint-order="stroke fill markers" d=" M 244.6322695517578 467.56796912366667 L 231.0196001350911 474.374303832 L 244.6322695517578 481.18063854033335 Z"/></g></g><g><g><rect fill="white" stroke="none" x="42.973605405260415" y="498.87710878199994" width="152.38080085816406" height="21.23576429"/></g><text fill="black" stroke="none" font-family="sans-serif" font-size="11pt" font-style="normal" font-weight="normal" text-decoration="normal" x="45.423885900260416" y="513.5787917519999" text-anchor="start" dominant-baseline="alphabetic" xml:space="preserve">Display Entity list page</text></g><g><path fill="none" stroke="black" paint-order="fill stroke markers" d=" M 214.68439683509112 520.112873072 L 37.09293221726042 520.112873072" stroke-miterlimit="10" stroke-width="1.3612669416666667" stroke-dasharray="6.53408132"/><g transform="translate(23.64361483359375,520.112873072) translate(-23.64361483359375,-520.112873072)"><path fill="black" stroke="none" paint-order="stroke fill markers" d=" M 37.25628425026042 513.3065383636666 L 23.64361483359375 520.112873072 L 37.25628425026042 526.9192077803333 Z"/></g></g></g></g></svg>