<svg version="1.1" xmlns="http://www.w3.org/2000/svg" xmlns:xlink="http://www.w3.org/1999/xlink" width="918" height="1229"><desc>%20title%20Update%20Entity%0A%0Aactor%20%23green%3A0.5%20%22Workspace%20Admin%22%20as%20w%0Aboundary%20%22FUniverse%20Admin%20Client%22%20as%20f%0Acontrol%20%22Entity%20Controller%22%20as%20gc%0Aparticipant%20%22Entity%20Service%22%20as%20gs%0Adatabase%20%23blue%3A1%20%22Database%22%20as%20db%0A%0Aw-%3Ef%3AGo%20to%20Entity%20detail%20page%0Aactivate%20f%0Aw-%3Ef%3AClick%20Edit%20button%0Aw%3C--f%3ADisplay%20Update%20Entity%20popup%0Aw-%3Ef%3AType%20information%20of%20Entity%0Af-%3Ef%3AValidate%20input%20data%0Aactivate%20f%0Af--%3Ef%3A%20Validate%20value%0Adeactivate%20f%0Aalt%20If%20the%20input%20data%20is%20wrong%0Aw%3C--f%3AValidate%20Message%0Aend%0Aw-%3Ef%3A%20Click%20button%20Save%0Af-%3Egc%3APUT%3A%20%2Fapi%2F%7Bentity%7D%0Aactivate%20gc%0Aalt%20If%20there%20is%20required%20field%20do%20not%20have%20value%0Af%3C--gc%3A%3Ccolor%3A%23red%3E400%20BAD_REQUEST%3A%20%5CnMissing%20required%20property%3C%2Fcolor%3E%0Aw%3C--f%3AMessage%20is%20required%0Aelse%0Agc-%3Egs%3Asave()%0Aactivate%20gs%0Ags-%3Edb%3AUpdate%20Entity%0Aactivate%20db%0Ags%3C--db%3AEntity%20data%0Adeactivate%20db%0Agc%3C--gs%3AEntity%20data%0Adeactivate%20gs%0Af%3C--gc%3A%3Ccolor%3A%23green%3E200%20OK%5CnResponse%20body%3A%20Entity%20data%3C%2Fcolor%3E%0Adeactivate%20gc%0Aw%3C--f%3A%20Display%20Entity%20detail%20page%0Adeactivate%20f%0Aend</desc><defs/><g><g/><g/><g/><g/><g/><g/><g/><g/><g/><g/><g/><g/><g/><g/><g/><g/><g/><g/><g/><g/><g/><g/><g/><g/><g><rect fill="white" stroke="none" x="0" y="0" width="918" height="1229"/></g><g><text fill="black" stroke="none" font-family="sans-serif" font-size="16.5pt" font-style="normal" font-weight="normal" text-decoration="normal" x="393.04998480333586" y="24.50280495" text-anchor="start" dominant-baseline="alphabetic" xml:space="preserve">Update Entity</text></g><g/><g><path fill="none" stroke="black" paint-order="fill stroke markers" d=" M 73.50841485 129.701514202 L 73.50841485 1229.0606962919996" stroke-miterlimit="10" stroke-width="1.3612669416666667" stroke-dasharray="12.565541,5.445067766666667"/><path fill="none" stroke="black" paint-order="fill stroke markers" d=" M 310.22575541067704 129.701514202 L 310.22575541067704 1229.0606962919996" stroke-miterlimit="10" stroke-width="1.3612669416666667" stroke-dasharray="12.565541,5.445067766666667"/><path fill="none" stroke="black" paint-order="fill stroke markers" d=" M 557.5803775184244 129.701514202 L 557.5803775184244 1229.0606962919996" stroke-miterlimit="10" stroke-width="1.3612669416666667" stroke-dasharray="12.565541,5.445067766666667"/><path fill="none" stroke="black" paint-order="fill stroke markers" d=" M 688.5934084790025 129.701514202 L 688.5934084790025 1229.0606962919996" stroke-miterlimit="10" stroke-width="1.3612669416666667" stroke-dasharray="12.565541,5.445067766666667"/><path fill="none" stroke="black" paint-order="fill stroke markers" d=" M 836.4991484191718 129.701514202 L 836.4991484191718 1229.0606962919996" stroke-miterlimit="10" stroke-width="1.3612669416666667" stroke-dasharray="12.565541,5.445067766666667"/></g><g><g><path fill="white" stroke="green" paint-order="fill stroke markers" d=" M 82.819480731 60.60360424300001 A 9.311065881 9.311065881 0 1 1 82.81947607546743 60.594293178670846 M 73.50841485 69.91467012400001 L 73.50841485 89.84361815000001 M 61.747068473999995 77.102159576 L 85.26976122599999 77.102159576 M 73.50841485 89.84361815000001 L 61.747068473999995 108.465749912 M 73.50841485 89.84361815000001 L 85.26976122599999 108.465749912" stroke-miterlimit="10" stroke-width="1.3884922805000002" stroke-dasharray=""/></g><g><text fill="black" stroke="none" font-family="sans-serif" font-size="11pt" font-style="normal" font-weight="normal" text-decoration="normal" x="14.166991815332025" y="124.80095321200001" text-anchor="start" dominant-baseline="alphabetic" xml:space="preserve">Workspace Admin</text></g><g><path fill="white" stroke="black" paint-order="fill stroke markers" d=" M 342.65113396117704 82.819480731 A 24.2577769005 24.2577769005 0 1 1 342.6511218322896 82.79522295814245 M 279.188869140677 57.17321154999999 L 279.188869140677 108.465749912 M 277.80037686017704 82.819480731 L 294.135580160177 82.819480731" stroke-miterlimit="10" stroke-width="2.7769845610000004" stroke-dasharray=""/></g><g><text fill="black" stroke="none" font-family="sans-serif" font-size="11pt" font-style="normal" font-weight="normal" text-decoration="normal" x="233.2358033232747" y="124.80095321200001" text-anchor="start" dominant-baseline="alphabetic" xml:space="preserve">FUniverse Admin Client</text></g><g><path fill="white" stroke="black" paint-order="fill stroke markers" d=" M 581.8381544189243 82.819480731 A 24.2577769005 24.2577769005 0 1 1 581.8381422900369 82.79522295814245 M 554.3133368584243 58.561703830499994 L 564.1144588384243 50.39410218049999 M 554.3133368584243 58.561703830499994 L 564.1144588384243 66.72930548049999" stroke-miterlimit="10" stroke-width="2.7769845610000004" stroke-dasharray=""/></g><g><text fill="black" stroke="none" font-family="sans-serif" font-size="11pt" font-style="normal" font-weight="normal" text-decoration="normal" x="505.43652528453765" y="124.80095321200001" text-anchor="start" dominant-baseline="alphabetic" xml:space="preserve">Entity Controller</text></g><path fill="none" stroke="none"/><g><path fill="white" stroke="black" paint-order="fill stroke markers" d=" M 626.0594330523111 85.75981732500001 L 751.1273839056939 85.75981732500001 L 751.1273839056939 129.701514202 L 626.0594330523111 129.701514202 L 626.0594330523111 85.75981732500001 Z" stroke-miterlimit="10" stroke-width="2.613632528" stroke-dasharray=""/></g><g><text fill="black" stroke="none" font-family="sans-serif" font-size="11pt" font-style="normal" font-weight="normal" text-decoration="normal" x="643.7831286328111" y="113.36631090200002" text-anchor="start" dominant-baseline="alphabetic" xml:space="preserve">Entity Service</text></g><g><path fill="white" stroke="blue" paint-order="fill stroke markers" d=" M 812.6497516011718 97.684515734 L 812.6497516011718 63.380588804000006 L 860.3485452371717 63.380588804000006 L 860.3485452371717 97.684515734" stroke-miterlimit="10" stroke-width="2.7769845610000004" stroke-dasharray=""/><path fill="white" stroke="blue" paint-order="fill stroke markers" d=" M 860.3485452371717 62.1881189631 L 860.347352777268 62.29592950801663 L 860.343775516802 62.403729271968594 L 860.3378138134967 62.51150747506936 L 860.3294682635174 62.619253339588404 L 860.3187397014121 62.72695609102909 L 860.3056292000283 62.834604959206004 L 860.2901380704051 62.94218917932205 L 860.2722678616425 63.04969799304486 L 860.2520203607464 63.15712064958265 L 860.2293975924503 63.2644464067593 L 860.2044018190119 63.371664532088516 L 860.1770355399879 63.47876430384712 L 860.1473014919833 63.58573501214718 L 860.1152026483782 63.692565960007016 L 860.0807422190301 63.79924646442086 L 860.0439236499533 63.90576585742718 L 860.0047506229739 64.01211348717543 L 859.9632270553622 64.11827871899126 L 859.9193570994402 64.22425093643996 L 859.8731451421668 64.3300195423881 L 859.8245958046995 64.43557396006322 L 859.7737139419314 64.54090363411153 L 859.7205046420065 64.64599803165338 L 859.6649732258103 64.75084664333659 L 859.6071252464383 64.85543898438739 L 859.5469664886401 64.95976459565881 L 859.4845029682415 65.06381304467668 L 859.4197409315423 65.16757392668278 L 859.3526868546923 65.27103686567541 L 859.2833474430433 65.37419151544687 L 859.2117296304787 65.47702756061814 L 859.13784057872 65.5795347176704 L 859.061687676611 65.68170273597339 L 858.9832785393781 65.7835213988104 L 858.90262100787 65.88498052439998 L 858.8197231477726 65.98606996691414 L 858.7345932488028 66.08677961749288 L 858.6472398238793 66.18709940525505 L 858.5576716082721 66.28701929830548 L 858.4658975587281 66.38652930473813 L 858.3719268525756 66.48561947363528 L 858.2757688868071 66.58427989606261 L 858.177433277139 66.6825007060601 L 858.0769298570501 66.7802720816286 L 857.974268676799 66.87758424571203 L 857.869460002418 66.97442746717506 L 857.7625143146871 67.07079206177627 L 857.6534423080861 67.1666683931365 L 857.5422548897249 67.2620468737025 L 857.4289631782523 67.35691796570569 L 857.3135785027454 67.45127218211596 L 857.1961124015753 67.54510008759026 L 857.0765766212544 67.63839229941624 L 856.9549831152611 67.73113948845047 L 856.8313440428448 67.82333238005134 L 856.7056717678093 67.9149617550065 L 856.5779788572779 68.00601845045483 L 856.4482780804349 68.09649336080267 L 856.3165824072499 68.18637743863435 L 856.1829050071807 68.27566169561702 L 856.0472592478558 68.36433720339936 L 855.9096586937379 68.45239509450451 L 855.770117104768 68.53982656321674 L 855.6286484349887 68.62662286646201 L 855.4852668311489 68.71277532468237 L 855.3399866312898 68.79827532270376 L 855.1928223633099 68.88311431059763 L 855.0437887435138 68.9672838045359 L 854.8929006751389 69.0507753876393 L 854.7401732468666 69.13358071081912 L 854.5856217313124 69.21569149361203 L 854.4292615834988 69.29709952500816 L 854.2711084393105 69.37779666427225 L 854.1111781139302 69.45777484175761 L 853.949486600257 69.53702605971311 L 853.7860500673078 69.61554239308303 L 853.6208848585992 69.69331599029945 L 853.4540074905149 69.77033907406746 L 853.2854346506524 69.84660394214286 L 853.1151831961553 69.92210296810242 L 852.9432701520271 69.99682860210643 L 852.7697127094291 70.07077337165379 L 852.5945282239608 70.14392988232913 L 852.4177342139247 70.21629081854239 L 852.2393483585747 70.28784894426022 L 852.0593884963474 70.35859710372968 L 851.8778726230794 70.42852822219379 L 851.6948188902064 70.49763530659898 L 851.5102456029495 70.5659114462944 L 851.3241712184832 70.63334981372294 L 851.1366143440913 70.69994366510412 L 850.9475937353046 70.76568634110825 L 850.7571282940268 70.83057126752253 L 850.5652370666429 70.89459195590838 L 850.3719392421161 70.95774200425032 L 850.1772541500676 71.02001509759614 L 849.9812012588444 71.08140500868842 L 849.7838001735722 71.14190559858717 L 849.5850706341952 71.20151081728383 L 849.3850325135014 71.26021470430622 L 849.1837058151365 71.31801138931453 L 848.9811106716024 71.37489509268845 L 848.7772673422446 71.43086012610503 L 848.5721962112264 71.48590089310757 L 848.3659177854896 71.54001188966522 L 848.1584526927053 71.59318770472345 L 847.9498216792095 71.64542302074504 L 847.7400456079301 71.69671261424193 L 847.5291454562991 71.7470513562975 L 847.3171423141561 71.79643421307951 L 847.1040573816384 71.84485624634341 L 846.8899119670621 71.89231261392625 L 846.6747274847897 71.93879857023082 L 846.4585254530905 71.9843094667002 L 846.2413274919874 72.02884075228269 L 846.0231553210954 72.07238797388683 L 845.8040307574498 72.11494677682676 L 845.5839757133244 72.15651290525764 L 845.3630121940404 72.19708220260128 L 845.1411622957654 72.23665061196175 L 844.9184482033044 72.27521417653107 L 844.6948921878809 72.31276903998494 L 844.4705166049105 72.3493114468683 L 844.2453438917642 72.38483774297092 L 844.0193965655258 72.41934437569277 L 843.7926972207396 72.45282789439938 L 843.5652685271511 72.48528495076673 L 843.3371332274403 72.51671229911628 L 843.108314134947 72.54710679673934 L 842.8788341313897 72.5764654042115 L 842.6487161645776 72.60478518569649 L 842.4179832461156 72.63206330923974 L 842.1866584491032 72.65829704705163 L 841.9547649058273 72.68348377578025 L 841.7223258054493 72.70762097677371 L 841.4893643916852 72.73070623633201 L 841.2559039604822 72.75273724594847 L 841.0219678576892 72.77371180254045 L 840.7875794767212 72.79362780866978 L 840.5527622562213 72.81248327275246 L 840.3175396777157 72.83027630925778 L 840.081935263266 72.84700513889692 L 839.8459725731177 72.86266808880085 L 839.609675203343 72.87726359268764 L 839.373066783482 72.89079019101906 L 839.1361709741794 72.90324653114655 L 838.899011464819 72.91463136744649 L 838.6616119711538 72.9249435614447 L 838.4239962329353 72.93418208193043 L 838.1861880115397 72.94234600505929 L 837.9482110875906 72.94943451444577 L 837.7100892585822 72.95544690124485 L 837.4718463364991 72.96038256422287 L 837.2335061454347 72.96424100981763 L 836.9950925192097 72.9670218521878 L 836.756629298988 72.96872481325143 L 836.5181403308928 72.96934972271386 L 836.2796494636223 72.96889651808466 L 836.0411805460644 72.96736524468392 L 835.8027574249122 72.96475605563768 L 835.5644039422792 72.96106921186271 L 835.3261439333148 72.95630508204027 L 835.0880012238216 72.9504641425794 L 834.849999627872 72.94354697756918 L 834.6121629454271 72.93555427872033 L 834.3745149599572 72.9264868452961 L 834.1370794360627 72.91634558403224 L 833.899880117098 72.90513150904647 L 833.6629407227975 72.89284574173689 L 833.4262849469033 72.87948951067006 L 833.1899364547954 72.86506415145789 L 832.9539188811264 72.84957110662431 L 832.7182558274568 72.8330119254609 L 832.4829708598957 72.81538826387197 L 832.2480875067437 72.79670188420899 L 832.0136292561403 72.77695465509434 L 831.7796195537155 72.7561485512345 L 831.5460818002441 72.73428565322251 L 831.3130393493072 72.71136814732996 L 831.0805155049555 72.68739832528833 L 830.8485335193797 72.66237858405984 L 830.617116590585 72.63631142559778 L 830.3862878600715 72.60919945659627 L 830.15607041052 72.58104538822961 L 829.9264872634834 72.55185203588118 L 829.6975613770851 72.5216223188619 L 829.4693156437231 72.49035926011825 L 829.2417728877805 72.45806598593009 L 829.0149558633432 72.4247457255979 L 828.7888872519247 72.39040181111994 L 828.5635896601977 72.35503767685907 L 828.3390856177336 72.31865685919922 L 828.1153975747497 72.28126299619186 L 827.8925478998639 72.24285982719209 L 827.6705588778577 72.20345119248485 L 827.4494527074487 72.16304103290075 L 827.2292514990693 72.12163338942209 L 827.0099772726571 72.07923240277869 L 826.7916519554519 72.03584231303388 L 826.5742973798035 71.99146745916049 L 826.3579352809885 71.94611227860693 L 826.1425872950362 71.89978130685344 L 825.9282749565659 71.85247917695861 L 825.7150196966328 71.80421061909601 L 825.5028428405853 71.75498046008119 L 825.291765605932 71.70479362288901 L 825.0818091002207 71.65365512616141 L 824.8729943189268 71.60157008370541 L 824.6653421433545 71.54854370398188 L 824.4588733385483 71.49458128958457 L 824.2536085512166 71.43968823671 L 824.0495683076672 71.38387003461766 L 823.8467730117542 71.32713226508127 L 823.6452429428384 71.26948060183051 L 823.4449982537587 71.21092080998365 L 823.2460589688171 71.15145874547107 L 823.0484449817764 71.0911003544497 L 822.8521760538705 71.0298516727083 L 822.6572718118287 70.96771882506403 L 822.4637517459128 70.90470802474988 L 822.271635207968 70.84082557279336 L 822.0809414094882 70.77607785738643 L 821.8916894196942 70.71047135324669 L 821.7038981636273 70.64401262096986 L 821.5175864202566 70.5767083063738 L 821.3327728206012 70.50856513983389 L 821.1494758458672 70.43958993560999 L 820.967713825599 70.36978959116503 L 820.7875049358474 70.29917108647531 L 820.6088671973512 70.22774148333244 L 820.4318184737352 70.1555079246372 L 820.2563764697244 70.08247763368529 L 820.082558729373 70.00865791344492 L 819.91038263431 69.9340561458266 L 819.7398654020017 69.85867979094495 L 819.5710240840291 69.78253638637263 L 819.4038755643832 69.70563354638664 L 819.2384365577768 69.62797896120689 L 819.0747236079726 69.54958039622719 L 818.9127530861293 69.47044569123871 L 818.752541189164 69.39058275964601 L 818.5941039381329 69.30999958767568 L 818.4374571766291 69.22870423357777 L 818.2826165691982 69.14670482681996 L 818.1295975997718 69.06400956727457 L 817.9784155701196 68.98062672439866 L 817.8290855983183 68.89656463640702 L 817.6816226172408 68.8118317094384 L 817.5360413730623 68.72643641671489 L 817.3923564237858 68.6403872976946 L 817.2505821377866 68.55369295721772 L 817.1107326923752 68.46636206464606 L 816.9728220723795 68.37840335299609 L 816.8368640687464 68.28982561806569 L 816.7028722771634 68.20063771755453 L 816.5708600966976 68.11084857017835 L 816.4408407284573 68.02046715477704 L 816.3128271742708 67.92950250941684 L 816.1868322353869 67.83796373048648 L 816.0628685111946 67.74585997178757 L 815.9409483979629 67.65320044361923 L 815.8210840876014 67.55999441185705 L 815.7032875664415 67.46625119702654 L 815.5875706140371 67.37198017337107 L 815.4739448019868 67.27719076791445 L 815.3624214927775 67.18189245951821 L 815.2530118386468 67.08609477793381 L 815.1457267804691 66.98980730284956 L 815.0405770466608 66.89303966293272 L 814.9375731521078 66.79580153486665 L 814.8367253971135 66.69810264238313 L 814.7380438663694 66.59995275528999 L 814.6415384279464 66.50136168849414 L 814.547218732308 66.40233930102012 L 814.455094211345 66.30289549502413 L 814.3651740774328 66.20304021480393 L 814.2774673225099 66.1027834458043 L 814.1919827171786 66.00213521361863 L 814.1087288098283 65.90110558298623 L 814.0277139257803 65.799704656786 L 813.9489461664555 65.69794257502603 L 813.8724334085642 65.59582951382973 L 813.7981833033184 65.4933756844181 L 813.7262032756669 65.3905913320887 L 813.6565005235522 65.28748673519112 L 813.5890820171917 65.18407220409914 L 813.5239544983797 65.08035808017966 L 813.4611244798137 64.97635473475869 L 813.4005982444436 64.87207256808405 L 813.3423818448421 64.76752200828555 L 813.2864811026009 64.66271351033203 L 813.2329016077474 64.55765755498592 L 813.1816487181866 64.45236464775525 L 813.1327275591648 64.34684531784296 L 813.0861430227569 64.24111011709415 L 813.041899767378 64.13516961894075 L 813.0000022173166 64.0290344173443 L 812.9604545622929 63.92271512573653 L 812.9232607570392 63.81622237595798 L 812.8884245209053 63.70956681719489 L 812.8559493374856 63.602759114914264 L 812.8258384542717 63.49580994979732 L 812.7980948823264 63.38873001667144 L 812.772721395984 63.28153002344071 L 812.749720532572 63.17422069001512 L 812.7290945921576 63.066812747238586 L 812.7108456373174 62.959316935815885 L 812.694975492932 62.85174400523857 L 812.6814857460025 62.74410471271006 L 812.6703777454923 62.636409822069915 L 812.6616526021922 62.52867010271744 L 812.6553111886093 62.4208963285348 L 812.6513541388797 62.313099276809595 L 812.649781848705 62.20528972715717 L 812.6505944753129 62.09747846044265 L 812.6537919374415 61.98967625770286 L 812.6593739153471 61.88189389906824 L 812.6673398508368 61.77414216268484 L 812.6776889473235 61.66643182363649 L 812.6904201699064 61.558773652867366 L 812.7055322454735 61.4511784161048 L 812.7230236628301 61.34365687278283 L 812.7428926728489 61.236219774966166 L 812.7651372886455 61.12887786627507 L 812.789755285777 61.02164188081096 L 812.816744202464 60.91452254208302 L 812.8461013398373 60.807530561935856 L 812.8778237622079 60.70067663947832 L 812.9119082973598 60.593971460013606 L 812.9483515368678 60.487425693970756 L 812.9871498364386 60.381049995837586 L 813.0282993162742 60.27485500309525 L 813.0717958614613 60.16885133515453 L 813.1176351223813 60.06304959229389 L 813.1658125151465 59.95746035459945 L 813.2163232220578 59.852094180906974 L 813.2691621920864 59.746961607746044 L 813.3243241413795 59.64207314828636 L 813.3818035537881 59.537439291286454 L 813.4415946814189 59.43307050004484 L 813.5036915452088 59.32897721135367 L 813.5680879355233 59.22516983445505 L 813.6347774127771 59.12165875000019 L 813.7037533080779 59.01845430901127 L 813.7750087238937 58.91556683184637 L 813.8485365347424 58.81300660716748 L 813.924329387904 58.7107838909116 L 814.0023797041564 58.60890890526517 L 814.0826796785332 58.507391837641855 L 814.1652212811035 58.406242839663825 L 814.2499962577763 58.30547202614659 L 814.3369961311242 58.205089474087515 L 814.4262122012326 58.105105221658164 L 814.5176355465687 58.00552926720046 L 814.6112570248742 57.90637156822687 L 814.7070672740792 57.807642040424646 L 814.8050567132389 57.709350556664305 L 814.9052155434907 57.61150694601232 L 815.0075337490352 57.514120992748204 L 815.1120010981371 57.417202435386145 L 815.2186071441486 57.320760965701105 L 815.3273412265538 57.224806227759686 L 815.4381924720351 57.12934781695572 L 815.5511497955605 57.03439527905074 L 815.6662019014916 56.93995810921942 L 815.7833372847138 56.84604575110002 L 815.9025442317861 56.75266759585011 L 816.0238108221135 56.65983298120741 L 816.147124929138 56.567551190555996 L 816.2724742215514 56.47583145199805 L 816.3998461645291 56.384682937430995 L 816.5292280209829 56.29411476163032 L 816.660606852835 56.20413598133814 L 816.7939695223116 56.1147555943575 L 816.929302693257 56.02598253865261 L 817.0665928324669 55.937825691455075 L 817.2058262110417 55.85029386837614 L 817.3469889057595 55.763395822525176 L 817.4900668004686 55.677140243634355 L 817.6350455874988 55.591535757189675 L 817.7819107690921 55.50659092356846 L 817.9306476588528 55.42231423718327 L 818.0812413832157 55.33871412563253 L 818.2336768829341 55.25579894885771 L 818.3879389145849 55.1735769983074 L 818.5440120520935 55.092056496108135 L 818.7018806882763 55.01124559424221 L 818.8615290364013 54.93115237373246 L 819.0229411317664 54.851784843834196 L 819.1861008332969 54.77315094123426 L 819.3509918251584 54.6952585292574 L 819.5175976183893 54.61811539707989 L 819.6859015525491 54.54172925895067 L 819.8558867973844 54.46610775341989 L 820.0275363545127 54.391258442575094 L 820.2008330591211 54.317188811284986 L 820.3757595816836 54.24390626645098 L 820.5522984296938 54.171418136266475 L 820.7304319494139 54.09973166948409 L 820.9101423276404 54.028854034690774 L 821.0914115934853 53.95879231959093 L 821.274221620173 53.88955353029769 L 821.4585541268532 53.82114459063227 L 821.644390680429 53.753572341431656 L 821.8317126973996 53.68684353986444 L 822.0205014457194 53.62096485875517 L 822.2107380466713 53.55594288591707 L 822.4024034767534 53.49178412349323 L 822.5954785695825 53.42849498730643 L 822.7899440178102 53.366081806217544 L 822.9857803750538 53.304550821492676 L 823.1829680578405 53.24390818617902 L 823.3814873475668 53.18415996448957 L 823.5813183924688 53.12531213119671 L 823.7824412096086 53.067370571034715 L 823.9848356868722 53.01034107811134 L 824.1884815849805 52.95422935532834 L 824.3933585395133 52.89904101381123 L 824.599446062946 52.84478157234818 L 824.8067235466979 52.79145645683812 L 825.0151702631933 52.73907099974815 L 825.2247653679345 52.687630439580346 L 825.4354879015855 52.637139920347835 L 825.6473167920685 52.58760449106049 L 825.8602308566711 52.53902910521993 L 826.0742088041643 52.49141862032429 L 826.2892292369315 52.444777797382365 L 826.5052706531087 52.399111300437596 L 826.7223114487342 52.354423696101605 L 826.9403299199096 52.3107194530976 L 827.1593042649691 52.26800294181345 L 827.379212586661 52.2262784338647 L 827.6000328943361 52.18555010166736 L 827.8217431061478 52.14582201802072 L 828.0443210512597 52.10709815570004 L 828.2677444720626 52.06938238705927 L 828.4919910264008 52.032678483643856 L 828.7170382898057 51.996990115813546 L 828.9428637577385 51.96232085237539 L 829.1694448478405 51.928674160226834 L 829.3967589021917 51.89605340400906 L 829.6247831895757 51.8644618457705 L 829.8534949077542 51.833902644640645 L 830.0828711857458 51.80437885651416 L 830.312889086114 51.775893433745246 L 830.5435256072601 51.74844922485244 L 830.7747576857245 51.722048974233765 L 831.0065621984918 51.69669532189228 L 831.2389159653042 51.672390803172085 L 831.4717957509783 51.649137848504814 L 831.7051782677299 51.626938783166544 L 831.9390401775017 51.60579582704531 L 832.1733580942976 51.58571109441911 L 832.408108586521 51.56668659374447 L 832.6432681793186 51.54872422745561 L 832.878813356927 51.53182579177417 L 833.1147205650246 51.515992976529645 L 833.3509662130874 51.50122736499037 L 833.5875266767472 51.4875304337052 L 833.824378300155 51.47490355235584 L 834.0614973983456 51.4633479836199 L 834.2988602596071 51.45286488304463 L 834.5364431478508 51.443455298931354 L 834.7742223049861 51.43512017223063 L 835.0121739532955 51.4278603364482 L 835.2502742978122 51.42167651756158 L 835.4884995287003 51.41656933394751 L 835.7268258236354 51.41253929632009 L 835.9652293501864 51.40958680767973 L 836.2036862681992 51.407712163272826 L 836.4421727321811 51.40691555056227 L 836.6806648936841 51.40719704920866 L 836.919138903691 51.40855663106237 L 837.1575709149994 51.41099416016634 L 837.3959370846069 51.414509392769695 L 837.6342135760951 51.419101977352106 L 837.8723765620136 51.42477145465894 L 838.1104022262622 51.431517257747196 L 838.3482667664726 51.43933871204218 L 838.5859463963893 51.44823503540498 L 838.8234173482474 51.45820533821068 L 839.0606558751493 51.4692486234373 L 839.2976382534403 51.48136378676553 L 839.5343407850798 51.49454961668913 L 839.7707398000122 51.50880479463608 L 840.0068116585328 51.524127895100484 L 840.2425327536524 51.54051738578506 L 840.4778795134581 51.5579716277544 L 840.71282840347 51.57648887559884 L 840.9473559289947 51.59606727760904 L 841.1814386374755 51.6167048759611 L 841.4150531208362 51.6383996069124 L 841.6481760178233 51.66114930100791 L 841.8807840163414 51.684951683297186 L 842.1128538557845 51.70980437356183 L 842.344362329362 51.735704886553535 L 842.5752862864194 51.76265063224257 L 842.8056026347537 51.79063891607683 L 843.0352883429216 51.81966693925126 L 843.264320442544 51.849731798987726 L 843.4926760306016 51.88083048882531 L 843.7203322717261 51.91295989892094 L 843.9472664004828 51.94611681636038 L 844.1734557236482 51.980297925479526 L 844.3988776224785 52.01549980819594 L 844.6235095549714 52.0517189443507 L 844.8473290581211 52.08895171206036 L 845.0703137501637 52.127194388079175 L 845.2924413328157 52.16644314817141 L 845.5136895935042 52.20669406749378 L 845.7340364075873 52.247943120987884 L 845.9534597405672 52.29018618378274 L 846.1719376502936 52.33341903160728 L 846.3894482891575 52.37763734121275 L 846.6059699062763 52.422836690805035 L 846.8214808496687 52.46901256048684 L 847.0359595684199 52.516160332709674 L 847.2493846148369 52.564275292735616 L 847.4617346465928 52.613352629108746 L 847.6729884288616 52.663387434136325 L 847.8831248364407 52.71437470437956 L 848.0921228558648 52.7663093411539 L 848.299961587506 52.819186151038956 L 848.5066202476643 52.8729998463978 L 848.712078170646 52.92774504590574 L 848.9163148108299 52.983416275088445 L 849.1193097447223 53.040007966869396 L 849.3210426729988 53.09751446212657 L 849.521493422535 53.15593001025836 L 849.7206419484226 53.21524876975863 L 849.9184683359751 53.27546480880087 L 850.1149528027188 53.33657210583136 L 850.3100757003706 53.3985645501713 L 850.5038175168033 53.461435942627936 L 850.6961588779967 53.52517999611441 L 850.8870805499752 53.58979033627848 L 851.0765634407303 53.655260502139996 L 851.2645886021312 53.721583946736914 L 851.4511372318183 53.78875403778004 L 851.636190675084 53.85676405831625 L 851.8197304267383 53.92560720740017 L 852.001738132959 53.995276600774254 L 852.1821955931271 54.065765271557225 L 852.3610847616469 54.13706617094075 L 852.5383877497507 54.2091721688943 L 852.7140868272875 54.28207605487816 L 852.8881644244958 54.35577053856451 L 853.0606031337611 54.43024825056637 L 853.2313857113561 54.50550174317461 L 853.4004950791654 54.581523491102686 L 853.567914326393 54.658305892239156 L 853.7336267112538 54.73584126840789 L 853.8976156626475 54.81412186613588 L 854.0598647818155 54.89313985742859 L 854.2203578439811 54.97288734055273 L 854.3790787999719 55.05335634082646 L 854.5360117778245 55.1345388114168 L 854.6911410843718 55.21642663414435 L 854.8444512068127 55.29901162029506 L 854.9959268142624 55.38228551143916 L 855.1455527592865 55.46623998025691 L 855.2933140794153 55.55086663137139 L 855.4391959986398 55.63615700218803 L 855.5831839288896 55.722102563740805 L 855.7252634714919 55.80869472154519 L 855.8654204186106 55.89592481645755 L 856.0036407546678 55.98378412554111 L 856.1399106577452 56.07226386293816 L 856.274216500966 56.1613551807487 L 856.4065448538578 56.251049169915184 L 856.5368824836954 56.34133686111345 L 856.6652163568248 56.4322092256496 L 856.7915336399655 56.52365717636293 L 856.9158217014941 56.615671568534566 L 857.0380681127085 56.70824320080196 L 857.1582606490692 56.80136281607904 L 857.2763872914229 56.89502110248188 L 857.3924362272036 56.98920869425987 L 857.5063958516145 57.083916172732344 L 857.6182547687881 57.17913406723036 L 857.728001792926 57.27485285604382 L 857.8356259494171 57.37106296737362 L 857.9411164759356 57.467754780288786 L 858.0444628235166 57.56491862568861 L 858.1456546576115 57.662544787269525 L 858.2446818591214 57.76062350249672 L 858.3415345254084 57.859144963580405 L 858.4362029712868 57.95809931845658 L 858.5286777299907 58.05747667177222 L 858.6189495541215 58.15726708587479 L 858.7070094165719 58.257460581806065 L 858.7928485114289 58.358047140299924 L 858.8764582548549 58.459016702784346 L 858.9578302859449 58.56035917238722 L 859.0369564675638 58.66206441494605 L 859.1138288871592 58.764122260021324 L 859.1884398575534 58.866522501913586 L 859.2607819177115 58.96925490068398 L 859.3308478334876 59.072309183178234 L 859.3986305983486 59.17567504405398 L 859.4641234340746 59.279342146811274 L 859.5273197914364 59.38330012482622 L 859.5882133508512 59.48753858238766 L 859.6467980230136 59.59204709573668 L 859.7030679495052 59.69681521410906 L 859.7570175033804 59.80183246078026 L 859.8086412897287 59.907088334113126 L 859.8579341462143 60.012572308608036 L 859.904891143593 60.11827383595545 L 859.9495075862038 60.22418234609071 L 859.9917790124399 60.33028724825106 L 860.0317011951937 60.43657793203471 L 860.0692701422804 60.54304376846186 L 860.1044820968364 60.64967411103757 L 860.1373335376957 60.75645829681646 L 860.1678211797416 60.86338564746893 L 860.1959419742353 60.97044547034902 L 860.2216931091207 61.07762705956367 L 860.2450720093059 61.184919697043256 L 860.2660763369202 61.29231265361346 L 860.2847039915484 61.399795190068104 L 860.3009531104407 61.50735655824312 L 860.3148220686986 61.614986002091314 L 860.3263094794379 61.72267275875801 L 860.335414193927 61.830406059657264 L 860.3421353017022 61.93817513154877 L 860.3464721306582 62.04596919761514 L 860.3484242471158 62.15377747853961 M 860.3485452371717 96.4920458931 L 860.347352777268 96.59985643801662 L 860.343775516802 96.70765620196859 L 860.3378138134967 96.81543440506935 L 860.3294682635174 96.9231802695884 L 860.3187397014121 97.03088302102908 L 860.3056292000283 97.138531889206 L 860.2901380704051 97.24611610932205 L 860.2722678616425 97.35362492304485 L 860.2520203607464 97.46104757958265 L 860.2293975924503 97.5683733367593 L 860.2044018190119 97.67559146208852 L 860.1770355399879 97.78269123384712 L 860.1473014919833 97.88966194214719 L 860.1152026483782 97.99649289000702 L 860.0807422190301 98.10317339442086 L 860.0439236499533 98.20969278742717 L 860.0047506229739 98.31604041717543 L 859.9632270553622 98.42220564899125 L 859.9193570994402 98.52817786643996 L 859.8731451421668 98.6339464723881 L 859.8245958046995 98.73950089006323 L 859.7737139419314 98.84483056411152 L 859.7205046420065 98.94992496165337 L 859.6649732258103 99.05477357333659 L 859.6071252464383 99.15936591438738 L 859.5469664886401 99.2636915256588 L 859.4845029682415 99.36773997467667 L 859.4197409315423 99.47150085668278 L 859.3526868546923 99.5749637956754 L 859.2833474430433 99.67811844544686 L 859.2117296304787 99.78095449061813 L 859.13784057872 99.8834616476704 L 859.061687676611 99.98562966597338 L 858.9832785393781 100.08744832881038 L 858.90262100787 100.18890745439998 L 858.8197231477726 100.28999689691415 L 858.7345932488028 100.39070654749288 L 858.6472398238793 100.49102633525506 L 858.5576716082721 100.59094622830548 L 858.4658975587281 100.69045623473812 L 858.3719268525756 100.78954640363527 L 858.2757688868071 100.8882068260626 L 858.177433277139 100.9864276360601 L 858.0769298570501 101.0841990116286 L 857.974268676799 101.18151117571202 L 857.869460002418 101.27835439717506 L 857.7625143146871 101.37471899177628 L 857.6534423080861 101.4705953231365 L 857.5422548897249 101.56597380370249 L 857.4289631782523 101.6608448957057 L 857.3135785027454 101.75519911211595 L 857.1961124015753 101.84902701759025 L 857.0765766212544 101.94231922941623 L 856.9549831152611 102.03506641845047 L 856.8313440428448 102.12725931005133 L 856.7056717678093 102.2188886850065 L 856.5779788572779 102.30994538045483 L 856.4482780804349 102.40042029080266 L 856.3165824072499 102.49030436863434 L 856.1829050071807 102.579588625617 L 856.0472592478558 102.66826413339936 L 855.9096586937379 102.75632202450451 L 855.770117104768 102.84375349321674 L 855.6286484349887 102.93054979646202 L 855.4852668311489 103.01670225468237 L 855.3399866312898 103.10220225270375 L 855.1928223633099 103.18704124059762 L 855.0437887435138 103.27121073453588 L 854.8929006751389 103.3547023176393 L 854.7401732468666 103.4375076408191 L 854.5856217313124 103.51961842361202 L 854.4292615834988 103.60102645500817 L 854.2711084393105 103.68172359427226 L 854.1111781139302 103.7617017717576 L 853.949486600257 103.84095298971312 L 853.7860500673078 103.91946932308304 L 853.6208848585992 103.99724292029944 L 853.4540074905149 104.07426600406745 L 853.2854346506524 104.15053087214287 L 853.1151831961553 104.22602989810241 L 852.9432701520271 104.30075553210642 L 852.7697127094291 104.37470030165377 L 852.5945282239608 104.44785681232914 L 852.4177342139247 104.52021774854238 L 852.2393483585747 104.59177587426021 L 852.0593884963474 104.66252403372968 L 851.8778726230794 104.73245515219378 L 851.6948188902064 104.80156223659897 L 851.5102456029495 104.86983837629438 L 851.3241712184832 104.93727674372295 L 851.1366143440913 105.0038705951041 L 850.9475937353046 105.06961327110824 L 850.7571282940268 105.13449819752252 L 850.5652370666429 105.19851888590837 L 850.3719392421161 105.26166893425032 L 850.1772541500676 105.32394202759615 L 849.9812012588444 105.38533193868841 L 849.7838001735722 105.44583252858716 L 849.5850706341952 105.50543774728384 L 849.3850325135014 105.56414163430621 L 849.1837058151365 105.62193831931454 L 848.9811106716024 105.67882202268845 L 848.7772673422446 105.73478705610502 L 848.5721962112264 105.78982782310756 L 848.3659177854896 105.84393881966523 L 848.1584526927053 105.89711463472344 L 847.9498216792095 105.94934995074503 L 847.7400456079301 106.00063954424192 L 847.5291454562991 106.0509782862975 L 847.3171423141561 106.1003611430795 L 847.1040573816384 106.14878317634341 L 846.8899119670621 106.19623954392625 L 846.6747274847897 106.2427255002308 L 846.4585254530905 106.2882363967002 L 846.2413274919874 106.33276768228268 L 846.0231553210954 106.37631490388682 L 845.8040307574498 106.41887370682676 L 845.5839757133244 106.46043983525765 L 845.3630121940404 106.50100913260128 L 845.1411622957654 106.54057754196174 L 844.9184482033044 106.57914110653107 L 844.6948921878809 106.61669596998493 L 844.4705166049105 106.65323837686829 L 844.2453438917642 106.6887646729709 L 844.0193965655258 106.72327130569276 L 843.7926972207396 106.75675482439937 L 843.5652685271511 106.78921188076673 L 843.3371332274403 106.82063922911627 L 843.108314134947 106.85103372673933 L 842.8788341313897 106.8803923342115 L 842.6487161645776 106.90871211569649 L 842.4179832461156 106.93599023923973 L 842.1866584491032 106.96222397705162 L 841.9547649058273 106.98741070578025 L 841.7223258054493 107.0115479067737 L 841.4893643916852 107.03463316633201 L 841.2559039604822 107.05666417594847 L 841.0219678576892 107.07763873254045 L 840.7875794767212 107.09755473866979 L 840.5527622562213 107.11641020275246 L 840.3175396777157 107.13420323925777 L 840.081935263266 107.1509320688969 L 839.8459725731177 107.16659501880085 L 839.609675203343 107.18119052268763 L 839.373066783482 107.19471712101905 L 839.1361709741794 107.20717346114655 L 838.899011464819 107.21855829744648 L 838.6616119711538 107.22887049144471 L 838.4239962329353 107.23810901193042 L 838.1861880115397 107.24627293505928 L 837.9482110875906 107.25336144444577 L 837.7100892585822 107.25937383124486 L 837.4718463364991 107.26430949422287 L 837.2335061454347 107.26816793981763 L 836.9950925192097 107.27094878218779 L 836.756629298988 107.27265174325143 L 836.5181403308928 107.27327665271386 L 836.2796494636223 107.27282344808465 L 836.0411805460644 107.27129217468391 L 835.8027574249122 107.26868298563768 L 835.5644039422792 107.2649961418627 L 835.3261439333148 107.26023201204026 L 835.0880012238216 107.2543910725794 L 834.849999627872 107.24747390756917 L 834.6121629454271 107.23948120872033 L 834.3745149599572 107.23041377529609 L 834.1370794360627 107.22027251403225 L 833.899880117098 107.20905843904646 L 833.6629407227975 107.1967726717369 L 833.4262849469033 107.18341644067004 L 833.1899364547954 107.16899108145788 L 832.9539188811264 107.15349803662431 L 832.7182558274568 107.1369388554609 L 832.4829708598957 107.11931519387196 L 832.2480875067437 107.10062881420897 L 832.0136292561403 107.08088158509435 L 831.7796195537155 107.0600754812345 L 831.5460818002441 107.03821258322252 L 831.3130393493072 107.01529507732995 L 831.0805155049555 106.99132525528832 L 830.8485335193797 106.96630551405984 L 830.617116590585 106.94023835559778 L 830.3862878600715 106.91312638659626 L 830.15607041052 106.88497231822961 L 829.9264872634834 106.85577896588119 L 829.6975613770851 106.8255492488619 L 829.4693156437231 106.79428619011826 L 829.2417728877805 106.76199291593008 L 829.0149558633432 106.72867265559789 L 828.7888872519247 106.69432874111995 L 828.5635896601977 106.65896460685907 L 828.3390856177336 106.62258378919921 L 828.1153975747497 106.58518992619184 L 827.8925478998639 106.5467867571921 L 827.6705588778577 106.50737812248485 L 827.4494527074487 106.46696796290075 L 827.2292514990693 106.42556031942208 L 827.0099772726571 106.38315933277867 L 826.7916519554519 106.33976924303387 L 826.5742973798035 106.29539438916049 L 826.3579352809885 106.25003920860692 L 826.1425872950362 106.20370823685344 L 825.9282749565659 106.15640610695861 L 825.7150196966328 106.108137549096 L 825.5028428405853 106.05890739008117 L 825.291765605932 106.00872055288902 L 825.0818091002207 105.9575820561614 L 824.8729943189268 105.90549701370541 L 824.6653421433545 105.85247063398188 L 824.4588733385483 105.79850821958458 L 824.2536085512166 105.74361516670999 L 824.0495683076672 105.68779696461766 L 823.8467730117542 105.63105919508126 L 823.6452429428384 105.5734075318305 L 823.4449982537587 105.51484773998365 L 823.2460589688171 105.45538567547108 L 823.0484449817764 105.3950272844497 L 822.8521760538705 105.33377860270829 L 822.6572718118287 105.27164575506403 L 822.4637517459128 105.20863495474987 L 822.271635207968 105.14475250279335 L 822.0809414094882 105.08000478738643 L 821.8916894196942 105.01439828324668 L 821.7038981636273 104.94793955096986 L 821.5175864202566 104.8806352363738 L 821.3327728206012 104.8124920698339 L 821.1494758458672 104.74351686560999 L 820.967713825599 104.67371652116503 L 820.7875049358474 104.6030980164753 L 820.6088671973512 104.53166841333243 L 820.4318184737352 104.4594348546372 L 820.2563764697244 104.38640456368528 L 820.082558729373 104.31258484344491 L 819.91038263431 104.2379830758266 L 819.7398654020017 104.16260672094495 L 819.5710240840291 104.08646331637262 L 819.4038755643832 104.00956047638662 L 819.2384365577768 103.93190589120688 L 819.0747236079726 103.85350732622719 L 818.9127530861293 103.77437262123871 L 818.752541189164 103.694509689646 L 818.5941039381329 103.61392651767568 L 818.4374571766291 103.53263116357778 L 818.2826165691982 103.45063175681996 L 818.1295975997718 103.36793649727457 L 817.9784155701196 103.28455365439865 L 817.8290855983183 103.20049156640701 L 817.6816226172408 103.1157586394384 L 817.5360413730623 103.03036334671489 L 817.3923564237858 102.94431422769459 L 817.2505821377866 102.85761988721772 L 817.1107326923752 102.77028899464605 L 816.9728220723795 102.68233028299609 L 816.8368640687464 102.5937525480657 L 816.7028722771634 102.50456464755453 L 816.5708600966976 102.41477550017834 L 816.4408407284573 102.32439408477703 L 816.3128271742708 102.23342943941684 L 816.1868322353869 102.14189066048647 L 816.0628685111946 102.04978690178756 L 815.9409483979629 101.95712737361922 L 815.8210840876014 101.86392134185704 L 815.7032875664415 101.77017812702654 L 815.5875706140371 101.67590710337106 L 815.4739448019868 101.58111769791444 L 815.3624214927775 101.48581938951821 L 815.2530118386468 101.39002170793381 L 815.1457267804691 101.29373423284954 L 815.0405770466608 101.19696659293271 L 814.9375731521078 101.09972846486664 L 814.8367253971135 101.00202957238312 L 814.7380438663694 100.90387968528998 L 814.6415384279464 100.80528861849413 L 814.547218732308 100.70626623102011 L 814.455094211345 100.60682242502413 L 814.3651740774328 100.50696714480392 L 814.2774673225099 100.40671037580431 L 814.1919827171786 100.30606214361863 L 814.1087288098283 100.20503251298624 L 814.0277139257803 100.103631586786 L 813.9489461664555 100.00186950502604 L 813.8724334085642 99.89975644382972 L 813.7981833033184 99.79730261441809 L 813.7262032756669 99.69451826208869 L 813.6565005235522 99.59141366519111 L 813.5890820171917 99.48799913409913 L 813.5239544983797 99.38428501017967 L 813.4611244798137 99.28028166475868 L 813.4005982444436 99.17599949808405 L 813.3423818448421 99.07144893828554 L 813.2864811026009 98.96664044033201 L 813.2329016077474 98.86158448498593 L 813.1816487181866 98.75629157775525 L 813.1327275591648 98.65077224784297 L 813.0861430227569 98.54503704709414 L 813.041899767378 98.43909654894075 L 813.0000022173166 98.33296134734431 L 812.9604545622929 98.22664205573652 L 812.9232607570392 98.12014930595798 L 812.8884245209053 98.01349374719489 L 812.8559493374856 97.90668604491427 L 812.8258384542717 97.79973687979731 L 812.7980948823264 97.69265694667143 L 812.772721395984 97.58545695344071 L 812.749720532572 97.47814762001512 L 812.7290945921576 97.37073967723859 L 812.7108456373174 97.26324386581588 L 812.694975492932 97.15567093523856 L 812.6814857460025 97.04803164271006 L 812.6703777454923 96.94033675206991 L 812.6616526021922 96.83259703271744 L 812.6553111886093 96.7248232585348 L 812.6513541388797 96.6170262068096 L 812.649781848705 96.50921665715717" stroke-miterlimit="10" stroke-width="2.7769845610000004" stroke-dasharray=""/></g><g><text fill="black" stroke="none" font-family="sans-serif" font-size="11pt" font-style="normal" font-weight="normal" text-decoration="normal" x="805.1212034728827" y="124.80095321200001" text-anchor="start" dominant-baseline="alphabetic" xml:space="preserve">Database</text></g></g><g><path fill="white" stroke="black" paint-order="fill stroke markers" d=" M 302.05815376067704 183.607685092 L 318.39335706067703 183.607685092 L 318.39335706067703 1147.3846797919998 L 302.05815376067704 1147.3846797919998 L 302.05815376067704 183.607685092" stroke-miterlimit="10" stroke-width="1.3612669416666667" stroke-dasharray=""/><path fill="white" stroke="black" paint-order="fill stroke markers" d=" M 310.22575541067704 387.79772634200003 L 326.560958710677 387.79772634200003 L 326.560958710677 433.536295582 L 310.22575541067704 433.536295582 L 310.22575541067704 387.79772634200003" stroke-miterlimit="10" stroke-width="1.3612669416666667" stroke-dasharray=""/><path fill="white" stroke="black" paint-order="fill stroke markers" d=" M 549.4127758684243 660.5956214519999 L 565.7479791684244 660.5956214519999 L 565.7479791684244 1101.6461105519998 L 549.4127758684243 1101.6461105519998 L 549.4127758684243 660.5956214519999" stroke-miterlimit="10" stroke-width="1.3612669416666667" stroke-dasharray=""/><path fill="white" stroke="black" paint-order="fill stroke markers" d=" M 680.4258068290025 902.356630292 L 696.7610101290026 902.356630292 L 696.7610101290026 1039.5723380119998 L 680.4258068290025 1039.5723380119998 L 680.4258068290025 902.356630292" stroke-miterlimit="10" stroke-width="1.3612669416666667" stroke-dasharray=""/><path fill="white" stroke="black" paint-order="fill stroke markers" d=" M 828.3315467691717 948.0951995319999 L 844.6667500691718 948.0951995319999 L 844.6667500691718 993.8337687719999 L 828.3315467691717 993.8337687719999 L 828.3315467691717 948.0951995319999" stroke-miterlimit="10" stroke-width="1.3612669416666667" stroke-dasharray=""/><g><g><rect fill="white" stroke="none" x="109.1340292009635" y="162.371920802" width="157.29851020875" height="21.23576429"/></g><text fill="black" stroke="none" font-family="sans-serif" font-size="11pt" font-style="normal" font-weight="normal" text-decoration="normal" x="111.5843096959635" y="177.07360377199998" text-anchor="start" dominant-baseline="alphabetic" xml:space="preserve">Go to Entity detail page</text></g><g><path fill="none" stroke="black" paint-order="fill stroke markers" d=" M 73.50841485 183.607685092 L 288.6088363770104 183.607685092" stroke-miterlimit="10" stroke-width="1.3612669416666667" stroke-dasharray=""/><g transform="translate(302.05815376067704,183.607685092) translate(-302.05815376067704,-183.607685092)"><path fill="black" stroke="none" paint-order="stroke fill markers" d=" M 288.44548434401037 176.80135038366666 L 302.05815376067704 183.607685092 L 288.44548434401037 190.41401980033334 Z"/></g></g><g><g><rect fill="white" stroke="none" x="132.36953335135414" y="208.110490042" width="110.82750190796875" height="21.23576429"/></g><text fill="black" stroke="none" font-family="sans-serif" font-size="11pt" font-style="normal" font-weight="normal" text-decoration="normal" x="134.81981384635412" y="222.812173012" text-anchor="start" dominant-baseline="alphabetic" xml:space="preserve">Click Edit button</text></g><g><path fill="none" stroke="black" paint-order="fill stroke markers" d=" M 73.50841485 229.346254332 L 288.6088363770104 229.346254332" stroke-miterlimit="10" stroke-width="1.3612669416666667" stroke-dasharray=""/><g transform="translate(302.05815376067704,229.346254332) translate(-302.05815376067704,-229.346254332)"><path fill="black" stroke="none" paint-order="stroke fill markers" d=" M 288.44548434401037 222.53991962366666 L 302.05815376067704 229.346254332 L 288.44548434401037 236.15258904033334 Z"/></g></g><g><g><rect fill="white" stroke="none" x="92.83840542166662" y="253.849059282" width="189.88975776734375" height="21.23576429"/></g><text fill="black" stroke="none" font-family="sans-serif" font-size="11pt" font-style="normal" font-weight="normal" text-decoration="normal" x="95.28868591666662" y="268.550742252" text-anchor="start" dominant-baseline="alphabetic" xml:space="preserve">Display Update Entity popup</text></g><g><path fill="none" stroke="black" paint-order="fill stroke markers" d=" M 302.05815376067704 275.084823572 L 86.95773223366666 275.084823572" stroke-miterlimit="10" stroke-width="1.3612669416666667" stroke-dasharray="6.53408132"/><g transform="translate(73.50841485,275.084823572) translate(-73.50841485,-275.084823572)"><path fill="black" stroke="none" paint-order="stroke fill markers" d=" M 87.12108426666666 268.27848886366667 L 73.50841485 275.084823572 L 87.12108426666666 281.89115828033334 Z"/></g></g><g><g><rect fill="white" stroke="none" x="102.62723903983068" y="299.587628522" width="170.31209053101563" height="21.23576429"/></g><text fill="black" stroke="none" font-family="sans-serif" font-size="11pt" font-style="normal" font-weight="normal" text-decoration="normal" x="105.07751953483069" y="314.28931149199997" text-anchor="start" dominant-baseline="alphabetic" xml:space="preserve">Type information of Entity</text></g><g><path fill="none" stroke="black" paint-order="fill stroke markers" d=" M 73.50841485 320.823392812 L 288.6088363770104 320.823392812" stroke-miterlimit="10" stroke-width="1.3612669416666667" stroke-dasharray=""/><g transform="translate(302.05815376067704,320.823392812) translate(-302.05815376067704,-320.823392812)"><path fill="black" stroke="none" paint-order="stroke fill markers" d=" M 288.44548434401037 314.01705810366667 L 302.05815376067704 320.823392812 L 288.44548434401037 327.62972752033335 Z"/></g></g><g><g><rect fill="white" stroke="none" x="345.8909492823437" y="345.32619776200005" width="125.25842536988281" height="21.23576429"/></g><text fill="black" stroke="none" font-family="sans-serif" font-size="11pt" font-style="normal" font-weight="normal" text-decoration="normal" x="348.3412297773437" y="360.027880732" text-anchor="start" dominant-baseline="alphabetic" xml:space="preserve">Validate input data</text></g><g><path fill="none" stroke="black" paint-order="fill stroke markers" d=" M 318.39335706067703 366.561962052 L 391.90177191067704 366.561962052 L 391.90177191067704 387.79772634200003 L 340.0102760943437 387.79772634200003" stroke-miterlimit="10" stroke-width="1.3612669416666667" stroke-dasharray=""/><g transform="translate(326.560958710677,387.79772634200003) translate(-326.560958710677,-387.79772634200003)"><path fill="black" stroke="none" paint-order="stroke fill markers" d=" M 340.1736281273437 380.9913916336667 L 326.560958710677 387.79772634200003 L 340.1736281273437 394.60406105033337 Z"/></g></g><g><g><rect fill="white" stroke="none" x="345.8909492823437" y="412.300531292" width="95.90982307496094" height="21.23576429"/></g><text fill="black" stroke="none" font-family="sans-serif" font-size="11pt" font-style="normal" font-weight="normal" text-decoration="normal" x="348.3412297773437" y="427.002214262" text-anchor="start" dominant-baseline="alphabetic" xml:space="preserve">Validate value</text></g><g><path fill="none" stroke="black" paint-order="fill stroke markers" d=" M 326.560958710677 433.536295582 L 391.90177191067704 433.536295582 L 391.90177191067704 454.772059872 L 331.8426744443437 454.772059872" stroke-miterlimit="10" stroke-width="1.3612669416666667" stroke-dasharray="6.53408132"/><g transform="translate(318.39335706067703,454.772059872) translate(-318.39335706067703,-454.772059872)"><path fill="black" stroke="none" paint-order="stroke fill markers" d=" M 332.0060264773437 447.96572516366666 L 318.39335706067703 454.772059872 L 332.0060264773437 461.57839458033334 Z"/></g></g><g><g><rect fill="white" stroke="none" x="127.60933285086584" y="523.379913732" width="120.34790290894531" height="21.23576429"/></g><text fill="black" stroke="none" font-family="sans-serif" font-size="11pt" font-style="normal" font-weight="normal" text-decoration="normal" x="130.05961334586584" y="538.081596702" text-anchor="start" dominant-baseline="alphabetic" xml:space="preserve">Validate Message</text></g><g><path fill="none" stroke="black" paint-order="fill stroke markers" d=" M 302.05815376067704 544.615678022 L 86.95773223366666 544.615678022" stroke-miterlimit="10" stroke-width="1.3612669416666667" stroke-dasharray="6.53408132"/><g transform="translate(73.50841485,544.615678022) translate(-73.50841485,-544.615678022)"><path fill="black" stroke="none" paint-order="stroke fill markers" d=" M 87.12108426666666 537.8093433136667 L 73.50841485 544.615678022 L 87.12108426666666 551.4220127303333 Z"/></g></g><g><g><rect fill="white" stroke="none" x="128.29294185965492" y="593.621287922" width="118.98068489136719" height="21.23576429"/></g><text fill="black" stroke="none" font-family="sans-serif" font-size="11pt" font-style="normal" font-weight="normal" text-decoration="normal" x="130.7432223546549" y="608.322970892" text-anchor="start" dominant-baseline="alphabetic" xml:space="preserve">Click button Save</text></g><g><path fill="none" stroke="black" paint-order="fill stroke markers" d=" M 73.50841485 614.857052212 L 288.6088363770104 614.857052212" stroke-miterlimit="10" stroke-width="1.3612669416666667" stroke-dasharray=""/><g transform="translate(302.05815376067704,614.857052212) translate(-302.05815376067704,-614.857052212)"><path fill="black" stroke="none" paint-order="stroke fill markers" d=" M 288.44548434401037 608.0507175036666 L 302.05815376067704 614.857052212 L 288.44548434401037 621.6633869203333 Z"/></g></g><g><g><rect fill="white" stroke="none" x="377.2616696365428" y="639.3598571619999" width="113.28279365601563" height="21.23576429"/></g><text fill="black" stroke="none" font-family="sans-serif" font-size="11pt" font-style="normal" font-weight="normal" text-decoration="normal" x="379.71195013154284" y="654.0615401319999" text-anchor="start" dominant-baseline="alphabetic" xml:space="preserve">PUT: /api/{entity}</text></g><g><path fill="none" stroke="black" paint-order="fill stroke markers" d=" M 318.39335706067703 660.5956214519999 L 535.9634584847577 660.5956214519999" stroke-miterlimit="10" stroke-width="1.3612669416666667" stroke-dasharray=""/><g transform="translate(549.4127758684243,660.5956214519999) translate(-549.4127758684243,-660.5956214519999)"><path fill="black" stroke="none" paint-order="stroke fill markers" d=" M 535.8001064517576 653.7892867436666 L 549.4127758684243 660.5956214519999 L 535.8001064517576 667.4019561603333 Z"/></g></g><g><g><rect fill="white" stroke="none" x="348.75061464386704" y="729.203475312" width="149.11673225464844" height="21.23576429"/></g><g><rect fill="white" stroke="none" x="348.75061464386704" y="745.538678612" width="170.3049036413672" height="21.23576429"/></g><text fill="red" stroke="none" font-family="sans-serif" font-size="11pt" font-style="normal" font-weight="normal" text-decoration="normal" x="351.20089513886705" y="743.905158282" text-anchor="start" dominant-baseline="alphabetic" xml:space="preserve">400 BAD_REQUEST: </text><text fill="red" stroke="none" font-family="sans-serif" font-size="11pt" font-style="normal" font-weight="normal" text-decoration="normal" x="351.20089513886705" y="760.240361582" text-anchor="start" dominant-baseline="alphabetic" xml:space="preserve">Missing required property</text></g><g><path fill="none" stroke="black" paint-order="fill stroke markers" d=" M 549.4127758684243 766.774442902 L 331.8426744443437 766.774442902" stroke-miterlimit="10" stroke-width="1.3612669416666667" stroke-dasharray="6.53408132"/><g transform="translate(318.39335706067703,766.774442902) translate(-318.39335706067703,-766.774442902)"><path fill="black" stroke="none" paint-order="stroke fill markers" d=" M 332.0060264773437 759.9681081936667 L 318.39335706067703 766.774442902 L 332.0060264773437 773.5807776103334 Z"/></g></g><g><g><rect fill="white" stroke="none" x="119.33089046805334" y="791.277247852" width="136.90478767457031" height="21.23576429"/></g><text fill="black" stroke="none" font-family="sans-serif" font-size="11pt" font-style="normal" font-weight="normal" text-decoration="normal" x="121.78117096305334" y="805.9789308219999" text-anchor="start" dominant-baseline="alphabetic" xml:space="preserve">Message is required</text></g><g><path fill="none" stroke="black" paint-order="fill stroke markers" d=" M 302.05815376067704 812.513012142 L 86.95773223366666 812.513012142" stroke-miterlimit="10" stroke-width="1.3612669416666667" stroke-dasharray="6.53408132"/><g transform="translate(73.50841485,812.513012142) translate(-73.50841485,-812.513012142)"><path fill="black" stroke="none" paint-order="stroke fill markers" d=" M 87.12108426666666 805.7066774336666 L 73.50841485 812.513012142 L 87.12108426666666 819.3193468503333 Z"/></g></g><g><g><rect fill="white" stroke="none" x="600.2715612341822" y="881.120866002" width="45.6306635290625" height="21.23576429"/></g><text fill="black" stroke="none" font-family="sans-serif" font-size="11pt" font-style="normal" font-weight="normal" text-decoration="normal" x="602.7218417291822" y="895.8225489719999" text-anchor="start" dominant-baseline="alphabetic" xml:space="preserve">save()</text></g><g><path fill="none" stroke="black" paint-order="fill stroke markers" d=" M 565.7479791684244 902.356630292 L 666.9764894453358 902.356630292" stroke-miterlimit="10" stroke-width="1.3612669416666667" stroke-dasharray=""/><g transform="translate(680.4258068290025,902.356630292) translate(-680.4258068290025,-902.356630292)"><path fill="black" stroke="none" paint-order="stroke fill markers" d=" M 666.8131374123358 895.5502955836666 L 680.4258068290025 902.356630292 L 666.8131374123358 909.1629650003333 Z"/></g></g><g><g><rect fill="white" stroke="none" x="716.0910007006692" y="926.8594352419999" width="92.91055549683594" height="21.23576429"/></g><text fill="black" stroke="none" font-family="sans-serif" font-size="11pt" font-style="normal" font-weight="normal" text-decoration="normal" x="718.5412811956692" y="941.5611182119999" text-anchor="start" dominant-baseline="alphabetic" xml:space="preserve">Update Entity</text></g><g><path fill="none" stroke="black" paint-order="fill stroke markers" d=" M 696.7610101290026 948.0951995319999 L 814.8822293855051 948.0951995319999" stroke-miterlimit="10" stroke-width="1.3612669416666667" stroke-dasharray=""/><g transform="translate(828.3315467691717,948.0951995319999) translate(-828.3315467691717,-948.0951995319999)"><path fill="black" stroke="none" paint-order="stroke fill markers" d=" M 814.718877352505 941.2888648236666 L 828.3315467691717 948.0951995319999 L 814.718877352505 954.9015342403333 Z"/></g></g><g><g><rect fill="white" stroke="none" x="725.4610797411965" y="972.5980044819999" width="74.17039741578125" height="21.23576429"/></g><text fill="black" stroke="none" font-family="sans-serif" font-size="11pt" font-style="normal" font-weight="normal" text-decoration="normal" x="727.9113602361965" y="987.2996874519998" text-anchor="start" dominant-baseline="alphabetic" xml:space="preserve">Entity data</text></g><g><path fill="none" stroke="black" paint-order="fill stroke markers" d=" M 828.3315467691717 993.8337687719999 L 710.2103275126692 993.8337687719999" stroke-miterlimit="10" stroke-width="1.3612669416666667" stroke-dasharray="6.53408132"/><g transform="translate(696.7610101290026,993.8337687719999) translate(-696.7610101290026,-993.8337687719999)"><path fill="black" stroke="none" paint-order="stroke fill markers" d=" M 710.3736795456692 987.0274340636665 L 696.7610101290026 993.8337687719999 L 710.3736795456692 1000.6401034803332 Z"/></g></g><g><g><rect fill="white" stroke="none" x="586.0016942908228" y="1018.3365737219998" width="74.17039741578125" height="21.23576429"/></g><text fill="black" stroke="none" font-family="sans-serif" font-size="11pt" font-style="normal" font-weight="normal" text-decoration="normal" x="588.4519747858228" y="1033.0382566919998" text-anchor="start" dominant-baseline="alphabetic" xml:space="preserve">Entity data</text></g><g><path fill="none" stroke="black" paint-order="fill stroke markers" d=" M 680.4258068290025 1039.5723380119998 L 579.1972965520911 1039.5723380119998" stroke-miterlimit="10" stroke-width="1.3612669416666667" stroke-dasharray="6.53408132"/><g transform="translate(565.7479791684244,1039.5723380119998) translate(-565.7479791684244,-1039.5723380119998)"><path fill="black" stroke="none" paint-order="stroke fill markers" d=" M 579.3606485850911 1032.7660033036666 L 565.7479791684244 1039.5723380119998 L 579.3606485850911 1046.378672720333 Z"/></g></g><g><g><rect fill="white" stroke="none" x="341.8071484573436" y="1064.0751429619997" width="54.61422981324219" height="21.23576429"/></g><g><rect fill="white" stroke="none" x="341.8071484573436" y="1080.4103462619998" width="184.19183601441406" height="21.23576429"/></g><text fill="green" stroke="none" font-family="sans-serif" font-size="11pt" font-style="normal" font-weight="normal" text-decoration="normal" x="344.2574289523436" y="1078.7768259319998" text-anchor="start" dominant-baseline="alphabetic" xml:space="preserve">200 OK</text><text fill="green" stroke="none" font-family="sans-serif" font-size="11pt" font-style="normal" font-weight="normal" text-decoration="normal" x="344.2574289523436" y="1095.112029232" text-anchor="start" dominant-baseline="alphabetic" xml:space="preserve">Response body: Entity data</text></g><g><path fill="none" stroke="black" paint-order="fill stroke markers" d=" M 549.4127758684243 1101.6461105519998 L 331.8426744443437 1101.6461105519998" stroke-miterlimit="10" stroke-width="1.3612669416666667" stroke-dasharray="6.53408132"/><g transform="translate(318.39335706067703,1101.6461105519998) translate(-318.39335706067703,-1101.6461105519998)"><path fill="black" stroke="none" paint-order="stroke fill markers" d=" M 332.0060264773437 1094.8397758436665 L 318.39335706067703 1101.6461105519998 L 332.0060264773437 1108.452445260333 Z"/></g></g><g><g><rect fill="white" stroke="none" x="103.02810268729162" y="1126.148915502" width="169.51036323609375" height="21.23576429"/></g><text fill="black" stroke="none" font-family="sans-serif" font-size="11pt" font-style="normal" font-weight="normal" text-decoration="normal" x="105.47838318229162" y="1140.850598472" text-anchor="start" dominant-baseline="alphabetic" xml:space="preserve">Display Entity detail page</text></g><g><path fill="none" stroke="black" paint-order="fill stroke markers" d=" M 302.05815376067704 1147.3846797919998 L 86.95773223366666 1147.3846797919998" stroke-miterlimit="10" stroke-width="1.3612669416666667" stroke-dasharray="6.53408132"/><g transform="translate(73.50841485,1147.3846797919998) translate(-73.50841485,-1147.3846797919998)"><path fill="black" stroke="none" paint-order="stroke fill markers" d=" M 87.12108426666666 1140.5783450836666 L 73.50841485 1147.3846797919998 L 87.12108426666666 1154.191014500333 Z"/></g></g><g><g/><path fill="none" stroke="black" paint-order="fill stroke markers" d=" M 16.335203299999996 479.274864822 L 367.39896696067706 479.274864822 L 367.39896696067706 569.118482972 L 16.335203299999996 569.118482972 L 16.335203299999996 479.274864822 Z" stroke-miterlimit="10" stroke-width="2.3336004714285714" stroke-dasharray=""/><path fill="white" stroke="black" paint-order="fill stroke markers" d=" M 16.335203299999996 479.274864822 L 16.335203299999996 498.877108782 L 62.69440689707031 498.877108782 L 72.49552887707031 489.075986802 L 72.49552887707031 479.274864822 L 16.335203299999996 479.274864822" stroke-miterlimit="10" stroke-width="2.3336004714285714" stroke-dasharray=""/><text fill="black" stroke="none" font-family="sans-serif" font-size="8.8pt" font-style="normal" font-weight="bold" text-decoration="normal" x="32.67040659999999" y="492.343027462" text-anchor="start" dominant-baseline="alphabetic" xml:space="preserve">alt</text><g><rect fill="white" stroke="none" x="86.38045168207032" y="480.581681086" width="151.5138880163672" height="16.988611432000003"/></g><text fill="black" stroke="none" font-family="sans-serif" font-size="8.8pt" font-style="normal" font-weight="bold" text-decoration="normal" x="88.83073217707032" y="492.343027462" text-anchor="start" dominant-baseline="alphabetic" xml:space="preserve">[If the input data is wrong]</text></g><g><g/><path fill="none" stroke="black" paint-order="fill stroke markers" d=" M 16.335203299999996 685.098426402 L 893.6723599691718 685.098426402 L 893.6723599691718 1171.8874847419997 L 16.335203299999996 1171.8874847419997 L 16.335203299999996 685.098426402 Z" stroke-miterlimit="10" stroke-width="2.3336004714285714" stroke-dasharray=""/><path fill="white" stroke="black" paint-order="fill stroke markers" d=" M 16.335203299999996 685.098426402 L 16.335203299999996 704.700670362 L 62.69440689707031 704.700670362 L 72.49552887707031 694.8995483819999 L 72.49552887707031 685.098426402 L 16.335203299999996 685.098426402" stroke-miterlimit="10" stroke-width="2.3336004714285714" stroke-dasharray=""/><text fill="black" stroke="none" font-family="sans-serif" font-size="8.8pt" font-style="normal" font-weight="bold" text-decoration="normal" x="32.67040659999999" y="698.1665890419999" text-anchor="start" dominant-baseline="alphabetic" xml:space="preserve">alt</text><g><rect fill="white" stroke="none" x="86.38045168207032" y="686.4052426659999" width="244.7581049353125" height="16.988611432000003"/></g><text fill="black" stroke="none" font-family="sans-serif" font-size="8.8pt" font-style="normal" font-weight="bold" text-decoration="normal" x="88.83073217707032" y="698.1665890419999" text-anchor="start" dominant-baseline="alphabetic" xml:space="preserve">[If there is required field do not have value]</text><g><path fill="none" stroke="black" paint-order="fill stroke markers" d=" M 16.335203299999996 837.015817092 L 893.6723599691718 837.015817092" stroke-miterlimit="10" stroke-width="2.3336004714285714" stroke-dasharray="4.083800825"/></g><g/></g><g/></g></g></svg>