<svg version="1.1" xmlns="http://www.w3.org/2000/svg" xmlns:xlink="http://www.w3.org/1999/xlink" width="1290" height="1162"><desc>%20title%20Search%20Entity%0A%0Aactor%20%23green%3A0.5%20%22Workspace%20Admin%22%20as%20w%0Aparticipant%20%22FUniverse%20Admin%20Client%22%20as%20f%0Aparticipant%20%22Search%20Controller%22%20as%20sc%0Aparticipant%20%22Specification%20Service%22%20as%20ss%0Aparticipant%20%22Entity%20Service%22%20as%20es%0Adatabase%20%23blue%3A1%20%22Database%22%20as%20db%0A%0Aw-%3Ef%3A%20Type%20search%20condition%0Aactivate%20f%0A%0A%0Af-%3Esc%3AGET%5Cnapi%2Fsearch%3Fentity%3D%7BentityName%7D%5Cn%2B%20%7BparamToSearch%7D%0Aactivate%20sc%0Aalt%20If%20no%20entityName%20matches%20with%20entity%20in%20the%20system%0Af%3C--sc%3A%20%3Ccolor%3A%23red%3E500%20Internal%20Server%20Error%3C%2Fcolor%3E%0Aw%3C--f%3A%20Display%3A%20No%20Options%0Aelse%20%0A%0Asc-%3Esc%3A%20append%20%7BparamToSearch%7D%20%5Cninto%20List%3CSearchCriteria%3E%3A%20searchCriteria%0Asc-%3Ess%3A%20Create%20EntitySpecification%20%5Cnwith%20searchCriteria%0Aactivate%20ss%0Asc%3C--ss%3A%20Instance%3A%20specification%0Adeactivate%20ss%0Asc-%3Ees%3Asearch(specification)%0Aactivate%20es%0Aes-%3Edb%3AfindAll(specification)%0Aactivate%20db%0Aes%3C--db%3AEntity%20list%0Adeactivate%20db%0Asc%3C--es%3AEntity%20list%0Adeactivate%20es%0Af%3C--sc%3A%20%3Ccolor%3A%23green%3E200%20OK%5CnResponse%20body%3A%20Entity%20list%3C%2Fcolor%3E%0A%0Aalt%20If%20Entity%20list%20is%20null%0Aw%3C--f%3ANo%20Options%0Aelse%0Aw%3C--f%3A%20Entity%20options%20list%0Aend%0A%0A%20%0Adeactivate%20sc%0A%0Adeactivate%20f%0Aend%0A%0A</desc><defs/><g><g/><g/><g/><g/><g/><g/><g/><g/><g/><g/><g/><g/><g/><g/><g/><g/><g/><g/><g/><g/><g/><g/><g/><g/><g/><g><rect fill="white" stroke="none" x="0" y="0" width="1290" height="1162"/></g><g><text fill="black" stroke="none" font-family="sans-serif" font-size="16.5pt" font-style="normal" font-weight="normal" text-decoration="normal" x="580.0750528966458" y="24.50280495" text-anchor="start" dominant-baseline="alphabetic" xml:space="preserve">Search Entity</text></g><g/><g><path fill="none" stroke="black" paint-order="fill stroke markers" d=" M 89.84361815 128.884754037 L 89.84361815 1162.9031229269995" stroke-miterlimit="10" stroke-width="1.3612669416666667" stroke-dasharray="12.565541,5.445067766666667"/><path fill="none" stroke="black" paint-order="fill stroke markers" d=" M 284.1844328317708 128.884754037 L 284.1844328317708 1162.9031229269995" stroke-miterlimit="10" stroke-width="1.3612669416666667" stroke-dasharray="12.565541,5.445067766666667"/><path fill="none" stroke="black" paint-order="fill stroke markers" d=" M 547.4086694760416 128.884754037 L 547.4086694760416 1162.9031229269995" stroke-miterlimit="10" stroke-width="1.3612669416666667" stroke-dasharray="12.565541,5.445067766666667"/><path fill="none" stroke="black" paint-order="fill stroke markers" d=" M 854.4217259614583 128.884754037 L 854.4217259614583 1162.9031229269995" stroke-miterlimit="10" stroke-width="1.3612669416666667" stroke-dasharray="12.565541,5.445067766666667"/><path fill="none" stroke="black" paint-order="fill stroke markers" d=" M 1019.0532126343724 128.884754037 L 1019.0532126343724 1162.9031229269995" stroke-miterlimit="10" stroke-width="1.3612669416666667" stroke-dasharray="12.565541,5.445067766666667"/><path fill="none" stroke="black" paint-order="fill stroke markers" d=" M 1209.3139330432916 128.884754037 L 1209.3139330432916 1162.9031229269995" stroke-miterlimit="10" stroke-width="1.3612669416666667" stroke-dasharray="12.565541,5.445067766666667"/></g><g><g><path fill="white" stroke="green" paint-order="fill stroke markers" d=" M 99.154684031 59.786844078 A 9.311065881 9.311065881 0 1 1 99.15467937546744 59.77753301367084 M 89.84361815 69.097909959 L 89.84361815 89.026857985 M 78.08227177399999 76.285399411 L 101.604964526 76.285399411 M 89.84361815 89.026857985 L 78.08227177399999 107.648989747 M 89.84361815 89.026857985 L 101.604964526 107.648989747" stroke-miterlimit="10" stroke-width="1.3884922805000002" stroke-dasharray=""/></g><g><text fill="black" stroke="none" font-family="sans-serif" font-size="11pt" font-style="normal" font-weight="normal" text-decoration="normal" x="30.50219511533203" y="123.984193047" text-anchor="start" dominant-baseline="alphabetic" xml:space="preserve">Workspace Admin</text></g><path fill="none" stroke="none"/><g><path fill="white" stroke="black" paint-order="fill stroke markers" d=" M 189.4707851638684 84.94305716000001 L 378.89808049967314 84.94305716000001 L 378.89808049967314 128.884754037 L 189.4707851638684 128.884754037 L 189.4707851638684 84.94305716000001 Z" stroke-miterlimit="10" stroke-width="2.613632528" stroke-dasharray=""/></g><g><text fill="black" stroke="none" font-family="sans-serif" font-size="11pt" font-style="normal" font-weight="normal" text-decoration="normal" x="207.19448074436843" y="112.54955073700002" text-anchor="start" dominant-baseline="alphabetic" xml:space="preserve">FUniverse Admin Client</text></g><path fill="none" stroke="none"/><g><path fill="white" stroke="black" paint-order="fill stroke markers" d=" M 472.6484977602877 84.94305716000001 L 622.1688411917955 84.94305716000001 L 622.1688411917955 128.884754037 L 472.6484977602877 128.884754037 L 472.6484977602877 84.94305716000001 Z" stroke-miterlimit="10" stroke-width="2.613632528" stroke-dasharray=""/></g><g><text fill="black" stroke="none" font-family="sans-serif" font-size="11pt" font-style="normal" font-weight="normal" text-decoration="normal" x="490.3721933407877" y="112.54955073700002" text-anchor="start" dominant-baseline="alphabetic" xml:space="preserve">Search Controller</text></g><path fill="none" stroke="none"/><g><path fill="white" stroke="black" paint-order="fill stroke markers" d=" M 768.6594180152356 84.94305716000001 L 940.1840339076809 84.94305716000001 L 940.1840339076809 128.884754037 L 768.6594180152356 128.884754037 L 768.6594180152356 84.94305716000001 Z" stroke-miterlimit="10" stroke-width="2.613632528" stroke-dasharray=""/></g><g><text fill="black" stroke="none" font-family="sans-serif" font-size="11pt" font-style="normal" font-weight="normal" text-decoration="normal" x="786.3831135957356" y="112.54955073700002" text-anchor="start" dominant-baseline="alphabetic" xml:space="preserve">Specification Service</text></g><path fill="none" stroke="none"/><g><path fill="white" stroke="black" paint-order="fill stroke markers" d=" M 956.5192372076809 84.94305716000001 L 1081.5871880610637 84.94305716000001 L 1081.5871880610637 128.884754037 L 956.5192372076809 128.884754037 L 956.5192372076809 84.94305716000001 Z" stroke-miterlimit="10" stroke-width="2.613632528" stroke-dasharray=""/></g><g><text fill="black" stroke="none" font-family="sans-serif" font-size="11pt" font-style="normal" font-weight="normal" text-decoration="normal" x="974.242932788181" y="112.54955073700002" text-anchor="start" dominant-baseline="alphabetic" xml:space="preserve">Entity Service</text></g><g><path fill="white" stroke="blue" paint-order="fill stroke markers" d=" M 1185.4645362252916 96.867755569 L 1185.4645362252916 62.563828639 L 1233.1633298612917 62.563828639 L 1233.1633298612917 96.867755569" stroke-miterlimit="10" stroke-width="2.7769845610000004" stroke-dasharray=""/><path fill="white" stroke="blue" paint-order="fill stroke markers" d=" M 1233.1633298612917 61.3713587981 L 1233.162137401388 61.47916934301662 L 1233.158560140922 61.58696910696859 L 1233.1525984376165 61.69474731006935 L 1233.1442528876373 61.8024931745884 L 1233.133524325532 61.91019592602908 L 1233.1204138241483 62.017844794206 L 1233.104922694525 62.125429014322044 L 1233.0870524857623 62.232937828044854 L 1233.0668049848664 62.34036048458265 L 1233.04418221657 62.44768624175929 L 1233.0191864431317 62.55490436708851 L 1232.9918201641078 62.66200413884712 L 1232.9620861161031 62.76897484714718 L 1232.929987272498 62.87580579500701 L 1232.8955268431498 62.982486299420856 L 1232.858708274073 63.08900569242717 L 1232.8195352470939 63.19535332217542 L 1232.778011679482 63.30151855399125 L 1232.73414172356 63.40749077143996 L 1232.6879297662867 63.5132593773881 L 1232.6393804288193 63.618813795063225 L 1232.5884985660514 63.724143469111524 L 1232.5352892661263 63.82923786665337 L 1232.4797578499301 63.93408647833659 L 1232.4219098705582 64.03867881938739 L 1232.36175111276 64.1430044306588 L 1232.2992875923612 64.24705287967667 L 1232.2345255556622 64.35081376168277 L 1232.167471478812 64.45427670067541 L 1232.098132067163 64.55743135044686 L 1232.0265142545986 64.66026739561813 L 1231.95262520284 64.7627745526704 L 1231.8764723007307 64.86494257097338 L 1231.798063163498 64.96676123381039 L 1231.71740563199 65.06822035939997 L 1231.6345077718925 65.16930980191414 L 1231.5493778729226 65.27001945249287 L 1231.4620244479993 65.37033924025505 L 1231.372456232392 65.47025913330548 L 1231.2806821828478 65.56976913973813 L 1231.1867114766956 65.66885930863528 L 1231.090553510927 65.7675197310626 L 1230.9922179012588 65.86574054106009 L 1230.89171448117 65.96351191662859 L 1230.7890533009188 66.06082408071202 L 1230.6842446265377 66.15766730217506 L 1230.577298938807 66.25403189677627 L 1230.468226932206 66.3499082281365 L 1230.3570395138447 66.4452867087025 L 1230.2437478023721 66.54015780070569 L 1230.1283631268652 66.63451201711595 L 1230.0108970256952 66.72833992259025 L 1229.8913612453744 66.82163213441623 L 1229.769767739381 66.91437932345046 L 1229.6461286669646 67.00657221505134 L 1229.5204563919292 67.0982015900065 L 1229.3927634813977 67.18925828545483 L 1229.2630627045548 67.27973319580266 L 1229.1313670313698 67.36961727363435 L 1228.9976896313005 67.45890153061701 L 1228.8620438719756 67.54757703839935 L 1228.7244433178578 67.6356349295045 L 1228.5849017288879 67.72306639821673 L 1228.4434330591087 67.80986270146201 L 1228.3000514552689 67.89601515968236 L 1228.1547712554095 67.98151515770375 L 1228.0076069874299 68.06635414559763 L 1227.8585733676337 68.15052363953589 L 1227.7076852992589 68.2340152226393 L 1227.5549578709865 68.31682054581911 L 1227.400406355432 68.39893132861202 L 1227.2440462076186 68.48033936000816 L 1227.0858930634304 68.56103649927225 L 1226.9259627380502 68.6410146767576 L 1226.764271224377 68.72026589471311 L 1226.6008346914275 68.79878222808303 L 1226.435669482719 68.87655582529945 L 1226.2687921146348 68.95357890906746 L 1226.1002192747724 69.02984377714286 L 1225.9299678202751 69.10534280310242 L 1225.758054776147 69.18006843710643 L 1225.584497333549 69.25401320665378 L 1225.4093128480806 69.32716971732913 L 1225.2325188380446 69.39953065354239 L 1225.0541329826945 69.47108877926021 L 1224.8741731204673 69.54183693872967 L 1224.6926572471991 69.61176805719379 L 1224.5096035143263 69.68087514159897 L 1224.3250302270692 69.74915128129439 L 1224.138955842603 69.81658964872294 L 1223.9513989682112 69.88318350010411 L 1223.7623783594245 69.94892617610824 L 1223.5719129181466 70.01381110252252 L 1223.3800216907628 70.07783179090838 L 1223.186723866236 70.14098183925032 L 1222.9920387741874 70.20325493259614 L 1222.7959858829643 70.26464484368842 L 1222.5985847976922 70.32514543358717 L 1222.399855258315 70.38475065228383 L 1222.1998171376213 70.44345453930622 L 1221.9984904392563 70.50125122431453 L 1221.7958952957222 70.55813492768844 L 1221.5920519663646 70.61409996110503 L 1221.386980835346 70.66914072810756 L 1221.1807024096095 70.72325172466522 L 1220.9732373168251 70.77642753972344 L 1220.7646063033294 70.82866285574504 L 1220.5548302320499 70.87995244924193 L 1220.3439300804189 70.9302911912975 L 1220.131926938276 70.9796740480795 L 1219.9188420057583 71.0280960813434 L 1219.7046965911818 71.07555244892625 L 1219.4895121089096 71.12203840523081 L 1219.2733100772105 71.16754930170019 L 1219.0561121161072 71.21208058728268 L 1218.837939945215 71.25562780888683 L 1218.6188153815697 71.29818661182675 L 1218.3987603374444 71.33975274025764 L 1218.1777968181602 71.38032203760127 L 1217.9559469198853 71.41989044696174 L 1217.7332328274242 71.45845401153106 L 1217.5096768120009 71.49600887498494 L 1217.2853012290302 71.5325512818683 L 1217.060128515884 71.56807757797091 L 1216.8341811896455 71.60258421069277 L 1216.6074818448594 71.63606772939937 L 1216.3800531512709 71.66852478576672 L 1216.1519178515603 71.69995213411627 L 1215.9230987590668 71.73034663173934 L 1215.6936187555095 71.7597052392115 L 1215.4635007886975 71.78802502069648 L 1215.2327678702354 71.81530314423973 L 1215.001443073223 71.84153688205163 L 1214.7695495299472 71.86672361078024 L 1214.537110429569 71.8908608117737 L 1214.304149015805 71.913946071332 L 1214.070688584602 71.93597708094846 L 1213.836752481809 71.95695163754044 L 1213.6023641008412 71.97686764366978 L 1213.3675468803413 71.99572310775245 L 1213.1323243018355 72.01351614425778 L 1212.8967198873859 72.03024497389691 L 1212.6607571972377 72.04590792380084 L 1212.424459827463 72.06050342768764 L 1212.1878514076018 72.07403002601906 L 1211.9509555982993 72.08648636614654 L 1211.7137960889388 72.09787120244648 L 1211.4763965952736 72.1081833964447 L 1211.2387808570552 72.11742191693043 L 1211.0009726356595 72.12558584005929 L 1210.7629957117106 72.13267434944576 L 1210.5248738827022 72.13868673624485 L 1210.2866309606188 72.14362239922286 L 1210.0482907695546 72.14748084481762 L 1209.8098771433295 72.1502616871878 L 1209.571413923108 72.15196464825142 L 1209.3329249550127 72.15258955771385 L 1209.0944340877422 72.15213635308466 L 1208.8559651701844 72.15060507968391 L 1208.6175420490322 72.14799589063767 L 1208.379188566399 72.1443090468627 L 1208.1409285574348 72.13954491704027 L 1207.9027858479415 72.1337039775794 L 1207.6647842519917 72.12678681256918 L 1207.4269475695469 72.11879411372033 L 1207.189299584077 72.10972668029609 L 1206.9518640601825 72.09958541903224 L 1206.7146647412178 72.08837134404646 L 1206.4777253469174 72.07608557673689 L 1206.241069571023 72.06272934567005 L 1206.0047210789153 72.04830398645788 L 1205.7687035052463 72.0328109416243 L 1205.5330404515767 72.01625176046089 L 1205.2977554840156 71.99862809887196 L 1205.0628721308635 71.97994171920898 L 1204.8284138802603 71.96019449009434 L 1204.5944041778353 71.9393883862345 L 1204.360866424364 71.91752548822251 L 1204.127823973427 71.89460798232996 L 1203.8953001290754 71.87063816028832 L 1203.6633181434995 71.84561841905983 L 1203.4319012147048 71.81955126059778 L 1203.2010724841914 71.79243929159627 L 1202.9708550346397 71.7642852232296 L 1202.7412718876033 71.73509187088118 L 1202.512346001205 71.7048621538619 L 1202.284100267843 71.67359909511825 L 1202.0565575119003 71.64130582093009 L 1201.8297404874631 71.6079855605979 L 1201.6036718760445 71.57364164611994 L 1201.3783742843175 71.53827751185906 L 1201.1538702418536 71.50189669419922 L 1200.9301821988697 71.46450283119185 L 1200.7073325239837 71.42609966219209 L 1200.4853435019777 71.38669102748484 L 1200.2642373315684 71.34628086790075 L 1200.0440361231892 71.30487322442208 L 1199.8247618967769 71.26247223777868 L 1199.6064365795717 71.21908214803388 L 1199.3890820039235 71.17470729416048 L 1199.1727199051084 71.12935211360693 L 1198.957371919156 71.08302114185344 L 1198.7430595806857 71.0357190119586 L 1198.5298043207526 70.987450454096 L 1198.317627464705 70.93822029508118 L 1198.1065502300519 70.88803345788901 L 1197.8965937243406 70.8368949611614 L 1197.6877789430466 70.7848099187054 L 1197.4801267674743 70.73178353898187 L 1197.273657962668 70.67782112458457 L 1197.0683931753365 70.62292807170999 L 1196.864352931787 70.56710986961765 L 1196.661557635874 70.51037210008127 L 1196.4600275669584 70.4527204368305 L 1196.2597828778785 70.39416064498364 L 1196.060843592937 70.33469858047107 L 1195.8632296058963 70.27434018944969 L 1195.6669606779903 70.2130915077083 L 1195.4720564359486 70.15095866006402 L 1195.2785363700325 70.08794785974987 L 1195.0864198320878 70.02406540779336 L 1194.895726033608 69.95931769238642 L 1194.706474043814 69.89371118824668 L 1194.5186827877471 69.82725245596986 L 1194.3323710443765 69.7599481413738 L 1194.147557444721 69.69180497483389 L 1193.964260469987 69.62282977060998 L 1193.7824984497188 69.55302942616503 L 1193.6022895599672 69.4824109214753 L 1193.423651821471 69.41098131833243 L 1193.246603097855 69.3387477596372 L 1193.0711610938442 69.26571746868528 L 1192.8973433534927 69.19189774844492 L 1192.7251672584298 69.1172959808266 L 1192.5546500261216 69.04191962594494 L 1192.385808708149 68.96577622137262 L 1192.218660188503 68.88887338138663 L 1192.0532211818966 68.81121879620689 L 1191.8895082320926 68.73282023122718 L 1191.7275377102492 68.6536855262387 L 1191.5673258132838 68.573822594646 L 1191.4088885622527 68.49323942267567 L 1191.252241800749 68.41194406857777 L 1191.097401193318 68.32994466181995 L 1190.9443822238918 68.24724940227456 L 1190.7932001942395 68.16386655939866 L 1190.6438702224382 68.07980447140702 L 1190.4964072413607 67.99507154443839 L 1190.3508259971823 67.90967625171488 L 1190.2071410479057 67.8236271326946 L 1190.0653667619065 67.73693279221771 L 1189.925517316495 67.64960189964606 L 1189.7876066964993 67.56164318799608 L 1189.6516486928663 67.47306545306569 L 1189.5176569012833 67.38387755255452 L 1189.3856447208175 67.29408840517834 L 1189.2556253525772 67.20370698977703 L 1189.1276117983907 67.11274234441683 L 1189.0016168595068 67.02120356548647 L 1188.8776531353144 66.92909980678756 L 1188.7557330220827 66.83644027861922 L 1188.6358687117213 66.74323424685704 L 1188.5180721905613 66.64949103202653 L 1188.4023552381568 66.55522000837107 L 1188.2887294261068 66.46043060291444 L 1188.1772061168972 66.3651322945182 L 1188.0677964627666 66.2693346129338 L 1187.960511404589 66.17304713784955 L 1187.8553616707807 66.07627949793272 L 1187.7523577762277 65.97904136986665 L 1187.6515100212334 65.88134247738313 L 1187.5528284904892 65.78319259028999 L 1187.4563230520664 65.68460152349414 L 1187.3620033564277 65.58557913602012 L 1187.2698788354649 65.48613533002413 L 1187.1799587015526 65.38628004980393 L 1187.0922519466296 65.2860232808043 L 1187.0067673412984 65.18537504861862 L 1186.923513433948 65.08434541798623 L 1186.8424985499003 64.982944491786 L 1186.7637307905754 64.88118241002603 L 1186.687218032684 64.77906934882972 L 1186.6129679274384 64.67661551941809 L 1186.5409878997866 64.5738311670887 L 1186.471285147672 64.47072657019112 L 1186.4038666413114 64.36731203909913 L 1186.3387391224994 64.26359791517966 L 1186.2759091039336 64.15959456975868 L 1186.2153828685634 64.05531240308405 L 1186.157166468962 63.95076184328555 L 1186.1012657267206 63.84595334533201 L 1186.0476862318671 63.74089738998592 L 1185.9964333423065 63.63560448275524 L 1185.9475121832845 63.530085152842965 L 1185.9009276468769 63.42434995209415 L 1185.8566843914978 63.318409453940745 L 1185.8147868414364 63.2122742523443 L 1185.7752391864126 63.105954960736526 L 1185.738045381159 62.99946221095797 L 1185.703209145025 62.892806652194885 L 1185.6707339616055 62.78599894991426 L 1185.6406230783914 62.679049784797314 L 1185.6128795064462 62.57196985167143 L 1185.5875060201038 62.464769858440704 L 1185.564505156692 62.357460525015114 L 1185.5438792162774 62.25005258223858 L 1185.5256302614373 62.14255677081588 L 1185.5097601170519 62.03498384023857 L 1185.4962703701224 61.92734454771006 L 1185.4851623696122 61.81964965706991 L 1185.476437226312 61.71190993771744 L 1185.4700958127291 61.6041361635348 L 1185.4661387629994 61.49633911180959 L 1185.4645664728248 61.38852956215717 L 1185.4653790994328 61.28071829544265 L 1185.4685765615613 61.172916092702856 L 1185.474158539467 61.06513373406823 L 1185.4821244749567 60.957381997684834 L 1185.4924735714435 60.84967165863649 L 1185.5052047940262 60.74201348786736 L 1185.5203168695934 60.6344182511048 L 1185.53780828695 60.526896707782825 L 1185.5576772969687 60.41945960996616 L 1185.5799219127655 60.31211770127506 L 1185.6045399098969 60.204881715810956 L 1185.631528826584 60.097762377083015 L 1185.6608859639573 59.99077039693585 L 1185.6926083863277 59.88391647447831 L 1185.7266929214795 59.7772112950136 L 1185.7631361609876 59.67066552897075 L 1185.8019344605584 59.56428983083758 L 1185.843083940394 59.45809483809524 L 1185.8865804855811 59.35209117015452 L 1185.9324197465012 59.24628942729389 L 1185.9805971392664 59.14070018959944 L 1186.0311078461775 59.03533401590697 L 1186.0839468162062 58.93020144274604 L 1186.1391087654993 58.82531298328635 L 1186.1965881779079 58.72067912628645 L 1186.2563793055388 58.61631033504484 L 1186.3184761693287 58.51221704635366 L 1186.3828725596431 58.40840966945505 L 1186.4495620368969 58.30489858500019 L 1186.5185379321977 58.20169414401126 L 1186.5897933480135 58.098806666846365 L 1186.6633211588621 57.996246442167475 L 1186.7391140120237 57.894023725911595 L 1186.8171643282762 57.79214874026516 L 1186.897464302653 57.69063167264185 L 1186.9800059052234 57.58948267466382 L 1187.0647808818962 57.488711861146584 L 1187.151780755244 57.38832930908751 L 1187.2409968253526 57.28834505665816 L 1187.3324201706885 57.18876910220045 L 1187.426041648994 57.08961140322686 L 1187.5218518981992 56.99088187542464 L 1187.6198413373588 56.8925903916643 L 1187.7200001676106 56.794746781012314 L 1187.822318373155 56.6973608277482 L 1187.926785722257 56.60044227038614 L 1188.0333917682683 56.5040008007011 L 1188.1421258506737 56.40804606275968 L 1188.252977096155 56.31258765195572 L 1188.3659344196803 56.217635114050736 L 1188.4809865256113 56.12319794421941 L 1188.5981219088335 56.029285586100016 L 1188.717328855906 55.93590743085011 L 1188.8385954462335 55.8430728162074 L 1188.9619095532578 55.75079102555599 L 1189.0872588456714 55.65907128699804 L 1189.214630788649 55.56792277243099 L 1189.3440126451028 55.47735459663031 L 1189.4753914769549 55.387375816338135 L 1189.6087541464315 55.29799542935749 L 1189.7440873173769 55.20922237365261 L 1189.8813774565867 55.12106552645507 L 1190.0206108351615 55.033533703376136 L 1190.1617735298794 54.94663565752517 L 1190.3048514245886 54.86038007863435 L 1190.4498302116187 54.77477559218967 L 1190.596695393212 54.689830758568455 L 1190.7454322829726 54.60555407218327 L 1190.8960260073356 54.52195396063252 L 1191.0484615070538 54.439038783857704 L 1191.2027235387047 54.35681683330739 L 1191.3587966762134 54.27529633110813 L 1191.5166653123963 54.19448542924221 L 1191.6763136605211 54.114392208732454 L 1191.8377257558864 54.03502467883419 L 1192.0008854574166 53.95639077623426 L 1192.1657764492784 53.878498364257396 L 1192.3323822425093 53.801355232079885 L 1192.500686176669 53.72496909395066 L 1192.6706714215043 53.649347588419886 L 1192.8423209786326 53.57449827757509 L 1193.0156176832409 53.50042864628498 L 1193.1905442058035 53.42714610145097 L 1193.3670830538135 53.35465797126647 L 1193.5452165735337 53.28297150448409 L 1193.7249269517602 53.21209386969077 L 1193.9061962176052 53.14203215459092 L 1194.089006244293 53.072793365297684 L 1194.2733387509732 53.00438442563227 L 1194.4591753045488 52.93681217643165 L 1194.6464973215193 52.870083374864436 L 1194.8352860698394 52.80420469375517 L 1195.0255226707911 52.739182720917064 L 1195.2171881008733 52.67502395849323 L 1195.4102631937023 52.611734822306424 L 1195.60472864193 52.54932164121754 L 1195.8005649991735 52.48779065649267 L 1195.9977526819605 52.427148021179015 L 1196.1962719716867 52.36739979948956 L 1196.3961030165885 52.3085519661967 L 1196.5972258337285 52.25061040603471 L 1196.7996203109922 52.19358091311133 L 1197.0032662091003 52.13746919032833 L 1197.2081431636332 52.08228084881122 L 1197.4142306870658 52.02802140734818 L 1197.6215081708178 51.974696291838114 L 1197.8299548873133 51.922310834748146 L 1198.0395499920544 51.87087027458034 L 1198.2502725257054 51.82037975534783 L 1198.4621014161885 51.770844326060484 L 1198.675015480791 51.72226894021993 L 1198.888993428284 51.674658455324284 L 1199.1040138610513 51.62801763238236 L 1199.3200552772284 51.58235113543759 L 1199.5370960728542 51.5376635311016 L 1199.7551145440293 51.49395928809759 L 1199.974088889089 51.451242776813444 L 1200.1939972107807 51.409518268864694 L 1200.414817518456 51.368789936667355 L 1200.6365277302675 51.32906185302072 L 1200.8591056753794 51.29033799070003 L 1201.0825290961825 51.252622222059266 L 1201.3067756505206 51.21591831864385 L 1201.5318229139257 51.18022995081354 L 1201.7576483818584 51.14556068737539 L 1201.9842294719604 51.11191399522683 L 1202.2115435263115 51.079293239009054 L 1202.4395678136957 51.047701680770494 L 1202.668279531874 51.01714247964064 L 1202.8976558098657 50.98761869151416 L 1203.1276737102337 50.95913326874524 L 1203.3583102313798 50.93168905985244 L 1203.5895423098443 50.90528880923376 L 1203.8213468226118 50.87993515689227 L 1204.0537005894241 50.85563063817208 L 1204.2865803750983 50.83237768350481 L 1204.51996289185 50.81017861816654 L 1204.7538248016215 50.78903566204531 L 1204.9881427184173 50.768950929419105 L 1205.222893210641 50.749926428744466 L 1205.4580528034385 50.7319640624556 L 1205.6935979810469 50.71506562677416 L 1205.9295051891445 50.69923281152964 L 1206.1657508372073 50.684467199990365 L 1206.402311300867 50.6707702687052 L 1206.6391629242748 50.658143387355835 L 1206.8762820224654 50.64658781861989 L 1207.113644883727 50.63610471804463 L 1207.3512277719706 50.62669513393135 L 1207.589006929106 50.61836000723063 L 1207.8269585774153 50.61110017144819 L 1208.0650589219322 50.604916352561574 L 1208.3032841528202 50.5998091689475 L 1208.5416104477551 50.595779131320086 L 1208.7800139743063 50.592826642679725 L 1209.018470892319 50.59095199827282 L 1209.256957356301 50.59015538556226 L 1209.495449517804 50.59043688420866 L 1209.733923527811 50.59179646606236 L 1209.9723555391192 50.594233995166334 L 1210.2107217087266 50.59774922776969 L 1210.448998200215 50.6023418123521 L 1210.6871611861334 50.60801128965893 L 1210.925186850382 50.61475709274719 L 1211.1630513905925 50.622578547042174 L 1211.4007310205093 50.63147487040497 L 1211.6382019723671 50.64144517321068 L 1211.8754404992692 50.6524884584373 L 1212.1124228775602 50.66460362176552 L 1212.3491254091998 50.67778945168912 L 1212.585524424132 50.69204462963607 L 1212.8215962826525 50.70736773010048 L 1213.0573173777723 50.72375722078505 L 1213.292664137578 50.74121146275439 L 1213.5276130275897 50.759728710598836 L 1213.7621405531147 50.77930711260903 L 1213.9962232615953 50.79994471096109 L 1214.229837744956 50.821639441912396 L 1214.4629606419433 50.844389136007905 L 1214.6955686404613 50.86819151829718 L 1214.9276384799043 50.893044208561825 L 1215.159146953482 50.91894472155353 L 1215.3900709105392 50.94589046724256 L 1215.6203872588735 50.973878751076825 L 1215.8500729670413 51.00290677425126 L 1216.0791050666637 51.03297163398772 L 1216.3074606547214 51.064070323825305 L 1216.535116895846 51.09619973392093 L 1216.7620510246027 51.129356651360375 L 1216.9882403477682 51.16353776047952 L 1217.2136622465982 51.198739643195935 L 1217.4382941790914 51.23495877935069 L 1217.662113682241 51.27219154706035 L 1217.8850983742834 51.31043422307917 L 1218.1072259569355 51.349682983171405 L 1218.328474217624 51.38993390249377 L 1218.5488210317071 51.43118295598788 L 1218.768244364687 51.47342601878273 L 1218.9867222744135 51.51665886660727 L 1219.2042329132773 51.56087717621274 L 1219.4207545303962 51.60607652580503 L 1219.6362654737886 51.65225239548683 L 1219.8507441925399 51.69940016770967 L 1220.0641692389568 51.74751512773561 L 1220.2765192707127 51.79659246410874 L 1220.4877730529813 51.84662726913632 L 1220.6979094605606 51.89761453937955 L 1220.9069074799847 51.949549176153894 L 1221.1147462116257 52.00242598603895 L 1221.3214048717841 52.0562396813978 L 1221.5268627947657 52.11098488090573 L 1221.7310994349498 52.16665611008844 L 1221.9340943688421 52.22324780186939 L 1222.1358272971188 52.28075429712656 L 1222.3362780466548 52.339169845258354 L 1222.5354265725425 52.398488604758626 L 1222.7332529600951 52.458704643800864 L 1222.9297374268388 52.51981194083135 L 1223.1248603244903 52.581804385171296 L 1223.318602140923 52.64467577762793 L 1223.5109435021166 52.708419831114405 L 1223.701865174095 52.77303017127848 L 1223.8913480648503 52.83850033713999 L 1224.0793732262512 52.90482378173691 L 1224.2659218559381 52.97199387278003 L 1224.450975299204 53.040003893316246 L 1224.6345150508582 53.108847042400164 L 1224.816522757079 53.17851643577425 L 1224.9969802172468 53.24900510655722 L 1225.1758693857666 53.32030600594074 L 1225.3531723738706 53.39241200389429 L 1225.5288714514072 53.465315889878156 L 1225.7029490486157 53.5390103735645 L 1225.8753877578808 53.61348808556637 L 1226.0461703354758 53.68874157817461 L 1226.2152797032852 53.76476332610268 L 1226.3826989505128 53.84154572723915 L 1226.5484113353737 53.91908110340788 L 1226.7124002867674 53.99736170113587 L 1226.8746494059353 54.07637969242858 L 1227.035142468101 54.156127175552726 L 1227.1938634240917 54.236596175826456 L 1227.3507964019443 54.3177786464168 L 1227.5059257084918 54.39966646914434 L 1227.6592358309324 54.48225145529506 L 1227.8107114383822 54.56552534643915 L 1227.9603373834063 54.6494798152569 L 1228.1080987035352 54.73410646637139 L 1228.2539806227596 54.81939683718802 L 1228.3979685530096 54.9053423987408 L 1228.5400480956118 54.99193455654518 L 1228.6802050427304 55.079164651457546 L 1228.8184253787877 55.16702396054111 L 1228.954695281865 55.25550369793815 L 1229.0890011250858 55.344595015748695 L 1229.2213294779776 55.43428900491518 L 1229.3516671078153 55.52457669611344 L 1229.4800009809446 55.615449060649595 L 1229.6063182640853 55.706897011362926 L 1229.730606325614 55.79891140353456 L 1229.8528527368285 55.891483035801954 L 1229.9730452731892 55.98460265107904 L 1230.0911719155426 56.07826093748187 L 1230.2072208513234 56.17244852925987 L 1230.3211804757343 56.26715600773234 L 1230.4330393929079 56.36237390223035 L 1230.5427864170458 56.45809269104382 L 1230.6504105735369 56.55430280237361 L 1230.7559011000553 56.65099461528878 L 1230.8592474476366 56.74815846068861 L 1230.9604392817314 56.84578462226952 L 1231.0594664832413 56.943863337496715 L 1231.1563191495284 57.0423847985804 L 1231.2509875954067 57.14133915345658 L 1231.3434623541107 57.240716506772216 L 1231.4337341782414 57.34050692087479 L 1231.5217940406917 57.44070041680606 L 1231.607633135549 57.54128697529992 L 1231.6912428789747 57.64225653778434 L 1231.7726149100647 57.74359900738722 L 1231.8517410916836 57.84530424994605 L 1231.928613511279 57.94736209502132 L 1232.0032244816732 58.04976233691358 L 1232.0755665418312 58.15249473568397 L 1232.1456324576075 58.25554901817823 L 1232.2134152224685 58.35891487905398 L 1232.2789080581945 58.46258198181127 L 1232.3421044155564 58.566539959826216 L 1232.402997974971 58.67077841738765 L 1232.4615826471336 58.77528693073668 L 1232.517852573625 58.88005504910905 L 1232.5718021275004 58.985072295780256 L 1232.6234259138485 59.09032816911312 L 1232.6727187703343 59.19581214360803 L 1232.7196757677127 59.301513670955444 L 1232.7642922103237 59.4074221810907 L 1232.8065636365598 59.513527083251056 L 1232.8464858193136 59.619817767034704 L 1232.8840547664001 59.72628360346185 L 1232.9192667209563 59.832913946037564 L 1232.9521181618156 59.939698131816456 L 1232.9826058038614 60.046625482468926 L 1233.0107265983552 60.153685305349015 L 1233.0364777332406 60.26086689456366 L 1233.0598566334256 60.36815953204325 L 1233.0808609610401 60.47555248861345 L 1233.0994886156682 60.5830350250681 L 1233.1157377345605 60.69059639324311 L 1233.1296066928185 60.79822583709131 L 1233.1410941035576 60.905912593758 L 1233.1501988180469 61.01364589465726 L 1233.156919925822 61.12141496654876 L 1233.1612567547782 61.22920903261514 L 1233.1632088712356 61.337017313539604 M 1233.1633298612917 95.6752857281 L 1233.162137401388 95.78309627301661 L 1233.158560140922 95.89089603696858 L 1233.1525984376165 95.99867424006935 L 1233.1442528876373 96.1064201045884 L 1233.133524325532 96.21412285602908 L 1233.1204138241483 96.321771724206 L 1233.104922694525 96.42935594432204 L 1233.0870524857623 96.53686475804484 L 1233.0668049848664 96.64428741458265 L 1233.04418221657 96.75161317175929 L 1233.0191864431317 96.85883129708851 L 1232.9918201641078 96.96593106884711 L 1232.9620861161031 97.07290177714718 L 1232.929987272498 97.17973272500701 L 1232.8955268431498 97.28641322942086 L 1232.858708274073 97.39293262242717 L 1232.8195352470939 97.49928025217542 L 1232.778011679482 97.60544548399125 L 1232.73414172356 97.71141770143996 L 1232.6879297662867 97.8171863073881 L 1232.6393804288193 97.92274072506322 L 1232.5884985660514 98.02807039911151 L 1232.5352892661263 98.13316479665336 L 1232.4797578499301 98.23801340833658 L 1232.4219098705582 98.34260574938737 L 1232.36175111276 98.4469313606588 L 1232.2992875923612 98.55097980967666 L 1232.2345255556622 98.65474069168278 L 1232.167471478812 98.7582036306754 L 1232.098132067163 98.86135828044685 L 1232.0265142545986 98.96419432561812 L 1231.95262520284 99.0667014826704 L 1231.8764723007307 99.16886950097337 L 1231.798063163498 99.27068816381038 L 1231.71740563199 99.37214728939998 L 1231.6345077718925 99.47323673191414 L 1231.5493778729226 99.57394638249288 L 1231.4620244479993 99.67426617025505 L 1231.372456232392 99.77418606330548 L 1231.2806821828478 99.87369606973812 L 1231.1867114766956 99.97278623863527 L 1231.090553510927 100.0714466610626 L 1230.9922179012588 100.1696674710601 L 1230.89171448117 100.2674388466286 L 1230.7890533009188 100.36475101071201 L 1230.6842446265377 100.46159423217506 L 1230.577298938807 100.55795882677627 L 1230.468226932206 100.65383515813649 L 1230.3570395138447 100.74921363870249 L 1230.2437478023721 100.84408473070569 L 1230.1283631268652 100.93843894711594 L 1230.0108970256952 101.03226685259024 L 1229.8913612453744 101.12555906441622 L 1229.769767739381 101.21830625345046 L 1229.6461286669646 101.31049914505132 L 1229.5204563919292 101.4021285200065 L 1229.3927634813977 101.49318521545483 L 1229.2630627045548 101.58366012580265 L 1229.1313670313698 101.67354420363434 L 1228.9976896313005 101.762828460617 L 1228.8620438719756 101.85150396839936 L 1228.7244433178578 101.93956185950451 L 1228.5849017288879 102.02699332821673 L 1228.4434330591087 102.11378963146201 L 1228.3000514552689 102.19994208968237 L 1228.1547712554095 102.28544208770374 L 1228.0076069874299 102.37028107559762 L 1227.8585733676337 102.45445056953588 L 1227.7076852992589 102.53794215263929 L 1227.5549578709865 102.6207474758191 L 1227.400406355432 102.70285825861201 L 1227.2440462076186 102.78426629000816 L 1227.0858930634304 102.86496342927225 L 1226.9259627380502 102.9449416067576 L 1226.764271224377 103.02419282471311 L 1226.6008346914275 103.10270915808303 L 1226.435669482719 103.18048275529944 L 1226.2687921146348 103.25750583906745 L 1226.1002192747724 103.33377070714286 L 1225.9299678202751 103.4092697331024 L 1225.758054776147 103.48399536710642 L 1225.584497333549 103.55794013665377 L 1225.4093128480806 103.63109664732913 L 1225.2325188380446 103.70345758354237 L 1225.0541329826945 103.7750157092602 L 1224.8741731204673 103.84576386872968 L 1224.6926572471991 103.91569498719377 L 1224.5096035143263 103.98480207159896 L 1224.3250302270692 104.05307821129438 L 1224.138955842603 104.12051657872294 L 1223.9513989682112 104.1871104301041 L 1223.7623783594245 104.25285310610823 L 1223.5719129181466 104.31773803252251 L 1223.3800216907628 104.38175872090837 L 1223.186723866236 104.44490876925032 L 1222.9920387741874 104.50718186259614 L 1222.7959858829643 104.5685717736884 L 1222.5985847976922 104.62907236358716 L 1222.399855258315 104.68867758228383 L 1222.1998171376213 104.7473814693062 L 1221.9984904392563 104.80517815431453 L 1221.7958952957222 104.86206185768845 L 1221.5920519663646 104.91802689110501 L 1221.386980835346 104.97306765810755 L 1221.1807024096095 105.02717865466522 L 1220.9732373168251 105.08035446972343 L 1220.7646063033294 105.13258978574503 L 1220.5548302320499 105.18387937924192 L 1220.3439300804189 105.23421812129749 L 1220.131926938276 105.28360097807949 L 1219.9188420057583 105.33202301134341 L 1219.7046965911818 105.37947937892625 L 1219.4895121089096 105.4259653352308 L 1219.2733100772105 105.4714762317002 L 1219.0561121161072 105.51600751728267 L 1218.837939945215 105.55955473888682 L 1218.6188153815697 105.60211354182675 L 1218.3987603374444 105.64367967025764 L 1218.1777968181602 105.68424896760128 L 1217.9559469198853 105.72381737696173 L 1217.7332328274242 105.76238094153106 L 1217.5096768120009 105.79993580498493 L 1217.2853012290302 105.83647821186828 L 1217.060128515884 105.8720045079709 L 1216.8341811896455 105.90651114069276 L 1216.6074818448594 105.93999465939936 L 1216.3800531512709 105.97245171576672 L 1216.1519178515603 106.00387906411626 L 1215.9230987590668 106.03427356173933 L 1215.6936187555095 106.0636321692115 L 1215.4635007886975 106.09195195069648 L 1215.2327678702354 106.11923007423972 L 1215.001443073223 106.14546381205162 L 1214.7695495299472 106.17065054078024 L 1214.537110429569 106.1947877417737 L 1214.304149015805 106.21787300133201 L 1214.070688584602 106.23990401094846 L 1213.836752481809 106.26087856754044 L 1213.6023641008412 106.28079457366978 L 1213.3675468803413 106.29965003775246 L 1213.1323243018355 106.31744307425777 L 1212.8967198873859 106.3341719038969 L 1212.6607571972377 106.34983485380084 L 1212.424459827463 106.36443035768762 L 1212.1878514076018 106.37795695601905 L 1211.9509555982993 106.39041329614655 L 1211.7137960889388 106.40179813244647 L 1211.4763965952736 106.4121103264447 L 1211.2387808570552 106.42134884693041 L 1211.0009726356595 106.42951277005928 L 1210.7629957117106 106.43660127944577 L 1210.5248738827022 106.44261366624485 L 1210.2866309606188 106.44754932922287 L 1210.0482907695546 106.45140777481762 L 1209.8098771433295 106.45418861718778 L 1209.571413923108 106.45589157825142 L 1209.3329249550127 106.45651648771386 L 1209.0944340877422 106.45606328308465 L 1208.8559651701844 106.4545320096839 L 1208.6175420490322 106.45192282063768 L 1208.379188566399 106.44823597686269 L 1208.1409285574348 106.44347184704026 L 1207.9027858479415 106.43763090757939 L 1207.6647842519917 106.43071374256917 L 1207.4269475695469 106.42272104372033 L 1207.189299584077 106.41365361029608 L 1206.9518640601825 106.40351234903224 L 1206.7146647412178 106.39229827404645 L 1206.4777253469174 106.38001250673689 L 1206.241069571023 106.36665627567004 L 1206.0047210789153 106.35223091645787 L 1205.7687035052463 106.33673787162431 L 1205.5330404515767 106.32017869046089 L 1205.2977554840156 106.30255502887195 L 1205.0628721308635 106.28386864920897 L 1204.8284138802603 106.26412142009434 L 1204.5944041778353 106.2433153162345 L 1204.360866424364 106.22145241822251 L 1204.127823973427 106.19853491232995 L 1203.8953001290754 106.17456509028831 L 1203.6633181434995 106.14954534905984 L 1203.4319012147048 106.12347819059778 L 1203.2010724841914 106.09636622159626 L 1202.9708550346397 106.06821215322961 L 1202.7412718876033 106.03901880088118 L 1202.512346001205 106.0087890838619 L 1202.284100267843 105.97752602511825 L 1202.0565575119003 105.94523275093007 L 1201.8297404874631 105.91191249059789 L 1201.6036718760445 105.87756857611994 L 1201.3783742843175 105.84220444185907 L 1201.1538702418536 105.8058236241992 L 1200.9301821988697 105.76842976119184 L 1200.7073325239837 105.73002659219209 L 1200.4853435019777 105.69061795748485 L 1200.2642373315684 105.65020779790075 L 1200.0440361231892 105.60880015442207 L 1199.8247618967769 105.56639916777867 L 1199.6064365795717 105.52300907803387 L 1199.3890820039235 105.47863422416049 L 1199.1727199051084 105.43327904360692 L 1198.957371919156 105.38694807185344 L 1198.7430595806857 105.33964594195861 L 1198.5298043207526 105.291377384096 L 1198.317627464705 105.24214722508117 L 1198.1065502300519 105.19196038788901 L 1197.8965937243406 105.1408218911614 L 1197.6877789430466 105.08873684870541 L 1197.4801267674743 105.03571046898188 L 1197.273657962668 104.98174805458457 L 1197.0683931753365 104.92685500170998 L 1196.864352931787 104.87103679961766 L 1196.661557635874 104.81429903008126 L 1196.4600275669584 104.75664736683049 L 1196.2597828778785 104.69808757498365 L 1196.060843592937 104.63862551047107 L 1195.8632296058963 104.57826711944969 L 1195.6669606779903 104.51701843770829 L 1195.4720564359486 104.45488559006402 L 1195.2785363700325 104.39187478974986 L 1195.0864198320878 104.32799233779335 L 1194.895726033608 104.26324462238642 L 1194.706474043814 104.19763811824667 L 1194.5186827877471 104.13117938596986 L 1194.3323710443765 104.0638750713738 L 1194.147557444721 103.99573190483389 L 1193.964260469987 103.92675670060999 L 1193.7824984497188 103.85695635616503 L 1193.6022895599672 103.7863378514753 L 1193.423651821471 103.71490824833242 L 1193.246603097855 103.64267468963719 L 1193.0711610938442 103.56964439868527 L 1192.8973433534927 103.4958246784449 L 1192.7251672584298 103.4212229108266 L 1192.5546500261216 103.34584655594495 L 1192.385808708149 103.26970315137261 L 1192.218660188503 103.19280031138662 L 1192.0532211818966 103.11514572620688 L 1191.8895082320926 103.03674716122718 L 1191.7275377102492 102.9576124562387 L 1191.5673258132838 102.87774952464599 L 1191.4088885622527 102.79716635267567 L 1191.252241800749 102.71587099857777 L 1191.097401193318 102.63387159181995 L 1190.9443822238918 102.55117633227457 L 1190.7932001942395 102.46779348939864 L 1190.6438702224382 102.383731401407 L 1190.4964072413607 102.29899847443839 L 1190.3508259971823 102.21360318171489 L 1190.2071410479057 102.12755406269459 L 1190.0653667619065 102.04085972221772 L 1189.925517316495 101.95352882964605 L 1189.7876066964993 101.86557011799609 L 1189.6516486928663 101.77699238306569 L 1189.5176569012833 101.68780448255453 L 1189.3856447208175 101.59801533517833 L 1189.2556253525772 101.50763391977702 L 1189.1276117983907 101.41666927441683 L 1189.0016168595068 101.32513049548646 L 1188.8776531353144 101.23302673678755 L 1188.7557330220827 101.14036720861921 L 1188.6358687117213 101.04716117685703 L 1188.5180721905613 100.95341796202653 L 1188.4023552381568 100.85914693837105 L 1188.2887294261068 100.76435753291443 L 1188.1772061168972 100.66905922451821 L 1188.0677964627666 100.5732615429338 L 1187.960511404589 100.47697406784954 L 1187.8553616707807 100.3802064279327 L 1187.7523577762277 100.28296829986664 L 1187.6515100212334 100.18526940738312 L 1187.5528284904892 100.08711952028997 L 1187.4563230520664 99.98852845349413 L 1187.3620033564277 99.8895060660201 L 1187.2698788354649 99.79006226002413 L 1187.1799587015526 99.69020697980392 L 1187.0922519466296 99.5899502108043 L 1187.0067673412984 99.48930197861863 L 1186.923513433948 99.38827234798623 L 1186.8424985499003 99.28687142178599 L 1186.7637307905754 99.18510934002603 L 1186.687218032684 99.08299627882971 L 1186.6129679274384 98.98054244941808 L 1186.5409878997866 98.87775809708869 L 1186.471285147672 98.7746535001911 L 1186.4038666413114 98.67123896909912 L 1186.3387391224994 98.56752484517966 L 1186.2759091039336 98.46352149975867 L 1186.2153828685634 98.35923933308405 L 1186.157166468962 98.25468877328554 L 1186.1012657267206 98.14988027533201 L 1186.0476862318671 98.04482431998592 L 1185.9964333423065 97.93953141275524 L 1185.9475121832845 97.83401208284296 L 1185.9009276468769 97.72827688209414 L 1185.8566843914978 97.62233638394075 L 1185.8147868414364 97.5162011823443 L 1185.7752391864126 97.40988189073651 L 1185.738045381159 97.30338914095798 L 1185.703209145025 97.19673358219488 L 1185.6707339616055 97.08992587991426 L 1185.6406230783914 96.9829767147973 L 1185.6128795064462 96.87589678167143 L 1185.5875060201038 96.7686967884407 L 1185.564505156692 96.66138745501512 L 1185.5438792162774 96.55397951223858 L 1185.5256302614373 96.44648370081588 L 1185.5097601170519 96.33891077023856 L 1185.4962703701224 96.23127147771005 L 1185.4851623696122 96.1235765870699 L 1185.476437226312 96.01583686771744 L 1185.4700958127291 95.90806309353479 L 1185.4661387629994 95.80026604180959 L 1185.4645664728248 95.69245649215716" stroke-miterlimit="10" stroke-width="2.7769845610000004" stroke-dasharray=""/></g><g><text fill="black" stroke="none" font-family="sans-serif" font-size="11pt" font-style="normal" font-weight="normal" text-decoration="normal" x="1177.9359880970026" y="123.984193047" text-anchor="start" dominant-baseline="alphabetic" xml:space="preserve">Database</text></g></g><g><path fill="white" stroke="black" paint-order="fill stroke markers" d=" M 276.0168311817708 182.790924927 L 292.3520344817708 182.790924927 L 292.3520344817708 1081.2271064269996 L 276.0168311817708 1081.2271064269996 L 276.0168311817708 182.790924927" stroke-miterlimit="10" stroke-width="1.3612669416666667" stroke-dasharray=""/><path fill="white" stroke="black" paint-order="fill stroke markers" d=" M 539.2410678260416 261.199900767 L 555.5762711260417 261.199900767 L 555.5762711260417 1081.2271064269996 L 539.2410678260416 1081.2271064269996 L 539.2410678260416 261.199900767" stroke-miterlimit="10" stroke-width="1.3612669416666667" stroke-dasharray=""/><path fill="white" stroke="black" paint-order="fill stroke markers" d=" M 846.2541243114582 586.270446437 L 862.5893276114583 586.270446437 L 862.5893276114583 632.009015677 L 846.2541243114582 632.009015677 L 846.2541243114582 586.270446437" stroke-miterlimit="10" stroke-width="1.3612669416666667" stroke-dasharray=""/><path fill="white" stroke="black" paint-order="fill stroke markers" d=" M 1010.8856109843723 677.7475849169999 L 1027.2208142843724 677.7475849169999 L 1027.2208142843724 814.9632926369998 L 1010.8856109843723 814.9632926369998 L 1010.8856109843723 677.7475849169999" stroke-miterlimit="10" stroke-width="1.3612669416666667" stroke-dasharray=""/><path fill="white" stroke="black" paint-order="fill stroke markers" d=" M 1201.1463313932916 723.4861541569999 L 1217.4815346932917 723.4861541569999 L 1217.4815346932917 769.2247233969998 L 1201.1463313932916 769.2247233969998 L 1201.1463313932916 723.4861541569999" stroke-miterlimit="10" stroke-width="1.3612669416666667" stroke-dasharray=""/><g><g><rect fill="white" stroke="none" x="109.17360872166664" y="161.555160637" width="147.5132318884375" height="21.23576429"/></g><text fill="black" stroke="none" font-family="sans-serif" font-size="11pt" font-style="normal" font-weight="normal" text-decoration="normal" x="111.62388921666664" y="176.25684360699998" text-anchor="start" dominant-baseline="alphabetic" xml:space="preserve">Type search condition</text></g><g><path fill="none" stroke="black" paint-order="fill stroke markers" d=" M 89.84361815 182.790924927 L 262.56751379810413 182.790924927" stroke-miterlimit="10" stroke-width="1.3612669416666667" stroke-dasharray=""/><g transform="translate(276.0168311817708,182.790924927) translate(-276.0168311817708,-182.790924927)"><path fill="black" stroke="none" paint-order="stroke fill markers" d=" M 262.4041617651041 175.98459021866665 L 276.0168311817708 182.790924927 L 262.4041617651041 189.59725963533333 Z"/></g></g><g><g><rect fill="white" stroke="none" x="311.6820250534374" y="207.29372987699998" width="35.03657783570313" height="21.23576429"/></g><g><rect fill="white" stroke="none" x="311.6820250534374" y="223.62893317699996" width="208.2290522009375" height="21.23576429"/></g><g><rect fill="white" stroke="none" x="311.6820250534374" y="239.96413647699995" width="130.8132044226172" height="21.23576429"/></g><text fill="black" stroke="none" font-family="sans-serif" font-size="11pt" font-style="normal" font-weight="normal" text-decoration="normal" x="314.13230554843744" y="221.99541284699995" text-anchor="start" dominant-baseline="alphabetic" xml:space="preserve">GET</text><text fill="black" stroke="none" font-family="sans-serif" font-size="11pt" font-style="normal" font-weight="normal" text-decoration="normal" x="314.13230554843744" y="238.33061614699994" text-anchor="start" dominant-baseline="alphabetic" xml:space="preserve">api/search?entity={entityName}</text><text fill="black" stroke="none" font-family="sans-serif" font-size="11pt" font-style="normal" font-weight="normal" text-decoration="normal" x="314.13230554843744" y="254.66581944699993" text-anchor="start" dominant-baseline="alphabetic" xml:space="preserve">+ {paramToSearch}</text></g><g><path fill="none" stroke="black" paint-order="fill stroke markers" d=" M 292.3520344817708 261.199900767 L 525.7917504423749 261.199900767" stroke-miterlimit="10" stroke-width="1.3612669416666667" stroke-dasharray=""/><g transform="translate(539.2410678260416,261.199900767) translate(-539.2410678260416,-261.199900767)"><path fill="black" stroke="none" paint-order="stroke fill markers" d=" M 525.6283984093749 254.39356605866664 L 539.2410678260416 261.199900767 L 525.6283984093749 268.0062354753333 Z"/></g></g><g><g><rect fill="white" stroke="none" x="332.6806059860546" y="329.80775462699995" width="166.23189033570313" height="21.23576429"/></g><text fill="red" stroke="none" font-family="sans-serif" font-size="11pt" font-style="normal" font-weight="normal" text-decoration="normal" x="335.13088648105463" y="344.50943759699993" text-anchor="start" dominant-baseline="alphabetic" xml:space="preserve">500 Internal Server Error</text></g><g><path fill="none" stroke="black" paint-order="fill stroke markers" d=" M 539.2410678260416 351.043518917 L 305.8013518654374 351.043518917" stroke-miterlimit="10" stroke-width="1.3612669416666667" stroke-dasharray="6.53408132"/><g transform="translate(292.3520344817708,351.043518917) translate(-292.3520344817708,-351.043518917)"><path fill="black" stroke="none" paint-order="stroke fill markers" d=" M 305.96470389843745 344.23718420866663 L 292.3520344817708 351.043518917 L 305.96470389843745 357.8498536253333 Z"/></g></g><g><g><rect fill="white" stroke="none" x="115.70544618504555" y="375.54632386699996" width="134.4495569616797" height="21.23576429"/></g><text fill="black" stroke="none" font-family="sans-serif" font-size="11pt" font-style="normal" font-weight="normal" text-decoration="normal" x="118.15572668004555" y="390.24800683699993" text-anchor="start" dominant-baseline="alphabetic" xml:space="preserve">Display: No Options</text></g><g><path fill="none" stroke="black" paint-order="fill stroke markers" d=" M 276.0168311817708 396.782088157 L 103.29293553366666 396.782088157" stroke-miterlimit="10" stroke-width="1.3612669416666667" stroke-dasharray="6.53408132"/><g transform="translate(89.84361815,396.782088157) translate(-89.84361815,-396.782088157)"><path fill="black" stroke="none" paint-order="stroke fill markers" d=" M 103.45628756666666 389.97575344866664 L 89.84361815 396.782088157 L 103.45628756666666 403.5884228653333 Z"/></g></g><g><g><rect fill="white" stroke="none" x="574.9062616977084" y="465.38994201699995" width="175.2441126257422" height="21.23576429"/></g><g><rect fill="white" stroke="none" x="574.9062616977084" y="481.72514531699994" width="265.63054145875" height="21.23576429"/></g><text fill="black" stroke="none" font-family="sans-serif" font-size="11pt" font-style="normal" font-weight="normal" text-decoration="normal" x="577.3565421927084" y="480.09162498699993" text-anchor="start" dominant-baseline="alphabetic" xml:space="preserve">append {paramToSearch} </text><text fill="black" stroke="none" font-family="sans-serif" font-size="11pt" font-style="normal" font-weight="normal" text-decoration="normal" x="577.3565421927084" y="496.4268282869999" text-anchor="start" dominant-baseline="alphabetic" xml:space="preserve">into List&lt;SearchCriteria&gt;: searchCriteria</text></g><g><path fill="none" stroke="black" paint-order="fill stroke markers" d=" M 555.5762711260417 502.96090960699996 L 620.9170843260416 502.96090960699996 L 620.9170843260416 524.196673897 L 569.0255885097083 524.196673897" stroke-miterlimit="10" stroke-width="1.3612669416666667" stroke-dasharray=""/><g transform="translate(555.5762711260417,524.196673897) translate(-555.5762711260417,-524.196673897)"><path fill="black" stroke="none" paint-order="stroke fill markers" d=" M 569.1889405427083 517.3903391886666 L 555.5762711260417 524.196673897 L 569.1889405427083 531.0030086053333 Z"/></g></g><g><g><rect fill="white" stroke="none" x="612.4986010006054" y="548.699478847" width="176.83319343628906" height="21.23576429"/></g><g><rect fill="white" stroke="none" x="612.4986010006054" y="565.034682147" width="126.28918708863281" height="21.23576429"/></g><text fill="black" stroke="none" font-family="sans-serif" font-size="11pt" font-style="normal" font-weight="normal" text-decoration="normal" x="614.9488814956054" y="563.401161817" text-anchor="start" dominant-baseline="alphabetic" xml:space="preserve">Create EntitySpecification </text><text fill="black" stroke="none" font-family="sans-serif" font-size="11pt" font-style="normal" font-weight="normal" text-decoration="normal" x="614.9488814956054" y="579.736365117" text-anchor="start" dominant-baseline="alphabetic" xml:space="preserve">with searchCriteria</text></g><g><path fill="none" stroke="black" paint-order="fill stroke markers" d=" M 555.5762711260417 586.270446437 L 832.8048069277916 586.270446437" stroke-miterlimit="10" stroke-width="1.3612669416666667" stroke-dasharray=""/><g transform="translate(846.2541243114582,586.270446437) translate(-846.2541243114582,-586.270446437)"><path fill="black" stroke="none" paint-order="stroke fill markers" d=" M 832.6414548947915 579.4641117286667 L 846.2541243114582 586.270446437 L 832.6414548947915 593.0767811453334 Z"/></g></g><g><g><rect fill="white" stroke="none" x="626.3461275508984" y="610.773251387" width="149.13814033570313" height="21.23576429"/></g><text fill="black" stroke="none" font-family="sans-serif" font-size="11pt" font-style="normal" font-weight="normal" text-decoration="normal" x="628.7964080458984" y="625.4749343569999" text-anchor="start" dominant-baseline="alphabetic" xml:space="preserve">Instance: specification</text></g><g><path fill="none" stroke="black" paint-order="fill stroke markers" d=" M 846.2541243114582 632.009015677 L 569.0255885097083 632.009015677" stroke-miterlimit="10" stroke-width="1.3612669416666667" stroke-dasharray="6.53408132"/><g transform="translate(555.5762711260417,632.009015677) translate(-555.5762711260417,-632.009015677)"><path fill="black" stroke="none" paint-order="stroke fill markers" d=" M 569.1889405427083 625.2026809686666 L 555.5762711260417 632.009015677 L 569.1889405427083 638.8153503853333 Z"/></g></g><g><g><rect fill="white" stroke="none" x="713.561666419582" y="656.5118206269999" width="139.33854927125" height="21.23576429"/></g><text fill="black" stroke="none" font-family="sans-serif" font-size="11pt" font-style="normal" font-weight="normal" text-decoration="normal" x="716.011946914582" y="671.2135035969999" text-anchor="start" dominant-baseline="alphabetic" xml:space="preserve">search(specification)</text></g><g><path fill="none" stroke="black" paint-order="fill stroke markers" d=" M 555.5762711260417 677.7475849169999 L 997.4362936007057 677.7475849169999" stroke-miterlimit="10" stroke-width="1.3612669416666667" stroke-dasharray=""/><g transform="translate(1010.8856109843723,677.7475849169999) translate(-1010.8856109843723,-677.7475849169999)"><path fill="black" stroke="none" paint-order="stroke fill markers" d=" M 997.2729415677056 670.9412502086666 L 1010.8856109843723 677.7475849169999 L 997.2729415677056 684.5539196253333 Z"/></g></g><g><g><rect fill="white" stroke="none" x="1046.550804856039" y="702.2503898669999" width="135.26553596558594" height="21.23576429"/></g><text fill="black" stroke="none" font-family="sans-serif" font-size="11pt" font-style="normal" font-weight="normal" text-decoration="normal" x="1049.001085351039" y="716.9520728369998" text-anchor="start" dominant-baseline="alphabetic" xml:space="preserve">findAll(specification)</text></g><g><path fill="none" stroke="black" paint-order="fill stroke markers" d=" M 1027.2208142843724 723.4861541569999 L 1187.6970140096248 723.4861541569999" stroke-miterlimit="10" stroke-width="1.3612669416666667" stroke-dasharray=""/><g transform="translate(1201.1463313932916,723.4861541569999) translate(-1201.1463313932916,-723.4861541569999)"><path fill="black" stroke="none" paint-order="stroke fill markers" d=" M 1187.533661976625 716.6798194486665 L 1201.1463313932916 723.4861541569999 L 1187.533661976625 730.2924888653332 Z"/></g></g><g><g><rect fill="white" stroke="none" x="1082.4061820533045" y="747.9889591069998" width="63.55478157105469" height="21.23576429"/></g><text fill="black" stroke="none" font-family="sans-serif" font-size="11pt" font-style="normal" font-weight="normal" text-decoration="normal" x="1084.8564625483045" y="762.6906420769998" text-anchor="start" dominant-baseline="alphabetic" xml:space="preserve">Entity list</text></g><g><path fill="none" stroke="black" paint-order="fill stroke markers" d=" M 1201.1463313932916 769.2247233969998 L 1040.6701316680392 769.2247233969998" stroke-miterlimit="10" stroke-width="1.3612669416666667" stroke-dasharray="6.53408132"/><g transform="translate(1027.2208142843724,769.2247233969998) translate(-1027.2208142843724,-769.2247233969998)"><path fill="black" stroke="none" paint-order="stroke fill markers" d=" M 1040.833483701039 762.4183886886665 L 1027.2208142843724 769.2247233969998 L 1040.833483701039 776.0310581053332 Z"/></g></g><g><g><rect fill="white" stroke="none" x="751.4535502696797" y="793.7275283469997" width="63.55478157105469" height="21.23576429"/></g><text fill="black" stroke="none" font-family="sans-serif" font-size="11pt" font-style="normal" font-weight="normal" text-decoration="normal" x="753.9038307646797" y="808.4292113169997" text-anchor="start" dominant-baseline="alphabetic" xml:space="preserve">Entity list</text></g><g><path fill="none" stroke="black" paint-order="fill stroke markers" d=" M 1010.8856109843723 814.9632926369998 L 569.0255885097083 814.9632926369998" stroke-miterlimit="10" stroke-width="1.3612669416666667" stroke-dasharray="6.53408132"/><g transform="translate(555.5762711260417,814.9632926369998) translate(-555.5762711260417,-814.9632926369998)"><path fill="black" stroke="none" paint-order="stroke fill markers" d=" M 569.1889405427083 808.1569579286664 L 555.5762711260417 814.9632926369998 L 569.1889405427083 821.7696273453331 Z"/></g></g><g><g><rect fill="white" stroke="none" x="329.0084410690624" y="839.4660975869998" width="54.61422981324219" height="21.23576429"/></g><g><rect fill="white" stroke="none" x="329.0084410690624" y="855.8013008869998" width="173.5762201696875" height="21.23576429"/></g><text fill="green" stroke="none" font-family="sans-serif" font-size="11pt" font-style="normal" font-weight="normal" text-decoration="normal" x="331.45872156406244" y="854.1677805569998" text-anchor="start" dominant-baseline="alphabetic" xml:space="preserve">200 OK</text><text fill="green" stroke="none" font-family="sans-serif" font-size="11pt" font-style="normal" font-weight="normal" text-decoration="normal" x="331.45872156406244" y="870.5029838569998" text-anchor="start" dominant-baseline="alphabetic" xml:space="preserve">Response body: Entity list</text></g><g><path fill="none" stroke="black" paint-order="fill stroke markers" d=" M 539.2410678260416 877.0370651769998 L 305.8013518654374 877.0370651769998" stroke-miterlimit="10" stroke-width="1.3612669416666667" stroke-dasharray="6.53408132"/><g transform="translate(292.3520344817708,877.0370651769998) translate(-292.3520344817708,-877.0370651769998)"><path fill="black" stroke="none" paint-order="stroke fill markers" d=" M 305.96470389843745 870.2307304686665 L 292.3520344817708 877.0370651769998 L 305.96470389843745 883.8433998853332 Z"/></g></g><g><g><rect fill="white" stroke="none" x="143.81208986180337" y="945.6449190369997" width="78.23626960816406" height="21.23576429"/></g><text fill="black" stroke="none" font-family="sans-serif" font-size="11pt" font-style="normal" font-weight="normal" text-decoration="normal" x="146.26237035680336" y="960.3466020069997" text-anchor="start" dominant-baseline="alphabetic" xml:space="preserve">No Options</text></g><g><path fill="none" stroke="black" paint-order="fill stroke markers" d=" M 276.0168311817708 966.8806833269997 L 103.29293553366666 966.8806833269997" stroke-miterlimit="10" stroke-width="1.3612669416666667" stroke-dasharray="6.53408132"/><g transform="translate(89.84361815,966.8806833269997) translate(-89.84361815,-966.8806833269997)"><path fill="black" stroke="none" paint-order="stroke fill markers" d=" M 103.45628756666666 960.0743486186664 L 89.84361815 966.8806833269997 L 103.45628756666666 973.687018035333 Z"/></g></g><g><g><rect fill="white" stroke="none" x="125.47997468846351" y="1035.4885371869998" width="114.90049995484375" height="21.23576429"/></g><text fill="black" stroke="none" font-family="sans-serif" font-size="11pt" font-style="normal" font-weight="normal" text-decoration="normal" x="127.93025518346352" y="1050.1902201569999" text-anchor="start" dominant-baseline="alphabetic" xml:space="preserve">Entity options list</text></g><g><path fill="none" stroke="black" paint-order="fill stroke markers" d=" M 276.0168311817708 1056.7243014769997 L 103.29293553366666 1056.7243014769997" stroke-miterlimit="10" stroke-width="1.3612669416666667" stroke-dasharray="6.53408132"/><g transform="translate(89.84361815,1056.7243014769997) translate(-89.84361815,-1056.7243014769997)"><path fill="black" stroke="none" paint-order="stroke fill markers" d=" M 103.45628756666666 1049.9179667686665 L 89.84361815 1056.7243014769997 L 103.45628756666666 1063.530636185333 Z"/></g></g><g><g/><path fill="none" stroke="black" paint-order="fill stroke markers" d=" M 16.335203300000003 285.70270571699996 L 1266.4871445932915 285.70270571699996 L 1266.4871445932915 1105.7299113769996 L 16.335203300000003 1105.7299113769996 L 16.335203300000003 285.70270571699996 Z" stroke-miterlimit="10" stroke-width="2.3336004714285714" stroke-dasharray=""/><path fill="white" stroke="black" paint-order="fill stroke markers" d=" M 16.335203300000003 285.70270571699996 L 16.335203300000003 305.30494967699997 L 62.694406897070316 305.30494967699997 L 72.49552887707031 295.50382769699996 L 72.49552887707031 285.70270571699996 L 16.335203300000003 285.70270571699996" stroke-miterlimit="10" stroke-width="2.3336004714285714" stroke-dasharray=""/><text fill="black" stroke="none" font-family="sans-serif" font-size="8.8pt" font-style="normal" font-weight="bold" text-decoration="normal" x="32.67040660000001" y="298.770868357" text-anchor="start" dominant-baseline="alphabetic" xml:space="preserve">alt</text><g><rect fill="white" stroke="none" x="86.38045168207032" y="287.009521981" width="294.29558052125" height="16.988611432000003"/></g><text fill="black" stroke="none" font-family="sans-serif" font-size="8.8pt" font-style="normal" font-weight="bold" text-decoration="normal" x="88.83073217707032" y="298.770868357" text-anchor="start" dominant-baseline="alphabetic" xml:space="preserve">[If no entityName matches with entity in the system]</text><g><path fill="none" stroke="black" paint-order="fill stroke markers" d=" M 16.335203300000003 421.28489310699996 L 1266.4871445932915 421.28489310699996" stroke-miterlimit="10" stroke-width="2.3336004714285714" stroke-dasharray="4.083800825"/></g><g/></g><g/><g><g/><path fill="none" stroke="black" paint-order="fill stroke markers" d=" M 32.6704066 901.5398701269997 L 341.3576443817708 901.5398701269997 L 341.3576443817708 1081.2271064269996 L 32.6704066 1081.2271064269996 L 32.6704066 901.5398701269997 Z" stroke-miterlimit="10" stroke-width="2.3336004714285714" stroke-dasharray=""/><path fill="white" stroke="black" paint-order="fill stroke markers" d=" M 32.6704066 901.5398701269997 L 32.6704066 921.1421140869998 L 79.02961019707031 921.1421140869998 L 88.83073217707032 911.3409921069997 L 88.83073217707032 901.5398701269997 L 32.6704066 901.5398701269997" stroke-miterlimit="10" stroke-width="2.3336004714285714" stroke-dasharray=""/><text fill="black" stroke="none" font-family="sans-serif" font-size="8.8pt" font-style="normal" font-weight="bold" text-decoration="normal" x="49.005609899999996" y="914.6080327669997" text-anchor="start" dominant-baseline="alphabetic" xml:space="preserve">alt</text><g><rect fill="white" stroke="none" x="102.71565498207032" y="902.8466863909997" width="113.07637275757813" height="16.988611432000003"/></g><text fill="black" stroke="none" font-family="sans-serif" font-size="8.8pt" font-style="normal" font-weight="bold" text-decoration="normal" x="105.16593547707032" y="914.6080327669997" text-anchor="start" dominant-baseline="alphabetic" xml:space="preserve">[If Entity list is null]</text><g><path fill="none" stroke="black" paint-order="fill stroke markers" d=" M 32.6704066 991.3834882769996 L 341.3576443817708 991.3834882769996" stroke-miterlimit="10" stroke-width="2.3336004714285714" stroke-dasharray="4.083800825"/></g><g/></g><g/></g></g></svg>