<svg version="1.1" xmlns="http://www.w3.org/2000/svg" xmlns:xlink="http://www.w3.org/1999/xlink" width="1111" height="1286"><desc>title%20Delete%20comment%20in%20Post%0A%0Aactor%20%23green%3A0.5%20%22Workspace%20User%22%20as%20w%0Aboundary%20%22Application%20Client%22%20as%20f%0Acontrol%20%22Comment%20Controller%22%20as%20gc%0Aparticipant%20%22Comment%20Service%22%20as%20gs%0A%0Adatabase%20%23blue%3A1%20%22Database%22%20as%20db%0A%0Aw-%3Ef%3ADelete%20comment%20in%20specific%20post%0Aactivate%20f%0A%0Af-%3Egc%3ADELETE%3A%20%2Fapi%2Fcomment%2F%7Bid%7D%0Aactivate%20gc%0Agc-%3Egc%3A%20check%20comment's%20owner%0Aactivate%20gc%0Agc%3C--gc%3A%20is%20comment%20owner%0Adeactivate%20gc%0Aalt%20If%20Current%20User%20does%20not%20owner%20of%20the%20comment%0Af%3C--gc%3A%3Ccolor%3A%23red%3E403%20FORBIDDEN%3C%2Fcolor%3E%0Aw%3C--f%3ADelete%20fail%0Aelse%20%0A%0Agc-%3Egs%3A%20isExist(id)%0Aactivate%20gs%0Ags-%3Edb%3A%20isExist(id)%0Aactivate%20db%0Ags%3C--db%3ABoolean%20value%0Adeactivate%20db%0Agc%3C--gs%3ABoolean%20value%0Adeactivate%20gs%0A%0Aalt%20If%20Comment%20does%20not%20exist%0Af%3C--gc%3A%3Ccolor%3A%23red%3E404%20NOT%20FOUND%3A%20not%20found%3C%2Fcolor%3E%0Aw%3C--f%3AMessage%20cannot%20delete%20comment%20in%20post%0Aelse%20%0Agc-%3Egs%3A%20deleteById(id)%0Aactivate%20gs%0Ags-%3Edb%3A%20deleteById(id)%0Aactivate%20db%0Ags%3C--db%3A%0Adeactivate%20db%0Agc%3C--gs%3A%0Adeactivate%20gs%0Aactivate%20gs%0Adeactivate%20gs%0A%0A%0Af%3C--gc%3A%3Ccolor%3A%23green%3E200%20OK%3C%2Fcolor%3E%0Adeactivate%20gc%0A%0Aw%3C--f%3A%20Display%20post%20without%20deleted%20comment%0Adeactivate%20f%0Aend%20%0A%0Aend%0A</desc><defs/><g><g/><g/><g/><g/><g/><g/><g/><g/><g/><g/><g/><g/><g/><g/><g/><g/><g/><g/><g/><g/><g/><g/><g/><g><rect fill="white" stroke="none" x="0" y="0" width="1111" height="1286"/></g><g><text fill="black" stroke="none" font-family="sans-serif" font-size="16.5pt" font-style="normal" font-weight="normal" text-decoration="normal" x="439.0765384512043" y="24.50280495" text-anchor="start" dominant-baseline="alphabetic" xml:space="preserve">Delete comment in Post</text></g><g/><g><path fill="none" stroke="black" paint-order="fill stroke markers" d=" M 89.84361815 129.701514202 L 89.84361815 1286.2339078419996" stroke-miterlimit="10" stroke-width="1.3612669416666667" stroke-dasharray="12.565541,5.445067766666667"/><path fill="none" stroke="black" paint-order="fill stroke markers" d=" M 404.7856901559896 129.701514202 L 404.7856901559896 1286.2339078419996" stroke-miterlimit="10" stroke-width="1.3612669416666667" stroke-dasharray="12.565541,5.445067766666667"/><path fill="none" stroke="black" paint-order="fill stroke markers" d=" M 649.6349268002604 129.701514202 L 649.6349268002604 1286.2339078419996" stroke-miterlimit="10" stroke-width="1.3612669416666667" stroke-dasharray="12.565541,5.445067766666667"/><path fill="none" stroke="black" paint-order="fill stroke markers" d=" M 860.871508397591 129.701514202 L 860.871508397591 1286.2339078419996" stroke-miterlimit="10" stroke-width="1.3612669416666667" stroke-dasharray="12.565541,5.445067766666667"/><path fill="none" stroke="black" paint-order="fill stroke markers" d=" M 1013.6877555399087 129.701514202 L 1013.6877555399087 1286.2339078419996" stroke-miterlimit="10" stroke-width="1.3612669416666667" stroke-dasharray="12.565541,5.445067766666667"/></g><g><g><path fill="white" stroke="green" paint-order="fill stroke markers" d=" M 99.154684031 60.60360424300001 A 9.311065881 9.311065881 0 1 1 99.15467937546744 60.594293178670846 M 89.84361815 69.91467012400001 L 89.84361815 89.84361815000001 M 78.08227177399999 77.102159576 L 101.604964526 77.102159576 M 89.84361815 89.84361815000001 L 78.08227177399999 108.465749912 M 89.84361815 89.84361815000001 L 101.604964526 108.465749912" stroke-miterlimit="10" stroke-width="1.3884922805000002" stroke-dasharray=""/></g><g><text fill="black" stroke="none" font-family="sans-serif" font-size="11pt" font-style="normal" font-weight="normal" text-decoration="normal" x="35.802839036230466" y="124.80095321200001" text-anchor="start" dominant-baseline="alphabetic" xml:space="preserve">Workspace User</text></g><g><path fill="white" stroke="black" paint-order="fill stroke markers" d=" M 437.2110687064896 82.819480731 A 24.2577769005 24.2577769005 0 1 1 437.21105657760216 82.79522295814245 M 373.74880388598956 57.17321154999999 L 373.74880388598956 108.465749912 M 372.3603116054896 82.819480731 L 388.6955149054896 82.819480731" stroke-miterlimit="10" stroke-width="2.7769845610000004" stroke-dasharray=""/></g><g><text fill="black" stroke="none" font-family="sans-serif" font-size="11pt" font-style="normal" font-weight="normal" text-decoration="normal" x="348.1500700388021" y="124.80095321200001" text-anchor="start" dominant-baseline="alphabetic" xml:space="preserve">Application Client</text></g><g><path fill="white" stroke="black" paint-order="fill stroke markers" d=" M 673.8927037007603 82.819480731 A 24.2577769005 24.2577769005 0 1 1 673.8926915718729 82.79522295814245 M 646.3678861402603 58.561703830499994 L 656.1690081202603 50.39410218049999 M 646.3678861402603 58.561703830499994 L 656.1690081202603 66.72930548049999" stroke-miterlimit="10" stroke-width="2.7769845610000004" stroke-dasharray=""/></g><g><text fill="black" stroke="none" font-family="sans-serif" font-size="11pt" font-style="normal" font-weight="normal" text-decoration="normal" x="584.0515527768229" y="124.80095321200001" text-anchor="start" dominant-baseline="alphabetic" xml:space="preserve">Comment Controller</text></g><path fill="none" stroke="none"/><g><path fill="white" stroke="black" paint-order="fill stroke markers" d=" M 784.8980111813488 85.75981732500001 L 936.8450056138332 85.75981732500001 L 936.8450056138332 129.701514202 L 784.8980111813488 129.701514202 L 784.8980111813488 85.75981732500001 Z" stroke-miterlimit="10" stroke-width="2.613632528" stroke-dasharray=""/></g><g><text fill="black" stroke="none" font-family="sans-serif" font-size="11pt" font-style="normal" font-weight="normal" text-decoration="normal" x="802.6217067618488" y="113.36631090200002" text-anchor="start" dominant-baseline="alphabetic" xml:space="preserve">Comment Service</text></g><g><path fill="white" stroke="blue" paint-order="fill stroke markers" d=" M 989.8383587219088 97.684515734 L 989.8383587219088 63.380588804000006 L 1037.5371523579088 63.380588804000006 L 1037.5371523579088 97.684515734" stroke-miterlimit="10" stroke-width="2.7769845610000004" stroke-dasharray=""/><path fill="white" stroke="blue" paint-order="fill stroke markers" d=" M 1037.5371523579088 62.1881189631 L 1037.535959898005 62.29592950801663 L 1037.532382637539 62.403729271968594 L 1037.5264209342336 62.51150747506936 L 1037.5180753842544 62.619253339588404 L 1037.5073468221492 62.72695609102909 L 1037.4942363207654 62.834604959206004 L 1037.478745191142 62.94218917932205 L 1037.4608749823794 63.04969799304486 L 1037.4406274814835 63.15712064958265 L 1037.4180047131872 63.2644464067593 L 1037.3930089397488 63.371664532088516 L 1037.365642660725 63.47876430384712 L 1037.3359086127202 63.58573501214718 L 1037.303809769115 63.692565960007016 L 1037.269349339767 63.79924646442086 L 1037.2325307706901 63.90576585742718 L 1037.193357743711 64.01211348717543 L 1037.151834176099 64.11827871899126 L 1037.107964220177 64.22425093643996 L 1037.0617522629038 64.3300195423881 L 1037.0132029254364 64.43557396006322 L 1036.9623210626685 64.54090363411153 L 1036.9091117627434 64.64599803165338 L 1036.8535803465472 64.75084664333659 L 1036.7957323671753 64.85543898438739 L 1036.735573609377 64.95976459565881 L 1036.6731100889783 65.06381304467668 L 1036.6083480522793 65.16757392668278 L 1036.5412939754292 65.27103686567541 L 1036.4719545637802 65.37419151544687 L 1036.4003367512157 65.47702756061814 L 1036.326447699457 65.5795347176704 L 1036.2502947973478 65.68170273597339 L 1036.171885660115 65.7835213988104 L 1036.091228128607 65.88498052439998 L 1036.0083302685096 65.98606996691414 L 1035.9232003695397 66.08677961749288 L 1035.8358469446164 66.18709940525505 L 1035.7462787290092 66.28701929830548 L 1035.654504679465 66.38652930473813 L 1035.5605339733127 66.48561947363528 L 1035.4643760075442 66.58427989606261 L 1035.3660403978758 66.6825007060601 L 1035.2655369777872 66.7802720816286 L 1035.162875797536 66.87758424571203 L 1035.0580671231548 66.97442746717506 L 1034.951121435424 67.07079206177627 L 1034.8420494288232 67.1666683931365 L 1034.7308620104618 67.2620468737025 L 1034.6175702989892 67.35691796570569 L 1034.5021856234823 67.45127218211596 L 1034.3847195223123 67.54510008759026 L 1034.2651837419915 67.63839229941624 L 1034.143590235998 67.73113948845047 L 1034.0199511635817 67.82333238005134 L 1033.8942788885463 67.9149617550065 L 1033.7665859780147 68.00601845045483 L 1033.636885201172 68.09649336080267 L 1033.5051895279869 68.18637743863435 L 1033.3715121279176 68.27566169561702 L 1033.2358663685927 68.36433720339936 L 1033.0982658144749 68.45239509450451 L 1032.958724225505 68.53982656321674 L 1032.8172555557258 68.62662286646201 L 1032.673873951886 68.71277532468237 L 1032.5285937520266 68.79827532270376 L 1032.381429484047 68.88311431059763 L 1032.2323958642507 68.9672838045359 L 1032.081507795876 69.0507753876393 L 1031.9287803676036 69.13358071081912 L 1031.7742288520492 69.21569149361203 L 1031.6178687042357 69.29709952500816 L 1031.4597155600475 69.37779666427225 L 1031.2997852346673 69.45777484175761 L 1031.138093720994 69.53702605971311 L 1030.9746571880446 69.61554239308303 L 1030.8094919793361 69.69331599029945 L 1030.642614611252 69.77033907406746 L 1030.4740417713895 69.84660394214286 L 1030.3037903168922 69.92210296810242 L 1030.131877272764 69.99682860210643 L 1029.9583198301661 70.07077337165379 L 1029.7831353446977 70.14392988232913 L 1029.6063413346617 70.21629081854239 L 1029.4279554793115 70.28784894426022 L 1029.2479956170844 70.35859710372968 L 1029.0664797438162 70.42852822219379 L 1028.8834260109434 70.49763530659898 L 1028.6988527236863 70.5659114462944 L 1028.5127783392202 70.63334981372294 L 1028.3252214648282 70.69994366510412 L 1028.1362008560416 70.76568634110825 L 1027.9457354147637 70.83057126752253 L 1027.7538441873799 70.89459195590838 L 1027.560546362853 70.95774200425032 L 1027.3658612708045 71.02001509759614 L 1027.1698083795814 71.08140500868842 L 1026.9724072943093 71.14190559858717 L 1026.7736777549321 71.20151081728383 L 1026.5736396342384 71.26021470430622 L 1026.3723129358734 71.31801138931453 L 1026.1697177923393 71.37489509268845 L 1025.9658744629817 71.43086012610503 L 1025.7608033319632 71.48590089310757 L 1025.5545249062266 71.54001188966522 L 1025.3470598134422 71.59318770472345 L 1025.1384287999465 71.64542302074504 L 1024.928652728667 71.69671261424193 L 1024.717752577036 71.7470513562975 L 1024.505749434893 71.79643421307951 L 1024.2926645023754 71.84485624634341 L 1024.078519087799 71.89231261392625 L 1023.8633346055267 71.93879857023082 L 1023.6471325738274 71.9843094667002 L 1023.4299346127243 72.02884075228269 L 1023.2117624418323 72.07238797388683 L 1022.9926378781868 72.11494677682676 L 1022.7725828340614 72.15651290525764 L 1022.5516193147773 72.19708220260128 L 1022.3297694165024 72.23665061196175 L 1022.1070553240413 72.27521417653107 L 1021.8834993086178 72.31276903998494 L 1021.6591237256474 72.3493114468683 L 1021.4339510125011 72.38483774297092 L 1021.2080036862627 72.41934437569277 L 1020.9813043414765 72.45282789439938 L 1020.7538756478881 72.48528495076673 L 1020.5257403481772 72.51671229911628 L 1020.296921255684 72.54710679673934 L 1020.0674412521266 72.5764654042115 L 1019.8373232853146 72.60478518569649 L 1019.6065903668525 72.63206330923974 L 1019.3752655698402 72.65829704705163 L 1019.1433720265643 72.68348377578025 L 1018.9109329261862 72.70762097677371 L 1018.6779715124221 72.73070623633201 L 1018.4445110812192 72.75273724594847 L 1018.2105749784262 72.77371180254045 L 1017.9761865974582 72.79362780866978 L 1017.7413693769582 72.81248327275246 L 1017.5061467984526 72.83027630925778 L 1017.270542384003 72.84700513889692 L 1017.0345796938547 72.86266808880085 L 1016.79828232408 72.87726359268764 L 1016.561673904219 72.89079019101906 L 1016.3247780949164 72.90324653114655 L 1016.0876185855559 72.91463136744649 L 1015.8502190918907 72.9249435614447 L 1015.6126033536723 72.93418208193043 L 1015.3747951322766 72.94234600505929 L 1015.1368182083276 72.94943451444577 L 1014.8986963793192 72.95544690124485 L 1014.660453457236 72.96038256422287 L 1014.4221132661717 72.96424100981763 L 1014.1836996399467 72.9670218521878 L 1013.9452364197249 72.96872481325143 L 1013.7067474516298 72.96934972271386 L 1013.4682565843592 72.96889651808466 L 1013.2297876668014 72.96736524468392 L 1012.9913645456492 72.96475605563768 L 1012.7530110630162 72.96106921186271 L 1012.5147510540518 72.95630508204027 L 1012.2766083445586 72.9504641425794 L 1012.0386067486089 72.94354697756918 L 1011.8007700661641 72.93555427872033 L 1011.5631220806941 72.9264868452961 L 1011.3256865567996 72.91634558403224 L 1011.0884872378349 72.90513150904647 L 1010.8515478435345 72.89284574173689 L 1010.6148920676402 72.87948951067006 L 1010.3785435755324 72.86506415145789 L 1010.1425260018633 72.84957110662431 L 1009.9068629481937 72.8330119254609 L 1009.6715779806326 72.81538826387197 L 1009.4366946274806 72.79670188420899 L 1009.2022363768773 72.77695465509434 L 1008.9682266744525 72.7561485512345 L 1008.7346889209811 72.73428565322251 L 1008.5016464700442 72.71136814732996 L 1008.2691226256925 72.68739832528833 L 1008.0371406401166 72.66237858405984 L 1007.805723711322 72.63631142559778 L 1007.5748949808085 72.60919945659627 L 1007.3446775312569 72.58104538822961 L 1007.1150943842204 72.55185203588118 L 1006.886168497822 72.5216223188619 L 1006.6579227644601 72.49035926011825 L 1006.4303800085174 72.45806598593009 L 1006.2035629840801 72.4247457255979 L 1005.9774943726617 72.39040181111994 L 1005.7521967809347 72.35503767685907 L 1005.5276927384706 72.31865685919922 L 1005.3040046954867 72.28126299619186 L 1005.0811550206008 72.24285982719209 L 1004.8591659985947 72.20345119248485 L 1004.6380598281856 72.16304103290075 L 1004.4178586198062 72.12163338942209 L 1004.1985843933941 72.07923240277869 L 1003.9802590761889 72.03584231303388 L 1003.7629045005405 71.99146745916049 L 1003.5465424017254 71.94611227860693 L 1003.3311944157731 71.89978130685344 L 1003.1168820773029 71.85247917695861 L 1002.9036268173697 71.80421061909601 L 1002.6914499613223 71.75498046008119 L 1002.480372726669 71.70479362288901 L 1002.2704162209576 71.65365512616141 L 1002.0616014396637 71.60157008370541 L 1001.8539492640914 71.54854370398188 L 1001.6474804592852 71.49458128958457 L 1001.4422156719536 71.43968823671 L 1001.2381754284041 71.38387003461766 L 1001.0353801324911 71.32713226508127 L 1000.8338500635754 71.26948060183051 L 1000.6336053744957 71.21092080998365 L 1000.4346660895541 71.15145874547107 L 1000.2370521025133 71.0911003544497 L 1000.0407831746074 71.0298516727083 L 999.8458789325656 70.96771882506403 L 999.6523588666497 70.90470802474988 L 999.4602423287049 70.84082557279336 L 999.2695485302252 70.77607785738643 L 999.0802965404312 70.71047135324669 L 998.8925052843642 70.64401262096986 L 998.7061935409936 70.5767083063738 L 998.5213799413382 70.50856513983389 L 998.3380829666041 70.43958993560999 L 998.1563209463359 70.36978959116503 L 997.9761120565844 70.29917108647531 L 997.7974743180881 70.22774148333244 L 997.6204255944722 70.1555079246372 L 997.4449835904613 70.08247763368529 L 997.2711658501099 70.00865791344492 L 997.098989755047 69.9340561458266 L 996.9284725227386 69.85867979094495 L 996.759631204766 69.78253638637263 L 996.5924826851201 69.70563354638664 L 996.4270436785138 69.62797896120689 L 996.2633307287095 69.54958039622719 L 996.1013602068663 69.47044569123871 L 995.941148309901 69.39058275964601 L 995.7827110588698 69.30999958767568 L 995.626064297366 69.22870423357777 L 995.4712236899352 69.14670482681996 L 995.3182047205089 69.06400956727457 L 995.1670226908566 68.98062672439866 L 995.0176927190553 68.89656463640702 L 994.8702297379778 68.8118317094384 L 994.7246484937992 68.72643641671489 L 994.5809635445228 68.6403872976946 L 994.4391892585236 68.55369295721772 L 994.2993398131122 68.46636206464606 L 994.1614291931164 68.37840335299609 L 994.0254711894834 68.28982561806569 L 993.8914793979003 68.20063771755453 L 993.7594672174346 68.11084857017835 L 993.6294478491942 68.02046715477704 L 993.5014342950077 67.92950250941684 L 993.3754393561238 67.83796373048648 L 993.2514756319315 67.74585997178757 L 993.1295555186998 67.65320044361923 L 993.0096912083384 67.55999441185705 L 992.8918946871785 67.46625119702654 L 992.776177734774 67.37198017337107 L 992.6625519227238 67.27719076791445 L 992.5510286135144 67.18189245951821 L 992.4416189593837 67.08609477793381 L 992.334333901206 66.98980730284956 L 992.2291841673978 66.89303966293272 L 992.1261802728447 66.79580153486665 L 992.0253325178504 66.69810264238313 L 991.9266509871063 66.59995275528999 L 991.8301455486834 66.50136168849414 L 991.735825853045 66.40233930102012 L 991.643701332082 66.30289549502413 L 991.5537811981698 66.20304021480393 L 991.4660744432468 66.1027834458043 L 991.3805898379155 66.00213521361863 L 991.2973359305653 65.90110558298623 L 991.2163210465172 65.799704656786 L 991.1375532871924 65.69794257502603 L 991.0610405293012 65.59582951382973 L 990.9867904240554 65.4933756844181 L 990.9148103964038 65.3905913320887 L 990.8451076442891 65.28748673519112 L 990.7776891379286 65.18407220409914 L 990.7125616191166 65.08035808017966 L 990.6497316005507 64.97635473475869 L 990.5892053651805 64.87207256808405 L 990.530988965579 64.76752200828555 L 990.4750882233378 64.66271351033203 L 990.4215087284844 64.55765755498592 L 990.3702558389235 64.45236464775525 L 990.3213346799017 64.34684531784296 L 990.2747501434939 64.24111011709415 L 990.230506888115 64.13516961894075 L 990.1886093380535 64.0290344173443 L 990.1490616830298 63.92271512573653 L 990.1118678777761 63.81622237595798 L 990.0770316416423 63.70956681719489 L 990.0445564582226 63.602759114914264 L 990.0144455750086 63.49580994979732 L 989.9867020030633 63.38873001667144 L 989.961328516721 63.28153002344071 L 989.938327653309 63.17422069001512 L 989.9177017128945 63.066812747238586 L 989.8994527580544 62.959316935815885 L 989.883582613669 62.85174400523857 L 989.8700928667395 62.74410471271006 L 989.8589848662292 62.636409822069915 L 989.8502597229292 62.52867010271744 L 989.8439183093462 62.4208963285348 L 989.8399612596166 62.313099276809595 L 989.8383889694419 62.20528972715717 L 989.8392015960499 62.09747846044265 L 989.8423990581784 61.98967625770286 L 989.8479810360841 61.88189389906824 L 989.8559469715738 61.77414216268484 L 989.8662960680605 61.66643182363649 L 989.8790272906433 61.558773652867366 L 989.8941393662104 61.4511784161048 L 989.911630783567 61.34365687278283 L 989.9314997935858 61.236219774966166 L 989.9537444093825 61.12887786627507 L 989.978362406514 61.02164188081096 L 990.0053513232009 60.91452254208302 L 990.0347084605743 60.807530561935856 L 990.0664308829448 60.70067663947832 L 990.1005154180967 60.593971460013606 L 990.1369586576047 60.487425693970756 L 990.1757569571755 60.381049995837586 L 990.2169064370112 60.27485500309525 L 990.2604029821982 60.16885133515453 L 990.3062422431183 60.06304959229389 L 990.3544196358835 59.95746035459945 L 990.4049303427947 59.852094180906974 L 990.4577693128233 59.746961607746044 L 990.5129312621165 59.64207314828636 L 990.5704106745251 59.537439291286454 L 990.6302018021559 59.43307050004484 L 990.6922986659457 59.32897721135367 L 990.7566950562602 59.22516983445505 L 990.8233845335141 59.12165875000019 L 990.8923604288149 59.01845430901127 L 990.9636158446307 58.91556683184637 L 991.0371436554793 58.81300660716748 L 991.1129365086409 58.7107838909116 L 991.1909868248933 58.60890890526517 L 991.2712867992701 58.507391837641855 L 991.3538284018405 58.406242839663825 L 991.4386033785132 58.30547202614659 L 991.5256032518612 58.205089474087515 L 991.6148193219695 58.105105221658164 L 991.7062426673057 58.00552926720046 L 991.7998641456112 57.90637156822687 L 991.8956743948162 57.807642040424646 L 991.9936638339758 57.709350556664305 L 992.0938226642277 57.61150694601232 L 992.1961408697722 57.514120992748204 L 992.300608218874 57.417202435386145 L 992.4072142648855 57.320760965701105 L 992.5159483472908 57.224806227759686 L 992.626799592772 57.12934781695572 L 992.7397569162974 57.03439527905074 L 992.8548090222286 56.93995810921942 L 992.9719444054507 56.84604575110002 L 993.0911513525231 56.75266759585011 L 993.2124179428505 56.65983298120741 L 993.3357320498749 56.567551190555996 L 993.4610813422884 56.47583145199805 L 993.588453285266 56.384682937430995 L 993.7178351417199 56.29411476163032 L 993.849213973572 56.20413598133814 L 993.9825766430486 56.1147555943575 L 994.117909813994 56.02598253865261 L 994.2551999532038 55.937825691455075 L 994.3944333317786 55.85029386837614 L 994.5355960264965 55.763395822525176 L 994.6786739212056 55.677140243634355 L 994.8236527082357 55.591535757189675 L 994.970517889829 55.50659092356846 L 995.1192547795897 55.42231423718327 L 995.2698485039526 55.33871412563253 L 995.422284003671 55.25579894885771 L 995.5765460353218 55.1735769983074 L 995.7326191728305 55.092056496108135 L 995.8904878090133 55.01124559424221 L 996.0501361571382 54.93115237373246 L 996.2115482525033 54.851784843834196 L 996.3747079540339 54.77315094123426 L 996.5395989458954 54.6952585292574 L 996.7062047391263 54.61811539707989 L 996.8745086732861 54.54172925895067 L 997.0444939181214 54.46610775341989 L 997.2161434752496 54.391258442575094 L 997.3894401798581 54.317188811284986 L 997.5643667024206 54.24390626645098 L 997.7409055504307 54.171418136266475 L 997.9190390701508 54.09973166948409 L 998.0987494483774 54.028854034690774 L 998.2800187142223 53.95879231959093 L 998.4628287409099 53.88955353029769 L 998.6471612475901 53.82114459063227 L 998.8329978011659 53.753572341431656 L 999.0203198181365 53.68684353986444 L 999.2091085664564 53.62096485875517 L 999.3993451674082 53.55594288591707 L 999.5910105974904 53.49178412349323 L 999.7840856903194 53.42849498730643 L 999.9785511385471 53.366081806217544 L 1000.1743874957907 53.304550821492676 L 1000.3715751785775 53.24390818617902 L 1000.5700944683038 53.18415996448957 L 1000.7699255132057 53.12531213119671 L 1000.9710483303455 53.067370571034715 L 1001.1734428076091 53.01034107811134 L 1001.3770887057175 52.95422935532834 L 1001.5819656602503 52.89904101381123 L 1001.7880531836829 52.84478157234818 L 1001.9953306674348 52.79145645683812 L 1002.2037773839303 52.73907099974815 L 1002.4133724886715 52.687630439580346 L 1002.6240950223224 52.637139920347835 L 1002.8359239128055 52.58760449106049 L 1003.0488379774081 52.53902910521993 L 1003.2628159249012 52.49141862032429 L 1003.4778363576685 52.444777797382365 L 1003.6938777738457 52.399111300437596 L 1003.9109185694712 52.354423696101605 L 1004.1289370406465 52.3107194530976 L 1004.3479113857061 52.26800294181345 L 1004.5678197073978 52.2262784338647 L 1004.788640015073 52.18555010166736 L 1005.0103502268847 52.14582201802072 L 1005.2329281719966 52.10709815570004 L 1005.4563515927996 52.06938238705927 L 1005.6805981471377 52.032678483643856 L 1005.9056454105427 51.996990115813546 L 1006.1314708784754 51.96232085237539 L 1006.3580519685775 51.928674160226834 L 1006.5853660229286 51.89605340400906 L 1006.8133903103127 51.8644618457705 L 1007.0421020284912 51.833902644640645 L 1007.2714783064828 51.80437885651416 L 1007.5014962068509 51.775893433745246 L 1007.732132727997 51.74844922485244 L 1007.9633648064614 51.722048974233765 L 1008.1951693192287 51.69669532189228 L 1008.4275230860411 51.672390803172085 L 1008.6604028717153 51.649137848504814 L 1008.8937853884669 51.626938783166544 L 1009.1276472982387 51.60579582704531 L 1009.3619652150345 51.58571109441911 L 1009.596715707258 51.56668659374447 L 1009.8318753000556 51.54872422745561 L 1010.067420477664 51.53182579177417 L 1010.3033276857616 51.515992976529645 L 1010.5395733338244 51.50122736499037 L 1010.7761337974841 51.4875304337052 L 1011.0129854208919 51.47490355235584 L 1011.2501045190826 51.4633479836199 L 1011.487467380344 51.45286488304463 L 1011.7250502685878 51.443455298931354 L 1011.962829425723 51.43512017223063 L 1012.2007810740324 51.4278603364482 L 1012.4388814185492 51.42167651756158 L 1012.6771066494373 51.41656933394751 L 1012.9154329443724 51.41253929632009 L 1013.1538364709234 51.40958680767973 L 1013.3922933889362 51.407712163272826 L 1013.6307798529181 51.40691555056227 L 1013.8692720144211 51.40719704920866 L 1014.1077460244279 51.40855663106237 L 1014.3461780357363 51.41099416016634 L 1014.5845442053438 51.414509392769695 L 1014.8228206968321 51.419101977352106 L 1015.0609836827506 51.42477145465894 L 1015.2990093469991 51.431517257747196 L 1015.5368738872096 51.43933871204218 L 1015.7745535171263 51.44823503540498 L 1016.0120244689844 51.45820533821068 L 1016.2492629958863 51.4692486234373 L 1016.4862453741772 51.48136378676553 L 1016.7229479058168 51.49454961668913 L 1016.9593469207491 51.50880479463608 L 1017.1954187792697 51.524127895100484 L 1017.4311398743894 51.54051738578506 L 1017.666486634195 51.5579716277544 L 1017.9014355242069 51.57648887559884 L 1018.1359630497317 51.59606727760904 L 1018.3700457582124 51.6167048759611 L 1018.6036602415732 51.6383996069124 L 1018.8367831385602 51.66114930100791 L 1019.0693911370784 51.684951683297186 L 1019.3014609765214 51.70980437356183 L 1019.5329694500989 51.735704886553535 L 1019.7638934071564 51.76265063224257 L 1019.9942097554906 51.79063891607683 L 1020.2238954636586 51.81966693925126 L 1020.4529275632809 51.849731798987726 L 1020.6812831513386 51.88083048882531 L 1020.908939392463 51.91295989892094 L 1021.1358735212198 51.94611681636038 L 1021.3620628443852 51.980297925479526 L 1021.5874847432154 52.01549980819594 L 1021.8121166757084 52.0517189443507 L 1022.035936178858 52.08895171206036 L 1022.2589208709006 52.127194388079175 L 1022.4810484535526 52.16644314817141 L 1022.7022967142411 52.20669406749378 L 1022.9226435283242 52.247943120987884 L 1023.1420668613041 52.29018618378274 L 1023.3605447710305 52.33341903160728 L 1023.5780554098944 52.37763734121275 L 1023.7945770270132 52.422836690805035 L 1024.0100879704057 52.46901256048684 L 1024.224566689157 52.516160332709674 L 1024.4379917355739 52.564275292735616 L 1024.6503417673298 52.613352629108746 L 1024.8615955495984 52.663387434136325 L 1025.0717319571777 52.71437470437956 L 1025.2807299766018 52.7663093411539 L 1025.4885687082428 52.819186151038956 L 1025.6952273684012 52.8729998463978 L 1025.9006852913828 52.92774504590574 L 1026.1049219315669 52.983416275088445 L 1026.3079168654592 53.040007966869396 L 1026.509649793736 53.09751446212657 L 1026.710100543272 53.15593001025836 L 1026.9092490691596 53.21524876975863 L 1027.1070754567122 53.27546480880087 L 1027.3035599234559 53.33657210583136 L 1027.4986828211074 53.3985645501713 L 1027.6924246375402 53.461435942627936 L 1027.8847659987337 53.52517999611441 L 1028.075687670712 53.58979033627848 L 1028.2651705614674 53.655260502139996 L 1028.4531957228683 53.721583946736914 L 1028.6397443525552 53.78875403778004 L 1028.824797795821 53.85676405831625 L 1029.0083375474753 53.92560720740017 L 1029.190345253696 53.995276600774254 L 1029.370802713864 54.065765271557225 L 1029.5496918823837 54.13706617094075 L 1029.7269948704877 54.2091721688943 L 1029.9026939480243 54.28207605487816 L 1030.0767715452328 54.35577053856451 L 1030.249210254498 54.43024825056637 L 1030.419992832093 54.50550174317461 L 1030.5891021999023 54.581523491102686 L 1030.75652144713 54.658305892239156 L 1030.9222338319908 54.73584126840789 L 1031.0862227833845 54.81412186613588 L 1031.2484719025524 54.89313985742859 L 1031.408964964718 54.97288734055273 L 1031.5676859207088 55.05335634082646 L 1031.7246188985614 55.1345388114168 L 1031.8797482051089 55.21642663414435 L 1032.0330583275495 55.29901162029506 L 1032.1845339349993 55.38228551143916 L 1032.3341598800234 55.46623998025691 L 1032.4819212001523 55.55086663137139 L 1032.6278031193767 55.63615700218803 L 1032.7717910496267 55.722102563740805 L 1032.9138705922287 55.80869472154519 L 1033.0540275393475 55.89592481645755 L 1033.1922478754047 55.98378412554111 L 1033.3285177784821 56.07226386293816 L 1033.462823621703 56.1613551807487 L 1033.5951519745947 56.251049169915184 L 1033.7254896044324 56.34133686111345 L 1033.8538234775617 56.4322092256496 L 1033.9801407607024 56.52365717636293 L 1034.104428822231 56.615671568534566 L 1034.2266752334456 56.70824320080196 L 1034.3468677698063 56.80136281607904 L 1034.4649944121597 56.89502110248188 L 1034.5810433479405 56.98920869425987 L 1034.6950029723514 57.083916172732344 L 1034.806861889525 57.17913406723036 L 1034.916608913663 57.27485285604382 L 1035.024233070154 57.37106296737362 L 1035.1297235966724 57.467754780288786 L 1035.2330699442537 57.56491862568861 L 1035.3342617783485 57.662544787269525 L 1035.4332889798584 57.76062350249672 L 1035.5301416461455 57.859144963580405 L 1035.6248100920238 57.95809931845658 L 1035.7172848507278 58.05747667177222 L 1035.8075566748585 58.15726708587479 L 1035.8956165373088 58.257460581806065 L 1035.981455632166 58.358047140299924 L 1036.0650653755918 58.459016702784346 L 1036.1464374066818 58.56035917238722 L 1036.2255635883007 58.66206441494605 L 1036.3024360078962 58.764122260021324 L 1036.3770469782903 58.866522501913586 L 1036.4493890384483 58.96925490068398 L 1036.5194549542246 59.072309183178234 L 1036.5872377190856 59.17567504405398 L 1036.6527305548116 59.279342146811274 L 1036.7159269121735 59.38330012482622 L 1036.776820471588 59.48753858238766 L 1036.8354051437504 59.59204709573668 L 1036.8916750702422 59.69681521410906 L 1036.9456246241175 59.80183246078026 L 1036.9972484104655 59.907088334113126 L 1037.0465412669514 60.012572308608036 L 1037.0934982643298 60.11827383595545 L 1037.1381147069408 60.22418234609071 L 1037.1803861331769 60.33028724825106 L 1037.2203083159307 60.43657793203471 L 1037.2578772630172 60.54304376846186 L 1037.2930892175734 60.64967411103757 L 1037.3259406584327 60.75645829681646 L 1037.3564283004785 60.86338564746893 L 1037.3845490949723 60.97044547034902 L 1037.4103002298577 61.07762705956367 L 1037.4336791300427 61.184919697043256 L 1037.4546834576572 61.29231265361346 L 1037.4733111122853 61.399795190068104 L 1037.4895602311776 61.50735655824312 L 1037.5034291894356 61.614986002091314 L 1037.5149166001747 61.72267275875801 L 1037.524021314664 61.830406059657264 L 1037.530742422439 61.93817513154877 L 1037.5350792513952 62.04596919761514 L 1037.5370313678527 62.15377747853961 M 1037.5371523579088 96.4920458931 L 1037.535959898005 96.59985643801662 L 1037.532382637539 96.70765620196859 L 1037.5264209342336 96.81543440506935 L 1037.5180753842544 96.9231802695884 L 1037.5073468221492 97.03088302102908 L 1037.4942363207654 97.138531889206 L 1037.478745191142 97.24611610932205 L 1037.4608749823794 97.35362492304485 L 1037.4406274814835 97.46104757958265 L 1037.4180047131872 97.5683733367593 L 1037.3930089397488 97.67559146208852 L 1037.365642660725 97.78269123384712 L 1037.3359086127202 97.88966194214719 L 1037.303809769115 97.99649289000702 L 1037.269349339767 98.10317339442086 L 1037.2325307706901 98.20969278742717 L 1037.193357743711 98.31604041717543 L 1037.151834176099 98.42220564899125 L 1037.107964220177 98.52817786643996 L 1037.0617522629038 98.6339464723881 L 1037.0132029254364 98.73950089006323 L 1036.9623210626685 98.84483056411152 L 1036.9091117627434 98.94992496165337 L 1036.8535803465472 99.05477357333659 L 1036.7957323671753 99.15936591438738 L 1036.735573609377 99.2636915256588 L 1036.6731100889783 99.36773997467667 L 1036.6083480522793 99.47150085668278 L 1036.5412939754292 99.5749637956754 L 1036.4719545637802 99.67811844544686 L 1036.4003367512157 99.78095449061813 L 1036.326447699457 99.8834616476704 L 1036.2502947973478 99.98562966597338 L 1036.171885660115 100.08744832881038 L 1036.091228128607 100.18890745439998 L 1036.0083302685096 100.28999689691415 L 1035.9232003695397 100.39070654749288 L 1035.8358469446164 100.49102633525506 L 1035.7462787290092 100.59094622830548 L 1035.654504679465 100.69045623473812 L 1035.5605339733127 100.78954640363527 L 1035.4643760075442 100.8882068260626 L 1035.3660403978758 100.9864276360601 L 1035.2655369777872 101.0841990116286 L 1035.162875797536 101.18151117571202 L 1035.0580671231548 101.27835439717506 L 1034.951121435424 101.37471899177628 L 1034.8420494288232 101.4705953231365 L 1034.7308620104618 101.56597380370249 L 1034.6175702989892 101.6608448957057 L 1034.5021856234823 101.75519911211595 L 1034.3847195223123 101.84902701759025 L 1034.2651837419915 101.94231922941623 L 1034.143590235998 102.03506641845047 L 1034.0199511635817 102.12725931005133 L 1033.8942788885463 102.2188886850065 L 1033.7665859780147 102.30994538045483 L 1033.636885201172 102.40042029080266 L 1033.5051895279869 102.49030436863434 L 1033.3715121279176 102.579588625617 L 1033.2358663685927 102.66826413339936 L 1033.0982658144749 102.75632202450451 L 1032.958724225505 102.84375349321674 L 1032.8172555557258 102.93054979646202 L 1032.673873951886 103.01670225468237 L 1032.5285937520266 103.10220225270375 L 1032.381429484047 103.18704124059762 L 1032.2323958642507 103.27121073453588 L 1032.081507795876 103.3547023176393 L 1031.9287803676036 103.4375076408191 L 1031.7742288520492 103.51961842361202 L 1031.6178687042357 103.60102645500817 L 1031.4597155600475 103.68172359427226 L 1031.2997852346673 103.7617017717576 L 1031.138093720994 103.84095298971312 L 1030.9746571880446 103.91946932308304 L 1030.8094919793361 103.99724292029944 L 1030.642614611252 104.07426600406745 L 1030.4740417713895 104.15053087214287 L 1030.3037903168922 104.22602989810241 L 1030.131877272764 104.30075553210642 L 1029.9583198301661 104.37470030165377 L 1029.7831353446977 104.44785681232914 L 1029.6063413346617 104.52021774854238 L 1029.4279554793115 104.59177587426021 L 1029.2479956170844 104.66252403372968 L 1029.0664797438162 104.73245515219378 L 1028.8834260109434 104.80156223659897 L 1028.6988527236863 104.86983837629438 L 1028.5127783392202 104.93727674372295 L 1028.3252214648282 105.0038705951041 L 1028.1362008560416 105.06961327110824 L 1027.9457354147637 105.13449819752252 L 1027.7538441873799 105.19851888590837 L 1027.560546362853 105.26166893425032 L 1027.3658612708045 105.32394202759615 L 1027.1698083795814 105.38533193868841 L 1026.9724072943093 105.44583252858716 L 1026.7736777549321 105.50543774728384 L 1026.5736396342384 105.56414163430621 L 1026.3723129358734 105.62193831931454 L 1026.1697177923393 105.67882202268845 L 1025.9658744629817 105.73478705610502 L 1025.7608033319632 105.78982782310756 L 1025.5545249062266 105.84393881966523 L 1025.3470598134422 105.89711463472344 L 1025.1384287999465 105.94934995074503 L 1024.928652728667 106.00063954424192 L 1024.717752577036 106.0509782862975 L 1024.505749434893 106.1003611430795 L 1024.2926645023754 106.14878317634341 L 1024.078519087799 106.19623954392625 L 1023.8633346055267 106.2427255002308 L 1023.6471325738274 106.2882363967002 L 1023.4299346127243 106.33276768228268 L 1023.2117624418323 106.37631490388682 L 1022.9926378781868 106.41887370682676 L 1022.7725828340614 106.46043983525765 L 1022.5516193147773 106.50100913260128 L 1022.3297694165024 106.54057754196174 L 1022.1070553240413 106.57914110653107 L 1021.8834993086178 106.61669596998493 L 1021.6591237256474 106.65323837686829 L 1021.4339510125011 106.6887646729709 L 1021.2080036862627 106.72327130569276 L 1020.9813043414765 106.75675482439937 L 1020.7538756478881 106.78921188076673 L 1020.5257403481772 106.82063922911627 L 1020.296921255684 106.85103372673933 L 1020.0674412521266 106.8803923342115 L 1019.8373232853146 106.90871211569649 L 1019.6065903668525 106.93599023923973 L 1019.3752655698402 106.96222397705162 L 1019.1433720265643 106.98741070578025 L 1018.9109329261862 107.0115479067737 L 1018.6779715124221 107.03463316633201 L 1018.4445110812192 107.05666417594847 L 1018.2105749784262 107.07763873254045 L 1017.9761865974582 107.09755473866979 L 1017.7413693769582 107.11641020275246 L 1017.5061467984526 107.13420323925777 L 1017.270542384003 107.1509320688969 L 1017.0345796938547 107.16659501880085 L 1016.79828232408 107.18119052268763 L 1016.561673904219 107.19471712101905 L 1016.3247780949164 107.20717346114655 L 1016.0876185855559 107.21855829744648 L 1015.8502190918907 107.22887049144471 L 1015.6126033536723 107.23810901193042 L 1015.3747951322766 107.24627293505928 L 1015.1368182083276 107.25336144444577 L 1014.8986963793192 107.25937383124486 L 1014.660453457236 107.26430949422287 L 1014.4221132661717 107.26816793981763 L 1014.1836996399467 107.27094878218779 L 1013.9452364197249 107.27265174325143 L 1013.7067474516298 107.27327665271386 L 1013.4682565843592 107.27282344808465 L 1013.2297876668014 107.27129217468391 L 1012.9913645456492 107.26868298563768 L 1012.7530110630162 107.2649961418627 L 1012.5147510540518 107.26023201204026 L 1012.2766083445586 107.2543910725794 L 1012.0386067486089 107.24747390756917 L 1011.8007700661641 107.23948120872033 L 1011.5631220806941 107.23041377529609 L 1011.3256865567996 107.22027251403225 L 1011.0884872378349 107.20905843904646 L 1010.8515478435345 107.1967726717369 L 1010.6148920676402 107.18341644067004 L 1010.3785435755324 107.16899108145788 L 1010.1425260018633 107.15349803662431 L 1009.9068629481937 107.1369388554609 L 1009.6715779806326 107.11931519387196 L 1009.4366946274806 107.10062881420897 L 1009.2022363768773 107.08088158509435 L 1008.9682266744525 107.0600754812345 L 1008.7346889209811 107.03821258322252 L 1008.5016464700442 107.01529507732995 L 1008.2691226256925 106.99132525528832 L 1008.0371406401166 106.96630551405984 L 1007.805723711322 106.94023835559778 L 1007.5748949808085 106.91312638659626 L 1007.3446775312569 106.88497231822961 L 1007.1150943842204 106.85577896588119 L 1006.886168497822 106.8255492488619 L 1006.6579227644601 106.79428619011826 L 1006.4303800085174 106.76199291593008 L 1006.2035629840801 106.72867265559789 L 1005.9774943726617 106.69432874111995 L 1005.7521967809347 106.65896460685907 L 1005.5276927384706 106.62258378919921 L 1005.3040046954867 106.58518992619184 L 1005.0811550206008 106.5467867571921 L 1004.8591659985947 106.50737812248485 L 1004.6380598281856 106.46696796290075 L 1004.4178586198062 106.42556031942208 L 1004.1985843933941 106.38315933277867 L 1003.9802590761889 106.33976924303387 L 1003.7629045005405 106.29539438916049 L 1003.5465424017254 106.25003920860692 L 1003.3311944157731 106.20370823685344 L 1003.1168820773029 106.15640610695861 L 1002.9036268173697 106.108137549096 L 1002.6914499613223 106.05890739008117 L 1002.480372726669 106.00872055288902 L 1002.2704162209576 105.9575820561614 L 1002.0616014396637 105.90549701370541 L 1001.8539492640914 105.85247063398188 L 1001.6474804592852 105.79850821958458 L 1001.4422156719536 105.74361516670999 L 1001.2381754284041 105.68779696461766 L 1001.0353801324911 105.63105919508126 L 1000.8338500635754 105.5734075318305 L 1000.6336053744957 105.51484773998365 L 1000.4346660895541 105.45538567547108 L 1000.2370521025133 105.3950272844497 L 1000.0407831746074 105.33377860270829 L 999.8458789325656 105.27164575506403 L 999.6523588666497 105.20863495474987 L 999.4602423287049 105.14475250279335 L 999.2695485302252 105.08000478738643 L 999.0802965404312 105.01439828324668 L 998.8925052843642 104.94793955096986 L 998.7061935409936 104.8806352363738 L 998.5213799413382 104.8124920698339 L 998.3380829666041 104.74351686560999 L 998.1563209463359 104.67371652116503 L 997.9761120565844 104.6030980164753 L 997.7974743180881 104.53166841333243 L 997.6204255944722 104.4594348546372 L 997.4449835904613 104.38640456368528 L 997.2711658501099 104.31258484344491 L 997.098989755047 104.2379830758266 L 996.9284725227386 104.16260672094495 L 996.759631204766 104.08646331637262 L 996.5924826851201 104.00956047638662 L 996.4270436785138 103.93190589120688 L 996.2633307287095 103.85350732622719 L 996.1013602068663 103.77437262123871 L 995.941148309901 103.694509689646 L 995.7827110588698 103.61392651767568 L 995.626064297366 103.53263116357778 L 995.4712236899352 103.45063175681996 L 995.3182047205089 103.36793649727457 L 995.1670226908566 103.28455365439865 L 995.0176927190553 103.20049156640701 L 994.8702297379778 103.1157586394384 L 994.7246484937992 103.03036334671489 L 994.5809635445228 102.94431422769459 L 994.4391892585236 102.85761988721772 L 994.2993398131122 102.77028899464605 L 994.1614291931164 102.68233028299609 L 994.0254711894834 102.5937525480657 L 993.8914793979003 102.50456464755453 L 993.7594672174346 102.41477550017834 L 993.6294478491942 102.32439408477703 L 993.5014342950077 102.23342943941684 L 993.3754393561238 102.14189066048647 L 993.2514756319315 102.04978690178756 L 993.1295555186998 101.95712737361922 L 993.0096912083384 101.86392134185704 L 992.8918946871785 101.77017812702654 L 992.776177734774 101.67590710337106 L 992.6625519227238 101.58111769791444 L 992.5510286135144 101.48581938951821 L 992.4416189593837 101.39002170793381 L 992.334333901206 101.29373423284954 L 992.2291841673978 101.19696659293271 L 992.1261802728447 101.09972846486664 L 992.0253325178504 101.00202957238312 L 991.9266509871063 100.90387968528998 L 991.8301455486834 100.80528861849413 L 991.735825853045 100.70626623102011 L 991.643701332082 100.60682242502413 L 991.5537811981698 100.50696714480392 L 991.4660744432468 100.40671037580431 L 991.3805898379155 100.30606214361863 L 991.2973359305653 100.20503251298624 L 991.2163210465172 100.103631586786 L 991.1375532871924 100.00186950502604 L 991.0610405293012 99.89975644382972 L 990.9867904240554 99.79730261441809 L 990.9148103964038 99.69451826208869 L 990.8451076442891 99.59141366519111 L 990.7776891379286 99.48799913409913 L 990.7125616191166 99.38428501017967 L 990.6497316005507 99.28028166475868 L 990.5892053651805 99.17599949808405 L 990.530988965579 99.07144893828554 L 990.4750882233378 98.96664044033201 L 990.4215087284844 98.86158448498593 L 990.3702558389235 98.75629157775525 L 990.3213346799017 98.65077224784297 L 990.2747501434939 98.54503704709414 L 990.230506888115 98.43909654894075 L 990.1886093380535 98.33296134734431 L 990.1490616830298 98.22664205573652 L 990.1118678777761 98.12014930595798 L 990.0770316416423 98.01349374719489 L 990.0445564582226 97.90668604491427 L 990.0144455750086 97.79973687979731 L 989.9867020030633 97.69265694667143 L 989.961328516721 97.58545695344071 L 989.938327653309 97.47814762001512 L 989.9177017128945 97.37073967723859 L 989.8994527580544 97.26324386581588 L 989.883582613669 97.15567093523856 L 989.8700928667395 97.04803164271006 L 989.8589848662292 96.94033675206991 L 989.8502597229292 96.83259703271744 L 989.8439183093462 96.7248232585348 L 989.8399612596166 96.6170262068096 L 989.8383889694419 96.50921665715717" stroke-miterlimit="10" stroke-width="2.7769845610000004" stroke-dasharray=""/></g><g><text fill="black" stroke="none" font-family="sans-serif" font-size="11pt" font-style="normal" font-weight="normal" text-decoration="normal" x="982.3098105936197" y="124.80095321200001" text-anchor="start" dominant-baseline="alphabetic" xml:space="preserve">Database</text></g></g><g><path fill="white" stroke="black" paint-order="fill stroke markers" d=" M 396.6180885059896 183.607685092 L 412.9532918059896 183.607685092 L 412.9532918059896 1180.0550863919998 L 396.6180885059896 1180.0550863919998 L 396.6180885059896 183.607685092" stroke-miterlimit="10" stroke-width="1.3612669416666667" stroke-dasharray=""/><path fill="white" stroke="black" paint-order="fill stroke markers" d=" M 641.4673251502603 229.346254332 L 657.8025284502604 229.346254332 L 657.8025284502604 1134.3165171519997 L 641.4673251502603 1134.3165171519997 L 641.4673251502603 229.346254332" stroke-miterlimit="10" stroke-width="1.3612669416666667" stroke-dasharray=""/><path fill="white" stroke="black" paint-order="fill stroke markers" d=" M 649.6349268002604 296.320587862 L 665.9701301002605 296.320587862 L 665.9701301002605 342.059157102 L 649.6349268002604 342.059157102 L 649.6349268002604 296.320587862" stroke-miterlimit="10" stroke-width="1.3612669416666667" stroke-dasharray=""/><path fill="white" stroke="black" paint-order="fill stroke markers" d=" M 852.703906747591 588.7207269319999 L 869.0391100475911 588.7207269319999 L 869.0391100475911 725.9364346519998 L 852.703906747591 725.9364346519998 L 852.703906747591 588.7207269319999" stroke-miterlimit="10" stroke-width="1.3612669416666667" stroke-dasharray=""/><path fill="white" stroke="black" paint-order="fill stroke markers" d=" M 1005.5201538899087 634.4592961719999 L 1021.8553571899088 634.4592961719999 L 1021.8553571899088 680.1978654119998 L 1005.5201538899087 680.1978654119998 L 1005.5201538899087 634.4592961719999" stroke-miterlimit="10" stroke-width="1.3612669416666667" stroke-dasharray=""/><path fill="white" stroke="black" paint-order="fill stroke markers" d=" M 852.703906747591 951.3622401919996 L 869.0391100475911 951.3622401919996 L 869.0391100475911 1088.5779479119997 L 852.703906747591 1088.5779479119997 L 852.703906747591 951.3622401919996" stroke-miterlimit="10" stroke-width="1.3612669416666667" stroke-dasharray=""/><path fill="white" stroke="black" paint-order="fill stroke markers" d=" M 1005.5201538899087 997.1008094319996 L 1021.8553571899088 997.1008094319996 L 1021.8553571899088 1042.8393786719996 L 1005.5201538899087 1042.8393786719996 L 1005.5201538899087 997.1008094319996" stroke-miterlimit="10" stroke-width="1.3612669416666667" stroke-dasharray=""/><path fill="white" stroke="black" paint-order="fill stroke markers" d=" M 852.703906747591 1088.5779479119997 L 869.0391100475911 1088.5779479119997 L 869.0391100475911 1088.5779479119997 L 852.703906747591 1088.5779479119997 L 852.703906747591 1088.5779479119997" stroke-miterlimit="10" stroke-width="1.3612669416666667" stroke-dasharray=""/><g><g><rect fill="white" stroke="none" x="137.30172914402996" y="162.371920802" width="211.8582483679297" height="21.23576429"/></g><text fill="black" stroke="none" font-family="sans-serif" font-size="11pt" font-style="normal" font-weight="normal" text-decoration="normal" x="139.75200963902995" y="177.07360377199998" text-anchor="start" dominant-baseline="alphabetic" xml:space="preserve">Delete comment in specific post</text></g><g><path fill="none" stroke="black" paint-order="fill stroke markers" d=" M 89.84361815 183.607685092 L 383.16877112232294 183.607685092" stroke-miterlimit="10" stroke-width="1.3612669416666667" stroke-dasharray=""/><g transform="translate(396.6180885059896,183.607685092) translate(-396.6180885059896,-183.607685092)"><path fill="black" stroke="none" paint-order="stroke fill markers" d=" M 383.0054190893229 176.80135038366666 L 396.6180885059896 183.607685092 L 383.0054190893229 190.41401980033334 Z"/></g></g><g><g><rect fill="white" stroke="none" x="435.5367079758007" y="208.110490042" width="183.34720100464844" height="21.23576429"/></g><text fill="black" stroke="none" font-family="sans-serif" font-size="11pt" font-style="normal" font-weight="normal" text-decoration="normal" x="437.9869884708007" y="222.812173012" text-anchor="start" dominant-baseline="alphabetic" xml:space="preserve">DELETE: /api/comment/{id}</text></g><g><path fill="none" stroke="black" paint-order="fill stroke markers" d=" M 412.9532918059896 229.346254332 L 628.0180077665937 229.346254332" stroke-miterlimit="10" stroke-width="1.3612669416666667" stroke-dasharray=""/><g transform="translate(641.4673251502603,229.346254332) translate(-641.4673251502603,-229.346254332)"><path fill="black" stroke="none" paint-order="stroke fill markers" d=" M 627.8546557335936 222.53991962366666 L 641.4673251502603 229.346254332 L 627.8546557335936 236.15258904033334 Z"/></g></g><g><g><rect fill="white" stroke="none" x="685.3001206719271" y="253.84905928200004" width="161.68646492066406" height="21.23576429"/></g><text fill="black" stroke="none" font-family="sans-serif" font-size="11pt" font-style="normal" font-weight="normal" text-decoration="normal" x="687.7504011669271" y="268.550742252" text-anchor="start" dominant-baseline="alphabetic" xml:space="preserve">check comment's owner</text></g><g><path fill="none" stroke="black" paint-order="fill stroke markers" d=" M 657.8025284502604 275.084823572 L 731.3109433002603 275.084823572 L 731.3109433002603 296.320587862 L 679.419447483927 296.320587862" stroke-miterlimit="10" stroke-width="1.3612669416666667" stroke-dasharray=""/><g transform="translate(665.9701301002603,296.320587862) translate(-665.9701301002603,-296.320587862)"><path fill="black" stroke="none" paint-order="stroke fill markers" d=" M 679.582799516927 289.5142531536667 L 665.9701301002603 296.320587862 L 679.582799516927 303.12692257033336 Z"/></g></g><g><g><rect fill="white" stroke="none" x="685.3001206719271" y="320.823392812" width="123.84826911988281" height="21.23576429"/></g><text fill="black" stroke="none" font-family="sans-serif" font-size="11pt" font-style="normal" font-weight="normal" text-decoration="normal" x="687.7504011669271" y="335.525075782" text-anchor="start" dominant-baseline="alphabetic" xml:space="preserve">is comment owner</text></g><g><path fill="none" stroke="black" paint-order="fill stroke markers" d=" M 665.9701301002603 342.059157102 L 731.3109433002603 342.059157102 L 731.3109433002603 363.294921392 L 671.251845833927 363.294921392" stroke-miterlimit="10" stroke-width="1.3612669416666667" stroke-dasharray="6.53408132"/><g transform="translate(657.8025284502603,363.294921392) translate(-657.8025284502603,-363.294921392)"><path fill="black" stroke="none" paint-order="stroke fill markers" d=" M 671.415197866927 356.48858668366665 L 657.8025284502603 363.294921392 L 671.415197866927 370.10125610033333 Z"/></g></g><g><g><rect fill="white" stroke="none" x="467.3262358688671" y="431.90277525199997" width="119.76814521851563" height="21.23576429"/></g><text fill="red" stroke="none" font-family="sans-serif" font-size="11pt" font-style="normal" font-weight="normal" text-decoration="normal" x="469.77651636386713" y="446.60445822199995" text-anchor="start" dominant-baseline="alphabetic" xml:space="preserve">403 FORBIDDEN</text></g><g><path fill="none" stroke="black" paint-order="fill stroke markers" d=" M 641.4673251502603 453.138539542 L 426.40260918965623 453.138539542" stroke-miterlimit="10" stroke-width="1.3612669416666667" stroke-dasharray="6.53408132"/><g transform="translate(412.9532918059896,453.138539542) translate(-412.9532918059896,-453.138539542)"><path fill="black" stroke="none" paint-order="stroke fill markers" d=" M 426.56596122265626 446.33220483366665 L 412.9532918059896 453.138539542 L 426.56596122265626 459.9448742503333 Z"/></g></g><g><g><rect fill="white" stroke="none" x="208.18573945897137" y="477.641344492" width="70.09022773804688" height="21.23576429"/></g><text fill="black" stroke="none" font-family="sans-serif" font-size="11pt" font-style="normal" font-weight="normal" text-decoration="normal" x="210.63601995397136" y="492.34302746199995" text-anchor="start" dominant-baseline="alphabetic" xml:space="preserve">Delete fail</text></g><g><path fill="none" stroke="black" paint-order="fill stroke markers" d=" M 396.6180885059896 498.877108782 L 103.29293553366666 498.877108782" stroke-miterlimit="10" stroke-width="1.3612669416666667" stroke-dasharray="6.53408132"/><g transform="translate(89.84361815,498.877108782) translate(-89.84361815,-498.877108782)"><path fill="black" stroke="none" paint-order="stroke fill markers" d=" M 103.45628756666666 492.07077407366666 L 89.84361815 498.877108782 L 103.45628756666666 505.68344349033333 Z"/></g></g><g><g><rect fill="white" stroke="none" x="721.0384717718944" y="567.4849626419999" width="68.4294916540625" height="21.23576429"/></g><text fill="black" stroke="none" font-family="sans-serif" font-size="11pt" font-style="normal" font-weight="normal" text-decoration="normal" x="723.4887522668944" y="582.1866456119999" text-anchor="start" dominant-baseline="alphabetic" xml:space="preserve">isExist(id)</text></g><g><path fill="none" stroke="black" paint-order="fill stroke markers" d=" M 657.8025284502604 588.7207269319999 L 839.2545893639243 588.7207269319999" stroke-miterlimit="10" stroke-width="1.3612669416666667" stroke-dasharray=""/><g transform="translate(852.703906747591,588.7207269319999) translate(-852.703906747591,-588.7207269319999)"><path fill="black" stroke="none" paint-order="stroke fill markers" d=" M 839.0912373309243 581.9143922236666 L 852.703906747591 588.7207269319999 L 839.0912373309243 595.5270616403333 Z"/></g></g><g><g><rect fill="white" stroke="none" x="903.0648861417186" y="613.2235318819999" width="68.4294916540625" height="21.23576429"/></g><text fill="black" stroke="none" font-family="sans-serif" font-size="11pt" font-style="normal" font-weight="normal" text-decoration="normal" x="905.5151666367186" y="627.9252148519998" text-anchor="start" dominant-baseline="alphabetic" xml:space="preserve">isExist(id)</text></g><g><path fill="none" stroke="black" paint-order="fill stroke markers" d=" M 869.0391100475911 634.4592961719999 L 992.070836506242 634.4592961719999" stroke-miterlimit="10" stroke-width="1.3612669416666667" stroke-dasharray=""/><g transform="translate(1005.5201538899087,634.4592961719999) translate(-1005.5201538899087,-634.4592961719999)"><path fill="black" stroke="none" paint-order="stroke fill markers" d=" M 991.907484473242 627.6529614636665 L 1005.5201538899087 634.4592961719999 L 991.907484473242 641.2656308803332 Z"/></g></g><g><g><rect fill="white" stroke="none" x="888.3691006192577" y="658.9621011219998" width="97.82106269898438" height="21.23576429"/></g><text fill="black" stroke="none" font-family="sans-serif" font-size="11pt" font-style="normal" font-weight="normal" text-decoration="normal" x="890.8193811142577" y="673.6637840919998" text-anchor="start" dominant-baseline="alphabetic" xml:space="preserve">Boolean value</text></g><g><path fill="none" stroke="black" paint-order="fill stroke markers" d=" M 1005.5201538899087 680.1978654119998 L 882.4884274312577 680.1978654119998" stroke-miterlimit="10" stroke-width="1.3612669416666667" stroke-dasharray="6.53408132"/><g transform="translate(869.0391100475911,680.1978654119998) translate(-869.0391100475911,-680.1978654119998)"><path fill="black" stroke="none" paint-order="stroke fill markers" d=" M 882.6517794642577 673.3915307036665 L 869.0391100475911 680.1978654119998 L 882.6517794642577 687.0042001203332 Z"/></g></g><g><g><rect fill="white" stroke="none" x="706.3426862494334" y="704.7006703619998" width="97.82106269898438" height="21.23576429"/></g><text fill="black" stroke="none" font-family="sans-serif" font-size="11pt" font-style="normal" font-weight="normal" text-decoration="normal" x="708.7929667444334" y="719.4023533319997" text-anchor="start" dominant-baseline="alphabetic" xml:space="preserve">Boolean value</text></g><g><path fill="none" stroke="black" paint-order="fill stroke markers" d=" M 852.703906747591 725.9364346519998 L 671.2518458339271 725.9364346519998" stroke-miterlimit="10" stroke-width="1.3612669416666667" stroke-dasharray="6.53408132"/><g transform="translate(657.8025284502604,725.9364346519998) translate(-657.8025284502604,-725.9364346519998)"><path fill="black" stroke="none" paint-order="stroke fill markers" d=" M 671.4151978669271 719.1300999436664 L 657.8025284502604 725.9364346519998 L 671.4151978669271 732.7427693603331 Z"/></g></g><g><g><rect fill="white" stroke="none" x="432.2832823776562" y="794.5442885119996" width="189.8540522009375" height="21.23576429"/></g><text fill="red" stroke="none" font-family="sans-serif" font-size="11pt" font-style="normal" font-weight="normal" text-decoration="normal" x="434.7335628726562" y="809.2459714819996" text-anchor="start" dominant-baseline="alphabetic" xml:space="preserve">404 NOT FOUND: not found</text></g><g><path fill="none" stroke="black" paint-order="fill stroke markers" d=" M 641.4673251502603 815.7800528019997 L 426.40260918965623 815.7800528019997" stroke-miterlimit="10" stroke-width="1.3612669416666667" stroke-dasharray="6.53408132"/><g transform="translate(412.9532918059896,815.7800528019997) translate(-412.9532918059896,-815.7800528019997)"><path fill="black" stroke="none" paint-order="stroke fill markers" d=" M 426.56596122265626 808.9737180936663 L 412.9532918059896 815.7800528019997 L 426.56596122265626 822.586387510333 Z"/></g></g><g><g><rect fill="white" stroke="none" x="109.17360872166667" y="840.2828577519996" width="268.1144892126562" height="21.23576429"/></g><text fill="black" stroke="none" font-family="sans-serif" font-size="11pt" font-style="normal" font-weight="normal" text-decoration="normal" x="111.62388921666667" y="854.9845407219996" text-anchor="start" dominant-baseline="alphabetic" xml:space="preserve">Message cannot delete comment in post</text></g><g><path fill="none" stroke="black" paint-order="fill stroke markers" d=" M 396.6180885059896 861.5186220419996 L 103.29293553366666 861.5186220419996" stroke-miterlimit="10" stroke-width="1.3612669416666667" stroke-dasharray="6.53408132"/><g transform="translate(89.84361815,861.5186220419996) translate(-89.84361815,-861.5186220419996)"><path fill="black" stroke="none" paint-order="stroke fill markers" d=" M 103.45628756666666 854.7122873336663 L 89.84361815 861.5186220419996 L 103.45628756666666 868.324956750333 Z"/></g></g><g><g><rect fill="white" stroke="none" x="707.5774808661326" y="930.1264759019996" width="95.35147346558594" height="21.23576429"/></g><text fill="black" stroke="none" font-family="sans-serif" font-size="11pt" font-style="normal" font-weight="normal" text-decoration="normal" x="710.0277613611327" y="944.8281588719996" text-anchor="start" dominant-baseline="alphabetic" xml:space="preserve">deleteById(id)</text></g><g><path fill="none" stroke="black" paint-order="fill stroke markers" d=" M 657.8025284502604 951.3622401919996 L 839.2545893639243 951.3622401919996" stroke-miterlimit="10" stroke-width="1.3612669416666667" stroke-dasharray=""/><g transform="translate(852.703906747591,951.3622401919996) translate(-852.703906747591,-951.3622401919996)"><path fill="black" stroke="none" paint-order="stroke fill markers" d=" M 839.0912373309243 944.5559054836663 L 852.703906747591 951.3622401919996 L 839.0912373309243 958.1685749003329 Z"/></g></g><g><g><rect fill="white" stroke="none" x="889.6038952359569" y="975.8650451419995" width="95.35147346558594" height="21.23576429"/></g><text fill="black" stroke="none" font-family="sans-serif" font-size="11pt" font-style="normal" font-weight="normal" text-decoration="normal" x="892.0541757309569" y="990.5667281119995" text-anchor="start" dominant-baseline="alphabetic" xml:space="preserve">deleteById(id)</text></g><g><path fill="none" stroke="black" paint-order="fill stroke markers" d=" M 869.0391100475911 997.1008094319996 L 992.070836506242 997.1008094319996" stroke-miterlimit="10" stroke-width="1.3612669416666667" stroke-dasharray=""/><g transform="translate(1005.5201538899087,997.1008094319996) translate(-1005.5201538899087,-997.1008094319996)"><path fill="black" stroke="none" paint-order="stroke fill markers" d=" M 991.907484473242 990.2944747236662 L 1005.5201538899087 997.1008094319996 L 991.907484473242 1003.9071441403329 Z"/></g></g><g><g><rect fill="white" stroke="none" x="934.8293514737499" y="1021.6036143819996" width="4.90056099" height="21.23576429"/></g><text fill="black" stroke="none" font-family="sans-serif" font-size="11pt" font-style="normal" font-weight="normal" text-decoration="normal" x="937.2796319687499" y="1036.3052973519996" text-anchor="start" dominant-baseline="alphabetic" xml:space="preserve"></text></g><g><path fill="none" stroke="black" paint-order="fill stroke markers" d=" M 1005.5201538899087 1042.8393786719996 L 882.4884274312577 1042.8393786719996" stroke-miterlimit="10" stroke-width="1.3612669416666667" stroke-dasharray="6.53408132"/><g transform="translate(869.0391100475911,1042.8393786719996) translate(-869.0391100475911,-1042.8393786719996)"><path fill="black" stroke="none" paint-order="stroke fill markers" d=" M 882.6517794642577 1036.0330439636664 L 869.0391100475911 1042.8393786719996 L 882.6517794642577 1049.6457133803328 Z"/></g></g><g><g><rect fill="white" stroke="none" x="752.8029371039256" y="1067.3421836219998" width="4.90056099" height="21.23576429"/></g><text fill="black" stroke="none" font-family="sans-serif" font-size="11pt" font-style="normal" font-weight="normal" text-decoration="normal" x="755.2532175989256" y="1082.0438665919999" text-anchor="start" dominant-baseline="alphabetic" xml:space="preserve"></text></g><g><path fill="none" stroke="black" paint-order="fill stroke markers" d=" M 852.703906747591 1088.5779479119997 L 671.2518458339271 1088.5779479119997" stroke-miterlimit="10" stroke-width="1.3612669416666667" stroke-dasharray="6.53408132"/><g transform="translate(657.8025284502604,1088.5779479119997) translate(-657.8025284502604,-1088.5779479119997)"><path fill="black" stroke="none" paint-order="stroke fill markers" d=" M 671.4151978669271 1081.7716132036664 L 657.8025284502604 1088.5779479119997 L 671.4151978669271 1095.384282620333 Z"/></g></g><g><g><rect fill="white" stroke="none" x="499.90319357150383" y="1113.0807528619998" width="54.61422981324219" height="21.23576429"/></g><text fill="green" stroke="none" font-family="sans-serif" font-size="11pt" font-style="normal" font-weight="normal" text-decoration="normal" x="502.35347406650385" y="1127.782435832" text-anchor="start" dominant-baseline="alphabetic" xml:space="preserve">200 OK</text></g><g><path fill="none" stroke="black" paint-order="fill stroke markers" d=" M 641.4673251502603 1134.3165171519997 L 426.40260918965623 1134.3165171519997" stroke-miterlimit="10" stroke-width="1.3612669416666667" stroke-dasharray="6.53408132"/><g transform="translate(412.9532918059896,1134.3165171519997) translate(-412.9532918059896,-1134.3165171519997)"><path fill="black" stroke="none" paint-order="stroke fill markers" d=" M 426.56596122265626 1127.5101824436665 L 412.9532918059896 1134.3165171519997 L 426.56596122265626 1141.122851860333 Z"/></g></g><g><g><rect fill="white" stroke="none" x="117.33036226170573" y="1158.819322102" width="251.80098213257813" height="21.23576429"/></g><text fill="black" stroke="none" font-family="sans-serif" font-size="11pt" font-style="normal" font-weight="normal" text-decoration="normal" x="119.78064275670573" y="1173.521005072" text-anchor="start" dominant-baseline="alphabetic" xml:space="preserve">Display post without deleted comment</text></g><g><path fill="none" stroke="black" paint-order="fill stroke markers" d=" M 396.6180885059896 1180.0550863919998 L 103.29293553366666 1180.0550863919998" stroke-miterlimit="10" stroke-width="1.3612669416666667" stroke-dasharray="6.53408132"/><g transform="translate(89.84361815,1180.0550863919998) translate(-89.84361815,-1180.0550863919998)"><path fill="black" stroke="none" paint-order="stroke fill markers" d=" M 103.45628756666666 1173.2487516836666 L 89.84361815 1180.0550863919998 L 103.45628756666666 1186.861421100333 Z"/></g></g><g><g/><path fill="none" stroke="black" paint-order="fill stroke markers" d=" M 16.335203300000003 387.797726342 L 1087.1961703899087 387.797726342 L 1087.1961703899087 1229.0606962919996 L 16.335203300000003 1229.0606962919996 L 16.335203300000003 387.797726342 Z" stroke-miterlimit="10" stroke-width="2.3336004714285714" stroke-dasharray=""/><path fill="white" stroke="black" paint-order="fill stroke markers" d=" M 16.335203300000003 387.797726342 L 16.335203300000003 407.399970302 L 62.694406897070316 407.399970302 L 72.49552887707031 397.598848322 L 72.49552887707031 387.797726342 L 16.335203300000003 387.797726342" stroke-miterlimit="10" stroke-width="2.3336004714285714" stroke-dasharray=""/><text fill="black" stroke="none" font-family="sans-serif" font-size="8.8pt" font-style="normal" font-weight="bold" text-decoration="normal" x="32.67040660000001" y="400.865888982" text-anchor="start" dominant-baseline="alphabetic" xml:space="preserve">alt</text><g><rect fill="white" stroke="none" x="86.38045168207032" y="389.104542606" width="275.3603388220312" height="16.988611432000003"/></g><text fill="black" stroke="none" font-family="sans-serif" font-size="8.8pt" font-style="normal" font-weight="bold" text-decoration="normal" x="88.83073217707032" y="400.865888982" text-anchor="start" dominant-baseline="alphabetic" xml:space="preserve">[If Current User does not owner of the comment]</text><g><path fill="none" stroke="black" paint-order="fill stroke markers" d=" M 16.335203300000003 523.379913732 L 1087.1961703899087 523.379913732" stroke-miterlimit="10" stroke-width="2.3336004714285714" stroke-dasharray="4.083800825"/></g><g/></g><g/><g><g/><path fill="none" stroke="black" paint-order="fill stroke markers" d=" M 32.6704066 750.4392396019997 L 1070.8609670899086 750.4392396019997 L 1070.8609670899086 1204.5578913419997 L 32.6704066 1204.5578913419997 L 32.6704066 750.4392396019997 Z" stroke-miterlimit="10" stroke-width="2.3336004714285714" stroke-dasharray=""/><path fill="white" stroke="black" paint-order="fill stroke markers" d=" M 32.6704066 750.4392396019997 L 32.6704066 770.0414835619997 L 79.02961019707031 770.0414835619997 L 88.83073217707032 760.2403615819997 L 88.83073217707032 750.4392396019997 L 32.6704066 750.4392396019997" stroke-miterlimit="10" stroke-width="2.3336004714285714" stroke-dasharray=""/><text fill="black" stroke="none" font-family="sans-serif" font-size="8.8pt" font-style="normal" font-weight="bold" text-decoration="normal" x="49.005609899999996" y="763.5074022419997" text-anchor="start" dominant-baseline="alphabetic" xml:space="preserve">alt</text><g><rect fill="white" stroke="none" x="102.71565498207032" y="751.7460558659997" width="159.35492195191406" height="16.988611432000003"/></g><text fill="black" stroke="none" font-family="sans-serif" font-size="8.8pt" font-style="normal" font-weight="bold" text-decoration="normal" x="105.16593547707032" y="763.5074022419997" text-anchor="start" dominant-baseline="alphabetic" xml:space="preserve">[If Comment does not exist]</text><g><path fill="none" stroke="black" paint-order="fill stroke markers" d=" M 32.6704066 886.0214269919996 L 1070.8609670899086 886.0214269919996" stroke-miterlimit="10" stroke-width="2.3336004714285714" stroke-dasharray="4.083800825"/></g><g/></g><g/></g></g></svg>