<svg version="1.1" xmlns="http://www.w3.org/2000/svg" xmlns:xlink="http://www.w3.org/1999/xlink" width="1067" height="1485"><desc>title%20Update%20Post%0A%0A%0Aactor%20%23green%3A0.5%20%22Workspace%20User%22%20as%20w%0Aboundary%20%22Application%20Client%22%20as%20f%0Acontrol%20%22Post%20Controller%22%20as%20gc%0Aparticipant%20%22Post%20Service%22%20as%20gs%0A%0Adatabase%20%23blue%3A1%20%22Database%22%20as%20db%0A%0Aw-%3Ef%3AChoose%20three-dot%20button%20in%20specific%20post%0Aactivate%20f%0Aw%3C--f%3AShow%20a%20list%20of%20actions%20with%20the%20post%0Aw-%3Ef%3AClick%20Update%20post%0A%0Aw%3C--f%3AUpdate%20post%20popup%0Aw-%3Ef%3AType%20content%20and%20click%20Post%20button%0A%0Af-%3Egc%3APUT%3A%20%2Fapi%2Fpost%2F%7Bid%7D%0Aactivate%20gc%0Agc-%3Egc%3A%20check%20post's%20owner%0Aactivate%20gc%0Agc%3C--gc%3A%20is%20Post%20owner%0Adeactivate%20gc%0Aalt%20If%20Current%20User%20does%20not%20owner%20of%20the%20post%0Af%3C--gc%3A%3Ccolor%3A%23red%3E403%20FORBIDDEN%3C%2Fcolor%3E%0Aw%3C--f%3AUpdate%20fail%0Aelse%20%0A%0Agc-%3Egs%3AisExist(id)%0Aactivate%20gs%0Ags-%3Edb%3AisExist(id)%0Aactivate%20db%0Ags%3C--db%3ABoolean%20value%0Adeactivate%20db%0Agc%3C--gs%3ABoolean%20value%0Adeactivate%20gs%0A%0Aalt%20If%20Post%20does%20not%20exist%0Af%3C--gc%3A%3Ccolor%3A%23red%3E404%20NOT%20FOUND%3C%2Fcolor%3E%0Aw%3C--f%3A%20Display%20404%20Not%20Found%20screen%0Aelse%20Else%0Agc-%3Egs%3Asave()%0Aactivate%20gs%0Ags-%3Edb%3Asave()%0Aactivate%20db%0Ags%3C--db%3APost%20value%0Adeactivate%20db%0A%0Agc%3C--gs%3APost%20value%0Adeactivate%20gs%0A%0Af%3C--gc%3A%3Ccolor%3A%23green%3E200%20OK%5CnResponse%20body%3A%20Post%20value%3C%2Fcolor%3E%0Adeactivate%20gc%0A%0Aw%3C--f%3A%20Display%20updated%20post%0Adeactivate%20f%0A%0Aend%0Aend</desc><defs/><g><g/><g/><g/><g/><g/><g/><g/><g/><g/><g/><g/><g/><g/><g/><g/><g/><g/><g/><g/><g/><g/><g/><g/><g/><g/><g/><g/><g/><g><rect fill="white" stroke="none" x="0" y="0" width="1067" height="1485"/></g><g><text fill="black" stroke="none" font-family="sans-serif" font-size="16.5pt" font-style="normal" font-weight="normal" text-decoration="normal" x="473.34333837796214" y="24.50280495" text-anchor="start" dominant-baseline="alphabetic" xml:space="preserve">Update Post</text></g><g/><g><path fill="none" stroke="black" paint-order="fill stroke markers" d=" M 89.84361815 129.701514202 L 89.84361815 1485.5233881019997" stroke-miterlimit="10" stroke-width="1.3612669416666667" stroke-dasharray="12.565541,5.445067766666667"/><path fill="none" stroke="black" paint-order="fill stroke markers" d=" M 399.90379318333333 129.701514202 L 399.90379318333333 1485.5233881019997" stroke-miterlimit="10" stroke-width="1.3612669416666667" stroke-dasharray="12.565541,5.445067766666667"/><path fill="none" stroke="black" paint-order="fill stroke markers" d=" M 638.2747736020182 129.701514202 L 638.2747736020182 1485.5233881019997" stroke-miterlimit="10" stroke-width="1.3612669416666667" stroke-dasharray="12.565541,5.445067766666667"/><path fill="none" stroke="black" paint-order="fill stroke markers" d=" M 816.9344051261066 129.701514202 L 816.9344051261066 1485.5233881019997" stroke-miterlimit="10" stroke-width="1.3612669416666667" stroke-dasharray="12.565541,5.445067766666667"/><path fill="none" stroke="black" paint-order="fill stroke markers" d=" M 969.7506522684243 129.701514202 L 969.7506522684243 1485.5233881019997" stroke-miterlimit="10" stroke-width="1.3612669416666667" stroke-dasharray="12.565541,5.445067766666667"/></g><g><g><path fill="white" stroke="green" paint-order="fill stroke markers" d=" M 99.154684031 60.60360424300001 A 9.311065881 9.311065881 0 1 1 99.15467937546744 60.594293178670846 M 89.84361815 69.91467012400001 L 89.84361815 89.84361815000001 M 78.08227177399999 77.102159576 L 101.604964526 77.102159576 M 89.84361815 89.84361815000001 L 78.08227177399999 108.465749912 M 89.84361815 89.84361815000001 L 101.604964526 108.465749912" stroke-miterlimit="10" stroke-width="1.3884922805000002" stroke-dasharray=""/></g><g><text fill="black" stroke="none" font-family="sans-serif" font-size="11pt" font-style="normal" font-weight="normal" text-decoration="normal" x="35.802839036230466" y="124.80095321200001" text-anchor="start" dominant-baseline="alphabetic" xml:space="preserve">Workspace User</text></g><g><path fill="white" stroke="black" paint-order="fill stroke markers" d=" M 432.32917173383333 82.819480731 A 24.2577769005 24.2577769005 0 1 1 432.3291596049459 82.79522295814245 M 368.8669069133333 57.17321154999999 L 368.8669069133333 108.465749912 M 367.47841463283333 82.819480731 L 383.8136179328333 82.819480731" stroke-miterlimit="10" stroke-width="2.7769845610000004" stroke-dasharray=""/></g><g><text fill="black" stroke="none" font-family="sans-serif" font-size="11pt" font-style="normal" font-weight="normal" text-decoration="normal" x="343.26817306614583" y="124.80095321200001" text-anchor="start" dominant-baseline="alphabetic" xml:space="preserve">Application Client</text></g><g><path fill="white" stroke="black" paint-order="fill stroke markers" d=" M 662.5325505025181 82.819480731 A 24.2577769005 24.2577769005 0 1 1 662.5325383736307 82.79522295814245 M 635.0077329420182 58.561703830499994 L 644.8088549220181 50.39410218049999 M 635.0077329420182 58.561703830499994 L 644.8088549220181 66.72930548049999" stroke-miterlimit="10" stroke-width="2.7769845610000004" stroke-dasharray=""/></g><g><text fill="black" stroke="none" font-family="sans-serif" font-size="11pt" font-style="normal" font-weight="normal" text-decoration="normal" x="589.7959146542643" y="124.80095321200001" text-anchor="start" dominant-baseline="alphabetic" xml:space="preserve">Post Controller</text></g><path fill="none" stroke="none"/><g><path fill="white" stroke="black" paint-order="fill stroke markers" d=" M 758.065422985548 85.75981732500001 L 875.8033872666653 85.75981732500001 L 875.8033872666653 129.701514202 L 758.065422985548 129.701514202 L 758.065422985548 85.75981732500001 Z" stroke-miterlimit="10" stroke-width="2.613632528" stroke-dasharray=""/></g><g><text fill="black" stroke="none" font-family="sans-serif" font-size="11pt" font-style="normal" font-weight="normal" text-decoration="normal" x="775.789118566048" y="113.36631090200002" text-anchor="start" dominant-baseline="alphabetic" xml:space="preserve">Post Service</text></g><g><path fill="white" stroke="blue" paint-order="fill stroke markers" d=" M 945.9012554504244 97.684515734 L 945.9012554504244 63.380588804000006 L 993.6000490864243 63.380588804000006 L 993.6000490864243 97.684515734" stroke-miterlimit="10" stroke-width="2.7769845610000004" stroke-dasharray=""/><path fill="white" stroke="blue" paint-order="fill stroke markers" d=" M 993.6000490864243 62.1881189631 L 993.5988566265206 62.29592950801663 L 993.5952793660546 62.403729271968594 L 993.5893176627493 62.51150747506936 L 993.5809721127699 62.619253339588404 L 993.5702435506647 62.72695609102909 L 993.5571330492809 62.834604959206004 L 993.5416419196576 62.94218917932205 L 993.5237717108951 63.04969799304486 L 993.503524209999 63.15712064958265 L 993.4809014417028 63.2644464067593 L 993.4559056682644 63.371664532088516 L 993.4285393892404 63.47876430384712 L 993.3988053412359 63.58573501214718 L 993.3667064976307 63.692565960007016 L 993.3322460682826 63.79924646442086 L 993.2954274992059 63.90576585742718 L 993.2562544722265 64.01211348717543 L 993.2147309046147 64.11827871899126 L 993.1708609486927 64.22425093643996 L 993.1246489914193 64.3300195423881 L 993.076099653952 64.43557396006322 L 993.025217791184 64.54090363411153 L 992.9720084912591 64.64599803165338 L 992.9164770750629 64.75084664333659 L 992.8586290956908 64.85543898438739 L 992.7984703378927 64.95976459565881 L 992.7360068174941 65.06381304467668 L 992.6712447807948 65.16757392668278 L 992.6041907039448 65.27103686567541 L 992.5348512922959 65.37419151544687 L 992.4632334797312 65.47702756061814 L 992.3893444279726 65.5795347176704 L 992.3131915258635 65.68170273597339 L 992.2347823886307 65.7835213988104 L 992.1541248571226 65.88498052439998 L 992.0712269970252 65.98606996691414 L 991.9860970980553 66.08677961749288 L 991.8987436731319 66.18709940525505 L 991.8091754575247 66.28701929830548 L 991.7174014079807 66.38652930473813 L 991.6234307018283 66.48561947363528 L 991.5272727360597 66.58427989606261 L 991.4289371263916 66.6825007060601 L 991.3284337063028 66.7802720816286 L 991.2257725260516 66.87758424571203 L 991.1209638516706 66.97442746717506 L 991.0140181639397 67.07079206177627 L 990.9049461573387 67.1666683931365 L 990.7937587389774 67.2620468737025 L 990.6804670275048 67.35691796570569 L 990.565082351998 67.45127218211596 L 990.4476162508279 67.54510008759026 L 990.328080470507 67.63839229941624 L 990.2064869645137 67.73113948845047 L 990.0828478920973 67.82333238005134 L 989.9571756170619 67.9149617550065 L 989.8294827065305 68.00601845045483 L 989.6997819296874 68.09649336080267 L 989.5680862565025 68.18637743863435 L 989.4344088564333 68.27566169561702 L 989.2987630971083 68.36433720339936 L 989.1611625429905 68.45239509450451 L 989.0216209540206 68.53982656321674 L 988.8801522842413 68.62662286646201 L 988.7367706804015 68.71277532468237 L 988.5914904805423 68.79827532270376 L 988.4443262125625 68.88311431059763 L 988.2952925927664 68.9672838045359 L 988.1444045243915 69.0507753876393 L 987.9916770961191 69.13358071081912 L 987.8371255805648 69.21569149361203 L 987.6807654327514 69.29709952500816 L 987.5226122885631 69.37779666427225 L 987.3626819631828 69.45777484175761 L 987.2009904495096 69.53702605971311 L 987.0375539165603 69.61554239308303 L 986.8723887078518 69.69331599029945 L 986.7055113397674 69.77033907406746 L 986.536938499905 69.84660394214286 L 986.3666870454078 69.92210296810242 L 986.1947740012797 69.99682860210643 L 986.0212165586817 70.07077337165379 L 985.8460320732133 70.14392988232913 L 985.6692380631773 70.21629081854239 L 985.4908522078273 70.28784894426022 L 985.3108923456 70.35859710372968 L 985.129376472332 70.42852822219379 L 984.946322739459 70.49763530659898 L 984.761749452202 70.5659114462944 L 984.5756750677358 70.63334981372294 L 984.3881181933439 70.69994366510412 L 984.1990975845572 70.76568634110825 L 984.0086321432793 70.83057126752253 L 983.8167409158955 70.89459195590838 L 983.6234430913687 70.95774200425032 L 983.4287579993202 71.02001509759614 L 983.232705108097 71.08140500868842 L 983.0353040228248 71.14190559858717 L 982.8365744834477 71.20151081728383 L 982.636536362754 71.26021470430622 L 982.435209664389 71.31801138931453 L 982.232614520855 71.37489509268845 L 982.0287711914972 71.43086012610503 L 981.8237000604789 71.48590089310757 L 981.6174216347422 71.54001188966522 L 981.4099565419579 71.59318770472345 L 981.2013255284621 71.64542302074504 L 980.9915494571827 71.69671261424193 L 980.7806493055517 71.7470513562975 L 980.5686461634086 71.79643421307951 L 980.355561230891 71.84485624634341 L 980.1414158163146 71.89231261392625 L 979.9262313340423 71.93879857023082 L 979.7100293023431 71.9843094667002 L 979.4928313412399 72.02884075228269 L 979.274659170348 72.07238797388683 L 979.0555346067024 72.11494677682676 L 978.835479562577 72.15651290525764 L 978.614516043293 72.19708220260128 L 978.392666145018 72.23665061196175 L 978.1699520525569 72.27521417653107 L 977.9463960371335 72.31276903998494 L 977.722020454163 72.3493114468683 L 977.4968477410167 72.38483774297092 L 977.2709004147783 72.41934437569277 L 977.0442010699921 72.45282789439938 L 976.8167723764037 72.48528495076673 L 976.5886370766929 72.51671229911628 L 976.3598179841996 72.54710679673934 L 976.1303379806423 72.5764654042115 L 975.9002200138302 72.60478518569649 L 975.6694870953681 72.63206330923974 L 975.4381622983558 72.65829704705163 L 975.2062687550799 72.68348377578025 L 974.9738296547018 72.70762097677371 L 974.7408682409377 72.73070623633201 L 974.5074078097348 72.75273724594847 L 974.2734717069418 72.77371180254045 L 974.0390833259738 72.79362780866978 L 973.8042661054739 72.81248327275246 L 973.5690435269682 72.83027630925778 L 973.3334391125186 72.84700513889692 L 973.0974764223703 72.86266808880085 L 972.8611790525956 72.87726359268764 L 972.6245706327346 72.89079019101906 L 972.387674823432 72.90324653114655 L 972.1505153140715 72.91463136744649 L 971.9131158204063 72.9249435614447 L 971.6755000821879 72.93418208193043 L 971.4376918607923 72.94234600505929 L 971.1997149368432 72.94943451444577 L 970.9615931078348 72.95544690124485 L 970.7233501857517 72.96038256422287 L 970.4850099946873 72.96424100981763 L 970.2465963684623 72.9670218521878 L 970.0081331482405 72.96872481325143 L 969.7696441801454 72.96934972271386 L 969.5311533128748 72.96889651808466 L 969.292684395317 72.96736524468392 L 969.0542612741648 72.96475605563768 L 968.8159077915318 72.96106921186271 L 968.5776477825674 72.95630508204027 L 968.3395050730742 72.9504641425794 L 968.1015034771245 72.94354697756918 L 967.8636667946797 72.93555427872033 L 967.6260188092098 72.9264868452961 L 967.3885832853152 72.91634558403224 L 967.1513839663505 72.90513150904647 L 966.9144445720501 72.89284574173689 L 966.6777887961558 72.87948951067006 L 966.441440304048 72.86506415145789 L 966.2054227303789 72.84957110662431 L 965.9697596767094 72.8330119254609 L 965.7344747091482 72.81538826387197 L 965.4995913559962 72.79670188420899 L 965.2651331053929 72.77695465509434 L 965.0311234029681 72.7561485512345 L 964.7975856494967 72.73428565322251 L 964.5645431985598 72.71136814732996 L 964.3320193542081 72.68739832528833 L 964.1000373686322 72.66237858405984 L 963.8686204398376 72.63631142559778 L 963.6377917093241 72.60919945659627 L 963.4075742597726 72.58104538822961 L 963.177991112736 72.55185203588118 L 962.9490652263377 72.5216223188619 L 962.7208194929757 72.49035926011825 L 962.493276737033 72.45806598593009 L 962.2664597125957 72.4247457255979 L 962.0403911011773 72.39040181111994 L 961.8150935094503 72.35503767685907 L 961.5905894669862 72.31865685919922 L 961.3669014240023 72.28126299619186 L 961.1440517491164 72.24285982719209 L 960.9220627271103 72.20345119248485 L 960.7009565567013 72.16304103290075 L 960.4807553483218 72.12163338942209 L 960.2614811219097 72.07923240277869 L 960.0431558047045 72.03584231303388 L 959.8258012290561 71.99146745916049 L 959.6094391302411 71.94611227860693 L 959.3940911442887 71.89978130685344 L 959.1797788058185 71.85247917695861 L 958.9665235458854 71.80421061909601 L 958.7543466898379 71.75498046008119 L 958.5432694551846 71.70479362288901 L 958.3333129494732 71.65365512616141 L 958.1244981681793 71.60157008370541 L 957.916845992607 71.54854370398188 L 957.7103771878009 71.49458128958457 L 957.5051124004692 71.43968823671 L 957.3010721569198 71.38387003461766 L 957.0982768610068 71.32713226508127 L 956.896746792091 71.26948060183051 L 956.6965021030113 71.21092080998365 L 956.4975628180697 71.15145874547107 L 956.2999488310289 71.0911003544497 L 956.1036799031231 71.0298516727083 L 955.9087756610812 70.96771882506403 L 955.7152555951653 70.90470802474988 L 955.5231390572205 70.84082557279336 L 955.3324452587408 70.77607785738643 L 955.1431932689468 70.71047135324669 L 954.9554020128799 70.64401262096986 L 954.7690902695092 70.5767083063738 L 954.5842766698538 70.50856513983389 L 954.4009796951198 70.43958993560999 L 954.2192176748515 70.36978959116503 L 954.0390087851 70.29917108647531 L 953.8603710466037 70.22774148333244 L 953.6833223229878 70.1555079246372 L 953.507880318977 70.08247763368529 L 953.3340625786255 70.00865791344492 L 953.1618864835626 69.9340561458266 L 952.9913692512542 69.85867979094495 L 952.8225279332817 69.78253638637263 L 952.6553794136357 69.70563354638664 L 952.4899404070294 69.62797896120689 L 952.3262274572252 69.54958039622719 L 952.1642569353819 69.47044569123871 L 952.0040450384166 69.39058275964601 L 951.8456077873855 69.30999958767568 L 951.6889610258817 69.22870423357777 L 951.5341204184508 69.14670482681996 L 951.3811014490245 69.06400956727457 L 951.2299194193722 68.98062672439866 L 951.0805894475709 68.89656463640702 L 950.9331264664934 68.8118317094384 L 950.7875452223149 68.72643641671489 L 950.6438602730384 68.6403872976946 L 950.5020859870392 68.55369295721772 L 950.3622365416278 68.46636206464606 L 950.224325921632 68.37840335299609 L 950.088367917999 68.28982561806569 L 949.9543761264159 68.20063771755453 L 949.8223639459502 68.11084857017835 L 949.6923445777098 68.02046715477704 L 949.5643310235233 67.92950250941684 L 949.4383360846394 67.83796373048648 L 949.3143723604471 67.74585997178757 L 949.1924522472154 67.65320044361923 L 949.072587936854 67.55999441185705 L 948.9547914156941 67.46625119702654 L 948.8390744632896 67.37198017337107 L 948.7254486512394 67.27719076791445 L 948.61392534203 67.18189245951821 L 948.5045156878994 67.08609477793381 L 948.3972306297217 66.98980730284956 L 948.2920808959134 66.89303966293272 L 948.1890770013604 66.79580153486665 L 948.088229246366 66.69810264238313 L 947.9895477156219 66.59995275528999 L 947.893042277199 66.50136168849414 L 947.7987225815606 66.40233930102012 L 947.7065980605976 66.30289549502413 L 947.6166779266854 66.20304021480393 L 947.5289711717625 66.1027834458043 L 947.4434865664311 66.00213521361863 L 947.3602326590809 65.90110558298623 L 947.2792177750329 65.799704656786 L 947.200450015708 65.69794257502603 L 947.1239372578168 65.59582951382973 L 947.049687152571 65.4933756844181 L 946.9777071249194 65.3905913320887 L 946.9080043728047 65.28748673519112 L 946.8405858664443 65.18407220409914 L 946.7754583476323 65.08035808017966 L 946.7126283290663 64.97635473475869 L 946.6521020936962 64.87207256808405 L 946.5938856940946 64.76752200828555 L 946.5379849518534 64.66271351033203 L 946.484405457 64.55765755498592 L 946.4331525674392 64.45236464775525 L 946.3842314084173 64.34684531784296 L 946.3376468720095 64.24111011709415 L 946.2934036166306 64.13516961894075 L 946.2515060665692 64.0290344173443 L 946.2119584115454 63.92271512573653 L 946.1747646062918 63.81622237595798 L 946.1399283701579 63.70956681719489 L 946.1074531867382 63.602759114914264 L 946.0773423035242 63.49580994979732 L 946.049598731579 63.38873001667144 L 946.0242252452366 63.28153002344071 L 946.0012243818246 63.17422069001512 L 945.9805984414102 63.066812747238586 L 945.96234948657 62.959316935815885 L 945.9464793421846 62.85174400523857 L 945.9329895952551 62.74410471271006 L 945.9218815947448 62.636409822069915 L 945.9131564514448 62.52867010271744 L 945.9068150378619 62.4208963285348 L 945.9028579881323 62.313099276809595 L 945.9012856979575 62.20528972715717 L 945.9020983245655 62.09747846044265 L 945.9052957866941 61.98967625770286 L 945.9108777645997 61.88189389906824 L 945.9188437000894 61.77414216268484 L 945.9291927965761 61.66643182363649 L 945.9419240191589 61.558773652867366 L 945.957036094726 61.4511784161048 L 945.9745275120827 61.34365687278283 L 945.9943965221014 61.236219774966166 L 946.0166411378981 61.12887786627507 L 946.0412591350296 61.02164188081096 L 946.0682480517165 60.91452254208302 L 946.0976051890899 60.807530561935856 L 946.1293276114604 60.70067663947832 L 946.1634121466124 60.593971460013606 L 946.1998553861204 60.487425693970756 L 946.2386536856911 60.381049995837586 L 946.2798031655268 60.27485500309525 L 946.3232997107139 60.16885133515453 L 946.3691389716339 60.06304959229389 L 946.4173163643991 59.95746035459945 L 946.4678270713104 59.852094180906974 L 946.5206660413389 59.746961607746044 L 946.5758279906321 59.64207314828636 L 946.6333074030407 59.537439291286454 L 946.6930985306715 59.43307050004484 L 946.7551953944613 59.32897721135367 L 946.8195917847759 59.22516983445505 L 946.8862812620297 59.12165875000019 L 946.9552571573305 59.01845430901127 L 947.0265125731463 58.91556683184637 L 947.100040383995 58.81300660716748 L 947.1758332371566 58.7107838909116 L 947.253883553409 58.60890890526517 L 947.3341835277857 58.507391837641855 L 947.4167251303561 58.406242839663825 L 947.5015001070288 58.30547202614659 L 947.5884999803768 58.205089474087515 L 947.6777160504852 58.105105221658164 L 947.7691393958213 58.00552926720046 L 947.8627608741268 57.90637156822687 L 947.9585711233318 57.807642040424646 L 948.0565605624914 57.709350556664305 L 948.1567193927433 57.61150694601232 L 948.2590375982878 57.514120992748204 L 948.3635049473896 57.417202435386145 L 948.4701109934011 57.320760965701105 L 948.5788450758064 57.224806227759686 L 948.6896963212877 57.12934781695572 L 948.8026536448131 57.03439527905074 L 948.9177057507442 56.93995810921942 L 949.0348411339663 56.84604575110002 L 949.1540480810387 56.75266759585011 L 949.2753146713661 56.65983298120741 L 949.3986287783905 56.567551190555996 L 949.523978070804 56.47583145199805 L 949.6513500137817 56.384682937430995 L 949.7807318702355 56.29411476163032 L 949.9121107020876 56.20413598133814 L 950.0454733715642 56.1147555943575 L 950.1808065425096 56.02598253865261 L 950.3180966817195 55.937825691455075 L 950.4573300602942 55.85029386837614 L 950.5984927550121 55.763395822525176 L 950.7415706497212 55.677140243634355 L 950.8865494367514 55.591535757189675 L 951.0334146183446 55.50659092356846 L 951.1821515081053 55.42231423718327 L 951.3327452324683 55.33871412563253 L 951.4851807321867 55.25579894885771 L 951.6394427638375 55.1735769983074 L 951.7955159013461 55.092056496108135 L 951.9533845375289 55.01124559424221 L 952.1130328856539 54.93115237373246 L 952.274444981019 54.851784843834196 L 952.4376046825495 54.77315094123426 L 952.602495674411 54.6952585292574 L 952.7691014676419 54.61811539707989 L 952.9374054018017 54.54172925895067 L 953.107390646637 54.46610775341989 L 953.2790402037652 54.391258442575094 L 953.4523369083737 54.317188811284986 L 953.6272634309362 54.24390626645098 L 953.8038022789464 54.171418136266475 L 953.9819357986664 54.09973166948409 L 954.161646176893 54.028854034690774 L 954.3429154427379 53.95879231959093 L 954.5257254694255 53.88955353029769 L 954.7100579761058 53.82114459063227 L 954.8958945296815 53.753572341431656 L 955.0832165466521 53.68684353986444 L 955.272005294972 53.62096485875517 L 955.4622418959239 53.55594288591707 L 955.653907326006 53.49178412349323 L 955.8469824188351 53.42849498730643 L 956.0414478670627 53.366081806217544 L 956.2372842243063 53.304550821492676 L 956.4344719070931 53.24390818617902 L 956.6329911968194 53.18415996448957 L 956.8328222417214 53.12531213119671 L 957.0339450588611 53.067370571034715 L 957.2363395361248 53.01034107811134 L 957.4399854342331 52.95422935532834 L 957.6448623887659 52.89904101381123 L 957.8509499121985 52.84478157234818 L 958.0582273959504 52.79145645683812 L 958.2666741124459 52.73907099974815 L 958.4762692171871 52.687630439580346 L 958.686991750838 52.637139920347835 L 958.8988206413211 52.58760449106049 L 959.1117347059237 52.53902910521993 L 959.3257126534169 52.49141862032429 L 959.5407330861841 52.444777797382365 L 959.7567745023613 52.399111300437596 L 959.9738152979868 52.354423696101605 L 960.1918337691621 52.3107194530976 L 960.4108081142217 52.26800294181345 L 960.6307164359134 52.2262784338647 L 960.8515367435887 52.18555010166736 L 961.0732469554004 52.14582201802072 L 961.2958249005122 52.10709815570004 L 961.5192483213152 52.06938238705927 L 961.7434948756534 52.032678483643856 L 961.9685421390583 51.996990115813546 L 962.194367606991 51.96232085237539 L 962.4209486970931 51.928674160226834 L 962.6482627514442 51.89605340400906 L 962.8762870388283 51.8644618457705 L 963.1049987570068 51.833902644640645 L 963.3343750349984 51.80437885651416 L 963.5643929353665 51.775893433745246 L 963.7950294565127 51.74844922485244 L 964.026261534977 51.722048974233765 L 964.2580660477444 51.69669532189228 L 964.4904198145567 51.672390803172085 L 964.7232996002309 51.649137848504814 L 964.9566821169825 51.626938783166544 L 965.1905440267543 51.60579582704531 L 965.4248619435501 51.58571109441911 L 965.6596124357736 51.56668659374447 L 965.8947720285712 51.54872422745561 L 966.1303172061796 51.53182579177417 L 966.3662244142772 51.515992976529645 L 966.60247006234 51.50122736499037 L 966.8390305259998 51.4875304337052 L 967.0758821494076 51.47490355235584 L 967.3130012475982 51.4633479836199 L 967.5503641088596 51.45286488304463 L 967.7879469971034 51.443455298931354 L 968.0257261542387 51.43512017223063 L 968.263677802548 51.4278603364482 L 968.5017781470648 51.42167651756158 L 968.7400033779529 51.41656933394751 L 968.978329672888 51.41253929632009 L 969.216733199439 51.40958680767973 L 969.4551901174518 51.407712163272826 L 969.6936765814337 51.40691555056227 L 969.9321687429367 51.40719704920866 L 970.1706427529435 51.40855663106237 L 970.409074764252 51.41099416016634 L 970.6474409338595 51.414509392769695 L 970.8857174253477 51.419101977352106 L 971.1238804112662 51.42477145465894 L 971.3619060755148 51.431517257747196 L 971.5997706157252 51.43933871204218 L 971.8374502456419 51.44823503540498 L 972.0749211975 51.45820533821068 L 972.3121597244019 51.4692486234373 L 972.5491421026928 51.48136378676553 L 972.7858446343324 51.49454961668913 L 973.0222436492647 51.50880479463608 L 973.2583155077854 51.524127895100484 L 973.494036602905 51.54051738578506 L 973.7293833627107 51.5579716277544 L 973.9643322527226 51.57648887559884 L 974.1988597782473 51.59606727760904 L 974.432942486728 51.6167048759611 L 974.6665569700888 51.6383996069124 L 974.8996798670759 51.66114930100791 L 975.132287865594 51.684951683297186 L 975.364357705037 51.70980437356183 L 975.5958661786145 51.735704886553535 L 975.826790135672 51.76265063224257 L 976.0571064840062 51.79063891607683 L 976.2867921921742 51.81966693925126 L 976.5158242917965 51.849731798987726 L 976.7441798798542 51.88083048882531 L 976.9718361209787 51.91295989892094 L 977.1987702497354 51.94611681636038 L 977.4249595729008 51.980297925479526 L 977.6503814717311 52.01549980819594 L 977.875013404224 52.0517189443507 L 978.0988329073737 52.08895171206036 L 978.3218175994162 52.127194388079175 L 978.5439451820682 52.16644314817141 L 978.7651934427568 52.20669406749378 L 978.9855402568398 52.247943120987884 L 979.2049635898197 52.29018618378274 L 979.4234414995461 52.33341903160728 L 979.6409521384101 52.37763734121275 L 979.8574737555289 52.422836690805035 L 980.0729846989212 52.46901256048684 L 980.2874634176725 52.516160332709674 L 980.5008884640895 52.564275292735616 L 980.7132384958454 52.613352629108746 L 980.9244922781141 52.663387434136325 L 981.1346286856933 52.71437470437956 L 981.3436267051173 52.7663093411539 L 981.5514654367586 52.819186151038956 L 981.7581240969168 52.8729998463978 L 981.9635820198986 52.92774504590574 L 982.1678186600825 52.983416275088445 L 982.3708135939748 53.040007966869396 L 982.5725465222514 53.09751446212657 L 982.7729972717875 53.15593001025836 L 982.9721457976751 53.21524876975863 L 983.1699721852277 53.27546480880087 L 983.3664566519714 53.33657210583136 L 983.5615795496232 53.3985645501713 L 983.7553213660559 53.461435942627936 L 983.9476627272493 53.52517999611441 L 984.1385843992277 53.58979033627848 L 984.3280672899829 53.655260502139996 L 984.5160924513838 53.721583946736914 L 984.7026410810709 53.78875403778004 L 984.8876945243366 53.85676405831625 L 985.0712342759908 53.92560720740017 L 985.2532419822115 53.995276600774254 L 985.4336994423796 54.065765271557225 L 985.6125886108995 54.13706617094075 L 985.7898915990032 54.2091721688943 L 985.96559067654 54.28207605487816 L 986.1396682737484 54.35577053856451 L 986.3121069830137 54.43024825056637 L 986.4828895606087 54.50550174317461 L 986.6519989284179 54.581523491102686 L 986.8194181756455 54.658305892239156 L 986.9851305605064 54.73584126840789 L 987.1491195119 54.81412186613588 L 987.311368631068 54.89313985742859 L 987.4718616932337 54.97288734055273 L 987.6305826492245 55.05335634082646 L 987.787515627077 55.1345388114168 L 987.9426449336244 55.21642663414435 L 988.0959550560652 55.29901162029506 L 988.2474306635149 55.38228551143916 L 988.3970566085391 55.46623998025691 L 988.5448179286678 55.55086663137139 L 988.6906998478923 55.63615700218803 L 988.8346877781422 55.722102563740805 L 988.9767673207444 55.80869472154519 L 989.1169242678632 55.89592481645755 L 989.2551446039204 55.98378412554111 L 989.3914145069978 56.07226386293816 L 989.5257203502185 56.1613551807487 L 989.6580487031104 56.251049169915184 L 989.788386332948 56.34133686111345 L 989.9167202060773 56.4322092256496 L 990.043037489218 56.52365717636293 L 990.1673255507467 56.615671568534566 L 990.2895719619611 56.70824320080196 L 990.4097644983218 56.80136281607904 L 990.5278911406755 56.89502110248188 L 990.6439400764561 56.98920869425987 L 990.757899700867 57.083916172732344 L 990.8697586180407 57.17913406723036 L 990.9795056421785 57.27485285604382 L 991.0871297986697 57.37106296737362 L 991.1926203251882 57.467754780288786 L 991.2959666727692 57.56491862568861 L 991.3971585068641 57.662544787269525 L 991.496185708374 57.76062350249672 L 991.593038374661 57.859144963580405 L 991.6877068205393 57.95809931845658 L 991.7801815792433 58.05747667177222 L 991.8704534033741 58.15726708587479 L 991.9585132658244 58.257460581806065 L 992.0443523606815 58.358047140299924 L 992.1279621041075 58.459016702784346 L 992.2093341351974 58.56035917238722 L 992.2884603168163 58.66206441494605 L 992.3653327364118 58.764122260021324 L 992.4399437068059 58.866522501913586 L 992.5122857669639 58.96925490068398 L 992.5823516827402 59.072309183178234 L 992.6501344476012 59.17567504405398 L 992.7156272833272 59.279342146811274 L 992.7788236406891 59.38330012482622 L 992.8397172001038 59.48753858238766 L 992.8983018722662 59.59204709573668 L 992.9545717987578 59.69681521410906 L 993.008521352633 59.80183246078026 L 993.0601451389813 59.907088334113126 L 993.1094379954669 60.012572308608036 L 993.1563949928455 60.11827383595545 L 993.2010114354564 60.22418234609071 L 993.2432828616925 60.33028724825106 L 993.2832050444463 60.43657793203471 L 993.320773991533 60.54304376846186 L 993.3559859460889 60.64967411103757 L 993.3888373869484 60.75645829681646 L 993.4193250289942 60.86338564746893 L 993.4474458234879 60.97044547034902 L 993.4731969583733 61.07762705956367 L 993.4965758585585 61.184919697043256 L 993.5175801861727 61.29231265361346 L 993.536207840801 61.399795190068104 L 993.5524569596932 61.50735655824312 L 993.5663259179512 61.614986002091314 L 993.5778133286905 61.72267275875801 L 993.5869180431796 61.830406059657264 L 993.5936391509548 61.93817513154877 L 993.5979759799108 62.04596919761514 L 993.5999280963683 62.15377747853961 M 993.6000490864243 96.4920458931 L 993.5988566265206 96.59985643801662 L 993.5952793660546 96.70765620196859 L 993.5893176627493 96.81543440506935 L 993.5809721127699 96.9231802695884 L 993.5702435506647 97.03088302102908 L 993.5571330492809 97.138531889206 L 993.5416419196576 97.24611610932205 L 993.5237717108951 97.35362492304485 L 993.503524209999 97.46104757958265 L 993.4809014417028 97.5683733367593 L 993.4559056682644 97.67559146208852 L 993.4285393892404 97.78269123384712 L 993.3988053412359 97.88966194214719 L 993.3667064976307 97.99649289000702 L 993.3322460682826 98.10317339442086 L 993.2954274992059 98.20969278742717 L 993.2562544722265 98.31604041717543 L 993.2147309046147 98.42220564899125 L 993.1708609486927 98.52817786643996 L 993.1246489914193 98.6339464723881 L 993.076099653952 98.73950089006323 L 993.025217791184 98.84483056411152 L 992.9720084912591 98.94992496165337 L 992.9164770750629 99.05477357333659 L 992.8586290956908 99.15936591438738 L 992.7984703378927 99.2636915256588 L 992.7360068174941 99.36773997467667 L 992.6712447807948 99.47150085668278 L 992.6041907039448 99.5749637956754 L 992.5348512922959 99.67811844544686 L 992.4632334797312 99.78095449061813 L 992.3893444279726 99.8834616476704 L 992.3131915258635 99.98562966597338 L 992.2347823886307 100.08744832881038 L 992.1541248571226 100.18890745439998 L 992.0712269970252 100.28999689691415 L 991.9860970980553 100.39070654749288 L 991.8987436731319 100.49102633525506 L 991.8091754575247 100.59094622830548 L 991.7174014079807 100.69045623473812 L 991.6234307018283 100.78954640363527 L 991.5272727360597 100.8882068260626 L 991.4289371263916 100.9864276360601 L 991.3284337063028 101.0841990116286 L 991.2257725260516 101.18151117571202 L 991.1209638516706 101.27835439717506 L 991.0140181639397 101.37471899177628 L 990.9049461573387 101.4705953231365 L 990.7937587389774 101.56597380370249 L 990.6804670275048 101.6608448957057 L 990.565082351998 101.75519911211595 L 990.4476162508279 101.84902701759025 L 990.328080470507 101.94231922941623 L 990.2064869645137 102.03506641845047 L 990.0828478920973 102.12725931005133 L 989.9571756170619 102.2188886850065 L 989.8294827065305 102.30994538045483 L 989.6997819296874 102.40042029080266 L 989.5680862565025 102.49030436863434 L 989.4344088564333 102.579588625617 L 989.2987630971083 102.66826413339936 L 989.1611625429905 102.75632202450451 L 989.0216209540206 102.84375349321674 L 988.8801522842413 102.93054979646202 L 988.7367706804015 103.01670225468237 L 988.5914904805423 103.10220225270375 L 988.4443262125625 103.18704124059762 L 988.2952925927664 103.27121073453588 L 988.1444045243915 103.3547023176393 L 987.9916770961191 103.4375076408191 L 987.8371255805648 103.51961842361202 L 987.6807654327514 103.60102645500817 L 987.5226122885631 103.68172359427226 L 987.3626819631828 103.7617017717576 L 987.2009904495096 103.84095298971312 L 987.0375539165603 103.91946932308304 L 986.8723887078518 103.99724292029944 L 986.7055113397674 104.07426600406745 L 986.536938499905 104.15053087214287 L 986.3666870454078 104.22602989810241 L 986.1947740012797 104.30075553210642 L 986.0212165586817 104.37470030165377 L 985.8460320732133 104.44785681232914 L 985.6692380631773 104.52021774854238 L 985.4908522078273 104.59177587426021 L 985.3108923456 104.66252403372968 L 985.129376472332 104.73245515219378 L 984.946322739459 104.80156223659897 L 984.761749452202 104.86983837629438 L 984.5756750677358 104.93727674372295 L 984.3881181933439 105.0038705951041 L 984.1990975845572 105.06961327110824 L 984.0086321432793 105.13449819752252 L 983.8167409158955 105.19851888590837 L 983.6234430913687 105.26166893425032 L 983.4287579993202 105.32394202759615 L 983.232705108097 105.38533193868841 L 983.0353040228248 105.44583252858716 L 982.8365744834477 105.50543774728384 L 982.636536362754 105.56414163430621 L 982.435209664389 105.62193831931454 L 982.232614520855 105.67882202268845 L 982.0287711914972 105.73478705610502 L 981.8237000604789 105.78982782310756 L 981.6174216347422 105.84393881966523 L 981.4099565419579 105.89711463472344 L 981.2013255284621 105.94934995074503 L 980.9915494571827 106.00063954424192 L 980.7806493055517 106.0509782862975 L 980.5686461634086 106.1003611430795 L 980.355561230891 106.14878317634341 L 980.1414158163146 106.19623954392625 L 979.9262313340423 106.2427255002308 L 979.7100293023431 106.2882363967002 L 979.4928313412399 106.33276768228268 L 979.274659170348 106.37631490388682 L 979.0555346067024 106.41887370682676 L 978.835479562577 106.46043983525765 L 978.614516043293 106.50100913260128 L 978.392666145018 106.54057754196174 L 978.1699520525569 106.57914110653107 L 977.9463960371335 106.61669596998493 L 977.722020454163 106.65323837686829 L 977.4968477410167 106.6887646729709 L 977.2709004147783 106.72327130569276 L 977.0442010699921 106.75675482439937 L 976.8167723764037 106.78921188076673 L 976.5886370766929 106.82063922911627 L 976.3598179841996 106.85103372673933 L 976.1303379806423 106.8803923342115 L 975.9002200138302 106.90871211569649 L 975.6694870953681 106.93599023923973 L 975.4381622983558 106.96222397705162 L 975.2062687550799 106.98741070578025 L 974.9738296547018 107.0115479067737 L 974.7408682409377 107.03463316633201 L 974.5074078097348 107.05666417594847 L 974.2734717069418 107.07763873254045 L 974.0390833259738 107.09755473866979 L 973.8042661054739 107.11641020275246 L 973.5690435269682 107.13420323925777 L 973.3334391125186 107.1509320688969 L 973.0974764223703 107.16659501880085 L 972.8611790525956 107.18119052268763 L 972.6245706327346 107.19471712101905 L 972.387674823432 107.20717346114655 L 972.1505153140715 107.21855829744648 L 971.9131158204063 107.22887049144471 L 971.6755000821879 107.23810901193042 L 971.4376918607923 107.24627293505928 L 971.1997149368432 107.25336144444577 L 970.9615931078348 107.25937383124486 L 970.7233501857517 107.26430949422287 L 970.4850099946873 107.26816793981763 L 970.2465963684623 107.27094878218779 L 970.0081331482405 107.27265174325143 L 969.7696441801454 107.27327665271386 L 969.5311533128748 107.27282344808465 L 969.292684395317 107.27129217468391 L 969.0542612741648 107.26868298563768 L 968.8159077915318 107.2649961418627 L 968.5776477825674 107.26023201204026 L 968.3395050730742 107.2543910725794 L 968.1015034771245 107.24747390756917 L 967.8636667946797 107.23948120872033 L 967.6260188092098 107.23041377529609 L 967.3885832853152 107.22027251403225 L 967.1513839663505 107.20905843904646 L 966.9144445720501 107.1967726717369 L 966.6777887961558 107.18341644067004 L 966.441440304048 107.16899108145788 L 966.2054227303789 107.15349803662431 L 965.9697596767094 107.1369388554609 L 965.7344747091482 107.11931519387196 L 965.4995913559962 107.10062881420897 L 965.2651331053929 107.08088158509435 L 965.0311234029681 107.0600754812345 L 964.7975856494967 107.03821258322252 L 964.5645431985598 107.01529507732995 L 964.3320193542081 106.99132525528832 L 964.1000373686322 106.96630551405984 L 963.8686204398376 106.94023835559778 L 963.6377917093241 106.91312638659626 L 963.4075742597726 106.88497231822961 L 963.177991112736 106.85577896588119 L 962.9490652263377 106.8255492488619 L 962.7208194929757 106.79428619011826 L 962.493276737033 106.76199291593008 L 962.2664597125957 106.72867265559789 L 962.0403911011773 106.69432874111995 L 961.8150935094503 106.65896460685907 L 961.5905894669862 106.62258378919921 L 961.3669014240023 106.58518992619184 L 961.1440517491164 106.5467867571921 L 960.9220627271103 106.50737812248485 L 960.7009565567013 106.46696796290075 L 960.4807553483218 106.42556031942208 L 960.2614811219097 106.38315933277867 L 960.0431558047045 106.33976924303387 L 959.8258012290561 106.29539438916049 L 959.6094391302411 106.25003920860692 L 959.3940911442887 106.20370823685344 L 959.1797788058185 106.15640610695861 L 958.9665235458854 106.108137549096 L 958.7543466898379 106.05890739008117 L 958.5432694551846 106.00872055288902 L 958.3333129494732 105.9575820561614 L 958.1244981681793 105.90549701370541 L 957.916845992607 105.85247063398188 L 957.7103771878009 105.79850821958458 L 957.5051124004692 105.74361516670999 L 957.3010721569198 105.68779696461766 L 957.0982768610068 105.63105919508126 L 956.896746792091 105.5734075318305 L 956.6965021030113 105.51484773998365 L 956.4975628180697 105.45538567547108 L 956.2999488310289 105.3950272844497 L 956.1036799031231 105.33377860270829 L 955.9087756610812 105.27164575506403 L 955.7152555951653 105.20863495474987 L 955.5231390572205 105.14475250279335 L 955.3324452587408 105.08000478738643 L 955.1431932689468 105.01439828324668 L 954.9554020128799 104.94793955096986 L 954.7690902695092 104.8806352363738 L 954.5842766698538 104.8124920698339 L 954.4009796951198 104.74351686560999 L 954.2192176748515 104.67371652116503 L 954.0390087851 104.6030980164753 L 953.8603710466037 104.53166841333243 L 953.6833223229878 104.4594348546372 L 953.507880318977 104.38640456368528 L 953.3340625786255 104.31258484344491 L 953.1618864835626 104.2379830758266 L 952.9913692512542 104.16260672094495 L 952.8225279332817 104.08646331637262 L 952.6553794136357 104.00956047638662 L 952.4899404070294 103.93190589120688 L 952.3262274572252 103.85350732622719 L 952.1642569353819 103.77437262123871 L 952.0040450384166 103.694509689646 L 951.8456077873855 103.61392651767568 L 951.6889610258817 103.53263116357778 L 951.5341204184508 103.45063175681996 L 951.3811014490245 103.36793649727457 L 951.2299194193722 103.28455365439865 L 951.0805894475709 103.20049156640701 L 950.9331264664934 103.1157586394384 L 950.7875452223149 103.03036334671489 L 950.6438602730384 102.94431422769459 L 950.5020859870392 102.85761988721772 L 950.3622365416278 102.77028899464605 L 950.224325921632 102.68233028299609 L 950.088367917999 102.5937525480657 L 949.9543761264159 102.50456464755453 L 949.8223639459502 102.41477550017834 L 949.6923445777098 102.32439408477703 L 949.5643310235233 102.23342943941684 L 949.4383360846394 102.14189066048647 L 949.3143723604471 102.04978690178756 L 949.1924522472154 101.95712737361922 L 949.072587936854 101.86392134185704 L 948.9547914156941 101.77017812702654 L 948.8390744632896 101.67590710337106 L 948.7254486512394 101.58111769791444 L 948.61392534203 101.48581938951821 L 948.5045156878994 101.39002170793381 L 948.3972306297217 101.29373423284954 L 948.2920808959134 101.19696659293271 L 948.1890770013604 101.09972846486664 L 948.088229246366 101.00202957238312 L 947.9895477156219 100.90387968528998 L 947.893042277199 100.80528861849413 L 947.7987225815606 100.70626623102011 L 947.7065980605976 100.60682242502413 L 947.6166779266854 100.50696714480392 L 947.5289711717625 100.40671037580431 L 947.4434865664311 100.30606214361863 L 947.3602326590809 100.20503251298624 L 947.2792177750329 100.103631586786 L 947.200450015708 100.00186950502604 L 947.1239372578168 99.89975644382972 L 947.049687152571 99.79730261441809 L 946.9777071249194 99.69451826208869 L 946.9080043728047 99.59141366519111 L 946.8405858664443 99.48799913409913 L 946.7754583476323 99.38428501017967 L 946.7126283290663 99.28028166475868 L 946.6521020936962 99.17599949808405 L 946.5938856940946 99.07144893828554 L 946.5379849518534 98.96664044033201 L 946.484405457 98.86158448498593 L 946.4331525674392 98.75629157775525 L 946.3842314084173 98.65077224784297 L 946.3376468720095 98.54503704709414 L 946.2934036166306 98.43909654894075 L 946.2515060665692 98.33296134734431 L 946.2119584115454 98.22664205573652 L 946.1747646062918 98.12014930595798 L 946.1399283701579 98.01349374719489 L 946.1074531867382 97.90668604491427 L 946.0773423035242 97.79973687979731 L 946.049598731579 97.69265694667143 L 946.0242252452366 97.58545695344071 L 946.0012243818246 97.47814762001512 L 945.9805984414102 97.37073967723859 L 945.96234948657 97.26324386581588 L 945.9464793421846 97.15567093523856 L 945.9329895952551 97.04803164271006 L 945.9218815947448 96.94033675206991 L 945.9131564514448 96.83259703271744 L 945.9068150378619 96.7248232585348 L 945.9028579881323 96.6170262068096 L 945.9012856979575 96.50921665715717" stroke-miterlimit="10" stroke-width="2.7769845610000004" stroke-dasharray=""/></g><g><text fill="black" stroke="none" font-family="sans-serif" font-size="11pt" font-style="normal" font-weight="normal" text-decoration="normal" x="938.3727073221353" y="124.80095321200001" text-anchor="start" dominant-baseline="alphabetic" xml:space="preserve">Database</text></g></g><g><path fill="white" stroke="black" paint-order="fill stroke markers" d=" M 391.73619153333334 183.607685092 L 408.07139483333333 183.607685092 L 408.07139483333333 1379.344566652 L 391.73619153333334 1379.344566652 L 391.73619153333334 183.607685092" stroke-miterlimit="10" stroke-width="1.3612669416666667" stroke-dasharray=""/><path fill="white" stroke="black" paint-order="fill stroke markers" d=" M 630.1071719520181 412.300531292 L 646.4423752520182 412.300531292 L 646.4423752520182 1333.6059974119999 L 630.1071719520181 1333.6059974119999 L 630.1071719520181 412.300531292" stroke-miterlimit="10" stroke-width="1.3612669416666667" stroke-dasharray=""/><path fill="white" stroke="black" paint-order="fill stroke markers" d=" M 638.2747736020182 479.27486482200004 L 654.6099769020183 479.27486482200004 L 654.6099769020183 525.013434062 L 638.2747736020182 525.013434062 L 638.2747736020182 479.27486482200004" stroke-miterlimit="10" stroke-width="1.3612669416666667" stroke-dasharray=""/><path fill="white" stroke="black" paint-order="fill stroke markers" d=" M 808.7668034761066 771.6750038919998 L 825.1020067761067 771.6750038919998 L 825.1020067761067 908.8907116119997 L 808.7668034761066 908.8907116119997 L 808.7668034761066 771.6750038919998" stroke-miterlimit="10" stroke-width="1.3612669416666667" stroke-dasharray=""/><path fill="white" stroke="black" paint-order="fill stroke markers" d=" M 961.5830506184243 817.4135731319998 L 977.9182539184244 817.4135731319998 L 977.9182539184244 863.1521423719997 L 961.5830506184243 863.1521423719997 L 961.5830506184243 817.4135731319998" stroke-miterlimit="10" stroke-width="1.3612669416666667" stroke-dasharray=""/><path fill="white" stroke="black" paint-order="fill stroke markers" d=" M 808.7668034761066 1134.3165171519997 L 825.1020067761067 1134.3165171519997 L 825.1020067761067 1271.532224872 L 808.7668034761066 1271.532224872 L 808.7668034761066 1134.3165171519997" stroke-miterlimit="10" stroke-width="1.3612669416666667" stroke-dasharray=""/><path fill="white" stroke="black" paint-order="fill stroke markers" d=" M 961.5830506184243 1180.0550863919998 L 977.9182539184244 1180.0550863919998 L 977.9182539184244 1225.7936556319999 L 961.5830506184243 1225.7936556319999 L 961.5830506184243 1180.0550863919998" stroke-miterlimit="10" stroke-width="1.3612669416666667" stroke-dasharray=""/><g><g><rect fill="white" stroke="none" x="109.17360872166667" y="162.371920802" width="263.23259224" height="21.23576429"/></g><text fill="black" stroke="none" font-family="sans-serif" font-size="11pt" font-style="normal" font-weight="normal" text-decoration="normal" x="111.62388921666667" y="177.07360377199998" text-anchor="start" dominant-baseline="alphabetic" xml:space="preserve">Choose three-dot button in specific post</text></g><g><path fill="none" stroke="black" paint-order="fill stroke markers" d=" M 89.84361815 183.607685092 L 378.2868741496667 183.607685092" stroke-miterlimit="10" stroke-width="1.3612669416666667" stroke-dasharray=""/><g transform="translate(391.73619153333334,183.607685092) translate(-391.73619153333334,-183.607685092)"><path fill="black" stroke="none" paint-order="stroke fill markers" d=" M 378.12352211666666 176.80135038366666 L 391.73619153333334 183.607685092 L 378.12352211666666 190.41401980033334 Z"/></g></g><g><g><rect fill="white" stroke="none" x="126.29599946873698" y="208.110490042" width="228.98781074585938" height="21.23576429"/></g><text fill="black" stroke="none" font-family="sans-serif" font-size="11pt" font-style="normal" font-weight="normal" text-decoration="normal" x="128.74627996373698" y="222.812173012" text-anchor="start" dominant-baseline="alphabetic" xml:space="preserve">Show a list of actions with the post</text></g><g><path fill="none" stroke="black" paint-order="fill stroke markers" d=" M 391.73619153333334 229.346254332 L 103.29293553366666 229.346254332" stroke-miterlimit="10" stroke-width="1.3612669416666667" stroke-dasharray="6.53408132"/><g transform="translate(89.84361815,229.346254332) translate(-89.84361815,-229.346254332)"><path fill="black" stroke="none" paint-order="stroke fill markers" d=" M 103.45628756666666 222.53991962366666 L 89.84361815 229.346254332 L 103.45628756666666 236.15258904033334 Z"/></g></g><g><g><rect fill="white" stroke="none" x="180.895120562487" y="253.849059282" width="119.78956855835938" height="21.23576429"/></g><text fill="black" stroke="none" font-family="sans-serif" font-size="11pt" font-style="normal" font-weight="normal" text-decoration="normal" x="183.34540105748698" y="268.550742252" text-anchor="start" dominant-baseline="alphabetic" xml:space="preserve">Click Update post</text></g><g><path fill="none" stroke="black" paint-order="fill stroke markers" d=" M 89.84361815 275.084823572 L 378.2868741496667 275.084823572" stroke-miterlimit="10" stroke-width="1.3612669416666667" stroke-dasharray=""/><g transform="translate(391.73619153333334,275.084823572) translate(-391.73619153333334,-275.084823572)"><path fill="black" stroke="none" paint-order="stroke fill markers" d=" M 378.12352211666666 268.27848886366667 L 391.73619153333334 275.084823572 L 378.12352211666666 281.89115828033334 Z"/></g></g><g><g><rect fill="white" stroke="none" x="176.3926104916862" y="299.587628522" width="128.79458869996094" height="21.23576429"/></g><text fill="black" stroke="none" font-family="sans-serif" font-size="11pt" font-style="normal" font-weight="normal" text-decoration="normal" x="178.8428909866862" y="314.28931149199997" text-anchor="start" dominant-baseline="alphabetic" xml:space="preserve">Update post popup</text></g><g><path fill="none" stroke="black" paint-order="fill stroke markers" d=" M 391.73619153333334 320.823392812 L 103.29293553366666 320.823392812" stroke-miterlimit="10" stroke-width="1.3612669416666667" stroke-dasharray="6.53408132"/><g transform="translate(89.84361815,320.823392812) translate(-89.84361815,-320.823392812)"><path fill="black" stroke="none" paint-order="stroke fill markers" d=" M 103.45628756666666 314.01705810366667 L 89.84361815 320.823392812 L 103.45628756666666 327.62972752033335 Z"/></g></g><g><g><rect fill="white" stroke="none" x="126.69328493016276" y="345.326197762" width="228.19323982300781" height="21.23576429"/></g><text fill="black" stroke="none" font-family="sans-serif" font-size="11pt" font-style="normal" font-weight="normal" text-decoration="normal" x="129.14356542516276" y="360.02788073199997" text-anchor="start" dominant-baseline="alphabetic" xml:space="preserve">Type content and click Post button</text></g><g><path fill="none" stroke="black" paint-order="fill stroke markers" d=" M 89.84361815 366.561962052 L 378.2868741496667 366.561962052" stroke-miterlimit="10" stroke-width="1.3612669416666667" stroke-dasharray=""/><g transform="translate(391.73619153333334,366.561962052) translate(-391.73619153333334,-366.561962052)"><path fill="black" stroke="none" paint-order="stroke fill markers" d=" M 378.12352211666666 359.7556273436667 L 391.73619153333334 366.561962052 L 378.12352211666666 373.36829676033335 Z"/></g></g><g><g><rect fill="white" stroke="none" x="458.3712950729687" y="391.064767002" width="121.43597663941406" height="21.23576429"/></g><text fill="black" stroke="none" font-family="sans-serif" font-size="11pt" font-style="normal" font-weight="normal" text-decoration="normal" x="460.8215755679687" y="405.766449972" text-anchor="start" dominant-baseline="alphabetic" xml:space="preserve">PUT: /api/post/{id}</text></g><g><path fill="none" stroke="black" paint-order="fill stroke markers" d=" M 408.07139483333333 412.300531292 L 616.6578545683515 412.300531292" stroke-miterlimit="10" stroke-width="1.3612669416666667" stroke-dasharray=""/><g transform="translate(630.1071719520181,412.300531292) translate(-630.1071719520181,-412.300531292)"><path fill="black" stroke="none" paint-order="stroke fill markers" d=" M 616.4945025353514 405.4941965836667 L 630.1071719520181 412.300531292 L 616.4945025353514 419.10686600033335 Z"/></g></g><g><g><rect fill="white" stroke="none" x="673.9399674736849" y="436.80333624200006" width="129.10951484742188" height="21.23576429"/></g><text fill="black" stroke="none" font-family="sans-serif" font-size="11pt" font-style="normal" font-weight="normal" text-decoration="normal" x="676.3902479686849" y="451.50501921200004" text-anchor="start" dominant-baseline="alphabetic" xml:space="preserve">check post's owner</text></g><g><path fill="none" stroke="black" paint-order="fill stroke markers" d=" M 646.4423752520182 458.039100532 L 719.9507901020181 458.039100532 L 719.9507901020181 479.27486482200004 L 668.0592942856848 479.27486482200004" stroke-miterlimit="10" stroke-width="1.3612669416666667" stroke-dasharray=""/><g transform="translate(654.6099769020182,479.27486482200004) translate(-654.6099769020182,-479.27486482200004)"><path fill="black" stroke="none" paint-order="stroke fill markers" d=" M 668.2226463186848 472.4685301136667 L 654.6099769020182 479.27486482200004 L 668.2226463186848 486.0811995303334 Z"/></g></g><g><g><rect fill="white" stroke="none" x="673.9399674736849" y="503.777669772" width="92.89622749390625" height="21.23576429"/></g><text fill="black" stroke="none" font-family="sans-serif" font-size="11pt" font-style="normal" font-weight="normal" text-decoration="normal" x="676.3902479686849" y="518.4793527420001" text-anchor="start" dominant-baseline="alphabetic" xml:space="preserve">is Post owner</text></g><g><path fill="none" stroke="black" paint-order="fill stroke markers" d=" M 654.6099769020182 525.013434062 L 719.9507901020181 525.013434062 L 719.9507901020181 546.249198352 L 659.8916926356848 546.249198352" stroke-miterlimit="10" stroke-width="1.3612669416666667" stroke-dasharray="6.53408132"/><g transform="translate(646.4423752520181,546.249198352) translate(-646.4423752520181,-546.249198352)"><path fill="black" stroke="none" paint-order="stroke fill markers" d=" M 660.0550446686848 539.4428636436667 L 646.4423752520181 546.249198352 L 660.0550446686848 553.0555330603333 Z"/></g></g><g><g><rect fill="white" stroke="none" x="459.2052107834179" y="614.8570522119999" width="119.76814521851563" height="21.23576429"/></g><text fill="red" stroke="none" font-family="sans-serif" font-size="11pt" font-style="normal" font-weight="normal" text-decoration="normal" x="461.6554912784179" y="629.5587351819999" text-anchor="start" dominant-baseline="alphabetic" xml:space="preserve">403 FORBIDDEN</text></g><g><path fill="none" stroke="black" paint-order="fill stroke markers" d=" M 630.1071719520181 636.0928165019999 L 421.520712217 636.0928165019999" stroke-miterlimit="10" stroke-width="1.3612669416666667" stroke-dasharray="6.53408132"/><g transform="translate(408.07139483333333,636.0928165019999) translate(-408.07139483333333,-636.0928165019999)"><path fill="black" stroke="none" paint-order="stroke fill markers" d=" M 421.68406425 629.2864817936666 L 408.07139483333333 636.0928165019999 L 421.68406425 642.8991512103332 Z"/></g></g><g><g><rect fill="white" stroke="none" x="203.2966861142448" y="660.5956214519998" width="74.98643745484375" height="21.23576429"/></g><text fill="black" stroke="none" font-family="sans-serif" font-size="11pt" font-style="normal" font-weight="normal" text-decoration="normal" x="205.7469666092448" y="675.2973044219998" text-anchor="start" dominant-baseline="alphabetic" xml:space="preserve">Update fail</text></g><g><path fill="none" stroke="black" paint-order="fill stroke markers" d=" M 391.73619153333334 681.8313857419998 L 103.29293553366666 681.8313857419998" stroke-miterlimit="10" stroke-width="1.3612669416666667" stroke-dasharray="6.53408132"/><g transform="translate(89.84361815,681.8313857419998) translate(-89.84361815,-681.8313857419998)"><path fill="black" stroke="none" paint-order="stroke fill markers" d=" M 103.45628756666666 675.0250510336665 L 89.84361815 681.8313857419998 L 103.45628756666666 688.6377204503332 Z"/></g></g><g><g><rect fill="white" stroke="none" x="693.3898435370311" y="750.4392396019998" width="68.4294916540625" height="21.23576429"/></g><text fill="black" stroke="none" font-family="sans-serif" font-size="11pt" font-style="normal" font-weight="normal" text-decoration="normal" x="695.8401240320311" y="765.1409225719998" text-anchor="start" dominant-baseline="alphabetic" xml:space="preserve">isExist(id)</text></g><g><path fill="none" stroke="black" paint-order="fill stroke markers" d=" M 646.4423752520182 771.6750038919998 L 795.3174860924399 771.6750038919998" stroke-miterlimit="10" stroke-width="1.3612669416666667" stroke-dasharray=""/><g transform="translate(808.7668034761066,771.6750038919998) translate(-808.7668034761066,-771.6750038919998)"><path fill="black" stroke="none" paint-order="stroke fill markers" d=" M 795.1541340594399 764.8686691836665 L 808.7668034761066 771.6750038919998 L 795.1541340594399 778.4813386003332 Z"/></g></g><g><g><rect fill="white" stroke="none" x="859.1277828702342" y="796.1778088419998" width="68.4294916540625" height="21.23576429"/></g><text fill="black" stroke="none" font-family="sans-serif" font-size="11pt" font-style="normal" font-weight="normal" text-decoration="normal" x="861.5780633652342" y="810.8794918119997" text-anchor="start" dominant-baseline="alphabetic" xml:space="preserve">isExist(id)</text></g><g><path fill="none" stroke="black" paint-order="fill stroke markers" d=" M 825.1020067761067 817.4135731319998 L 948.1337332347576 817.4135731319998" stroke-miterlimit="10" stroke-width="1.3612669416666667" stroke-dasharray=""/><g transform="translate(961.5830506184243,817.4135731319998) translate(-961.5830506184243,-817.4135731319998)"><path fill="black" stroke="none" paint-order="stroke fill markers" d=" M 947.9703812017576 810.6072384236664 L 961.5830506184243 817.4135731319998 L 947.9703812017576 824.2199078403331 Z"/></g></g><g><g><rect fill="white" stroke="none" x="844.4319973477733" y="841.9163780819997" width="97.82106269898438" height="21.23576429"/></g><text fill="black" stroke="none" font-family="sans-serif" font-size="11pt" font-style="normal" font-weight="normal" text-decoration="normal" x="846.8822778427733" y="856.6180610519997" text-anchor="start" dominant-baseline="alphabetic" xml:space="preserve">Boolean value</text></g><g><path fill="none" stroke="black" paint-order="fill stroke markers" d=" M 961.5830506184243 863.1521423719997 L 838.5513241597733 863.1521423719997" stroke-miterlimit="10" stroke-width="1.3612669416666667" stroke-dasharray="6.53408132"/><g transform="translate(825.1020067761067,863.1521423719997) translate(-825.1020067761067,-863.1521423719997)"><path fill="black" stroke="none" paint-order="stroke fill markers" d=" M 838.7146761927734 856.3458076636664 L 825.1020067761067 863.1521423719997 L 838.7146761927734 869.9584770803331 Z"/></g></g><g><g><rect fill="white" stroke="none" x="678.6940580145701" y="887.6549473219997" width="97.82106269898438" height="21.23576429"/></g><text fill="black" stroke="none" font-family="sans-serif" font-size="11pt" font-style="normal" font-weight="normal" text-decoration="normal" x="681.1443385095702" y="902.3566302919996" text-anchor="start" dominant-baseline="alphabetic" xml:space="preserve">Boolean value</text></g><g><path fill="none" stroke="black" paint-order="fill stroke markers" d=" M 808.7668034761066 908.8907116119997 L 659.8916926356849 908.8907116119997" stroke-miterlimit="10" stroke-width="1.3612669416666667" stroke-dasharray="6.53408132"/><g transform="translate(646.4423752520182,908.8907116119997) translate(-646.4423752520182,-908.8907116119997)"><path fill="black" stroke="none" paint-order="stroke fill markers" d=" M 660.0550446686849 902.0843769036663 L 646.4423752520182 908.8907116119997 L 660.0550446686849 915.697046320333 Z"/></g></g><g><g><rect fill="white" stroke="none" x="458.8043395065624" y="977.4985654719997" width="120.56988777222656" height="21.23576429"/></g><text fill="red" stroke="none" font-family="sans-serif" font-size="11pt" font-style="normal" font-weight="normal" text-decoration="normal" x="461.25462000156244" y="992.2002484419996" text-anchor="start" dominant-baseline="alphabetic" xml:space="preserve">404 NOT FOUND</text></g><g><path fill="none" stroke="black" paint-order="fill stroke markers" d=" M 630.1071719520181 998.7343297619997 L 421.520712217 998.7343297619997" stroke-miterlimit="10" stroke-width="1.3612669416666667" stroke-dasharray="6.53408132"/><g transform="translate(408.07139483333333,998.7343297619997) translate(-408.07139483333333,-998.7343297619997)"><path fill="black" stroke="none" paint-order="stroke fill markers" d=" M 421.68406425 991.9279950536663 L 408.07139483333333 998.7343297619997 L 421.68406425 1005.540664470333 Z"/></g></g><g><g><rect fill="white" stroke="none" x="139.73908418553387" y="1023.2371347119996" width="202.10164131226563" height="21.23576429"/></g><text fill="black" stroke="none" font-family="sans-serif" font-size="11pt" font-style="normal" font-weight="normal" text-decoration="normal" x="142.18936468053386" y="1037.9388176819996" text-anchor="start" dominant-baseline="alphabetic" xml:space="preserve">Display 404 Not Found screen</text></g><g><path fill="none" stroke="black" paint-order="fill stroke markers" d=" M 391.73619153333334 1044.4728990019996 L 103.29293553366666 1044.4728990019996" stroke-miterlimit="10" stroke-width="1.3612669416666667" stroke-dasharray="6.53408132"/><g transform="translate(89.84361815,1044.4728990019996) translate(-89.84361815,-1044.4728990019996)"><path fill="black" stroke="none" paint-order="stroke fill markers" d=" M 103.45628756666666 1037.6665642936664 L 89.84361815 1044.4728990019996 L 103.45628756666666 1051.2792337103328 Z"/></g></g><g><g><rect fill="white" stroke="none" x="704.7892575995311" y="1113.0807528619998" width="45.6306635290625" height="21.23576429"/></g><text fill="black" stroke="none" font-family="sans-serif" font-size="11pt" font-style="normal" font-weight="normal" text-decoration="normal" x="707.2395380945311" y="1127.782435832" text-anchor="start" dominant-baseline="alphabetic" xml:space="preserve">save()</text></g><g><path fill="none" stroke="black" paint-order="fill stroke markers" d=" M 646.4423752520182 1134.3165171519997 L 795.3174860924399 1134.3165171519997" stroke-miterlimit="10" stroke-width="1.3612669416666667" stroke-dasharray=""/><g transform="translate(808.7668034761066,1134.3165171519997) translate(-808.7668034761066,-1134.3165171519997)"><path fill="black" stroke="none" paint-order="stroke fill markers" d=" M 795.1541340594399 1127.5101824436665 L 808.7668034761066 1134.3165171519997 L 795.1541340594399 1141.122851860333 Z"/></g></g><g><g><rect fill="white" stroke="none" x="870.5271969327342" y="1158.819322102" width="45.6306635290625" height="21.23576429"/></g><text fill="black" stroke="none" font-family="sans-serif" font-size="11pt" font-style="normal" font-weight="normal" text-decoration="normal" x="872.9774774277342" y="1173.521005072" text-anchor="start" dominant-baseline="alphabetic" xml:space="preserve">save()</text></g><g><path fill="none" stroke="black" paint-order="fill stroke markers" d=" M 825.1020067761067 1180.0550863919998 L 948.1337332347576 1180.0550863919998" stroke-miterlimit="10" stroke-width="1.3612669416666667" stroke-dasharray=""/><g transform="translate(961.5830506184243,1180.0550863919998) translate(-961.5830506184243,-1180.0550863919998)"><path fill="black" stroke="none" paint-order="stroke fill markers" d=" M 947.9703812017576 1173.2487516836666 L 961.5830506184243 1180.0550863919998 L 947.9703812017576 1186.861421100333 Z"/></g></g><g><g><rect fill="white" stroke="none" x="856.6653500089061" y="1204.557891342" width="73.35435737671875" height="21.23576429"/></g><text fill="black" stroke="none" font-family="sans-serif" font-size="11pt" font-style="normal" font-weight="normal" text-decoration="normal" x="859.1156305039061" y="1219.259574312" text-anchor="start" dominant-baseline="alphabetic" xml:space="preserve">Post value</text></g><g><path fill="none" stroke="black" paint-order="fill stroke markers" d=" M 961.5830506184243 1225.7936556319999 L 838.5513241597733 1225.7936556319999" stroke-miterlimit="10" stroke-width="1.3612669416666667" stroke-dasharray="6.53408132"/><g transform="translate(825.1020067761067,1225.7936556319999) translate(-825.1020067761067,-1225.7936556319999)"><path fill="black" stroke="none" paint-order="stroke fill markers" d=" M 838.7146761927734 1218.9873209236666 L 825.1020067761067 1225.7936556319999 L 838.7146761927734 1232.599990340333 Z"/></g></g><g><g><rect fill="white" stroke="none" x="690.927410675703" y="1250.296460582" width="73.35435737671875" height="21.23576429"/></g><text fill="black" stroke="none" font-family="sans-serif" font-size="11pt" font-style="normal" font-weight="normal" text-decoration="normal" x="693.377691170703" y="1264.998143552" text-anchor="start" dominant-baseline="alphabetic" xml:space="preserve">Post value</text></g><g><path fill="none" stroke="black" paint-order="fill stroke markers" d=" M 808.7668034761066 1271.532224872 L 659.8916926356849 1271.532224872" stroke-miterlimit="10" stroke-width="1.3612669416666667" stroke-dasharray="6.53408132"/><g transform="translate(646.4423752520182,1271.532224872) translate(-646.4423752520182,-1271.532224872)"><path fill="black" stroke="none" paint-order="stroke fill markers" d=" M 660.0550446686849 1264.7258901636667 L 646.4423752520182 1271.532224872 L 660.0550446686849 1278.3385595803331 Z"/></g></g><g><g><rect fill="white" stroke="none" x="427.4013854049999" y="1296.0350298219998" width="54.61422981324219" height="21.23576429"/></g><g><rect fill="white" stroke="none" x="427.4013854049999" y="1312.370233122" width="183.37579597535156" height="21.23576429"/></g><text fill="green" stroke="none" font-family="sans-serif" font-size="11pt" font-style="normal" font-weight="normal" text-decoration="normal" x="429.85166589999994" y="1310.736712792" text-anchor="start" dominant-baseline="alphabetic" xml:space="preserve">200 OK</text><text fill="green" stroke="none" font-family="sans-serif" font-size="11pt" font-style="normal" font-weight="normal" text-decoration="normal" x="429.85166589999994" y="1327.071916092" text-anchor="start" dominant-baseline="alphabetic" xml:space="preserve">Response body: Post value</text></g><g><path fill="none" stroke="black" paint-order="fill stroke markers" d=" M 630.1071719520181 1333.6059974119999 L 421.520712217 1333.6059974119999" stroke-miterlimit="10" stroke-width="1.3612669416666667" stroke-dasharray="6.53408132"/><g transform="translate(408.07139483333333,1333.6059974119999) translate(-408.07139483333333,-1333.6059974119999)"><path fill="black" stroke="none" paint-order="stroke fill markers" d=" M 421.68406425 1326.7996627036666 L 408.07139483333333 1333.6059974119999 L 421.68406425 1340.412332120333 Z"/></g></g><g><g><rect fill="white" stroke="none" x="169.88224214451824" y="1358.108802362" width="141.81532539429688" height="21.23576429"/></g><text fill="black" stroke="none" font-family="sans-serif" font-size="11pt" font-style="normal" font-weight="normal" text-decoration="normal" x="172.33252263951823" y="1372.810485332" text-anchor="start" dominant-baseline="alphabetic" xml:space="preserve">Display updated post</text></g><g><path fill="none" stroke="black" paint-order="fill stroke markers" d=" M 391.73619153333334 1379.344566652 L 103.29293553366666 1379.344566652" stroke-miterlimit="10" stroke-width="1.3612669416666667" stroke-dasharray="6.53408132"/><g transform="translate(89.84361815,1379.344566652) translate(-89.84361815,-1379.344566652)"><path fill="black" stroke="none" paint-order="stroke fill markers" d=" M 103.45628756666666 1372.5382319436667 L 89.84361815 1379.344566652 L 103.45628756666666 1386.1509013603331 Z"/></g></g><g><g/><path fill="none" stroke="black" paint-order="fill stroke markers" d=" M 16.335203300000003 570.7520033019999 L 1043.2590671184244 570.7520033019999 L 1043.2590671184244 1428.3501765519998 L 16.335203300000003 1428.3501765519998 L 16.335203300000003 570.7520033019999 Z" stroke-miterlimit="10" stroke-width="2.3336004714285714" stroke-dasharray=""/><path fill="white" stroke="black" paint-order="fill stroke markers" d=" M 16.335203300000003 570.7520033019999 L 16.335203300000003 590.354247262 L 62.694406897070316 590.354247262 L 72.49552887707031 580.5531252819999 L 72.49552887707031 570.7520033019999 L 16.335203300000003 570.7520033019999" stroke-miterlimit="10" stroke-width="2.3336004714285714" stroke-dasharray=""/><text fill="black" stroke="none" font-family="sans-serif" font-size="8.8pt" font-style="normal" font-weight="bold" text-decoration="normal" x="32.67040660000001" y="583.8201659419999" text-anchor="start" dominant-baseline="alphabetic" xml:space="preserve">alt</text><g><rect fill="white" stroke="none" x="86.38045168207032" y="572.0588195659999" width="247.97699226441406" height="16.988611432000003"/></g><text fill="black" stroke="none" font-family="sans-serif" font-size="8.8pt" font-style="normal" font-weight="bold" text-decoration="normal" x="88.83073217707032" y="583.8201659419999" text-anchor="start" dominant-baseline="alphabetic" xml:space="preserve">[If Current User does not owner of the post]</text><g><path fill="none" stroke="black" paint-order="fill stroke markers" d=" M 16.335203300000003 706.3341906919999 L 1043.2590671184244 706.3341906919999" stroke-miterlimit="10" stroke-width="2.3336004714285714" stroke-dasharray="4.083800825"/></g><g/></g><g/><g><g/><path fill="none" stroke="black" paint-order="fill stroke markers" d=" M 32.6704066 933.3935165619997 L 1026.9238638184243 933.3935165619997 L 1026.9238638184243 1403.8473716019998 L 32.6704066 1403.8473716019998 L 32.6704066 933.3935165619997 Z" stroke-miterlimit="10" stroke-width="2.3336004714285714" stroke-dasharray=""/><path fill="white" stroke="black" paint-order="fill stroke markers" d=" M 32.6704066 933.3935165619997 L 32.6704066 952.9957605219997 L 79.02961019707031 952.9957605219997 L 88.83073217707032 943.1946385419997 L 88.83073217707032 933.3935165619997 L 32.6704066 933.3935165619997" stroke-miterlimit="10" stroke-width="2.3336004714285714" stroke-dasharray=""/><text fill="black" stroke="none" font-family="sans-serif" font-size="8.8pt" font-style="normal" font-weight="bold" text-decoration="normal" x="49.005609899999996" y="946.4616792019997" text-anchor="start" dominant-baseline="alphabetic" xml:space="preserve">alt</text><g><rect fill="white" stroke="none" x="102.71565498207032" y="934.7003328259997" width="130.68287910523438" height="16.988611432000003"/></g><text fill="black" stroke="none" font-family="sans-serif" font-size="8.8pt" font-style="normal" font-weight="bold" text-decoration="normal" x="105.16593547707032" y="946.4616792019997" text-anchor="start" dominant-baseline="alphabetic" xml:space="preserve">[If Post does not exist]</text><g><path fill="none" stroke="black" paint-order="fill stroke markers" d=" M 32.6704066 1068.9757039519998 L 1026.9238638184243 1068.9757039519998" stroke-miterlimit="10" stroke-width="2.3336004714285714" stroke-dasharray="4.083800825"/></g><g/><g><rect fill="white" stroke="none" x="102.71565498207032" y="1070.2825202159997" width="36.84300483765625" height="16.988611432000003"/></g><text fill="black" stroke="none" font-family="sans-serif" font-size="8.8pt" font-style="normal" font-weight="bold" text-decoration="normal" x="105.16593547707032" y="1082.0438665919996" text-anchor="start" dominant-baseline="alphabetic" xml:space="preserve">[Else]</text></g><g/></g></g></svg>