<svg version="1.1" xmlns="http://www.w3.org/2000/svg" xmlns:xlink="http://www.w3.org/1999/xlink" width="1049" height="964"><desc>title%20Get%20all%20User%20in%20Group%0A%0A%0Aactor%20%23green%3A0.5%20%22Workspace%20Admin%22%20as%20w%0Aboundary%20%22Group's%20User%20page%22%20as%20f%0Acontrol%20%22Group%20Controller%22%20as%20gc%0Aparticipant%20%22Group%20Service%22%20as%20gs%0A%0Adatabase%20%23blue%3A1%20%22Database%22%20as%20db%0A%0Aw-%3Ef%3A%20Go%20to%20Group's%20User%20page%0Aactivate%20f%0A%0Af-%3Egc%3AGET%3A%20%2Fapi%2Fgroup%2F%7Bid%7D%2Fusers%0Aactivate%20gc%0Agc-%3Egs%3A%20isExist(id)%0Aactivate%20gs%0Ags-%3Edb%3AexistsById(id)%0Aactivate%20db%0Ags%3C--db%3A%20Boolean%20value%0Adeactivate%20db%0Agc%3C--gs%3ABoolean%20value%0Adeactivate%20gs%0A%0Aalt%20If%20group%20does%20not%20exist%0A%0Af%3C--gc%3A%3Ccolor%3A%23red%3E404%20NOT%20FOUND%3C%2Fcolor%3E%0A%0Aw%3C--f%3A%20Display%20404%20Not%20Found%20screen%0Aelse%20Else%0Agc-%3Egs%3AgetAllUsersInGroup(id)%0Aactivate%20gs%0Ags-%3Edb%3AgetAllUsersInGroup(id)%0Aactivate%20db%0Ags%3C--db%3AUser%20list%0Adeactivate%20db%0Agc%3C--gs%3AUser%20list%0Adeactivate%20gs%0A%0A%0Af%3C--gc%3A%3Ccolor%3A%23green%3E200%20OK%5CnResponse%20body%3A%20User%20list%3C%2Fcolor%3E%0Adeactivate%20gc%0A%0Aw%3C--f%3A%20Display%20the%20list%20of%20group%20Users%0Adeactivate%20f%0Aend</desc><defs/><g><g/><g/><g/><g/><g/><g/><g/><g/><g/><g/><g/><g/><g/><g/><g/><g/><g/><g/><g/><g/><g><rect fill="white" stroke="none" x="0" y="0" width="1049" height="964"/></g><g><text fill="black" stroke="none" font-family="sans-serif" font-size="16.5pt" font-style="normal" font-weight="normal" text-decoration="normal" x="421.209047257194" y="24.50280495" text-anchor="start" dominant-baseline="alphabetic" xml:space="preserve">Get all User in Group</text></g><g/><g><path fill="none" stroke="black" paint-order="fill stroke markers" d=" M 73.50841485 129.701514202 L 73.50841485 964.4304028319998" stroke-miterlimit="10" stroke-width="1.3612669416666667" stroke-dasharray="12.565541,5.445067766666667"/><path fill="none" stroke="black" paint-order="fill stroke markers" d=" M 322.4376389555989 129.701514202 L 322.4376389555989 964.4304028319998" stroke-miterlimit="10" stroke-width="1.3612669416666667" stroke-dasharray="12.565541,5.445067766666667"/><path fill="none" stroke="black" paint-order="fill stroke markers" d=" M 549.3913220110026 129.701514202 L 549.3913220110026 964.4304028319998" stroke-miterlimit="10" stroke-width="1.3612669416666667" stroke-dasharray="12.565541,5.445067766666667"/><path fill="none" stroke="black" paint-order="fill stroke markers" d=" M 758.3850593876953 129.701514202 L 758.3850593876953 964.4304028319998" stroke-miterlimit="10" stroke-width="1.3612669416666667" stroke-dasharray="12.565541,5.445067766666667"/><path fill="none" stroke="black" paint-order="fill stroke markers" d=" M 967.378796764388 129.701514202 L 967.378796764388 964.4304028319998" stroke-miterlimit="10" stroke-width="1.3612669416666667" stroke-dasharray="12.565541,5.445067766666667"/></g><g><g><path fill="white" stroke="green" paint-order="fill stroke markers" d=" M 82.819480731 60.60360424300001 A 9.311065881 9.311065881 0 1 1 82.81947607546743 60.594293178670846 M 73.50841485 69.91467012400001 L 73.50841485 89.84361815000001 M 61.747068473999995 77.102159576 L 85.26976122599999 77.102159576 M 73.50841485 89.84361815000001 L 61.747068473999995 108.465749912 M 73.50841485 89.84361815000001 L 85.26976122599999 108.465749912" stroke-miterlimit="10" stroke-width="1.3884922805000002" stroke-dasharray=""/></g><g><text fill="black" stroke="none" font-family="sans-serif" font-size="11pt" font-style="normal" font-weight="normal" text-decoration="normal" x="14.166991815332025" y="124.80095321200001" text-anchor="start" dominant-baseline="alphabetic" xml:space="preserve">Workspace Admin</text></g><g><path fill="white" stroke="black" paint-order="fill stroke markers" d=" M 354.8630175060989 82.819480731 A 24.2577769005 24.2577769005 0 1 1 354.8630053772115 82.79522295814245 M 291.4007526855989 57.17321154999999 L 291.4007526855989 108.465749912 M 290.0122604050989 82.819480731 L 306.3474637050989 82.819480731" stroke-miterlimit="10" stroke-width="2.7769845610000004" stroke-dasharray=""/></g><g><text fill="black" stroke="none" font-family="sans-serif" font-size="11pt" font-style="normal" font-weight="normal" text-decoration="normal" x="261.14560862112626" y="124.80095321200001" text-anchor="start" dominant-baseline="alphabetic" xml:space="preserve">Group's User page</text></g><g><path fill="white" stroke="black" paint-order="fill stroke markers" d=" M 573.6490989115025 82.819480731 A 24.2577769005 24.2577769005 0 1 1 573.6490867826151 82.79522295814245 M 546.1242813510025 58.561703830499994 L 555.9254033310025 50.39410218049999 M 546.1242813510025 58.561703830499994 L 555.9254033310025 66.72930548049999" stroke-miterlimit="10" stroke-width="2.7769845610000004" stroke-dasharray=""/></g><g><text fill="black" stroke="none" font-family="sans-serif" font-size="11pt" font-style="normal" font-weight="normal" text-decoration="normal" x="495.2073773088541" y="124.80095321200001" text-anchor="start" dominant-baseline="alphabetic" xml:space="preserve">Group Controller</text></g><path fill="none" stroke="none"/><g><path fill="white" stroke="black" paint-order="fill stroke markers" d=" M 693.8109914927421 85.75981732500001 L 822.9591272826484 85.75981732500001 L 822.9591272826484 129.701514202 L 693.8109914927421 129.701514202 L 693.8109914927421 85.75981732500001 Z" stroke-miterlimit="10" stroke-width="2.613632528" stroke-dasharray=""/></g><g><text fill="black" stroke="none" font-family="sans-serif" font-size="11pt" font-style="normal" font-weight="normal" text-decoration="normal" x="711.5346870732421" y="113.36631090200002" text-anchor="start" dominant-baseline="alphabetic" xml:space="preserve">Group Service</text></g><g><path fill="white" stroke="blue" paint-order="fill stroke markers" d=" M 943.529399946388 97.684515734 L 943.529399946388 63.380588804000006 L 991.2281935823879 63.380588804000006 L 991.2281935823879 97.684515734" stroke-miterlimit="10" stroke-width="2.7769845610000004" stroke-dasharray=""/><path fill="white" stroke="blue" paint-order="fill stroke markers" d=" M 991.2281935823879 62.1881189631 L 991.2270011224842 62.29592950801663 L 991.2234238620182 62.403729271968594 L 991.2174621587129 62.51150747506936 L 991.2091166087336 62.619253339588404 L 991.1983880466283 62.72695609102909 L 991.1852775452445 62.834604959206004 L 991.1697864156213 62.94218917932205 L 991.1519162068587 63.04969799304486 L 991.1316687059626 63.15712064958265 L 991.1090459376665 63.2644464067593 L 991.0840501642281 63.371664532088516 L 991.056683885204 63.47876430384712 L 991.0269498371995 63.58573501214718 L 990.9948509935944 63.692565960007016 L 990.9603905642463 63.79924646442086 L 990.9235719951695 63.90576585742718 L 990.8843989681901 64.01211348717543 L 990.8428754005784 64.11827871899126 L 990.7990054446564 64.22425093643996 L 990.752793487383 64.3300195423881 L 990.7042441499157 64.43557396006322 L 990.6533622871476 64.54090363411153 L 990.6001529872227 64.64599803165338 L 990.5446215710265 64.75084664333659 L 990.4867735916545 64.85543898438739 L 990.4266148338563 64.95976459565881 L 990.3641513134577 65.06381304467668 L 990.2993892767585 65.16757392668278 L 990.2323351999084 65.27103686567541 L 990.1629957882595 65.37419151544687 L 990.0913779756949 65.47702756061814 L 990.0174889239362 65.5795347176704 L 989.9413360218272 65.68170273597339 L 989.8629268845943 65.7835213988104 L 989.7822693530862 65.88498052439998 L 989.6993714929888 65.98606996691414 L 989.614241594019 66.08677961749288 L 989.5268881690955 66.18709940525505 L 989.4373199534883 66.28701929830548 L 989.3455459039443 66.38652930473813 L 989.2515751977919 66.48561947363528 L 989.1554172320233 66.58427989606261 L 989.0570816223552 66.6825007060601 L 988.9565782022664 66.7802720816286 L 988.8539170220153 66.87758424571203 L 988.7491083476342 66.97442746717506 L 988.6421626599033 67.07079206177627 L 988.5330906533023 67.1666683931365 L 988.421903234941 67.2620468737025 L 988.3086115234685 67.35691796570569 L 988.1932268479616 67.45127218211596 L 988.0757607467915 67.54510008759026 L 987.9562249664706 67.63839229941624 L 987.8346314604773 67.73113948845047 L 987.710992388061 67.82333238005134 L 987.5853201130255 67.9149617550065 L 987.4576272024941 68.00601845045483 L 987.3279264256511 68.09649336080267 L 987.1962307524661 68.18637743863435 L 987.0625533523969 68.27566169561702 L 986.926907593072 68.36433720339936 L 986.7893070389541 68.45239509450451 L 986.6497654499842 68.53982656321674 L 986.5082967802049 68.62662286646201 L 986.3649151763651 68.71277532468237 L 986.219634976506 68.79827532270376 L 986.0724707085261 68.88311431059763 L 985.92343708873 68.9672838045359 L 985.7725490203551 69.0507753876393 L 985.6198215920828 69.13358071081912 L 985.4652700765284 69.21569149361203 L 985.308909928715 69.29709952500816 L 985.1507567845267 69.37779666427225 L 984.9908264591464 69.45777484175761 L 984.8291349454732 69.53702605971311 L 984.665698412524 69.61554239308303 L 984.5005332038154 69.69331599029945 L 984.3336558357311 69.77033907406746 L 984.1650829958686 69.84660394214286 L 983.9948315413715 69.92210296810242 L 983.8229184972433 69.99682860210643 L 983.6493610546453 70.07077337165379 L 983.474176569177 70.14392988232913 L 983.2973825591409 70.21629081854239 L 983.1189967037909 70.28784894426022 L 982.9390368415636 70.35859710372968 L 982.7575209682956 70.42852822219379 L 982.5744672354226 70.49763530659898 L 982.3898939481656 70.5659114462944 L 982.2038195636994 70.63334981372294 L 982.0162626893075 70.69994366510412 L 981.8272420805208 70.76568634110825 L 981.636776639243 70.83057126752253 L 981.4448854118591 70.89459195590838 L 981.2515875873323 70.95774200425032 L 981.0569024952838 71.02001509759614 L 980.8608496040606 71.08140500868842 L 980.6634485187884 71.14190559858717 L 980.4647189794114 71.20151081728383 L 980.2646808587176 71.26021470430622 L 980.0633541603527 71.31801138931453 L 979.8607590168186 71.37489509268845 L 979.6569156874608 71.43086012610503 L 979.4518445564426 71.48590089310757 L 979.2455661307058 71.54001188966522 L 979.0381010379215 71.59318770472345 L 978.8294700244257 71.64542302074504 L 978.6196939531463 71.69671261424193 L 978.4087938015153 71.7470513562975 L 978.1967906593723 71.79643421307951 L 977.9837057268546 71.84485624634341 L 977.7695603122783 71.89231261392625 L 977.5543758300059 71.93879857023082 L 977.3381737983067 71.9843094667002 L 977.1209758372036 72.02884075228269 L 976.9028036663116 72.07238797388683 L 976.683679102666 72.11494677682676 L 976.4636240585406 72.15651290525764 L 976.2426605392566 72.19708220260128 L 976.0208106409816 72.23665061196175 L 975.7980965485206 72.27521417653107 L 975.5745405330971 72.31276903998494 L 975.3501649501267 72.3493114468683 L 975.1249922369803 72.38483774297092 L 974.899044910742 72.41934437569277 L 974.6723455659558 72.45282789439938 L 974.4449168723673 72.48528495076673 L 974.2167815726565 72.51671229911628 L 973.9879624801632 72.54710679673934 L 973.7584824766059 72.5764654042115 L 973.5283645097938 72.60478518569649 L 973.2976315913318 72.63206330923974 L 973.0663067943194 72.65829704705163 L 972.8344132510435 72.68348377578025 L 972.6019741506655 72.70762097677371 L 972.3690127369014 72.73070623633201 L 972.1355523056984 72.75273724594847 L 971.9016162029054 72.77371180254045 L 971.6672278219374 72.79362780866978 L 971.4324106014375 72.81248327275246 L 971.1971880229319 72.83027630925778 L 970.9615836084822 72.84700513889692 L 970.7256209183339 72.86266808880085 L 970.4893235485592 72.87726359268764 L 970.2527151286982 72.89079019101906 L 970.0158193193956 72.90324653114655 L 969.7786598100352 72.91463136744649 L 969.54126031637 72.9249435614447 L 969.3036445781515 72.93418208193043 L 969.0658363567559 72.94234600505929 L 968.8278594328068 72.94943451444577 L 968.5897376037984 72.95544690124485 L 968.3514946817153 72.96038256422287 L 968.1131544906509 72.96424100981763 L 967.8747408644259 72.9670218521878 L 967.6362776442041 72.96872481325143 L 967.397788676109 72.96934972271386 L 967.1592978088385 72.96889651808466 L 966.9208288912806 72.96736524468392 L 966.6824057701284 72.96475605563768 L 966.4440522874954 72.96106921186271 L 966.205792278531 72.95630508204027 L 965.9676495690378 72.9504641425794 L 965.7296479730882 72.94354697756918 L 965.4918112906433 72.93555427872033 L 965.2541633051734 72.9264868452961 L 965.0167277812789 72.91634558403224 L 964.7795284623141 72.90513150904647 L 964.5425890680137 72.89284574173689 L 964.3059332921194 72.87948951067006 L 964.0695848000116 72.86506415145789 L 963.8335672263426 72.84957110662431 L 963.597904172673 72.8330119254609 L 963.3626192051119 72.81538826387197 L 963.1277358519599 72.79670188420899 L 962.8932776013565 72.77695465509434 L 962.6592678989317 72.7561485512345 L 962.4257301454603 72.73428565322251 L 962.1926876945234 72.71136814732996 L 961.9601638501717 72.68739832528833 L 961.7281818645959 72.66237858405984 L 961.4967649358013 72.63631142559778 L 961.2659362052877 72.60919945659627 L 961.0357187557362 72.58104538822961 L 960.8061356086996 72.55185203588118 L 960.5772097223013 72.5216223188619 L 960.3489639889393 72.49035926011825 L 960.1214212329967 72.45806598593009 L 959.8946042085594 72.4247457255979 L 959.6685355971409 72.39040181111994 L 959.443238005414 72.35503767685907 L 959.2187339629498 72.31865685919922 L 958.995045919966 72.28126299619186 L 958.7721962450801 72.24285982719209 L 958.5502072230739 72.20345119248485 L 958.3291010526649 72.16304103290075 L 958.1088998442855 72.12163338942209 L 957.8896256178733 72.07923240277869 L 957.6713003006681 72.03584231303388 L 957.4539457250197 71.99146745916049 L 957.2375836262047 71.94611227860693 L 957.0222356402523 71.89978130685344 L 956.8079233017821 71.85247917695861 L 956.594668041849 71.80421061909601 L 956.3824911858015 71.75498046008119 L 956.1714139511482 71.70479362288901 L 955.9614574454368 71.65365512616141 L 955.752642664143 71.60157008370541 L 955.5449904885706 71.54854370398188 L 955.3385216837645 71.49458128958457 L 955.1332568964328 71.43968823671 L 954.9292166528834 71.38387003461766 L 954.7264213569704 71.32713226508127 L 954.5248912880546 71.26948060183051 L 954.3246465989749 71.21092080998365 L 954.1257073140333 71.15145874547107 L 953.9280933269926 71.0911003544497 L 953.7318243990867 71.0298516727083 L 953.5369201570448 70.96771882506403 L 953.343400091129 70.90470802474988 L 953.1512835531842 70.84082557279336 L 952.9605897547044 70.77607785738643 L 952.7713377649104 70.71047135324669 L 952.5835465088435 70.64401262096986 L 952.3972347654728 70.5767083063738 L 952.2124211658174 70.50856513983389 L 952.0291241910834 70.43958993560999 L 951.8473621708151 70.36978959116503 L 951.6671532810636 70.29917108647531 L 951.4885155425674 70.22774148333244 L 951.3114668189514 70.1555079246372 L 951.1360248149406 70.08247763368529 L 950.9622070745892 70.00865791344492 L 950.7900309795263 69.9340561458266 L 950.6195137472179 69.85867979094495 L 950.4506724292453 69.78253638637263 L 950.2835239095994 69.70563354638664 L 950.118084902993 69.62797896120689 L 949.9543719531888 69.54958039622719 L 949.7924014313455 69.47044569123871 L 949.6321895343802 69.39058275964601 L 949.4737522833491 69.30999958767568 L 949.3171055218453 69.22870423357777 L 949.1622649144144 69.14670482681996 L 949.0092459449882 69.06400956727457 L 948.8580639153358 68.98062672439866 L 948.7087339435345 68.89656463640702 L 948.561270962457 68.8118317094384 L 948.4156897182785 68.72643641671489 L 948.272004769002 68.6403872976946 L 948.1302304830028 68.55369295721772 L 947.9903810375914 68.46636206464606 L 947.8524704175957 68.37840335299609 L 947.7165124139626 68.28982561806569 L 947.5825206223795 68.20063771755453 L 947.4505084419138 68.11084857017835 L 947.3204890736735 68.02046715477704 L 947.192475519487 67.92950250941684 L 947.0664805806031 67.83796373048648 L 946.9425168564107 67.74585997178757 L 946.8205967431791 67.65320044361923 L 946.7007324328176 67.55999441185705 L 946.5829359116577 67.46625119702654 L 946.4672189592533 67.37198017337107 L 946.353593147203 67.27719076791445 L 946.2420698379937 67.18189245951821 L 946.132660183863 67.08609477793381 L 946.0253751256853 66.98980730284956 L 945.920225391877 66.89303966293272 L 945.817221497324 66.79580153486665 L 945.7163737423297 66.69810264238313 L 945.6176922115856 66.59995275528999 L 945.5211867731626 66.50136168849414 L 945.4268670775242 66.40233930102012 L 945.3347425565612 66.30289549502413 L 945.244822422649 66.20304021480393 L 945.1571156677261 66.1027834458043 L 945.0716310623948 66.00213521361863 L 944.9883771550445 65.90110558298623 L 944.9073622709965 65.799704656786 L 944.8285945116717 65.69794257502603 L 944.7520817537804 65.59582951382973 L 944.6778316485346 65.4933756844181 L 944.6058516208831 65.3905913320887 L 944.5361488687684 65.28748673519112 L 944.4687303624079 65.18407220409914 L 944.4036028435959 65.08035808017966 L 944.34077282503 64.97635473475869 L 944.2802465896598 64.87207256808405 L 944.2220301900583 64.76752200828555 L 944.1661294478171 64.66271351033203 L 944.1125499529636 64.55765755498592 L 944.0612970634028 64.45236464775525 L 944.012375904381 64.34684531784296 L 943.9657913679731 64.24111011709415 L 943.9215481125942 64.13516961894075 L 943.8796505625328 64.0290344173443 L 943.840102907509 63.92271512573653 L 943.8029091022554 63.81622237595798 L 943.7680728661215 63.70956681719489 L 943.7355976827018 63.602759114914264 L 943.7054867994879 63.49580994979732 L 943.6777432275426 63.38873001667144 L 943.6523697412002 63.28153002344071 L 943.6293688777882 63.17422069001512 L 943.6087429373738 63.066812747238586 L 943.5904939825336 62.959316935815885 L 943.5746238381482 62.85174400523857 L 943.5611340912187 62.74410471271006 L 943.5500260907085 62.636409822069915 L 943.5413009474084 62.52867010271744 L 943.5349595338255 62.4208963285348 L 943.5310024840959 62.313099276809595 L 943.5294301939211 62.20528972715717 L 943.5302428205291 62.09747846044265 L 943.5334402826577 61.98967625770286 L 943.5390222605633 61.88189389906824 L 943.546988196053 61.77414216268484 L 943.5573372925397 61.66643182363649 L 943.5700685151226 61.558773652867366 L 943.5851805906897 61.4511784161048 L 943.6026720080463 61.34365687278283 L 943.622541018065 61.236219774966166 L 943.6447856338617 61.12887786627507 L 943.6694036309932 61.02164188081096 L 943.6963925476801 60.91452254208302 L 943.7257496850535 60.807530561935856 L 943.7574721074241 60.70067663947832 L 943.791556642576 60.593971460013606 L 943.827999882084 60.487425693970756 L 943.8667981816548 60.381049995837586 L 943.9079476614904 60.27485500309525 L 943.9514442066775 60.16885133515453 L 943.9972834675975 60.06304959229389 L 944.0454608603627 59.95746035459945 L 944.095971567274 59.852094180906974 L 944.1488105373026 59.746961607746044 L 944.2039724865957 59.64207314828636 L 944.2614518990043 59.537439291286454 L 944.3212430266351 59.43307050004484 L 944.383339890425 59.32897721135367 L 944.4477362807395 59.22516983445505 L 944.5144257579933 59.12165875000019 L 944.5834016532941 59.01845430901127 L 944.6546570691099 58.91556683184637 L 944.7281848799586 58.81300660716748 L 944.8039777331202 58.7107838909116 L 944.8820280493726 58.60890890526517 L 944.9623280237494 58.507391837641855 L 945.0448696263197 58.406242839663825 L 945.1296446029925 58.30547202614659 L 945.2166444763404 58.205089474087515 L 945.3058605464488 58.105105221658164 L 945.3972838917849 58.00552926720046 L 945.4909053700904 57.90637156822687 L 945.5867156192954 57.807642040424646 L 945.684705058455 57.709350556664305 L 945.7848638887069 57.61150694601232 L 945.8871820942514 57.514120992748204 L 945.9916494433533 57.417202435386145 L 946.0982554893648 57.320760965701105 L 946.20698957177 57.224806227759686 L 946.3178408172513 57.12934781695572 L 946.4307981407767 57.03439527905074 L 946.5458502467078 56.93995810921942 L 946.66298562993 56.84604575110002 L 946.7821925770023 56.75266759585011 L 946.9034591673297 56.65983298120741 L 947.0267732743541 56.567551190555996 L 947.1521225667676 56.47583145199805 L 947.2794945097453 56.384682937430995 L 947.4088763661991 56.29411476163032 L 947.5402551980512 56.20413598133814 L 947.6736178675278 56.1147555943575 L 947.8089510384732 56.02598253865261 L 947.9462411776831 55.937825691455075 L 948.0854745562579 55.85029386837614 L 948.2266372509757 55.763395822525176 L 948.3697151456848 55.677140243634355 L 948.514693932715 55.591535757189675 L 948.6615591143083 55.50659092356846 L 948.810296004069 55.42231423718327 L 948.9608897284319 55.33871412563253 L 949.1133252281503 55.25579894885771 L 949.2675872598011 55.1735769983074 L 949.4236603973097 55.092056496108135 L 949.5815290334925 55.01124559424221 L 949.7411773816175 54.93115237373246 L 949.9025894769826 54.851784843834196 L 950.0657491785131 54.77315094123426 L 950.2306401703746 54.6952585292574 L 950.3972459636055 54.61811539707989 L 950.5655498977653 54.54172925895067 L 950.7355351426006 54.46610775341989 L 950.9071846997289 54.391258442575094 L 951.0804814043373 54.317188811284986 L 951.2554079268998 54.24390626645098 L 951.43194677491 54.171418136266475 L 951.61008029463 54.09973166948409 L 951.7897906728566 54.028854034690774 L 951.9710599387015 53.95879231959093 L 952.1538699653892 53.88955353029769 L 952.3382024720694 53.82114459063227 L 952.5240390256452 53.753572341431656 L 952.7113610426157 53.68684353986444 L 952.9001497909356 53.62096485875517 L 953.0903863918875 53.55594288591707 L 953.2820518219696 53.49178412349323 L 953.4751269147987 53.42849498730643 L 953.6695923630264 53.366081806217544 L 953.86542872027 53.304550821492676 L 954.0626164030567 53.24390818617902 L 954.261135692783 53.18415996448957 L 954.460966737685 53.12531213119671 L 954.6620895548248 53.067370571034715 L 954.8644840320884 53.01034107811134 L 955.0681299301967 52.95422935532834 L 955.2730068847295 52.89904101381123 L 955.4790944081622 52.84478157234818 L 955.6863718919141 52.79145645683812 L 955.8948186084095 52.73907099974815 L 956.1044137131507 52.687630439580346 L 956.3151362468017 52.637139920347835 L 956.5269651372847 52.58760449106049 L 956.7398792018873 52.53902910521993 L 956.9538571493805 52.49141862032429 L 957.1688775821477 52.444777797382365 L 957.3849189983249 52.399111300437596 L 957.6019597939504 52.354423696101605 L 957.8199782651258 52.3107194530976 L 958.0389526101853 52.26800294181345 L 958.258860931877 52.2262784338647 L 958.4796812395523 52.18555010166736 L 958.701391451364 52.14582201802072 L 958.9239693964759 52.10709815570004 L 959.1473928172788 52.06938238705927 L 959.371639371617 52.032678483643856 L 959.5966866350219 51.996990115813546 L 959.8225121029546 51.96232085237539 L 960.0490931930567 51.928674160226834 L 960.2764072474079 51.89605340400906 L 960.5044315347919 51.8644618457705 L 960.7331432529704 51.833902644640645 L 960.962519530962 51.80437885651416 L 961.1925374313302 51.775893433745246 L 961.4231739524763 51.74844922485244 L 961.6544060309407 51.722048974233765 L 961.886210543708 51.69669532189228 L 962.1185643105204 51.672390803172085 L 962.3514440961945 51.649137848504814 L 962.5848266129461 51.626938783166544 L 962.8186885227179 51.60579582704531 L 963.0530064395138 51.58571109441911 L 963.2877569317372 51.56668659374447 L 963.5229165245348 51.54872422745561 L 963.7584617021432 51.53182579177417 L 963.9943689102408 51.515992976529645 L 964.2306145583036 51.50122736499037 L 964.4671750219634 51.4875304337052 L 964.7040266453712 51.47490355235584 L 964.9411457435618 51.4633479836199 L 965.1785086048233 51.45286488304463 L 965.416091493067 51.443455298931354 L 965.6538706502023 51.43512017223063 L 965.8918222985117 51.4278603364482 L 966.1299226430284 51.42167651756158 L 966.3681478739165 51.41656933394751 L 966.6064741688516 51.41253929632009 L 966.8448776954026 51.40958680767973 L 967.0833346134154 51.407712163272826 L 967.3218210773973 51.40691555056227 L 967.5603132389003 51.40719704920866 L 967.7987872489072 51.40855663106237 L 968.0372192602156 51.41099416016634 L 968.2755854298231 51.414509392769695 L 968.5138619213113 51.419101977352106 L 968.7520249072298 51.42477145465894 L 968.9900505714784 51.431517257747196 L 969.2279151116888 51.43933871204218 L 969.4655947416055 51.44823503540498 L 969.7030656934636 51.45820533821068 L 969.9403042203655 51.4692486234373 L 970.1772865986565 51.48136378676553 L 970.413989130296 51.49454961668913 L 970.6503881452284 51.50880479463608 L 970.886460003749 51.524127895100484 L 971.1221810988686 51.54051738578506 L 971.3575278586743 51.5579716277544 L 971.5924767486862 51.57648887559884 L 971.8270042742109 51.59606727760904 L 972.0610869826917 51.6167048759611 L 972.2947014660524 51.6383996069124 L 972.5278243630395 51.66114930100791 L 972.7604323615576 51.684951683297186 L 972.9925022010007 51.70980437356183 L 973.2240106745782 51.735704886553535 L 973.4549346316356 51.76265063224257 L 973.6852509799699 51.79063891607683 L 973.9149366881378 51.81966693925126 L 974.1439687877602 51.849731798987726 L 974.3723243758178 51.88083048882531 L 974.5999806169423 51.91295989892094 L 974.826914745699 51.94611681636038 L 975.0531040688644 51.980297925479526 L 975.2785259676947 52.01549980819594 L 975.5031579001876 52.0517189443507 L 975.7269774033373 52.08895171206036 L 975.9499620953799 52.127194388079175 L 976.1720896780319 52.16644314817141 L 976.3933379387204 52.20669406749378 L 976.6136847528035 52.247943120987884 L 976.8331080857834 52.29018618378274 L 977.0515859955098 52.33341903160728 L 977.2690966343737 52.37763734121275 L 977.4856182514925 52.422836690805035 L 977.7011291948849 52.46901256048684 L 977.9156079136361 52.516160332709674 L 978.1290329600531 52.564275292735616 L 978.341382991809 52.613352629108746 L 978.5526367740778 52.663387434136325 L 978.7627731816569 52.71437470437956 L 978.971771201081 52.7663093411539 L 979.1796099327222 52.819186151038956 L 979.3862685928805 52.8729998463978 L 979.5917265158622 52.92774504590574 L 979.7959631560461 52.983416275088445 L 979.9989580899385 53.040007966869396 L 980.200691018215 53.09751446212657 L 980.4011417677511 53.15593001025836 L 980.6002902936387 53.21524876975863 L 980.7981166811913 53.27546480880087 L 980.994601147935 53.33657210583136 L 981.1897240455868 53.3985645501713 L 981.3834658620195 53.461435942627936 L 981.5758072232129 53.52517999611441 L 981.7667288951914 53.58979033627848 L 981.9562117859465 53.655260502139996 L 982.1442369473474 53.721583946736914 L 982.3307855770345 53.78875403778004 L 982.5158390203002 53.85676405831625 L 982.6993787719545 53.92560720740017 L 982.8813864781752 53.995276600774254 L 983.0618439383433 54.065765271557225 L 983.2407331068631 54.13706617094075 L 983.4180360949669 54.2091721688943 L 983.5937351725037 54.28207605487816 L 983.767812769712 54.35577053856451 L 983.9402514789773 54.43024825056637 L 984.1110340565723 54.50550174317461 L 984.2801434243815 54.581523491102686 L 984.4475626716091 54.658305892239156 L 984.61327505647 54.73584126840789 L 984.7772640078637 54.81412186613588 L 984.9395131270317 54.89313985742859 L 985.1000061891973 54.97288734055273 L 985.2587271451881 55.05335634082646 L 985.4156601230407 55.1345388114168 L 985.570789429588 55.21642663414435 L 985.7240995520289 55.29901162029506 L 985.8755751594786 55.38228551143916 L 986.0252011045027 55.46623998025691 L 986.1729624246315 55.55086663137139 L 986.318844343856 55.63615700218803 L 986.4628322741058 55.722102563740805 L 986.6049118167081 55.80869472154519 L 986.7450687638268 55.89592481645755 L 986.883289099884 55.98378412554111 L 987.0195590029614 56.07226386293816 L 987.1538648461822 56.1613551807487 L 987.286193199074 56.251049169915184 L 987.4165308289116 56.34133686111345 L 987.544864702041 56.4322092256496 L 987.6711819851816 56.52365717636293 L 987.7954700467103 56.615671568534566 L 987.9177164579247 56.70824320080196 L 988.0379089942854 56.80136281607904 L 988.1560356366391 56.89502110248188 L 988.2720845724198 56.98920869425987 L 988.3860441968307 57.083916172732344 L 988.4979031140043 57.17913406723036 L 988.6076501381422 57.27485285604382 L 988.7152742946333 57.37106296737362 L 988.8207648211518 57.467754780288786 L 988.9241111687328 57.56491862568861 L 989.0253030028277 57.662544787269525 L 989.1243302043376 57.76062350249672 L 989.2211828706246 57.859144963580405 L 989.315851316503 57.95809931845658 L 989.4083260752069 58.05747667177222 L 989.4985978993377 58.15726708587479 L 989.586657761788 58.257460581806065 L 989.6724968566451 58.358047140299924 L 989.7561066000711 58.459016702784346 L 989.837478631161 58.56035917238722 L 989.91660481278 58.66206441494605 L 989.9934772323754 58.764122260021324 L 990.0680882027696 58.866522501913586 L 990.1404302629276 58.96925490068398 L 990.2104961787038 59.072309183178234 L 990.2782789435648 59.17567504405398 L 990.3437717792908 59.279342146811274 L 990.4069681366527 59.38330012482622 L 990.4678616960674 59.48753858238766 L 990.5264463682298 59.59204709573668 L 990.5827162947214 59.69681521410906 L 990.6366658485966 59.80183246078026 L 990.6882896349449 59.907088334113126 L 990.7375824914305 60.012572308608036 L 990.7845394888092 60.11827383595545 L 990.82915593142 60.22418234609071 L 990.8714273576561 60.33028724825106 L 990.9113495404099 60.43657793203471 L 990.9489184874966 60.54304376846186 L 990.9841304420526 60.64967411103757 L 991.016981882912 60.75645829681646 L 991.0474695249578 60.86338564746893 L 991.0755903194515 60.97044547034902 L 991.1013414543369 61.07762705956367 L 991.1247203545221 61.184919697043256 L 991.1457246821363 61.29231265361346 L 991.1643523367646 61.399795190068104 L 991.1806014556569 61.50735655824312 L 991.1944704139148 61.614986002091314 L 991.2059578246541 61.72267275875801 L 991.2150625391432 61.830406059657264 L 991.2217836469184 61.93817513154877 L 991.2261204758744 62.04596919761514 L 991.228072592332 62.15377747853961 M 991.2281935823879 96.4920458931 L 991.2270011224842 96.59985643801662 L 991.2234238620182 96.70765620196859 L 991.2174621587129 96.81543440506935 L 991.2091166087336 96.9231802695884 L 991.1983880466283 97.03088302102908 L 991.1852775452445 97.138531889206 L 991.1697864156213 97.24611610932205 L 991.1519162068587 97.35362492304485 L 991.1316687059626 97.46104757958265 L 991.1090459376665 97.5683733367593 L 991.0840501642281 97.67559146208852 L 991.056683885204 97.78269123384712 L 991.0269498371995 97.88966194214719 L 990.9948509935944 97.99649289000702 L 990.9603905642463 98.10317339442086 L 990.9235719951695 98.20969278742717 L 990.8843989681901 98.31604041717543 L 990.8428754005784 98.42220564899125 L 990.7990054446564 98.52817786643996 L 990.752793487383 98.6339464723881 L 990.7042441499157 98.73950089006323 L 990.6533622871476 98.84483056411152 L 990.6001529872227 98.94992496165337 L 990.5446215710265 99.05477357333659 L 990.4867735916545 99.15936591438738 L 990.4266148338563 99.2636915256588 L 990.3641513134577 99.36773997467667 L 990.2993892767585 99.47150085668278 L 990.2323351999084 99.5749637956754 L 990.1629957882595 99.67811844544686 L 990.0913779756949 99.78095449061813 L 990.0174889239362 99.8834616476704 L 989.9413360218272 99.98562966597338 L 989.8629268845943 100.08744832881038 L 989.7822693530862 100.18890745439998 L 989.6993714929888 100.28999689691415 L 989.614241594019 100.39070654749288 L 989.5268881690955 100.49102633525506 L 989.4373199534883 100.59094622830548 L 989.3455459039443 100.69045623473812 L 989.2515751977919 100.78954640363527 L 989.1554172320233 100.8882068260626 L 989.0570816223552 100.9864276360601 L 988.9565782022664 101.0841990116286 L 988.8539170220153 101.18151117571202 L 988.7491083476342 101.27835439717506 L 988.6421626599033 101.37471899177628 L 988.5330906533023 101.4705953231365 L 988.421903234941 101.56597380370249 L 988.3086115234685 101.6608448957057 L 988.1932268479616 101.75519911211595 L 988.0757607467915 101.84902701759025 L 987.9562249664706 101.94231922941623 L 987.8346314604773 102.03506641845047 L 987.710992388061 102.12725931005133 L 987.5853201130255 102.2188886850065 L 987.4576272024941 102.30994538045483 L 987.3279264256511 102.40042029080266 L 987.1962307524661 102.49030436863434 L 987.0625533523969 102.579588625617 L 986.926907593072 102.66826413339936 L 986.7893070389541 102.75632202450451 L 986.6497654499842 102.84375349321674 L 986.5082967802049 102.93054979646202 L 986.3649151763651 103.01670225468237 L 986.219634976506 103.10220225270375 L 986.0724707085261 103.18704124059762 L 985.92343708873 103.27121073453588 L 985.7725490203551 103.3547023176393 L 985.6198215920828 103.4375076408191 L 985.4652700765284 103.51961842361202 L 985.308909928715 103.60102645500817 L 985.1507567845267 103.68172359427226 L 984.9908264591464 103.7617017717576 L 984.8291349454732 103.84095298971312 L 984.665698412524 103.91946932308304 L 984.5005332038154 103.99724292029944 L 984.3336558357311 104.07426600406745 L 984.1650829958686 104.15053087214287 L 983.9948315413715 104.22602989810241 L 983.8229184972433 104.30075553210642 L 983.6493610546453 104.37470030165377 L 983.474176569177 104.44785681232914 L 983.2973825591409 104.52021774854238 L 983.1189967037909 104.59177587426021 L 982.9390368415636 104.66252403372968 L 982.7575209682956 104.73245515219378 L 982.5744672354226 104.80156223659897 L 982.3898939481656 104.86983837629438 L 982.2038195636994 104.93727674372295 L 982.0162626893075 105.0038705951041 L 981.8272420805208 105.06961327110824 L 981.636776639243 105.13449819752252 L 981.4448854118591 105.19851888590837 L 981.2515875873323 105.26166893425032 L 981.0569024952838 105.32394202759615 L 980.8608496040606 105.38533193868841 L 980.6634485187884 105.44583252858716 L 980.4647189794114 105.50543774728384 L 980.2646808587176 105.56414163430621 L 980.0633541603527 105.62193831931454 L 979.8607590168186 105.67882202268845 L 979.6569156874608 105.73478705610502 L 979.4518445564426 105.78982782310756 L 979.2455661307058 105.84393881966523 L 979.0381010379215 105.89711463472344 L 978.8294700244257 105.94934995074503 L 978.6196939531463 106.00063954424192 L 978.4087938015153 106.0509782862975 L 978.1967906593723 106.1003611430795 L 977.9837057268546 106.14878317634341 L 977.7695603122783 106.19623954392625 L 977.5543758300059 106.2427255002308 L 977.3381737983067 106.2882363967002 L 977.1209758372036 106.33276768228268 L 976.9028036663116 106.37631490388682 L 976.683679102666 106.41887370682676 L 976.4636240585406 106.46043983525765 L 976.2426605392566 106.50100913260128 L 976.0208106409816 106.54057754196174 L 975.7980965485206 106.57914110653107 L 975.5745405330971 106.61669596998493 L 975.3501649501267 106.65323837686829 L 975.1249922369803 106.6887646729709 L 974.899044910742 106.72327130569276 L 974.6723455659558 106.75675482439937 L 974.4449168723673 106.78921188076673 L 974.2167815726565 106.82063922911627 L 973.9879624801632 106.85103372673933 L 973.7584824766059 106.8803923342115 L 973.5283645097938 106.90871211569649 L 973.2976315913318 106.93599023923973 L 973.0663067943194 106.96222397705162 L 972.8344132510435 106.98741070578025 L 972.6019741506655 107.0115479067737 L 972.3690127369014 107.03463316633201 L 972.1355523056984 107.05666417594847 L 971.9016162029054 107.07763873254045 L 971.6672278219374 107.09755473866979 L 971.4324106014375 107.11641020275246 L 971.1971880229319 107.13420323925777 L 970.9615836084822 107.1509320688969 L 970.7256209183339 107.16659501880085 L 970.4893235485592 107.18119052268763 L 970.2527151286982 107.19471712101905 L 970.0158193193956 107.20717346114655 L 969.7786598100352 107.21855829744648 L 969.54126031637 107.22887049144471 L 969.3036445781515 107.23810901193042 L 969.0658363567559 107.24627293505928 L 968.8278594328068 107.25336144444577 L 968.5897376037984 107.25937383124486 L 968.3514946817153 107.26430949422287 L 968.1131544906509 107.26816793981763 L 967.8747408644259 107.27094878218779 L 967.6362776442041 107.27265174325143 L 967.397788676109 107.27327665271386 L 967.1592978088385 107.27282344808465 L 966.9208288912806 107.27129217468391 L 966.6824057701284 107.26868298563768 L 966.4440522874954 107.2649961418627 L 966.205792278531 107.26023201204026 L 965.9676495690378 107.2543910725794 L 965.7296479730882 107.24747390756917 L 965.4918112906433 107.23948120872033 L 965.2541633051734 107.23041377529609 L 965.0167277812789 107.22027251403225 L 964.7795284623141 107.20905843904646 L 964.5425890680137 107.1967726717369 L 964.3059332921194 107.18341644067004 L 964.0695848000116 107.16899108145788 L 963.8335672263426 107.15349803662431 L 963.597904172673 107.1369388554609 L 963.3626192051119 107.11931519387196 L 963.1277358519599 107.10062881420897 L 962.8932776013565 107.08088158509435 L 962.6592678989317 107.0600754812345 L 962.4257301454603 107.03821258322252 L 962.1926876945234 107.01529507732995 L 961.9601638501717 106.99132525528832 L 961.7281818645959 106.96630551405984 L 961.4967649358013 106.94023835559778 L 961.2659362052877 106.91312638659626 L 961.0357187557362 106.88497231822961 L 960.8061356086996 106.85577896588119 L 960.5772097223013 106.8255492488619 L 960.3489639889393 106.79428619011826 L 960.1214212329967 106.76199291593008 L 959.8946042085594 106.72867265559789 L 959.6685355971409 106.69432874111995 L 959.443238005414 106.65896460685907 L 959.2187339629498 106.62258378919921 L 958.995045919966 106.58518992619184 L 958.7721962450801 106.5467867571921 L 958.5502072230739 106.50737812248485 L 958.3291010526649 106.46696796290075 L 958.1088998442855 106.42556031942208 L 957.8896256178733 106.38315933277867 L 957.6713003006681 106.33976924303387 L 957.4539457250197 106.29539438916049 L 957.2375836262047 106.25003920860692 L 957.0222356402523 106.20370823685344 L 956.8079233017821 106.15640610695861 L 956.594668041849 106.108137549096 L 956.3824911858015 106.05890739008117 L 956.1714139511482 106.00872055288902 L 955.9614574454368 105.9575820561614 L 955.752642664143 105.90549701370541 L 955.5449904885706 105.85247063398188 L 955.3385216837645 105.79850821958458 L 955.1332568964328 105.74361516670999 L 954.9292166528834 105.68779696461766 L 954.7264213569704 105.63105919508126 L 954.5248912880546 105.5734075318305 L 954.3246465989749 105.51484773998365 L 954.1257073140333 105.45538567547108 L 953.9280933269926 105.3950272844497 L 953.7318243990867 105.33377860270829 L 953.5369201570448 105.27164575506403 L 953.343400091129 105.20863495474987 L 953.1512835531842 105.14475250279335 L 952.9605897547044 105.08000478738643 L 952.7713377649104 105.01439828324668 L 952.5835465088435 104.94793955096986 L 952.3972347654728 104.8806352363738 L 952.2124211658174 104.8124920698339 L 952.0291241910834 104.74351686560999 L 951.8473621708151 104.67371652116503 L 951.6671532810636 104.6030980164753 L 951.4885155425674 104.53166841333243 L 951.3114668189514 104.4594348546372 L 951.1360248149406 104.38640456368528 L 950.9622070745892 104.31258484344491 L 950.7900309795263 104.2379830758266 L 950.6195137472179 104.16260672094495 L 950.4506724292453 104.08646331637262 L 950.2835239095994 104.00956047638662 L 950.118084902993 103.93190589120688 L 949.9543719531888 103.85350732622719 L 949.7924014313455 103.77437262123871 L 949.6321895343802 103.694509689646 L 949.4737522833491 103.61392651767568 L 949.3171055218453 103.53263116357778 L 949.1622649144144 103.45063175681996 L 949.0092459449882 103.36793649727457 L 948.8580639153358 103.28455365439865 L 948.7087339435345 103.20049156640701 L 948.561270962457 103.1157586394384 L 948.4156897182785 103.03036334671489 L 948.272004769002 102.94431422769459 L 948.1302304830028 102.85761988721772 L 947.9903810375914 102.77028899464605 L 947.8524704175957 102.68233028299609 L 947.7165124139626 102.5937525480657 L 947.5825206223795 102.50456464755453 L 947.4505084419138 102.41477550017834 L 947.3204890736735 102.32439408477703 L 947.192475519487 102.23342943941684 L 947.0664805806031 102.14189066048647 L 946.9425168564107 102.04978690178756 L 946.8205967431791 101.95712737361922 L 946.7007324328176 101.86392134185704 L 946.5829359116577 101.77017812702654 L 946.4672189592533 101.67590710337106 L 946.353593147203 101.58111769791444 L 946.2420698379937 101.48581938951821 L 946.132660183863 101.39002170793381 L 946.0253751256853 101.29373423284954 L 945.920225391877 101.19696659293271 L 945.817221497324 101.09972846486664 L 945.7163737423297 101.00202957238312 L 945.6176922115856 100.90387968528998 L 945.5211867731626 100.80528861849413 L 945.4268670775242 100.70626623102011 L 945.3347425565612 100.60682242502413 L 945.244822422649 100.50696714480392 L 945.1571156677261 100.40671037580431 L 945.0716310623948 100.30606214361863 L 944.9883771550445 100.20503251298624 L 944.9073622709965 100.103631586786 L 944.8285945116717 100.00186950502604 L 944.7520817537804 99.89975644382972 L 944.6778316485346 99.79730261441809 L 944.6058516208831 99.69451826208869 L 944.5361488687684 99.59141366519111 L 944.4687303624079 99.48799913409913 L 944.4036028435959 99.38428501017967 L 944.34077282503 99.28028166475868 L 944.2802465896598 99.17599949808405 L 944.2220301900583 99.07144893828554 L 944.1661294478171 98.96664044033201 L 944.1125499529636 98.86158448498593 L 944.0612970634028 98.75629157775525 L 944.012375904381 98.65077224784297 L 943.9657913679731 98.54503704709414 L 943.9215481125942 98.43909654894075 L 943.8796505625328 98.33296134734431 L 943.840102907509 98.22664205573652 L 943.8029091022554 98.12014930595798 L 943.7680728661215 98.01349374719489 L 943.7355976827018 97.90668604491427 L 943.7054867994879 97.79973687979731 L 943.6777432275426 97.69265694667143 L 943.6523697412002 97.58545695344071 L 943.6293688777882 97.47814762001512 L 943.6087429373738 97.37073967723859 L 943.5904939825336 97.26324386581588 L 943.5746238381482 97.15567093523856 L 943.5611340912187 97.04803164271006 L 943.5500260907085 96.94033675206991 L 943.5413009474084 96.83259703271744 L 943.5349595338255 96.7248232585348 L 943.5310024840959 96.6170262068096 L 943.5294301939211 96.50921665715717" stroke-miterlimit="10" stroke-width="2.7769845610000004" stroke-dasharray=""/></g><g><text fill="black" stroke="none" font-family="sans-serif" font-size="11pt" font-style="normal" font-weight="normal" text-decoration="normal" x="936.0008518180989" y="124.80095321200001" text-anchor="start" dominant-baseline="alphabetic" xml:space="preserve">Database</text></g></g><g><path fill="white" stroke="black" paint-order="fill stroke markers" d=" M 314.2700373055989 183.607685092 L 330.6052406055989 183.607685092 L 330.6052406055989 882.7543863319997 L 314.2700373055989 882.7543863319997 L 314.2700373055989 183.607685092" stroke-miterlimit="10" stroke-width="1.3612669416666667" stroke-dasharray=""/><path fill="white" stroke="black" paint-order="fill stroke markers" d=" M 541.2237203610025 229.346254332 L 557.5589236610026 229.346254332 L 557.5589236610026 837.0158170919998 L 541.2237203610025 837.0158170919998 L 541.2237203610025 229.346254332" stroke-miterlimit="10" stroke-width="1.3612669416666667" stroke-dasharray=""/><path fill="white" stroke="black" paint-order="fill stroke markers" d=" M 750.2174577376952 275.084823572 L 766.5526610376953 275.084823572 L 766.5526610376953 412.300531292 L 750.2174577376952 412.300531292 L 750.2174577376952 275.084823572" stroke-miterlimit="10" stroke-width="1.3612669416666667" stroke-dasharray=""/><path fill="white" stroke="black" paint-order="fill stroke markers" d=" M 959.2111951143879 320.823392812 L 975.546398414388 320.823392812 L 975.546398414388 366.561962052 L 959.2111951143879 366.561962052 L 959.2111951143879 320.823392812" stroke-miterlimit="10" stroke-width="1.3612669416666667" stroke-dasharray=""/><path fill="white" stroke="black" paint-order="fill stroke markers" d=" M 750.2174577376952 637.7263368319999 L 766.5526610376953 637.7263368319999 L 766.5526610376953 774.9420445519997 L 750.2174577376952 774.9420445519997 L 750.2174577376952 637.7263368319999" stroke-miterlimit="10" stroke-width="1.3612669416666667" stroke-dasharray=""/><path fill="white" stroke="black" paint-order="fill stroke markers" d=" M 959.2111951143879 683.4649060719998 L 975.546398414388 683.4649060719998 L 975.546398414388 729.2034753119998 L 959.2111951143879 729.2034753119998 L 959.2111951143879 683.4649060719998" stroke-miterlimit="10" stroke-width="1.3612669416666667" stroke-dasharray=""/><g><g><rect fill="white" stroke="none" x="110.18270473807287" y="162.371920802" width="167.41304267945313" height="21.23576429"/></g><text fill="black" stroke="none" font-family="sans-serif" font-size="11pt" font-style="normal" font-weight="normal" text-decoration="normal" x="112.63298523307287" y="177.07360377199998" text-anchor="start" dominant-baseline="alphabetic" xml:space="preserve">Go to Group's User page</text></g><g><path fill="none" stroke="black" paint-order="fill stroke markers" d=" M 73.50841485 183.607685092 L 300.82071992193227 183.607685092" stroke-miterlimit="10" stroke-width="1.3612669416666667" stroke-dasharray=""/><g transform="translate(314.2700373055989,183.607685092) translate(-314.2700373055989,-183.607685092)"><path fill="black" stroke="none" paint-order="stroke fill markers" d=" M 300.65736788893224 176.80135038366666 L 314.2700373055989 183.607685092 L 300.65736788893224 190.41401980033334 Z"/></g></g><g><g><rect fill="white" stroke="none" x="349.93523117726556" y="208.110490042" width="171.95849861207031" height="21.23576429"/></g><text fill="black" stroke="none" font-family="sans-serif" font-size="11pt" font-style="normal" font-weight="normal" text-decoration="normal" x="352.3855116722656" y="222.812173012" text-anchor="start" dominant-baseline="alphabetic" xml:space="preserve">GET: /api/group/{id}/users</text></g><g><path fill="none" stroke="black" paint-order="fill stroke markers" d=" M 330.6052406055989 229.346254332 L 527.7744029773359 229.346254332" stroke-miterlimit="10" stroke-width="1.3612669416666667" stroke-dasharray=""/><g transform="translate(541.2237203610025,229.346254332) translate(-541.2237203610025,-229.346254332)"><path fill="black" stroke="none" paint-order="stroke fill markers" d=" M 527.6110509443358 222.53991962366666 L 541.2237203610025 229.346254332 L 527.6110509443358 236.15258904033334 Z"/></g></g><g><g><rect fill="white" stroke="none" x="619.6734448723176" y="253.849059282" width="68.4294916540625" height="21.23576429"/></g><text fill="black" stroke="none" font-family="sans-serif" font-size="11pt" font-style="normal" font-weight="normal" text-decoration="normal" x="622.1237253673177" y="268.550742252" text-anchor="start" dominant-baseline="alphabetic" xml:space="preserve">isExist(id)</text></g><g><path fill="none" stroke="black" paint-order="fill stroke markers" d=" M 557.5589236610026 275.084823572 L 736.7681403540286 275.084823572" stroke-miterlimit="10" stroke-width="1.3612669416666667" stroke-dasharray=""/><g transform="translate(750.2174577376952,275.084823572) translate(-750.2174577376952,-275.084823572)"><path fill="black" stroke="none" paint-order="stroke fill markers" d=" M 736.6047883210285 268.27848886366667 L 750.2174577376952 275.084823572 L 736.6047883210285 281.89115828033334 Z"/></g></g><g><g><rect fill="white" stroke="none" x="816.4409859599479" y="299.587628522" width="92.8818842321875" height="21.23576429"/></g><text fill="black" stroke="none" font-family="sans-serif" font-size="11pt" font-style="normal" font-weight="normal" text-decoration="normal" x="818.8912664549479" y="314.28931149199997" text-anchor="start" dominant-baseline="alphabetic" xml:space="preserve">existsById(id)</text></g><g><path fill="none" stroke="black" paint-order="fill stroke markers" d=" M 766.5526610376953 320.823392812 L 945.7618777307213 320.823392812" stroke-miterlimit="10" stroke-width="1.3612669416666667" stroke-dasharray=""/><g transform="translate(959.2111951143879,320.823392812) translate(-959.2111951143879,-320.823392812)"><path fill="black" stroke="none" paint-order="stroke fill markers" d=" M 945.5985256977212 314.01705810366667 L 959.2111951143879 320.823392812 L 945.5985256977212 327.62972752033335 Z"/></g></g><g><g><rect fill="white" stroke="none" x="813.9713967265494" y="345.326197762" width="97.82106269898438" height="21.23576429"/></g><text fill="black" stroke="none" font-family="sans-serif" font-size="11pt" font-style="normal" font-weight="normal" text-decoration="normal" x="816.4216772215494" y="360.02788073199997" text-anchor="start" dominant-baseline="alphabetic" xml:space="preserve">Boolean value</text></g><g><path fill="none" stroke="black" paint-order="fill stroke markers" d=" M 959.2111951143879 366.561962052 L 780.001978421362 366.561962052" stroke-miterlimit="10" stroke-width="1.3612669416666667" stroke-dasharray="6.53408132"/><g transform="translate(766.5526610376953,366.561962052) translate(-766.5526610376953,-366.561962052)"><path fill="black" stroke="none" paint-order="stroke fill markers" d=" M 780.165330454362 359.7556273436667 L 766.5526610376953 366.561962052 L 780.165330454362 373.36829676033335 Z"/></g></g><g><g><rect fill="white" stroke="none" x="604.9776593498567" y="391.064767002" width="97.82106269898438" height="21.23576429"/></g><text fill="black" stroke="none" font-family="sans-serif" font-size="11pt" font-style="normal" font-weight="normal" text-decoration="normal" x="607.4279398448567" y="405.766449972" text-anchor="start" dominant-baseline="alphabetic" xml:space="preserve">Boolean value</text></g><g><path fill="none" stroke="black" paint-order="fill stroke markers" d=" M 750.2174577376952 412.300531292 L 571.0082410446693 412.300531292" stroke-miterlimit="10" stroke-width="1.3612669416666667" stroke-dasharray="6.53408132"/><g transform="translate(557.5589236610026,412.300531292) translate(-557.5589236610026,-412.300531292)"><path fill="black" stroke="none" paint-order="stroke fill markers" d=" M 571.1715930776693 405.4941965836667 L 557.5589236610026 412.300531292 L 571.1715930776693 419.10686600033335 Z"/></g></g><g><g><rect fill="white" stroke="none" x="375.62953659718744" y="480.908385152" width="120.56988777222656" height="21.23576429"/></g><text fill="red" stroke="none" font-family="sans-serif" font-size="11pt" font-style="normal" font-weight="normal" text-decoration="normal" x="378.07981709218745" y="495.610068122" text-anchor="start" dominant-baseline="alphabetic" xml:space="preserve">404 NOT FOUND</text></g><g><path fill="none" stroke="black" paint-order="fill stroke markers" d=" M 541.2237203610025 502.144149442 L 344.05455798926556 502.144149442" stroke-miterlimit="10" stroke-width="1.3612669416666667" stroke-dasharray="6.53408132"/><g transform="translate(330.6052406055989,502.144149442) translate(-330.6052406055989,-502.144149442)"><path fill="black" stroke="none" paint-order="stroke fill markers" d=" M 344.2179100222656 495.3378147336667 L 330.6052406055989 502.144149442 L 344.2179100222656 508.95048415033335 Z"/></g></g><g><g><rect fill="white" stroke="none" x="92.83840542166662" y="526.646954392" width="202.10164131226563" height="21.23576429"/></g><text fill="black" stroke="none" font-family="sans-serif" font-size="11pt" font-style="normal" font-weight="normal" text-decoration="normal" x="95.28868591666662" y="541.348637362" text-anchor="start" dominant-baseline="alphabetic" xml:space="preserve">Display 404 Not Found screen</text></g><g><path fill="none" stroke="black" paint-order="fill stroke markers" d=" M 314.2700373055989 547.882718682 L 86.95773223366666 547.882718682" stroke-miterlimit="10" stroke-width="1.3612669416666667" stroke-dasharray="6.53408132"/><g transform="translate(73.50841485,547.882718682) translate(-73.50841485,-547.882718682)"><path fill="black" stroke="none" paint-order="stroke fill markers" d=" M 87.12108426666666 541.0763839736667 L 73.50841485 547.882718682 L 87.12108426666666 554.6890533903334 Z"/></g></g><g><g><rect fill="white" stroke="none" x="576.8889142326692" y="616.4905725419999" width="153.99855293335938" height="21.23576429"/></g><text fill="black" stroke="none" font-family="sans-serif" font-size="11pt" font-style="normal" font-weight="normal" text-decoration="normal" x="579.3391947276692" y="631.1922555119999" text-anchor="start" dominant-baseline="alphabetic" xml:space="preserve">getAllUsersInGroup(id)</text></g><g><path fill="none" stroke="black" paint-order="fill stroke markers" d=" M 557.5589236610026 637.7263368319999 L 736.7681403540286 637.7263368319999" stroke-miterlimit="10" stroke-width="1.3612669416666667" stroke-dasharray=""/><g transform="translate(750.2174577376952,637.7263368319999) translate(-750.2174577376952,-637.7263368319999)"><path fill="black" stroke="none" paint-order="stroke fill markers" d=" M 736.6047883210285 630.9200021236666 L 750.2174577376952 637.7263368319999 L 736.6047883210285 644.5326715403332 Z"/></g></g><g><g><rect fill="white" stroke="none" x="785.8826516093619" y="662.2291417819998" width="153.99855293335938" height="21.23576429"/></g><text fill="black" stroke="none" font-family="sans-serif" font-size="11pt" font-style="normal" font-weight="normal" text-decoration="normal" x="788.3329321043619" y="676.9308247519998" text-anchor="start" dominant-baseline="alphabetic" xml:space="preserve">getAllUsersInGroup(id)</text></g><g><path fill="none" stroke="black" paint-order="fill stroke markers" d=" M 766.5526610376953 683.4649060719998 L 945.7618777307213 683.4649060719998" stroke-miterlimit="10" stroke-width="1.3612669416666667" stroke-dasharray=""/><g transform="translate(959.2111951143879,683.4649060719998) translate(-959.2111951143879,-683.4649060719998)"><path fill="black" stroke="none" paint-order="stroke fill markers" d=" M 945.5985256977212 676.6585713636665 L 959.2111951143879 683.4649060719998 L 945.5985256977212 690.2712407803332 Z"/></g></g><g><g><rect fill="white" stroke="none" x="833.9606545390494" y="707.9677110219998" width="57.84254707398438" height="21.23576429"/></g><text fill="black" stroke="none" font-family="sans-serif" font-size="11pt" font-style="normal" font-weight="normal" text-decoration="normal" x="836.4109350340494" y="722.6693939919998" text-anchor="start" dominant-baseline="alphabetic" xml:space="preserve">User list</text></g><g><path fill="none" stroke="black" paint-order="fill stroke markers" d=" M 959.2111951143879 729.2034753119998 L 780.001978421362 729.2034753119998" stroke-miterlimit="10" stroke-width="1.3612669416666667" stroke-dasharray="6.53408132"/><g transform="translate(766.5526610376953,729.2034753119998) translate(-766.5526610376953,-729.2034753119998)"><path fill="black" stroke="none" paint-order="stroke fill markers" d=" M 780.165330454362 722.3971406036665 L 766.5526610376953 729.2034753119998 L 780.165330454362 736.0098100203331 Z"/></g></g><g><g><rect fill="white" stroke="none" x="624.9669171623567" y="753.7062802619997" width="57.84254707398438" height="21.23576429"/></g><text fill="black" stroke="none" font-family="sans-serif" font-size="11pt" font-style="normal" font-weight="normal" text-decoration="normal" x="627.4171976573567" y="768.4079632319997" text-anchor="start" dominant-baseline="alphabetic" xml:space="preserve">User list</text></g><g><path fill="none" stroke="black" paint-order="fill stroke markers" d=" M 750.2174577376952 774.9420445519997 L 571.0082410446693 774.9420445519997" stroke-miterlimit="10" stroke-width="1.3612669416666667" stroke-dasharray="6.53408132"/><g transform="translate(557.5589236610026,774.9420445519997) translate(-557.5589236610026,-774.9420445519997)"><path fill="black" stroke="none" paint-order="stroke fill markers" d=" M 571.1715930776693 768.1357098436664 L 557.5589236610026 774.9420445519997 L 571.1715930776693 781.7483792603331 Z"/></g></g><g><g><rect fill="white" stroke="none" x="351.9824876469921" y="799.4448495019998" width="54.61422981324219" height="21.23576429"/></g><g><rect fill="white" stroke="none" x="351.9824876469921" y="815.7800528019998" width="167.8639856726172" height="21.23576429"/></g><text fill="green" stroke="none" font-family="sans-serif" font-size="11pt" font-style="normal" font-weight="normal" text-decoration="normal" x="354.43276814199214" y="814.1465324719998" text-anchor="start" dominant-baseline="alphabetic" xml:space="preserve">200 OK</text><text fill="green" stroke="none" font-family="sans-serif" font-size="11pt" font-style="normal" font-weight="normal" text-decoration="normal" x="354.43276814199214" y="830.4817357719998" text-anchor="start" dominant-baseline="alphabetic" xml:space="preserve">Response body: User list</text></g><g><path fill="none" stroke="black" paint-order="fill stroke markers" d=" M 541.2237203610025 837.0158170919998 L 344.05455798926556 837.0158170919998" stroke-miterlimit="10" stroke-width="1.3612669416666667" stroke-dasharray="6.53408132"/><g transform="translate(330.6052406055989,837.0158170919998) translate(-330.6052406055989,-837.0158170919998)"><path fill="black" stroke="none" paint-order="stroke fill markers" d=" M 344.2179100222656 830.2094823836665 L 330.6052406055989 837.0158170919998 L 344.2179100222656 843.8221518003331 Z"/></g></g><g><g><rect fill="white" stroke="none" x="94.07320766776037" y="861.5186220419997" width="199.63203682007813" height="21.23576429"/></g><text fill="black" stroke="none" font-family="sans-serif" font-size="11pt" font-style="normal" font-weight="normal" text-decoration="normal" x="96.52348816276037" y="876.2203050119997" text-anchor="start" dominant-baseline="alphabetic" xml:space="preserve">Display the list of group Users</text></g><g><path fill="none" stroke="black" paint-order="fill stroke markers" d=" M 314.2700373055989 882.7543863319997 L 86.95773223366666 882.7543863319997" stroke-miterlimit="10" stroke-width="1.3612669416666667" stroke-dasharray="6.53408132"/><g transform="translate(73.50841485,882.7543863319997) translate(-73.50841485,-882.7543863319997)"><path fill="black" stroke="none" paint-order="stroke fill markers" d=" M 87.12108426666666 875.9480516236664 L 73.50841485 882.7543863319997 L 87.12108426666666 889.5607210403331 Z"/></g></g><g><g/><path fill="none" stroke="black" paint-order="fill stroke markers" d=" M 16.335203299999996 436.803336242 L 1024.5520083143879 436.803336242 L 1024.5520083143879 907.2571912819998 L 16.335203299999996 907.2571912819998 L 16.335203299999996 436.803336242 Z" stroke-miterlimit="10" stroke-width="2.3336004714285714" stroke-dasharray=""/><path fill="white" stroke="black" paint-order="fill stroke markers" d=" M 16.335203299999996 436.803336242 L 16.335203299999996 456.405580202 L 62.69440689707031 456.405580202 L 72.49552887707031 446.604458222 L 72.49552887707031 436.803336242 L 16.335203299999996 436.803336242" stroke-miterlimit="10" stroke-width="2.3336004714285714" stroke-dasharray=""/><text fill="black" stroke="none" font-family="sans-serif" font-size="8.8pt" font-style="normal" font-weight="bold" text-decoration="normal" x="32.67040659999999" y="449.871498882" text-anchor="start" dominant-baseline="alphabetic" xml:space="preserve">alt</text><g><rect fill="white" stroke="none" x="86.38045168207032" y="438.110152506" width="138.48950447144531" height="16.988611432000003"/></g><text fill="black" stroke="none" font-family="sans-serif" font-size="8.8pt" font-style="normal" font-weight="bold" text-decoration="normal" x="88.83073217707032" y="449.871498882" text-anchor="start" dominant-baseline="alphabetic" xml:space="preserve">[If group does not exist]</text><g><path fill="none" stroke="black" paint-order="fill stroke markers" d=" M 16.335203299999996 572.385523632 L 1024.5520083143879 572.385523632" stroke-miterlimit="10" stroke-width="2.3336004714285714" stroke-dasharray="4.083800825"/></g><g/><g><rect fill="white" stroke="none" x="86.38045168207032" y="573.6923398959999" width="36.84300483765625" height="16.988611432000003"/></g><text fill="black" stroke="none" font-family="sans-serif" font-size="8.8pt" font-style="normal" font-weight="bold" text-decoration="normal" x="88.83073217707032" y="585.4536862719999" text-anchor="start" dominant-baseline="alphabetic" xml:space="preserve">[Else]</text></g><g/></g></g></svg>