<svg version="1.1" xmlns="http://www.w3.org/2000/svg" xmlns:xlink="http://www.w3.org/1999/xlink" width="1189" height="1678"><desc>title%20Add%20Users%20into%20Group%0A%0A%0Aactor%20%23green%3A0.5%20%22Workspace%20Admin%22%20as%20w%0Aboundary%20%22FUniverse%20Admin%20%5CnClient%22%20as%20f%0Acontrol%20%22Search%5CnController%22%20as%20ss%0Acontrol%20%22Group%20%5CnController%22%20as%20gc%0Aparticipant%20%22Group%20Service%22%20as%20gs%0Adatabase%20%23blue%3A1%20%22Database%22%20as%20db%0Aw-%3Ef%3AGo%20to%20Users%20In%20Group%20page%0Aactivate%20f%0Aw-%3Ef%3AClick%20button%20Add%20Users%0Aref%20over%20f%3AHere%20we%20have%5Cnexternal%20process%0Aw%3C--f%3ADisplay%20add%20Member%20popup%0Aw-%3Ef%3ASearch%20User%0Af-%3Ess%3AGET%5Cn%2Fapi%2Fsearch%3Fentity%3Duser%5Cn%26%7BparamToSearch%7D%0Aactivate%20ss%0Af%3C--ss%3AUser%20list%0Adeactivate%20ss%0Aalt%20If%20there%20is%20no%20user%20match%20condition%0Aw%3C--f%3ANo%20Options%0Aelse%20Else%0Aw-%3Ef%3ASelect%20Users%20and%20click%20Add%0Af-%3Egc%3APOST%3A%2Fapi%2Fgroup%2F%7Bid%7D%2Fusers%0Aactivate%20gc%0Agc-%3Egs%3Aget(id)%0Aactivate%20gs%0Ags-%3Edb%3A%20get(id)%0Aactivate%20db%0Ags%3C--db%3AGroup%20data%0Adeactivate%20db%0Agc%3C--gs%3A%20Group%20data%0Adeactivate%20gs%0Agc-%3Egc%3A%20Check%20group%20%5CnisEmpty()%0Aactivate%20gc%0Agc%3C--gc%3A%20Boolean%20value%0Adeactivate%20gc%0Aalt%20If%20group%20empty%0A%0Af%3C--gc%3A%3Ccolor%3A%23red%3E404%20NOT%20FOUND%3C%2Fcolor%3E%0A%0Aw%3C--f%3A%20Display%20404%20Not%20Found%20screen%0Aelse%0Agc-%3Egs%3AaddMemberToGroup()%0Aactivate%20gs%0Ags-%3Edb%3AaddMemberToGroup()%0Aactivate%20db%0Ags%3C--db%3A%0Adeactivate%20db%0Agc%3C--gs%3A%0Adeactivate%20gs%0Af%3C--gc%3A%3Ccolor%3A%23green%3E200%20OK%3C%2Fcolor%3E%0Aw%3C--f%3A%20Display%20the%20list%20of%20group%20Users%0Aend%20%0Adeactivate%20f%0Aend</desc><defs/><g><g/><g/><g/><g/><g/><g/><g/><g/><g/><g/><g/><g/><g/><g/><g/><g/><g/><g/><g/><g/><g/><g/><g/><g/><g/><g/><g/><g/><g/><g/><g/><g/><g/><g/><g/><g/><g/><g><rect fill="white" stroke="none" x="0" y="0" width="1189" height="1678"/></g><g><text fill="black" stroke="none" font-family="sans-serif" font-size="16.5pt" font-style="normal" font-weight="normal" text-decoration="normal" x="489.00250380600573" y="24.50280495" text-anchor="start" dominant-baseline="alphabetic" xml:space="preserve">Add Users into Group</text></g><g/><g><path fill="none" stroke="black" paint-order="fill stroke markers" d=" M 89.84361815 146.036717502 L 89.84361815 1678.278787042" stroke-miterlimit="10" stroke-width="1.3612669416666667" stroke-dasharray="12.565541,5.445067766666667"/><path fill="none" stroke="black" paint-order="fill stroke markers" d=" M 338.7728422555989 146.036717502 L 338.7728422555989 1678.278787042" stroke-miterlimit="10" stroke-width="1.3612669416666667" stroke-dasharray="12.565541,5.445067766666667"/><path fill="none" stroke="black" paint-order="fill stroke markers" d=" M 550.6513299985025 146.036717502 L 550.6513299985025 1678.278787042" stroke-miterlimit="10" stroke-width="1.3612669416666667" stroke-dasharray="12.565541,5.445067766666667"/><path fill="none" stroke="black" paint-order="fill stroke markers" d=" M 675.1483122387043 146.036717502 L 675.1483122387043 1678.278787042" stroke-miterlimit="10" stroke-width="1.3612669416666667" stroke-dasharray="12.565541,5.445067766666667"/><path fill="none" stroke="black" paint-order="fill stroke markers" d=" M 887.4278000691079 146.036717502 L 887.4278000691079 1678.278787042" stroke-miterlimit="10" stroke-width="1.3612669416666667" stroke-dasharray="12.565541,5.445067766666667"/><path fill="none" stroke="black" paint-order="fill stroke markers" d=" M 1091.5396862495115 146.036717502 L 1091.5396862495115 1678.278787042" stroke-miterlimit="10" stroke-width="1.3612669416666667" stroke-dasharray="12.565541,5.445067766666667"/></g><g><g><path fill="white" stroke="green" paint-order="fill stroke markers" d=" M 99.154684031 76.93880754300004 A 9.311065881 9.311065881 0 1 1 99.15467937546744 76.92949647867087 M 89.84361815 86.24987342400003 L 89.84361815 106.17882145000003 M 78.08227177399999 93.43736287600004 L 101.604964526 93.43736287600004 M 89.84361815 106.17882145000003 L 78.08227177399999 124.80095321200002 M 89.84361815 106.17882145000003 L 101.604964526 124.80095321200002" stroke-miterlimit="10" stroke-width="1.3884922805000002" stroke-dasharray=""/></g><g><text fill="black" stroke="none" font-family="sans-serif" font-size="11pt" font-style="normal" font-weight="normal" text-decoration="normal" x="30.50219511533203" y="141.136156512" text-anchor="start" dominant-baseline="alphabetic" xml:space="preserve">Workspace Admin</text></g><g><path fill="white" stroke="black" paint-order="fill stroke markers" d=" M 371.1982208060989 82.819480731 A 24.2577769005 24.2577769005 0 1 1 371.1982086772115 82.79522295814245 M 307.7359559855989 57.17321154999999 L 307.7359559855989 108.465749912 M 306.3474637050989 82.819480731 L 322.6826670050989 82.819480731" stroke-miterlimit="10" stroke-width="2.7769845610000004" stroke-dasharray=""/></g><g><text fill="black" stroke="none" font-family="sans-serif" font-size="11pt" font-style="normal" font-weight="normal" text-decoration="normal" x="280.5230406198567" y="124.80095321200001" text-anchor="start" dominant-baseline="alphabetic" xml:space="preserve">FUniverse Admin </text><text fill="black" stroke="none" font-family="sans-serif" font-size="11pt" font-style="normal" font-weight="normal" text-decoration="normal" x="320.03269180393875" y="141.136156512" text-anchor="start" dominant-baseline="alphabetic" xml:space="preserve">Client</text></g><g><path fill="white" stroke="black" paint-order="fill stroke markers" d=" M 574.9091068990025 82.819480731 A 24.2577769005 24.2577769005 0 1 1 574.9090947701151 82.79522295814245 M 547.3842893385025 58.561703830499994 L 557.1854113185025 50.39410218049999 M 547.3842893385025 58.561703830499994 L 557.1854113185025 66.72930548049999" stroke-miterlimit="10" stroke-width="2.7769845610000004" stroke-dasharray=""/></g><g><text fill="black" stroke="none" font-family="sans-serif" font-size="11pt" font-style="normal" font-weight="normal" text-decoration="normal" x="527.4265756650065" y="124.80095321200001" text-anchor="start" dominant-baseline="alphabetic" xml:space="preserve">Search</text><text fill="black" stroke="none" font-family="sans-serif" font-size="11pt" font-style="normal" font-weight="normal" text-decoration="normal" x="518.8761148495768" y="141.136156512" text-anchor="start" dominant-baseline="alphabetic" xml:space="preserve">Controller</text></g><g><path fill="white" stroke="black" paint-order="fill stroke markers" d=" M 699.4060891392043 82.819480731 A 24.2577769005 24.2577769005 0 1 1 699.4060770103168 82.79522295814245 M 671.8812715787043 58.561703830499994 L 681.6823935587042 50.39410218049999 M 671.8812715787043 58.561703830499994 L 681.6823935587042 66.72930548049999" stroke-miterlimit="10" stroke-width="2.7769845610000004" stroke-dasharray=""/></g><g><text fill="black" stroke="none" font-family="sans-serif" font-size="11pt" font-style="normal" font-weight="normal" text-decoration="normal" x="652.7395826854817" y="124.80095321200001" text-anchor="start" dominant-baseline="alphabetic" xml:space="preserve">Group </text><text fill="black" stroke="none" font-family="sans-serif" font-size="11pt" font-style="normal" font-weight="normal" text-decoration="normal" x="643.3730970897785" y="141.136156512" text-anchor="start" dominant-baseline="alphabetic" xml:space="preserve">Controller</text></g><path fill="none" stroke="none"/><g><path fill="white" stroke="black" paint-order="fill stroke markers" d=" M 822.8537321741547 102.09502062500003 L 952.001867964061 102.09502062500003 L 952.001867964061 146.03671750200002 L 822.8537321741547 146.03671750200002 L 822.8537321741547 102.09502062500003 Z" stroke-miterlimit="10" stroke-width="2.613632528" stroke-dasharray=""/></g><g><text fill="black" stroke="none" font-family="sans-serif" font-size="11pt" font-style="normal" font-weight="normal" text-decoration="normal" x="840.5774277546548" y="129.701514202" text-anchor="start" dominant-baseline="alphabetic" xml:space="preserve">Group Service</text></g><g><path fill="white" stroke="blue" paint-order="fill stroke markers" d=" M 1067.6902894315115 114.01971903400002 L 1067.6902894315115 79.71579210400003 L 1115.3890830675116 79.71579210400003 L 1115.3890830675116 114.01971903400002" stroke-miterlimit="10" stroke-width="2.7769845610000004" stroke-dasharray=""/><path fill="white" stroke="blue" paint-order="fill stroke markers" d=" M 1115.3890830675116 78.52332226310003 L 1115.387890607608 78.63113280801664 L 1115.3843133471419 78.73893257196862 L 1115.3783516438364 78.84671077506938 L 1115.3700060938572 78.95445663958843 L 1115.359277531752 79.06215939102911 L 1115.3461670303682 79.16980825920604 L 1115.3306759007448 79.27739247932207 L 1115.3128056919822 79.38490129304488 L 1115.2925581910863 79.49232394958268 L 1115.26993542279 79.59964970675932 L 1115.2449396493516 79.70686783208855 L 1115.2175733703277 79.81396760384715 L 1115.187839322323 79.92093831214721 L 1115.155740478718 80.02776926000705 L 1115.1212800493697 80.13444976442089 L 1115.084461480293 80.2409691574272 L 1115.0452884533138 80.34731678717546 L 1115.003764885702 80.45348201899128 L 1114.95989492978 80.55945423643999 L 1114.9136829725066 80.66522284238813 L 1114.8651336350392 80.77077726006326 L 1114.8142517722713 80.87610693411155 L 1114.7610424723462 80.9812013316534 L 1114.70551105615 81.08604994333662 L 1114.6476630767781 81.19064228438741 L 1114.5875043189799 81.29496789565883 L 1114.5250407985811 81.3990163446767 L 1114.4602787618821 81.50277722668281 L 1114.393224685032 81.60624016567543 L 1114.323885273383 81.70939481544688 L 1114.2522674608185 81.81223086061816 L 1114.1783784090599 81.91473801767043 L 1114.1022255069506 82.0169060359734 L 1114.023816369718 82.11872469881041 L 1113.94315883821 82.22018382440001 L 1113.8602609781124 82.32127326691418 L 1113.7751310791425 82.42198291749291 L 1113.6877776542192 82.52230270525509 L 1113.598209438612 82.62222259830551 L 1113.5064353890677 82.72173260473815 L 1113.4124646829155 82.8208227736353 L 1113.316306717147 82.91948319606263 L 1113.2179711074787 83.01770400606013 L 1113.11746768739 83.11547538162863 L 1113.0148065071387 83.21278754571205 L 1112.9099978327577 83.3096307671751 L 1112.8030521450269 83.4059953617763 L 1112.693980138426 83.50187169313652 L 1112.5827927200646 83.59725017370252 L 1112.469501008592 83.69212126570572 L 1112.3541163330851 83.78647548211597 L 1112.236650231915 83.88030338759027 L 1112.1171144515943 83.97359559941626 L 1111.995520945601 84.0663427884505 L 1111.8718818731845 84.15853568005136 L 1111.746209598149 84.25016505500653 L 1111.6185166876176 84.34122175045486 L 1111.4888159107747 84.43169666080269 L 1111.3571202375897 84.52158073863437 L 1111.2234428375205 84.61086499561704 L 1111.0877970781955 84.69954050339939 L 1110.9501965240777 84.78759839450454 L 1110.8106549351078 84.87502986321677 L 1110.6691862653286 84.96182616646205 L 1110.5258046614888 85.0479786246824 L 1110.3805244616294 85.13347862270378 L 1110.2333601936498 85.21831761059765 L 1110.0843265738536 85.30248710453591 L 1109.9334385054788 85.38597868763932 L 1109.7807110772064 85.46878401081914 L 1109.626159561652 85.55089479361204 L 1109.4697994138385 85.6323028250082 L 1109.3116462696503 85.71299996427229 L 1109.15171594427 85.79297814175763 L 1108.9900244305968 85.87222935971315 L 1108.8265878976474 85.95074569308306 L 1108.661422688939 86.02851929029947 L 1108.4945453208547 86.10554237406748 L 1108.3259724809923 86.1818072421429 L 1108.155721026495 86.25730626810244 L 1107.983807982367 86.33203190210645 L 1107.810250539769 86.4059766716538 L 1107.6350660543005 86.47913318232916 L 1107.4582720442645 86.55149411854241 L 1107.2798861889144 86.62305224426024 L 1107.0999263266872 86.69380040372971 L 1106.918410453419 86.76373152219381 L 1106.7353567205462 86.832838606599 L 1106.550783433289 86.90111474629441 L 1106.364709048823 86.96855311372298 L 1106.177152174431 87.03514696510413 L 1105.9881315656444 87.10088964110827 L 1105.7976661243665 87.16577456752255 L 1105.6057748969827 87.2297952559084 L 1105.4124770724559 87.29294530425035 L 1105.2177919804074 87.35521839759618 L 1105.0217390891842 87.41660830868844 L 1104.824338003912 87.47710889858719 L 1104.625608464535 87.53671411728386 L 1104.4255703438412 87.59541800430624 L 1104.2242436454762 87.65321468931457 L 1104.021648501942 87.71009839268848 L 1103.8178051725845 87.76606342610505 L 1103.612734041566 87.82110419310759 L 1103.4064556158294 87.87521518966525 L 1103.198990523045 87.92839100472347 L 1102.9903595095493 87.98062632074506 L 1102.7805834382698 88.03191591424195 L 1102.5696832866388 88.08225465629752 L 1102.3576801444958 88.13163751307953 L 1102.1445952119782 88.18005954634344 L 1101.9304497974017 88.22751591392628 L 1101.7152653151295 88.27400187023083 L 1101.4990632834304 88.31951276670023 L 1101.2818653223271 88.36404405228271 L 1101.063693151435 88.40759127388685 L 1100.8445685877896 88.45015007682679 L 1100.6245135436643 88.49171620525767 L 1100.4035500243801 88.53228550260131 L 1100.1817001261052 88.57185391196177 L 1099.9589860336441 88.6104174765311 L 1099.7354300182208 88.64797233998496 L 1099.5110544352501 88.68451474686832 L 1099.2858817221038 88.72004104297093 L 1099.0599343958654 88.75454767569279 L 1098.8332350510793 88.7880311943994 L 1098.6058063574908 88.82048825076676 L 1098.3776710577802 88.8519155991163 L 1098.1488519652867 88.88231009673936 L 1097.9193719617294 88.91166870421154 L 1097.6892539949174 88.93998848569652 L 1097.4585210764553 88.96726660923976 L 1097.227196279443 88.99350034705165 L 1096.995302736167 89.01868707578028 L 1096.762863635789 89.04282427677373 L 1096.529902222025 89.06590953633204 L 1096.296441790822 89.0879405459485 L 1096.062505688029 89.10891510254048 L 1095.8281173070611 89.12883110866981 L 1095.5933000865612 89.14768657275249 L 1095.3580775080554 89.1654796092578 L 1095.1224730936058 89.18220843889694 L 1094.8865104034576 89.19787138880088 L 1094.6502130336828 89.21246689268766 L 1094.4136046138217 89.22599349101908 L 1094.1767088045192 89.23844983114658 L 1093.9395492951587 89.2498346674465 L 1093.7021498014935 89.26014686144474 L 1093.464534063275 89.26938538193045 L 1093.2267258418794 89.27754930505931 L 1092.9887489179305 89.2846378144458 L 1092.750627088922 89.29065020124489 L 1092.5123841668387 89.2955858642229 L 1092.2740439757745 89.29944430981766 L 1092.0356303495494 89.30222515218782 L 1091.7971671293278 89.30392811325146 L 1091.5586781612326 89.30455302271389 L 1091.3201872939621 89.30409981808468 L 1091.0817183764043 89.30256854468394 L 1090.843295255252 89.29995935563771 L 1090.604941772619 89.29627251186272 L 1090.3666817636547 89.29150838204029 L 1090.1285390541614 89.28566744257942 L 1089.8905374582116 89.2787502775692 L 1089.6527007757668 89.27075757872036 L 1089.4150527902968 89.26169014529611 L 1089.1776172664024 89.25154888403227 L 1088.9404179474377 89.24033480904649 L 1088.7034785531373 89.22804904173692 L 1088.466822777243 89.21469281067007 L 1088.2304742851352 89.2002674514579 L 1087.9944567114662 89.18477440662434 L 1087.7587936577966 89.16821522546093 L 1087.5235086902355 89.15059156387198 L 1087.2886253370834 89.131905184209 L 1087.0541670864802 89.11215795509437 L 1086.8201573840552 89.09135185123453 L 1086.586619630584 89.06948895322255 L 1086.353577179647 89.04657144732998 L 1086.1210533352953 89.02260162528835 L 1085.8890713497194 88.99758188405987 L 1085.6576544209247 88.97151472559781 L 1085.4268256904113 88.94440275659629 L 1085.1966082408596 88.91624868822964 L 1084.9670250938232 88.88705533588121 L 1084.738099207425 88.85682561886193 L 1084.509853474063 88.82556256011829 L 1084.2823107181202 88.79326928593011 L 1084.055493693683 88.75994902559792 L 1083.8294250822644 88.72560511111998 L 1083.6041274905374 88.6902409768591 L 1083.3796234480735 88.65386015919924 L 1083.1559354050896 88.61646629619187 L 1082.9330857302036 88.57806312719212 L 1082.7110967081976 88.53865449248488 L 1082.4899905377883 88.49824433290078 L 1082.2697893294092 88.4568366894221 L 1082.0505151029968 88.4144357027787 L 1081.8321897857916 88.3710456130339 L 1081.6148352101434 88.32667075916052 L 1081.3984731113283 88.28131557860695 L 1081.183125125376 88.23498460685347 L 1080.9688127869056 88.18768247695864 L 1080.7555575269726 88.13941391909603 L 1080.543380670925 88.0901837600812 L 1080.3323034362718 88.03999692288905 L 1080.1223469305605 87.98885842616143 L 1079.9135321492665 87.93677338370544 L 1079.7058799736942 87.88374700398191 L 1079.499411168888 87.8297845895846 L 1079.2941463815564 87.77489153671002 L 1079.0901061380068 87.71907333461769 L 1078.887310842094 87.66233556508129 L 1078.6857807731783 87.60468390183053 L 1078.4855360840984 87.54612410998368 L 1078.286596799157 87.4866620454711 L 1078.0889828121162 87.42630365444973 L 1077.8927138842103 87.36505497270832 L 1077.6978096421685 87.30292212506406 L 1077.5042895762524 87.2399113247499 L 1077.3121730383077 87.17602887279338 L 1077.121479239828 87.11128115738646 L 1076.932227250034 87.0456746532467 L 1076.744435993967 86.97921592096989 L 1076.5581242505964 86.91191160637383 L 1076.373310650941 86.84376843983392 L 1076.190013676207 86.77479323561002 L 1076.0082516559387 86.70499289116506 L 1075.828042766187 86.63437438647533 L 1075.6494050276908 86.56294478333245 L 1075.472356304075 86.49071122463722 L 1075.2969143000641 86.4176809336853 L 1075.1230965597126 86.34386121344494 L 1074.9509204646497 86.26925944582663 L 1074.7804032323415 86.19388309094498 L 1074.6115619143688 86.11773968637264 L 1074.444413394723 86.04083684638665 L 1074.2789743881165 85.96318226120691 L 1074.1152614383125 85.88478369622722 L 1073.953290916469 85.80564899123874 L 1073.7930790195037 85.72578605964603 L 1073.6346417684726 85.64520288767571 L 1073.477995006969 85.5639075335778 L 1073.323154399538 85.48190812681999 L 1073.1701354301117 85.3992128672746 L 1073.0189534004594 85.31583002439868 L 1072.869623428658 85.23176793640704 L 1072.7221604475806 85.14703500943843 L 1072.5765792034022 85.06163971671492 L 1072.4328942541256 84.97559059769462 L 1072.2911199681264 84.88889625721775 L 1072.1512705227149 84.80156536464608 L 1072.0133599027192 84.71360665299612 L 1071.8774018990862 84.62502891806572 L 1071.7434101075032 84.53584101755456 L 1071.6113979270374 84.44605187017837 L 1071.4813785587971 84.35567045477706 L 1071.3533650046106 84.26470580941687 L 1071.2273700657267 84.1731670304865 L 1071.1034063415343 84.08106327178758 L 1070.9814862283026 83.98840374361924 L 1070.8616219179412 83.89519771185707 L 1070.7438253967812 83.80145449702657 L 1070.6281084443767 83.70718347337109 L 1070.5144826323267 83.61239406791447 L 1070.402959323117 83.51709575951824 L 1070.2935496689865 83.42129807793384 L 1070.1862646108088 83.32501060284957 L 1070.0811148770006 83.22824296293274 L 1069.9781109824476 83.13100483486667 L 1069.8772632274533 83.03330594238315 L 1069.7785816967091 82.93515605529001 L 1069.6820762582863 82.83656498849416 L 1069.5877565626477 82.73754260102014 L 1069.4956320416848 82.63809879502416 L 1069.4057119077725 82.53824351480395 L 1069.3180051528495 82.43798674580434 L 1069.2325205475183 82.33733851361866 L 1069.149266640168 82.23630888298626 L 1069.0682517561202 82.13490795678602 L 1068.9894839967953 82.03314587502607 L 1068.912971238904 81.93103281382975 L 1068.8387211336583 81.82857898441812 L 1068.7667411060065 81.72579463208872 L 1068.697038353892 81.62269003519114 L 1068.6296198475313 81.51927550409916 L 1068.5644923287193 81.4155613801797 L 1068.5016623101535 81.3115580347587 L 1068.4411360747833 81.20727586808408 L 1068.382919675182 81.10272530828557 L 1068.3270189329405 80.99791681033204 L 1068.273439438087 80.89286085498595 L 1068.2221865485265 80.78756794775528 L 1068.1732653895044 80.682048617843 L 1068.1266808530968 80.57631341709417 L 1068.0824375977177 80.47037291894078 L 1068.0405400476563 80.36423771734434 L 1068.0009923926325 80.25791842573655 L 1067.963798587379 80.15142567595801 L 1067.928962351245 80.04477011719491 L 1067.8964871678254 79.9379624149143 L 1067.8663762846113 79.83101324979734 L 1067.8386327126661 79.72393331667146 L 1067.8132592263237 79.61673332344074 L 1067.7902583629118 79.50942399001515 L 1067.7696324224974 79.40201604723862 L 1067.7513834676572 79.29452023581591 L 1067.7355133232718 79.18694730523859 L 1067.7220235763423 79.07930801271009 L 1067.7109155758321 78.97161312206994 L 1067.702190432532 78.86387340271747 L 1067.695849018949 78.75609962853483 L 1067.6918919692193 78.64830257680963 L 1067.6903196790447 78.5404930271572 L 1067.6911323056527 78.43268176044268 L 1067.6943297677813 78.32487955770289 L 1067.699911745687 78.21709719906826 L 1067.7078776811766 78.10934546268486 L 1067.7182267776634 78.00163512363652 L 1067.7309580002461 77.89397695286739 L 1067.7460700758133 77.78638171610483 L 1067.7635614931698 77.67886017278285 L 1067.7834305031886 77.57142307496619 L 1067.8056751189854 77.4640811662751 L 1067.8302931161168 77.35684518081099 L 1067.8572820328038 77.24972584208304 L 1067.8866391701772 77.14273386193588 L 1067.9183615925476 77.03587993947833 L 1067.9524461276994 76.92917476001364 L 1067.9888893672075 76.82262899397078 L 1068.0276876667783 76.7162532958376 L 1068.068837146614 76.61005830309527 L 1068.112333691801 76.50405463515456 L 1068.158172952721 76.39825289229391 L 1068.2063503454863 76.29266365459947 L 1068.2568610523974 76.187297480907 L 1068.3097000224261 76.08216490774608 L 1068.3648619717192 75.97727644828639 L 1068.4223413841278 75.87264259128648 L 1068.4821325117587 75.76827380004487 L 1068.5442293755486 75.66418051135369 L 1068.608625765863 75.56037313445508 L 1068.6753152431168 75.45686205000021 L 1068.7442911384176 75.3536576090113 L 1068.8155465542334 75.2507701318464 L 1068.889074365082 75.1482099071675 L 1068.9648672182436 75.04598719091162 L 1069.0429175344962 74.9441122052652 L 1069.1232175088728 74.84259513764188 L 1069.2057591114433 74.74144613966385 L 1069.2905340881161 74.6406753261466 L 1069.377533961464 74.54029277408755 L 1069.4667500315725 74.4403085216582 L 1069.5581733769084 74.34073256720049 L 1069.651794855214 74.24157486822689 L 1069.747605104419 74.14284534042467 L 1069.8455945435787 74.04455385666434 L 1069.9457533738305 73.94671024601234 L 1070.048071579375 73.84932429274824 L 1070.1525389284768 73.75240573538618 L 1070.2591449744882 73.65596426570113 L 1070.3678790568936 73.56000952775972 L 1070.478730302375 73.46455111695575 L 1070.5916876259002 73.36959857905077 L 1070.7067397318312 73.27516140921944 L 1070.8238751150534 73.18124905110005 L 1070.943082062126 73.08787089585014 L 1071.0643486524534 72.99503628120743 L 1071.1876627594777 72.90275449055602 L 1071.3130120518913 72.81103475199808 L 1071.4403839948689 72.71988623743101 L 1071.5697658513227 72.62931806163034 L 1071.7011446831748 72.53933928133816 L 1071.8345073526514 72.44995889435752 L 1071.9698405235968 72.36118583865263 L 1072.1071306628066 72.2730289914551 L 1072.2463640413814 72.18549716837617 L 1072.3875267360993 72.0985991225252 L 1072.5306046308085 72.01234354363439 L 1072.6755834178387 71.9267390571897 L 1072.822448599432 71.84179422356848 L 1072.9711854891925 71.7575175371833 L 1073.1217792135556 71.67391742563255 L 1073.2742147132738 71.59100224885773 L 1073.4284767449246 71.50878029830743 L 1073.5845498824333 71.42725979610816 L 1073.7424185186162 71.34644889424223 L 1073.902066866741 71.26635567373248 L 1074.0634789621063 71.18698814383421 L 1074.2266386636365 71.10835424123428 L 1074.3915296554983 71.03046182925742 L 1074.5581354487292 70.95331869707991 L 1074.7264393828889 70.8769325589507 L 1074.8964246277242 70.80131105341991 L 1075.0680741848525 70.72646174257511 L 1075.2413708894608 70.65239211128501 L 1075.4162974120234 70.579109566451 L 1075.5928362600334 70.5066214362665 L 1075.7709697797536 70.43493496948412 L 1075.95068015798 70.3640573346908 L 1076.131949423825 70.29399561959096 L 1076.3147594505128 70.22475683029771 L 1076.499091957193 70.1563478906323 L 1076.6849285107687 70.08877564143168 L 1076.8722505277392 70.02204683986446 L 1077.0610392760593 69.9561681587552 L 1077.251275877011 69.8911461859171 L 1077.4429413070932 69.82698742349325 L 1077.6360163999223 69.76369828730645 L 1077.83048184815 69.70128510621757 L 1078.0263182053934 69.6397541214927 L 1078.2235058881804 69.57911148617904 L 1078.4220251779066 69.51936326448958 L 1078.6218562228084 69.46051543119673 L 1078.8229790399485 69.40257387103475 L 1079.025373517212 69.34554437811137 L 1079.2290194153202 69.28943265532837 L 1079.433896369853 69.23424431381126 L 1079.6399838932857 69.1799848723482 L 1079.8472613770377 69.12665975683814 L 1080.0557080935332 69.07427429974817 L 1080.2653031982743 69.02283373958036 L 1080.4760257319253 68.97234322034787 L 1080.6878546224084 68.9228077910605 L 1080.900768687011 68.87423240521996 L 1081.114746634504 68.82662192032431 L 1081.3297670672712 68.77998109738239 L 1081.5458084834484 68.73431460043761 L 1081.762849279074 68.68962699610162 L 1081.9808677502492 68.64592275309762 L 1082.199842095309 68.60320624181347 L 1082.4197504170006 68.56148173386472 L 1082.6405707246759 68.52075340166739 L 1082.8622809364874 68.48102531802076 L 1083.0848588815993 68.44230145570006 L 1083.3082823024024 68.4045856870593 L 1083.5325288567406 68.36788178364388 L 1083.7575761201456 68.33219341581358 L 1083.9834015880783 68.29752415237542 L 1084.2099826781803 68.26387746022687 L 1084.4372967325314 68.23125670400908 L 1084.6653210199156 68.19966514577052 L 1084.894032738094 68.16910594464068 L 1085.1234090160856 68.1395821565142 L 1085.3534269164536 68.11109673374527 L 1085.5840634375998 68.08365252485247 L 1085.8152955160642 68.05725227423379 L 1086.0471000288317 68.03189862189231 L 1086.279453795644 68.00759410317211 L 1086.5123335813182 67.98434114850484 L 1086.7457160980698 67.96214208316657 L 1086.9795780078414 67.94099912704533 L 1087.2138959246372 67.92091439441914 L 1087.4486464168608 67.9018898937445 L 1087.6838060096584 67.88392752745563 L 1087.9193511872668 67.86702909177419 L 1088.1552583953644 67.85119627652966 L 1088.3915040434272 67.8364306649904 L 1088.628064507087 67.82273373370522 L 1088.8649161304947 67.81010685235586 L 1089.1020352286853 67.79855128361993 L 1089.3393980899468 67.78806818304466 L 1089.5769809781905 67.77865859893137 L 1089.814760135326 67.77032347223066 L 1090.0527117836352 67.76306363644822 L 1090.290812128152 67.75687981756161 L 1090.52903735904 67.75177263394752 L 1090.767363653975 67.74774259632011 L 1091.0057671805262 67.74479010767975 L 1091.244224098539 67.74291546327285 L 1091.4827105625209 67.74211885056229 L 1091.721202724024 67.74240034920868 L 1091.9596767340308 67.74375993106239 L 1092.1981087453391 67.74619746016636 L 1092.4364749149465 67.74971269276972 L 1092.674751406435 67.75430527735213 L 1092.9129143923533 67.75997475465897 L 1093.150940056602 67.76672055774722 L 1093.3888045968124 67.7745420120422 L 1093.6264842267292 67.78343833540501 L 1093.863955178587 67.7934086382107 L 1094.101193705489 67.80445192343733 L 1094.3381760837801 67.81656708676556 L 1094.5748786154197 67.82975291668915 L 1094.811277630352 67.84400809463611 L 1095.0473494888724 67.85933119510051 L 1095.2830705839922 67.87572068578508 L 1095.5184173437979 67.89317492775442 L 1095.7533662338096 67.91169217559886 L 1095.9878937593346 67.93127057760906 L 1096.2219764678152 67.95190817596112 L 1096.455590951176 67.97360290691242 L 1096.6887138481632 67.99635260100793 L 1096.9213218466812 68.0201549832972 L 1097.1533916861242 68.04500767356186 L 1097.3849001597018 68.07090818655355 L 1097.615824116759 68.0978539322426 L 1097.8461404650934 68.12584221607686 L 1098.0758261732612 68.15487023925128 L 1098.3048582728836 68.18493509898775 L 1098.5332138609413 68.21603378882533 L 1098.7608701020658 68.24816319892096 L 1098.9878042308226 68.2813201163604 L 1099.213993553988 68.31550122547955 L 1099.4394154528181 68.35070310819597 L 1099.6640473853113 68.38692224435073 L 1099.8878668884608 68.42415501206038 L 1100.1108515805033 68.4623976880792 L 1100.3329791631554 68.50164644817144 L 1100.554227423844 68.5418973674938 L 1100.774574237927 68.5831464209879 L 1100.993997570907 68.62538948378277 L 1101.2124754806334 68.66862233160731 L 1101.4299861194972 68.71284064121278 L 1101.646507736616 68.75803999080506 L 1101.8620186800085 68.80421586048686 L 1102.0764973987598 68.8513636327097 L 1102.2899224451767 68.89947859273563 L 1102.5022724769326 68.94855592910876 L 1102.7135262592012 68.99859073413636 L 1102.9236626667805 69.04957800437958 L 1103.1326606862046 69.10151264115393 L 1103.3404994178456 69.15438945103898 L 1103.547158078004 69.20820314639782 L 1103.7526160009857 69.26294834590577 L 1103.9568526411697 69.31861957508848 L 1104.159847575062 69.37521126686941 L 1104.3615805033387 69.43271776212659 L 1104.5620312528747 69.49113331025838 L 1104.7611797787624 69.55045206975865 L 1104.959006166315 69.6106681088009 L 1105.1554906330587 69.67177540583138 L 1105.3506135307102 69.73376785017133 L 1105.544355347143 69.79663924262796 L 1105.7366967083365 69.86038329611443 L 1105.927618380315 69.92499363627851 L 1106.1171012710702 69.99046380214003 L 1106.305126432471 70.05678724673693 L 1106.491675062158 70.12395733778007 L 1106.6767285054239 70.19196735831628 L 1106.8602682570781 70.2608105074002 L 1107.0422759632988 70.33047990077428 L 1107.2227334234667 70.40096857155726 L 1107.4016225919866 70.47226947094077 L 1107.5789255800905 70.54437546889432 L 1107.7546246576271 70.61727935487819 L 1107.9287022548356 70.69097383856453 L 1108.1011409641008 70.7654515505664 L 1108.2719235416957 70.84070504317464 L 1108.441032909505 70.91672679110272 L 1108.6084521567327 70.99350919223919 L 1108.7741645415936 71.07104456840791 L 1108.9381534929873 71.14932516613591 L 1109.1004026121552 71.22834315742861 L 1109.2608956743209 71.30809064055276 L 1109.4196166303116 71.38855964082649 L 1109.5765496081642 71.46974211141682 L 1109.7316789147117 71.55162993414437 L 1109.8849890371523 71.6342149202951 L 1110.0364646446021 71.71748881143918 L 1110.1860905896262 71.80144328025693 L 1110.3338519097551 71.88606993137142 L 1110.4797338289795 71.97136030218806 L 1110.6237217592295 72.05730586374082 L 1110.7658013018317 72.14389802154521 L 1110.9059582489504 72.23112811645758 L 1111.0441785850076 72.31898742554114 L 1111.180448488085 72.40746716293819 L 1111.3147543313057 72.49655848074872 L 1111.4470826841975 72.58625246991521 L 1111.5774203140352 72.67654016111346 L 1111.7057541871645 72.76741252564963 L 1111.8320714703052 72.85886047636295 L 1111.9563595318339 72.95087486853458 L 1112.0786059430484 73.04344650080199 L 1112.198798479409 73.13656611607907 L 1112.3169251217626 73.2302244024819 L 1112.4329740575433 73.32441199425989 L 1112.5469336819542 73.41911947273236 L 1112.6587925991278 73.51433736723038 L 1112.7685396232657 73.61005615604385 L 1112.8761637797568 73.70626626737365 L 1112.9816543062752 73.80295808028882 L 1113.0850006538565 73.90012192568864 L 1113.1861924879513 73.99774808726954 L 1113.2852196894612 74.09582680249675 L 1113.3820723557483 74.19434826358044 L 1113.4767408016266 74.29330261845661 L 1113.5692155603306 74.39267997177224 L 1113.6594873844613 74.49247038587482 L 1113.7475472469116 74.59266388180609 L 1113.8333863417688 74.69325044029995 L 1113.9169960851946 74.79422000278437 L 1113.9983681162846 74.89556247238725 L 1114.0774942979035 74.99726771494608 L 1114.154366717499 75.09932556002136 L 1114.2289776878931 75.20172580191361 L 1114.3013197480511 75.304458200684 L 1114.3713856638274 75.40751248317825 L 1114.4391684286884 75.510878344054 L 1114.5046612644144 75.61454544681129 L 1114.5678576217763 75.71850342482624 L 1114.6287511811909 75.82274188238767 L 1114.6873358533535 75.9272503957367 L 1114.743605779845 76.03201851410908 L 1114.7975553337203 76.13703576078028 L 1114.8491791200684 76.24229163411314 L 1114.8984719765542 76.34777560860806 L 1114.9454289739326 76.45347713595547 L 1114.9900454165436 76.55938564609073 L 1115.0323168427797 76.66549054825109 L 1115.0722390255335 76.77178123203474 L 1115.10980797262 76.87824706846187 L 1115.1450199271762 76.98487741103759 L 1115.1778713680355 77.09166159681648 L 1115.2083590100813 77.19858894746895 L 1115.236479804575 77.30564877034905 L 1115.2622309394606 77.41283035956369 L 1115.2856098396455 77.52012299704329 L 1115.30661416726 77.62751595361348 L 1115.325241821888 77.73499849006812 L 1115.3414909407804 77.84255985824313 L 1115.3553598990384 77.95018930209135 L 1115.3668473097775 78.05787605875803 L 1115.3759520242668 78.16560935965728 L 1115.3826731320419 78.27337843154879 L 1115.387009960998 78.38117249761517 L 1115.3889620774555 78.48898077853964 M 1115.3890830675116 112.82724919310002 L 1115.387890607608 112.93505973801663 L 1115.3843133471419 113.04285950196861 L 1115.3783516438364 113.15063770506937 L 1115.3700060938572 113.25838356958842 L 1115.359277531752 113.3660863210291 L 1115.3461670303682 113.47373518920602 L 1115.3306759007448 113.58131940932206 L 1115.3128056919822 113.68882822304487 L 1115.2925581910863 113.79625087958267 L 1115.26993542279 113.90357663675931 L 1115.2449396493516 114.01079476208854 L 1115.2175733703277 114.11789453384714 L 1115.187839322323 114.2248652421472 L 1115.155740478718 114.33169619000704 L 1115.1212800493697 114.43837669442088 L 1115.084461480293 114.54489608742719 L 1115.0452884533138 114.65124371717545 L 1115.003764885702 114.75740894899127 L 1114.95989492978 114.86338116643998 L 1114.9136829725066 114.96914977238812 L 1114.8651336350392 115.07470419006324 L 1114.8142517722713 115.18003386411154 L 1114.7610424723462 115.28512826165338 L 1114.70551105615 115.38997687333661 L 1114.6476630767781 115.4945692143874 L 1114.5875043189799 115.59889482565882 L 1114.5250407985811 115.70294327467668 L 1114.4602787618821 115.8067041566828 L 1114.393224685032 115.91016709567542 L 1114.323885273383 116.01332174544687 L 1114.2522674608185 116.11615779061815 L 1114.1783784090599 116.21866494767042 L 1114.1022255069506 116.3208329659734 L 1114.023816369718 116.4226516288104 L 1113.94315883821 116.5241107544 L 1113.8602609781124 116.62520019691416 L 1113.7751310791425 116.7259098474929 L 1113.6877776542192 116.82622963525507 L 1113.598209438612 116.9261495283055 L 1113.5064353890677 117.02565953473814 L 1113.4124646829155 117.12474970363529 L 1113.316306717147 117.22341012606262 L 1113.2179711074787 117.32163093606012 L 1113.11746768739 117.41940231162862 L 1113.0148065071387 117.51671447571204 L 1112.9099978327577 117.61355769717508 L 1112.8030521450269 117.7099222917763 L 1112.693980138426 117.80579862313651 L 1112.5827927200646 117.90117710370251 L 1112.469501008592 117.99604819570571 L 1112.3541163330851 118.09040241211596 L 1112.236650231915 118.18423031759026 L 1112.1171144515943 118.27752252941625 L 1111.995520945601 118.37026971845049 L 1111.8718818731845 118.46246261005135 L 1111.746209598149 118.55409198500652 L 1111.6185166876176 118.64514868045485 L 1111.4888159107747 118.73562359080267 L 1111.3571202375897 118.82550766863436 L 1111.2234428375205 118.91479192561702 L 1111.0877970781955 119.00346743339938 L 1110.9501965240777 119.09152532450453 L 1110.8106549351078 119.17895679321676 L 1110.6691862653286 119.26575309646203 L 1110.5258046614888 119.35190555468239 L 1110.3805244616294 119.43740555270377 L 1110.2333601936498 119.52224454059764 L 1110.0843265738536 119.6064140345359 L 1109.9334385054788 119.68990561763931 L 1109.7807110772064 119.77271094081912 L 1109.626159561652 119.85482172361203 L 1109.4697994138385 119.93622975500818 L 1109.3116462696503 120.01692689427227 L 1109.15171594427 120.09690507175762 L 1108.9900244305968 120.17615628971313 L 1108.8265878976474 120.25467262308305 L 1108.661422688939 120.33244622029946 L 1108.4945453208547 120.40946930406747 L 1108.3259724809923 120.48573417214288 L 1108.155721026495 120.56123319810243 L 1107.983807982367 120.63595883210644 L 1107.810250539769 120.70990360165379 L 1107.6350660543005 120.78306011232915 L 1107.4582720442645 120.8554210485424 L 1107.2798861889144 120.92697917426023 L 1107.0999263266872 120.9977273337297 L 1106.918410453419 121.0676584521938 L 1106.7353567205462 121.13676553659899 L 1106.550783433289 121.2050416762944 L 1106.364709048823 121.27248004372296 L 1106.177152174431 121.33907389510412 L 1105.9881315656444 121.40481657110826 L 1105.7976661243665 121.46970149752254 L 1105.6057748969827 121.53372218590839 L 1105.4124770724559 121.59687223425034 L 1105.2177919804074 121.65914532759616 L 1105.0217390891842 121.72053523868843 L 1104.824338003912 121.78103582858718 L 1104.625608464535 121.84064104728385 L 1104.4255703438412 121.89934493430623 L 1104.2242436454762 121.95714161931456 L 1104.021648501942 122.01402532268847 L 1103.8178051725845 122.06999035610504 L 1103.612734041566 122.12503112310758 L 1103.4064556158294 122.17914211966524 L 1103.198990523045 122.23231793472345 L 1102.9903595095493 122.28455325074505 L 1102.7805834382698 122.33584284424194 L 1102.5696832866388 122.38618158629751 L 1102.3576801444958 122.43556444307951 L 1102.1445952119782 122.48398647634343 L 1101.9304497974017 122.53144284392627 L 1101.7152653151295 122.57792880023082 L 1101.4990632834304 122.62343969670022 L 1101.2818653223271 122.6679709822827 L 1101.063693151435 122.71151820388684 L 1100.8445685877896 122.75407700682678 L 1100.6245135436643 122.79564313525766 L 1100.4035500243801 122.8362124326013 L 1100.1817001261052 122.87578084196176 L 1099.9589860336441 122.91434440653109 L 1099.7354300182208 122.95189926998495 L 1099.5110544352501 122.9884416768683 L 1099.2858817221038 123.02396797297092 L 1099.0599343958654 123.05847460569278 L 1098.8332350510793 123.09195812439938 L 1098.6058063574908 123.12441518076675 L 1098.3776710577802 123.15584252911628 L 1098.1488519652867 123.18623702673935 L 1097.9193719617294 123.21559563421152 L 1097.6892539949174 123.2439154156965 L 1097.4585210764553 123.27119353923975 L 1097.227196279443 123.29742727705164 L 1096.995302736167 123.32261400578027 L 1096.762863635789 123.34675120677372 L 1096.529902222025 123.36983646633203 L 1096.296441790822 123.39186747594849 L 1096.062505688029 123.41284203254047 L 1095.8281173070611 123.4327580386698 L 1095.5933000865612 123.45161350275248 L 1095.3580775080554 123.46940653925779 L 1095.1224730936058 123.48613536889692 L 1094.8865104034576 123.50179831880087 L 1094.6502130336828 123.51639382268765 L 1094.4136046138217 123.52992042101907 L 1094.1767088045192 123.54237676114657 L 1093.9395492951587 123.5537615974465 L 1093.7021498014935 123.56407379144473 L 1093.464534063275 123.57331231193044 L 1093.2267258418794 123.5814762350593 L 1092.9887489179305 123.58856474444579 L 1092.750627088922 123.59457713124488 L 1092.5123841668387 123.59951279422289 L 1092.2740439757745 123.60337123981765 L 1092.0356303495494 123.6061520821878 L 1091.7971671293278 123.60785504325145 L 1091.5586781612326 123.60847995271388 L 1091.3201872939621 123.60802674808467 L 1091.0817183764043 123.60649547468392 L 1090.843295255252 123.6038862856377 L 1090.604941772619 123.60019944186271 L 1090.3666817636547 123.59543531204028 L 1090.1285390541614 123.58959437257941 L 1089.8905374582116 123.58267720756919 L 1089.6527007757668 123.57468450872035 L 1089.4150527902968 123.5656170752961 L 1089.1776172664024 123.55547581403226 L 1088.9404179474377 123.54426173904648 L 1088.7034785531373 123.53197597173691 L 1088.466822777243 123.51861974067006 L 1088.2304742851352 123.50419438145789 L 1087.9944567114662 123.48870133662433 L 1087.7587936577966 123.47214215546092 L 1087.5235086902355 123.45451849387197 L 1087.2886253370834 123.43583211420899 L 1087.0541670864802 123.41608488509436 L 1086.8201573840552 123.39527878123452 L 1086.586619630584 123.37341588322253 L 1086.353577179647 123.35049837732997 L 1086.1210533352953 123.32652855528833 L 1085.8890713497194 123.30150881405986 L 1085.6576544209247 123.2754416555978 L 1085.4268256904113 123.24832968659628 L 1085.1966082408596 123.22017561822963 L 1084.9670250938232 123.1909822658812 L 1084.738099207425 123.16075254886192 L 1084.509853474063 123.12948949011827 L 1084.2823107181202 123.0971962159301 L 1084.055493693683 123.06387595559791 L 1083.8294250822644 123.02953204111996 L 1083.6041274905374 122.99416790685909 L 1083.3796234480735 122.95778708919923 L 1083.1559354050896 122.92039322619186 L 1082.9330857302036 122.88199005719211 L 1082.7110967081976 122.84258142248487 L 1082.4899905377883 122.80217126290077 L 1082.2697893294092 122.7607636194221 L 1082.0505151029968 122.71836263277869 L 1081.8321897857916 122.67497254303389 L 1081.6148352101434 122.63059768916051 L 1081.3984731113283 122.58524250860694 L 1081.183125125376 122.53891153685346 L 1080.9688127869056 122.49160940695863 L 1080.7555575269726 122.44334084909602 L 1080.543380670925 122.39411069008119 L 1080.3323034362718 122.34392385288903 L 1080.1223469305605 122.29278535616142 L 1079.9135321492665 122.24070031370543 L 1079.7058799736942 122.1876739339819 L 1079.499411168888 122.1337115195846 L 1079.2941463815564 122.07881846671 L 1079.0901061380068 122.02300026461768 L 1078.887310842094 121.96626249508128 L 1078.6857807731783 121.90861083183052 L 1078.4855360840984 121.85005103998367 L 1078.286596799157 121.7905889754711 L 1078.0889828121162 121.73023058444971 L 1077.8927138842103 121.66898190270831 L 1077.6978096421685 121.60684905506405 L 1077.5042895762524 121.54383825474989 L 1077.3121730383077 121.47995580279337 L 1077.121479239828 121.41520808738645 L 1076.932227250034 121.3496015832467 L 1076.744435993967 121.28314285096988 L 1076.5581242505964 121.21583853637382 L 1076.373310650941 121.14769536983391 L 1076.190013676207 121.07872016561001 L 1076.0082516559387 121.00891982116505 L 1075.828042766187 120.93830131647532 L 1075.6494050276908 120.86687171333244 L 1075.472356304075 120.79463815463721 L 1075.2969143000641 120.72160786368529 L 1075.1230965597126 120.64778814344493 L 1074.9509204646497 120.57318637582662 L 1074.7804032323415 120.49781002094497 L 1074.6115619143688 120.42166661637263 L 1074.444413394723 120.34476377638664 L 1074.2789743881165 120.2671091912069 L 1074.1152614383125 120.1887106262272 L 1073.953290916469 120.10957592123873 L 1073.7930790195037 120.02971298964601 L 1073.6346417684726 119.9491298176757 L 1073.477995006969 119.8678344635778 L 1073.323154399538 119.78583505681998 L 1073.1701354301117 119.70313979727459 L 1073.0189534004594 119.61975695439867 L 1072.869623428658 119.53569486640703 L 1072.7221604475806 119.45096193943841 L 1072.5765792034022 119.36556664671491 L 1072.4328942541256 119.27951752769461 L 1072.2911199681264 119.19282318721774 L 1072.1512705227149 119.10549229464607 L 1072.0133599027192 119.01753358299611 L 1071.8774018990862 118.92895584806571 L 1071.7434101075032 118.83976794755455 L 1071.6113979270374 118.74997880017835 L 1071.4813785587971 118.65959738477704 L 1071.3533650046106 118.56863273941686 L 1071.2273700657267 118.47709396048649 L 1071.1034063415343 118.38499020178757 L 1070.9814862283026 118.29233067361923 L 1070.8616219179412 118.19912464185705 L 1070.7438253967812 118.10538142702656 L 1070.6281084443767 118.01111040337108 L 1070.5144826323267 117.91632099791445 L 1070.402959323117 117.82102268951823 L 1070.2935496689865 117.72522500793383 L 1070.1862646108088 117.62893753284956 L 1070.0811148770006 117.53216989293273 L 1069.9781109824476 117.43493176486666 L 1069.8772632274533 117.33723287238314 L 1069.7785816967091 117.23908298529 L 1069.6820762582863 117.14049191849415 L 1069.5877565626477 117.04146953102013 L 1069.4956320416848 116.94202572502415 L 1069.4057119077725 116.84217044480394 L 1069.3180051528495 116.74191367580433 L 1069.2325205475183 116.64126544361865 L 1069.149266640168 116.54023581298625 L 1069.0682517561202 116.43883488678601 L 1068.9894839967953 116.33707280502605 L 1068.912971238904 116.23495974382973 L 1068.8387211336583 116.1325059144181 L 1068.7667411060065 116.02972156208871 L 1068.697038353892 115.92661696519113 L 1068.6296198475313 115.82320243409914 L 1068.5644923287193 115.71948831017968 L 1068.5016623101535 115.61548496475869 L 1068.4411360747833 115.51120279808407 L 1068.382919675182 115.40665223828556 L 1068.3270189329405 115.30184374033203 L 1068.273439438087 115.19678778498594 L 1068.2221865485265 115.09149487775527 L 1068.1732653895044 114.98597554784298 L 1068.1266808530968 114.88024034709416 L 1068.0824375977177 114.77429984894077 L 1068.0405400476563 114.66816464734433 L 1068.0009923926325 114.56184535573654 L 1067.963798587379 114.455352605958 L 1067.928962351245 114.3486970471949 L 1067.8964871678254 114.24188934491428 L 1067.8663762846113 114.13494017979733 L 1067.8386327126661 114.02786024667145 L 1067.8132592263237 113.92066025344073 L 1067.7902583629118 113.81335092001514 L 1067.7696324224974 113.7059429772386 L 1067.7513834676572 113.5984471658159 L 1067.7355133232718 113.49087423523858 L 1067.7220235763423 113.38323494271008 L 1067.7109155758321 113.27554005206993 L 1067.702190432532 113.16780033271746 L 1067.695849018949 113.06002655853482 L 1067.6918919692193 112.95222950680962 L 1067.6903196790447 112.84441995715719" stroke-miterlimit="10" stroke-width="2.7769845610000004" stroke-dasharray=""/></g><g><text fill="black" stroke="none" font-family="sans-serif" font-size="11pt" font-style="normal" font-weight="normal" text-decoration="normal" x="1060.1617413032225" y="141.136156512" text-anchor="start" dominant-baseline="alphabetic" xml:space="preserve">Database</text></g></g><g><path fill="white" stroke="black" paint-order="fill stroke markers" d=" M 330.6052406055989 199.942888392 L 346.9404439055989 199.942888392 L 346.9404439055989 1596.6027705420001 L 330.6052406055989 1596.6027705420001 L 330.6052406055989 199.942888392" stroke-miterlimit="10" stroke-width="1.3612669416666667" stroke-dasharray=""/><path fill="white" stroke="black" paint-order="fill stroke markers" d=" M 542.4837283485025 513.578791752 L 558.8189316485026 513.578791752 L 558.8189316485026 559.317360992 L 542.4837283485025 559.317360992 L 542.4837283485025 513.578791752" stroke-miterlimit="10" stroke-width="1.3612669416666667" stroke-dasharray=""/><path fill="white" stroke="black" paint-order="fill stroke markers" d=" M 666.9807105887043 784.7431665319998 L 683.3159138887044 784.7431665319998 L 683.3159138887044 1661.9435837419999 L 666.9807105887043 1661.9435837419999 L 666.9807105887043 784.7431665319998" stroke-miterlimit="10" stroke-width="1.3612669416666667" stroke-dasharray=""/><path fill="white" stroke="black" paint-order="fill stroke markers" d=" M 879.2601984191078 830.4817357719998 L 895.5954017191079 830.4817357719998 L 895.5954017191079 967.6974434919996 L 879.2601984191078 967.6974434919996 L 879.2601984191078 830.4817357719998" stroke-miterlimit="10" stroke-width="1.3612669416666667" stroke-dasharray=""/><path fill="white" stroke="black" paint-order="fill stroke markers" d=" M 1083.3720845995115 876.2203050119997 L 1099.7072878995116 876.2203050119997 L 1099.7072878995116 921.9588742519996 L 1083.3720845995115 921.9588742519996 L 1083.3720845995115 876.2203050119997" stroke-miterlimit="10" stroke-width="1.3612669416666667" stroke-dasharray=""/><path fill="white" stroke="black" paint-order="fill stroke markers" d=" M 675.1483122387043 1051.0069803219997 L 691.4835155387044 1051.0069803219997 L 691.4835155387044 1096.7455495619997 L 675.1483122387043 1096.7455495619997 L 675.1483122387043 1051.0069803219997" stroke-miterlimit="10" stroke-width="1.3612669416666667" stroke-dasharray=""/><path fill="white" stroke="black" paint-order="fill stroke markers" d=" M 879.2601984191078 1343.407119392 L 895.5954017191079 1343.407119392 L 895.5954017191079 1480.622827112 L 879.2601984191078 1480.622827112 L 879.2601984191078 1343.407119392" stroke-miterlimit="10" stroke-width="1.3612669416666667" stroke-dasharray=""/><path fill="white" stroke="black" paint-order="fill stroke markers" d=" M 1083.3720845995115 1389.145688632 L 1099.7072878995116 1389.145688632 L 1099.7072878995116 1434.884257872 L 1083.3720845995115 1434.884257872 L 1083.3720845995115 1389.145688632" stroke-miterlimit="10" stroke-width="1.3612669416666667" stroke-dasharray=""/><g><g><rect fill="white" stroke="none" x="119.76772493260414" y="178.707124102" width="180.91340889039063" height="21.23576429"/></g><text fill="black" stroke="none" font-family="sans-serif" font-size="11pt" font-style="normal" font-weight="normal" text-decoration="normal" x="122.21800542760414" y="193.40880707199997" text-anchor="start" dominant-baseline="alphabetic" xml:space="preserve">Go to Users In Group page</text></g><g><path fill="none" stroke="black" paint-order="fill stroke markers" d=" M 89.84361815 199.942888392 L 317.15592322193226 199.942888392" stroke-miterlimit="10" stroke-width="1.3612669416666667" stroke-dasharray=""/><g transform="translate(330.6052406055989,199.942888392) translate(-330.6052406055989,-199.942888392)"><path fill="black" stroke="none" paint-order="stroke fill markers" d=" M 316.99257118893223 193.13655368366665 L 330.6052406055989 199.942888392 L 316.99257118893223 206.74922310033332 Z"/></g></g><g><g><rect fill="white" stroke="none" x="133.2215670956901" y="224.445693342" width="154.00572456421875" height="21.23576429"/></g><text fill="black" stroke="none" font-family="sans-serif" font-size="11pt" font-style="normal" font-weight="normal" text-decoration="normal" x="135.67184759069008" y="239.14737631199998" text-anchor="start" dominant-baseline="alphabetic" xml:space="preserve">Click button Add Users</text></g><g><path fill="none" stroke="black" paint-order="fill stroke markers" d=" M 89.84361815 245.681457632 L 317.15592322193226 245.681457632" stroke-miterlimit="10" stroke-width="1.3612669416666667" stroke-dasharray=""/><g transform="translate(330.6052406055989,245.681457632) translate(-330.6052406055989,-245.681457632)"><path fill="black" stroke="none" paint-order="stroke fill markers" d=" M 316.99257118893223 238.87512292366665 L 330.6052406055989 245.681457632 L 316.99257118893223 252.48779234033333 Z"/></g></g><path fill="none" stroke="none"/><g><g/><path fill="white" stroke="black" paint-order="fill stroke markers" d=" M 262.1240623963411 270.184262582 L 415.42162211485675 270.184262582 L 415.42162211485675 343.692677432 L 262.1240623963411 343.692677432 L 262.1240623963411 270.184262582 Z" stroke-miterlimit="10" stroke-width="2.3336004714285714" stroke-dasharray=""/><path fill="white" stroke="black" paint-order="fill stroke markers" d=" M 262.1240623963411 270.184262582 L 262.1240623963411 289.786506542 L 309.7891436789583 289.786506542 L 319.5902656589583 279.985384562 L 319.5902656589583 270.184262582 L 262.1240623963411 270.184262582" stroke-miterlimit="10" stroke-width="2.3336004714285714" stroke-dasharray=""/><text fill="black" stroke="none" font-family="sans-serif" font-size="8.8pt" font-style="normal" font-weight="bold" text-decoration="normal" x="278.4592656963411" y="283.252425222" text-anchor="start" dominant-baseline="alphabetic" xml:space="preserve">ref</text></g><g><text fill="black" stroke="none" font-family="sans-serif" font-size="11pt" font-style="normal" font-weight="normal" text-decoration="normal" x="284.9933470163411" y="311.4889909262857" text-anchor="start" dominant-baseline="alphabetic" xml:space="preserve">Here we have</text><text fill="black" stroke="none" font-family="sans-serif" font-size="11pt" font-style="normal" font-weight="normal" text-decoration="normal" x="284.9933470163411" y="327.82419422628567" text-anchor="start" dominant-baseline="alphabetic" xml:space="preserve">external process</text></g><g><g><rect fill="white" stroke="none" x="118.13566774266273" y="368.19548238199997" width="184.17752327027344" height="21.23576429"/></g><text fill="black" stroke="none" font-family="sans-serif" font-size="11pt" font-style="normal" font-weight="normal" text-decoration="normal" x="120.58594823766273" y="382.89716535199994" text-anchor="start" dominant-baseline="alphabetic" xml:space="preserve">Display add Member popup</text></g><g><path fill="none" stroke="black" paint-order="fill stroke markers" d=" M 330.6052406055989 389.431246672 L 103.29293553366666 389.431246672" stroke-miterlimit="10" stroke-width="1.3612669416666667" stroke-dasharray="6.53408132"/><g transform="translate(89.84361815,389.431246672) translate(-89.84361815,-389.431246672)"><path fill="black" stroke="none" paint-order="stroke fill markers" d=" M 103.45628756666666 382.62491196366665 L 89.84361815 389.431246672 L 103.45628756666666 396.2375813803333 Z"/></g></g><g><g><rect fill="white" stroke="none" x="167.0368747128776" y="413.93405162199997" width="86.37510932984375" height="21.23576429"/></g><text fill="black" stroke="none" font-family="sans-serif" font-size="11pt" font-style="normal" font-weight="normal" text-decoration="normal" x="169.48715520787758" y="428.63573459199995" text-anchor="start" dominant-baseline="alphabetic" xml:space="preserve">Search User</text></g><g><path fill="none" stroke="black" paint-order="fill stroke markers" d=" M 89.84361815 435.169815912 L 317.15592322193226 435.169815912" stroke-miterlimit="10" stroke-width="1.3612669416666667" stroke-dasharray=""/><g transform="translate(330.6052406055989,435.169815912) translate(-330.6052406055989,-435.169815912)"><path fill="black" stroke="none" paint-order="stroke fill markers" d=" M 316.99257118893223 428.36348120366665 L 330.6052406055989 435.169815912 L 316.99257118893223 441.9761506203333 Z"/></g></g><g><g><rect fill="white" stroke="none" x="366.27043447726555" y="459.67262086200003" width="35.03657783570313" height="21.23576429"/></g><g><rect fill="white" stroke="none" x="366.27043447726555" y="476.007824162" width="156.88330329957031" height="21.23576429"/></g><g><rect fill="white" stroke="none" x="366.27043447726555" y="492.343027462" width="127.9570795446875" height="21.23576429"/></g><text fill="black" stroke="none" font-family="sans-serif" font-size="11pt" font-style="normal" font-weight="normal" text-decoration="normal" x="368.72071497226557" y="474.374303832" text-anchor="start" dominant-baseline="alphabetic" xml:space="preserve">GET</text><text fill="black" stroke="none" font-family="sans-serif" font-size="11pt" font-style="normal" font-weight="normal" text-decoration="normal" x="368.72071497226557" y="490.709507132" text-anchor="start" dominant-baseline="alphabetic" xml:space="preserve">/api/search?entity=user</text><text fill="black" stroke="none" font-family="sans-serif" font-size="11pt" font-style="normal" font-weight="normal" text-decoration="normal" x="368.72071497226557" y="507.044710432" text-anchor="start" dominant-baseline="alphabetic" xml:space="preserve">&amp;{paramToSearch}</text></g><g><path fill="none" stroke="black" paint-order="fill stroke markers" d=" M 346.9404439055989 513.578791752 L 529.0344109648358 513.578791752" stroke-miterlimit="10" stroke-width="1.3612669416666667" stroke-dasharray=""/><g transform="translate(542.4837283485025,513.578791752) translate(-542.4837283485025,-513.578791752)"><path fill="black" stroke="none" paint-order="stroke fill markers" d=" M 528.8710589318358 506.7724570436667 L 542.4837283485025 513.578791752 L 528.8710589318358 520.3851264603334 Z"/></g></g><g><g><rect fill="white" stroke="none" x="415.7908125900585" y="538.081596702" width="57.84254707398438" height="21.23576429"/></g><text fill="black" stroke="none" font-family="sans-serif" font-size="11pt" font-style="normal" font-weight="normal" text-decoration="normal" x="418.24109308505854" y="552.7832796719999" text-anchor="start" dominant-baseline="alphabetic" xml:space="preserve">User list</text></g><g><path fill="none" stroke="black" paint-order="fill stroke markers" d=" M 542.4837283485025 559.317360992 L 360.38976128926555 559.317360992" stroke-miterlimit="10" stroke-width="1.3612669416666667" stroke-dasharray="6.53408132"/><g transform="translate(346.9404439055989,559.317360992) translate(-346.9404439055989,-559.317360992)"><path fill="black" stroke="none" paint-order="stroke fill markers" d=" M 360.5531133222656 552.5110262836666 L 346.9404439055989 559.317360992 L 360.5531133222656 566.1236957003333 Z"/></g></g><g><g><rect fill="white" stroke="none" x="171.10629457371743" y="627.925214852" width="78.23626960816406" height="21.23576429"/></g><text fill="black" stroke="none" font-family="sans-serif" font-size="11pt" font-style="normal" font-weight="normal" text-decoration="normal" x="173.55657506871742" y="642.6268978219999" text-anchor="start" dominant-baseline="alphabetic" xml:space="preserve">No Options</text></g><g><path fill="none" stroke="black" paint-order="fill stroke markers" d=" M 330.6052406055989 649.160979142 L 103.29293553366666 649.160979142" stroke-miterlimit="10" stroke-width="1.3612669416666667" stroke-dasharray="6.53408132"/><g transform="translate(89.84361815,649.160979142) translate(-89.84361815,-649.160979142)"><path fill="black" stroke="none" paint-order="stroke fill markers" d=" M 103.45628756666666 642.3546444336666 L 89.84361815 649.160979142 L 103.45628756666666 655.9673138503333 Z"/></g></g><g><g><rect fill="white" stroke="none" x="120.59094423192055" y="717.7688330019998" width="179.26697029175781" height="21.23576429"/></g><text fill="black" stroke="none" font-family="sans-serif" font-size="11pt" font-style="normal" font-weight="normal" text-decoration="normal" x="123.04122472692055" y="732.4705159719998" text-anchor="start" dominant-baseline="alphabetic" xml:space="preserve">Select Users and click Add</text></g><g><path fill="none" stroke="black" paint-order="fill stroke markers" d=" M 89.84361815 739.0045972919999 L 317.15592322193226 739.0045972919999" stroke-miterlimit="10" stroke-width="1.3612669416666667" stroke-dasharray=""/><g transform="translate(330.6052406055989,739.0045972919999) translate(-330.6052406055989,-739.0045972919999)"><path fill="black" stroke="none" paint-order="stroke fill markers" d=" M 316.99257118893223 732.1982625836665 L 330.6052406055989 739.0045972919999 L 316.99257118893223 745.8109320003332 Z"/></g></g><g><g><rect fill="white" stroke="none" x="418.12878887861643" y="763.5074022419998" width="177.66357673707031" height="21.23576429"/></g><text fill="black" stroke="none" font-family="sans-serif" font-size="11pt" font-style="normal" font-weight="normal" text-decoration="normal" x="420.57906937361645" y="778.2090852119998" text-anchor="start" dominant-baseline="alphabetic" xml:space="preserve">POST:/api/group/{id}/users</text></g><g><path fill="none" stroke="black" paint-order="fill stroke markers" d=" M 346.9404439055989 784.7431665319998 L 653.5313932050376 784.7431665319998" stroke-miterlimit="10" stroke-width="1.3612669416666667" stroke-dasharray=""/><g transform="translate(666.9807105887043,784.7431665319998) translate(-666.9807105887043,-784.7431665319998)"><path fill="black" stroke="none" paint-order="stroke fill markers" d=" M 653.3680411720376 777.9368318236665 L 666.9807105887043 784.7431665319998 L 653.3680411720376 791.5495012403331 Z"/></g></g><g><g><rect fill="white" stroke="none" x="758.0611261838085" y="809.2459714819997" width="46.453859940195315" height="21.23576429"/></g><text fill="black" stroke="none" font-family="sans-serif" font-size="11pt" font-style="normal" font-weight="normal" text-decoration="normal" x="760.5114066788085" y="823.9476544519997" text-anchor="start" dominant-baseline="alphabetic" xml:space="preserve">get(id)</text></g><g><path fill="none" stroke="black" paint-order="fill stroke markers" d=" M 683.3159138887044 830.4817357719998 L 865.8108810354412 830.4817357719998" stroke-miterlimit="10" stroke-width="1.3612669416666667" stroke-dasharray=""/><g transform="translate(879.2601984191078,830.4817357719998) translate(-879.2601984191078,-830.4817357719998)"><path fill="black" stroke="none" paint-order="stroke fill markers" d=" M 865.6475290024412 823.6754010636664 L 879.2601984191078 830.4817357719998 L 865.6475290024412 837.2880704803331 Z"/></g></g><g><g><rect fill="white" stroke="none" x="966.256813189212" y="854.9845407219997" width="46.453859940195315" height="21.23576429"/></g><text fill="black" stroke="none" font-family="sans-serif" font-size="11pt" font-style="normal" font-weight="normal" text-decoration="normal" x="968.707093684212" y="869.6862236919997" text-anchor="start" dominant-baseline="alphabetic" xml:space="preserve">get(id)</text></g><g><path fill="none" stroke="black" paint-order="fill stroke markers" d=" M 895.5954017191079 876.2203050119997 L 1069.9227672158447 876.2203050119997" stroke-miterlimit="10" stroke-width="1.3612669416666667" stroke-dasharray=""/><g transform="translate(1083.3720845995115,876.2203050119997) translate(-1083.3720845995115,-876.2203050119997)"><path fill="black" stroke="none" paint-order="stroke fill markers" d=" M 1069.7594151828448 869.4139703036664 L 1083.3720845995115 876.2203050119997 L 1069.7594151828448 883.026639720333 Z"/></g></g><g><g><rect fill="white" stroke="none" x="950.3584519831574" y="900.7231099619996" width="78.25058235230469" height="21.23576429"/></g><text fill="black" stroke="none" font-family="sans-serif" font-size="11pt" font-style="normal" font-weight="normal" text-decoration="normal" x="952.8087324781574" y="915.4247929319996" text-anchor="start" dominant-baseline="alphabetic" xml:space="preserve">Group data</text></g><g><path fill="none" stroke="black" paint-order="fill stroke markers" d=" M 1083.3720845995115 921.9588742519996 L 909.0447191027746 921.9588742519996" stroke-miterlimit="10" stroke-width="1.3612669416666667" stroke-dasharray="6.53408132"/><g transform="translate(895.5954017191079,921.9588742519996) translate(-895.5954017191079,-921.9588742519996)"><path fill="black" stroke="none" paint-order="stroke fill markers" d=" M 909.2080711357746 915.1525395436663 L 895.5954017191079 921.9588742519996 L 909.2080711357746 928.765208960333 Z"/></g></g><g><g><rect fill="white" stroke="none" x="742.1627649777538" y="946.4616792019996" width="78.25058235230469" height="21.23576429"/></g><text fill="black" stroke="none" font-family="sans-serif" font-size="11pt" font-style="normal" font-weight="normal" text-decoration="normal" x="744.6130454727538" y="961.1633621719996" text-anchor="start" dominant-baseline="alphabetic" xml:space="preserve">Group data</text></g><g><path fill="none" stroke="black" paint-order="fill stroke markers" d=" M 879.2601984191078 967.6974434919996 L 696.765231272371 967.6974434919996" stroke-miterlimit="10" stroke-width="1.3612669416666667" stroke-dasharray="6.53408132"/><g transform="translate(683.3159138887044,967.6974434919996) translate(-683.3159138887044,-967.6974434919996)"><path fill="black" stroke="none" paint-order="stroke fill markers" d=" M 696.928583305371 960.8911087836663 L 683.3159138887044 967.6974434919996 L 696.928583305371 974.5037782003329 Z"/></g></g><g><g><rect fill="white" stroke="none" x="710.813506110371" y="992.2002484419996" width="92.09451545777344" height="21.23576429"/></g><g><rect fill="white" stroke="none" x="710.813506110371" y="1008.5354517419996" width="66.79744209351563" height="21.23576429"/></g><text fill="black" stroke="none" font-family="sans-serif" font-size="11pt" font-style="normal" font-weight="normal" text-decoration="normal" x="713.263786605371" y="1006.9019314119996" text-anchor="start" dominant-baseline="alphabetic" xml:space="preserve">Check group </text><text fill="black" stroke="none" font-family="sans-serif" font-size="11pt" font-style="normal" font-weight="normal" text-decoration="normal" x="713.263786605371" y="1023.2371347119996" text-anchor="start" dominant-baseline="alphabetic" xml:space="preserve">isEmpty()</text></g><g><path fill="none" stroke="black" paint-order="fill stroke markers" d=" M 683.3159138887044 1029.7712160319998 L 756.8243287387043 1029.7712160319998 L 756.8243287387043 1051.0069803219997 L 704.932832922371 1051.0069803219997" stroke-miterlimit="10" stroke-width="1.3612669416666667" stroke-dasharray=""/><g transform="translate(691.4835155387043,1051.0069803219997) translate(-691.4835155387043,-1051.0069803219997)"><path fill="black" stroke="none" paint-order="stroke fill markers" d=" M 705.096184955371 1044.2006456136664 L 691.4835155387043 1051.0069803219997 L 705.096184955371 1057.813315030333 Z"/></g></g><g><g><rect fill="white" stroke="none" x="710.813506110371" y="1075.5097852719996" width="97.82106269898438" height="21.23576429"/></g><text fill="black" stroke="none" font-family="sans-serif" font-size="11pt" font-style="normal" font-weight="normal" text-decoration="normal" x="713.263786605371" y="1090.2114682419997" text-anchor="start" dominant-baseline="alphabetic" xml:space="preserve">Boolean value</text></g><g><path fill="none" stroke="black" paint-order="fill stroke markers" d=" M 691.4835155387043 1096.7455495619997 L 756.8243287387043 1096.7455495619997 L 756.8243287387043 1117.9813138519996 L 696.7652312723709 1117.9813138519996" stroke-miterlimit="10" stroke-width="1.3612669416666667" stroke-dasharray="6.53408132"/><g transform="translate(683.3159138887042,1117.9813138519996) translate(-683.3159138887042,-1117.9813138519996)"><path fill="black" stroke="none" paint-order="stroke fill markers" d=" M 696.9285833053709 1111.1749791436664 L 683.3159138887042 1117.9813138519996 L 696.9285833053709 1124.7876485603329 Z"/></g></g><g><g><rect fill="white" stroke="none" x="446.6756333610383" y="1186.5891677119998" width="120.56988777222656" height="21.23576429"/></g><text fill="red" stroke="none" font-family="sans-serif" font-size="11pt" font-style="normal" font-weight="normal" text-decoration="normal" x="449.1259138560383" y="1201.290850682" text-anchor="start" dominant-baseline="alphabetic" xml:space="preserve">404 NOT FOUND</text></g><g><path fill="none" stroke="black" paint-order="fill stroke markers" d=" M 666.9807105887043 1207.8249320019997 L 360.38976128926555 1207.8249320019997" stroke-miterlimit="10" stroke-width="1.3612669416666667" stroke-dasharray="6.53408132"/><g transform="translate(346.9404439055989,1207.8249320019997) translate(-346.9404439055989,-1207.8249320019997)"><path fill="black" stroke="none" paint-order="stroke fill markers" d=" M 360.5531133222656 1201.0185972936665 L 346.9404439055989 1207.8249320019997 L 360.5531133222656 1214.631266710333 Z"/></g></g><g><g><rect fill="white" stroke="none" x="109.17360872166664" y="1232.327736952" width="202.10164131226563" height="21.23576429"/></g><text fill="black" stroke="none" font-family="sans-serif" font-size="11pt" font-style="normal" font-weight="normal" text-decoration="normal" x="111.62388921666664" y="1247.029419922" text-anchor="start" dominant-baseline="alphabetic" xml:space="preserve">Display 404 Not Found screen</text></g><g><path fill="none" stroke="black" paint-order="fill stroke markers" d=" M 330.6052406055989 1253.5635012419998 L 103.29293553366666 1253.5635012419998" stroke-miterlimit="10" stroke-width="1.3612669416666667" stroke-dasharray="6.53408132"/><g transform="translate(89.84361815,1253.5635012419998) translate(-89.84361815,-1253.5635012419998)"><path fill="black" stroke="none" paint-order="stroke fill markers" d=" M 103.45628756666666 1246.7571665336666 L 89.84361815 1253.5635012419998 L 103.45628756666666 1260.369835950333 Z"/></g></g><g><g><rect fill="white" stroke="none" x="706.729705285371" y="1322.171355102" width="149.11670173707031" height="21.23576429"/></g><text fill="black" stroke="none" font-family="sans-serif" font-size="11pt" font-style="normal" font-weight="normal" text-decoration="normal" x="709.179985780371" y="1336.873038072" text-anchor="start" dominant-baseline="alphabetic" xml:space="preserve">addMemberToGroup()</text></g><g><path fill="none" stroke="black" paint-order="fill stroke markers" d=" M 683.3159138887044 1343.407119392 L 865.8108810354412 1343.407119392" stroke-miterlimit="10" stroke-width="1.3612669416666667" stroke-dasharray=""/><g transform="translate(879.2601984191078,1343.407119392) translate(-879.2601984191078,-1343.407119392)"><path fill="black" stroke="none" paint-order="stroke fill markers" d=" M 865.6475290024412 1336.6007846836667 L 879.2601984191078 1343.407119392 L 865.6475290024412 1350.2134541003331 Z"/></g></g><g><g><rect fill="white" stroke="none" x="914.9253922907745" y="1367.909924342" width="149.11670173707031" height="21.23576429"/></g><text fill="black" stroke="none" font-family="sans-serif" font-size="11pt" font-style="normal" font-weight="normal" text-decoration="normal" x="917.3756727857746" y="1382.6116073120002" text-anchor="start" dominant-baseline="alphabetic" xml:space="preserve">addMemberToGroup()</text></g><g><path fill="none" stroke="black" paint-order="fill stroke markers" d=" M 895.5954017191079 1389.145688632 L 1069.9227672158447 1389.145688632" stroke-miterlimit="10" stroke-width="1.3612669416666667" stroke-dasharray=""/><g transform="translate(1083.3720845995115,1389.145688632) translate(-1083.3720845995115,-1389.145688632)"><path fill="black" stroke="none" paint-order="stroke fill markers" d=" M 1069.7594151828448 1382.3393539236667 L 1083.3720845995115 1389.145688632 L 1069.7594151828448 1395.9520233403332 Z"/></g></g><g><g><rect fill="white" stroke="none" x="987.0334626643097" y="1413.6484935820001" width="4.90056099" height="21.23576429"/></g><text fill="black" stroke="none" font-family="sans-serif" font-size="11pt" font-style="normal" font-weight="normal" text-decoration="normal" x="989.4837431593097" y="1428.3501765520002" text-anchor="start" dominant-baseline="alphabetic" xml:space="preserve"></text></g><g><path fill="none" stroke="black" paint-order="fill stroke markers" d=" M 1083.3720845995115 1434.884257872 L 909.0447191027746 1434.884257872" stroke-miterlimit="10" stroke-width="1.3612669416666667" stroke-dasharray="6.53408132"/><g transform="translate(895.5954017191079,1434.884257872) translate(-895.5954017191079,-1434.884257872)"><path fill="black" stroke="none" paint-order="stroke fill markers" d=" M 909.2080711357746 1428.0779231636668 L 895.5954017191079 1434.884257872 L 909.2080711357746 1441.6905925803333 Z"/></g></g><g><g><rect fill="white" stroke="none" x="778.8377756589061" y="1459.3870628220002" width="4.90056099" height="21.23576429"/></g><text fill="black" stroke="none" font-family="sans-serif" font-size="11pt" font-style="normal" font-weight="normal" text-decoration="normal" x="781.2880561539062" y="1474.0887457920003" text-anchor="start" dominant-baseline="alphabetic" xml:space="preserve"></text></g><g><path fill="none" stroke="black" paint-order="fill stroke markers" d=" M 879.2601984191078 1480.622827112 L 696.765231272371 1480.622827112" stroke-miterlimit="10" stroke-width="1.3612669416666667" stroke-dasharray="6.53408132"/><g transform="translate(683.3159138887044,1480.622827112) translate(-683.3159138887044,-1480.622827112)"><path fill="black" stroke="none" paint-order="stroke fill markers" d=" M 696.928583305371 1473.8164924036669 L 683.3159138887044 1480.622827112 L 696.928583305371 1487.4291618203333 Z"/></g></g><g><g><rect fill="white" stroke="none" x="479.6534623405305" y="1505.1256320620002" width="54.61422981324219" height="21.23576429"/></g><text fill="green" stroke="none" font-family="sans-serif" font-size="11pt" font-style="normal" font-weight="normal" text-decoration="normal" x="482.1037428355305" y="1519.8273150320003" text-anchor="start" dominant-baseline="alphabetic" xml:space="preserve">200 OK</text></g><g><path fill="none" stroke="black" paint-order="fill stroke markers" d=" M 666.9807105887043 1526.3613963520002 L 360.38976128926555 1526.3613963520002" stroke-miterlimit="10" stroke-width="1.3612669416666667" stroke-dasharray="6.53408132"/><g transform="translate(346.9404439055989,1526.3613963520002) translate(-346.9404439055989,-1526.3613963520002)"><path fill="black" stroke="none" paint-order="stroke fill markers" d=" M 360.5531133222656 1519.555061643667 L 346.9404439055989 1526.3613963520002 L 360.5531133222656 1533.1677310603334 Z"/></g></g><g><g><rect fill="white" stroke="none" x="110.40841096776039" y="1550.8642013020003" width="199.63203682007813" height="21.23576429"/></g><text fill="black" stroke="none" font-family="sans-serif" font-size="11pt" font-style="normal" font-weight="normal" text-decoration="normal" x="112.85869146276039" y="1565.5658842720004" text-anchor="start" dominant-baseline="alphabetic" xml:space="preserve">Display the list of group Users</text></g><g><path fill="none" stroke="black" paint-order="fill stroke markers" d=" M 330.6052406055989 1572.0999655920002 L 103.29293553366666 1572.0999655920002" stroke-miterlimit="10" stroke-width="1.3612669416666667" stroke-dasharray="6.53408132"/><g transform="translate(89.84361815,1572.0999655920002) translate(-89.84361815,-1572.0999655920002)"><path fill="black" stroke="none" paint-order="stroke fill markers" d=" M 103.45628756666666 1565.293630883667 L 89.84361815 1572.0999655920002 L 103.45628756666666 1578.9063003003334 Z"/></g></g><g><g/><path fill="none" stroke="black" paint-order="fill stroke markers" d=" M 16.335203300000003 583.820165942 L 1165.0481010995115 583.820165942 L 1165.0481010995115 1621.1055754920003 L 16.335203300000003 1621.1055754920003 L 16.335203300000003 583.820165942 Z" stroke-miterlimit="10" stroke-width="2.3336004714285714" stroke-dasharray=""/><path fill="white" stroke="black" paint-order="fill stroke markers" d=" M 16.335203300000003 583.820165942 L 16.335203300000003 603.422409902 L 62.694406897070316 603.422409902 L 72.49552887707031 593.621287922 L 72.49552887707031 583.820165942 L 16.335203300000003 583.820165942" stroke-miterlimit="10" stroke-width="2.3336004714285714" stroke-dasharray=""/><text fill="black" stroke="none" font-family="sans-serif" font-size="8.8pt" font-style="normal" font-weight="bold" text-decoration="normal" x="32.67040660000001" y="596.888328582" text-anchor="start" dominant-baseline="alphabetic" xml:space="preserve">alt</text><g><rect fill="white" stroke="none" x="86.38045168207032" y="585.126982206" width="204.32747139039063" height="16.988611432000003"/></g><text fill="black" stroke="none" font-family="sans-serif" font-size="8.8pt" font-style="normal" font-weight="bold" text-decoration="normal" x="88.83073217707032" y="596.888328582" text-anchor="start" dominant-baseline="alphabetic" xml:space="preserve">[If there is no user match condition]</text><g><path fill="none" stroke="black" paint-order="fill stroke markers" d=" M 16.335203300000003 673.6637840919999 L 1165.0481010995115 673.6637840919999" stroke-miterlimit="10" stroke-width="2.3336004714285714" stroke-dasharray="4.083800825"/></g><g/><g><rect fill="white" stroke="none" x="86.38045168207032" y="674.9706003559999" width="36.84300483765625" height="16.988611432000003"/></g><text fill="black" stroke="none" font-family="sans-serif" font-size="8.8pt" font-style="normal" font-weight="bold" text-decoration="normal" x="88.83073217707032" y="686.7319467319999" text-anchor="start" dominant-baseline="alphabetic" xml:space="preserve">[Else]</text></g><g/><g><g/><path fill="none" stroke="black" paint-order="fill stroke markers" d=" M 32.6704066 1142.4841188019998 L 1148.7128977995114 1142.4841188019998 L 1148.7128977995114 1596.6027705420001 L 32.6704066 1596.6027705420001 L 32.6704066 1142.4841188019998 Z" stroke-miterlimit="10" stroke-width="2.3336004714285714" stroke-dasharray=""/><path fill="white" stroke="black" paint-order="fill stroke markers" d=" M 32.6704066 1142.4841188019998 L 32.6704066 1162.0863627619997 L 79.02961019707031 1162.0863627619997 L 88.83073217707032 1152.2852407819998 L 88.83073217707032 1142.4841188019998 L 32.6704066 1142.4841188019998" stroke-miterlimit="10" stroke-width="2.3336004714285714" stroke-dasharray=""/><text fill="black" stroke="none" font-family="sans-serif" font-size="8.8pt" font-style="normal" font-weight="bold" text-decoration="normal" x="49.005609899999996" y="1155.5522814419996" text-anchor="start" dominant-baseline="alphabetic" xml:space="preserve">alt</text><g><rect fill="white" stroke="none" x="102.71565498207032" y="1143.7909350659997" width="94.16986335816406" height="16.988611432000003"/></g><text fill="black" stroke="none" font-family="sans-serif" font-size="8.8pt" font-style="normal" font-weight="bold" text-decoration="normal" x="105.16593547707032" y="1155.5522814419996" text-anchor="start" dominant-baseline="alphabetic" xml:space="preserve">[If group empty]</text><g><path fill="none" stroke="black" paint-order="fill stroke markers" d=" M 32.6704066 1278.066306192 L 1148.7128977995114 1278.066306192" stroke-miterlimit="10" stroke-width="2.3336004714285714" stroke-dasharray="4.083800825"/></g><g/></g><g/></g></g></svg>