<svg version="1.1" xmlns="http://www.w3.org/2000/svg" xmlns:xlink="http://www.w3.org/1999/xlink" width="1319" height="1671"><desc>title%20Remove%20User%20from%20Group%0A%0A%0Aactor%20%23green%3A0.5%20%22Workspace%20Admin%22%20as%20w%0Aboundary%20%22FUniverse%20Admin%20%5CnClient%22%20as%20f%0Acontrol%20%22Group%20%5CnController%22%20as%20gc%0Aparticipant%20%22Group%20Service%22%20as%20gs%0Aparticipant%20%22User%20Service%22%20as%20us%0Adatabase%20%23blue%3A1%20%22Database%22%20as%20db%0A%0Aw-%3Ef%3AGo%20to%20Users%20In%20Group%20page%0Aactivate%20f%0Aw-%3Ef%3AClick%20button%20Delete%20Users%0Aw%3C--f%3ADisplay%20Delete%20Member%20comfirmation%20popup%0Aw-%3Ef%3AClick%20Remove%20button%0Af-%3Egc%3ADELETE%3A%2Fapi%2Fgroup%2F%7Bgid%7D%2Fuser%2F%7Buid%7D%0Aactivate%20gc%0A%0Agc-%3Egs%3AisExist(gid)%0Aactivate%20gs%0Ags-%3Edb%3A%20existsById(id)%0Aactivate%20db%0Ags%3C--db%3ABoolean%20value%0Adeactivate%20db%0Agc%3C--gs%3ABoolean%20value%0Adeactivate%20gs%0A%0Agc-%3Eus%3AisExist(gid)%0Aactivate%20us%0Aus-%3Edb%3A%20existsById(id)%0Aactivate%20db%0Aus%3C--db%3ABoolean%20value%0Adeactivate%20db%0Agc%3C--us%3ABoolean%20value%0Adeactivate%20us%0A%0Aalt%20If%20Group%20or%20User%20does%20not%20exist%0Af%3C--gc%3A%3Ccolor%3A%23red%3E404%20NOT%20FOUND%3C%2Fcolor%3E%0Aw%3C--f%3A%20Display%20404%20Not%20Found%20screen%0Aelse%20Else%0A%0Agc-%3Egs%3AisUserExistInGroup(id)%0Aactivate%20gs%0Ags-%3Edb%3A%20get(id)%0Aactivate%20db%0Ags%3C--db%3ABoolean%20value%0Adeactivate%20db%0Agc%3C--gs%3ABoolean%20value%0Adeactivate%20gs%0A%0Aalt%20If%20user%20does%20not%20exist%20in%20the%20group%0Af%3C--gc%3A%3Ccolor%3A%23red%3E404%20NOT%20FOUND%3C%2Fcolor%3E%0Aw%3C--f%3A%20Display%20404%20Not%20Found%20screen%0Aelse%20Else%0Agc-%3Egs%3AdeleteUserFromGroup()%0Aactivate%20gs%0Ags-%3Edb%3AdeleteUserFromGroup()%0Aactivate%20db%0Ags%3C--db%3A%0Adeactivate%20db%0Agc%3C--gs%3A%0Adeactivate%20gs%0Af%3C--gc%3A%3Ccolor%3A%23green%3E200%20OK%3C%2Fcolor%3E%0Adeactivate%20gc%0Aw%3C--f%3A%20Display%20the%20list%20of%20group%20Users%0Adeactivate%20f%0Aend%20%0Aend</desc><defs/><g><g/><g/><g/><g/><g/><g/><g/><g/><g/><g/><g/><g/><g/><g/><g/><g/><g/><g/><g/><g/><g/><g/><g/><g/><g/><g/><g/><g/><g/><g/><g/><g/><g/><g/><g/><g><rect fill="white" stroke="none" x="0" y="0" width="1319" height="1671"/></g><g><text fill="black" stroke="none" font-family="sans-serif" font-size="16.5pt" font-style="normal" font-weight="normal" text-decoration="normal" x="533.7312478609362" y="24.50280495" text-anchor="start" dominant-baseline="alphabetic" xml:space="preserve">Remove User from Group</text></g><g/><g><path fill="none" stroke="black" paint-order="fill stroke markers" d=" M 89.84361815 146.036717502 L 89.84361815 1671.744705722" stroke-miterlimit="10" stroke-width="1.3612669416666667" stroke-dasharray="12.565541,5.445067766666667"/><path fill="none" stroke="black" paint-order="fill stroke markers" d=" M 426.74705490208333 146.036717502 L 426.74705490208333 1671.744705722" stroke-miterlimit="10" stroke-width="1.3612669416666667" stroke-dasharray="12.565541,5.445067766666667"/><path fill="none" stroke="black" paint-order="fill stroke markers" d=" M 712.3979272885417 146.036717502 L 712.3979272885417 1671.744705722" stroke-miterlimit="10" stroke-width="1.3612669416666667" stroke-dasharray="12.565541,5.445067766666667"/><path fill="none" stroke="black" paint-order="fill stroke markers" d=" M 927.8984853439454 146.036717502 L 927.8984853439454 1671.744705722" stroke-miterlimit="10" stroke-width="1.3612669416666667" stroke-dasharray="12.565541,5.445067766666667"/><path fill="none" stroke="black" paint-order="fill stroke markers" d=" M 1068.4856147170547 146.036717502 L 1068.4856147170547 1671.744705722" stroke-miterlimit="10" stroke-width="1.3612669416666667" stroke-dasharray="12.565541,5.445067766666667"/><path fill="none" stroke="black" paint-order="fill stroke markers" d=" M 1221.3018618593724 146.036717502 L 1221.3018618593724 1671.744705722" stroke-miterlimit="10" stroke-width="1.3612669416666667" stroke-dasharray="12.565541,5.445067766666667"/></g><g><g><path fill="white" stroke="green" paint-order="fill stroke markers" d=" M 99.154684031 76.93880754300004 A 9.311065881 9.311065881 0 1 1 99.15467937546744 76.92949647867087 M 89.84361815 86.24987342400003 L 89.84361815 106.17882145000003 M 78.08227177399999 93.43736287600004 L 101.604964526 93.43736287600004 M 89.84361815 106.17882145000003 L 78.08227177399999 124.80095321200002 M 89.84361815 106.17882145000003 L 101.604964526 124.80095321200002" stroke-miterlimit="10" stroke-width="1.3884922805000002" stroke-dasharray=""/></g><g><text fill="black" stroke="none" font-family="sans-serif" font-size="11pt" font-style="normal" font-weight="normal" text-decoration="normal" x="30.50219511533203" y="141.136156512" text-anchor="start" dominant-baseline="alphabetic" xml:space="preserve">Workspace Admin</text></g><g><path fill="white" stroke="black" paint-order="fill stroke markers" d=" M 459.17243345258333 82.819480731 A 24.2577769005 24.2577769005 0 1 1 459.1724213236959 82.79522295814245 M 395.7101686320833 57.17321154999999 L 395.7101686320833 108.465749912 M 394.32167635158333 82.819480731 L 410.6568796515833 82.819480731" stroke-miterlimit="10" stroke-width="2.7769845610000004" stroke-dasharray=""/></g><g><text fill="black" stroke="none" font-family="sans-serif" font-size="11pt" font-style="normal" font-weight="normal" text-decoration="normal" x="368.49725326634115" y="124.80095321200001" text-anchor="start" dominant-baseline="alphabetic" xml:space="preserve">FUniverse Admin </text><text fill="black" stroke="none" font-family="sans-serif" font-size="11pt" font-style="normal" font-weight="normal" text-decoration="normal" x="408.0069044504232" y="141.136156512" text-anchor="start" dominant-baseline="alphabetic" xml:space="preserve">Client</text></g><g><path fill="white" stroke="black" paint-order="fill stroke markers" d=" M 736.6557041890417 82.819480731 A 24.2577769005 24.2577769005 0 1 1 736.6556920601543 82.79522295814245 M 709.1308866285417 58.561703830499994 L 718.9320086085417 50.39410218049999 M 709.1308866285417 58.561703830499994 L 718.9320086085417 66.72930548049999" stroke-miterlimit="10" stroke-width="2.7769845610000004" stroke-dasharray=""/></g><g><text fill="black" stroke="none" font-family="sans-serif" font-size="11pt" font-style="normal" font-weight="normal" text-decoration="normal" x="689.9891977353191" y="124.80095321200001" text-anchor="start" dominant-baseline="alphabetic" xml:space="preserve">Group </text><text fill="black" stroke="none" font-family="sans-serif" font-size="11pt" font-style="normal" font-weight="normal" text-decoration="normal" x="680.6227121396159" y="141.136156512" text-anchor="start" dominant-baseline="alphabetic" xml:space="preserve">Controller</text></g><path fill="none" stroke="none"/><g><path fill="white" stroke="black" paint-order="fill stroke markers" d=" M 863.3244174489922 102.09502062500003 L 992.4725532388985 102.09502062500003 L 992.4725532388985 146.03671750200002 L 863.3244174489922 146.03671750200002 L 863.3244174489922 102.09502062500003 Z" stroke-miterlimit="10" stroke-width="2.613632528" stroke-dasharray=""/></g><g><text fill="black" stroke="none" font-family="sans-serif" font-size="11pt" font-style="normal" font-weight="normal" text-decoration="normal" x="881.0481130294922" y="129.701514202" text-anchor="start" dominant-baseline="alphabetic" xml:space="preserve">Group Service</text></g><path fill="none" stroke="none"/><g><path fill="white" stroke="black" paint-order="fill stroke markers" d=" M 1008.8077565388984 102.09502062500003 L 1128.1634728952108 102.09502062500003 L 1128.1634728952108 146.03671750200002 L 1008.8077565388984 146.03671750200002 L 1008.8077565388984 102.09502062500003 Z" stroke-miterlimit="10" stroke-width="2.613632528" stroke-dasharray=""/></g><g><text fill="black" stroke="none" font-family="sans-serif" font-size="11pt" font-style="normal" font-weight="normal" text-decoration="normal" x="1026.5314521193984" y="129.701514202" text-anchor="start" dominant-baseline="alphabetic" xml:space="preserve">User Service</text></g><g><path fill="white" stroke="blue" paint-order="fill stroke markers" d=" M 1197.4524650413723 114.01971903400002 L 1197.4524650413723 79.71579210400003 L 1245.1512586773724 79.71579210400003 L 1245.1512586773724 114.01971903400002" stroke-miterlimit="10" stroke-width="2.7769845610000004" stroke-dasharray=""/><path fill="white" stroke="blue" paint-order="fill stroke markers" d=" M 1245.1512586773724 78.52332226310003 L 1245.1500662174687 78.63113280801664 L 1245.1464889570027 78.73893257196862 L 1245.1405272536972 78.84671077506938 L 1245.132181703718 78.95445663958843 L 1245.1214531416128 79.06215939102911 L 1245.108342640229 79.16980825920604 L 1245.0928515106057 79.27739247932207 L 1245.074981301843 79.38490129304488 L 1245.0547338009471 79.49232394958268 L 1245.0321110326508 79.59964970675932 L 1245.0071152592125 79.70686783208855 L 1244.9797489801886 79.81396760384715 L 1244.9500149321839 79.92093831214721 L 1244.9179160885787 80.02776926000705 L 1244.8834556592305 80.13444976442089 L 1244.8466370901538 80.2409691574272 L 1244.8074640631746 80.34731678717546 L 1244.7659404955627 80.45348201899128 L 1244.7220705396408 80.55945423643999 L 1244.6758585823675 80.66522284238813 L 1244.6273092449 80.77077726006326 L 1244.5764273821321 80.87610693411155 L 1244.523218082207 80.9812013316534 L 1244.4676866660109 81.08604994333662 L 1244.409838686639 81.19064228438741 L 1244.3496799288407 81.29496789565883 L 1244.287216408442 81.3990163446767 L 1244.222454371743 81.50277722668281 L 1244.1554002948928 81.60624016567543 L 1244.0860608832438 81.70939481544688 L 1244.0144430706794 81.81223086061816 L 1243.9405540189207 81.91473801767043 L 1243.8644011168115 82.0169060359734 L 1243.7859919795787 82.11872469881041 L 1243.7053344480707 82.22018382440001 L 1243.6224365879732 82.32127326691418 L 1243.5373066890033 82.42198291749291 L 1243.44995326408 82.52230270525509 L 1243.3603850484728 82.62222259830551 L 1243.2686109989286 82.72173260473815 L 1243.1746402927763 82.8208227736353 L 1243.0784823270078 82.91948319606263 L 1242.9801467173395 83.01770400606013 L 1242.8796432972508 83.11547538162863 L 1242.7769821169995 83.21278754571205 L 1242.6721734426185 83.3096307671751 L 1242.5652277548877 83.4059953617763 L 1242.4561557482868 83.50187169313652 L 1242.3449683299255 83.59725017370252 L 1242.2316766184529 83.69212126570572 L 1242.116291942946 83.78647548211597 L 1241.998825841776 83.88030338759027 L 1241.879290061455 83.97359559941626 L 1241.7576965554617 84.0663427884505 L 1241.6340574830454 84.15853568005136 L 1241.50838520801 84.25016505500653 L 1241.3806922974784 84.34122175045486 L 1241.2509915206356 84.43169666080269 L 1241.1192958474505 84.52158073863437 L 1240.9856184473813 84.61086499561704 L 1240.8499726880564 84.69954050339939 L 1240.7123721339385 84.78759839450454 L 1240.5728305449686 84.87502986321677 L 1240.4313618751894 84.96182616646205 L 1240.2879802713496 85.0479786246824 L 1240.1427000714903 85.13347862270378 L 1239.9955358035106 85.21831761059765 L 1239.8465021837144 85.30248710453591 L 1239.6956141153396 85.38597868763932 L 1239.5428866870673 85.46878401081914 L 1239.3883351715128 85.55089479361204 L 1239.2319750236993 85.6323028250082 L 1239.0738218795111 85.71299996427229 L 1238.913891554131 85.79297814175763 L 1238.7522000404576 85.87222935971315 L 1238.5887635075082 85.95074569308306 L 1238.4235982987998 86.02851929029947 L 1238.2567209307156 86.10554237406748 L 1238.088148090853 86.1818072421429 L 1237.9178966363559 86.25730626810244 L 1237.7459835922277 86.33203190210645 L 1237.5724261496298 86.4059766716538 L 1237.3972416641614 86.47913318232916 L 1237.2204476541253 86.55149411854241 L 1237.0420617987752 86.62305224426024 L 1236.862101936548 86.69380040372971 L 1236.6805860632799 86.76373152219381 L 1236.497532330407 86.832838606599 L 1236.31295904315 86.90111474629441 L 1236.1268846586838 86.96855311372298 L 1235.939327784292 87.03514696510413 L 1235.7503071755052 87.10088964110827 L 1235.5598417342273 87.16577456752255 L 1235.3679505068435 87.2297952559084 L 1235.1746526823167 87.29294530425035 L 1234.9799675902682 87.35521839759618 L 1234.783914699045 87.41660830868844 L 1234.586513613773 87.47710889858719 L 1234.3877840743958 87.53671411728386 L 1234.187745953702 87.59541800430624 L 1233.986419255337 87.65321468931457 L 1233.783824111803 87.71009839268848 L 1233.5799807824453 87.76606342610505 L 1233.3749096514268 87.82110419310759 L 1233.1686312256902 87.87521518966525 L 1232.9611661329059 87.92839100472347 L 1232.7525351194101 87.98062632074506 L 1232.5427590481306 88.03191591424195 L 1232.3318588964996 88.08225465629752 L 1232.1198557543566 88.13163751307953 L 1231.906770821839 88.18005954634344 L 1231.6926254072625 88.22751591392628 L 1231.4774409249903 88.27400187023083 L 1231.2612388932912 88.31951276670023 L 1231.044040932188 88.36404405228271 L 1230.8258687612959 88.40759127388685 L 1230.6067441976504 88.45015007682679 L 1230.3866891535251 88.49171620525767 L 1230.165725634241 88.53228550260131 L 1229.943875735966 88.57185391196177 L 1229.721161643505 88.6104174765311 L 1229.4976056280816 88.64797233998496 L 1229.273230045111 88.68451474686832 L 1229.0480573319646 88.72004104297093 L 1228.8221100057262 88.75454767569279 L 1228.5954106609402 88.7880311943994 L 1228.3679819673516 88.82048825076676 L 1228.139846667641 88.8519155991163 L 1227.9110275751475 88.88231009673936 L 1227.6815475715903 88.91166870421154 L 1227.4514296047782 88.93998848569652 L 1227.2206966863162 88.96726660923976 L 1226.9893718893038 88.99350034705165 L 1226.757478346028 89.01868707578028 L 1226.5250392456499 89.04282427677373 L 1226.2920778318858 89.06590953633204 L 1226.0586174006828 89.0879405459485 L 1225.8246812978898 89.10891510254048 L 1225.590292916922 89.12883110866981 L 1225.355475696422 89.14768657275249 L 1225.1202531179163 89.1654796092578 L 1224.8846487034666 89.18220843889694 L 1224.6486860133184 89.19787138880088 L 1224.4123886435436 89.21246689268766 L 1224.1757802236825 89.22599349101908 L 1223.93888441438 89.23844983114658 L 1223.7017249050195 89.2498346674465 L 1223.4643254113544 89.26014686144474 L 1223.226709673136 89.26938538193045 L 1222.9889014517403 89.27754930505931 L 1222.7509245277913 89.2846378144458 L 1222.512802698783 89.29065020124489 L 1222.2745597766996 89.2955858642229 L 1222.0362195856353 89.29944430981766 L 1221.7978059594102 89.30222515218782 L 1221.5593427391887 89.30392811325146 L 1221.3208537710934 89.30455302271389 L 1221.082362903823 89.30409981808468 L 1220.8438939862651 89.30256854468394 L 1220.605470865113 89.29995935563771 L 1220.3671173824798 89.29627251186272 L 1220.1288573735155 89.29150838204029 L 1219.8907146640222 89.28566744257942 L 1219.6527130680724 89.2787502775692 L 1219.4148763856276 89.27075757872036 L 1219.1772284001577 89.26169014529611 L 1218.9397928762633 89.25154888403227 L 1218.7025935572985 89.24033480904649 L 1218.4656541629981 89.22804904173692 L 1218.2289983871037 89.21469281067007 L 1217.992649894996 89.2002674514579 L 1217.756632321327 89.18477440662434 L 1217.5209692676574 89.16821522546093 L 1217.2856843000964 89.15059156387198 L 1217.0508009469443 89.131905184209 L 1216.816342696341 89.11215795509437 L 1216.582332993916 89.09135185123453 L 1216.3487952404448 89.06948895322255 L 1216.1157527895077 89.04657144732998 L 1215.8832289451561 89.02260162528835 L 1215.6512469595802 88.99758188405987 L 1215.4198300307855 88.97151472559781 L 1215.1890013002721 88.94440275659629 L 1214.9587838507205 88.91624868822964 L 1214.729200703684 88.88705533588121 L 1214.5002748172858 88.85682561886193 L 1214.2720290839238 88.82556256011829 L 1214.044486327981 88.79326928593011 L 1213.8176693035439 88.75994902559792 L 1213.5916006921252 88.72560511111998 L 1213.3663031003982 88.6902409768591 L 1213.1417990579343 88.65386015919924 L 1212.9181110149505 88.61646629619187 L 1212.6952613400645 88.57806312719212 L 1212.4732723180584 88.53865449248488 L 1212.2521661476492 88.49824433290078 L 1212.03196493927 88.4568366894221 L 1211.8126907128576 88.4144357027787 L 1211.5943653956524 88.3710456130339 L 1211.3770108200042 88.32667075916052 L 1211.160648721189 88.28131557860695 L 1210.9453007352367 88.23498460685347 L 1210.7309883967664 88.18768247695864 L 1210.5177331368334 88.13941391909603 L 1210.3055562807858 88.0901837600812 L 1210.0944790461326 88.03999692288905 L 1209.8845225404214 87.98885842616143 L 1209.6757077591274 87.93677338370544 L 1209.468055583555 87.88374700398191 L 1209.2615867787488 87.8297845895846 L 1209.0563219914172 87.77489153671002 L 1208.8522817478677 87.71907333461769 L 1208.6494864519548 87.66233556508129 L 1208.4479563830391 87.60468390183053 L 1208.2477116939592 87.54612410998368 L 1208.0487724090178 87.4866620454711 L 1207.851158421977 87.42630365444973 L 1207.654889494071 87.36505497270832 L 1207.4599852520294 87.30292212506406 L 1207.2664651861132 87.2399113247499 L 1207.0743486481686 87.17602887279338 L 1206.8836548496888 87.11128115738646 L 1206.6944028598948 87.0456746532467 L 1206.5066116038279 86.97921592096989 L 1206.3202998604572 86.91191160637383 L 1206.1354862608018 86.84376843983392 L 1205.9521892860678 86.77479323561002 L 1205.7704272657995 86.70499289116506 L 1205.590218376048 86.63437438647533 L 1205.4115806375517 86.56294478333245 L 1205.2345319139358 86.49071122463722 L 1205.059089909925 86.4176809336853 L 1204.8852721695735 86.34386121344494 L 1204.7130960745105 86.26925944582663 L 1204.5425788422024 86.19388309094498 L 1204.3737375242297 86.11773968637264 L 1204.2065890045837 86.04083684638665 L 1204.0411499979773 85.96318226120691 L 1203.8774370481733 85.88478369622722 L 1203.71546652633 85.80564899123874 L 1203.5552546293645 85.72578605964603 L 1203.3968173783335 85.64520288767571 L 1203.2401706168298 85.5639075335778 L 1203.0853300093988 85.48190812681999 L 1202.9323110399725 85.3992128672746 L 1202.7811290103202 85.31583002439868 L 1202.631799038519 85.23176793640704 L 1202.4843360574414 85.14703500943843 L 1202.338754813263 85.06163971671492 L 1202.1950698639864 84.97559059769462 L 1202.0532955779872 84.88889625721775 L 1201.9134461325757 84.80156536464608 L 1201.77553551258 84.71360665299612 L 1201.639577508947 84.62502891806572 L 1201.505585717364 84.53584101755456 L 1201.3735735368982 84.44605187017837 L 1201.243554168658 84.35567045477706 L 1201.1155406144715 84.26470580941687 L 1200.9895456755876 84.1731670304865 L 1200.8655819513951 84.08106327178758 L 1200.7436618381635 83.98840374361924 L 1200.623797527802 83.89519771185707 L 1200.506001006642 83.80145449702657 L 1200.3902840542376 83.70718347337109 L 1200.2766582421875 83.61239406791447 L 1200.165134932978 83.51709575951824 L 1200.0557252788474 83.42129807793384 L 1199.9484402206697 83.32501060284957 L 1199.8432904868614 83.22824296293274 L 1199.7402865923084 83.13100483486667 L 1199.6394388373142 83.03330594238315 L 1199.54075730657 82.93515605529001 L 1199.4442518681471 82.83656498849416 L 1199.3499321725085 82.73754260102014 L 1199.2578076515456 82.63809879502416 L 1199.1678875176335 82.53824351480395 L 1199.0801807627104 82.43798674580434 L 1198.9946961573792 82.33733851361866 L 1198.9114422500288 82.23630888298626 L 1198.830427365981 82.13490795678602 L 1198.7516596066562 82.03314587502607 L 1198.6751468487648 81.93103281382975 L 1198.6008967435191 81.82857898441812 L 1198.5289167158674 81.72579463208872 L 1198.4592139637527 81.62269003519114 L 1198.3917954573922 81.51927550409916 L 1198.3266679385802 81.4155613801797 L 1198.2638379200143 81.3115580347587 L 1198.2033116846442 81.20727586808408 L 1198.1450952850428 81.10272530828557 L 1198.0891945428014 80.99791681033204 L 1198.0356150479479 80.89286085498595 L 1197.9843621583873 80.78756794775528 L 1197.9354409993653 80.682048617843 L 1197.8888564629576 80.57631341709417 L 1197.8446132075785 80.47037291894078 L 1197.8027156575172 80.36423771734434 L 1197.7631680024933 80.25791842573655 L 1197.7259741972398 80.15142567595801 L 1197.6911379611058 80.04477011719491 L 1197.6586627776862 79.9379624149143 L 1197.6285518944721 79.83101324979734 L 1197.600808322527 79.72393331667146 L 1197.5754348361845 79.61673332344074 L 1197.5524339727726 79.50942399001515 L 1197.5318080323582 79.40201604723862 L 1197.513559077518 79.29452023581591 L 1197.4976889331326 79.18694730523859 L 1197.484199186203 79.07930801271009 L 1197.473091185693 78.97161312206994 L 1197.4643660423928 78.86387340271747 L 1197.4580246288099 78.75609962853483 L 1197.4540675790802 78.64830257680963 L 1197.4524952889055 78.5404930271572 L 1197.4533079155135 78.43268176044268 L 1197.456505377642 78.32487955770289 L 1197.4620873555477 78.21709719906826 L 1197.4700532910374 78.10934546268486 L 1197.4804023875242 78.00163512363652 L 1197.493133610107 77.89397695286739 L 1197.5082456856742 77.78638171610483 L 1197.5257371030307 77.67886017278285 L 1197.5456061130494 77.57142307496619 L 1197.5678507288462 77.4640811662751 L 1197.5924687259776 77.35684518081099 L 1197.6194576426647 77.24972584208304 L 1197.648814780038 77.14273386193588 L 1197.6805372024085 77.03587993947833 L 1197.7146217375603 76.92917476001364 L 1197.7510649770684 76.82262899397078 L 1197.7898632766392 76.7162532958376 L 1197.8310127564748 76.61005830309527 L 1197.8745093016619 76.50405463515456 L 1197.920348562582 76.39825289229391 L 1197.968525955347 76.29266365459947 L 1198.0190366622583 76.187297480907 L 1198.071875632287 76.08216490774608 L 1198.12703758158 75.97727644828639 L 1198.1845169939886 75.87264259128648 L 1198.2443081216195 75.76827380004487 L 1198.3064049854095 75.66418051135369 L 1198.3708013757239 75.56037313445508 L 1198.4374908529776 75.45686205000021 L 1198.5064667482784 75.3536576090113 L 1198.5777221640942 75.2507701318464 L 1198.6512499749429 75.1482099071675 L 1198.7270428281045 75.04598719091162 L 1198.805093144357 74.9441122052652 L 1198.8853931187336 74.84259513764188 L 1198.9679347213041 74.74144613966385 L 1199.052709697977 74.6406753261466 L 1199.1397095713248 74.54029277408755 L 1199.2289256414333 74.4403085216582 L 1199.3203489867692 74.34073256720049 L 1199.4139704650747 74.24157486822689 L 1199.50978071428 74.14284534042467 L 1199.6077701534396 74.04455385666434 L 1199.7079289836913 73.94671024601234 L 1199.8102471892357 73.84932429274824 L 1199.9147145383376 73.75240573538618 L 1200.021320584349 73.65596426570113 L 1200.1300546667544 73.56000952775972 L 1200.2409059122358 73.46455111695575 L 1200.353863235761 73.36959857905077 L 1200.468915341692 73.27516140921944 L 1200.5860507249142 73.18124905110005 L 1200.7052576719868 73.08787089585014 L 1200.8265242623143 72.99503628120743 L 1200.9498383693385 72.90275449055602 L 1201.0751876617521 72.81103475199808 L 1201.2025596047297 72.71988623743101 L 1201.3319414611835 72.62931806163034 L 1201.4633202930356 72.53933928133816 L 1201.5966829625122 72.44995889435752 L 1201.7320161334576 72.36118583865263 L 1201.8693062726675 72.2730289914551 L 1202.0085396512422 72.18549716837617 L 1202.1497023459601 72.0985991225252 L 1202.2927802406693 72.01234354363439 L 1202.4377590276995 71.9267390571897 L 1202.5846242092928 71.84179422356848 L 1202.7333610990534 71.7575175371833 L 1202.8839548234164 71.67391742563255 L 1203.0363903231346 71.59100224885773 L 1203.1906523547855 71.50878029830743 L 1203.3467254922941 71.42725979610816 L 1203.504594128477 71.34644889424223 L 1203.6642424766019 71.26635567373248 L 1203.825654571967 71.18698814383421 L 1203.9888142734974 71.10835424123428 L 1204.1537052653591 71.03046182925742 L 1204.32031105859 70.95331869707991 L 1204.4886149927497 70.8769325589507 L 1204.658600237585 70.80131105341991 L 1204.8302497947134 70.72646174257511 L 1205.0035464993216 70.65239211128501 L 1205.1784730218842 70.579109566451 L 1205.3550118698943 70.5066214362665 L 1205.5331453896144 70.43493496948412 L 1205.712855767841 70.3640573346908 L 1205.894125033686 70.29399561959096 L 1206.0769350603737 70.22475683029771 L 1206.261267567054 70.1563478906323 L 1206.4471041206295 70.08877564143168 L 1206.6344261376 70.02204683986446 L 1206.8232148859202 69.9561681587552 L 1207.0134514868719 69.8911461859171 L 1207.205116916954 69.82698742349325 L 1207.398192009783 69.76369828730645 L 1207.5926574580108 69.70128510621757 L 1207.7884938152542 69.6397541214927 L 1207.9856814980412 69.57911148617904 L 1208.1842007877674 69.51936326448958 L 1208.3840318326693 69.46051543119673 L 1208.5851546498093 69.40257387103475 L 1208.787549127073 69.34554437811137 L 1208.991195025181 69.28943265532837 L 1209.196071979714 69.23424431381126 L 1209.4021595031465 69.1799848723482 L 1209.6094369868986 69.12665975683814 L 1209.817883703394 69.07427429974817 L 1210.0274788081351 69.02283373958036 L 1210.2382013417862 68.97234322034787 L 1210.4500302322692 68.9228077910605 L 1210.6629442968717 68.87423240521996 L 1210.8769222443648 68.82662192032431 L 1211.091942677132 68.77998109738239 L 1211.3079840933092 68.73431460043761 L 1211.525024888935 68.68962699610162 L 1211.74304336011 68.64592275309762 L 1211.9620177051697 68.60320624181347 L 1212.1819260268614 68.56148173386472 L 1212.4027463345367 68.52075340166739 L 1212.6244565463483 68.48102531802076 L 1212.8470344914601 68.44230145570006 L 1213.0704579122632 68.4045856870593 L 1213.2947044666014 68.36788178364388 L 1213.5197517300064 68.33219341581358 L 1213.7455771979392 68.29752415237542 L 1213.972158288041 68.26387746022687 L 1214.1994723423923 68.23125670400908 L 1214.4274966297764 68.19966514577052 L 1214.6562083479548 68.16910594464068 L 1214.8855846259464 68.1395821565142 L 1215.1156025263144 68.11109673374527 L 1215.3462390474606 68.08365252485247 L 1215.577471125925 68.05725227423379 L 1215.8092756386925 68.03189862189231 L 1216.0416294055049 68.00759410317211 L 1216.274509191179 67.98434114850484 L 1216.5078917079306 67.96214208316657 L 1216.7417536177022 67.94099912704533 L 1216.976071534498 67.92091439441914 L 1217.2108220267216 67.9018898937445 L 1217.4459816195192 67.88392752745563 L 1217.6815267971276 67.86702909177419 L 1217.9174340052252 67.85119627652966 L 1218.153679653288 67.8364306649904 L 1218.3902401169478 67.82273373370522 L 1218.6270917403556 67.81010685235586 L 1218.8642108385461 67.79855128361993 L 1219.1015736998077 67.78806818304466 L 1219.3391565880513 67.77865859893137 L 1219.5769357451868 67.77032347223066 L 1219.814887393496 67.76306363644822 L 1220.052987738013 67.75687981756161 L 1220.291212968901 67.75177263394752 L 1220.5295392638359 67.74774259632011 L 1220.767942790387 67.74479010767975 L 1221.0063997083998 67.74291546327285 L 1221.2448861723817 67.74211885056229 L 1221.4833783338847 67.74240034920868 L 1221.7218523438917 67.74375993106239 L 1221.9602843552 67.74619746016636 L 1222.1986505248074 67.74971269276972 L 1222.4369270162958 67.75430527735213 L 1222.6750900022141 67.75997475465897 L 1222.9131156664628 67.76672055774722 L 1223.1509802066732 67.7745420120422 L 1223.38865983659 67.78343833540501 L 1223.6261307884479 67.7934086382107 L 1223.86336931535 67.80445192343733 L 1224.100351693641 67.81656708676556 L 1224.3370542252806 67.82975291668915 L 1224.5734532402128 67.84400809463611 L 1224.8095250987333 67.85933119510051 L 1225.045246193853 67.87572068578508 L 1225.2805929536587 67.89317492775442 L 1225.5155418436705 67.91169217559886 L 1225.7500693691954 67.93127057760906 L 1225.984152077676 67.95190817596112 L 1226.2177665610368 67.97360290691242 L 1226.450889458024 67.99635260100793 L 1226.683497456542 68.0201549832972 L 1226.915567295985 68.04500767356186 L 1227.1470757695627 68.07090818655355 L 1227.37799972662 68.0978539322426 L 1227.6083160749542 68.12584221607686 L 1227.838001783122 68.15487023925128 L 1228.0670338827445 68.18493509898775 L 1228.295389470802 68.21603378882533 L 1228.5230457119267 68.24816319892096 L 1228.7499798406834 68.2813201163604 L 1228.976169163849 68.31550122547955 L 1229.201591062679 68.35070310819597 L 1229.426222995172 68.38692224435073 L 1229.6500424983217 68.42415501206038 L 1229.8730271903642 68.4623976880792 L 1230.0951547730162 68.50164644817144 L 1230.3164030337048 68.5418973674938 L 1230.5367498477879 68.5831464209879 L 1230.7561731807677 68.62538948378277 L 1230.9746510904943 68.66862233160731 L 1231.192161729358 68.71284064121278 L 1231.408683346477 68.75803999080506 L 1231.6241942898694 68.80421586048686 L 1231.8386730086206 68.8513636327097 L 1232.0520980550375 68.89947859273563 L 1232.2644480867934 68.94855592910876 L 1232.475701869062 68.99859073413636 L 1232.6858382766413 69.04957800437958 L 1232.8948362960655 69.10151264115393 L 1233.1026750277065 69.15438945103898 L 1233.3093336878649 69.20820314639782 L 1233.5147916108465 69.26294834590577 L 1233.7190282510305 69.31861957508848 L 1233.9220231849229 69.37521126686941 L 1234.1237561131995 69.43271776212659 L 1234.3242068627355 69.49113331025838 L 1234.5233553886233 69.55045206975865 L 1234.7211817761759 69.6106681088009 L 1234.9176662429195 69.67177540583138 L 1235.112789140571 69.73376785017133 L 1235.3065309570038 69.79663924262796 L 1235.4988723181973 69.86038329611443 L 1235.6897939901758 69.92499363627851 L 1235.879276880931 69.99046380214003 L 1236.067302042332 70.05678724673693 L 1236.2538506720189 70.12395733778007 L 1236.4389041152847 70.19196735831628 L 1236.622443866939 70.2608105074002 L 1236.8044515731597 70.33047990077428 L 1236.9849090333275 70.40096857155726 L 1237.1637982018474 70.47226947094077 L 1237.3411011899514 70.54437546889432 L 1237.516800267488 70.61727935487819 L 1237.6908778646964 70.69097383856453 L 1237.8633165739616 70.7654515505664 L 1238.0340991515566 70.84070504317464 L 1238.203208519366 70.91672679110272 L 1238.3706277665935 70.99350919223919 L 1238.5363401514544 71.07104456840791 L 1238.7003291028482 71.14932516613591 L 1238.862578222016 71.22834315742861 L 1239.0230712841817 71.30809064055276 L 1239.1817922401724 71.38855964082649 L 1239.338725218025 71.46974211141682 L 1239.4938545245725 71.55162993414437 L 1239.6471646470131 71.6342149202951 L 1239.798640254463 71.71748881143918 L 1239.948266199487 71.80144328025693 L 1240.096027519616 71.88606993137142 L 1240.2419094388404 71.97136030218806 L 1240.3858973690903 72.05730586374082 L 1240.5279769116923 72.14389802154521 L 1240.6681338588112 72.23112811645758 L 1240.8063541948684 72.31898742554114 L 1240.9426240979458 72.40746716293819 L 1241.0769299411666 72.49655848074872 L 1241.2092582940584 72.58625246991521 L 1241.339595923896 72.67654016111346 L 1241.4679297970254 72.76741252564963 L 1241.594247080166 72.85886047636295 L 1241.7185351416947 72.95087486853458 L 1241.8407815529092 73.04344650080199 L 1241.96097408927 73.13656611607907 L 1242.0791007316234 73.2302244024819 L 1242.1951496674042 73.32441199425989 L 1242.309109291815 73.41911947273236 L 1242.4209682089886 73.51433736723038 L 1242.5307152331266 73.61005615604385 L 1242.6383393896176 73.70626626737365 L 1242.743829916136 73.80295808028882 L 1242.8471762637173 73.90012192568864 L 1242.9483680978121 73.99774808726954 L 1243.047395299322 74.09582680249675 L 1243.144247965609 74.19434826358044 L 1243.2389164114875 74.29330261845661 L 1243.3313911701914 74.39267997177224 L 1243.421662994322 74.49247038587482 L 1243.5097228567724 74.59266388180609 L 1243.5955619516296 74.69325044029995 L 1243.6791716950554 74.79422000278437 L 1243.7605437261454 74.89556247238725 L 1243.8396699077643 74.99726771494608 L 1243.9165423273598 75.09932556002136 L 1243.991153297754 75.20172580191361 L 1244.063495357912 75.304458200684 L 1244.1335612736882 75.40751248317825 L 1244.2013440385492 75.510878344054 L 1244.2668368742752 75.61454544681129 L 1244.3300332316371 75.71850342482624 L 1244.3909267910517 75.82274188238767 L 1244.449511463214 75.9272503957367 L 1244.5057813897058 76.03201851410908 L 1244.5597309435811 76.13703576078028 L 1244.6113547299292 76.24229163411314 L 1244.660647586415 76.34777560860806 L 1244.7076045837935 76.45347713595547 L 1244.7522210264044 76.55938564609073 L 1244.7944924526405 76.66549054825109 L 1244.8344146353943 76.77178123203474 L 1244.8719835824809 76.87824706846187 L 1244.907195537037 76.98487741103759 L 1244.9400469778964 77.09166159681648 L 1244.970534619942 77.19858894746895 L 1244.998655414436 77.30564877034905 L 1245.0244065493214 77.41283035956369 L 1245.0477854495064 77.52012299704329 L 1245.0687897771209 77.62751595361348 L 1245.087417431749 77.73499849006812 L 1245.1036665506413 77.84255985824313 L 1245.1175355088992 77.95018930209135 L 1245.1290229196384 78.05787605875803 L 1245.1381276341276 78.16560935965728 L 1245.1448487419027 78.27337843154879 L 1245.149185570859 78.38117249761517 L 1245.1511376873163 78.48898077853964 M 1245.1512586773724 112.82724919310002 L 1245.1500662174687 112.93505973801663 L 1245.1464889570027 113.04285950196861 L 1245.1405272536972 113.15063770506937 L 1245.132181703718 113.25838356958842 L 1245.1214531416128 113.3660863210291 L 1245.108342640229 113.47373518920602 L 1245.0928515106057 113.58131940932206 L 1245.074981301843 113.68882822304487 L 1245.0547338009471 113.79625087958267 L 1245.0321110326508 113.90357663675931 L 1245.0071152592125 114.01079476208854 L 1244.9797489801886 114.11789453384714 L 1244.9500149321839 114.2248652421472 L 1244.9179160885787 114.33169619000704 L 1244.8834556592305 114.43837669442088 L 1244.8466370901538 114.54489608742719 L 1244.8074640631746 114.65124371717545 L 1244.7659404955627 114.75740894899127 L 1244.7220705396408 114.86338116643998 L 1244.6758585823675 114.96914977238812 L 1244.6273092449 115.07470419006324 L 1244.5764273821321 115.18003386411154 L 1244.523218082207 115.28512826165338 L 1244.4676866660109 115.38997687333661 L 1244.409838686639 115.4945692143874 L 1244.3496799288407 115.59889482565882 L 1244.287216408442 115.70294327467668 L 1244.222454371743 115.8067041566828 L 1244.1554002948928 115.91016709567542 L 1244.0860608832438 116.01332174544687 L 1244.0144430706794 116.11615779061815 L 1243.9405540189207 116.21866494767042 L 1243.8644011168115 116.3208329659734 L 1243.7859919795787 116.4226516288104 L 1243.7053344480707 116.5241107544 L 1243.6224365879732 116.62520019691416 L 1243.5373066890033 116.7259098474929 L 1243.44995326408 116.82622963525507 L 1243.3603850484728 116.9261495283055 L 1243.2686109989286 117.02565953473814 L 1243.1746402927763 117.12474970363529 L 1243.0784823270078 117.22341012606262 L 1242.9801467173395 117.32163093606012 L 1242.8796432972508 117.41940231162862 L 1242.7769821169995 117.51671447571204 L 1242.6721734426185 117.61355769717508 L 1242.5652277548877 117.7099222917763 L 1242.4561557482868 117.80579862313651 L 1242.3449683299255 117.90117710370251 L 1242.2316766184529 117.99604819570571 L 1242.116291942946 118.09040241211596 L 1241.998825841776 118.18423031759026 L 1241.879290061455 118.27752252941625 L 1241.7576965554617 118.37026971845049 L 1241.6340574830454 118.46246261005135 L 1241.50838520801 118.55409198500652 L 1241.3806922974784 118.64514868045485 L 1241.2509915206356 118.73562359080267 L 1241.1192958474505 118.82550766863436 L 1240.9856184473813 118.91479192561702 L 1240.8499726880564 119.00346743339938 L 1240.7123721339385 119.09152532450453 L 1240.5728305449686 119.17895679321676 L 1240.4313618751894 119.26575309646203 L 1240.2879802713496 119.35190555468239 L 1240.1427000714903 119.43740555270377 L 1239.9955358035106 119.52224454059764 L 1239.8465021837144 119.6064140345359 L 1239.6956141153396 119.68990561763931 L 1239.5428866870673 119.77271094081912 L 1239.3883351715128 119.85482172361203 L 1239.2319750236993 119.93622975500818 L 1239.0738218795111 120.01692689427227 L 1238.913891554131 120.09690507175762 L 1238.7522000404576 120.17615628971313 L 1238.5887635075082 120.25467262308305 L 1238.4235982987998 120.33244622029946 L 1238.2567209307156 120.40946930406747 L 1238.088148090853 120.48573417214288 L 1237.9178966363559 120.56123319810243 L 1237.7459835922277 120.63595883210644 L 1237.5724261496298 120.70990360165379 L 1237.3972416641614 120.78306011232915 L 1237.2204476541253 120.8554210485424 L 1237.0420617987752 120.92697917426023 L 1236.862101936548 120.9977273337297 L 1236.6805860632799 121.0676584521938 L 1236.497532330407 121.13676553659899 L 1236.31295904315 121.2050416762944 L 1236.1268846586838 121.27248004372296 L 1235.939327784292 121.33907389510412 L 1235.7503071755052 121.40481657110826 L 1235.5598417342273 121.46970149752254 L 1235.3679505068435 121.53372218590839 L 1235.1746526823167 121.59687223425034 L 1234.9799675902682 121.65914532759616 L 1234.783914699045 121.72053523868843 L 1234.586513613773 121.78103582858718 L 1234.3877840743958 121.84064104728385 L 1234.187745953702 121.89934493430623 L 1233.986419255337 121.95714161931456 L 1233.783824111803 122.01402532268847 L 1233.5799807824453 122.06999035610504 L 1233.3749096514268 122.12503112310758 L 1233.1686312256902 122.17914211966524 L 1232.9611661329059 122.23231793472345 L 1232.7525351194101 122.28455325074505 L 1232.5427590481306 122.33584284424194 L 1232.3318588964996 122.38618158629751 L 1232.1198557543566 122.43556444307951 L 1231.906770821839 122.48398647634343 L 1231.6926254072625 122.53144284392627 L 1231.4774409249903 122.57792880023082 L 1231.2612388932912 122.62343969670022 L 1231.044040932188 122.6679709822827 L 1230.8258687612959 122.71151820388684 L 1230.6067441976504 122.75407700682678 L 1230.3866891535251 122.79564313525766 L 1230.165725634241 122.8362124326013 L 1229.943875735966 122.87578084196176 L 1229.721161643505 122.91434440653109 L 1229.4976056280816 122.95189926998495 L 1229.273230045111 122.9884416768683 L 1229.0480573319646 123.02396797297092 L 1228.8221100057262 123.05847460569278 L 1228.5954106609402 123.09195812439938 L 1228.3679819673516 123.12441518076675 L 1228.139846667641 123.15584252911628 L 1227.9110275751475 123.18623702673935 L 1227.6815475715903 123.21559563421152 L 1227.4514296047782 123.2439154156965 L 1227.2206966863162 123.27119353923975 L 1226.9893718893038 123.29742727705164 L 1226.757478346028 123.32261400578027 L 1226.5250392456499 123.34675120677372 L 1226.2920778318858 123.36983646633203 L 1226.0586174006828 123.39186747594849 L 1225.8246812978898 123.41284203254047 L 1225.590292916922 123.4327580386698 L 1225.355475696422 123.45161350275248 L 1225.1202531179163 123.46940653925779 L 1224.8846487034666 123.48613536889692 L 1224.6486860133184 123.50179831880087 L 1224.4123886435436 123.51639382268765 L 1224.1757802236825 123.52992042101907 L 1223.93888441438 123.54237676114657 L 1223.7017249050195 123.5537615974465 L 1223.4643254113544 123.56407379144473 L 1223.226709673136 123.57331231193044 L 1222.9889014517403 123.5814762350593 L 1222.7509245277913 123.58856474444579 L 1222.512802698783 123.59457713124488 L 1222.2745597766996 123.59951279422289 L 1222.0362195856353 123.60337123981765 L 1221.7978059594102 123.6061520821878 L 1221.5593427391887 123.60785504325145 L 1221.3208537710934 123.60847995271388 L 1221.082362903823 123.60802674808467 L 1220.8438939862651 123.60649547468392 L 1220.605470865113 123.6038862856377 L 1220.3671173824798 123.60019944186271 L 1220.1288573735155 123.59543531204028 L 1219.8907146640222 123.58959437257941 L 1219.6527130680724 123.58267720756919 L 1219.4148763856276 123.57468450872035 L 1219.1772284001577 123.5656170752961 L 1218.9397928762633 123.55547581403226 L 1218.7025935572985 123.54426173904648 L 1218.4656541629981 123.53197597173691 L 1218.2289983871037 123.51861974067006 L 1217.992649894996 123.50419438145789 L 1217.756632321327 123.48870133662433 L 1217.5209692676574 123.47214215546092 L 1217.2856843000964 123.45451849387197 L 1217.0508009469443 123.43583211420899 L 1216.816342696341 123.41608488509436 L 1216.582332993916 123.39527878123452 L 1216.3487952404448 123.37341588322253 L 1216.1157527895077 123.35049837732997 L 1215.8832289451561 123.32652855528833 L 1215.6512469595802 123.30150881405986 L 1215.4198300307855 123.2754416555978 L 1215.1890013002721 123.24832968659628 L 1214.9587838507205 123.22017561822963 L 1214.729200703684 123.1909822658812 L 1214.5002748172858 123.16075254886192 L 1214.2720290839238 123.12948949011827 L 1214.044486327981 123.0971962159301 L 1213.8176693035439 123.06387595559791 L 1213.5916006921252 123.02953204111996 L 1213.3663031003982 122.99416790685909 L 1213.1417990579343 122.95778708919923 L 1212.9181110149505 122.92039322619186 L 1212.6952613400645 122.88199005719211 L 1212.4732723180584 122.84258142248487 L 1212.2521661476492 122.80217126290077 L 1212.03196493927 122.7607636194221 L 1211.8126907128576 122.71836263277869 L 1211.5943653956524 122.67497254303389 L 1211.3770108200042 122.63059768916051 L 1211.160648721189 122.58524250860694 L 1210.9453007352367 122.53891153685346 L 1210.7309883967664 122.49160940695863 L 1210.5177331368334 122.44334084909602 L 1210.3055562807858 122.39411069008119 L 1210.0944790461326 122.34392385288903 L 1209.8845225404214 122.29278535616142 L 1209.6757077591274 122.24070031370543 L 1209.468055583555 122.1876739339819 L 1209.2615867787488 122.1337115195846 L 1209.0563219914172 122.07881846671 L 1208.8522817478677 122.02300026461768 L 1208.6494864519548 121.96626249508128 L 1208.4479563830391 121.90861083183052 L 1208.2477116939592 121.85005103998367 L 1208.0487724090178 121.7905889754711 L 1207.851158421977 121.73023058444971 L 1207.654889494071 121.66898190270831 L 1207.4599852520294 121.60684905506405 L 1207.2664651861132 121.54383825474989 L 1207.0743486481686 121.47995580279337 L 1206.8836548496888 121.41520808738645 L 1206.6944028598948 121.3496015832467 L 1206.5066116038279 121.28314285096988 L 1206.3202998604572 121.21583853637382 L 1206.1354862608018 121.14769536983391 L 1205.9521892860678 121.07872016561001 L 1205.7704272657995 121.00891982116505 L 1205.590218376048 120.93830131647532 L 1205.4115806375517 120.86687171333244 L 1205.2345319139358 120.79463815463721 L 1205.059089909925 120.72160786368529 L 1204.8852721695735 120.64778814344493 L 1204.7130960745105 120.57318637582662 L 1204.5425788422024 120.49781002094497 L 1204.3737375242297 120.42166661637263 L 1204.2065890045837 120.34476377638664 L 1204.0411499979773 120.2671091912069 L 1203.8774370481733 120.1887106262272 L 1203.71546652633 120.10957592123873 L 1203.5552546293645 120.02971298964601 L 1203.3968173783335 119.9491298176757 L 1203.2401706168298 119.8678344635778 L 1203.0853300093988 119.78583505681998 L 1202.9323110399725 119.70313979727459 L 1202.7811290103202 119.61975695439867 L 1202.631799038519 119.53569486640703 L 1202.4843360574414 119.45096193943841 L 1202.338754813263 119.36556664671491 L 1202.1950698639864 119.27951752769461 L 1202.0532955779872 119.19282318721774 L 1201.9134461325757 119.10549229464607 L 1201.77553551258 119.01753358299611 L 1201.639577508947 118.92895584806571 L 1201.505585717364 118.83976794755455 L 1201.3735735368982 118.74997880017835 L 1201.243554168658 118.65959738477704 L 1201.1155406144715 118.56863273941686 L 1200.9895456755876 118.47709396048649 L 1200.8655819513951 118.38499020178757 L 1200.7436618381635 118.29233067361923 L 1200.623797527802 118.19912464185705 L 1200.506001006642 118.10538142702656 L 1200.3902840542376 118.01111040337108 L 1200.2766582421875 117.91632099791445 L 1200.165134932978 117.82102268951823 L 1200.0557252788474 117.72522500793383 L 1199.9484402206697 117.62893753284956 L 1199.8432904868614 117.53216989293273 L 1199.7402865923084 117.43493176486666 L 1199.6394388373142 117.33723287238314 L 1199.54075730657 117.23908298529 L 1199.4442518681471 117.14049191849415 L 1199.3499321725085 117.04146953102013 L 1199.2578076515456 116.94202572502415 L 1199.1678875176335 116.84217044480394 L 1199.0801807627104 116.74191367580433 L 1198.9946961573792 116.64126544361865 L 1198.9114422500288 116.54023581298625 L 1198.830427365981 116.43883488678601 L 1198.7516596066562 116.33707280502605 L 1198.6751468487648 116.23495974382973 L 1198.6008967435191 116.1325059144181 L 1198.5289167158674 116.02972156208871 L 1198.4592139637527 115.92661696519113 L 1198.3917954573922 115.82320243409914 L 1198.3266679385802 115.71948831017968 L 1198.2638379200143 115.61548496475869 L 1198.2033116846442 115.51120279808407 L 1198.1450952850428 115.40665223828556 L 1198.0891945428014 115.30184374033203 L 1198.0356150479479 115.19678778498594 L 1197.9843621583873 115.09149487775527 L 1197.9354409993653 114.98597554784298 L 1197.8888564629576 114.88024034709416 L 1197.8446132075785 114.77429984894077 L 1197.8027156575172 114.66816464734433 L 1197.7631680024933 114.56184535573654 L 1197.7259741972398 114.455352605958 L 1197.6911379611058 114.3486970471949 L 1197.6586627776862 114.24188934491428 L 1197.6285518944721 114.13494017979733 L 1197.600808322527 114.02786024667145 L 1197.5754348361845 113.92066025344073 L 1197.5524339727726 113.81335092001514 L 1197.5318080323582 113.7059429772386 L 1197.513559077518 113.5984471658159 L 1197.4976889331326 113.49087423523858 L 1197.484199186203 113.38323494271008 L 1197.473091185693 113.27554005206993 L 1197.4643660423928 113.16780033271746 L 1197.4580246288099 113.06002655853482 L 1197.4540675790802 112.95222950680962 L 1197.4524952889055 112.84441995715719" stroke-miterlimit="10" stroke-width="2.7769845610000004" stroke-dasharray=""/></g><g><text fill="black" stroke="none" font-family="sans-serif" font-size="11pt" font-style="normal" font-weight="normal" text-decoration="normal" x="1189.9239169130833" y="141.136156512" text-anchor="start" dominant-baseline="alphabetic" xml:space="preserve">Database</text></g></g><g><path fill="white" stroke="black" paint-order="fill stroke markers" d=" M 418.57945325208334 199.942888392 L 434.91465655208333 199.942888392 L 434.91465655208333 1565.5658842720002 L 418.57945325208334 1565.5658842720002 L 418.57945325208334 199.942888392" stroke-miterlimit="10" stroke-width="1.3612669416666667" stroke-dasharray=""/><path fill="white" stroke="black" paint-order="fill stroke markers" d=" M 704.2303256385417 382.897165352 L 720.5655289385418 382.897165352 L 720.5655289385418 1519.8273150320001 L 704.2303256385417 1519.8273150320001 L 704.2303256385417 382.897165352" stroke-miterlimit="10" stroke-width="1.3612669416666667" stroke-dasharray=""/><path fill="white" stroke="black" paint-order="fill stroke markers" d=" M 919.7308836939453 428.635734592 L 936.0660869939454 428.635734592 L 936.0660869939454 565.8514423119999 L 919.7308836939453 565.8514423119999 L 919.7308836939453 428.635734592" stroke-miterlimit="10" stroke-width="1.3612669416666667" stroke-dasharray=""/><path fill="white" stroke="black" paint-order="fill stroke markers" d=" M 1213.1342602093723 474.374303832 L 1229.4694635093724 474.374303832 L 1229.4694635093724 520.112873072 L 1213.1342602093723 520.112873072 L 1213.1342602093723 474.374303832" stroke-miterlimit="10" stroke-width="1.3612669416666667" stroke-dasharray=""/><path fill="white" stroke="black" paint-order="fill stroke markers" d=" M 1060.3180130670546 611.5900115519999 L 1076.6532163670547 611.5900115519999 L 1076.6532163670547 748.8057192719997 L 1060.3180130670546 748.8057192719997 L 1060.3180130670546 611.5900115519999" stroke-miterlimit="10" stroke-width="1.3612669416666667" stroke-dasharray=""/><path fill="white" stroke="black" paint-order="fill stroke markers" d=" M 1213.1342602093723 657.3285807919998 L 1229.4694635093724 657.3285807919998 L 1229.4694635093724 703.0671500319997 L 1213.1342602093723 703.0671500319997 L 1213.1342602093723 657.3285807919998" stroke-miterlimit="10" stroke-width="1.3612669416666667" stroke-dasharray=""/><path fill="white" stroke="black" paint-order="fill stroke markers" d=" M 919.7308836939453 974.2315248119995 L 936.0660869939454 974.2315248119995 L 936.0660869939454 1111.4472325319996 L 919.7308836939453 1111.4472325319996 L 919.7308836939453 974.2315248119995" stroke-miterlimit="10" stroke-width="1.3612669416666667" stroke-dasharray=""/><path fill="white" stroke="black" paint-order="fill stroke markers" d=" M 1213.1342602093723 1019.9700940519995 L 1229.4694635093724 1019.9700940519995 L 1229.4694635093724 1065.7086632919995 L 1213.1342602093723 1065.7086632919995 L 1213.1342602093723 1019.9700940519995" stroke-miterlimit="10" stroke-width="1.3612669416666667" stroke-dasharray=""/><path fill="white" stroke="black" paint-order="fill stroke markers" d=" M 919.7308836939453 1336.8730380719999 L 936.0660869939454 1336.8730380719999 L 936.0660869939454 1474.088745792 L 919.7308836939453 1474.088745792 L 919.7308836939453 1336.8730380719999" stroke-miterlimit="10" stroke-width="1.3612669416666667" stroke-dasharray=""/><path fill="white" stroke="black" paint-order="fill stroke markers" d=" M 1213.1342602093723 1382.611607312 L 1229.4694635093724 1382.611607312 L 1229.4694635093724 1428.350176552 L 1213.1342602093723 1428.350176552 L 1213.1342602093723 1382.611607312" stroke-miterlimit="10" stroke-width="1.3612669416666667" stroke-dasharray=""/><g><g><rect fill="white" stroke="none" x="163.75483125584637" y="178.707124102" width="180.91340889039063" height="21.23576429"/></g><text fill="black" stroke="none" font-family="sans-serif" font-size="11pt" font-style="normal" font-weight="normal" text-decoration="normal" x="166.20511175084636" y="193.40880707199997" text-anchor="start" dominant-baseline="alphabetic" xml:space="preserve">Go to Users In Group page</text></g><g><path fill="none" stroke="black" paint-order="fill stroke markers" d=" M 89.84361815 199.942888392 L 405.1301358684167 199.942888392" stroke-miterlimit="10" stroke-width="1.3612669416666667" stroke-dasharray=""/><g transform="translate(418.57945325208334,199.942888392) translate(-418.57945325208334,-199.942888392)"><path fill="black" stroke="none" paint-order="stroke fill markers" d=" M 404.96678383541666 193.13655368366665 L 418.57945325208334 199.942888392 L 404.96678383541666 206.74922310033332 Z"/></g></g><g><g><rect fill="white" stroke="none" x="169.06264680760418" y="224.445693342" width="170.297777786875" height="21.23576429"/></g><text fill="black" stroke="none" font-family="sans-serif" font-size="11pt" font-style="normal" font-weight="normal" text-decoration="normal" x="171.51292730260417" y="239.14737631199998" text-anchor="start" dominant-baseline="alphabetic" xml:space="preserve">Click button Delete Users</text></g><g><path fill="none" stroke="black" paint-order="fill stroke markers" d=" M 89.84361815 245.681457632 L 405.1301358684167 245.681457632" stroke-miterlimit="10" stroke-width="1.3612669416666667" stroke-dasharray=""/><g transform="translate(418.57945325208334,245.681457632) translate(-418.57945325208334,-245.681457632)"><path fill="black" stroke="none" paint-order="stroke fill markers" d=" M 404.96678383541666 238.87512292366665 L 418.57945325208334 245.681457632 L 404.96678383541666 252.48779234033333 Z"/></g></g><g><g><rect fill="white" stroke="none" x="109.17360872166667" y="270.184262582" width="290.07585395875" height="21.23576429"/></g><text fill="black" stroke="none" font-family="sans-serif" font-size="11pt" font-style="normal" font-weight="normal" text-decoration="normal" x="111.62388921666667" y="284.88594555199995" text-anchor="start" dominant-baseline="alphabetic" xml:space="preserve">Display Delete Member comfirmation popup</text></g><g><path fill="none" stroke="black" paint-order="fill stroke markers" d=" M 418.57945325208334 291.420026872 L 103.29293553366666 291.420026872" stroke-miterlimit="10" stroke-width="1.3612669416666667" stroke-dasharray="6.53408132"/><g transform="translate(89.84361815,291.420026872) translate(-89.84361815,-291.420026872)"><path fill="black" stroke="none" paint-order="stroke fill markers" d=" M 103.45628756666666 284.61369216366666 L 89.84361815 291.420026872 L 103.45628756666666 298.22636158033333 Z"/></g></g><g><g><rect fill="white" stroke="none" x="184.13421815770184" y="315.922831822" width="140.1546350866797" height="21.23576429"/></g><text fill="black" stroke="none" font-family="sans-serif" font-size="11pt" font-style="normal" font-weight="normal" text-decoration="normal" x="186.58449865270182" y="330.62451479199996" text-anchor="start" dominant-baseline="alphabetic" xml:space="preserve">Click Remove button</text></g><g><path fill="none" stroke="black" paint-order="fill stroke markers" d=" M 89.84361815 337.158596112 L 405.1301358684167 337.158596112" stroke-miterlimit="10" stroke-width="1.3612669416666667" stroke-dasharray=""/><g transform="translate(418.57945325208334,337.158596112) translate(-418.57945325208334,-337.158596112)"><path fill="black" stroke="none" paint-order="stroke fill markers" d=" M 404.96678383541666 330.35226140366666 L 418.57945325208334 337.158596112 L 404.96678383541666 343.96493082033334 Z"/></g></g><g><g><rect fill="white" stroke="none" x="454.2446471237499" y="361.661401062" width="230.655687943125" height="21.23576429"/></g><text fill="black" stroke="none" font-family="sans-serif" font-size="11pt" font-style="normal" font-weight="normal" text-decoration="normal" x="456.69492761874994" y="376.36308403199996" text-anchor="start" dominant-baseline="alphabetic" xml:space="preserve">DELETE:/api/group/{gid}/user/{uid}</text></g><g><path fill="none" stroke="black" paint-order="fill stroke markers" d=" M 434.91465655208333 382.897165352 L 690.781008254875 382.897165352" stroke-miterlimit="10" stroke-width="1.3612669416666667" stroke-dasharray=""/><g transform="translate(704.2303256385417,382.897165352) translate(-704.2303256385417,-382.897165352)"><path fill="black" stroke="none" paint-order="stroke fill markers" d=" M 690.617656221875 376.09083064366666 L 704.2303256385417 382.897165352 L 690.617656221875 389.70350006033334 Z"/></g></g><g><g><rect fill="white" stroke="none" x="781.8568689975131" y="407.399970302" width="76.58267463746094" height="21.23576429"/></g><text fill="black" stroke="none" font-family="sans-serif" font-size="11pt" font-style="normal" font-weight="normal" text-decoration="normal" x="784.3071494925131" y="422.10165327199996" text-anchor="start" dominant-baseline="alphabetic" xml:space="preserve">isExist(gid)</text></g><g><path fill="none" stroke="black" paint-order="fill stroke markers" d=" M 720.5655289385418 428.635734592 L 906.2815663102787 428.635734592" stroke-miterlimit="10" stroke-width="1.3612669416666667" stroke-dasharray=""/><g transform="translate(919.7308836939453,428.635734592) translate(-919.7308836939453,-428.635734592)"><path fill="black" stroke="none" paint-order="stroke fill markers" d=" M 906.1182142772786 421.82939988366667 L 919.7308836939453 428.635734592 L 906.1182142772786 435.44206930033334 Z"/></g></g><g><g><rect fill="white" stroke="none" x="1028.159231485565" y="453.138539542" width="92.8818842321875" height="21.23576429"/></g><text fill="black" stroke="none" font-family="sans-serif" font-size="11pt" font-style="normal" font-weight="normal" text-decoration="normal" x="1030.609511980565" y="467.84022251199997" text-anchor="start" dominant-baseline="alphabetic" xml:space="preserve">existsById(id)</text></g><g><path fill="none" stroke="black" paint-order="fill stroke markers" d=" M 936.0660869939454 474.374303832 L 1199.6849428257055 474.374303832" stroke-miterlimit="10" stroke-width="1.3612669416666667" stroke-dasharray=""/><g transform="translate(1213.1342602093723,474.374303832) translate(-1213.1342602093723,-474.374303832)"><path fill="black" stroke="none" paint-order="stroke fill markers" d=" M 1199.5215907927056 467.56796912366667 L 1213.1342602093723 474.374303832 L 1199.5215907927056 481.18063854033335 Z"/></g></g><g><g><rect fill="white" stroke="none" x="1025.6896422521665" y="498.87710878199994" width="97.82106269898438" height="21.23576429"/></g><text fill="black" stroke="none" font-family="sans-serif" font-size="11pt" font-style="normal" font-weight="normal" text-decoration="normal" x="1028.1399227471666" y="513.5787917519999" text-anchor="start" dominant-baseline="alphabetic" xml:space="preserve">Boolean value</text></g><g><path fill="none" stroke="black" paint-order="fill stroke markers" d=" M 1213.1342602093723 520.112873072 L 949.5154043776121 520.112873072" stroke-miterlimit="10" stroke-width="1.3612669416666667" stroke-dasharray="6.53408132"/><g transform="translate(936.0660869939454,520.112873072) translate(-936.0660869939454,-520.112873072)"><path fill="black" stroke="none" paint-order="stroke fill markers" d=" M 949.6787564106121 513.3065383636666 L 936.0660869939454 520.112873072 L 949.6787564106121 526.9192077803333 Z"/></g></g><g><g><rect fill="white" stroke="none" x="771.2376749667513" y="544.6156780219999" width="97.82106269898438" height="21.23576429"/></g><text fill="black" stroke="none" font-family="sans-serif" font-size="11pt" font-style="normal" font-weight="normal" text-decoration="normal" x="773.6879554617514" y="559.3173609919999" text-anchor="start" dominant-baseline="alphabetic" xml:space="preserve">Boolean value</text></g><g><path fill="none" stroke="black" paint-order="fill stroke markers" d=" M 919.7308836939453 565.8514423119999 L 734.0148463222084 565.8514423119999" stroke-miterlimit="10" stroke-width="1.3612669416666667" stroke-dasharray="6.53408132"/><g transform="translate(720.5655289385418,565.8514423119999) translate(-720.5655289385418,-565.8514423119999)"><path fill="black" stroke="none" paint-order="stroke fill markers" d=" M 734.1781983552085 559.0451076036666 L 720.5655289385418 565.8514423119999 L 734.1781983552085 572.6577770203332 Z"/></g></g><g><g><rect fill="white" stroke="none" x="852.1504336840677" y="590.3542472619998" width="76.58267463746094" height="21.23576429"/></g><text fill="black" stroke="none" font-family="sans-serif" font-size="11pt" font-style="normal" font-weight="normal" text-decoration="normal" x="854.6007141790677" y="605.0559302319998" text-anchor="start" dominant-baseline="alphabetic" xml:space="preserve">isExist(gid)</text></g><g><path fill="none" stroke="black" paint-order="fill stroke markers" d=" M 720.5655289385418 611.5900115519999 L 1046.8686956833878 611.5900115519999" stroke-miterlimit="10" stroke-width="1.3612669416666667" stroke-dasharray=""/><g transform="translate(1060.3180130670546,611.5900115519999) translate(-1060.3180130670546,-611.5900115519999)"><path fill="black" stroke="none" paint-order="stroke fill markers" d=" M 1046.705343650388 604.7836768436665 L 1060.3180130670546 611.5900115519999 L 1046.705343650388 618.3963462603332 Z"/></g></g><g><g><rect fill="white" stroke="none" x="1098.4527961721199" y="636.0928165019998" width="92.8818842321875" height="21.23576429"/></g><text fill="black" stroke="none" font-family="sans-serif" font-size="11pt" font-style="normal" font-weight="normal" text-decoration="normal" x="1100.9030766671199" y="650.7944994719998" text-anchor="start" dominant-baseline="alphabetic" xml:space="preserve">existsById(id)</text></g><g><path fill="none" stroke="black" paint-order="fill stroke markers" d=" M 1076.6532163670547 657.3285807919998 L 1199.6849428257055 657.3285807919998" stroke-miterlimit="10" stroke-width="1.3612669416666667" stroke-dasharray=""/><g transform="translate(1213.1342602093723,657.3285807919998) translate(-1213.1342602093723,-657.3285807919998)"><path fill="black" stroke="none" paint-order="stroke fill markers" d=" M 1199.5215907927056 650.5222460836665 L 1213.1342602093723 657.3285807919998 L 1199.5215907927056 664.1349155003331 Z"/></g></g><g><g><rect fill="white" stroke="none" x="1095.9832069387214" y="681.8313857419997" width="97.82106269898438" height="21.23576429"/></g><text fill="black" stroke="none" font-family="sans-serif" font-size="11pt" font-style="normal" font-weight="normal" text-decoration="normal" x="1098.4334874337214" y="696.5330687119997" text-anchor="start" dominant-baseline="alphabetic" xml:space="preserve">Boolean value</text></g><g><path fill="none" stroke="black" paint-order="fill stroke markers" d=" M 1213.1342602093723 703.0671500319997 L 1090.1025337507215 703.0671500319997" stroke-miterlimit="10" stroke-width="1.3612669416666667" stroke-dasharray="6.53408132"/><g transform="translate(1076.6532163670547,703.0671500319997) translate(-1076.6532163670547,-703.0671500319997)"><path fill="black" stroke="none" paint-order="stroke fill markers" d=" M 1090.2658857837214 696.2608153236664 L 1076.6532163670547 703.0671500319997 L 1090.2658857837214 709.8734847403331 Z"/></g></g><g><g><rect fill="white" stroke="none" x="841.531239653306" y="727.5699549819997" width="97.82106269898438" height="21.23576429"/></g><text fill="black" stroke="none" font-family="sans-serif" font-size="11pt" font-style="normal" font-weight="normal" text-decoration="normal" x="843.981520148306" y="742.2716379519997" text-anchor="start" dominant-baseline="alphabetic" xml:space="preserve">Boolean value</text></g><g><path fill="none" stroke="black" paint-order="fill stroke markers" d=" M 1060.3180130670546 748.8057192719997 L 734.0148463222084 748.8057192719997" stroke-miterlimit="10" stroke-width="1.3612669416666667" stroke-dasharray="6.53408132"/><g transform="translate(720.5655289385418,748.8057192719997) translate(-720.5655289385418,-748.8057192719997)"><path fill="black" stroke="none" paint-order="stroke fill markers" d=" M 734.1781983552085 741.9993845636664 L 720.5655289385418 748.8057192719997 L 734.1781983552085 755.612053980333 Z"/></g></g><g><g><rect fill="white" stroke="none" x="509.28754720919915" y="817.4135731319996" width="120.56988777222656" height="21.23576429"/></g><text fill="red" stroke="none" font-family="sans-serif" font-size="11pt" font-style="normal" font-weight="normal" text-decoration="normal" x="511.73782770419916" y="832.1152561019995" text-anchor="start" dominant-baseline="alphabetic" xml:space="preserve">404 NOT FOUND</text></g><g><path fill="none" stroke="black" paint-order="fill stroke markers" d=" M 704.2303256385417 838.6493374219996 L 448.36397393575 838.6493374219996" stroke-miterlimit="10" stroke-width="1.3612669416666667" stroke-dasharray="6.53408132"/><g transform="translate(434.91465655208333,838.6493374219996) translate(-434.91465655208333,-838.6493374219996)"><path fill="black" stroke="none" paint-order="stroke fill markers" d=" M 448.52732596875 831.8430027136662 L 434.91465655208333 838.6493374219996 L 448.52732596875 845.4556721303329 Z"/></g></g><g><g><rect fill="white" stroke="none" x="153.16071504490887" y="863.1521423719995" width="202.10164131226563" height="21.23576429"/></g><text fill="black" stroke="none" font-family="sans-serif" font-size="11pt" font-style="normal" font-weight="normal" text-decoration="normal" x="155.61099553990886" y="877.8538253419995" text-anchor="start" dominant-baseline="alphabetic" xml:space="preserve">Display 404 Not Found screen</text></g><g><path fill="none" stroke="black" paint-order="fill stroke markers" d=" M 418.57945325208334 884.3879066619995 L 103.29293553366666 884.3879066619995" stroke-miterlimit="10" stroke-width="1.3612669416666667" stroke-dasharray="6.53408132"/><g transform="translate(89.84361815,884.3879066619995) translate(-89.84361815,-884.3879066619995)"><path fill="black" stroke="none" paint-order="stroke fill markers" d=" M 103.45628756666666 877.5815719536662 L 89.84361815 884.3879066619995 L 103.45628756666666 891.1942413703329 Z"/></g></g><g><g><rect fill="white" stroke="none" x="743.9721262606967" y="952.9957605219995" width="152.35216011109375" height="21.23576429"/></g><text fill="black" stroke="none" font-family="sans-serif" font-size="11pt" font-style="normal" font-weight="normal" text-decoration="normal" x="746.4224067556967" y="967.6974434919995" text-anchor="start" dominant-baseline="alphabetic" xml:space="preserve">isUserExistInGroup(id)</text></g><g><path fill="none" stroke="black" paint-order="fill stroke markers" d=" M 720.5655289385418 974.2315248119995 L 906.2815663102787 974.2315248119995" stroke-miterlimit="10" stroke-width="1.3612669416666667" stroke-dasharray=""/><g transform="translate(919.7308836939453,974.2315248119995) translate(-919.7308836939453,-974.2315248119995)"><path fill="black" stroke="none" paint-order="stroke fill markers" d=" M 906.1182142772786 967.4251901036662 L 919.7308836939453 974.2315248119995 L 906.1182142772786 981.0378595203329 Z"/></g></g><g><g><rect fill="white" stroke="none" x="1051.373243631561" y="998.7343297619994" width="46.453859940195315" height="21.23576429"/></g><text fill="black" stroke="none" font-family="sans-serif" font-size="11pt" font-style="normal" font-weight="normal" text-decoration="normal" x="1053.823524126561" y="1013.4360127319994" text-anchor="start" dominant-baseline="alphabetic" xml:space="preserve">get(id)</text></g><g><path fill="none" stroke="black" paint-order="fill stroke markers" d=" M 936.0660869939454 1019.9700940519995 L 1199.6849428257055 1019.9700940519995" stroke-miterlimit="10" stroke-width="1.3612669416666667" stroke-dasharray=""/><g transform="translate(1213.1342602093723,1019.9700940519995) translate(-1213.1342602093723,-1019.9700940519995)"><path fill="black" stroke="none" paint-order="stroke fill markers" d=" M 1199.5215907927056 1013.1637593436661 L 1213.1342602093723 1019.9700940519995 L 1199.5215907927056 1026.7764287603327 Z"/></g></g><g><g><rect fill="white" stroke="none" x="1025.6896422521665" y="1044.4728990019996" width="97.82106269898438" height="21.23576429"/></g><text fill="black" stroke="none" font-family="sans-serif" font-size="11pt" font-style="normal" font-weight="normal" text-decoration="normal" x="1028.1399227471666" y="1059.1745819719997" text-anchor="start" dominant-baseline="alphabetic" xml:space="preserve">Boolean value</text></g><g><path fill="none" stroke="black" paint-order="fill stroke markers" d=" M 1213.1342602093723 1065.7086632919995 L 949.5154043776121 1065.7086632919995" stroke-miterlimit="10" stroke-width="1.3612669416666667" stroke-dasharray="6.53408132"/><g transform="translate(936.0660869939454,1065.7086632919995) translate(-936.0660869939454,-1065.7086632919995)"><path fill="black" stroke="none" paint-order="stroke fill markers" d=" M 949.6787564106121 1058.9023285836663 L 936.0660869939454 1065.7086632919995 L 949.6787564106121 1072.5149980003328 Z"/></g></g><g><g><rect fill="white" stroke="none" x="771.2376749667513" y="1090.2114682419997" width="97.82106269898438" height="21.23576429"/></g><text fill="black" stroke="none" font-family="sans-serif" font-size="11pt" font-style="normal" font-weight="normal" text-decoration="normal" x="773.6879554617514" y="1104.9131512119998" text-anchor="start" dominant-baseline="alphabetic" xml:space="preserve">Boolean value</text></g><g><path fill="none" stroke="black" paint-order="fill stroke markers" d=" M 919.7308836939453 1111.4472325319996 L 734.0148463222084 1111.4472325319996" stroke-miterlimit="10" stroke-width="1.3612669416666667" stroke-dasharray="6.53408132"/><g transform="translate(720.5655289385418,1111.4472325319996) translate(-720.5655289385418,-1111.4472325319996)"><path fill="black" stroke="none" paint-order="stroke fill markers" d=" M 734.1781983552085 1104.6408978236664 L 720.5655289385418 1111.4472325319996 L 734.1781983552085 1118.2535672403328 Z"/></g></g><g><g><rect fill="white" stroke="none" x="509.28754720919915" y="1180.0550863919998" width="120.56988777222656" height="21.23576429"/></g><text fill="red" stroke="none" font-family="sans-serif" font-size="11pt" font-style="normal" font-weight="normal" text-decoration="normal" x="511.73782770419916" y="1194.756769362" text-anchor="start" dominant-baseline="alphabetic" xml:space="preserve">404 NOT FOUND</text></g><g><path fill="none" stroke="black" paint-order="fill stroke markers" d=" M 704.2303256385417 1201.2908506819997 L 448.36397393575 1201.2908506819997" stroke-miterlimit="10" stroke-width="1.3612669416666667" stroke-dasharray="6.53408132"/><g transform="translate(434.91465655208333,1201.2908506819997) translate(-434.91465655208333,-1201.2908506819997)"><path fill="black" stroke="none" paint-order="stroke fill markers" d=" M 448.52732596875 1194.4845159736665 L 434.91465655208333 1201.2908506819997 L 448.52732596875 1208.097185390333 Z"/></g></g><g><g><rect fill="white" stroke="none" x="153.16071504490887" y="1225.7936556319999" width="202.10164131226563" height="21.23576429"/></g><text fill="black" stroke="none" font-family="sans-serif" font-size="11pt" font-style="normal" font-weight="normal" text-decoration="normal" x="155.61099553990886" y="1240.495338602" text-anchor="start" dominant-baseline="alphabetic" xml:space="preserve">Display 404 Not Found screen</text></g><g><path fill="none" stroke="black" paint-order="fill stroke markers" d=" M 418.57945325208334 1247.0294199219998 L 103.29293553366666 1247.0294199219998" stroke-miterlimit="10" stroke-width="1.3612669416666667" stroke-dasharray="6.53408132"/><g transform="translate(89.84361815,1247.0294199219998) translate(-89.84361815,-1247.0294199219998)"><path fill="black" stroke="none" paint-order="stroke fill markers" d=" M 103.45628756666666 1240.2230852136665 L 89.84361815 1247.0294199219998 L 103.45628756666666 1253.835754630333 Z"/></g></g><g><g><rect fill="white" stroke="none" x="739.8955195102084" y="1315.637273782" width="160.50537361207031" height="21.23576429"/></g><text fill="black" stroke="none" font-family="sans-serif" font-size="11pt" font-style="normal" font-weight="normal" text-decoration="normal" x="742.3458000052084" y="1330.338956752" text-anchor="start" dominant-baseline="alphabetic" xml:space="preserve">deleteUserFromGroup()</text></g><g><path fill="none" stroke="black" paint-order="fill stroke markers" d=" M 720.5655289385418 1336.8730380719999 L 906.2815663102787 1336.8730380719999" stroke-miterlimit="10" stroke-width="1.3612669416666667" stroke-dasharray=""/><g transform="translate(919.7308836939453,1336.8730380719999) translate(-919.7308836939453,-1336.8730380719999)"><path fill="black" stroke="none" paint-order="stroke fill markers" d=" M 906.1182142772786 1330.0667033636666 L 919.7308836939453 1336.8730380719999 L 906.1182142772786 1343.679372780333 Z"/></g></g><g><g><rect fill="white" stroke="none" x="994.3474867956236" y="1361.375843022" width="160.50537361207031" height="21.23576429"/></g><text fill="black" stroke="none" font-family="sans-serif" font-size="11pt" font-style="normal" font-weight="normal" text-decoration="normal" x="996.7977672906236" y="1376.0775259920001" text-anchor="start" dominant-baseline="alphabetic" xml:space="preserve">deleteUserFromGroup()</text></g><g><path fill="none" stroke="black" paint-order="fill stroke markers" d=" M 936.0660869939454 1382.611607312 L 1199.6849428257055 1382.611607312" stroke-miterlimit="10" stroke-width="1.3612669416666667" stroke-dasharray=""/><g transform="translate(1213.1342602093723,1382.611607312) translate(-1213.1342602093723,-1382.611607312)"><path fill="black" stroke="none" paint-order="stroke fill markers" d=" M 1199.5215907927056 1375.8052726036667 L 1213.1342602093723 1382.611607312 L 1199.5215907927056 1389.4179420203332 Z"/></g></g><g><g><rect fill="white" stroke="none" x="1072.1498931066587" y="1407.114412262" width="4.90056099" height="21.23576429"/></g><text fill="black" stroke="none" font-family="sans-serif" font-size="11pt" font-style="normal" font-weight="normal" text-decoration="normal" x="1074.6001736016588" y="1421.8160952320002" text-anchor="start" dominant-baseline="alphabetic" xml:space="preserve"></text></g><g><path fill="none" stroke="black" paint-order="fill stroke markers" d=" M 1213.1342602093723 1428.350176552 L 949.5154043776121 1428.350176552" stroke-miterlimit="10" stroke-width="1.3612669416666667" stroke-dasharray="6.53408132"/><g transform="translate(936.0660869939454,1428.350176552) translate(-936.0660869939454,-1428.350176552)"><path fill="black" stroke="none" paint-order="stroke fill markers" d=" M 949.6787564106121 1421.5438418436668 L 936.0660869939454 1428.350176552 L 949.6787564106121 1435.1565112603332 Z"/></g></g><g><g><rect fill="white" stroke="none" x="817.6979258212435" y="1452.8529815020001" width="4.90056099" height="21.23576429"/></g><text fill="black" stroke="none" font-family="sans-serif" font-size="11pt" font-style="normal" font-weight="normal" text-decoration="normal" x="820.1482063162435" y="1467.5546644720002" text-anchor="start" dominant-baseline="alphabetic" xml:space="preserve"></text></g><g><path fill="none" stroke="black" paint-order="fill stroke markers" d=" M 919.7308836939453 1474.088745792 L 734.0148463222084 1474.088745792" stroke-miterlimit="10" stroke-width="1.3612669416666667" stroke-dasharray="6.53408132"/><g transform="translate(720.5655289385418,1474.088745792) translate(-720.5655289385418,-1474.088745792)"><path fill="black" stroke="none" paint-order="stroke fill markers" d=" M 734.1781983552085 1467.2824110836668 L 720.5655289385418 1474.088745792 L 734.1781983552085 1480.8950805003333 Z"/></g></g><g><g><rect fill="white" stroke="none" x="542.2653761886913" y="1498.5915507420002" width="54.61422981324219" height="21.23576429"/></g><text fill="green" stroke="none" font-family="sans-serif" font-size="11pt" font-style="normal" font-weight="normal" text-decoration="normal" x="544.7156566836913" y="1513.2932337120003" text-anchor="start" dominant-baseline="alphabetic" xml:space="preserve">200 OK</text></g><g><path fill="none" stroke="black" paint-order="fill stroke markers" d=" M 704.2303256385417 1519.8273150320001 L 448.36397393575 1519.8273150320001" stroke-miterlimit="10" stroke-width="1.3612669416666667" stroke-dasharray="6.53408132"/><g transform="translate(434.91465655208333,1519.8273150320001) translate(-434.91465655208333,-1519.8273150320001)"><path fill="black" stroke="none" paint-order="stroke fill markers" d=" M 448.52732596875 1513.020980323667 L 434.91465655208333 1519.8273150320001 L 448.52732596875 1526.6336497403333 Z"/></g></g><g><g><rect fill="white" stroke="none" x="154.39551729100262" y="1544.3301199820003" width="199.63203682007813" height="21.23576429"/></g><text fill="black" stroke="none" font-family="sans-serif" font-size="11pt" font-style="normal" font-weight="normal" text-decoration="normal" x="156.8457977860026" y="1559.0318029520004" text-anchor="start" dominant-baseline="alphabetic" xml:space="preserve">Display the list of group Users</text></g><g><path fill="none" stroke="black" paint-order="fill stroke markers" d=" M 418.57945325208334 1565.5658842720002 L 103.29293553366666 1565.5658842720002" stroke-miterlimit="10" stroke-width="1.3612669416666667" stroke-dasharray="6.53408132"/><g transform="translate(89.84361815,1565.5658842720002) translate(-89.84361815,-1565.5658842720002)"><path fill="black" stroke="none" paint-order="stroke fill markers" d=" M 103.45628756666666 1558.759549563667 L 89.84361815 1565.5658842720002 L 103.45628756666666 1572.3722189803334 Z"/></g></g><g><g/><path fill="none" stroke="black" paint-order="fill stroke markers" d=" M 16.335203300000003 773.3085242219996 L 1294.8102767093724 773.3085242219996 L 1294.8102767093724 1614.571494172 L 16.335203300000003 1614.571494172 L 16.335203300000003 773.3085242219996 Z" stroke-miterlimit="10" stroke-width="2.3336004714285714" stroke-dasharray=""/><path fill="white" stroke="black" paint-order="fill stroke markers" d=" M 16.335203300000003 773.3085242219996 L 16.335203300000003 792.9107681819996 L 62.694406897070316 792.9107681819996 L 72.49552887707031 783.1096462019996 L 72.49552887707031 773.3085242219996 L 16.335203300000003 773.3085242219996" stroke-miterlimit="10" stroke-width="2.3336004714285714" stroke-dasharray=""/><text fill="black" stroke="none" font-family="sans-serif" font-size="8.8pt" font-style="normal" font-weight="bold" text-decoration="normal" x="32.67040660000001" y="786.3766868619996" text-anchor="start" dominant-baseline="alphabetic" xml:space="preserve">alt</text><g><rect fill="white" stroke="none" x="86.38045168207032" y="774.6153404859996" width="184.77940620484375" height="16.988611432000003"/></g><text fill="black" stroke="none" font-family="sans-serif" font-size="8.8pt" font-style="normal" font-weight="bold" text-decoration="normal" x="88.83073217707032" y="786.3766868619996" text-anchor="start" dominant-baseline="alphabetic" xml:space="preserve">[If Group or User does not exist]</text><g><path fill="none" stroke="black" paint-order="fill stroke markers" d=" M 16.335203300000003 908.8907116119996 L 1294.8102767093724 908.8907116119996" stroke-miterlimit="10" stroke-width="2.3336004714285714" stroke-dasharray="4.083800825"/></g><g/><g><rect fill="white" stroke="none" x="86.38045168207032" y="910.1975278759995" width="36.84300483765625" height="16.988611432000003"/></g><text fill="black" stroke="none" font-family="sans-serif" font-size="8.8pt" font-style="normal" font-weight="bold" text-decoration="normal" x="88.83073217707032" y="921.9588742519995" text-anchor="start" dominant-baseline="alphabetic" xml:space="preserve">[Else]</text></g><g/><g><g/><path fill="none" stroke="black" paint-order="fill stroke markers" d=" M 32.6704066 1135.9500374819997 L 1278.4750734093723 1135.9500374819997 L 1278.4750734093723 1590.068689222 L 32.6704066 1590.068689222 L 32.6704066 1135.9500374819997 Z" stroke-miterlimit="10" stroke-width="2.3336004714285714" stroke-dasharray=""/><path fill="white" stroke="black" paint-order="fill stroke markers" d=" M 32.6704066 1135.9500374819997 L 32.6704066 1155.5522814419996 L 79.02961019707031 1155.5522814419996 L 88.83073217707032 1145.7511594619998 L 88.83073217707032 1135.9500374819997 L 32.6704066 1135.9500374819997" stroke-miterlimit="10" stroke-width="2.3336004714285714" stroke-dasharray=""/><text fill="black" stroke="none" font-family="sans-serif" font-size="8.8pt" font-style="normal" font-weight="bold" text-decoration="normal" x="49.005609899999996" y="1149.0182001219996" text-anchor="start" dominant-baseline="alphabetic" xml:space="preserve">alt</text><g><rect fill="white" stroke="none" x="102.71565498207032" y="1137.2568537459997" width="201.06277717652344" height="16.988611432000003"/></g><text fill="black" stroke="none" font-family="sans-serif" font-size="8.8pt" font-style="normal" font-weight="bold" text-decoration="normal" x="105.16593547707032" y="1149.0182001219996" text-anchor="start" dominant-baseline="alphabetic" xml:space="preserve">[If user does not exist in the group]</text><g><path fill="none" stroke="black" paint-order="fill stroke markers" d=" M 32.6704066 1271.532224872 L 1278.4750734093723 1271.532224872" stroke-miterlimit="10" stroke-width="2.3336004714285714" stroke-dasharray="4.083800825"/></g><g/><g><rect fill="white" stroke="none" x="102.71565498207032" y="1272.8390411359999" width="36.84300483765625" height="16.988611432000003"/></g><text fill="black" stroke="none" font-family="sans-serif" font-size="8.8pt" font-style="normal" font-weight="bold" text-decoration="normal" x="105.16593547707032" y="1284.6003875119998" text-anchor="start" dominant-baseline="alphabetic" xml:space="preserve">[Else]</text></g><g/></g></g></svg>