<svg version="1.1" xmlns="http://www.w3.org/2000/svg" xmlns:xlink="http://www.w3.org/1999/xlink" width="1337" height="1683"><desc>title%20Set%20admin%20role%20for%20Group%20member%0A%0A%0Aactor%20%23green%3A0.5%20%22Workspace%20Admin%22%20as%20w%0Aboundary%20%22FUniverse%20Admin%20%5CnClient%22%20as%20f%0Acontrol%20%22Group%20%5CnController%22%20as%20gc%0Aparticipant%20%22Group%20%5CnService%22%20as%20gs%0Aparticipant%20%22User%20%5CnService%22%20as%20us%0Aparticipant%20%22Group%20Member%20%5CnService%22%20as%20gms%0Adatabase%20%23blue%3A1%20%22Database%22%20as%20db%0Aw-%3Ef%3AGo%20to%20Users%20In%20Group%20page%0Aactivate%20f%0Aw-%3Ef%3AClick%20Set%20admin%20icon%0Aw%3C--f%3ADisplay%20Set%20Admin%20confirmation%20popup%0Aw-%3Ef%3AClick%20Save%0A%0Af-%3Egc%3APUT%3A%2Fapi%2Fgroup%2F%7BgroupId%7D%5Cn%2Fusers%2F%7BuserId%7D%2Fset-admin%0A%0Aactivate%20gc%0Agc-%3Egs%3Aget(groupId)%0Aactivate%20gs%0Ags-%3Edb%3A%20get(groupId)%0Aactivate%20db%0Ags%3C--db%3AGroup%20data%0Adeactivate%20db%0Agc%3C--gs%3A%20Group%20data%0Adeactivate%20gs%0A%0Agc-%3Eus%3Aget(userId)%0Aactivate%20us%0Aus-%3Edb%3A%20get(userId)%0Aactivate%20db%0Aus%3C--db%3AUser%20data%0Adeactivate%20db%0Agc%3C--us%3A%20User%20data%0Adeactivate%20us%0A%0Agc-%3Egms%3Aget(userId%2C%20groupId)%0Aactivate%20gms%0Agms-%3Edb%3A%20get(userId%2C%20groupId)%0Aactivate%20db%0Agms%3C--db%3AGroup%20Member%20data%0Adeactivate%20db%0Agc%3C--gms%3A%20Group%20Member%20data%0Adeactivate%20gms%0A%0Agc-%3Egc%3A%20Check%20group%5Cnor%20user%5Cnor%20user%20member%20%5CnisEmpty()%0Aactivate%20gc%0Agc--%3Egc%3Aresult%0Adeactivate%20gc%0Aalt%20If%20group%20or%20user%20or%20user%20member%20empty%0Af%3C--gc%3A%3Ccolor%3A%23red%3E404%20NOT%20FOUND%3A%20not%20found%3C%2Fcolor%3E%0A%0Aw%3C--f%3A%20Display%20404%20Not%20Found%20screen%0Aelse%20Else%0Agc-%3Egms%3AsetGroupAdmin()%0Aactivate%20gms%0Agms-%3Edb%3AsetGroupAdmin()%0Aactivate%20db%0Agms%3C--db%3A%20Group%20Member%20data%0Adeactivate%20db%0Agc%3C--gms%3AGroup%20Member%20data%0Adeactivate%20gms%0Af%3C--gc%3A%3Ccolor%3A%23green%3E200%20OK%5CnResponse%20body%3A%20Group%20Member%20data%3C%2Fcolor%3E%0Adeactivate%20gc%0Aw%3C--f%3A%20Display%20Users%20list%20In%20Group%20page%0Adeactivate%20f%0Aend%20%0A</desc><defs/><g><g/><g/><g/><g/><g/><g/><g/><g/><g/><g/><g/><g/><g/><g/><g/><g/><g/><g/><g/><g/><g/><g/><g/><g/><g/><g/><g/><g/><g/><g/><g/><g/><g/><g/><g/><g/><g/><g/><g/><g/><g/><g/><g/><g/><g><rect fill="white" stroke="none" x="0" y="0" width="1337" height="1683"/></g><g><text fill="black" stroke="none" font-family="sans-serif" font-size="16.5pt" font-style="normal" font-weight="normal" text-decoration="normal" x="505.0750885172338" y="24.50280495" text-anchor="start" dominant-baseline="alphabetic" xml:space="preserve">Set admin role for Group member</text></g><g/><g><path fill="none" stroke="black" paint-order="fill stroke markers" d=" M 73.50841485 146.036717502 L 73.50841485 1683.1793480319998" stroke-miterlimit="10" stroke-width="1.3612669416666667" stroke-dasharray="12.565541,5.445067766666667"/><path fill="none" stroke="black" paint-order="fill stroke markers" d=" M 373.76902933645835 146.036717502 L 373.76902933645835 1683.1793480319998" stroke-miterlimit="10" stroke-width="1.3612669416666667" stroke-dasharray="12.565541,5.445067766666667"/><path fill="none" stroke="black" paint-order="fill stroke markers" d=" M 674.8744457902994 146.036717502 L 674.8744457902994 1683.1793480319998" stroke-miterlimit="10" stroke-width="1.3612669416666667" stroke-dasharray="12.565541,5.445067766666667"/><path fill="none" stroke="black" paint-order="fill stroke markers" d=" M 836.8626600780599 146.036717502 L 836.8626600780599 1683.1793480319998" stroke-miterlimit="10" stroke-width="1.3612669416666667" stroke-dasharray="12.565541,5.445067766666667"/><path fill="none" stroke="black" paint-order="fill stroke markers" d=" M 937.5285400615209 146.036717502 L 937.5285400615209 1683.1793480319998" stroke-miterlimit="10" stroke-width="1.3612669416666667" stroke-dasharray="12.565541,5.445067766666667"/><path fill="none" stroke="black" paint-order="fill stroke markers" d=" M 1065.0806123667592 146.036717502 L 1065.0806123667592 1683.1793480319998" stroke-miterlimit="10" stroke-width="1.3612669416666667" stroke-dasharray="12.565541,5.445067766666667"/><path fill="none" stroke="black" paint-order="fill stroke markers" d=" M 1256.1645902219675 146.036717502 L 1256.1645902219675 1683.1793480319998" stroke-miterlimit="10" stroke-width="1.3612669416666667" stroke-dasharray="12.565541,5.445067766666667"/></g><g><g><path fill="white" stroke="green" paint-order="fill stroke markers" d=" M 82.819480731 76.93880754300004 A 9.311065881 9.311065881 0 1 1 82.81947607546743 76.92949647867087 M 73.50841485 86.24987342400003 L 73.50841485 106.17882145000003 M 61.747068473999995 93.43736287600004 L 85.26976122599999 93.43736287600004 M 73.50841485 106.17882145000003 L 61.747068473999995 124.80095321200002 M 73.50841485 106.17882145000003 L 85.26976122599999 124.80095321200002" stroke-miterlimit="10" stroke-width="1.3884922805000002" stroke-dasharray=""/></g><g><text fill="black" stroke="none" font-family="sans-serif" font-size="11pt" font-style="normal" font-weight="normal" text-decoration="normal" x="14.166991815332025" y="141.136156512" text-anchor="start" dominant-baseline="alphabetic" xml:space="preserve">Workspace Admin</text></g><g><path fill="white" stroke="black" paint-order="fill stroke markers" d=" M 406.19440788695834 82.819480731 A 24.2577769005 24.2577769005 0 1 1 406.1943957580709 82.79522295814245 M 342.7321430664583 57.17321154999999 L 342.7321430664583 108.465749912 M 341.34365078595835 82.819480731 L 357.67885408595833 82.819480731" stroke-miterlimit="10" stroke-width="2.7769845610000004" stroke-dasharray=""/></g><g><text fill="black" stroke="none" font-family="sans-serif" font-size="11pt" font-style="normal" font-weight="normal" text-decoration="normal" x="315.51922770071616" y="124.80095321200001" text-anchor="start" dominant-baseline="alphabetic" xml:space="preserve">FUniverse Admin </text><text fill="black" stroke="none" font-family="sans-serif" font-size="11pt" font-style="normal" font-weight="normal" text-decoration="normal" x="355.0288788847982" y="141.136156512" text-anchor="start" dominant-baseline="alphabetic" xml:space="preserve">Client</text></g><g><path fill="white" stroke="black" paint-order="fill stroke markers" d=" M 699.1322226907994 82.819480731 A 24.2577769005 24.2577769005 0 1 1 699.132210561912 82.79522295814245 M 671.6074051302994 58.561703830499994 L 681.4085271102994 50.39410218049999 M 671.6074051302994 58.561703830499994 L 681.4085271102994 66.72930548049999" stroke-miterlimit="10" stroke-width="2.7769845610000004" stroke-dasharray=""/></g><g><text fill="black" stroke="none" font-family="sans-serif" font-size="11pt" font-style="normal" font-weight="normal" text-decoration="normal" x="652.4657162370768" y="124.80095321200001" text-anchor="start" dominant-baseline="alphabetic" xml:space="preserve">Group </text><text fill="black" stroke="none" font-family="sans-serif" font-size="11pt" font-style="normal" font-weight="normal" text-decoration="normal" x="643.0992306413737" y="141.136156512" text-anchor="start" dominant-baseline="alphabetic" xml:space="preserve">Controller</text></g><path fill="none" stroke="none"/><g><path fill="white" stroke="black" paint-order="fill stroke markers" d=" M 794.6973217363294 85.75981732500003 L 879.0279984197904 85.75981732500003 L 879.0279984197904 146.03671750200002 L 794.6973217363294 146.03671750200002 L 794.6973217363294 85.75981732500003 Z" stroke-miterlimit="10" stroke-width="2.613632528" stroke-dasharray=""/></g><g><text fill="black" stroke="none" font-family="sans-serif" font-size="11pt" font-style="normal" font-weight="normal" text-decoration="normal" x="814.4539305248372" y="113.366310902" text-anchor="start" dominant-baseline="alphabetic" xml:space="preserve">Group </text><text fill="black" stroke="none" font-family="sans-serif" font-size="11pt" font-style="normal" font-weight="normal" text-decoration="normal" x="812.4210173168294" y="129.701514202" text-anchor="start" dominant-baseline="alphabetic" xml:space="preserve">Service</text></g><path fill="none" stroke="none"/><g><path fill="white" stroke="black" paint-order="fill stroke markers" d=" M 895.3632017197904 85.75981732500003 L 979.6938784032513 85.75981732500003 L 979.6938784032513 146.03671750200002 L 895.3632017197904 146.03671750200002 L 895.3632017197904 85.75981732500003 Z" stroke-miterlimit="10" stroke-width="2.613632528" stroke-dasharray=""/></g><g><text fill="black" stroke="none" font-family="sans-serif" font-size="11pt" font-style="normal" font-weight="normal" text-decoration="normal" x="920.0160202250951" y="113.366310902" text-anchor="start" dominant-baseline="alphabetic" xml:space="preserve">User </text><text fill="black" stroke="none" font-family="sans-serif" font-size="11pt" font-style="normal" font-weight="normal" text-decoration="normal" x="913.0868973002904" y="129.701514202" text-anchor="start" dominant-baseline="alphabetic" xml:space="preserve">Service</text></g><path fill="none" stroke="none"/><g><path fill="white" stroke="black" paint-order="fill stroke markers" d=" M 996.0290817032513 85.75981732500003 L 1134.132143030267 85.75981732500003 L 1134.132143030267 146.03671750200002 L 996.0290817032513 146.03671750200002 L 996.0290817032513 85.75981732500003 Z" stroke-miterlimit="10" stroke-width="2.613632528" stroke-dasharray=""/></g><g><text fill="black" stroke="none" font-family="sans-serif" font-size="11pt" font-style="normal" font-weight="normal" text-decoration="normal" x="1013.7527772837514" y="113.366310902" text-anchor="start" dominant-baseline="alphabetic" xml:space="preserve">Group Member </text><text fill="black" stroke="none" font-family="sans-serif" font-size="11pt" font-style="normal" font-weight="normal" text-decoration="normal" x="1040.6389696055287" y="129.701514202" text-anchor="start" dominant-baseline="alphabetic" xml:space="preserve">Service</text></g><g><path fill="white" stroke="blue" paint-order="fill stroke markers" d=" M 1232.3151934039674 114.01971903400002 L 1232.3151934039674 79.71579210400003 L 1280.0139870399676 79.71579210400003 L 1280.0139870399676 114.01971903400002" stroke-miterlimit="10" stroke-width="2.7769845610000004" stroke-dasharray=""/><path fill="white" stroke="blue" paint-order="fill stroke markers" d=" M 1280.0139870399676 78.52332226310003 L 1280.0127945800639 78.63113280801664 L 1280.0092173195978 78.73893257196862 L 1280.0032556162923 78.84671077506938 L 1279.9949100663132 78.95445663958843 L 1279.984181504208 79.06215939102911 L 1279.9710710028241 79.16980825920604 L 1279.9555798732008 79.27739247932207 L 1279.9377096644382 79.38490129304488 L 1279.9174621635423 79.49232394958268 L 1279.894839395246 79.59964970675932 L 1279.8698436218076 79.70686783208855 L 1279.8424773427837 79.81396760384715 L 1279.812743294779 79.92093831214721 L 1279.7806444511739 80.02776926000705 L 1279.7461840218257 80.13444976442089 L 1279.709365452749 80.2409691574272 L 1279.6701924257698 80.34731678717546 L 1279.6286688581579 80.45348201899128 L 1279.584798902236 80.55945423643999 L 1279.5385869449626 80.66522284238813 L 1279.4900376074952 80.77077726006326 L 1279.4391557447273 80.87610693411155 L 1279.3859464448021 80.9812013316534 L 1279.330415028606 81.08604994333662 L 1279.272567049234 81.19064228438741 L 1279.2124082914358 81.29496789565883 L 1279.149944771037 81.3990163446767 L 1279.085182734338 81.50277722668281 L 1279.018128657488 81.60624016567543 L 1278.948789245839 81.70939481544688 L 1278.8771714332745 81.81223086061816 L 1278.8032823815158 81.91473801767043 L 1278.7271294794066 82.0169060359734 L 1278.6487203421739 82.11872469881041 L 1278.5680628106659 82.22018382440001 L 1278.4851649505683 82.32127326691418 L 1278.4000350515985 82.42198291749291 L 1278.3126816266752 82.52230270525509 L 1278.223113411068 82.62222259830551 L 1278.1313393615237 82.72173260473815 L 1278.0373686553714 82.8208227736353 L 1277.941210689603 82.91948319606263 L 1277.8428750799346 83.01770400606013 L 1277.742371659846 83.11547538162863 L 1277.6397104795947 83.21278754571205 L 1277.5349018052136 83.3096307671751 L 1277.4279561174828 83.4059953617763 L 1277.318884110882 83.50187169313652 L 1277.2076966925206 83.59725017370252 L 1277.094404981048 83.69212126570572 L 1276.979020305541 83.78647548211597 L 1276.861554204371 83.88030338759027 L 1276.7420184240502 83.97359559941626 L 1276.6204249180569 84.0663427884505 L 1276.4967858456405 84.15853568005136 L 1276.371113570605 84.25016505500653 L 1276.2434206600735 84.34122175045486 L 1276.1137198832307 84.43169666080269 L 1275.9820242100457 84.52158073863437 L 1275.8483468099764 84.61086499561704 L 1275.7127010506515 84.69954050339939 L 1275.5751004965337 84.78759839450454 L 1275.4355589075637 84.87502986321677 L 1275.2940902377845 84.96182616646205 L 1275.1507086339448 85.0479786246824 L 1275.0054284340854 85.13347862270378 L 1274.8582641661058 85.21831761059765 L 1274.7092305463095 85.30248710453591 L 1274.5583424779347 85.38597868763932 L 1274.4056150496624 85.46878401081914 L 1274.251063534108 85.55089479361204 L 1274.0947033862944 85.6323028250082 L 1273.9365502421063 85.71299996427229 L 1273.776619916726 85.79297814175763 L 1273.6149284030528 85.87222935971315 L 1273.4514918701034 85.95074569308306 L 1273.286326661395 86.02851929029947 L 1273.1194492933107 86.10554237406748 L 1272.9508764534482 86.1818072421429 L 1272.780624998951 86.25730626810244 L 1272.6087119548229 86.33203190210645 L 1272.435154512225 86.4059766716538 L 1272.2599700267565 86.47913318232916 L 1272.0831760167205 86.55149411854241 L 1271.9047901613703 86.62305224426024 L 1271.7248302991432 86.69380040372971 L 1271.543314425875 86.76373152219381 L 1271.3602606930021 86.832838606599 L 1271.175687405745 86.90111474629441 L 1270.989613021279 86.96855311372298 L 1270.802056146887 87.03514696510413 L 1270.6130355381003 87.10088964110827 L 1270.4225700968225 87.16577456752255 L 1270.2306788694386 87.2297952559084 L 1270.0373810449119 87.29294530425035 L 1269.8426959528633 87.35521839759618 L 1269.6466430616401 87.41660830868844 L 1269.449241976368 87.47710889858719 L 1269.250512436991 87.53671411728386 L 1269.0504743162971 87.59541800430624 L 1268.8491476179322 87.65321468931457 L 1268.646552474398 87.71009839268848 L 1268.4427091450405 87.76606342610505 L 1268.237638014022 87.82110419310759 L 1268.0313595882853 87.87521518966525 L 1267.823894495501 87.92839100472347 L 1267.6152634820053 87.98062632074506 L 1267.4054874107258 88.03191591424195 L 1267.1945872590948 88.08225465629752 L 1266.9825841169518 88.13163751307953 L 1266.7694991844342 88.18005954634344 L 1266.5553537698577 88.22751591392628 L 1266.3401692875855 88.27400187023083 L 1266.1239672558863 88.31951276670023 L 1265.906769294783 88.36404405228271 L 1265.688597123891 88.40759127388685 L 1265.4694725602455 88.45015007682679 L 1265.2494175161203 88.49171620525767 L 1265.028453996836 88.53228550260131 L 1264.8066040985611 88.57185391196177 L 1264.5838900061 88.6104174765311 L 1264.3603339906767 88.64797233998496 L 1264.135958407706 88.68451474686832 L 1263.9107856945598 88.72004104297093 L 1263.6848383683214 88.75454767569279 L 1263.4581390235353 88.7880311943994 L 1263.2307103299468 88.82048825076676 L 1263.0025750302361 88.8519155991163 L 1262.7737559377426 88.88231009673936 L 1262.5442759341854 88.91166870421154 L 1262.3141579673734 88.93998848569652 L 1262.0834250489113 88.96726660923976 L 1261.852100251899 88.99350034705165 L 1261.620206708623 89.01868707578028 L 1261.387767608245 89.04282427677373 L 1261.154806194481 89.06590953633204 L 1260.921345763278 89.0879405459485 L 1260.687409660485 89.10891510254048 L 1260.453021279517 89.12883110866981 L 1260.2182040590171 89.14768657275249 L 1259.9829814805114 89.1654796092578 L 1259.7473770660617 89.18220843889694 L 1259.5114143759135 89.19787138880088 L 1259.2751170061388 89.21246689268766 L 1259.0385085862777 89.22599349101908 L 1258.8016127769752 89.23844983114658 L 1258.5644532676147 89.2498346674465 L 1258.3270537739495 89.26014686144474 L 1258.089438035731 89.26938538193045 L 1257.8516298143354 89.27754930505931 L 1257.6136528903864 89.2846378144458 L 1257.375531061378 89.29065020124489 L 1257.1372881392947 89.2955858642229 L 1256.8989479482304 89.29944430981766 L 1256.6605343220053 89.30222515218782 L 1256.4220711017838 89.30392811325146 L 1256.1835821336886 89.30455302271389 L 1255.945091266418 89.30409981808468 L 1255.7066223488603 89.30256854468394 L 1255.468199227708 89.29995935563771 L 1255.229845745075 89.29627251186272 L 1254.9915857361107 89.29150838204029 L 1254.7534430266173 89.28566744257942 L 1254.5154414306676 89.2787502775692 L 1254.2776047482228 89.27075757872036 L 1254.0399567627528 89.26169014529611 L 1253.8025212388584 89.25154888403227 L 1253.5653219198937 89.24033480904649 L 1253.3283825255933 89.22804904173692 L 1253.0917267496989 89.21469281067007 L 1252.8553782575912 89.2002674514579 L 1252.6193606839222 89.18477440662434 L 1252.3836976302525 89.16821522546093 L 1252.1484126626915 89.15059156387198 L 1251.9135293095394 89.131905184209 L 1251.6790710589362 89.11215795509437 L 1251.4450613565111 89.09135185123453 L 1251.21152360304 89.06948895322255 L 1250.9784811521029 89.04657144732998 L 1250.7459573077513 89.02260162528835 L 1250.5139753221754 88.99758188405987 L 1250.2825583933807 88.97151472559781 L 1250.0517296628673 88.94440275659629 L 1249.8215122133156 88.91624868822964 L 1249.5919290662791 88.88705533588121 L 1249.363003179881 88.85682561886193 L 1249.134757446519 88.82556256011829 L 1248.9072146905762 88.79326928593011 L 1248.680397666139 88.75994902559792 L 1248.4543290547203 88.72560511111998 L 1248.2290314629934 88.6902409768591 L 1248.0045274205295 88.65386015919924 L 1247.7808393775456 88.61646629619187 L 1247.5579897026596 88.57806312719212 L 1247.3360006806536 88.53865449248488 L 1247.1148945102443 88.49824433290078 L 1246.8946933018651 88.4568366894221 L 1246.6754190754527 88.4144357027787 L 1246.4570937582475 88.3710456130339 L 1246.2397391825994 88.32667075916052 L 1246.0233770837842 88.28131557860695 L 1245.8080290978319 88.23498460685347 L 1245.5937167593615 88.18768247695864 L 1245.3804614994285 88.13941391909603 L 1245.168284643381 88.0901837600812 L 1244.9572074087278 88.03999692288905 L 1244.7472509030165 87.98885842616143 L 1244.5384361217225 87.93677338370544 L 1244.3307839461502 87.88374700398191 L 1244.124315141344 87.8297845895846 L 1243.9190503540124 87.77489153671002 L 1243.7150101104628 87.71907333461769 L 1243.51221481455 87.66233556508129 L 1243.3106847456343 87.60468390183053 L 1243.1104400565544 87.54612410998368 L 1242.911500771613 87.4866620454711 L 1242.7138867845722 87.42630365444973 L 1242.5176178566662 87.36505497270832 L 1242.3227136146245 87.30292212506406 L 1242.1291935487084 87.2399113247499 L 1241.9370770107637 87.17602887279338 L 1241.746383212284 87.11128115738646 L 1241.55713122249 87.0456746532467 L 1241.369339966423 86.97921592096989 L 1241.1830282230524 86.91191160637383 L 1240.998214623397 86.84376843983392 L 1240.814917648663 86.77479323561002 L 1240.6331556283947 86.70499289116506 L 1240.452946738643 86.63437438647533 L 1240.2743090001468 86.56294478333245 L 1240.097260276531 86.49071122463722 L 1239.92181827252 86.4176809336853 L 1239.7480005321686 86.34386121344494 L 1239.5758244371057 86.26925944582663 L 1239.4053072047975 86.19388309094498 L 1239.2364658868248 86.11773968637264 L 1239.0693173671789 86.04083684638665 L 1238.9038783605724 85.96318226120691 L 1238.7401654107684 85.88478369622722 L 1238.578194888925 85.80564899123874 L 1238.4179829919597 85.72578605964603 L 1238.2595457409286 85.64520288767571 L 1238.102898979425 85.5639075335778 L 1237.948058371994 85.48190812681999 L 1237.7950394025677 85.3992128672746 L 1237.6438573729154 85.31583002439868 L 1237.494527401114 85.23176793640704 L 1237.3470644200365 85.14703500943843 L 1237.2014831758581 85.06163971671492 L 1237.0577982265816 84.97559059769462 L 1236.9160239405824 84.88889625721775 L 1236.7761744951708 84.80156536464608 L 1236.6382638751752 84.71360665299612 L 1236.5023058715421 84.62502891806572 L 1236.3683140799592 84.53584101755456 L 1236.2363018994934 84.44605187017837 L 1236.106282531253 84.35567045477706 L 1235.9782689770666 84.26470580941687 L 1235.8522740381827 84.1731670304865 L 1235.7283103139903 84.08106327178758 L 1235.6063902007586 83.98840374361924 L 1235.4865258903972 83.89519771185707 L 1235.3687293692371 83.80145449702657 L 1235.2530124168327 83.70718347337109 L 1235.1393866047827 83.61239406791447 L 1235.027863295573 83.51709575951824 L 1234.9184536414425 83.42129807793384 L 1234.8111685832648 83.32501060284957 L 1234.7060188494565 83.22824296293274 L 1234.6030149549035 83.13100483486667 L 1234.5021671999093 83.03330594238315 L 1234.403485669165 82.93515605529001 L 1234.3069802307423 82.83656498849416 L 1234.2126605351036 82.73754260102014 L 1234.1205360141407 82.63809879502416 L 1234.0306158802287 82.53824351480395 L 1233.9429091253055 82.43798674580434 L 1233.8574245199743 82.33733851361866 L 1233.774170612624 82.23630888298626 L 1233.6931557285761 82.13490795678602 L 1233.6143879692513 82.03314587502607 L 1233.53787521136 81.93103281382975 L 1233.4636251061143 81.82857898441812 L 1233.3916450784625 81.72579463208872 L 1233.3219423263479 81.62269003519114 L 1233.2545238199873 81.51927550409916 L 1233.1893963011753 81.4155613801797 L 1233.1265662826095 81.3115580347587 L 1233.0660400472393 81.20727586808408 L 1233.007823647638 81.10272530828557 L 1232.9519229053965 80.99791681033204 L 1232.898343410543 80.89286085498595 L 1232.8470905209824 80.78756794775528 L 1232.7981693619604 80.682048617843 L 1232.7515848255528 80.57631341709417 L 1232.7073415701736 80.47037291894078 L 1232.6654440201123 80.36423771734434 L 1232.6258963650885 80.25791842573655 L 1232.588702559835 80.15142567595801 L 1232.553866323701 80.04477011719491 L 1232.5213911402814 79.9379624149143 L 1232.4912802570673 79.83101324979734 L 1232.463536685122 79.72393331667146 L 1232.4381631987796 79.61673332344074 L 1232.4151623353678 79.50942399001515 L 1232.3945363949533 79.40201604723862 L 1232.3762874401132 79.29452023581591 L 1232.3604172957278 79.18694730523859 L 1232.3469275487982 79.07930801271009 L 1232.335819548288 78.97161312206994 L 1232.327094404988 78.86387340271747 L 1232.320752991405 78.75609962853483 L 1232.3167959416753 78.64830257680963 L 1232.3152236515007 78.5404930271572 L 1232.3160362781086 78.43268176044268 L 1232.3192337402372 78.32487955770289 L 1232.3248157181429 78.21709719906826 L 1232.3327816536325 78.10934546268486 L 1232.3431307501194 78.00163512363652 L 1232.355861972702 77.89397695286739 L 1232.3709740482693 77.78638171610483 L 1232.3884654656258 77.67886017278285 L 1232.4083344756446 77.57142307496619 L 1232.4305790914414 77.4640811662751 L 1232.4551970885727 77.35684518081099 L 1232.4821860052598 77.24972584208304 L 1232.5115431426332 77.14273386193588 L 1232.5432655650036 77.03587993947833 L 1232.5773501001554 76.92917476001364 L 1232.6137933396635 76.82262899397078 L 1232.6525916392343 76.7162532958376 L 1232.69374111907 76.61005830309527 L 1232.737237664257 76.50405463515456 L 1232.783076925177 76.39825289229391 L 1232.8312543179422 76.29266365459947 L 1232.8817650248534 76.187297480907 L 1232.934603994882 76.08216490774608 L 1232.9897659441751 75.97727644828639 L 1233.0472453565837 75.87264259128648 L 1233.1070364842146 75.76827380004487 L 1233.1691333480046 75.66418051135369 L 1233.233529738319 75.56037313445508 L 1233.3002192155727 75.45686205000021 L 1233.3691951108735 75.3536576090113 L 1233.4404505266893 75.2507701318464 L 1233.513978337538 75.1482099071675 L 1233.5897711906996 75.04598719091162 L 1233.6678215069521 74.9441122052652 L 1233.7481214813288 74.84259513764188 L 1233.8306630838993 74.74144613966385 L 1233.9154380605721 74.6406753261466 L 1234.00243793392 74.54029277408755 L 1234.0916540040284 74.4403085216582 L 1234.1830773493643 74.34073256720049 L 1234.2766988276699 74.24157486822689 L 1234.372509076875 74.14284534042467 L 1234.4704985160347 74.04455385666434 L 1234.5706573462865 73.94671024601234 L 1234.6729755518309 73.84932429274824 L 1234.7774429009328 73.75240573538618 L 1234.8840489469442 73.65596426570113 L 1234.9927830293495 73.56000952775972 L 1235.103634274831 73.46455111695575 L 1235.2165915983562 73.36959857905077 L 1235.3316437042872 73.27516140921944 L 1235.4487790875094 73.18124905110005 L 1235.567986034582 73.08787089585014 L 1235.6892526249094 72.99503628120743 L 1235.8125667319337 72.90275449055602 L 1235.9379160243473 72.81103475199808 L 1236.0652879673248 72.71988623743101 L 1236.1946698237787 72.62931806163034 L 1236.3260486556308 72.53933928133816 L 1236.4594113251073 72.44995889435752 L 1236.5947444960527 72.36118583865263 L 1236.7320346352626 72.2730289914551 L 1236.8712680138374 72.18549716837617 L 1237.0124307085553 72.0985991225252 L 1237.1555086032645 72.01234354363439 L 1237.3004873902946 71.9267390571897 L 1237.447352571888 71.84179422356848 L 1237.5960894616485 71.7575175371833 L 1237.7466831860115 71.67391742563255 L 1237.8991186857297 71.59100224885773 L 1238.0533807173806 71.50878029830743 L 1238.2094538548893 71.42725979610816 L 1238.3673224910722 71.34644889424223 L 1238.526970839197 71.26635567373248 L 1238.6883829345622 71.18698814383421 L 1238.8515426360925 71.10835424123428 L 1239.0164336279543 71.03046182925742 L 1239.1830394211852 70.95331869707991 L 1239.3513433553449 70.8769325589507 L 1239.5213286001801 70.80131105341991 L 1239.6929781573085 70.72646174257511 L 1239.8662748619167 70.65239211128501 L 1240.0412013844793 70.579109566451 L 1240.2177402324894 70.5066214362665 L 1240.3958737522096 70.43493496948412 L 1240.575584130436 70.3640573346908 L 1240.756853396281 70.29399561959096 L 1240.9396634229688 70.22475683029771 L 1241.123995929649 70.1563478906323 L 1241.3098324832247 70.08877564143168 L 1241.4971545001952 70.02204683986446 L 1241.6859432485153 69.9561681587552 L 1241.876179849467 69.8911461859171 L 1242.0678452795491 69.82698742349325 L 1242.2609203723782 69.76369828730645 L 1242.455385820606 69.70128510621757 L 1242.6512221778494 69.6397541214927 L 1242.8484098606364 69.57911148617904 L 1243.0469291503625 69.51936326448958 L 1243.2467601952644 69.46051543119673 L 1243.4478830124044 69.40257387103475 L 1243.650277489668 69.34554437811137 L 1243.8539233877761 69.28943265532837 L 1244.058800342309 69.23424431381126 L 1244.2648878657417 69.1799848723482 L 1244.4721653494937 69.12665975683814 L 1244.6806120659892 69.07427429974817 L 1244.8902071707303 69.02283373958036 L 1245.1009297043813 68.97234322034787 L 1245.3127585948644 68.9228077910605 L 1245.5256726594669 68.87423240521996 L 1245.73965060696 68.82662192032431 L 1245.9546710397271 68.77998109738239 L 1246.1707124559043 68.73431460043761 L 1246.38775325153 68.68962699610162 L 1246.6057717227052 68.64592275309762 L 1246.8247460677649 68.60320624181347 L 1247.0446543894566 68.56148173386472 L 1247.2654746971318 68.52075340166739 L 1247.4871849089434 68.48102531802076 L 1247.7097628540553 68.44230145570006 L 1247.9331862748584 68.4045856870593 L 1248.1574328291965 68.36788178364388 L 1248.3824800926016 68.33219341581358 L 1248.6083055605343 68.29752415237542 L 1248.8348866506362 68.26387746022687 L 1249.0622007049874 68.23125670400908 L 1249.2902249923716 68.19966514577052 L 1249.51893671055 68.16910594464068 L 1249.7483129885416 68.1395821565142 L 1249.9783308889096 68.11109673374527 L 1250.2089674100557 68.08365252485247 L 1250.4401994885202 68.05725227423379 L 1250.6720040012876 68.03189862189231 L 1250.9043577681 68.00759410317211 L 1251.1372375537742 67.98434114850484 L 1251.3706200705258 67.96214208316657 L 1251.6044819802974 67.94099912704533 L 1251.8387998970932 67.92091439441914 L 1252.0735503893168 67.9018898937445 L 1252.3087099821144 67.88392752745563 L 1252.5442551597228 67.86702909177419 L 1252.7801623678204 67.85119627652966 L 1253.0164080158831 67.8364306649904 L 1253.252968479543 67.82273373370522 L 1253.4898201029507 67.81010685235586 L 1253.7269392011412 67.79855128361993 L 1253.9643020624028 67.78806818304466 L 1254.2018849506464 67.77865859893137 L 1254.439664107782 67.77032347223066 L 1254.6776157560912 67.76306363644822 L 1254.915716100608 67.75687981756161 L 1255.153941331496 67.75177263394752 L 1255.392267626431 67.74774259632011 L 1255.6306711529821 67.74479010767975 L 1255.869128070995 67.74291546327285 L 1256.1076145349768 67.74211885056229 L 1256.3461066964799 67.74240034920868 L 1256.5845807064868 67.74375993106239 L 1256.823012717795 67.74619746016636 L 1257.0613788874025 67.74971269276972 L 1257.299655378891 67.75430527735213 L 1257.5378183648093 67.75997475465897 L 1257.775844029058 67.76672055774722 L 1258.0137085692684 67.7745420120422 L 1258.2513881991852 67.78343833540501 L 1258.488859151043 67.7934086382107 L 1258.726097677945 67.80445192343733 L 1258.963080056236 67.81656708676556 L 1259.1997825878757 67.82975291668915 L 1259.436181602808 67.84400809463611 L 1259.6722534613284 67.85933119510051 L 1259.9079745564482 67.87572068578508 L 1260.1433213162538 67.89317492775442 L 1260.3782702062656 67.91169217559886 L 1260.6127977317906 67.93127057760906 L 1260.8468804402712 67.95190817596112 L 1261.080494923632 67.97360290691242 L 1261.3136178206191 67.99635260100793 L 1261.5462258191371 68.0201549832972 L 1261.7782956585802 68.04500767356186 L 1262.0098041321578 68.07090818655355 L 1262.240728089215 68.0978539322426 L 1262.4710444375494 68.12584221607686 L 1262.7007301457172 68.15487023925128 L 1262.9297622453396 68.18493509898775 L 1263.1581178333972 68.21603378882533 L 1263.3857740745218 68.24816319892096 L 1263.6127082032785 68.2813201163604 L 1263.838897526444 68.31550122547955 L 1264.064319425274 68.35070310819597 L 1264.2889513577672 68.38692224435073 L 1264.5127708609168 68.42415501206038 L 1264.7357555529593 68.4623976880792 L 1264.9578831356114 68.50164644817144 L 1265.1791313963 68.5418973674938 L 1265.399478210383 68.5831464209879 L 1265.6189015433629 68.62538948378277 L 1265.8373794530894 68.66862233160731 L 1266.0548900919532 68.71284064121278 L 1266.271411709072 68.75803999080506 L 1266.4869226524645 68.80421586048686 L 1266.7014013712158 68.8513636327097 L 1266.9148264176326 68.89947859273563 L 1267.1271764493886 68.94855592910876 L 1267.3384302316572 68.99859073413636 L 1267.5485666392365 69.04957800437958 L 1267.7575646586606 69.10151264115393 L 1267.9654033903016 69.15438945103898 L 1268.17206205046 69.20820314639782 L 1268.3775199734416 69.26294834590577 L 1268.5817566136257 69.31861957508848 L 1268.784751547518 69.37521126686941 L 1268.9864844757947 69.43271776212659 L 1269.1869352253307 69.49113331025838 L 1269.3860837512184 69.55045206975865 L 1269.583910138771 69.6106681088009 L 1269.7803946055146 69.67177540583138 L 1269.9755175031662 69.73376785017133 L 1270.169259319599 69.79663924262796 L 1270.3616006807924 69.86038329611443 L 1270.552522352771 69.92499363627851 L 1270.7420052435261 69.99046380214003 L 1270.930030404927 70.05678724673693 L 1271.116579034614 70.12395733778007 L 1271.3016324778798 70.19196735831628 L 1271.485172229534 70.2608105074002 L 1271.6671799357548 70.33047990077428 L 1271.8476373959227 70.40096857155726 L 1272.0265265644425 70.47226947094077 L 1272.2038295525465 70.54437546889432 L 1272.379528630083 70.61727935487819 L 1272.5536062272915 70.69097383856453 L 1272.7260449365567 70.7654515505664 L 1272.8968275141517 70.84070504317464 L 1273.065936881961 70.91672679110272 L 1273.2333561291887 70.99350919223919 L 1273.3990685140495 71.07104456840791 L 1273.5630574654433 71.14932516613591 L 1273.7253065846112 71.22834315742861 L 1273.8857996467768 71.30809064055276 L 1274.0445206027675 71.38855964082649 L 1274.2014535806202 71.46974211141682 L 1274.3565828871676 71.55162993414437 L 1274.5098930096083 71.6342149202951 L 1274.661368617058 71.71748881143918 L 1274.8109945620822 71.80144328025693 L 1274.958755882211 71.88606993137142 L 1275.1046378014355 71.97136030218806 L 1275.2486257316855 72.05730586374082 L 1275.3907052742875 72.14389802154521 L 1275.5308622214063 72.23112811645758 L 1275.6690825574635 72.31898742554114 L 1275.805352460541 72.40746716293819 L 1275.9396583037617 72.49655848074872 L 1276.0719866566535 72.58625246991521 L 1276.2023242864911 72.67654016111346 L 1276.3306581596205 72.76741252564963 L 1276.4569754427612 72.85886047636295 L 1276.5812635042898 72.95087486853458 L 1276.7035099155044 73.04344650080199 L 1276.823702451865 73.13656611607907 L 1276.9418290942185 73.2302244024819 L 1277.0578780299993 73.32441199425989 L 1277.1718376544102 73.41911947273236 L 1277.2836965715837 73.51433736723038 L 1277.3934435957217 73.61005615604385 L 1277.5010677522127 73.70626626737365 L 1277.6065582787312 73.80295808028882 L 1277.7099046263124 73.90012192568864 L 1277.8110964604073 73.99774808726954 L 1277.9101236619172 74.09582680249675 L 1278.0069763282042 74.19434826358044 L 1278.1016447740826 74.29330261845661 L 1278.1941195327865 74.39267997177224 L 1278.2843913569172 74.49247038587482 L 1278.3724512193676 74.59266388180609 L 1278.4582903142248 74.69325044029995 L 1278.5419000576505 74.79422000278437 L 1278.6232720887406 74.89556247238725 L 1278.7023982703595 74.99726771494608 L 1278.779270689955 75.09932556002136 L 1278.853881660349 75.20172580191361 L 1278.926223720507 75.304458200684 L 1278.9962896362833 75.40751248317825 L 1279.0640724011444 75.510878344054 L 1279.1295652368703 75.61454544681129 L 1279.1927615942323 75.71850342482624 L 1279.2536551536468 75.82274188238767 L 1279.3122398258092 75.9272503957367 L 1279.368509752301 76.03201851410908 L 1279.4224593061763 76.13703576078028 L 1279.4740830925243 76.24229163411314 L 1279.5233759490102 76.34777560860806 L 1279.5703329463886 76.45347713595547 L 1279.6149493889995 76.55938564609073 L 1279.6572208152356 76.66549054825109 L 1279.6971429979894 76.77178123203474 L 1279.734711945076 76.87824706846187 L 1279.7699238996322 76.98487741103759 L 1279.8027753404915 77.09166159681648 L 1279.8332629825372 77.19858894746895 L 1279.861383777031 77.30564877034905 L 1279.8871349119165 77.41283035956369 L 1279.9105138121015 77.52012299704329 L 1279.931518139716 77.62751595361348 L 1279.950145794344 77.73499849006812 L 1279.9663949132364 77.84255985824313 L 1279.9802638714943 77.95018930209135 L 1279.9917512822335 78.05787605875803 L 1280.0008559967227 78.16560935965728 L 1280.0075771044978 78.27337843154879 L 1280.011913933454 78.38117249761517 L 1280.0138660499115 78.48898077853964 M 1280.0139870399676 112.82724919310002 L 1280.0127945800639 112.93505973801663 L 1280.0092173195978 113.04285950196861 L 1280.0032556162923 113.15063770506937 L 1279.9949100663132 113.25838356958842 L 1279.984181504208 113.3660863210291 L 1279.9710710028241 113.47373518920602 L 1279.9555798732008 113.58131940932206 L 1279.9377096644382 113.68882822304487 L 1279.9174621635423 113.79625087958267 L 1279.894839395246 113.90357663675931 L 1279.8698436218076 114.01079476208854 L 1279.8424773427837 114.11789453384714 L 1279.812743294779 114.2248652421472 L 1279.7806444511739 114.33169619000704 L 1279.7461840218257 114.43837669442088 L 1279.709365452749 114.54489608742719 L 1279.6701924257698 114.65124371717545 L 1279.6286688581579 114.75740894899127 L 1279.584798902236 114.86338116643998 L 1279.5385869449626 114.96914977238812 L 1279.4900376074952 115.07470419006324 L 1279.4391557447273 115.18003386411154 L 1279.3859464448021 115.28512826165338 L 1279.330415028606 115.38997687333661 L 1279.272567049234 115.4945692143874 L 1279.2124082914358 115.59889482565882 L 1279.149944771037 115.70294327467668 L 1279.085182734338 115.8067041566828 L 1279.018128657488 115.91016709567542 L 1278.948789245839 116.01332174544687 L 1278.8771714332745 116.11615779061815 L 1278.8032823815158 116.21866494767042 L 1278.7271294794066 116.3208329659734 L 1278.6487203421739 116.4226516288104 L 1278.5680628106659 116.5241107544 L 1278.4851649505683 116.62520019691416 L 1278.4000350515985 116.7259098474929 L 1278.3126816266752 116.82622963525507 L 1278.223113411068 116.9261495283055 L 1278.1313393615237 117.02565953473814 L 1278.0373686553714 117.12474970363529 L 1277.941210689603 117.22341012606262 L 1277.8428750799346 117.32163093606012 L 1277.742371659846 117.41940231162862 L 1277.6397104795947 117.51671447571204 L 1277.5349018052136 117.61355769717508 L 1277.4279561174828 117.7099222917763 L 1277.318884110882 117.80579862313651 L 1277.2076966925206 117.90117710370251 L 1277.094404981048 117.99604819570571 L 1276.979020305541 118.09040241211596 L 1276.861554204371 118.18423031759026 L 1276.7420184240502 118.27752252941625 L 1276.6204249180569 118.37026971845049 L 1276.4967858456405 118.46246261005135 L 1276.371113570605 118.55409198500652 L 1276.2434206600735 118.64514868045485 L 1276.1137198832307 118.73562359080267 L 1275.9820242100457 118.82550766863436 L 1275.8483468099764 118.91479192561702 L 1275.7127010506515 119.00346743339938 L 1275.5751004965337 119.09152532450453 L 1275.4355589075637 119.17895679321676 L 1275.2940902377845 119.26575309646203 L 1275.1507086339448 119.35190555468239 L 1275.0054284340854 119.43740555270377 L 1274.8582641661058 119.52224454059764 L 1274.7092305463095 119.6064140345359 L 1274.5583424779347 119.68990561763931 L 1274.4056150496624 119.77271094081912 L 1274.251063534108 119.85482172361203 L 1274.0947033862944 119.93622975500818 L 1273.9365502421063 120.01692689427227 L 1273.776619916726 120.09690507175762 L 1273.6149284030528 120.17615628971313 L 1273.4514918701034 120.25467262308305 L 1273.286326661395 120.33244622029946 L 1273.1194492933107 120.40946930406747 L 1272.9508764534482 120.48573417214288 L 1272.780624998951 120.56123319810243 L 1272.6087119548229 120.63595883210644 L 1272.435154512225 120.70990360165379 L 1272.2599700267565 120.78306011232915 L 1272.0831760167205 120.8554210485424 L 1271.9047901613703 120.92697917426023 L 1271.7248302991432 120.9977273337297 L 1271.543314425875 121.0676584521938 L 1271.3602606930021 121.13676553659899 L 1271.175687405745 121.2050416762944 L 1270.989613021279 121.27248004372296 L 1270.802056146887 121.33907389510412 L 1270.6130355381003 121.40481657110826 L 1270.4225700968225 121.46970149752254 L 1270.2306788694386 121.53372218590839 L 1270.0373810449119 121.59687223425034 L 1269.8426959528633 121.65914532759616 L 1269.6466430616401 121.72053523868843 L 1269.449241976368 121.78103582858718 L 1269.250512436991 121.84064104728385 L 1269.0504743162971 121.89934493430623 L 1268.8491476179322 121.95714161931456 L 1268.646552474398 122.01402532268847 L 1268.4427091450405 122.06999035610504 L 1268.237638014022 122.12503112310758 L 1268.0313595882853 122.17914211966524 L 1267.823894495501 122.23231793472345 L 1267.6152634820053 122.28455325074505 L 1267.4054874107258 122.33584284424194 L 1267.1945872590948 122.38618158629751 L 1266.9825841169518 122.43556444307951 L 1266.7694991844342 122.48398647634343 L 1266.5553537698577 122.53144284392627 L 1266.3401692875855 122.57792880023082 L 1266.1239672558863 122.62343969670022 L 1265.906769294783 122.6679709822827 L 1265.688597123891 122.71151820388684 L 1265.4694725602455 122.75407700682678 L 1265.2494175161203 122.79564313525766 L 1265.028453996836 122.8362124326013 L 1264.8066040985611 122.87578084196176 L 1264.5838900061 122.91434440653109 L 1264.3603339906767 122.95189926998495 L 1264.135958407706 122.9884416768683 L 1263.9107856945598 123.02396797297092 L 1263.6848383683214 123.05847460569278 L 1263.4581390235353 123.09195812439938 L 1263.2307103299468 123.12441518076675 L 1263.0025750302361 123.15584252911628 L 1262.7737559377426 123.18623702673935 L 1262.5442759341854 123.21559563421152 L 1262.3141579673734 123.2439154156965 L 1262.0834250489113 123.27119353923975 L 1261.852100251899 123.29742727705164 L 1261.620206708623 123.32261400578027 L 1261.387767608245 123.34675120677372 L 1261.154806194481 123.36983646633203 L 1260.921345763278 123.39186747594849 L 1260.687409660485 123.41284203254047 L 1260.453021279517 123.4327580386698 L 1260.2182040590171 123.45161350275248 L 1259.9829814805114 123.46940653925779 L 1259.7473770660617 123.48613536889692 L 1259.5114143759135 123.50179831880087 L 1259.2751170061388 123.51639382268765 L 1259.0385085862777 123.52992042101907 L 1258.8016127769752 123.54237676114657 L 1258.5644532676147 123.5537615974465 L 1258.3270537739495 123.56407379144473 L 1258.089438035731 123.57331231193044 L 1257.8516298143354 123.5814762350593 L 1257.6136528903864 123.58856474444579 L 1257.375531061378 123.59457713124488 L 1257.1372881392947 123.59951279422289 L 1256.8989479482304 123.60337123981765 L 1256.6605343220053 123.6061520821878 L 1256.4220711017838 123.60785504325145 L 1256.1835821336886 123.60847995271388 L 1255.945091266418 123.60802674808467 L 1255.7066223488603 123.60649547468392 L 1255.468199227708 123.6038862856377 L 1255.229845745075 123.60019944186271 L 1254.9915857361107 123.59543531204028 L 1254.7534430266173 123.58959437257941 L 1254.5154414306676 123.58267720756919 L 1254.2776047482228 123.57468450872035 L 1254.0399567627528 123.5656170752961 L 1253.8025212388584 123.55547581403226 L 1253.5653219198937 123.54426173904648 L 1253.3283825255933 123.53197597173691 L 1253.0917267496989 123.51861974067006 L 1252.8553782575912 123.50419438145789 L 1252.6193606839222 123.48870133662433 L 1252.3836976302525 123.47214215546092 L 1252.1484126626915 123.45451849387197 L 1251.9135293095394 123.43583211420899 L 1251.6790710589362 123.41608488509436 L 1251.4450613565111 123.39527878123452 L 1251.21152360304 123.37341588322253 L 1250.9784811521029 123.35049837732997 L 1250.7459573077513 123.32652855528833 L 1250.5139753221754 123.30150881405986 L 1250.2825583933807 123.2754416555978 L 1250.0517296628673 123.24832968659628 L 1249.8215122133156 123.22017561822963 L 1249.5919290662791 123.1909822658812 L 1249.363003179881 123.16075254886192 L 1249.134757446519 123.12948949011827 L 1248.9072146905762 123.0971962159301 L 1248.680397666139 123.06387595559791 L 1248.4543290547203 123.02953204111996 L 1248.2290314629934 122.99416790685909 L 1248.0045274205295 122.95778708919923 L 1247.7808393775456 122.92039322619186 L 1247.5579897026596 122.88199005719211 L 1247.3360006806536 122.84258142248487 L 1247.1148945102443 122.80217126290077 L 1246.8946933018651 122.7607636194221 L 1246.6754190754527 122.71836263277869 L 1246.4570937582475 122.67497254303389 L 1246.2397391825994 122.63059768916051 L 1246.0233770837842 122.58524250860694 L 1245.8080290978319 122.53891153685346 L 1245.5937167593615 122.49160940695863 L 1245.3804614994285 122.44334084909602 L 1245.168284643381 122.39411069008119 L 1244.9572074087278 122.34392385288903 L 1244.7472509030165 122.29278535616142 L 1244.5384361217225 122.24070031370543 L 1244.3307839461502 122.1876739339819 L 1244.124315141344 122.1337115195846 L 1243.9190503540124 122.07881846671 L 1243.7150101104628 122.02300026461768 L 1243.51221481455 121.96626249508128 L 1243.3106847456343 121.90861083183052 L 1243.1104400565544 121.85005103998367 L 1242.911500771613 121.7905889754711 L 1242.7138867845722 121.73023058444971 L 1242.5176178566662 121.66898190270831 L 1242.3227136146245 121.60684905506405 L 1242.1291935487084 121.54383825474989 L 1241.9370770107637 121.47995580279337 L 1241.746383212284 121.41520808738645 L 1241.55713122249 121.3496015832467 L 1241.369339966423 121.28314285096988 L 1241.1830282230524 121.21583853637382 L 1240.998214623397 121.14769536983391 L 1240.814917648663 121.07872016561001 L 1240.6331556283947 121.00891982116505 L 1240.452946738643 120.93830131647532 L 1240.2743090001468 120.86687171333244 L 1240.097260276531 120.79463815463721 L 1239.92181827252 120.72160786368529 L 1239.7480005321686 120.64778814344493 L 1239.5758244371057 120.57318637582662 L 1239.4053072047975 120.49781002094497 L 1239.2364658868248 120.42166661637263 L 1239.0693173671789 120.34476377638664 L 1238.9038783605724 120.2671091912069 L 1238.7401654107684 120.1887106262272 L 1238.578194888925 120.10957592123873 L 1238.4179829919597 120.02971298964601 L 1238.2595457409286 119.9491298176757 L 1238.102898979425 119.8678344635778 L 1237.948058371994 119.78583505681998 L 1237.7950394025677 119.70313979727459 L 1237.6438573729154 119.61975695439867 L 1237.494527401114 119.53569486640703 L 1237.3470644200365 119.45096193943841 L 1237.2014831758581 119.36556664671491 L 1237.0577982265816 119.27951752769461 L 1236.9160239405824 119.19282318721774 L 1236.7761744951708 119.10549229464607 L 1236.6382638751752 119.01753358299611 L 1236.5023058715421 118.92895584806571 L 1236.3683140799592 118.83976794755455 L 1236.2363018994934 118.74997880017835 L 1236.106282531253 118.65959738477704 L 1235.9782689770666 118.56863273941686 L 1235.8522740381827 118.47709396048649 L 1235.7283103139903 118.38499020178757 L 1235.6063902007586 118.29233067361923 L 1235.4865258903972 118.19912464185705 L 1235.3687293692371 118.10538142702656 L 1235.2530124168327 118.01111040337108 L 1235.1393866047827 117.91632099791445 L 1235.027863295573 117.82102268951823 L 1234.9184536414425 117.72522500793383 L 1234.8111685832648 117.62893753284956 L 1234.7060188494565 117.53216989293273 L 1234.6030149549035 117.43493176486666 L 1234.5021671999093 117.33723287238314 L 1234.403485669165 117.23908298529 L 1234.3069802307423 117.14049191849415 L 1234.2126605351036 117.04146953102013 L 1234.1205360141407 116.94202572502415 L 1234.0306158802287 116.84217044480394 L 1233.9429091253055 116.74191367580433 L 1233.8574245199743 116.64126544361865 L 1233.774170612624 116.54023581298625 L 1233.6931557285761 116.43883488678601 L 1233.6143879692513 116.33707280502605 L 1233.53787521136 116.23495974382973 L 1233.4636251061143 116.1325059144181 L 1233.3916450784625 116.02972156208871 L 1233.3219423263479 115.92661696519113 L 1233.2545238199873 115.82320243409914 L 1233.1893963011753 115.71948831017968 L 1233.1265662826095 115.61548496475869 L 1233.0660400472393 115.51120279808407 L 1233.007823647638 115.40665223828556 L 1232.9519229053965 115.30184374033203 L 1232.898343410543 115.19678778498594 L 1232.8470905209824 115.09149487775527 L 1232.7981693619604 114.98597554784298 L 1232.7515848255528 114.88024034709416 L 1232.7073415701736 114.77429984894077 L 1232.6654440201123 114.66816464734433 L 1232.6258963650885 114.56184535573654 L 1232.588702559835 114.455352605958 L 1232.553866323701 114.3486970471949 L 1232.5213911402814 114.24188934491428 L 1232.4912802570673 114.13494017979733 L 1232.463536685122 114.02786024667145 L 1232.4381631987796 113.92066025344073 L 1232.4151623353678 113.81335092001514 L 1232.3945363949533 113.7059429772386 L 1232.3762874401132 113.5984471658159 L 1232.3604172957278 113.49087423523858 L 1232.3469275487982 113.38323494271008 L 1232.335819548288 113.27554005206993 L 1232.327094404988 113.16780033271746 L 1232.320752991405 113.06002655853482 L 1232.3167959416753 112.95222950680962 L 1232.3152236515007 112.84441995715719" stroke-miterlimit="10" stroke-width="2.7769845610000004" stroke-dasharray=""/></g><g><text fill="black" stroke="none" font-family="sans-serif" font-size="11pt" font-style="normal" font-weight="normal" text-decoration="normal" x="1224.7866452756784" y="141.136156512" text-anchor="start" dominant-baseline="alphabetic" xml:space="preserve">Database</text></g></g><g><path fill="white" stroke="black" paint-order="fill stroke markers" d=" M 365.60142768645835 199.942888392 L 381.93663098645834 199.942888392 L 381.93663098645834 1601.503331532 L 365.60142768645835 1601.503331532 L 365.60142768645835 199.942888392" stroke-miterlimit="10" stroke-width="1.3612669416666667" stroke-dasharray=""/><path fill="white" stroke="black" paint-order="fill stroke markers" d=" M 666.7068441402994 399.232368652 L 683.0420474402995 399.232368652 L 683.0420474402995 1555.764762292 L 666.7068441402994 1555.764762292 L 666.7068441402994 399.232368652" stroke-miterlimit="10" stroke-width="1.3612669416666667" stroke-dasharray=""/><path fill="white" stroke="black" paint-order="fill stroke markers" d=" M 828.6950584280598 444.970937892 L 845.0302617280599 444.970937892 L 845.0302617280599 582.1866456119999 L 828.6950584280598 582.1866456119999 L 828.6950584280598 444.970937892" stroke-miterlimit="10" stroke-width="1.3612669416666667" stroke-dasharray=""/><path fill="white" stroke="black" paint-order="fill stroke markers" d=" M 1247.9969885719674 490.709507132 L 1264.3321918719676 490.709507132 L 1264.3321918719676 536.448076372 L 1247.9969885719674 536.448076372 L 1247.9969885719674 490.709507132" stroke-miterlimit="10" stroke-width="1.3612669416666667" stroke-dasharray=""/><path fill="white" stroke="black" paint-order="fill stroke markers" d=" M 929.3609384115208 627.9252148519998 L 945.6961417115209 627.9252148519998 L 945.6961417115209 765.1409225719997 L 929.3609384115208 765.1409225719997 L 929.3609384115208 627.9252148519998" stroke-miterlimit="10" stroke-width="1.3612669416666667" stroke-dasharray=""/><path fill="white" stroke="black" paint-order="fill stroke markers" d=" M 1247.9969885719674 673.6637840919998 L 1264.3321918719676 673.6637840919998 L 1264.3321918719676 719.4023533319997 L 1247.9969885719674 719.4023533319997 L 1247.9969885719674 673.6637840919998" stroke-miterlimit="10" stroke-width="1.3612669416666667" stroke-dasharray=""/><path fill="white" stroke="black" paint-order="fill stroke markers" d=" M 1056.9130107167591 810.8794918119996 L 1073.2482140167592 810.8794918119996 L 1073.2482140167592 948.0951995319995 L 1056.9130107167591 948.0951995319995 L 1056.9130107167591 810.8794918119996" stroke-miterlimit="10" stroke-width="1.3612669416666667" stroke-dasharray=""/><path fill="white" stroke="black" paint-order="fill stroke markers" d=" M 1247.9969885719674 856.6180610519996 L 1264.3321918719676 856.6180610519996 L 1264.3321918719676 902.3566302919995 L 1247.9969885719674 902.3566302919995 L 1247.9969885719674 856.6180610519996" stroke-miterlimit="10" stroke-width="1.3612669416666667" stroke-dasharray=""/><path fill="white" stroke="black" paint-order="fill stroke markers" d=" M 674.8744457902994 1064.0751429619995 L 691.2096490902995 1064.0751429619995 L 691.2096490902995 1109.8137122019996 L 674.8744457902994 1109.8137122019996 L 674.8744457902994 1064.0751429619995" stroke-miterlimit="10" stroke-width="1.3612669416666667" stroke-dasharray=""/><path fill="white" stroke="black" paint-order="fill stroke markers" d=" M 1056.9130107167591 1356.4752820319998 L 1073.2482140167592 1356.4752820319998 L 1073.2482140167592 1493.690989752 L 1056.9130107167591 1493.690989752 L 1056.9130107167591 1356.4752820319998" stroke-miterlimit="10" stroke-width="1.3612669416666667" stroke-dasharray=""/><path fill="white" stroke="black" paint-order="fill stroke markers" d=" M 1247.9969885719674 1402.2138512719998 L 1264.3321918719676 1402.2138512719998 L 1264.3321918719676 1447.952420512 L 1247.9969885719674 1447.952420512 L 1247.9969885719674 1402.2138512719998" stroke-miterlimit="10" stroke-width="1.3612669416666667" stroke-dasharray=""/><g><g><rect fill="white" stroke="none" x="129.09821682303388" y="178.707124102" width="180.91340889039063" height="21.23576429"/></g><text fill="black" stroke="none" font-family="sans-serif" font-size="11pt" font-style="normal" font-weight="normal" text-decoration="normal" x="131.54849731803387" y="193.40880707199997" text-anchor="start" dominant-baseline="alphabetic" xml:space="preserve">Go to Users In Group page</text></g><g><path fill="none" stroke="black" paint-order="fill stroke markers" d=" M 73.50841485 199.942888392 L 352.1521103027917 199.942888392" stroke-miterlimit="10" stroke-width="1.3612669416666667" stroke-dasharray=""/><g transform="translate(365.60142768645835,199.942888392) translate(-365.60142768645835,-199.942888392)"><path fill="black" stroke="none" paint-order="stroke fill markers" d=" M 351.9887582697917 193.13655368366665 L 365.60142768645835 199.942888392 L 351.9887582697917 206.74922310033332 Z"/></g></g><g><g><rect fill="white" stroke="none" x="150.7016637834831" y="224.445693342" width="137.7065149694922" height="21.23576429"/></g><text fill="black" stroke="none" font-family="sans-serif" font-size="11pt" font-style="normal" font-weight="normal" text-decoration="normal" x="153.15194427848309" y="239.14737631199998" text-anchor="start" dominant-baseline="alphabetic" xml:space="preserve">Click Set admin icon</text></g><g><path fill="none" stroke="black" paint-order="fill stroke markers" d=" M 73.50841485 245.681457632 L 352.1521103027917 245.681457632" stroke-miterlimit="10" stroke-width="1.3612669416666667" stroke-dasharray=""/><g transform="translate(365.60142768645835,245.681457632) translate(-365.60142768645835,-245.681457632)"><path fill="black" stroke="none" paint-order="stroke fill markers" d=" M 351.9887582697917 238.87512292366665 L 365.60142768645835 245.681457632 L 351.9887582697917 252.48779234033333 Z"/></g></g><g><g><rect fill="white" stroke="none" x="92.83840542166668" y="270.184262582" width="253.433031693125" height="21.23576429"/></g><text fill="black" stroke="none" font-family="sans-serif" font-size="11pt" font-style="normal" font-weight="normal" text-decoration="normal" x="95.28868591666668" y="284.88594555199995" text-anchor="start" dominant-baseline="alphabetic" xml:space="preserve">Display Set Admin confirmation popup</text></g><g><path fill="none" stroke="black" paint-order="fill stroke markers" d=" M 365.60142768645835 291.420026872 L 86.95773223366666 291.420026872" stroke-miterlimit="10" stroke-width="1.3612669416666667" stroke-dasharray="6.53408132"/><g transform="translate(73.50841485,291.420026872) translate(-73.50841485,-291.420026872)"><path fill="black" stroke="none" paint-order="stroke fill markers" d=" M 87.12108426666666 284.61369216366666 L 73.50841485 291.420026872 L 87.12108426666666 298.22636158033333 Z"/></g></g><g><g><rect fill="white" stroke="none" x="182.48046474783857" y="315.922831822" width="74.14891304078125" height="21.23576429"/></g><text fill="black" stroke="none" font-family="sans-serif" font-size="11pt" font-style="normal" font-weight="normal" text-decoration="normal" x="184.93074524283855" y="330.62451479199996" text-anchor="start" dominant-baseline="alphabetic" xml:space="preserve">Click Save</text></g><g><path fill="none" stroke="black" paint-order="fill stroke markers" d=" M 73.50841485 337.158596112 L 352.1521103027917 337.158596112" stroke-miterlimit="10" stroke-width="1.3612669416666667" stroke-dasharray=""/><g transform="translate(365.60142768645835,337.158596112) translate(-365.60142768645835,-337.158596112)"><path fill="black" stroke="none" paint-order="stroke fill markers" d=" M 351.9887582697917 330.35226140366666 L 365.60142768645835 337.158596112 L 351.9887582697917 343.96493082033334 Z"/></g></g><g><g><rect fill="white" stroke="none" x="440.3861665410351" y="361.661401062" width="165.45886482300781" height="21.23576429"/></g><g><rect fill="white" stroke="none" x="440.3861665410351" y="377.99660436199997" width="167.8711420446875" height="21.23576429"/></g><text fill="black" stroke="none" font-family="sans-serif" font-size="11pt" font-style="normal" font-weight="normal" text-decoration="normal" x="442.8364470360351" y="376.36308403199996" text-anchor="start" dominant-baseline="alphabetic" xml:space="preserve">PUT:/api/group/{groupId}</text><text fill="black" stroke="none" font-family="sans-serif" font-size="11pt" font-style="normal" font-weight="normal" text-decoration="normal" x="442.8364470360351" y="392.69828733199995" text-anchor="start" dominant-baseline="alphabetic" xml:space="preserve">/users/{userId}/set-admin</text></g><g><path fill="none" stroke="black" paint-order="fill stroke markers" d=" M 381.93663098645834 399.232368652 L 653.2575267566327 399.232368652" stroke-miterlimit="10" stroke-width="1.3612669416666667" stroke-dasharray=""/><g transform="translate(666.7068441402994,399.232368652) translate(-666.7068441402994,-399.232368652)"><path fill="black" stroke="none" paint-order="stroke fill markers" d=" M 653.0941747236327 392.42603394366665 L 666.7068441402994 399.232368652 L 653.0941747236327 406.03870336033333 Z"/></g></g><g><g><rect fill="white" stroke="none" x="713.4862961208203" y="423.735173602" width="84.76451362671875" height="21.23576429"/></g><text fill="black" stroke="none" font-family="sans-serif" font-size="11pt" font-style="normal" font-weight="normal" text-decoration="normal" x="715.9365766158203" y="438.43685657199995" text-anchor="start" dominant-baseline="alphabetic" xml:space="preserve">get(groupId)</text></g><g><path fill="none" stroke="black" paint-order="fill stroke markers" d=" M 683.0420474402995 444.970937892 L 815.2457410443932 444.970937892" stroke-miterlimit="10" stroke-width="1.3612669416666667" stroke-dasharray=""/><g transform="translate(828.6950584280598,444.970937892) translate(-828.6950584280598,-444.970937892)"><path fill="black" stroke="none" paint-order="stroke fill markers" d=" M 815.0823890113932 438.16460318366666 L 828.6950584280598 444.970937892 L 815.0823890113932 451.77727260033333 Z"/></g></g><g><g><rect fill="white" stroke="none" x="1004.1313683366543" y="469.473742842" width="84.76451362671875" height="21.23576429"/></g><text fill="black" stroke="none" font-family="sans-serif" font-size="11pt" font-style="normal" font-weight="normal" text-decoration="normal" x="1006.5816488316543" y="484.17542581199996" text-anchor="start" dominant-baseline="alphabetic" xml:space="preserve">get(groupId)</text></g><g><path fill="none" stroke="black" paint-order="fill stroke markers" d=" M 845.0302617280599 490.709507132 L 1234.5476711883007 490.709507132" stroke-miterlimit="10" stroke-width="1.3612669416666667" stroke-dasharray=""/><g transform="translate(1247.9969885719674,490.709507132) translate(-1247.9969885719674,-490.709507132)"><path fill="black" stroke="none" paint-order="stroke fill markers" d=" M 1234.3843191553008 483.90317242366666 L 1247.9969885719674 490.709507132 L 1234.3843191553008 497.51584184033334 Z"/></g></g><g><g><rect fill="white" stroke="none" x="1007.3883339738613" y="515.2123120819999" width="78.25058235230469" height="21.23576429"/></g><text fill="black" stroke="none" font-family="sans-serif" font-size="11pt" font-style="normal" font-weight="normal" text-decoration="normal" x="1009.8386144688614" y="529.9139950519999" text-anchor="start" dominant-baseline="alphabetic" xml:space="preserve">Group data</text></g><g><path fill="none" stroke="black" paint-order="fill stroke markers" d=" M 1247.9969885719674 536.448076372 L 858.4795791117266 536.448076372" stroke-miterlimit="10" stroke-width="1.3612669416666667" stroke-dasharray="6.53408132"/><g transform="translate(845.0302617280599,536.448076372) translate(-845.0302617280599,-536.448076372)"><path fill="black" stroke="none" paint-order="stroke fill markers" d=" M 858.6429311447266 529.6417416636666 L 845.0302617280599 536.448076372 L 858.6429311447266 543.2544110803333 Z"/></g></g><g><g><rect fill="white" stroke="none" x="716.7432617580273" y="560.9508813219999" width="78.25058235230469" height="21.23576429"/></g><text fill="black" stroke="none" font-family="sans-serif" font-size="11pt" font-style="normal" font-weight="normal" text-decoration="normal" x="719.1935422530273" y="575.6525642919999" text-anchor="start" dominant-baseline="alphabetic" xml:space="preserve">Group data</text></g><g><path fill="none" stroke="black" paint-order="fill stroke markers" d=" M 828.6950584280598 582.1866456119999 L 696.4913648239661 582.1866456119999" stroke-miterlimit="10" stroke-width="1.3612669416666667" stroke-dasharray="6.53408132"/><g transform="translate(683.0420474402995,582.1866456119999) translate(-683.0420474402995,-582.1866456119999)"><path fill="black" stroke="none" paint-order="stroke fill markers" d=" M 696.6547168569662 575.3803109036666 L 683.0420474402995 582.1866456119999 L 696.6547168569662 588.9929803203332 Z"/></g></g><g><g><rect fill="white" stroke="none" x="768.3074258098163" y="606.6894505619998" width="75.7881342321875" height="21.23576429"/></g><text fill="black" stroke="none" font-family="sans-serif" font-size="11pt" font-style="normal" font-weight="normal" text-decoration="normal" x="770.7577063048163" y="621.3911335319998" text-anchor="start" dominant-baseline="alphabetic" xml:space="preserve">get(userId)</text></g><g><path fill="none" stroke="black" paint-order="fill stroke markers" d=" M 683.0420474402995 627.9252148519998 L 915.9116210278542 627.9252148519998" stroke-miterlimit="10" stroke-width="1.3612669416666667" stroke-dasharray=""/><g transform="translate(929.3609384115208,627.9252148519998) translate(-929.3609384115208,-627.9252148519998)"><path fill="black" stroke="none" paint-order="stroke fill markers" d=" M 915.7482689948541 621.1188801436665 L 929.3609384115208 627.9252148519998 L 915.7482689948541 634.7315495603332 Z"/></g></g><g><g><rect fill="white" stroke="none" x="1058.9524980256504" y="652.4280198019998" width="75.7881342321875" height="21.23576429"/></g><text fill="black" stroke="none" font-family="sans-serif" font-size="11pt" font-style="normal" font-weight="normal" text-decoration="normal" x="1061.4027785206504" y="667.1297027719997" text-anchor="start" dominant-baseline="alphabetic" xml:space="preserve">get(userId)</text></g><g><path fill="none" stroke="black" paint-order="fill stroke markers" d=" M 945.6961417115209 673.6637840919998 L 1234.5476711883007 673.6637840919998" stroke-miterlimit="10" stroke-width="1.3612669416666667" stroke-dasharray=""/><g transform="translate(1247.9969885719674,673.6637840919998) translate(-1247.9969885719674,-673.6637840919998)"><path fill="black" stroke="none" paint-order="stroke fill markers" d=" M 1234.3843191553008 666.8574493836664 L 1247.9969885719674 673.6637840919998 L 1234.3843191553008 680.4701188003331 Z"/></g></g><g><g><rect fill="white" stroke="none" x="1062.6174836823886" y="698.1665890419997" width="68.45816291871094" height="21.23576429"/></g><text fill="black" stroke="none" font-family="sans-serif" font-size="11pt" font-style="normal" font-weight="normal" text-decoration="normal" x="1065.0677641773887" y="712.8682720119997" text-anchor="start" dominant-baseline="alphabetic" xml:space="preserve">User data</text></g><g><path fill="none" stroke="black" paint-order="fill stroke markers" d=" M 1247.9969885719674 719.4023533319997 L 959.1454590951876 719.4023533319997" stroke-miterlimit="10" stroke-width="1.3612669416666667" stroke-dasharray="6.53408132"/><g transform="translate(945.6961417115209,719.4023533319997) translate(-945.6961417115209,-719.4023533319997)"><path fill="black" stroke="none" paint-order="stroke fill markers" d=" M 959.3088111281876 712.5960186236664 L 945.6961417115209 719.4023533319997 L 959.3088111281876 726.2086880403331 Z"/></g></g><g><g><rect fill="white" stroke="none" x="771.9724114665546" y="743.9051582819997" width="68.45816291871094" height="21.23576429"/></g><text fill="black" stroke="none" font-family="sans-serif" font-size="11pt" font-style="normal" font-weight="normal" text-decoration="normal" x="774.4226919615546" y="758.6068412519996" text-anchor="start" dominant-baseline="alphabetic" xml:space="preserve">User data</text></g><g><path fill="none" stroke="black" paint-order="fill stroke markers" d=" M 929.3609384115208 765.1409225719997 L 696.4913648239661 765.1409225719997" stroke-miterlimit="10" stroke-width="1.3612669416666667" stroke-dasharray="6.53408132"/><g transform="translate(683.0420474402995,765.1409225719997) translate(-683.0420474402995,-765.1409225719997)"><path fill="black" stroke="none" paint-order="stroke fill markers" d=" M 696.6547168569662 758.3345878636663 L 683.0420474402995 765.1409225719997 L 696.6547168569662 771.947257280333 Z"/></g></g><g><g><rect fill="white" stroke="none" x="803.1500436885098" y="789.6437275219996" width="133.65497078003906" height="21.23576429"/></g><text fill="black" stroke="none" font-family="sans-serif" font-size="11pt" font-style="normal" font-weight="normal" text-decoration="normal" x="805.6003241835098" y="804.3454104919996" text-anchor="start" dominant-baseline="alphabetic" xml:space="preserve">get(userId, groupId)</text></g><g><path fill="none" stroke="black" paint-order="fill stroke markers" d=" M 683.0420474402995 810.8794918119996 L 1043.4636933330924 810.8794918119996" stroke-miterlimit="10" stroke-width="1.3612669416666667" stroke-dasharray=""/><g transform="translate(1056.9130107167591,810.8794918119996) translate(-1056.9130107167591,-810.8794918119996)"><path fill="black" stroke="none" paint-order="stroke fill markers" d=" M 1043.3003413000924 804.0731571036663 L 1056.9130107167591 810.8794918119996 L 1043.3003413000924 817.685826520333 Z"/></g></g><g><g><rect fill="white" stroke="none" x="1093.795115904344" y="835.3822967619996" width="133.65497078003906" height="21.23576429"/></g><text fill="black" stroke="none" font-family="sans-serif" font-size="11pt" font-style="normal" font-weight="normal" text-decoration="normal" x="1096.245396399344" y="850.0839797319995" text-anchor="start" dominant-baseline="alphabetic" xml:space="preserve">get(userId, groupId)</text></g><g><path fill="none" stroke="black" paint-order="fill stroke markers" d=" M 1073.2482140167592 856.6180610519996 L 1234.5476711883007 856.6180610519996" stroke-miterlimit="10" stroke-width="1.3612669416666667" stroke-dasharray=""/><g transform="translate(1247.9969885719674,856.6180610519996) translate(-1247.9969885719674,-856.6180610519996)"><path fill="black" stroke="none" paint-order="stroke fill markers" d=" M 1234.3843191553008 849.8117263436662 L 1247.9969885719674 856.6180610519996 L 1234.3843191553008 863.4243957603329 Z"/></g></g><g><g><rect fill="white" stroke="none" x="1092.578204588426" y="881.1208660019995" width="136.088793411875" height="21.23576429"/></g><text fill="black" stroke="none" font-family="sans-serif" font-size="11pt" font-style="normal" font-weight="normal" text-decoration="normal" x="1095.028485083426" y="895.8225489719995" text-anchor="start" dominant-baseline="alphabetic" xml:space="preserve">Group Member data</text></g><g><path fill="none" stroke="black" paint-order="fill stroke markers" d=" M 1247.9969885719674 902.3566302919995 L 1086.697531400426 902.3566302919995" stroke-miterlimit="10" stroke-width="1.3612669416666667" stroke-dasharray="6.53408132"/><g transform="translate(1073.2482140167592,902.3566302919995) translate(-1073.2482140167592,-902.3566302919995)"><path fill="black" stroke="none" paint-order="stroke fill markers" d=" M 1086.860883433426 895.5502955836662 L 1073.2482140167592 902.3566302919995 L 1086.860883433426 909.1629650003329 Z"/></g></g><g><g><rect fill="white" stroke="none" x="801.9331323725918" y="926.8594352419994" width="136.088793411875" height="21.23576429"/></g><text fill="black" stroke="none" font-family="sans-serif" font-size="11pt" font-style="normal" font-weight="normal" text-decoration="normal" x="804.3834128675918" y="941.5611182119994" text-anchor="start" dominant-baseline="alphabetic" xml:space="preserve">Group Member data</text></g><g><path fill="none" stroke="black" paint-order="fill stroke markers" d=" M 1056.9130107167591 948.0951995319995 L 696.4913648239661 948.0951995319995" stroke-miterlimit="10" stroke-width="1.3612669416666667" stroke-dasharray="6.53408132"/><g transform="translate(683.0420474402995,948.0951995319995) translate(-683.0420474402995,-948.0951995319995)"><path fill="black" stroke="none" paint-order="stroke fill markers" d=" M 696.6547168569662 941.2888648236661 L 683.0420474402995 948.0951995319995 L 696.6547168569662 954.9015342403328 Z"/></g></g><g><g><rect fill="white" stroke="none" x="710.5396396619661" y="972.5980044819995" width="88.02150215210938" height="21.23576429"/></g><g><rect fill="white" stroke="none" x="710.5396396619661" y="988.9332077819995" width="50.52687324585938" height="21.23576429"/></g><g><rect fill="white" stroke="none" x="710.5396396619661" y="1005.2684110819995" width="112.43809761109375" height="21.23576429"/></g><g><rect fill="white" stroke="none" x="710.5396396619661" y="1021.6036143819995" width="66.79744209351563" height="21.23576429"/></g><text fill="black" stroke="none" font-family="sans-serif" font-size="11pt" font-style="normal" font-weight="normal" text-decoration="normal" x="712.9899201569661" y="987.2996874519995" text-anchor="start" dominant-baseline="alphabetic" xml:space="preserve">Check group</text><text fill="black" stroke="none" font-family="sans-serif" font-size="11pt" font-style="normal" font-weight="normal" text-decoration="normal" x="712.9899201569661" y="1003.6348907519995" text-anchor="start" dominant-baseline="alphabetic" xml:space="preserve">or user</text><text fill="black" stroke="none" font-family="sans-serif" font-size="11pt" font-style="normal" font-weight="normal" text-decoration="normal" x="712.9899201569661" y="1019.9700940519995" text-anchor="start" dominant-baseline="alphabetic" xml:space="preserve">or user member </text><text fill="black" stroke="none" font-family="sans-serif" font-size="11pt" font-style="normal" font-weight="normal" text-decoration="normal" x="712.9899201569661" y="1036.3052973519996" text-anchor="start" dominant-baseline="alphabetic" xml:space="preserve">isEmpty()</text></g><g><path fill="none" stroke="black" paint-order="fill stroke markers" d=" M 683.0420474402995 1042.8393786719996 L 756.5504622902994 1042.8393786719996 L 756.5504622902994 1064.0751429619995 L 704.6589664739661 1064.0751429619995" stroke-miterlimit="10" stroke-width="1.3612669416666667" stroke-dasharray=""/><g transform="translate(691.2096490902994,1064.0751429619995) translate(-691.2096490902994,-1064.0751429619995)"><path fill="black" stroke="none" paint-order="stroke fill markers" d=" M 704.8223185069661 1057.2688082536663 L 691.2096490902994 1064.0751429619995 L 704.8223185069661 1070.8814776703327 Z"/></g></g><g><g><rect fill="white" stroke="none" x="710.5396396619661" y="1088.5779479119994" width="40.748781815195315" height="21.23576429"/></g><text fill="black" stroke="none" font-family="sans-serif" font-size="11pt" font-style="normal" font-weight="normal" text-decoration="normal" x="712.9899201569661" y="1103.2796308819995" text-anchor="start" dominant-baseline="alphabetic" xml:space="preserve">result</text></g><g><path fill="none" stroke="black" paint-order="fill stroke markers" d=" M 691.2096490902994 1109.8137122019996 L 756.5504622902994 1109.8137122019996 L 756.5504622902994 1131.0494764919995 L 696.491364823966 1131.0494764919995" stroke-miterlimit="10" stroke-width="1.3612669416666667" stroke-dasharray="6.53408132"/><g transform="translate(683.0420474402994,1131.0494764919995) translate(-683.0420474402994,-1131.0494764919995)"><path fill="black" stroke="none" paint-order="stroke fill markers" d=" M 696.654716856966 1124.2431417836663 L 683.0420474402994 1131.0494764919995 L 696.654716856966 1137.8558112003327 Z"/></g></g><g><g><rect fill="white" stroke="none" x="429.3947114629101" y="1199.6573303519997" width="189.8540522009375" height="21.23576429"/></g><text fill="red" stroke="none" font-family="sans-serif" font-size="11pt" font-style="normal" font-weight="normal" text-decoration="normal" x="431.8449919579101" y="1214.3590133219998" text-anchor="start" dominant-baseline="alphabetic" xml:space="preserve">404 NOT FOUND: not found</text></g><g><path fill="none" stroke="black" paint-order="fill stroke markers" d=" M 666.7068441402994 1220.8930946419996 L 395.385948370125 1220.8930946419996" stroke-miterlimit="10" stroke-width="1.3612669416666667" stroke-dasharray="6.53408132"/><g transform="translate(381.93663098645834,1220.8930946419996) translate(-381.93663098645834,-1220.8930946419996)"><path fill="black" stroke="none" paint-order="stroke fill markers" d=" M 395.549300403125 1214.0867599336664 L 381.93663098645834 1220.8930946419996 L 395.549300403125 1227.6994293503328 Z"/></g></g><g><g><rect fill="white" stroke="none" x="118.50410061209637" y="1245.3958995919998" width="202.10164131226563" height="21.23576429"/></g><text fill="black" stroke="none" font-family="sans-serif" font-size="11pt" font-style="normal" font-weight="normal" text-decoration="normal" x="120.95438110709637" y="1260.0975825619998" text-anchor="start" dominant-baseline="alphabetic" xml:space="preserve">Display 404 Not Found screen</text></g><g><path fill="none" stroke="black" paint-order="fill stroke markers" d=" M 365.60142768645835 1266.6316638819997 L 86.95773223366666 1266.6316638819997" stroke-miterlimit="10" stroke-width="1.3612669416666667" stroke-dasharray="6.53408132"/><g transform="translate(73.50841485,1266.6316638819997) translate(-73.50841485,-1266.6316638819997)"><path fill="black" stroke="none" paint-order="stroke fill markers" d=" M 87.12108426666666 1259.8253291736664 L 73.50841485 1266.6316638819997 L 87.12108426666666 1273.4379985903329 Z"/></g></g><g><g><rect fill="white" stroke="none" x="811.7183954341152" y="1335.2395177419999" width="116.51826728882813" height="21.23576429"/></g><text fill="black" stroke="none" font-family="sans-serif" font-size="11pt" font-style="normal" font-weight="normal" text-decoration="normal" x="814.1686759291152" y="1349.941200712" text-anchor="start" dominant-baseline="alphabetic" xml:space="preserve">setGroupAdmin()</text></g><g><path fill="none" stroke="black" paint-order="fill stroke markers" d=" M 683.0420474402995 1356.4752820319998 L 1043.4636933330924 1356.4752820319998" stroke-miterlimit="10" stroke-width="1.3612669416666667" stroke-dasharray=""/><g transform="translate(1056.9130107167591,1356.4752820319998) translate(-1056.9130107167591,-1356.4752820319998)"><path fill="black" stroke="none" paint-order="stroke fill markers" d=" M 1043.3003413000924 1349.6689473236665 L 1056.9130107167591 1356.4752820319998 L 1043.3003413000924 1363.281616740333 Z"/></g></g><g><g><rect fill="white" stroke="none" x="1102.3634676499494" y="1380.978086982" width="116.51826728882813" height="21.23576429"/></g><text fill="black" stroke="none" font-family="sans-serif" font-size="11pt" font-style="normal" font-weight="normal" text-decoration="normal" x="1104.8137481449494" y="1395.679769952" text-anchor="start" dominant-baseline="alphabetic" xml:space="preserve">setGroupAdmin()</text></g><g><path fill="none" stroke="black" paint-order="fill stroke markers" d=" M 1073.2482140167592 1402.2138512719998 L 1234.5476711883007 1402.2138512719998" stroke-miterlimit="10" stroke-width="1.3612669416666667" stroke-dasharray=""/><g transform="translate(1247.9969885719674,1402.2138512719998) translate(-1247.9969885719674,-1402.2138512719998)"><path fill="black" stroke="none" paint-order="stroke fill markers" d=" M 1234.3843191553008 1395.4075165636666 L 1247.9969885719674 1402.2138512719998 L 1234.3843191553008 1409.020185980333 Z"/></g></g><g><g><rect fill="white" stroke="none" x="1092.578204588426" y="1426.716656222" width="136.088793411875" height="21.23576429"/></g><text fill="black" stroke="none" font-family="sans-serif" font-size="11pt" font-style="normal" font-weight="normal" text-decoration="normal" x="1095.028485083426" y="1441.418339192" text-anchor="start" dominant-baseline="alphabetic" xml:space="preserve">Group Member data</text></g><g><path fill="none" stroke="black" paint-order="fill stroke markers" d=" M 1247.9969885719674 1447.952420512 L 1086.697531400426 1447.952420512" stroke-miterlimit="10" stroke-width="1.3612669416666667" stroke-dasharray="6.53408132"/><g transform="translate(1073.2482140167592,1447.952420512) translate(-1073.2482140167592,-1447.952420512)"><path fill="black" stroke="none" paint-order="stroke fill markers" d=" M 1086.860883433426 1441.1460858036667 L 1073.2482140167592 1447.952420512 L 1086.860883433426 1454.7587552203331 Z"/></g></g><g><g><rect fill="white" stroke="none" x="801.9331323725918" y="1472.455225462" width="136.088793411875" height="21.23576429"/></g><text fill="black" stroke="none" font-family="sans-serif" font-size="11pt" font-style="normal" font-weight="normal" text-decoration="normal" x="804.3834128675918" y="1487.1569084320001" text-anchor="start" dominant-baseline="alphabetic" xml:space="preserve">Group Member data</text></g><g><path fill="none" stroke="black" paint-order="fill stroke markers" d=" M 1056.9130107167591 1493.690989752 L 696.4913648239661 1493.690989752" stroke-miterlimit="10" stroke-width="1.3612669416666667" stroke-dasharray="6.53408132"/><g transform="translate(683.0420474402995,1493.690989752) translate(-683.0420474402995,-1493.690989752)"><path fill="black" stroke="none" paint-order="stroke fill markers" d=" M 696.6547168569662 1486.8846550436667 L 683.0420474402995 1493.690989752 L 696.6547168569662 1500.4973244603332 Z"/></g></g><g><g><rect fill="white" stroke="none" x="401.26662155812494" y="1518.1937947019999" width="54.61422981324219" height="21.23576429"/></g><g><rect fill="white" stroke="none" x="401.26662155812494" y="1534.528998002" width="246.11023201050781" height="21.23576429"/></g><text fill="green" stroke="none" font-family="sans-serif" font-size="11pt" font-style="normal" font-weight="normal" text-decoration="normal" x="403.71690205312495" y="1532.895477672" text-anchor="start" dominant-baseline="alphabetic" xml:space="preserve">200 OK</text><text fill="green" stroke="none" font-family="sans-serif" font-size="11pt" font-style="normal" font-weight="normal" text-decoration="normal" x="403.71690205312495" y="1549.230680972" text-anchor="start" dominant-baseline="alphabetic" xml:space="preserve">Response body: Group Member data</text></g><g><path fill="none" stroke="black" paint-order="fill stroke markers" d=" M 666.7068441402994 1555.764762292 L 395.385948370125 1555.764762292" stroke-miterlimit="10" stroke-width="1.3612669416666667" stroke-dasharray="6.53408132"/><g transform="translate(381.93663098645834,1555.764762292) translate(-381.93663098645834,-1555.764762292)"><path fill="black" stroke="none" paint-order="stroke fill markers" d=" M 395.549300403125 1548.9584275836667 L 381.93663098645834 1555.764762292 L 395.549300403125 1562.571097000333 Z"/></g></g><g><g><rect fill="white" stroke="none" x="111.99731045096355" y="1580.267567242" width="215.11522163453125" height="21.23576429"/></g><text fill="black" stroke="none" font-family="sans-serif" font-size="11pt" font-style="normal" font-weight="normal" text-decoration="normal" x="114.44759094596355" y="1594.9692502120001" text-anchor="start" dominant-baseline="alphabetic" xml:space="preserve">Display Users list In Group page</text></g><g><path fill="none" stroke="black" paint-order="fill stroke markers" d=" M 365.60142768645835 1601.503331532 L 86.95773223366666 1601.503331532" stroke-miterlimit="10" stroke-width="1.3612669416666667" stroke-dasharray="6.53408132"/><g transform="translate(73.50841485,1601.503331532) translate(-73.50841485,-1601.503331532)"><path fill="black" stroke="none" paint-order="stroke fill markers" d=" M 87.12108426666666 1594.6969968236667 L 73.50841485 1601.503331532 L 87.12108426666666 1608.3096662403332 Z"/></g></g><g><g/><path fill="none" stroke="black" paint-order="fill stroke markers" d=" M 16.335203299999996 1155.5522814419996 L 1313.3378017719674 1155.5522814419996 L 1313.3378017719674 1626.0061364819999 L 16.335203299999996 1626.0061364819999 L 16.335203299999996 1155.5522814419996 Z" stroke-miterlimit="10" stroke-width="2.3336004714285714" stroke-dasharray=""/><path fill="white" stroke="black" paint-order="fill stroke markers" d=" M 16.335203299999996 1155.5522814419996 L 16.335203299999996 1175.1545254019995 L 62.69440689707031 1175.1545254019995 L 72.49552887707031 1165.3534034219997 L 72.49552887707031 1155.5522814419996 L 16.335203299999996 1155.5522814419996" stroke-miterlimit="10" stroke-width="2.3336004714285714" stroke-dasharray=""/><text fill="black" stroke="none" font-family="sans-serif" font-size="8.8pt" font-style="normal" font-weight="bold" text-decoration="normal" x="32.67040659999999" y="1168.6204440819995" text-anchor="start" dominant-baseline="alphabetic" xml:space="preserve">alt</text><g><rect fill="white" stroke="none" x="86.38045168207032" y="1156.8590977059996" width="229.11622871460938" height="16.988611432000003"/></g><text fill="black" stroke="none" font-family="sans-serif" font-size="8.8pt" font-style="normal" font-weight="bold" text-decoration="normal" x="88.83073217707032" y="1168.6204440819995" text-anchor="start" dominant-baseline="alphabetic" xml:space="preserve">[If group or user or user member empty]</text><g><path fill="none" stroke="black" paint-order="fill stroke markers" d=" M 16.335203299999996 1291.1344688319998 L 1313.3378017719674 1291.1344688319998" stroke-miterlimit="10" stroke-width="2.3336004714285714" stroke-dasharray="4.083800825"/></g><g/><g><rect fill="white" stroke="none" x="86.38045168207032" y="1292.4412850959998" width="36.84300483765625" height="16.988611432000003"/></g><text fill="black" stroke="none" font-family="sans-serif" font-size="8.8pt" font-style="normal" font-weight="bold" text-decoration="normal" x="88.83073217707032" y="1304.2026314719997" text-anchor="start" dominant-baseline="alphabetic" xml:space="preserve">[Else]</text></g><g/></g></g></svg>