<svg version="1.1" xmlns="http://www.w3.org/2000/svg" xmlns:xlink="http://www.w3.org/1999/xlink" width="1035" height="623"><desc>title%20Get%20users%20available%20for%20Group%0A%0A%0Aactor%20%23green%3A0.5%20%22Workspace%20Admin%22%20as%20w%0Aboundary%20%22FUniverse%20Admin%20Client%22%20as%20f%0Acontrol%20%22User%20Controller%22%20as%20gc%0Aparticipant%20%22User%20Service%22%20as%20gs%0Adatabase%20%23blue%3A1%20%22Database%22%20as%20db%0Aw-%3Ef%3AGo%20to%20Users%20In%20Group%20page%0Aactivate%20f%0Aw-%3Ef%3AClick%20Add%20Users%20button%0Af-%3Egc%3AGET%3A%20%2Fapi%2Fuser%2Fgroup%2Fnone%3Fid%3D%7Bid%7D%0Aactivate%20gc%0Agc-%3Egs%3A%20getAllUserAvailable(id)%0Aactivate%20gs%0A%0Ags-%3Edb%3AgetAllUserAvailable(id)%0Aactivate%20db%0Ags%3C--db%3AUser%20list%0Adeactivate%20db%0Agc%3C--gs%3AUser%20list%0Adeactivate%20gs%0Af%3C--gc%3A%20%3Ccolor%3A%23green%3E200%20OK%5CnResponse%20body%3A%20User%20list%3C%2Fcolor%3E%0Adeactivate%20gc%0Aw%3C--f%3ADisplay%20add%20Member%20popup%0A%0Adeactivate%20f</desc><defs/><g><g/><g/><g/><g/><g/><g/><g/><g/><g/><g/><g/><g/><g/><g/><g/><g><rect fill="white" stroke="none" x="0" y="0" width="1035" height="623"/></g><g><text fill="black" stroke="none" font-family="sans-serif" font-size="16.5pt" font-style="normal" font-weight="normal" text-decoration="normal" x="374.094417568571" y="24.50280495" text-anchor="start" dominant-baseline="alphabetic" xml:space="preserve">Get users available for Group</text></g><g/><g><path fill="none" stroke="black" paint-order="fill stroke markers" d=" M 67.50902468466796 129.701514202 L 67.50902468466796 623.024653862" stroke-miterlimit="10" stroke-width="1.3612669416666667" stroke-dasharray="12.565541,5.445067766666667"/><path fill="none" stroke="black" paint-order="fill stroke markers" d=" M 298.51413074827474 129.701514202 L 298.51413074827474 623.024653862" stroke-miterlimit="10" stroke-width="1.3612669416666667" stroke-dasharray="12.565541,5.445067766666667"/><path fill="none" stroke="black" paint-order="fill stroke markers" d=" M 578.8751014013346 129.701514202 L 578.8751014013346 623.024653862" stroke-miterlimit="10" stroke-width="1.3612669416666667" stroke-dasharray="12.565541,5.445067766666667"/><path fill="none" stroke="black" paint-order="fill stroke markers" d=" M 786.7950930504883 129.701514202 L 786.7950930504883 623.024653862" stroke-miterlimit="10" stroke-width="1.3612669416666667" stroke-dasharray="12.565541,5.445067766666667"/><path fill="none" stroke="black" paint-order="fill stroke markers" d=" M 994.7150846996419 129.701514202 L 994.7150846996419 623.024653862" stroke-miterlimit="10" stroke-width="1.3612669416666667" stroke-dasharray="12.565541,5.445067766666667"/></g><g><g><path fill="white" stroke="green" paint-order="fill stroke markers" d=" M 76.82009056566797 60.60360424300001 A 9.311065881 9.311065881 0 1 1 76.8200859101354 60.594293178670846 M 67.50902468466796 69.91467012400001 L 67.50902468466796 89.84361815000001 M 55.747678308667965 77.102159576 L 79.27037106066797 77.102159576 M 67.50902468466796 89.84361815000001 L 55.747678308667965 108.465749912 M 67.50902468466796 89.84361815000001 L 79.27037106066797 108.465749912" stroke-miterlimit="10" stroke-width="1.3884922805000002" stroke-dasharray=""/></g><g><text fill="black" stroke="none" font-family="sans-serif" font-size="11pt" font-style="normal" font-weight="normal" text-decoration="normal" x="8.167601649999995" y="124.80095321200001" text-anchor="start" dominant-baseline="alphabetic" xml:space="preserve">Workspace Admin</text></g><g><path fill="white" stroke="black" paint-order="fill stroke markers" d=" M 330.93950929877474 82.819480731 A 24.2577769005 24.2577769005 0 1 1 330.9394971698873 82.79522295814245 M 267.4772444782747 57.17321154999999 L 267.4772444782747 108.465749912 M 266.08875219777474 82.819480731 L 282.4239554977747 82.819480731" stroke-miterlimit="10" stroke-width="2.7769845610000004" stroke-dasharray=""/></g><g><text fill="black" stroke="none" font-family="sans-serif" font-size="11pt" font-style="normal" font-weight="normal" text-decoration="normal" x="221.5241786608724" y="124.80095321200001" text-anchor="start" dominant-baseline="alphabetic" xml:space="preserve">FUniverse Admin Client</text></g><g><path fill="white" stroke="black" paint-order="fill stroke markers" d=" M 603.1328783018346 82.819480731 A 24.2577769005 24.2577769005 0 1 1 603.1328661729472 82.79522295814245 M 575.6080607413346 58.561703830499994 L 585.4091827213346 50.39410218049999 M 575.6080607413346 58.561703830499994 L 585.4091827213346 66.72930548049999" stroke-miterlimit="10" stroke-width="2.7769845610000004" stroke-dasharray=""/></g><g><text fill="black" stroke="none" font-family="sans-serif" font-size="11pt" font-style="normal" font-weight="normal" text-decoration="normal" x="529.5873664159831" y="124.80095321200001" text-anchor="start" dominant-baseline="alphabetic" xml:space="preserve">User Controller</text></g><path fill="none" stroke="none"/><g><path fill="white" stroke="black" paint-order="fill stroke markers" d=" M 727.117234872332 85.75981732500001 L 846.4729512286445 85.75981732500001 L 846.4729512286445 129.701514202 L 727.117234872332 129.701514202 L 727.117234872332 85.75981732500001 Z" stroke-miterlimit="10" stroke-width="2.613632528" stroke-dasharray=""/></g><g><text fill="black" stroke="none" font-family="sans-serif" font-size="11pt" font-style="normal" font-weight="normal" text-decoration="normal" x="744.840930452832" y="113.36631090200002" text-anchor="start" dominant-baseline="alphabetic" xml:space="preserve">User Service</text></g><g><path fill="white" stroke="blue" paint-order="fill stroke markers" d=" M 970.865687881642 97.684515734 L 970.865687881642 63.380588804000006 L 1018.5644815176419 63.380588804000006 L 1018.5644815176419 97.684515734" stroke-miterlimit="10" stroke-width="2.7769845610000004" stroke-dasharray=""/><path fill="white" stroke="blue" paint-order="fill stroke markers" d=" M 1018.5644815176419 62.1881189631 L 1018.5632890577382 62.29592950801663 L 1018.5597117972721 62.403729271968594 L 1018.5537500939669 62.51150747506936 L 1018.5454045439875 62.619253339588404 L 1018.5346759818823 62.72695609102909 L 1018.5215654804985 62.834604959206004 L 1018.5060743508752 62.94218917932205 L 1018.4882041421126 63.04969799304486 L 1018.4679566412166 63.15712064958265 L 1018.4453338729204 63.2644464067593 L 1018.420338099482 63.371664532088516 L 1018.392971820458 63.47876430384712 L 1018.3632377724534 63.58573501214718 L 1018.3311389288483 63.692565960007016 L 1018.2966784995002 63.79924646442086 L 1018.2598599304234 63.90576585742718 L 1018.2206869034441 64.01211348717543 L 1018.1791633358323 64.11827871899126 L 1018.1352933799103 64.22425093643996 L 1018.0890814226369 64.3300195423881 L 1018.0405320851696 64.43557396006322 L 1017.9896502224016 64.54090363411153 L 1017.9364409224767 64.64599803165338 L 1017.8809095062804 64.75084664333659 L 1017.8230615269084 64.85543898438739 L 1017.7629027691103 64.95976459565881 L 1017.7004392487116 65.06381304467668 L 1017.6356772120124 65.16757392668278 L 1017.5686231351624 65.27103686567541 L 1017.4992837235135 65.37419151544687 L 1017.4276659109488 65.47702756061814 L 1017.3537768591901 65.5795347176704 L 1017.2776239570811 65.68170273597339 L 1017.1992148198483 65.7835213988104 L 1017.1185572883402 65.88498052439998 L 1017.0356594282428 65.98606996691414 L 1016.9505295292729 66.08677961749288 L 1016.8631761043495 66.18709940525505 L 1016.7736078887423 66.28701929830548 L 1016.6818338391982 66.38652930473813 L 1016.5878631330459 66.48561947363528 L 1016.4917051672772 66.58427989606261 L 1016.3933695576092 66.6825007060601 L 1016.2928661375204 66.7802720816286 L 1016.1902049572692 66.87758424571203 L 1016.0853962828882 66.97442746717506 L 1015.9784505951573 67.07079206177627 L 1015.8693785885563 67.1666683931365 L 1015.758191170195 67.2620468737025 L 1015.6448994587224 67.35691796570569 L 1015.5295147832155 67.45127218211596 L 1015.4120486820455 67.54510008759026 L 1015.2925129017245 67.63839229941624 L 1015.1709193957313 67.73113948845047 L 1015.0472803233149 67.82333238005134 L 1014.9216080482795 67.9149617550065 L 1014.7939151377481 68.00601845045483 L 1014.664214360905 68.09649336080267 L 1014.5325186877201 68.18637743863435 L 1014.3988412876508 68.27566169561702 L 1014.2631955283259 68.36433720339936 L 1014.1255949742081 68.45239509450451 L 1013.9860533852382 68.53982656321674 L 1013.8445847154588 68.62662286646201 L 1013.7012031116191 68.71277532468237 L 1013.5559229117599 68.79827532270376 L 1013.4087586437801 68.88311431059763 L 1013.259725023984 68.9672838045359 L 1013.108836955609 69.0507753876393 L 1012.9561095273367 69.13358071081912 L 1012.8015580117824 69.21569149361203 L 1012.645197863969 69.29709952500816 L 1012.4870447197807 69.37779666427225 L 1012.3271143944004 69.45777484175761 L 1012.1654228807272 69.53702605971311 L 1012.0019863477779 69.61554239308303 L 1011.8368211390693 69.69331599029945 L 1011.669943770985 69.77033907406746 L 1011.5013709311226 69.84660394214286 L 1011.3311194766254 69.92210296810242 L 1011.1592064324973 69.99682860210643 L 1010.9856489898992 70.07077337165379 L 1010.8104645044309 70.14392988232913 L 1010.6336704943949 70.21629081854239 L 1010.4552846390449 70.28784894426022 L 1010.2753247768176 70.35859710372968 L 1010.0938089035495 70.42852822219379 L 1009.9107551706766 70.49763530659898 L 1009.7261818834196 70.5659114462944 L 1009.5401074989534 70.63334981372294 L 1009.3525506245614 70.69994366510412 L 1009.1635300157748 70.76568634110825 L 1008.9730645744969 70.83057126752253 L 1008.781173347113 70.89459195590838 L 1008.5878755225863 70.95774200425032 L 1008.3931904305377 71.02001509759614 L 1008.1971375393146 71.08140500868842 L 1007.9997364540424 71.14190559858717 L 1007.8010069146653 71.20151081728383 L 1007.6009687939716 71.26021470430622 L 1007.3996420956066 71.31801138931453 L 1007.1970469520726 71.37489509268845 L 1006.9932036227148 71.43086012610503 L 1006.7881324916965 71.48590089310757 L 1006.5818540659598 71.54001188966522 L 1006.3743889731754 71.59318770472345 L 1006.1657579596797 71.64542302074504 L 1005.9559818884003 71.69671261424193 L 1005.7450817367693 71.7470513562975 L 1005.5330785946262 71.79643421307951 L 1005.3199936621086 71.84485624634341 L 1005.1058482475322 71.89231261392625 L 1004.8906637652599 71.93879857023082 L 1004.6744617335606 71.9843094667002 L 1004.4572637724575 72.02884075228269 L 1004.2390916015655 72.07238797388683 L 1004.01996703792 72.11494677682676 L 1003.7999119937946 72.15651290525764 L 1003.5789484745105 72.19708220260128 L 1003.3570985762356 72.23665061196175 L 1003.1343844837745 72.27521417653107 L 1002.910828468351 72.31276903998494 L 1002.6864528853806 72.3493114468683 L 1002.4612801722343 72.38483774297092 L 1002.2353328459959 72.41934437569277 L 1002.0086335012097 72.45282789439938 L 1001.7812048076213 72.48528495076673 L 1001.5530695079104 72.51671229911628 L 1001.3242504154172 72.54710679673934 L 1001.0947704118598 72.5764654042115 L 1000.8646524450478 72.60478518569649 L 1000.6339195265857 72.63206330923974 L 1000.4025947295734 72.65829704705163 L 1000.1707011862975 72.68348377578025 L 999.9382620859194 72.70762097677371 L 999.7053006721553 72.73070623633201 L 999.4718402409524 72.75273724594847 L 999.2379041381594 72.77371180254045 L 999.0035157571914 72.79362780866978 L 998.7686985366914 72.81248327275246 L 998.5334759581858 72.83027630925778 L 998.2978715437362 72.84700513889692 L 998.0619088535879 72.86266808880085 L 997.8256114838132 72.87726359268764 L 997.5890030639522 72.89079019101906 L 997.3521072546496 72.90324653114655 L 997.1149477452891 72.91463136744649 L 996.8775482516239 72.9249435614447 L 996.6399325134055 72.93418208193043 L 996.4021242920098 72.94234600505929 L 996.1641473680608 72.94943451444577 L 995.9260255390524 72.95544690124485 L 995.6877826169692 72.96038256422287 L 995.4494424259049 72.96424100981763 L 995.2110287996799 72.9670218521878 L 994.9725655794581 72.96872481325143 L 994.734076611363 72.96934972271386 L 994.4955857440924 72.96889651808466 L 994.2571168265346 72.96736524468392 L 994.0186937053824 72.96475605563768 L 993.7803402227494 72.96106921186271 L 993.542080213785 72.95630508204027 L 993.3039375042918 72.9504641425794 L 993.0659359083421 72.94354697756918 L 992.8280992258973 72.93555427872033 L 992.5904512404273 72.9264868452961 L 992.3530157165328 72.91634558403224 L 992.1158163975681 72.90513150904647 L 991.8788770032677 72.89284574173689 L 991.6422212273734 72.87948951067006 L 991.4058727352656 72.86506415145789 L 991.1698551615965 72.84957110662431 L 990.934192107927 72.8330119254609 L 990.6989071403658 72.81538826387197 L 990.4640237872138 72.79670188420899 L 990.2295655366105 72.77695465509434 L 989.9955558341857 72.7561485512345 L 989.7620180807143 72.73428565322251 L 989.5289756297774 72.71136814732996 L 989.2964517854257 72.68739832528833 L 989.0644697998498 72.66237858405984 L 988.8330528710552 72.63631142559778 L 988.6022241405417 72.60919945659627 L 988.3720066909901 72.58104538822961 L 988.1424235439536 72.55185203588118 L 987.9134976575552 72.5216223188619 L 987.6852519241933 72.49035926011825 L 987.4577091682506 72.45806598593009 L 987.2308921438133 72.4247457255979 L 987.0048235323949 72.39040181111994 L 986.7795259406679 72.35503767685907 L 986.5550218982038 72.31865685919922 L 986.3313338552199 72.28126299619186 L 986.108484180334 72.24285982719209 L 985.8864951583279 72.20345119248485 L 985.6653889879188 72.16304103290075 L 985.4451877795394 72.12163338942209 L 985.2259135531273 72.07923240277869 L 985.0075882359221 72.03584231303388 L 984.7902336602737 71.99146745916049 L 984.5738715614586 71.94611227860693 L 984.3585235755063 71.89978130685344 L 984.1442112370361 71.85247917695861 L 983.9309559771029 71.80421061909601 L 983.7187791210555 71.75498046008119 L 983.5077018864022 71.70479362288901 L 983.2977453806908 71.65365512616141 L 983.0889305993969 71.60157008370541 L 982.8812784238246 71.54854370398188 L 982.6748096190184 71.49458128958457 L 982.4695448316868 71.43968823671 L 982.2655045881373 71.38387003461766 L 982.0627092922243 71.32713226508127 L 981.8611792233086 71.26948060183051 L 981.6609345342289 71.21092080998365 L 981.4619952492873 71.15145874547107 L 981.2643812622465 71.0911003544497 L 981.0681123343406 71.0298516727083 L 980.8732080922988 70.96771882506403 L 980.6796880263829 70.90470802474988 L 980.4875714884381 70.84082557279336 L 980.2968776899584 70.77607785738643 L 980.1076257001644 70.71047135324669 L 979.9198344440974 70.64401262096986 L 979.7335227007268 70.5767083063738 L 979.5487091010714 70.50856513983389 L 979.3654121263373 70.43958993560999 L 979.1836501060691 70.36978959116503 L 979.0034412163176 70.29917108647531 L 978.8248034778213 70.22774148333244 L 978.6477547542054 70.1555079246372 L 978.4723127501945 70.08247763368529 L 978.2984950098431 70.00865791344492 L 978.1263189147802 69.9340561458266 L 977.9558016824718 69.85867979094495 L 977.7869603644992 69.78253638637263 L 977.6198118448533 69.70563354638664 L 977.454372838247 69.62797896120689 L 977.2906598884427 69.54958039622719 L 977.1286893665995 69.47044569123871 L 976.9684774696342 69.39058275964601 L 976.810040218603 69.30999958767568 L 976.6533934570992 69.22870423357777 L 976.4985528496684 69.14670482681996 L 976.3455338802421 69.06400956727457 L 976.1943518505898 68.98062672439866 L 976.0450218787885 68.89656463640702 L 975.897558897711 68.8118317094384 L 975.7519776535324 68.72643641671489 L 975.608292704256 68.6403872976946 L 975.4665184182568 68.55369295721772 L 975.3266689728454 68.46636206464606 L 975.1887583528496 68.37840335299609 L 975.0528003492166 68.28982561806569 L 974.9188085576335 68.20063771755453 L 974.7867963771678 68.11084857017835 L 974.6567770089274 68.02046715477704 L 974.5287634547409 67.92950250941684 L 974.402768515857 67.83796373048648 L 974.2788047916647 67.74585997178757 L 974.156884678433 67.65320044361923 L 974.0370203680716 67.55999441185705 L 973.9192238469117 67.46625119702654 L 973.8035068945072 67.37198017337107 L 973.689881082457 67.27719076791445 L 973.5783577732476 67.18189245951821 L 973.4689481191169 67.08609477793381 L 973.3616630609392 66.98980730284956 L 973.256513327131 66.89303966293272 L 973.153509432578 66.79580153486665 L 973.0526616775836 66.69810264238313 L 972.9539801468395 66.59995275528999 L 972.8574747084166 66.50136168849414 L 972.7631550127782 66.40233930102012 L 972.6710304918151 66.30289549502413 L 972.581110357903 66.20304021480393 L 972.49340360298 66.1027834458043 L 972.4079189976487 66.00213521361863 L 972.3246650902985 65.90110558298623 L 972.2436502062504 65.799704656786 L 972.1648824469256 65.69794257502603 L 972.0883696890344 65.59582951382973 L 972.0141195837886 65.4933756844181 L 971.942139556137 65.3905913320887 L 971.8724368040223 65.28748673519112 L 971.8050182976618 65.18407220409914 L 971.7398907788498 65.08035808017966 L 971.6770607602839 64.97635473475869 L 971.6165345249137 64.87207256808405 L 971.5583181253122 64.76752200828555 L 971.502417383071 64.66271351033203 L 971.4488378882176 64.55765755498592 L 971.3975849986567 64.45236464775525 L 971.3486638396349 64.34684531784296 L 971.3020793032271 64.24111011709415 L 971.2578360478482 64.13516961894075 L 971.2159384977867 64.0290344173443 L 971.176390842763 63.92271512573653 L 971.1391970375093 63.81622237595798 L 971.1043608013755 63.70956681719489 L 971.0718856179558 63.602759114914264 L 971.0417747347418 63.49580994979732 L 971.0140311627965 63.38873001667144 L 970.9886576764542 63.28153002344071 L 970.9656568130422 63.17422069001512 L 970.9450308726277 63.066812747238586 L 970.9267819177876 62.959316935815885 L 970.9109117734022 62.85174400523857 L 970.8974220264727 62.74410471271006 L 970.8863140259624 62.636409822069915 L 970.8775888826624 62.52867010271744 L 970.8712474690794 62.4208963285348 L 970.8672904193498 62.313099276809595 L 970.8657181291751 62.20528972715717 L 970.8665307557831 62.09747846044265 L 970.8697282179116 61.98967625770286 L 970.8753101958173 61.88189389906824 L 970.883276131307 61.77414216268484 L 970.8936252277937 61.66643182363649 L 970.9063564503765 61.558773652867366 L 970.9214685259436 61.4511784161048 L 970.9389599433002 61.34365687278283 L 970.958828953319 61.236219774966166 L 970.9810735691157 61.12887786627507 L 971.0056915662472 61.02164188081096 L 971.0326804829341 60.91452254208302 L 971.0620376203075 60.807530561935856 L 971.093760042678 60.70067663947832 L 971.1278445778299 60.593971460013606 L 971.1642878173379 60.487425693970756 L 971.2030861169087 60.381049995837586 L 971.2442355967444 60.27485500309525 L 971.2877321419314 60.16885133515453 L 971.3335714028515 60.06304959229389 L 971.3817487956167 59.95746035459945 L 971.4322595025279 59.852094180906974 L 971.4850984725565 59.746961607746044 L 971.5402604218497 59.64207314828636 L 971.5977398342583 59.537439291286454 L 971.657530961889 59.43307050004484 L 971.7196278256789 59.32897721135367 L 971.7840242159934 59.22516983445505 L 971.8507136932473 59.12165875000019 L 971.9196895885481 59.01845430901127 L 971.9909450043639 58.91556683184637 L 972.0644728152125 58.81300660716748 L 972.1402656683741 58.7107838909116 L 972.2183159846265 58.60890890526517 L 972.2986159590033 58.507391837641855 L 972.3811575615737 58.406242839663825 L 972.4659325382464 58.30547202614659 L 972.5529324115944 58.205089474087515 L 972.6421484817027 58.105105221658164 L 972.7335718270389 58.00552926720046 L 972.8271933053444 57.90637156822687 L 972.9230035545494 57.807642040424646 L 973.020992993709 57.709350556664305 L 973.1211518239609 57.61150694601232 L 973.2234700295054 57.514120992748204 L 973.3279373786072 57.417202435386145 L 973.4345434246187 57.320760965701105 L 973.543277507024 57.224806227759686 L 973.6541287525052 57.12934781695572 L 973.7670860760306 57.03439527905074 L 973.8821381819617 56.93995810921942 L 973.9992735651839 56.84604575110002 L 974.1184805122563 56.75266759585011 L 974.2397471025837 56.65983298120741 L 974.3630612096081 56.567551190555996 L 974.4884105020216 56.47583145199805 L 974.6157824449992 56.384682937430995 L 974.7451643014531 56.29411476163032 L 974.8765431333052 56.20413598133814 L 975.0099058027818 56.1147555943575 L 975.1452389737271 56.02598253865261 L 975.282529112937 55.937825691455075 L 975.4217624915118 55.85029386837614 L 975.5629251862297 55.763395822525176 L 975.7060030809388 55.677140243634355 L 975.8509818679689 55.591535757189675 L 975.9978470495622 55.50659092356846 L 976.1465839393229 55.42231423718327 L 976.2971776636858 55.33871412563253 L 976.4496131634043 55.25579894885771 L 976.603875195055 55.1735769983074 L 976.7599483325637 55.092056496108135 L 976.9178169687465 55.01124559424221 L 977.0774653168714 54.93115237373246 L 977.2388774122365 54.851784843834196 L 977.402037113767 54.77315094123426 L 977.5669281056286 54.6952585292574 L 977.7335338988595 54.61811539707989 L 977.9018378330193 54.54172925895067 L 978.0718230778546 54.46610775341989 L 978.2434726349828 54.391258442575094 L 978.4167693395913 54.317188811284986 L 978.5916958621538 54.24390626645098 L 978.7682347101639 54.171418136266475 L 978.946368229884 54.09973166948409 L 979.1260786081106 54.028854034690774 L 979.3073478739555 53.95879231959093 L 979.4901579006431 53.88955353029769 L 979.6744904073233 53.82114459063227 L 979.8603269608991 53.753572341431656 L 980.0476489778697 53.68684353986444 L 980.2364377261896 53.62096485875517 L 980.4266743271414 53.55594288591707 L 980.6183397572236 53.49178412349323 L 980.8114148500526 53.42849498730643 L 981.0058802982803 53.366081806217544 L 981.2017166555239 53.304550821492676 L 981.3989043383107 53.24390818617902 L 981.597423628037 53.18415996448957 L 981.797254672939 53.12531213119671 L 981.9983774900787 53.067370571034715 L 982.2007719673423 53.01034107811134 L 982.4044178654507 52.95422935532834 L 982.6092948199835 52.89904101381123 L 982.8153823434161 52.84478157234818 L 983.022659827168 52.79145645683812 L 983.2311065436635 52.73907099974815 L 983.4407016484047 52.687630439580346 L 983.6514241820556 52.637139920347835 L 983.8632530725387 52.58760449106049 L 984.0761671371413 52.53902910521993 L 984.2901450846344 52.49141862032429 L 984.5051655174017 52.444777797382365 L 984.7212069335789 52.399111300437596 L 984.9382477292044 52.354423696101605 L 985.1562662003797 52.3107194530976 L 985.3752405454393 52.26800294181345 L 985.595148867131 52.2262784338647 L 985.8159691748062 52.18555010166736 L 986.0376793866179 52.14582201802072 L 986.2602573317298 52.10709815570004 L 986.4836807525328 52.06938238705927 L 986.7079273068709 52.032678483643856 L 986.9329745702759 51.996990115813546 L 987.1588000382086 51.96232085237539 L 987.3853811283107 51.928674160226834 L 987.6126951826618 51.89605340400906 L 987.8407194700459 51.8644618457705 L 988.0694311882244 51.833902644640645 L 988.298807466216 51.80437885651416 L 988.5288253665841 51.775893433745246 L 988.7594618877303 51.74844922485244 L 988.9906939661946 51.722048974233765 L 989.2224984789619 51.69669532189228 L 989.4548522457743 51.672390803172085 L 989.6877320314485 51.649137848504814 L 989.9211145482001 51.626938783166544 L 990.1549764579719 51.60579582704531 L 990.3892943747677 51.58571109441911 L 990.6240448669912 51.56668659374447 L 990.8592044597888 51.54872422745561 L 991.0947496373972 51.53182579177417 L 991.3306568454948 51.515992976529645 L 991.5669024935576 51.50122736499037 L 991.8034629572173 51.4875304337052 L 992.0403145806251 51.47490355235584 L 992.2774336788158 51.4633479836199 L 992.5147965400772 51.45286488304463 L 992.752379428321 51.443455298931354 L 992.9901585854562 51.43512017223063 L 993.2281102337656 51.4278603364482 L 993.4662105782824 51.42167651756158 L 993.7044358091705 51.41656933394751 L 993.9427621041056 51.41253929632009 L 994.1811656306566 51.40958680767973 L 994.4196225486694 51.407712163272826 L 994.6581090126513 51.40691555056227 L 994.8966011741543 51.40719704920866 L 995.1350751841611 51.40855663106237 L 995.3735071954695 51.41099416016634 L 995.611873365077 51.414509392769695 L 995.8501498565653 51.419101977352106 L 996.0883128424838 51.42477145465894 L 996.3263385067323 51.431517257747196 L 996.5642030469428 51.43933871204218 L 996.8018826768595 51.44823503540498 L 997.0393536287175 51.45820533821068 L 997.2765921556195 51.4692486234373 L 997.5135745339104 51.48136378676553 L 997.75027706555 51.49454961668913 L 997.9866760804823 51.50880479463608 L 998.2227479390029 51.524127895100484 L 998.4584690341226 51.54051738578506 L 998.6938157939283 51.5579716277544 L 998.9287646839401 51.57648887559884 L 999.1632922094649 51.59606727760904 L 999.3973749179456 51.6167048759611 L 999.6309894013064 51.6383996069124 L 999.8641122982934 51.66114930100791 L 1000.0967202968116 51.684951683297186 L 1000.3287901362546 51.70980437356183 L 1000.5602986098321 51.735704886553535 L 1000.7912225668896 51.76265063224257 L 1001.0215389152238 51.79063891607683 L 1001.2512246233917 51.81966693925126 L 1001.4802567230141 51.849731798987726 L 1001.7086123110718 51.88083048882531 L 1001.9362685521962 51.91295989892094 L 1002.163202680953 51.94611681636038 L 1002.3893920041183 51.980297925479526 L 1002.6148139029486 52.01549980819594 L 1002.8394458354416 52.0517189443507 L 1003.0632653385912 52.08895171206036 L 1003.2862500306338 52.127194388079175 L 1003.5083776132858 52.16644314817141 L 1003.7296258739743 52.20669406749378 L 1003.9499726880574 52.247943120987884 L 1004.1693960210373 52.29018618378274 L 1004.3878739307637 52.33341903160728 L 1004.6053845696276 52.37763734121275 L 1004.8219061867464 52.422836690805035 L 1005.0374171301388 52.46901256048684 L 1005.2518958488901 52.516160332709674 L 1005.4653208953071 52.564275292735616 L 1005.677670927063 52.613352629108746 L 1005.8889247093317 52.663387434136325 L 1006.0990611169109 52.71437470437956 L 1006.3080591363349 52.7663093411539 L 1006.5158978679762 52.819186151038956 L 1006.7225565281344 52.8729998463978 L 1006.9280144511162 52.92774504590574 L 1007.1322510913001 52.983416275088445 L 1007.3352460251924 53.040007966869396 L 1007.536978953469 53.09751446212657 L 1007.7374297030051 53.15593001025836 L 1007.9365782288927 53.21524876975863 L 1008.1344046164453 53.27546480880087 L 1008.3308890831889 53.33657210583136 L 1008.5260119808407 53.3985645501713 L 1008.7197537972735 53.461435942627936 L 1008.9120951584669 53.52517999611441 L 1009.1030168304453 53.58979033627848 L 1009.2924997212004 53.655260502139996 L 1009.4805248826013 53.721583946736914 L 1009.6670735122884 53.78875403778004 L 1009.8521269555541 53.85676405831625 L 1010.0356667072084 53.92560720740017 L 1010.2176744134291 53.995276600774254 L 1010.3981318735972 54.065765271557225 L 1010.577021042117 54.13706617094075 L 1010.7543240302208 54.2091721688943 L 1010.9300231077576 54.28207605487816 L 1011.104100704966 54.35577053856451 L 1011.2765394142313 54.43024825056637 L 1011.4473219918262 54.50550174317461 L 1011.6164313596355 54.581523491102686 L 1011.7838506068631 54.658305892239156 L 1011.949562991724 54.73584126840789 L 1012.1135519431176 54.81412186613588 L 1012.2758010622856 54.89313985742859 L 1012.4362941244513 54.97288734055273 L 1012.5950150804421 55.05335634082646 L 1012.7519480582946 55.1345388114168 L 1012.9070773648419 55.21642663414435 L 1013.0603874872828 55.29901162029506 L 1013.2118630947325 55.38228551143916 L 1013.3614890397566 55.46623998025691 L 1013.5092503598854 55.55086663137139 L 1013.6551322791099 55.63615700218803 L 1013.7991202093598 55.722102563740805 L 1013.941199751962 55.80869472154519 L 1014.0813566990807 55.89592481645755 L 1014.219577035138 55.98378412554111 L 1014.3558469382153 56.07226386293816 L 1014.4901527814361 56.1613551807487 L 1014.6224811343279 56.251049169915184 L 1014.7528187641656 56.34133686111345 L 1014.8811526372949 56.4322092256496 L 1015.0074699204356 56.52365717636293 L 1015.1317579819643 56.615671568534566 L 1015.2540043931787 56.70824320080196 L 1015.3741969295394 56.80136281607904 L 1015.492323571893 56.89502110248188 L 1015.6083725076737 56.98920869425987 L 1015.7223321320846 57.083916172732344 L 1015.8341910492583 57.17913406723036 L 1015.9439380733961 57.27485285604382 L 1016.0515622298873 57.37106296737362 L 1016.1570527564057 57.467754780288786 L 1016.2603991039867 57.56491862568861 L 1016.3615909380817 57.662544787269525 L 1016.4606181395916 57.76062350249672 L 1016.5574708058786 57.859144963580405 L 1016.6521392517569 57.95809931845658 L 1016.7446140104609 58.05747667177222 L 1016.8348858345917 58.15726708587479 L 1016.922945697042 58.257460581806065 L 1017.0087847918991 58.358047140299924 L 1017.0923945353251 58.459016702784346 L 1017.173766566415 58.56035917238722 L 1017.2528927480339 58.66206441494605 L 1017.3297651676294 58.764122260021324 L 1017.4043761380235 58.866522501913586 L 1017.4767181981815 58.96925490068398 L 1017.5467841139578 59.072309183178234 L 1017.6145668788188 59.17567504405398 L 1017.6800597145448 59.279342146811274 L 1017.7432560719067 59.38330012482622 L 1017.8041496313214 59.48753858238766 L 1017.8627343034838 59.59204709573668 L 1017.9190042299754 59.69681521410906 L 1017.9729537838506 59.80183246078026 L 1018.0245775701989 59.907088334113126 L 1018.0738704266845 60.012572308608036 L 1018.1208274240631 60.11827383595545 L 1018.165443866674 60.22418234609071 L 1018.20771529291 60.33028724825106 L 1018.2476374756639 60.43657793203471 L 1018.2852064227505 60.54304376846186 L 1018.3204183773065 60.64967411103757 L 1018.3532698181659 60.75645829681646 L 1018.3837574602118 60.86338564746893 L 1018.4118782547055 60.97044547034902 L 1018.4376293895908 61.07762705956367 L 1018.461008289776 61.184919697043256 L 1018.4820126173903 61.29231265361346 L 1018.5006402720186 61.399795190068104 L 1018.5168893909108 61.50735655824312 L 1018.5307583491688 61.614986002091314 L 1018.542245759908 61.72267275875801 L 1018.5513504743972 61.830406059657264 L 1018.5580715821724 61.93817513154877 L 1018.5624084111283 62.04596919761514 L 1018.5643605275859 62.15377747853961 M 1018.5644815176419 96.4920458931 L 1018.5632890577382 96.59985643801662 L 1018.5597117972721 96.70765620196859 L 1018.5537500939669 96.81543440506935 L 1018.5454045439875 96.9231802695884 L 1018.5346759818823 97.03088302102908 L 1018.5215654804985 97.138531889206 L 1018.5060743508752 97.24611610932205 L 1018.4882041421126 97.35362492304485 L 1018.4679566412166 97.46104757958265 L 1018.4453338729204 97.5683733367593 L 1018.420338099482 97.67559146208852 L 1018.392971820458 97.78269123384712 L 1018.3632377724534 97.88966194214719 L 1018.3311389288483 97.99649289000702 L 1018.2966784995002 98.10317339442086 L 1018.2598599304234 98.20969278742717 L 1018.2206869034441 98.31604041717543 L 1018.1791633358323 98.42220564899125 L 1018.1352933799103 98.52817786643996 L 1018.0890814226369 98.6339464723881 L 1018.0405320851696 98.73950089006323 L 1017.9896502224016 98.84483056411152 L 1017.9364409224767 98.94992496165337 L 1017.8809095062804 99.05477357333659 L 1017.8230615269084 99.15936591438738 L 1017.7629027691103 99.2636915256588 L 1017.7004392487116 99.36773997467667 L 1017.6356772120124 99.47150085668278 L 1017.5686231351624 99.5749637956754 L 1017.4992837235135 99.67811844544686 L 1017.4276659109488 99.78095449061813 L 1017.3537768591901 99.8834616476704 L 1017.2776239570811 99.98562966597338 L 1017.1992148198483 100.08744832881038 L 1017.1185572883402 100.18890745439998 L 1017.0356594282428 100.28999689691415 L 1016.9505295292729 100.39070654749288 L 1016.8631761043495 100.49102633525506 L 1016.7736078887423 100.59094622830548 L 1016.6818338391982 100.69045623473812 L 1016.5878631330459 100.78954640363527 L 1016.4917051672772 100.8882068260626 L 1016.3933695576092 100.9864276360601 L 1016.2928661375204 101.0841990116286 L 1016.1902049572692 101.18151117571202 L 1016.0853962828882 101.27835439717506 L 1015.9784505951573 101.37471899177628 L 1015.8693785885563 101.4705953231365 L 1015.758191170195 101.56597380370249 L 1015.6448994587224 101.6608448957057 L 1015.5295147832155 101.75519911211595 L 1015.4120486820455 101.84902701759025 L 1015.2925129017245 101.94231922941623 L 1015.1709193957313 102.03506641845047 L 1015.0472803233149 102.12725931005133 L 1014.9216080482795 102.2188886850065 L 1014.7939151377481 102.30994538045483 L 1014.664214360905 102.40042029080266 L 1014.5325186877201 102.49030436863434 L 1014.3988412876508 102.579588625617 L 1014.2631955283259 102.66826413339936 L 1014.1255949742081 102.75632202450451 L 1013.9860533852382 102.84375349321674 L 1013.8445847154588 102.93054979646202 L 1013.7012031116191 103.01670225468237 L 1013.5559229117599 103.10220225270375 L 1013.4087586437801 103.18704124059762 L 1013.259725023984 103.27121073453588 L 1013.108836955609 103.3547023176393 L 1012.9561095273367 103.4375076408191 L 1012.8015580117824 103.51961842361202 L 1012.645197863969 103.60102645500817 L 1012.4870447197807 103.68172359427226 L 1012.3271143944004 103.7617017717576 L 1012.1654228807272 103.84095298971312 L 1012.0019863477779 103.91946932308304 L 1011.8368211390693 103.99724292029944 L 1011.669943770985 104.07426600406745 L 1011.5013709311226 104.15053087214287 L 1011.3311194766254 104.22602989810241 L 1011.1592064324973 104.30075553210642 L 1010.9856489898992 104.37470030165377 L 1010.8104645044309 104.44785681232914 L 1010.6336704943949 104.52021774854238 L 1010.4552846390449 104.59177587426021 L 1010.2753247768176 104.66252403372968 L 1010.0938089035495 104.73245515219378 L 1009.9107551706766 104.80156223659897 L 1009.7261818834196 104.86983837629438 L 1009.5401074989534 104.93727674372295 L 1009.3525506245614 105.0038705951041 L 1009.1635300157748 105.06961327110824 L 1008.9730645744969 105.13449819752252 L 1008.781173347113 105.19851888590837 L 1008.5878755225863 105.26166893425032 L 1008.3931904305377 105.32394202759615 L 1008.1971375393146 105.38533193868841 L 1007.9997364540424 105.44583252858716 L 1007.8010069146653 105.50543774728384 L 1007.6009687939716 105.56414163430621 L 1007.3996420956066 105.62193831931454 L 1007.1970469520726 105.67882202268845 L 1006.9932036227148 105.73478705610502 L 1006.7881324916965 105.78982782310756 L 1006.5818540659598 105.84393881966523 L 1006.3743889731754 105.89711463472344 L 1006.1657579596797 105.94934995074503 L 1005.9559818884003 106.00063954424192 L 1005.7450817367693 106.0509782862975 L 1005.5330785946262 106.1003611430795 L 1005.3199936621086 106.14878317634341 L 1005.1058482475322 106.19623954392625 L 1004.8906637652599 106.2427255002308 L 1004.6744617335606 106.2882363967002 L 1004.4572637724575 106.33276768228268 L 1004.2390916015655 106.37631490388682 L 1004.01996703792 106.41887370682676 L 1003.7999119937946 106.46043983525765 L 1003.5789484745105 106.50100913260128 L 1003.3570985762356 106.54057754196174 L 1003.1343844837745 106.57914110653107 L 1002.910828468351 106.61669596998493 L 1002.6864528853806 106.65323837686829 L 1002.4612801722343 106.6887646729709 L 1002.2353328459959 106.72327130569276 L 1002.0086335012097 106.75675482439937 L 1001.7812048076213 106.78921188076673 L 1001.5530695079104 106.82063922911627 L 1001.3242504154172 106.85103372673933 L 1001.0947704118598 106.8803923342115 L 1000.8646524450478 106.90871211569649 L 1000.6339195265857 106.93599023923973 L 1000.4025947295734 106.96222397705162 L 1000.1707011862975 106.98741070578025 L 999.9382620859194 107.0115479067737 L 999.7053006721553 107.03463316633201 L 999.4718402409524 107.05666417594847 L 999.2379041381594 107.07763873254045 L 999.0035157571914 107.09755473866979 L 998.7686985366914 107.11641020275246 L 998.5334759581858 107.13420323925777 L 998.2978715437362 107.1509320688969 L 998.0619088535879 107.16659501880085 L 997.8256114838132 107.18119052268763 L 997.5890030639522 107.19471712101905 L 997.3521072546496 107.20717346114655 L 997.1149477452891 107.21855829744648 L 996.8775482516239 107.22887049144471 L 996.6399325134055 107.23810901193042 L 996.4021242920098 107.24627293505928 L 996.1641473680608 107.25336144444577 L 995.9260255390524 107.25937383124486 L 995.6877826169692 107.26430949422287 L 995.4494424259049 107.26816793981763 L 995.2110287996799 107.27094878218779 L 994.9725655794581 107.27265174325143 L 994.734076611363 107.27327665271386 L 994.4955857440924 107.27282344808465 L 994.2571168265346 107.27129217468391 L 994.0186937053824 107.26868298563768 L 993.7803402227494 107.2649961418627 L 993.542080213785 107.26023201204026 L 993.3039375042918 107.2543910725794 L 993.0659359083421 107.24747390756917 L 992.8280992258973 107.23948120872033 L 992.5904512404273 107.23041377529609 L 992.3530157165328 107.22027251403225 L 992.1158163975681 107.20905843904646 L 991.8788770032677 107.1967726717369 L 991.6422212273734 107.18341644067004 L 991.4058727352656 107.16899108145788 L 991.1698551615965 107.15349803662431 L 990.934192107927 107.1369388554609 L 990.6989071403658 107.11931519387196 L 990.4640237872138 107.10062881420897 L 990.2295655366105 107.08088158509435 L 989.9955558341857 107.0600754812345 L 989.7620180807143 107.03821258322252 L 989.5289756297774 107.01529507732995 L 989.2964517854257 106.99132525528832 L 989.0644697998498 106.96630551405984 L 988.8330528710552 106.94023835559778 L 988.6022241405417 106.91312638659626 L 988.3720066909901 106.88497231822961 L 988.1424235439536 106.85577896588119 L 987.9134976575552 106.8255492488619 L 987.6852519241933 106.79428619011826 L 987.4577091682506 106.76199291593008 L 987.2308921438133 106.72867265559789 L 987.0048235323949 106.69432874111995 L 986.7795259406679 106.65896460685907 L 986.5550218982038 106.62258378919921 L 986.3313338552199 106.58518992619184 L 986.108484180334 106.5467867571921 L 985.8864951583279 106.50737812248485 L 985.6653889879188 106.46696796290075 L 985.4451877795394 106.42556031942208 L 985.2259135531273 106.38315933277867 L 985.0075882359221 106.33976924303387 L 984.7902336602737 106.29539438916049 L 984.5738715614586 106.25003920860692 L 984.3585235755063 106.20370823685344 L 984.1442112370361 106.15640610695861 L 983.9309559771029 106.108137549096 L 983.7187791210555 106.05890739008117 L 983.5077018864022 106.00872055288902 L 983.2977453806908 105.9575820561614 L 983.0889305993969 105.90549701370541 L 982.8812784238246 105.85247063398188 L 982.6748096190184 105.79850821958458 L 982.4695448316868 105.74361516670999 L 982.2655045881373 105.68779696461766 L 982.0627092922243 105.63105919508126 L 981.8611792233086 105.5734075318305 L 981.6609345342289 105.51484773998365 L 981.4619952492873 105.45538567547108 L 981.2643812622465 105.3950272844497 L 981.0681123343406 105.33377860270829 L 980.8732080922988 105.27164575506403 L 980.6796880263829 105.20863495474987 L 980.4875714884381 105.14475250279335 L 980.2968776899584 105.08000478738643 L 980.1076257001644 105.01439828324668 L 979.9198344440974 104.94793955096986 L 979.7335227007268 104.8806352363738 L 979.5487091010714 104.8124920698339 L 979.3654121263373 104.74351686560999 L 979.1836501060691 104.67371652116503 L 979.0034412163176 104.6030980164753 L 978.8248034778213 104.53166841333243 L 978.6477547542054 104.4594348546372 L 978.4723127501945 104.38640456368528 L 978.2984950098431 104.31258484344491 L 978.1263189147802 104.2379830758266 L 977.9558016824718 104.16260672094495 L 977.7869603644992 104.08646331637262 L 977.6198118448533 104.00956047638662 L 977.454372838247 103.93190589120688 L 977.2906598884427 103.85350732622719 L 977.1286893665995 103.77437262123871 L 976.9684774696342 103.694509689646 L 976.810040218603 103.61392651767568 L 976.6533934570992 103.53263116357778 L 976.4985528496684 103.45063175681996 L 976.3455338802421 103.36793649727457 L 976.1943518505898 103.28455365439865 L 976.0450218787885 103.20049156640701 L 975.897558897711 103.1157586394384 L 975.7519776535324 103.03036334671489 L 975.608292704256 102.94431422769459 L 975.4665184182568 102.85761988721772 L 975.3266689728454 102.77028899464605 L 975.1887583528496 102.68233028299609 L 975.0528003492166 102.5937525480657 L 974.9188085576335 102.50456464755453 L 974.7867963771678 102.41477550017834 L 974.6567770089274 102.32439408477703 L 974.5287634547409 102.23342943941684 L 974.402768515857 102.14189066048647 L 974.2788047916647 102.04978690178756 L 974.156884678433 101.95712737361922 L 974.0370203680716 101.86392134185704 L 973.9192238469117 101.77017812702654 L 973.8035068945072 101.67590710337106 L 973.689881082457 101.58111769791444 L 973.5783577732476 101.48581938951821 L 973.4689481191169 101.39002170793381 L 973.3616630609392 101.29373423284954 L 973.256513327131 101.19696659293271 L 973.153509432578 101.09972846486664 L 973.0526616775836 101.00202957238312 L 972.9539801468395 100.90387968528998 L 972.8574747084166 100.80528861849413 L 972.7631550127782 100.70626623102011 L 972.6710304918151 100.60682242502413 L 972.581110357903 100.50696714480392 L 972.49340360298 100.40671037580431 L 972.4079189976487 100.30606214361863 L 972.3246650902985 100.20503251298624 L 972.2436502062504 100.103631586786 L 972.1648824469256 100.00186950502604 L 972.0883696890344 99.89975644382972 L 972.0141195837886 99.79730261441809 L 971.942139556137 99.69451826208869 L 971.8724368040223 99.59141366519111 L 971.8050182976618 99.48799913409913 L 971.7398907788498 99.38428501017967 L 971.6770607602839 99.28028166475868 L 971.6165345249137 99.17599949808405 L 971.5583181253122 99.07144893828554 L 971.502417383071 98.96664044033201 L 971.4488378882176 98.86158448498593 L 971.3975849986567 98.75629157775525 L 971.3486638396349 98.65077224784297 L 971.3020793032271 98.54503704709414 L 971.2578360478482 98.43909654894075 L 971.2159384977867 98.33296134734431 L 971.176390842763 98.22664205573652 L 971.1391970375093 98.12014930595798 L 971.1043608013755 98.01349374719489 L 971.0718856179558 97.90668604491427 L 971.0417747347418 97.79973687979731 L 971.0140311627965 97.69265694667143 L 970.9886576764542 97.58545695344071 L 970.9656568130422 97.47814762001512 L 970.9450308726277 97.37073967723859 L 970.9267819177876 97.26324386581588 L 970.9109117734022 97.15567093523856 L 970.8974220264727 97.04803164271006 L 970.8863140259624 96.94033675206991 L 970.8775888826624 96.83259703271744 L 970.8712474690794 96.7248232585348 L 970.8672904193498 96.6170262068096 L 970.8657181291751 96.50921665715717" stroke-miterlimit="10" stroke-width="2.7769845610000004" stroke-dasharray=""/></g><g><text fill="black" stroke="none" font-family="sans-serif" font-size="11pt" font-style="normal" font-weight="normal" text-decoration="normal" x="963.3371397533529" y="124.80095321200001" text-anchor="start" dominant-baseline="alphabetic" xml:space="preserve">Database</text></g></g><g><path fill="white" stroke="black" paint-order="fill stroke markers" d=" M 290.34652909827474 183.607685092 L 306.68173239827473 183.607685092 L 306.68173239827473 565.851442312 L 290.34652909827474 565.851442312 L 290.34652909827474 183.607685092" stroke-miterlimit="10" stroke-width="1.3612669416666667" stroke-dasharray=""/><path fill="white" stroke="black" paint-order="fill stroke markers" d=" M 570.7074997513346 275.084823572 L 587.0427030513347 275.084823572 L 587.0427030513347 520.1128730720001 L 570.7074997513346 520.1128730720001 L 570.7074997513346 275.084823572" stroke-miterlimit="10" stroke-width="1.3612669416666667" stroke-dasharray=""/><path fill="white" stroke="black" paint-order="fill stroke markers" d=" M 778.6274914004882 320.823392812 L 794.9626947004883 320.823392812 L 794.9626947004883 458.039100532 L 778.6274914004882 458.039100532 L 778.6274914004882 320.823392812" stroke-miterlimit="10" stroke-width="1.3612669416666667" stroke-dasharray=""/><path fill="white" stroke="black" paint-order="fill stroke markers" d=" M 986.5474830496419 366.561962052 L 1002.882686349642 366.561962052 L 1002.882686349642 412.300531292 L 986.5474830496419 412.300531292 L 986.5474830496419 366.561962052" stroke-miterlimit="10" stroke-width="1.3612669416666667" stroke-dasharray=""/><g><g><rect fill="white" stroke="none" x="88.47107244627604" y="162.371920802" width="180.91340889039063" height="21.23576429"/></g><text fill="black" stroke="none" font-family="sans-serif" font-size="11pt" font-style="normal" font-weight="normal" text-decoration="normal" x="90.92135294127604" y="177.07360377199998" text-anchor="start" dominant-baseline="alphabetic" xml:space="preserve">Go to Users In Group page</text></g><g><path fill="none" stroke="black" paint-order="fill stroke markers" d=" M 67.50902468466796 183.607685092 L 276.8972117146081 183.607685092" stroke-miterlimit="10" stroke-width="1.3612669416666667" stroke-dasharray=""/><g transform="translate(290.34652909827474,183.607685092) translate(-290.34652909827474,-183.607685092)"><path fill="black" stroke="none" paint-order="stroke fill markers" d=" M 276.73385968160807 176.80135038366666 L 290.34652909827474 183.607685092 L 276.73385968160807 190.41401980033334 Z"/></g></g><g><g><rect fill="white" stroke="none" x="101.92491460936198" y="208.110490042" width="154.00572456421875" height="21.23576429"/></g><text fill="black" stroke="none" font-family="sans-serif" font-size="11pt" font-style="normal" font-weight="normal" text-decoration="normal" x="104.37519510436198" y="222.812173012" text-anchor="start" dominant-baseline="alphabetic" xml:space="preserve">Click Add Users button</text></g><g><path fill="none" stroke="black" paint-order="fill stroke markers" d=" M 67.50902468466796 229.346254332 L 276.8972117146081 229.346254332" stroke-miterlimit="10" stroke-width="1.3612669416666667" stroke-dasharray=""/><g transform="translate(290.34652909827474,229.346254332) translate(-290.34652909827474,-229.346254332)"><path fill="black" stroke="none" paint-order="stroke fill markers" d=" M 276.73385968160807 222.53991962366666 L 290.34652909827474 229.346254332 L 276.73385968160807 236.15258904033334 Z"/></g></g><g><g><rect fill="white" stroke="none" x="326.0117229699414" y="253.849059282" width="225.36578620972656" height="21.23576429"/></g><text fill="black" stroke="none" font-family="sans-serif" font-size="11pt" font-style="normal" font-weight="normal" text-decoration="normal" x="328.4620034649414" y="268.550742252" text-anchor="start" dominant-baseline="alphabetic" xml:space="preserve">GET: /api/user/group/none?id={id}</text></g><g><path fill="none" stroke="black" paint-order="fill stroke markers" d=" M 306.68173239827473 275.084823572 L 557.2581823676679 275.084823572" stroke-miterlimit="10" stroke-width="1.3612669416666667" stroke-dasharray=""/><g transform="translate(570.7074997513346,275.084823572) translate(-570.7074997513346,-275.084823572)"><path fill="black" stroke="none" paint-order="stroke fill markers" d=" M 557.0948303346679 268.27848886366667 L 570.7074997513346 275.084823572 L 557.0948303346679 281.89115828033334 Z"/></g></g><g><g><rect fill="white" stroke="none" x="606.3726936230013" y="299.587628522" width="152.92480720582031" height="21.23576429"/></g><text fill="black" stroke="none" font-family="sans-serif" font-size="11pt" font-style="normal" font-weight="normal" text-decoration="normal" x="608.8229741180013" y="314.28931149199997" text-anchor="start" dominant-baseline="alphabetic" xml:space="preserve">getAllUserAvailable(id)</text></g><g><path fill="none" stroke="black" paint-order="fill stroke markers" d=" M 587.0427030513347 320.823392812 L 765.1781740168216 320.823392812" stroke-miterlimit="10" stroke-width="1.3612669416666667" stroke-dasharray=""/><g transform="translate(778.6274914004882,320.823392812) translate(-778.6274914004882,-320.823392812)"><path fill="black" stroke="none" paint-order="stroke fill markers" d=" M 765.0148219838215 314.01705810366667 L 778.6274914004882 320.823392812 L 765.0148219838215 327.62972752033335 Z"/></g></g><g><g><rect fill="white" stroke="none" x="814.2926852721549" y="345.326197762" width="152.92480720582031" height="21.23576429"/></g><text fill="black" stroke="none" font-family="sans-serif" font-size="11pt" font-style="normal" font-weight="normal" text-decoration="normal" x="816.7429657671549" y="360.02788073199997" text-anchor="start" dominant-baseline="alphabetic" xml:space="preserve">getAllUserAvailable(id)</text></g><g><path fill="none" stroke="black" paint-order="fill stroke markers" d=" M 794.9626947004883 366.561962052 L 973.0981656659752 366.561962052" stroke-miterlimit="10" stroke-width="1.3612669416666667" stroke-dasharray=""/><g transform="translate(986.5474830496419,366.561962052) translate(-986.5474830496419,-366.561962052)"><path fill="black" stroke="none" paint-order="stroke fill markers" d=" M 972.9348136329752 359.7556273436667 L 986.5474830496419 366.561962052 L 972.9348136329752 373.36829676033335 Z"/></g></g><g><g><rect fill="white" stroke="none" x="861.8338153380729" y="391.064767002" width="57.84254707398438" height="21.23576429"/></g><text fill="black" stroke="none" font-family="sans-serif" font-size="11pt" font-style="normal" font-weight="normal" text-decoration="normal" x="864.2840958330729" y="405.766449972" text-anchor="start" dominant-baseline="alphabetic" xml:space="preserve">User list</text></g><g><path fill="none" stroke="black" paint-order="fill stroke markers" d=" M 986.5474830496419 412.300531292 L 808.412012084155 412.300531292" stroke-miterlimit="10" stroke-width="1.3612669416666667" stroke-dasharray="6.53408132"/><g transform="translate(794.9626947004883,412.300531292) translate(-794.9626947004883,-412.300531292)"><path fill="black" stroke="none" paint-order="stroke fill markers" d=" M 808.575364117155 405.4941965836667 L 794.9626947004883 412.300531292 L 808.575364117155 419.10686600033335 Z"/></g></g><g><g><rect fill="white" stroke="none" x="653.9138236889193" y="436.803336242" width="57.84254707398438" height="21.23576429"/></g><text fill="black" stroke="none" font-family="sans-serif" font-size="11pt" font-style="normal" font-weight="normal" text-decoration="normal" x="656.3641041839193" y="451.505019212" text-anchor="start" dominant-baseline="alphabetic" xml:space="preserve">User list</text></g><g><path fill="none" stroke="black" paint-order="fill stroke markers" d=" M 778.6274914004882 458.039100532 L 600.4920204350013 458.039100532" stroke-miterlimit="10" stroke-width="1.3612669416666667" stroke-dasharray="6.53408132"/><g transform="translate(587.0427030513347,458.039100532) translate(-587.0427030513347,-458.039100532)"><path fill="black" stroke="none" paint-order="stroke fill markers" d=" M 600.6553724680014 451.2327658236667 L 587.0427030513347 458.039100532 L 600.6553724680014 464.84543524033336 Z"/></g></g><g><g><rect fill="white" stroke="none" x="354.7626232384961" y="482.54190548200006" width="54.61422981324219" height="21.23576429"/></g><g><rect fill="white" stroke="none" x="354.7626232384961" y="498.87710878200005" width="167.8639856726172" height="21.23576429"/></g><text fill="green" stroke="none" font-family="sans-serif" font-size="11pt" font-style="normal" font-weight="normal" text-decoration="normal" x="357.2129037334961" y="497.24358845200004" text-anchor="start" dominant-baseline="alphabetic" xml:space="preserve">200 OK</text><text fill="green" stroke="none" font-family="sans-serif" font-size="11pt" font-style="normal" font-weight="normal" text-decoration="normal" x="357.2129037334961" y="513.578791752" text-anchor="start" dominant-baseline="alphabetic" xml:space="preserve">Response body: User list</text></g><g><path fill="none" stroke="black" paint-order="fill stroke markers" d=" M 570.7074997513346 520.1128730720001 L 320.1310497819414 520.1128730720001" stroke-miterlimit="10" stroke-width="1.3612669416666667" stroke-dasharray="6.53408132"/><g transform="translate(306.68173239827473,520.1128730720001) translate(-306.68173239827473,-520.1128730720001)"><path fill="black" stroke="none" paint-order="stroke fill markers" d=" M 320.2944018149414 513.3065383636667 L 306.68173239827473 520.1128730720001 L 320.2944018149414 526.9192077803334 Z"/></g></g><g><g><rect fill="white" stroke="none" x="86.83901525633463" y="544.615678022" width="184.17752327027344" height="21.23576429"/></g><text fill="black" stroke="none" font-family="sans-serif" font-size="11pt" font-style="normal" font-weight="normal" text-decoration="normal" x="89.28929575133463" y="559.317360992" text-anchor="start" dominant-baseline="alphabetic" xml:space="preserve">Display add Member popup</text></g><g><path fill="none" stroke="black" paint-order="fill stroke markers" d=" M 290.34652909827474 565.851442312 L 80.95834206833463 565.851442312" stroke-miterlimit="10" stroke-width="1.3612669416666667" stroke-dasharray="6.53408132"/><g transform="translate(67.50902468466796,565.851442312) translate(-67.50902468466796,-565.851442312)"><path fill="black" stroke="none" paint-order="stroke fill markers" d=" M 81.12169410133463 559.0451076036667 L 67.50902468466796 565.851442312 L 81.12169410133463 572.6577770203334 Z"/></g></g></g></g></svg>