<svg version="1.1" xmlns="http://www.w3.org/2000/svg" xmlns:xlink="http://www.w3.org/1999/xlink" width="1102" height="964"><desc>%20title%20Get%20all%20notification%20of%20user%0A%0Aactor%20%23green%3A0.5%20%22Workspace%20User%22%20as%20w%0Aboundary%20%22Homepage%22%20as%20f%0Acontrol%20%22User%20Controller%22%20as%20gc%0Aparticipant%20%22User%20Service%22%20as%20gs%0Adatabase%20%23blue%3A1%20%22Database%22%20as%20db%0A%0Aw-%3Ef%3AClick%20on%20Notification%20button%20on%20navigation%20bar%0Aactivate%20f%0Af-%3Egc%3A%20GET%3A%20api%2Fuser%2F%7Bid%7D%2Fevents%0A%0Aactivate%20gc%0Agc-%3Egs%3A%20isExist(id)%0Aactivate%20gs%0Ags-%3Edb%3A%20isExist()%0Aactivate%20db%0Ags%3C--db%3A%20Boolean%20value%0Adeactivate%20db%0Agc%3C--gs%3A%20Boolean%20value%0Adeactivate%20gs%0A%0Aalt%20If%20no%20User%20matches%20id%0Af%3C--gc%3A%3Ccolor%3A%23red%3E404%20NOT%20FOUND%3C%2Fcolor%3E%0A%0Aw%3C--f%3ADisplay%20404%20Not%20Found%20screen%0Aelse%20Else%0A%0Agc-%3Egs%3A%20getAllUserEvents(id)%0Aactivate%20gs%0Ags-%3Edb%3A%20getAllUserEvents()%0Aactivate%20db%0Ags%3C--db%3A%20Event%20list%0Adeactivate%20db%0Agc%3C--gs%3A%20Event%20list%0Adeactivate%20gs%0Af%3C--gc%3A%20%3Ccolor%3A%23green%3E200%20OK%5CnResponse%20body%3A%20Event%20list%3C%2Fcolor%3E%0Adeactivate%20gc%0Aw%3C--f%3A%20Display%20Notification%20list%0Adeactivate%20f%0Aend</desc><defs/><g><g/><g/><g/><g/><g/><g/><g/><g/><g/><g/><g/><g/><g/><g/><g/><g/><g/><g/><g/><g/><g><rect fill="white" stroke="none" x="0" y="0" width="1102" height="964"/></g><g><text fill="black" stroke="none" font-family="sans-serif" font-size="16.5pt" font-style="normal" font-weight="normal" text-decoration="normal" x="426.8956469886393" y="24.50280495" text-anchor="start" dominant-baseline="alphabetic" xml:space="preserve">Get all notification of user</text></g><g/><g><path fill="none" stroke="black" paint-order="fill stroke markers" d=" M 73.50841485 129.701514202 L 73.50841485 964.4304028319998" stroke-miterlimit="10" stroke-width="1.3612669416666667" stroke-dasharray="12.565541,5.445067766666667"/><path fill="none" stroke="black" paint-order="fill stroke markers" d=" M 415.35093851614585 129.701514202 L 415.35093851614585 964.4304028319998" stroke-miterlimit="10" stroke-width="1.3612669416666667" stroke-dasharray="12.565541,5.445067766666667"/><path fill="none" stroke="black" paint-order="fill stroke markers" d=" M 644.7455395402994 129.701514202 L 644.7455395402994 964.4304028319998" stroke-miterlimit="10" stroke-width="1.3612669416666667" stroke-dasharray="12.565541,5.445067766666667"/><path fill="none" stroke="black" paint-order="fill stroke markers" d=" M 838.256092102539 129.701514202 L 838.256092102539 964.4304028319998" stroke-miterlimit="10" stroke-width="1.3612669416666667" stroke-dasharray="12.565541,5.445067766666667"/><path fill="none" stroke="black" paint-order="fill stroke markers" d=" M 1020.3564884147786 129.701514202 L 1020.3564884147786 964.4304028319998" stroke-miterlimit="10" stroke-width="1.3612669416666667" stroke-dasharray="12.565541,5.445067766666667"/></g><g><g><path fill="white" stroke="green" paint-order="fill stroke markers" d=" M 82.819480731 60.60360424300001 A 9.311065881 9.311065881 0 1 1 82.81947607546743 60.594293178670846 M 73.50841485 69.91467012400001 L 73.50841485 89.84361815000001 M 61.747068473999995 77.102159576 L 85.26976122599999 77.102159576 M 73.50841485 89.84361815000001 L 61.747068473999995 108.465749912 M 73.50841485 89.84361815000001 L 85.26976122599999 108.465749912" stroke-miterlimit="10" stroke-width="1.3884922805000002" stroke-dasharray=""/></g><g><text fill="black" stroke="none" font-family="sans-serif" font-size="11pt" font-style="normal" font-weight="normal" text-decoration="normal" x="19.467635736230463" y="124.80095321200001" text-anchor="start" dominant-baseline="alphabetic" xml:space="preserve">Workspace User</text></g><g><path fill="white" stroke="black" paint-order="fill stroke markers" d=" M 447.77631706664584 82.819480731 A 24.2577769005 24.2577769005 0 1 1 447.7763049377584 82.79522295814245 M 384.3140522461458 57.17321154999999 L 384.3140522461458 108.465749912 M 382.92555996564585 82.819480731 L 399.26076326564583 82.819480731" stroke-miterlimit="10" stroke-width="2.7769845610000004" stroke-dasharray=""/></g><g><text fill="black" stroke="none" font-family="sans-serif" font-size="11pt" font-style="normal" font-weight="normal" text-decoration="normal" x="379.49196024466147" y="124.80095321200001" text-anchor="start" dominant-baseline="alphabetic" xml:space="preserve">Homepage</text></g><g><path fill="white" stroke="black" paint-order="fill stroke markers" d=" M 669.0033164407994 82.819480731 A 24.2577769005 24.2577769005 0 1 1 669.003304311912 82.79522295814245 M 641.4784988802994 58.561703830499994 L 651.2796208602994 50.39410218049999 M 641.4784988802994 58.561703830499994 L 651.2796208602994 66.72930548049999" stroke-miterlimit="10" stroke-width="2.7769845610000004" stroke-dasharray=""/></g><g><text fill="black" stroke="none" font-family="sans-serif" font-size="11pt" font-style="normal" font-weight="normal" text-decoration="normal" x="595.4578045549479" y="124.80095321200001" text-anchor="start" dominant-baseline="alphabetic" xml:space="preserve">User Controller</text></g><path fill="none" stroke="none"/><g><path fill="white" stroke="black" paint-order="fill stroke markers" d=" M 778.5782339243827 85.75981732500001 L 897.9339502806953 85.75981732500001 L 897.9339502806953 129.701514202 L 778.5782339243827 129.701514202 L 778.5782339243827 85.75981732500001 Z" stroke-miterlimit="10" stroke-width="2.613632528" stroke-dasharray=""/></g><g><text fill="black" stroke="none" font-family="sans-serif" font-size="11pt" font-style="normal" font-weight="normal" text-decoration="normal" x="796.3019295048828" y="113.36631090200002" text-anchor="start" dominant-baseline="alphabetic" xml:space="preserve">User Service</text></g><g><path fill="white" stroke="blue" paint-order="fill stroke markers" d=" M 996.5070915967787 97.684515734 L 996.5070915967787 63.380588804000006 L 1044.2058852327787 63.380588804000006 L 1044.2058852327787 97.684515734" stroke-miterlimit="10" stroke-width="2.7769845610000004" stroke-dasharray=""/><path fill="white" stroke="blue" paint-order="fill stroke markers" d=" M 1044.2058852327787 62.1881189631 L 1044.204692772875 62.29592950801663 L 1044.201115512409 62.403729271968594 L 1044.1951538091034 62.51150747506936 L 1044.1868082591243 62.619253339588404 L 1044.176079697019 62.72695609102909 L 1044.1629691956352 62.834604959206004 L 1044.147478066012 62.94218917932205 L 1044.1296078572493 63.04969799304486 L 1044.1093603563534 63.15712064958265 L 1044.086737588057 63.2644464067593 L 1044.0617418146187 63.371664532088516 L 1044.0343755355948 63.47876430384712 L 1044.00464148759 63.58573501214718 L 1043.972542643985 63.692565960007016 L 1043.9380822146368 63.79924646442086 L 1043.90126364556 63.90576585742718 L 1043.8620906185809 64.01211348717543 L 1043.820567050969 64.11827871899126 L 1043.776697095047 64.22425093643996 L 1043.7304851377737 64.3300195423881 L 1043.6819358003063 64.43557396006322 L 1043.6310539375384 64.54090363411153 L 1043.5778446376132 64.64599803165338 L 1043.522313221417 64.75084664333659 L 1043.4644652420452 64.85543898438739 L 1043.404306484247 64.95976459565881 L 1043.3418429638482 65.06381304467668 L 1043.2770809271492 65.16757392668278 L 1043.210026850299 65.27103686567541 L 1043.14068743865 65.37419151544687 L 1043.0690696260856 65.47702756061814 L 1042.995180574327 65.5795347176704 L 1042.9190276722177 65.68170273597339 L 1042.840618534985 65.7835213988104 L 1042.759961003477 65.88498052439998 L 1042.6770631433794 65.98606996691414 L 1042.5919332444096 66.08677961749288 L 1042.5045798194863 66.18709940525505 L 1042.415011603879 66.28701929830548 L 1042.3232375543348 66.38652930473813 L 1042.2292668481825 66.48561947363528 L 1042.133108882414 66.58427989606261 L 1042.0347732727457 66.6825007060601 L 1041.934269852657 66.7802720816286 L 1041.8316086724058 66.87758424571203 L 1041.7267999980247 66.97442746717506 L 1041.619854310294 67.07079206177627 L 1041.510782303693 67.1666683931365 L 1041.3995948853317 67.2620468737025 L 1041.286303173859 67.35691796570569 L 1041.1709184983522 67.45127218211596 L 1041.0534523971821 67.54510008759026 L 1040.9339166168613 67.63839229941624 L 1040.812323110868 67.73113948845047 L 1040.6886840384516 67.82333238005134 L 1040.5630117634162 67.9149617550065 L 1040.4353188528846 68.00601845045483 L 1040.3056180760418 68.09649336080267 L 1040.1739224028568 68.18637743863435 L 1040.0402450027875 68.27566169561702 L 1039.9045992434626 68.36433720339936 L 1039.7669986893447 68.45239509450451 L 1039.6274571003748 68.53982656321674 L 1039.4859884305956 68.62662286646201 L 1039.3426068267559 68.71277532468237 L 1039.1973266268965 68.79827532270376 L 1039.0501623589169 68.88311431059763 L 1038.9011287391206 68.9672838045359 L 1038.7502406707458 69.0507753876393 L 1038.5975132424735 69.13358071081912 L 1038.442961726919 69.21569149361203 L 1038.2866015791055 69.29709952500816 L 1038.1284484349173 69.37779666427225 L 1037.9685181095372 69.45777484175761 L 1037.8068265958639 69.53702605971311 L 1037.6433900629145 69.61554239308303 L 1037.478224854206 69.69331599029945 L 1037.3113474861218 69.77033907406746 L 1037.1427746462593 69.84660394214286 L 1036.972523191762 69.92210296810242 L 1036.800610147634 69.99682860210643 L 1036.627052705036 70.07077337165379 L 1036.4518682195676 70.14392988232913 L 1036.2750742095316 70.21629081854239 L 1036.0966883541814 70.28784894426022 L 1035.9167284919542 70.35859710372968 L 1035.735212618686 70.42852822219379 L 1035.5521588858132 70.49763530659898 L 1035.3675855985562 70.5659114462944 L 1035.18151121409 70.63334981372294 L 1034.9939543396981 70.69994366510412 L 1034.8049337309114 70.76568634110825 L 1034.6144682896336 70.83057126752253 L 1034.4225770622497 70.89459195590838 L 1034.229279237723 70.95774200425032 L 1034.0345941456744 71.02001509759614 L 1033.8385412544512 71.08140500868842 L 1033.6411401691792 71.14190559858717 L 1033.442410629802 71.20151081728383 L 1033.2423725091082 71.26021470430622 L 1033.0410458107433 71.31801138931453 L 1032.8384506672091 71.37489509268845 L 1032.6346073378515 71.43086012610503 L 1032.429536206833 71.48590089310757 L 1032.2232577810964 71.54001188966522 L 1032.015792688312 71.59318770472345 L 1031.8071616748164 71.64542302074504 L 1031.5973856035368 71.69671261424193 L 1031.3864854519059 71.7470513562975 L 1031.1744823097629 71.79643421307951 L 1030.9613973772452 71.84485624634341 L 1030.7472519626688 71.89231261392625 L 1030.5320674803966 71.93879857023082 L 1030.3158654486974 71.9843094667002 L 1030.0986674875942 72.02884075228269 L 1029.880495316702 72.07238797388683 L 1029.6613707530566 72.11494677682676 L 1029.4413157089314 72.15651290525764 L 1029.2203521896472 72.19708220260128 L 1028.9985022913722 72.23665061196175 L 1028.7757881989112 72.27521417653107 L 1028.5522321834878 72.31276903998494 L 1028.3278566005172 72.3493114468683 L 1028.1026838873709 72.38483774297092 L 1027.8767365611325 72.41934437569277 L 1027.6500372163464 72.45282789439938 L 1027.4226085227579 72.48528495076673 L 1027.1944732230472 72.51671229911628 L 1026.9656541305537 72.54710679673934 L 1026.7361741269965 72.5764654042115 L 1026.5060561601845 72.60478518569649 L 1026.2753232417224 72.63206330923974 L 1026.04399844471 72.65829704705163 L 1025.8121049014342 72.68348377578025 L 1025.579665801056 72.70762097677371 L 1025.346704387292 72.73070623633201 L 1025.113243956089 72.75273724594847 L 1024.879307853296 72.77371180254045 L 1024.6449194723282 72.79362780866978 L 1024.4101022518282 72.81248327275246 L 1024.1748796733225 72.83027630925778 L 1023.9392752588728 72.84700513889692 L 1023.7033125687245 72.86266808880085 L 1023.4670151989499 72.87726359268764 L 1023.2304067790889 72.89079019101906 L 1022.9935109697863 72.90324653114655 L 1022.7563514604258 72.91463136744649 L 1022.5189519667606 72.9249435614447 L 1022.2813362285422 72.93418208193043 L 1022.0435280071465 72.94234600505929 L 1021.8055510831974 72.94943451444577 L 1021.567429254189 72.95544690124485 L 1021.3291863321059 72.96038256422287 L 1021.0908461410415 72.96424100981763 L 1020.8524325148165 72.9670218521878 L 1020.6139692945948 72.96872481325143 L 1020.3754803264997 72.96934972271386 L 1020.1369894592291 72.96889651808466 L 1019.8985205416712 72.96736524468392 L 1019.660097420519 72.96475605563768 L 1019.421743937886 72.96106921186271 L 1019.1834839289216 72.95630508204027 L 1018.9453412194284 72.9504641425794 L 1018.7073396234788 72.94354697756918 L 1018.469502941034 72.93555427872033 L 1018.231854955564 72.9264868452961 L 1017.9944194316695 72.91634558403224 L 1017.7572201127048 72.90513150904647 L 1017.5202807184044 72.89284574173689 L 1017.2836249425101 72.87948951067006 L 1017.0472764504023 72.86506415145789 L 1016.8112588767332 72.84957110662431 L 1016.5755958230636 72.8330119254609 L 1016.3403108555025 72.81538826387197 L 1016.1054275023505 72.79670188420899 L 1015.8709692517472 72.77695465509434 L 1015.6369595493223 72.7561485512345 L 1015.4034217958509 72.73428565322251 L 1015.1703793449141 72.71136814732996 L 1014.9378555005624 72.68739832528833 L 1014.7058735149865 72.66237858405984 L 1014.4744565861919 72.63631142559778 L 1014.2436278556784 72.60919945659627 L 1014.0134104061268 72.58104538822961 L 1013.7838272590902 72.55185203588118 L 1013.5549013726919 72.5216223188619 L 1013.3266556393299 72.49035926011825 L 1013.0991128833873 72.45806598593009 L 1012.87229585895 72.4247457255979 L 1012.6462272475316 72.39040181111994 L 1012.4209296558046 72.35503767685907 L 1012.1964256133405 72.31865685919922 L 1011.9727375703566 72.28126299619186 L 1011.7498878954707 72.24285982719209 L 1011.5278988734646 72.20345119248485 L 1011.3067927030555 72.16304103290075 L 1011.0865914946761 72.12163338942209 L 1010.867317268264 72.07923240277869 L 1010.6489919510587 72.03584231303388 L 1010.4316373754103 71.99146745916049 L 1010.2152752765953 71.94611227860693 L 1009.999927290643 71.89978130685344 L 1009.7856149521728 71.85247917695861 L 1009.5723596922396 71.80421061909601 L 1009.3601828361922 71.75498046008119 L 1009.1491056015388 71.70479362288901 L 1008.9391490958275 71.65365512616141 L 1008.7303343145336 71.60157008370541 L 1008.5226821389613 71.54854370398188 L 1008.3162133341551 71.49458128958457 L 1008.1109485468235 71.43968823671 L 1007.906908303274 71.38387003461766 L 1007.704113007361 71.32713226508127 L 1007.5025829384452 71.26948060183051 L 1007.3023382493656 71.21092080998365 L 1007.103398964424 71.15145874547107 L 1006.9057849773832 71.0911003544497 L 1006.7095160494773 71.0298516727083 L 1006.5146118074355 70.96771882506403 L 1006.3210917415196 70.90470802474988 L 1006.1289752035748 70.84082557279336 L 1005.938281405095 70.77607785738643 L 1005.749029415301 70.71047135324669 L 1005.5612381592341 70.64401262096986 L 1005.3749264158635 70.5767083063738 L 1005.190112816208 70.50856513983389 L 1005.006815841474 70.43958993560999 L 1004.8250538212058 70.36978959116503 L 1004.6448449314543 70.29917108647531 L 1004.466207192958 70.22774148333244 L 1004.289158469342 70.1555079246372 L 1004.1137164653312 70.08247763368529 L 1003.9398987249798 70.00865791344492 L 1003.7677226299169 69.9340561458266 L 1003.5972053976085 69.85867979094495 L 1003.4283640796359 69.78253638637263 L 1003.26121555999 69.70563354638664 L 1003.0957765533836 69.62797896120689 L 1002.9320636035794 69.54958039622719 L 1002.7700930817361 69.47044569123871 L 1002.6098811847709 69.39058275964601 L 1002.4514439337397 69.30999958767568 L 1002.2947971722359 69.22870423357777 L 1002.1399565648051 69.14670482681996 L 1001.9869375953788 69.06400956727457 L 1001.8357555657265 68.98062672439866 L 1001.6864255939252 68.89656463640702 L 1001.5389626128476 68.8118317094384 L 1001.3933813686691 68.72643641671489 L 1001.2496964193926 68.6403872976946 L 1001.1079221333935 68.55369295721772 L 1000.968072687982 68.46636206464606 L 1000.8301620679863 68.37840335299609 L 1000.6942040643532 68.28982561806569 L 1000.5602122727702 68.20063771755453 L 1000.4282000923045 68.11084857017835 L 1000.2981807240641 68.02046715477704 L 1000.1701671698776 67.92950250941684 L 1000.0441722309937 67.83796373048648 L 999.9202085068014 67.74585997178757 L 999.7982883935697 67.65320044361923 L 999.6784240832083 67.55999441185705 L 999.5606275620484 67.46625119702654 L 999.4449106096439 67.37198017337107 L 999.3312847975936 67.27719076791445 L 999.2197614883843 67.18189245951821 L 999.1103518342536 67.08609477793381 L 999.0030667760759 66.98980730284956 L 998.8979170422676 66.89303966293272 L 998.7949131477146 66.79580153486665 L 998.6940653927203 66.69810264238313 L 998.5953838619762 66.59995275528999 L 998.4988784235533 66.50136168849414 L 998.4045587279148 66.40233930102012 L 998.3124342069518 66.30289549502413 L 998.2225140730396 66.20304021480393 L 998.1348073181167 66.1027834458043 L 998.0493227127854 66.00213521361863 L 997.9660688054352 65.90110558298623 L 997.8850539213871 65.799704656786 L 997.8062861620623 65.69794257502603 L 997.729773404171 65.59582951382973 L 997.6555232989252 65.4933756844181 L 997.5835432712737 65.3905913320887 L 997.513840519159 65.28748673519112 L 997.4464220127985 65.18407220409914 L 997.3812944939865 65.08035808017966 L 997.3184644754206 64.97635473475869 L 997.2579382400504 64.87207256808405 L 997.1997218404489 64.76752200828555 L 997.1438210982077 64.66271351033203 L 997.0902416033542 64.55765755498592 L 997.0389887137934 64.45236464775525 L 996.9900675547716 64.34684531784296 L 996.9434830183637 64.24111011709415 L 996.8992397629848 64.13516961894075 L 996.8573422129234 64.0290344173443 L 996.8177945578997 63.92271512573653 L 996.780600752646 63.81622237595798 L 996.7457645165122 63.70956681719489 L 996.7132893330925 63.602759114914264 L 996.6831784498785 63.49580994979732 L 996.6554348779332 63.38873001667144 L 996.6300613915909 63.28153002344071 L 996.6070605281789 63.17422069001512 L 996.5864345877644 63.066812747238586 L 996.5681856329243 62.959316935815885 L 996.5523154885389 62.85174400523857 L 996.5388257416093 62.74410471271006 L 996.5277177410991 62.636409822069915 L 996.5189925977991 62.52867010271744 L 996.5126511842161 62.4208963285348 L 996.5086941344865 62.313099276809595 L 996.5071218443118 62.20528972715717 L 996.5079344709197 62.09747846044265 L 996.5111319330483 61.98967625770286 L 996.516713910954 61.88189389906824 L 996.5246798464436 61.77414216268484 L 996.5350289429304 61.66643182363649 L 996.5477601655132 61.558773652867366 L 996.5628722410803 61.4511784161048 L 996.5803636584369 61.34365687278283 L 996.6002326684556 61.236219774966166 L 996.6224772842523 61.12887786627507 L 996.6470952813838 61.02164188081096 L 996.6740841980708 60.91452254208302 L 996.7034413354442 60.807530561935856 L 996.7351637578147 60.70067663947832 L 996.7692482929666 60.593971460013606 L 996.8056915324746 60.487425693970756 L 996.8444898320454 60.381049995837586 L 996.885639311881 60.27485500309525 L 996.9291358570681 60.16885133515453 L 996.9749751179882 60.06304959229389 L 997.0231525107533 59.95746035459945 L 997.0736632176646 59.852094180906974 L 997.1265021876932 59.746961607746044 L 997.1816641369863 59.64207314828636 L 997.239143549395 59.537439291286454 L 997.2989346770257 59.43307050004484 L 997.3610315408156 59.32897721135367 L 997.4254279311301 59.22516983445505 L 997.4921174083839 59.12165875000019 L 997.5610933036847 59.01845430901127 L 997.6323487195006 58.91556683184637 L 997.7058765303492 58.81300660716748 L 997.7816693835108 58.7107838909116 L 997.8597196997632 58.60890890526517 L 997.94001967414 58.507391837641855 L 998.0225612767103 58.406242839663825 L 998.1073362533831 58.30547202614659 L 998.1943361267311 58.205089474087515 L 998.2835521968394 58.105105221658164 L 998.3749755421755 58.00552926720046 L 998.4685970204811 57.90637156822687 L 998.5644072696861 57.807642040424646 L 998.6623967088457 57.709350556664305 L 998.7625555390975 57.61150694601232 L 998.8648737446421 57.514120992748204 L 998.9693410937439 57.417202435386145 L 999.0759471397554 57.320760965701105 L 999.1846812221606 57.224806227759686 L 999.2955324676419 57.12934781695572 L 999.4084897911673 57.03439527905074 L 999.5235418970984 56.93995810921942 L 999.6406772803206 56.84604575110002 L 999.759884227393 56.75266759585011 L 999.8811508177204 56.65983298120741 L 1000.0044649247448 56.567551190555996 L 1000.1298142171582 56.47583145199805 L 1000.2571861601359 56.384682937430995 L 1000.3865680165898 56.29411476163032 L 1000.5179468484419 56.20413598133814 L 1000.6513095179184 56.1147555943575 L 1000.7866426888638 56.02598253865261 L 1000.9239328280737 55.937825691455075 L 1001.0631662066485 55.85029386837614 L 1001.2043289013664 55.763395822525176 L 1001.3474067960755 55.677140243634355 L 1001.4923855831056 55.591535757189675 L 1001.6392507646989 55.50659092356846 L 1001.7879876544596 55.42231423718327 L 1001.9385813788225 55.33871412563253 L 1002.0910168785409 55.25579894885771 L 1002.2452789101917 55.1735769983074 L 1002.4013520477004 55.092056496108135 L 1002.5592206838832 55.01124559424221 L 1002.7188690320081 54.93115237373246 L 1002.8802811273732 54.851784843834196 L 1003.0434408289037 54.77315094123426 L 1003.2083318207652 54.6952585292574 L 1003.3749376139962 54.61811539707989 L 1003.543241548156 54.54172925895067 L 1003.7132267929912 54.46610775341989 L 1003.8848763501195 54.391258442575094 L 1004.058173054728 54.317188811284986 L 1004.2330995772904 54.24390626645098 L 1004.4096384253006 54.171418136266475 L 1004.5877719450207 54.09973166948409 L 1004.7674823232472 54.028854034690774 L 1004.9487515890921 53.95879231959093 L 1005.1315616157798 53.88955353029769 L 1005.31589412246 53.82114459063227 L 1005.5017306760358 53.753572341431656 L 1005.6890526930064 53.68684353986444 L 1005.8778414413263 53.62096485875517 L 1006.0680780422781 53.55594288591707 L 1006.2597434723602 53.49178412349323 L 1006.4528185651893 53.42849498730643 L 1006.647284013417 53.366081806217544 L 1006.8431203706606 53.304550821492676 L 1007.0403080534473 53.24390818617902 L 1007.2388273431736 53.18415996448957 L 1007.4386583880756 53.12531213119671 L 1007.6397812052154 53.067370571034715 L 1007.842175682479 53.01034107811134 L 1008.0458215805874 52.95422935532834 L 1008.2506985351201 52.89904101381123 L 1008.4567860585528 52.84478157234818 L 1008.6640635423047 52.79145645683812 L 1008.8725102588002 52.73907099974815 L 1009.0821053635414 52.687630439580346 L 1009.2928278971923 52.637139920347835 L 1009.5046567876753 52.58760449106049 L 1009.717570852278 52.53902910521993 L 1009.9315487997711 52.49141862032429 L 1010.1465692325384 52.444777797382365 L 1010.3626106487155 52.399111300437596 L 1010.579651444341 52.354423696101605 L 1010.7976699155164 52.3107194530976 L 1011.016644260576 52.26800294181345 L 1011.2365525822677 52.2262784338647 L 1011.4573728899429 52.18555010166736 L 1011.6790831017546 52.14582201802072 L 1011.9016610468665 52.10709815570004 L 1012.1250844676695 52.06938238705927 L 1012.3493310220076 52.032678483643856 L 1012.5743782854125 51.996990115813546 L 1012.8002037533453 51.96232085237539 L 1013.0267848434473 51.928674160226834 L 1013.2540988977985 51.89605340400906 L 1013.4821231851826 51.8644618457705 L 1013.710834903361 51.833902644640645 L 1013.9402111813527 51.80437885651416 L 1014.1702290817208 51.775893433745246 L 1014.4008656028669 51.74844922485244 L 1014.6320976813313 51.722048974233765 L 1014.8639021940986 51.69669532189228 L 1015.096255960911 51.672390803172085 L 1015.3291357465852 51.649137848504814 L 1015.5625182633368 51.626938783166544 L 1015.7963801731086 51.60579582704531 L 1016.0306980899044 51.58571109441911 L 1016.2654485821279 51.56668659374447 L 1016.5006081749254 51.54872422745561 L 1016.7361533525338 51.53182579177417 L 1016.9720605606315 51.515992976529645 L 1017.2083062086942 51.50122736499037 L 1017.444866672354 51.4875304337052 L 1017.6817182957618 51.47490355235584 L 1017.9188373939525 51.4633479836199 L 1018.1562002552139 51.45286488304463 L 1018.3937831434577 51.443455298931354 L 1018.6315623005929 51.43512017223063 L 1018.8695139489023 51.4278603364482 L 1019.107614293419 51.42167651756158 L 1019.3458395243072 51.41656933394751 L 1019.5841658192422 51.41253929632009 L 1019.8225693457932 51.40958680767973 L 1020.0610262638061 51.407712163272826 L 1020.2995127277879 51.40691555056227 L 1020.538004889291 51.40719704920866 L 1020.7764788992978 51.40855663106237 L 1021.0149109106062 51.41099416016634 L 1021.2532770802137 51.414509392769695 L 1021.491553571702 51.419101977352106 L 1021.7297165576205 51.42477145465894 L 1021.967742221869 51.431517257747196 L 1022.2056067620795 51.43933871204218 L 1022.4432863919961 51.44823503540498 L 1022.6807573438542 51.45820533821068 L 1022.9179958707562 51.4692486234373 L 1023.1549782490471 51.48136378676553 L 1023.3916807806867 51.49454961668913 L 1023.628079795619 51.50880479463608 L 1023.8641516541396 51.524127895100484 L 1024.0998727492592 51.54051738578506 L 1024.335219509065 51.5579716277544 L 1024.5701683990767 51.57648887559884 L 1024.8046959246017 51.59606727760904 L 1025.0387786330823 51.6167048759611 L 1025.272393116443 51.6383996069124 L 1025.5055160134302 51.66114930100791 L 1025.7381240119482 51.684951683297186 L 1025.9701938513913 51.70980437356183 L 1026.201702324969 51.735704886553535 L 1026.4326262820261 51.76265063224257 L 1026.6629426303605 51.79063891607683 L 1026.8926283385283 51.81966693925126 L 1027.1216604381507 51.849731798987726 L 1027.3500160262083 51.88083048882531 L 1027.577672267333 51.91295989892094 L 1027.8046063960896 51.94611681636038 L 1028.0307957192551 51.980297925479526 L 1028.2562176180852 52.01549980819594 L 1028.4808495505783 52.0517189443507 L 1028.704669053728 52.08895171206036 L 1028.9276537457704 52.127194388079175 L 1029.1497813284225 52.16644314817141 L 1029.371029589111 52.20669406749378 L 1029.591376403194 52.247943120987884 L 1029.810799736174 52.29018618378274 L 1030.0292776459005 52.33341903160728 L 1030.2467882847643 52.37763734121275 L 1030.4633099018831 52.422836690805035 L 1030.6788208452756 52.46901256048684 L 1030.8932995640268 52.516160332709674 L 1031.1067246104437 52.564275292735616 L 1031.3190746421997 52.613352629108746 L 1031.5303284244683 52.663387434136325 L 1031.7404648320476 52.71437470437956 L 1031.9494628514717 52.7663093411539 L 1032.1573015831127 52.819186151038956 L 1032.363960243271 52.8729998463978 L 1032.5694181662527 52.92774504590574 L 1032.7736548064368 52.983416275088445 L 1032.976649740329 53.040007966869396 L 1033.1783826686058 53.09751446212657 L 1033.3788334181418 53.15593001025836 L 1033.5779819440295 53.21524876975863 L 1033.775808331582 53.27546480880087 L 1033.9722927983257 53.33657210583136 L 1034.1674156959773 53.3985645501713 L 1034.36115751241 53.461435942627936 L 1034.5534988736035 53.52517999611441 L 1034.744420545582 53.58979033627848 L 1034.9339034363372 53.655260502139996 L 1035.1219285977381 53.721583946736914 L 1035.308477227425 53.78875403778004 L 1035.493530670691 53.85676405831625 L 1035.6770704223452 53.92560720740017 L 1035.859078128566 53.995276600774254 L 1036.0395355887338 54.065765271557225 L 1036.2184247572536 54.13706617094075 L 1036.3957277453576 54.2091721688943 L 1036.5714268228942 54.28207605487816 L 1036.7455044201026 54.35577053856451 L 1036.9179431293678 54.43024825056637 L 1037.0887257069628 54.50550174317461 L 1037.2578350747722 54.581523491102686 L 1037.4252543219998 54.658305892239156 L 1037.5909667068606 54.73584126840789 L 1037.7549556582544 54.81412186613588 L 1037.9172047774223 54.89313985742859 L 1038.077697839588 54.97288734055273 L 1038.2364187955786 55.05335634082646 L 1038.3933517734313 55.1345388114168 L 1038.5484810799787 55.21642663414435 L 1038.7017912024194 55.29901162029506 L 1038.8532668098692 55.38228551143916 L 1039.0028927548933 55.46623998025691 L 1039.1506540750222 55.55086663137139 L 1039.2965359942466 55.63615700218803 L 1039.4405239244966 55.722102563740805 L 1039.5826034670986 55.80869472154519 L 1039.7227604142174 55.89592481645755 L 1039.8609807502746 55.98378412554111 L 1039.997250653352 56.07226386293816 L 1040.1315564965728 56.1613551807487 L 1040.2638848494646 56.251049169915184 L 1040.3942224793022 56.34133686111345 L 1040.5225563524316 56.4322092256496 L 1040.6488736355723 56.52365717636293 L 1040.773161697101 56.615671568534566 L 1040.8954081083155 56.70824320080196 L 1041.0156006446762 56.80136281607904 L 1041.1337272870296 56.89502110248188 L 1041.2497762228104 56.98920869425987 L 1041.3637358472213 57.083916172732344 L 1041.4755947643948 57.17913406723036 L 1041.5853417885328 57.27485285604382 L 1041.6929659450238 57.37106296737362 L 1041.7984564715423 57.467754780288786 L 1041.9018028191235 57.56491862568861 L 1042.0029946532184 57.662544787269525 L 1042.1020218547283 57.76062350249672 L 1042.1988745210153 57.859144963580405 L 1042.2935429668937 57.95809931845658 L 1042.3860177255976 58.05747667177222 L 1042.4762895497283 58.15726708587479 L 1042.5643494121787 58.257460581806065 L 1042.6501885070359 58.358047140299924 L 1042.7337982504616 58.459016702784346 L 1042.8151702815517 58.56035917238722 L 1042.8942964631706 58.66206441494605 L 1042.971168882766 58.764122260021324 L 1043.0457798531602 58.866522501913586 L 1043.1181219133182 58.96925490068398 L 1043.1881878290944 59.072309183178234 L 1043.2559705939555 59.17567504405398 L 1043.3214634296814 59.279342146811274 L 1043.3846597870433 59.38330012482622 L 1043.445553346458 59.48753858238766 L 1043.5041380186203 59.59204709573668 L 1043.560407945112 59.69681521410906 L 1043.6143574989874 59.80183246078026 L 1043.6659812853354 59.907088334113126 L 1043.7152741418213 60.012572308608036 L 1043.7622311391997 60.11827383595545 L 1043.8068475818106 60.22418234609071 L 1043.8491190080467 60.33028724825106 L 1043.8890411908005 60.43657793203471 L 1043.926610137887 60.54304376846186 L 1043.9618220924433 60.64967411103757 L 1043.9946735333026 60.75645829681646 L 1044.0251611753483 60.86338564746893 L 1044.0532819698421 60.97044547034902 L 1044.0790331047276 61.07762705956367 L 1044.1024120049126 61.184919697043256 L 1044.123416332527 61.29231265361346 L 1044.1420439871551 61.399795190068104 L 1044.1582931060475 61.50735655824312 L 1044.1721620643054 61.614986002091314 L 1044.1836494750446 61.72267275875801 L 1044.1927541895338 61.830406059657264 L 1044.199475297309 61.93817513154877 L 1044.2038121262651 62.04596919761514 L 1044.2057642427226 62.15377747853961 M 1044.2058852327787 96.4920458931 L 1044.204692772875 96.59985643801662 L 1044.201115512409 96.70765620196859 L 1044.1951538091034 96.81543440506935 L 1044.1868082591243 96.9231802695884 L 1044.176079697019 97.03088302102908 L 1044.1629691956352 97.138531889206 L 1044.147478066012 97.24611610932205 L 1044.1296078572493 97.35362492304485 L 1044.1093603563534 97.46104757958265 L 1044.086737588057 97.5683733367593 L 1044.0617418146187 97.67559146208852 L 1044.0343755355948 97.78269123384712 L 1044.00464148759 97.88966194214719 L 1043.972542643985 97.99649289000702 L 1043.9380822146368 98.10317339442086 L 1043.90126364556 98.20969278742717 L 1043.8620906185809 98.31604041717543 L 1043.820567050969 98.42220564899125 L 1043.776697095047 98.52817786643996 L 1043.7304851377737 98.6339464723881 L 1043.6819358003063 98.73950089006323 L 1043.6310539375384 98.84483056411152 L 1043.5778446376132 98.94992496165337 L 1043.522313221417 99.05477357333659 L 1043.4644652420452 99.15936591438738 L 1043.404306484247 99.2636915256588 L 1043.3418429638482 99.36773997467667 L 1043.2770809271492 99.47150085668278 L 1043.210026850299 99.5749637956754 L 1043.14068743865 99.67811844544686 L 1043.0690696260856 99.78095449061813 L 1042.995180574327 99.8834616476704 L 1042.9190276722177 99.98562966597338 L 1042.840618534985 100.08744832881038 L 1042.759961003477 100.18890745439998 L 1042.6770631433794 100.28999689691415 L 1042.5919332444096 100.39070654749288 L 1042.5045798194863 100.49102633525506 L 1042.415011603879 100.59094622830548 L 1042.3232375543348 100.69045623473812 L 1042.2292668481825 100.78954640363527 L 1042.133108882414 100.8882068260626 L 1042.0347732727457 100.9864276360601 L 1041.934269852657 101.0841990116286 L 1041.8316086724058 101.18151117571202 L 1041.7267999980247 101.27835439717506 L 1041.619854310294 101.37471899177628 L 1041.510782303693 101.4705953231365 L 1041.3995948853317 101.56597380370249 L 1041.286303173859 101.6608448957057 L 1041.1709184983522 101.75519911211595 L 1041.0534523971821 101.84902701759025 L 1040.9339166168613 101.94231922941623 L 1040.812323110868 102.03506641845047 L 1040.6886840384516 102.12725931005133 L 1040.5630117634162 102.2188886850065 L 1040.4353188528846 102.30994538045483 L 1040.3056180760418 102.40042029080266 L 1040.1739224028568 102.49030436863434 L 1040.0402450027875 102.579588625617 L 1039.9045992434626 102.66826413339936 L 1039.7669986893447 102.75632202450451 L 1039.6274571003748 102.84375349321674 L 1039.4859884305956 102.93054979646202 L 1039.3426068267559 103.01670225468237 L 1039.1973266268965 103.10220225270375 L 1039.0501623589169 103.18704124059762 L 1038.9011287391206 103.27121073453588 L 1038.7502406707458 103.3547023176393 L 1038.5975132424735 103.4375076408191 L 1038.442961726919 103.51961842361202 L 1038.2866015791055 103.60102645500817 L 1038.1284484349173 103.68172359427226 L 1037.9685181095372 103.7617017717576 L 1037.8068265958639 103.84095298971312 L 1037.6433900629145 103.91946932308304 L 1037.478224854206 103.99724292029944 L 1037.3113474861218 104.07426600406745 L 1037.1427746462593 104.15053087214287 L 1036.972523191762 104.22602989810241 L 1036.800610147634 104.30075553210642 L 1036.627052705036 104.37470030165377 L 1036.4518682195676 104.44785681232914 L 1036.2750742095316 104.52021774854238 L 1036.0966883541814 104.59177587426021 L 1035.9167284919542 104.66252403372968 L 1035.735212618686 104.73245515219378 L 1035.5521588858132 104.80156223659897 L 1035.3675855985562 104.86983837629438 L 1035.18151121409 104.93727674372295 L 1034.9939543396981 105.0038705951041 L 1034.8049337309114 105.06961327110824 L 1034.6144682896336 105.13449819752252 L 1034.4225770622497 105.19851888590837 L 1034.229279237723 105.26166893425032 L 1034.0345941456744 105.32394202759615 L 1033.8385412544512 105.38533193868841 L 1033.6411401691792 105.44583252858716 L 1033.442410629802 105.50543774728384 L 1033.2423725091082 105.56414163430621 L 1033.0410458107433 105.62193831931454 L 1032.8384506672091 105.67882202268845 L 1032.6346073378515 105.73478705610502 L 1032.429536206833 105.78982782310756 L 1032.2232577810964 105.84393881966523 L 1032.015792688312 105.89711463472344 L 1031.8071616748164 105.94934995074503 L 1031.5973856035368 106.00063954424192 L 1031.3864854519059 106.0509782862975 L 1031.1744823097629 106.1003611430795 L 1030.9613973772452 106.14878317634341 L 1030.7472519626688 106.19623954392625 L 1030.5320674803966 106.2427255002308 L 1030.3158654486974 106.2882363967002 L 1030.0986674875942 106.33276768228268 L 1029.880495316702 106.37631490388682 L 1029.6613707530566 106.41887370682676 L 1029.4413157089314 106.46043983525765 L 1029.2203521896472 106.50100913260128 L 1028.9985022913722 106.54057754196174 L 1028.7757881989112 106.57914110653107 L 1028.5522321834878 106.61669596998493 L 1028.3278566005172 106.65323837686829 L 1028.1026838873709 106.6887646729709 L 1027.8767365611325 106.72327130569276 L 1027.6500372163464 106.75675482439937 L 1027.4226085227579 106.78921188076673 L 1027.1944732230472 106.82063922911627 L 1026.9656541305537 106.85103372673933 L 1026.7361741269965 106.8803923342115 L 1026.5060561601845 106.90871211569649 L 1026.2753232417224 106.93599023923973 L 1026.04399844471 106.96222397705162 L 1025.8121049014342 106.98741070578025 L 1025.579665801056 107.0115479067737 L 1025.346704387292 107.03463316633201 L 1025.113243956089 107.05666417594847 L 1024.879307853296 107.07763873254045 L 1024.6449194723282 107.09755473866979 L 1024.4101022518282 107.11641020275246 L 1024.1748796733225 107.13420323925777 L 1023.9392752588728 107.1509320688969 L 1023.7033125687245 107.16659501880085 L 1023.4670151989499 107.18119052268763 L 1023.2304067790889 107.19471712101905 L 1022.9935109697863 107.20717346114655 L 1022.7563514604258 107.21855829744648 L 1022.5189519667606 107.22887049144471 L 1022.2813362285422 107.23810901193042 L 1022.0435280071465 107.24627293505928 L 1021.8055510831974 107.25336144444577 L 1021.567429254189 107.25937383124486 L 1021.3291863321059 107.26430949422287 L 1021.0908461410415 107.26816793981763 L 1020.8524325148165 107.27094878218779 L 1020.6139692945948 107.27265174325143 L 1020.3754803264997 107.27327665271386 L 1020.1369894592291 107.27282344808465 L 1019.8985205416712 107.27129217468391 L 1019.660097420519 107.26868298563768 L 1019.421743937886 107.2649961418627 L 1019.1834839289216 107.26023201204026 L 1018.9453412194284 107.2543910725794 L 1018.7073396234788 107.24747390756917 L 1018.469502941034 107.23948120872033 L 1018.231854955564 107.23041377529609 L 1017.9944194316695 107.22027251403225 L 1017.7572201127048 107.20905843904646 L 1017.5202807184044 107.1967726717369 L 1017.2836249425101 107.18341644067004 L 1017.0472764504023 107.16899108145788 L 1016.8112588767332 107.15349803662431 L 1016.5755958230636 107.1369388554609 L 1016.3403108555025 107.11931519387196 L 1016.1054275023505 107.10062881420897 L 1015.8709692517472 107.08088158509435 L 1015.6369595493223 107.0600754812345 L 1015.4034217958509 107.03821258322252 L 1015.1703793449141 107.01529507732995 L 1014.9378555005624 106.99132525528832 L 1014.7058735149865 106.96630551405984 L 1014.4744565861919 106.94023835559778 L 1014.2436278556784 106.91312638659626 L 1014.0134104061268 106.88497231822961 L 1013.7838272590902 106.85577896588119 L 1013.5549013726919 106.8255492488619 L 1013.3266556393299 106.79428619011826 L 1013.0991128833873 106.76199291593008 L 1012.87229585895 106.72867265559789 L 1012.6462272475316 106.69432874111995 L 1012.4209296558046 106.65896460685907 L 1012.1964256133405 106.62258378919921 L 1011.9727375703566 106.58518992619184 L 1011.7498878954707 106.5467867571921 L 1011.5278988734646 106.50737812248485 L 1011.3067927030555 106.46696796290075 L 1011.0865914946761 106.42556031942208 L 1010.867317268264 106.38315933277867 L 1010.6489919510587 106.33976924303387 L 1010.4316373754103 106.29539438916049 L 1010.2152752765953 106.25003920860692 L 1009.999927290643 106.20370823685344 L 1009.7856149521728 106.15640610695861 L 1009.5723596922396 106.108137549096 L 1009.3601828361922 106.05890739008117 L 1009.1491056015388 106.00872055288902 L 1008.9391490958275 105.9575820561614 L 1008.7303343145336 105.90549701370541 L 1008.5226821389613 105.85247063398188 L 1008.3162133341551 105.79850821958458 L 1008.1109485468235 105.74361516670999 L 1007.906908303274 105.68779696461766 L 1007.704113007361 105.63105919508126 L 1007.5025829384452 105.5734075318305 L 1007.3023382493656 105.51484773998365 L 1007.103398964424 105.45538567547108 L 1006.9057849773832 105.3950272844497 L 1006.7095160494773 105.33377860270829 L 1006.5146118074355 105.27164575506403 L 1006.3210917415196 105.20863495474987 L 1006.1289752035748 105.14475250279335 L 1005.938281405095 105.08000478738643 L 1005.749029415301 105.01439828324668 L 1005.5612381592341 104.94793955096986 L 1005.3749264158635 104.8806352363738 L 1005.190112816208 104.8124920698339 L 1005.006815841474 104.74351686560999 L 1004.8250538212058 104.67371652116503 L 1004.6448449314543 104.6030980164753 L 1004.466207192958 104.53166841333243 L 1004.289158469342 104.4594348546372 L 1004.1137164653312 104.38640456368528 L 1003.9398987249798 104.31258484344491 L 1003.7677226299169 104.2379830758266 L 1003.5972053976085 104.16260672094495 L 1003.4283640796359 104.08646331637262 L 1003.26121555999 104.00956047638662 L 1003.0957765533836 103.93190589120688 L 1002.9320636035794 103.85350732622719 L 1002.7700930817361 103.77437262123871 L 1002.6098811847709 103.694509689646 L 1002.4514439337397 103.61392651767568 L 1002.2947971722359 103.53263116357778 L 1002.1399565648051 103.45063175681996 L 1001.9869375953788 103.36793649727457 L 1001.8357555657265 103.28455365439865 L 1001.6864255939252 103.20049156640701 L 1001.5389626128476 103.1157586394384 L 1001.3933813686691 103.03036334671489 L 1001.2496964193926 102.94431422769459 L 1001.1079221333935 102.85761988721772 L 1000.968072687982 102.77028899464605 L 1000.8301620679863 102.68233028299609 L 1000.6942040643532 102.5937525480657 L 1000.5602122727702 102.50456464755453 L 1000.4282000923045 102.41477550017834 L 1000.2981807240641 102.32439408477703 L 1000.1701671698776 102.23342943941684 L 1000.0441722309937 102.14189066048647 L 999.9202085068014 102.04978690178756 L 999.7982883935697 101.95712737361922 L 999.6784240832083 101.86392134185704 L 999.5606275620484 101.77017812702654 L 999.4449106096439 101.67590710337106 L 999.3312847975936 101.58111769791444 L 999.2197614883843 101.48581938951821 L 999.1103518342536 101.39002170793381 L 999.0030667760759 101.29373423284954 L 998.8979170422676 101.19696659293271 L 998.7949131477146 101.09972846486664 L 998.6940653927203 101.00202957238312 L 998.5953838619762 100.90387968528998 L 998.4988784235533 100.80528861849413 L 998.4045587279148 100.70626623102011 L 998.3124342069518 100.60682242502413 L 998.2225140730396 100.50696714480392 L 998.1348073181167 100.40671037580431 L 998.0493227127854 100.30606214361863 L 997.9660688054352 100.20503251298624 L 997.8850539213871 100.103631586786 L 997.8062861620623 100.00186950502604 L 997.729773404171 99.89975644382972 L 997.6555232989252 99.79730261441809 L 997.5835432712737 99.69451826208869 L 997.513840519159 99.59141366519111 L 997.4464220127985 99.48799913409913 L 997.3812944939865 99.38428501017967 L 997.3184644754206 99.28028166475868 L 997.2579382400504 99.17599949808405 L 997.1997218404489 99.07144893828554 L 997.1438210982077 98.96664044033201 L 997.0902416033542 98.86158448498593 L 997.0389887137934 98.75629157775525 L 996.9900675547716 98.65077224784297 L 996.9434830183637 98.54503704709414 L 996.8992397629848 98.43909654894075 L 996.8573422129234 98.33296134734431 L 996.8177945578997 98.22664205573652 L 996.780600752646 98.12014930595798 L 996.7457645165122 98.01349374719489 L 996.7132893330925 97.90668604491427 L 996.6831784498785 97.79973687979731 L 996.6554348779332 97.69265694667143 L 996.6300613915909 97.58545695344071 L 996.6070605281789 97.47814762001512 L 996.5864345877644 97.37073967723859 L 996.5681856329243 97.26324386581588 L 996.5523154885389 97.15567093523856 L 996.5388257416093 97.04803164271006 L 996.5277177410991 96.94033675206991 L 996.5189925977991 96.83259703271744 L 996.5126511842161 96.7248232585348 L 996.5086941344865 96.6170262068096 L 996.5071218443118 96.50921665715717" stroke-miterlimit="10" stroke-width="2.7769845610000004" stroke-dasharray=""/></g><g><text fill="black" stroke="none" font-family="sans-serif" font-size="11pt" font-style="normal" font-weight="normal" text-decoration="normal" x="988.9785434684895" y="124.80095321200001" text-anchor="start" dominant-baseline="alphabetic" xml:space="preserve">Database</text></g></g><g><path fill="white" stroke="black" paint-order="fill stroke markers" d=" M 407.18333686614585 183.607685092 L 423.51854016614584 183.607685092 L 423.51854016614584 882.7543863319997 L 407.18333686614585 882.7543863319997 L 407.18333686614585 183.607685092" stroke-miterlimit="10" stroke-width="1.3612669416666667" stroke-dasharray=""/><path fill="white" stroke="black" paint-order="fill stroke markers" d=" M 636.5779378902994 229.346254332 L 652.9131411902995 229.346254332 L 652.9131411902995 837.0158170919998 L 636.5779378902994 837.0158170919998 L 636.5779378902994 229.346254332" stroke-miterlimit="10" stroke-width="1.3612669416666667" stroke-dasharray=""/><path fill="white" stroke="black" paint-order="fill stroke markers" d=" M 830.088490452539 275.084823572 L 846.4236937525391 275.084823572 L 846.4236937525391 412.300531292 L 830.088490452539 412.300531292 L 830.088490452539 275.084823572" stroke-miterlimit="10" stroke-width="1.3612669416666667" stroke-dasharray=""/><path fill="white" stroke="black" paint-order="fill stroke markers" d=" M 1012.1888867647785 320.823392812 L 1028.5240900647786 320.823392812 L 1028.5240900647786 366.561962052 L 1012.1888867647785 366.561962052 L 1012.1888867647785 320.823392812" stroke-miterlimit="10" stroke-width="1.3612669416666667" stroke-dasharray=""/><path fill="white" stroke="black" paint-order="fill stroke markers" d=" M 830.088490452539 637.7263368319999 L 846.4236937525391 637.7263368319999 L 846.4236937525391 774.9420445519997 L 830.088490452539 774.9420445519997 L 830.088490452539 637.7263368319999" stroke-miterlimit="10" stroke-width="1.3612669416666667" stroke-dasharray=""/><path fill="white" stroke="black" paint-order="fill stroke markers" d=" M 1012.1888867647785 683.4649060719998 L 1028.5240900647786 683.4649060719998 L 1028.5240900647786 729.2034753119998 L 1012.1888867647785 729.2034753119998 L 1012.1888867647785 683.4649060719998" stroke-miterlimit="10" stroke-width="1.3612669416666667" stroke-dasharray=""/><g><g><rect fill="white" stroke="none" x="92.83840542166668" y="162.371920802" width="295.0149408728125" height="21.23576429"/></g><text fill="black" stroke="none" font-family="sans-serif" font-size="11pt" font-style="normal" font-weight="normal" text-decoration="normal" x="95.28868591666668" y="177.07360377199998" text-anchor="start" dominant-baseline="alphabetic" xml:space="preserve">Click on Notification button on navigation bar</text></g><g><path fill="none" stroke="black" paint-order="fill stroke markers" d=" M 73.50841485 183.607685092 L 393.7340194824792 183.607685092" stroke-miterlimit="10" stroke-width="1.3612669416666667" stroke-dasharray=""/><g transform="translate(407.18333686614585,183.607685092) translate(-407.18333686614585,-183.607685092)"><path fill="black" stroke="none" paint-order="stroke fill markers" d=" M 393.5706674494792 176.80135038366666 L 407.18333686614585 183.607685092 L 393.5706674494792 190.41401980033334 Z"/></g></g><g><g><rect fill="white" stroke="none" x="446.92152878468744" y="208.110490042" width="166.25342048707031" height="21.23576429"/></g><text fill="black" stroke="none" font-family="sans-serif" font-size="11pt" font-style="normal" font-weight="normal" text-decoration="normal" x="449.37180927968745" y="222.812173012" text-anchor="start" dominant-baseline="alphabetic" xml:space="preserve">GET: api/user/{id}/events</text></g><g><path fill="none" stroke="black" paint-order="fill stroke markers" d=" M 423.51854016614584 229.346254332 L 623.1286205066327 229.346254332" stroke-miterlimit="10" stroke-width="1.3612669416666667" stroke-dasharray=""/><g transform="translate(636.5779378902994,229.346254332) translate(-636.5779378902994,-229.346254332)"><path fill="black" stroke="none" paint-order="stroke fill markers" d=" M 622.9652684736327 222.53991962366666 L 636.5779378902994 229.346254332 L 622.9652684736327 236.15258904033334 Z"/></g></g><g><g><rect fill="white" stroke="none" x="707.286069994388" y="253.849059282" width="68.4294916540625" height="21.23576429"/></g><text fill="black" stroke="none" font-family="sans-serif" font-size="11pt" font-style="normal" font-weight="normal" text-decoration="normal" x="709.736350489388" y="268.550742252" text-anchor="start" dominant-baseline="alphabetic" xml:space="preserve">isExist(id)</text></g><g><path fill="none" stroke="black" paint-order="fill stroke markers" d=" M 652.9131411902995 275.084823572 L 816.6391730688723 275.084823572" stroke-miterlimit="10" stroke-width="1.3612669416666667" stroke-dasharray=""/><g transform="translate(830.088490452539,275.084823572) translate(-830.088490452539,-275.084823572)"><path fill="black" stroke="none" paint-order="stroke fill markers" d=" M 816.4758210358723 268.27848886366667 L 830.088490452539 275.084823572 L 816.4758210358723 281.89115828033334 Z"/></g></g><g><g><rect fill="white" stroke="none" x="900.7966225566275" y="299.587628522" width="57.0193354040625" height="21.23576429"/></g><text fill="black" stroke="none" font-family="sans-serif" font-size="11pt" font-style="normal" font-weight="normal" text-decoration="normal" x="903.2469030516276" y="314.28931149199997" text-anchor="start" dominant-baseline="alphabetic" xml:space="preserve">isExist()</text></g><g><path fill="none" stroke="black" paint-order="fill stroke markers" d=" M 846.4236937525391 320.823392812 L 998.7395693811119 320.823392812" stroke-miterlimit="10" stroke-width="1.3612669416666667" stroke-dasharray=""/><g transform="translate(1012.1888867647785,320.823392812) translate(-1012.1888867647785,-320.823392812)"><path fill="black" stroke="none" paint-order="stroke fill markers" d=" M 998.5762173481119 314.01705810366667 L 1012.1888867647785 320.823392812 L 998.5762173481119 327.62972752033335 Z"/></g></g><g><g><rect fill="white" stroke="none" x="880.3957589091666" y="345.326197762" width="97.82106269898438" height="21.23576429"/></g><text fill="black" stroke="none" font-family="sans-serif" font-size="11pt" font-style="normal" font-weight="normal" text-decoration="normal" x="882.8460394041666" y="360.02788073199997" text-anchor="start" dominant-baseline="alphabetic" xml:space="preserve">Boolean value</text></g><g><path fill="none" stroke="black" paint-order="fill stroke markers" d=" M 1012.1888867647785 366.561962052 L 859.8730111362057 366.561962052" stroke-miterlimit="10" stroke-width="1.3612669416666667" stroke-dasharray="6.53408132"/><g transform="translate(846.4236937525391,366.561962052) translate(-846.4236937525391,-366.561962052)"><path fill="black" stroke="none" paint-order="stroke fill markers" d=" M 860.0363631692057 359.7556273436667 L 846.4236937525391 366.561962052 L 860.0363631692057 373.36829676033335 Z"/></g></g><g><g><rect fill="white" stroke="none" x="692.590284471927" y="391.064767002" width="97.82106269898438" height="21.23576429"/></g><text fill="black" stroke="none" font-family="sans-serif" font-size="11pt" font-style="normal" font-weight="normal" text-decoration="normal" x="695.040564966927" y="405.766449972" text-anchor="start" dominant-baseline="alphabetic" xml:space="preserve">Boolean value</text></g><g><path fill="none" stroke="black" paint-order="fill stroke markers" d=" M 830.088490452539 412.300531292 L 666.3624585739661 412.300531292" stroke-miterlimit="10" stroke-width="1.3612669416666667" stroke-dasharray="6.53408132"/><g transform="translate(652.9131411902995,412.300531292) translate(-652.9131411902995,-412.300531292)"><path fill="black" stroke="none" paint-order="stroke fill markers" d=" M 666.5258106069662 405.4941965836667 L 652.9131411902995 412.300531292 L 666.5258106069662 419.10686600033335 Z"/></g></g><g><g><rect fill="white" stroke="none" x="469.7632951421093" y="480.908385152" width="120.56988777222656" height="21.23576429"/></g><text fill="red" stroke="none" font-family="sans-serif" font-size="11pt" font-style="normal" font-weight="normal" text-decoration="normal" x="472.21357563710933" y="495.610068122" text-anchor="start" dominant-baseline="alphabetic" xml:space="preserve">404 NOT FOUND</text></g><g><path fill="none" stroke="black" paint-order="fill stroke markers" d=" M 636.5779378902994 502.144149442 L 436.9678575498125 502.144149442" stroke-miterlimit="10" stroke-width="1.3612669416666667" stroke-dasharray="6.53408132"/><g transform="translate(423.51854016614584,502.144149442) translate(-423.51854016614584,-502.144149442)"><path fill="black" stroke="none" paint-order="stroke fill markers" d=" M 437.1312095828125 495.3378147336667 L 423.51854016614584 502.144149442 L 437.1312095828125 508.95048415033335 Z"/></g></g><g><g><rect fill="white" stroke="none" x="139.29505520194013" y="526.646954392" width="202.10164131226563" height="21.23576429"/></g><text fill="black" stroke="none" font-family="sans-serif" font-size="11pt" font-style="normal" font-weight="normal" text-decoration="normal" x="141.74533569694012" y="541.348637362" text-anchor="start" dominant-baseline="alphabetic" xml:space="preserve">Display 404 Not Found screen</text></g><g><path fill="none" stroke="black" paint-order="fill stroke markers" d=" M 407.18333686614585 547.882718682 L 86.95773223366666 547.882718682" stroke-miterlimit="10" stroke-width="1.3612669416666667" stroke-dasharray="6.53408132"/><g transform="translate(73.50841485,547.882718682) translate(-73.50841485,-547.882718682)"><path fill="black" stroke="none" paint-order="stroke fill markers" d=" M 87.12108426666666 541.0763839736667 L 73.50841485 547.882718682 L 87.12108426666666 554.6890533903334 Z"/></g></g><g><g><rect fill="white" stroke="none" x="672.2431317619661" y="616.4905725419999" width="138.51536811890625" height="21.23576429"/></g><text fill="black" stroke="none" font-family="sans-serif" font-size="11pt" font-style="normal" font-weight="normal" text-decoration="normal" x="674.6934122569661" y="631.1922555119999" text-anchor="start" dominant-baseline="alphabetic" xml:space="preserve">getAllUserEvents(id)</text></g><g><path fill="none" stroke="black" paint-order="fill stroke markers" d=" M 652.9131411902995 637.7263368319999 L 816.6391730688723 637.7263368319999" stroke-miterlimit="10" stroke-width="1.3612669416666667" stroke-dasharray=""/><g transform="translate(830.088490452539,637.7263368319999) translate(-830.088490452539,-637.7263368319999)"><path fill="black" stroke="none" paint-order="stroke fill markers" d=" M 816.4758210358723 630.9200021236666 L 830.088490452539 637.7263368319999 L 816.4758210358723 644.5326715403332 Z"/></g></g><g><g><rect fill="white" stroke="none" x="865.7536843242057" y="662.2291417819998" width="127.10521186890625" height="21.23576429"/></g><text fill="black" stroke="none" font-family="sans-serif" font-size="11pt" font-style="normal" font-weight="normal" text-decoration="normal" x="868.2039648192057" y="676.9308247519998" text-anchor="start" dominant-baseline="alphabetic" xml:space="preserve">getAllUserEvents()</text></g><g><path fill="none" stroke="black" paint-order="fill stroke markers" d=" M 846.4236937525391 683.4649060719998 L 998.7395693811119 683.4649060719998" stroke-miterlimit="10" stroke-width="1.3612669416666667" stroke-dasharray=""/><g transform="translate(1012.1888867647785,683.4649060719998) translate(-1012.1888867647785,-683.4649060719998)"><path fill="black" stroke="none" paint-order="stroke fill markers" d=" M 998.5762173481119 676.6585713636665 L 1012.1888867647785 683.4649060719998 L 998.5762173481119 690.2712407803332 Z"/></g></g><g><g><rect fill="white" stroke="none" x="897.117301267565" y="707.9677110219998" width="64.3779779821875" height="21.23576429"/></g><text fill="black" stroke="none" font-family="sans-serif" font-size="11pt" font-style="normal" font-weight="normal" text-decoration="normal" x="899.567581762565" y="722.6693939919998" text-anchor="start" dominant-baseline="alphabetic" xml:space="preserve">Event list</text></g><g><path fill="none" stroke="black" paint-order="fill stroke markers" d=" M 1012.1888867647785 729.2034753119998 L 859.8730111362057 729.2034753119998" stroke-miterlimit="10" stroke-width="1.3612669416666667" stroke-dasharray="6.53408132"/><g transform="translate(846.4236937525391,729.2034753119998) translate(-846.4236937525391,-729.2034753119998)"><path fill="black" stroke="none" paint-order="stroke fill markers" d=" M 860.0363631692057 722.3971406036665 L 846.4236937525391 729.2034753119998 L 860.0363631692057 736.0098100203331 Z"/></g></g><g><g><rect fill="white" stroke="none" x="709.3118268303255" y="753.7062802619997" width="64.3779779821875" height="21.23576429"/></g><text fill="black" stroke="none" font-family="sans-serif" font-size="11pt" font-style="normal" font-weight="normal" text-decoration="normal" x="711.7621073253255" y="768.4079632319997" text-anchor="start" dominant-baseline="alphabetic" xml:space="preserve">Event list</text></g><g><path fill="none" stroke="black" paint-order="fill stroke markers" d=" M 830.088490452539 774.9420445519997 L 666.3624585739661 774.9420445519997" stroke-miterlimit="10" stroke-width="1.3612669416666667" stroke-dasharray="6.53408132"/><g transform="translate(652.9131411902995,774.9420445519997) translate(-652.9131411902995,-774.9420445519997)"><path fill="black" stroke="none" paint-order="stroke fill markers" d=" M 666.5258106069662 768.1357098436664 L 652.9131411902995 774.9420445519997 L 666.5258106069662 781.7483792603331 Z"/></g></g><g><g><rect fill="white" stroke="none" x="442.84853073781244" y="799.4448495019998" width="54.61422981324219" height="21.23576429"/></g><g><rect fill="white" stroke="none" x="442.84853073781244" y="815.7800528019998" width="174.39941658082031" height="21.23576429"/></g><text fill="green" stroke="none" font-family="sans-serif" font-size="11pt" font-style="normal" font-weight="normal" text-decoration="normal" x="445.29881123281245" y="814.1465324719998" text-anchor="start" dominant-baseline="alphabetic" xml:space="preserve">200 OK</text><text fill="green" stroke="none" font-family="sans-serif" font-size="11pt" font-style="normal" font-weight="normal" text-decoration="normal" x="445.29881123281245" y="830.4817357719998" text-anchor="start" dominant-baseline="alphabetic" xml:space="preserve">Response body: Event list</text></g><g><path fill="none" stroke="black" paint-order="fill stroke markers" d=" M 636.5779378902994 837.0158170919998 L 436.9678575498125 837.0158170919998" stroke-miterlimit="10" stroke-width="1.3612669416666667" stroke-dasharray="6.53408132"/><g transform="translate(423.51854016614584,837.0158170919998) translate(-423.51854016614584,-837.0158170919998)"><path fill="black" stroke="none" paint-order="stroke fill markers" d=" M 437.1312095828125 830.2094823836665 L 423.51854016614584 837.0158170919998 L 437.1312095828125 843.8221518003331 Z"/></g></g><g><g><rect fill="white" stroke="none" x="164.57065182059247" y="861.5186220419997" width="151.55044807496094" height="21.23576429"/></g><text fill="black" stroke="none" font-family="sans-serif" font-size="11pt" font-style="normal" font-weight="normal" text-decoration="normal" x="167.02093231559246" y="876.2203050119997" text-anchor="start" dominant-baseline="alphabetic" xml:space="preserve">Display Notification list</text></g><g><path fill="none" stroke="black" paint-order="fill stroke markers" d=" M 407.18333686614585 882.7543863319997 L 86.95773223366666 882.7543863319997" stroke-miterlimit="10" stroke-width="1.3612669416666667" stroke-dasharray="6.53408132"/><g transform="translate(73.50841485,882.7543863319997) translate(-73.50841485,-882.7543863319997)"><path fill="black" stroke="none" paint-order="stroke fill markers" d=" M 87.12108426666666 875.9480516236664 L 73.50841485 882.7543863319997 L 87.12108426666666 889.5607210403331 Z"/></g></g><g><g/><path fill="none" stroke="black" paint-order="fill stroke markers" d=" M 16.335203299999996 436.803336242 L 1077.5296999647785 436.803336242 L 1077.5296999647785 907.2571912819998 L 16.335203299999996 907.2571912819998 L 16.335203299999996 436.803336242 Z" stroke-miterlimit="10" stroke-width="2.3336004714285714" stroke-dasharray=""/><path fill="white" stroke="black" paint-order="fill stroke markers" d=" M 16.335203299999996 436.803336242 L 16.335203299999996 456.405580202 L 62.69440689707031 456.405580202 L 72.49552887707031 446.604458222 L 72.49552887707031 436.803336242 L 16.335203299999996 436.803336242" stroke-miterlimit="10" stroke-width="2.3336004714285714" stroke-dasharray=""/><text fill="black" stroke="none" font-family="sans-serif" font-size="8.8pt" font-style="normal" font-weight="bold" text-decoration="normal" x="32.67040659999999" y="449.871498882" text-anchor="start" dominant-baseline="alphabetic" xml:space="preserve">alt</text><g><rect fill="white" stroke="none" x="86.38045168207032" y="438.110152506" width="131.34727729859375" height="16.988611432000003"/></g><text fill="black" stroke="none" font-family="sans-serif" font-size="8.8pt" font-style="normal" font-weight="bold" text-decoration="normal" x="88.83073217707032" y="449.871498882" text-anchor="start" dominant-baseline="alphabetic" xml:space="preserve">[If no User matches id]</text><g><path fill="none" stroke="black" paint-order="fill stroke markers" d=" M 16.335203299999996 572.385523632 L 1077.5296999647785 572.385523632" stroke-miterlimit="10" stroke-width="2.3336004714285714" stroke-dasharray="4.083800825"/></g><g/><g><rect fill="white" stroke="none" x="86.38045168207032" y="573.6923398959999" width="36.84300483765625" height="16.988611432000003"/></g><text fill="black" stroke="none" font-family="sans-serif" font-size="8.8pt" font-style="normal" font-weight="bold" text-decoration="normal" x="88.83073217707032" y="585.4536862719999" text-anchor="start" dominant-baseline="alphabetic" xml:space="preserve">[Else]</text></g><g/></g></g></svg>